<?xml version="1.0" encoding="UTF-8" standalone="no"?>
<!DOCTYPE svg PUBLIC "-//W3C//DTD SVG 1.1//EN"
 "http://www.w3.org/Graphics/SVG/1.1/DTD/svg11.dtd">
<!-- Generated by graphviz version 2.43.0 (0)
 -->
<!-- Title: include/PerceptualColor/abstractdiagram.h Pages: 1 -->
<svg width="773pt" height="363pt"
 viewBox="0.00 0.00 773.00 363.00" xmlns="http://www.w3.org/2000/svg" xmlns:xlink="http://www.w3.org/1999/xlink">
<g id="graph0" class="graph" transform="scale(1 1) rotate(0) translate(4 359)">
<title>include/PerceptualColor/abstractdiagram.h</title>
<polygon fill="white" stroke="transparent" points="-4,4 -4,-359 769,-359 769,4 -4,4"/>
<!-- Node1 -->
<g id="node1" class="node">
<title>Node1</title>
<g id="a_node1"><a xlink:title=" ">
<polygon fill="#bfbfbf" stroke="black" points="161,-324.5 161,-354.5 293,-354.5 293,-324.5 161,-324.5"/>
<text text-anchor="start" x="169" y="-342.5" font-family="Helvetica,sans-Serif" font-size="10.00">include/PerceptualColor</text>
<text text-anchor="middle" x="227" y="-331.5" font-family="Helvetica,sans-Serif" font-size="10.00">/abstractdiagram.h</text>
</a>
</g>
</g>
<!-- Node2 -->
<g id="node2" class="node">
<title>Node2</title>
<g id="a_node2"><a xlink:href="abstractdiagram_8cpp.html" target="_top" xlink:title=" ">
<polygon fill="white" stroke="black" points="0,-263 0,-282 134,-282 134,-263 0,-263"/>
<text text-anchor="middle" x="67" y="-270" font-family="Helvetica,sans-Serif" font-size="10.00">src/abstractdiagram.cpp</text>
</a>
</g>
</g>
<!-- Node1&#45;&gt;Node2 -->
<g id="edge1" class="edge">
<title>Node1&#45;&gt;Node2</title>
<path fill="none" stroke="midnightblue" d="M182.99,-320.62C152.02,-308.04 111.96,-291.77 87.94,-282.01"/>
<polygon fill="midnightblue" stroke="midnightblue" points="181.7,-323.87 192.28,-324.4 184.34,-317.39 181.7,-323.87"/>
</g>
<!-- Node3 -->
<g id="node3" class="node">
<title>Node3</title>
<g id="a_node3"><a xlink:href="chromalightnessdiagram_8h.html" target="_top" xlink:title=" ">
<polygon fill="white" stroke="black" points="152,-257.5 152,-287.5 302,-287.5 302,-257.5 152,-257.5"/>
<text text-anchor="start" x="160" y="-275.5" font-family="Helvetica,sans-Serif" font-size="10.00">include/PerceptualColor</text>
<text text-anchor="middle" x="227" y="-264.5" font-family="Helvetica,sans-Serif" font-size="10.00">/chromalightnessdiagram.h</text>
</a>
</g>
</g>
<!-- Node1&#45;&gt;Node3 -->
<g id="edge2" class="edge">
<title>Node1&#45;&gt;Node3</title>
<path fill="none" stroke="midnightblue" d="M227,-314.11C227,-305.15 227,-295.32 227,-287.58"/>
<polygon fill="midnightblue" stroke="midnightblue" points="223.5,-314.4 227,-324.4 230.5,-314.4 223.5,-314.4"/>
</g>
<!-- Node10 -->
<g id="node10" class="node">
<title>Node10</title>
<g id="a_node10"><a xlink:href="circulardiagram_8h.html" target="_top" xlink:title=" ">
<polygon fill="white" stroke="black" points="408,-257.5 408,-287.5 540,-287.5 540,-257.5 408,-257.5"/>
<text text-anchor="start" x="416" y="-275.5" font-family="Helvetica,sans-Serif" font-size="10.00">include/PerceptualColor</text>
<text text-anchor="middle" x="474" y="-264.5" font-family="Helvetica,sans-Serif" font-size="10.00">/circulardiagram.h</text>
</a>
</g>
</g>
<!-- Node1&#45;&gt;Node10 -->
<g id="edge9" class="edge">
<title>Node1&#45;&gt;Node10</title>
<path fill="none" stroke="midnightblue" d="M290.01,-321.92C330.32,-311.31 382.04,-297.7 420.38,-287.61"/>
<polygon fill="midnightblue" stroke="midnightblue" points="289.07,-318.55 280.29,-324.48 290.85,-325.32 289.07,-318.55"/>
</g>
<!-- Node4 -->
<g id="node4" class="node">
<title>Node4</title>
<g id="a_node4"><a xlink:href="chromalightnessdiagram_8cpp.html" target="_top" xlink:title=" ">
<polygon fill="white" stroke="black" points="139,-196 139,-215 315,-215 315,-196 139,-196"/>
<text text-anchor="middle" x="227" y="-203" font-family="Helvetica,sans-Serif" font-size="10.00">src/chromalightnessdiagram.cpp</text>
</a>
</g>
</g>
<!-- Node3&#45;&gt;Node4 -->
<g id="edge3" class="edge">
<title>Node3&#45;&gt;Node4</title>
<path fill="none" stroke="midnightblue" d="M227,-247.25C227,-236.02 227,-223.38 227,-215.19"/>
<polygon fill="midnightblue" stroke="midnightblue" points="223.5,-247.4 227,-257.4 230.5,-247.4 223.5,-247.4"/>
</g>
<!-- Node5 -->
<g id="node5" class="node">
<title>Node5</title>
<g id="a_node5"><a xlink:href="wheelcolorpicker_8h.html" target="_top" xlink:title=" ">
<polygon fill="white" stroke="black" points="183,-123.5 183,-153.5 315,-153.5 315,-123.5 183,-123.5"/>
<text text-anchor="start" x="191" y="-141.5" font-family="Helvetica,sans-Serif" font-size="10.00">include/PerceptualColor</text>
<text text-anchor="middle" x="249" y="-130.5" font-family="Helvetica,sans-Serif" font-size="10.00">/wheelcolorpicker.h</text>
</a>
</g>
</g>
<!-- Node3&#45;&gt;Node5 -->
<g id="edge4" class="edge">
<title>Node3&#45;&gt;Node5</title>
<path fill="none" stroke="midnightblue" d="M167.38,-253.09C152.63,-245.56 138.6,-235.18 130,-221 122.85,-209.22 122.4,-201.49 130,-190 142.14,-171.66 162.42,-159.96 182.84,-152.51"/>
<polygon fill="midnightblue" stroke="midnightblue" points="166.08,-256.34 176.62,-257.42 169.05,-250 166.08,-256.34"/>
</g>
<!-- Node6 -->
<g id="node6" class="node">
<title>Node6</title>
<g id="a_node6"><a xlink:href="wheelcolorpicker_8cpp.html" target="_top" xlink:title=" ">
<polygon fill="white" stroke="black" points="181,-62 181,-81 317,-81 317,-62 181,-62"/>
<text text-anchor="middle" x="249" y="-69" font-family="Helvetica,sans-Serif" font-size="10.00">src/wheelcolorpicker.cpp</text>
</a>
</g>
</g>
<!-- Node5&#45;&gt;Node6 -->
<g id="edge5" class="edge">
<title>Node5&#45;&gt;Node6</title>
<path fill="none" stroke="midnightblue" d="M249,-113.25C249,-102.02 249,-89.38 249,-81.19"/>
<polygon fill="midnightblue" stroke="midnightblue" points="245.5,-113.4 249,-123.4 252.5,-113.4 245.5,-113.4"/>
</g>
<!-- Node7 -->
<g id="node7" class="node">
<title>Node7</title>
<g id="a_node7"><a xlink:href="colordialog_8h.html" target="_top" xlink:title=" ">
<polygon fill="white" stroke="black" points="468,-56.5 468,-86.5 600,-86.5 600,-56.5 468,-56.5"/>
<text text-anchor="start" x="476" y="-74.5" font-family="Helvetica,sans-Serif" font-size="10.00">include/PerceptualColor</text>
<text text-anchor="middle" x="534" y="-63.5" font-family="Helvetica,sans-Serif" font-size="10.00">/colordialog.h</text>
</a>
</g>
</g>
<!-- Node5&#45;&gt;Node7 -->
<g id="edge6" class="edge">
<title>Node5&#45;&gt;Node7</title>
<path fill="none" stroke="midnightblue" d="M320.53,-121.19C367.21,-110.54 427.52,-96.78 472.13,-86.61"/>
<polygon fill="midnightblue" stroke="midnightblue" points="319.46,-117.84 310.49,-123.48 321.02,-124.66 319.46,-117.84"/>
</g>
<!-- Node8 -->
<g id="node8" class="node">
<title>Node8</title>
<g id="a_node8"><a xlink:href="colordialog_8cpp.html" target="_top" xlink:title=" ">
<polygon fill="white" stroke="black" points="424,-0.5 424,-19.5 532,-19.5 532,-0.5 424,-0.5"/>
<text text-anchor="middle" x="478" y="-7.5" font-family="Helvetica,sans-Serif" font-size="10.00">src/colordialog.cpp</text>
</a>
</g>
</g>
<!-- Node7&#45;&gt;Node8 -->
<g id="edge7" class="edge">
<title>Node7&#45;&gt;Node8</title>
<path fill="none" stroke="midnightblue" d="M513.77,-49C504.22,-38.86 493.37,-27.33 486.15,-19.66"/>
<polygon fill="midnightblue" stroke="midnightblue" points="511.33,-51.52 520.73,-56.4 516.42,-46.72 511.33,-51.52"/>
</g>
<!-- Node9 -->
<g id="node9" class="node">
<title>Node9</title>
<g id="a_node9"><a xlink:href="main_8cpp.html" target="_top" xlink:title=" ">
<polygon fill="white" stroke="black" points="550.5,-0.5 550.5,-19.5 629.5,-19.5 629.5,-0.5 550.5,-0.5"/>
<text text-anchor="middle" x="590" y="-7.5" font-family="Helvetica,sans-Serif" font-size="10.00">src/main.cpp</text>
</a>
</g>
</g>
<!-- Node7&#45;&gt;Node9 -->
<g id="edge8" class="edge">
<title>Node7&#45;&gt;Node9</title>
<path fill="none" stroke="midnightblue" d="M554.23,-49C563.78,-38.86 574.63,-27.33 581.85,-19.66"/>
<polygon fill="midnightblue" stroke="midnightblue" points="551.58,-46.72 547.27,-56.4 556.67,-51.52 551.58,-46.72"/>
</g>
<!-- Node11 -->
<g id="node11" class="node">
<title>Node11</title>
<g id="a_node11"><a xlink:href="circulardiagram_8cpp.html" target="_top" xlink:title=" ">
<polygon fill="white" stroke="black" points="483.5,-196 483.5,-215 614.5,-215 614.5,-196 483.5,-196"/>
<text text-anchor="middle" x="549" y="-203" font-family="Helvetica,sans-Serif" font-size="10.00">src/circulardiagram.cpp</text>
</a>
</g>
</g>
<!-- Node10&#45;&gt;Node11 -->
<g id="edge10" class="edge">
<title>Node10&#45;&gt;Node11</title>
<path fill="none" stroke="midnightblue" d="M498.03,-250.67C511.88,-238.67 528.55,-224.22 538.97,-215.19"/>
<polygon fill="midnightblue" stroke="midnightblue" points="495.54,-248.2 490.27,-257.4 500.12,-253.49 495.54,-248.2"/>
</g>
<!-- Node12 -->
<g id="node12" class="node">
<title>Node12</title>
<g id="a_node12"><a xlink:href="chromahuediagram_8h.html" target="_top" xlink:title=" ">
<polygon fill="white" stroke="black" points="633,-190.5 633,-220.5 765,-220.5 765,-190.5 633,-190.5"/>
<text text-anchor="start" x="641" y="-208.5" font-family="Helvetica,sans-Serif" font-size="10.00">include/PerceptualColor</text>
<text text-anchor="middle" x="699" y="-197.5" font-family="Helvetica,sans-Serif" font-size="10.00">/chromahuediagram.h</text>
</a>
</g>
</g>
<!-- Node10&#45;&gt;Node12 -->
<g id="edge11" class="edge">
<title>Node10&#45;&gt;Node12</title>
<path fill="none" stroke="midnightblue" d="M532.57,-254.58C569.11,-244.02 615.6,-230.59 650.15,-220.61"/>
<polygon fill="midnightblue" stroke="midnightblue" points="531.18,-251.34 522.54,-257.48 533.12,-258.06 531.18,-251.34"/>
</g>
<!-- Node14 -->
<g id="node14" class="node">
<title>Node14</title>
<g id="a_node14"><a xlink:href="simplecolorwheel_8h.html" target="_top" xlink:title=" ">
<polygon fill="white" stroke="black" points="333,-190.5 333,-220.5 465,-220.5 465,-190.5 333,-190.5"/>
<text text-anchor="start" x="341" y="-208.5" font-family="Helvetica,sans-Serif" font-size="10.00">include/PerceptualColor</text>
<text text-anchor="middle" x="399" y="-197.5" font-family="Helvetica,sans-Serif" font-size="10.00">/simplecolorwheel.h</text>
</a>
</g>
</g>
<!-- Node10&#45;&gt;Node14 -->
<g id="edge14" class="edge">
<title>Node10&#45;&gt;Node14</title>
<path fill="none" stroke="midnightblue" d="M449.88,-250.6C438.56,-240.78 425.36,-229.34 415.24,-220.58"/>
<polygon fill="midnightblue" stroke="midnightblue" points="447.88,-253.49 457.73,-257.4 452.46,-248.2 447.88,-253.49"/>
</g>
<!-- Node12&#45;&gt;Node7 -->
<g id="edge13" class="edge">
<title>Node12&#45;&gt;Node7</title>
<path fill="none" stroke="midnightblue" d="M694.99,-180.48C690.83,-162.51 682.65,-138.47 667,-123 648.82,-105.03 623.6,-93.33 600.01,-85.78"/>
<polygon fill="midnightblue" stroke="midnightblue" points="691.61,-181.4 697.04,-190.5 698.46,-180 691.61,-181.4"/>
</g>
<!-- Node13 -->
<g id="node13" class="node">
<title>Node13</title>
<g id="a_node13"><a xlink:href="chromahuediagram_8cpp.html" target="_top" xlink:title=" ">
<polygon fill="white" stroke="black" points="508.5,-129 508.5,-148 657.5,-148 657.5,-129 508.5,-129"/>
<text text-anchor="middle" x="583" y="-136" font-family="Helvetica,sans-Serif" font-size="10.00">src/chromahuediagram.cpp</text>
</a>
</g>
</g>
<!-- Node12&#45;&gt;Node13 -->
<g id="edge12" class="edge">
<title>Node12&#45;&gt;Node13</title>
<path fill="none" stroke="midnightblue" d="M665.04,-185.47C642.9,-173.06 615.07,-157.47 598.18,-148.01"/>
<polygon fill="midnightblue" stroke="midnightblue" points="663.4,-188.56 673.83,-190.4 666.82,-182.45 663.4,-188.56"/>
</g>
<!-- Node14&#45;&gt;Node5 -->
<g id="edge17" class="edge">
<title>Node14&#45;&gt;Node5</title>
<path fill="none" stroke="midnightblue" d="M357.25,-186.41C333.3,-176.03 303.68,-163.2 281.48,-153.58"/>
<polygon fill="midnightblue" stroke="midnightblue" points="355.89,-189.63 366.45,-190.4 358.67,-183.21 355.89,-189.63"/>
</g>
<!-- Node14&#45;&gt;Node13 -->
<g id="edge15" class="edge">
<title>Node14&#45;&gt;Node13</title>
<path fill="none" stroke="midnightblue" d="M448.69,-186.95C484.43,-174.32 531.05,-157.85 558.92,-148.01"/>
<polygon fill="midnightblue" stroke="midnightblue" points="447.19,-183.76 438.93,-190.4 449.52,-190.37 447.19,-183.76"/>
</g>
<!-- Node15 -->
<g id="node15" class="node">
<title>Node15</title>
<g id="a_node15"><a xlink:href="simplecolorwheel_8cpp.html" target="_top" xlink:title=" ">
<polygon fill="white" stroke="black" points="333,-129 333,-148 473,-148 473,-129 333,-129"/>
<text text-anchor="middle" x="403" y="-136" font-family="Helvetica,sans-Serif" font-size="10.00">src/simplecolorwheel.cpp</text>
</a>
</g>
</g>
<!-- Node14&#45;&gt;Node15 -->
<g id="edge16" class="edge">
<title>Node14&#45;&gt;Node15</title>
<path fill="none" stroke="midnightblue" d="M400.49,-180.25C401.18,-169.02 401.96,-156.38 402.46,-148.19"/>
<polygon fill="midnightblue" stroke="midnightblue" points="396.99,-180.2 399.87,-190.4 403.98,-180.63 396.99,-180.2"/>
</g>
</g>
</svg>
