<?xml version="1.0" encoding="UTF-8" standalone="no"?>
<!DOCTYPE svg PUBLIC "-//W3C//DTD SVG 1.1//EN"
 "http://www.w3.org/Graphics/SVG/1.1/DTD/svg11.dtd">
<!-- Generated by graphviz version 2.43.0 (0)
 -->
<!-- Title: src/alphaselector.cpp Pages: 1 -->
<svg width="701pt" height="364pt"
 viewBox="0.00 0.00 700.73 364.00" xmlns="http://www.w3.org/2000/svg" xmlns:xlink="http://www.w3.org/1999/xlink">
<g id="graph0" class="graph" transform="scale(1 1) rotate(0) translate(4 360)">
<title>src/alphaselector.cpp</title>
<polygon fill="white" stroke="transparent" points="-4,4 -4,-360 696.73,-360 696.73,4 -4,4"/>
<!-- Node1 -->
<g id="node1" class="node">
<title>Node1</title>
<g id="a_node1"><a xlink:title=" ">
<polygon fill="#bfbfbf" stroke="black" points="449.73,-336.5 449.73,-355.5 568.73,-355.5 568.73,-336.5 449.73,-336.5"/>
<text text-anchor="middle" x="509.23" y="-343.5" font-family="Helvetica,sans-Serif" font-size="10.00">src/alphaselector.cpp</text>
</a>
</g>
</g>
<!-- Node2 -->
<g id="node2" class="node">
<title>Node2</title>
<g id="a_node2"><a xlink:href="alphaselector_8h.html" target="_top" xlink:title=" ">
<polygon fill="white" stroke="black" points="204.73,-280.5 204.73,-299.5 375.73,-299.5 375.73,-280.5 204.73,-280.5"/>
<text text-anchor="middle" x="290.23" y="-287.5" font-family="Helvetica,sans-Serif" font-size="10.00">PerceptualColor/alphaselector.h</text>
</a>
</g>
</g>
<!-- Node1&#45;&gt;Node2 -->
<g id="edge1" class="edge">
<title>Node1&#45;&gt;Node2</title>
<path fill="none" stroke="midnightblue" d="M474.53,-336.44C436.65,-327.1 375.88,-312.12 334.57,-301.93"/>
<polygon fill="midnightblue" stroke="midnightblue" points="335.32,-298.51 324.77,-299.52 333.64,-305.31 335.32,-298.51"/>
</g>
<!-- Node11 -->
<g id="node11" class="node">
<title>Node11</title>
<g id="a_node11"><a xlink:title=" ">
<polygon fill="white" stroke="#bfbfbf" points="364.23,-112.5 364.23,-131.5 420.23,-131.5 420.23,-112.5 364.23,-112.5"/>
<text text-anchor="middle" x="392.23" y="-119.5" font-family="Helvetica,sans-Serif" font-size="10.00">QDebug</text>
</a>
</g>
</g>
<!-- Node1&#45;&gt;Node11 -->
<g id="edge20" class="edge">
<title>Node1&#45;&gt;Node11</title>
<path fill="none" stroke="midnightblue" d="M504.65,-336.3C487.29,-303.36 425.38,-185.9 401.62,-140.81"/>
<polygon fill="midnightblue" stroke="midnightblue" points="404.67,-139.1 396.92,-131.88 398.48,-142.36 404.67,-139.1"/>
</g>
<!-- Node15 -->
<g id="node15" class="node">
<title>Node15</title>
<g id="a_node15"><a xlink:title=" ">
<polygon fill="white" stroke="#bfbfbf" points="501.23,-280.5 501.23,-299.5 591.23,-299.5 591.23,-280.5 501.23,-280.5"/>
<text text-anchor="middle" x="546.23" y="-287.5" font-family="Helvetica,sans-Serif" font-size="10.00">QSignalBlocker</text>
</a>
</g>
</g>
<!-- Node1&#45;&gt;Node15 -->
<g id="edge21" class="edge">
<title>Node1&#45;&gt;Node15</title>
<path fill="none" stroke="midnightblue" d="M515.34,-336.08C520.52,-328.53 528.08,-317.49 534.43,-308.23"/>
<polygon fill="midnightblue" stroke="midnightblue" points="537.47,-309.98 540.24,-299.75 531.7,-306.02 537.47,-309.98"/>
</g>
<!-- Node16 -->
<g id="node16" class="node">
<title>Node16</title>
<g id="a_node16"><a xlink:title=" ">
<polygon fill="white" stroke="#bfbfbf" points="609.73,-280.5 609.73,-299.5 692.73,-299.5 692.73,-280.5 609.73,-280.5"/>
<text text-anchor="middle" x="651.23" y="-287.5" font-family="Helvetica,sans-Serif" font-size="10.00">QHBoxLayout</text>
</a>
</g>
</g>
<!-- Node1&#45;&gt;Node16 -->
<g id="edge22" class="edge">
<title>Node1&#45;&gt;Node16</title>
<path fill="none" stroke="midnightblue" d="M531.73,-336.44C555.31,-327.48 592.56,-313.31 619.2,-303.18"/>
<polygon fill="midnightblue" stroke="midnightblue" points="620.74,-306.34 628.84,-299.52 618.25,-299.8 620.74,-306.34"/>
</g>
<!-- Node3 -->
<g id="node3" class="node">
<title>Node3</title>
<g id="a_node3"><a xlink:href="gradientselector_8h.html" target="_top" xlink:title=" ">
<polygon fill="white" stroke="black" points="38.73,-224.5 38.73,-243.5 223.73,-243.5 223.73,-224.5 38.73,-224.5"/>
<text text-anchor="middle" x="131.23" y="-231.5" font-family="Helvetica,sans-Serif" font-size="10.00">PerceptualColor/gradientselector.h</text>
</a>
</g>
</g>
<!-- Node2&#45;&gt;Node3 -->
<g id="edge2" class="edge">
<title>Node2&#45;&gt;Node3</title>
<path fill="none" stroke="midnightblue" d="M265.04,-280.44C238.29,-271.36 195.83,-256.94 165.93,-246.78"/>
<polygon fill="midnightblue" stroke="midnightblue" points="166.9,-243.42 156.31,-243.52 164.65,-250.05 166.9,-243.42"/>
</g>
<!-- Node4 -->
<g id="node4" class="node">
<title>Node4</title>
<g id="a_node4"><a xlink:href="fullcolordescription_8h.html" target="_top" xlink:title=" ">
<polygon fill="white" stroke="black" points="159.23,-168.5 159.23,-187.5 359.23,-187.5 359.23,-168.5 159.23,-168.5"/>
<text text-anchor="middle" x="259.23" y="-175.5" font-family="Helvetica,sans-Serif" font-size="10.00">PerceptualColor/fullcolordescription.h</text>
</a>
</g>
</g>
<!-- Node2&#45;&gt;Node4 -->
<g id="edge16" class="edge">
<title>Node2&#45;&gt;Node4</title>
<path fill="none" stroke="midnightblue" d="M346.45,-280.42C389.79,-271.31 438.83,-253.98 416.23,-224 404.76,-208.77 362.01,-197.13 324.02,-189.5"/>
<polygon fill="midnightblue" stroke="midnightblue" points="324.46,-186.02 313.97,-187.55 323.12,-192.89 324.46,-186.02"/>
</g>
<!-- Node9 -->
<g id="node9" class="node">
<title>Node9</title>
<g id="a_node9"><a xlink:href="rgbcolorspace_8h.html" target="_top" xlink:title=" ">
<polygon fill="white" stroke="black" points="50.23,-112.5 50.23,-131.5 224.23,-131.5 224.23,-112.5 50.23,-112.5"/>
<text text-anchor="middle" x="137.23" y="-119.5" font-family="Helvetica,sans-Serif" font-size="10.00">PerceptualColor/rgbcolorspace.h</text>
</a>
</g>
</g>
<!-- Node2&#45;&gt;Node9 -->
<g id="edge15" class="edge">
<title>Node2&#45;&gt;Node9</title>
<path fill="none" stroke="midnightblue" d="M204.46,-285.61C135.15,-280.96 45.16,-269.97 20.23,-244 -3.26,-219.53 -6.24,-195.78 13.23,-168 24.65,-151.72 42.58,-141.3 61.31,-134.65"/>
<polygon fill="midnightblue" stroke="midnightblue" points="62.38,-137.98 70.83,-131.59 60.24,-131.31 62.38,-137.98"/>
</g>
<!-- Node12 -->
<g id="node12" class="node">
<title>Node12</title>
<g id="a_node12"><a xlink:title=" ">
<polygon fill="white" stroke="#bfbfbf" points="22.73,-168.5 22.73,-187.5 81.73,-187.5 81.73,-168.5 22.73,-168.5"/>
<text text-anchor="middle" x="52.23" y="-175.5" font-family="Helvetica,sans-Serif" font-size="10.00">QWidget</text>
</a>
</g>
</g>
<!-- Node2&#45;&gt;Node12 -->
<g id="edge19" class="edge">
<title>Node2&#45;&gt;Node12</title>
<path fill="none" stroke="midnightblue" d="M204.47,-285.81C137.24,-281.29 51.45,-270.38 29.23,-244 17.48,-230.05 27.87,-209.68 38.2,-195.47"/>
<polygon fill="midnightblue" stroke="midnightblue" points="41.01,-197.56 44.43,-187.54 35.5,-193.24 41.01,-197.56"/>
</g>
<!-- Node13 -->
<g id="node13" class="node">
<title>Node13</title>
<g id="a_node13"><a xlink:title=" ">
<polygon fill="white" stroke="#bfbfbf" points="241.23,-224.5 241.23,-243.5 339.23,-243.5 339.23,-224.5 241.23,-224.5"/>
<text text-anchor="middle" x="290.23" y="-231.5" font-family="Helvetica,sans-Serif" font-size="10.00">QDoubleSpinBox</text>
</a>
</g>
</g>
<!-- Node2&#45;&gt;Node13 -->
<g id="edge17" class="edge">
<title>Node2&#45;&gt;Node13</title>
<path fill="none" stroke="midnightblue" d="M290.23,-280.08C290.23,-273.01 290.23,-262.86 290.23,-253.99"/>
<polygon fill="midnightblue" stroke="midnightblue" points="293.73,-253.75 290.23,-243.75 286.73,-253.75 293.73,-253.75"/>
</g>
<!-- Node14 -->
<g id="node14" class="node">
<title>Node14</title>
<g id="a_node14"><a xlink:title=" ">
<polygon fill="white" stroke="#bfbfbf" points="357.23,-224.5 357.23,-243.5 407.23,-243.5 407.23,-224.5 357.23,-224.5"/>
<text text-anchor="middle" x="382.23" y="-231.5" font-family="Helvetica,sans-Serif" font-size="10.00">QLabel</text>
</a>
</g>
</g>
<!-- Node2&#45;&gt;Node14 -->
<g id="edge18" class="edge">
<title>Node2&#45;&gt;Node14</title>
<path fill="none" stroke="midnightblue" d="M305.02,-280.32C319.5,-271.82 341.81,-258.73 358.73,-248.8"/>
<polygon fill="midnightblue" stroke="midnightblue" points="360.64,-251.74 367.49,-243.65 357.09,-245.7 360.64,-251.74"/>
</g>
<!-- Node3&#45;&gt;Node4 -->
<g id="edge3" class="edge">
<title>Node3&#45;&gt;Node4</title>
<path fill="none" stroke="midnightblue" d="M151.52,-224.44C172.58,-215.56 205.75,-201.56 229.72,-191.45"/>
<polygon fill="midnightblue" stroke="midnightblue" points="231.19,-194.63 239.05,-187.52 228.47,-188.18 231.19,-194.63"/>
</g>
<!-- Node3&#45;&gt;Node9 -->
<g id="edge13" class="edge">
<title>Node3&#45;&gt;Node9</title>
<path fill="none" stroke="midnightblue" d="M131.7,-224.37C132.67,-206.62 134.91,-165.67 136.22,-141.6"/>
<polygon fill="midnightblue" stroke="midnightblue" points="139.72,-141.77 136.77,-131.59 132.73,-141.39 139.72,-141.77"/>
</g>
<!-- Node3&#45;&gt;Node12 -->
<g id="edge14" class="edge">
<title>Node3&#45;&gt;Node12</title>
<path fill="none" stroke="midnightblue" d="M118.54,-224.32C106.33,-215.98 87.66,-203.21 73.23,-193.35"/>
<polygon fill="midnightblue" stroke="midnightblue" points="75.13,-190.41 64.9,-187.65 71.18,-196.19 75.13,-190.41"/>
</g>
<!-- Node5 -->
<g id="node5" class="node">
<title>Node5</title>
<g id="a_node5"><a xlink:href="helper_8h.html" target="_top" xlink:title=" ">
<polygon fill="white" stroke="black" points="185.23,-56.5 185.23,-75.5 321.23,-75.5 321.23,-56.5 185.23,-56.5"/>
<text text-anchor="middle" x="253.23" y="-63.5" font-family="Helvetica,sans-Serif" font-size="10.00">PerceptualColor/helper.h</text>
</a>
</g>
</g>
<!-- Node4&#45;&gt;Node5 -->
<g id="edge4" class="edge">
<title>Node4&#45;&gt;Node5</title>
<path fill="none" stroke="midnightblue" d="M258.76,-168.37C257.79,-150.62 255.56,-109.67 254.25,-85.6"/>
<polygon fill="midnightblue" stroke="midnightblue" points="257.74,-85.39 253.7,-75.59 250.75,-85.77 257.74,-85.39"/>
</g>
<!-- Node4&#45;&gt;Node9 -->
<g id="edge8" class="edge">
<title>Node4&#45;&gt;Node9</title>
<path fill="none" stroke="midnightblue" d="M239.9,-168.44C219.91,-159.6 188.49,-145.69 165.67,-135.59"/>
<polygon fill="midnightblue" stroke="midnightblue" points="167.04,-132.36 156.47,-131.52 164.2,-138.76 167.04,-132.36"/>
</g>
<!-- Node4&#45;&gt;Node11 -->
<g id="edge12" class="edge">
<title>Node4&#45;&gt;Node11</title>
<path fill="none" stroke="midnightblue" d="M280.31,-168.44C302.29,-159.52 336.97,-145.44 361.9,-135.32"/>
<polygon fill="midnightblue" stroke="midnightblue" points="363.31,-138.52 371.26,-131.52 360.68,-132.04 363.31,-138.52"/>
</g>
<!-- Node6 -->
<g id="node6" class="node">
<title>Node6</title>
<g id="a_node6"><a xlink:title=" ">
<polygon fill="white" stroke="#bfbfbf" points="291.73,-0.5 291.73,-19.5 346.73,-19.5 346.73,-0.5 291.73,-0.5"/>
<text text-anchor="middle" x="319.23" y="-7.5" font-family="Helvetica,sans-Serif" font-size="10.00">QImage</text>
</a>
</g>
</g>
<!-- Node5&#45;&gt;Node6 -->
<g id="edge5" class="edge">
<title>Node5&#45;&gt;Node6</title>
<path fill="none" stroke="midnightblue" d="M263.84,-56.32C273.69,-48.26 288.58,-36.08 300.45,-26.37"/>
<polygon fill="midnightblue" stroke="midnightblue" points="302.91,-28.88 308.44,-19.83 298.48,-23.46 302.91,-28.88"/>
</g>
<!-- Node7 -->
<g id="node7" class="node">
<title>Node7</title>
<g id="a_node7"><a xlink:title=" ">
<polygon fill="white" stroke="#bfbfbf" points="190.73,-0.5 190.73,-19.5 273.73,-19.5 273.73,-0.5 190.73,-0.5"/>
<text text-anchor="middle" x="232.23" y="-7.5" font-family="Helvetica,sans-Serif" font-size="10.00">QWheelEvent</text>
</a>
</g>
</g>
<!-- Node5&#45;&gt;Node7 -->
<g id="edge6" class="edge">
<title>Node5&#45;&gt;Node7</title>
<path fill="none" stroke="midnightblue" d="M249.77,-56.08C246.92,-48.77 242.8,-38.18 239.27,-29.1"/>
<polygon fill="midnightblue" stroke="midnightblue" points="242.52,-27.8 235.64,-19.75 236,-30.34 242.52,-27.8"/>
</g>
<!-- Node8 -->
<g id="node8" class="node">
<title>Node8</title>
<g id="a_node8"><a xlink:title=" ">
<polygon fill="white" stroke="#bfbfbf" points="96.73,-0.5 96.73,-19.5 151.73,-19.5 151.73,-0.5 96.73,-0.5"/>
<text text-anchor="middle" x="124.23" y="-7.5" font-family="Helvetica,sans-Serif" font-size="10.00">lcms2.h</text>
</a>
</g>
</g>
<!-- Node5&#45;&gt;Node8 -->
<g id="edge7" class="edge">
<title>Node5&#45;&gt;Node8</title>
<path fill="none" stroke="midnightblue" d="M232.79,-56.44C211.56,-47.56 178.13,-33.56 153.98,-23.45"/>
<polygon fill="midnightblue" stroke="midnightblue" points="155.15,-20.15 144.58,-19.52 152.45,-26.61 155.15,-20.15"/>
</g>
<!-- Node9&#45;&gt;Node5 -->
<g id="edge11" class="edge">
<title>Node9&#45;&gt;Node5</title>
<path fill="none" stroke="midnightblue" d="M155.61,-112.44C174.45,-103.68 203.97,-89.94 225.61,-79.86"/>
<polygon fill="midnightblue" stroke="midnightblue" points="227.35,-82.91 234.94,-75.52 224.4,-76.56 227.35,-82.91"/>
</g>
<!-- Node9&#45;&gt;Node8 -->
<g id="edge10" class="edge">
<title>Node9&#45;&gt;Node8</title>
<path fill="none" stroke="midnightblue" d="M127.68,-112.45C119.15,-104.12 107.24,-90.6 102.23,-76 96.7,-59.86 104.24,-41.43 111.96,-28.33"/>
<polygon fill="midnightblue" stroke="midnightblue" points="114.96,-30.14 117.43,-19.84 109.08,-26.35 114.96,-30.14"/>
</g>
<!-- Node10 -->
<g id="node10" class="node">
<title>Node10</title>
<g id="a_node10"><a xlink:title=" ">
<polygon fill="white" stroke="#bfbfbf" points="111.23,-56.5 111.23,-75.5 167.23,-75.5 167.23,-56.5 111.23,-56.5"/>
<text text-anchor="middle" x="139.23" y="-63.5" font-family="Helvetica,sans-Serif" font-size="10.00">QObject</text>
</a>
</g>
</g>
<!-- Node9&#45;&gt;Node10 -->
<g id="edge9" class="edge">
<title>Node9&#45;&gt;Node10</title>
<path fill="none" stroke="midnightblue" d="M137.56,-112.08C137.83,-105.01 138.2,-94.86 138.53,-85.99"/>
<polygon fill="midnightblue" stroke="midnightblue" points="142.04,-85.87 138.91,-75.75 135.04,-85.61 142.04,-85.87"/>
</g>
</g>
</svg>
