<?xml version="1.0" encoding="UTF-8" standalone="no"?>
<!DOCTYPE svg PUBLIC "-//W3C//DTD SVG 1.1//EN"
 "http://www.w3.org/Graphics/SVG/1.1/DTD/svg11.dtd">
<!-- Generated by graphviz version 2.43.0 (0)
 -->
<!-- Title: include/PerceptualColor/alphaselector.h Pages: 1 -->
<svg width="575pt" height="319pt"
 viewBox="0.00 0.00 574.50 319.00" xmlns="http://www.w3.org/2000/svg" xmlns:xlink="http://www.w3.org/1999/xlink">
<g id="graph0" class="graph" transform="scale(1 1) rotate(0) translate(4 315)">
<title>include/PerceptualColor/alphaselector.h</title>
<polygon fill="white" stroke="transparent" points="-4,4 -4,-315 570.5,-315 570.5,4 -4,4"/>
<!-- Node1 -->
<g id="node1" class="node">
<title>Node1</title>
<g id="a_node1"><a xlink:title=" ">
<polygon fill="#bfbfbf" stroke="black" points="287.5,-280.5 287.5,-310.5 419.5,-310.5 419.5,-280.5 287.5,-280.5"/>
<text text-anchor="start" x="295.5" y="-298.5" font-family="Helvetica,sans-Serif" font-size="10.00">include/PerceptualColor</text>
<text text-anchor="middle" x="353.5" y="-287.5" font-family="Helvetica,sans-Serif" font-size="10.00">/alphaselector.h</text>
</a>
</g>
</g>
<!-- Node2 -->
<g id="node2" class="node">
<title>Node2</title>
<g id="a_node2"><a xlink:href="gradientselector_8h.html" target="_top" xlink:title=" ">
<polygon fill="white" stroke="black" points="122,-224.5 122,-243.5 307,-243.5 307,-224.5 122,-224.5"/>
<text text-anchor="middle" x="214.5" y="-231.5" font-family="Helvetica,sans-Serif" font-size="10.00">PerceptualColor/gradientselector.h</text>
</a>
</g>
</g>
<!-- Node1&#45;&gt;Node2 -->
<g id="edge1" class="edge">
<title>Node1&#45;&gt;Node2</title>
<path fill="none" stroke="midnightblue" d="M320.56,-280.4C297.34,-270.46 266.51,-257.26 244.08,-247.66"/>
<polygon fill="midnightblue" stroke="midnightblue" points="245.3,-244.38 234.73,-243.66 242.54,-250.81 245.3,-244.38"/>
</g>
<!-- Node3 -->
<g id="node3" class="node">
<title>Node3</title>
<g id="a_node3"><a xlink:href="fullcolordescription_8h.html" target="_top" xlink:title=" ">
<polygon fill="white" stroke="black" points="2.5,-168.5 2.5,-187.5 202.5,-187.5 202.5,-168.5 2.5,-168.5"/>
<text text-anchor="middle" x="102.5" y="-175.5" font-family="Helvetica,sans-Serif" font-size="10.00">PerceptualColor/fullcolordescription.h</text>
</a>
</g>
</g>
<!-- Node1&#45;&gt;Node3 -->
<g id="edge15" class="edge">
<title>Node1&#45;&gt;Node3</title>
<path fill="none" stroke="midnightblue" d="M287.23,-288.85C224.68,-282.1 137.07,-268.52 113.5,-244 101.99,-232.02 99.99,-212.72 100.43,-198.26"/>
<polygon fill="midnightblue" stroke="midnightblue" points="103.94,-198.15 101.16,-187.93 96.96,-197.66 103.94,-198.15"/>
</g>
<!-- Node8 -->
<g id="node8" class="node">
<title>Node8</title>
<g id="a_node8"><a xlink:href="rgbcolorspace_8h.html" target="_top" xlink:title=" ">
<polygon fill="white" stroke="black" points="148.5,-112.5 148.5,-131.5 322.5,-131.5 322.5,-112.5 148.5,-112.5"/>
<text text-anchor="middle" x="235.5" y="-119.5" font-family="Helvetica,sans-Serif" font-size="10.00">PerceptualColor/rgbcolorspace.h</text>
</a>
</g>
</g>
<!-- Node1&#45;&gt;Node8 -->
<g id="edge14" class="edge">
<title>Node1&#45;&gt;Node8</title>
<path fill="none" stroke="midnightblue" d="M357.04,-280.38C362.48,-255.19 369.89,-201.96 345.5,-168 333.82,-151.73 315.17,-141.33 296.53,-134.68"/>
<polygon fill="midnightblue" stroke="midnightblue" points="297.41,-131.29 286.82,-131.54 295.26,-137.95 297.41,-131.29"/>
</g>
<!-- Node11 -->
<g id="node11" class="node">
<title>Node11</title>
<g id="a_node11"><a xlink:title=" ">
<polygon fill="white" stroke="#bfbfbf" points="277,-168.5 277,-187.5 336,-187.5 336,-168.5 277,-168.5"/>
<text text-anchor="middle" x="306.5" y="-175.5" font-family="Helvetica,sans-Serif" font-size="10.00">QWidget</text>
</a>
</g>
</g>
<!-- Node1&#45;&gt;Node11 -->
<g id="edge18" class="edge">
<title>Node1&#45;&gt;Node11</title>
<path fill="none" stroke="midnightblue" d="M347.74,-280.34C339.19,-259.34 323.17,-219.96 313.81,-196.96"/>
<polygon fill="midnightblue" stroke="midnightblue" points="317.04,-195.61 310.03,-187.67 310.56,-198.25 317.04,-195.61"/>
</g>
<!-- Node12 -->
<g id="node12" class="node">
<title>Node12</title>
<g id="a_node12"><a xlink:title=" ">
<polygon fill="white" stroke="#bfbfbf" points="400.5,-224.5 400.5,-243.5 498.5,-243.5 498.5,-224.5 400.5,-224.5"/>
<text text-anchor="middle" x="449.5" y="-231.5" font-family="Helvetica,sans-Serif" font-size="10.00">QDoubleSpinBox</text>
</a>
</g>
</g>
<!-- Node1&#45;&gt;Node12 -->
<g id="edge16" class="edge">
<title>Node1&#45;&gt;Node12</title>
<path fill="none" stroke="midnightblue" d="M376.25,-280.4C391.49,-270.95 411.49,-258.56 426.74,-249.11"/>
<polygon fill="midnightblue" stroke="midnightblue" points="428.88,-251.9 435.53,-243.66 425.19,-245.95 428.88,-251.9"/>
</g>
<!-- Node13 -->
<g id="node13" class="node">
<title>Node13</title>
<g id="a_node13"><a xlink:title=" ">
<polygon fill="white" stroke="#bfbfbf" points="516.5,-224.5 516.5,-243.5 566.5,-243.5 566.5,-224.5 516.5,-224.5"/>
<text text-anchor="middle" x="541.5" y="-231.5" font-family="Helvetica,sans-Serif" font-size="10.00">QLabel</text>
</a>
</g>
</g>
<!-- Node1&#45;&gt;Node13 -->
<g id="edge17" class="edge">
<title>Node1&#45;&gt;Node13</title>
<path fill="none" stroke="midnightblue" d="M398.05,-280.4C431.22,-269.9 475.87,-255.77 506.5,-246.08"/>
<polygon fill="midnightblue" stroke="midnightblue" points="507.83,-249.33 516.31,-242.97 505.72,-242.65 507.83,-249.33"/>
</g>
<!-- Node2&#45;&gt;Node3 -->
<g id="edge2" class="edge">
<title>Node2&#45;&gt;Node3</title>
<path fill="none" stroke="midnightblue" d="M196.51,-224.32C178.46,-215.62 150.45,-202.12 129.7,-192.11"/>
<polygon fill="midnightblue" stroke="midnightblue" points="130.98,-188.84 120.45,-187.65 127.94,-195.15 130.98,-188.84"/>
</g>
<!-- Node2&#45;&gt;Node8 -->
<g id="edge12" class="edge">
<title>Node2&#45;&gt;Node8</title>
<path fill="none" stroke="midnightblue" d="M216.15,-224.37C219.54,-206.62 227.35,-165.67 231.95,-141.6"/>
<polygon fill="midnightblue" stroke="midnightblue" points="235.42,-142.07 233.86,-131.59 228.55,-140.76 235.42,-142.07"/>
</g>
<!-- Node2&#45;&gt;Node11 -->
<g id="edge13" class="edge">
<title>Node2&#45;&gt;Node11</title>
<path fill="none" stroke="midnightblue" d="M229.28,-224.32C243.77,-215.82 266.07,-202.73 282.99,-192.8"/>
<polygon fill="midnightblue" stroke="midnightblue" points="284.9,-195.74 291.76,-187.65 281.36,-189.7 284.9,-195.74"/>
</g>
<!-- Node4 -->
<g id="node4" class="node">
<title>Node4</title>
<g id="a_node4"><a xlink:href="helper_8h.html" target="_top" xlink:title=" ">
<polygon fill="white" stroke="black" points="43.5,-56.5 43.5,-75.5 179.5,-75.5 179.5,-56.5 43.5,-56.5"/>
<text text-anchor="middle" x="111.5" y="-63.5" font-family="Helvetica,sans-Serif" font-size="10.00">PerceptualColor/helper.h</text>
</a>
</g>
</g>
<!-- Node3&#45;&gt;Node4 -->
<g id="edge3" class="edge">
<title>Node3&#45;&gt;Node4</title>
<path fill="none" stroke="midnightblue" d="M91.32,-168.1C77.45,-155.89 56.64,-133.07 65.5,-112 70.53,-100.05 80.44,-89.69 89.79,-81.93"/>
<polygon fill="midnightblue" stroke="midnightblue" points="91.94,-84.69 97.71,-75.81 87.66,-79.15 91.94,-84.69"/>
</g>
<!-- Node3&#45;&gt;Node8 -->
<g id="edge7" class="edge">
<title>Node3&#45;&gt;Node8</title>
<path fill="none" stroke="midnightblue" d="M123.57,-168.44C145.56,-159.52 180.23,-145.44 205.16,-135.32"/>
<polygon fill="midnightblue" stroke="midnightblue" points="206.58,-138.52 214.52,-131.52 203.94,-132.04 206.58,-138.52"/>
</g>
<!-- Node10 -->
<g id="node10" class="node">
<title>Node10</title>
<g id="a_node10"><a xlink:title=" ">
<polygon fill="white" stroke="#bfbfbf" points="74.5,-112.5 74.5,-131.5 130.5,-131.5 130.5,-112.5 74.5,-112.5"/>
<text text-anchor="middle" x="102.5" y="-119.5" font-family="Helvetica,sans-Serif" font-size="10.00">QDebug</text>
</a>
</g>
</g>
<!-- Node3&#45;&gt;Node10 -->
<g id="edge11" class="edge">
<title>Node3&#45;&gt;Node10</title>
<path fill="none" stroke="midnightblue" d="M102.5,-168.08C102.5,-161.01 102.5,-150.86 102.5,-141.99"/>
<polygon fill="midnightblue" stroke="midnightblue" points="106,-141.75 102.5,-131.75 99,-141.75 106,-141.75"/>
</g>
<!-- Node5 -->
<g id="node5" class="node">
<title>Node5</title>
<g id="a_node5"><a xlink:title=" ">
<polygon fill="white" stroke="#bfbfbf" points="0,-0.5 0,-19.5 55,-19.5 55,-0.5 0,-0.5"/>
<text text-anchor="middle" x="27.5" y="-7.5" font-family="Helvetica,sans-Serif" font-size="10.00">QImage</text>
</a>
</g>
</g>
<!-- Node4&#45;&gt;Node5 -->
<g id="edge4" class="edge">
<title>Node4&#45;&gt;Node5</title>
<path fill="none" stroke="midnightblue" d="M98,-56.32C84.9,-47.9 64.79,-34.97 49.39,-25.07"/>
<polygon fill="midnightblue" stroke="midnightblue" points="51.27,-22.12 40.96,-19.65 47.48,-28.01 51.27,-22.12"/>
</g>
<!-- Node6 -->
<g id="node6" class="node">
<title>Node6</title>
<g id="a_node6"><a xlink:title=" ">
<polygon fill="white" stroke="#bfbfbf" points="73,-0.5 73,-19.5 156,-19.5 156,-0.5 73,-0.5"/>
<text text-anchor="middle" x="114.5" y="-7.5" font-family="Helvetica,sans-Serif" font-size="10.00">QWheelEvent</text>
</a>
</g>
</g>
<!-- Node4&#45;&gt;Node6 -->
<g id="edge5" class="edge">
<title>Node4&#45;&gt;Node6</title>
<path fill="none" stroke="midnightblue" d="M112,-56.08C112.39,-49.01 112.95,-38.86 113.45,-29.99"/>
<polygon fill="midnightblue" stroke="midnightblue" points="116.95,-29.93 114.01,-19.75 109.96,-29.54 116.95,-29.93"/>
</g>
<!-- Node7 -->
<g id="node7" class="node">
<title>Node7</title>
<g id="a_node7"><a xlink:title=" ">
<polygon fill="white" stroke="#bfbfbf" points="178,-0.5 178,-19.5 233,-19.5 233,-0.5 178,-0.5"/>
<text text-anchor="middle" x="205.5" y="-7.5" font-family="Helvetica,sans-Serif" font-size="10.00">lcms2.h</text>
</a>
</g>
</g>
<!-- Node4&#45;&gt;Node7 -->
<g id="edge6" class="edge">
<title>Node4&#45;&gt;Node7</title>
<path fill="none" stroke="midnightblue" d="M126.6,-56.32C141.4,-47.82 164.19,-34.73 181.48,-24.8"/>
<polygon fill="midnightblue" stroke="midnightblue" points="183.51,-27.67 190.43,-19.65 180.02,-21.6 183.51,-27.67"/>
</g>
<!-- Node8&#45;&gt;Node4 -->
<g id="edge10" class="edge">
<title>Node8&#45;&gt;Node4</title>
<path fill="none" stroke="midnightblue" d="M215.85,-112.44C195.54,-103.6 163.6,-89.69 140.4,-79.59"/>
<polygon fill="midnightblue" stroke="midnightblue" points="141.62,-76.3 131.06,-75.52 138.83,-82.72 141.62,-76.3"/>
</g>
<!-- Node8&#45;&gt;Node7 -->
<g id="edge9" class="edge">
<title>Node8&#45;&gt;Node7</title>
<path fill="none" stroke="midnightblue" d="M233.15,-112.37C228.28,-94.54 217.04,-53.3 210.48,-29.27"/>
<polygon fill="midnightblue" stroke="midnightblue" points="213.85,-28.32 207.84,-19.59 207.1,-30.16 213.85,-28.32"/>
</g>
<!-- Node9 -->
<g id="node9" class="node">
<title>Node9</title>
<g id="a_node9"><a xlink:title=" ">
<polygon fill="white" stroke="#bfbfbf" points="235.5,-56.5 235.5,-75.5 291.5,-75.5 291.5,-56.5 235.5,-56.5"/>
<text text-anchor="middle" x="263.5" y="-63.5" font-family="Helvetica,sans-Serif" font-size="10.00">QObject</text>
</a>
</g>
</g>
<!-- Node8&#45;&gt;Node9 -->
<g id="edge8" class="edge">
<title>Node8&#45;&gt;Node9</title>
<path fill="none" stroke="midnightblue" d="M240.12,-112.08C243.96,-104.69 249.52,-93.95 254.26,-84.81"/>
<polygon fill="midnightblue" stroke="midnightblue" points="257.47,-86.24 258.96,-75.75 251.25,-83.02 257.47,-86.24"/>
</g>
</g>
</svg>
