<?xml version="1.0" encoding="UTF-8" standalone="no"?>
<!DOCTYPE svg PUBLIC "-//W3C//DTD SVG 1.1//EN"
 "http://www.w3.org/Graphics/SVG/1.1/DTD/svg11.dtd">
<!-- Generated by graphviz version 2.43.0 (0)
 -->
<!-- Title: src/chromahuediagram.cpp Pages: 1 -->
<svg width="1209pt" height="308pt"
 viewBox="0.00 0.00 1209.00 308.00" xmlns="http://www.w3.org/2000/svg" xmlns:xlink="http://www.w3.org/1999/xlink">
<g id="graph0" class="graph" transform="scale(1 1) rotate(0) translate(4 304)">
<title>src/chromahuediagram.cpp</title>
<polygon fill="white" stroke="transparent" points="-4,4 -4,-304 1205,-304 1205,4 -4,4"/>
<!-- Node1 -->
<g id="node1" class="node">
<title>Node1</title>
<g id="a_node1"><a xlink:title=" ">
<polygon fill="#bfbfbf" stroke="black" points="739,-280.5 739,-299.5 888,-299.5 888,-280.5 739,-280.5"/>
<text text-anchor="middle" x="813.5" y="-287.5" font-family="Helvetica,sans-Serif" font-size="10.00">src/chromahuediagram.cpp</text>
</a>
</g>
</g>
<!-- Node2 -->
<g id="node2" class="node">
<title>Node2</title>
<g id="a_node2"><a xlink:href="chromahuediagram_8h.html" target="_top" xlink:title=" ">
<polygon fill="white" stroke="black" points="93,-224.5 93,-243.5 294,-243.5 294,-224.5 93,-224.5"/>
<text text-anchor="middle" x="193.5" y="-231.5" font-family="Helvetica,sans-Serif" font-size="10.00">PerceptualColor/chromahuediagram.h</text>
</a>
</g>
</g>
<!-- Node1&#45;&gt;Node2 -->
<g id="edge1" class="edge">
<title>Node1&#45;&gt;Node2</title>
<path fill="none" stroke="midnightblue" d="M738.71,-282.49C629.67,-272.99 426.42,-255.29 301.24,-244.38"/>
<polygon fill="midnightblue" stroke="midnightblue" points="301.52,-240.89 291.25,-243.51 300.91,-247.87 301.52,-240.89"/>
</g>
<!-- Node6 -->
<g id="node6" class="node">
<title>Node6</title>
<g id="a_node6"><a xlink:title=" ">
<polygon fill="white" stroke="#bfbfbf" points="508,-56.5 508,-75.5 567,-75.5 567,-56.5 508,-56.5"/>
<text text-anchor="middle" x="537.5" y="-63.5" font-family="Helvetica,sans-Serif" font-size="10.00">QWidget</text>
</a>
</g>
</g>
<!-- Node1&#45;&gt;Node6 -->
<g id="edge32" class="edge">
<title>Node1&#45;&gt;Node6</title>
<path fill="none" stroke="midnightblue" d="M804.26,-280.44C785.61,-263.14 742.23,-222.71 706.5,-188 672.24,-154.71 669.43,-139.68 630.5,-112 611.7,-98.64 588.33,-87.34 569.71,-79.41"/>
<polygon fill="midnightblue" stroke="midnightblue" points="571.04,-76.18 560.46,-75.58 568.36,-82.64 571.04,-76.18"/>
</g>
<!-- Node8 -->
<g id="node8" class="node">
<title>Node8</title>
<g id="a_node8"><a xlink:href="helper_8h.html" target="_top" xlink:title=" ">
<polygon fill="white" stroke="black" points="55.5,-56.5 55.5,-75.5 191.5,-75.5 191.5,-56.5 55.5,-56.5"/>
<text text-anchor="middle" x="123.5" y="-63.5" font-family="Helvetica,sans-Serif" font-size="10.00">PerceptualColor/helper.h</text>
</a>
</g>
</g>
<!-- Node1&#45;&gt;Node8 -->
<g id="edge17" class="edge">
<title>Node1&#45;&gt;Node8</title>
<path fill="none" stroke="midnightblue" d="M738.83,-289.57C562.63,-290.2 132.17,-287.23 84.5,-244 38.49,-202.28 86.61,-119.69 111.06,-84.04"/>
<polygon fill="midnightblue" stroke="midnightblue" points="114.06,-85.86 116.96,-75.67 108.34,-81.82 114.06,-85.86"/>
</g>
<!-- Node10 -->
<g id="node10" class="node">
<title>Node10</title>
<g id="a_node10"><a xlink:title=" ">
<polygon fill="white" stroke="#bfbfbf" points="490,-0.5 490,-19.5 545,-19.5 545,-0.5 490,-0.5"/>
<text text-anchor="middle" x="517.5" y="-7.5" font-family="Helvetica,sans-Serif" font-size="10.00">lcms2.h</text>
</a>
</g>
</g>
<!-- Node1&#45;&gt;Node10 -->
<g id="edge33" class="edge">
<title>Node1&#45;&gt;Node10</title>
<path fill="none" stroke="midnightblue" d="M817.94,-280.28C824.6,-267.51 837.83,-243.15 851.5,-224 863.77,-206.81 875.15,-207.79 882.5,-188 889.16,-170.07 886.3,-123.59 876.5,-112 834.67,-62.5 638.73,-28.66 555.29,-16.25"/>
<polygon fill="midnightblue" stroke="midnightblue" points="555.62,-12.76 545.22,-14.78 554.6,-19.69 555.62,-12.76"/>
</g>
<!-- Node14 -->
<g id="node14" class="node">
<title>Node14</title>
<g id="a_node14"><a xlink:href="polarpointf_8h.html" target="_top" xlink:title=" ">
<polygon fill="white" stroke="black" points="715.5,-168.5 715.5,-187.5 873.5,-187.5 873.5,-168.5 715.5,-168.5"/>
<text text-anchor="middle" x="794.5" y="-175.5" font-family="Helvetica,sans-Serif" font-size="10.00">PerceptualColor/polarpointf.h</text>
</a>
</g>
</g>
<!-- Node1&#45;&gt;Node14 -->
<g id="edge18" class="edge">
<title>Node1&#45;&gt;Node14</title>
<path fill="none" stroke="midnightblue" d="M812.01,-280.37C808.94,-262.62 801.87,-221.67 797.71,-197.6"/>
<polygon fill="midnightblue" stroke="midnightblue" points="801.14,-196.85 795.98,-187.59 794.24,-198.04 801.14,-196.85"/>
</g>
<!-- Node17 -->
<g id="node17" class="node">
<title>Node17</title>
<g id="a_node17"><a xlink:href="simplecolorwheel_8h.html" target="_top" xlink:title=" ">
<polygon fill="white" stroke="black" points="463.5,-224.5 463.5,-243.5 655.5,-243.5 655.5,-224.5 463.5,-224.5"/>
<text text-anchor="middle" x="559.5" y="-231.5" font-family="Helvetica,sans-Serif" font-size="10.00">PerceptualColor/simplecolorwheel.h</text>
</a>
</g>
</g>
<!-- Node1&#45;&gt;Node17 -->
<g id="edge22" class="edge">
<title>Node1&#45;&gt;Node17</title>
<path fill="none" stroke="midnightblue" d="M773.25,-280.44C728.85,-271 657.35,-255.8 609.41,-245.61"/>
<polygon fill="midnightblue" stroke="midnightblue" points="610.07,-242.17 599.56,-243.52 608.61,-249.02 610.07,-242.17"/>
</g>
<!-- Node18 -->
<g id="node18" class="node">
<title>Node18</title>
<g id="a_node18"><a xlink:title=" ">
<polygon fill="white" stroke="#bfbfbf" points="860.5,-224.5 860.5,-243.5 944.5,-243.5 944.5,-224.5 860.5,-224.5"/>
<text text-anchor="middle" x="902.5" y="-231.5" font-family="Helvetica,sans-Serif" font-size="10.00">QMouseEvent</text>
</a>
</g>
</g>
<!-- Node1&#45;&gt;Node18 -->
<g id="edge29" class="edge">
<title>Node1&#45;&gt;Node18</title>
<path fill="none" stroke="midnightblue" d="M827.8,-280.32C841.68,-271.9 862.99,-258.97 879.3,-249.07"/>
<polygon fill="midnightblue" stroke="midnightblue" points="881.5,-251.83 888.24,-243.65 877.87,-245.85 881.5,-251.83"/>
</g>
<!-- Node19 -->
<g id="node19" class="node">
<title>Node19</title>
<g id="a_node19"><a xlink:title=" ">
<polygon fill="white" stroke="#bfbfbf" points="962.5,-224.5 962.5,-243.5 1020.5,-243.5 1020.5,-224.5 962.5,-224.5"/>
<text text-anchor="middle" x="991.5" y="-231.5" font-family="Helvetica,sans-Serif" font-size="10.00">QPainter</text>
</a>
</g>
</g>
<!-- Node1&#45;&gt;Node19 -->
<g id="edge30" class="edge">
<title>Node1&#45;&gt;Node19</title>
<path fill="none" stroke="midnightblue" d="M841.7,-280.44C871.91,-271.28 920.01,-256.69 953.53,-246.52"/>
<polygon fill="midnightblue" stroke="midnightblue" points="954.87,-249.77 963.43,-243.52 952.84,-243.07 954.87,-249.77"/>
</g>
<!-- Node20 -->
<g id="node20" class="node">
<title>Node20</title>
<g id="a_node20"><a xlink:title=" ">
<polygon fill="white" stroke="#bfbfbf" points="1039,-224.5 1039,-243.5 1092,-243.5 1092,-224.5 1039,-224.5"/>
<text text-anchor="middle" x="1065.5" y="-231.5" font-family="Helvetica,sans-Serif" font-size="10.00">QtMath</text>
</a>
</g>
</g>
<!-- Node1&#45;&gt;Node20 -->
<g id="edge31" class="edge">
<title>Node1&#45;&gt;Node20</title>
<path fill="none" stroke="midnightblue" d="M857.05,-280.45C898.62,-272.18 963.25,-259.01 1028.71,-244.11"/>
<polygon fill="midnightblue" stroke="midnightblue" points="1029.82,-247.44 1038.79,-241.8 1028.26,-240.62 1029.82,-247.44"/>
</g>
<!-- Node21 -->
<g id="node21" class="node">
<title>Node21</title>
<g id="a_node21"><a xlink:title=" ">
<polygon fill="white" stroke="#bfbfbf" points="1110,-224.5 1110,-243.5 1201,-243.5 1201,-224.5 1110,-224.5"/>
<text text-anchor="middle" x="1155.5" y="-231.5" font-family="Helvetica,sans-Serif" font-size="10.00">QElapsedTimer</text>
</a>
</g>
</g>
<!-- Node1&#45;&gt;Node21 -->
<g id="edge34" class="edge">
<title>Node1&#45;&gt;Node21</title>
<path fill="none" stroke="midnightblue" d="M869.01,-280.5C924.87,-271.9 1013.79,-258.12 1099.9,-244.25"/>
<polygon fill="midnightblue" stroke="midnightblue" points="1100.53,-247.69 1109.84,-242.64 1099.41,-240.78 1100.53,-247.69"/>
</g>
<!-- Node3 -->
<g id="node3" class="node">
<title>Node3</title>
<g id="a_node3"><a xlink:title=" ">
<polygon fill="white" stroke="#bfbfbf" points="0,-0.5 0,-19.5 55,-19.5 55,-0.5 0,-0.5"/>
<text text-anchor="middle" x="27.5" y="-7.5" font-family="Helvetica,sans-Serif" font-size="10.00">QImage</text>
</a>
</g>
</g>
<!-- Node2&#45;&gt;Node3 -->
<g id="edge2" class="edge">
<title>Node2&#45;&gt;Node3</title>
<path fill="none" stroke="midnightblue" d="M151.36,-224.48C106.17,-212.69 37.65,-186.36 13.5,-132 -1.61,-97.99 10.67,-53.57 19.82,-29.12"/>
<polygon fill="midnightblue" stroke="midnightblue" points="23.13,-30.25 23.58,-19.67 16.63,-27.67 23.13,-30.25"/>
</g>
<!-- Node4 -->
<g id="node4" class="node">
<title>Node4</title>
<g id="a_node4"><a xlink:href="circulardiagram_8h.html" target="_top" xlink:title=" ">
<polygon fill="white" stroke="black" points="311.5,-168.5 311.5,-187.5 493.5,-187.5 493.5,-168.5 311.5,-168.5"/>
<text text-anchor="middle" x="402.5" y="-175.5" font-family="Helvetica,sans-Serif" font-size="10.00">PerceptualColor/circulardiagram.h</text>
</a>
</g>
</g>
<!-- Node2&#45;&gt;Node4 -->
<g id="edge3" class="edge">
<title>Node2&#45;&gt;Node4</title>
<path fill="none" stroke="midnightblue" d="M226.62,-224.44C262.62,-215.14 320.27,-200.25 359.69,-190.06"/>
<polygon fill="midnightblue" stroke="midnightblue" points="360.73,-193.41 369.54,-187.52 358.98,-186.63 360.73,-193.41"/>
</g>
<!-- Node7 -->
<g id="node7" class="node">
<title>Node7</title>
<g id="a_node7"><a xlink:href="fullcolordescription_8h.html" target="_top" xlink:title=" ">
<polygon fill="white" stroke="black" points="93.5,-168.5 93.5,-187.5 293.5,-187.5 293.5,-168.5 93.5,-168.5"/>
<text text-anchor="middle" x="193.5" y="-175.5" font-family="Helvetica,sans-Serif" font-size="10.00">PerceptualColor/fullcolordescription.h</text>
</a>
</g>
</g>
<!-- Node2&#45;&gt;Node7 -->
<g id="edge6" class="edge">
<title>Node2&#45;&gt;Node7</title>
<path fill="none" stroke="midnightblue" d="M193.5,-224.08C193.5,-217.01 193.5,-206.86 193.5,-197.99"/>
<polygon fill="midnightblue" stroke="midnightblue" points="197,-197.75 193.5,-187.75 190,-197.75 197,-197.75"/>
</g>
<!-- Node11 -->
<g id="node11" class="node">
<title>Node11</title>
<g id="a_node11"><a xlink:href="rgbcolorspace_8h.html" target="_top" xlink:title=" ">
<polygon fill="white" stroke="black" points="131.5,-112.5 131.5,-131.5 305.5,-131.5 305.5,-112.5 131.5,-112.5"/>
<text text-anchor="middle" x="218.5" y="-119.5" font-family="Helvetica,sans-Serif" font-size="10.00">PerceptualColor/rgbcolorspace.h</text>
</a>
</g>
</g>
<!-- Node2&#45;&gt;Node11 -->
<g id="edge16" class="edge">
<title>Node2&#45;&gt;Node11</title>
<path fill="none" stroke="midnightblue" d="M149.97,-224.42C111.35,-214.74 63.98,-196.53 84.5,-168 96.14,-151.81 113.9,-141.36 132.71,-134.64"/>
<polygon fill="midnightblue" stroke="midnightblue" points="133.87,-137.95 142.31,-131.55 131.72,-131.29 133.87,-137.95"/>
</g>
<!-- Node5 -->
<g id="node5" class="node">
<title>Node5</title>
<g id="a_node5"><a xlink:href="abstractdiagram_8h.html" target="_top" xlink:title=" ">
<polygon fill="white" stroke="black" points="323.5,-112.5 323.5,-131.5 509.5,-131.5 509.5,-112.5 323.5,-112.5"/>
<text text-anchor="middle" x="416.5" y="-119.5" font-family="Helvetica,sans-Serif" font-size="10.00">PerceptualColor/abstractdiagram.h</text>
</a>
</g>
</g>
<!-- Node4&#45;&gt;Node5 -->
<g id="edge4" class="edge">
<title>Node4&#45;&gt;Node5</title>
<path fill="none" stroke="midnightblue" d="M404.81,-168.08C406.67,-160.93 409.34,-150.64 411.65,-141.69"/>
<polygon fill="midnightblue" stroke="midnightblue" points="415.11,-142.31 414.23,-131.75 408.33,-140.55 415.11,-142.31"/>
</g>
<!-- Node5&#45;&gt;Node6 -->
<g id="edge5" class="edge">
<title>Node5&#45;&gt;Node6</title>
<path fill="none" stroke="midnightblue" d="M435.67,-112.44C455.41,-103.64 486.39,-89.81 508.99,-79.72"/>
<polygon fill="midnightblue" stroke="midnightblue" points="510.71,-82.79 518.42,-75.52 507.86,-76.4 510.71,-82.79"/>
</g>
<!-- Node7&#45;&gt;Node8 -->
<g id="edge7" class="edge">
<title>Node7&#45;&gt;Node8</title>
<path fill="none" stroke="midnightblue" d="M168.34,-168.38C152.08,-161.34 132.21,-149.65 122.5,-132 114.77,-117.94 115.93,-99.45 118.5,-85.78"/>
<polygon fill="midnightblue" stroke="midnightblue" points="122,-86.17 120.82,-75.64 115.17,-84.61 122,-86.17"/>
</g>
<!-- Node7&#45;&gt;Node11 -->
<g id="edge11" class="edge">
<title>Node7&#45;&gt;Node11</title>
<path fill="none" stroke="midnightblue" d="M197.63,-168.08C201.01,-160.77 205.92,-150.18 210.12,-141.1"/>
<polygon fill="midnightblue" stroke="midnightblue" points="213.42,-142.3 214.45,-131.75 207.07,-139.36 213.42,-142.3"/>
</g>
<!-- Node13 -->
<g id="node13" class="node">
<title>Node13</title>
<g id="a_node13"><a xlink:title=" ">
<polygon fill="white" stroke="#bfbfbf" points="565.5,-112.5 565.5,-131.5 621.5,-131.5 621.5,-112.5 565.5,-112.5"/>
<text text-anchor="middle" x="593.5" y="-119.5" font-family="Helvetica,sans-Serif" font-size="10.00">QDebug</text>
</a>
</g>
</g>
<!-- Node7&#45;&gt;Node13 -->
<g id="edge15" class="edge">
<title>Node7&#45;&gt;Node13</title>
<path fill="none" stroke="midnightblue" d="M256.88,-168.44C340.9,-157.1 486.55,-137.44 555.38,-128.15"/>
<polygon fill="midnightblue" stroke="midnightblue" points="555.91,-131.61 565.35,-126.8 554.97,-124.67 555.91,-131.61"/>
</g>
<!-- Node8&#45;&gt;Node3 -->
<g id="edge8" class="edge">
<title>Node8&#45;&gt;Node3</title>
<path fill="none" stroke="midnightblue" d="M108.08,-56.32C92.96,-47.82 69.68,-34.73 52.03,-24.8"/>
<polygon fill="midnightblue" stroke="midnightblue" points="53.32,-21.51 42.89,-19.65 49.89,-27.61 53.32,-21.51"/>
</g>
<!-- Node9 -->
<g id="node9" class="node">
<title>Node9</title>
<g id="a_node9"><a xlink:title=" ">
<polygon fill="white" stroke="#bfbfbf" points="82,-0.5 82,-19.5 165,-19.5 165,-0.5 82,-0.5"/>
<text text-anchor="middle" x="123.5" y="-7.5" font-family="Helvetica,sans-Serif" font-size="10.00">QWheelEvent</text>
</a>
</g>
</g>
<!-- Node8&#45;&gt;Node9 -->
<g id="edge9" class="edge">
<title>Node8&#45;&gt;Node9</title>
<path fill="none" stroke="midnightblue" d="M123.5,-56.08C123.5,-49.01 123.5,-38.86 123.5,-29.99"/>
<polygon fill="midnightblue" stroke="midnightblue" points="127,-29.75 123.5,-19.75 120,-29.75 127,-29.75"/>
</g>
<!-- Node8&#45;&gt;Node10 -->
<g id="edge10" class="edge">
<title>Node8&#45;&gt;Node10</title>
<path fill="none" stroke="midnightblue" d="M185.93,-56.44C268.52,-45.12 411.57,-25.52 479.53,-16.2"/>
<polygon fill="midnightblue" stroke="midnightblue" points="480.34,-19.63 489.77,-14.8 479.39,-12.69 480.34,-19.63"/>
</g>
<!-- Node11&#45;&gt;Node8 -->
<g id="edge14" class="edge">
<title>Node11&#45;&gt;Node8</title>
<path fill="none" stroke="midnightblue" d="M203.24,-112.32C188.28,-103.82 165.25,-90.73 147.77,-80.8"/>
<polygon fill="midnightblue" stroke="midnightblue" points="149.15,-77.55 138.73,-75.65 145.69,-83.64 149.15,-77.55"/>
</g>
<!-- Node11&#45;&gt;Node10 -->
<g id="edge13" class="edge">
<title>Node11&#45;&gt;Node10</title>
<path fill="none" stroke="midnightblue" d="M241.96,-112.37C294.91,-92.89 423.78,-45.48 484.64,-23.09"/>
<polygon fill="midnightblue" stroke="midnightblue" points="485.97,-26.33 494.15,-19.59 483.55,-19.76 485.97,-26.33"/>
</g>
<!-- Node12 -->
<g id="node12" class="node">
<title>Node12</title>
<g id="a_node12"><a xlink:title=" ">
<polygon fill="white" stroke="#bfbfbf" points="209.5,-56.5 209.5,-75.5 265.5,-75.5 265.5,-56.5 209.5,-56.5"/>
<text text-anchor="middle" x="237.5" y="-63.5" font-family="Helvetica,sans-Serif" font-size="10.00">QObject</text>
</a>
</g>
</g>
<!-- Node11&#45;&gt;Node12 -->
<g id="edge12" class="edge">
<title>Node11&#45;&gt;Node12</title>
<path fill="none" stroke="midnightblue" d="M221.64,-112.08C224.18,-104.85 227.86,-94.41 231.03,-85.4"/>
<polygon fill="midnightblue" stroke="midnightblue" points="234.4,-86.35 234.42,-75.75 227.8,-84.02 234.4,-86.35"/>
</g>
<!-- Node14&#45;&gt;Node13 -->
<g id="edge19" class="edge">
<title>Node14&#45;&gt;Node13</title>
<path fill="none" stroke="midnightblue" d="M762.65,-168.44C726.98,-158.86 669.22,-143.34 631.29,-133.15"/>
<polygon fill="midnightblue" stroke="midnightblue" points="632.2,-129.77 621.63,-130.56 630.38,-136.53 632.2,-129.77"/>
</g>
<!-- Node15 -->
<g id="node15" class="node">
<title>Node15</title>
<g id="a_node15"><a xlink:title=" ">
<polygon fill="white" stroke="#bfbfbf" points="812,-112.5 812,-131.5 867,-131.5 867,-112.5 812,-112.5"/>
<text text-anchor="middle" x="839.5" y="-119.5" font-family="Helvetica,sans-Serif" font-size="10.00">QPointF</text>
</a>
</g>
</g>
<!-- Node14&#45;&gt;Node15 -->
<g id="edge20" class="edge">
<title>Node14&#45;&gt;Node15</title>
<path fill="none" stroke="midnightblue" d="M801.93,-168.08C808.35,-160.38 817.81,-149.03 825.62,-139.65"/>
<polygon fill="midnightblue" stroke="midnightblue" points="828.49,-141.67 832.21,-131.75 823.12,-137.19 828.49,-141.67"/>
</g>
<!-- Node16 -->
<g id="node16" class="node">
<title>Node16</title>
<g id="a_node16"><a xlink:title=" ">
<polygon fill="white" stroke="#bfbfbf" points="723,-112.5 723,-131.5 794,-131.5 794,-112.5 723,-112.5"/>
<text text-anchor="middle" x="758.5" y="-119.5" font-family="Helvetica,sans-Serif" font-size="10.00">QMetaType</text>
</a>
</g>
</g>
<!-- Node14&#45;&gt;Node16 -->
<g id="edge21" class="edge">
<title>Node14&#45;&gt;Node16</title>
<path fill="none" stroke="midnightblue" d="M788.56,-168.08C783.52,-160.53 776.16,-149.49 769.99,-140.23"/>
<polygon fill="midnightblue" stroke="midnightblue" points="772.79,-138.13 764.33,-131.75 766.97,-142.01 772.79,-138.13"/>
</g>
<!-- Node17&#45;&gt;Node3 -->
<g id="edge23" class="edge">
<title>Node17&#45;&gt;Node3</title>
<path fill="none" stroke="midnightblue" d="M463.23,-229.43C332.99,-223.76 113.5,-210.93 84.5,-188 35.37,-149.15 27.97,-67.53 27.27,-30.28"/>
<polygon fill="midnightblue" stroke="midnightblue" points="30.76,-29.84 27.23,-19.85 23.76,-29.87 30.76,-29.84"/>
</g>
<!-- Node17&#45;&gt;Node4 -->
<g id="edge25" class="edge">
<title>Node17&#45;&gt;Node4</title>
<path fill="none" stroke="midnightblue" d="M534.62,-224.44C508.21,-215.36 466.28,-200.94 436.76,-190.78"/>
<polygon fill="midnightblue" stroke="midnightblue" points="437.86,-187.46 427.26,-187.52 435.58,-194.08 437.86,-187.46"/>
</g>
<!-- Node17&#45;&gt;Node6 -->
<g id="edge24" class="edge">
<title>Node17&#45;&gt;Node6</title>
<path fill="none" stroke="midnightblue" d="M558.32,-224.08C554.85,-197.95 544.68,-121.21 539.96,-85.58"/>
<polygon fill="midnightblue" stroke="midnightblue" points="543.42,-85.02 538.64,-75.57 536.48,-85.94 543.42,-85.02"/>
</g>
<!-- Node17&#45;&gt;Node10 -->
<g id="edge28" class="edge">
<title>Node17&#45;&gt;Node10</title>
<path fill="none" stroke="midnightblue" d="M571.19,-224.36C595.68,-205.13 648.64,-156.95 630.5,-112 614.13,-71.44 571.38,-40.98 543.41,-24.59"/>
<polygon fill="midnightblue" stroke="midnightblue" points="544.98,-21.46 534.55,-19.58 541.53,-27.55 544.98,-21.46"/>
</g>
<!-- Node17&#45;&gt;Node11 -->
<g id="edge27" class="edge">
<title>Node17&#45;&gt;Node11</title>
<path fill="none" stroke="midnightblue" d="M554.53,-224.1C545.96,-209.69 526.95,-181.48 502.5,-168 484.82,-158.25 376.12,-142.86 298.47,-132.85"/>
<polygon fill="midnightblue" stroke="midnightblue" points="298.57,-129.33 288.21,-131.53 297.68,-136.27 298.57,-129.33"/>
</g>
<!-- Node17&#45;&gt;Node14 -->
<g id="edge26" class="edge">
<title>Node17&#45;&gt;Node14</title>
<path fill="none" stroke="midnightblue" d="M596.74,-224.44C637.56,-215.06 703.14,-199.99 747.48,-189.8"/>
<polygon fill="midnightblue" stroke="midnightblue" points="748.48,-193.17 757.44,-187.52 746.91,-186.34 748.48,-193.17"/>
</g>
</g>
</svg>
