<?xml version="1.0" encoding="UTF-8" standalone="no"?>
<!DOCTYPE svg PUBLIC "-//W3C//DTD SVG 1.1//EN"
 "http://www.w3.org/Graphics/SVG/1.1/DTD/svg11.dtd">
<!-- Generated by graphviz version 2.43.0 (0)
 -->
<!-- Title: include/PerceptualColor/chromalightnessdiagram.h Pages: 1 -->
<svg width="617pt" height="263pt"
 viewBox="0.00 0.00 616.50 263.00" xmlns="http://www.w3.org/2000/svg" xmlns:xlink="http://www.w3.org/1999/xlink">
<g id="graph0" class="graph" transform="scale(1 1) rotate(0) translate(4 259)">
<title>include/PerceptualColor/chromalightnessdiagram.h</title>
<polygon fill="white" stroke="transparent" points="-4,4 -4,-259 612.5,-259 612.5,4 -4,4"/>
<!-- Node1 -->
<g id="node1" class="node">
<title>Node1</title>
<g id="a_node1"><a xlink:title=" ">
<polygon fill="#bfbfbf" stroke="black" points="250.5,-224.5 250.5,-254.5 400.5,-254.5 400.5,-224.5 250.5,-224.5"/>
<text text-anchor="start" x="258.5" y="-242.5" font-family="Helvetica,sans-Serif" font-size="10.00">include/PerceptualColor</text>
<text text-anchor="middle" x="325.5" y="-231.5" font-family="Helvetica,sans-Serif" font-size="10.00">/chromalightnessdiagram.h</text>
</a>
</g>
</g>
<!-- Node2 -->
<g id="node2" class="node">
<title>Node2</title>
<g id="a_node2"><a xlink:title=" ">
<polygon fill="white" stroke="#bfbfbf" points="0,-0.5 0,-19.5 55,-19.5 55,-0.5 0,-0.5"/>
<text text-anchor="middle" x="27.5" y="-7.5" font-family="Helvetica,sans-Serif" font-size="10.00">QImage</text>
</a>
</g>
</g>
<!-- Node1&#45;&gt;Node2 -->
<g id="edge1" class="edge">
<title>Node1&#45;&gt;Node2</title>
<path fill="none" stroke="midnightblue" d="M250.28,-234.9C176.94,-229.71 72.6,-217.27 45.5,-188 4.98,-144.23 15.35,-65.78 22.89,-29.88"/>
<polygon fill="midnightblue" stroke="midnightblue" points="26.37,-30.34 25.17,-19.81 19.55,-28.79 26.37,-30.34"/>
</g>
<!-- Node3 -->
<g id="node3" class="node">
<title>Node3</title>
<g id="a_node3"><a xlink:title=" ">
<polygon fill="white" stroke="#bfbfbf" points="435,-112.5 435,-131.5 494,-131.5 494,-112.5 435,-112.5"/>
<text text-anchor="middle" x="464.5" y="-119.5" font-family="Helvetica,sans-Serif" font-size="10.00">QWidget</text>
</a>
</g>
</g>
<!-- Node1&#45;&gt;Node3 -->
<g id="edge2" class="edge">
<title>Node1&#45;&gt;Node3</title>
<path fill="none" stroke="midnightblue" d="M342.54,-224.34C368.84,-202.49 419.09,-160.73 446.15,-138.24"/>
<polygon fill="midnightblue" stroke="midnightblue" points="448.61,-140.75 454.07,-131.67 444.14,-135.37 448.61,-140.75"/>
</g>
<!-- Node4 -->
<g id="node4" class="node">
<title>Node4</title>
<g id="a_node4"><a xlink:title=" ">
<polygon fill="white" stroke="#bfbfbf" points="205,-0.5 205,-19.5 260,-19.5 260,-0.5 205,-0.5"/>
<text text-anchor="middle" x="232.5" y="-7.5" font-family="Helvetica,sans-Serif" font-size="10.00">lcms2.h</text>
</a>
</g>
</g>
<!-- Node1&#45;&gt;Node4 -->
<g id="edge3" class="edge">
<title>Node1&#45;&gt;Node4</title>
<path fill="none" stroke="midnightblue" d="M330.78,-224.28C342.17,-190.87 365.02,-106.34 325.5,-56 311.73,-38.46 289.4,-27.34 270.07,-20.55"/>
<polygon fill="midnightblue" stroke="midnightblue" points="270.89,-17.13 260.3,-17.38 268.73,-23.79 270.89,-17.13"/>
</g>
<!-- Node5 -->
<g id="node5" class="node">
<title>Node5</title>
<g id="a_node5"><a xlink:href="abstractdiagram_8h.html" target="_top" xlink:title=" ">
<polygon fill="white" stroke="black" points="422.5,-168.5 422.5,-187.5 608.5,-187.5 608.5,-168.5 422.5,-168.5"/>
<text text-anchor="middle" x="515.5" y="-175.5" font-family="Helvetica,sans-Serif" font-size="10.00">PerceptualColor/abstractdiagram.h</text>
</a>
</g>
</g>
<!-- Node1&#45;&gt;Node5 -->
<g id="edge4" class="edge">
<title>Node1&#45;&gt;Node5</title>
<path fill="none" stroke="midnightblue" d="M370.53,-224.4C403.36,-214.12 447.32,-200.35 478.2,-190.68"/>
<polygon fill="midnightblue" stroke="midnightblue" points="479.63,-193.9 488.13,-187.57 477.54,-187.22 479.63,-193.9"/>
</g>
<!-- Node6 -->
<g id="node6" class="node">
<title>Node6</title>
<g id="a_node6"><a xlink:href="fullcolordescription_8h.html" target="_top" xlink:title=" ">
<polygon fill="white" stroke="black" points="54.5,-168.5 54.5,-187.5 254.5,-187.5 254.5,-168.5 54.5,-168.5"/>
<text text-anchor="middle" x="154.5" y="-175.5" font-family="Helvetica,sans-Serif" font-size="10.00">PerceptualColor/fullcolordescription.h</text>
</a>
</g>
</g>
<!-- Node1&#45;&gt;Node6 -->
<g id="edge6" class="edge">
<title>Node1&#45;&gt;Node6</title>
<path fill="none" stroke="midnightblue" d="M284.98,-224.4C255.77,-214.24 216.78,-200.67 189.05,-191.02"/>
<polygon fill="midnightblue" stroke="midnightblue" points="189.98,-187.64 179.38,-187.66 187.68,-194.25 189.98,-187.64"/>
</g>
<!-- Node9 -->
<g id="node9" class="node">
<title>Node9</title>
<g id="a_node9"><a xlink:href="rgbcolorspace_8h.html" target="_top" xlink:title=" ">
<polygon fill="white" stroke="black" points="154.5,-112.5 154.5,-131.5 328.5,-131.5 328.5,-112.5 154.5,-112.5"/>
<text text-anchor="middle" x="241.5" y="-119.5" font-family="Helvetica,sans-Serif" font-size="10.00">PerceptualColor/rgbcolorspace.h</text>
</a>
</g>
</g>
<!-- Node1&#45;&gt;Node9 -->
<g id="edge16" class="edge">
<title>Node1&#45;&gt;Node9</title>
<path fill="none" stroke="midnightblue" d="M315.2,-224.34C299.72,-203.05 270.51,-162.89 253.89,-140.03"/>
<polygon fill="midnightblue" stroke="midnightblue" points="256.52,-137.7 247.81,-131.67 250.86,-141.82 256.52,-137.7"/>
</g>
<!-- Node5&#45;&gt;Node3 -->
<g id="edge5" class="edge">
<title>Node5&#45;&gt;Node3</title>
<path fill="none" stroke="midnightblue" d="M507.08,-168.08C499.65,-160.22 488.65,-148.57 479.69,-139.08"/>
<polygon fill="midnightblue" stroke="midnightblue" points="482.18,-136.62 472.76,-131.75 477.09,-141.42 482.18,-136.62"/>
</g>
<!-- Node7 -->
<g id="node7" class="node">
<title>Node7</title>
<g id="a_node7"><a xlink:href="helper_8h.html" target="_top" xlink:title=" ">
<polygon fill="white" stroke="black" points="59.5,-56.5 59.5,-75.5 195.5,-75.5 195.5,-56.5 59.5,-56.5"/>
<text text-anchor="middle" x="127.5" y="-63.5" font-family="Helvetica,sans-Serif" font-size="10.00">PerceptualColor/helper.h</text>
</a>
</g>
</g>
<!-- Node6&#45;&gt;Node7 -->
<g id="edge7" class="edge">
<title>Node6&#45;&gt;Node7</title>
<path fill="none" stroke="midnightblue" d="M122.32,-168.49C103.96,-161.8 82.48,-150.45 71.5,-132 59.94,-112.58 81.76,-93.34 101.45,-80.89"/>
<polygon fill="midnightblue" stroke="midnightblue" points="103.42,-83.8 110.22,-75.68 99.84,-77.78 103.42,-83.8"/>
</g>
<!-- Node6&#45;&gt;Node9 -->
<g id="edge11" class="edge">
<title>Node6&#45;&gt;Node9</title>
<path fill="none" stroke="midnightblue" d="M168.48,-168.32C182.05,-159.9 202.88,-146.97 218.82,-137.07"/>
<polygon fill="midnightblue" stroke="midnightblue" points="220.91,-139.9 227.56,-131.65 217.21,-133.95 220.91,-139.9"/>
</g>
<!-- Node11 -->
<g id="node11" class="node">
<title>Node11</title>
<g id="a_node11"><a xlink:title=" ">
<polygon fill="white" stroke="#bfbfbf" points="80.5,-112.5 80.5,-131.5 136.5,-131.5 136.5,-112.5 80.5,-112.5"/>
<text text-anchor="middle" x="108.5" y="-119.5" font-family="Helvetica,sans-Serif" font-size="10.00">QDebug</text>
</a>
</g>
</g>
<!-- Node6&#45;&gt;Node11 -->
<g id="edge15" class="edge">
<title>Node6&#45;&gt;Node11</title>
<path fill="none" stroke="midnightblue" d="M146.9,-168.08C140.27,-160.3 130.48,-148.8 122.44,-139.37"/>
<polygon fill="midnightblue" stroke="midnightblue" points="125.1,-137.09 115.95,-131.75 119.77,-141.63 125.1,-137.09"/>
</g>
<!-- Node7&#45;&gt;Node2 -->
<g id="edge8" class="edge">
<title>Node7&#45;&gt;Node2</title>
<path fill="none" stroke="midnightblue" d="M111.43,-56.32C95.54,-47.74 70.99,-34.49 52.54,-24.52"/>
<polygon fill="midnightblue" stroke="midnightblue" points="53.99,-21.33 43.53,-19.65 50.66,-27.49 53.99,-21.33"/>
</g>
<!-- Node7&#45;&gt;Node4 -->
<g id="edge10" class="edge">
<title>Node7&#45;&gt;Node4</title>
<path fill="none" stroke="midnightblue" d="M144.37,-56.32C161.21,-47.66 187.31,-34.24 206.74,-24.25"/>
<polygon fill="midnightblue" stroke="midnightblue" points="208.38,-27.34 215.67,-19.65 205.18,-21.12 208.38,-27.34"/>
</g>
<!-- Node8 -->
<g id="node8" class="node">
<title>Node8</title>
<g id="a_node8"><a xlink:title=" ">
<polygon fill="white" stroke="#bfbfbf" points="86,-0.5 86,-19.5 169,-19.5 169,-0.5 86,-0.5"/>
<text text-anchor="middle" x="127.5" y="-7.5" font-family="Helvetica,sans-Serif" font-size="10.00">QWheelEvent</text>
</a>
</g>
</g>
<!-- Node7&#45;&gt;Node8 -->
<g id="edge9" class="edge">
<title>Node7&#45;&gt;Node8</title>
<path fill="none" stroke="midnightblue" d="M127.5,-56.08C127.5,-49.01 127.5,-38.86 127.5,-29.99"/>
<polygon fill="midnightblue" stroke="midnightblue" points="131,-29.75 127.5,-19.75 124,-29.75 131,-29.75"/>
</g>
<!-- Node9&#45;&gt;Node4 -->
<g id="edge13" class="edge">
<title>Node9&#45;&gt;Node4</title>
<path fill="none" stroke="midnightblue" d="M240.79,-112.37C239.34,-94.62 235.99,-53.67 234.02,-29.6"/>
<polygon fill="midnightblue" stroke="midnightblue" points="237.51,-29.27 233.2,-19.59 230.53,-29.84 237.51,-29.27"/>
</g>
<!-- Node9&#45;&gt;Node7 -->
<g id="edge14" class="edge">
<title>Node9&#45;&gt;Node7</title>
<path fill="none" stroke="midnightblue" d="M223.44,-112.44C204.93,-103.68 175.92,-89.94 154.64,-79.86"/>
<polygon fill="midnightblue" stroke="midnightblue" points="156.01,-76.63 145.48,-75.52 153.02,-82.96 156.01,-76.63"/>
</g>
<!-- Node10 -->
<g id="node10" class="node">
<title>Node10</title>
<g id="a_node10"><a xlink:title=" ">
<polygon fill="white" stroke="#bfbfbf" points="260.5,-56.5 260.5,-75.5 316.5,-75.5 316.5,-56.5 260.5,-56.5"/>
<text text-anchor="middle" x="288.5" y="-63.5" font-family="Helvetica,sans-Serif" font-size="10.00">QObject</text>
</a>
</g>
</g>
<!-- Node9&#45;&gt;Node10 -->
<g id="edge12" class="edge">
<title>Node9&#45;&gt;Node10</title>
<path fill="none" stroke="midnightblue" d="M249.26,-112.08C256.04,-104.3 266.04,-92.8 274.26,-83.37"/>
<polygon fill="midnightblue" stroke="midnightblue" points="276.96,-85.59 280.88,-75.75 271.68,-81 276.96,-85.59"/>
</g>
</g>
</svg>
