<?xml version="1.0" encoding="UTF-8" standalone="no"?>
<!DOCTYPE svg PUBLIC "-//W3C//DTD SVG 1.1//EN"
 "http://www.w3.org/Graphics/SVG/1.1/DTD/svg11.dtd">
<!-- Generated by graphviz version 2.43.0 (0)
 -->
<!-- Title: include/PerceptualColor/chromalightnessdiagram.h Pages: 1 -->
<svg width="440pt" height="229pt"
 viewBox="0.00 0.00 439.50 229.00" xmlns="http://www.w3.org/2000/svg" xmlns:xlink="http://www.w3.org/1999/xlink">
<g id="graph0" class="graph" transform="scale(1 1) rotate(0) translate(4 225)">
<title>include/PerceptualColor/chromalightnessdiagram.h</title>
<polygon fill="white" stroke="transparent" points="-4,4 -4,-225 435.5,-225 435.5,4 -4,4"/>
<!-- Node1 -->
<g id="node1" class="node">
<title>Node1</title>
<g id="a_node1"><a xlink:title=" ">
<polygon fill="#bfbfbf" stroke="black" points="99,-190.5 99,-220.5 249,-220.5 249,-190.5 99,-190.5"/>
<text text-anchor="start" x="107" y="-208.5" font-family="Helvetica,sans-Serif" font-size="10.00">include/PerceptualColor</text>
<text text-anchor="middle" x="174" y="-197.5" font-family="Helvetica,sans-Serif" font-size="10.00">/chromalightnessdiagram.h</text>
</a>
</g>
</g>
<!-- Node2 -->
<g id="node2" class="node">
<title>Node2</title>
<g id="a_node2"><a xlink:href="chromalightnessdiagram_8cpp.html" target="_top" xlink:title=" ">
<polygon fill="white" stroke="black" points="0,-129 0,-148 176,-148 176,-129 0,-129"/>
<text text-anchor="middle" x="88" y="-136" font-family="Helvetica,sans-Serif" font-size="10.00">src/chromalightnessdiagram.cpp</text>
</a>
</g>
</g>
<!-- Node1&#45;&gt;Node2 -->
<g id="edge1" class="edge">
<title>Node1&#45;&gt;Node2</title>
<path fill="none" stroke="midnightblue" d="M147.33,-184.34C131.28,-172.21 111.67,-157.39 99.5,-148.19"/>
<polygon fill="midnightblue" stroke="midnightblue" points="145.25,-187.16 155.34,-190.4 149.47,-181.57 145.25,-187.16"/>
</g>
<!-- Node3 -->
<g id="node3" class="node">
<title>Node3</title>
<g id="a_node3"><a xlink:href="wheelcolorpicker_8h.html" target="_top" xlink:title=" ">
<polygon fill="white" stroke="black" points="194,-123.5 194,-153.5 326,-153.5 326,-123.5 194,-123.5"/>
<text text-anchor="start" x="202" y="-141.5" font-family="Helvetica,sans-Serif" font-size="10.00">include/PerceptualColor</text>
<text text-anchor="middle" x="260" y="-130.5" font-family="Helvetica,sans-Serif" font-size="10.00">/wheelcolorpicker.h</text>
</a>
</g>
</g>
<!-- Node1&#45;&gt;Node3 -->
<g id="edge2" class="edge">
<title>Node1&#45;&gt;Node3</title>
<path fill="none" stroke="midnightblue" d="M200.9,-184.17C214.05,-174.23 229.55,-162.51 241.38,-153.58"/>
<polygon fill="midnightblue" stroke="midnightblue" points="198.53,-181.57 192.66,-190.4 202.75,-187.16 198.53,-181.57"/>
</g>
<!-- Node4 -->
<g id="node4" class="node">
<title>Node4</title>
<g id="a_node4"><a xlink:href="wheelcolorpicker_8cpp.html" target="_top" xlink:title=" ">
<polygon fill="white" stroke="black" points="116,-62 116,-81 252,-81 252,-62 116,-62"/>
<text text-anchor="middle" x="184" y="-69" font-family="Helvetica,sans-Serif" font-size="10.00">src/wheelcolorpicker.cpp</text>
</a>
</g>
</g>
<!-- Node3&#45;&gt;Node4 -->
<g id="edge3" class="edge">
<title>Node3&#45;&gt;Node4</title>
<path fill="none" stroke="midnightblue" d="M235.65,-116.67C221.61,-104.67 204.72,-90.22 194.17,-81.19"/>
<polygon fill="midnightblue" stroke="midnightblue" points="233.63,-119.56 243.51,-123.4 238.18,-114.24 233.63,-119.56"/>
</g>
<!-- Node5 -->
<g id="node5" class="node">
<title>Node5</title>
<g id="a_node5"><a xlink:href="colordialog_8h.html" target="_top" xlink:title=" ">
<polygon fill="white" stroke="black" points="270,-56.5 270,-86.5 402,-86.5 402,-56.5 270,-56.5"/>
<text text-anchor="start" x="278" y="-74.5" font-family="Helvetica,sans-Serif" font-size="10.00">include/PerceptualColor</text>
<text text-anchor="middle" x="336" y="-63.5" font-family="Helvetica,sans-Serif" font-size="10.00">/colordialog.h</text>
</a>
</g>
</g>
<!-- Node3&#45;&gt;Node5 -->
<g id="edge4" class="edge">
<title>Node3&#45;&gt;Node5</title>
<path fill="none" stroke="midnightblue" d="M284.11,-116.88C295.66,-107.01 309.19,-95.43 319.54,-86.58"/>
<polygon fill="midnightblue" stroke="midnightblue" points="281.82,-114.24 276.49,-123.4 286.37,-119.56 281.82,-114.24"/>
</g>
<!-- Node6 -->
<g id="node6" class="node">
<title>Node6</title>
<g id="a_node6"><a xlink:href="colordialog_8cpp.html" target="_top" xlink:title=" ">
<polygon fill="white" stroke="black" points="226,-0.5 226,-19.5 334,-19.5 334,-0.5 226,-0.5"/>
<text text-anchor="middle" x="280" y="-7.5" font-family="Helvetica,sans-Serif" font-size="10.00">src/colordialog.cpp</text>
</a>
</g>
</g>
<!-- Node5&#45;&gt;Node6 -->
<g id="edge5" class="edge">
<title>Node5&#45;&gt;Node6</title>
<path fill="none" stroke="midnightblue" d="M315.77,-49C306.22,-38.86 295.37,-27.33 288.15,-19.66"/>
<polygon fill="midnightblue" stroke="midnightblue" points="313.33,-51.52 322.73,-56.4 318.42,-46.72 313.33,-51.52"/>
</g>
<!-- Node7 -->
<g id="node7" class="node">
<title>Node7</title>
<g id="a_node7"><a xlink:href="main_8cpp.html" target="_top" xlink:title=" ">
<polygon fill="white" stroke="black" points="352.5,-0.5 352.5,-19.5 431.5,-19.5 431.5,-0.5 352.5,-0.5"/>
<text text-anchor="middle" x="392" y="-7.5" font-family="Helvetica,sans-Serif" font-size="10.00">src/main.cpp</text>
</a>
</g>
</g>
<!-- Node5&#45;&gt;Node7 -->
<g id="edge6" class="edge">
<title>Node5&#45;&gt;Node7</title>
<path fill="none" stroke="midnightblue" d="M356.23,-49C365.78,-38.86 376.63,-27.33 383.85,-19.66"/>
<polygon fill="midnightblue" stroke="midnightblue" points="353.58,-46.72 349.27,-56.4 358.67,-51.52 353.58,-46.72"/>
</g>
</g>
</svg>
