<?xml version="1.0" encoding="UTF-8" standalone="no"?>
<!DOCTYPE svg PUBLIC "-//W3C//DTD SVG 1.1//EN"
 "http://www.w3.org/Graphics/SVG/1.1/DTD/svg11.dtd">
<!-- Generated by graphviz version 2.43.0 (0)
 -->
<!-- Title: include/PerceptualColor/chromahuediagram.h Pages: 1 -->
<svg width="545pt" height="263pt"
 viewBox="0.00 0.00 544.99 263.00" xmlns="http://www.w3.org/2000/svg" xmlns:xlink="http://www.w3.org/1999/xlink">
<g id="graph0" class="graph" transform="scale(1 1) rotate(0) translate(4 259)">
<title>include/PerceptualColor/chromahuediagram.h</title>
<polygon fill="white" stroke="transparent" points="-4,4 -4,-259 540.99,-259 540.99,4 -4,4"/>
<!-- Node1 -->
<g id="node1" class="node">
<title>Node1</title>
<g id="a_node1"><a xlink:title=" ">
<polygon fill="#bfbfbf" stroke="black" points="150.99,-224.5 150.99,-254.5 282.99,-254.5 282.99,-224.5 150.99,-224.5"/>
<text text-anchor="start" x="158.99" y="-242.5" font-family="Helvetica,sans-Serif" font-size="10.00">include/PerceptualColor</text>
<text text-anchor="middle" x="216.99" y="-231.5" font-family="Helvetica,sans-Serif" font-size="10.00">/chromahuediagram.h</text>
</a>
</g>
</g>
<!-- Node2 -->
<g id="node2" class="node">
<title>Node2</title>
<g id="a_node2"><a xlink:title=" ">
<polygon fill="white" stroke="#bfbfbf" points="63.49,-0.5 63.49,-19.5 118.49,-19.5 118.49,-0.5 63.49,-0.5"/>
<text text-anchor="middle" x="90.99" y="-7.5" font-family="Helvetica,sans-Serif" font-size="10.00">QImage</text>
</a>
</g>
</g>
<!-- Node1&#45;&gt;Node2 -->
<g id="edge1" class="edge">
<title>Node1&#45;&gt;Node2</title>
<path fill="none" stroke="midnightblue" d="M150.75,-230.93C97.89,-223.36 29.97,-209.69 12.99,-188 -27.82,-135.85 40.52,-59.02 74.07,-26.47"/>
<polygon fill="midnightblue" stroke="midnightblue" points="76.54,-28.95 81.39,-19.54 71.73,-23.87 76.54,-28.95"/>
</g>
<!-- Node3 -->
<g id="node3" class="node">
<title>Node3</title>
<g id="a_node3"><a xlink:href="circulardiagram_8h.html" target="_top" xlink:title=" ">
<polygon fill="white" stroke="black" points="21.99,-168.5 21.99,-187.5 203.99,-187.5 203.99,-168.5 21.99,-168.5"/>
<text text-anchor="middle" x="112.99" y="-175.5" font-family="Helvetica,sans-Serif" font-size="10.00">PerceptualColor/circulardiagram.h</text>
</a>
</g>
</g>
<!-- Node1&#45;&gt;Node3 -->
<g id="edge2" class="edge">
<title>Node1&#45;&gt;Node3</title>
<path fill="none" stroke="midnightblue" d="M192.34,-224.4C175.67,-214.86 153.76,-202.32 137.18,-192.84"/>
<polygon fill="midnightblue" stroke="midnightblue" points="138.54,-189.59 128.12,-187.66 135.06,-195.66 138.54,-189.59"/>
</g>
<!-- Node6 -->
<g id="node6" class="node">
<title>Node6</title>
<g id="a_node6"><a xlink:href="fullcolordescription_8h.html" target="_top" xlink:title=" ">
<polygon fill="white" stroke="black" points="221.99,-168.5 221.99,-187.5 421.99,-187.5 421.99,-168.5 221.99,-168.5"/>
<text text-anchor="middle" x="321.99" y="-175.5" font-family="Helvetica,sans-Serif" font-size="10.00">PerceptualColor/fullcolordescription.h</text>
</a>
</g>
</g>
<!-- Node1&#45;&gt;Node6 -->
<g id="edge5" class="edge">
<title>Node1&#45;&gt;Node6</title>
<path fill="none" stroke="midnightblue" d="M241.87,-224.4C258.7,-214.86 280.83,-202.32 297.56,-192.84"/>
<polygon fill="midnightblue" stroke="midnightblue" points="299.73,-195.63 306.71,-187.66 296.28,-189.54 299.73,-195.63"/>
</g>
<!-- Node10 -->
<g id="node10" class="node">
<title>Node10</title>
<g id="a_node10"><a xlink:href="rgbcolorspace_8h.html" target="_top" xlink:title=" ">
<polygon fill="white" stroke="black" points="362.99,-112.5 362.99,-131.5 536.99,-131.5 536.99,-112.5 362.99,-112.5"/>
<text text-anchor="middle" x="449.99" y="-119.5" font-family="Helvetica,sans-Serif" font-size="10.00">PerceptualColor/rgbcolorspace.h</text>
</a>
</g>
</g>
<!-- Node1&#45;&gt;Node10 -->
<g id="edge15" class="edge">
<title>Node1&#45;&gt;Node10</title>
<path fill="none" stroke="midnightblue" d="M283.02,-230.27C337.74,-222.17 409.84,-208.07 430.99,-188 443.51,-176.12 447.92,-156.5 449.4,-141.92"/>
<polygon fill="midnightblue" stroke="midnightblue" points="452.92,-141.75 450.06,-131.55 445.93,-141.3 452.92,-141.75"/>
</g>
<!-- Node4 -->
<g id="node4" class="node">
<title>Node4</title>
<g id="a_node4"><a xlink:href="abstractdiagram_8h.html" target="_top" xlink:title=" ">
<polygon fill="white" stroke="black" points="21.99,-112.5 21.99,-131.5 207.99,-131.5 207.99,-112.5 21.99,-112.5"/>
<text text-anchor="middle" x="114.99" y="-119.5" font-family="Helvetica,sans-Serif" font-size="10.00">PerceptualColor/abstractdiagram.h</text>
</a>
</g>
</g>
<!-- Node3&#45;&gt;Node4 -->
<g id="edge3" class="edge">
<title>Node3&#45;&gt;Node4</title>
<path fill="none" stroke="midnightblue" d="M113.32,-168.08C113.58,-161.01 113.96,-150.86 114.28,-141.99"/>
<polygon fill="midnightblue" stroke="midnightblue" points="117.79,-141.87 114.66,-131.75 110.8,-141.61 117.79,-141.87"/>
</g>
<!-- Node5 -->
<g id="node5" class="node">
<title>Node5</title>
<g id="a_node5"><a xlink:title=" ">
<polygon fill="white" stroke="#bfbfbf" points="85.49,-56.5 85.49,-75.5 144.49,-75.5 144.49,-56.5 85.49,-56.5"/>
<text text-anchor="middle" x="114.99" y="-63.5" font-family="Helvetica,sans-Serif" font-size="10.00">QWidget</text>
</a>
</g>
</g>
<!-- Node4&#45;&gt;Node5 -->
<g id="edge4" class="edge">
<title>Node4&#45;&gt;Node5</title>
<path fill="none" stroke="midnightblue" d="M114.99,-112.08C114.99,-105.01 114.99,-94.86 114.99,-85.99"/>
<polygon fill="midnightblue" stroke="midnightblue" points="118.49,-85.75 114.99,-75.75 111.49,-85.75 118.49,-85.75"/>
</g>
<!-- Node7 -->
<g id="node7" class="node">
<title>Node7</title>
<g id="a_node7"><a xlink:href="helper_8h.html" target="_top" xlink:title=" ">
<polygon fill="white" stroke="black" points="199.99,-56.5 199.99,-75.5 335.99,-75.5 335.99,-56.5 199.99,-56.5"/>
<text text-anchor="middle" x="267.99" y="-63.5" font-family="Helvetica,sans-Serif" font-size="10.00">PerceptualColor/helper.h</text>
</a>
</g>
</g>
<!-- Node6&#45;&gt;Node7 -->
<g id="edge6" class="edge">
<title>Node6&#45;&gt;Node7</title>
<path fill="none" stroke="midnightblue" d="M310.83,-168.26C301.09,-160 287.39,-146.7 279.99,-132 272.73,-117.59 269.82,-99.4 268.68,-85.93"/>
<polygon fill="midnightblue" stroke="midnightblue" points="272.17,-85.68 268.08,-75.91 265.18,-86.1 272.17,-85.68"/>
</g>
<!-- Node6&#45;&gt;Node10 -->
<g id="edge10" class="edge">
<title>Node6&#45;&gt;Node10</title>
<path fill="none" stroke="midnightblue" d="M342.27,-168.44C363.34,-159.56 396.5,-145.56 420.47,-135.45"/>
<polygon fill="midnightblue" stroke="midnightblue" points="421.95,-138.63 429.8,-131.52 419.23,-132.18 421.95,-138.63"/>
</g>
<!-- Node12 -->
<g id="node12" class="node">
<title>Node12</title>
<g id="a_node12"><a xlink:title=" ">
<polygon fill="white" stroke="#bfbfbf" points="288.99,-112.5 288.99,-131.5 344.99,-131.5 344.99,-112.5 288.99,-112.5"/>
<text text-anchor="middle" x="316.99" y="-119.5" font-family="Helvetica,sans-Serif" font-size="10.00">QDebug</text>
</a>
</g>
</g>
<!-- Node6&#45;&gt;Node12 -->
<g id="edge14" class="edge">
<title>Node6&#45;&gt;Node12</title>
<path fill="none" stroke="midnightblue" d="M321.16,-168.08C320.51,-161.01 319.57,-150.86 318.75,-141.99"/>
<polygon fill="midnightblue" stroke="midnightblue" points="322.21,-141.39 317.8,-131.75 315.24,-142.03 322.21,-141.39"/>
</g>
<!-- Node7&#45;&gt;Node2 -->
<g id="edge7" class="edge">
<title>Node7&#45;&gt;Node2</title>
<path fill="none" stroke="midnightblue" d="M239.94,-56.44C209.82,-47.25 161.79,-32.6 128.45,-22.43"/>
<polygon fill="midnightblue" stroke="midnightblue" points="129.2,-19 118.61,-19.43 127.15,-25.69 129.2,-19"/>
</g>
<!-- Node8 -->
<g id="node8" class="node">
<title>Node8</title>
<g id="a_node8"><a xlink:title=" ">
<polygon fill="white" stroke="#bfbfbf" points="226.49,-0.5 226.49,-19.5 309.49,-19.5 309.49,-0.5 226.49,-0.5"/>
<text text-anchor="middle" x="267.99" y="-7.5" font-family="Helvetica,sans-Serif" font-size="10.00">QWheelEvent</text>
</a>
</g>
</g>
<!-- Node7&#45;&gt;Node8 -->
<g id="edge8" class="edge">
<title>Node7&#45;&gt;Node8</title>
<path fill="none" stroke="midnightblue" d="M267.99,-56.08C267.99,-49.01 267.99,-38.86 267.99,-29.99"/>
<polygon fill="midnightblue" stroke="midnightblue" points="271.49,-29.75 267.99,-19.75 264.49,-29.75 271.49,-29.75"/>
</g>
<!-- Node9 -->
<g id="node9" class="node">
<title>Node9</title>
<g id="a_node9"><a xlink:title=" ">
<polygon fill="white" stroke="#bfbfbf" points="341.49,-0.5 341.49,-19.5 396.49,-19.5 396.49,-0.5 341.49,-0.5"/>
<text text-anchor="middle" x="368.99" y="-7.5" font-family="Helvetica,sans-Serif" font-size="10.00">lcms2.h</text>
</a>
</g>
</g>
<!-- Node7&#45;&gt;Node9 -->
<g id="edge9" class="edge">
<title>Node7&#45;&gt;Node9</title>
<path fill="none" stroke="midnightblue" d="M284.22,-56.32C300.34,-47.7 325.29,-34.36 343.95,-24.39"/>
<polygon fill="midnightblue" stroke="midnightblue" points="345.63,-27.46 352.8,-19.65 342.33,-21.28 345.63,-27.46"/>
</g>
<!-- Node10&#45;&gt;Node7 -->
<g id="edge13" class="edge">
<title>Node10&#45;&gt;Node7</title>
<path fill="none" stroke="midnightblue" d="M421.15,-112.44C390.13,-103.24 340.66,-88.56 306.37,-78.39"/>
<polygon fill="midnightblue" stroke="midnightblue" points="307.27,-75.01 296.69,-75.52 305.28,-81.72 307.27,-75.01"/>
</g>
<!-- Node10&#45;&gt;Node9 -->
<g id="edge12" class="edge">
<title>Node10&#45;&gt;Node9</title>
<path fill="none" stroke="midnightblue" d="M442.37,-112.23C434.7,-103.3 422.67,-88.96 412.99,-76 401.17,-60.19 388.64,-41.46 379.99,-28.18"/>
<polygon fill="midnightblue" stroke="midnightblue" points="382.81,-26.09 374.44,-19.59 376.93,-29.89 382.81,-26.09"/>
</g>
<!-- Node11 -->
<g id="node11" class="node">
<title>Node11</title>
<g id="a_node11"><a xlink:title=" ">
<polygon fill="white" stroke="#bfbfbf" points="421.99,-56.5 421.99,-75.5 477.99,-75.5 477.99,-56.5 421.99,-56.5"/>
<text text-anchor="middle" x="449.99" y="-63.5" font-family="Helvetica,sans-Serif" font-size="10.00">QObject</text>
</a>
</g>
</g>
<!-- Node10&#45;&gt;Node11 -->
<g id="edge11" class="edge">
<title>Node10&#45;&gt;Node11</title>
<path fill="none" stroke="midnightblue" d="M449.99,-112.08C449.99,-105.01 449.99,-94.86 449.99,-85.99"/>
<polygon fill="midnightblue" stroke="midnightblue" points="453.49,-85.75 449.99,-75.75 446.49,-85.75 453.49,-85.75"/>
</g>
</g>
</svg>
