<?xml version="1.0" encoding="UTF-8" standalone="no"?>
<!DOCTYPE svg PUBLIC "-//W3C//DTD SVG 1.1//EN"
 "http://www.w3.org/Graphics/SVG/1.1/DTD/svg11.dtd">
<!-- Generated by graphviz version 2.43.0 (0)
 -->
<!-- Title: src/chromalightnessdiagram.cpp Pages: 1 -->
<svg width="1228pt" height="308pt"
 viewBox="0.00 0.00 1228.50 308.00" xmlns="http://www.w3.org/2000/svg" xmlns:xlink="http://www.w3.org/1999/xlink">
<g id="graph0" class="graph" transform="scale(1 1) rotate(0) translate(4 304)">
<title>src/chromalightnessdiagram.cpp</title>
<polygon fill="white" stroke="transparent" points="-4,4 -4,-304 1224.5,-304 1224.5,4 -4,4"/>
<!-- Node1 -->
<g id="node1" class="node">
<title>Node1</title>
<g id="a_node1"><a xlink:title=" ">
<polygon fill="#bfbfbf" stroke="black" points="687,-280.5 687,-299.5 863,-299.5 863,-280.5 687,-280.5"/>
<text text-anchor="middle" x="775" y="-287.5" font-family="Helvetica,sans-Serif" font-size="10.00">src/chromalightnessdiagram.cpp</text>
</a>
</g>
</g>
<!-- Node2 -->
<g id="node2" class="node">
<title>Node2</title>
<g id="a_node2"><a xlink:href="chromalightnessdiagram_8h.html" target="_top" xlink:title=" ">
<polygon fill="white" stroke="black" points="251.5,-224.5 251.5,-243.5 478.5,-243.5 478.5,-224.5 251.5,-224.5"/>
<text text-anchor="middle" x="365" y="-231.5" font-family="Helvetica,sans-Serif" font-size="10.00">PerceptualColor/chromalightnessdiagram.h</text>
</a>
</g>
</g>
<!-- Node1&#45;&gt;Node2 -->
<g id="edge1" class="edge">
<title>Node1&#45;&gt;Node2</title>
<path fill="none" stroke="midnightblue" d="M710.03,-280.44C636.56,-270.77 517.11,-255.04 439.81,-244.85"/>
<polygon fill="midnightblue" stroke="midnightblue" points="440.03,-241.35 429.66,-243.52 439.11,-248.29 440.03,-241.35"/>
</g>
<!-- Node5 -->
<g id="node5" class="node">
<title>Node5</title>
<g id="a_node5"><a xlink:title=" ">
<polygon fill="white" stroke="#bfbfbf" points="478.5,-0.5 478.5,-19.5 533.5,-19.5 533.5,-0.5 478.5,-0.5"/>
<text text-anchor="middle" x="506" y="-7.5" font-family="Helvetica,sans-Serif" font-size="10.00">lcms2.h</text>
</a>
</g>
</g>
<!-- Node1&#45;&gt;Node5 -->
<g id="edge28" class="edge">
<title>Node1&#45;&gt;Node5</title>
<path fill="none" stroke="midnightblue" d="M704.1,-280.49C644.51,-268.91 569,-241.84 569,-179 569,-179 569,-179 569,-121 569,-83.48 541.05,-47.14 522.38,-27.05"/>
<polygon fill="midnightblue" stroke="midnightblue" points="524.76,-24.48 515.29,-19.72 519.72,-29.34 524.76,-24.48"/>
</g>
<!-- Node8 -->
<g id="node8" class="node">
<title>Node8</title>
<g id="a_node8"><a xlink:href="helper_8h.html" target="_top" xlink:title=" ">
<polygon fill="white" stroke="black" points="233,-56.5 233,-75.5 369,-75.5 369,-56.5 233,-56.5"/>
<text text-anchor="middle" x="301" y="-63.5" font-family="Helvetica,sans-Serif" font-size="10.00">PerceptualColor/helper.h</text>
</a>
</g>
</g>
<!-- Node1&#45;&gt;Node8 -->
<g id="edge18" class="edge">
<title>Node1&#45;&gt;Node8</title>
<path fill="none" stroke="midnightblue" d="M686.87,-284.1C495.37,-272.5 55.09,-240.35 14,-188 -45.78,-111.85 118.43,-83.03 222.57,-72.58"/>
<polygon fill="midnightblue" stroke="midnightblue" points="223.14,-76.04 232.76,-71.6 222.47,-69.08 223.14,-76.04"/>
</g>
<!-- Node12 -->
<g id="node12" class="node">
<title>Node12</title>
<g id="a_node12"><a xlink:title=" ">
<polygon fill="white" stroke="#bfbfbf" points="597,-112.5 597,-131.5 653,-131.5 653,-112.5 597,-112.5"/>
<text text-anchor="middle" x="625" y="-119.5" font-family="Helvetica,sans-Serif" font-size="10.00">QDebug</text>
</a>
</g>
</g>
<!-- Node1&#45;&gt;Node12 -->
<g id="edge24" class="edge">
<title>Node1&#45;&gt;Node12</title>
<path fill="none" stroke="midnightblue" d="M686.69,-281.33C663.32,-274.81 640.58,-263.46 626,-244 603.51,-213.99 611.9,-167 619.03,-141.3"/>
<polygon fill="midnightblue" stroke="midnightblue" points="622.39,-142.29 621.92,-131.7 615.69,-140.27 622.39,-142.29"/>
</g>
<!-- Node13 -->
<g id="node13" class="node">
<title>Node13</title>
<g id="a_node13"><a xlink:href="polarpointf_8h.html" target="_top" xlink:title=" ">
<polygon fill="white" stroke="black" points="635,-224.5 635,-243.5 793,-243.5 793,-224.5 635,-224.5"/>
<text text-anchor="middle" x="714" y="-231.5" font-family="Helvetica,sans-Serif" font-size="10.00">PerceptualColor/polarpointf.h</text>
</a>
</g>
</g>
<!-- Node1&#45;&gt;Node13 -->
<g id="edge19" class="edge">
<title>Node1&#45;&gt;Node13</title>
<path fill="none" stroke="midnightblue" d="M765.19,-280.32C756.18,-272.34 742.59,-260.31 731.68,-250.65"/>
<polygon fill="midnightblue" stroke="midnightblue" points="733.78,-247.84 723.97,-243.83 729.14,-253.08 733.78,-247.84"/>
</g>
<!-- Node16 -->
<g id="node16" class="node">
<title>Node16</title>
<g id="a_node16"><a xlink:title=" ">
<polygon fill="white" stroke="#bfbfbf" points="810.5,-224.5 810.5,-243.5 861.5,-243.5 861.5,-224.5 810.5,-224.5"/>
<text text-anchor="middle" x="836" y="-231.5" font-family="Helvetica,sans-Serif" font-size="10.00">math.h</text>
</a>
</g>
</g>
<!-- Node1&#45;&gt;Node16 -->
<g id="edge23" class="edge">
<title>Node1&#45;&gt;Node16</title>
<path fill="none" stroke="midnightblue" d="M784.8,-280.32C793.81,-272.34 807.4,-260.31 818.31,-250.65"/>
<polygon fill="midnightblue" stroke="midnightblue" points="820.85,-253.08 826.02,-243.83 816.21,-247.84 820.85,-253.08"/>
</g>
<!-- Node17 -->
<g id="node17" class="node">
<title>Node17</title>
<g id="a_node17"><a xlink:title=" ">
<polygon fill="white" stroke="#bfbfbf" points="880,-224.5 880,-243.5 964,-243.5 964,-224.5 880,-224.5"/>
<text text-anchor="middle" x="922" y="-231.5" font-family="Helvetica,sans-Serif" font-size="10.00">QMouseEvent</text>
</a>
</g>
</g>
<!-- Node1&#45;&gt;Node17 -->
<g id="edge25" class="edge">
<title>Node1&#45;&gt;Node17</title>
<path fill="none" stroke="midnightblue" d="M798.29,-280.44C822.8,-271.44 861.59,-257.19 889.2,-247.05"/>
<polygon fill="midnightblue" stroke="midnightblue" points="890.63,-250.25 898.81,-243.52 888.22,-243.68 890.63,-250.25"/>
</g>
<!-- Node18 -->
<g id="node18" class="node">
<title>Node18</title>
<g id="a_node18"><a xlink:title=" ">
<polygon fill="white" stroke="#bfbfbf" points="982,-224.5 982,-243.5 1040,-243.5 1040,-224.5 982,-224.5"/>
<text text-anchor="middle" x="1011" y="-231.5" font-family="Helvetica,sans-Serif" font-size="10.00">QPainter</text>
</a>
</g>
</g>
<!-- Node1&#45;&gt;Node18 -->
<g id="edge26" class="edge">
<title>Node1&#45;&gt;Node18</title>
<path fill="none" stroke="midnightblue" d="M812.98,-280.48C850.83,-271.96 910.88,-258.38 972.12,-244.19"/>
<polygon fill="midnightblue" stroke="midnightblue" points="973.01,-247.58 981.96,-241.91 971.42,-240.76 973.01,-247.58"/>
</g>
<!-- Node19 -->
<g id="node19" class="node">
<title>Node19</title>
<g id="a_node19"><a xlink:title=" ">
<polygon fill="white" stroke="#bfbfbf" points="1058.5,-224.5 1058.5,-243.5 1111.5,-243.5 1111.5,-224.5 1058.5,-224.5"/>
<text text-anchor="middle" x="1085" y="-231.5" font-family="Helvetica,sans-Serif" font-size="10.00">QtMath</text>
</a>
</g>
</g>
<!-- Node1&#45;&gt;Node19 -->
<g id="edge27" class="edge">
<title>Node1&#45;&gt;Node19</title>
<path fill="none" stroke="midnightblue" d="M835.66,-280.5C889.07,-272.68 969.16,-260.16 1048.18,-244.02"/>
<polygon fill="midnightblue" stroke="midnightblue" points="1049.23,-247.38 1058.32,-241.93 1047.81,-240.52 1049.23,-247.38"/>
</g>
<!-- Node20 -->
<g id="node20" class="node">
<title>Node20</title>
<g id="a_node20"><a xlink:title=" ">
<polygon fill="white" stroke="#bfbfbf" points="1129.5,-224.5 1129.5,-243.5 1220.5,-243.5 1220.5,-224.5 1129.5,-224.5"/>
<text text-anchor="middle" x="1175" y="-231.5" font-family="Helvetica,sans-Serif" font-size="10.00">QElapsedTimer</text>
</a>
</g>
</g>
<!-- Node1&#45;&gt;Node20 -->
<g id="edge29" class="edge">
<title>Node1&#45;&gt;Node20</title>
<path fill="none" stroke="midnightblue" d="M846.33,-280.48C914.11,-272.21 1019.14,-258.95 1119.35,-244.2"/>
<polygon fill="midnightblue" stroke="midnightblue" points="1119.97,-247.65 1129.35,-242.73 1118.94,-240.73 1119.97,-247.65"/>
</g>
<!-- Node3 -->
<g id="node3" class="node">
<title>Node3</title>
<g id="a_node3"><a xlink:title=" ">
<polygon fill="white" stroke="#bfbfbf" points="77.5,-0.5 77.5,-19.5 132.5,-19.5 132.5,-0.5 77.5,-0.5"/>
<text text-anchor="middle" x="105" y="-7.5" font-family="Helvetica,sans-Serif" font-size="10.00">QImage</text>
</a>
</g>
</g>
<!-- Node2&#45;&gt;Node3 -->
<g id="edge2" class="edge">
<title>Node2&#45;&gt;Node3</title>
<path fill="none" stroke="midnightblue" d="M251.08,-225.82C154.67,-218.56 29.7,-205.84 14,-188 -31.21,-136.63 47.97,-58.83 86.15,-26.22"/>
<polygon fill="midnightblue" stroke="midnightblue" points="88.61,-28.73 94.04,-19.63 84.12,-23.35 88.61,-28.73"/>
</g>
<!-- Node4 -->
<g id="node4" class="node">
<title>Node4</title>
<g id="a_node4"><a xlink:title=" ">
<polygon fill="white" stroke="#bfbfbf" points="147.5,-112.5 147.5,-131.5 206.5,-131.5 206.5,-112.5 147.5,-112.5"/>
<text text-anchor="middle" x="177" y="-119.5" font-family="Helvetica,sans-Serif" font-size="10.00">QWidget</text>
</a>
</g>
</g>
<!-- Node2&#45;&gt;Node4 -->
<g id="edge3" class="edge">
<title>Node2&#45;&gt;Node4</title>
<path fill="none" stroke="midnightblue" d="M337.96,-224.36C315.23,-216.52 282.33,-203.79 256,-188 232.34,-173.82 208.33,-152.94 193.08,-138.69"/>
<polygon fill="midnightblue" stroke="midnightblue" points="195.23,-135.9 185.58,-131.55 190.41,-140.98 195.23,-135.9"/>
</g>
<!-- Node2&#45;&gt;Node5 -->
<g id="edge4" class="edge">
<title>Node2&#45;&gt;Node5</title>
<path fill="none" stroke="midnightblue" d="M416.32,-224.42C440.91,-218.01 469.25,-206.95 489,-188 532.4,-146.36 519.58,-65.57 510.98,-29.35"/>
<polygon fill="midnightblue" stroke="midnightblue" points="514.37,-28.46 508.51,-19.63 507.58,-30.18 514.37,-28.46"/>
</g>
<!-- Node6 -->
<g id="node6" class="node">
<title>Node6</title>
<g id="a_node6"><a xlink:href="abstractdiagram_8h.html" target="_top" xlink:title=" ">
<polygon fill="white" stroke="black" points="23,-168.5 23,-187.5 209,-187.5 209,-168.5 23,-168.5"/>
<text text-anchor="middle" x="116" y="-175.5" font-family="Helvetica,sans-Serif" font-size="10.00">PerceptualColor/abstractdiagram.h</text>
</a>
</g>
</g>
<!-- Node2&#45;&gt;Node6 -->
<g id="edge5" class="edge">
<title>Node2&#45;&gt;Node6</title>
<path fill="none" stroke="midnightblue" d="M325.54,-224.44C282.1,-215.02 212.21,-199.87 165.22,-189.68"/>
<polygon fill="midnightblue" stroke="midnightblue" points="165.78,-186.22 155.27,-187.52 164.3,-193.06 165.78,-186.22"/>
</g>
<!-- Node7 -->
<g id="node7" class="node">
<title>Node7</title>
<g id="a_node7"><a xlink:href="fullcolordescription_8h.html" target="_top" xlink:title=" ">
<polygon fill="white" stroke="black" points="265,-168.5 265,-187.5 465,-187.5 465,-168.5 265,-168.5"/>
<text text-anchor="middle" x="365" y="-175.5" font-family="Helvetica,sans-Serif" font-size="10.00">PerceptualColor/fullcolordescription.h</text>
</a>
</g>
</g>
<!-- Node2&#45;&gt;Node7 -->
<g id="edge7" class="edge">
<title>Node2&#45;&gt;Node7</title>
<path fill="none" stroke="midnightblue" d="M365,-224.08C365,-217.01 365,-206.86 365,-197.99"/>
<polygon fill="midnightblue" stroke="midnightblue" points="368.5,-197.75 365,-187.75 361.5,-197.75 368.5,-197.75"/>
</g>
<!-- Node10 -->
<g id="node10" class="node">
<title>Node10</title>
<g id="a_node10"><a xlink:href="rgbcolorspace_8h.html" target="_top" xlink:title=" ">
<polygon fill="white" stroke="black" points="329,-112.5 329,-131.5 503,-131.5 503,-112.5 329,-112.5"/>
<text text-anchor="middle" x="416" y="-119.5" font-family="Helvetica,sans-Serif" font-size="10.00">PerceptualColor/rgbcolorspace.h</text>
</a>
</g>
</g>
<!-- Node2&#45;&gt;Node10 -->
<g id="edge17" class="edge">
<title>Node2&#45;&gt;Node10</title>
<path fill="none" stroke="midnightblue" d="M417.27,-224.48C438.59,-218.15 461.19,-207.14 474,-188 486.89,-168.73 463.54,-149.23 442.73,-136.68"/>
<polygon fill="midnightblue" stroke="midnightblue" points="444.21,-133.5 433.78,-131.59 440.75,-139.58 444.21,-133.5"/>
</g>
<!-- Node6&#45;&gt;Node4 -->
<g id="edge6" class="edge">
<title>Node6&#45;&gt;Node4</title>
<path fill="none" stroke="midnightblue" d="M125.8,-168.32C134.81,-160.34 148.4,-148.31 159.31,-138.65"/>
<polygon fill="midnightblue" stroke="midnightblue" points="161.85,-141.08 167.02,-131.83 157.21,-135.84 161.85,-141.08"/>
</g>
<!-- Node7&#45;&gt;Node8 -->
<g id="edge8" class="edge">
<title>Node7&#45;&gt;Node8</title>
<path fill="none" stroke="midnightblue" d="M353.39,-168.23C343.19,-159.95 328.67,-146.64 320,-132 311.47,-117.62 306.56,-99.16 303.87,-85.59"/>
<polygon fill="midnightblue" stroke="midnightblue" points="307.28,-84.78 302.11,-75.54 300.39,-85.99 307.28,-84.78"/>
</g>
<!-- Node7&#45;&gt;Node10 -->
<g id="edge12" class="edge">
<title>Node7&#45;&gt;Node10</title>
<path fill="none" stroke="midnightblue" d="M373.42,-168.08C380.84,-160.22 391.85,-148.57 400.81,-139.08"/>
<polygon fill="midnightblue" stroke="midnightblue" points="403.41,-141.42 407.73,-131.75 398.32,-136.62 403.41,-141.42"/>
</g>
<!-- Node7&#45;&gt;Node12 -->
<g id="edge16" class="edge">
<title>Node7&#45;&gt;Node12</title>
<path fill="none" stroke="midnightblue" d="M406.19,-168.44C455.82,-158.14 538.51,-140.96 586.77,-130.94"/>
<polygon fill="midnightblue" stroke="midnightblue" points="587.73,-134.31 596.81,-128.85 586.31,-127.46 587.73,-134.31"/>
</g>
<!-- Node8&#45;&gt;Node3 -->
<g id="edge9" class="edge">
<title>Node8&#45;&gt;Node3</title>
<path fill="none" stroke="midnightblue" d="M269.94,-56.44C235.41,-46.93 179.63,-31.56 142.64,-21.37"/>
<polygon fill="midnightblue" stroke="midnightblue" points="143.31,-17.93 132.74,-18.64 141.45,-24.67 143.31,-17.93"/>
</g>
<!-- Node8&#45;&gt;Node5 -->
<g id="edge11" class="edge">
<title>Node8&#45;&gt;Node5</title>
<path fill="none" stroke="midnightblue" d="M333.48,-56.44C370.17,-46.78 429.78,-31.08 468.44,-20.89"/>
<polygon fill="midnightblue" stroke="midnightblue" points="469.49,-24.24 478.27,-18.3 467.7,-17.47 469.49,-24.24"/>
</g>
<!-- Node9 -->
<g id="node9" class="node">
<title>Node9</title>
<g id="a_node9"><a xlink:title=" ">
<polygon fill="white" stroke="#bfbfbf" points="259.5,-0.5 259.5,-19.5 342.5,-19.5 342.5,-0.5 259.5,-0.5"/>
<text text-anchor="middle" x="301" y="-7.5" font-family="Helvetica,sans-Serif" font-size="10.00">QWheelEvent</text>
</a>
</g>
</g>
<!-- Node8&#45;&gt;Node9 -->
<g id="edge10" class="edge">
<title>Node8&#45;&gt;Node9</title>
<path fill="none" stroke="midnightblue" d="M301,-56.08C301,-49.01 301,-38.86 301,-29.99"/>
<polygon fill="midnightblue" stroke="midnightblue" points="304.5,-29.75 301,-19.75 297.5,-29.75 304.5,-29.75"/>
</g>
<!-- Node10&#45;&gt;Node5 -->
<g id="edge14" class="edge">
<title>Node10&#45;&gt;Node5</title>
<path fill="none" stroke="midnightblue" d="M423.1,-112.38C430.56,-103.33 442.62,-88.68 453,-76 466.34,-59.71 481.52,-41.08 492.2,-27.95"/>
<polygon fill="midnightblue" stroke="midnightblue" points="495.21,-29.81 498.81,-19.84 489.78,-25.39 495.21,-29.81"/>
</g>
<!-- Node10&#45;&gt;Node8 -->
<g id="edge15" class="edge">
<title>Node10&#45;&gt;Node8</title>
<path fill="none" stroke="midnightblue" d="M397.77,-112.44C379.1,-103.68 349.84,-89.94 328.38,-79.86"/>
<polygon fill="midnightblue" stroke="midnightblue" points="329.67,-76.6 319.13,-75.52 326.7,-82.93 329.67,-76.6"/>
</g>
<!-- Node11 -->
<g id="node11" class="node">
<title>Node11</title>
<g id="a_node11"><a xlink:title=" ">
<polygon fill="white" stroke="#bfbfbf" points="388,-56.5 388,-75.5 444,-75.5 444,-56.5 388,-56.5"/>
<text text-anchor="middle" x="416" y="-63.5" font-family="Helvetica,sans-Serif" font-size="10.00">QObject</text>
</a>
</g>
</g>
<!-- Node10&#45;&gt;Node11 -->
<g id="edge13" class="edge">
<title>Node10&#45;&gt;Node11</title>
<path fill="none" stroke="midnightblue" d="M416,-112.08C416,-105.01 416,-94.86 416,-85.99"/>
<polygon fill="midnightblue" stroke="midnightblue" points="419.5,-85.75 416,-75.75 412.5,-85.75 419.5,-85.75"/>
</g>
<!-- Node13&#45;&gt;Node12 -->
<g id="edge20" class="edge">
<title>Node13&#45;&gt;Node12</title>
<path fill="none" stroke="midnightblue" d="M706.07,-224.17C698.08,-215.19 685.46,-200.81 675,-188 661.82,-171.87 647.38,-152.96 637.42,-139.7"/>
<polygon fill="midnightblue" stroke="midnightblue" points="640.11,-137.45 631.31,-131.54 634.5,-141.64 640.11,-137.45"/>
</g>
<!-- Node14 -->
<g id="node14" class="node">
<title>Node14</title>
<g id="a_node14"><a xlink:title=" ">
<polygon fill="white" stroke="#bfbfbf" points="683.5,-168.5 683.5,-187.5 738.5,-187.5 738.5,-168.5 683.5,-168.5"/>
<text text-anchor="middle" x="711" y="-175.5" font-family="Helvetica,sans-Serif" font-size="10.00">QPointF</text>
</a>
</g>
</g>
<!-- Node13&#45;&gt;Node14 -->
<g id="edge21" class="edge">
<title>Node13&#45;&gt;Node14</title>
<path fill="none" stroke="midnightblue" d="M713.5,-224.08C713.11,-217.01 712.54,-206.86 712.05,-197.99"/>
<polygon fill="midnightblue" stroke="midnightblue" points="715.53,-197.54 711.48,-187.75 708.54,-197.93 715.53,-197.54"/>
</g>
<!-- Node15 -->
<g id="node15" class="node">
<title>Node15</title>
<g id="a_node15"><a xlink:title=" ">
<polygon fill="white" stroke="#bfbfbf" points="756.5,-168.5 756.5,-187.5 827.5,-187.5 827.5,-168.5 756.5,-168.5"/>
<text text-anchor="middle" x="792" y="-175.5" font-family="Helvetica,sans-Serif" font-size="10.00">QMetaType</text>
</a>
</g>
</g>
<!-- Node13&#45;&gt;Node15 -->
<g id="edge22" class="edge">
<title>Node13&#45;&gt;Node15</title>
<path fill="none" stroke="midnightblue" d="M726.53,-224.32C738.58,-215.98 757.02,-203.21 771.26,-193.35"/>
<polygon fill="midnightblue" stroke="midnightblue" points="773.26,-196.22 779.49,-187.65 769.28,-190.47 773.26,-196.22"/>
</g>
</g>
</svg>
