<?xml version="1.0" encoding="UTF-8" standalone="no"?>
<!DOCTYPE svg PUBLIC "-//W3C//DTD SVG 1.1//EN"
 "http://www.w3.org/Graphics/SVG/1.1/DTD/svg11.dtd">
<!-- Generated by graphviz version 2.43.0 (0)
 -->
<!-- Title: include/PerceptualColor/circulardiagram.h Pages: 1 -->
<svg width="609pt" height="296pt"
 viewBox="0.00 0.00 608.50 296.00" xmlns="http://www.w3.org/2000/svg" xmlns:xlink="http://www.w3.org/1999/xlink">
<g id="graph0" class="graph" transform="scale(1 1) rotate(0) translate(4 292)">
<title>include/PerceptualColor/circulardiagram.h</title>
<polygon fill="white" stroke="transparent" points="-4,4 -4,-292 604.5,-292 604.5,4 -4,4"/>
<!-- Node1 -->
<g id="node1" class="node">
<title>Node1</title>
<g id="a_node1"><a xlink:title=" ">
<polygon fill="#bfbfbf" stroke="black" points="149.5,-257.5 149.5,-287.5 281.5,-287.5 281.5,-257.5 149.5,-257.5"/>
<text text-anchor="start" x="157.5" y="-275.5" font-family="Helvetica,sans-Serif" font-size="10.00">include/PerceptualColor</text>
<text text-anchor="middle" x="215.5" y="-264.5" font-family="Helvetica,sans-Serif" font-size="10.00">/circulardiagram.h</text>
</a>
</g>
</g>
<!-- Node2 -->
<g id="node2" class="node">
<title>Node2</title>
<g id="a_node2"><a xlink:href="circulardiagram_8cpp.html" target="_top" xlink:title=" ">
<polygon fill="white" stroke="black" points="0,-196 0,-215 131,-215 131,-196 0,-196"/>
<text text-anchor="middle" x="65.5" y="-203" font-family="Helvetica,sans-Serif" font-size="10.00">src/circulardiagram.cpp</text>
</a>
</g>
</g>
<!-- Node1&#45;&gt;Node2 -->
<g id="edge1" class="edge">
<title>Node1&#45;&gt;Node2</title>
<path fill="none" stroke="midnightblue" d="M173.49,-253.3C144.56,-240.76 107.46,-224.68 85.13,-215.01"/>
<polygon fill="midnightblue" stroke="midnightblue" points="172.39,-256.63 182.95,-257.4 175.17,-250.21 172.39,-256.63"/>
</g>
<!-- Node3 -->
<g id="node3" class="node">
<title>Node3</title>
<g id="a_node3"><a xlink:href="chromahuediagram_8h.html" target="_top" xlink:title=" ">
<polygon fill="white" stroke="black" points="149.5,-190.5 149.5,-220.5 281.5,-220.5 281.5,-190.5 149.5,-190.5"/>
<text text-anchor="start" x="157.5" y="-208.5" font-family="Helvetica,sans-Serif" font-size="10.00">include/PerceptualColor</text>
<text text-anchor="middle" x="215.5" y="-197.5" font-family="Helvetica,sans-Serif" font-size="10.00">/chromahuediagram.h</text>
</a>
</g>
</g>
<!-- Node1&#45;&gt;Node3 -->
<g id="edge2" class="edge">
<title>Node1&#45;&gt;Node3</title>
<path fill="none" stroke="midnightblue" d="M215.5,-247.11C215.5,-238.15 215.5,-228.32 215.5,-220.58"/>
<polygon fill="midnightblue" stroke="midnightblue" points="212,-247.4 215.5,-257.4 219,-247.4 212,-247.4"/>
</g>
<!-- Node8 -->
<g id="node8" class="node">
<title>Node8</title>
<g id="a_node8"><a xlink:href="simplecolorwheel_8h.html" target="_top" xlink:title=" ">
<polygon fill="white" stroke="black" points="305.5,-190.5 305.5,-220.5 437.5,-220.5 437.5,-190.5 305.5,-190.5"/>
<text text-anchor="start" x="313.5" y="-208.5" font-family="Helvetica,sans-Serif" font-size="10.00">include/PerceptualColor</text>
<text text-anchor="middle" x="371.5" y="-197.5" font-family="Helvetica,sans-Serif" font-size="10.00">/simplecolorwheel.h</text>
</a>
</g>
</g>
<!-- Node1&#45;&gt;Node8 -->
<g id="edge7" class="edge">
<title>Node1&#45;&gt;Node8</title>
<path fill="none" stroke="midnightblue" d="M258.59,-253.54C283.56,-243.14 314.53,-230.24 337.72,-220.58"/>
<polygon fill="midnightblue" stroke="midnightblue" points="257.23,-250.32 249.35,-257.4 259.93,-256.78 257.23,-250.32"/>
</g>
<!-- Node4 -->
<g id="node4" class="node">
<title>Node4</title>
<g id="a_node4"><a xlink:href="chromahuediagram_8cpp.html" target="_top" xlink:title=" ">
<polygon fill="white" stroke="black" points="141,-129 141,-148 290,-148 290,-129 141,-129"/>
<text text-anchor="middle" x="215.5" y="-136" font-family="Helvetica,sans-Serif" font-size="10.00">src/chromahuediagram.cpp</text>
</a>
</g>
</g>
<!-- Node3&#45;&gt;Node4 -->
<g id="edge3" class="edge">
<title>Node3&#45;&gt;Node4</title>
<path fill="none" stroke="midnightblue" d="M215.5,-180.25C215.5,-169.02 215.5,-156.38 215.5,-148.19"/>
<polygon fill="midnightblue" stroke="midnightblue" points="212,-180.4 215.5,-190.4 219,-180.4 212,-180.4"/>
</g>
<!-- Node5 -->
<g id="node5" class="node">
<title>Node5</title>
<g id="a_node5"><a xlink:href="colordialog_8h.html" target="_top" xlink:title=" ">
<polygon fill="white" stroke="black" points="181.5,-56.5 181.5,-86.5 313.5,-86.5 313.5,-56.5 181.5,-56.5"/>
<text text-anchor="start" x="189.5" y="-74.5" font-family="Helvetica,sans-Serif" font-size="10.00">include/PerceptualColor</text>
<text text-anchor="middle" x="247.5" y="-63.5" font-family="Helvetica,sans-Serif" font-size="10.00">/colordialog.h</text>
</a>
</g>
</g>
<!-- Node3&#45;&gt;Node5 -->
<g id="edge4" class="edge">
<title>Node3&#45;&gt;Node5</title>
<path fill="none" stroke="midnightblue" d="M166.04,-185.83C152.42,-178.14 139.27,-167.73 131.5,-154 124.72,-142.01 123.95,-134.52 131.5,-123 143,-105.46 162.06,-93.97 181.44,-86.47"/>
<polygon fill="midnightblue" stroke="midnightblue" points="164.53,-188.98 175.01,-190.5 167.76,-182.78 164.53,-188.98"/>
</g>
<!-- Node6 -->
<g id="node6" class="node">
<title>Node6</title>
<g id="a_node6"><a xlink:href="colordialog_8cpp.html" target="_top" xlink:title=" ">
<polygon fill="white" stroke="black" points="137.5,-0.5 137.5,-19.5 245.5,-19.5 245.5,-0.5 137.5,-0.5"/>
<text text-anchor="middle" x="191.5" y="-7.5" font-family="Helvetica,sans-Serif" font-size="10.00">src/colordialog.cpp</text>
</a>
</g>
</g>
<!-- Node5&#45;&gt;Node6 -->
<g id="edge5" class="edge">
<title>Node5&#45;&gt;Node6</title>
<path fill="none" stroke="midnightblue" d="M227.27,-49C217.72,-38.86 206.87,-27.33 199.65,-19.66"/>
<polygon fill="midnightblue" stroke="midnightblue" points="224.83,-51.52 234.23,-56.4 229.92,-46.72 224.83,-51.52"/>
</g>
<!-- Node7 -->
<g id="node7" class="node">
<title>Node7</title>
<g id="a_node7"><a xlink:href="main_8cpp.html" target="_top" xlink:title=" ">
<polygon fill="white" stroke="black" points="264,-0.5 264,-19.5 343,-19.5 343,-0.5 264,-0.5"/>
<text text-anchor="middle" x="303.5" y="-7.5" font-family="Helvetica,sans-Serif" font-size="10.00">src/main.cpp</text>
</a>
</g>
</g>
<!-- Node5&#45;&gt;Node7 -->
<g id="edge6" class="edge">
<title>Node5&#45;&gt;Node7</title>
<path fill="none" stroke="midnightblue" d="M267.73,-49C277.28,-38.86 288.13,-27.33 295.35,-19.66"/>
<polygon fill="midnightblue" stroke="midnightblue" points="265.08,-46.72 260.77,-56.4 270.17,-51.52 265.08,-46.72"/>
</g>
<!-- Node8&#45;&gt;Node4 -->
<g id="edge8" class="edge">
<title>Node8&#45;&gt;Node4</title>
<path fill="none" stroke="midnightblue" d="M328.2,-186.46C298.06,-173.9 259.24,-157.72 235.92,-148.01"/>
<polygon fill="midnightblue" stroke="midnightblue" points="327.07,-189.78 337.65,-190.4 329.77,-183.32 327.07,-189.78"/>
</g>
<!-- Node9 -->
<g id="node9" class="node">
<title>Node9</title>
<g id="a_node9"><a xlink:href="simplecolorwheel_8cpp.html" target="_top" xlink:title=" ">
<polygon fill="white" stroke="black" points="308.5,-129 308.5,-148 448.5,-148 448.5,-129 308.5,-129"/>
<text text-anchor="middle" x="378.5" y="-136" font-family="Helvetica,sans-Serif" font-size="10.00">src/simplecolorwheel.cpp</text>
</a>
</g>
</g>
<!-- Node8&#45;&gt;Node9 -->
<g id="edge9" class="edge">
<title>Node8&#45;&gt;Node9</title>
<path fill="none" stroke="midnightblue" d="M374.11,-180.25C375.32,-169.02 376.68,-156.38 377.56,-148.19"/>
<polygon fill="midnightblue" stroke="midnightblue" points="370.61,-180.08 373.02,-190.4 377.57,-180.83 370.61,-180.08"/>
</g>
<!-- Node10 -->
<g id="node10" class="node">
<title>Node10</title>
<g id="a_node10"><a xlink:href="wheelcolorpicker_8h.html" target="_top" xlink:title=" ">
<polygon fill="white" stroke="black" points="466.5,-123.5 466.5,-153.5 598.5,-153.5 598.5,-123.5 466.5,-123.5"/>
<text text-anchor="start" x="474.5" y="-141.5" font-family="Helvetica,sans-Serif" font-size="10.00">include/PerceptualColor</text>
<text text-anchor="middle" x="532.5" y="-130.5" font-family="Helvetica,sans-Serif" font-size="10.00">/wheelcolorpicker.h</text>
</a>
</g>
</g>
<!-- Node8&#45;&gt;Node10 -->
<g id="edge10" class="edge">
<title>Node8&#45;&gt;Node10</title>
<path fill="none" stroke="midnightblue" d="M415.98,-186.54C441.74,-176.14 473.7,-163.24 497.63,-153.58"/>
<polygon fill="midnightblue" stroke="midnightblue" points="414.4,-183.41 406.43,-190.4 417.02,-189.9 414.4,-183.41"/>
</g>
<!-- Node10&#45;&gt;Node5 -->
<g id="edge12" class="edge">
<title>Node10&#45;&gt;Node5</title>
<path fill="none" stroke="midnightblue" d="M460.97,-121.19C414.29,-110.54 353.98,-96.78 309.37,-86.61"/>
<polygon fill="midnightblue" stroke="midnightblue" points="460.48,-124.66 471.01,-123.48 462.04,-117.84 460.48,-124.66"/>
</g>
<!-- Node11 -->
<g id="node11" class="node">
<title>Node11</title>
<g id="a_node11"><a xlink:href="wheelcolorpicker_8cpp.html" target="_top" xlink:title=" ">
<polygon fill="white" stroke="black" points="464.5,-62 464.5,-81 600.5,-81 600.5,-62 464.5,-62"/>
<text text-anchor="middle" x="532.5" y="-69" font-family="Helvetica,sans-Serif" font-size="10.00">src/wheelcolorpicker.cpp</text>
</a>
</g>
</g>
<!-- Node10&#45;&gt;Node11 -->
<g id="edge11" class="edge">
<title>Node10&#45;&gt;Node11</title>
<path fill="none" stroke="midnightblue" d="M532.5,-113.25C532.5,-102.02 532.5,-89.38 532.5,-81.19"/>
<polygon fill="midnightblue" stroke="midnightblue" points="529,-113.4 532.5,-123.4 536,-113.4 529,-113.4"/>
</g>
</g>
</svg>
