<?xml version="1.0" encoding="UTF-8" standalone="no"?>
<!DOCTYPE svg PUBLIC "-//W3C//DTD SVG 1.1//EN"
 "http://www.w3.org/Graphics/SVG/1.1/DTD/svg11.dtd">
<!-- Generated by graphviz version 2.43.0 (0)
 -->
<!-- Title: PerceptualColor::ColorDialog::setCurrentOpaqueQColor Pages: 1 -->
<svg width="1152pt" height="586pt"
 viewBox="0.00 0.00 1152.00 586.00" xmlns="http://www.w3.org/2000/svg" xmlns:xlink="http://www.w3.org/1999/xlink">
<g id="graph0" class="graph" transform="scale(1 1) rotate(0) translate(4 582)">
<title>PerceptualColor::ColorDialog::setCurrentOpaqueQColor</title>
<polygon fill="white" stroke="transparent" points="-4,4 -4,-582 1148,-582 1148,4 -4,4"/>
<!-- Node1 -->
<g id="node1" class="node">
<title>Node1</title>
<g id="a_node1"><a xlink:title="Convenience version of setCurrentOpaqueColor(), accepting QColor.">
<polygon fill="#bfbfbf" stroke="black" points="0,-235.5 0,-265.5 157,-265.5 157,-235.5 0,-235.5"/>
<text text-anchor="start" x="8" y="-253.5" font-family="Helvetica,sans-Serif" font-size="10.00">PerceptualColor::ColorDialog</text>
<text text-anchor="middle" x="78.5" y="-242.5" font-family="Helvetica,sans-Serif" font-size="10.00">::setCurrentOpaqueQColor</text>
</a>
</g>
</g>
<!-- Node2 -->
<g id="node2" class="node">
<title>Node2</title>
<g id="a_node2"><a xlink:href="class_perceptual_color_1_1_color_dialog.html#abd0da334b7034a67a3cc83bc3ed0a425" target="_top" xlink:title="Updates m_currentOpaqueColor and all affected widgets.">
<polygon fill="white" stroke="black" points="193,-235.5 193,-265.5 350,-265.5 350,-235.5 193,-235.5"/>
<text text-anchor="start" x="201" y="-253.5" font-family="Helvetica,sans-Serif" font-size="10.00">PerceptualColor::ColorDialog</text>
<text text-anchor="middle" x="271.5" y="-242.5" font-family="Helvetica,sans-Serif" font-size="10.00">::setCurrentOpaqueColor</text>
</a>
</g>
</g>
<!-- Node1&#45;&gt;Node2 -->
<g id="edge1" class="edge">
<title>Node1&#45;&gt;Node2</title>
<path fill="none" stroke="midnightblue" d="M157.19,-250.5C165.65,-250.5 174.31,-250.5 182.88,-250.5"/>
<polygon fill="midnightblue" stroke="midnightblue" points="182.88,-254 192.88,-250.5 182.88,-247 182.88,-254"/>
</g>
<!-- Node3 -->
<g id="node3" class="node">
<title>Node3</title>
<g id="a_node3"><a xlink:href="class_perceptual_color_1_1_full_color_description.html#a45a4e34ce415f9fc71f3fe4847c89068" target="_top" xlink:title=" ">
<polygon fill="white" stroke="black" points="398,-508.5 398,-538.5 541,-538.5 541,-508.5 398,-508.5"/>
<text text-anchor="start" x="406" y="-526.5" font-family="Helvetica,sans-Serif" font-size="10.00">PerceptualColor::FullColor</text>
<text text-anchor="middle" x="469.5" y="-515.5" font-family="Helvetica,sans-Serif" font-size="10.00">Description::isValid</text>
</a>
</g>
</g>
<!-- Node2&#45;&gt;Node3 -->
<g id="edge2" class="edge">
<title>Node2&#45;&gt;Node3</title>
<path fill="none" stroke="midnightblue" d="M274.92,-265.72C282.64,-309.09 310.72,-434.39 386,-499.5 387.36,-500.67 388.77,-501.79 390.23,-502.85"/>
<polygon fill="midnightblue" stroke="midnightblue" points="388.7,-506.02 399.03,-508.36 392.41,-500.09 388.7,-506.02"/>
</g>
<!-- Node4 -->
<g id="node4" class="node">
<title>Node4</title>
<g id="a_node4"><a xlink:href="class_perceptual_color_1_1_alpha_selector.html#ac9faa6bbf68757f843e4cce92d697067" target="_top" xlink:title=" ">
<polygon fill="white" stroke="black" points="386,-366.5 386,-396.5 553,-396.5 553,-366.5 386,-366.5"/>
<text text-anchor="start" x="394" y="-384.5" font-family="Helvetica,sans-Serif" font-size="10.00">PerceptualColor::AlphaSelector</text>
<text text-anchor="middle" x="469.5" y="-373.5" font-family="Helvetica,sans-Serif" font-size="10.00">::setColor</text>
</a>
</g>
</g>
<!-- Node2&#45;&gt;Node4 -->
<g id="edge3" class="edge">
<title>Node2&#45;&gt;Node4</title>
<path fill="none" stroke="midnightblue" d="M287.49,-265.79C308.18,-286.25 347.32,-322.69 386,-346.5 395.54,-352.37 406.23,-357.7 416.68,-362.34"/>
<polygon fill="midnightblue" stroke="midnightblue" points="415.59,-365.68 426.16,-366.4 418.35,-359.25 415.59,-365.68"/>
</g>
<!-- Node6 -->
<g id="node6" class="node">
<title>Node6</title>
<g id="a_node6"><a xlink:href="class_perceptual_color_1_1_full_color_description.html#acdbff4639f8a118f0d13a831a4b57ffe" target="_top" xlink:title=" ">
<polygon fill="white" stroke="black" points="813,-344.5 813,-374.5 956,-374.5 956,-344.5 813,-344.5"/>
<text text-anchor="start" x="821" y="-362.5" font-family="Helvetica,sans-Serif" font-size="10.00">PerceptualColor::FullColor</text>
<text text-anchor="middle" x="884.5" y="-351.5" font-family="Helvetica,sans-Serif" font-size="10.00">Description::toLch</text>
</a>
</g>
</g>
<!-- Node2&#45;&gt;Node6 -->
<g id="edge19" class="edge">
<title>Node2&#45;&gt;Node6</title>
<path fill="none" stroke="midnightblue" d="M350.49,-246.34C471.69,-240.95 699.12,-235.35 774,-264.5 812.02,-279.3 845.79,-313.44 865.45,-336.5"/>
<polygon fill="midnightblue" stroke="midnightblue" points="862.96,-338.98 872.04,-344.44 868.35,-334.51 862.96,-338.98"/>
</g>
<!-- Node7 -->
<g id="node7" class="node">
<title>Node7</title>
<g id="a_node7"><a xlink:href="class_perceptual_color_1_1_chroma_hue_diagram.html#a443db20bc2c25119febcd61ca9299d21" target="_top" xlink:title="Setter for the color() property.">
<polygon fill="white" stroke="black" points="602.5,-273.5 602.5,-303.5 760.5,-303.5 760.5,-273.5 602.5,-273.5"/>
<text text-anchor="start" x="610.5" y="-291.5" font-family="Helvetica,sans-Serif" font-size="10.00">PerceptualColor::ChromaHue</text>
<text text-anchor="middle" x="681.5" y="-280.5" font-family="Helvetica,sans-Serif" font-size="10.00">Diagram::setColor</text>
</a>
</g>
</g>
<!-- Node2&#45;&gt;Node7 -->
<g id="edge6" class="edge">
<title>Node2&#45;&gt;Node7</title>
<path fill="none" stroke="midnightblue" d="M350.3,-260.53C362.25,-261.94 374.45,-263.32 386,-264.5 455.08,-271.57 533.45,-277.88 591.97,-282.25"/>
<polygon fill="midnightblue" stroke="midnightblue" points="592.06,-285.76 602.29,-283.01 592.58,-278.78 592.06,-285.76"/>
</g>
<!-- Node8 -->
<g id="node8" class="node">
<title>Node8</title>
<g id="a_node8"><a xlink:href="class_perceptual_color_1_1_wheel_color_picker.html#a5f3a58bb672323221c98c2285404bf76" target="_top" xlink:title="Setter for currentColorRgb() property.">
<polygon fill="white" stroke="black" points="391.5,-459.5 391.5,-489.5 547.5,-489.5 547.5,-459.5 391.5,-459.5"/>
<text text-anchor="start" x="399.5" y="-477.5" font-family="Helvetica,sans-Serif" font-size="10.00">PerceptualColor::WheelColor</text>
<text text-anchor="middle" x="469.5" y="-466.5" font-family="Helvetica,sans-Serif" font-size="10.00">Picker::setCurrentColor</text>
</a>
</g>
</g>
<!-- Node2&#45;&gt;Node8 -->
<g id="edge8" class="edge">
<title>Node2&#45;&gt;Node8</title>
<path fill="none" stroke="midnightblue" d="M281.69,-265.64C299.68,-294.67 341.69,-359.43 386,-406.5 402.14,-423.65 422.55,-440.5 439.03,-453.14"/>
<polygon fill="midnightblue" stroke="midnightblue" points="437.16,-456.11 447.25,-459.35 441.37,-450.53 437.16,-456.11"/>
</g>
<!-- Node13 -->
<g id="node13" class="node">
<title>Node13</title>
<g id="a_node13"><a xlink:href="class_perceptual_color_1_1_gradient_selector.html#a1548390b891333547c1dee97573be568" target="_top" xlink:title=" ">
<polygon fill="white" stroke="black" points="398.5,-191.5 398.5,-221.5 540.5,-221.5 540.5,-191.5 398.5,-191.5"/>
<text text-anchor="start" x="406.5" y="-209.5" font-family="Helvetica,sans-Serif" font-size="10.00">PerceptualColor::Gradient</text>
<text text-anchor="middle" x="469.5" y="-198.5" font-family="Helvetica,sans-Serif" font-size="10.00">Selector::setFraction</text>
</a>
</g>
</g>
<!-- Node2&#45;&gt;Node13 -->
<g id="edge15" class="edge">
<title>Node2&#45;&gt;Node13</title>
<path fill="none" stroke="midnightblue" d="M339.4,-235.48C356.18,-231.71 374.32,-227.64 391.55,-223.78"/>
<polygon fill="midnightblue" stroke="midnightblue" points="392.57,-227.13 401.57,-221.53 391.04,-220.3 392.57,-227.13"/>
</g>
<!-- Node14 -->
<g id="node14" class="node">
<title>Node14</title>
<g id="a_node14"><a xlink:href="class_perceptual_color_1_1_color_dialog.html#a38134a3e22f2b3df4602a08025ec1d52" target="_top" xlink:title="Get text for m_hlcLineEdit based on m_currentOpaqueColor.">
<polygon fill="white" stroke="black" points="603,-322.5 603,-352.5 760,-352.5 760,-322.5 603,-322.5"/>
<text text-anchor="start" x="611" y="-340.5" font-family="Helvetica,sans-Serif" font-size="10.00">PerceptualColor::ColorDialog</text>
<text text-anchor="middle" x="681.5" y="-329.5" font-family="Helvetica,sans-Serif" font-size="10.00">::textForHlcLineEdit</text>
</a>
</g>
</g>
<!-- Node2&#45;&gt;Node14 -->
<g id="edge16" class="edge">
<title>Node2&#45;&gt;Node14</title>
<path fill="none" stroke="midnightblue" d="M316.62,-265.5C337.48,-272.24 362.85,-279.91 386,-285.5 454.82,-302.12 533.88,-315.79 592.75,-324.93"/>
<polygon fill="midnightblue" stroke="midnightblue" points="592.34,-328.41 602.76,-326.47 593.41,-321.49 592.34,-328.41"/>
</g>
<!-- Node15 -->
<g id="node15" class="node">
<title>Node15</title>
<g id="a_node15"><a xlink:href="class_perceptual_color_1_1_full_color_description.html#aaa17133c6e1d040b2f088e79a42d3283" target="_top" xlink:title=" ">
<polygon fill="white" stroke="black" points="398,-142.5 398,-172.5 541,-172.5 541,-142.5 398,-142.5"/>
<text text-anchor="start" x="406" y="-160.5" font-family="Helvetica,sans-Serif" font-size="10.00">PerceptualColor::FullColor</text>
<text text-anchor="middle" x="469.5" y="-149.5" font-family="Helvetica,sans-Serif" font-size="10.00">Description::toHsvQColor</text>
</a>
</g>
</g>
<!-- Node2&#45;&gt;Node15 -->
<g id="edge18" class="edge">
<title>Node2&#45;&gt;Node15</title>
<path fill="none" stroke="midnightblue" d="M294.24,-235.26C316.46,-220.23 352.4,-197.39 386,-182.5 391.26,-180.17 396.8,-177.98 402.42,-175.93"/>
<polygon fill="midnightblue" stroke="midnightblue" points="403.61,-179.22 411.91,-172.63 401.31,-172.61 403.61,-179.22"/>
</g>
<!-- Node16 -->
<g id="node16" class="node">
<title>Node16</title>
<g id="a_node16"><a xlink:href="class_perceptual_color_1_1_full_color_description.html#a572e2abe28e31c6315732d30f06b1732" target="_top" xlink:title="A string with a hexadecimal representation of the color.">
<polygon fill="white" stroke="black" points="392,-93.5 392,-123.5 547,-123.5 547,-93.5 392,-93.5"/>
<text text-anchor="start" x="400" y="-111.5" font-family="Helvetica,sans-Serif" font-size="10.00">PerceptualColor::FullColor</text>
<text text-anchor="middle" x="469.5" y="-100.5" font-family="Helvetica,sans-Serif" font-size="10.00">Description::toRgbHexString</text>
</a>
</g>
</g>
<!-- Node2&#45;&gt;Node16 -->
<g id="edge20" class="edge">
<title>Node2&#45;&gt;Node16</title>
<path fill="none" stroke="midnightblue" d="M282.88,-235.4C300.92,-210.29 340.52,-160.01 386,-132.5 388.81,-130.8 391.74,-129.22 394.76,-127.74"/>
<polygon fill="midnightblue" stroke="midnightblue" points="396.31,-130.88 404.03,-123.63 393.47,-124.49 396.31,-130.88"/>
</g>
<!-- Node17 -->
<g id="node17" class="node">
<title>Node17</title>
<g id="a_node17"><a xlink:href="class_perceptual_color_1_1_full_color_description.html#aad1d9cc70b7a9ae81c829c391334d768" target="_top" xlink:title=" ">
<polygon fill="white" stroke="black" points="610,-49.5 610,-79.5 753,-79.5 753,-49.5 610,-49.5"/>
<text text-anchor="start" x="618" y="-67.5" font-family="Helvetica,sans-Serif" font-size="10.00">PerceptualColor::FullColor</text>
<text text-anchor="middle" x="681.5" y="-56.5" font-family="Helvetica,sans-Serif" font-size="10.00">Description::toRgbQColor</text>
</a>
</g>
</g>
<!-- Node2&#45;&gt;Node17 -->
<g id="edge21" class="edge">
<title>Node2&#45;&gt;Node17</title>
<path fill="none" stroke="midnightblue" d="M277.59,-235.27C289.92,-201.06 324.97,-118.37 386,-83.5 450.79,-46.48 537.18,-45.43 599.62,-51.41"/>
<polygon fill="midnightblue" stroke="midnightblue" points="599.51,-54.92 609.82,-52.47 600.23,-47.95 599.51,-54.92"/>
</g>
<!-- Node18 -->
<g id="node18" class="node">
<title>Node18</title>
<g id="a_node18"><a xlink:href="class_perceptual_color_1_1_color_dialog.html#a18985e0cf14c64400f1edc5f64da159d" target="_top" xlink:title="Updates the color patch widget.">
<polygon fill="white" stroke="black" points="391,-5.5 391,-35.5 548,-35.5 548,-5.5 391,-5.5"/>
<text text-anchor="start" x="399" y="-23.5" font-family="Helvetica,sans-Serif" font-size="10.00">PerceptualColor::ColorDialog</text>
<text text-anchor="middle" x="469.5" y="-12.5" font-family="Helvetica,sans-Serif" font-size="10.00">::updateColorPatch</text>
</a>
</g>
</g>
<!-- Node2&#45;&gt;Node18 -->
<g id="edge22" class="edge">
<title>Node2&#45;&gt;Node18</title>
<path fill="none" stroke="midnightblue" d="M277.03,-235.33C288.83,-198.39 323.95,-102.94 386,-50.5 390.62,-46.59 395.8,-43.18 401.24,-40.19"/>
<polygon fill="midnightblue" stroke="midnightblue" points="403.19,-43.13 410.61,-35.56 400.09,-36.86 403.19,-43.13"/>
</g>
<!-- Node5 -->
<g id="node5" class="node">
<title>Node5</title>
<g id="a_node5"><a xlink:href="class_perceptual_color_1_1_gradient_selector.html#aabfd1c82565fb7c491e3bf1735beca11" target="_top" xlink:title=" ">
<polygon fill="white" stroke="black" points="610.5,-410.5 610.5,-440.5 752.5,-440.5 752.5,-410.5 610.5,-410.5"/>
<text text-anchor="start" x="618.5" y="-428.5" font-family="Helvetica,sans-Serif" font-size="10.00">PerceptualColor::Gradient</text>
<text text-anchor="middle" x="681.5" y="-417.5" font-family="Helvetica,sans-Serif" font-size="10.00">Selector::setColors</text>
</a>
</g>
</g>
<!-- Node4&#45;&gt;Node5 -->
<g id="edge4" class="edge">
<title>Node4&#45;&gt;Node5</title>
<path fill="none" stroke="midnightblue" d="M542.18,-396.52C560.9,-400.44 581.2,-404.69 600.32,-408.7"/>
<polygon fill="midnightblue" stroke="midnightblue" points="599.7,-412.15 610.21,-410.77 601.14,-405.3 599.7,-412.15"/>
</g>
<!-- Node4&#45;&gt;Node6 -->
<g id="edge5" class="edge">
<title>Node4&#45;&gt;Node6</title>
<path fill="none" stroke="midnightblue" d="M553.08,-377.1C625.55,-373.24 730.33,-367.66 802.37,-363.82"/>
<polygon fill="midnightblue" stroke="midnightblue" points="802.95,-367.3 812.75,-363.27 802.58,-360.31 802.95,-367.3"/>
</g>
<!-- Node7&#45;&gt;Node6 -->
<g id="edge7" class="edge">
<title>Node7&#45;&gt;Node6</title>
<path fill="none" stroke="midnightblue" d="M741.91,-303.51C752.67,-306.58 763.73,-309.96 774,-313.5 796.72,-321.34 821.44,-331.57 841.64,-340.4"/>
<polygon fill="midnightblue" stroke="midnightblue" points="840.31,-343.64 850.87,-344.47 843.14,-337.23 840.31,-343.64"/>
</g>
<!-- Node8&#45;&gt;Node6 -->
<g id="edge14" class="edge">
<title>Node8&#45;&gt;Node6</title>
<path fill="none" stroke="midnightblue" d="M529.79,-489.53C548.59,-493.62 569.55,-497.47 589,-499.5 670.78,-508.03 700.09,-535.52 774,-499.5 823.27,-475.49 856.88,-417.4 872.85,-384.08"/>
<polygon fill="midnightblue" stroke="midnightblue" points="876.21,-385.15 877.23,-374.6 869.86,-382.21 876.21,-385.15"/>
</g>
<!-- Node9 -->
<g id="node9" class="node">
<title>Node9</title>
<g id="a_node9"><a xlink:href="class_perceptual_color_1_1_chroma_lightness_diagram.html#a27d7c972e420480674da1a0fae0b10b3" target="_top" xlink:title="Setter for the color() property.">
<polygon fill="white" stroke="black" points="589,-459.5 589,-489.5 774,-489.5 774,-459.5 589,-459.5"/>
<text text-anchor="start" x="597" y="-477.5" font-family="Helvetica,sans-Serif" font-size="10.00">PerceptualColor::ChromaLightness</text>
<text text-anchor="middle" x="681.5" y="-466.5" font-family="Helvetica,sans-Serif" font-size="10.00">Diagram::setColor</text>
</a>
</g>
</g>
<!-- Node8&#45;&gt;Node9 -->
<g id="edge9" class="edge">
<title>Node8&#45;&gt;Node9</title>
<path fill="none" stroke="midnightblue" d="M547.5,-474.5C557.71,-474.5 568.29,-474.5 578.82,-474.5"/>
<polygon fill="midnightblue" stroke="midnightblue" points="578.9,-478 588.9,-474.5 578.9,-471 578.9,-478"/>
</g>
<!-- Node10 -->
<g id="node10" class="node">
<title>Node10</title>
<g id="a_node10"><a xlink:href="class_perceptual_color_1_1_simple_color_wheel.html#aa9eec6e96f6069be6d983d1c854644d1" target="_top" xlink:title=" ">
<polygon fill="white" stroke="black" points="602,-547.5 602,-577.5 761,-577.5 761,-547.5 602,-547.5"/>
<text text-anchor="start" x="610" y="-565.5" font-family="Helvetica,sans-Serif" font-size="10.00">PerceptualColor::SimpleColor</text>
<text text-anchor="middle" x="681.5" y="-554.5" font-family="Helvetica,sans-Serif" font-size="10.00">Wheel::setHue</text>
</a>
</g>
</g>
<!-- Node8&#45;&gt;Node10 -->
<g id="edge11" class="edge">
<title>Node8&#45;&gt;Node10</title>
<path fill="none" stroke="midnightblue" d="M531.73,-489.65C539.11,-492.45 546.37,-495.72 553,-499.5 571.86,-510.25 570.27,-521.54 589,-532.5 596.26,-536.75 604.2,-540.48 612.27,-543.75"/>
<polygon fill="midnightblue" stroke="midnightblue" points="611.19,-547.08 621.78,-547.36 613.68,-540.54 611.19,-547.08"/>
</g>
<!-- Node9&#45;&gt;Node6 -->
<g id="edge10" class="edge">
<title>Node9&#45;&gt;Node6</title>
<path fill="none" stroke="midnightblue" d="M753.12,-459.35C760.34,-456.81 767.43,-453.88 774,-450.5 808.46,-432.78 841.77,-402.64 862.42,-381.94"/>
<polygon fill="midnightblue" stroke="midnightblue" points="864.94,-384.37 869.44,-374.78 859.94,-379.47 864.94,-384.37"/>
</g>
<!-- Node11 -->
<g id="node11" class="node">
<title>Node11</title>
<g id="a_node11"><a xlink:href="class_perceptual_color_1_1_polar_point_f.html#a9eefd08d3a5ad536232292380f958804" target="_top" xlink:title="Normalizes an angle.">
<polygon fill="white" stroke="black" points="810,-547.5 810,-577.5 959,-577.5 959,-547.5 810,-547.5"/>
<text text-anchor="start" x="818" y="-565.5" font-family="Helvetica,sans-Serif" font-size="10.00">PerceptualColor::PolarPoint</text>
<text text-anchor="middle" x="884.5" y="-554.5" font-family="Helvetica,sans-Serif" font-size="10.00">F::normalizedAngleDegree</text>
</a>
</g>
</g>
<!-- Node10&#45;&gt;Node11 -->
<g id="edge12" class="edge">
<title>Node10&#45;&gt;Node11</title>
<path fill="none" stroke="midnightblue" d="M761.08,-562.5C773.76,-562.5 786.93,-562.5 799.74,-562.5"/>
<polygon fill="midnightblue" stroke="midnightblue" points="799.91,-566 809.91,-562.5 799.91,-559 799.91,-566"/>
</g>
<!-- Node12 -->
<g id="node12" class="node">
<title>Node12</title>
<g id="a_node12"><a xlink:href="class_perceptual_color_1_1_polar_point_f.html#a882cd166affc603fc62241dcb3be4fd5" target="_top" xlink:title="Normalized angle.">
<polygon fill="white" stroke="black" points="995,-547.5 995,-577.5 1144,-577.5 1144,-547.5 995,-547.5"/>
<text text-anchor="start" x="1003" y="-565.5" font-family="Helvetica,sans-Serif" font-size="10.00">PerceptualColor::PolarPoint</text>
<text text-anchor="middle" x="1069.5" y="-554.5" font-family="Helvetica,sans-Serif" font-size="10.00">F::angleDegree</text>
</a>
</g>
</g>
<!-- Node11&#45;&gt;Node12 -->
<g id="edge13" class="edge">
<title>Node11&#45;&gt;Node12</title>
<path fill="none" stroke="midnightblue" d="M959.14,-562.5C967.47,-562.5 976.01,-562.5 984.46,-562.5"/>
<polygon fill="midnightblue" stroke="midnightblue" points="984.71,-566 994.71,-562.5 984.71,-559 984.71,-566"/>
</g>
<!-- Node14&#45;&gt;Node6 -->
<g id="edge17" class="edge">
<title>Node14&#45;&gt;Node6</title>
<path fill="none" stroke="midnightblue" d="M760.21,-346.01C774.17,-347.53 788.74,-349.13 802.78,-350.67"/>
<polygon fill="midnightblue" stroke="midnightblue" points="802.57,-354.16 812.89,-351.77 803.33,-347.2 802.57,-354.16"/>
</g>
<!-- Node18&#45;&gt;Node17 -->
<g id="edge24" class="edge">
<title>Node18&#45;&gt;Node17</title>
<path fill="none" stroke="midnightblue" d="M542.18,-35.52C560.8,-39.42 580.98,-43.65 600.01,-47.64"/>
<polygon fill="midnightblue" stroke="midnightblue" points="599.35,-51.07 609.85,-49.7 600.78,-44.22 599.35,-51.07"/>
</g>
<!-- Node19 -->
<g id="node19" class="node">
<title>Node19</title>
<g id="a_node19"><a xlink:href="class_perceptual_color_1_1_color_patch.html#ada8693cd4a8e51eb2debd3c0192a7458" target="_top" xlink:title="Set the color property.">
<polygon fill="white" stroke="black" points="605.5,-0.5 605.5,-30.5 757.5,-30.5 757.5,-0.5 605.5,-0.5"/>
<text text-anchor="start" x="613.5" y="-18.5" font-family="Helvetica,sans-Serif" font-size="10.00">PerceptualColor::ColorPatch</text>
<text text-anchor="middle" x="681.5" y="-7.5" font-family="Helvetica,sans-Serif" font-size="10.00">::setColor</text>
</a>
</g>
</g>
<!-- Node18&#45;&gt;Node19 -->
<g id="edge23" class="edge">
<title>Node18&#45;&gt;Node19</title>
<path fill="none" stroke="midnightblue" d="M548.1,-18.65C563.43,-18.29 579.61,-17.9 595.18,-17.53"/>
<polygon fill="midnightblue" stroke="midnightblue" points="595.4,-21.03 605.32,-17.29 595.23,-14.03 595.4,-21.03"/>
</g>
</g>
</svg>
