<?xml version="1.0" encoding="UTF-8" standalone="no"?>
<!DOCTYPE svg PUBLIC "-//W3C//DTD SVG 1.1//EN"
 "http://www.w3.org/Graphics/SVG/1.1/DTD/svg11.dtd">
<!-- Generated by graphviz version 2.43.0 (0)
 -->
<!-- Title: PerceptualColor::ChromaHueDiagram::wheelEvent Pages: 1 -->
<svg width="588pt" height="188pt"
 viewBox="0.00 0.00 588.00 187.50" xmlns="http://www.w3.org/2000/svg" xmlns:xlink="http://www.w3.org/1999/xlink">
<g id="graph0" class="graph" transform="scale(1 1) rotate(0) translate(4 183.5)">
<title>PerceptualColor::ChromaHueDiagram::wheelEvent</title>
<polygon fill="white" stroke="transparent" points="-4,4 -4,-183.5 584,-183.5 584,4 -4,4"/>
<!-- Node1 -->
<g id="node1" class="node">
<title>Node1</title>
<g id="a_node1"><a xlink:title=" ">
<polygon fill="#bfbfbf" stroke="black" points="0,-66.5 0,-96.5 158,-96.5 158,-66.5 0,-66.5"/>
<text text-anchor="start" x="8" y="-84.5" font-family="Helvetica,sans-Serif" font-size="10.00">PerceptualColor::ChromaHue</text>
<text text-anchor="middle" x="79" y="-73.5" font-family="Helvetica,sans-Serif" font-size="10.00">Diagram::wheelEvent</text>
</a>
</g>
</g>
<!-- Node2 -->
<g id="node2" class="node">
<title>Node2</title>
<g id="a_node2"><a xlink:href="class_perceptual_color_1_1_chroma_hue_diagram.html#aa447440e88450057faa8bfc5f31dfb46" target="_top" xlink:title="Tests if image coordinates are within the diagram surface.">
<polygon fill="white" stroke="black" points="194,-138 194,-179 395,-179 395,-138 194,-138"/>
<text text-anchor="start" x="202" y="-167" font-family="Helvetica,sans-Serif" font-size="10.00">PerceptualColor::ChromaHue</text>
<text text-anchor="start" x="202" y="-156" font-family="Helvetica,sans-Serif" font-size="10.00">Diagram::areImageCoordinatesWithin</text>
<text text-anchor="middle" x="294.5" y="-145" font-family="Helvetica,sans-Serif" font-size="10.00">DiagramSurface</text>
</a>
</g>
</g>
<!-- Node1&#45;&gt;Node2 -->
<g id="edge1" class="edge">
<title>Node1&#45;&gt;Node2</title>
<path fill="none" stroke="midnightblue" d="M114.08,-96.58C136.56,-106.27 166.77,-118.81 194,-128.5 199.97,-130.62 206.17,-132.73 212.43,-134.78"/>
<polygon fill="midnightblue" stroke="midnightblue" points="211.7,-138.22 222.29,-137.96 213.85,-131.56 211.7,-138.22"/>
</g>
<!-- Node4 -->
<g id="node4" class="node">
<title>Node4</title>
<g id="a_node4"><a xlink:href="class_perceptual_color_1_1_chroma_hue_diagram.html#a443db20bc2c25119febcd61ca9299d21" target="_top" xlink:title="Setter for the color() property.">
<polygon fill="white" stroke="black" points="215.5,-88.5 215.5,-118.5 373.5,-118.5 373.5,-88.5 215.5,-88.5"/>
<text text-anchor="start" x="223.5" y="-106.5" font-family="Helvetica,sans-Serif" font-size="10.00">PerceptualColor::ChromaHue</text>
<text text-anchor="middle" x="294.5" y="-95.5" font-family="Helvetica,sans-Serif" font-size="10.00">Diagram::setColor</text>
</a>
</g>
</g>
<!-- Node1&#45;&gt;Node4 -->
<g id="edge3" class="edge">
<title>Node1&#45;&gt;Node4</title>
<path fill="none" stroke="midnightblue" d="M158.29,-89.57C173.52,-91.14 189.58,-92.79 205.11,-94.39"/>
<polygon fill="midnightblue" stroke="midnightblue" points="204.92,-97.89 215.22,-95.43 205.63,-90.93 204.92,-97.89"/>
</g>
<!-- Node5 -->
<g id="node5" class="node">
<title>Node5</title>
<g id="a_node5"><a xlink:href="class_perceptual_color_1_1_full_color_description.html#acdbff4639f8a118f0d13a831a4b57ffe" target="_top" xlink:title=" ">
<polygon fill="white" stroke="black" points="434,-66.5 434,-96.5 577,-96.5 577,-66.5 434,-66.5"/>
<text text-anchor="start" x="442" y="-84.5" font-family="Helvetica,sans-Serif" font-size="10.00">PerceptualColor::FullColor</text>
<text text-anchor="middle" x="505.5" y="-73.5" font-family="Helvetica,sans-Serif" font-size="10.00">Description::toLch</text>
</a>
</g>
</g>
<!-- Node1&#45;&gt;Node5 -->
<g id="edge6" class="edge">
<title>Node1&#45;&gt;Node5</title>
<path fill="none" stroke="midnightblue" d="M158.18,-79.17C170.18,-78.89 182.42,-78.65 194,-78.5 283.33,-77.32 305.68,-77.28 395,-78.5 404.31,-78.63 414.07,-78.82 423.77,-79.04"/>
<polygon fill="midnightblue" stroke="midnightblue" points="423.74,-82.54 433.82,-79.28 423.91,-75.54 423.74,-82.54"/>
</g>
<!-- Node6 -->
<g id="node6" class="node">
<title>Node6</title>
<g id="a_node6"><a xlink:href="namespace_perceptual_color_1_1_helper.html#a38f2fafe1c8902cdf2aa059f62396986" target="_top" xlink:title="Number of vertical standard wheel steps done by a wheel event.">
<polygon fill="white" stroke="black" points="228.5,-0.5 228.5,-30.5 360.5,-30.5 360.5,-0.5 228.5,-0.5"/>
<text text-anchor="start" x="236.5" y="-18.5" font-family="Helvetica,sans-Serif" font-size="10.00">PerceptualColor::Helper</text>
<text text-anchor="middle" x="294.5" y="-7.5" font-family="Helvetica,sans-Serif" font-size="10.00">::standardWheelSteps</text>
</a>
</g>
</g>
<!-- Node1&#45;&gt;Node6 -->
<g id="edge5" class="edge">
<title>Node1&#45;&gt;Node6</title>
<path fill="none" stroke="midnightblue" d="M127.1,-66.47C147.63,-59.96 171.99,-52.29 194,-45.5 206.71,-41.58 220.35,-37.43 233.33,-33.5"/>
<polygon fill="midnightblue" stroke="midnightblue" points="234.54,-36.8 243.1,-30.56 232.51,-30.09 234.54,-36.8"/>
</g>
<!-- Node3 -->
<g id="node3" class="node">
<title>Node3</title>
<g id="a_node3"><a xlink:href="class_perceptual_color_1_1_polar_point_f.html#ad9e45debe2dc38bbba834d791336f1fd" target="_top" xlink:title="Normalized radial.">
<polygon fill="white" stroke="black" points="431,-143.5 431,-173.5 580,-173.5 580,-143.5 431,-143.5"/>
<text text-anchor="start" x="439" y="-161.5" font-family="Helvetica,sans-Serif" font-size="10.00">PerceptualColor::PolarPoint</text>
<text text-anchor="middle" x="505.5" y="-150.5" font-family="Helvetica,sans-Serif" font-size="10.00">F::radial</text>
</a>
</g>
</g>
<!-- Node2&#45;&gt;Node3 -->
<g id="edge2" class="edge">
<title>Node2&#45;&gt;Node3</title>
<path fill="none" stroke="midnightblue" d="M395.1,-158.5C403.7,-158.5 412.34,-158.5 420.79,-158.5"/>
<polygon fill="midnightblue" stroke="midnightblue" points="420.99,-162 430.99,-158.5 420.99,-155 420.99,-162"/>
</g>
<!-- Node4&#45;&gt;Node5 -->
<g id="edge4" class="edge">
<title>Node4&#45;&gt;Node5</title>
<path fill="none" stroke="midnightblue" d="M373.62,-95.28C389.94,-93.56 407.19,-91.74 423.61,-90.02"/>
<polygon fill="midnightblue" stroke="midnightblue" points="424.13,-93.48 433.71,-88.95 423.4,-86.52 424.13,-93.48"/>
</g>
</g>
</svg>
