<?xml version="1.0" encoding="UTF-8" standalone="no"?>
<!DOCTYPE svg PUBLIC "-//W3C//DTD SVG 1.1//EN"
 "http://www.w3.org/Graphics/SVG/1.1/DTD/svg11.dtd">
<!-- Generated by graphviz version 2.43.0 (0)
 -->
<!-- Title: PerceptualColor::RgbColorSpace::colorRgbBoundSimple Pages: 1 -->
<svg width="996pt" height="137pt"
 viewBox="0.00 0.00 996.00 137.00" xmlns="http://www.w3.org/2000/svg" xmlns:xlink="http://www.w3.org/1999/xlink">
<g id="graph0" class="graph" transform="scale(1 1) rotate(0) translate(4 133)">
<title>PerceptualColor::RgbColorSpace::colorRgbBoundSimple</title>
<polygon fill="white" stroke="transparent" points="-4,4 -4,-133 992,-133 992,4 -4,4"/>
<!-- Node1 -->
<g id="node1" class="node">
<title>Node1</title>
<g id="a_node1"><a xlink:title=" ">
<polygon fill="#bfbfbf" stroke="black" points="829,-24.5 829,-54.5 988,-54.5 988,-24.5 829,-24.5"/>
<text text-anchor="start" x="837" y="-42.5" font-family="Helvetica,sans-Serif" font-size="10.00">PerceptualColor::RgbColor</text>
<text text-anchor="middle" x="908.5" y="-31.5" font-family="Helvetica,sans-Serif" font-size="10.00">Space::colorRgbBoundSimple</text>
</a>
</g>
</g>
<!-- Node2 -->
<g id="node2" class="node">
<title>Node2</title>
<g id="a_node2"><a xlink:href="class_perceptual_color_1_1_rgb_color_space.html#a597d093bcc9c79444792359569e537b4" target="_top" xlink:title="Calculates the RGB value.">
<polygon fill="white" stroke="black" points="633,-49.5 633,-79.5 777,-79.5 777,-49.5 633,-49.5"/>
<text text-anchor="start" x="641" y="-67.5" font-family="Helvetica,sans-Serif" font-size="10.00">PerceptualColor::RgbColor</text>
<text text-anchor="middle" x="705" y="-56.5" font-family="Helvetica,sans-Serif" font-size="10.00">Space::colorRgbBound</text>
</a>
</g>
</g>
<!-- Node1&#45;&gt;Node2 -->
<g id="edge1" class="edge">
<title>Node1&#45;&gt;Node2</title>
<path fill="none" stroke="midnightblue" d="M818.68,-50.52C804.79,-52.24 790.6,-54 777.17,-55.67"/>
<polygon fill="midnightblue" stroke="midnightblue" points="819.24,-53.98 828.73,-49.27 818.37,-47.03 819.24,-53.98"/>
</g>
<!-- Node7 -->
<g id="node7" class="node">
<title>Node7</title>
<g id="a_node7"><a xlink:href="class_perceptual_color_1_1_full_color_description.html#a7d27cb4b18ebaf0a3d0374201c2d283a" target="_top" xlink:title="Constructor.">
<polygon fill="white" stroke="black" points="617,-0.5 617,-30.5 793,-30.5 793,-0.5 617,-0.5"/>
<text text-anchor="start" x="625" y="-18.5" font-family="Helvetica,sans-Serif" font-size="10.00">PerceptualColor::FullColor</text>
<text text-anchor="middle" x="705" y="-7.5" font-family="Helvetica,sans-Serif" font-size="10.00">Description::FullColorDescription</text>
</a>
</g>
</g>
<!-- Node1&#45;&gt;Node7 -->
<g id="edge7" class="edge">
<title>Node1&#45;&gt;Node7</title>
<path fill="none" stroke="midnightblue" d="M818.77,-28.93C810.23,-27.91 801.58,-26.88 793.05,-25.87"/>
<polygon fill="midnightblue" stroke="midnightblue" points="818.39,-32.41 828.73,-30.12 819.21,-25.46 818.39,-32.41"/>
</g>
<!-- Node3 -->
<g id="node3" class="node">
<title>Node3</title>
<g id="a_node3"><a xlink:href="class_perceptual_color_1_1_rgb_color_space.html#a8e32b4bb53a99edbb7d8f238489b54d4" target="_top" xlink:title="Calculates the RGB value.">
<polygon fill="white" stroke="black" points="418.5,-98.5 418.5,-128.5 562.5,-128.5 562.5,-98.5 418.5,-98.5"/>
<text text-anchor="start" x="426.5" y="-116.5" font-family="Helvetica,sans-Serif" font-size="10.00">PerceptualColor::RgbColor</text>
<text text-anchor="middle" x="490.5" y="-105.5" font-family="Helvetica,sans-Serif" font-size="10.00">Space::colorRgbBound</text>
</a>
</g>
</g>
<!-- Node2&#45;&gt;Node3 -->
<g id="edge2" class="edge">
<title>Node2&#45;&gt;Node3</title>
<path fill="none" stroke="midnightblue" d="M628.84,-81.83C605.25,-87.27 579.41,-93.23 556.58,-98.49"/>
<polygon fill="midnightblue" stroke="midnightblue" points="629.84,-85.19 638.8,-79.53 628.27,-78.37 629.84,-85.19"/>
</g>
<!-- Node4 -->
<g id="node4" class="node">
<title>Node4</title>
<g id="a_node4"><a xlink:href="class_perceptual_color_1_1_chroma_hue_diagram.html#adc53e31427f7c15d0aedc521aea5edd7" target="_top" xlink:title="in image of a&#45;b plane of the color space at a given lightness">
<polygon fill="white" stroke="black" points="400,-49.5 400,-79.5 581,-79.5 581,-49.5 400,-49.5"/>
<text text-anchor="start" x="408" y="-67.5" font-family="Helvetica,sans-Serif" font-size="10.00">PerceptualColor::ChromaHue</text>
<text text-anchor="middle" x="490.5" y="-56.5" font-family="Helvetica,sans-Serif" font-size="10.00">Diagram::generateDiagramImage</text>
</a>
</g>
</g>
<!-- Node2&#45;&gt;Node4 -->
<g id="edge3" class="edge">
<title>Node2&#45;&gt;Node4</title>
<path fill="none" stroke="midnightblue" d="M622.65,-64.5C609.03,-64.5 594.82,-64.5 581,-64.5"/>
<polygon fill="midnightblue" stroke="midnightblue" points="622.95,-68 632.95,-64.5 622.95,-61 622.95,-68"/>
</g>
<!-- Node6 -->
<g id="node6" class="node">
<title>Node6</title>
<g id="a_node6"><a xlink:href="class_perceptual_color_1_1_chroma_hue_diagram.html#ad7709d55647d4a6842f34a5dd10cb2a9" target="_top" xlink:title="Paint the widget.">
<polygon fill="white" stroke="black" points="0,-27.5 0,-57.5 158,-57.5 158,-27.5 0,-27.5"/>
<text text-anchor="start" x="8" y="-45.5" font-family="Helvetica,sans-Serif" font-size="10.00">PerceptualColor::ChromaHue</text>
<text text-anchor="middle" x="79" y="-34.5" font-family="Helvetica,sans-Serif" font-size="10.00">Diagram::paintEvent</text>
</a>
</g>
</g>
<!-- Node2&#45;&gt;Node6 -->
<g id="edge6" class="edge">
<title>Node2&#45;&gt;Node6</title>
<path fill="none" stroke="midnightblue" d="M632.19,-47.39C615.48,-44.11 597.7,-41.18 581,-39.5 432.14,-24.53 257.15,-31.03 158.34,-36.91"/>
<polygon fill="midnightblue" stroke="midnightblue" points="631.93,-50.91 642.43,-49.47 633.32,-44.05 631.93,-50.91"/>
</g>
<!-- Node5 -->
<g id="node5" class="node">
<title>Node5</title>
<g id="a_node5"><a xlink:href="class_perceptual_color_1_1_chroma_hue_diagram.html#a1ffe1f34cd9e77800b8836e9383e0fd6" target="_top" xlink:title="Refresh the diagram and associated data.">
<polygon fill="white" stroke="black" points="194,-49.5 194,-79.5 364,-79.5 364,-49.5 194,-49.5"/>
<text text-anchor="start" x="202" y="-67.5" font-family="Helvetica,sans-Serif" font-size="10.00">PerceptualColor::ChromaHue</text>
<text text-anchor="middle" x="279" y="-56.5" font-family="Helvetica,sans-Serif" font-size="10.00">Diagram::updateDiagramCache</text>
</a>
</g>
</g>
<!-- Node4&#45;&gt;Node5 -->
<g id="edge4" class="edge">
<title>Node4&#45;&gt;Node5</title>
<path fill="none" stroke="midnightblue" d="M389.48,-64.5C381.04,-64.5 372.56,-64.5 364.26,-64.5"/>
<polygon fill="midnightblue" stroke="midnightblue" points="389.74,-68 399.74,-64.5 389.74,-61 389.74,-68"/>
</g>
<!-- Node5&#45;&gt;Node6 -->
<g id="edge5" class="edge">
<title>Node5&#45;&gt;Node6</title>
<path fill="none" stroke="midnightblue" d="M183.74,-54.03C175.19,-53.08 166.6,-52.12 158.21,-51.19"/>
<polygon fill="midnightblue" stroke="midnightblue" points="183.42,-57.51 193.74,-55.14 184.19,-50.56 183.42,-57.51"/>
</g>
</g>
</svg>
