<?xml version="1.0" encoding="UTF-8" standalone="no"?>
<!DOCTYPE svg PUBLIC "-//W3C//DTD SVG 1.1//EN"
 "http://www.w3.org/Graphics/SVG/1.1/DTD/svg11.dtd">
<!-- Generated by graphviz version 2.43.0 (0)
 -->
<!-- Title: PerceptualColor::ChromaLightnessDiagram::colorChanged Pages: 1 -->
<svg width="1628pt" height="366pt"
 viewBox="0.00 0.00 1628.00 366.12" xmlns="http://www.w3.org/2000/svg" xmlns:xlink="http://www.w3.org/1999/xlink">
<g id="graph0" class="graph" transform="scale(1 1) rotate(0) translate(4 362.12)">
<title>PerceptualColor::ChromaLightnessDiagram::colorChanged</title>
<polygon fill="white" stroke="transparent" points="-4,4 -4,-362.12 1624,-362.12 1624,4 -4,4"/>
<!-- Node1 -->
<g id="node1" class="node">
<title>Node1</title>
<g id="a_node1"><a xlink:title="Signal for color() property.">
<polygon fill="#bfbfbf" stroke="black" points="1435,-67.62 1435,-97.62 1620,-97.62 1620,-67.62 1435,-67.62"/>
<text text-anchor="start" x="1443" y="-85.62" font-family="Helvetica,sans-Serif" font-size="10.00">PerceptualColor::ChromaLightness</text>
<text text-anchor="middle" x="1527.5" y="-74.62" font-family="Helvetica,sans-Serif" font-size="10.00">Diagram::colorChanged</text>
</a>
</g>
</g>
<!-- Node2 -->
<g id="node2" class="node">
<title>Node2</title>
<g id="a_node2"><a xlink:href="class_perceptual_color_1_1_chroma_lightness_diagram.html#a27d7c972e420480674da1a0fae0b10b3" target="_top" xlink:title="Setter for the color() property.">
<polygon fill="white" stroke="black" points="1214,-113.62 1214,-143.62 1399,-143.62 1399,-113.62 1214,-113.62"/>
<text text-anchor="start" x="1222" y="-131.62" font-family="Helvetica,sans-Serif" font-size="10.00">PerceptualColor::ChromaLightness</text>
<text text-anchor="middle" x="1306.5" y="-120.62" font-family="Helvetica,sans-Serif" font-size="10.00">Diagram::setColor</text>
</a>
</g>
</g>
<!-- Node1&#45;&gt;Node2 -->
<g id="edge1" class="edge">
<title>Node1&#45;&gt;Node2</title>
<path fill="none" stroke="midnightblue" d="M1444.96,-99.75C1423.3,-104.3 1400.08,-109.18 1379,-113.6"/>
<polygon fill="midnightblue" stroke="midnightblue" points="1445.72,-103.16 1454.79,-97.68 1444.29,-96.31 1445.72,-103.16"/>
</g>
<!-- Node17 -->
<g id="node17" class="node">
<title>Node17</title>
<g id="a_node17"><a xlink:href="class_perceptual_color_1_1_wheel_color_picker.html#a44595e05acd7bf6ad716242f987507da" target="_top" xlink:title="Constructor.">
<polygon fill="white" stroke="black" points="786.5,-67.62 786.5,-97.62 942.5,-97.62 942.5,-67.62 786.5,-67.62"/>
<text text-anchor="start" x="794.5" y="-85.62" font-family="Helvetica,sans-Serif" font-size="10.00">PerceptualColor::WheelColor</text>
<text text-anchor="middle" x="864.5" y="-74.62" font-family="Helvetica,sans-Serif" font-size="10.00">Picker::WheelColorPicker</text>
</a>
</g>
</g>
<!-- Node1&#45;&gt;Node17 -->
<g id="edge29" class="edge">
<title>Node1&#45;&gt;Node17</title>
<path fill="none" stroke="midnightblue" d="M1424.75,-81C1317.4,-79.53 1143.28,-77.85 993,-79.62 976.73,-79.81 959.29,-80.14 942.69,-80.51"/>
<polygon fill="midnightblue" stroke="midnightblue" points="1424.88,-84.5 1434.93,-81.14 1424.98,-77.5 1424.88,-84.5"/>
</g>
<!-- Node3 -->
<g id="node3" class="node">
<title>Node3</title>
<g id="a_node3"><a xlink:href="class_perceptual_color_1_1_wheel_color_picker.html#a5f3a58bb672323221c98c2285404bf76" target="_top" xlink:title="Setter for currentColorRgb() property.">
<polygon fill="white" stroke="black" points="1007.5,-138.62 1007.5,-168.62 1163.5,-168.62 1163.5,-138.62 1007.5,-138.62"/>
<text text-anchor="start" x="1015.5" y="-156.62" font-family="Helvetica,sans-Serif" font-size="10.00">PerceptualColor::WheelColor</text>
<text text-anchor="middle" x="1085.5" y="-145.62" font-family="Helvetica,sans-Serif" font-size="10.00">Picker::setCurrentColor</text>
</a>
</g>
</g>
<!-- Node2&#45;&gt;Node3 -->
<g id="edge2" class="edge">
<title>Node2&#45;&gt;Node3</title>
<path fill="none" stroke="midnightblue" d="M1203.62,-140.25C1190.13,-141.79 1176.49,-143.35 1163.51,-144.83"/>
<polygon fill="midnightblue" stroke="midnightblue" points="1204.35,-143.69 1213.89,-139.08 1203.56,-136.74 1204.35,-143.69"/>
</g>
<!-- Node16 -->
<g id="node16" class="node">
<title>Node16</title>
<g id="a_node16"><a xlink:href="class_perceptual_color_1_1_chroma_lightness_diagram.html#ab46f7c4b9bb12ba3511c29372a25c9f8" target="_top" xlink:title="Set the hue.">
<polygon fill="white" stroke="black" points="993,-89.62 993,-119.62 1178,-119.62 1178,-89.62 993,-89.62"/>
<text text-anchor="start" x="1001" y="-107.62" font-family="Helvetica,sans-Serif" font-size="10.00">PerceptualColor::ChromaLightness</text>
<text text-anchor="middle" x="1085.5" y="-96.62" font-family="Helvetica,sans-Serif" font-size="10.00">Diagram::setHue</text>
</a>
</g>
</g>
<!-- Node2&#45;&gt;Node16 -->
<g id="edge22" class="edge">
<title>Node2&#45;&gt;Node16</title>
<path fill="none" stroke="midnightblue" d="M1203.85,-117.48C1195.26,-116.54 1186.6,-115.59 1178.09,-114.66"/>
<polygon fill="midnightblue" stroke="midnightblue" points="1203.57,-120.97 1213.89,-118.58 1204.33,-114.01 1203.57,-120.97"/>
</g>
<!-- Node18 -->
<g id="node18" class="node">
<title>Node18</title>
<g id="a_node18"><a xlink:href="class_perceptual_color_1_1_chroma_lightness_diagram.html#ac9b6d25ecc2c6a954f1ba361960458b1" target="_top" xlink:title=" ">
<polygon fill="white" stroke="black" points="993,-225.62 993,-255.62 1178,-255.62 1178,-225.62 993,-225.62"/>
<text text-anchor="start" x="1001" y="-243.62" font-family="Helvetica,sans-Serif" font-size="10.00">PerceptualColor::ChromaLightness</text>
<text text-anchor="middle" x="1085.5" y="-232.62" font-family="Helvetica,sans-Serif" font-size="10.00">Diagram::setImageCoordinates</text>
</a>
</g>
</g>
<!-- Node2&#45;&gt;Node18 -->
<g id="edge24" class="edge">
<title>Node2&#45;&gt;Node18</title>
<path fill="none" stroke="midnightblue" d="M1266.91,-148.36C1223.78,-170.41 1154.9,-205.64 1115.92,-225.58"/>
<polygon fill="midnightblue" stroke="midnightblue" points="1268.66,-151.4 1275.96,-143.73 1265.47,-145.16 1268.66,-151.4"/>
</g>
<!-- Node4 -->
<g id="node4" class="node">
<title>Node4</title>
<g id="a_node4"><a xlink:href="class_perceptual_color_1_1_color_dialog.html#abd0da334b7034a67a3cc83bc3ed0a425" target="_top" xlink:title="Updates m_currentOpaqueColor and all affected widgets.">
<polygon fill="white" stroke="black" points="786,-127.62 786,-157.62 943,-157.62 943,-127.62 786,-127.62"/>
<text text-anchor="start" x="794" y="-145.62" font-family="Helvetica,sans-Serif" font-size="10.00">PerceptualColor::ColorDialog</text>
<text text-anchor="middle" x="864.5" y="-134.62" font-family="Helvetica,sans-Serif" font-size="10.00">::setCurrentOpaqueColor</text>
</a>
</g>
</g>
<!-- Node3&#45;&gt;Node4 -->
<g id="edge3" class="edge">
<title>Node3&#45;&gt;Node4</title>
<path fill="none" stroke="midnightblue" d="M996.92,-149.22C979.13,-148.33 960.54,-147.39 943.12,-146.52"/>
<polygon fill="midnightblue" stroke="midnightblue" points="997.13,-152.74 1007.29,-149.74 997.48,-145.75 997.13,-152.74"/>
</g>
<!-- Node5 -->
<g id="node5" class="node">
<title>Node5</title>
<g id="a_node5"><a xlink:href="class_perceptual_color_1_1_color_dialog.html#ad31fb985e1323cdf1208c91f16fe2a51" target="_top" xlink:title="Basic initialization.">
<polygon fill="white" stroke="black" points="193,-163.62 193,-193.62 350,-193.62 350,-163.62 193,-163.62"/>
<text text-anchor="start" x="201" y="-181.62" font-family="Helvetica,sans-Serif" font-size="10.00">PerceptualColor::ColorDialog</text>
<text text-anchor="middle" x="271.5" y="-170.62" font-family="Helvetica,sans-Serif" font-size="10.00">::initialize</text>
</a>
</g>
</g>
<!-- Node4&#45;&gt;Node5 -->
<g id="edge4" class="edge">
<title>Node4&#45;&gt;Node5</title>
<path fill="none" stroke="midnightblue" d="M781.72,-159.44C766.57,-162.15 750.84,-164.69 736,-166.62 601.3,-184.13 442.78,-183.77 350.38,-181.49"/>
<polygon fill="midnightblue" stroke="midnightblue" points="782.37,-162.88 791.58,-157.64 781.11,-155.99 782.37,-162.88"/>
</g>
<!-- Node7 -->
<g id="node7" class="node">
<title>Node7</title>
<g id="a_node7"><a xlink:href="class_perceptual_color_1_1_color_dialog.html#adf67594f0cb9416b245d6cf726f18bf4" target="_top" xlink:title="Reads the HLC numbers in the dialog and updates the dialog accordingly.">
<polygon fill="white" stroke="black" points="579,-127.62 579,-157.62 736,-157.62 736,-127.62 579,-127.62"/>
<text text-anchor="start" x="587" y="-145.62" font-family="Helvetica,sans-Serif" font-size="10.00">PerceptualColor::ColorDialog</text>
<text text-anchor="middle" x="657.5" y="-134.62" font-family="Helvetica,sans-Serif" font-size="10.00">::readHlcNumericValues</text>
</a>
</g>
</g>
<!-- Node4&#45;&gt;Node7 -->
<g id="edge6" class="edge">
<title>Node4&#45;&gt;Node7</title>
<path fill="none" stroke="midnightblue" d="M775.95,-142.62C762.71,-142.62 749.13,-142.62 736.11,-142.62"/>
<polygon fill="midnightblue" stroke="midnightblue" points="776,-146.12 786,-142.62 776,-139.12 776,-146.12"/>
</g>
<!-- Node9 -->
<g id="node9" class="node">
<title>Node9</title>
<g id="a_node9"><a xlink:href="class_perceptual_color_1_1_color_dialog.html#a2a48f4c33652bc9a1a0cb22fd0a6b221" target="_top" xlink:title="Reads the value from the lightness selector in the dialog and updates the dialog accordingly.">
<polygon fill="white" stroke="black" points="579,-71.62 579,-101.62 736,-101.62 736,-71.62 579,-71.62"/>
<text text-anchor="start" x="587" y="-89.62" font-family="Helvetica,sans-Serif" font-size="10.00">PerceptualColor::ColorDialog</text>
<text text-anchor="middle" x="657.5" y="-78.62" font-family="Helvetica,sans-Serif" font-size="10.00">::readLightnessValue</text>
</a>
</g>
</g>
<!-- Node4&#45;&gt;Node9 -->
<g id="edge10" class="edge">
<title>Node4&#45;&gt;Node9</title>
<path fill="none" stroke="midnightblue" d="M798.69,-124.92C771.33,-117.44 739.8,-108.83 713.59,-101.67"/>
<polygon fill="midnightblue" stroke="midnightblue" points="797.99,-128.36 808.56,-127.61 799.84,-121.6 797.99,-128.36"/>
</g>
<!-- Node10 -->
<g id="node10" class="node">
<title>Node10</title>
<g id="a_node10"><a xlink:href="class_perceptual_color_1_1_color_dialog.html#a64b6c698ebfaf2461c513ebbb7ef2637" target="_top" xlink:title="Setter for currentColor property.">
<polygon fill="white" stroke="black" points="579,-15.62 579,-45.62 736,-45.62 736,-15.62 579,-15.62"/>
<text text-anchor="start" x="587" y="-33.62" font-family="Helvetica,sans-Serif" font-size="10.00">PerceptualColor::ColorDialog</text>
<text text-anchor="middle" x="657.5" y="-22.62" font-family="Helvetica,sans-Serif" font-size="10.00">::setCurrentColor</text>
</a>
</g>
</g>
<!-- Node4&#45;&gt;Node10 -->
<g id="edge12" class="edge">
<title>Node4&#45;&gt;Node10</title>
<path fill="none" stroke="midnightblue" d="M802.34,-123.73C791.71,-119.03 781.14,-113.36 772,-106.62 751.39,-91.42 756.57,-76.88 736,-61.62 727.39,-55.23 717.28,-49.95 707.26,-45.66"/>
<polygon fill="midnightblue" stroke="midnightblue" points="801.09,-127 811.67,-127.61 803.78,-120.53 801.09,-127"/>
</g>
<!-- Node12 -->
<g id="node12" class="node">
<title>Node12</title>
<g id="a_node12"><a xlink:href="class_perceptual_color_1_1_color_dialog.html#acf0e7b1b619cee3fc7f5a992e2c93e7d" target="_top" xlink:title="Convenience version of setCurrentOpaqueColor(), accepting QColor.">
<polygon fill="white" stroke="black" points="579,-253.62 579,-283.62 736,-283.62 736,-253.62 579,-253.62"/>
<text text-anchor="start" x="587" y="-271.62" font-family="Helvetica,sans-Serif" font-size="10.00">PerceptualColor::ColorDialog</text>
<text text-anchor="middle" x="657.5" y="-260.62" font-family="Helvetica,sans-Serif" font-size="10.00">::setCurrentOpaqueQColor</text>
</a>
</g>
</g>
<!-- Node4&#45;&gt;Node12 -->
<g id="edge15" class="edge">
<title>Node4&#45;&gt;Node12</title>
<path fill="none" stroke="midnightblue" d="M779.11,-162.3C776.66,-163.65 774.28,-165.08 772,-166.62 749.87,-181.5 755.18,-196.1 736,-214.62 720.43,-229.66 700.31,-243.54 684.47,-253.47"/>
<polygon fill="midnightblue" stroke="midnightblue" points="780.82,-165.36 788.25,-157.82 777.73,-159.08 780.82,-165.36"/>
</g>
<!-- Node6 -->
<g id="node6" class="node">
<title>Node6</title>
<g id="a_node6"><a xlink:href="class_perceptual_color_1_1_color_dialog.html#a3c1ad1040ede00087aa11fab1514a6e7" target="_top" xlink:title="Constructor.">
<polygon fill="white" stroke="black" points="0,-56.62 0,-86.62 157,-86.62 157,-56.62 0,-56.62"/>
<text text-anchor="start" x="8" y="-74.62" font-family="Helvetica,sans-Serif" font-size="10.00">PerceptualColor::ColorDialog</text>
<text text-anchor="middle" x="78.5" y="-63.62" font-family="Helvetica,sans-Serif" font-size="10.00">::ColorDialog</text>
</a>
</g>
</g>
<!-- Node5&#45;&gt;Node6 -->
<g id="edge5" class="edge">
<title>Node5&#45;&gt;Node6</title>
<path fill="none" stroke="midnightblue" d="M234.52,-158.46C197.23,-137.58 139.82,-105.41 106.32,-86.65"/>
<polygon fill="midnightblue" stroke="midnightblue" points="233.1,-161.68 243.54,-163.52 236.53,-155.58 233.1,-161.68"/>
</g>
<!-- Node7&#45;&gt;Node5 -->
<g id="edge9" class="edge">
<title>Node7&#45;&gt;Node5</title>
<path fill="none" stroke="midnightblue" d="M568.69,-128.67C515.36,-122.75 446.2,-119.65 386,-131.62 355.46,-137.69 322.84,-152.13 300.44,-163.41"/>
<polygon fill="midnightblue" stroke="midnightblue" points="568.46,-132.16 578.79,-129.84 569.27,-125.21 568.46,-132.16"/>
</g>
<!-- Node8 -->
<g id="node8" class="node">
<title>Node8</title>
<g id="a_node8"><a xlink:href="class_perceptual_color_1_1_color_dialog.html#a64f6d0e30a627458ccb7bbf4a77ad42b" target="_top" xlink:title="React on focus changes.">
<polygon fill="white" stroke="black" points="386,-141.62 386,-171.62 543,-171.62 543,-141.62 386,-141.62"/>
<text text-anchor="start" x="394" y="-159.62" font-family="Helvetica,sans-Serif" font-size="10.00">PerceptualColor::ColorDialog</text>
<text text-anchor="middle" x="464.5" y="-148.62" font-family="Helvetica,sans-Serif" font-size="10.00">::handleFocusChange</text>
</a>
</g>
</g>
<!-- Node7&#45;&gt;Node8 -->
<g id="edge7" class="edge">
<title>Node7&#45;&gt;Node8</title>
<path fill="none" stroke="midnightblue" d="M568.81,-149.05C560.24,-149.68 551.58,-150.31 543.12,-150.93"/>
<polygon fill="midnightblue" stroke="midnightblue" points="569.1,-152.54 578.81,-148.32 568.58,-145.56 569.1,-152.54"/>
</g>
<!-- Node8&#45;&gt;Node5 -->
<g id="edge8" class="edge">
<title>Node8&#45;&gt;Node5</title>
<path fill="none" stroke="midnightblue" d="M375.81,-166.72C367.24,-167.71 358.58,-168.71 350.12,-169.68"/>
<polygon fill="midnightblue" stroke="midnightblue" points="376.28,-170.19 385.81,-165.57 375.48,-163.24 376.28,-170.19"/>
</g>
<!-- Node9&#45;&gt;Node5 -->
<g id="edge11" class="edge">
<title>Node9&#45;&gt;Node5</title>
<path fill="none" stroke="midnightblue" d="M568.7,-89.4C514.95,-93.04 445.33,-101.24 386,-119.62 352.69,-129.94 317.55,-149.79 295.35,-163.6"/>
<polygon fill="midnightblue" stroke="midnightblue" points="569.13,-92.88 578.89,-88.75 568.69,-85.89 569.13,-92.88"/>
</g>
<!-- Node10&#45;&gt;Node6 -->
<g id="edge13" class="edge">
<title>Node10&#45;&gt;Node6</title>
<path fill="none" stroke="midnightblue" d="M589.85,-13.42C574.56,-10.18 558.3,-7.29 543,-5.62 473.63,1.93 455.39,1.76 386,-5.62 295.88,-15.21 193.33,-40.25 132.65,-56.58"/>
<polygon fill="midnightblue" stroke="midnightblue" points="589.22,-16.87 599.74,-15.59 590.73,-10.03 589.22,-16.87"/>
</g>
<!-- Node11 -->
<g id="node11" class="node">
<title>Node11</title>
<g id="a_node11"><a xlink:href="class_perceptual_color_1_1_color_dialog.html#a08677555088721a366cc839a90b5eea2" target="_top" xlink:title="Pops up a modal color dialog, lets the user choose a color, and returns that color.">
<polygon fill="white" stroke="black" points="386,-15.62 386,-45.62 543,-45.62 543,-15.62 386,-15.62"/>
<text text-anchor="start" x="394" y="-33.62" font-family="Helvetica,sans-Serif" font-size="10.00">PerceptualColor::ColorDialog</text>
<text text-anchor="middle" x="464.5" y="-22.62" font-family="Helvetica,sans-Serif" font-size="10.00">::getColor</text>
</a>
</g>
</g>
<!-- Node10&#45;&gt;Node11 -->
<g id="edge14" class="edge">
<title>Node10&#45;&gt;Node11</title>
<path fill="none" stroke="midnightblue" d="M568.81,-30.62C560.24,-30.62 551.58,-30.62 543.12,-30.62"/>
<polygon fill="midnightblue" stroke="midnightblue" points="568.81,-34.12 578.81,-30.62 568.81,-27.12 568.81,-34.12"/>
</g>
<!-- Node13 -->
<g id="node13" class="node">
<title>Node13</title>
<g id="a_node13"><a xlink:href="class_perceptual_color_1_1_color_dialog.html#ad834c4b1975dd4b226a054497bd1ef47" target="_top" xlink:title="Reads the HSV numbers in the dialog and updates the dialog accordingly.">
<polygon fill="white" stroke="black" points="386,-229.62 386,-259.62 543,-259.62 543,-229.62 386,-229.62"/>
<text text-anchor="start" x="394" y="-247.62" font-family="Helvetica,sans-Serif" font-size="10.00">PerceptualColor::ColorDialog</text>
<text text-anchor="middle" x="464.5" y="-236.62" font-family="Helvetica,sans-Serif" font-size="10.00">::readHsvNumericValues</text>
</a>
</g>
</g>
<!-- Node12&#45;&gt;Node13 -->
<g id="edge16" class="edge">
<title>Node12&#45;&gt;Node13</title>
<path fill="none" stroke="midnightblue" d="M568.81,-257.6C560.24,-256.52 551.58,-255.44 543.12,-254.37"/>
<polygon fill="midnightblue" stroke="midnightblue" points="568.45,-261.09 578.81,-258.86 569.33,-254.14 568.45,-261.09"/>
</g>
<!-- Node14 -->
<g id="node14" class="node">
<title>Node14</title>
<g id="a_node14"><a xlink:href="class_perceptual_color_1_1_color_dialog.html#a4554999f424ac055986478fe8c899ae1" target="_top" xlink:title="Reads the hexadecimal RGB numbers in the dialog and updates the dialog accordingly.">
<polygon fill="white" stroke="black" points="386,-327.62 386,-357.62 543,-357.62 543,-327.62 386,-327.62"/>
<text text-anchor="start" x="394" y="-345.62" font-family="Helvetica,sans-Serif" font-size="10.00">PerceptualColor::ColorDialog</text>
<text text-anchor="middle" x="464.5" y="-334.62" font-family="Helvetica,sans-Serif" font-size="10.00">::readRgbHexValues</text>
</a>
</g>
</g>
<!-- Node12&#45;&gt;Node14 -->
<g id="edge18" class="edge">
<title>Node12&#45;&gt;Node14</title>
<path fill="none" stroke="midnightblue" d="M615.5,-288.04C594.13,-297.82 567.42,-309.49 543,-318.62 534.69,-321.73 525.77,-324.76 517.06,-327.56"/>
<polygon fill="midnightblue" stroke="midnightblue" points="617,-291.21 624.62,-283.84 614.07,-284.85 617,-291.21"/>
</g>
<!-- Node15 -->
<g id="node15" class="node">
<title>Node15</title>
<g id="a_node15"><a xlink:href="class_perceptual_color_1_1_color_dialog.html#a9bb8f87d25714fc283fdda98424030fe" target="_top" xlink:title="Reads the decimal RGB numbers in the dialog and updates the dialog accordingly.">
<polygon fill="white" stroke="black" points="386,-278.62 386,-308.62 543,-308.62 543,-278.62 386,-278.62"/>
<text text-anchor="start" x="394" y="-296.62" font-family="Helvetica,sans-Serif" font-size="10.00">PerceptualColor::ColorDialog</text>
<text text-anchor="middle" x="464.5" y="-285.62" font-family="Helvetica,sans-Serif" font-size="10.00">::readRgbNumericValues</text>
</a>
</g>
</g>
<!-- Node12&#45;&gt;Node15 -->
<g id="edge20" class="edge">
<title>Node12&#45;&gt;Node15</title>
<path fill="none" stroke="midnightblue" d="M568.81,-280.1C560.24,-281.22 551.58,-282.35 543.12,-283.46"/>
<polygon fill="midnightblue" stroke="midnightblue" points="569.35,-283.56 578.81,-278.79 568.44,-276.62 569.35,-283.56"/>
</g>
<!-- Node13&#45;&gt;Node5 -->
<g id="edge17" class="edge">
<title>Node13&#45;&gt;Node5</title>
<path fill="none" stroke="midnightblue" d="M409.92,-226.11C380.3,-215.87 343.98,-203.32 316.12,-193.69"/>
<polygon fill="midnightblue" stroke="midnightblue" points="409.09,-229.52 419.68,-229.48 411.37,-222.91 409.09,-229.52"/>
</g>
<!-- Node14&#45;&gt;Node5 -->
<g id="edge19" class="edge">
<title>Node14&#45;&gt;Node5</title>
<path fill="none" stroke="midnightblue" d="M393.1,-322.96C390.65,-321.6 388.27,-320.16 386,-318.62 335.99,-284.78 296.87,-222.39 280.65,-193.73"/>
<polygon fill="midnightblue" stroke="midnightblue" points="391.73,-326.18 402.24,-327.47 394.83,-319.91 391.73,-326.18"/>
</g>
<!-- Node15&#45;&gt;Node5 -->
<g id="edge21" class="edge">
<title>Node15&#45;&gt;Node5</title>
<path fill="none" stroke="midnightblue" d="M396.82,-274.8C393.1,-273.19 389.47,-271.46 386,-269.62 346.96,-248.9 308.26,-213.98 287.67,-193.96"/>
<polygon fill="midnightblue" stroke="midnightblue" points="395.62,-278.09 406.21,-278.58 398.24,-271.6 395.62,-278.09"/>
</g>
<!-- Node16&#45;&gt;Node17 -->
<g id="edge23" class="edge">
<title>Node16&#45;&gt;Node17</title>
<path fill="none" stroke="midnightblue" d="M982.62,-94.39C969.13,-93.03 955.49,-91.66 942.51,-90.36"/>
<polygon fill="midnightblue" stroke="midnightblue" points="982.59,-97.9 992.89,-95.42 983.29,-90.94 982.59,-97.9"/>
</g>
<!-- Node19 -->
<g id="node19" class="node">
<title>Node19</title>
<g id="a_node19"><a xlink:href="class_perceptual_color_1_1_chroma_lightness_diagram.html#abd23775803f181201fefbdcc08378ab8" target="_top" xlink:title="React on key press events.">
<polygon fill="white" stroke="black" points="772,-225.62 772,-255.62 957,-255.62 957,-225.62 772,-225.62"/>
<text text-anchor="start" x="780" y="-243.62" font-family="Helvetica,sans-Serif" font-size="10.00">PerceptualColor::ChromaLightness</text>
<text text-anchor="middle" x="864.5" y="-232.62" font-family="Helvetica,sans-Serif" font-size="10.00">Diagram::keyPressEvent</text>
</a>
</g>
</g>
<!-- Node18&#45;&gt;Node19 -->
<g id="edge25" class="edge">
<title>Node18&#45;&gt;Node19</title>
<path fill="none" stroke="midnightblue" d="M982.85,-240.62C974.26,-240.62 965.6,-240.62 957.09,-240.62"/>
<polygon fill="midnightblue" stroke="midnightblue" points="982.89,-244.12 992.89,-240.62 982.89,-237.12 982.89,-244.12"/>
</g>
<!-- Node20 -->
<g id="node20" class="node">
<title>Node20</title>
<g id="a_node20"><a xlink:href="class_perceptual_color_1_1_chroma_lightness_diagram.html#a1697a065cdb13e6a5b8af378673c77f3" target="_top" xlink:title="React on a mouse move event.">
<polygon fill="white" stroke="black" points="772,-176.62 772,-206.62 957,-206.62 957,-176.62 772,-176.62"/>
<text text-anchor="start" x="780" y="-194.62" font-family="Helvetica,sans-Serif" font-size="10.00">PerceptualColor::ChromaLightness</text>
<text text-anchor="middle" x="864.5" y="-183.62" font-family="Helvetica,sans-Serif" font-size="10.00">Diagram::mouseMoveEvent</text>
</a>
</g>
</g>
<!-- Node18&#45;&gt;Node20 -->
<g id="edge26" class="edge">
<title>Node18&#45;&gt;Node20</title>
<path fill="none" stroke="midnightblue" d="M1007.37,-223.36C982.96,-217.9 956.21,-211.92 932.57,-206.63"/>
<polygon fill="midnightblue" stroke="midnightblue" points="1006.78,-226.82 1017.3,-225.59 1008.31,-219.99 1006.78,-226.82"/>
</g>
<!-- Node21 -->
<g id="node21" class="node">
<title>Node21</title>
<g id="a_node21"><a xlink:href="class_perceptual_color_1_1_chroma_lightness_diagram.html#aa0aa6d31cefd3b9dfbfe9acfcac18e3d" target="_top" xlink:title="React on a mouse press event.">
<polygon fill="white" stroke="black" points="772,-323.62 772,-353.62 957,-353.62 957,-323.62 772,-323.62"/>
<text text-anchor="start" x="780" y="-341.62" font-family="Helvetica,sans-Serif" font-size="10.00">PerceptualColor::ChromaLightness</text>
<text text-anchor="middle" x="864.5" y="-330.62" font-family="Helvetica,sans-Serif" font-size="10.00">Diagram::mousePressEvent</text>
</a>
</g>
</g>
<!-- Node18&#45;&gt;Node21 -->
<g id="edge27" class="edge">
<title>Node18&#45;&gt;Node21</title>
<path fill="none" stroke="midnightblue" d="M1054.52,-261.14C1029.41,-277.55 992.13,-300.13 957,-314.62 948.95,-317.94 940.32,-320.91 931.68,-323.54"/>
<polygon fill="midnightblue" stroke="midnightblue" points="1056.46,-264.06 1062.87,-255.62 1052.6,-258.22 1056.46,-264.06"/>
</g>
<!-- Node22 -->
<g id="node22" class="node">
<title>Node22</title>
<g id="a_node22"><a xlink:href="class_perceptual_color_1_1_chroma_lightness_diagram.html#a9bd534e0817d1afb0a3674f98919b8db" target="_top" xlink:title="React on a mouse release event.">
<polygon fill="white" stroke="black" points="772,-274.62 772,-304.62 957,-304.62 957,-274.62 772,-274.62"/>
<text text-anchor="start" x="780" y="-292.62" font-family="Helvetica,sans-Serif" font-size="10.00">PerceptualColor::ChromaLightness</text>
<text text-anchor="middle" x="864.5" y="-281.62" font-family="Helvetica,sans-Serif" font-size="10.00">Diagram::mouseReleaseEvent</text>
</a>
</g>
</g>
<!-- Node18&#45;&gt;Node22 -->
<g id="edge28" class="edge">
<title>Node18&#45;&gt;Node22</title>
<path fill="none" stroke="midnightblue" d="M1007.37,-257.88C982.96,-263.34 956.21,-269.33 932.57,-274.61"/>
<polygon fill="midnightblue" stroke="midnightblue" points="1008.31,-261.25 1017.3,-255.66 1006.78,-254.42 1008.31,-261.25"/>
</g>
</g>
</svg>
