<?xml version="1.0" encoding="UTF-8" standalone="no"?>
<!DOCTYPE svg PUBLIC "-//W3C//DTD SVG 1.1//EN"
 "http://www.w3.org/Graphics/SVG/1.1/DTD/svg11.dtd">
<!-- Generated by graphviz version 2.43.0 (0)
 -->
<!-- Title: PerceptualColor::WheelColorPicker::resizeEvent Pages: 1 -->
<svg width="575pt" height="112pt"
 viewBox="0.00 0.00 575.00 112.00" xmlns="http://www.w3.org/2000/svg" xmlns:xlink="http://www.w3.org/1999/xlink">
<g id="graph0" class="graph" transform="scale(1 1) rotate(0) translate(4 108)">
<title>PerceptualColor::WheelColorPicker::resizeEvent</title>
<polygon fill="white" stroke="transparent" points="-4,4 -4,-108 571,-108 571,4 -4,4"/>
<!-- Node1 -->
<g id="node1" class="node">
<title>Node1</title>
<g id="a_node1"><a xlink:title="React on a resive event.">
<polygon fill="#bfbfbf" stroke="black" points="0,-24.5 0,-54.5 156,-54.5 156,-24.5 0,-24.5"/>
<text text-anchor="start" x="8" y="-42.5" font-family="Helvetica,sans-Serif" font-size="10.00">PerceptualColor::WheelColor</text>
<text text-anchor="middle" x="78" y="-31.5" font-family="Helvetica,sans-Serif" font-size="10.00">Picker::resizeEvent</text>
</a>
</g>
</g>
<!-- Node2 -->
<g id="node2" class="node">
<title>Node2</title>
<g id="a_node2"><a xlink:href="class_perceptual_color_1_1_wheel_color_picker.html#aba042e926a0c507c43d0f16afb63cb8e" target="_top" xlink:title="Update the size of the child widget.">
<polygon fill="white" stroke="black" points="193.5,-49.5 193.5,-79.5 349.5,-79.5 349.5,-49.5 193.5,-49.5"/>
<text text-anchor="start" x="201.5" y="-67.5" font-family="Helvetica,sans-Serif" font-size="10.00">PerceptualColor::WheelColor</text>
<text text-anchor="middle" x="271.5" y="-56.5" font-family="Helvetica,sans-Serif" font-size="10.00">Picker::resizeChildWidget</text>
</a>
</g>
</g>
<!-- Node1&#45;&gt;Node2 -->
<g id="edge1" class="edge">
<title>Node1&#45;&gt;Node2</title>
<path fill="none" stroke="midnightblue" d="M156.06,-49.56C164.97,-50.72 174.11,-51.92 183.14,-53.1"/>
<polygon fill="midnightblue" stroke="midnightblue" points="182.91,-56.6 193.28,-54.42 183.82,-49.65 182.91,-56.6"/>
</g>
<!-- Node5 -->
<g id="node5" class="node">
<title>Node5</title>
<g id="a_node5"><a xlink:href="class_perceptual_color_1_1_simple_color_wheel.html#a255c2771e4d7aa494ea827b981d76874" target="_top" xlink:title="React on a resive event.">
<polygon fill="white" stroke="black" points="192,-0.5 192,-30.5 351,-30.5 351,-0.5 192,-0.5"/>
<text text-anchor="start" x="200" y="-18.5" font-family="Helvetica,sans-Serif" font-size="10.00">PerceptualColor::SimpleColor</text>
<text text-anchor="middle" x="271.5" y="-7.5" font-family="Helvetica,sans-Serif" font-size="10.00">Wheel::resizeEvent</text>
</a>
</g>
</g>
<!-- Node1&#45;&gt;Node5 -->
<g id="edge4" class="edge">
<title>Node1&#45;&gt;Node5</title>
<path fill="none" stroke="midnightblue" d="M156.06,-29.84C164.5,-28.78 173.15,-27.7 181.71,-26.63"/>
<polygon fill="midnightblue" stroke="midnightblue" points="182.23,-30.09 191.72,-25.37 181.36,-23.14 182.23,-30.09"/>
</g>
<!-- Node3 -->
<g id="node3" class="node">
<title>Node3</title>
<g id="a_node3"><a xlink:href="class_perceptual_color_1_1_simple_color_wheel.html#a6fe09144d693f81d5c7d8306666bc2aa" target="_top" xlink:title="The diameter of the widget content.">
<polygon fill="white" stroke="black" points="397.5,-73.5 397.5,-103.5 556.5,-103.5 556.5,-73.5 397.5,-73.5"/>
<text text-anchor="start" x="405.5" y="-91.5" font-family="Helvetica,sans-Serif" font-size="10.00">PerceptualColor::SimpleColor</text>
<text text-anchor="middle" x="477" y="-80.5" font-family="Helvetica,sans-Serif" font-size="10.00">Wheel::contentDiameter</text>
</a>
</g>
</g>
<!-- Node2&#45;&gt;Node3 -->
<g id="edge2" class="edge">
<title>Node2&#45;&gt;Node3</title>
<path fill="none" stroke="midnightblue" d="M349.72,-73.61C362.06,-75.06 374.9,-76.58 387.47,-78.06"/>
<polygon fill="midnightblue" stroke="midnightblue" points="387.14,-81.54 397.48,-79.24 387.96,-74.59 387.14,-81.54"/>
</g>
<!-- Node4 -->
<g id="node4" class="node">
<title>Node4</title>
<g id="a_node4"><a xlink:href="class_perceptual_color_1_1_wheel_color_picker.html#a82999bc171a84656147c0b4f332dd38a" target="_top" xlink:title="Scale a rectangle to a given diagonal line length.">
<polygon fill="white" stroke="black" points="387,-24.5 387,-54.5 567,-54.5 567,-24.5 387,-24.5"/>
<text text-anchor="start" x="395" y="-42.5" font-family="Helvetica,sans-Serif" font-size="10.00">PerceptualColor::WheelColor</text>
<text text-anchor="middle" x="477" y="-31.5" font-family="Helvetica,sans-Serif" font-size="10.00">Picker::scaleRectangleToDiagonal</text>
</a>
</g>
</g>
<!-- Node2&#45;&gt;Node4 -->
<g id="edge3" class="edge">
<title>Node2&#45;&gt;Node4</title>
<path fill="none" stroke="midnightblue" d="M349.72,-55.01C358.55,-53.93 367.63,-52.81 376.69,-51.7"/>
<polygon fill="midnightblue" stroke="midnightblue" points="377.39,-55.14 386.89,-50.45 376.54,-48.19 377.39,-55.14"/>
</g>
</g>
</svg>
