<?xml version="1.0" encoding="UTF-8" standalone="no"?>
<!DOCTYPE svg PUBLIC "-//W3C//DTD SVG 1.1//EN"
 "http://www.w3.org/Graphics/SVG/1.1/DTD/svg11.dtd">
<!-- Generated by graphviz version 2.43.0 (0)
 -->
<!-- Title: PerceptualColor::FullColorDescription::moveChromaIntoGamut Pages: 1 -->
<svg width="384pt" height="137pt"
 viewBox="0.00 0.00 384.00 137.00" xmlns="http://www.w3.org/2000/svg" xmlns:xlink="http://www.w3.org/1999/xlink">
<g id="graph0" class="graph" transform="scale(1 1) rotate(0) translate(4 133)">
<title>PerceptualColor::FullColorDescription::moveChromaIntoGamut</title>
<polygon fill="white" stroke="transparent" points="-4,4 -4,-133 380,-133 380,4 -4,4"/>
<!-- Node1 -->
<g id="node1" class="node">
<title>Node1</title>
<g id="a_node1"><a xlink:title=" ">
<polygon fill="#bfbfbf" stroke="black" points="0,-49.5 0,-79.5 196,-79.5 196,-49.5 0,-49.5"/>
<text text-anchor="start" x="8" y="-67.5" font-family="Helvetica,sans-Serif" font-size="10.00">PerceptualColor::FullColor</text>
<text text-anchor="middle" x="98" y="-56.5" font-family="Helvetica,sans-Serif" font-size="10.00">Description::moveChromaIntoGamut</text>
</a>
</g>
</g>
<!-- Node2 -->
<g id="node2" class="node">
<title>Node2</title>
<g id="a_node2"><a xlink:href="class_perceptual_color_1_1_rgb_color_space.html#a805768f351ccde875254755901d943fa" target="_top" xlink:title="The darkest in&#45;gamut point on the L* axis.">
<polygon fill="white" stroke="black" points="232,-98.5 232,-128.5 376,-128.5 376,-98.5 232,-98.5"/>
<text text-anchor="start" x="240" y="-116.5" font-family="Helvetica,sans-Serif" font-size="10.00">PerceptualColor::RgbColor</text>
<text text-anchor="middle" x="304" y="-105.5" font-family="Helvetica,sans-Serif" font-size="10.00">Space::blackpointL</text>
</a>
</g>
</g>
<!-- Node1&#45;&gt;Node2 -->
<g id="edge1" class="edge">
<title>Node1&#45;&gt;Node2</title>
<path fill="none" stroke="midnightblue" d="M161.59,-79.53C183.43,-84.78 208.11,-90.71 230.67,-96.13"/>
<polygon fill="midnightblue" stroke="midnightblue" points="229.98,-99.56 240.53,-98.49 231.62,-92.76 229.98,-99.56"/>
</g>
<!-- Node3 -->
<g id="node3" class="node">
<title>Node3</title>
<g id="a_node3"><a xlink:href="class_perceptual_color_1_1_rgb_color_space.html#a24382dbdad4c514bde0842b5a8313be0" target="_top" xlink:title="check if a Lab value is within a specific RGB gamut">
<polygon fill="white" stroke="black" points="232,-49.5 232,-79.5 376,-79.5 376,-49.5 232,-49.5"/>
<text text-anchor="start" x="240" y="-67.5" font-family="Helvetica,sans-Serif" font-size="10.00">PerceptualColor::RgbColor</text>
<text text-anchor="middle" x="304" y="-56.5" font-family="Helvetica,sans-Serif" font-size="10.00">Space::inGamut</text>
</a>
</g>
</g>
<!-- Node1&#45;&gt;Node3 -->
<g id="edge2" class="edge">
<title>Node1&#45;&gt;Node3</title>
<path fill="none" stroke="midnightblue" d="M196.22,-64.5C204.76,-64.5 213.34,-64.5 221.72,-64.5"/>
<polygon fill="midnightblue" stroke="midnightblue" points="221.84,-68 231.84,-64.5 221.84,-61 221.84,-68"/>
</g>
<!-- Node4 -->
<g id="node4" class="node">
<title>Node4</title>
<g id="a_node4"><a xlink:href="class_perceptual_color_1_1_rgb_color_space.html#a1e3cb8f4108729442a61b43df4664397" target="_top" xlink:title="The lightest in&#45;gamut point on the L* axis.">
<polygon fill="white" stroke="black" points="232,-0.5 232,-30.5 376,-30.5 376,-0.5 232,-0.5"/>
<text text-anchor="start" x="240" y="-18.5" font-family="Helvetica,sans-Serif" font-size="10.00">PerceptualColor::RgbColor</text>
<text text-anchor="middle" x="304" y="-7.5" font-family="Helvetica,sans-Serif" font-size="10.00">Space::whitepointL</text>
</a>
</g>
</g>
<!-- Node1&#45;&gt;Node4 -->
<g id="edge3" class="edge">
<title>Node1&#45;&gt;Node4</title>
<path fill="none" stroke="midnightblue" d="M161.59,-49.47C183.43,-44.22 208.11,-38.29 230.67,-32.87"/>
<polygon fill="midnightblue" stroke="midnightblue" points="231.62,-36.24 240.53,-30.51 229.98,-29.44 231.62,-36.24"/>
</g>
</g>
</svg>
