<?xml version="1.0" encoding="UTF-8" standalone="no"?>
<!DOCTYPE svg PUBLIC "-//W3C//DTD SVG 1.1//EN"
 "http://www.w3.org/Graphics/SVG/1.1/DTD/svg11.dtd">
<!-- Generated by graphviz version 2.43.0 (0)
 -->
<!-- Title: PerceptualColor::ColorDialog::textForHlcLineEdit Pages: 1 -->
<svg width="1130pt" height="389pt"
 viewBox="0.00 0.00 1130.00 389.00" xmlns="http://www.w3.org/2000/svg" xmlns:xlink="http://www.w3.org/1999/xlink">
<g id="graph0" class="graph" transform="scale(1 1) rotate(0) translate(4 385)">
<title>PerceptualColor::ColorDialog::textForHlcLineEdit</title>
<polygon fill="white" stroke="transparent" points="-4,4 -4,-385 1126,-385 1126,4 -4,4"/>
<!-- Node1 -->
<g id="node1" class="node">
<title>Node1</title>
<g id="a_node1"><a xlink:title="Get text for m_hlcLineEdit based on m_currentOpaqueColor.">
<polygon fill="#bfbfbf" stroke="black" points="965,-312.5 965,-342.5 1122,-342.5 1122,-312.5 965,-312.5"/>
<text text-anchor="start" x="973" y="-330.5" font-family="Helvetica,sans-Serif" font-size="10.00">PerceptualColor::ColorDialog</text>
<text text-anchor="middle" x="1043.5" y="-319.5" font-family="Helvetica,sans-Serif" font-size="10.00">::textForHlcLineEdit</text>
</a>
</g>
</g>
<!-- Node2 -->
<g id="node2" class="node">
<title>Node2</title>
<g id="a_node2"><a xlink:href="class_perceptual_color_1_1_color_dialog.html#a64f6d0e30a627458ccb7bbf4a77ad42b" target="_top" xlink:title="React on focus changes.">
<polygon fill="white" stroke="black" points="386,-350.5 386,-380.5 543,-380.5 543,-350.5 386,-350.5"/>
<text text-anchor="start" x="394" y="-368.5" font-family="Helvetica,sans-Serif" font-size="10.00">PerceptualColor::ColorDialog</text>
<text text-anchor="middle" x="464.5" y="-357.5" font-family="Helvetica,sans-Serif" font-size="10.00">::handleFocusChange</text>
</a>
</g>
</g>
<!-- Node1&#45;&gt;Node2 -->
<g id="edge1" class="edge">
<title>Node1&#45;&gt;Node2</title>
<path fill="none" stroke="midnightblue" d="M954.6,-338.92C945.96,-339.87 937.31,-340.75 929,-341.5 793.58,-353.7 635.29,-360.24 543.13,-363.29"/>
<polygon fill="midnightblue" stroke="midnightblue" points="955.18,-342.38 964.73,-337.78 954.4,-335.42 955.18,-342.38"/>
</g>
<!-- Node5 -->
<g id="node5" class="node">
<title>Node5</title>
<g id="a_node5"><a xlink:href="class_perceptual_color_1_1_color_dialog.html#adf67594f0cb9416b245d6cf726f18bf4" target="_top" xlink:title="Reads the HLC numbers in the dialog and updates the dialog accordingly.">
<polygon fill="white" stroke="black" points="579,-312.5 579,-342.5 736,-342.5 736,-312.5 579,-312.5"/>
<text text-anchor="start" x="587" y="-330.5" font-family="Helvetica,sans-Serif" font-size="10.00">PerceptualColor::ColorDialog</text>
<text text-anchor="middle" x="657.5" y="-319.5" font-family="Helvetica,sans-Serif" font-size="10.00">::readHlcNumericValues</text>
</a>
</g>
</g>
<!-- Node1&#45;&gt;Node5 -->
<g id="edge4" class="edge">
<title>Node1&#45;&gt;Node5</title>
<path fill="none" stroke="midnightblue" d="M954.43,-327.5C888.55,-327.5 799.3,-327.5 736.09,-327.5"/>
<polygon fill="midnightblue" stroke="midnightblue" points="954.79,-331 964.79,-327.5 954.79,-324 954.79,-331"/>
</g>
<!-- Node6 -->
<g id="node6" class="node">
<title>Node6</title>
<g id="a_node6"><a xlink:href="class_perceptual_color_1_1_color_dialog.html#abd0da334b7034a67a3cc83bc3ed0a425" target="_top" xlink:title="Updates m_currentOpaqueColor and all affected widgets.">
<polygon fill="white" stroke="black" points="772,-246.5 772,-276.5 929,-276.5 929,-246.5 772,-246.5"/>
<text text-anchor="start" x="780" y="-264.5" font-family="Helvetica,sans-Serif" font-size="10.00">PerceptualColor::ColorDialog</text>
<text text-anchor="middle" x="850.5" y="-253.5" font-family="Helvetica,sans-Serif" font-size="10.00">::setCurrentOpaqueColor</text>
</a>
</g>
</g>
<!-- Node1&#45;&gt;Node6 -->
<g id="edge7" class="edge">
<title>Node1&#45;&gt;Node6</title>
<path fill="none" stroke="midnightblue" d="M988.92,-308.98C959.3,-298.75 922.98,-286.2 895.12,-276.57"/>
<polygon fill="midnightblue" stroke="midnightblue" points="988.09,-312.4 998.68,-312.36 990.37,-305.78 988.09,-312.4"/>
</g>
<!-- Node3 -->
<g id="node3" class="node">
<title>Node3</title>
<g id="a_node3"><a xlink:href="class_perceptual_color_1_1_color_dialog.html#ad31fb985e1323cdf1208c91f16fe2a51" target="_top" xlink:title="Basic initialization.">
<polygon fill="white" stroke="black" points="193,-208.5 193,-238.5 350,-238.5 350,-208.5 193,-208.5"/>
<text text-anchor="start" x="201" y="-226.5" font-family="Helvetica,sans-Serif" font-size="10.00">PerceptualColor::ColorDialog</text>
<text text-anchor="middle" x="271.5" y="-215.5" font-family="Helvetica,sans-Serif" font-size="10.00">::initialize</text>
</a>
</g>
</g>
<!-- Node2&#45;&gt;Node3 -->
<g id="edge2" class="edge">
<title>Node2&#45;&gt;Node3</title>
<path fill="none" stroke="midnightblue" d="M405.84,-346.26C398.94,-343.07 392.16,-339.49 386,-335.5 343.23,-307.84 303.31,-262.08 284.23,-238.53"/>
<polygon fill="midnightblue" stroke="midnightblue" points="404.71,-349.59 415.28,-350.36 407.5,-343.17 404.71,-349.59"/>
</g>
<!-- Node4 -->
<g id="node4" class="node">
<title>Node4</title>
<g id="a_node4"><a xlink:href="class_perceptual_color_1_1_color_dialog.html#a3c1ad1040ede00087aa11fab1514a6e7" target="_top" xlink:title="Constructor.">
<polygon fill="white" stroke="black" points="0,-115.5 0,-145.5 157,-145.5 157,-115.5 0,-115.5"/>
<text text-anchor="start" x="8" y="-133.5" font-family="Helvetica,sans-Serif" font-size="10.00">PerceptualColor::ColorDialog</text>
<text text-anchor="middle" x="78.5" y="-122.5" font-family="Helvetica,sans-Serif" font-size="10.00">::ColorDialog</text>
</a>
</g>
</g>
<!-- Node3&#45;&gt;Node4 -->
<g id="edge3" class="edge">
<title>Node3&#45;&gt;Node4</title>
<path fill="none" stroke="midnightblue" d="M230.22,-203.89C194.54,-186.52 143.2,-161.52 110.6,-145.64"/>
<polygon fill="midnightblue" stroke="midnightblue" points="228.86,-207.12 239.39,-208.35 231.93,-200.83 228.86,-207.12"/>
</g>
<!-- Node5&#45;&gt;Node2 -->
<g id="edge5" class="edge">
<title>Node5&#45;&gt;Node2</title>
<path fill="none" stroke="midnightblue" d="M571.08,-344.5C561.07,-346.49 550.92,-348.51 541.07,-350.47"/>
<polygon fill="midnightblue" stroke="midnightblue" points="571.89,-347.9 581.01,-342.52 570.52,-341.04 571.89,-347.9"/>
</g>
<!-- Node5&#45;&gt;Node3 -->
<g id="edge6" class="edge">
<title>Node5&#45;&gt;Node3</title>
<path fill="none" stroke="midnightblue" d="M568.62,-328C514.54,-325.83 444.61,-318.5 386,-297.5 348.58,-284.09 311.1,-256.13 289.95,-238.68"/>
<polygon fill="midnightblue" stroke="midnightblue" points="568.75,-331.51 578.87,-328.36 568.99,-324.51 568.75,-331.51"/>
</g>
<!-- Node6&#45;&gt;Node3 -->
<g id="edge8" class="edge">
<title>Node6&#45;&gt;Node3</title>
<path fill="none" stroke="midnightblue" d="M761.77,-264.05C753.06,-264.23 744.36,-264.39 736,-264.5 580.23,-266.56 540.15,-267.98 386,-245.5 372.59,-243.55 358.37,-241.09 344.68,-238.54"/>
<polygon fill="midnightblue" stroke="midnightblue" points="762.05,-267.54 771.97,-263.82 761.89,-260.55 762.05,-267.54"/>
</g>
<!-- Node6&#45;&gt;Node5 -->
<g id="edge9" class="edge">
<title>Node6&#45;&gt;Node5</title>
<path fill="none" stroke="midnightblue" d="M795.92,-280.02C766.3,-290.25 729.98,-302.8 702.12,-312.43"/>
<polygon fill="midnightblue" stroke="midnightblue" points="797.37,-283.22 805.68,-276.64 795.09,-276.6 797.37,-283.22"/>
</g>
<!-- Node7 -->
<g id="node7" class="node">
<title>Node7</title>
<g id="a_node7"><a xlink:href="class_perceptual_color_1_1_color_dialog.html#a2a48f4c33652bc9a1a0cb22fd0a6b221" target="_top" xlink:title="Reads the value from the lightness selector in the dialog and updates the dialog accordingly.">
<polygon fill="white" stroke="black" points="579,-224.5 579,-254.5 736,-254.5 736,-224.5 579,-224.5"/>
<text text-anchor="start" x="587" y="-242.5" font-family="Helvetica,sans-Serif" font-size="10.00">PerceptualColor::ColorDialog</text>
<text text-anchor="middle" x="657.5" y="-231.5" font-family="Helvetica,sans-Serif" font-size="10.00">::readLightnessValue</text>
</a>
</g>
</g>
<!-- Node6&#45;&gt;Node7 -->
<g id="edge10" class="edge">
<title>Node6&#45;&gt;Node7</title>
<path fill="none" stroke="midnightblue" d="M761.81,-251.4C753.24,-250.41 744.58,-249.41 736.12,-248.44"/>
<polygon fill="midnightblue" stroke="midnightblue" points="761.48,-254.88 771.81,-252.55 762.28,-247.93 761.48,-254.88"/>
</g>
<!-- Node8 -->
<g id="node8" class="node">
<title>Node8</title>
<g id="a_node8"><a xlink:href="class_perceptual_color_1_1_color_dialog.html#a64b6c698ebfaf2461c513ebbb7ef2637" target="_top" xlink:title="Setter for currentColor property.">
<polygon fill="white" stroke="black" points="579,-44.5 579,-74.5 736,-74.5 736,-44.5 579,-44.5"/>
<text text-anchor="start" x="587" y="-62.5" font-family="Helvetica,sans-Serif" font-size="10.00">PerceptualColor::ColorDialog</text>
<text text-anchor="middle" x="657.5" y="-51.5" font-family="Helvetica,sans-Serif" font-size="10.00">::setCurrentColor</text>
</a>
</g>
</g>
<!-- Node6&#45;&gt;Node8 -->
<g id="edge12" class="edge">
<title>Node6&#45;&gt;Node8</title>
<path fill="none" stroke="midnightblue" d="M828.11,-238.88C788.78,-197.29 706,-109.74 672.76,-74.58"/>
<polygon fill="midnightblue" stroke="midnightblue" points="825.73,-241.46 835.14,-246.32 830.82,-236.65 825.73,-241.46"/>
</g>
<!-- Node10 -->
<g id="node10" class="node">
<title>Node10</title>
<g id="a_node10"><a xlink:href="class_perceptual_color_1_1_color_dialog.html#acf0e7b1b619cee3fc7f5a992e2c93e7d" target="_top" xlink:title="Convenience version of setCurrentOpaqueColor(), accepting QColor.">
<polygon fill="white" stroke="black" points="579,-156.5 579,-186.5 736,-186.5 736,-156.5 579,-156.5"/>
<text text-anchor="start" x="587" y="-174.5" font-family="Helvetica,sans-Serif" font-size="10.00">PerceptualColor::ColorDialog</text>
<text text-anchor="middle" x="657.5" y="-163.5" font-family="Helvetica,sans-Serif" font-size="10.00">::setCurrentOpaqueQColor</text>
</a>
</g>
</g>
<!-- Node6&#45;&gt;Node10 -->
<g id="edge15" class="edge">
<title>Node6&#45;&gt;Node10</title>
<path fill="none" stroke="midnightblue" d="M808.45,-242.16C773.16,-225.53 722.98,-201.88 690.57,-186.61"/>
<polygon fill="midnightblue" stroke="midnightblue" points="806.99,-245.34 817.53,-246.44 809.98,-239.01 806.99,-245.34"/>
</g>
<!-- Node7&#45;&gt;Node3 -->
<g id="edge11" class="edge">
<title>Node7&#45;&gt;Node3</title>
<path fill="none" stroke="midnightblue" d="M568.43,-235.83C502.55,-233.09 413.3,-229.37 350.09,-226.73"/>
<polygon fill="midnightblue" stroke="midnightblue" points="568.65,-239.34 578.79,-236.26 568.95,-232.35 568.65,-239.34"/>
</g>
<!-- Node8&#45;&gt;Node4 -->
<g id="edge13" class="edge">
<title>Node8&#45;&gt;Node4</title>
<path fill="none" stroke="midnightblue" d="M568.72,-63.49C515.69,-66.43 446.82,-71.22 386,-78.5 306.95,-87.96 217.25,-103.78 155.4,-115.49"/>
<polygon fill="midnightblue" stroke="midnightblue" points="568.98,-66.98 578.77,-62.94 568.6,-59.99 568.98,-66.98"/>
</g>
<!-- Node9 -->
<g id="node9" class="node">
<title>Node9</title>
<g id="a_node9"><a xlink:href="class_perceptual_color_1_1_color_dialog.html#a08677555088721a366cc839a90b5eea2" target="_top" xlink:title="Pops up a modal color dialog, lets the user choose a color, and returns that color.">
<polygon fill="white" stroke="black" points="386,-0.5 386,-30.5 543,-30.5 543,-0.5 386,-0.5"/>
<text text-anchor="start" x="394" y="-18.5" font-family="Helvetica,sans-Serif" font-size="10.00">PerceptualColor::ColorDialog</text>
<text text-anchor="middle" x="464.5" y="-7.5" font-family="Helvetica,sans-Serif" font-size="10.00">::getColor</text>
</a>
</g>
</g>
<!-- Node8&#45;&gt;Node9 -->
<g id="edge14" class="edge">
<title>Node8&#45;&gt;Node9</title>
<path fill="none" stroke="midnightblue" d="M581.54,-42.23C564.75,-38.36 547.08,-34.29 530.73,-30.53"/>
<polygon fill="midnightblue" stroke="midnightblue" points="580.77,-45.65 591.3,-44.48 582.34,-38.83 580.77,-45.65"/>
</g>
<!-- Node11 -->
<g id="node11" class="node">
<title>Node11</title>
<g id="a_node11"><a xlink:href="class_perceptual_color_1_1_color_dialog.html#ad834c4b1975dd4b226a054497bd1ef47" target="_top" xlink:title="Reads the HSV numbers in the dialog and updates the dialog accordingly.">
<polygon fill="white" stroke="black" points="386,-186.5 386,-216.5 543,-216.5 543,-186.5 386,-186.5"/>
<text text-anchor="start" x="394" y="-204.5" font-family="Helvetica,sans-Serif" font-size="10.00">PerceptualColor::ColorDialog</text>
<text text-anchor="middle" x="464.5" y="-193.5" font-family="Helvetica,sans-Serif" font-size="10.00">::readHsvNumericValues</text>
</a>
</g>
</g>
<!-- Node10&#45;&gt;Node11 -->
<g id="edge16" class="edge">
<title>Node10&#45;&gt;Node11</title>
<path fill="none" stroke="midnightblue" d="M568.81,-185.27C560.24,-186.62 551.58,-187.98 543.12,-189.31"/>
<polygon fill="midnightblue" stroke="midnightblue" points="569.48,-188.71 578.81,-183.7 568.39,-181.8 569.48,-188.71"/>
</g>
<!-- Node12 -->
<g id="node12" class="node">
<title>Node12</title>
<g id="a_node12"><a xlink:href="class_perceptual_color_1_1_color_dialog.html#a4554999f424ac055986478fe8c899ae1" target="_top" xlink:title="Reads the hexadecimal RGB numbers in the dialog and updates the dialog accordingly.">
<polygon fill="white" stroke="black" points="386,-137.5 386,-167.5 543,-167.5 543,-137.5 386,-137.5"/>
<text text-anchor="start" x="394" y="-155.5" font-family="Helvetica,sans-Serif" font-size="10.00">PerceptualColor::ColorDialog</text>
<text text-anchor="middle" x="464.5" y="-144.5" font-family="Helvetica,sans-Serif" font-size="10.00">::readRgbHexValues</text>
</a>
</g>
</g>
<!-- Node10&#45;&gt;Node12 -->
<g id="edge18" class="edge">
<title>Node10&#45;&gt;Node12</title>
<path fill="none" stroke="midnightblue" d="M568.81,-162.78C560.24,-161.92 551.58,-161.06 543.12,-160.22"/>
<polygon fill="midnightblue" stroke="midnightblue" points="568.52,-166.26 578.81,-163.77 569.21,-159.3 568.52,-166.26"/>
</g>
<!-- Node13 -->
<g id="node13" class="node">
<title>Node13</title>
<g id="a_node13"><a xlink:href="class_perceptual_color_1_1_color_dialog.html#a9bb8f87d25714fc283fdda98424030fe" target="_top" xlink:title="Reads the decimal RGB numbers in the dialog and updates the dialog accordingly.">
<polygon fill="white" stroke="black" points="386,-88.5 386,-118.5 543,-118.5 543,-88.5 386,-88.5"/>
<text text-anchor="start" x="394" y="-106.5" font-family="Helvetica,sans-Serif" font-size="10.00">PerceptualColor::ColorDialog</text>
<text text-anchor="middle" x="464.5" y="-95.5" font-family="Helvetica,sans-Serif" font-size="10.00">::readRgbNumericValues</text>
</a>
</g>
</g>
<!-- Node10&#45;&gt;Node13 -->
<g id="edge20" class="edge">
<title>Node10&#45;&gt;Node13</title>
<path fill="none" stroke="midnightblue" d="M608.73,-152.79C588.53,-145.04 564.7,-136.11 543,-128.5 533.53,-125.18 523.35,-121.78 513.58,-118.6"/>
<polygon fill="midnightblue" stroke="midnightblue" points="607.73,-156.16 618.32,-156.49 610.25,-149.63 607.73,-156.16"/>
</g>
<!-- Node11&#45;&gt;Node3 -->
<g id="edge17" class="edge">
<title>Node11&#45;&gt;Node3</title>
<path fill="none" stroke="midnightblue" d="M375.81,-211.6C367.24,-212.59 358.58,-213.59 350.12,-214.56"/>
<polygon fill="midnightblue" stroke="midnightblue" points="376.28,-215.07 385.81,-210.45 375.48,-208.12 376.28,-215.07"/>
</g>
<!-- Node12&#45;&gt;Node3 -->
<g id="edge19" class="edge">
<title>Node12&#45;&gt;Node3</title>
<path fill="none" stroke="midnightblue" d="M405.38,-170.74C398.82,-172.95 392.25,-175.23 386,-177.5 359.52,-187.12 330.05,-199.11 307.77,-208.43"/>
<polygon fill="midnightblue" stroke="midnightblue" points="406.56,-174.04 414.94,-167.56 404.35,-167.39 406.56,-174.04"/>
</g>
<!-- Node13&#45;&gt;Node3 -->
<g id="edge21" class="edge">
<title>Node13&#45;&gt;Node3</title>
<path fill="none" stroke="midnightblue" d="M398.35,-122.44C394.09,-124.31 389.94,-126.33 386,-128.5 346.18,-150.48 307.17,-187.48 286.88,-208.22"/>
<polygon fill="midnightblue" stroke="midnightblue" points="399.85,-125.61 407.78,-118.58 397.2,-119.13 399.85,-125.61"/>
</g>
</g>
</svg>
