<?xml version="1.0" encoding="UTF-8" standalone="no"?>
<!DOCTYPE svg PUBLIC "-//W3C//DTD SVG 1.1//EN"
 "http://www.w3.org/Graphics/SVG/1.1/DTD/svg11.dtd">
<!-- Generated by graphviz version 2.43.0 (0)
 -->
<!-- Title: PerceptualColor::ColorDialog::readHlcNumericValues Pages: 1 -->
<svg width="744pt" height="61pt"
 viewBox="0.00 0.00 744.00 61.00" xmlns="http://www.w3.org/2000/svg" xmlns:xlink="http://www.w3.org/1999/xlink">
<g id="graph0" class="graph" transform="scale(1 1) rotate(0) translate(4 57)">
<title>PerceptualColor::ColorDialog::readHlcNumericValues</title>
<polygon fill="white" stroke="transparent" points="-4,4 -4,-57 740,-57 740,4 -4,4"/>
<!-- Node1 -->
<g id="node1" class="node">
<title>Node1</title>
<g id="a_node1"><a xlink:title="Reads the HLC numbers in the dialog and updates the dialog accordingly.">
<polygon fill="#bfbfbf" stroke="black" points="579,-0.5 579,-30.5 736,-30.5 736,-0.5 579,-0.5"/>
<text text-anchor="start" x="587" y="-18.5" font-family="Helvetica,sans-Serif" font-size="10.00">PerceptualColor::ColorDialog</text>
<text text-anchor="middle" x="657.5" y="-7.5" font-family="Helvetica,sans-Serif" font-size="10.00">::readHlcNumericValues</text>
</a>
</g>
</g>
<!-- Node2 -->
<g id="node2" class="node">
<title>Node2</title>
<g id="a_node2"><a xlink:href="class_perceptual_color_1_1_color_dialog.html#a64f6d0e30a627458ccb7bbf4a77ad42b" target="_top" xlink:title="React on focus changes.">
<polygon fill="white" stroke="black" points="386,-22.5 386,-52.5 543,-52.5 543,-22.5 386,-22.5"/>
<text text-anchor="start" x="394" y="-40.5" font-family="Helvetica,sans-Serif" font-size="10.00">PerceptualColor::ColorDialog</text>
<text text-anchor="middle" x="464.5" y="-29.5" font-family="Helvetica,sans-Serif" font-size="10.00">::handleFocusChange</text>
</a>
</g>
</g>
<!-- Node1&#45;&gt;Node2 -->
<g id="edge1" class="edge">
<title>Node1&#45;&gt;Node2</title>
<path fill="none" stroke="midnightblue" d="M568.81,-25.6C560.24,-26.59 551.58,-27.59 543.12,-28.56"/>
<polygon fill="midnightblue" stroke="midnightblue" points="569.28,-29.07 578.81,-24.45 568.48,-22.12 569.28,-29.07"/>
</g>
<!-- Node3 -->
<g id="node3" class="node">
<title>Node3</title>
<g id="a_node3"><a xlink:href="class_perceptual_color_1_1_color_dialog.html#ad31fb985e1323cdf1208c91f16fe2a51" target="_top" xlink:title="Basic initialization.">
<polygon fill="white" stroke="black" points="193,-0.5 193,-30.5 350,-30.5 350,-0.5 193,-0.5"/>
<text text-anchor="start" x="201" y="-18.5" font-family="Helvetica,sans-Serif" font-size="10.00">PerceptualColor::ColorDialog</text>
<text text-anchor="middle" x="271.5" y="-7.5" font-family="Helvetica,sans-Serif" font-size="10.00">::initialize</text>
</a>
</g>
</g>
<!-- Node1&#45;&gt;Node3 -->
<g id="edge4" class="edge">
<title>Node1&#45;&gt;Node3</title>
<path fill="none" stroke="midnightblue" d="M568.76,-13.8C560.06,-13.68 551.36,-13.57 543,-13.5 473.22,-12.89 455.78,-12.89 386,-13.5 374.37,-13.6 362.08,-13.76 350.04,-13.95"/>
<polygon fill="midnightblue" stroke="midnightblue" points="568.91,-17.3 578.96,-13.95 569.02,-10.3 568.91,-17.3"/>
</g>
<!-- Node2&#45;&gt;Node3 -->
<g id="edge2" class="edge">
<title>Node2&#45;&gt;Node3</title>
<path fill="none" stroke="midnightblue" d="M375.81,-27.4C367.24,-26.41 358.58,-25.41 350.12,-24.44"/>
<polygon fill="midnightblue" stroke="midnightblue" points="375.48,-30.88 385.81,-28.55 376.28,-23.93 375.48,-30.88"/>
</g>
<!-- Node4 -->
<g id="node4" class="node">
<title>Node4</title>
<g id="a_node4"><a xlink:href="class_perceptual_color_1_1_color_dialog.html#a3c1ad1040ede00087aa11fab1514a6e7" target="_top" xlink:title="Constructor.">
<polygon fill="white" stroke="black" points="0,-0.5 0,-30.5 157,-30.5 157,-0.5 0,-0.5"/>
<text text-anchor="start" x="8" y="-18.5" font-family="Helvetica,sans-Serif" font-size="10.00">PerceptualColor::ColorDialog</text>
<text text-anchor="middle" x="78.5" y="-7.5" font-family="Helvetica,sans-Serif" font-size="10.00">::ColorDialog</text>
</a>
</g>
</g>
<!-- Node3&#45;&gt;Node4 -->
<g id="edge3" class="edge">
<title>Node3&#45;&gt;Node4</title>
<path fill="none" stroke="midnightblue" d="M182.81,-15.5C174.24,-15.5 165.58,-15.5 157.12,-15.5"/>
<polygon fill="midnightblue" stroke="midnightblue" points="182.81,-19 192.81,-15.5 182.81,-12 182.81,-19"/>
</g>
</g>
</svg>
