<?xml version="1.0" encoding="UTF-8" standalone="no"?>
<!DOCTYPE svg PUBLIC "-//W3C//DTD SVG 1.1//EN"
 "http://www.w3.org/Graphics/SVG/1.1/DTD/svg11.dtd">
<!-- Generated by graphviz version 2.43.0 (0)
 -->
<!-- Title: PerceptualColor::GradientSelector::fractionChanged Pages: 1 -->
<svg width="1356pt" height="506pt"
 viewBox="0.00 0.00 1356.00 505.54" xmlns="http://www.w3.org/2000/svg" xmlns:xlink="http://www.w3.org/1999/xlink">
<g id="graph0" class="graph" transform="scale(1 1) rotate(0) translate(4 501.54)">
<title>PerceptualColor::GradientSelector::fractionChanged</title>
<polygon fill="white" stroke="transparent" points="-4,4 -4,-501.54 1352,-501.54 1352,4 -4,4"/>
<!-- Node1 -->
<g id="node1" class="node">
<title>Node1</title>
<g id="a_node1"><a xlink:title="Signal for fraction() property.">
<polygon fill="#bfbfbf" stroke="black" points="1205,-254.71 1205,-284.71 1348,-284.71 1348,-254.71 1205,-254.71"/>
<text text-anchor="start" x="1213" y="-272.71" font-family="Helvetica,sans-Serif" font-size="10.00">PerceptualColor::Gradient</text>
<text text-anchor="middle" x="1276.5" y="-261.71" font-family="Helvetica,sans-Serif" font-size="10.00">Selector::fractionChanged</text>
</a>
</g>
</g>
<!-- Node2 -->
<g id="node2" class="node">
<title>Node2</title>
<g id="a_node2"><a xlink:href="class_perceptual_color_1_1_alpha_selector.html#a3054b783bd88068bbf6caa4553dc4649" target="_top" xlink:title=" ">
<polygon fill="white" stroke="black" points="386,-445.71 386,-475.71 553,-475.71 553,-445.71 386,-445.71"/>
<text text-anchor="start" x="394" y="-463.71" font-family="Helvetica,sans-Serif" font-size="10.00">PerceptualColor::AlphaSelector</text>
<text text-anchor="middle" x="469.5" y="-452.71" font-family="Helvetica,sans-Serif" font-size="10.00">::AlphaSelector</text>
</a>
</g>
</g>
<!-- Node1&#45;&gt;Node2 -->
<g id="edge1" class="edge">
<title>Node1&#45;&gt;Node2</title>
<path fill="none" stroke="midnightblue" d="M1247.44,-291.07C1198.22,-327.49 1091.93,-401.56 991,-441.71 824,-508.15 767.76,-504.36 589,-485.71 569.55,-483.68 548.59,-479.83 529.79,-475.74"/>
<polygon fill="midnightblue" stroke="midnightblue" points="1249.75,-293.71 1255.68,-284.93 1245.57,-288.1 1249.75,-293.71"/>
</g>
<!-- Node3 -->
<g id="node3" class="node">
<title>Node3</title>
<g id="a_node3"><a xlink:href="class_perceptual_color_1_1_color_dialog.html#ad31fb985e1323cdf1208c91f16fe2a51" target="_top" xlink:title="Basic initialization.">
<polygon fill="white" stroke="black" points="193,-187.71 193,-217.71 350,-217.71 350,-187.71 193,-187.71"/>
<text text-anchor="start" x="201" y="-205.71" font-family="Helvetica,sans-Serif" font-size="10.00">PerceptualColor::ColorDialog</text>
<text text-anchor="middle" x="271.5" y="-194.71" font-family="Helvetica,sans-Serif" font-size="10.00">::initialize</text>
</a>
</g>
</g>
<!-- Node1&#45;&gt;Node3 -->
<g id="edge2" class="edge">
<title>Node1&#45;&gt;Node3</title>
<path fill="none" stroke="midnightblue" d="M1258.75,-246.55C1211.42,-184.06 1069.63,-16.71 908.5,-16.71 908.5,-16.71 908.5,-16.71 687.5,-16.71 553.23,-16.71 502.63,30.82 386,-35.71 324.95,-70.54 289.91,-153.25 277.58,-187.48"/>
<polygon fill="midnightblue" stroke="midnightblue" points="1256.01,-248.72 1264.79,-254.64 1261.61,-244.54 1256.01,-248.72"/>
</g>
<!-- Node5 -->
<g id="node5" class="node">
<title>Node5</title>
<g id="a_node5"><a xlink:href="class_perceptual_color_1_1_gradient_selector.html#a1548390b891333547c1dee97573be568" target="_top" xlink:title=" ">
<polygon fill="white" stroke="black" points="1027,-254.71 1027,-284.71 1169,-284.71 1169,-254.71 1027,-254.71"/>
<text text-anchor="start" x="1035" y="-272.71" font-family="Helvetica,sans-Serif" font-size="10.00">PerceptualColor::Gradient</text>
<text text-anchor="middle" x="1098" y="-261.71" font-family="Helvetica,sans-Serif" font-size="10.00">Selector::setFraction</text>
</a>
</g>
</g>
<!-- Node1&#45;&gt;Node5 -->
<g id="edge4" class="edge">
<title>Node1&#45;&gt;Node5</title>
<path fill="none" stroke="midnightblue" d="M1194.93,-269.71C1186.31,-269.71 1177.6,-269.71 1169.12,-269.71"/>
<polygon fill="midnightblue" stroke="midnightblue" points="1194.98,-273.21 1204.98,-269.71 1194.98,-266.21 1194.98,-273.21"/>
</g>
<!-- Node4 -->
<g id="node4" class="node">
<title>Node4</title>
<g id="a_node4"><a xlink:href="class_perceptual_color_1_1_color_dialog.html#a3c1ad1040ede00087aa11fab1514a6e7" target="_top" xlink:title="Constructor.">
<polygon fill="white" stroke="black" points="0,-294.71 0,-324.71 157,-324.71 157,-294.71 0,-294.71"/>
<text text-anchor="start" x="8" y="-312.71" font-family="Helvetica,sans-Serif" font-size="10.00">PerceptualColor::ColorDialog</text>
<text text-anchor="middle" x="78.5" y="-301.71" font-family="Helvetica,sans-Serif" font-size="10.00">::ColorDialog</text>
</a>
</g>
</g>
<!-- Node3&#45;&gt;Node4 -->
<g id="edge3" class="edge">
<title>Node3&#45;&gt;Node4</title>
<path fill="none" stroke="midnightblue" d="M234.52,-222.87C197.23,-243.76 139.82,-275.92 106.32,-294.68"/>
<polygon fill="midnightblue" stroke="midnightblue" points="236.53,-225.76 243.54,-217.81 233.1,-219.65 236.53,-225.76"/>
</g>
<!-- Node6 -->
<g id="node6" class="node">
<title>Node6</title>
<g id="a_node6"><a xlink:href="class_perceptual_color_1_1_gradient_selector.html#a0ec90eaf0514195131a7a38e84cd6dfd" target="_top" xlink:title=" ">
<polygon fill="white" stroke="black" points="836.5,-107.71 836.5,-137.71 978.5,-137.71 978.5,-107.71 836.5,-107.71"/>
<text text-anchor="start" x="844.5" y="-125.71" font-family="Helvetica,sans-Serif" font-size="10.00">PerceptualColor::Gradient</text>
<text text-anchor="middle" x="907.5" y="-114.71" font-family="Helvetica,sans-Serif" font-size="10.00">Selector::keyPressEvent</text>
</a>
</g>
</g>
<!-- Node5&#45;&gt;Node6 -->
<g id="edge5" class="edge">
<title>Node5&#45;&gt;Node6</title>
<path fill="none" stroke="midnightblue" d="M1082.45,-245.63C1064.4,-217.77 1031.05,-172.46 991,-146.71 985.73,-143.32 979.97,-140.4 974.02,-137.88"/>
<polygon fill="midnightblue" stroke="midnightblue" points="1079.67,-247.78 1087.97,-254.35 1085.58,-244.03 1079.67,-247.78"/>
</g>
<!-- Node7 -->
<g id="node7" class="node">
<title>Node7</title>
<g id="a_node7"><a xlink:href="class_perceptual_color_1_1_gradient_selector.html#a194cc85b17400e9b227ebc38eb1c0959" target="_top" xlink:title=" ">
<polygon fill="white" stroke="black" points="832.5,-352.71 832.5,-382.71 982.5,-382.71 982.5,-352.71 832.5,-352.71"/>
<text text-anchor="start" x="840.5" y="-370.71" font-family="Helvetica,sans-Serif" font-size="10.00">PerceptualColor::Gradient</text>
<text text-anchor="middle" x="907.5" y="-359.71" font-family="Helvetica,sans-Serif" font-size="10.00">Selector::mouseMoveEvent</text>
</a>
</g>
</g>
<!-- Node5&#45;&gt;Node7 -->
<g id="edge6" class="edge">
<title>Node5&#45;&gt;Node7</title>
<path fill="none" stroke="midnightblue" d="M1071.44,-291.16C1050.84,-307.52 1020.54,-329.58 991,-343.71 984,-347.06 976.44,-350.04 968.84,-352.66"/>
<polygon fill="midnightblue" stroke="midnightblue" points="1073.78,-293.76 1079.37,-284.76 1069.39,-288.31 1073.78,-293.76"/>
</g>
<!-- Node8 -->
<g id="node8" class="node">
<title>Node8</title>
<g id="a_node8"><a xlink:href="class_perceptual_color_1_1_gradient_selector.html#a37fdfe6b99a523638631874159cd7c3b" target="_top" xlink:title=" ">
<polygon fill="white" stroke="black" points="833,-303.71 833,-333.71 982,-333.71 982,-303.71 833,-303.71"/>
<text text-anchor="start" x="841" y="-321.71" font-family="Helvetica,sans-Serif" font-size="10.00">PerceptualColor::Gradient</text>
<text text-anchor="middle" x="907.5" y="-310.71" font-family="Helvetica,sans-Serif" font-size="10.00">Selector::mousePressEvent</text>
</a>
</g>
</g>
<!-- Node5&#45;&gt;Node8 -->
<g id="edge7" class="edge">
<title>Node5&#45;&gt;Node8</title>
<path fill="none" stroke="midnightblue" d="M1029.21,-287.33C1008.58,-292.69 986.12,-298.53 966.23,-303.7"/>
<polygon fill="midnightblue" stroke="midnightblue" points="1030.36,-290.65 1039.16,-284.75 1028.6,-283.87 1030.36,-290.65"/>
</g>
<!-- Node9 -->
<g id="node9" class="node">
<title>Node9</title>
<g id="a_node9"><a xlink:href="class_perceptual_color_1_1_gradient_selector.html#a2c074fbb043b1b00f9b3e621a102e2a7" target="_top" xlink:title=" ">
<polygon fill="white" stroke="black" points="826.5,-205.71 826.5,-235.71 988.5,-235.71 988.5,-205.71 826.5,-205.71"/>
<text text-anchor="start" x="834.5" y="-223.71" font-family="Helvetica,sans-Serif" font-size="10.00">PerceptualColor::Gradient</text>
<text text-anchor="middle" x="907.5" y="-212.71" font-family="Helvetica,sans-Serif" font-size="10.00">Selector::mouseReleaseEvent</text>
</a>
</g>
</g>
<!-- Node5&#45;&gt;Node9 -->
<g id="edge8" class="edge">
<title>Node5&#45;&gt;Node9</title>
<path fill="none" stroke="midnightblue" d="M1029.21,-252.09C1008.58,-246.73 986.12,-240.89 966.23,-235.72"/>
<polygon fill="midnightblue" stroke="midnightblue" points="1028.6,-255.55 1039.16,-254.68 1030.36,-248.77 1028.6,-255.55"/>
</g>
<!-- Node10 -->
<g id="node10" class="node">
<title>Node10</title>
<g id="a_node10"><a xlink:href="class_perceptual_color_1_1_alpha_selector.html#a1f85608426b1828b131c058fa108fff7" target="_top" xlink:title=" ">
<polygon fill="white" stroke="black" points="824,-401.71 824,-431.71 991,-431.71 991,-401.71 824,-401.71"/>
<text text-anchor="start" x="832" y="-419.71" font-family="Helvetica,sans-Serif" font-size="10.00">PerceptualColor::AlphaSelector</text>
<text text-anchor="middle" x="907.5" y="-408.71" font-family="Helvetica,sans-Serif" font-size="10.00">::setAlpha</text>
</a>
</g>
</g>
<!-- Node5&#45;&gt;Node10 -->
<g id="edge9" class="edge">
<title>Node5&#45;&gt;Node10</title>
<path fill="none" stroke="midnightblue" d="M1082.45,-293.79C1064.4,-321.65 1031.05,-366.96 991,-392.71 985.73,-396.1 979.97,-399.02 974.02,-401.54"/>
<polygon fill="midnightblue" stroke="midnightblue" points="1085.58,-295.39 1087.97,-285.07 1079.67,-291.65 1085.58,-295.39"/>
</g>
<!-- Node14 -->
<g id="node14" class="node">
<title>Node14</title>
<g id="a_node14"><a xlink:href="class_perceptual_color_1_1_color_dialog.html#abd0da334b7034a67a3cc83bc3ed0a425" target="_top" xlink:title="Updates m_currentOpaqueColor and all affected widgets.">
<polygon fill="white" stroke="black" points="829,-254.71 829,-284.71 986,-284.71 986,-254.71 829,-254.71"/>
<text text-anchor="start" x="837" y="-272.71" font-family="Helvetica,sans-Serif" font-size="10.00">PerceptualColor::ColorDialog</text>
<text text-anchor="middle" x="907.5" y="-261.71" font-family="Helvetica,sans-Serif" font-size="10.00">::setCurrentOpaqueColor</text>
</a>
</g>
</g>
<!-- Node5&#45;&gt;Node14 -->
<g id="edge16" class="edge">
<title>Node5&#45;&gt;Node14</title>
<path fill="none" stroke="midnightblue" d="M1016.73,-269.71C1006.56,-269.71 996.16,-269.71 986.03,-269.71"/>
<polygon fill="midnightblue" stroke="midnightblue" points="1016.81,-273.21 1026.81,-269.71 1016.81,-266.21 1016.81,-273.21"/>
</g>
<!-- Node22 -->
<g id="node22" class="node">
<title>Node22</title>
<g id="a_node22"><a xlink:href="class_perceptual_color_1_1_gradient_selector.html#a2f1ad73ad864cffe3061133c3a048b0d" target="_top" xlink:title=" ">
<polygon fill="white" stroke="black" points="836.5,-156.71 836.5,-186.71 978.5,-186.71 978.5,-156.71 836.5,-156.71"/>
<text text-anchor="start" x="844.5" y="-174.71" font-family="Helvetica,sans-Serif" font-size="10.00">PerceptualColor::Gradient</text>
<text text-anchor="middle" x="907.5" y="-163.71" font-family="Helvetica,sans-Serif" font-size="10.00">Selector::wheelEvent</text>
</a>
</g>
</g>
<!-- Node5&#45;&gt;Node22 -->
<g id="edge32" class="edge">
<title>Node5&#45;&gt;Node22</title>
<path fill="none" stroke="midnightblue" d="M1070.97,-248.37C1050.33,-232.32 1020.2,-210.77 991,-196.71 983.31,-193.01 974.96,-189.72 966.62,-186.84"/>
<polygon fill="midnightblue" stroke="midnightblue" points="1068.92,-251.21 1078.93,-254.66 1073.25,-245.72 1068.92,-251.21"/>
</g>
<!-- Node10&#45;&gt;Node2 -->
<g id="edge10" class="edge">
<title>Node10&#45;&gt;Node2</title>
<path fill="none" stroke="midnightblue" d="M813.98,-419.2C750.47,-421.72 664.36,-426.75 589,-436.71 571.83,-438.98 553.42,-442.28 536.35,-445.71"/>
<polygon fill="midnightblue" stroke="midnightblue" points="814.11,-422.7 823.97,-418.81 813.84,-415.7 814.11,-422.7"/>
</g>
<!-- Node11 -->
<g id="node11" class="node">
<title>Node11</title>
<g id="a_node11"><a xlink:href="class_perceptual_color_1_1_alpha_selector.html#a5d4081da5f351f6c98a2ffda568f434e" target="_top" xlink:title=" ">
<polygon fill="white" stroke="black" points="589,-445.71 589,-475.71 788,-475.71 788,-445.71 589,-445.71"/>
<text text-anchor="start" x="597" y="-463.71" font-family="Helvetica,sans-Serif" font-size="10.00">PerceptualColor::AlphaSelector</text>
<text text-anchor="middle" x="688.5" y="-452.71" font-family="Helvetica,sans-Serif" font-size="10.00">::setAlphaFromRepresentationFormat</text>
</a>
</g>
</g>
<!-- Node10&#45;&gt;Node11 -->
<g id="edge11" class="edge">
<title>Node10&#45;&gt;Node11</title>
<path fill="none" stroke="midnightblue" d="M822.4,-433.76C803.02,-437.69 782.53,-441.85 763.61,-445.68"/>
<polygon fill="midnightblue" stroke="midnightblue" points="823.32,-437.15 832.43,-431.73 821.93,-430.29 823.32,-437.15"/>
</g>
<!-- Node12 -->
<g id="node12" class="node">
<title>Node12</title>
<g id="a_node12"><a xlink:href="class_perceptual_color_1_1_color_dialog.html#a64b6c698ebfaf2461c513ebbb7ef2637" target="_top" xlink:title="Setter for currentColor property.">
<polygon fill="white" stroke="black" points="610,-357.71 610,-387.71 767,-387.71 767,-357.71 610,-357.71"/>
<text text-anchor="start" x="618" y="-375.71" font-family="Helvetica,sans-Serif" font-size="10.00">PerceptualColor::ColorDialog</text>
<text text-anchor="middle" x="688.5" y="-364.71" font-family="Helvetica,sans-Serif" font-size="10.00">::setCurrentColor</text>
</a>
</g>
</g>
<!-- Node10&#45;&gt;Node12 -->
<g id="edge13" class="edge">
<title>Node10&#45;&gt;Node12</title>
<path fill="none" stroke="midnightblue" d="M822.4,-399.66C803.02,-395.73 782.53,-391.57 763.61,-387.74"/>
<polygon fill="midnightblue" stroke="midnightblue" points="821.93,-403.13 832.43,-401.69 823.32,-396.27 821.93,-403.13"/>
</g>
<!-- Node11&#45;&gt;Node2 -->
<g id="edge12" class="edge">
<title>Node11&#45;&gt;Node2</title>
<path fill="none" stroke="midnightblue" d="M578.71,-460.71C570.07,-460.71 561.43,-460.71 553.01,-460.71"/>
<polygon fill="midnightblue" stroke="midnightblue" points="578.84,-464.21 588.84,-460.71 578.84,-457.21 578.84,-464.21"/>
</g>
<!-- Node12&#45;&gt;Node4 -->
<g id="edge14" class="edge">
<title>Node12&#45;&gt;Node4</title>
<path fill="none" stroke="midnightblue" d="M610.2,-389.59C591.56,-392.96 571.64,-395.99 553,-397.71 479.09,-404.52 459.5,-408.05 386,-397.71 287.6,-383.86 176.5,-346.17 118.89,-324.88"/>
<polygon fill="midnightblue" stroke="midnightblue" points="610.92,-393.02 620.11,-387.75 609.63,-386.14 610.92,-393.02"/>
</g>
<!-- Node13 -->
<g id="node13" class="node">
<title>Node13</title>
<g id="a_node13"><a xlink:href="class_perceptual_color_1_1_color_dialog.html#a08677555088721a366cc839a90b5eea2" target="_top" xlink:title="Pops up a modal color dialog, lets the user choose a color, and returns that color.">
<polygon fill="white" stroke="black" points="391,-357.71 391,-387.71 548,-387.71 548,-357.71 391,-357.71"/>
<text text-anchor="start" x="399" y="-375.71" font-family="Helvetica,sans-Serif" font-size="10.00">PerceptualColor::ColorDialog</text>
<text text-anchor="middle" x="469.5" y="-364.71" font-family="Helvetica,sans-Serif" font-size="10.00">::getColor</text>
</a>
</g>
</g>
<!-- Node12&#45;&gt;Node13 -->
<g id="edge15" class="edge">
<title>Node12&#45;&gt;Node13</title>
<path fill="none" stroke="midnightblue" d="M599.3,-372.71C582.33,-372.71 564.66,-372.71 548.05,-372.71"/>
<polygon fill="midnightblue" stroke="midnightblue" points="599.77,-376.21 609.77,-372.71 599.77,-369.21 599.77,-376.21"/>
</g>
<!-- Node14&#45;&gt;Node3 -->
<g id="edge17" class="edge">
<title>Node14&#45;&gt;Node3</title>
<path fill="none" stroke="midnightblue" d="M833.26,-286.88C818.35,-289.89 802.73,-292.7 788,-294.71 610.86,-318.92 552.17,-375.69 386,-309.71 338.93,-291.02 300.07,-242.54 282.53,-217.77"/>
<polygon fill="midnightblue" stroke="midnightblue" points="834.37,-290.23 843.45,-284.77 832.95,-283.37 834.37,-290.23"/>
</g>
<!-- Node14&#45;&gt;Node12 -->
<g id="edge24" class="edge">
<title>Node14&#45;&gt;Node12</title>
<path fill="none" stroke="midnightblue" d="M832.97,-289.19C829.85,-290.88 826.84,-292.72 824,-294.71 802.15,-310 809.83,-327.4 788,-342.71 779.22,-348.87 769.14,-353.79 758.86,-357.71"/>
<polygon fill="midnightblue" stroke="midnightblue" points="834.54,-292.32 842,-284.79 831.47,-286.03 834.54,-292.32"/>
</g>
<!-- Node15 -->
<g id="node15" class="node">
<title>Node15</title>
<g id="a_node15"><a xlink:href="class_perceptual_color_1_1_color_dialog.html#adf67594f0cb9416b245d6cf726f18bf4" target="_top" xlink:title="Reads the HLC numbers in the dialog and updates the dialog accordingly.">
<polygon fill="white" stroke="black" points="610,-254.71 610,-284.71 767,-284.71 767,-254.71 610,-254.71"/>
<text text-anchor="start" x="618" y="-272.71" font-family="Helvetica,sans-Serif" font-size="10.00">PerceptualColor::ColorDialog</text>
<text text-anchor="middle" x="688.5" y="-261.71" font-family="Helvetica,sans-Serif" font-size="10.00">::readHlcNumericValues</text>
</a>
</g>
</g>
<!-- Node14&#45;&gt;Node15 -->
<g id="edge18" class="edge">
<title>Node14&#45;&gt;Node15</title>
<path fill="none" stroke="midnightblue" d="M818.3,-269.71C801.33,-269.71 783.66,-269.71 767.05,-269.71"/>
<polygon fill="midnightblue" stroke="midnightblue" points="818.77,-273.21 828.77,-269.71 818.77,-266.21 818.77,-273.21"/>
</g>
<!-- Node17 -->
<g id="node17" class="node">
<title>Node17</title>
<g id="a_node17"><a xlink:href="class_perceptual_color_1_1_color_dialog.html#a2a48f4c33652bc9a1a0cb22fd0a6b221" target="_top" xlink:title="Reads the value from the lightness selector in the dialog and updates the dialog accordingly.">
<polygon fill="white" stroke="black" points="610,-196.71 610,-226.71 767,-226.71 767,-196.71 610,-196.71"/>
<text text-anchor="start" x="618" y="-214.71" font-family="Helvetica,sans-Serif" font-size="10.00">PerceptualColor::ColorDialog</text>
<text text-anchor="middle" x="688.5" y="-203.71" font-family="Helvetica,sans-Serif" font-size="10.00">::readLightnessValue</text>
</a>
</g>
</g>
<!-- Node14&#45;&gt;Node17 -->
<g id="edge22" class="edge">
<title>Node14&#45;&gt;Node17</title>
<path fill="none" stroke="midnightblue" d="M840.31,-252.02C810.1,-243.95 774.71,-234.49 745.81,-226.76"/>
<polygon fill="midnightblue" stroke="midnightblue" points="839.77,-255.5 850.33,-254.7 841.58,-248.74 839.77,-255.5"/>
</g>
<!-- Node18 -->
<g id="node18" class="node">
<title>Node18</title>
<g id="a_node18"><a xlink:href="class_perceptual_color_1_1_color_dialog.html#acf0e7b1b619cee3fc7f5a992e2c93e7d" target="_top" xlink:title="Convenience version of setCurrentOpaqueColor(), accepting QColor.">
<polygon fill="white" stroke="black" points="610,-118.71 610,-148.71 767,-148.71 767,-118.71 610,-118.71"/>
<text text-anchor="start" x="618" y="-136.71" font-family="Helvetica,sans-Serif" font-size="10.00">PerceptualColor::ColorDialog</text>
<text text-anchor="middle" x="688.5" y="-125.71" font-family="Helvetica,sans-Serif" font-size="10.00">::setCurrentOpaqueQColor</text>
</a>
</g>
</g>
<!-- Node14&#45;&gt;Node18 -->
<g id="edge25" class="edge">
<title>Node14&#45;&gt;Node18</title>
<path fill="none" stroke="midnightblue" d="M829.72,-249.65C827.75,-248.41 825.83,-247.1 824,-245.71 799.83,-227.37 810.02,-208.58 788,-187.71 770.59,-171.21 747.17,-158.1 727.53,-148.93"/>
<polygon fill="midnightblue" stroke="midnightblue" points="828.29,-252.85 838.74,-254.6 831.65,-246.72 828.29,-252.85"/>
</g>
<!-- Node15&#45;&gt;Node3 -->
<g id="edge21" class="edge">
<title>Node15&#45;&gt;Node3</title>
<path fill="none" stroke="midnightblue" d="M599.7,-255.54C525.74,-243.6 420.95,-226.68 350.04,-215.23"/>
<polygon fill="midnightblue" stroke="midnightblue" points="599.5,-259.05 609.93,-257.19 600.61,-252.14 599.5,-259.05"/>
</g>
<!-- Node16 -->
<g id="node16" class="node">
<title>Node16</title>
<g id="a_node16"><a xlink:href="class_perceptual_color_1_1_color_dialog.html#a64f6d0e30a627458ccb7bbf4a77ad42b" target="_top" xlink:title="React on focus changes.">
<polygon fill="white" stroke="black" points="391,-269.71 391,-299.71 548,-299.71 548,-269.71 391,-269.71"/>
<text text-anchor="start" x="399" y="-287.71" font-family="Helvetica,sans-Serif" font-size="10.00">PerceptualColor::ColorDialog</text>
<text text-anchor="middle" x="469.5" y="-276.71" font-family="Helvetica,sans-Serif" font-size="10.00">::handleFocusChange</text>
</a>
</g>
</g>
<!-- Node15&#45;&gt;Node16 -->
<g id="edge19" class="edge">
<title>Node15&#45;&gt;Node16</title>
<path fill="none" stroke="midnightblue" d="M599.78,-275.77C582.66,-276.96 564.82,-278.19 548.05,-279.35"/>
<polygon fill="midnightblue" stroke="midnightblue" points="600.04,-279.27 609.77,-275.08 599.55,-272.28 600.04,-279.27"/>
</g>
<!-- Node16&#45;&gt;Node3 -->
<g id="edge20" class="edge">
<title>Node16&#45;&gt;Node3</title>
<path fill="none" stroke="midnightblue" d="M415.33,-266.09C405.53,-262.46 395.41,-258.57 386,-254.71 357.72,-243.11 326.16,-228.52 303.52,-217.74"/>
<polygon fill="midnightblue" stroke="midnightblue" points="414.41,-269.48 425,-269.64 416.82,-262.91 414.41,-269.48"/>
</g>
<!-- Node17&#45;&gt;Node3 -->
<g id="edge23" class="edge">
<title>Node17&#45;&gt;Node3</title>
<path fill="none" stroke="midnightblue" d="M599.7,-209.81C525.74,-208.2 420.95,-205.93 350.04,-204.39"/>
<polygon fill="midnightblue" stroke="midnightblue" points="599.85,-213.31 609.93,-210.03 600.01,-206.31 599.85,-213.31"/>
</g>
<!-- Node19 -->
<g id="node19" class="node">
<title>Node19</title>
<g id="a_node19"><a xlink:href="class_perceptual_color_1_1_color_dialog.html#ad834c4b1975dd4b226a054497bd1ef47" target="_top" xlink:title="Reads the HSV numbers in the dialog and updates the dialog accordingly.">
<polygon fill="white" stroke="black" points="391,-94.71 391,-124.71 548,-124.71 548,-94.71 391,-94.71"/>
<text text-anchor="start" x="399" y="-112.71" font-family="Helvetica,sans-Serif" font-size="10.00">PerceptualColor::ColorDialog</text>
<text text-anchor="middle" x="469.5" y="-101.71" font-family="Helvetica,sans-Serif" font-size="10.00">::readHsvNumericValues</text>
</a>
</g>
</g>
<!-- Node18&#45;&gt;Node19 -->
<g id="edge26" class="edge">
<title>Node18&#45;&gt;Node19</title>
<path fill="none" stroke="midnightblue" d="M599.78,-124.01C582.66,-122.12 564.82,-120.14 548.05,-118.29"/>
<polygon fill="midnightblue" stroke="midnightblue" points="599.45,-127.49 609.77,-125.11 600.22,-120.54 599.45,-127.49"/>
</g>
<!-- Node20 -->
<g id="node20" class="node">
<title>Node20</title>
<g id="a_node20"><a xlink:href="class_perceptual_color_1_1_color_dialog.html#a4554999f424ac055986478fe8c899ae1" target="_top" xlink:title="Reads the hexadecimal RGB numbers in the dialog and updates the dialog accordingly.">
<polygon fill="white" stroke="black" points="391,-45.71 391,-75.71 548,-75.71 548,-45.71 391,-45.71"/>
<text text-anchor="start" x="399" y="-63.71" font-family="Helvetica,sans-Serif" font-size="10.00">PerceptualColor::ColorDialog</text>
<text text-anchor="middle" x="469.5" y="-52.71" font-family="Helvetica,sans-Serif" font-size="10.00">::readRgbHexValues</text>
</a>
</g>
</g>
<!-- Node18&#45;&gt;Node20 -->
<g id="edge28" class="edge">
<title>Node18&#45;&gt;Node20</title>
<path fill="none" stroke="midnightblue" d="M638.88,-115.12C613.44,-105.61 581.69,-94.1 553,-84.71 543.78,-81.7 533.93,-78.66 524.36,-75.82"/>
<polygon fill="midnightblue" stroke="midnightblue" points="637.72,-118.42 648.31,-118.65 640.17,-111.86 637.72,-118.42"/>
</g>
<!-- Node21 -->
<g id="node21" class="node">
<title>Node21</title>
<g id="a_node21"><a xlink:href="class_perceptual_color_1_1_color_dialog.html#a9bb8f87d25714fc283fdda98424030fe" target="_top" xlink:title="Reads the decimal RGB numbers in the dialog and updates the dialog accordingly.">
<polygon fill="white" stroke="black" points="391,-143.71 391,-173.71 548,-173.71 548,-143.71 391,-143.71"/>
<text text-anchor="start" x="399" y="-161.71" font-family="Helvetica,sans-Serif" font-size="10.00">PerceptualColor::ColorDialog</text>
<text text-anchor="middle" x="469.5" y="-150.71" font-family="Helvetica,sans-Serif" font-size="10.00">::readRgbNumericValues</text>
</a>
</g>
</g>
<!-- Node18&#45;&gt;Node21 -->
<g id="edge30" class="edge">
<title>Node18&#45;&gt;Node21</title>
<path fill="none" stroke="midnightblue" d="M599.78,-143.82C582.66,-145.79 564.82,-147.84 548.05,-149.78"/>
<polygon fill="midnightblue" stroke="midnightblue" points="600.24,-147.29 609.77,-142.67 599.44,-140.33 600.24,-147.29"/>
</g>
<!-- Node19&#45;&gt;Node3 -->
<g id="edge27" class="edge">
<title>Node19&#45;&gt;Node3</title>
<path fill="none" stroke="midnightblue" d="M399.87,-128.16C395.12,-129.9 390.46,-131.75 386,-133.71 352.02,-148.67 315.89,-172.1 293.75,-187.44"/>
<polygon fill="midnightblue" stroke="midnightblue" points="401.38,-131.34 409.67,-124.75 399.08,-124.73 401.38,-131.34"/>
</g>
<!-- Node20&#45;&gt;Node3 -->
<g id="edge29" class="edge">
<title>Node20&#45;&gt;Node3</title>
<path fill="none" stroke="midnightblue" d="M394.76,-79.95C391.74,-81.43 388.81,-83.01 386,-84.71 340.52,-112.22 300.92,-162.5 282.88,-187.61"/>
<polygon fill="midnightblue" stroke="midnightblue" points="396.31,-83.1 404.03,-75.84 393.47,-76.7 396.31,-83.1"/>
</g>
<!-- Node21&#45;&gt;Node3 -->
<g id="edge31" class="edge">
<title>Node21&#45;&gt;Node3</title>
<path fill="none" stroke="midnightblue" d="M391.58,-175.98C374.35,-179.85 356.22,-183.92 339.43,-187.68"/>
<polygon fill="midnightblue" stroke="midnightblue" points="392.61,-179.34 401.6,-173.73 391.07,-172.51 392.61,-179.34"/>
</g>
</g>
</svg>
