<?xml version="1.0" encoding="UTF-8" standalone="no"?>
<!DOCTYPE svg PUBLIC "-//W3C//DTD SVG 1.1//EN"
 "http://www.w3.org/Graphics/SVG/1.1/DTD/svg11.dtd">
<!-- Generated by graphviz version 2.43.0 (0)
 -->
<!-- Title: PerceptualColor::AlphaSelector::setAlphaFromRepresentationFormat Pages: 1 -->
<svg width="588pt" height="39pt"
 viewBox="0.00 0.00 588.00 39.00" xmlns="http://www.w3.org/2000/svg" xmlns:xlink="http://www.w3.org/1999/xlink">
<g id="graph0" class="graph" transform="scale(1 1) rotate(0) translate(4 35)">
<title>PerceptualColor::AlphaSelector::setAlphaFromRepresentationFormat</title>
<polygon fill="white" stroke="transparent" points="-4,4 -4,-35 584,-35 584,4 -4,4"/>
<!-- Node1 -->
<g id="node1" class="node">
<title>Node1</title>
<g id="a_node1"><a xlink:title=" ">
<polygon fill="#bfbfbf" stroke="black" points="0,-0.5 0,-30.5 199,-30.5 199,-0.5 0,-0.5"/>
<text text-anchor="start" x="8" y="-18.5" font-family="Helvetica,sans-Serif" font-size="10.00">PerceptualColor::AlphaSelector</text>
<text text-anchor="middle" x="99.5" y="-7.5" font-family="Helvetica,sans-Serif" font-size="10.00">::setAlphaFromRepresentationFormat</text>
</a>
</g>
</g>
<!-- Node2 -->
<g id="node2" class="node">
<title>Node2</title>
<g id="a_node2"><a xlink:href="class_perceptual_color_1_1_alpha_selector.html#a1f85608426b1828b131c058fa108fff7" target="_top" xlink:title=" ">
<polygon fill="white" stroke="black" points="235,-0.5 235,-30.5 402,-30.5 402,-0.5 235,-0.5"/>
<text text-anchor="start" x="243" y="-18.5" font-family="Helvetica,sans-Serif" font-size="10.00">PerceptualColor::AlphaSelector</text>
<text text-anchor="middle" x="318.5" y="-7.5" font-family="Helvetica,sans-Serif" font-size="10.00">::setAlpha</text>
</a>
</g>
</g>
<!-- Node1&#45;&gt;Node2 -->
<g id="edge1" class="edge">
<title>Node1&#45;&gt;Node2</title>
<path fill="none" stroke="midnightblue" d="M199.16,-15.5C207.67,-15.5 216.27,-15.5 224.74,-15.5"/>
<polygon fill="midnightblue" stroke="midnightblue" points="224.99,-19 234.99,-15.5 224.99,-12 224.99,-19"/>
</g>
<!-- Node3 -->
<g id="node3" class="node">
<title>Node3</title>
<g id="a_node3"><a xlink:href="class_perceptual_color_1_1_gradient_selector.html#a1548390b891333547c1dee97573be568" target="_top" xlink:title=" ">
<polygon fill="white" stroke="black" points="438,-0.5 438,-30.5 580,-30.5 580,-0.5 438,-0.5"/>
<text text-anchor="start" x="446" y="-18.5" font-family="Helvetica,sans-Serif" font-size="10.00">PerceptualColor::Gradient</text>
<text text-anchor="middle" x="509" y="-7.5" font-family="Helvetica,sans-Serif" font-size="10.00">Selector::setFraction</text>
</a>
</g>
</g>
<!-- Node2&#45;&gt;Node3 -->
<g id="edge2" class="edge">
<title>Node2&#45;&gt;Node3</title>
<path fill="none" stroke="midnightblue" d="M402.18,-15.5C410.62,-15.5 419.18,-15.5 427.6,-15.5"/>
<polygon fill="midnightblue" stroke="midnightblue" points="427.77,-19 437.77,-15.5 427.77,-12 427.77,-19"/>
</g>
</g>
</svg>
