<?xml version="1.0" encoding="UTF-8" standalone="no"?>
<!DOCTYPE svg PUBLIC "-//W3C//DTD SVG 1.1//EN"
 "http://www.w3.org/Graphics/SVG/1.1/DTD/svg11.dtd">
<!-- Generated by graphviz version 2.43.0 (0)
 -->
<!-- Title: PerceptualColor::SimpleColorWheel::mousePressEvent Pages: 1 -->
<svg width="794pt" height="197pt"
 viewBox="0.00 0.00 794.00 197.45" xmlns="http://www.w3.org/2000/svg" xmlns:xlink="http://www.w3.org/1999/xlink">
<g id="graph0" class="graph" transform="scale(1 1) rotate(0) translate(4 193.45)">
<title>PerceptualColor::SimpleColorWheel::mousePressEvent</title>
<polygon fill="white" stroke="transparent" points="-4,4 -4,-193.45 790,-193.45 790,4 -4,4"/>
<!-- Node1 -->
<g id="node1" class="node">
<title>Node1</title>
<g id="a_node1"><a xlink:title="React on a mouse press event.">
<polygon fill="#bfbfbf" stroke="black" points="0,-104.5 0,-134.5 159,-134.5 159,-104.5 0,-104.5"/>
<text text-anchor="start" x="8" y="-122.5" font-family="Helvetica,sans-Serif" font-size="10.00">PerceptualColor::SimpleColor</text>
<text text-anchor="middle" x="79.5" y="-111.5" font-family="Helvetica,sans-Serif" font-size="10.00">Wheel::mousePressEvent</text>
</a>
</g>
</g>
<!-- Node2 -->
<g id="node2" class="node">
<title>Node2</title>
<g id="a_node2"><a xlink:href="class_perceptual_color_1_1_polar_point_f.html#a882cd166affc603fc62241dcb3be4fd5" target="_top" xlink:title="Normalized angle.">
<polygon fill="white" stroke="black" points="637,-117.5 637,-147.5 786,-147.5 786,-117.5 637,-117.5"/>
<text text-anchor="start" x="645" y="-135.5" font-family="Helvetica,sans-Serif" font-size="10.00">PerceptualColor::PolarPoint</text>
<text text-anchor="middle" x="711.5" y="-124.5" font-family="Helvetica,sans-Serif" font-size="10.00">F::angleDegree</text>
</a>
</g>
</g>
<!-- Node1&#45;&gt;Node2 -->
<g id="edge1" class="edge">
<title>Node1&#45;&gt;Node2</title>
<path fill="none" stroke="midnightblue" d="M108.7,-134.71C131.31,-146 164.22,-160.43 195,-166.5 372.03,-201.42 422.55,-192.27 601,-165.5 620.97,-162.5 642.36,-156.68 660.89,-150.75"/>
<polygon fill="midnightblue" stroke="midnightblue" points="662.17,-154.01 670.57,-147.55 659.98,-147.36 662.17,-154.01"/>
</g>
<!-- Node3 -->
<g id="node3" class="node">
<title>Node3</title>
<g id="a_node3"><a xlink:href="class_perceptual_color_1_1_simple_color_wheel.html#a6fe09144d693f81d5c7d8306666bc2aa" target="_top" xlink:title="The diameter of the widget content.">
<polygon fill="white" stroke="black" points="442,-125.5 442,-155.5 601,-155.5 601,-125.5 442,-125.5"/>
<text text-anchor="start" x="450" y="-143.5" font-family="Helvetica,sans-Serif" font-size="10.00">PerceptualColor::SimpleColor</text>
<text text-anchor="middle" x="521.5" y="-132.5" font-family="Helvetica,sans-Serif" font-size="10.00">Wheel::contentDiameter</text>
</a>
</g>
</g>
<!-- Node1&#45;&gt;Node3 -->
<g id="edge2" class="edge">
<title>Node1&#45;&gt;Node3</title>
<path fill="none" stroke="midnightblue" d="M126.76,-134.51C147.4,-140.45 172.17,-146.56 195,-149.5 274.57,-159.75 365.94,-155.87 431.58,-150.38"/>
<polygon fill="midnightblue" stroke="midnightblue" points="432.23,-153.83 441.89,-149.48 431.63,-146.86 432.23,-153.83"/>
</g>
<!-- Node4 -->
<g id="node4" class="node">
<title>Node4</title>
<g id="a_node4"><a xlink:href="class_perceptual_color_1_1_simple_color_wheel.html#a59df6b50669b8b8b5aec2e190bd23aa8" target="_top" xlink:title="Converts window coordinates to wheel coordinates.">
<polygon fill="white" stroke="black" points="195,-99 195,-140 406,-140 406,-99 195,-99"/>
<text text-anchor="start" x="203" y="-128" font-family="Helvetica,sans-Serif" font-size="10.00">PerceptualColor::SimpleColor</text>
<text text-anchor="start" x="203" y="-117" font-family="Helvetica,sans-Serif" font-size="10.00">Wheel::fromWidgetCoordinatesToWheel</text>
<text text-anchor="middle" x="300.5" y="-106" font-family="Helvetica,sans-Serif" font-size="10.00">Coordinates</text>
</a>
</g>
</g>
<!-- Node1&#45;&gt;Node4 -->
<g id="edge3" class="edge">
<title>Node1&#45;&gt;Node4</title>
<path fill="none" stroke="midnightblue" d="M159.25,-119.5C167.54,-119.5 176.08,-119.5 184.66,-119.5"/>
<polygon fill="midnightblue" stroke="midnightblue" points="184.75,-123 194.75,-119.5 184.75,-116 184.75,-123"/>
</g>
<!-- Node5 -->
<g id="node5" class="node">
<title>Node5</title>
<g id="a_node5"><a xlink:href="class_perceptual_color_1_1_polar_point_f.html#ad9e45debe2dc38bbba834d791336f1fd" target="_top" xlink:title="Normalized radial.">
<polygon fill="white" stroke="black" points="226,-49.5 226,-79.5 375,-79.5 375,-49.5 226,-49.5"/>
<text text-anchor="start" x="234" y="-67.5" font-family="Helvetica,sans-Serif" font-size="10.00">PerceptualColor::PolarPoint</text>
<text text-anchor="middle" x="300.5" y="-56.5" font-family="Helvetica,sans-Serif" font-size="10.00">F::radial</text>
</a>
</g>
</g>
<!-- Node1&#45;&gt;Node5 -->
<g id="edge5" class="edge">
<title>Node1&#45;&gt;Node5</title>
<path fill="none" stroke="midnightblue" d="M136.93,-104.46C155.41,-99.6 176.06,-94.25 195,-89.5 204.94,-87.01 215.43,-84.44 225.77,-81.93"/>
<polygon fill="midnightblue" stroke="midnightblue" points="226.72,-85.3 235.62,-79.55 225.08,-78.5 226.72,-85.3"/>
</g>
<!-- Node6 -->
<g id="node6" class="node">
<title>Node6</title>
<g id="a_node6"><a xlink:href="class_perceptual_color_1_1_simple_color_wheel.html#aa9eec6e96f6069be6d983d1c854644d1" target="_top" xlink:title=" ">
<polygon fill="white" stroke="black" points="221,-0.5 221,-30.5 380,-30.5 380,-0.5 221,-0.5"/>
<text text-anchor="start" x="229" y="-18.5" font-family="Helvetica,sans-Serif" font-size="10.00">PerceptualColor::SimpleColor</text>
<text text-anchor="middle" x="300.5" y="-7.5" font-family="Helvetica,sans-Serif" font-size="10.00">Wheel::setHue</text>
</a>
</g>
</g>
<!-- Node1&#45;&gt;Node6 -->
<g id="edge6" class="edge">
<title>Node1&#45;&gt;Node6</title>
<path fill="none" stroke="midnightblue" d="M97.45,-104.46C118.74,-86.37 157.1,-56.33 195,-39.5 200.1,-37.23 205.45,-35.17 210.9,-33.29"/>
<polygon fill="midnightblue" stroke="midnightblue" points="212.37,-36.5 220.82,-30.11 210.23,-29.83 212.37,-36.5"/>
</g>
<!-- Node4&#45;&gt;Node3 -->
<g id="edge4" class="edge">
<title>Node4&#45;&gt;Node3</title>
<path fill="none" stroke="midnightblue" d="M406.19,-129.54C414.71,-130.36 423.27,-131.18 431.67,-131.98"/>
<polygon fill="midnightblue" stroke="midnightblue" points="431.52,-135.48 441.81,-132.95 432.18,-128.52 431.52,-135.48"/>
</g>
<!-- Node7 -->
<g id="node7" class="node">
<title>Node7</title>
<g id="a_node7"><a xlink:href="class_perceptual_color_1_1_polar_point_f.html#a9eefd08d3a5ad536232292380f958804" target="_top" xlink:title="Normalizes an angle.">
<polygon fill="white" stroke="black" points="447,-49.5 447,-79.5 596,-79.5 596,-49.5 447,-49.5"/>
<text text-anchor="start" x="455" y="-67.5" font-family="Helvetica,sans-Serif" font-size="10.00">PerceptualColor::PolarPoint</text>
<text text-anchor="middle" x="521.5" y="-56.5" font-family="Helvetica,sans-Serif" font-size="10.00">F::normalizedAngleDegree</text>
</a>
</g>
</g>
<!-- Node6&#45;&gt;Node7 -->
<g id="edge7" class="edge">
<title>Node6&#45;&gt;Node7</title>
<path fill="none" stroke="midnightblue" d="M368.7,-30.53C392.34,-35.83 419.1,-41.81 443.5,-47.27"/>
<polygon fill="midnightblue" stroke="midnightblue" points="442.91,-50.73 453.43,-49.49 444.44,-43.89 442.91,-50.73"/>
</g>
<!-- Node7&#45;&gt;Node2 -->
<g id="edge8" class="edge">
<title>Node7&#45;&gt;Node2</title>
<path fill="none" stroke="midnightblue" d="M564.22,-79.59C592.34,-89.76 629.59,-103.24 659.47,-114.04"/>
<polygon fill="midnightblue" stroke="midnightblue" points="658.3,-117.34 668.89,-117.45 660.68,-110.76 658.3,-117.34"/>
</g>
</g>
</svg>
