<?xml version="1.0" encoding="UTF-8" standalone="no"?>
<!DOCTYPE svg PUBLIC "-//W3C//DTD SVG 1.1//EN"
 "http://www.w3.org/Graphics/SVG/1.1/DTD/svg11.dtd">
<!-- Generated by graphviz version 2.43.0 (0)
 -->
<!-- Title: PerceptualColor::PolarPointF::angleDegree Pages: 1 -->
<svg width="1895pt" height="681pt"
 viewBox="0.00 0.00 1895.00 681.00" xmlns="http://www.w3.org/2000/svg" xmlns:xlink="http://www.w3.org/1999/xlink">
<g id="graph0" class="graph" transform="scale(1 1) rotate(0) translate(4 677)">
<title>PerceptualColor::PolarPointF::angleDegree</title>
<polygon fill="white" stroke="transparent" points="-4,4 -4,-677 1891,-677 1891,4 -4,4"/>
<!-- Node1 -->
<g id="node1" class="node">
<title>Node1</title>
<g id="a_node1"><a xlink:title="Normalized angle.">
<polygon fill="#bfbfbf" stroke="black" points="1738,-456.5 1738,-486.5 1887,-486.5 1887,-456.5 1738,-456.5"/>
<text text-anchor="start" x="1746" y="-474.5" font-family="Helvetica,sans-Serif" font-size="10.00">PerceptualColor::PolarPoint</text>
<text text-anchor="middle" x="1812.5" y="-463.5" font-family="Helvetica,sans-Serif" font-size="10.00">F::angleDegree</text>
</a>
</g>
</g>
<!-- Node2 -->
<g id="node2" class="node">
<title>Node2</title>
<g id="a_node2"><a xlink:href="class_perceptual_color_1_1_simple_color_wheel.html#acff6e0159f9cb6c41c0bbedb9f6da1c4" target="_top" xlink:title="Generates an image of a color wheel.">
<polygon fill="white" stroke="black" points="1543,-557.5 1543,-587.5 1702,-587.5 1702,-557.5 1543,-557.5"/>
<text text-anchor="start" x="1551" y="-575.5" font-family="Helvetica,sans-Serif" font-size="10.00">PerceptualColor::SimpleColor</text>
<text text-anchor="middle" x="1622.5" y="-564.5" font-family="Helvetica,sans-Serif" font-size="10.00">Wheel::generateWheelImage</text>
</a>
</g>
</g>
<!-- Node1&#45;&gt;Node2 -->
<g id="edge1" class="edge">
<title>Node1&#45;&gt;Node2</title>
<path fill="none" stroke="midnightblue" d="M1782.53,-492.69C1761.02,-507.82 1730.58,-527.98 1702,-542.5 1691.2,-547.99 1679.16,-553.07 1667.8,-557.43"/>
<polygon fill="midnightblue" stroke="midnightblue" points="1784.77,-495.4 1790.89,-486.75 1780.71,-489.69 1784.77,-495.4"/>
</g>
<!-- Node4 -->
<g id="node4" class="node">
<title>Node4</title>
<g id="a_node4"><a xlink:href="class_perceptual_color_1_1_chroma_hue_diagram.html#ad7709d55647d4a6842f34a5dd10cb2a9" target="_top" xlink:title="Paint the widget.">
<polygon fill="white" stroke="black" points="1114.5,-642.5 1114.5,-672.5 1272.5,-672.5 1272.5,-642.5 1114.5,-642.5"/>
<text text-anchor="start" x="1122.5" y="-660.5" font-family="Helvetica,sans-Serif" font-size="10.00">PerceptualColor::ChromaHue</text>
<text text-anchor="middle" x="1193.5" y="-649.5" font-family="Helvetica,sans-Serif" font-size="10.00">Diagram::paintEvent</text>
</a>
</g>
</g>
<!-- Node1&#45;&gt;Node4 -->
<g id="edge61" class="edge">
<title>Node1&#45;&gt;Node4</title>
<path fill="none" stroke="midnightblue" d="M1797.41,-495.15C1779.08,-523.81 1744.34,-571.5 1702,-597.5 1568.75,-679.34 1378.43,-676.93 1272.77,-667.49"/>
<polygon fill="midnightblue" stroke="midnightblue" points="1800.45,-496.9 1802.77,-486.56 1794.51,-493.19 1800.45,-496.9"/>
</g>
<!-- Node7 -->
<g id="node7" class="node">
<title>Node7</title>
<g id="a_node7"><a xlink:href="class_perceptual_color_1_1_simple_color_wheel.html#abe3135d19fc45216402f78bce2cf85f3" target="_top" xlink:title="React on a mouse move event.">
<polygon fill="white" stroke="black" points="1114,-530.5 1114,-560.5 1273,-560.5 1273,-530.5 1114,-530.5"/>
<text text-anchor="start" x="1122" y="-548.5" font-family="Helvetica,sans-Serif" font-size="10.00">PerceptualColor::SimpleColor</text>
<text text-anchor="middle" x="1193.5" y="-537.5" font-family="Helvetica,sans-Serif" font-size="10.00">Wheel::mouseMoveEvent</text>
</a>
</g>
</g>
<!-- Node1&#45;&gt;Node7 -->
<g id="edge6" class="edge">
<title>Node1&#45;&gt;Node7</title>
<path fill="none" stroke="midnightblue" d="M1735.84,-488.49C1724.53,-490.71 1712.99,-492.8 1702,-494.5 1551.05,-517.87 1373.1,-532.9 1273.08,-540.22"/>
<polygon fill="midnightblue" stroke="midnightblue" points="1736.58,-491.91 1745.7,-486.51 1735.21,-485.05 1736.58,-491.91"/>
</g>
<!-- Node8 -->
<g id="node8" class="node">
<title>Node8</title>
<g id="a_node8"><a xlink:href="class_perceptual_color_1_1_simple_color_wheel.html#a8e6801f8291ff6214d93d56d0ec59e22" target="_top" xlink:title="React on a mouse press event.">
<polygon fill="white" stroke="black" points="1114,-481.5 1114,-511.5 1273,-511.5 1273,-481.5 1114,-481.5"/>
<text text-anchor="start" x="1122" y="-499.5" font-family="Helvetica,sans-Serif" font-size="10.00">PerceptualColor::SimpleColor</text>
<text text-anchor="middle" x="1193.5" y="-488.5" font-family="Helvetica,sans-Serif" font-size="10.00">Wheel::mousePressEvent</text>
</a>
</g>
</g>
<!-- Node1&#45;&gt;Node8 -->
<g id="edge7" class="edge">
<title>Node1&#45;&gt;Node8</title>
<path fill="none" stroke="midnightblue" d="M1727.71,-475.38C1719.03,-475.77 1710.34,-476.15 1702,-476.5 1550.25,-482.95 1372.95,-489.78 1273.19,-493.55"/>
<polygon fill="midnightblue" stroke="midnightblue" points="1728.04,-478.87 1737.88,-474.92 1727.73,-471.88 1728.04,-478.87"/>
</g>
<!-- Node9 -->
<g id="node9" class="node">
<title>Node9</title>
<g id="a_node9"><a xlink:href="class_perceptual_color_1_1_simple_color_wheel.html#af9f91c60348e415b8726732231230fd0" target="_top" xlink:title="React on a mouse release event.">
<polygon fill="white" stroke="black" points="1114,-432.5 1114,-462.5 1273,-462.5 1273,-432.5 1114,-432.5"/>
<text text-anchor="start" x="1122" y="-450.5" font-family="Helvetica,sans-Serif" font-size="10.00">PerceptualColor::SimpleColor</text>
<text text-anchor="middle" x="1193.5" y="-439.5" font-family="Helvetica,sans-Serif" font-size="10.00">Wheel::mouseReleaseEvent</text>
</a>
</g>
</g>
<!-- Node1&#45;&gt;Node9 -->
<g id="edge8" class="edge">
<title>Node1&#45;&gt;Node9</title>
<path fill="none" stroke="midnightblue" d="M1727.8,-468.24C1608.24,-463.59 1390.16,-455.11 1273.35,-450.57"/>
<polygon fill="midnightblue" stroke="midnightblue" points="1727.87,-471.75 1737.99,-468.64 1728.14,-464.75 1727.87,-471.75"/>
</g>
<!-- Node10 -->
<g id="node10" class="node">
<title>Node10</title>
<g id="a_node10"><a xlink:href="class_perceptual_color_1_1_polar_point_f.html#a9eefd08d3a5ad536232292380f958804" target="_top" xlink:title="Normalizes an angle.">
<polygon fill="white" stroke="black" points="1548,-393.5 1548,-423.5 1697,-423.5 1697,-393.5 1548,-393.5"/>
<text text-anchor="start" x="1556" y="-411.5" font-family="Helvetica,sans-Serif" font-size="10.00">PerceptualColor::PolarPoint</text>
<text text-anchor="middle" x="1622.5" y="-400.5" font-family="Helvetica,sans-Serif" font-size="10.00">F::normalizedAngleDegree</text>
</a>
</g>
</g>
<!-- Node1&#45;&gt;Node10 -->
<g id="edge9" class="edge">
<title>Node1&#45;&gt;Node10</title>
<path fill="none" stroke="midnightblue" d="M1756.81,-453.17C1728.76,-443.77 1695.01,-432.46 1668.49,-423.58"/>
<polygon fill="midnightblue" stroke="midnightblue" points="1755.88,-456.55 1766.47,-456.41 1758.1,-449.91 1755.88,-456.55"/>
</g>
<!-- Node41 -->
<g id="node41" class="node">
<title>Node41</title>
<g id="a_node41"><a xlink:href="class_perceptual_color_1_1_full_color_description.html#aa9eb9b1edc15f59182dbad8add233291" target="_top" xlink:title=" ">
<polygon fill="white" stroke="black" points="1551,-344.5 1551,-374.5 1694,-374.5 1694,-344.5 1551,-344.5"/>
<text text-anchor="start" x="1559" y="-362.5" font-family="Helvetica,sans-Serif" font-size="10.00">PerceptualColor::FullColor</text>
<text text-anchor="middle" x="1622.5" y="-351.5" font-family="Helvetica,sans-Serif" font-size="10.00">Description::normalizeLch</text>
</a>
</g>
</g>
<!-- Node1&#45;&gt;Node41 -->
<g id="edge58" class="edge">
<title>Node1&#45;&gt;Node41</title>
<path fill="none" stroke="midnightblue" d="M1789.13,-449.2C1768.2,-429.45 1735.26,-401.1 1702,-383.5 1695.7,-380.17 1688.87,-377.22 1681.95,-374.64"/>
<polygon fill="midnightblue" stroke="midnightblue" points="1786.9,-451.91 1796.54,-456.31 1791.74,-446.86 1786.9,-451.91"/>
</g>
<!-- Node43 -->
<g id="node43" class="node">
<title>Node43</title>
<g id="a_node43"><a xlink:href="namespace_perceptual_color.html#a7636e0ac59a0d18af45252df7c81bca1" target="_top" xlink:title="Adds QDebug() support for this data type.">
<polygon fill="white" stroke="black" points="1543.5,-306 1543.5,-325 1701.5,-325 1701.5,-306 1543.5,-306"/>
<text text-anchor="middle" x="1622.5" y="-313" font-family="Helvetica,sans-Serif" font-size="10.00">PerceptualColor::operator&lt;&lt;</text>
</a>
</g>
</g>
<!-- Node1&#45;&gt;Node43 -->
<g id="edge60" class="edge">
<title>Node1&#45;&gt;Node43</title>
<path fill="none" stroke="midnightblue" d="M1799.02,-447.58C1781.58,-416.57 1746.92,-363.1 1702,-334.5 1695.85,-330.58 1688.96,-327.47 1681.88,-325.01"/>
<polygon fill="midnightblue" stroke="midnightblue" points="1796,-449.34 1803.88,-456.43 1802.13,-445.98 1796,-449.34"/>
</g>
<!-- Node3 -->
<g id="node3" class="node">
<title>Node3</title>
<g id="a_node3"><a xlink:href="class_perceptual_color_1_1_chroma_hue_diagram.html#a7d8f858f515726d5e171b8e150c6ec2b" target="_top" xlink:title="Refresh the wheel and associated data.">
<polygon fill="white" stroke="black" points="1335,-606.5 1335,-636.5 1494,-636.5 1494,-606.5 1335,-606.5"/>
<text text-anchor="start" x="1343" y="-624.5" font-family="Helvetica,sans-Serif" font-size="10.00">PerceptualColor::ChromaHue</text>
<text text-anchor="middle" x="1414.5" y="-613.5" font-family="Helvetica,sans-Serif" font-size="10.00">Diagram::updateWheelCache</text>
</a>
</g>
</g>
<!-- Node2&#45;&gt;Node3 -->
<g id="edge2" class="edge">
<title>Node2&#45;&gt;Node3</title>
<path fill="none" stroke="midnightblue" d="M1548.33,-589.9C1525.54,-595.32 1500.62,-601.25 1478.59,-606.49"/>
<polygon fill="midnightblue" stroke="midnightblue" points="1549.37,-593.25 1558.29,-587.53 1547.75,-586.44 1549.37,-593.25"/>
</g>
<!-- Node5 -->
<g id="node5" class="node">
<title>Node5</title>
<g id="a_node5"><a xlink:href="class_perceptual_color_1_1_simple_color_wheel.html#ac454a7cd994298cad632b343c2efe6ba" target="_top" xlink:title="Refresh the wheel ribbon pixmap.">
<polygon fill="white" stroke="black" points="1335,-557.5 1335,-587.5 1494,-587.5 1494,-557.5 1335,-557.5"/>
<text text-anchor="start" x="1343" y="-575.5" font-family="Helvetica,sans-Serif" font-size="10.00">PerceptualColor::SimpleColor</text>
<text text-anchor="middle" x="1414.5" y="-564.5" font-family="Helvetica,sans-Serif" font-size="10.00">Wheel::updateWheelImage</text>
</a>
</g>
</g>
<!-- Node2&#45;&gt;Node5 -->
<g id="edge4" class="edge">
<title>Node2&#45;&gt;Node5</title>
<path fill="none" stroke="midnightblue" d="M1532.58,-572.5C1519.82,-572.5 1506.76,-572.5 1494.22,-572.5"/>
<polygon fill="midnightblue" stroke="midnightblue" points="1532.74,-576 1542.74,-572.5 1532.74,-569 1532.74,-576"/>
</g>
<!-- Node3&#45;&gt;Node4 -->
<g id="edge3" class="edge">
<title>Node3&#45;&gt;Node4</title>
<path fill="none" stroke="midnightblue" d="M1324.68,-636.1C1307.41,-638.94 1289.44,-641.89 1272.56,-644.67"/>
<polygon fill="midnightblue" stroke="midnightblue" points="1325.45,-639.52 1334.75,-634.45 1324.31,-632.61 1325.45,-639.52"/>
</g>
<!-- Node6 -->
<g id="node6" class="node">
<title>Node6</title>
<g id="a_node6"><a xlink:href="class_perceptual_color_1_1_simple_color_wheel.html#acec7e14aa3949bb3a1afd03a9d9cc15b" target="_top" xlink:title="Paint the widget.">
<polygon fill="white" stroke="black" points="1114,-579.5 1114,-609.5 1273,-609.5 1273,-579.5 1114,-579.5"/>
<text text-anchor="start" x="1122" y="-597.5" font-family="Helvetica,sans-Serif" font-size="10.00">PerceptualColor::SimpleColor</text>
<text text-anchor="middle" x="1193.5" y="-586.5" font-family="Helvetica,sans-Serif" font-size="10.00">Wheel::paintEvent</text>
</a>
</g>
</g>
<!-- Node5&#45;&gt;Node6 -->
<g id="edge5" class="edge">
<title>Node5&#45;&gt;Node6</title>
<path fill="none" stroke="midnightblue" d="M1324.32,-581.46C1307.42,-583.16 1289.85,-584.92 1273.29,-586.58"/>
<polygon fill="midnightblue" stroke="midnightblue" points="1325.15,-584.89 1334.75,-580.41 1324.45,-577.93 1325.15,-584.89"/>
</g>
<!-- Node11 -->
<g id="node11" class="node">
<title>Node11</title>
<g id="a_node11"><a xlink:href="class_perceptual_color_1_1_chroma_lightness_diagram.html#ae0395993434db2cd0d74b146fed6621c" target="_top" xlink:title="Generates an image of a chroma&#45;lightness diagram.">
<polygon fill="white" stroke="black" points="1322,-344.5 1322,-374.5 1507,-374.5 1507,-344.5 1322,-344.5"/>
<text text-anchor="start" x="1330" y="-362.5" font-family="Helvetica,sans-Serif" font-size="10.00">PerceptualColor::ChromaLightness</text>
<text text-anchor="middle" x="1414.5" y="-351.5" font-family="Helvetica,sans-Serif" font-size="10.00">Diagram::generateDiagramImage</text>
</a>
</g>
</g>
<!-- Node10&#45;&gt;Node11 -->
<g id="edge10" class="edge">
<title>Node10&#45;&gt;Node11</title>
<path fill="none" stroke="midnightblue" d="M1548.33,-391.1C1525.54,-385.68 1500.62,-379.75 1478.59,-374.51"/>
<polygon fill="midnightblue" stroke="midnightblue" points="1547.75,-394.56 1558.29,-393.47 1549.37,-387.75 1547.75,-394.56"/>
</g>
<!-- Node22 -->
<g id="node22" class="node">
<title>Node22</title>
<g id="a_node22"><a xlink:href="class_perceptual_color_1_1_polar_point_f.html#a56a3e441f1d5d64d9eceab4bb443d5dc" target="_top" xlink:title="Constructor.">
<polygon fill="white" stroke="black" points="1340,-295.5 1340,-325.5 1489,-325.5 1489,-295.5 1340,-295.5"/>
<text text-anchor="start" x="1348" y="-313.5" font-family="Helvetica,sans-Serif" font-size="10.00">PerceptualColor::PolarPoint</text>
<text text-anchor="middle" x="1414.5" y="-302.5" font-family="Helvetica,sans-Serif" font-size="10.00">F::PolarPointF</text>
</a>
</g>
</g>
<!-- Node10&#45;&gt;Node22 -->
<g id="edge29" class="edge">
<title>Node10&#45;&gt;Node22</title>
<path fill="none" stroke="midnightblue" d="M1551.43,-388.84C1548.5,-387.19 1545.67,-385.42 1543,-383.5 1521.05,-367.74 1529.35,-349.69 1507,-334.5 1501.57,-330.81 1495.6,-327.68 1489.39,-325.04"/>
<polygon fill="midnightblue" stroke="midnightblue" points="1549.97,-392.02 1560.48,-393.38 1553.11,-385.77 1549.97,-392.02"/>
</g>
<!-- Node23 -->
<g id="node23" class="node">
<title>Node23</title>
<g id="a_node23"><a xlink:href="class_perceptual_color_1_1_simple_color_wheel.html#aa9eec6e96f6069be6d983d1c854644d1" target="_top" xlink:title=" ">
<polygon fill="white" stroke="black" points="1335,-393.5 1335,-423.5 1494,-423.5 1494,-393.5 1335,-393.5"/>
<text text-anchor="start" x="1343" y="-411.5" font-family="Helvetica,sans-Serif" font-size="10.00">PerceptualColor::SimpleColor</text>
<text text-anchor="middle" x="1414.5" y="-400.5" font-family="Helvetica,sans-Serif" font-size="10.00">Wheel::setHue</text>
</a>
</g>
</g>
<!-- Node10&#45;&gt;Node23 -->
<g id="edge30" class="edge">
<title>Node10&#45;&gt;Node23</title>
<path fill="none" stroke="midnightblue" d="M1537.44,-408.5C1523.2,-408.5 1508.45,-408.5 1494.35,-408.5"/>
<polygon fill="midnightblue" stroke="midnightblue" points="1537.71,-412 1547.71,-408.5 1537.71,-405 1537.71,-412"/>
</g>
<!-- Node12 -->
<g id="node12" class="node">
<title>Node12</title>
<g id="a_node12"><a xlink:href="class_perceptual_color_1_1_chroma_lightness_diagram.html#a7d48f62249ffee09f55edfd3c127eb84" target="_top" xlink:title="Refresh the diagram and associated data.">
<polygon fill="white" stroke="black" points="1101,-144.5 1101,-174.5 1286,-174.5 1286,-144.5 1101,-144.5"/>
<text text-anchor="start" x="1109" y="-162.5" font-family="Helvetica,sans-Serif" font-size="10.00">PerceptualColor::ChromaLightness</text>
<text text-anchor="middle" x="1193.5" y="-151.5" font-family="Helvetica,sans-Serif" font-size="10.00">Diagram::updateDiagramCache</text>
</a>
</g>
</g>
<!-- Node11&#45;&gt;Node12 -->
<g id="edge11" class="edge">
<title>Node11&#45;&gt;Node12</title>
<path fill="none" stroke="midnightblue" d="M1327.21,-338.91C1325.39,-337.53 1323.65,-336.06 1322,-334.5 1285.25,-299.72 1315.82,-267.38 1286,-226.5 1269.75,-204.23 1243.91,-186.28 1223.83,-174.59"/>
<polygon fill="midnightblue" stroke="midnightblue" points="1325.3,-341.85 1335.59,-344.39 1329.13,-335.99 1325.3,-341.85"/>
</g>
<!-- Node13 -->
<g id="node13" class="node">
<title>Node13</title>
<g id="a_node13"><a xlink:href="class_perceptual_color_1_1_chroma_lightness_diagram.html#a9f6471b44d4f4eba95914945bc53037a" target="_top" xlink:title=" ">
<polygon fill="white" stroke="black" points="858,-188.5 858,-218.5 1046,-218.5 1046,-188.5 858,-188.5"/>
<text text-anchor="start" x="866" y="-206.5" font-family="Helvetica,sans-Serif" font-size="10.00">PerceptualColor::ChromaLightness</text>
<text text-anchor="middle" x="952" y="-195.5" font-family="Helvetica,sans-Serif" font-size="10.00">Diagram::currentImageCoordinates</text>
</a>
</g>
</g>
<!-- Node12&#45;&gt;Node13 -->
<g id="edge12" class="edge">
<title>Node12&#45;&gt;Node13</title>
<path fill="none" stroke="midnightblue" d="M1100.86,-176.34C1079.12,-180.33 1056.06,-184.57 1034.79,-188.47"/>
<polygon fill="midnightblue" stroke="midnightblue" points="1101.54,-179.77 1110.75,-174.52 1100.28,-172.88 1101.54,-179.77"/>
</g>
<!-- Node14 -->
<g id="node14" class="node">
<title>Node14</title>
<g id="a_node14"><a xlink:href="class_perceptual_color_1_1_chroma_lightness_diagram.html#abd23775803f181201fefbdcc08378ab8" target="_top" xlink:title="React on key press events.">
<polygon fill="white" stroke="black" points="386,-147.5 386,-177.5 571,-177.5 571,-147.5 386,-147.5"/>
<text text-anchor="start" x="394" y="-165.5" font-family="Helvetica,sans-Serif" font-size="10.00">PerceptualColor::ChromaLightness</text>
<text text-anchor="middle" x="478.5" y="-154.5" font-family="Helvetica,sans-Serif" font-size="10.00">Diagram::keyPressEvent</text>
</a>
</g>
</g>
<!-- Node12&#45;&gt;Node14 -->
<g id="edge26" class="edge">
<title>Node12&#45;&gt;Node14</title>
<path fill="none" stroke="midnightblue" d="M1090.52,-159.93C951.51,-160.51 704.61,-161.55 571.18,-162.11"/>
<polygon fill="midnightblue" stroke="midnightblue" points="1090.76,-163.43 1100.75,-159.89 1090.73,-156.43 1090.76,-163.43"/>
</g>
<!-- Node15 -->
<g id="node15" class="node">
<title>Node15</title>
<g id="a_node15"><a xlink:href="class_perceptual_color_1_1_chroma_lightness_diagram.html#a82c4e4f64c0d5e9307d767f2bfa052db" target="_top" xlink:title="Paint the widget.">
<polygon fill="white" stroke="black" points="612.5,-226.5 612.5,-256.5 797.5,-256.5 797.5,-226.5 612.5,-226.5"/>
<text text-anchor="start" x="620.5" y="-244.5" font-family="Helvetica,sans-Serif" font-size="10.00">PerceptualColor::ChromaLightness</text>
<text text-anchor="middle" x="705" y="-233.5" font-family="Helvetica,sans-Serif" font-size="10.00">Diagram::paintEvent</text>
</a>
</g>
</g>
<!-- Node12&#45;&gt;Node15 -->
<g id="edge27" class="edge">
<title>Node12&#45;&gt;Node15</title>
<path fill="none" stroke="midnightblue" d="M1162.63,-180.47C1137.77,-196.63 1100.8,-217.81 1065,-227.5 976.5,-251.47 871.26,-252.53 797.69,-249.08"/>
<polygon fill="midnightblue" stroke="midnightblue" points="1164.81,-183.21 1171.21,-174.77 1160.94,-177.38 1164.81,-183.21"/>
</g>
<!-- Node16 -->
<g id="node16" class="node">
<title>Node16</title>
<g id="a_node16"><a xlink:href="class_perceptual_color_1_1_chroma_lightness_diagram.html#ac9b6d25ecc2c6a954f1ba361960458b1" target="_top" xlink:title=" ">
<polygon fill="white" stroke="black" points="612.5,-98.5 612.5,-128.5 797.5,-128.5 797.5,-98.5 612.5,-98.5"/>
<text text-anchor="start" x="620.5" y="-116.5" font-family="Helvetica,sans-Serif" font-size="10.00">PerceptualColor::ChromaLightness</text>
<text text-anchor="middle" x="705" y="-105.5" font-family="Helvetica,sans-Serif" font-size="10.00">Diagram::setImageCoordinates</text>
</a>
</g>
</g>
<!-- Node12&#45;&gt;Node16 -->
<g id="edge28" class="edge">
<title>Node12&#45;&gt;Node16</title>
<path fill="none" stroke="midnightblue" d="M1090.73,-148.14C1082.03,-147.22 1073.36,-146.33 1065,-145.5 974.09,-136.46 870.11,-127.32 797.53,-121.14"/>
<polygon fill="midnightblue" stroke="midnightblue" points="1090.63,-151.65 1100.94,-149.22 1091.37,-144.68 1090.63,-151.65"/>
</g>
<!-- Node20 -->
<g id="node20" class="node">
<title>Node20</title>
<g id="a_node20"><a xlink:href="class_perceptual_color_1_1_chroma_lightness_diagram.html#a9bfa53bcbfd4010c082294c9cfb5b2eb" target="_top" xlink:title=" ">
<polygon fill="white" stroke="black" points="839,-52 839,-93 1065,-93 1065,-52 839,-52"/>
<text text-anchor="start" x="847" y="-81" font-family="Helvetica,sans-Serif" font-size="10.00">PerceptualColor::ChromaLightness</text>
<text text-anchor="start" x="847" y="-70" font-family="Helvetica,sans-Serif" font-size="10.00">Diagram::fromImageCoordinatesToChroma</text>
<text text-anchor="middle" x="952" y="-59" font-family="Helvetica,sans-Serif" font-size="10.00">Lightness</text>
</a>
</g>
</g>
<!-- Node12&#45;&gt;Node20 -->
<g id="edge20" class="edge">
<title>Node12&#45;&gt;Node20</title>
<path fill="none" stroke="midnightblue" d="M1148.55,-140.51C1124.14,-130.23 1093.1,-117.6 1065,-107.5 1051.2,-102.54 1036.3,-97.6 1022.01,-93.06"/>
<polygon fill="midnightblue" stroke="midnightblue" points="1147.33,-143.79 1157.9,-144.46 1150.06,-137.34 1147.33,-143.79"/>
</g>
<!-- Node21 -->
<g id="node21" class="node">
<title>Node21</title>
<g id="a_node21"><a xlink:href="class_perceptual_color_1_1_chroma_lightness_diagram.html#a00a13ef1aa732e2f16d0d9f371aa4746" target="_top" xlink:title="Tests if image coordinates are in gamut.">
<polygon fill="white" stroke="black" points="607,-29.5 607,-59.5 803,-59.5 803,-29.5 607,-29.5"/>
<text text-anchor="start" x="615" y="-47.5" font-family="Helvetica,sans-Serif" font-size="10.00">PerceptualColor::ChromaLightness</text>
<text text-anchor="middle" x="705" y="-36.5" font-family="Helvetica,sans-Serif" font-size="10.00">Diagram::imageCoordinatesInGamut</text>
</a>
</g>
</g>
<!-- Node12&#45;&gt;Node21 -->
<g id="edge22" class="edge">
<title>Node12&#45;&gt;Node21</title>
<path fill="none" stroke="midnightblue" d="M1175.95,-136.12C1154.25,-107.72 1113.21,-61.27 1065,-42.5 969.89,-5.48 849.57,-16.63 775.2,-29.48"/>
<polygon fill="midnightblue" stroke="midnightblue" points="1173.27,-138.38 1182.05,-144.31 1178.88,-134.2 1173.27,-138.38"/>
</g>
<!-- Node13&#45;&gt;Node14 -->
<g id="edge13" class="edge">
<title>Node13&#45;&gt;Node14</title>
<path fill="none" stroke="midnightblue" d="M847.69,-194.52C765.16,-187.34 650.58,-177.38 571.26,-170.48"/>
<polygon fill="midnightblue" stroke="midnightblue" points="847.58,-198.02 857.85,-195.4 848.19,-191.05 847.58,-198.02"/>
</g>
<!-- Node13&#45;&gt;Node15 -->
<g id="edge14" class="edge">
<title>Node13&#45;&gt;Node15</title>
<path fill="none" stroke="midnightblue" d="M847.48,-219.56C831,-222.11 814.04,-224.74 797.85,-227.25"/>
<polygon fill="midnightblue" stroke="midnightblue" points="848.33,-222.97 857.68,-217.97 847.26,-216.05 848.33,-222.97"/>
</g>
<!-- Node13&#45;&gt;Node16 -->
<g id="edge15" class="edge">
<title>Node13&#45;&gt;Node16</title>
<path fill="none" stroke="midnightblue" d="M900.35,-184.9C855,-168.24 789.33,-144.11 747.14,-128.61"/>
<polygon fill="midnightblue" stroke="midnightblue" points="899.4,-188.27 909.99,-188.44 901.81,-181.7 899.4,-188.27"/>
</g>
<!-- Node16&#45;&gt;Node14 -->
<g id="edge16" class="edge">
<title>Node16&#45;&gt;Node14</title>
<path fill="none" stroke="midnightblue" d="M625.26,-130.69C600.16,-136.16 572.59,-142.18 548.25,-147.49"/>
<polygon fill="midnightblue" stroke="midnightblue" points="626.09,-134.09 635.12,-128.53 624.6,-127.25 626.09,-134.09"/>
</g>
<!-- Node17 -->
<g id="node17" class="node">
<title>Node17</title>
<g id="a_node17"><a xlink:href="class_perceptual_color_1_1_chroma_lightness_diagram.html#a1697a065cdb13e6a5b8af378673c77f3" target="_top" xlink:title="React on a mouse move event.">
<polygon fill="white" stroke="black" points="386,-49.5 386,-79.5 571,-79.5 571,-49.5 386,-49.5"/>
<text text-anchor="start" x="394" y="-67.5" font-family="Helvetica,sans-Serif" font-size="10.00">PerceptualColor::ChromaLightness</text>
<text text-anchor="middle" x="478.5" y="-56.5" font-family="Helvetica,sans-Serif" font-size="10.00">Diagram::mouseMoveEvent</text>
</a>
</g>
</g>
<!-- Node16&#45;&gt;Node17 -->
<g id="edge17" class="edge">
<title>Node16&#45;&gt;Node17</title>
<path fill="none" stroke="midnightblue" d="M625.26,-96.31C600.16,-90.84 572.59,-84.82 548.25,-79.51"/>
<polygon fill="midnightblue" stroke="midnightblue" points="624.6,-99.75 635.12,-98.47 626.09,-92.91 624.6,-99.75"/>
</g>
<!-- Node18 -->
<g id="node18" class="node">
<title>Node18</title>
<g id="a_node18"><a xlink:href="class_perceptual_color_1_1_chroma_lightness_diagram.html#aa0aa6d31cefd3b9dfbfe9acfcac18e3d" target="_top" xlink:title="React on a mouse press event.">
<polygon fill="white" stroke="black" points="386,-0.5 386,-30.5 571,-30.5 571,-0.5 386,-0.5"/>
<text text-anchor="start" x="394" y="-18.5" font-family="Helvetica,sans-Serif" font-size="10.00">PerceptualColor::ChromaLightness</text>
<text text-anchor="middle" x="478.5" y="-7.5" font-family="Helvetica,sans-Serif" font-size="10.00">Diagram::mousePressEvent</text>
</a>
</g>
</g>
<!-- Node16&#45;&gt;Node18 -->
<g id="edge18" class="edge">
<title>Node16&#45;&gt;Node18</title>
<path fill="none" stroke="midnightblue" d="M656.73,-94.35C640.52,-87.07 622.55,-78.17 607,-68.5 589.55,-57.65 589.34,-48.76 571,-39.5 564.26,-36.1 556.98,-33.14 549.58,-30.58"/>
<polygon fill="midnightblue" stroke="midnightblue" points="655.48,-97.63 666.05,-98.45 658.3,-91.22 655.48,-97.63"/>
</g>
<!-- Node19 -->
<g id="node19" class="node">
<title>Node19</title>
<g id="a_node19"><a xlink:href="class_perceptual_color_1_1_chroma_lightness_diagram.html#a9bd534e0817d1afb0a3674f98919b8db" target="_top" xlink:title="React on a mouse release event.">
<polygon fill="white" stroke="black" points="386,-98.5 386,-128.5 571,-128.5 571,-98.5 386,-98.5"/>
<text text-anchor="start" x="394" y="-116.5" font-family="Helvetica,sans-Serif" font-size="10.00">PerceptualColor::ChromaLightness</text>
<text text-anchor="middle" x="478.5" y="-105.5" font-family="Helvetica,sans-Serif" font-size="10.00">Diagram::mouseReleaseEvent</text>
</a>
</g>
</g>
<!-- Node16&#45;&gt;Node19 -->
<g id="edge19" class="edge">
<title>Node16&#45;&gt;Node19</title>
<path fill="none" stroke="midnightblue" d="M602.11,-113.5C591.81,-113.5 581.39,-113.5 571.21,-113.5"/>
<polygon fill="midnightblue" stroke="midnightblue" points="602.36,-117 612.36,-113.5 602.36,-110 602.36,-117"/>
</g>
<!-- Node20&#45;&gt;Node16 -->
<g id="edge21" class="edge">
<title>Node20&#45;&gt;Node16</title>
<path fill="none" stroke="midnightblue" d="M829.03,-92.91C817.78,-94.79 806.54,-96.68 795.66,-98.5"/>
<polygon fill="midnightblue" stroke="midnightblue" points="829.61,-96.36 838.9,-91.26 828.46,-89.46 829.61,-96.36"/>
</g>
<!-- Node21&#45;&gt;Node14 -->
<g id="edge23" class="edge">
<title>Node21&#45;&gt;Node14</title>
<path fill="none" stroke="midnightblue" d="M648.89,-63.66C634.4,-70.2 619.37,-78.47 607,-88.5 586.01,-105.52 593.27,-122.2 571,-137.5 565.43,-141.32 559.31,-144.56 552.94,-147.31"/>
<polygon fill="midnightblue" stroke="midnightblue" points="650.51,-66.77 658.31,-59.6 647.74,-60.34 650.51,-66.77"/>
</g>
<!-- Node21&#45;&gt;Node17 -->
<g id="edge24" class="edge">
<title>Node21&#45;&gt;Node17</title>
<path fill="none" stroke="midnightblue" d="M596.8,-54.05C588.22,-54.81 579.6,-55.58 571.14,-56.34"/>
<polygon fill="midnightblue" stroke="midnightblue" points="597.19,-57.53 606.84,-53.16 596.57,-50.56 597.19,-57.53"/>
</g>
<!-- Node21&#45;&gt;Node18 -->
<g id="edge25" class="edge">
<title>Node21&#45;&gt;Node18</title>
<path fill="none" stroke="midnightblue" d="M596.8,-30.65C588.22,-29.54 579.6,-28.43 571.14,-27.34"/>
<polygon fill="midnightblue" stroke="midnightblue" points="596.47,-34.14 606.84,-31.95 597.37,-27.2 596.47,-34.14"/>
</g>
<!-- Node23&#45;&gt;Node7 -->
<g id="edge33" class="edge">
<title>Node23&#45;&gt;Node7</title>
<path fill="none" stroke="midnightblue" d="M1393.75,-431.56C1370.52,-457.26 1329.55,-498.23 1286,-521.5 1279.63,-524.91 1272.74,-527.85 1265.71,-530.39"/>
<polygon fill="midnightblue" stroke="midnightblue" points="1396.63,-433.6 1400.65,-423.8 1391.39,-428.95 1396.63,-433.6"/>
</g>
<!-- Node23&#45;&gt;Node8 -->
<g id="edge34" class="edge">
<title>Node23&#45;&gt;Node8</title>
<path fill="none" stroke="midnightblue" d="M1378.02,-428.33C1352.89,-441.81 1318.07,-459.33 1286,-471.5 1276.45,-475.12 1266.17,-478.46 1256.05,-481.43"/>
<polygon fill="midnightblue" stroke="midnightblue" points="1379.69,-431.41 1386.82,-423.57 1376.36,-425.25 1379.69,-431.41"/>
</g>
<!-- Node23&#45;&gt;Node9 -->
<g id="edge35" class="edge">
<title>Node23&#45;&gt;Node9</title>
<path fill="none" stroke="midnightblue" d="M1324.8,-424.3C1307.75,-427.33 1290,-430.49 1273.29,-433.47"/>
<polygon fill="midnightblue" stroke="midnightblue" points="1325.51,-427.72 1334.75,-422.52 1324.29,-420.83 1325.51,-427.72"/>
</g>
<!-- Node24 -->
<g id="node24" class="node">
<title>Node24</title>
<g id="a_node24"><a xlink:href="class_perceptual_color_1_1_simple_color_wheel.html#aac244ab9d153c809ef6e4c2aac05fa22" target="_top" xlink:title="React on key press events.">
<polygon fill="white" stroke="black" points="1114,-285.5 1114,-315.5 1273,-315.5 1273,-285.5 1114,-285.5"/>
<text text-anchor="start" x="1122" y="-303.5" font-family="Helvetica,sans-Serif" font-size="10.00">PerceptualColor::SimpleColor</text>
<text text-anchor="middle" x="1193.5" y="-292.5" font-family="Helvetica,sans-Serif" font-size="10.00">Wheel::keyPressEvent</text>
</a>
</g>
</g>
<!-- Node23&#45;&gt;Node24 -->
<g id="edge31" class="edge">
<title>Node23&#45;&gt;Node24</title>
<path fill="none" stroke="midnightblue" d="M1329.82,-388.7C1327.1,-387.1 1324.49,-385.37 1322,-383.5 1297.45,-365.04 1310.64,-342.84 1286,-324.5 1281.39,-321.07 1276.33,-318.13 1271.03,-315.61"/>
<polygon fill="midnightblue" stroke="midnightblue" points="1328.3,-391.86 1338.79,-393.38 1331.54,-385.65 1328.3,-391.86"/>
</g>
<!-- Node26 -->
<g id="node26" class="node">
<title>Node26</title>
<g id="a_node26"><a xlink:href="class_perceptual_color_1_1_simple_color_wheel.html#ae95bfc11214636a89ccbb380f3a506e3" target="_top" xlink:title="Reset the hue() property.">
<polygon fill="white" stroke="black" points="1114,-236.5 1114,-266.5 1273,-266.5 1273,-236.5 1114,-236.5"/>
<text text-anchor="start" x="1122" y="-254.5" font-family="Helvetica,sans-Serif" font-size="10.00">PerceptualColor::SimpleColor</text>
<text text-anchor="middle" x="1193.5" y="-243.5" font-family="Helvetica,sans-Serif" font-size="10.00">Wheel::resetHue</text>
</a>
</g>
</g>
<!-- Node23&#45;&gt;Node26 -->
<g id="edge36" class="edge">
<title>Node23&#45;&gt;Node26</title>
<path fill="none" stroke="midnightblue" d="M1327.21,-387.91C1325.39,-386.53 1323.65,-385.06 1322,-383.5 1285.25,-348.72 1322.92,-310.09 1286,-275.5 1282.16,-271.91 1277.86,-268.84 1273.26,-266.22"/>
<polygon fill="midnightblue" stroke="midnightblue" points="1325.3,-390.85 1335.59,-393.39 1329.13,-384.99 1325.3,-390.85"/>
</g>
<!-- Node27 -->
<g id="node27" class="node">
<title>Node27</title>
<g id="a_node27"><a xlink:href="class_perceptual_color_1_1_wheel_color_picker.html#a5f3a58bb672323221c98c2285404bf76" target="_top" xlink:title="Setter for currentColorRgb() property.">
<polygon fill="white" stroke="black" points="1115.5,-383.5 1115.5,-413.5 1271.5,-413.5 1271.5,-383.5 1115.5,-383.5"/>
<text text-anchor="start" x="1123.5" y="-401.5" font-family="Helvetica,sans-Serif" font-size="10.00">PerceptualColor::WheelColor</text>
<text text-anchor="middle" x="1193.5" y="-390.5" font-family="Helvetica,sans-Serif" font-size="10.00">Picker::setCurrentColor</text>
</a>
</g>
</g>
<!-- Node23&#45;&gt;Node27 -->
<g id="edge37" class="edge">
<title>Node23&#45;&gt;Node27</title>
<path fill="none" stroke="midnightblue" d="M1324.55,-404.44C1307.08,-403.64 1288.88,-402.81 1271.82,-402.03"/>
<polygon fill="midnightblue" stroke="midnightblue" points="1324.6,-407.94 1334.75,-404.9 1324.92,-400.95 1324.6,-407.94"/>
</g>
<!-- Node40 -->
<g id="node40" class="node">
<title>Node40</title>
<g id="a_node40"><a xlink:href="class_perceptual_color_1_1_simple_color_wheel.html#a39f69259647eebe1e95ce3a1aa73bcd6" target="_top" xlink:title="React on a mouse wheel event.">
<polygon fill="white" stroke="black" points="1114,-334.5 1114,-364.5 1273,-364.5 1273,-334.5 1114,-334.5"/>
<text text-anchor="start" x="1122" y="-352.5" font-family="Helvetica,sans-Serif" font-size="10.00">PerceptualColor::SimpleColor</text>
<text text-anchor="middle" x="1193.5" y="-341.5" font-family="Helvetica,sans-Serif" font-size="10.00">Wheel::wheelEvent</text>
</a>
</g>
</g>
<!-- Node23&#45;&gt;Node40 -->
<g id="edge57" class="edge">
<title>Node23&#45;&gt;Node40</title>
<path fill="none" stroke="midnightblue" d="M1348.68,-390.83C1339.72,-388.37 1330.63,-385.88 1322,-383.5 1305.99,-379.09 1302.03,-377.83 1286,-373.5 1275.22,-370.59 1263.71,-367.53 1252.62,-364.61"/>
<polygon fill="midnightblue" stroke="midnightblue" points="1347.76,-394.2 1358.33,-393.47 1349.61,-387.45 1347.76,-394.2"/>
</g>
<!-- Node25 -->
<g id="node25" class="node">
<title>Node25</title>
<g id="a_node25"><a xlink:href="class_perceptual_color_1_1_wheel_color_picker.html#a6d884a79dac5e9c5241bee146960dfad" target="_top" xlink:title="React on key press events.">
<polygon fill="white" stroke="black" points="874,-285.5 874,-315.5 1030,-315.5 1030,-285.5 874,-285.5"/>
<text text-anchor="start" x="882" y="-303.5" font-family="Helvetica,sans-Serif" font-size="10.00">PerceptualColor::WheelColor</text>
<text text-anchor="middle" x="952" y="-292.5" font-family="Helvetica,sans-Serif" font-size="10.00">Picker::keyPressEvent</text>
</a>
</g>
</g>
<!-- Node24&#45;&gt;Node25 -->
<g id="edge32" class="edge">
<title>Node24&#45;&gt;Node25</title>
<path fill="none" stroke="midnightblue" d="M1103.54,-300.5C1079.44,-300.5 1053.56,-300.5 1030.17,-300.5"/>
<polygon fill="midnightblue" stroke="midnightblue" points="1103.75,-304 1113.75,-300.5 1103.75,-297 1103.75,-304"/>
</g>
<!-- Node28 -->
<g id="node28" class="node">
<title>Node28</title>
<g id="a_node28"><a xlink:href="class_perceptual_color_1_1_color_dialog.html#abd0da334b7034a67a3cc83bc3ed0a425" target="_top" xlink:title="Updates m_currentOpaqueColor and all affected widgets.">
<polygon fill="white" stroke="black" points="873.5,-388.5 873.5,-418.5 1030.5,-418.5 1030.5,-388.5 873.5,-388.5"/>
<text text-anchor="start" x="881.5" y="-406.5" font-family="Helvetica,sans-Serif" font-size="10.00">PerceptualColor::ColorDialog</text>
<text text-anchor="middle" x="952" y="-395.5" font-family="Helvetica,sans-Serif" font-size="10.00">::setCurrentOpaqueColor</text>
</a>
</g>
</g>
<!-- Node27&#45;&gt;Node28 -->
<g id="edge38" class="edge">
<title>Node27&#45;&gt;Node28</title>
<path fill="none" stroke="midnightblue" d="M1105.11,-400.32C1080.77,-400.83 1054.51,-401.38 1030.77,-401.88"/>
<polygon fill="midnightblue" stroke="midnightblue" points="1105.48,-403.82 1115.4,-400.11 1105.33,-396.82 1105.48,-403.82"/>
</g>
<!-- Node29 -->
<g id="node29" class="node">
<title>Node29</title>
<g id="a_node29"><a xlink:href="class_perceptual_color_1_1_color_dialog.html#ad31fb985e1323cdf1208c91f16fe2a51" target="_top" xlink:title="Basic initialization.">
<polygon fill="white" stroke="black" points="193,-436.5 193,-466.5 350,-466.5 350,-436.5 193,-436.5"/>
<text text-anchor="start" x="201" y="-454.5" font-family="Helvetica,sans-Serif" font-size="10.00">PerceptualColor::ColorDialog</text>
<text text-anchor="middle" x="271.5" y="-443.5" font-family="Helvetica,sans-Serif" font-size="10.00">::initialize</text>
</a>
</g>
</g>
<!-- Node28&#45;&gt;Node29 -->
<g id="edge39" class="edge">
<title>Node28&#45;&gt;Node29</title>
<path fill="none" stroke="midnightblue" d="M901.09,-385.06C800.19,-350.77 566.2,-286.47 386,-353.5 341.35,-370.11 302.54,-413.05 284.03,-436.19"/>
<polygon fill="midnightblue" stroke="midnightblue" points="900.13,-388.43 910.72,-388.38 902.41,-381.82 900.13,-388.43"/>
</g>
<!-- Node31 -->
<g id="node31" class="node">
<title>Node31</title>
<g id="a_node31"><a xlink:href="class_perceptual_color_1_1_color_dialog.html#adf67594f0cb9416b245d6cf726f18bf4" target="_top" xlink:title="Reads the HLC numbers in the dialog and updates the dialog accordingly.">
<polygon fill="white" stroke="black" points="626.5,-543.5 626.5,-573.5 783.5,-573.5 783.5,-543.5 626.5,-543.5"/>
<text text-anchor="start" x="634.5" y="-561.5" font-family="Helvetica,sans-Serif" font-size="10.00">PerceptualColor::ColorDialog</text>
<text text-anchor="middle" x="705" y="-550.5" font-family="Helvetica,sans-Serif" font-size="10.00">::readHlcNumericValues</text>
</a>
</g>
</g>
<!-- Node28&#45;&gt;Node31 -->
<g id="edge41" class="edge">
<title>Node28&#45;&gt;Node31</title>
<path fill="none" stroke="midnightblue" d="M923.43,-424.84C894.29,-446.97 846.61,-481.98 803,-508.5 781.96,-521.3 757.27,-533.99 738.07,-543.39"/>
<polygon fill="midnightblue" stroke="midnightblue" points="925.67,-427.54 931.5,-418.69 921.42,-421.97 925.67,-427.54"/>
</g>
<!-- Node33 -->
<g id="node33" class="node">
<title>Node33</title>
<g id="a_node33"><a xlink:href="class_perceptual_color_1_1_color_dialog.html#a2a48f4c33652bc9a1a0cb22fd0a6b221" target="_top" xlink:title="Reads the value from the lightness selector in the dialog and updates the dialog accordingly.">
<polygon fill="white" stroke="black" points="626.5,-468.5 626.5,-498.5 783.5,-498.5 783.5,-468.5 626.5,-468.5"/>
<text text-anchor="start" x="634.5" y="-486.5" font-family="Helvetica,sans-Serif" font-size="10.00">PerceptualColor::ColorDialog</text>
<text text-anchor="middle" x="705" y="-475.5" font-family="Helvetica,sans-Serif" font-size="10.00">::readLightnessValue</text>
</a>
</g>
</g>
<!-- Node28&#45;&gt;Node33 -->
<g id="edge45" class="edge">
<title>Node28&#45;&gt;Node33</title>
<path fill="none" stroke="midnightblue" d="M895.4,-421.65C852.19,-435.77 792.95,-455.11 752.29,-468.38"/>
<polygon fill="midnightblue" stroke="midnightblue" points="896.5,-424.98 904.92,-418.55 894.32,-418.32 896.5,-424.98"/>
</g>
<!-- Node34 -->
<g id="node34" class="node">
<title>Node34</title>
<g id="a_node34"><a xlink:href="class_perceptual_color_1_1_color_dialog.html#a64b6c698ebfaf2461c513ebbb7ef2637" target="_top" xlink:title="Setter for currentColor property.">
<polygon fill="white" stroke="black" points="626.5,-275.5 626.5,-305.5 783.5,-305.5 783.5,-275.5 626.5,-275.5"/>
<text text-anchor="start" x="634.5" y="-293.5" font-family="Helvetica,sans-Serif" font-size="10.00">PerceptualColor::ColorDialog</text>
<text text-anchor="middle" x="705" y="-282.5" font-family="Helvetica,sans-Serif" font-size="10.00">::setCurrentColor</text>
</a>
</g>
</g>
<!-- Node28&#45;&gt;Node34 -->
<g id="edge47" class="edge">
<title>Node28&#45;&gt;Node34</title>
<path fill="none" stroke="midnightblue" d="M919.13,-383.02C889.81,-364.82 844.7,-338.4 803,-320.5 789.96,-314.9 775.53,-309.86 761.87,-305.57"/>
<polygon fill="midnightblue" stroke="midnightblue" points="917.36,-386.04 927.69,-388.38 921.08,-380.11 917.36,-386.04"/>
</g>
<!-- Node36 -->
<g id="node36" class="node">
<title>Node36</title>
<g id="a_node36"><a xlink:href="class_perceptual_color_1_1_color_dialog.html#acf0e7b1b619cee3fc7f5a992e2c93e7d" target="_top" xlink:title="Convenience version of setCurrentOpaqueColor(), accepting QColor.">
<polygon fill="white" stroke="black" points="626.5,-393.5 626.5,-423.5 783.5,-423.5 783.5,-393.5 626.5,-393.5"/>
<text text-anchor="start" x="634.5" y="-411.5" font-family="Helvetica,sans-Serif" font-size="10.00">PerceptualColor::ColorDialog</text>
<text text-anchor="middle" x="705" y="-400.5" font-family="Helvetica,sans-Serif" font-size="10.00">::setCurrentOpaqueQColor</text>
</a>
</g>
</g>
<!-- Node28&#45;&gt;Node36 -->
<g id="edge50" class="edge">
<title>Node28&#45;&gt;Node36</title>
<path fill="none" stroke="midnightblue" d="M863.28,-405.29C837.34,-405.82 809.13,-406.4 783.86,-406.91"/>
<polygon fill="midnightblue" stroke="midnightblue" points="863.55,-408.79 873.48,-405.08 863.41,-401.79 863.55,-408.79"/>
</g>
<!-- Node30 -->
<g id="node30" class="node">
<title>Node30</title>
<g id="a_node30"><a xlink:href="class_perceptual_color_1_1_color_dialog.html#a3c1ad1040ede00087aa11fab1514a6e7" target="_top" xlink:title="Constructor.">
<polygon fill="white" stroke="black" points="0,-321.5 0,-351.5 157,-351.5 157,-321.5 0,-321.5"/>
<text text-anchor="start" x="8" y="-339.5" font-family="Helvetica,sans-Serif" font-size="10.00">PerceptualColor::ColorDialog</text>
<text text-anchor="middle" x="78.5" y="-328.5" font-family="Helvetica,sans-Serif" font-size="10.00">::ColorDialog</text>
</a>
</g>
</g>
<!-- Node29&#45;&gt;Node30 -->
<g id="edge40" class="edge">
<title>Node29&#45;&gt;Node30</title>
<path fill="none" stroke="midnightblue" d="M236.89,-431.26C199.03,-408.47 138.37,-371.94 104.48,-351.54"/>
<polygon fill="midnightblue" stroke="midnightblue" points="235.16,-434.31 245.53,-436.47 238.77,-428.31 235.16,-434.31"/>
</g>
<!-- Node31&#45;&gt;Node29 -->
<g id="edge44" class="edge">
<title>Node31&#45;&gt;Node29</title>
<path fill="none" stroke="midnightblue" d="M615.95,-557.48C550.85,-554.4 460.9,-545.23 386,-519.5 350.15,-507.19 313.37,-482.5 291.74,-466.5"/>
<polygon fill="midnightblue" stroke="midnightblue" points="616.03,-560.98 626.17,-557.92 616.33,-553.99 616.03,-560.98"/>
</g>
<!-- Node32 -->
<g id="node32" class="node">
<title>Node32</title>
<g id="a_node32"><a xlink:href="class_perceptual_color_1_1_color_dialog.html#a64f6d0e30a627458ccb7bbf4a77ad42b" target="_top" xlink:title="React on focus changes.">
<polygon fill="white" stroke="black" points="400,-587.5 400,-617.5 557,-617.5 557,-587.5 400,-587.5"/>
<text text-anchor="start" x="408" y="-605.5" font-family="Helvetica,sans-Serif" font-size="10.00">PerceptualColor::ColorDialog</text>
<text text-anchor="middle" x="478.5" y="-594.5" font-family="Helvetica,sans-Serif" font-size="10.00">::handleFocusChange</text>
</a>
</g>
</g>
<!-- Node31&#45;&gt;Node32 -->
<g id="edge42" class="edge">
<title>Node31&#45;&gt;Node32</title>
<path fill="none" stroke="midnightblue" d="M617.55,-575.44C597.33,-579.41 575.93,-583.6 556.17,-587.47"/>
<polygon fill="midnightblue" stroke="midnightblue" points="618.23,-578.88 627.37,-573.52 616.88,-572.01 618.23,-578.88"/>
</g>
<!-- Node32&#45;&gt;Node29 -->
<g id="edge43" class="edge">
<title>Node32&#45;&gt;Node29</title>
<path fill="none" stroke="midnightblue" d="M407.42,-583.62C399.94,-580.42 392.64,-576.73 386,-572.5 340.57,-543.57 300.95,-492.34 282.89,-466.83"/>
<polygon fill="midnightblue" stroke="midnightblue" points="406.38,-586.98 416.97,-587.43 408.98,-580.47 406.38,-586.98"/>
</g>
<!-- Node33&#45;&gt;Node29 -->
<g id="edge46" class="edge">
<title>Node33&#45;&gt;Node29</title>
<path fill="none" stroke="midnightblue" d="M620.1,-500.13C555.45,-510.1 464.2,-517.96 386,-501.5 354.39,-494.85 320.86,-478.82 298.51,-466.7"/>
<polygon fill="midnightblue" stroke="midnightblue" points="620.91,-503.55 630.24,-498.52 619.81,-496.63 620.91,-503.55"/>
</g>
<!-- Node34&#45;&gt;Node30 -->
<g id="edge48" class="edge">
<title>Node34&#45;&gt;Node30</title>
<path fill="none" stroke="midnightblue" d="M627.31,-273.57C608.96,-270.22 589.36,-267.21 571,-265.5 489.13,-257.87 467.69,-256.16 386,-265.5 293.61,-276.06 188.55,-303.98 128.53,-321.49"/>
<polygon fill="midnightblue" stroke="midnightblue" points="626.89,-277.06 637.36,-275.47 628.18,-270.18 626.89,-277.06"/>
</g>
<!-- Node35 -->
<g id="node35" class="node">
<title>Node35</title>
<g id="a_node35"><a xlink:href="class_perceptual_color_1_1_color_dialog.html#a08677555088721a366cc839a90b5eea2" target="_top" xlink:title="Pops up a modal color dialog, lets the user choose a color, and returns that color.">
<polygon fill="white" stroke="black" points="400,-275.5 400,-305.5 557,-305.5 557,-275.5 400,-275.5"/>
<text text-anchor="start" x="408" y="-293.5" font-family="Helvetica,sans-Serif" font-size="10.00">PerceptualColor::ColorDialog</text>
<text text-anchor="middle" x="478.5" y="-282.5" font-family="Helvetica,sans-Serif" font-size="10.00">::getColor</text>
</a>
</g>
</g>
<!-- Node34&#45;&gt;Node35 -->
<g id="edge49" class="edge">
<title>Node34&#45;&gt;Node35</title>
<path fill="none" stroke="midnightblue" d="M616.31,-290.5C596.77,-290.5 576.18,-290.5 557.08,-290.5"/>
<polygon fill="midnightblue" stroke="midnightblue" points="616.43,-294 626.43,-290.5 616.43,-287 616.43,-294"/>
</g>
<!-- Node37 -->
<g id="node37" class="node">
<title>Node37</title>
<g id="a_node37"><a xlink:href="class_perceptual_color_1_1_color_dialog.html#ad834c4b1975dd4b226a054497bd1ef47" target="_top" xlink:title="Reads the HSV numbers in the dialog and updates the dialog accordingly.">
<polygon fill="white" stroke="black" points="400,-412.5 400,-442.5 557,-442.5 557,-412.5 400,-412.5"/>
<text text-anchor="start" x="408" y="-430.5" font-family="Helvetica,sans-Serif" font-size="10.00">PerceptualColor::ColorDialog</text>
<text text-anchor="middle" x="478.5" y="-419.5" font-family="Helvetica,sans-Serif" font-size="10.00">::readHsvNumericValues</text>
</a>
</g>
</g>
<!-- Node36&#45;&gt;Node37 -->
<g id="edge51" class="edge">
<title>Node36&#45;&gt;Node37</title>
<path fill="none" stroke="midnightblue" d="M616.31,-415.92C596.77,-417.58 576.18,-419.32 557.08,-420.93"/>
<polygon fill="midnightblue" stroke="midnightblue" points="616.76,-419.4 626.43,-415.07 616.17,-412.42 616.76,-419.4"/>
</g>
<!-- Node38 -->
<g id="node38" class="node">
<title>Node38</title>
<g id="a_node38"><a xlink:href="class_perceptual_color_1_1_color_dialog.html#a4554999f424ac055986478fe8c899ae1" target="_top" xlink:title="Reads the hexadecimal RGB numbers in the dialog and updates the dialog accordingly.">
<polygon fill="white" stroke="black" points="400,-363.5 400,-393.5 557,-393.5 557,-363.5 400,-363.5"/>
<text text-anchor="start" x="408" y="-381.5" font-family="Helvetica,sans-Serif" font-size="10.00">PerceptualColor::ColorDialog</text>
<text text-anchor="middle" x="478.5" y="-370.5" font-family="Helvetica,sans-Serif" font-size="10.00">::readRgbHexValues</text>
</a>
</g>
</g>
<!-- Node36&#45;&gt;Node38 -->
<g id="edge53" class="edge">
<title>Node36&#45;&gt;Node38</title>
<path fill="none" stroke="midnightblue" d="M616.31,-396.78C596.77,-394.17 576.18,-391.42 557.08,-388.87"/>
<polygon fill="midnightblue" stroke="midnightblue" points="616.05,-400.28 626.43,-398.13 616.98,-393.34 616.05,-400.28"/>
</g>
<!-- Node39 -->
<g id="node39" class="node">
<title>Node39</title>
<g id="a_node39"><a xlink:href="class_perceptual_color_1_1_color_dialog.html#a9bb8f87d25714fc283fdda98424030fe" target="_top" xlink:title="Reads the decimal RGB numbers in the dialog and updates the dialog accordingly.">
<polygon fill="white" stroke="black" points="400,-461.5 400,-491.5 557,-491.5 557,-461.5 400,-461.5"/>
<text text-anchor="start" x="408" y="-479.5" font-family="Helvetica,sans-Serif" font-size="10.00">PerceptualColor::ColorDialog</text>
<text text-anchor="middle" x="478.5" y="-468.5" font-family="Helvetica,sans-Serif" font-size="10.00">::readRgbNumericValues</text>
</a>
</g>
</g>
<!-- Node36&#45;&gt;Node39 -->
<g id="edge55" class="edge">
<title>Node36&#45;&gt;Node39</title>
<path fill="none" stroke="midnightblue" d="M649.58,-426.72C625.57,-434.6 596.96,-443.76 571,-451.5 559.8,-454.84 547.77,-458.25 536.24,-461.44"/>
<polygon fill="midnightblue" stroke="midnightblue" points="650.82,-430 659.22,-423.55 648.63,-423.35 650.82,-430"/>
</g>
<!-- Node37&#45;&gt;Node29 -->
<g id="edge52" class="edge">
<title>Node37&#45;&gt;Node29</title>
<path fill="none" stroke="midnightblue" d="M389.95,-437.75C376.71,-439.3 363.13,-440.89 350.11,-442.41"/>
<polygon fill="midnightblue" stroke="midnightblue" points="390.47,-441.21 400,-436.57 389.66,-434.26 390.47,-441.21"/>
</g>
<!-- Node38&#45;&gt;Node29 -->
<g id="edge54" class="edge">
<title>Node38&#45;&gt;Node29</title>
<path fill="none" stroke="midnightblue" d="M405.42,-396.31C398.82,-398.27 392.26,-400.34 386,-402.5 357.59,-412.29 326.31,-426.03 303.8,-436.47"/>
<polygon fill="midnightblue" stroke="midnightblue" points="406.47,-399.65 415.1,-393.51 404.53,-392.92 406.47,-399.65"/>
</g>
<!-- Node39&#45;&gt;Node29 -->
<g id="edge56" class="edge">
<title>Node39&#45;&gt;Node29</title>
<path fill="none" stroke="midnightblue" d="M389.95,-465.82C376.71,-464.21 363.13,-462.55 350.11,-460.96"/>
<polygon fill="midnightblue" stroke="midnightblue" points="389.65,-469.31 400,-467.05 390.5,-462.36 389.65,-469.31"/>
</g>
<!-- Node42 -->
<g id="node42" class="node">
<title>Node42</title>
<g id="a_node42"><a xlink:href="class_perceptual_color_1_1_full_color_description.html#a7d27cb4b18ebaf0a3d0374201c2d283a" target="_top" xlink:title="Constructor.">
<polygon fill="white" stroke="black" points="1326.5,-246.5 1326.5,-276.5 1502.5,-276.5 1502.5,-246.5 1326.5,-246.5"/>
<text text-anchor="start" x="1334.5" y="-264.5" font-family="Helvetica,sans-Serif" font-size="10.00">PerceptualColor::FullColor</text>
<text text-anchor="middle" x="1414.5" y="-253.5" font-family="Helvetica,sans-Serif" font-size="10.00">Description::FullColorDescription</text>
</a>
</g>
</g>
<!-- Node41&#45;&gt;Node42 -->
<g id="edge59" class="edge">
<title>Node41&#45;&gt;Node42</title>
<path fill="none" stroke="midnightblue" d="M1551.43,-339.84C1548.5,-338.19 1545.67,-336.42 1543,-334.5 1521.05,-318.74 1529.35,-300.69 1507,-285.5 1501.97,-282.08 1496.49,-279.16 1490.78,-276.64"/>
<polygon fill="midnightblue" stroke="midnightblue" points="1549.97,-343.02 1560.48,-344.38 1553.11,-336.77 1549.97,-343.02"/>
</g>
</g>
</svg>
