<?xml version="1.0" encoding="UTF-8" standalone="no"?>
<!DOCTYPE svg PUBLIC "-//W3C//DTD SVG 1.1//EN"
 "http://www.w3.org/Graphics/SVG/1.1/DTD/svg11.dtd">
<!-- Generated by graphviz version 2.43.0 (0)
 -->
<!-- Title: PerceptualColor::GradientSelector::paintEvent Pages: 1 -->
<svg width="721pt" height="137pt"
 viewBox="0.00 0.00 721.00 137.00" xmlns="http://www.w3.org/2000/svg" xmlns:xlink="http://www.w3.org/1999/xlink">
<g id="graph0" class="graph" transform="scale(1 1) rotate(0) translate(4 133)">
<title>PerceptualColor::GradientSelector::paintEvent</title>
<polygon fill="white" stroke="transparent" points="-4,4 -4,-133 717,-133 717,4 -4,4"/>
<!-- Node1 -->
<g id="node1" class="node">
<title>Node1</title>
<g id="a_node1"><a xlink:title=" ">
<polygon fill="#bfbfbf" stroke="black" points="0,-73.5 0,-103.5 142,-103.5 142,-73.5 0,-73.5"/>
<text text-anchor="start" x="8" y="-91.5" font-family="Helvetica,sans-Serif" font-size="10.00">PerceptualColor::Gradient</text>
<text text-anchor="middle" x="71" y="-80.5" font-family="Helvetica,sans-Serif" font-size="10.00">Selector::paintEvent</text>
</a>
</g>
</g>
<!-- Node2 -->
<g id="node2" class="node">
<title>Node2</title>
<g id="a_node2"><a xlink:href="class_perceptual_color_1_1_gradient_selector.html#a58bbe35919e206f7abc06815145f470e" target="_top" xlink:title=" ">
<polygon fill="white" stroke="black" points="191.5,-98.5 191.5,-128.5 333.5,-128.5 333.5,-98.5 191.5,-98.5"/>
<text text-anchor="start" x="199.5" y="-116.5" font-family="Helvetica,sans-Serif" font-size="10.00">PerceptualColor::Gradient</text>
<text text-anchor="middle" x="262.5" y="-105.5" font-family="Helvetica,sans-Serif" font-size="10.00">Selector::getTransform</text>
</a>
</g>
</g>
<!-- Node1&#45;&gt;Node2 -->
<g id="edge1" class="edge">
<title>Node1&#45;&gt;Node2</title>
<path fill="none" stroke="midnightblue" d="M142.02,-97.74C154.88,-99.43 168.39,-101.22 181.51,-102.95"/>
<polygon fill="midnightblue" stroke="midnightblue" points="181.08,-106.42 191.45,-104.26 181.99,-99.48 181.08,-106.42"/>
</g>
<!-- Node3 -->
<g id="node3" class="node">
<title>Node3</title>
<g id="a_node3"><a xlink:href="class_perceptual_color_1_1_gradient_selector.html#a82a87ec1701c4db18f821c3b35026e90" target="_top" xlink:title=" ">
<polygon fill="white" stroke="black" points="178,-49.5 178,-79.5 347,-79.5 347,-49.5 178,-49.5"/>
<text text-anchor="start" x="186" y="-67.5" font-family="Helvetica,sans-Serif" font-size="10.00">PerceptualColor::Gradient</text>
<text text-anchor="middle" x="262.5" y="-56.5" font-family="Helvetica,sans-Serif" font-size="10.00">Selector::updateGradientImage</text>
</a>
</g>
</g>
<!-- Node1&#45;&gt;Node3 -->
<g id="edge2" class="edge">
<title>Node1&#45;&gt;Node3</title>
<path fill="none" stroke="midnightblue" d="M142.02,-79.63C150.44,-78.57 159.13,-77.47 167.81,-76.37"/>
<polygon fill="midnightblue" stroke="midnightblue" points="168.49,-79.81 177.97,-75.08 167.61,-72.86 168.49,-79.81"/>
</g>
<!-- Node4 -->
<g id="node4" class="node">
<title>Node4</title>
<g id="a_node4"><a xlink:href="class_perceptual_color_1_1_gradient_selector.html#a50318272b416bf157164a8c99daa79fc" target="_top" xlink:title=" ">
<polygon fill="white" stroke="black" points="383,-98.5 383,-128.5 534,-128.5 534,-98.5 383,-98.5"/>
<text text-anchor="start" x="391" y="-116.5" font-family="Helvetica,sans-Serif" font-size="10.00">PerceptualColor::Gradient</text>
<text text-anchor="middle" x="458.5" y="-105.5" font-family="Helvetica,sans-Serif" font-size="10.00">Selector::intermediateColor</text>
</a>
</g>
</g>
<!-- Node3&#45;&gt;Node4 -->
<g id="edge3" class="edge">
<title>Node3&#45;&gt;Node4</title>
<path fill="none" stroke="midnightblue" d="M323.02,-79.53C343.6,-84.73 366.84,-90.6 388.13,-95.98"/>
<polygon fill="midnightblue" stroke="midnightblue" points="387.54,-99.44 398.09,-98.49 389.25,-92.65 387.54,-99.44"/>
</g>
<!-- Node6 -->
<g id="node6" class="node">
<title>Node6</title>
<g id="a_node6"><a xlink:href="class_perceptual_color_1_1_full_color_description.html#acdbff4639f8a118f0d13a831a4b57ffe" target="_top" xlink:title=" ">
<polygon fill="white" stroke="black" points="387,-49.5 387,-79.5 530,-79.5 530,-49.5 387,-49.5"/>
<text text-anchor="start" x="395" y="-67.5" font-family="Helvetica,sans-Serif" font-size="10.00">PerceptualColor::FullColor</text>
<text text-anchor="middle" x="458.5" y="-56.5" font-family="Helvetica,sans-Serif" font-size="10.00">Description::toLch</text>
</a>
</g>
</g>
<!-- Node3&#45;&gt;Node6 -->
<g id="edge5" class="edge">
<title>Node3&#45;&gt;Node6</title>
<path fill="none" stroke="midnightblue" d="M347.18,-64.5C357,-64.5 367,-64.5 376.78,-64.5"/>
<polygon fill="midnightblue" stroke="midnightblue" points="376.87,-68 386.87,-64.5 376.87,-61 376.87,-68"/>
</g>
<!-- Node7 -->
<g id="node7" class="node">
<title>Node7</title>
<g id="a_node7"><a xlink:href="class_perceptual_color_1_1_full_color_description.html#aad1d9cc70b7a9ae81c829c391334d768" target="_top" xlink:title=" ">
<polygon fill="white" stroke="black" points="387,-0.5 387,-30.5 530,-30.5 530,-0.5 387,-0.5"/>
<text text-anchor="start" x="395" y="-18.5" font-family="Helvetica,sans-Serif" font-size="10.00">PerceptualColor::FullColor</text>
<text text-anchor="middle" x="458.5" y="-7.5" font-family="Helvetica,sans-Serif" font-size="10.00">Description::toRgbQColor</text>
</a>
</g>
</g>
<!-- Node3&#45;&gt;Node7 -->
<g id="edge6" class="edge">
<title>Node3&#45;&gt;Node7</title>
<path fill="none" stroke="midnightblue" d="M323.02,-49.47C343.6,-44.27 366.84,-38.4 388.13,-33.02"/>
<polygon fill="midnightblue" stroke="midnightblue" points="389.25,-36.35 398.09,-30.51 387.54,-29.56 389.25,-36.35"/>
</g>
<!-- Node5 -->
<g id="node5" class="node">
<title>Node5</title>
<g id="a_node5"><a xlink:href="class_perceptual_color_1_1_full_color_description.html#aa4fabb35ce1684e4321ff58d008a2885" target="_top" xlink:title=" ">
<polygon fill="white" stroke="black" points="570,-98.5 570,-128.5 713,-128.5 713,-98.5 570,-98.5"/>
<text text-anchor="start" x="578" y="-116.5" font-family="Helvetica,sans-Serif" font-size="10.00">PerceptualColor::FullColor</text>
<text text-anchor="middle" x="641.5" y="-105.5" font-family="Helvetica,sans-Serif" font-size="10.00">Description::alpha</text>
</a>
</g>
</g>
<!-- Node4&#45;&gt;Node5 -->
<g id="edge4" class="edge">
<title>Node4&#45;&gt;Node5</title>
<path fill="none" stroke="midnightblue" d="M534.16,-113.5C542.54,-113.5 551.11,-113.5 559.56,-113.5"/>
<polygon fill="midnightblue" stroke="midnightblue" points="559.79,-117 569.79,-113.5 559.79,-110 559.79,-117"/>
</g>
</g>
</svg>
