<?xml version="1.0" encoding="UTF-8" standalone="no"?>
<!DOCTYPE svg PUBLIC "-//W3C//DTD SVG 1.1//EN"
 "http://www.w3.org/Graphics/SVG/1.1/DTD/svg11.dtd">
<!-- Generated by graphviz version 2.43.0 (0)
 -->
<!-- Title: PerceptualColor::ChromaHueDiagram::setColorFromImageCoordinates Pages: 1 -->
<svg width="427pt" height="137pt"
 viewBox="0.00 0.00 427.00 137.00" xmlns="http://www.w3.org/2000/svg" xmlns:xlink="http://www.w3.org/1999/xlink">
<g id="graph0" class="graph" transform="scale(1 1) rotate(0) translate(4 133)">
<title>PerceptualColor::ChromaHueDiagram::setColorFromImageCoordinates</title>
<polygon fill="white" stroke="transparent" points="-4,4 -4,-133 423,-133 423,4 -4,4"/>
<!-- Node1 -->
<g id="node1" class="node">
<title>Node1</title>
<g id="a_node1"><a xlink:title="Sets the color property corresponding to given widget coordinates.">
<polygon fill="#bfbfbf" stroke="black" points="200,-49.5 200,-79.5 419,-79.5 419,-49.5 200,-49.5"/>
<text text-anchor="start" x="208" y="-67.5" font-family="Helvetica,sans-Serif" font-size="10.00">PerceptualColor::ChromaHue</text>
<text text-anchor="middle" x="309.5" y="-56.5" font-family="Helvetica,sans-Serif" font-size="10.00">Diagram::setColorFromImageCoordinates</text>
</a>
</g>
</g>
<!-- Node2 -->
<g id="node2" class="node">
<title>Node2</title>
<g id="a_node2"><a xlink:href="class_perceptual_color_1_1_chroma_hue_diagram.html#a16bcb9d0eee3536fe4f1034d2b9c3329" target="_top" xlink:title="React on a mouse move event.">
<polygon fill="white" stroke="black" points="3,-98.5 3,-128.5 161,-128.5 161,-98.5 3,-98.5"/>
<text text-anchor="start" x="11" y="-116.5" font-family="Helvetica,sans-Serif" font-size="10.00">PerceptualColor::ChromaHue</text>
<text text-anchor="middle" x="82" y="-105.5" font-family="Helvetica,sans-Serif" font-size="10.00">Diagram::mouseMoveEvent</text>
</a>
</g>
</g>
<!-- Node1&#45;&gt;Node2 -->
<g id="edge1" class="edge">
<title>Node1&#45;&gt;Node2</title>
<path fill="none" stroke="midnightblue" d="M229.41,-81.69C204.2,-87.16 176.51,-93.18 152.06,-98.49"/>
<polygon fill="midnightblue" stroke="midnightblue" points="230.28,-85.08 239.31,-79.53 228.79,-78.24 230.28,-85.08"/>
</g>
<!-- Node3 -->
<g id="node3" class="node">
<title>Node3</title>
<g id="a_node3"><a xlink:href="class_perceptual_color_1_1_chroma_hue_diagram.html#ad8957ee9c3a3ecb73841c00110ee3058" target="_top" xlink:title="React on a mouse press event.">
<polygon fill="white" stroke="black" points="3,-49.5 3,-79.5 161,-79.5 161,-49.5 3,-49.5"/>
<text text-anchor="start" x="11" y="-67.5" font-family="Helvetica,sans-Serif" font-size="10.00">PerceptualColor::ChromaHue</text>
<text text-anchor="middle" x="82" y="-56.5" font-family="Helvetica,sans-Serif" font-size="10.00">Diagram::mousePressEvent</text>
</a>
</g>
</g>
<!-- Node1&#45;&gt;Node3 -->
<g id="edge2" class="edge">
<title>Node1&#45;&gt;Node3</title>
<path fill="none" stroke="midnightblue" d="M189.61,-64.5C179.92,-64.5 170.29,-64.5 161.01,-64.5"/>
<polygon fill="midnightblue" stroke="midnightblue" points="189.71,-68 199.71,-64.5 189.71,-61 189.71,-68"/>
</g>
<!-- Node4 -->
<g id="node4" class="node">
<title>Node4</title>
<g id="a_node4"><a xlink:href="class_perceptual_color_1_1_chroma_hue_diagram.html#adfe93a3ac0005a23c03465635089d846" target="_top" xlink:title="React on a mouse release event.">
<polygon fill="white" stroke="black" points="0,-0.5 0,-30.5 164,-30.5 164,-0.5 0,-0.5"/>
<text text-anchor="start" x="8" y="-18.5" font-family="Helvetica,sans-Serif" font-size="10.00">PerceptualColor::ChromaHue</text>
<text text-anchor="middle" x="82" y="-7.5" font-family="Helvetica,sans-Serif" font-size="10.00">Diagram::mouseReleaseEvent</text>
</a>
</g>
</g>
<!-- Node1&#45;&gt;Node4 -->
<g id="edge3" class="edge">
<title>Node1&#45;&gt;Node4</title>
<path fill="none" stroke="midnightblue" d="M229.41,-47.31C204.2,-41.84 176.51,-35.82 152.06,-30.51"/>
<polygon fill="midnightblue" stroke="midnightblue" points="228.79,-50.76 239.31,-49.47 230.28,-43.92 228.79,-50.76"/>
</g>
</g>
</svg>
