<?xml version="1.0" encoding="UTF-8" standalone="no"?>
<!DOCTYPE svg PUBLIC "-//W3C//DTD SVG 1.1//EN"
 "http://www.w3.org/Graphics/SVG/1.1/DTD/svg11.dtd">
<!-- Generated by graphviz version 2.43.0 (0)
 -->
<!-- Title: PerceptualColor::RgbColorSpace::colorLab Pages: 1 -->
<svg width="769pt" height="88pt"
 viewBox="0.00 0.00 769.00 88.00" xmlns="http://www.w3.org/2000/svg" xmlns:xlink="http://www.w3.org/1999/xlink">
<g id="graph0" class="graph" transform="scale(1 1) rotate(0) translate(4 84)">
<title>PerceptualColor::RgbColorSpace::colorLab</title>
<polygon fill="white" stroke="transparent" points="-4,4 -4,-84 765,-84 765,4 -4,4"/>
<!-- Node1 -->
<g id="node1" class="node">
<title>Node1</title>
<g id="a_node1"><a xlink:title="Calculates the Lab value.">
<polygon fill="#bfbfbf" stroke="black" points="617,-24.5 617,-54.5 761,-54.5 761,-24.5 617,-24.5"/>
<text text-anchor="start" x="625" y="-42.5" font-family="Helvetica,sans-Serif" font-size="10.00">PerceptualColor::RgbColor</text>
<text text-anchor="middle" x="689" y="-31.5" font-family="Helvetica,sans-Serif" font-size="10.00">Space::colorLab</text>
</a>
</g>
</g>
<!-- Node2 -->
<g id="node2" class="node">
<title>Node2</title>
<g id="a_node2"><a xlink:href="class_perceptual_color_1_1_full_color_description.html#aa2dcf30047c54b1c4acb8a1da5dacabf" target="_top" xlink:title="Constructor.">
<polygon fill="white" stroke="black" points="402.5,-49.5 402.5,-79.5 578.5,-79.5 578.5,-49.5 402.5,-49.5"/>
<text text-anchor="start" x="410.5" y="-67.5" font-family="Helvetica,sans-Serif" font-size="10.00">PerceptualColor::FullColor</text>
<text text-anchor="middle" x="490.5" y="-56.5" font-family="Helvetica,sans-Serif" font-size="10.00">Description::FullColorDescription</text>
</a>
</g>
</g>
<!-- Node1&#45;&gt;Node2 -->
<g id="edge1" class="edge">
<title>Node1&#45;&gt;Node2</title>
<path fill="none" stroke="midnightblue" d="M606.78,-49.83C597.46,-51.02 587.94,-52.23 578.56,-53.42"/>
<polygon fill="midnightblue" stroke="midnightblue" points="607.3,-53.3 616.78,-48.56 606.42,-46.35 607.3,-53.3"/>
</g>
<!-- Node3 -->
<g id="node3" class="node">
<title>Node3</title>
<g id="a_node3"><a xlink:href="class_perceptual_color_1_1_chroma_hue_diagram.html#adc53e31427f7c15d0aedc521aea5edd7" target="_top" xlink:title="in image of a&#45;b plane of the color space at a given lightness">
<polygon fill="white" stroke="black" points="400,-0.5 400,-30.5 581,-30.5 581,-0.5 400,-0.5"/>
<text text-anchor="start" x="408" y="-18.5" font-family="Helvetica,sans-Serif" font-size="10.00">PerceptualColor::ChromaHue</text>
<text text-anchor="middle" x="490.5" y="-7.5" font-family="Helvetica,sans-Serif" font-size="10.00">Diagram::generateDiagramImage</text>
</a>
</g>
</g>
<!-- Node1&#45;&gt;Node3 -->
<g id="edge2" class="edge">
<title>Node1&#45;&gt;Node3</title>
<path fill="none" stroke="midnightblue" d="M606.66,-29.57C598.28,-28.54 589.74,-27.5 581.27,-26.46"/>
<polygon fill="midnightblue" stroke="midnightblue" points="606.43,-33.06 616.78,-30.8 607.28,-26.11 606.43,-33.06"/>
</g>
<!-- Node4 -->
<g id="node4" class="node">
<title>Node4</title>
<g id="a_node4"><a xlink:href="class_perceptual_color_1_1_chroma_hue_diagram.html#a1ffe1f34cd9e77800b8836e9383e0fd6" target="_top" xlink:title="Refresh the diagram and associated data.">
<polygon fill="white" stroke="black" points="194,-0.5 194,-30.5 364,-30.5 364,-0.5 194,-0.5"/>
<text text-anchor="start" x="202" y="-18.5" font-family="Helvetica,sans-Serif" font-size="10.00">PerceptualColor::ChromaHue</text>
<text text-anchor="middle" x="279" y="-7.5" font-family="Helvetica,sans-Serif" font-size="10.00">Diagram::updateDiagramCache</text>
</a>
</g>
</g>
<!-- Node3&#45;&gt;Node4 -->
<g id="edge3" class="edge">
<title>Node3&#45;&gt;Node4</title>
<path fill="none" stroke="midnightblue" d="M389.48,-15.5C381.04,-15.5 372.56,-15.5 364.26,-15.5"/>
<polygon fill="midnightblue" stroke="midnightblue" points="389.74,-19 399.74,-15.5 389.74,-12 389.74,-19"/>
</g>
<!-- Node5 -->
<g id="node5" class="node">
<title>Node5</title>
<g id="a_node5"><a xlink:href="class_perceptual_color_1_1_chroma_hue_diagram.html#ad7709d55647d4a6842f34a5dd10cb2a9" target="_top" xlink:title="Paint the widget.">
<polygon fill="white" stroke="black" points="0,-0.5 0,-30.5 158,-30.5 158,-0.5 0,-0.5"/>
<text text-anchor="start" x="8" y="-18.5" font-family="Helvetica,sans-Serif" font-size="10.00">PerceptualColor::ChromaHue</text>
<text text-anchor="middle" x="79" y="-7.5" font-family="Helvetica,sans-Serif" font-size="10.00">Diagram::paintEvent</text>
</a>
</g>
</g>
<!-- Node4&#45;&gt;Node5 -->
<g id="edge4" class="edge">
<title>Node4&#45;&gt;Node5</title>
<path fill="none" stroke="midnightblue" d="M183.47,-15.5C175.01,-15.5 166.51,-15.5 158.21,-15.5"/>
<polygon fill="midnightblue" stroke="midnightblue" points="183.74,-19 193.74,-15.5 183.74,-12 183.74,-19"/>
</g>
</g>
</svg>
