<?xml version="1.0" encoding="UTF-8" standalone="no"?>
<!DOCTYPE svg PUBLIC "-//W3C//DTD SVG 1.1//EN"
 "http://www.w3.org/Graphics/SVG/1.1/DTD/svg11.dtd">
<!-- Generated by graphviz version 2.43.0 (0)
 -->
<!-- Title: PerceptualColor::RgbColorSpace::colorRgb Pages: 1 -->
<svg width="1311pt" height="363pt"
 viewBox="0.00 0.00 1311.00 363.01" xmlns="http://www.w3.org/2000/svg" xmlns:xlink="http://www.w3.org/1999/xlink">
<g id="graph0" class="graph" transform="scale(1 1) rotate(0) translate(4 359.01)">
<title>PerceptualColor::RgbColorSpace::colorRgb</title>
<polygon fill="white" stroke="transparent" points="-4,4 -4,-359.01 1307,-359.01 1307,4 -4,4"/>
<!-- Node1 -->
<g id="node1" class="node">
<title>Node1</title>
<g id="a_node1"><a xlink:title="Calculates the RGB value.">
<polygon fill="#bfbfbf" stroke="black" points="1159,-144.5 1159,-174.5 1303,-174.5 1303,-144.5 1159,-144.5"/>
<text text-anchor="start" x="1167" y="-162.5" font-family="Helvetica,sans-Serif" font-size="10.00">PerceptualColor::RgbColor</text>
<text text-anchor="middle" x="1231" y="-151.5" font-family="Helvetica,sans-Serif" font-size="10.00">Space::colorRgb</text>
</a>
</g>
</g>
<!-- Node2 -->
<g id="node2" class="node">
<title>Node2</title>
<g id="a_node2"><a xlink:href="class_perceptual_color_1_1_rgb_color_space.html#a266051234c1eea006f34c6866f91e7b9" target="_top" xlink:title="Calculates the RGB value.">
<polygon fill="white" stroke="black" points="957.5,-218.5 957.5,-248.5 1101.5,-248.5 1101.5,-218.5 957.5,-218.5"/>
<text text-anchor="start" x="965.5" y="-236.5" font-family="Helvetica,sans-Serif" font-size="10.00">PerceptualColor::RgbColor</text>
<text text-anchor="middle" x="1029.5" y="-225.5" font-family="Helvetica,sans-Serif" font-size="10.00">Space::colorRgb</text>
</a>
</g>
</g>
<!-- Node1&#45;&gt;Node2 -->
<g id="edge1" class="edge">
<title>Node1&#45;&gt;Node2</title>
<path fill="none" stroke="midnightblue" d="M1192.38,-179.15C1172.19,-189.16 1146.65,-200.99 1123,-209.5 1113.95,-212.76 1104.25,-215.77 1094.66,-218.49"/>
<polygon fill="midnightblue" stroke="midnightblue" points="1194.17,-182.16 1201.54,-174.55 1191.03,-175.91 1194.17,-182.16"/>
</g>
<!-- Node3 -->
<g id="node3" class="node">
<title>Node3</title>
<g id="a_node3"><a xlink:href="class_perceptual_color_1_1_chroma_lightness_diagram.html#ae0395993434db2cd0d74b146fed6621c" target="_top" xlink:title="Generates an image of a chroma&#45;lightness diagram.">
<polygon fill="white" stroke="black" points="937,-169.5 937,-199.5 1122,-199.5 1122,-169.5 937,-169.5"/>
<text text-anchor="start" x="945" y="-187.5" font-family="Helvetica,sans-Serif" font-size="10.00">PerceptualColor::ChromaLightness</text>
<text text-anchor="middle" x="1029.5" y="-176.5" font-family="Helvetica,sans-Serif" font-size="10.00">Diagram::generateDiagramImage</text>
</a>
</g>
</g>
<!-- Node1&#45;&gt;Node3 -->
<g id="edge2" class="edge">
<title>Node1&#45;&gt;Node3</title>
<path fill="none" stroke="midnightblue" d="M1148.69,-169.69C1139.97,-170.78 1131.05,-171.9 1122.22,-173.01"/>
<polygon fill="midnightblue" stroke="midnightblue" points="1149.33,-173.14 1158.82,-168.42 1148.46,-166.19 1149.33,-173.14"/>
</g>
<!-- Node14 -->
<g id="node14" class="node">
<title>Node14</title>
<g id="a_node14"><a xlink:href="class_perceptual_color_1_1_chroma_hue_diagram.html#ae428f431ada900440488548dce47f74c" target="_top" xlink:title="in image of a&#45;b plane of the color space at a given lightness">
<polygon fill="white" stroke="black" points="936,-120.5 936,-150.5 1123,-150.5 1123,-120.5 936,-120.5"/>
<text text-anchor="start" x="944" y="-138.5" font-family="Helvetica,sans-Serif" font-size="10.00">PerceptualColor::ChromaHue</text>
<text text-anchor="middle" x="1029.5" y="-127.5" font-family="Helvetica,sans-Serif" font-size="10.00">Diagram::generateDiagramImage3</text>
</a>
</g>
</g>
<!-- Node1&#45;&gt;Node14 -->
<g id="edge21" class="edge">
<title>Node1&#45;&gt;Node14</title>
<path fill="none" stroke="midnightblue" d="M1148.7,-149.72C1140.32,-148.71 1131.76,-147.68 1123.27,-146.66"/>
<polygon fill="midnightblue" stroke="midnightblue" points="1148.47,-153.22 1158.82,-150.94 1149.31,-146.27 1148.47,-153.22"/>
</g>
<!-- Node15 -->
<g id="node15" class="node">
<title>Node15</title>
<g id="a_node15"><a xlink:href="class_perceptual_color_1_1_simple_color_wheel.html#acff6e0159f9cb6c41c0bbedb9f6da1c4" target="_top" xlink:title="Generates an image of a color wheel.">
<polygon fill="white" stroke="black" points="950,-49.5 950,-79.5 1109,-79.5 1109,-49.5 950,-49.5"/>
<text text-anchor="start" x="958" y="-67.5" font-family="Helvetica,sans-Serif" font-size="10.00">PerceptualColor::SimpleColor</text>
<text text-anchor="middle" x="1029.5" y="-56.5" font-family="Helvetica,sans-Serif" font-size="10.00">Wheel::generateWheelImage</text>
</a>
</g>
</g>
<!-- Node1&#45;&gt;Node15 -->
<g id="edge22" class="edge">
<title>Node1&#45;&gt;Node15</title>
<path fill="none" stroke="midnightblue" d="M1189.24,-140.09C1151.68,-122.2 1096.7,-96.02 1062.29,-79.64"/>
<polygon fill="midnightblue" stroke="midnightblue" points="1187.86,-143.31 1198.39,-144.45 1190.86,-136.99 1187.86,-143.31"/>
</g>
<!-- Node4 -->
<g id="node4" class="node">
<title>Node4</title>
<g id="a_node4"><a xlink:href="class_perceptual_color_1_1_chroma_lightness_diagram.html#a7d48f62249ffee09f55edfd3c127eb84" target="_top" xlink:title="Refresh the diagram and associated data.">
<polygon fill="white" stroke="black" points="715,-191.5 715,-221.5 900,-221.5 900,-191.5 715,-191.5"/>
<text text-anchor="start" x="723" y="-209.5" font-family="Helvetica,sans-Serif" font-size="10.00">PerceptualColor::ChromaLightness</text>
<text text-anchor="middle" x="807.5" y="-198.5" font-family="Helvetica,sans-Serif" font-size="10.00">Diagram::updateDiagramCache</text>
</a>
</g>
</g>
<!-- Node3&#45;&gt;Node4 -->
<g id="edge3" class="edge">
<title>Node3&#45;&gt;Node4</title>
<path fill="none" stroke="midnightblue" d="M926.78,-194.67C917.86,-195.56 908.88,-196.46 900.06,-197.34"/>
<polygon fill="midnightblue" stroke="midnightblue" points="927.19,-198.15 936.79,-193.67 926.49,-191.18 927.19,-198.15"/>
</g>
<!-- Node5 -->
<g id="node5" class="node">
<title>Node5</title>
<g id="a_node5"><a xlink:href="class_perceptual_color_1_1_chroma_lightness_diagram.html#a9f6471b44d4f4eba95914945bc53037a" target="_top" xlink:title=" ">
<polygon fill="white" stroke="black" points="472,-235.5 472,-265.5 660,-265.5 660,-235.5 472,-235.5"/>
<text text-anchor="start" x="480" y="-253.5" font-family="Helvetica,sans-Serif" font-size="10.00">PerceptualColor::ChromaLightness</text>
<text text-anchor="middle" x="566" y="-242.5" font-family="Helvetica,sans-Serif" font-size="10.00">Diagram::currentImageCoordinates</text>
</a>
</g>
</g>
<!-- Node4&#45;&gt;Node5 -->
<g id="edge4" class="edge">
<title>Node4&#45;&gt;Node5</title>
<path fill="none" stroke="midnightblue" d="M714.86,-223.34C693.12,-227.33 670.06,-231.57 648.79,-235.47"/>
<polygon fill="midnightblue" stroke="midnightblue" points="715.54,-226.77 724.75,-221.52 714.28,-219.88 715.54,-226.77"/>
</g>
<!-- Node6 -->
<g id="node6" class="node">
<title>Node6</title>
<g id="a_node6"><a xlink:href="class_perceptual_color_1_1_chroma_lightness_diagram.html#abd23775803f181201fefbdcc08378ab8" target="_top" xlink:title="React on key press events.">
<polygon fill="white" stroke="black" points="0,-240.5 0,-270.5 185,-270.5 185,-240.5 0,-240.5"/>
<text text-anchor="start" x="8" y="-258.5" font-family="Helvetica,sans-Serif" font-size="10.00">PerceptualColor::ChromaLightness</text>
<text text-anchor="middle" x="92.5" y="-247.5" font-family="Helvetica,sans-Serif" font-size="10.00">Diagram::keyPressEvent</text>
</a>
</g>
</g>
<!-- Node4&#45;&gt;Node6 -->
<g id="edge18" class="edge">
<title>Node4&#45;&gt;Node6</title>
<path fill="none" stroke="midnightblue" d="M784.79,-228.98C761.16,-251.8 721.1,-285.92 679,-301.5 487.95,-372.21 419.23,-366.46 221,-319.5 181.48,-310.14 140.27,-286.5 115.75,-270.73"/>
<polygon fill="midnightblue" stroke="midnightblue" points="787.49,-231.23 792.15,-221.72 782.57,-226.25 787.49,-231.23"/>
</g>
<!-- Node7 -->
<g id="node7" class="node">
<title>Node7</title>
<g id="a_node7"><a xlink:href="class_perceptual_color_1_1_chroma_lightness_diagram.html#a82c4e4f64c0d5e9307d767f2bfa052db" target="_top" xlink:title="Paint the widget.">
<polygon fill="white" stroke="black" points="226.5,-279.5 226.5,-309.5 411.5,-309.5 411.5,-279.5 226.5,-279.5"/>
<text text-anchor="start" x="234.5" y="-297.5" font-family="Helvetica,sans-Serif" font-size="10.00">PerceptualColor::ChromaLightness</text>
<text text-anchor="middle" x="319" y="-286.5" font-family="Helvetica,sans-Serif" font-size="10.00">Diagram::paintEvent</text>
</a>
</g>
</g>
<!-- Node4&#45;&gt;Node7 -->
<g id="edge19" class="edge">
<title>Node4&#45;&gt;Node7</title>
<path fill="none" stroke="midnightblue" d="M777.08,-227.35C752.23,-243.71 715.03,-265.35 679,-275.5 590.69,-300.37 485.42,-302.94 411.8,-300.62"/>
<polygon fill="midnightblue" stroke="midnightblue" points="779.3,-230.07 785.65,-221.59 775.4,-224.26 779.3,-230.07"/>
</g>
<!-- Node8 -->
<g id="node8" class="node">
<title>Node8</title>
<g id="a_node8"><a xlink:href="class_perceptual_color_1_1_chroma_lightness_diagram.html#ac9b6d25ecc2c6a954f1ba361960458b1" target="_top" xlink:title=" ">
<polygon fill="white" stroke="black" points="226.5,-142.5 226.5,-172.5 411.5,-172.5 411.5,-142.5 226.5,-142.5"/>
<text text-anchor="start" x="234.5" y="-160.5" font-family="Helvetica,sans-Serif" font-size="10.00">PerceptualColor::ChromaLightness</text>
<text text-anchor="middle" x="319" y="-149.5" font-family="Helvetica,sans-Serif" font-size="10.00">Diagram::setImageCoordinates</text>
</a>
</g>
</g>
<!-- Node4&#45;&gt;Node8 -->
<g id="edge20" class="edge">
<title>Node4&#45;&gt;Node8</title>
<path fill="none" stroke="midnightblue" d="M704.89,-196.27C618.33,-187.55 495.04,-175.13 411.51,-166.72"/>
<polygon fill="midnightblue" stroke="midnightblue" points="704.69,-199.76 714.99,-197.28 705.39,-192.8 704.69,-199.76"/>
</g>
<!-- Node12 -->
<g id="node12" class="node">
<title>Node12</title>
<g id="a_node12"><a xlink:href="class_perceptual_color_1_1_chroma_lightness_diagram.html#a9bfa53bcbfd4010c082294c9cfb5b2eb" target="_top" xlink:title=" ">
<polygon fill="white" stroke="black" points="453,-99 453,-140 679,-140 679,-99 453,-99"/>
<text text-anchor="start" x="461" y="-128" font-family="Helvetica,sans-Serif" font-size="10.00">PerceptualColor::ChromaLightness</text>
<text text-anchor="start" x="461" y="-117" font-family="Helvetica,sans-Serif" font-size="10.00">Diagram::fromImageCoordinatesToChroma</text>
<text text-anchor="middle" x="566" y="-106" font-family="Helvetica,sans-Serif" font-size="10.00">Lightness</text>
</a>
</g>
</g>
<!-- Node4&#45;&gt;Node12 -->
<g id="edge12" class="edge">
<title>Node4&#45;&gt;Node12</title>
<path fill="none" stroke="midnightblue" d="M762.55,-187.51C738.14,-177.23 707.1,-164.6 679,-154.5 665.2,-149.54 650.3,-144.6 636.01,-140.06"/>
<polygon fill="midnightblue" stroke="midnightblue" points="761.33,-190.79 771.9,-191.46 764.06,-184.34 761.33,-190.79"/>
</g>
<!-- Node13 -->
<g id="node13" class="node">
<title>Node13</title>
<g id="a_node13"><a xlink:href="class_perceptual_color_1_1_chroma_lightness_diagram.html#a00a13ef1aa732e2f16d0d9f371aa4746" target="_top" xlink:title="Tests if image coordinates are in gamut.">
<polygon fill="white" stroke="black" points="221,-191.5 221,-221.5 417,-221.5 417,-191.5 221,-191.5"/>
<text text-anchor="start" x="229" y="-209.5" font-family="Helvetica,sans-Serif" font-size="10.00">PerceptualColor::ChromaLightness</text>
<text text-anchor="middle" x="319" y="-198.5" font-family="Helvetica,sans-Serif" font-size="10.00">Diagram::imageCoordinatesInGamut</text>
</a>
</g>
</g>
<!-- Node4&#45;&gt;Node13 -->
<g id="edge14" class="edge">
<title>Node4&#45;&gt;Node13</title>
<path fill="none" stroke="midnightblue" d="M704.86,-206.5C620.3,-206.5 500.7,-206.5 417.35,-206.5"/>
<polygon fill="midnightblue" stroke="midnightblue" points="704.99,-210 714.99,-206.5 704.99,-203 704.99,-210"/>
</g>
<!-- Node5&#45;&gt;Node6 -->
<g id="edge5" class="edge">
<title>Node5&#45;&gt;Node6</title>
<path fill="none" stroke="midnightblue" d="M461.69,-251.6C379.16,-252.47 264.58,-253.69 185.26,-254.53"/>
<polygon fill="midnightblue" stroke="midnightblue" points="461.88,-255.09 471.85,-251.49 461.81,-248.09 461.88,-255.09"/>
</g>
<!-- Node5&#45;&gt;Node7 -->
<g id="edge6" class="edge">
<title>Node5&#45;&gt;Node7</title>
<path fill="none" stroke="midnightblue" d="M471.26,-267.34C449.01,-271.33 425.43,-275.57 403.67,-279.47"/>
<polygon fill="midnightblue" stroke="midnightblue" points="472.15,-270.73 481.37,-265.52 470.91,-263.84 472.15,-270.73"/>
</g>
<!-- Node5&#45;&gt;Node8 -->
<g id="edge7" class="edge">
<title>Node5&#45;&gt;Node8</title>
<path fill="none" stroke="midnightblue" d="M527.06,-230.79C497.62,-216.05 455.47,-196.17 417,-182.5 406.76,-178.86 395.74,-175.51 384.92,-172.52"/>
<polygon fill="midnightblue" stroke="midnightblue" points="525.65,-233.99 536.16,-235.38 528.81,-227.75 525.65,-233.99"/>
</g>
<!-- Node8&#45;&gt;Node6 -->
<g id="edge8" class="edge">
<title>Node8&#45;&gt;Node6</title>
<path fill="none" stroke="midnightblue" d="M230.62,-176.79C227.28,-178.53 224.06,-180.43 221,-182.5 198.62,-197.64 207.35,-216.31 185,-231.5 179.97,-234.92 174.49,-237.84 168.78,-240.36"/>
<polygon fill="midnightblue" stroke="midnightblue" points="232.11,-179.96 239.67,-172.54 229.13,-173.62 232.11,-179.96"/>
</g>
<!-- Node9 -->
<g id="node9" class="node">
<title>Node9</title>
<g id="a_node9"><a xlink:href="class_perceptual_color_1_1_chroma_lightness_diagram.html#a1697a065cdb13e6a5b8af378673c77f3" target="_top" xlink:title="React on a mouse move event.">
<polygon fill="white" stroke="black" points="0,-191.5 0,-221.5 185,-221.5 185,-191.5 0,-191.5"/>
<text text-anchor="start" x="8" y="-209.5" font-family="Helvetica,sans-Serif" font-size="10.00">PerceptualColor::ChromaLightness</text>
<text text-anchor="middle" x="92.5" y="-198.5" font-family="Helvetica,sans-Serif" font-size="10.00">Diagram::mouseMoveEvent</text>
</a>
</g>
</g>
<!-- Node8&#45;&gt;Node9 -->
<g id="edge9" class="edge">
<title>Node8&#45;&gt;Node9</title>
<path fill="none" stroke="midnightblue" d="M239.26,-174.69C214.16,-180.16 186.59,-186.18 162.25,-191.49"/>
<polygon fill="midnightblue" stroke="midnightblue" points="240.09,-178.09 249.12,-172.53 238.6,-171.25 240.09,-178.09"/>
</g>
<!-- Node10 -->
<g id="node10" class="node">
<title>Node10</title>
<g id="a_node10"><a xlink:href="class_perceptual_color_1_1_chroma_lightness_diagram.html#aa0aa6d31cefd3b9dfbfe9acfcac18e3d" target="_top" xlink:title="React on a mouse press event.">
<polygon fill="white" stroke="black" points="0,-142.5 0,-172.5 185,-172.5 185,-142.5 0,-142.5"/>
<text text-anchor="start" x="8" y="-160.5" font-family="Helvetica,sans-Serif" font-size="10.00">PerceptualColor::ChromaLightness</text>
<text text-anchor="middle" x="92.5" y="-149.5" font-family="Helvetica,sans-Serif" font-size="10.00">Diagram::mousePressEvent</text>
</a>
</g>
</g>
<!-- Node8&#45;&gt;Node10 -->
<g id="edge10" class="edge">
<title>Node8&#45;&gt;Node10</title>
<path fill="none" stroke="midnightblue" d="M216.11,-157.5C205.81,-157.5 195.39,-157.5 185.21,-157.5"/>
<polygon fill="midnightblue" stroke="midnightblue" points="216.36,-161 226.36,-157.5 216.36,-154 216.36,-161"/>
</g>
<!-- Node11 -->
<g id="node11" class="node">
<title>Node11</title>
<g id="a_node11"><a xlink:href="class_perceptual_color_1_1_chroma_lightness_diagram.html#a9bd534e0817d1afb0a3674f98919b8db" target="_top" xlink:title="React on a mouse release event.">
<polygon fill="white" stroke="black" points="0,-93.5 0,-123.5 185,-123.5 185,-93.5 0,-93.5"/>
<text text-anchor="start" x="8" y="-111.5" font-family="Helvetica,sans-Serif" font-size="10.00">PerceptualColor::ChromaLightness</text>
<text text-anchor="middle" x="92.5" y="-100.5" font-family="Helvetica,sans-Serif" font-size="10.00">Diagram::mouseReleaseEvent</text>
</a>
</g>
</g>
<!-- Node8&#45;&gt;Node11 -->
<g id="edge11" class="edge">
<title>Node8&#45;&gt;Node11</title>
<path fill="none" stroke="midnightblue" d="M239.26,-140.31C214.16,-134.84 186.59,-128.82 162.25,-123.51"/>
<polygon fill="midnightblue" stroke="midnightblue" points="238.6,-143.75 249.12,-142.47 240.09,-136.91 238.6,-143.75"/>
</g>
<!-- Node12&#45;&gt;Node8 -->
<g id="edge13" class="edge">
<title>Node12&#45;&gt;Node8</title>
<path fill="none" stroke="midnightblue" d="M442.9,-138.44C432.46,-140.06 422.01,-141.68 411.87,-143.25"/>
<polygon fill="midnightblue" stroke="midnightblue" points="443.55,-141.88 452.9,-136.89 442.48,-134.96 443.55,-141.88"/>
</g>
<!-- Node13&#45;&gt;Node6 -->
<g id="edge15" class="edge">
<title>Node13&#45;&gt;Node6</title>
<path fill="none" stroke="midnightblue" d="M239.26,-223.69C214.16,-229.16 186.59,-235.18 162.25,-240.49"/>
<polygon fill="midnightblue" stroke="midnightblue" points="240.09,-227.09 249.12,-221.53 238.6,-220.25 240.09,-227.09"/>
</g>
<!-- Node13&#45;&gt;Node9 -->
<g id="edge16" class="edge">
<title>Node13&#45;&gt;Node9</title>
<path fill="none" stroke="midnightblue" d="M210.8,-206.5C202.22,-206.5 193.6,-206.5 185.14,-206.5"/>
<polygon fill="midnightblue" stroke="midnightblue" points="210.84,-210 220.84,-206.5 210.84,-203 210.84,-210"/>
</g>
<!-- Node13&#45;&gt;Node10 -->
<g id="edge17" class="edge">
<title>Node13&#45;&gt;Node10</title>
<path fill="none" stroke="midnightblue" d="M239.26,-189.31C214.16,-183.84 186.59,-177.82 162.25,-172.51"/>
<polygon fill="midnightblue" stroke="midnightblue" points="238.6,-192.75 249.12,-191.47 240.09,-185.91 238.6,-192.75"/>
</g>
<!-- Node16 -->
<g id="node16" class="node">
<title>Node16</title>
<g id="a_node16"><a xlink:href="class_perceptual_color_1_1_chroma_hue_diagram.html#a7d8f858f515726d5e171b8e150c6ec2b" target="_top" xlink:title="Refresh the wheel and associated data.">
<polygon fill="white" stroke="black" points="728,-0.5 728,-30.5 887,-30.5 887,-0.5 728,-0.5"/>
<text text-anchor="start" x="736" y="-18.5" font-family="Helvetica,sans-Serif" font-size="10.00">PerceptualColor::ChromaHue</text>
<text text-anchor="middle" x="807.5" y="-7.5" font-family="Helvetica,sans-Serif" font-size="10.00">Diagram::updateWheelCache</text>
</a>
</g>
</g>
<!-- Node15&#45;&gt;Node16 -->
<g id="edge23" class="edge">
<title>Node15&#45;&gt;Node16</title>
<path fill="none" stroke="midnightblue" d="M951.01,-47.24C926.5,-41.78 899.62,-35.79 875.87,-30.51"/>
<polygon fill="midnightblue" stroke="midnightblue" points="950.48,-50.71 961,-49.47 952,-43.88 950.48,-50.71"/>
</g>
<!-- Node18 -->
<g id="node18" class="node">
<title>Node18</title>
<g id="a_node18"><a xlink:href="class_perceptual_color_1_1_simple_color_wheel.html#ac454a7cd994298cad632b343c2efe6ba" target="_top" xlink:title="Refresh the wheel ribbon pixmap.">
<polygon fill="white" stroke="black" points="728,-49.5 728,-79.5 887,-79.5 887,-49.5 728,-49.5"/>
<text text-anchor="start" x="736" y="-67.5" font-family="Helvetica,sans-Serif" font-size="10.00">PerceptualColor::SimpleColor</text>
<text text-anchor="middle" x="807.5" y="-56.5" font-family="Helvetica,sans-Serif" font-size="10.00">Wheel::updateWheelImage</text>
</a>
</g>
</g>
<!-- Node15&#45;&gt;Node18 -->
<g id="edge25" class="edge">
<title>Node15&#45;&gt;Node18</title>
<path fill="none" stroke="midnightblue" d="M939.57,-64.5C922.21,-64.5 904.12,-64.5 887.12,-64.5"/>
<polygon fill="midnightblue" stroke="midnightblue" points="939.7,-68 949.7,-64.5 939.7,-61 939.7,-68"/>
</g>
<!-- Node17 -->
<g id="node17" class="node">
<title>Node17</title>
<g id="a_node17"><a xlink:href="class_perceptual_color_1_1_chroma_hue_diagram.html#ad7709d55647d4a6842f34a5dd10cb2a9" target="_top" xlink:title="Paint the widget.">
<polygon fill="white" stroke="black" points="487,-0.5 487,-30.5 645,-30.5 645,-0.5 487,-0.5"/>
<text text-anchor="start" x="495" y="-18.5" font-family="Helvetica,sans-Serif" font-size="10.00">PerceptualColor::ChromaHue</text>
<text text-anchor="middle" x="566" y="-7.5" font-family="Helvetica,sans-Serif" font-size="10.00">Diagram::paintEvent</text>
</a>
</g>
</g>
<!-- Node16&#45;&gt;Node17 -->
<g id="edge24" class="edge">
<title>Node16&#45;&gt;Node17</title>
<path fill="none" stroke="midnightblue" d="M717.7,-15.5C693.97,-15.5 668.51,-15.5 645.39,-15.5"/>
<polygon fill="midnightblue" stroke="midnightblue" points="717.75,-19 727.75,-15.5 717.75,-12 717.75,-19"/>
</g>
<!-- Node19 -->
<g id="node19" class="node">
<title>Node19</title>
<g id="a_node19"><a xlink:href="class_perceptual_color_1_1_simple_color_wheel.html#acec7e14aa3949bb3a1afd03a9d9cc15b" target="_top" xlink:title="Paint the widget.">
<polygon fill="white" stroke="black" points="486.5,-49.5 486.5,-79.5 645.5,-79.5 645.5,-49.5 486.5,-49.5"/>
<text text-anchor="start" x="494.5" y="-67.5" font-family="Helvetica,sans-Serif" font-size="10.00">PerceptualColor::SimpleColor</text>
<text text-anchor="middle" x="566" y="-56.5" font-family="Helvetica,sans-Serif" font-size="10.00">Wheel::paintEvent</text>
</a>
</g>
</g>
<!-- Node18&#45;&gt;Node19 -->
<g id="edge26" class="edge">
<title>Node18&#45;&gt;Node19</title>
<path fill="none" stroke="midnightblue" d="M717.43,-64.5C693.93,-64.5 668.72,-64.5 645.8,-64.5"/>
<polygon fill="midnightblue" stroke="midnightblue" points="717.75,-68 727.75,-64.5 717.75,-61 717.75,-68"/>
</g>
</g>
</svg>
