<?xml version="1.0" encoding="UTF-8" standalone="no"?>
<!DOCTYPE svg PUBLIC "-//W3C//DTD SVG 1.1//EN"
 "http://www.w3.org/Graphics/SVG/1.1/DTD/svg11.dtd">
<!-- Generated by graphviz version 2.43.0 (0)
 -->
<!-- Title: PerceptualColor::RgbColorSpace::colorRgbBound Pages: 1 -->
<svg width="769pt" height="110pt"
 viewBox="0.00 0.00 769.00 110.00" xmlns="http://www.w3.org/2000/svg" xmlns:xlink="http://www.w3.org/1999/xlink">
<g id="graph0" class="graph" transform="scale(1 1) rotate(0) translate(4 106)">
<title>PerceptualColor::RgbColorSpace::colorRgbBound</title>
<polygon fill="white" stroke="transparent" points="-4,4 -4,-106 765,-106 765,4 -4,4"/>
<!-- Node1 -->
<g id="node1" class="node">
<title>Node1</title>
<g id="a_node1"><a xlink:title="Calculates the RGB value.">
<polygon fill="#bfbfbf" stroke="black" points="617,-22.5 617,-52.5 761,-52.5 761,-22.5 617,-22.5"/>
<text text-anchor="start" x="625" y="-40.5" font-family="Helvetica,sans-Serif" font-size="10.00">PerceptualColor::RgbColor</text>
<text text-anchor="middle" x="689" y="-29.5" font-family="Helvetica,sans-Serif" font-size="10.00">Space::colorRgbBound</text>
</a>
</g>
</g>
<!-- Node2 -->
<g id="node2" class="node">
<title>Node2</title>
<g id="a_node2"><a xlink:href="class_perceptual_color_1_1_rgb_color_space.html#a8e32b4bb53a99edbb7d8f238489b54d4" target="_top" xlink:title="Calculates the RGB value.">
<polygon fill="white" stroke="black" points="418.5,-71.5 418.5,-101.5 562.5,-101.5 562.5,-71.5 418.5,-71.5"/>
<text text-anchor="start" x="426.5" y="-89.5" font-family="Helvetica,sans-Serif" font-size="10.00">PerceptualColor::RgbColor</text>
<text text-anchor="middle" x="490.5" y="-78.5" font-family="Helvetica,sans-Serif" font-size="10.00">Space::colorRgbBound</text>
</a>
</g>
</g>
<!-- Node1&#45;&gt;Node2 -->
<g id="edge1" class="edge">
<title>Node1&#45;&gt;Node2</title>
<path fill="none" stroke="midnightblue" d="M617.91,-54.98C596.26,-60.38 572.6,-66.28 551.68,-71.49"/>
<polygon fill="midnightblue" stroke="midnightblue" points="618.85,-58.35 627.71,-52.53 617.16,-51.56 618.85,-58.35"/>
</g>
<!-- Node3 -->
<g id="node3" class="node">
<title>Node3</title>
<g id="a_node3"><a xlink:href="class_perceptual_color_1_1_chroma_hue_diagram.html#adc53e31427f7c15d0aedc521aea5edd7" target="_top" xlink:title="in image of a&#45;b plane of the color space at a given lightness">
<polygon fill="white" stroke="black" points="400,-22.5 400,-52.5 581,-52.5 581,-22.5 400,-22.5"/>
<text text-anchor="start" x="408" y="-40.5" font-family="Helvetica,sans-Serif" font-size="10.00">PerceptualColor::ChromaHue</text>
<text text-anchor="middle" x="490.5" y="-29.5" font-family="Helvetica,sans-Serif" font-size="10.00">Diagram::generateDiagramImage</text>
</a>
</g>
</g>
<!-- Node1&#45;&gt;Node3 -->
<g id="edge2" class="edge">
<title>Node1&#45;&gt;Node3</title>
<path fill="none" stroke="midnightblue" d="M606.66,-37.5C598.28,-37.5 589.74,-37.5 581.27,-37.5"/>
<polygon fill="midnightblue" stroke="midnightblue" points="606.78,-41 616.78,-37.5 606.78,-34 606.78,-41"/>
</g>
<!-- Node5 -->
<g id="node5" class="node">
<title>Node5</title>
<g id="a_node5"><a xlink:href="class_perceptual_color_1_1_chroma_hue_diagram.html#ad7709d55647d4a6842f34a5dd10cb2a9" target="_top" xlink:title="Paint the widget.">
<polygon fill="white" stroke="black" points="0,-0.5 0,-30.5 158,-30.5 158,-0.5 0,-0.5"/>
<text text-anchor="start" x="8" y="-18.5" font-family="Helvetica,sans-Serif" font-size="10.00">PerceptualColor::ChromaHue</text>
<text text-anchor="middle" x="79" y="-7.5" font-family="Helvetica,sans-Serif" font-size="10.00">Diagram::paintEvent</text>
</a>
</g>
</g>
<!-- Node1&#45;&gt;Node5 -->
<g id="edge5" class="edge">
<title>Node1&#45;&gt;Node5</title>
<path fill="none" stroke="midnightblue" d="M624.39,-20.12C610.22,-16.95 595.18,-14.13 581,-12.5 432.38,4.63 257.31,-2.61 158.42,-9.21"/>
<polygon fill="midnightblue" stroke="midnightblue" points="624.01,-23.62 634.54,-22.47 625.59,-16.8 624.01,-23.62"/>
</g>
<!-- Node4 -->
<g id="node4" class="node">
<title>Node4</title>
<g id="a_node4"><a xlink:href="class_perceptual_color_1_1_chroma_hue_diagram.html#a1ffe1f34cd9e77800b8836e9383e0fd6" target="_top" xlink:title="Refresh the diagram and associated data.">
<polygon fill="white" stroke="black" points="194,-22.5 194,-52.5 364,-52.5 364,-22.5 194,-22.5"/>
<text text-anchor="start" x="202" y="-40.5" font-family="Helvetica,sans-Serif" font-size="10.00">PerceptualColor::ChromaHue</text>
<text text-anchor="middle" x="279" y="-29.5" font-family="Helvetica,sans-Serif" font-size="10.00">Diagram::updateDiagramCache</text>
</a>
</g>
</g>
<!-- Node3&#45;&gt;Node4 -->
<g id="edge3" class="edge">
<title>Node3&#45;&gt;Node4</title>
<path fill="none" stroke="midnightblue" d="M389.48,-37.5C381.04,-37.5 372.56,-37.5 364.26,-37.5"/>
<polygon fill="midnightblue" stroke="midnightblue" points="389.74,-41 399.74,-37.5 389.74,-34 389.74,-41"/>
</g>
<!-- Node4&#45;&gt;Node5 -->
<g id="edge4" class="edge">
<title>Node4&#45;&gt;Node5</title>
<path fill="none" stroke="midnightblue" d="M183.74,-27.03C175.19,-26.08 166.6,-25.12 158.21,-24.19"/>
<polygon fill="midnightblue" stroke="midnightblue" points="183.42,-30.51 193.74,-28.14 184.19,-23.56 183.42,-30.51"/>
</g>
</g>
</svg>
