<?xml version="1.0" encoding="UTF-8" standalone="no"?>
<!DOCTYPE svg PUBLIC "-//W3C//DTD SVG 1.1//EN"
 "http://www.w3.org/Graphics/SVG/1.1/DTD/svg11.dtd">
<!-- Generated by graphviz version 2.43.0 (0)
 -->
<!-- Title: PerceptualColor::ChromaLightnessDiagram::mouseReleaseEvent Pages: 1 -->
<svg width="1525pt" height="255pt"
 viewBox="0.00 0.00 1525.00 255.16" xmlns="http://www.w3.org/2000/svg" xmlns:xlink="http://www.w3.org/1999/xlink">
<g id="graph0" class="graph" transform="scale(1 1) rotate(0) translate(4 251.16)">
<title>PerceptualColor::ChromaLightnessDiagram::mouseReleaseEvent</title>
<polygon fill="white" stroke="transparent" points="-4,4 -4,-251.16 1521,-251.16 1521,4 -4,4"/>
<!-- Node1 -->
<g id="node1" class="node">
<title>Node1</title>
<g id="a_node1"><a xlink:title="React on a mouse release event.">
<polygon fill="#bfbfbf" stroke="black" points="0,-121.46 0,-151.46 185,-151.46 185,-121.46 0,-121.46"/>
<text text-anchor="start" x="8" y="-139.46" font-family="Helvetica,sans-Serif" font-size="10.00">PerceptualColor::ChromaLightness</text>
<text text-anchor="middle" x="92.5" y="-128.46" font-family="Helvetica,sans-Serif" font-size="10.00">Diagram::mouseReleaseEvent</text>
</a>
</g>
</g>
<!-- Node2 -->
<g id="node2" class="node">
<title>Node2</title>
<g id="a_node2"><a xlink:href="class_perceptual_color_1_1_chroma_lightness_diagram.html#a556ad2472fd43b7beb091986f9fcc7f5" target="_top" xlink:title="Transforms from widget to image coordinates.">
<polygon fill="white" stroke="black" points="221,-143.96 221,-184.96 443,-184.96 443,-143.96 221,-143.96"/>
<text text-anchor="start" x="229" y="-172.96" font-family="Helvetica,sans-Serif" font-size="10.00">PerceptualColor::ChromaLightness</text>
<text text-anchor="start" x="229" y="-161.96" font-family="Helvetica,sans-Serif" font-size="10.00">Diagram::fromWidgetCoordinatesToImage</text>
<text text-anchor="middle" x="332" y="-150.96" font-family="Helvetica,sans-Serif" font-size="10.00">Coordinates</text>
</a>
</g>
</g>
<!-- Node1&#45;&gt;Node2 -->
<g id="edge1" class="edge">
<title>Node1&#45;&gt;Node2</title>
<path fill="none" stroke="midnightblue" d="M185.32,-147.29C193.67,-148.27 202.21,-149.28 210.76,-150.29"/>
<polygon fill="midnightblue" stroke="midnightblue" points="210.45,-153.77 220.79,-151.47 211.27,-146.82 210.45,-153.77"/>
</g>
<!-- Node3 -->
<g id="node3" class="node">
<title>Node3</title>
<g id="a_node3"><a xlink:href="class_perceptual_color_1_1_chroma_lightness_diagram.html#ac9b6d25ecc2c6a954f1ba361960458b1" target="_top" xlink:title=" ">
<polygon fill="white" stroke="black" points="239.5,-94.46 239.5,-124.46 424.5,-124.46 424.5,-94.46 239.5,-94.46"/>
<text text-anchor="start" x="247.5" y="-112.46" font-family="Helvetica,sans-Serif" font-size="10.00">PerceptualColor::ChromaLightness</text>
<text text-anchor="middle" x="332" y="-101.46" font-family="Helvetica,sans-Serif" font-size="10.00">Diagram::setImageCoordinates</text>
</a>
</g>
</g>
<!-- Node1&#45;&gt;Node3 -->
<g id="edge2" class="edge">
<title>Node1&#45;&gt;Node3</title>
<path fill="none" stroke="midnightblue" d="M185.32,-126.02C199.75,-124.38 214.73,-122.68 229.36,-121.02"/>
<polygon fill="midnightblue" stroke="midnightblue" points="229.88,-124.48 239.42,-119.87 229.09,-117.53 229.88,-124.48"/>
</g>
<!-- Node4 -->
<g id="node4" class="node">
<title>Node4</title>
<g id="a_node4"><a xlink:href="class_perceptual_color_1_1_chroma_lightness_diagram.html#a9f6471b44d4f4eba95914945bc53037a" target="_top" xlink:title=" ">
<polygon fill="white" stroke="black" points="498,-116.46 498,-146.46 686,-146.46 686,-116.46 498,-116.46"/>
<text text-anchor="start" x="506" y="-134.46" font-family="Helvetica,sans-Serif" font-size="10.00">PerceptualColor::ChromaLightness</text>
<text text-anchor="middle" x="592" y="-123.46" font-family="Helvetica,sans-Serif" font-size="10.00">Diagram::currentImageCoordinates</text>
</a>
</g>
</g>
<!-- Node3&#45;&gt;Node4 -->
<g id="edge3" class="edge">
<title>Node3&#45;&gt;Node4</title>
<path fill="none" stroke="midnightblue" d="M424.69,-117.28C445.1,-119.02 466.88,-120.88 487.72,-122.66"/>
<polygon fill="midnightblue" stroke="midnightblue" points="487.61,-126.16 497.87,-123.52 488.2,-119.18 487.61,-126.16"/>
</g>
<!-- Node5 -->
<g id="node5" class="node">
<title>Node5</title>
<g id="a_node5"><a xlink:href="class_perceptual_color_1_1_full_color_description.html#acdbff4639f8a118f0d13a831a4b57ffe" target="_top" xlink:title=" ">
<polygon fill="white" stroke="black" points="983,-93.46 983,-123.46 1126,-123.46 1126,-93.46 983,-93.46"/>
<text text-anchor="start" x="991" y="-111.46" font-family="Helvetica,sans-Serif" font-size="10.00">PerceptualColor::FullColor</text>
<text text-anchor="middle" x="1054.5" y="-100.46" font-family="Helvetica,sans-Serif" font-size="10.00">Description::toLch</text>
</a>
</g>
</g>
<!-- Node3&#45;&gt;Node5 -->
<g id="edge16" class="edge">
<title>Node3&#45;&gt;Node5</title>
<path fill="none" stroke="midnightblue" d="M349.87,-94.44C375.56,-72.67 427.03,-33.33 479,-18.46 673.01,37.05 914.3,-49 1010.76,-89.38"/>
<polygon fill="midnightblue" stroke="midnightblue" points="1009.6,-92.7 1020.17,-93.38 1012.33,-86.25 1009.6,-92.7"/>
</g>
<!-- Node6 -->
<g id="node6" class="node">
<title>Node6</title>
<g id="a_node6"><a xlink:href="class_perceptual_color_1_1_chroma_lightness_diagram.html#a7d48f62249ffee09f55edfd3c127eb84" target="_top" xlink:title="Refresh the diagram and associated data.">
<polygon fill="white" stroke="black" points="741,-162.46 741,-192.46 926,-192.46 926,-162.46 741,-162.46"/>
<text text-anchor="start" x="749" y="-180.46" font-family="Helvetica,sans-Serif" font-size="10.00">PerceptualColor::ChromaLightness</text>
<text text-anchor="middle" x="833.5" y="-169.46" font-family="Helvetica,sans-Serif" font-size="10.00">Diagram::updateDiagramCache</text>
</a>
</g>
</g>
<!-- Node3&#45;&gt;Node6 -->
<g id="edge17" class="edge">
<title>Node3&#45;&gt;Node6</title>
<path fill="none" stroke="midnightblue" d="M424.5,-122.92C431.14,-126.05 437.41,-129.85 443,-134.46 473.69,-159.81 445.68,-194.7 479,-216.46 577.01,-280.47 723.72,-228.29 793.25,-196.9"/>
<polygon fill="midnightblue" stroke="midnightblue" points="794.92,-199.99 802.54,-192.62 791.99,-193.63 794.92,-199.99"/>
</g>
<!-- Node11 -->
<g id="node11" class="node">
<title>Node11</title>
<g id="a_node11"><a xlink:href="class_perceptual_color_1_1_chroma_lightness_diagram.html#a9bfa53bcbfd4010c082294c9cfb5b2eb" target="_top" xlink:title=" ">
<polygon fill="white" stroke="black" points="479,-165.96 479,-206.96 705,-206.96 705,-165.96 479,-165.96"/>
<text text-anchor="start" x="487" y="-194.96" font-family="Helvetica,sans-Serif" font-size="10.00">PerceptualColor::ChromaLightness</text>
<text text-anchor="start" x="487" y="-183.96" font-family="Helvetica,sans-Serif" font-size="10.00">Diagram::fromImageCoordinatesToChroma</text>
<text text-anchor="middle" x="592" y="-172.96" font-family="Helvetica,sans-Serif" font-size="10.00">Lightness</text>
</a>
</g>
</g>
<!-- Node3&#45;&gt;Node11 -->
<g id="edge11" class="edge">
<title>Node3&#45;&gt;Node11</title>
<path fill="none" stroke="midnightblue" d="M413.26,-124.48C423.43,-127.32 433.57,-130.63 443,-134.46 460.37,-141.52 461.77,-149.07 479,-156.46 484.03,-158.62 489.25,-160.66 494.58,-162.58"/>
<polygon fill="midnightblue" stroke="midnightblue" points="493.64,-165.96 504.24,-165.9 495.92,-159.34 493.64,-165.96"/>
</g>
<!-- Node12 -->
<g id="node12" class="node">
<title>Node12</title>
<g id="a_node12"><a xlink:href="class_perceptual_color_1_1_chroma_lightness_diagram.html#a5dfa80fbb52c1217a61fb9adb108bd14" target="_top" xlink:title="Search the nearest non&#45;transparent neighbor pixel.">
<polygon fill="white" stroke="black" points="499.5,-28.46 499.5,-58.46 684.5,-58.46 684.5,-28.46 499.5,-28.46"/>
<text text-anchor="start" x="507.5" y="-46.46" font-family="Helvetica,sans-Serif" font-size="10.00">PerceptualColor::ChromaLightness</text>
<text text-anchor="middle" x="592" y="-35.46" font-family="Helvetica,sans-Serif" font-size="10.00">Diagram::nearestNeighborSearch</text>
</a>
</g>
</g>
<!-- Node3&#45;&gt;Node12 -->
<g id="edge13" class="edge">
<title>Node3&#45;&gt;Node12</title>
<path fill="none" stroke="midnightblue" d="M391.87,-94.4C430.61,-84.49 481.48,-71.48 522.11,-61.09"/>
<polygon fill="midnightblue" stroke="midnightblue" points="523.12,-64.44 531.94,-58.57 521.38,-57.66 523.12,-64.44"/>
</g>
<!-- Node13 -->
<g id="node13" class="node">
<title>Node13</title>
<g id="a_node13"><a xlink:href="class_perceptual_color_1_1_chroma_lightness_diagram.html#a27d7c972e420480674da1a0fae0b10b3" target="_top" xlink:title="Setter for the color() property.">
<polygon fill="white" stroke="black" points="741,-72.46 741,-102.46 926,-102.46 926,-72.46 741,-72.46"/>
<text text-anchor="start" x="749" y="-90.46" font-family="Helvetica,sans-Serif" font-size="10.00">PerceptualColor::ChromaLightness</text>
<text text-anchor="middle" x="833.5" y="-79.46" font-family="Helvetica,sans-Serif" font-size="10.00">Diagram::setColor</text>
</a>
</g>
</g>
<!-- Node3&#45;&gt;Node13 -->
<g id="edge14" class="edge">
<title>Node3&#45;&gt;Node13</title>
<path fill="none" stroke="midnightblue" d="M424.62,-105.43C511.13,-101.62 640.64,-95.91 730.42,-91.96"/>
<polygon fill="midnightblue" stroke="midnightblue" points="730.78,-95.45 740.62,-91.51 730.48,-88.45 730.78,-95.45"/>
</g>
<!-- Node4&#45;&gt;Node5 -->
<g id="edge4" class="edge">
<title>Node4&#45;&gt;Node5</title>
<path fill="none" stroke="midnightblue" d="M686.19,-126.81C770.24,-122.61 892.61,-116.5 972.63,-112.5"/>
<polygon fill="midnightblue" stroke="midnightblue" points="972.84,-116 982.65,-112 972.49,-109 972.84,-116"/>
</g>
<!-- Node4&#45;&gt;Node6 -->
<g id="edge5" class="edge">
<title>Node4&#45;&gt;Node6</title>
<path fill="none" stroke="midnightblue" d="M671.42,-146.53C694.7,-151 720.35,-155.92 744.21,-160.51"/>
<polygon fill="midnightblue" stroke="midnightblue" points="743.83,-164 754.31,-162.45 745.15,-157.12 743.83,-164"/>
</g>
<!-- Node6&#45;&gt;Node5 -->
<g id="edge10" class="edge">
<title>Node6&#45;&gt;Node5</title>
<path fill="none" stroke="midnightblue" d="M882.29,-162.41C915.77,-151.86 960.67,-137.71 996.09,-126.55"/>
<polygon fill="midnightblue" stroke="midnightblue" points="997.33,-129.83 1005.81,-123.49 995.22,-123.16 997.33,-129.83"/>
</g>
<!-- Node7 -->
<g id="node7" class="node">
<title>Node7</title>
<g id="a_node7"><a xlink:href="class_perceptual_color_1_1_chroma_lightness_diagram.html#ae0395993434db2cd0d74b146fed6621c" target="_top" xlink:title="Generates an image of a chroma&#45;lightness diagram.">
<polygon fill="white" stroke="black" points="962,-162.46 962,-192.46 1147,-192.46 1147,-162.46 962,-162.46"/>
<text text-anchor="start" x="970" y="-180.46" font-family="Helvetica,sans-Serif" font-size="10.00">PerceptualColor::ChromaLightness</text>
<text text-anchor="middle" x="1054.5" y="-169.46" font-family="Helvetica,sans-Serif" font-size="10.00">Diagram::generateDiagramImage</text>
</a>
</g>
</g>
<!-- Node6&#45;&gt;Node7 -->
<g id="edge6" class="edge">
<title>Node6&#45;&gt;Node7</title>
<path fill="none" stroke="midnightblue" d="M926.11,-177.46C934.62,-177.46 943.27,-177.46 951.86,-177.46"/>
<polygon fill="midnightblue" stroke="midnightblue" points="951.91,-180.96 961.91,-177.46 951.91,-173.96 951.91,-180.96"/>
</g>
<!-- Node8 -->
<g id="node8" class="node">
<title>Node8</title>
<g id="a_node8"><a xlink:href="class_perceptual_color_1_1_rgb_color_space.html#ab494c2d0f561c49b8325688a8ddc0095" target="_top" xlink:title="Calculates the RGB value.">
<polygon fill="white" stroke="black" points="1185.5,-186.46 1185.5,-216.46 1329.5,-216.46 1329.5,-186.46 1185.5,-186.46"/>
<text text-anchor="start" x="1193.5" y="-204.46" font-family="Helvetica,sans-Serif" font-size="10.00">PerceptualColor::RgbColor</text>
<text text-anchor="middle" x="1257.5" y="-193.46" font-family="Helvetica,sans-Serif" font-size="10.00">Space::colorRgb</text>
</a>
</g>
</g>
<!-- Node7&#45;&gt;Node8 -->
<g id="edge7" class="edge">
<title>Node7&#45;&gt;Node8</title>
<path fill="none" stroke="midnightblue" d="M1147.18,-188.41C1156.61,-189.54 1166.14,-190.67 1175.44,-191.78"/>
<polygon fill="midnightblue" stroke="midnightblue" points="1175.08,-195.27 1185.43,-192.98 1175.91,-188.32 1175.08,-195.27"/>
</g>
<!-- Node9 -->
<g id="node9" class="node">
<title>Node9</title>
<g id="a_node9"><a xlink:href="class_perceptual_color_1_1_polar_point_f.html#a9eefd08d3a5ad536232292380f958804" target="_top" xlink:title="Normalizes an angle.">
<polygon fill="white" stroke="black" points="1183,-137.46 1183,-167.46 1332,-167.46 1332,-137.46 1183,-137.46"/>
<text text-anchor="start" x="1191" y="-155.46" font-family="Helvetica,sans-Serif" font-size="10.00">PerceptualColor::PolarPoint</text>
<text text-anchor="middle" x="1257.5" y="-144.46" font-family="Helvetica,sans-Serif" font-size="10.00">F::normalizedAngleDegree</text>
</a>
</g>
</g>
<!-- Node7&#45;&gt;Node9 -->
<g id="edge8" class="edge">
<title>Node7&#45;&gt;Node9</title>
<path fill="none" stroke="midnightblue" d="M1147.18,-166.06C1155.64,-165.01 1164.19,-163.94 1172.58,-162.9"/>
<polygon fill="midnightblue" stroke="midnightblue" points="1173.23,-166.35 1182.72,-161.64 1172.37,-159.4 1173.23,-166.35"/>
</g>
<!-- Node10 -->
<g id="node10" class="node">
<title>Node10</title>
<g id="a_node10"><a xlink:href="class_perceptual_color_1_1_polar_point_f.html#a882cd166affc603fc62241dcb3be4fd5" target="_top" xlink:title="Normalized angle.">
<polygon fill="white" stroke="black" points="1368,-137.46 1368,-167.46 1517,-167.46 1517,-137.46 1368,-137.46"/>
<text text-anchor="start" x="1376" y="-155.46" font-family="Helvetica,sans-Serif" font-size="10.00">PerceptualColor::PolarPoint</text>
<text text-anchor="middle" x="1442.5" y="-144.46" font-family="Helvetica,sans-Serif" font-size="10.00">F::angleDegree</text>
</a>
</g>
</g>
<!-- Node9&#45;&gt;Node10 -->
<g id="edge9" class="edge">
<title>Node9&#45;&gt;Node10</title>
<path fill="none" stroke="midnightblue" d="M1332.14,-152.46C1340.47,-152.46 1349.01,-152.46 1357.46,-152.46"/>
<polygon fill="midnightblue" stroke="midnightblue" points="1357.71,-155.96 1367.71,-152.46 1357.71,-148.96 1357.71,-155.96"/>
</g>
<!-- Node11&#45;&gt;Node6 -->
<g id="edge12" class="edge">
<title>Node11&#45;&gt;Node6</title>
<path fill="none" stroke="midnightblue" d="M705.04,-182.25C713.52,-181.93 722.05,-181.61 730.47,-181.3"/>
<polygon fill="midnightblue" stroke="midnightblue" points="730.8,-184.79 740.66,-180.91 730.54,-177.79 730.8,-184.79"/>
</g>
<!-- Node13&#45;&gt;Node5 -->
<g id="edge15" class="edge">
<title>Node13&#45;&gt;Node5</title>
<path fill="none" stroke="midnightblue" d="M926.11,-96.25C941.53,-97.73 957.45,-99.25 972.58,-100.7"/>
<polygon fill="midnightblue" stroke="midnightblue" points="972.63,-104.22 982.92,-101.69 973.3,-97.26 972.63,-104.22"/>
</g>
</g>
</svg>
