<?xml version="1.0" encoding="UTF-8" standalone="no"?>
<!DOCTYPE svg PUBLIC "-//W3C//DTD SVG 1.1//EN"
 "http://www.w3.org/Graphics/SVG/1.1/DTD/svg11.dtd">
<!-- Generated by graphviz version 2.43.0 (0)
 -->
<!-- Title: PerceptualColor::ChromaHueDiagram::keyPressEvent Pages: 1 -->
<svg width="539pt" height="61pt"
 viewBox="0.00 0.00 539.00 61.00" xmlns="http://www.w3.org/2000/svg" xmlns:xlink="http://www.w3.org/1999/xlink">
<g id="graph0" class="graph" transform="scale(1 1) rotate(0) translate(4 57)">
<title>PerceptualColor::ChromaHueDiagram::keyPressEvent</title>
<polygon fill="white" stroke="transparent" points="-4,4 -4,-57 535,-57 535,4 -4,4"/>
<!-- Node1 -->
<g id="node1" class="node">
<title>Node1</title>
<g id="a_node1"><a xlink:title="React on key press events.">
<polygon fill="#bfbfbf" stroke="black" points="0,-0.5 0,-30.5 158,-30.5 158,-0.5 0,-0.5"/>
<text text-anchor="start" x="8" y="-18.5" font-family="Helvetica,sans-Serif" font-size="10.00">PerceptualColor::ChromaHue</text>
<text text-anchor="middle" x="79" y="-7.5" font-family="Helvetica,sans-Serif" font-size="10.00">Diagram::keyPressEvent</text>
</a>
</g>
</g>
<!-- Node2 -->
<g id="node2" class="node">
<title>Node2</title>
<g id="a_node2"><a xlink:href="class_perceptual_color_1_1_chroma_hue_diagram.html#a443db20bc2c25119febcd61ca9299d21" target="_top" xlink:title="Setter for the color() property.">
<polygon fill="white" stroke="black" points="194,-22.5 194,-52.5 352,-52.5 352,-22.5 194,-22.5"/>
<text text-anchor="start" x="202" y="-40.5" font-family="Helvetica,sans-Serif" font-size="10.00">PerceptualColor::ChromaHue</text>
<text text-anchor="middle" x="273" y="-29.5" font-family="Helvetica,sans-Serif" font-size="10.00">Diagram::setColor</text>
</a>
</g>
</g>
<!-- Node1&#45;&gt;Node2 -->
<g id="edge1" class="edge">
<title>Node1&#45;&gt;Node2</title>
<path fill="none" stroke="midnightblue" d="M158.09,-24.45C166.6,-25.42 175.3,-26.42 183.92,-27.41"/>
<polygon fill="midnightblue" stroke="midnightblue" points="183.64,-30.9 193.98,-28.56 184.44,-23.94 183.64,-30.9"/>
</g>
<!-- Node3 -->
<g id="node3" class="node">
<title>Node3</title>
<g id="a_node3"><a xlink:href="class_perceptual_color_1_1_full_color_description.html#acdbff4639f8a118f0d13a831a4b57ffe" target="_top" xlink:title=" ">
<polygon fill="white" stroke="black" points="388,-0.5 388,-30.5 531,-30.5 531,-0.5 388,-0.5"/>
<text text-anchor="start" x="396" y="-18.5" font-family="Helvetica,sans-Serif" font-size="10.00">PerceptualColor::FullColor</text>
<text text-anchor="middle" x="459.5" y="-7.5" font-family="Helvetica,sans-Serif" font-size="10.00">Description::toLch</text>
</a>
</g>
</g>
<!-- Node1&#45;&gt;Node3 -->
<g id="edge3" class="edge">
<title>Node1&#45;&gt;Node3</title>
<path fill="none" stroke="midnightblue" d="M158.19,-13.95C170.18,-13.76 182.42,-13.6 194,-13.5 264.22,-12.88 281.78,-12.84 352,-13.5 360.31,-13.58 368.98,-13.69 377.63,-13.82"/>
<polygon fill="midnightblue" stroke="midnightblue" points="377.7,-17.32 387.75,-13.99 377.81,-10.32 377.7,-17.32"/>
</g>
<!-- Node2&#45;&gt;Node3 -->
<g id="edge2" class="edge">
<title>Node2&#45;&gt;Node3</title>
<path fill="none" stroke="midnightblue" d="M352.24,-28.17C360.62,-27.17 369.16,-26.15 377.57,-25.15"/>
<polygon fill="midnightblue" stroke="midnightblue" points="378.23,-28.6 387.74,-23.94 377.4,-21.65 378.23,-28.6"/>
</g>
</g>
</svg>
