<?xml version="1.0" encoding="UTF-8" standalone="no"?>
<!DOCTYPE svg PUBLIC "-//W3C//DTD SVG 1.1//EN"
 "http://www.w3.org/Graphics/SVG/1.1/DTD/svg11.dtd">
<!-- Generated by graphviz version 2.43.0 (0)
 -->
<!-- Title: PerceptualColor::GradientSelector::setOrientation Pages: 1 -->
<svg width="533pt" height="88pt"
 viewBox="0.00 0.00 533.00 88.00" xmlns="http://www.w3.org/2000/svg" xmlns:xlink="http://www.w3.org/1999/xlink">
<g id="graph0" class="graph" transform="scale(1 1) rotate(0) translate(4 84)">
<title>PerceptualColor::GradientSelector::setOrientation</title>
<polygon fill="white" stroke="transparent" points="-4,4 -4,-84 529,-84 529,4 -4,4"/>
<!-- Node1 -->
<g id="node1" class="node">
<title>Node1</title>
<g id="a_node1"><a xlink:title=" ">
<polygon fill="#bfbfbf" stroke="black" points="383,-24.5 383,-54.5 525,-54.5 525,-24.5 383,-24.5"/>
<text text-anchor="start" x="391" y="-42.5" font-family="Helvetica,sans-Serif" font-size="10.00">PerceptualColor::Gradient</text>
<text text-anchor="middle" x="454" y="-31.5" font-family="Helvetica,sans-Serif" font-size="10.00">Selector::setOrientation</text>
</a>
</g>
</g>
<!-- Node2 -->
<g id="node2" class="node">
<title>Node2</title>
<g id="a_node2"><a xlink:href="class_perceptual_color_1_1_alpha_selector.html#a3054b783bd88068bbf6caa4553dc4649" target="_top" xlink:title=" ">
<polygon fill="white" stroke="black" points="180,-49.5 180,-79.5 347,-79.5 347,-49.5 180,-49.5"/>
<text text-anchor="start" x="188" y="-67.5" font-family="Helvetica,sans-Serif" font-size="10.00">PerceptualColor::AlphaSelector</text>
<text text-anchor="middle" x="263.5" y="-56.5" font-family="Helvetica,sans-Serif" font-size="10.00">::AlphaSelector</text>
</a>
</g>
</g>
<!-- Node1&#45;&gt;Node2 -->
<g id="edge1" class="edge">
<title>Node1&#45;&gt;Node2</title>
<path fill="none" stroke="midnightblue" d="M372.62,-50.16C364.19,-51.28 355.61,-52.42 347.16,-53.54"/>
<polygon fill="midnightblue" stroke="midnightblue" points="373.36,-53.59 382.81,-48.81 372.44,-46.65 373.36,-53.59"/>
</g>
<!-- Node3 -->
<g id="node3" class="node">
<title>Node3</title>
<g id="a_node3"><a xlink:href="class_perceptual_color_1_1_gradient_selector.html#a4a19e9fef9d31d5e028ff7eeb783d1be" target="_top" xlink:title=" ">
<polygon fill="white" stroke="black" points="192.5,-0.5 192.5,-30.5 334.5,-30.5 334.5,-0.5 192.5,-0.5"/>
<text text-anchor="start" x="200.5" y="-18.5" font-family="Helvetica,sans-Serif" font-size="10.00">PerceptualColor::Gradient</text>
<text text-anchor="middle" x="263.5" y="-7.5" font-family="Helvetica,sans-Serif" font-size="10.00">Selector::initialize</text>
</a>
</g>
</g>
<!-- Node1&#45;&gt;Node3 -->
<g id="edge2" class="edge">
<title>Node1&#45;&gt;Node3</title>
<path fill="none" stroke="midnightblue" d="M372.76,-29.28C360.12,-27.67 347.14,-26.02 334.75,-24.44"/>
<polygon fill="midnightblue" stroke="midnightblue" points="372.45,-32.77 382.81,-30.56 373.33,-25.83 372.45,-32.77"/>
</g>
<!-- Node4 -->
<g id="node4" class="node">
<title>Node4</title>
<g id="a_node4"><a xlink:href="class_perceptual_color_1_1_gradient_selector.html#a9afd88c06d6ae19d85a0f91e4def1b01" target="_top" xlink:title=" ">
<polygon fill="white" stroke="black" points="0,-0.5 0,-30.5 144,-30.5 144,-0.5 0,-0.5"/>
<text text-anchor="start" x="8" y="-18.5" font-family="Helvetica,sans-Serif" font-size="10.00">PerceptualColor::Gradient</text>
<text text-anchor="middle" x="72" y="-7.5" font-family="Helvetica,sans-Serif" font-size="10.00">Selector::GradientSelector</text>
</a>
</g>
</g>
<!-- Node3&#45;&gt;Node4 -->
<g id="edge3" class="edge">
<title>Node3&#45;&gt;Node4</title>
<path fill="none" stroke="midnightblue" d="M182.35,-15.5C169.61,-15.5 156.51,-15.5 144,-15.5"/>
<polygon fill="midnightblue" stroke="midnightblue" points="182.48,-19 192.48,-15.5 182.48,-12 182.48,-19"/>
</g>
</g>
</svg>
