<?xml version="1.0" encoding="UTF-8" standalone="no"?>
<!DOCTYPE svg PUBLIC "-//W3C//DTD SVG 1.1//EN"
 "http://www.w3.org/Graphics/SVG/1.1/DTD/svg11.dtd">
<!-- Generated by graphviz version 2.43.0 (0)
 -->
<!-- Title: PerceptualColor::ColorDialog::setLayoutDimensions Pages: 1 -->
<svg width="553pt" height="39pt"
 viewBox="0.00 0.00 553.00 39.00" xmlns="http://www.w3.org/2000/svg" xmlns:xlink="http://www.w3.org/1999/xlink">
<g id="graph0" class="graph" transform="scale(1 1) rotate(0) translate(4 35)">
<title>PerceptualColor::ColorDialog::setLayoutDimensions</title>
<polygon fill="white" stroke="transparent" points="-4,4 -4,-35 549,-35 549,4 -4,4"/>
<!-- Node1 -->
<g id="node1" class="node">
<title>Node1</title>
<g id="a_node1"><a xlink:title="Setter for property layoutDimensions.">
<polygon fill="#bfbfbf" stroke="black" points="0,-0.5 0,-30.5 157,-30.5 157,-0.5 0,-0.5"/>
<text text-anchor="start" x="8" y="-18.5" font-family="Helvetica,sans-Serif" font-size="10.00">PerceptualColor::ColorDialog</text>
<text text-anchor="middle" x="78.5" y="-7.5" font-family="Helvetica,sans-Serif" font-size="10.00">::setLayoutDimensions</text>
</a>
</g>
</g>
<!-- Node2 -->
<g id="node2" class="node">
<title>Node2</title>
<g id="a_node2"><a xlink:href="class_perceptual_color_1_1_color_dialog.html#aa0acac5d112ac65532a3a3ec9a45f094" target="_top" xlink:title="Arranges the layout conforming to layoutDimensions.">
<polygon fill="white" stroke="black" points="193,-0.5 193,-30.5 350,-30.5 350,-0.5 193,-0.5"/>
<text text-anchor="start" x="201" y="-18.5" font-family="Helvetica,sans-Serif" font-size="10.00">PerceptualColor::ColorDialog</text>
<text text-anchor="middle" x="271.5" y="-7.5" font-family="Helvetica,sans-Serif" font-size="10.00">::applyLayoutDimensions</text>
</a>
</g>
</g>
<!-- Node1&#45;&gt;Node2 -->
<g id="edge1" class="edge">
<title>Node1&#45;&gt;Node2</title>
<path fill="none" stroke="midnightblue" d="M157.19,-15.5C165.65,-15.5 174.31,-15.5 182.88,-15.5"/>
<polygon fill="midnightblue" stroke="midnightblue" points="182.88,-19 192.88,-15.5 182.88,-12 182.88,-19"/>
</g>
<!-- Node3 -->
<g id="node3" class="node">
<title>Node3</title>
<g id="a_node3"><a xlink:href="class_perceptual_color_1_1_simple_color_wheel.html#a7e050ae3afdec8f4f5e7ee348ab83002" target="_top" xlink:title="Provide the size hint.">
<polygon fill="white" stroke="black" points="386,-0.5 386,-30.5 545,-30.5 545,-0.5 386,-0.5"/>
<text text-anchor="start" x="394" y="-18.5" font-family="Helvetica,sans-Serif" font-size="10.00">PerceptualColor::SimpleColor</text>
<text text-anchor="middle" x="465.5" y="-7.5" font-family="Helvetica,sans-Serif" font-size="10.00">Wheel::sizeHint</text>
</a>
</g>
</g>
<!-- Node2&#45;&gt;Node3 -->
<g id="edge2" class="edge">
<title>Node2&#45;&gt;Node3</title>
<path fill="none" stroke="midnightblue" d="M350.04,-15.5C358.49,-15.5 367.14,-15.5 375.72,-15.5"/>
<polygon fill="midnightblue" stroke="midnightblue" points="375.73,-19 385.73,-15.5 375.73,-12 375.73,-19"/>
</g>
</g>
</svg>
