<?xml version="1.0" encoding="UTF-8" standalone="no"?>
<!DOCTYPE svg PUBLIC "-//W3C//DTD SVG 1.1//EN"
 "http://www.w3.org/Graphics/SVG/1.1/DTD/svg11.dtd">
<!-- Generated by graphviz version 2.43.0 (0)
 -->
<!-- Title: PerceptualColor::ChromaLightnessDiagram::imageCoordinatesInGamut Pages: 1 -->
<svg width="1016pt" height="112pt"
 viewBox="0.00 0.00 1016.00 112.00" xmlns="http://www.w3.org/2000/svg" xmlns:xlink="http://www.w3.org/1999/xlink">
<g id="graph0" class="graph" transform="scale(1 1) rotate(0) translate(4 108)">
<title>PerceptualColor::ChromaLightnessDiagram::imageCoordinatesInGamut</title>
<polygon fill="white" stroke="transparent" points="-4,4 -4,-108 1012,-108 1012,4 -4,4"/>
<!-- Node1 -->
<g id="node1" class="node">
<title>Node1</title>
<g id="a_node1"><a xlink:title="Tests if image coordinates are in gamut.">
<polygon fill="#bfbfbf" stroke="black" points="0,-24.5 0,-54.5 196,-54.5 196,-24.5 0,-24.5"/>
<text text-anchor="start" x="8" y="-42.5" font-family="Helvetica,sans-Serif" font-size="10.00">PerceptualColor::ChromaLightness</text>
<text text-anchor="middle" x="98" y="-31.5" font-family="Helvetica,sans-Serif" font-size="10.00">Diagram::imageCoordinatesInGamut</text>
</a>
</g>
</g>
<!-- Node2 -->
<g id="node2" class="node">
<title>Node2</title>
<g id="a_node2"><a xlink:href="class_perceptual_color_1_1_chroma_lightness_diagram.html#a7d48f62249ffee09f55edfd3c127eb84" target="_top" xlink:title="Refresh the diagram and associated data.">
<polygon fill="white" stroke="black" points="232,-24.5 232,-54.5 417,-54.5 417,-24.5 232,-24.5"/>
<text text-anchor="start" x="240" y="-42.5" font-family="Helvetica,sans-Serif" font-size="10.00">PerceptualColor::ChromaLightness</text>
<text text-anchor="middle" x="324.5" y="-31.5" font-family="Helvetica,sans-Serif" font-size="10.00">Diagram::updateDiagramCache</text>
</a>
</g>
</g>
<!-- Node1&#45;&gt;Node2 -->
<g id="edge1" class="edge">
<title>Node1&#45;&gt;Node2</title>
<path fill="none" stroke="midnightblue" d="M196.16,-39.5C204.59,-39.5 213.13,-39.5 221.59,-39.5"/>
<polygon fill="midnightblue" stroke="midnightblue" points="221.86,-43 231.86,-39.5 221.86,-36 221.86,-43"/>
</g>
<!-- Node3 -->
<g id="node3" class="node">
<title>Node3</title>
<g id="a_node3"><a xlink:href="class_perceptual_color_1_1_chroma_lightness_diagram.html#ae0395993434db2cd0d74b146fed6621c" target="_top" xlink:title="Generates an image of a chroma&#45;lightness diagram.">
<polygon fill="white" stroke="black" points="453,-49.5 453,-79.5 638,-79.5 638,-49.5 453,-49.5"/>
<text text-anchor="start" x="461" y="-67.5" font-family="Helvetica,sans-Serif" font-size="10.00">PerceptualColor::ChromaLightness</text>
<text text-anchor="middle" x="545.5" y="-56.5" font-family="Helvetica,sans-Serif" font-size="10.00">Diagram::generateDiagramImage</text>
</a>
</g>
</g>
<!-- Node2&#45;&gt;Node3 -->
<g id="edge2" class="edge">
<title>Node2&#45;&gt;Node3</title>
<path fill="none" stroke="midnightblue" d="M417.11,-49.96C425.62,-50.93 434.27,-51.92 442.86,-52.9"/>
<polygon fill="midnightblue" stroke="midnightblue" points="442.58,-56.39 452.91,-54.04 443.37,-49.43 442.58,-56.39"/>
</g>
<!-- Node7 -->
<g id="node7" class="node">
<title>Node7</title>
<g id="a_node7"><a xlink:href="class_perceptual_color_1_1_full_color_description.html#acdbff4639f8a118f0d13a831a4b57ffe" target="_top" xlink:title=" ">
<polygon fill="white" stroke="black" points="474,-0.5 474,-30.5 617,-30.5 617,-0.5 474,-0.5"/>
<text text-anchor="start" x="482" y="-18.5" font-family="Helvetica,sans-Serif" font-size="10.00">PerceptualColor::FullColor</text>
<text text-anchor="middle" x="545.5" y="-7.5" font-family="Helvetica,sans-Serif" font-size="10.00">Description::toLch</text>
</a>
</g>
</g>
<!-- Node2&#45;&gt;Node7 -->
<g id="edge6" class="edge">
<title>Node2&#45;&gt;Node7</title>
<path fill="none" stroke="midnightblue" d="M417.11,-29.46C432.53,-27.77 448.45,-26.03 463.58,-24.37"/>
<polygon fill="midnightblue" stroke="midnightblue" points="464.36,-27.8 473.92,-23.24 463.59,-20.85 464.36,-27.8"/>
</g>
<!-- Node4 -->
<g id="node4" class="node">
<title>Node4</title>
<g id="a_node4"><a xlink:href="class_perceptual_color_1_1_rgb_color_space.html#ab494c2d0f561c49b8325688a8ddc0095" target="_top" xlink:title="Calculates the RGB value.">
<polygon fill="white" stroke="black" points="676.5,-73.5 676.5,-103.5 820.5,-103.5 820.5,-73.5 676.5,-73.5"/>
<text text-anchor="start" x="684.5" y="-91.5" font-family="Helvetica,sans-Serif" font-size="10.00">PerceptualColor::RgbColor</text>
<text text-anchor="middle" x="748.5" y="-80.5" font-family="Helvetica,sans-Serif" font-size="10.00">Space::colorRgb</text>
</a>
</g>
</g>
<!-- Node3&#45;&gt;Node4 -->
<g id="edge3" class="edge">
<title>Node3&#45;&gt;Node4</title>
<path fill="none" stroke="midnightblue" d="M638.18,-75.45C647.61,-76.57 657.14,-77.71 666.44,-78.82"/>
<polygon fill="midnightblue" stroke="midnightblue" points="666.08,-82.3 676.43,-80.01 666.91,-75.35 666.08,-82.3"/>
</g>
<!-- Node5 -->
<g id="node5" class="node">
<title>Node5</title>
<g id="a_node5"><a xlink:href="class_perceptual_color_1_1_polar_point_f.html#a9eefd08d3a5ad536232292380f958804" target="_top" xlink:title="Normalizes an angle.">
<polygon fill="white" stroke="black" points="674,-24.5 674,-54.5 823,-54.5 823,-24.5 674,-24.5"/>
<text text-anchor="start" x="682" y="-42.5" font-family="Helvetica,sans-Serif" font-size="10.00">PerceptualColor::PolarPoint</text>
<text text-anchor="middle" x="748.5" y="-31.5" font-family="Helvetica,sans-Serif" font-size="10.00">F::normalizedAngleDegree</text>
</a>
</g>
</g>
<!-- Node3&#45;&gt;Node5 -->
<g id="edge4" class="edge">
<title>Node3&#45;&gt;Node5</title>
<path fill="none" stroke="midnightblue" d="M638.18,-53.1C646.64,-52.04 655.19,-50.98 663.58,-49.94"/>
<polygon fill="midnightblue" stroke="midnightblue" points="664.23,-53.38 673.72,-48.68 663.37,-46.44 664.23,-53.38"/>
</g>
<!-- Node6 -->
<g id="node6" class="node">
<title>Node6</title>
<g id="a_node6"><a xlink:href="class_perceptual_color_1_1_polar_point_f.html#a882cd166affc603fc62241dcb3be4fd5" target="_top" xlink:title="Normalized angle.">
<polygon fill="white" stroke="black" points="859,-24.5 859,-54.5 1008,-54.5 1008,-24.5 859,-24.5"/>
<text text-anchor="start" x="867" y="-42.5" font-family="Helvetica,sans-Serif" font-size="10.00">PerceptualColor::PolarPoint</text>
<text text-anchor="middle" x="933.5" y="-31.5" font-family="Helvetica,sans-Serif" font-size="10.00">F::angleDegree</text>
</a>
</g>
</g>
<!-- Node5&#45;&gt;Node6 -->
<g id="edge5" class="edge">
<title>Node5&#45;&gt;Node6</title>
<path fill="none" stroke="midnightblue" d="M823.14,-39.5C831.47,-39.5 840.01,-39.5 848.46,-39.5"/>
<polygon fill="midnightblue" stroke="midnightblue" points="848.71,-43 858.71,-39.5 848.71,-36 848.71,-43"/>
</g>
</g>
</svg>
