<?xml version="1.0" encoding="UTF-8" standalone="no"?>
<!DOCTYPE svg PUBLIC "-//W3C//DTD SVG 1.1//EN"
 "http://www.w3.org/Graphics/SVG/1.1/DTD/svg11.dtd">
<!-- Generated by graphviz version 2.43.0 (0)
 -->
<!-- Title: PerceptualColor::ColorDialog::initialize Pages: 1 -->
<svg width="1548pt" height="585pt"
 viewBox="0.00 0.00 1548.00 584.98" xmlns="http://www.w3.org/2000/svg" xmlns:xlink="http://www.w3.org/1999/xlink">
<g id="graph0" class="graph" transform="scale(1 1) rotate(0) translate(4 580.98)">
<title>PerceptualColor::ColorDialog::initialize</title>
<polygon fill="white" stroke="transparent" points="-4,4 -4,-580.98 1544,-580.98 1544,4 -4,4"/>
<!-- Node1 -->
<g id="node1" class="node">
<title>Node1</title>
<g id="a_node1"><a xlink:title="Basic initialization.">
<polygon fill="#bfbfbf" stroke="black" points="0,-284.48 0,-314.48 157,-314.48 157,-284.48 0,-284.48"/>
<text text-anchor="start" x="8" y="-302.48" font-family="Helvetica,sans-Serif" font-size="10.00">PerceptualColor::ColorDialog</text>
<text text-anchor="middle" x="78.5" y="-291.48" font-family="Helvetica,sans-Serif" font-size="10.00">::initialize</text>
</a>
</g>
</g>
<!-- Node2 -->
<g id="node2" class="node">
<title>Node2</title>
<g id="a_node2"><a xlink:href="class_perceptual_color_1_1_color_dialog.html#a64f6d0e30a627458ccb7bbf4a77ad42b" target="_top" xlink:title="React on focus changes.">
<polygon fill="white" stroke="black" points="198,-142.48 198,-172.48 355,-172.48 355,-142.48 198,-142.48"/>
<text text-anchor="start" x="206" y="-160.48" font-family="Helvetica,sans-Serif" font-size="10.00">PerceptualColor::ColorDialog</text>
<text text-anchor="middle" x="276.5" y="-149.48" font-family="Helvetica,sans-Serif" font-size="10.00">::handleFocusChange</text>
</a>
</g>
</g>
<!-- Node1&#45;&gt;Node2 -->
<g id="edge1" class="edge">
<title>Node1&#45;&gt;Node2</title>
<path fill="none" stroke="midnightblue" d="M91.17,-284.35C110.15,-260.65 149.95,-214.7 193,-187.48 199.52,-183.36 206.69,-179.69 213.99,-176.47"/>
<polygon fill="midnightblue" stroke="midnightblue" points="215.39,-179.68 223.28,-172.61 212.7,-173.21 215.39,-179.68"/>
</g>
<!-- Node3 -->
<g id="node3" class="node">
<title>Node3</title>
<g id="a_node3"><a xlink:href="class_perceptual_color_1_1_color_dialog.html#adf67594f0cb9416b245d6cf726f18bf4" target="_top" xlink:title="Reads the HLC numbers in the dialog and updates the dialog accordingly.">
<polygon fill="white" stroke="black" points="396,-156.48 396,-186.48 553,-186.48 553,-156.48 396,-156.48"/>
<text text-anchor="start" x="404" y="-174.48" font-family="Helvetica,sans-Serif" font-size="10.00">PerceptualColor::ColorDialog</text>
<text text-anchor="middle" x="474.5" y="-163.48" font-family="Helvetica,sans-Serif" font-size="10.00">::readHlcNumericValues</text>
</a>
</g>
</g>
<!-- Node1&#45;&gt;Node3 -->
<g id="edge30" class="edge">
<title>Node1&#45;&gt;Node3</title>
<path fill="none" stroke="midnightblue" d="M102.95,-284.22C125.3,-270.29 160.29,-250 193,-237.48 255.7,-213.48 329.74,-196.51 386,-185.79"/>
<polygon fill="midnightblue" stroke="midnightblue" points="386.76,-189.21 395.94,-183.93 385.47,-182.33 386.76,-189.21"/>
</g>
<!-- Node4 -->
<g id="node4" class="node">
<title>Node4</title>
<g id="a_node4"><a xlink:href="class_perceptual_color_1_1_color_dialog.html#abd0da334b7034a67a3cc83bc3ed0a425" target="_top" xlink:title="Updates m_currentOpaqueColor and all affected widgets.">
<polygon fill="white" stroke="black" points="589,-262.48 589,-292.48 746,-292.48 746,-262.48 589,-262.48"/>
<text text-anchor="start" x="597" y="-280.48" font-family="Helvetica,sans-Serif" font-size="10.00">PerceptualColor::ColorDialog</text>
<text text-anchor="middle" x="667.5" y="-269.48" font-family="Helvetica,sans-Serif" font-size="10.00">::setCurrentOpaqueColor</text>
</a>
</g>
</g>
<!-- Node1&#45;&gt;Node4 -->
<g id="edge44" class="edge">
<title>Node1&#45;&gt;Node4</title>
<path fill="none" stroke="midnightblue" d="M157.15,-296.57C266.18,-292.48 464.11,-285.07 578.48,-280.78"/>
<polygon fill="midnightblue" stroke="midnightblue" points="578.75,-284.27 588.61,-280.4 578.48,-277.28 578.75,-284.27"/>
</g>
<!-- Node7 -->
<g id="node7" class="node">
<title>Node7</title>
<g id="a_node7"><a xlink:href="class_perceptual_color_1_1_gradient_selector.html#aabfd1c82565fb7c491e3bf1735beca11" target="_top" xlink:title=" ">
<polygon fill="white" stroke="black" points="1006.5,-546.48 1006.5,-576.48 1148.5,-576.48 1148.5,-546.48 1006.5,-546.48"/>
<text text-anchor="start" x="1014.5" y="-564.48" font-family="Helvetica,sans-Serif" font-size="10.00">PerceptualColor::Gradient</text>
<text text-anchor="middle" x="1077.5" y="-553.48" font-family="Helvetica,sans-Serif" font-size="10.00">Selector::setColors</text>
</a>
</g>
</g>
<!-- Node1&#45;&gt;Node7 -->
<g id="edge43" class="edge">
<title>Node1&#45;&gt;Node7</title>
<path fill="none" stroke="midnightblue" d="M82.12,-314.77C90.13,-356.48 118.49,-472.68 193,-525.48 295.55,-598.15 347.81,-561.48 473.5,-561.48 473.5,-561.48 473.5,-561.48 668.5,-561.48 782.4,-561.48 914.18,-561.48 996.44,-561.48"/>
<polygon fill="midnightblue" stroke="midnightblue" points="996.47,-564.98 1006.47,-561.48 996.47,-557.98 996.47,-564.98"/>
</g>
<!-- Node20 -->
<g id="node20" class="node">
<title>Node20</title>
<g id="a_node20"><a xlink:href="class_perceptual_color_1_1_color_dialog.html#a18985e0cf14c64400f1edc5f64da159d" target="_top" xlink:title="Updates the color patch widget.">
<polygon fill="white" stroke="black" points="787,-502.48 787,-532.48 944,-532.48 944,-502.48 787,-502.48"/>
<text text-anchor="start" x="795" y="-520.48" font-family="Helvetica,sans-Serif" font-size="10.00">PerceptualColor::ColorDialog</text>
<text text-anchor="middle" x="865.5" y="-509.48" font-family="Helvetica,sans-Serif" font-size="10.00">::updateColorPatch</text>
</a>
</g>
</g>
<!-- Node1&#45;&gt;Node20 -->
<g id="edge46" class="edge">
<title>Node1&#45;&gt;Node20</title>
<path fill="none" stroke="midnightblue" d="M83.04,-314.63C92.86,-352.73 124.33,-452.45 193,-493.48 288.91,-550.79 617.22,-535.77 776.47,-524.58"/>
<polygon fill="midnightblue" stroke="midnightblue" points="776.99,-528.05 786.71,-523.85 776.49,-521.07 776.99,-528.05"/>
</g>
<!-- Node22 -->
<g id="node22" class="node">
<title>Node22</title>
<g id="a_node22"><a xlink:href="class_perceptual_color_1_1_color_dialog.html#a9b3605a59f06f199999f466e5ffcaf00" target="_top" xlink:title="Initialize the numeric input widgets of this dialog.">
<polygon fill="white" stroke="black" points="198,-306.48 198,-336.48 355,-336.48 355,-306.48 198,-306.48"/>
<text text-anchor="start" x="206" y="-324.48" font-family="Helvetica,sans-Serif" font-size="10.00">PerceptualColor::ColorDialog</text>
<text text-anchor="middle" x="276.5" y="-313.48" font-family="Helvetica,sans-Serif" font-size="10.00">::initializeNumericPage</text>
</a>
</g>
</g>
<!-- Node1&#45;&gt;Node22 -->
<g id="edge29" class="edge">
<title>Node1&#45;&gt;Node22</title>
<path fill="none" stroke="midnightblue" d="M157.25,-308.21C167.27,-309.33 177.58,-310.49 187.75,-311.63"/>
<polygon fill="midnightblue" stroke="midnightblue" points="187.52,-315.13 197.85,-312.77 188.3,-308.17 187.52,-315.13"/>
</g>
<!-- Node23 -->
<g id="node23" class="node">
<title>Node23</title>
<g id="a_node23"><a xlink:href="class_perceptual_color_1_1_color_dialog.html#ad834c4b1975dd4b226a054497bd1ef47" target="_top" xlink:title="Reads the HSV numbers in the dialog and updates the dialog accordingly.">
<polygon fill="white" stroke="black" points="198,-355.48 198,-385.48 355,-385.48 355,-355.48 198,-355.48"/>
<text text-anchor="start" x="206" y="-373.48" font-family="Helvetica,sans-Serif" font-size="10.00">PerceptualColor::ColorDialog</text>
<text text-anchor="middle" x="276.5" y="-362.48" font-family="Helvetica,sans-Serif" font-size="10.00">::readHsvNumericValues</text>
</a>
</g>
</g>
<!-- Node1&#45;&gt;Node23 -->
<g id="edge31" class="edge">
<title>Node1&#45;&gt;Node23</title>
<path fill="none" stroke="midnightblue" d="M113.39,-314.66C135.76,-324.39 165.84,-336.94 193,-346.48 198.82,-348.53 204.91,-350.54 211.03,-352.47"/>
<polygon fill="midnightblue" stroke="midnightblue" points="210.06,-355.83 220.65,-355.44 212.13,-349.14 210.06,-355.83"/>
</g>
<!-- Node25 -->
<g id="node25" class="node">
<title>Node25</title>
<g id="a_node25"><a xlink:href="class_perceptual_color_1_1_color_dialog.html#a2a48f4c33652bc9a1a0cb22fd0a6b221" target="_top" xlink:title="Reads the value from the lightness selector in the dialog and updates the dialog accordingly.">
<polygon fill="white" stroke="black" points="396,-218.48 396,-248.48 553,-248.48 553,-218.48 396,-218.48"/>
<text text-anchor="start" x="404" y="-236.48" font-family="Helvetica,sans-Serif" font-size="10.00">PerceptualColor::ColorDialog</text>
<text text-anchor="middle" x="474.5" y="-225.48" font-family="Helvetica,sans-Serif" font-size="10.00">::readLightnessValue</text>
</a>
</g>
</g>
<!-- Node1&#45;&gt;Node25 -->
<g id="edge34" class="edge">
<title>Node1&#45;&gt;Node25</title>
<path fill="none" stroke="midnightblue" d="M119.95,-284.47C141.38,-277.08 168.32,-268.66 193,-263.48 256.74,-250.11 329.94,-242.53 385.58,-238.34"/>
<polygon fill="midnightblue" stroke="midnightblue" points="386.04,-241.82 395.76,-237.6 385.53,-234.83 386.04,-241.82"/>
</g>
<!-- Node26 -->
<g id="node26" class="node">
<title>Node26</title>
<g id="a_node26"><a xlink:href="class_perceptual_color_1_1_color_dialog.html#a4554999f424ac055986478fe8c899ae1" target="_top" xlink:title="Reads the hexadecimal RGB numbers in the dialog and updates the dialog accordingly.">
<polygon fill="white" stroke="black" points="198,-453.48 198,-483.48 355,-483.48 355,-453.48 198,-453.48"/>
<text text-anchor="start" x="206" y="-471.48" font-family="Helvetica,sans-Serif" font-size="10.00">PerceptualColor::ColorDialog</text>
<text text-anchor="middle" x="276.5" y="-460.48" font-family="Helvetica,sans-Serif" font-size="10.00">::readRgbHexValues</text>
</a>
</g>
</g>
<!-- Node1&#45;&gt;Node26 -->
<g id="edge37" class="edge">
<title>Node1&#45;&gt;Node26</title>
<path fill="none" stroke="midnightblue" d="M87.21,-314.76C102.94,-344.38 141.63,-409.73 193,-444.48 195.3,-446.03 197.69,-447.49 200.16,-448.85"/>
<polygon fill="midnightblue" stroke="midnightblue" points="198.87,-452.11 209.39,-453.38 201.96,-445.83 198.87,-452.11"/>
</g>
<!-- Node27 -->
<g id="node27" class="node">
<title>Node27</title>
<g id="a_node27"><a xlink:href="class_perceptual_color_1_1_color_dialog.html#a9bb8f87d25714fc283fdda98424030fe" target="_top" xlink:title="Reads the decimal RGB numbers in the dialog and updates the dialog accordingly.">
<polygon fill="white" stroke="black" points="198,-404.48 198,-434.48 355,-434.48 355,-404.48 198,-404.48"/>
<text text-anchor="start" x="206" y="-422.48" font-family="Helvetica,sans-Serif" font-size="10.00">PerceptualColor::ColorDialog</text>
<text text-anchor="middle" x="276.5" y="-411.48" font-family="Helvetica,sans-Serif" font-size="10.00">::readRgbNumericValues</text>
</a>
</g>
</g>
<!-- Node1&#45;&gt;Node27 -->
<g id="edge40" class="edge">
<title>Node1&#45;&gt;Node27</title>
<path fill="none" stroke="midnightblue" d="M93.42,-314.74C113.46,-335.83 152.52,-373.76 193,-395.48 196.45,-397.33 200.06,-399.06 203.76,-400.66"/>
<polygon fill="midnightblue" stroke="midnightblue" points="202.52,-403.94 213.11,-404.4 205.12,-397.44 202.52,-403.94"/>
</g>
<!-- Node28 -->
<g id="node28" class="node">
<title>Node28</title>
<g id="a_node28"><a xlink:href="class_perceptual_color_1_1_alpha_selector.html#a79127e3855f2b95421109925bbae888e" target="_top" xlink:title="Register this widget as buddy.">
<polygon fill="white" stroke="black" points="193,-93.48 193,-123.48 360,-123.48 360,-93.48 193,-93.48"/>
<text text-anchor="start" x="201" y="-111.48" font-family="Helvetica,sans-Serif" font-size="10.00">PerceptualColor::AlphaSelector</text>
<text text-anchor="middle" x="276.5" y="-100.48" font-family="Helvetica,sans-Serif" font-size="10.00">::registerAsBuddy</text>
</a>
</g>
</g>
<!-- Node1&#45;&gt;Node28 -->
<g id="edge42" class="edge">
<title>Node1&#45;&gt;Node28</title>
<path fill="none" stroke="midnightblue" d="M85.48,-284.43C99.29,-251.66 136.57,-173.49 193,-132.48 195.06,-130.98 197.21,-129.58 199.43,-128.26"/>
<polygon fill="midnightblue" stroke="midnightblue" points="201.08,-131.35 208.3,-123.61 197.82,-125.16 201.08,-131.35"/>
</g>
<!-- Node29 -->
<g id="node29" class="node">
<title>Node29</title>
<g id="a_node29"><a xlink:href="class_perceptual_color_1_1_color_dialog.html#adbc5f4f261b5378aab627c85f344136d" target="_top" xlink:title="Setter for options.">
<polygon fill="white" stroke="black" points="198,-44.48 198,-74.48 355,-74.48 355,-44.48 198,-44.48"/>
<text text-anchor="start" x="206" y="-62.48" font-family="Helvetica,sans-Serif" font-size="10.00">PerceptualColor::ColorDialog</text>
<text text-anchor="middle" x="276.5" y="-51.48" font-family="Helvetica,sans-Serif" font-size="10.00">::setOptions</text>
</a>
</g>
</g>
<!-- Node1&#45;&gt;Node29 -->
<g id="edge45" class="edge">
<title>Node1&#45;&gt;Node29</title>
<path fill="none" stroke="midnightblue" d="M83.06,-284.3C93.11,-244.91 125.42,-138.69 193,-83.48 194.56,-82.21 196.18,-81 197.86,-79.86"/>
<polygon fill="midnightblue" stroke="midnightblue" points="199.82,-82.77 206.65,-74.66 196.26,-76.74 199.82,-82.77"/>
</g>
<!-- Node2&#45;&gt;Node3 -->
<g id="edge2" class="edge">
<title>Node2&#45;&gt;Node3</title>
<path fill="none" stroke="midnightblue" d="M355.25,-163.03C365.27,-163.75 375.58,-164.49 385.75,-165.21"/>
<polygon fill="midnightblue" stroke="midnightblue" points="385.62,-168.71 395.85,-165.93 386.12,-161.73 385.62,-168.71"/>
</g>
<!-- Node16 -->
<g id="node16" class="node">
<title>Node16</title>
<g id="a_node16"><a xlink:href="class_perceptual_color_1_1_color_dialog.html#a38134a3e22f2b3df4602a08025ec1d52" target="_top" xlink:title="Get text for m_hlcLineEdit based on m_currentOpaqueColor.">
<polygon fill="white" stroke="black" points="787,-4.48 787,-34.48 944,-34.48 944,-4.48 787,-4.48"/>
<text text-anchor="start" x="795" y="-22.48" font-family="Helvetica,sans-Serif" font-size="10.00">PerceptualColor::ColorDialog</text>
<text text-anchor="middle" x="865.5" y="-11.48" font-family="Helvetica,sans-Serif" font-size="10.00">::textForHlcLineEdit</text>
</a>
</g>
</g>
<!-- Node2&#45;&gt;Node16 -->
<g id="edge28" class="edge">
<title>Node2&#45;&gt;Node16</title>
<path fill="none" stroke="midnightblue" d="M332.6,-142.39C341.86,-139.4 351.28,-136.07 360,-132.48 466.46,-88.7 477.27,-39.18 589,-11.48 650.43,3.75 721.93,1.11 776.69,-5.01"/>
<polygon fill="midnightblue" stroke="midnightblue" points="776.37,-8.49 786.71,-6.18 777.19,-1.54 776.37,-8.49"/>
</g>
<!-- Node3&#45;&gt;Node4 -->
<g id="edge3" class="edge">
<title>Node3&#45;&gt;Node4</title>
<path fill="none" stroke="midnightblue" d="M509.06,-186.6C522.83,-193.04 538.84,-200.82 553,-208.48 581.11,-223.69 612.05,-242.65 634.52,-256.85"/>
<polygon fill="midnightblue" stroke="midnightblue" points="632.68,-259.83 642.99,-262.23 636.43,-253.92 632.68,-259.83"/>
</g>
<!-- Node3&#45;&gt;Node16 -->
<g id="edge27" class="edge">
<title>Node3&#45;&gt;Node16</title>
<path fill="none" stroke="midnightblue" d="M484.45,-156.25C501.15,-129.39 539.87,-74.13 589,-49.48 646.89,-20.44 720.08,-13.64 776.47,-13.73"/>
<polygon fill="midnightblue" stroke="midnightblue" points="776.77,-17.23 786.8,-13.82 776.83,-10.23 776.77,-17.23"/>
</g>
<!-- Node5 -->
<g id="node5" class="node">
<title>Node5</title>
<g id="a_node5"><a xlink:href="class_perceptual_color_1_1_full_color_description.html#a45a4e34ce415f9fc71f3fe4847c89068" target="_top" xlink:title=" ">
<polygon fill="white" stroke="black" points="794,-404.48 794,-434.48 937,-434.48 937,-404.48 794,-404.48"/>
<text text-anchor="start" x="802" y="-422.48" font-family="Helvetica,sans-Serif" font-size="10.00">PerceptualColor::FullColor</text>
<text text-anchor="middle" x="865.5" y="-411.48" font-family="Helvetica,sans-Serif" font-size="10.00">Description::isValid</text>
</a>
</g>
</g>
<!-- Node4&#45;&gt;Node5 -->
<g id="edge4" class="edge">
<title>Node4&#45;&gt;Node5</title>
<path fill="none" stroke="midnightblue" d="M678.88,-292.58C696.92,-317.69 736.52,-367.97 782,-395.48 784.81,-397.18 787.74,-398.76 790.76,-400.24"/>
<polygon fill="midnightblue" stroke="midnightblue" points="789.47,-403.49 800.03,-404.35 792.31,-397.1 789.47,-403.49"/>
</g>
<!-- Node6 -->
<g id="node6" class="node">
<title>Node6</title>
<g id="a_node6"><a xlink:href="class_perceptual_color_1_1_alpha_selector.html#ac9faa6bbf68757f843e4cce92d697067" target="_top" xlink:title=" ">
<polygon fill="white" stroke="black" points="782,-355.48 782,-385.48 949,-385.48 949,-355.48 782,-355.48"/>
<text text-anchor="start" x="790" y="-373.48" font-family="Helvetica,sans-Serif" font-size="10.00">PerceptualColor::AlphaSelector</text>
<text text-anchor="middle" x="865.5" y="-362.48" font-family="Helvetica,sans-Serif" font-size="10.00">::setColor</text>
</a>
</g>
</g>
<!-- Node4&#45;&gt;Node6 -->
<g id="edge5" class="edge">
<title>Node4&#45;&gt;Node6</title>
<path fill="none" stroke="midnightblue" d="M693.16,-292.66C715.76,-306.21 750.42,-326.08 782,-340.48 790.75,-344.47 800.2,-348.31 809.46,-351.84"/>
<polygon fill="midnightblue" stroke="midnightblue" points="808.43,-355.19 819.02,-355.4 810.87,-348.63 808.43,-355.19"/>
</g>
<!-- Node8 -->
<g id="node8" class="node">
<title>Node8</title>
<g id="a_node8"><a xlink:href="class_perceptual_color_1_1_full_color_description.html#acdbff4639f8a118f0d13a831a4b57ffe" target="_top" xlink:title=" ">
<polygon fill="white" stroke="black" points="1209,-130.48 1209,-160.48 1352,-160.48 1352,-130.48 1209,-130.48"/>
<text text-anchor="start" x="1217" y="-148.48" font-family="Helvetica,sans-Serif" font-size="10.00">PerceptualColor::FullColor</text>
<text text-anchor="middle" x="1280.5" y="-137.48" font-family="Helvetica,sans-Serif" font-size="10.00">Description::toLch</text>
</a>
</g>
</g>
<!-- Node4&#45;&gt;Node8 -->
<g id="edge21" class="edge">
<title>Node4&#45;&gt;Node8</title>
<path fill="none" stroke="midnightblue" d="M677.39,-262.35C694.01,-235.75 732.61,-181.33 782,-159.48 854.25,-127.52 1077.12,-134.08 1198.57,-140.43"/>
<polygon fill="midnightblue" stroke="midnightblue" points="1198.39,-143.93 1208.56,-140.96 1198.77,-136.94 1198.39,-143.93"/>
</g>
<!-- Node9 -->
<g id="node9" class="node">
<title>Node9</title>
<g id="a_node9"><a xlink:href="class_perceptual_color_1_1_chroma_hue_diagram.html#a443db20bc2c25119febcd61ca9299d21" target="_top" xlink:title="Setter for the color() property.">
<polygon fill="white" stroke="black" points="998.5,-86.48 998.5,-116.48 1156.5,-116.48 1156.5,-86.48 998.5,-86.48"/>
<text text-anchor="start" x="1006.5" y="-104.48" font-family="Helvetica,sans-Serif" font-size="10.00">PerceptualColor::ChromaHue</text>
<text text-anchor="middle" x="1077.5" y="-93.48" font-family="Helvetica,sans-Serif" font-size="10.00">Diagram::setColor</text>
</a>
</g>
</g>
<!-- Node4&#45;&gt;Node9 -->
<g id="edge8" class="edge">
<title>Node4&#45;&gt;Node9</title>
<path fill="none" stroke="midnightblue" d="M674.8,-262.1C688.73,-230.32 725.47,-157.76 782,-126.48 844.73,-91.77 926.71,-87.5 988.24,-90.78"/>
<polygon fill="midnightblue" stroke="midnightblue" points="988.13,-94.28 998.32,-91.4 988.56,-87.3 988.13,-94.28"/>
</g>
<!-- Node10 -->
<g id="node10" class="node">
<title>Node10</title>
<g id="a_node10"><a xlink:href="class_perceptual_color_1_1_wheel_color_picker.html#a5f3a58bb672323221c98c2285404bf76" target="_top" xlink:title="Setter for currentColorRgb() property.">
<polygon fill="white" stroke="black" points="787.5,-218.48 787.5,-248.48 943.5,-248.48 943.5,-218.48 787.5,-218.48"/>
<text text-anchor="start" x="795.5" y="-236.48" font-family="Helvetica,sans-Serif" font-size="10.00">PerceptualColor::WheelColor</text>
<text text-anchor="middle" x="865.5" y="-225.48" font-family="Helvetica,sans-Serif" font-size="10.00">Picker::setCurrentColor</text>
</a>
</g>
</g>
<!-- Node4&#45;&gt;Node10 -->
<g id="edge10" class="edge">
<title>Node4&#45;&gt;Node10</title>
<path fill="none" stroke="midnightblue" d="M735.4,-262.46C752.18,-258.7 770.32,-254.62 787.55,-250.76"/>
<polygon fill="midnightblue" stroke="midnightblue" points="788.57,-254.11 797.57,-248.51 787.04,-247.28 788.57,-254.11"/>
</g>
<!-- Node15 -->
<g id="node15" class="node">
<title>Node15</title>
<g id="a_node15"><a xlink:href="class_perceptual_color_1_1_gradient_selector.html#a1548390b891333547c1dee97573be568" target="_top" xlink:title=" ">
<polygon fill="white" stroke="black" points="794.5,-267.48 794.5,-297.48 936.5,-297.48 936.5,-267.48 794.5,-267.48"/>
<text text-anchor="start" x="802.5" y="-285.48" font-family="Helvetica,sans-Serif" font-size="10.00">PerceptualColor::Gradient</text>
<text text-anchor="middle" x="865.5" y="-274.48" font-family="Helvetica,sans-Serif" font-size="10.00">Selector::setFraction</text>
</a>
</g>
</g>
<!-- Node4&#45;&gt;Node15 -->
<g id="edge17" class="edge">
<title>Node4&#45;&gt;Node15</title>
<path fill="none" stroke="midnightblue" d="M746.25,-279.46C758.81,-279.79 771.84,-280.12 784.46,-280.44"/>
<polygon fill="midnightblue" stroke="midnightblue" points="784.39,-283.94 794.48,-280.69 784.57,-276.94 784.39,-283.94"/>
</g>
<!-- Node4&#45;&gt;Node16 -->
<g id="edge18" class="edge">
<title>Node4&#45;&gt;Node16</title>
<path fill="none" stroke="midnightblue" d="M675.34,-262.3C691.02,-228.53 732.04,-145.62 782,-87.48 797.14,-69.86 817.2,-53.21 833.75,-40.8"/>
<polygon fill="midnightblue" stroke="midnightblue" points="836.05,-43.45 842.04,-34.71 831.91,-37.81 836.05,-43.45"/>
</g>
<!-- Node17 -->
<g id="node17" class="node">
<title>Node17</title>
<g id="a_node17"><a xlink:href="class_perceptual_color_1_1_full_color_description.html#aaa17133c6e1d040b2f088e79a42d3283" target="_top" xlink:title=" ">
<polygon fill="white" stroke="black" points="794,-169.48 794,-199.48 937,-199.48 937,-169.48 794,-169.48"/>
<text text-anchor="start" x="802" y="-187.48" font-family="Helvetica,sans-Serif" font-size="10.00">PerceptualColor::FullColor</text>
<text text-anchor="middle" x="865.5" y="-176.48" font-family="Helvetica,sans-Serif" font-size="10.00">Description::toHsvQColor</text>
</a>
</g>
</g>
<!-- Node4&#45;&gt;Node17 -->
<g id="edge20" class="edge">
<title>Node4&#45;&gt;Node17</title>
<path fill="none" stroke="midnightblue" d="M689.75,-262.21C711.89,-246.87 748.02,-223.44 782,-208.48 786.46,-206.52 791.12,-204.67 795.87,-202.93"/>
<polygon fill="midnightblue" stroke="midnightblue" points="797.38,-206.11 805.67,-199.52 795.08,-199.5 797.38,-206.11"/>
</g>
<!-- Node18 -->
<g id="node18" class="node">
<title>Node18</title>
<g id="a_node18"><a xlink:href="class_perceptual_color_1_1_full_color_description.html#a572e2abe28e31c6315732d30f06b1732" target="_top" xlink:title="A string with a hexadecimal representation of the color.">
<polygon fill="white" stroke="black" points="788,-453.48 788,-483.48 943,-483.48 943,-453.48 788,-453.48"/>
<text text-anchor="start" x="796" y="-471.48" font-family="Helvetica,sans-Serif" font-size="10.00">PerceptualColor::FullColor</text>
<text text-anchor="middle" x="865.5" y="-460.48" font-family="Helvetica,sans-Serif" font-size="10.00">Description::toRgbHexString</text>
</a>
</g>
</g>
<!-- Node4&#45;&gt;Node18 -->
<g id="edge22" class="edge">
<title>Node4&#45;&gt;Node18</title>
<path fill="none" stroke="midnightblue" d="M674.48,-292.53C688.29,-325.31 725.57,-403.47 782,-444.48 784.06,-445.98 786.21,-447.38 788.43,-448.7"/>
<polygon fill="midnightblue" stroke="midnightblue" points="786.82,-451.81 797.3,-453.35 790.08,-445.61 786.82,-451.81"/>
</g>
<!-- Node19 -->
<g id="node19" class="node">
<title>Node19</title>
<g id="a_node19"><a xlink:href="class_perceptual_color_1_1_full_color_description.html#aad1d9cc70b7a9ae81c829c391334d768" target="_top" xlink:title=" ">
<polygon fill="white" stroke="black" points="1006,-311.48 1006,-341.48 1149,-341.48 1149,-311.48 1006,-311.48"/>
<text text-anchor="start" x="1014" y="-329.48" font-family="Helvetica,sans-Serif" font-size="10.00">PerceptualColor::FullColor</text>
<text text-anchor="middle" x="1077.5" y="-318.48" font-family="Helvetica,sans-Serif" font-size="10.00">Description::toRgbQColor</text>
</a>
</g>
</g>
<!-- Node4&#45;&gt;Node19 -->
<g id="edge23" class="edge">
<title>Node4&#45;&gt;Node19</title>
<path fill="none" stroke="midnightblue" d="M716.94,-292.5C736.9,-298.11 760.37,-303.96 782,-307.48 853.7,-319.16 936.33,-323.73 995.78,-325.48"/>
<polygon fill="midnightblue" stroke="midnightblue" points="995.76,-328.98 1005.85,-325.76 995.95,-321.99 995.76,-328.98"/>
</g>
<!-- Node4&#45;&gt;Node20 -->
<g id="edge24" class="edge">
<title>Node4&#45;&gt;Node20</title>
<path fill="none" stroke="midnightblue" d="M672.06,-292.66C682.11,-332.05 714.42,-438.27 782,-493.48 783.56,-494.76 785.18,-495.96 786.86,-497.1"/>
<polygon fill="midnightblue" stroke="midnightblue" points="785.26,-500.22 795.65,-502.3 788.82,-494.2 785.26,-500.22"/>
</g>
<!-- Node6&#45;&gt;Node7 -->
<g id="edge6" class="edge">
<title>Node6&#45;&gt;Node7</title>
<path fill="none" stroke="midnightblue" d="M936.32,-385.5C940.97,-388.29 945.28,-391.58 949,-395.48 993.97,-442.56 939.15,-491.25 985,-537.48 988.66,-541.18 992.82,-544.32 997.3,-547"/>
<polygon fill="midnightblue" stroke="midnightblue" points="995.75,-550.14 1006.25,-551.6 998.95,-543.92 995.75,-550.14"/>
</g>
<!-- Node6&#45;&gt;Node8 -->
<g id="edge7" class="edge">
<title>Node6&#45;&gt;Node8</title>
<path fill="none" stroke="midnightblue" d="M932.4,-385.51C999.06,-396.68 1101.75,-402.36 1170,-351.48 1207.2,-323.75 1184.79,-294.75 1206,-253.48 1221.86,-222.63 1245,-190.1 1261.06,-168.9"/>
<polygon fill="midnightblue" stroke="midnightblue" points="1263.95,-170.89 1267.26,-160.82 1258.4,-166.63 1263.95,-170.89"/>
</g>
<!-- Node9&#45;&gt;Node8 -->
<g id="edge9" class="edge">
<title>Node9&#45;&gt;Node8</title>
<path fill="none" stroke="midnightblue" d="M1147.11,-116.5C1164.48,-120.3 1183.26,-124.41 1201.08,-128.31"/>
<polygon fill="midnightblue" stroke="midnightblue" points="1200.34,-131.74 1210.86,-130.45 1201.84,-124.9 1200.34,-131.74"/>
</g>
<!-- Node10&#45;&gt;Node8 -->
<g id="edge16" class="edge">
<title>Node10&#45;&gt;Node8</title>
<path fill="none" stroke="midnightblue" d="M943.56,-238.57C1006.08,-240.32 1095.72,-237.34 1170,-213.48 1201.09,-203.5 1232.3,-182.81 1253.41,-166.86"/>
<polygon fill="midnightblue" stroke="midnightblue" points="1255.76,-169.46 1261.53,-160.57 1251.48,-163.92 1255.76,-169.46"/>
</g>
<!-- Node11 -->
<g id="node11" class="node">
<title>Node11</title>
<g id="a_node11"><a xlink:href="class_perceptual_color_1_1_chroma_lightness_diagram.html#a27d7c972e420480674da1a0fae0b10b3" target="_top" xlink:title="Setter for the color() property.">
<polygon fill="white" stroke="black" points="985,-174.48 985,-204.48 1170,-204.48 1170,-174.48 985,-174.48"/>
<text text-anchor="start" x="993" y="-192.48" font-family="Helvetica,sans-Serif" font-size="10.00">PerceptualColor::ChromaLightness</text>
<text text-anchor="middle" x="1077.5" y="-181.48" font-family="Helvetica,sans-Serif" font-size="10.00">Diagram::setColor</text>
</a>
</g>
</g>
<!-- Node10&#45;&gt;Node11 -->
<g id="edge11" class="edge">
<title>Node10&#45;&gt;Node11</title>
<path fill="none" stroke="midnightblue" d="M938.18,-218.46C956.41,-214.64 976.14,-210.51 994.82,-206.59"/>
<polygon fill="midnightblue" stroke="midnightblue" points="995.71,-209.98 1004.78,-204.51 994.28,-203.13 995.71,-209.98"/>
</g>
<!-- Node12 -->
<g id="node12" class="node">
<title>Node12</title>
<g id="a_node12"><a xlink:href="class_perceptual_color_1_1_simple_color_wheel.html#aa9eec6e96f6069be6d983d1c854644d1" target="_top" xlink:title=" ">
<polygon fill="white" stroke="black" points="998,-262.48 998,-292.48 1157,-292.48 1157,-262.48 998,-262.48"/>
<text text-anchor="start" x="1006" y="-280.48" font-family="Helvetica,sans-Serif" font-size="10.00">PerceptualColor::SimpleColor</text>
<text text-anchor="middle" x="1077.5" y="-269.48" font-family="Helvetica,sans-Serif" font-size="10.00">Wheel::setHue</text>
</a>
</g>
</g>
<!-- Node10&#45;&gt;Node12 -->
<g id="edge13" class="edge">
<title>Node10&#45;&gt;Node12</title>
<path fill="none" stroke="midnightblue" d="M938.18,-248.5C956.41,-252.32 976.14,-256.45 994.82,-260.37"/>
<polygon fill="midnightblue" stroke="midnightblue" points="994.28,-263.83 1004.78,-262.45 995.71,-256.98 994.28,-263.83"/>
</g>
<!-- Node11&#45;&gt;Node8 -->
<g id="edge12" class="edge">
<title>Node11&#45;&gt;Node8</title>
<path fill="none" stroke="midnightblue" d="M1147.11,-174.46C1164.48,-170.66 1183.26,-166.55 1201.08,-162.65"/>
<polygon fill="midnightblue" stroke="midnightblue" points="1201.84,-166.06 1210.86,-160.51 1200.34,-159.23 1201.84,-166.06"/>
</g>
<!-- Node13 -->
<g id="node13" class="node">
<title>Node13</title>
<g id="a_node13"><a xlink:href="class_perceptual_color_1_1_polar_point_f.html#a9eefd08d3a5ad536232292380f958804" target="_top" xlink:title="Normalizes an angle.">
<polygon fill="white" stroke="black" points="1206,-262.48 1206,-292.48 1355,-292.48 1355,-262.48 1206,-262.48"/>
<text text-anchor="start" x="1214" y="-280.48" font-family="Helvetica,sans-Serif" font-size="10.00">PerceptualColor::PolarPoint</text>
<text text-anchor="middle" x="1280.5" y="-269.48" font-family="Helvetica,sans-Serif" font-size="10.00">F::normalizedAngleDegree</text>
</a>
</g>
</g>
<!-- Node12&#45;&gt;Node13 -->
<g id="edge14" class="edge">
<title>Node12&#45;&gt;Node13</title>
<path fill="none" stroke="midnightblue" d="M1157.08,-277.48C1169.76,-277.48 1182.93,-277.48 1195.74,-277.48"/>
<polygon fill="midnightblue" stroke="midnightblue" points="1195.91,-280.98 1205.91,-277.48 1195.91,-273.98 1195.91,-280.98"/>
</g>
<!-- Node14 -->
<g id="node14" class="node">
<title>Node14</title>
<g id="a_node14"><a xlink:href="class_perceptual_color_1_1_polar_point_f.html#a882cd166affc603fc62241dcb3be4fd5" target="_top" xlink:title="Normalized angle.">
<polygon fill="white" stroke="black" points="1391,-262.48 1391,-292.48 1540,-292.48 1540,-262.48 1391,-262.48"/>
<text text-anchor="start" x="1399" y="-280.48" font-family="Helvetica,sans-Serif" font-size="10.00">PerceptualColor::PolarPoint</text>
<text text-anchor="middle" x="1465.5" y="-269.48" font-family="Helvetica,sans-Serif" font-size="10.00">F::angleDegree</text>
</a>
</g>
</g>
<!-- Node13&#45;&gt;Node14 -->
<g id="edge15" class="edge">
<title>Node13&#45;&gt;Node14</title>
<path fill="none" stroke="midnightblue" d="M1355.14,-277.48C1363.47,-277.48 1372.01,-277.48 1380.46,-277.48"/>
<polygon fill="midnightblue" stroke="midnightblue" points="1380.71,-280.98 1390.71,-277.48 1380.71,-273.98 1380.71,-280.98"/>
</g>
<!-- Node16&#45;&gt;Node8 -->
<g id="edge19" class="edge">
<title>Node16&#45;&gt;Node8</title>
<path fill="none" stroke="midnightblue" d="M944.1,-11.9C1007.54,-8.86 1098.15,-11.88 1170,-43.48 1209.14,-60.7 1243.22,-97.94 1262.56,-122.34"/>
<polygon fill="midnightblue" stroke="midnightblue" points="1259.89,-124.61 1268.77,-130.38 1265.43,-120.33 1259.89,-124.61"/>
</g>
<!-- Node20&#45;&gt;Node19 -->
<g id="edge26" class="edge">
<title>Node20&#45;&gt;Node19</title>
<path fill="none" stroke="midnightblue" d="M932.66,-502.45C938.41,-499.9 943.96,-496.94 949,-493.48 1003.96,-455.81 1045.41,-386.86 1064.64,-350.46"/>
<polygon fill="midnightblue" stroke="midnightblue" points="1067.77,-352.02 1069.26,-341.53 1061.56,-348.8 1067.77,-352.02"/>
</g>
<!-- Node21 -->
<g id="node21" class="node">
<title>Node21</title>
<g id="a_node21"><a xlink:href="class_perceptual_color_1_1_color_patch.html#ada8693cd4a8e51eb2debd3c0192a7458" target="_top" xlink:title="Set the color property.">
<polygon fill="white" stroke="black" points="1001.5,-497.48 1001.5,-527.48 1153.5,-527.48 1153.5,-497.48 1001.5,-497.48"/>
<text text-anchor="start" x="1009.5" y="-515.48" font-family="Helvetica,sans-Serif" font-size="10.00">PerceptualColor::ColorPatch</text>
<text text-anchor="middle" x="1077.5" y="-504.48" font-family="Helvetica,sans-Serif" font-size="10.00">::setColor</text>
</a>
</g>
</g>
<!-- Node20&#45;&gt;Node21 -->
<g id="edge25" class="edge">
<title>Node20&#45;&gt;Node21</title>
<path fill="none" stroke="midnightblue" d="M944.1,-515.63C959.43,-515.27 975.61,-514.88 991.18,-514.51"/>
<polygon fill="midnightblue" stroke="midnightblue" points="991.4,-518.01 1001.32,-514.27 991.23,-511.01 991.4,-518.01"/>
</g>
<!-- Node24 -->
<g id="node24" class="node">
<title>Node24</title>
<g id="a_node24"><a xlink:href="class_perceptual_color_1_1_color_dialog.html#acf0e7b1b619cee3fc7f5a992e2c93e7d" target="_top" xlink:title="Convenience version of setCurrentOpaqueColor(), accepting QColor.">
<polygon fill="white" stroke="black" points="396,-379.48 396,-409.48 553,-409.48 553,-379.48 396,-379.48"/>
<text text-anchor="start" x="404" y="-397.48" font-family="Helvetica,sans-Serif" font-size="10.00">PerceptualColor::ColorDialog</text>
<text text-anchor="middle" x="474.5" y="-386.48" font-family="Helvetica,sans-Serif" font-size="10.00">::setCurrentOpaqueQColor</text>
</a>
</g>
</g>
<!-- Node23&#45;&gt;Node24 -->
<g id="edge32" class="edge">
<title>Node23&#45;&gt;Node24</title>
<path fill="none" stroke="midnightblue" d="M355.25,-380C365.27,-381.23 375.58,-382.49 385.75,-383.74"/>
<polygon fill="midnightblue" stroke="midnightblue" points="385.5,-387.23 395.85,-384.97 386.35,-380.28 385.5,-387.23"/>
</g>
<!-- Node24&#45;&gt;Node4 -->
<g id="edge33" class="edge">
<title>Node24&#45;&gt;Node4</title>
<path fill="none" stroke="midnightblue" d="M500.08,-379.42C533.94,-358.68 595.05,-321.25 633.05,-297.97"/>
<polygon fill="midnightblue" stroke="midnightblue" points="635.01,-300.87 641.71,-292.66 631.36,-294.9 635.01,-300.87"/>
</g>
<!-- Node25&#45;&gt;Node4 -->
<g id="edge35" class="edge">
<title>Node25&#45;&gt;Node4</title>
<path fill="none" stroke="midnightblue" d="M540.7,-248.5C557.05,-252.27 574.72,-256.34 591.51,-260.21"/>
<polygon fill="midnightblue" stroke="midnightblue" points="590.74,-263.62 601.27,-262.45 592.31,-256.8 590.74,-263.62"/>
</g>
<!-- Node25&#45;&gt;Node8 -->
<g id="edge36" class="edge">
<title>Node25&#45;&gt;Node8</title>
<path fill="none" stroke="midnightblue" d="M506.55,-218.39C583,-181.26 774.68,-88.34 782,-86.48 949.22,-44.1 1004.27,-28.62 1170,-76.48 1202.02,-85.73 1233.69,-107.42 1254.67,-124.03"/>
<polygon fill="midnightblue" stroke="midnightblue" points="1252.47,-126.75 1262.44,-130.34 1256.88,-121.32 1252.47,-126.75"/>
</g>
<!-- Node26&#45;&gt;Node18 -->
<g id="edge39" class="edge">
<title>Node26&#45;&gt;Node18</title>
<path fill="none" stroke="midnightblue" d="M355.15,-468.48C464.49,-468.48 663.21,-468.48 777.43,-468.48"/>
<polygon fill="midnightblue" stroke="midnightblue" points="777.54,-471.98 787.54,-468.48 777.54,-464.98 777.54,-471.98"/>
</g>
<!-- Node26&#45;&gt;Node24 -->
<g id="edge38" class="edge">
<title>Node26&#45;&gt;Node24</title>
<path fill="none" stroke="midnightblue" d="M332.85,-453.47C341.99,-450.68 351.31,-447.64 360,-444.48 384.68,-435.5 411.6,-423.73 433.03,-413.86"/>
<polygon fill="midnightblue" stroke="midnightblue" points="434.56,-417.01 442.16,-409.63 431.61,-410.66 434.56,-417.01"/>
</g>
<!-- Node27&#45;&gt;Node24 -->
<g id="edge41" class="edge">
<title>Node27&#45;&gt;Node24</title>
<path fill="none" stroke="midnightblue" d="M355.25,-409.56C365.27,-408.29 375.58,-406.97 385.75,-405.67"/>
<polygon fill="midnightblue" stroke="midnightblue" points="386.37,-409.12 395.85,-404.39 385.49,-402.18 386.37,-409.12"/>
</g>
</g>
</svg>
