<?xml version="1.0" encoding="UTF-8" standalone="no"?>
<!DOCTYPE svg PUBLIC "-//W3C//DTD SVG 1.1//EN"
 "http://www.w3.org/Graphics/SVG/1.1/DTD/svg11.dtd">
<!-- Generated by graphviz version 2.43.0 (0)
 -->
<!-- Title: PerceptualColor::WheelColorPicker::resizeChildWidget Pages: 1 -->
<svg width="356pt" height="88pt"
 viewBox="0.00 0.00 356.00 88.00" xmlns="http://www.w3.org/2000/svg" xmlns:xlink="http://www.w3.org/1999/xlink">
<g id="graph0" class="graph" transform="scale(1 1) rotate(0) translate(4 84)">
<title>PerceptualColor::WheelColorPicker::resizeChildWidget</title>
<polygon fill="white" stroke="transparent" points="-4,4 -4,-84 352,-84 352,4 -4,4"/>
<!-- Node1 -->
<g id="node1" class="node">
<title>Node1</title>
<g id="a_node1"><a xlink:title="Update the size of the child widget.">
<polygon fill="#bfbfbf" stroke="black" points="192,-24.5 192,-54.5 348,-54.5 348,-24.5 192,-24.5"/>
<text text-anchor="start" x="200" y="-42.5" font-family="Helvetica,sans-Serif" font-size="10.00">PerceptualColor::WheelColor</text>
<text text-anchor="middle" x="270" y="-31.5" font-family="Helvetica,sans-Serif" font-size="10.00">Picker::resizeChildWidget</text>
</a>
</g>
</g>
<!-- Node2 -->
<g id="node2" class="node">
<title>Node2</title>
<g id="a_node2"><a xlink:href="class_perceptual_color_1_1_wheel_color_picker.html#adec0d229991217cd17e06887e829cdc2" target="_top" xlink:title="React on a resive event.">
<polygon fill="white" stroke="black" points="0,-49.5 0,-79.5 156,-79.5 156,-49.5 0,-49.5"/>
<text text-anchor="start" x="8" y="-67.5" font-family="Helvetica,sans-Serif" font-size="10.00">PerceptualColor::WheelColor</text>
<text text-anchor="middle" x="78" y="-56.5" font-family="Helvetica,sans-Serif" font-size="10.00">Picker::resizeEvent</text>
</a>
</g>
</g>
<!-- Node1&#45;&gt;Node2 -->
<g id="edge1" class="edge">
<title>Node1&#45;&gt;Node2</title>
<path fill="none" stroke="midnightblue" d="M181.94,-50.96C173.32,-52.09 164.62,-53.23 156.12,-54.35"/>
<polygon fill="midnightblue" stroke="midnightblue" points="182.54,-54.41 191.99,-49.63 181.62,-47.47 182.54,-54.41"/>
</g>
<!-- Node3 -->
<g id="node3" class="node">
<title>Node3</title>
<g id="a_node3"><a xlink:href="class_perceptual_color_1_1_wheel_color_picker.html#a44595e05acd7bf6ad716242f987507da" target="_top" xlink:title="Constructor.">
<polygon fill="white" stroke="black" points="0,-0.5 0,-30.5 156,-30.5 156,-0.5 0,-0.5"/>
<text text-anchor="start" x="8" y="-18.5" font-family="Helvetica,sans-Serif" font-size="10.00">PerceptualColor::WheelColor</text>
<text text-anchor="middle" x="78" y="-7.5" font-family="Helvetica,sans-Serif" font-size="10.00">Picker::WheelColorPicker</text>
</a>
</g>
</g>
<!-- Node1&#45;&gt;Node3 -->
<g id="edge2" class="edge">
<title>Node1&#45;&gt;Node3</title>
<path fill="none" stroke="midnightblue" d="M181.94,-28.5C173.32,-27.41 164.62,-26.32 156.12,-25.24"/>
<polygon fill="midnightblue" stroke="midnightblue" points="181.63,-31.99 191.99,-29.77 182.51,-25.05 181.63,-31.99"/>
</g>
</g>
</svg>
