<?xml version="1.0" encoding="UTF-8" standalone="no"?>
<!DOCTYPE svg PUBLIC "-//W3C//DTD SVG 1.1//EN"
 "http://www.w3.org/Graphics/SVG/1.1/DTD/svg11.dtd">
<!-- Generated by graphviz version 2.43.0 (0)
 -->
<!-- Title: PerceptualColor::ColorDialog::readLightnessValue Pages: 1 -->
<svg width="1152pt" height="564pt"
 viewBox="0.00 0.00 1152.00 564.45" xmlns="http://www.w3.org/2000/svg" xmlns:xlink="http://www.w3.org/1999/xlink">
<g id="graph0" class="graph" transform="scale(1 1) rotate(0) translate(4 560.45)">
<title>PerceptualColor::ColorDialog::readLightnessValue</title>
<polygon fill="white" stroke="transparent" points="-4,4 -4,-560.45 1148,-560.45 1148,4 -4,4"/>
<!-- Node1 -->
<g id="node1" class="node">
<title>Node1</title>
<g id="a_node1"><a xlink:title="Reads the value from the lightness selector in the dialog and updates the dialog accordingly.">
<polygon fill="#bfbfbf" stroke="black" points="0,-92.95 0,-122.95 157,-122.95 157,-92.95 0,-92.95"/>
<text text-anchor="start" x="8" y="-110.95" font-family="Helvetica,sans-Serif" font-size="10.00">PerceptualColor::ColorDialog</text>
<text text-anchor="middle" x="78.5" y="-99.95" font-family="Helvetica,sans-Serif" font-size="10.00">::readLightnessValue</text>
</a>
</g>
</g>
<!-- Node2 -->
<g id="node2" class="node">
<title>Node2</title>
<g id="a_node2"><a xlink:href="class_perceptual_color_1_1_color_dialog.html#abd0da334b7034a67a3cc83bc3ed0a425" target="_top" xlink:title="Updates m_currentOpaqueColor and all affected widgets.">
<polygon fill="white" stroke="black" points="193,-224.95 193,-254.95 350,-254.95 350,-224.95 193,-224.95"/>
<text text-anchor="start" x="201" y="-242.95" font-family="Helvetica,sans-Serif" font-size="10.00">PerceptualColor::ColorDialog</text>
<text text-anchor="middle" x="271.5" y="-231.95" font-family="Helvetica,sans-Serif" font-size="10.00">::setCurrentOpaqueColor</text>
</a>
</g>
</g>
<!-- Node1&#45;&gt;Node2 -->
<g id="edge1" class="edge">
<title>Node1&#45;&gt;Node2</title>
<path fill="none" stroke="midnightblue" d="M101.41,-123.09C135.57,-146.7 201.61,-192.34 240.27,-219.06"/>
<polygon fill="midnightblue" stroke="midnightblue" points="238.34,-221.97 248.55,-224.78 242.32,-216.21 238.34,-221.97"/>
</g>
<!-- Node6 -->
<g id="node6" class="node">
<title>Node6</title>
<g id="a_node6"><a xlink:href="class_perceptual_color_1_1_full_color_description.html#acdbff4639f8a118f0d13a831a4b57ffe" target="_top" xlink:title=" ">
<polygon fill="white" stroke="black" points="813,-202.95 813,-232.95 956,-232.95 956,-202.95 813,-202.95"/>
<text text-anchor="start" x="821" y="-220.95" font-family="Helvetica,sans-Serif" font-size="10.00">PerceptualColor::FullColor</text>
<text text-anchor="middle" x="884.5" y="-209.95" font-family="Helvetica,sans-Serif" font-size="10.00">Description::toLch</text>
</a>
</g>
</g>
<!-- Node1&#45;&gt;Node6 -->
<g id="edge25" class="edge">
<title>Node1&#45;&gt;Node6</title>
<path fill="none" stroke="midnightblue" d="M113.52,-92.92C220.35,-48.22 555.01,72.71 774,-61.95 824.8,-93.18 858.34,-157.74 873.75,-193.24"/>
<polygon fill="midnightblue" stroke="midnightblue" points="870.68,-194.97 877.78,-202.84 877.13,-192.26 870.68,-194.97"/>
</g>
<!-- Node3 -->
<g id="node3" class="node">
<title>Node3</title>
<g id="a_node3"><a xlink:href="class_perceptual_color_1_1_full_color_description.html#a45a4e34ce415f9fc71f3fe4847c89068" target="_top" xlink:title=" ">
<polygon fill="white" stroke="black" points="398,-427.95 398,-457.95 541,-457.95 541,-427.95 398,-427.95"/>
<text text-anchor="start" x="406" y="-445.95" font-family="Helvetica,sans-Serif" font-size="10.00">PerceptualColor::FullColor</text>
<text text-anchor="middle" x="469.5" y="-434.95" font-family="Helvetica,sans-Serif" font-size="10.00">Description::isValid</text>
</a>
</g>
</g>
<!-- Node2&#45;&gt;Node3 -->
<g id="edge2" class="edge">
<title>Node2&#45;&gt;Node3</title>
<path fill="none" stroke="midnightblue" d="M278.43,-255.01C292.27,-288.25 329.8,-368.47 386,-412.95 391.02,-416.92 396.61,-420.39 402.46,-423.43"/>
<polygon fill="midnightblue" stroke="midnightblue" points="401.26,-426.74 411.8,-427.85 404.25,-420.41 401.26,-426.74"/>
</g>
<!-- Node4 -->
<g id="node4" class="node">
<title>Node4</title>
<g id="a_node4"><a xlink:href="class_perceptual_color_1_1_alpha_selector.html#ac9faa6bbf68757f843e4cce92d697067" target="_top" xlink:title=" ">
<polygon fill="white" stroke="black" points="386,-290.95 386,-320.95 553,-320.95 553,-290.95 386,-290.95"/>
<text text-anchor="start" x="394" y="-308.95" font-family="Helvetica,sans-Serif" font-size="10.00">PerceptualColor::AlphaSelector</text>
<text text-anchor="middle" x="469.5" y="-297.95" font-family="Helvetica,sans-Serif" font-size="10.00">::setColor</text>
</a>
</g>
</g>
<!-- Node2&#45;&gt;Node4 -->
<g id="edge3" class="edge">
<title>Node2&#45;&gt;Node4</title>
<path fill="none" stroke="midnightblue" d="M317.47,-255.09C346.23,-264.77 383.7,-277.39 414.13,-287.64"/>
<polygon fill="midnightblue" stroke="midnightblue" points="413.15,-291 423.74,-290.87 415.38,-284.37 413.15,-291"/>
</g>
<!-- Node2&#45;&gt;Node6 -->
<g id="edge19" class="edge">
<title>Node2&#45;&gt;Node6</title>
<path fill="none" stroke="midnightblue" d="M300.44,-224.73C322.84,-213.45 355.46,-199.02 386,-192.95 555.13,-159.31 602.64,-173.63 774,-192.95 788.64,-194.6 804.18,-197.45 818.81,-200.65"/>
<polygon fill="midnightblue" stroke="midnightblue" points="818.24,-204.11 828.77,-202.92 819.79,-197.29 818.24,-204.11"/>
</g>
<!-- Node7 -->
<g id="node7" class="node">
<title>Node7</title>
<g id="a_node7"><a xlink:href="class_perceptual_color_1_1_chroma_hue_diagram.html#a443db20bc2c25119febcd61ca9299d21" target="_top" xlink:title="Setter for the color() property.">
<polygon fill="white" stroke="black" points="602.5,-71.95 602.5,-101.95 760.5,-101.95 760.5,-71.95 602.5,-71.95"/>
<text text-anchor="start" x="610.5" y="-89.95" font-family="Helvetica,sans-Serif" font-size="10.00">PerceptualColor::ChromaHue</text>
<text text-anchor="middle" x="681.5" y="-78.95" font-family="Helvetica,sans-Serif" font-size="10.00">Diagram::setColor</text>
</a>
</g>
</g>
<!-- Node2&#45;&gt;Node7 -->
<g id="edge6" class="edge">
<title>Node2&#45;&gt;Node7</title>
<path fill="none" stroke="midnightblue" d="M276.37,-224.87C286.76,-187.95 319.14,-93.26 386,-55.95 466.16,-11.21 577.77,-43.96 637.96,-67.87"/>
<polygon fill="midnightblue" stroke="midnightblue" points="636.94,-71.23 647.52,-71.77 639.58,-64.75 636.94,-71.23"/>
</g>
<!-- Node8 -->
<g id="node8" class="node">
<title>Node8</title>
<g id="a_node8"><a xlink:href="class_perceptual_color_1_1_wheel_color_picker.html#a5f3a58bb672323221c98c2285404bf76" target="_top" xlink:title="Setter for currentColorRgb() property.">
<polygon fill="white" stroke="black" points="391.5,-339.95 391.5,-369.95 547.5,-369.95 547.5,-339.95 391.5,-339.95"/>
<text text-anchor="start" x="399.5" y="-357.95" font-family="Helvetica,sans-Serif" font-size="10.00">PerceptualColor::WheelColor</text>
<text text-anchor="middle" x="469.5" y="-346.95" font-family="Helvetica,sans-Serif" font-size="10.00">Picker::setCurrentColor</text>
</a>
</g>
</g>
<!-- Node2&#45;&gt;Node8 -->
<g id="edge8" class="edge">
<title>Node2&#45;&gt;Node8</title>
<path fill="none" stroke="midnightblue" d="M287.69,-255.14C308.29,-274.97 347.01,-309.53 386,-329.95 390.25,-332.17 394.73,-334.23 399.32,-336.13"/>
<polygon fill="midnightblue" stroke="midnightblue" points="398.25,-339.47 408.84,-339.81 400.77,-332.94 398.25,-339.47"/>
</g>
<!-- Node13 -->
<g id="node13" class="node">
<title>Node13</title>
<g id="a_node13"><a xlink:href="class_perceptual_color_1_1_gradient_selector.html#a1548390b891333547c1dee97573be568" target="_top" xlink:title=" ">
<polygon fill="white" stroke="black" points="398.5,-202.95 398.5,-232.95 540.5,-232.95 540.5,-202.95 398.5,-202.95"/>
<text text-anchor="start" x="406.5" y="-220.95" font-family="Helvetica,sans-Serif" font-size="10.00">PerceptualColor::Gradient</text>
<text text-anchor="middle" x="469.5" y="-209.95" font-family="Helvetica,sans-Serif" font-size="10.00">Selector::setFraction</text>
</a>
</g>
</g>
<!-- Node2&#45;&gt;Node13 -->
<g id="edge15" class="edge">
<title>Node2&#45;&gt;Node13</title>
<path fill="none" stroke="midnightblue" d="M350.25,-231.22C362.81,-229.81 375.84,-228.35 388.46,-226.93"/>
<polygon fill="midnightblue" stroke="midnightblue" points="388.93,-230.4 398.48,-225.81 388.15,-223.44 388.93,-230.4"/>
</g>
<!-- Node14 -->
<g id="node14" class="node">
<title>Node14</title>
<g id="a_node14"><a xlink:href="class_perceptual_color_1_1_color_dialog.html#a38134a3e22f2b3df4602a08025ec1d52" target="_top" xlink:title="Get text for m_hlcLineEdit based on m_currentOpaqueColor.">
<polygon fill="white" stroke="black" points="603,-202.95 603,-232.95 760,-232.95 760,-202.95 603,-202.95"/>
<text text-anchor="start" x="611" y="-220.95" font-family="Helvetica,sans-Serif" font-size="10.00">PerceptualColor::ColorDialog</text>
<text text-anchor="middle" x="681.5" y="-209.95" font-family="Helvetica,sans-Serif" font-size="10.00">::textForHlcLineEdit</text>
</a>
</g>
</g>
<!-- Node2&#45;&gt;Node14 -->
<g id="edge16" class="edge">
<title>Node2&#45;&gt;Node14</title>
<path fill="none" stroke="midnightblue" d="M350.04,-241.49C362.08,-241.68 374.37,-241.84 386,-241.95 460.22,-242.6 479.1,-248.84 553,-241.95 569.44,-240.41 586.91,-237.79 603.48,-234.83"/>
<polygon fill="midnightblue" stroke="midnightblue" points="604.47,-238.2 613.67,-232.95 603.2,-231.32 604.47,-238.2"/>
</g>
<!-- Node15 -->
<g id="node15" class="node">
<title>Node15</title>
<g id="a_node15"><a xlink:href="class_perceptual_color_1_1_full_color_description.html#aaa17133c6e1d040b2f088e79a42d3283" target="_top" xlink:title=" ">
<polygon fill="white" stroke="black" points="398,-114.95 398,-144.95 541,-144.95 541,-114.95 398,-114.95"/>
<text text-anchor="start" x="406" y="-132.95" font-family="Helvetica,sans-Serif" font-size="10.00">PerceptualColor::FullColor</text>
<text text-anchor="middle" x="469.5" y="-121.95" font-family="Helvetica,sans-Serif" font-size="10.00">Description::toHsvQColor</text>
</a>
</g>
</g>
<!-- Node2&#45;&gt;Node15 -->
<g id="edge18" class="edge">
<title>Node2&#45;&gt;Node15</title>
<path fill="none" stroke="midnightblue" d="M290.79,-224.73C312.44,-207.29 350.1,-178.7 386,-159.95 393.85,-155.84 402.39,-152.06 410.9,-148.66"/>
<polygon fill="midnightblue" stroke="midnightblue" points="412.38,-151.84 420.46,-144.98 409.87,-145.3 412.38,-151.84"/>
</g>
<!-- Node16 -->
<g id="node16" class="node">
<title>Node16</title>
<g id="a_node16"><a xlink:href="class_perceptual_color_1_1_full_color_description.html#a572e2abe28e31c6315732d30f06b1732" target="_top" xlink:title="A string with a hexadecimal representation of the color.">
<polygon fill="white" stroke="black" points="392,-65.95 392,-95.95 547,-95.95 547,-65.95 392,-65.95"/>
<text text-anchor="start" x="400" y="-83.95" font-family="Helvetica,sans-Serif" font-size="10.00">PerceptualColor::FullColor</text>
<text text-anchor="middle" x="469.5" y="-72.95" font-family="Helvetica,sans-Serif" font-size="10.00">Description::toRgbHexString</text>
</a>
</g>
</g>
<!-- Node2&#45;&gt;Node16 -->
<g id="edge20" class="edge">
<title>Node2&#45;&gt;Node16</title>
<path fill="none" stroke="midnightblue" d="M281,-224.87C297.53,-196.93 336.74,-137.04 386,-104.95 388.46,-103.34 391.03,-101.84 393.68,-100.44"/>
<polygon fill="midnightblue" stroke="midnightblue" points="395.4,-103.5 402.94,-96.05 392.4,-97.17 395.4,-103.5"/>
</g>
<!-- Node17 -->
<g id="node17" class="node">
<title>Node17</title>
<g id="a_node17"><a xlink:href="class_perceptual_color_1_1_full_color_description.html#aad1d9cc70b7a9ae81c829c391334d768" target="_top" xlink:title=" ">
<polygon fill="white" stroke="black" points="610,-476.95 610,-506.95 753,-506.95 753,-476.95 610,-476.95"/>
<text text-anchor="start" x="618" y="-494.95" font-family="Helvetica,sans-Serif" font-size="10.00">PerceptualColor::FullColor</text>
<text text-anchor="middle" x="681.5" y="-483.95" font-family="Helvetica,sans-Serif" font-size="10.00">Description::toRgbQColor</text>
</a>
</g>
</g>
<!-- Node2&#45;&gt;Node17 -->
<g id="edge21" class="edge">
<title>Node2&#45;&gt;Node17</title>
<path fill="none" stroke="midnightblue" d="M280.47,-255.27C296.38,-284.28 334.98,-347.12 386,-378.95 450.67,-419.29 489.59,-375.66 553,-417.95 575.78,-433.14 566.43,-452.45 589,-467.95 592.68,-470.47 596.61,-472.73 600.69,-474.75"/>
<polygon fill="midnightblue" stroke="midnightblue" points="599.28,-477.96 609.84,-478.81 602.12,-471.56 599.28,-477.96"/>
</g>
<!-- Node18 -->
<g id="node18" class="node">
<title>Node18</title>
<g id="a_node18"><a xlink:href="class_perceptual_color_1_1_color_dialog.html#a18985e0cf14c64400f1edc5f64da159d" target="_top" xlink:title="Updates the color patch widget.">
<polygon fill="white" stroke="black" points="391,-476.95 391,-506.95 548,-506.95 548,-476.95 391,-476.95"/>
<text text-anchor="start" x="399" y="-494.95" font-family="Helvetica,sans-Serif" font-size="10.00">PerceptualColor::ColorDialog</text>
<text text-anchor="middle" x="469.5" y="-483.95" font-family="Helvetica,sans-Serif" font-size="10.00">::updateColorPatch</text>
</a>
</g>
</g>
<!-- Node2&#45;&gt;Node18 -->
<g id="edge22" class="edge">
<title>Node2&#45;&gt;Node18</title>
<path fill="none" stroke="midnightblue" d="M275.6,-255.06C284.75,-295.86 315.59,-409.12 386,-467.95 387.55,-469.24 389.16,-470.46 390.82,-471.61"/>
<polygon fill="midnightblue" stroke="midnightblue" points="389.19,-474.72 399.57,-476.86 392.79,-468.71 389.19,-474.72"/>
</g>
<!-- Node5 -->
<g id="node5" class="node">
<title>Node5</title>
<g id="a_node5"><a xlink:href="class_perceptual_color_1_1_gradient_selector.html#aabfd1c82565fb7c491e3bf1735beca11" target="_top" xlink:title=" ">
<polygon fill="white" stroke="black" points="610.5,-290.95 610.5,-320.95 752.5,-320.95 752.5,-290.95 610.5,-290.95"/>
<text text-anchor="start" x="618.5" y="-308.95" font-family="Helvetica,sans-Serif" font-size="10.00">PerceptualColor::Gradient</text>
<text text-anchor="middle" x="681.5" y="-297.95" font-family="Helvetica,sans-Serif" font-size="10.00">Selector::setColors</text>
</a>
</g>
</g>
<!-- Node4&#45;&gt;Node5 -->
<g id="edge4" class="edge">
<title>Node4&#45;&gt;Node5</title>
<path fill="none" stroke="midnightblue" d="M553.2,-305.95C568.73,-305.95 584.95,-305.95 600.4,-305.95"/>
<polygon fill="midnightblue" stroke="midnightblue" points="600.43,-309.45 610.43,-305.95 600.43,-302.45 600.43,-309.45"/>
</g>
<!-- Node4&#45;&gt;Node6 -->
<g id="edge5" class="edge">
<title>Node4&#45;&gt;Node6</title>
<path fill="none" stroke="midnightblue" d="M541.62,-290.94C557.23,-287.65 573.67,-284.18 589,-280.95 671.22,-263.61 691.85,-259.61 774,-241.95 784.09,-239.78 794.71,-237.47 805.19,-235.19"/>
<polygon fill="midnightblue" stroke="midnightblue" points="806.15,-238.56 815.18,-233.01 804.66,-231.72 806.15,-238.56"/>
</g>
<!-- Node7&#45;&gt;Node6 -->
<g id="edge7" class="edge">
<title>Node7&#45;&gt;Node6</title>
<path fill="none" stroke="midnightblue" d="M705.56,-101.97C741.58,-125.45 811.3,-170.89 851.95,-197.38"/>
<polygon fill="midnightblue" stroke="midnightblue" points="850.11,-200.36 860.4,-202.89 853.94,-194.5 850.11,-200.36"/>
</g>
<!-- Node8&#45;&gt;Node6 -->
<g id="edge14" class="edge">
<title>Node8&#45;&gt;Node6</title>
<path fill="none" stroke="midnightblue" d="M507.64,-370.01C567.56,-391.78 687.57,-424.69 774,-378.95 828.62,-350.04 861.07,-280.31 875.16,-242.81"/>
<polygon fill="midnightblue" stroke="midnightblue" points="878.55,-243.74 878.65,-233.15 871.96,-241.36 878.55,-243.74"/>
</g>
<!-- Node9 -->
<g id="node9" class="node">
<title>Node9</title>
<g id="a_node9"><a xlink:href="class_perceptual_color_1_1_chroma_lightness_diagram.html#a27d7c972e420480674da1a0fae0b10b3" target="_top" xlink:title="Setter for the color() property.">
<polygon fill="white" stroke="black" points="589,-339.95 589,-369.95 774,-369.95 774,-339.95 589,-339.95"/>
<text text-anchor="start" x="597" y="-357.95" font-family="Helvetica,sans-Serif" font-size="10.00">PerceptualColor::ChromaLightness</text>
<text text-anchor="middle" x="681.5" y="-346.95" font-family="Helvetica,sans-Serif" font-size="10.00">Diagram::setColor</text>
</a>
</g>
</g>
<!-- Node8&#45;&gt;Node9 -->
<g id="edge9" class="edge">
<title>Node8&#45;&gt;Node9</title>
<path fill="none" stroke="midnightblue" d="M547.5,-354.95C557.71,-354.95 568.29,-354.95 578.82,-354.95"/>
<polygon fill="midnightblue" stroke="midnightblue" points="578.9,-358.45 588.9,-354.95 578.9,-351.45 578.9,-358.45"/>
</g>
<!-- Node10 -->
<g id="node10" class="node">
<title>Node10</title>
<g id="a_node10"><a xlink:href="class_perceptual_color_1_1_simple_color_wheel.html#aa9eec6e96f6069be6d983d1c854644d1" target="_top" xlink:title=" ">
<polygon fill="white" stroke="black" points="602,-427.95 602,-457.95 761,-457.95 761,-427.95 602,-427.95"/>
<text text-anchor="start" x="610" y="-445.95" font-family="Helvetica,sans-Serif" font-size="10.00">PerceptualColor::SimpleColor</text>
<text text-anchor="middle" x="681.5" y="-434.95" font-family="Helvetica,sans-Serif" font-size="10.00">Wheel::setHue</text>
</a>
</g>
</g>
<!-- Node8&#45;&gt;Node10 -->
<g id="edge11" class="edge">
<title>Node8&#45;&gt;Node10</title>
<path fill="none" stroke="midnightblue" d="M519.6,-369.95C530.87,-374.16 542.6,-379.19 553,-384.95 570.74,-394.75 571.11,-403.42 589,-412.95 597.02,-417.21 605.76,-421.02 614.55,-424.37"/>
<polygon fill="midnightblue" stroke="midnightblue" points="613.48,-427.71 624.08,-427.83 615.87,-421.13 613.48,-427.71"/>
</g>
<!-- Node9&#45;&gt;Node6 -->
<g id="edge10" class="edge">
<title>Node9&#45;&gt;Node6</title>
<path fill="none" stroke="midnightblue" d="M753.02,-339.83C760.33,-337.05 767.47,-333.79 774,-329.95 812.96,-307.03 847.49,-266.66 866.92,-241.16"/>
<polygon fill="midnightblue" stroke="midnightblue" points="869.73,-243.23 872.91,-233.13 864.12,-239.05 869.73,-243.23"/>
</g>
<!-- Node11 -->
<g id="node11" class="node">
<title>Node11</title>
<g id="a_node11"><a xlink:href="class_perceptual_color_1_1_polar_point_f.html#a9eefd08d3a5ad536232292380f958804" target="_top" xlink:title="Normalizes an angle.">
<polygon fill="white" stroke="black" points="810,-427.95 810,-457.95 959,-457.95 959,-427.95 810,-427.95"/>
<text text-anchor="start" x="818" y="-445.95" font-family="Helvetica,sans-Serif" font-size="10.00">PerceptualColor::PolarPoint</text>
<text text-anchor="middle" x="884.5" y="-434.95" font-family="Helvetica,sans-Serif" font-size="10.00">F::normalizedAngleDegree</text>
</a>
</g>
</g>
<!-- Node10&#45;&gt;Node11 -->
<g id="edge12" class="edge">
<title>Node10&#45;&gt;Node11</title>
<path fill="none" stroke="midnightblue" d="M761.08,-442.95C773.76,-442.95 786.93,-442.95 799.74,-442.95"/>
<polygon fill="midnightblue" stroke="midnightblue" points="799.91,-446.45 809.91,-442.95 799.91,-439.45 799.91,-446.45"/>
</g>
<!-- Node12 -->
<g id="node12" class="node">
<title>Node12</title>
<g id="a_node12"><a xlink:href="class_perceptual_color_1_1_polar_point_f.html#a882cd166affc603fc62241dcb3be4fd5" target="_top" xlink:title="Normalized angle.">
<polygon fill="white" stroke="black" points="995,-427.95 995,-457.95 1144,-457.95 1144,-427.95 995,-427.95"/>
<text text-anchor="start" x="1003" y="-445.95" font-family="Helvetica,sans-Serif" font-size="10.00">PerceptualColor::PolarPoint</text>
<text text-anchor="middle" x="1069.5" y="-434.95" font-family="Helvetica,sans-Serif" font-size="10.00">F::angleDegree</text>
</a>
</g>
</g>
<!-- Node11&#45;&gt;Node12 -->
<g id="edge13" class="edge">
<title>Node11&#45;&gt;Node12</title>
<path fill="none" stroke="midnightblue" d="M959.14,-442.95C967.47,-442.95 976.01,-442.95 984.46,-442.95"/>
<polygon fill="midnightblue" stroke="midnightblue" points="984.71,-446.45 994.71,-442.95 984.71,-439.45 984.71,-446.45"/>
</g>
<!-- Node14&#45;&gt;Node6 -->
<g id="edge17" class="edge">
<title>Node14&#45;&gt;Node6</title>
<path fill="none" stroke="midnightblue" d="M760.21,-217.95C774.17,-217.95 788.74,-217.95 802.78,-217.95"/>
<polygon fill="midnightblue" stroke="midnightblue" points="802.89,-221.45 812.89,-217.95 802.89,-214.45 802.89,-221.45"/>
</g>
<!-- Node18&#45;&gt;Node17 -->
<g id="edge24" class="edge">
<title>Node18&#45;&gt;Node17</title>
<path fill="none" stroke="midnightblue" d="M548.1,-491.95C564.84,-491.95 582.58,-491.95 599.44,-491.95"/>
<polygon fill="midnightblue" stroke="midnightblue" points="599.82,-495.45 609.82,-491.95 599.82,-488.45 599.82,-495.45"/>
</g>
<!-- Node19 -->
<g id="node19" class="node">
<title>Node19</title>
<g id="a_node19"><a xlink:href="class_perceptual_color_1_1_color_patch.html#ada8693cd4a8e51eb2debd3c0192a7458" target="_top" xlink:title="Set the color property.">
<polygon fill="white" stroke="black" points="605.5,-525.95 605.5,-555.95 757.5,-555.95 757.5,-525.95 605.5,-525.95"/>
<text text-anchor="start" x="613.5" y="-543.95" font-family="Helvetica,sans-Serif" font-size="10.00">PerceptualColor::ColorPatch</text>
<text text-anchor="middle" x="681.5" y="-532.95" font-family="Helvetica,sans-Serif" font-size="10.00">::setColor</text>
</a>
</g>
</g>
<!-- Node18&#45;&gt;Node19 -->
<g id="edge23" class="edge">
<title>Node18&#45;&gt;Node19</title>
<path fill="none" stroke="midnightblue" d="M534.93,-506.98C557.51,-512.25 583.04,-518.21 606.35,-523.64"/>
<polygon fill="midnightblue" stroke="midnightblue" points="605.65,-527.08 616.19,-525.94 607.24,-520.26 605.65,-527.08"/>
</g>
</g>
</svg>
