<?xml version="1.0" encoding="UTF-8" standalone="no"?>
<!DOCTYPE svg PUBLIC "-//W3C//DTD SVG 1.1//EN"
 "http://www.w3.org/Graphics/SVG/1.1/DTD/svg11.dtd">
<!-- Generated by graphviz version 2.43.0 (0)
 -->
<!-- Title: PerceptualColor::RgbColorSpace::inGamut Pages: 1 -->
<svg width="596pt" height="186pt"
 viewBox="0.00 0.00 596.00 186.00" xmlns="http://www.w3.org/2000/svg" xmlns:xlink="http://www.w3.org/1999/xlink">
<g id="graph0" class="graph" transform="scale(1 1) rotate(0) translate(4 182)">
<title>PerceptualColor::RgbColorSpace::inGamut</title>
<polygon fill="white" stroke="transparent" points="-4,4 -4,-182 592,-182 592,4 -4,4"/>
<!-- Node1 -->
<g id="node1" class="node">
<title>Node1</title>
<g id="a_node1"><a xlink:title="check if a Lab value is within a specific RGB gamut">
<polygon fill="#bfbfbf" stroke="black" points="444,-73.5 444,-103.5 588,-103.5 588,-73.5 444,-73.5"/>
<text text-anchor="start" x="452" y="-91.5" font-family="Helvetica,sans-Serif" font-size="10.00">PerceptualColor::RgbColor</text>
<text text-anchor="middle" x="516" y="-80.5" font-family="Helvetica,sans-Serif" font-size="10.00">Space::inGamut</text>
</a>
</g>
</g>
<!-- Node2 -->
<g id="node2" class="node">
<title>Node2</title>
<g id="a_node2"><a xlink:href="class_perceptual_color_1_1_rgb_color_space.html#a33ed96ad94f8b884e9c224bedfa3f123" target="_top" xlink:title="check if an LCh value is within a specific RGB gamut">
<polygon fill="white" stroke="black" points="238,-147.5 238,-177.5 382,-177.5 382,-147.5 238,-147.5"/>
<text text-anchor="start" x="246" y="-165.5" font-family="Helvetica,sans-Serif" font-size="10.00">PerceptualColor::RgbColor</text>
<text text-anchor="middle" x="310" y="-154.5" font-family="Helvetica,sans-Serif" font-size="10.00">Space::inGamut</text>
</a>
</g>
</g>
<!-- Node1&#45;&gt;Node2 -->
<g id="edge1" class="edge">
<title>Node1&#45;&gt;Node2</title>
<path fill="none" stroke="midnightblue" d="M477.42,-108.26C457.24,-118.3 431.7,-130.12 408,-138.5 398.76,-141.77 388.87,-144.76 379.07,-147.44"/>
<polygon fill="midnightblue" stroke="midnightblue" points="479.22,-111.27 486.57,-103.64 476.07,-105.02 479.22,-111.27"/>
</g>
<!-- Node3 -->
<g id="node3" class="node">
<title>Node3</title>
<g id="a_node3"><a xlink:href="class_perceptual_color_1_1_chroma_hue_diagram.html#a16bcb9d0eee3536fe4f1034d2b9c3329" target="_top" xlink:title="React on a mouse move event.">
<polygon fill="white" stroke="black" points="231,-98.5 231,-128.5 389,-128.5 389,-98.5 231,-98.5"/>
<text text-anchor="start" x="239" y="-116.5" font-family="Helvetica,sans-Serif" font-size="10.00">PerceptualColor::ChromaHue</text>
<text text-anchor="middle" x="310" y="-105.5" font-family="Helvetica,sans-Serif" font-size="10.00">Diagram::mouseMoveEvent</text>
</a>
</g>
</g>
<!-- Node1&#45;&gt;Node3 -->
<g id="edge2" class="edge">
<title>Node1&#45;&gt;Node3</title>
<path fill="none" stroke="midnightblue" d="M433.85,-98.45C419.11,-100.25 403.77,-102.13 389.12,-103.93"/>
<polygon fill="midnightblue" stroke="midnightblue" points="434.44,-101.9 443.94,-97.21 433.59,-94.95 434.44,-101.9"/>
</g>
<!-- Node4 -->
<g id="node4" class="node">
<title>Node4</title>
<g id="a_node4"><a xlink:href="class_perceptual_color_1_1_full_color_description.html#a5c7e9555e961f25f39c961b6aedda06a" target="_top" xlink:title=" ">
<polygon fill="white" stroke="black" points="212,-49.5 212,-79.5 408,-79.5 408,-49.5 212,-49.5"/>
<text text-anchor="start" x="220" y="-67.5" font-family="Helvetica,sans-Serif" font-size="10.00">PerceptualColor::FullColor</text>
<text text-anchor="middle" x="310" y="-56.5" font-family="Helvetica,sans-Serif" font-size="10.00">Description::moveChromaIntoGamut</text>
</a>
</g>
</g>
<!-- Node1&#45;&gt;Node4 -->
<g id="edge3" class="edge">
<title>Node1&#45;&gt;Node4</title>
<path fill="none" stroke="midnightblue" d="M433.73,-78.94C425.28,-77.94 416.62,-76.93 408.01,-75.91"/>
<polygon fill="midnightblue" stroke="midnightblue" points="433.6,-82.45 443.94,-80.14 434.41,-75.5 433.6,-82.45"/>
</g>
<!-- Node6 -->
<g id="node6" class="node">
<title>Node6</title>
<g id="a_node6"><a xlink:href="class_perceptual_color_1_1_rgb_color_space.html#a013f1458308475d288bd260a28a75e10" target="_top" xlink:title="Default constructor.">
<polygon fill="white" stroke="black" points="238,-0.5 238,-30.5 382,-30.5 382,-0.5 238,-0.5"/>
<text text-anchor="start" x="246" y="-18.5" font-family="Helvetica,sans-Serif" font-size="10.00">PerceptualColor::RgbColor</text>
<text text-anchor="middle" x="310" y="-7.5" font-family="Helvetica,sans-Serif" font-size="10.00">Space::RgbColorSpace</text>
</a>
</g>
</g>
<!-- Node1&#45;&gt;Node6 -->
<g id="edge5" class="edge">
<title>Node1&#45;&gt;Node6</title>
<path fill="none" stroke="midnightblue" d="M476.01,-69.09C456.01,-59.63 431.06,-48.58 408,-40.5 397.66,-36.88 386.53,-33.52 375.64,-30.53"/>
<polygon fill="midnightblue" stroke="midnightblue" points="474.59,-72.29 485.12,-73.45 477.61,-65.97 474.59,-72.29"/>
</g>
<!-- Node5 -->
<g id="node5" class="node">
<title>Node5</title>
<g id="a_node5"><a xlink:href="class_perceptual_color_1_1_full_color_description.html#a7d27cb4b18ebaf0a3d0374201c2d283a" target="_top" xlink:title="Constructor.">
<polygon fill="white" stroke="black" points="0,-49.5 0,-79.5 176,-79.5 176,-49.5 0,-49.5"/>
<text text-anchor="start" x="8" y="-67.5" font-family="Helvetica,sans-Serif" font-size="10.00">PerceptualColor::FullColor</text>
<text text-anchor="middle" x="88" y="-56.5" font-family="Helvetica,sans-Serif" font-size="10.00">Description::FullColorDescription</text>
</a>
</g>
</g>
<!-- Node4&#45;&gt;Node5 -->
<g id="edge4" class="edge">
<title>Node4&#45;&gt;Node5</title>
<path fill="none" stroke="midnightblue" d="M201.83,-64.5C193.25,-64.5 184.66,-64.5 176.25,-64.5"/>
<polygon fill="midnightblue" stroke="midnightblue" points="201.86,-68 211.86,-64.5 201.86,-61 201.86,-68"/>
</g>
</g>
</svg>
