<?xml version="1.0" encoding="UTF-8" standalone="no"?>
<!DOCTYPE svg PUBLIC "-//W3C//DTD SVG 1.1//EN"
 "http://www.w3.org/Graphics/SVG/1.1/DTD/svg11.dtd">
<!-- Generated by graphviz version 2.43.0 (0)
 -->
<!-- Title: PerceptualColor::GradientSelector::fromWindowCoordinatesToFraction Pages: 1 -->
<svg width="389pt" height="137pt"
 viewBox="0.00 0.00 389.00 137.00" xmlns="http://www.w3.org/2000/svg" xmlns:xlink="http://www.w3.org/1999/xlink">
<g id="graph0" class="graph" transform="scale(1 1) rotate(0) translate(4 133)">
<title>PerceptualColor::GradientSelector::fromWindowCoordinatesToFraction</title>
<polygon fill="white" stroke="transparent" points="-4,4 -4,-133 385,-133 385,4 -4,4"/>
<!-- Node1 -->
<g id="node1" class="node">
<title>Node1</title>
<g id="a_node1"><a xlink:title=" ">
<polygon fill="#bfbfbf" stroke="black" points="198,-44 198,-85 381,-85 381,-44 198,-44"/>
<text text-anchor="start" x="206" y="-73" font-family="Helvetica,sans-Serif" font-size="10.00">PerceptualColor::Gradient</text>
<text text-anchor="start" x="206" y="-62" font-family="Helvetica,sans-Serif" font-size="10.00">Selector::fromWindowCoordinates</text>
<text text-anchor="middle" x="289.5" y="-51" font-family="Helvetica,sans-Serif" font-size="10.00">ToFraction</text>
</a>
</g>
</g>
<!-- Node2 -->
<g id="node2" class="node">
<title>Node2</title>
<g id="a_node2"><a xlink:href="class_perceptual_color_1_1_gradient_selector.html#a194cc85b17400e9b227ebc38eb1c0959" target="_top" xlink:title=" ">
<polygon fill="white" stroke="black" points="6,-98.5 6,-128.5 156,-128.5 156,-98.5 6,-98.5"/>
<text text-anchor="start" x="14" y="-116.5" font-family="Helvetica,sans-Serif" font-size="10.00">PerceptualColor::Gradient</text>
<text text-anchor="middle" x="81" y="-105.5" font-family="Helvetica,sans-Serif" font-size="10.00">Selector::mouseMoveEvent</text>
</a>
</g>
</g>
<!-- Node1&#45;&gt;Node2 -->
<g id="edge1" class="edge">
<title>Node1&#45;&gt;Node2</title>
<path fill="none" stroke="midnightblue" d="M191.98,-87.4C176.11,-91.17 160.02,-94.99 145.23,-98.5"/>
<polygon fill="midnightblue" stroke="midnightblue" points="192.9,-90.78 201.82,-85.07 191.29,-83.97 192.9,-90.78"/>
</g>
<!-- Node3 -->
<g id="node3" class="node">
<title>Node3</title>
<g id="a_node3"><a xlink:href="class_perceptual_color_1_1_gradient_selector.html#a37fdfe6b99a523638631874159cd7c3b" target="_top" xlink:title=" ">
<polygon fill="white" stroke="black" points="6.5,-49.5 6.5,-79.5 155.5,-79.5 155.5,-49.5 6.5,-49.5"/>
<text text-anchor="start" x="14.5" y="-67.5" font-family="Helvetica,sans-Serif" font-size="10.00">PerceptualColor::Gradient</text>
<text text-anchor="middle" x="81" y="-56.5" font-family="Helvetica,sans-Serif" font-size="10.00">Selector::mousePressEvent</text>
</a>
</g>
</g>
<!-- Node1&#45;&gt;Node3 -->
<g id="edge2" class="edge">
<title>Node1&#45;&gt;Node3</title>
<path fill="none" stroke="midnightblue" d="M187.65,-64.5C176.9,-64.5 166.12,-64.5 155.77,-64.5"/>
<polygon fill="midnightblue" stroke="midnightblue" points="187.93,-68 197.93,-64.5 187.93,-61 187.93,-68"/>
</g>
<!-- Node4 -->
<g id="node4" class="node">
<title>Node4</title>
<g id="a_node4"><a xlink:href="class_perceptual_color_1_1_gradient_selector.html#a2c074fbb043b1b00f9b3e621a102e2a7" target="_top" xlink:title=" ">
<polygon fill="white" stroke="black" points="0,-0.5 0,-30.5 162,-30.5 162,-0.5 0,-0.5"/>
<text text-anchor="start" x="8" y="-18.5" font-family="Helvetica,sans-Serif" font-size="10.00">PerceptualColor::Gradient</text>
<text text-anchor="middle" x="81" y="-7.5" font-family="Helvetica,sans-Serif" font-size="10.00">Selector::mouseReleaseEvent</text>
</a>
</g>
</g>
<!-- Node1&#45;&gt;Node4 -->
<g id="edge3" class="edge">
<title>Node1&#45;&gt;Node4</title>
<path fill="none" stroke="midnightblue" d="M191.98,-41.6C176.11,-37.83 160.02,-34.01 145.23,-30.5"/>
<polygon fill="midnightblue" stroke="midnightblue" points="191.29,-45.03 201.82,-43.93 192.9,-38.22 191.29,-45.03"/>
</g>
</g>
</svg>
