<?xml version="1.0" encoding="UTF-8" standalone="no"?>
<!DOCTYPE svg PUBLIC "-//W3C//DTD SVG 1.1//EN"
 "http://www.w3.org/Graphics/SVG/1.1/DTD/svg11.dtd">
<!-- Generated by graphviz version 2.43.0 (0)
 -->
<!-- Title: PerceptualColor::PolarPointF::toCartesian Pages: 1 -->
<svg width="599pt" height="100pt"
 viewBox="0.00 0.00 599.00 99.50" xmlns="http://www.w3.org/2000/svg" xmlns:xlink="http://www.w3.org/1999/xlink">
<g id="graph0" class="graph" transform="scale(1 1) rotate(0) translate(4 95.5)">
<title>PerceptualColor::PolarPointF::toCartesian</title>
<polygon fill="white" stroke="transparent" points="-4,4 -4,-95.5 595,-95.5 595,4 -4,4"/>
<!-- Node1 -->
<g id="node1" class="node">
<title>Node1</title>
<g id="a_node1"><a xlink:title="Convert to cartesion coordinates.">
<polygon fill="#bfbfbf" stroke="black" points="442,-27.5 442,-57.5 591,-57.5 591,-27.5 442,-27.5"/>
<text text-anchor="start" x="450" y="-45.5" font-family="Helvetica,sans-Serif" font-size="10.00">PerceptualColor::PolarPoint</text>
<text text-anchor="middle" x="516.5" y="-34.5" font-family="Helvetica,sans-Serif" font-size="10.00">F::toCartesian</text>
</a>
</g>
</g>
<!-- Node2 -->
<g id="node2" class="node">
<title>Node2</title>
<g id="a_node2"><a xlink:href="class_perceptual_color_1_1_simple_color_wheel.html#a45d568d5ec1f9ffc175f9bdc527c54e3" target="_top" xlink:title="Converts wheel coordinates to widget coordinates.">
<polygon fill="white" stroke="black" points="195,-50 195,-91 406,-91 406,-50 195,-50"/>
<text text-anchor="start" x="203" y="-79" font-family="Helvetica,sans-Serif" font-size="10.00">PerceptualColor::SimpleColor</text>
<text text-anchor="start" x="203" y="-68" font-family="Helvetica,sans-Serif" font-size="10.00">Wheel::fromWheelCoordinatesToWidget</text>
<text text-anchor="middle" x="300.5" y="-57" font-family="Helvetica,sans-Serif" font-size="10.00">Coordinates</text>
</a>
</g>
</g>
<!-- Node1&#45;&gt;Node2 -->
<g id="edge1" class="edge">
<title>Node1&#45;&gt;Node2</title>
<path fill="none" stroke="midnightblue" d="M431.76,-53.46C423.4,-54.55 414.84,-55.67 406.29,-56.79"/>
<polygon fill="midnightblue" stroke="midnightblue" points="432.39,-56.9 441.85,-52.14 431.48,-49.96 432.39,-56.9"/>
</g>
<!-- Node4 -->
<g id="node4" class="node">
<title>Node4</title>
<g id="a_node4"><a xlink:href="class_perceptual_color_1_1_chroma_hue_diagram.html#ad7709d55647d4a6842f34a5dd10cb2a9" target="_top" xlink:title="Paint the widget.">
<polygon fill="white" stroke="black" points="221.5,-0.5 221.5,-30.5 379.5,-30.5 379.5,-0.5 221.5,-0.5"/>
<text text-anchor="start" x="229.5" y="-18.5" font-family="Helvetica,sans-Serif" font-size="10.00">PerceptualColor::ChromaHue</text>
<text text-anchor="middle" x="300.5" y="-7.5" font-family="Helvetica,sans-Serif" font-size="10.00">Diagram::paintEvent</text>
</a>
</g>
</g>
<!-- Node1&#45;&gt;Node4 -->
<g id="edge3" class="edge">
<title>Node1&#45;&gt;Node4</title>
<path fill="none" stroke="midnightblue" d="M431.85,-31.95C414.67,-29.78 396.64,-27.5 379.66,-25.36"/>
<polygon fill="midnightblue" stroke="midnightblue" points="431.49,-35.43 441.85,-33.21 432.37,-28.48 431.49,-35.43"/>
</g>
<!-- Node3 -->
<g id="node3" class="node">
<title>Node3</title>
<g id="a_node3"><a xlink:href="class_perceptual_color_1_1_simple_color_wheel.html#acec7e14aa3949bb3a1afd03a9d9cc15b" target="_top" xlink:title="Paint the widget.">
<polygon fill="white" stroke="black" points="0,-55.5 0,-85.5 159,-85.5 159,-55.5 0,-55.5"/>
<text text-anchor="start" x="8" y="-73.5" font-family="Helvetica,sans-Serif" font-size="10.00">PerceptualColor::SimpleColor</text>
<text text-anchor="middle" x="79.5" y="-62.5" font-family="Helvetica,sans-Serif" font-size="10.00">Wheel::paintEvent</text>
</a>
</g>
</g>
<!-- Node2&#45;&gt;Node3 -->
<g id="edge2" class="edge">
<title>Node2&#45;&gt;Node3</title>
<path fill="none" stroke="midnightblue" d="M184.69,-70.5C176.08,-70.5 167.51,-70.5 159.19,-70.5"/>
<polygon fill="midnightblue" stroke="midnightblue" points="184.81,-74 194.81,-70.5 184.81,-67 184.81,-74"/>
</g>
</g>
</svg>
