<?xml version="1.0" encoding="UTF-8" standalone="no"?>
<!DOCTYPE svg PUBLIC "-//W3C//DTD SVG 1.1//EN"
 "http://www.w3.org/Graphics/SVG/1.1/DTD/svg11.dtd">
<!-- Generated by graphviz version 2.43.0 (0)
 -->
<!-- Title: PerceptualColor::GradientSelector::mousePressEvent Pages: 1 -->
<svg width="376pt" height="100pt"
 viewBox="0.00 0.00 376.00 99.50" xmlns="http://www.w3.org/2000/svg" xmlns:xlink="http://www.w3.org/1999/xlink">
<g id="graph0" class="graph" transform="scale(1 1) rotate(0) translate(4 95.5)">
<title>PerceptualColor::GradientSelector::mousePressEvent</title>
<polygon fill="white" stroke="transparent" points="-4,4 -4,-95.5 372,-95.5 372,4 -4,4"/>
<!-- Node1 -->
<g id="node1" class="node">
<title>Node1</title>
<g id="a_node1"><a xlink:title=" ">
<polygon fill="#bfbfbf" stroke="black" points="0,-27.5 0,-57.5 149,-57.5 149,-27.5 0,-27.5"/>
<text text-anchor="start" x="8" y="-45.5" font-family="Helvetica,sans-Serif" font-size="10.00">PerceptualColor::Gradient</text>
<text text-anchor="middle" x="74.5" y="-34.5" font-family="Helvetica,sans-Serif" font-size="10.00">Selector::mousePressEvent</text>
</a>
</g>
</g>
<!-- Node2 -->
<g id="node2" class="node">
<title>Node2</title>
<g id="a_node2"><a xlink:href="class_perceptual_color_1_1_gradient_selector.html#aca3bebb17bed8f9728fb2641af41bb60" target="_top" xlink:title=" ">
<polygon fill="white" stroke="black" points="185,-50 185,-91 368,-91 368,-50 185,-50"/>
<text text-anchor="start" x="193" y="-79" font-family="Helvetica,sans-Serif" font-size="10.00">PerceptualColor::Gradient</text>
<text text-anchor="start" x="193" y="-68" font-family="Helvetica,sans-Serif" font-size="10.00">Selector::fromWindowCoordinates</text>
<text text-anchor="middle" x="276.5" y="-57" font-family="Helvetica,sans-Serif" font-size="10.00">ToFraction</text>
</a>
</g>
</g>
<!-- Node1&#45;&gt;Node2 -->
<g id="edge1" class="edge">
<title>Node1&#45;&gt;Node2</title>
<path fill="none" stroke="midnightblue" d="M149.12,-52.81C157.45,-53.97 166.03,-55.17 174.63,-56.38"/>
<polygon fill="midnightblue" stroke="midnightblue" points="174.32,-59.87 184.71,-57.79 175.29,-52.94 174.32,-59.87"/>
</g>
<!-- Node3 -->
<g id="node3" class="node">
<title>Node3</title>
<g id="a_node3"><a xlink:href="class_perceptual_color_1_1_gradient_selector.html#a1548390b891333547c1dee97573be568" target="_top" xlink:title=" ">
<polygon fill="white" stroke="black" points="205.5,-0.5 205.5,-30.5 347.5,-30.5 347.5,-0.5 205.5,-0.5"/>
<text text-anchor="start" x="213.5" y="-18.5" font-family="Helvetica,sans-Serif" font-size="10.00">PerceptualColor::Gradient</text>
<text text-anchor="middle" x="276.5" y="-7.5" font-family="Helvetica,sans-Serif" font-size="10.00">Selector::setFraction</text>
</a>
</g>
</g>
<!-- Node1&#45;&gt;Node3 -->
<g id="edge2" class="edge">
<title>Node1&#45;&gt;Node3</title>
<path fill="none" stroke="midnightblue" d="M149.12,-32.56C164.2,-30.53 180.13,-28.37 195.42,-26.31"/>
<polygon fill="midnightblue" stroke="midnightblue" points="195.92,-29.78 205.36,-24.97 194.98,-22.84 195.92,-29.78"/>
</g>
</g>
</svg>
