<?xml version="1.0" encoding="UTF-8" standalone="no"?>
<!DOCTYPE svg PUBLIC "-//W3C//DTD SVG 1.1//EN"
 "http://www.w3.org/Graphics/SVG/1.1/DTD/svg11.dtd">
<!-- Generated by graphviz version 2.43.0 (0)
 -->
<!-- Title: PerceptualColor::ChromaHueDiagram::colorChanged Pages: 1 -->
<svg width="1394pt" height="439pt"
 viewBox="0.00 0.00 1394.00 438.85" xmlns="http://www.w3.org/2000/svg" xmlns:xlink="http://www.w3.org/1999/xlink">
<g id="graph0" class="graph" transform="scale(1 1) rotate(0) translate(4 434.85)">
<title>PerceptualColor::ChromaHueDiagram::colorChanged</title>
<polygon fill="white" stroke="transparent" points="-4,4 -4,-434.85 1390,-434.85 1390,4 -4,4"/>
<!-- Node1 -->
<g id="node1" class="node">
<title>Node1</title>
<g id="a_node1"><a xlink:title="Notify signal for property color().">
<polygon fill="#bfbfbf" stroke="black" points="1228,-267.5 1228,-297.5 1386,-297.5 1386,-267.5 1228,-267.5"/>
<text text-anchor="start" x="1236" y="-285.5" font-family="Helvetica,sans-Serif" font-size="10.00">PerceptualColor::ChromaHue</text>
<text text-anchor="middle" x="1307" y="-274.5" font-family="Helvetica,sans-Serif" font-size="10.00">Diagram::colorChanged</text>
</a>
</g>
</g>
<!-- Node2 -->
<g id="node2" class="node">
<title>Node2</title>
<g id="a_node2"><a xlink:href="class_perceptual_color_1_1_color_dialog.html#ad31fb985e1323cdf1208c91f16fe2a51" target="_top" xlink:title="Basic initialization.">
<polygon fill="white" stroke="black" points="193,-245.5 193,-275.5 350,-275.5 350,-245.5 193,-245.5"/>
<text text-anchor="start" x="201" y="-263.5" font-family="Helvetica,sans-Serif" font-size="10.00">PerceptualColor::ColorDialog</text>
<text text-anchor="middle" x="271.5" y="-252.5" font-family="Helvetica,sans-Serif" font-size="10.00">::initialize</text>
</a>
</g>
</g>
<!-- Node1&#45;&gt;Node2 -->
<g id="edge1" class="edge">
<title>Node1&#45;&gt;Node2</title>
<path fill="none" stroke="midnightblue" d="M1273.06,-302.82C1204.42,-343.16 1039.94,-429.5 889.5,-429.5 889.5,-429.5 889.5,-429.5 660,-429.5 536.52,-429.5 494.61,-442.26 386,-383.5 337.44,-357.23 298.44,-302.2 281.56,-275.57"/>
<polygon fill="midnightblue" stroke="midnightblue" points="1274.9,-305.8 1281.71,-297.68 1271.33,-299.78 1274.9,-305.8"/>
</g>
<!-- Node4 -->
<g id="node4" class="node">
<title>Node4</title>
<g id="a_node4"><a xlink:href="class_perceptual_color_1_1_chroma_hue_diagram.html#a443db20bc2c25119febcd61ca9299d21" target="_top" xlink:title="Setter for the color() property.">
<polygon fill="white" stroke="black" points="1034,-158.5 1034,-188.5 1192,-188.5 1192,-158.5 1034,-158.5"/>
<text text-anchor="start" x="1042" y="-176.5" font-family="Helvetica,sans-Serif" font-size="10.00">PerceptualColor::ChromaHue</text>
<text text-anchor="middle" x="1113" y="-165.5" font-family="Helvetica,sans-Serif" font-size="10.00">Diagram::setColor</text>
</a>
</g>
</g>
<!-- Node1&#45;&gt;Node4 -->
<g id="edge3" class="edge">
<title>Node1&#45;&gt;Node4</title>
<path fill="none" stroke="midnightblue" d="M1270.2,-262.18C1232.55,-240.8 1174.18,-207.66 1140.47,-188.53"/>
<polygon fill="midnightblue" stroke="midnightblue" points="1268.88,-265.45 1279.3,-267.34 1272.33,-259.36 1268.88,-265.45"/>
</g>
<!-- Node3 -->
<g id="node3" class="node">
<title>Node3</title>
<g id="a_node3"><a xlink:href="class_perceptual_color_1_1_color_dialog.html#a3c1ad1040ede00087aa11fab1514a6e7" target="_top" xlink:title="Constructor.">
<polygon fill="white" stroke="black" points="0,-149.5 0,-179.5 157,-179.5 157,-149.5 0,-149.5"/>
<text text-anchor="start" x="8" y="-167.5" font-family="Helvetica,sans-Serif" font-size="10.00">PerceptualColor::ColorDialog</text>
<text text-anchor="middle" x="78.5" y="-156.5" font-family="Helvetica,sans-Serif" font-size="10.00">::ColorDialog</text>
</a>
</g>
</g>
<!-- Node2&#45;&gt;Node3 -->
<g id="edge2" class="edge">
<title>Node2&#45;&gt;Node3</title>
<path fill="none" stroke="midnightblue" d="M230.99,-240.64C194.93,-222.51 142.4,-196.11 109.62,-179.64"/>
<polygon fill="midnightblue" stroke="midnightblue" points="229.73,-243.92 240.24,-245.29 232.87,-237.67 229.73,-243.92"/>
</g>
<!-- Node5 -->
<g id="node5" class="node">
<title>Node5</title>
<g id="a_node5"><a xlink:href="class_perceptual_color_1_1_chroma_hue_diagram.html#a896cd3a826210cf78a39e3cbbdbc34f8" target="_top" xlink:title="React on key press events.">
<polygon fill="white" stroke="black" points="809.5,-158.5 809.5,-188.5 967.5,-188.5 967.5,-158.5 809.5,-158.5"/>
<text text-anchor="start" x="817.5" y="-176.5" font-family="Helvetica,sans-Serif" font-size="10.00">PerceptualColor::ChromaHue</text>
<text text-anchor="middle" x="888.5" y="-165.5" font-family="Helvetica,sans-Serif" font-size="10.00">Diagram::keyPressEvent</text>
</a>
</g>
</g>
<!-- Node4&#45;&gt;Node5 -->
<g id="edge4" class="edge">
<title>Node4&#45;&gt;Node5</title>
<path fill="none" stroke="midnightblue" d="M1023.71,-173.5C1005.25,-173.5 985.9,-173.5 967.82,-173.5"/>
<polygon fill="midnightblue" stroke="midnightblue" points="1023.87,-177 1033.87,-173.5 1023.87,-170 1023.87,-177"/>
</g>
<!-- Node6 -->
<g id="node6" class="node">
<title>Node6</title>
<g id="a_node6"><a xlink:href="class_perceptual_color_1_1_chroma_hue_diagram.html#a65ff87dfbc2ffa5d71b5e58c30d3b39c" target="_top" xlink:title="Sets the color property corresponding to given widget coordinates.">
<polygon fill="white" stroke="black" points="779,-98.5 779,-128.5 998,-128.5 998,-98.5 779,-98.5"/>
<text text-anchor="start" x="787" y="-116.5" font-family="Helvetica,sans-Serif" font-size="10.00">PerceptualColor::ChromaHue</text>
<text text-anchor="middle" x="888.5" y="-105.5" font-family="Helvetica,sans-Serif" font-size="10.00">Diagram::setColorFromImageCoordinates</text>
</a>
</g>
</g>
<!-- Node4&#45;&gt;Node6 -->
<g id="edge5" class="edge">
<title>Node4&#45;&gt;Node6</title>
<path fill="none" stroke="midnightblue" d="M1046.39,-155.81C1014.3,-147.15 976.07,-136.84 945.38,-128.57"/>
<polygon fill="midnightblue" stroke="midnightblue" points="1045.57,-159.21 1056.14,-158.44 1047.4,-152.45 1045.57,-159.21"/>
</g>
<!-- Node10 -->
<g id="node10" class="node">
<title>Node10</title>
<g id="a_node10"><a xlink:href="class_perceptual_color_1_1_color_dialog.html#abd0da334b7034a67a3cc83bc3ed0a425" target="_top" xlink:title="Updates m_currentOpaqueColor and all affected widgets.">
<polygon fill="white" stroke="black" points="810,-219.5 810,-249.5 967,-249.5 967,-219.5 810,-219.5"/>
<text text-anchor="start" x="818" y="-237.5" font-family="Helvetica,sans-Serif" font-size="10.00">PerceptualColor::ColorDialog</text>
<text text-anchor="middle" x="888.5" y="-226.5" font-family="Helvetica,sans-Serif" font-size="10.00">::setCurrentOpaqueColor</text>
</a>
</g>
</g>
<!-- Node4&#45;&gt;Node10 -->
<g id="edge9" class="edge">
<title>Node4&#45;&gt;Node10</title>
<path fill="none" stroke="midnightblue" d="M1047.38,-191.22C1014.74,-200.17 975.55,-210.91 944.39,-219.45"/>
<polygon fill="midnightblue" stroke="midnightblue" points="1048.57,-194.52 1057.29,-188.5 1046.72,-187.77 1048.57,-194.52"/>
</g>
<!-- Node20 -->
<g id="node20" class="node">
<title>Node20</title>
<g id="a_node20"><a xlink:href="class_perceptual_color_1_1_chroma_hue_diagram.html#a2b14fea4dd40197c7d37c88fb8be63e7" target="_top" xlink:title=" ">
<polygon fill="white" stroke="black" points="809.5,-49.5 809.5,-79.5 967.5,-79.5 967.5,-49.5 809.5,-49.5"/>
<text text-anchor="start" x="817.5" y="-67.5" font-family="Helvetica,sans-Serif" font-size="10.00">PerceptualColor::ChromaHue</text>
<text text-anchor="middle" x="888.5" y="-56.5" font-family="Helvetica,sans-Serif" font-size="10.00">Diagram::wheelEvent</text>
</a>
</g>
</g>
<!-- Node4&#45;&gt;Node20 -->
<g id="edge27" class="edge">
<title>Node4&#45;&gt;Node20</title>
<path fill="none" stroke="midnightblue" d="M1088.26,-151.43C1066.4,-132.28 1032.27,-105.25 998,-89.5 988.43,-85.1 978.01,-81.44 967.55,-78.41"/>
<polygon fill="midnightblue" stroke="midnightblue" points="1086.21,-154.29 1096.01,-158.34 1090.87,-149.07 1086.21,-154.29"/>
</g>
<!-- Node7 -->
<g id="node7" class="node">
<title>Node7</title>
<g id="a_node7"><a xlink:href="class_perceptual_color_1_1_chroma_hue_diagram.html#a16bcb9d0eee3536fe4f1034d2b9c3329" target="_top" xlink:title="React on a mouse move event.">
<polygon fill="white" stroke="black" points="582,-98.5 582,-128.5 740,-128.5 740,-98.5 582,-98.5"/>
<text text-anchor="start" x="590" y="-116.5" font-family="Helvetica,sans-Serif" font-size="10.00">PerceptualColor::ChromaHue</text>
<text text-anchor="middle" x="661" y="-105.5" font-family="Helvetica,sans-Serif" font-size="10.00">Diagram::mouseMoveEvent</text>
</a>
</g>
</g>
<!-- Node6&#45;&gt;Node7 -->
<g id="edge6" class="edge">
<title>Node6&#45;&gt;Node7</title>
<path fill="none" stroke="midnightblue" d="M768.61,-113.5C758.92,-113.5 749.29,-113.5 740.01,-113.5"/>
<polygon fill="midnightblue" stroke="midnightblue" points="768.71,-117 778.71,-113.5 768.71,-110 768.71,-117"/>
</g>
<!-- Node8 -->
<g id="node8" class="node">
<title>Node8</title>
<g id="a_node8"><a xlink:href="class_perceptual_color_1_1_chroma_hue_diagram.html#ad8957ee9c3a3ecb73841c00110ee3058" target="_top" xlink:title="React on a mouse press event.">
<polygon fill="white" stroke="black" points="582,-49.5 582,-79.5 740,-79.5 740,-49.5 582,-49.5"/>
<text text-anchor="start" x="590" y="-67.5" font-family="Helvetica,sans-Serif" font-size="10.00">PerceptualColor::ChromaHue</text>
<text text-anchor="middle" x="661" y="-56.5" font-family="Helvetica,sans-Serif" font-size="10.00">Diagram::mousePressEvent</text>
</a>
</g>
</g>
<!-- Node6&#45;&gt;Node8 -->
<g id="edge7" class="edge">
<title>Node6&#45;&gt;Node8</title>
<path fill="none" stroke="midnightblue" d="M808.41,-96.31C783.2,-90.84 755.51,-84.82 731.06,-79.51"/>
<polygon fill="midnightblue" stroke="midnightblue" points="807.79,-99.76 818.31,-98.47 809.28,-92.92 807.79,-99.76"/>
</g>
<!-- Node9 -->
<g id="node9" class="node">
<title>Node9</title>
<g id="a_node9"><a xlink:href="class_perceptual_color_1_1_chroma_hue_diagram.html#adfe93a3ac0005a23c03465635089d846" target="_top" xlink:title="React on a mouse release event.">
<polygon fill="white" stroke="black" points="579,-0.5 579,-30.5 743,-30.5 743,-0.5 579,-0.5"/>
<text text-anchor="start" x="587" y="-18.5" font-family="Helvetica,sans-Serif" font-size="10.00">PerceptualColor::ChromaHue</text>
<text text-anchor="middle" x="661" y="-7.5" font-family="Helvetica,sans-Serif" font-size="10.00">Diagram::mouseReleaseEvent</text>
</a>
</g>
</g>
<!-- Node6&#45;&gt;Node9 -->
<g id="edge8" class="edge">
<title>Node6&#45;&gt;Node9</title>
<path fill="none" stroke="midnightblue" d="M786.64,-94C784.02,-92.6 781.46,-91.1 779,-89.5 756.36,-74.75 765.02,-56.16 743,-40.5 737.6,-36.66 731.6,-33.4 725.37,-30.63"/>
<polygon fill="midnightblue" stroke="midnightblue" points="785.28,-97.23 795.81,-98.39 788.3,-90.92 785.28,-97.23"/>
</g>
<!-- Node10&#45;&gt;Node2 -->
<g id="edge10" class="edge">
<title>Node10&#45;&gt;Node2</title>
<path fill="none" stroke="midnightblue" d="M864.04,-256.52C837.12,-280.31 790.53,-317.15 743,-334.5 593.74,-388.99 535.62,-406.97 386,-353.5 342.58,-337.98 303.82,-297.92 284.84,-275.77"/>
<polygon fill="midnightblue" stroke="midnightblue" points="866.65,-258.88 871.74,-249.59 861.97,-253.67 866.65,-258.88"/>
</g>
<!-- Node11 -->
<g id="node11" class="node">
<title>Node11</title>
<g id="a_node11"><a xlink:href="class_perceptual_color_1_1_color_dialog.html#adf67594f0cb9416b245d6cf726f18bf4" target="_top" xlink:title="Reads the HLC numbers in the dialog and updates the dialog accordingly.">
<polygon fill="white" stroke="black" points="582.5,-294.5 582.5,-324.5 739.5,-324.5 739.5,-294.5 582.5,-294.5"/>
<text text-anchor="start" x="590.5" y="-312.5" font-family="Helvetica,sans-Serif" font-size="10.00">PerceptualColor::ColorDialog</text>
<text text-anchor="middle" x="661" y="-301.5" font-family="Helvetica,sans-Serif" font-size="10.00">::readHlcNumericValues</text>
</a>
</g>
</g>
<!-- Node10&#45;&gt;Node11 -->
<g id="edge11" class="edge">
<title>Node10&#45;&gt;Node11</title>
<path fill="none" stroke="midnightblue" d="M832.65,-252.74C794.2,-265.53 743.43,-282.42 707.29,-294.44"/>
<polygon fill="midnightblue" stroke="midnightblue" points="833.75,-256.06 842.14,-249.59 831.54,-249.42 833.75,-256.06"/>
</g>
<!-- Node13 -->
<g id="node13" class="node">
<title>Node13</title>
<g id="a_node13"><a xlink:href="class_perceptual_color_1_1_color_dialog.html#a2a48f4c33652bc9a1a0cb22fd0a6b221" target="_top" xlink:title="Reads the value from the lightness selector in the dialog and updates the dialog accordingly.">
<polygon fill="white" stroke="black" points="386,-245.5 386,-275.5 543,-275.5 543,-245.5 386,-245.5"/>
<text text-anchor="start" x="394" y="-263.5" font-family="Helvetica,sans-Serif" font-size="10.00">PerceptualColor::ColorDialog</text>
<text text-anchor="middle" x="464.5" y="-252.5" font-family="Helvetica,sans-Serif" font-size="10.00">::readLightnessValue</text>
</a>
</g>
</g>
<!-- Node10&#45;&gt;Node13 -->
<g id="edge15" class="edge">
<title>Node10&#45;&gt;Node13</title>
<path fill="none" stroke="midnightblue" d="M799.62,-239.91C723.97,-244.58 615.86,-251.24 543.3,-255.71"/>
<polygon fill="midnightblue" stroke="midnightblue" points="799.84,-243.41 809.61,-239.3 799.41,-236.42 799.84,-243.41"/>
</g>
<!-- Node14 -->
<g id="node14" class="node">
<title>Node14</title>
<g id="a_node14"><a xlink:href="class_perceptual_color_1_1_color_dialog.html#a64b6c698ebfaf2461c513ebbb7ef2637" target="_top" xlink:title="Setter for currentColor property.">
<polygon fill="white" stroke="black" points="582.5,-147.5 582.5,-177.5 739.5,-177.5 739.5,-147.5 582.5,-147.5"/>
<text text-anchor="start" x="590.5" y="-165.5" font-family="Helvetica,sans-Serif" font-size="10.00">PerceptualColor::ColorDialog</text>
<text text-anchor="middle" x="661" y="-154.5" font-family="Helvetica,sans-Serif" font-size="10.00">::setCurrentColor</text>
</a>
</g>
</g>
<!-- Node10&#45;&gt;Node14 -->
<g id="edge17" class="edge">
<title>Node10&#45;&gt;Node14</title>
<path fill="none" stroke="midnightblue" d="M832.06,-216.25C805.2,-207.46 772.45,-196.83 743,-187.5 732.76,-184.25 721.77,-180.83 711.3,-177.58"/>
<polygon fill="midnightblue" stroke="midnightblue" points="831.08,-219.61 841.68,-219.4 833.26,-212.96 831.08,-219.61"/>
</g>
<!-- Node16 -->
<g id="node16" class="node">
<title>Node16</title>
<g id="a_node16"><a xlink:href="class_perceptual_color_1_1_color_dialog.html#acf0e7b1b619cee3fc7f5a992e2c93e7d" target="_top" xlink:title="Convenience version of setCurrentOpaqueColor(), accepting QColor.">
<polygon fill="white" stroke="black" points="582.5,-196.5 582.5,-226.5 739.5,-226.5 739.5,-196.5 582.5,-196.5"/>
<text text-anchor="start" x="590.5" y="-214.5" font-family="Helvetica,sans-Serif" font-size="10.00">PerceptualColor::ColorDialog</text>
<text text-anchor="middle" x="661" y="-203.5" font-family="Helvetica,sans-Serif" font-size="10.00">::setCurrentOpaqueQColor</text>
</a>
</g>
</g>
<!-- Node10&#45;&gt;Node16 -->
<g id="edge20" class="edge">
<title>Node10&#45;&gt;Node16</title>
<path fill="none" stroke="midnightblue" d="M799.94,-225.57C780.1,-223.55 759.15,-221.41 739.75,-219.43"/>
<polygon fill="midnightblue" stroke="midnightblue" points="799.59,-229.05 809.9,-226.58 800.3,-222.09 799.59,-229.05"/>
</g>
<!-- Node11&#45;&gt;Node2 -->
<g id="edge14" class="edge">
<title>Node11&#45;&gt;Node2</title>
<path fill="none" stroke="midnightblue" d="M602.1,-327.13C545.78,-341.44 458.35,-356 386,-334.5 347.44,-323.04 309.75,-293.87 288.98,-275.77"/>
<polygon fill="midnightblue" stroke="midnightblue" points="603.11,-330.49 611.9,-324.57 601.34,-323.72 603.11,-330.49"/>
</g>
<!-- Node12 -->
<g id="node12" class="node">
<title>Node12</title>
<g id="a_node12"><a xlink:href="class_perceptual_color_1_1_color_dialog.html#a64f6d0e30a627458ccb7bbf4a77ad42b" target="_top" xlink:title="React on focus changes.">
<polygon fill="white" stroke="black" points="386,-294.5 386,-324.5 543,-324.5 543,-294.5 386,-294.5"/>
<text text-anchor="start" x="394" y="-312.5" font-family="Helvetica,sans-Serif" font-size="10.00">PerceptualColor::ColorDialog</text>
<text text-anchor="middle" x="464.5" y="-301.5" font-family="Helvetica,sans-Serif" font-size="10.00">::handleFocusChange</text>
</a>
</g>
</g>
<!-- Node11&#45;&gt;Node12 -->
<g id="edge12" class="edge">
<title>Node11&#45;&gt;Node12</title>
<path fill="none" stroke="midnightblue" d="M572.23,-309.5C562.51,-309.5 552.67,-309.5 543.09,-309.5"/>
<polygon fill="midnightblue" stroke="midnightblue" points="572.29,-313 582.29,-309.5 572.29,-306 572.29,-313"/>
</g>
<!-- Node12&#45;&gt;Node2 -->
<g id="edge13" class="edge">
<title>Node12&#45;&gt;Node2</title>
<path fill="none" stroke="midnightblue" d="M395.09,-291.95C374.12,-286.57 351.24,-280.7 330.99,-275.51"/>
<polygon fill="midnightblue" stroke="midnightblue" points="394.34,-295.37 404.9,-294.47 396.08,-288.59 394.34,-295.37"/>
</g>
<!-- Node13&#45;&gt;Node2 -->
<g id="edge16" class="edge">
<title>Node13&#45;&gt;Node2</title>
<path fill="none" stroke="midnightblue" d="M375.81,-260.5C367.24,-260.5 358.58,-260.5 350.12,-260.5"/>
<polygon fill="midnightblue" stroke="midnightblue" points="375.81,-264 385.81,-260.5 375.81,-257 375.81,-264"/>
</g>
<!-- Node14&#45;&gt;Node3 -->
<g id="edge18" class="edge">
<title>Node14&#45;&gt;Node3</title>
<path fill="none" stroke="midnightblue" d="M585.72,-142.76C583.4,-141.43 581.15,-140.01 579,-138.5 556.89,-122.96 567.11,-101.7 543,-89.5 391.91,-13.02 180.8,-110.06 106.59,-149.36"/>
<polygon fill="midnightblue" stroke="midnightblue" points="584.48,-146.06 594.98,-147.47 587.65,-139.82 584.48,-146.06"/>
</g>
<!-- Node15 -->
<g id="node15" class="node">
<title>Node15</title>
<g id="a_node15"><a xlink:href="class_perceptual_color_1_1_color_dialog.html#a08677555088721a366cc839a90b5eea2" target="_top" xlink:title="Pops up a modal color dialog, lets the user choose a color, and returns that color.">
<polygon fill="white" stroke="black" points="386,-10.5 386,-40.5 543,-40.5 543,-10.5 386,-10.5"/>
<text text-anchor="start" x="394" y="-28.5" font-family="Helvetica,sans-Serif" font-size="10.00">PerceptualColor::ColorDialog</text>
<text text-anchor="middle" x="464.5" y="-17.5" font-family="Helvetica,sans-Serif" font-size="10.00">::getColor</text>
</a>
</g>
</g>
<!-- Node14&#45;&gt;Node15 -->
<g id="edge19" class="edge">
<title>Node14&#45;&gt;Node15</title>
<path fill="none" stroke="midnightblue" d="M583.12,-141.84C581.7,-140.78 580.32,-139.67 579,-138.5 548.9,-111.84 571.99,-83.36 543,-55.5 536.65,-49.4 528.93,-44.51 520.85,-40.59"/>
<polygon fill="midnightblue" stroke="midnightblue" points="581.41,-144.9 591.72,-147.33 585.17,-139 581.41,-144.9"/>
</g>
<!-- Node17 -->
<g id="node17" class="node">
<title>Node17</title>
<g id="a_node17"><a xlink:href="class_perceptual_color_1_1_color_dialog.html#ad834c4b1975dd4b226a054497bd1ef47" target="_top" xlink:title="Reads the HSV numbers in the dialog and updates the dialog accordingly.">
<polygon fill="white" stroke="black" points="386,-196.5 386,-226.5 543,-226.5 543,-196.5 386,-196.5"/>
<text text-anchor="start" x="394" y="-214.5" font-family="Helvetica,sans-Serif" font-size="10.00">PerceptualColor::ColorDialog</text>
<text text-anchor="middle" x="464.5" y="-203.5" font-family="Helvetica,sans-Serif" font-size="10.00">::readHsvNumericValues</text>
</a>
</g>
</g>
<!-- Node16&#45;&gt;Node17 -->
<g id="edge21" class="edge">
<title>Node16&#45;&gt;Node17</title>
<path fill="none" stroke="midnightblue" d="M572.23,-211.5C562.51,-211.5 552.67,-211.5 543.09,-211.5"/>
<polygon fill="midnightblue" stroke="midnightblue" points="572.29,-215 582.29,-211.5 572.29,-208 572.29,-215"/>
</g>
<!-- Node18 -->
<g id="node18" class="node">
<title>Node18</title>
<g id="a_node18"><a xlink:href="class_perceptual_color_1_1_color_dialog.html#a4554999f424ac055986478fe8c899ae1" target="_top" xlink:title="Reads the hexadecimal RGB numbers in the dialog and updates the dialog accordingly.">
<polygon fill="white" stroke="black" points="386,-147.5 386,-177.5 543,-177.5 543,-147.5 386,-147.5"/>
<text text-anchor="start" x="394" y="-165.5" font-family="Helvetica,sans-Serif" font-size="10.00">PerceptualColor::ColorDialog</text>
<text text-anchor="middle" x="464.5" y="-154.5" font-family="Helvetica,sans-Serif" font-size="10.00">::readRgbHexValues</text>
</a>
</g>
</g>
<!-- Node16&#45;&gt;Node18 -->
<g id="edge23" class="edge">
<title>Node16&#45;&gt;Node18</title>
<path fill="none" stroke="midnightblue" d="M590.34,-193.95C568.98,-188.57 545.69,-182.7 525.07,-177.51"/>
<polygon fill="midnightblue" stroke="midnightblue" points="589.77,-197.42 600.32,-196.47 591.48,-190.63 589.77,-197.42"/>
</g>
<!-- Node19 -->
<g id="node19" class="node">
<title>Node19</title>
<g id="a_node19"><a xlink:href="class_perceptual_color_1_1_color_dialog.html#a9bb8f87d25714fc283fdda98424030fe" target="_top" xlink:title="Reads the decimal RGB numbers in the dialog and updates the dialog accordingly.">
<polygon fill="white" stroke="black" points="386,-98.5 386,-128.5 543,-128.5 543,-98.5 386,-98.5"/>
<text text-anchor="start" x="394" y="-116.5" font-family="Helvetica,sans-Serif" font-size="10.00">PerceptualColor::ColorDialog</text>
<text text-anchor="middle" x="464.5" y="-105.5" font-family="Helvetica,sans-Serif" font-size="10.00">::readRgbNumericValues</text>
</a>
</g>
</g>
<!-- Node16&#45;&gt;Node19 -->
<g id="edge25" class="edge">
<title>Node16&#45;&gt;Node19</title>
<path fill="none" stroke="midnightblue" d="M585.72,-191.76C583.4,-190.43 581.15,-189.01 579,-187.5 556.89,-171.96 564.92,-154.3 543,-138.5 537.61,-134.61 531.59,-131.31 525.34,-128.51"/>
<polygon fill="midnightblue" stroke="midnightblue" points="584.48,-195.06 594.98,-196.47 587.65,-188.82 584.48,-195.06"/>
</g>
<!-- Node17&#45;&gt;Node2 -->
<g id="edge22" class="edge">
<title>Node17&#45;&gt;Node2</title>
<path fill="none" stroke="midnightblue" d="M395.09,-229.05C374.12,-234.43 351.24,-240.3 330.99,-245.49"/>
<polygon fill="midnightblue" stroke="midnightblue" points="396.08,-232.41 404.9,-226.53 394.34,-225.63 396.08,-232.41"/>
</g>
<!-- Node18&#45;&gt;Node2 -->
<g id="edge24" class="edge">
<title>Node18&#45;&gt;Node2</title>
<path fill="none" stroke="midnightblue" d="M400.59,-181.24C395.59,-183.2 390.67,-185.29 386,-187.5 351.27,-203.93 314.45,-229.27 292.48,-245.36"/>
<polygon fill="midnightblue" stroke="midnightblue" points="402.11,-184.41 410.26,-177.65 399.67,-177.85 402.11,-184.41"/>
</g>
<!-- Node19&#45;&gt;Node2 -->
<g id="edge26" class="edge">
<title>Node19&#45;&gt;Node2</title>
<path fill="none" stroke="midnightblue" d="M395.96,-132.89C392.51,-134.62 389.17,-136.48 386,-138.5 340.12,-167.7 300.41,-219.81 282.56,-245.43"/>
<polygon fill="midnightblue" stroke="midnightblue" points="397.65,-135.97 405.3,-128.64 394.75,-129.6 397.65,-135.97"/>
</g>
</g>
</svg>
