<?xml version="1.0" encoding="UTF-8" standalone="no"?>
<!DOCTYPE svg PUBLIC "-//W3C//DTD SVG 1.1//EN"
 "http://www.w3.org/Graphics/SVG/1.1/DTD/svg11.dtd">
<!-- Generated by graphviz version 2.43.0 (0)
 -->
<!-- Title: PerceptualColor::ColorDialog::handleFocusChange Pages: 1 -->
<svg width="1345pt" height="559pt"
 viewBox="0.00 0.00 1345.00 559.10" xmlns="http://www.w3.org/2000/svg" xmlns:xlink="http://www.w3.org/1999/xlink">
<g id="graph0" class="graph" transform="scale(1 1) rotate(0) translate(4 555.1)">
<title>PerceptualColor::ColorDialog::handleFocusChange</title>
<polygon fill="white" stroke="transparent" points="-4,4 -4,-555.1 1341,-555.1 1341,4 -4,4"/>
<!-- Node1 -->
<g id="node1" class="node">
<title>Node1</title>
<g id="a_node1"><a xlink:title="React on focus changes.">
<polygon fill="#bfbfbf" stroke="black" points="0,-442.5 0,-472.5 157,-472.5 157,-442.5 0,-442.5"/>
<text text-anchor="start" x="8" y="-460.5" font-family="Helvetica,sans-Serif" font-size="10.00">PerceptualColor::ColorDialog</text>
<text text-anchor="middle" x="78.5" y="-449.5" font-family="Helvetica,sans-Serif" font-size="10.00">::handleFocusChange</text>
</a>
</g>
</g>
<!-- Node2 -->
<g id="node2" class="node">
<title>Node2</title>
<g id="a_node2"><a xlink:href="class_perceptual_color_1_1_color_dialog.html#adf67594f0cb9416b245d6cf726f18bf4" target="_top" xlink:title="Reads the HLC numbers in the dialog and updates the dialog accordingly.">
<polygon fill="white" stroke="black" points="193,-420.5 193,-450.5 350,-450.5 350,-420.5 193,-420.5"/>
<text text-anchor="start" x="201" y="-438.5" font-family="Helvetica,sans-Serif" font-size="10.00">PerceptualColor::ColorDialog</text>
<text text-anchor="middle" x="271.5" y="-427.5" font-family="Helvetica,sans-Serif" font-size="10.00">::readHlcNumericValues</text>
</a>
</g>
</g>
<!-- Node1&#45;&gt;Node2 -->
<g id="edge1" class="edge">
<title>Node1&#45;&gt;Node2</title>
<path fill="none" stroke="midnightblue" d="M157.19,-448.55C165.65,-447.58 174.31,-446.58 182.88,-445.59"/>
<polygon fill="midnightblue" stroke="midnightblue" points="183.35,-449.06 192.88,-444.44 182.55,-442.11 183.35,-449.06"/>
</g>
<!-- Node15 -->
<g id="node15" class="node">
<title>Node15</title>
<g id="a_node15"><a xlink:href="class_perceptual_color_1_1_color_dialog.html#a38134a3e22f2b3df4602a08025ec1d52" target="_top" xlink:title="Get text for m_hlcLineEdit based on m_currentOpaqueColor.">
<polygon fill="white" stroke="black" points="584,-464.5 584,-494.5 741,-494.5 741,-464.5 584,-464.5"/>
<text text-anchor="start" x="592" y="-482.5" font-family="Helvetica,sans-Serif" font-size="10.00">PerceptualColor::ColorDialog</text>
<text text-anchor="middle" x="662.5" y="-471.5" font-family="Helvetica,sans-Serif" font-size="10.00">::textForHlcLineEdit</text>
</a>
</g>
</g>
<!-- Node1&#45;&gt;Node15 -->
<g id="edge27" class="edge">
<title>Node1&#45;&gt;Node15</title>
<path fill="none" stroke="midnightblue" d="M157.09,-460.43C265.23,-464.52 460.73,-471.91 573.96,-476.19"/>
<polygon fill="midnightblue" stroke="midnightblue" points="573.86,-479.69 583.98,-476.57 574.12,-472.69 573.86,-479.69"/>
</g>
<!-- Node3 -->
<g id="node3" class="node">
<title>Node3</title>
<g id="a_node3"><a xlink:href="class_perceptual_color_1_1_color_dialog.html#abd0da334b7034a67a3cc83bc3ed0a425" target="_top" xlink:title="Updates m_currentOpaqueColor and all affected widgets.">
<polygon fill="white" stroke="black" points="386,-251.5 386,-281.5 543,-281.5 543,-251.5 386,-251.5"/>
<text text-anchor="start" x="394" y="-269.5" font-family="Helvetica,sans-Serif" font-size="10.00">PerceptualColor::ColorDialog</text>
<text text-anchor="middle" x="464.5" y="-258.5" font-family="Helvetica,sans-Serif" font-size="10.00">::setCurrentOpaqueColor</text>
</a>
</g>
</g>
<!-- Node2&#45;&gt;Node3 -->
<g id="edge2" class="edge">
<title>Node2&#45;&gt;Node3</title>
<path fill="none" stroke="midnightblue" d="M289.79,-420.2C323.74,-390.17 399.23,-323.37 438.57,-288.56"/>
<polygon fill="midnightblue" stroke="midnightblue" points="441.22,-290.89 446.39,-281.64 436.58,-285.64 441.22,-290.89"/>
</g>
<!-- Node2&#45;&gt;Node15 -->
<g id="edge26" class="edge">
<title>Node2&#45;&gt;Node15</title>
<path fill="none" stroke="midnightblue" d="M350.06,-443.95C404.14,-449.88 477.98,-458.05 543,-465.5 552.88,-466.63 563.22,-467.83 573.5,-469.03"/>
<polygon fill="midnightblue" stroke="midnightblue" points="573.4,-472.55 583.74,-470.23 574.22,-465.59 573.4,-472.55"/>
</g>
<!-- Node4 -->
<g id="node4" class="node">
<title>Node4</title>
<g id="a_node4"><a xlink:href="class_perceptual_color_1_1_full_color_description.html#a45a4e34ce415f9fc71f3fe4847c89068" target="_top" xlink:title=" ">
<polygon fill="white" stroke="black" points="591,-366.5 591,-396.5 734,-396.5 734,-366.5 591,-366.5"/>
<text text-anchor="start" x="599" y="-384.5" font-family="Helvetica,sans-Serif" font-size="10.00">PerceptualColor::FullColor</text>
<text text-anchor="middle" x="662.5" y="-373.5" font-family="Helvetica,sans-Serif" font-size="10.00">Description::isValid</text>
</a>
</g>
</g>
<!-- Node3&#45;&gt;Node4 -->
<g id="edge3" class="edge">
<title>Node3&#45;&gt;Node4</title>
<path fill="none" stroke="midnightblue" d="M480.27,-281.6C500.7,-301.67 539.56,-336.99 579,-357.5 582.55,-359.34 586.25,-361.06 590.05,-362.67"/>
<polygon fill="midnightblue" stroke="midnightblue" points="589.04,-366.03 599.63,-366.41 591.59,-359.51 589.04,-366.03"/>
</g>
<!-- Node5 -->
<g id="node5" class="node">
<title>Node5</title>
<g id="a_node5"><a xlink:href="class_perceptual_color_1_1_alpha_selector.html#ac9faa6bbf68757f843e4cce92d697067" target="_top" xlink:title=" ">
<polygon fill="white" stroke="black" points="579,-317.5 579,-347.5 746,-347.5 746,-317.5 579,-317.5"/>
<text text-anchor="start" x="587" y="-335.5" font-family="Helvetica,sans-Serif" font-size="10.00">PerceptualColor::AlphaSelector</text>
<text text-anchor="middle" x="662.5" y="-324.5" font-family="Helvetica,sans-Serif" font-size="10.00">::setColor</text>
</a>
</g>
</g>
<!-- Node3&#45;&gt;Node5 -->
<g id="edge4" class="edge">
<title>Node3&#45;&gt;Node5</title>
<path fill="none" stroke="midnightblue" d="M510.47,-281.64C539.23,-291.33 576.7,-303.95 607.13,-314.19"/>
<polygon fill="midnightblue" stroke="midnightblue" points="606.15,-317.55 616.74,-317.43 608.38,-310.92 606.15,-317.55"/>
</g>
<!-- Node7 -->
<g id="node7" class="node">
<title>Node7</title>
<g id="a_node7"><a xlink:href="class_perceptual_color_1_1_full_color_description.html#acdbff4639f8a118f0d13a831a4b57ffe" target="_top" xlink:title=" ">
<polygon fill="white" stroke="black" points="1006,-380.5 1006,-410.5 1149,-410.5 1149,-380.5 1006,-380.5"/>
<text text-anchor="start" x="1014" y="-398.5" font-family="Helvetica,sans-Serif" font-size="10.00">PerceptualColor::FullColor</text>
<text text-anchor="middle" x="1077.5" y="-387.5" font-family="Helvetica,sans-Serif" font-size="10.00">Description::toLch</text>
</a>
</g>
</g>
<!-- Node3&#45;&gt;Node7 -->
<g id="edge20" class="edge">
<title>Node3&#45;&gt;Node7</title>
<path fill="none" stroke="midnightblue" d="M543.21,-270.53C674.24,-277.68 928.67,-293.3 967,-308.5 1002.42,-322.55 1035.57,-352.07 1055.92,-372.81"/>
<polygon fill="midnightblue" stroke="midnightblue" points="1053.62,-375.48 1063.07,-380.28 1058.68,-370.64 1053.62,-375.48"/>
</g>
<!-- Node8 -->
<g id="node8" class="node">
<title>Node8</title>
<g id="a_node8"><a xlink:href="class_perceptual_color_1_1_chroma_hue_diagram.html#a443db20bc2c25119febcd61ca9299d21" target="_top" xlink:title="Setter for the color() property.">
<polygon fill="white" stroke="black" points="795.5,-164.5 795.5,-194.5 953.5,-194.5 953.5,-164.5 795.5,-164.5"/>
<text text-anchor="start" x="803.5" y="-182.5" font-family="Helvetica,sans-Serif" font-size="10.00">PerceptualColor::ChromaHue</text>
<text text-anchor="middle" x="874.5" y="-171.5" font-family="Helvetica,sans-Serif" font-size="10.00">Diagram::setColor</text>
</a>
</g>
</g>
<!-- Node3&#45;&gt;Node8 -->
<g id="edge7" class="edge">
<title>Node3&#45;&gt;Node8</title>
<path fill="none" stroke="midnightblue" d="M471.82,-251.44C485.78,-220.39 522.58,-149.87 579,-122.5 666.22,-80.19 782.3,-129.54 839.16,-159.63"/>
<polygon fill="midnightblue" stroke="midnightblue" points="837.63,-162.78 848.09,-164.46 840.96,-156.62 837.63,-162.78"/>
</g>
<!-- Node9 -->
<g id="node9" class="node">
<title>Node9</title>
<g id="a_node9"><a xlink:href="class_perceptual_color_1_1_wheel_color_picker.html#a5f3a58bb672323221c98c2285404bf76" target="_top" xlink:title="Setter for currentColorRgb() property.">
<polygon fill="white" stroke="black" points="584.5,-415.5 584.5,-445.5 740.5,-445.5 740.5,-415.5 584.5,-415.5"/>
<text text-anchor="start" x="592.5" y="-433.5" font-family="Helvetica,sans-Serif" font-size="10.00">PerceptualColor::WheelColor</text>
<text text-anchor="middle" x="662.5" y="-422.5" font-family="Helvetica,sans-Serif" font-size="10.00">Picker::setCurrentColor</text>
</a>
</g>
</g>
<!-- Node3&#45;&gt;Node9 -->
<g id="edge9" class="edge">
<title>Node3&#45;&gt;Node9</title>
<path fill="none" stroke="midnightblue" d="M473.6,-281.69C489.73,-310.48 528.7,-373.09 579,-406.5 581.45,-408.12 584,-409.64 586.64,-411.06"/>
<polygon fill="midnightblue" stroke="midnightblue" points="585.34,-414.32 595.87,-415.49 588.38,-408.01 585.34,-414.32"/>
</g>
<!-- Node14 -->
<g id="node14" class="node">
<title>Node14</title>
<g id="a_node14"><a xlink:href="class_perceptual_color_1_1_gradient_selector.html#a1548390b891333547c1dee97573be568" target="_top" xlink:title=" ">
<polygon fill="white" stroke="black" points="591.5,-229.5 591.5,-259.5 733.5,-259.5 733.5,-229.5 591.5,-229.5"/>
<text text-anchor="start" x="599.5" y="-247.5" font-family="Helvetica,sans-Serif" font-size="10.00">PerceptualColor::Gradient</text>
<text text-anchor="middle" x="662.5" y="-236.5" font-family="Helvetica,sans-Serif" font-size="10.00">Selector::setFraction</text>
</a>
</g>
</g>
<!-- Node3&#45;&gt;Node14 -->
<g id="edge16" class="edge">
<title>Node3&#45;&gt;Node14</title>
<path fill="none" stroke="midnightblue" d="M543.25,-257.77C555.81,-256.36 568.84,-254.9 581.46,-253.48"/>
<polygon fill="midnightblue" stroke="midnightblue" points="581.93,-256.95 591.48,-252.36 581.15,-250 581.93,-256.95"/>
</g>
<!-- Node3&#45;&gt;Node15 -->
<g id="edge17" class="edge">
<title>Node3&#45;&gt;Node15</title>
<path fill="none" stroke="midnightblue" d="M470.26,-281.61C482.32,-317.47 517.61,-408.19 579,-455.5 580.82,-456.91 582.73,-458.23 584.7,-459.47"/>
<polygon fill="midnightblue" stroke="midnightblue" points="583.24,-462.67 593.68,-464.46 586.63,-456.55 583.24,-462.67"/>
</g>
<!-- Node16 -->
<g id="node16" class="node">
<title>Node16</title>
<g id="a_node16"><a xlink:href="class_perceptual_color_1_1_full_color_description.html#aaa17133c6e1d040b2f088e79a42d3283" target="_top" xlink:title=" ">
<polygon fill="white" stroke="black" points="591,-180.5 591,-210.5 734,-210.5 734,-180.5 591,-180.5"/>
<text text-anchor="start" x="599" y="-198.5" font-family="Helvetica,sans-Serif" font-size="10.00">PerceptualColor::FullColor</text>
<text text-anchor="middle" x="662.5" y="-187.5" font-family="Helvetica,sans-Serif" font-size="10.00">Description::toHsvQColor</text>
</a>
</g>
</g>
<!-- Node3&#45;&gt;Node16 -->
<g id="edge19" class="edge">
<title>Node3&#45;&gt;Node16</title>
<path fill="none" stroke="midnightblue" d="M500.21,-251.48C522.52,-242.06 552.24,-229.96 579,-220.5 585.69,-218.13 592.74,-215.79 599.78,-213.53"/>
<polygon fill="midnightblue" stroke="midnightblue" points="600.85,-216.87 609.34,-210.52 598.75,-210.19 600.85,-216.87"/>
</g>
<!-- Node17 -->
<g id="node17" class="node">
<title>Node17</title>
<g id="a_node17"><a xlink:href="class_perceptual_color_1_1_full_color_description.html#a572e2abe28e31c6315732d30f06b1732" target="_top" xlink:title="A string with a hexadecimal representation of the color.">
<polygon fill="white" stroke="black" points="585,-131.5 585,-161.5 740,-161.5 740,-131.5 585,-131.5"/>
<text text-anchor="start" x="593" y="-149.5" font-family="Helvetica,sans-Serif" font-size="10.00">PerceptualColor::FullColor</text>
<text text-anchor="middle" x="662.5" y="-138.5" font-family="Helvetica,sans-Serif" font-size="10.00">Description::toRgbHexString</text>
</a>
</g>
</g>
<!-- Node3&#45;&gt;Node17 -->
<g id="edge21" class="edge">
<title>Node3&#45;&gt;Node17</title>
<path fill="none" stroke="midnightblue" d="M479.48,-251.47C499.61,-230.68 538.76,-193.25 579,-171.5 583.14,-169.26 587.51,-167.19 591.99,-165.29"/>
<polygon fill="midnightblue" stroke="midnightblue" points="593.29,-168.54 601.31,-161.61 590.72,-162.03 593.29,-168.54"/>
</g>
<!-- Node18 -->
<g id="node18" class="node">
<title>Node18</title>
<g id="a_node18"><a xlink:href="class_perceptual_color_1_1_full_color_description.html#aad1d9cc70b7a9ae81c829c391334d768" target="_top" xlink:title=" ">
<polygon fill="white" stroke="black" points="803,-49.5 803,-79.5 946,-79.5 946,-49.5 803,-49.5"/>
<text text-anchor="start" x="811" y="-67.5" font-family="Helvetica,sans-Serif" font-size="10.00">PerceptualColor::FullColor</text>
<text text-anchor="middle" x="874.5" y="-56.5" font-family="Helvetica,sans-Serif" font-size="10.00">Description::toRgbQColor</text>
</a>
</g>
</g>
<!-- Node3&#45;&gt;Node18 -->
<g id="edge22" class="edge">
<title>Node3&#45;&gt;Node18</title>
<path fill="none" stroke="midnightblue" d="M470.89,-251.46C483.74,-218.02 519.59,-137.65 579,-101.5 643.22,-62.43 729.88,-55.87 792.55,-57.46"/>
<polygon fill="midnightblue" stroke="midnightblue" points="792.68,-60.96 802.79,-57.8 792.91,-53.97 792.68,-60.96"/>
</g>
<!-- Node19 -->
<g id="node19" class="node">
<title>Node19</title>
<g id="a_node19"><a xlink:href="class_perceptual_color_1_1_color_dialog.html#a18985e0cf14c64400f1edc5f64da159d" target="_top" xlink:title="Updates the color patch widget.">
<polygon fill="white" stroke="black" points="584,-5.5 584,-35.5 741,-35.5 741,-5.5 584,-5.5"/>
<text text-anchor="start" x="592" y="-23.5" font-family="Helvetica,sans-Serif" font-size="10.00">PerceptualColor::ColorDialog</text>
<text text-anchor="middle" x="662.5" y="-12.5" font-family="Helvetica,sans-Serif" font-size="10.00">::updateColorPatch</text>
</a>
</g>
</g>
<!-- Node3&#45;&gt;Node19 -->
<g id="edge23" class="edge">
<title>Node3&#45;&gt;Node19</title>
<path fill="none" stroke="midnightblue" d="M469.35,-251.29C479.99,-212.28 513.43,-107.76 579,-50.5 583.49,-46.58 588.52,-43.16 593.84,-40.18"/>
<polygon fill="midnightblue" stroke="midnightblue" points="595.65,-43.18 603.01,-35.56 592.5,-36.93 595.65,-43.18"/>
</g>
<!-- Node6 -->
<g id="node6" class="node">
<title>Node6</title>
<g id="a_node6"><a xlink:href="class_perceptual_color_1_1_gradient_selector.html#aabfd1c82565fb7c491e3bf1735beca11" target="_top" xlink:title=" ">
<polygon fill="white" stroke="black" points="803.5,-317.5 803.5,-347.5 945.5,-347.5 945.5,-317.5 803.5,-317.5"/>
<text text-anchor="start" x="811.5" y="-335.5" font-family="Helvetica,sans-Serif" font-size="10.00">PerceptualColor::Gradient</text>
<text text-anchor="middle" x="874.5" y="-324.5" font-family="Helvetica,sans-Serif" font-size="10.00">Selector::setColors</text>
</a>
</g>
</g>
<!-- Node5&#45;&gt;Node6 -->
<g id="edge5" class="edge">
<title>Node5&#45;&gt;Node6</title>
<path fill="none" stroke="midnightblue" d="M746.2,-332.5C761.73,-332.5 777.95,-332.5 793.4,-332.5"/>
<polygon fill="midnightblue" stroke="midnightblue" points="793.43,-336 803.43,-332.5 793.43,-329 793.43,-336"/>
</g>
<!-- Node5&#45;&gt;Node7 -->
<g id="edge6" class="edge">
<title>Node5&#45;&gt;Node7</title>
<path fill="none" stroke="midnightblue" d="M730.07,-347.52C746.96,-351.06 765.11,-354.63 782,-357.5 853.95,-369.71 936.38,-380.04 995.7,-386.83"/>
<polygon fill="midnightblue" stroke="midnightblue" points="995.42,-390.32 1005.75,-387.97 996.21,-383.36 995.42,-390.32"/>
</g>
<!-- Node8&#45;&gt;Node7 -->
<g id="edge8" class="edge">
<title>Node8&#45;&gt;Node7</title>
<path fill="none" stroke="midnightblue" d="M890.55,-194.83C908.8,-213.49 940.43,-246.05 967,-274.5 998.62,-308.36 1034.52,-348.33 1056.33,-372.79"/>
<polygon fill="midnightblue" stroke="midnightblue" points="1053.9,-375.32 1063.16,-380.46 1059.12,-370.67 1053.9,-375.32"/>
</g>
<!-- Node9&#45;&gt;Node7 -->
<g id="edge15" class="edge">
<title>Node9&#45;&gt;Node7</title>
<path fill="none" stroke="midnightblue" d="M740.7,-423.96C813.39,-417.8 921.85,-408.61 995.7,-402.35"/>
<polygon fill="midnightblue" stroke="midnightblue" points="996.21,-405.82 1005.88,-401.48 995.62,-398.84 996.21,-405.82"/>
</g>
<!-- Node10 -->
<g id="node10" class="node">
<title>Node10</title>
<g id="a_node10"><a xlink:href="class_perceptual_color_1_1_chroma_lightness_diagram.html#a27d7c972e420480674da1a0fae0b10b3" target="_top" xlink:title="Setter for the color() property.">
<polygon fill="white" stroke="black" points="782,-443.5 782,-473.5 967,-473.5 967,-443.5 782,-443.5"/>
<text text-anchor="start" x="790" y="-461.5" font-family="Helvetica,sans-Serif" font-size="10.00">PerceptualColor::ChromaLightness</text>
<text text-anchor="middle" x="874.5" y="-450.5" font-family="Helvetica,sans-Serif" font-size="10.00">Diagram::setColor</text>
</a>
</g>
</g>
<!-- Node9&#45;&gt;Node10 -->
<g id="edge10" class="edge">
<title>Node9&#45;&gt;Node10</title>
<path fill="none" stroke="midnightblue" d="M740.5,-440.77C750.71,-442.13 761.29,-443.54 771.82,-444.94"/>
<polygon fill="midnightblue" stroke="midnightblue" points="771.52,-448.43 781.9,-446.29 772.45,-441.5 771.52,-448.43"/>
</g>
<!-- Node11 -->
<g id="node11" class="node">
<title>Node11</title>
<g id="a_node11"><a xlink:href="class_perceptual_color_1_1_simple_color_wheel.html#aa9eec6e96f6069be6d983d1c854644d1" target="_top" xlink:title=" ">
<polygon fill="white" stroke="black" points="795,-492.5 795,-522.5 954,-522.5 954,-492.5 795,-492.5"/>
<text text-anchor="start" x="803" y="-510.5" font-family="Helvetica,sans-Serif" font-size="10.00">PerceptualColor::SimpleColor</text>
<text text-anchor="middle" x="874.5" y="-499.5" font-family="Helvetica,sans-Serif" font-size="10.00">Wheel::setHue</text>
</a>
</g>
</g>
<!-- Node9&#45;&gt;Node11 -->
<g id="edge12" class="edge">
<title>Node9&#45;&gt;Node11</title>
<path fill="none" stroke="midnightblue" d="M722.69,-445.54C730.71,-448.4 738.69,-451.72 746,-455.5 764,-464.82 763.83,-474.52 782,-483.5 786,-485.48 790.18,-487.3 794.46,-488.99"/>
<polygon fill="midnightblue" stroke="midnightblue" points="793.36,-492.32 803.96,-492.46 795.77,-485.74 793.36,-492.32"/>
</g>
<!-- Node10&#45;&gt;Node7 -->
<g id="edge11" class="edge">
<title>Node10&#45;&gt;Node7</title>
<path fill="none" stroke="midnightblue" d="M923.39,-443.49C952.1,-434.49 988.78,-422.99 1019.05,-413.51"/>
<polygon fill="midnightblue" stroke="midnightblue" points="1020.13,-416.83 1028.63,-410.5 1018.04,-410.16 1020.13,-416.83"/>
</g>
<!-- Node12 -->
<g id="node12" class="node">
<title>Node12</title>
<g id="a_node12"><a xlink:href="class_perceptual_color_1_1_polar_point_f.html#a9eefd08d3a5ad536232292380f958804" target="_top" xlink:title="Normalizes an angle.">
<polygon fill="white" stroke="black" points="1003,-492.5 1003,-522.5 1152,-522.5 1152,-492.5 1003,-492.5"/>
<text text-anchor="start" x="1011" y="-510.5" font-family="Helvetica,sans-Serif" font-size="10.00">PerceptualColor::PolarPoint</text>
<text text-anchor="middle" x="1077.5" y="-499.5" font-family="Helvetica,sans-Serif" font-size="10.00">F::normalizedAngleDegree</text>
</a>
</g>
</g>
<!-- Node11&#45;&gt;Node12 -->
<g id="edge13" class="edge">
<title>Node11&#45;&gt;Node12</title>
<path fill="none" stroke="midnightblue" d="M954.08,-507.5C966.76,-507.5 979.93,-507.5 992.74,-507.5"/>
<polygon fill="midnightblue" stroke="midnightblue" points="992.91,-511 1002.91,-507.5 992.91,-504 992.91,-511"/>
</g>
<!-- Node13 -->
<g id="node13" class="node">
<title>Node13</title>
<g id="a_node13"><a xlink:href="class_perceptual_color_1_1_polar_point_f.html#a882cd166affc603fc62241dcb3be4fd5" target="_top" xlink:title="Normalized angle.">
<polygon fill="white" stroke="black" points="1188,-492.5 1188,-522.5 1337,-522.5 1337,-492.5 1188,-492.5"/>
<text text-anchor="start" x="1196" y="-510.5" font-family="Helvetica,sans-Serif" font-size="10.00">PerceptualColor::PolarPoint</text>
<text text-anchor="middle" x="1262.5" y="-499.5" font-family="Helvetica,sans-Serif" font-size="10.00">F::angleDegree</text>
</a>
</g>
</g>
<!-- Node12&#45;&gt;Node13 -->
<g id="edge14" class="edge">
<title>Node12&#45;&gt;Node13</title>
<path fill="none" stroke="midnightblue" d="M1152.14,-507.5C1160.47,-507.5 1169.01,-507.5 1177.46,-507.5"/>
<polygon fill="midnightblue" stroke="midnightblue" points="1177.71,-511 1187.71,-507.5 1177.71,-504 1177.71,-511"/>
</g>
<!-- Node15&#45;&gt;Node7 -->
<g id="edge18" class="edge">
<title>Node15&#45;&gt;Node7</title>
<path fill="none" stroke="midnightblue" d="M690.29,-494.67C745.25,-523.63 873.46,-579.85 967,-532.5 991.11,-520.3 986.33,-504.77 1003,-483.5 1020.62,-461.01 1041.59,-436.08 1056.61,-418.52"/>
<polygon fill="midnightblue" stroke="midnightblue" points="1059.61,-420.39 1063.46,-410.53 1054.29,-415.84 1059.61,-420.39"/>
</g>
<!-- Node19&#45;&gt;Node18 -->
<g id="edge25" class="edge">
<title>Node19&#45;&gt;Node18</title>
<path fill="none" stroke="midnightblue" d="M735.18,-35.52C753.8,-39.42 773.98,-43.65 793.01,-47.64"/>
<polygon fill="midnightblue" stroke="midnightblue" points="792.35,-51.07 802.85,-49.7 793.78,-44.22 792.35,-51.07"/>
</g>
<!-- Node20 -->
<g id="node20" class="node">
<title>Node20</title>
<g id="a_node20"><a xlink:href="class_perceptual_color_1_1_color_patch.html#ada8693cd4a8e51eb2debd3c0192a7458" target="_top" xlink:title="Set the color property.">
<polygon fill="white" stroke="black" points="798.5,-0.5 798.5,-30.5 950.5,-30.5 950.5,-0.5 798.5,-0.5"/>
<text text-anchor="start" x="806.5" y="-18.5" font-family="Helvetica,sans-Serif" font-size="10.00">PerceptualColor::ColorPatch</text>
<text text-anchor="middle" x="874.5" y="-7.5" font-family="Helvetica,sans-Serif" font-size="10.00">::setColor</text>
</a>
</g>
</g>
<!-- Node19&#45;&gt;Node20 -->
<g id="edge24" class="edge">
<title>Node19&#45;&gt;Node20</title>
<path fill="none" stroke="midnightblue" d="M741.1,-18.65C756.43,-18.29 772.61,-17.9 788.18,-17.53"/>
<polygon fill="midnightblue" stroke="midnightblue" points="788.4,-21.03 798.32,-17.29 788.23,-14.03 788.4,-21.03"/>
</g>
</g>
</svg>
