<?xml version="1.0" encoding="UTF-8" standalone="no"?>
<!DOCTYPE svg PUBLIC "-//W3C//DTD SVG 1.1//EN"
 "http://www.w3.org/Graphics/SVG/1.1/DTD/svg11.dtd">
<!-- Generated by graphviz version 2.43.0 (0)
 -->
<!-- Title: PerceptualColor::ChromaLightnessDiagram::fromWidgetCoordinatesToImageCoordinates Pages: 1 -->
<svg width="451pt" height="137pt"
 viewBox="0.00 0.00 451.00 137.00" xmlns="http://www.w3.org/2000/svg" xmlns:xlink="http://www.w3.org/1999/xlink">
<g id="graph0" class="graph" transform="scale(1 1) rotate(0) translate(4 133)">
<title>PerceptualColor::ChromaLightnessDiagram::fromWidgetCoordinatesToImageCoordinates</title>
<polygon fill="white" stroke="transparent" points="-4,4 -4,-133 447,-133 447,4 -4,4"/>
<!-- Node1 -->
<g id="node1" class="node">
<title>Node1</title>
<g id="a_node1"><a xlink:title="Transforms from widget to image coordinates.">
<polygon fill="#bfbfbf" stroke="black" points="221,-44 221,-85 443,-85 443,-44 221,-44"/>
<text text-anchor="start" x="229" y="-73" font-family="Helvetica,sans-Serif" font-size="10.00">PerceptualColor::ChromaLightness</text>
<text text-anchor="start" x="229" y="-62" font-family="Helvetica,sans-Serif" font-size="10.00">Diagram::fromWidgetCoordinatesToImage</text>
<text text-anchor="middle" x="332" y="-51" font-family="Helvetica,sans-Serif" font-size="10.00">Coordinates</text>
</a>
</g>
</g>
<!-- Node2 -->
<g id="node2" class="node">
<title>Node2</title>
<g id="a_node2"><a xlink:href="class_perceptual_color_1_1_chroma_lightness_diagram.html#a1697a065cdb13e6a5b8af378673c77f3" target="_top" xlink:title="React on a mouse move event.">
<polygon fill="white" stroke="black" points="0,-98.5 0,-128.5 185,-128.5 185,-98.5 0,-98.5"/>
<text text-anchor="start" x="8" y="-116.5" font-family="Helvetica,sans-Serif" font-size="10.00">PerceptualColor::ChromaLightness</text>
<text text-anchor="middle" x="92.5" y="-105.5" font-family="Helvetica,sans-Serif" font-size="10.00">Diagram::mouseMoveEvent</text>
</a>
</g>
</g>
<!-- Node1&#45;&gt;Node2 -->
<g id="edge1" class="edge">
<title>Node1&#45;&gt;Node2</title>
<path fill="none" stroke="midnightblue" d="M221.28,-87.14C202.61,-90.99 183.63,-94.9 166.22,-98.5"/>
<polygon fill="midnightblue" stroke="midnightblue" points="222.22,-90.52 231.31,-85.07 220.81,-83.66 222.22,-90.52"/>
</g>
<!-- Node3 -->
<g id="node3" class="node">
<title>Node3</title>
<g id="a_node3"><a xlink:href="class_perceptual_color_1_1_chroma_lightness_diagram.html#aa0aa6d31cefd3b9dfbfe9acfcac18e3d" target="_top" xlink:title="React on a mouse press event.">
<polygon fill="white" stroke="black" points="0,-49.5 0,-79.5 185,-79.5 185,-49.5 0,-49.5"/>
<text text-anchor="start" x="8" y="-67.5" font-family="Helvetica,sans-Serif" font-size="10.00">PerceptualColor::ChromaLightness</text>
<text text-anchor="middle" x="92.5" y="-56.5" font-family="Helvetica,sans-Serif" font-size="10.00">Diagram::mousePressEvent</text>
</a>
</g>
</g>
<!-- Node1&#45;&gt;Node3 -->
<g id="edge2" class="edge">
<title>Node1&#45;&gt;Node3</title>
<path fill="none" stroke="midnightblue" d="M210.79,-64.5C202.13,-64.5 193.49,-64.5 185.04,-64.5"/>
<polygon fill="midnightblue" stroke="midnightblue" points="210.94,-68 220.94,-64.5 210.94,-61 210.94,-68"/>
</g>
<!-- Node4 -->
<g id="node4" class="node">
<title>Node4</title>
<g id="a_node4"><a xlink:href="class_perceptual_color_1_1_chroma_lightness_diagram.html#a9bd534e0817d1afb0a3674f98919b8db" target="_top" xlink:title="React on a mouse release event.">
<polygon fill="white" stroke="black" points="0,-0.5 0,-30.5 185,-30.5 185,-0.5 0,-0.5"/>
<text text-anchor="start" x="8" y="-18.5" font-family="Helvetica,sans-Serif" font-size="10.00">PerceptualColor::ChromaLightness</text>
<text text-anchor="middle" x="92.5" y="-7.5" font-family="Helvetica,sans-Serif" font-size="10.00">Diagram::mouseReleaseEvent</text>
</a>
</g>
</g>
<!-- Node1&#45;&gt;Node4 -->
<g id="edge3" class="edge">
<title>Node1&#45;&gt;Node4</title>
<path fill="none" stroke="midnightblue" d="M221.28,-41.86C202.61,-38.01 183.63,-34.1 166.22,-30.5"/>
<polygon fill="midnightblue" stroke="midnightblue" points="220.81,-45.34 231.31,-43.93 222.22,-38.48 220.81,-45.34"/>
</g>
</g>
</svg>
