<?xml version="1.0" encoding="UTF-8" standalone="no"?>
<!DOCTYPE svg PUBLIC "-//W3C//DTD SVG 1.1//EN"
 "http://www.w3.org/Graphics/SVG/1.1/DTD/svg11.dtd">
<!-- Generated by graphviz version 2.43.0 (0)
 -->
<!-- Title: PerceptualColor::ChromaLightnessDiagram::keyPressEvent Pages: 1 -->
<svg width="1499pt" height="336pt"
 viewBox="0.00 0.00 1499.00 335.83" xmlns="http://www.w3.org/2000/svg" xmlns:xlink="http://www.w3.org/1999/xlink">
<g id="graph0" class="graph" transform="scale(1 1) rotate(0) translate(4 331.83)">
<title>PerceptualColor::ChromaLightnessDiagram::keyPressEvent</title>
<polygon fill="white" stroke="transparent" points="-4,4 -4,-331.83 1495,-331.83 1495,4 -4,4"/>
<!-- Node1 -->
<g id="node1" class="node">
<title>Node1</title>
<g id="a_node1"><a xlink:title="React on key press events.">
<polygon fill="#bfbfbf" stroke="black" points="0,-237.77 0,-267.77 185,-267.77 185,-237.77 0,-237.77"/>
<text text-anchor="start" x="8" y="-255.77" font-family="Helvetica,sans-Serif" font-size="10.00">PerceptualColor::ChromaLightness</text>
<text text-anchor="middle" x="92.5" y="-244.77" font-family="Helvetica,sans-Serif" font-size="10.00">Diagram::keyPressEvent</text>
</a>
</g>
</g>
<!-- Node2 -->
<g id="node2" class="node">
<title>Node2</title>
<g id="a_node2"><a xlink:href="class_perceptual_color_1_1_chroma_lightness_diagram.html#a9f6471b44d4f4eba95914945bc53037a" target="_top" xlink:title=" ">
<polygon fill="white" stroke="black" points="472,-218.77 472,-248.77 660,-248.77 660,-218.77 472,-218.77"/>
<text text-anchor="start" x="480" y="-236.77" font-family="Helvetica,sans-Serif" font-size="10.00">PerceptualColor::ChromaLightness</text>
<text text-anchor="middle" x="566" y="-225.77" font-family="Helvetica,sans-Serif" font-size="10.00">Diagram::currentImageCoordinates</text>
</a>
</g>
</g>
<!-- Node1&#45;&gt;Node2 -->
<g id="edge1" class="edge">
<title>Node1&#45;&gt;Node2</title>
<path fill="none" stroke="midnightblue" d="M185.25,-249.07C264.59,-245.88 379.2,-241.26 461.73,-237.93"/>
<polygon fill="midnightblue" stroke="midnightblue" points="462.03,-241.42 471.88,-237.52 461.75,-234.43 462.03,-241.42"/>
</g>
<!-- Node4 -->
<g id="node4" class="node">
<title>Node4</title>
<g id="a_node4"><a xlink:href="class_perceptual_color_1_1_chroma_lightness_diagram.html#a7d48f62249ffee09f55edfd3c127eb84" target="_top" xlink:title="Refresh the diagram and associated data.">
<polygon fill="white" stroke="black" points="715,-190.77 715,-220.77 900,-220.77 900,-190.77 715,-190.77"/>
<text text-anchor="start" x="723" y="-208.77" font-family="Helvetica,sans-Serif" font-size="10.00">PerceptualColor::ChromaLightness</text>
<text text-anchor="middle" x="807.5" y="-197.77" font-family="Helvetica,sans-Serif" font-size="10.00">Diagram::updateDiagramCache</text>
</a>
</g>
</g>
<!-- Node1&#45;&gt;Node4 -->
<g id="edge20" class="edge">
<title>Node1&#45;&gt;Node4</title>
<path fill="none" stroke="midnightblue" d="M124.85,-267.88C150.14,-279.19 186.98,-293.7 221,-299.77 421.53,-335.56 484.65,-343.75 679,-282.77 716.96,-270.86 755.35,-245.45 779.94,-227.08"/>
<polygon fill="midnightblue" stroke="midnightblue" points="782.2,-229.75 788.03,-220.9 777.96,-224.18 782.2,-229.75"/>
</g>
<!-- Node9 -->
<g id="node9" class="node">
<title>Node9</title>
<g id="a_node9"><a xlink:href="class_perceptual_color_1_1_chroma_lightness_diagram.html#a00a13ef1aa732e2f16d0d9f371aa4746" target="_top" xlink:title="Tests if image coordinates are in gamut.">
<polygon fill="white" stroke="black" points="221,-259.77 221,-289.77 417,-289.77 417,-259.77 221,-259.77"/>
<text text-anchor="start" x="229" y="-277.77" font-family="Helvetica,sans-Serif" font-size="10.00">PerceptualColor::ChromaLightness</text>
<text text-anchor="middle" x="319" y="-266.77" font-family="Helvetica,sans-Serif" font-size="10.00">Diagram::imageCoordinatesInGamut</text>
</a>
</g>
</g>
<!-- Node1&#45;&gt;Node9 -->
<g id="edge9" class="edge">
<title>Node1&#45;&gt;Node9</title>
<path fill="none" stroke="midnightblue" d="M185.14,-261.75C193.59,-262.58 202.2,-263.42 210.78,-264.26"/>
<polygon fill="midnightblue" stroke="midnightblue" points="210.52,-267.76 220.82,-265.25 211.2,-260.79 210.52,-267.76"/>
</g>
<!-- Node10 -->
<g id="node10" class="node">
<title>Node10</title>
<g id="a_node10"><a xlink:href="class_perceptual_color_1_1_chroma_lightness_diagram.html#ac9b6d25ecc2c6a954f1ba361960458b1" target="_top" xlink:title=" ">
<polygon fill="white" stroke="black" points="226.5,-114.77 226.5,-144.77 411.5,-144.77 411.5,-114.77 226.5,-114.77"/>
<text text-anchor="start" x="234.5" y="-132.77" font-family="Helvetica,sans-Serif" font-size="10.00">PerceptualColor::ChromaLightness</text>
<text text-anchor="middle" x="319" y="-121.77" font-family="Helvetica,sans-Serif" font-size="10.00">Diagram::setImageCoordinates</text>
</a>
</g>
</g>
<!-- Node1&#45;&gt;Node10 -->
<g id="edge11" class="edge">
<title>Node1&#45;&gt;Node10</title>
<path fill="none" stroke="midnightblue" d="M121.03,-237.69C161.45,-215.54 236.91,-174.2 281.78,-149.62"/>
<polygon fill="midnightblue" stroke="midnightblue" points="283.51,-152.66 290.6,-144.78 280.15,-146.52 283.51,-152.66"/>
</g>
<!-- Node3 -->
<g id="node3" class="node">
<title>Node3</title>
<g id="a_node3"><a xlink:href="class_perceptual_color_1_1_full_color_description.html#acdbff4639f8a118f0d13a831a4b57ffe" target="_top" xlink:title=" ">
<polygon fill="white" stroke="black" points="957,-122.77 957,-152.77 1100,-152.77 1100,-122.77 957,-122.77"/>
<text text-anchor="start" x="965" y="-140.77" font-family="Helvetica,sans-Serif" font-size="10.00">PerceptualColor::FullColor</text>
<text text-anchor="middle" x="1028.5" y="-129.77" font-family="Helvetica,sans-Serif" font-size="10.00">Description::toLch</text>
</a>
</g>
</g>
<!-- Node2&#45;&gt;Node3 -->
<g id="edge2" class="edge">
<title>Node2&#45;&gt;Node3</title>
<path fill="none" stroke="midnightblue" d="M652.35,-218.73C661.53,-215.94 670.59,-212.65 679,-208.77 697.17,-200.41 696.51,-189.41 715,-181.77 789.63,-150.95 881.89,-141.03 946.75,-138.17"/>
<polygon fill="midnightblue" stroke="midnightblue" points="947.07,-141.66 956.92,-137.76 946.79,-134.66 947.07,-141.66"/>
</g>
<!-- Node2&#45;&gt;Node4 -->
<g id="edge3" class="edge">
<title>Node2&#45;&gt;Node4</title>
<path fill="none" stroke="midnightblue" d="M660.28,-222.87C674.8,-221.17 689.86,-219.41 704.55,-217.69"/>
<polygon fill="midnightblue" stroke="midnightblue" points="705.13,-221.15 714.65,-216.51 704.31,-214.19 705.13,-221.15"/>
</g>
<!-- Node4&#45;&gt;Node3 -->
<g id="edge8" class="edge">
<title>Node4&#45;&gt;Node3</title>
<path fill="none" stroke="midnightblue" d="M856.83,-190.76C889.99,-180.47 934.17,-166.75 969.27,-155.85"/>
<polygon fill="midnightblue" stroke="midnightblue" points="970.4,-159.17 978.91,-152.86 968.33,-152.48 970.4,-159.17"/>
</g>
<!-- Node5 -->
<g id="node5" class="node">
<title>Node5</title>
<g id="a_node5"><a xlink:href="class_perceptual_color_1_1_chroma_lightness_diagram.html#ae0395993434db2cd0d74b146fed6621c" target="_top" xlink:title="Generates an image of a chroma&#45;lightness diagram.">
<polygon fill="white" stroke="black" points="936,-190.77 936,-220.77 1121,-220.77 1121,-190.77 936,-190.77"/>
<text text-anchor="start" x="944" y="-208.77" font-family="Helvetica,sans-Serif" font-size="10.00">PerceptualColor::ChromaLightness</text>
<text text-anchor="middle" x="1028.5" y="-197.77" font-family="Helvetica,sans-Serif" font-size="10.00">Diagram::generateDiagramImage</text>
</a>
</g>
</g>
<!-- Node4&#45;&gt;Node5 -->
<g id="edge4" class="edge">
<title>Node4&#45;&gt;Node5</title>
<path fill="none" stroke="midnightblue" d="M900.11,-205.77C908.62,-205.77 917.27,-205.77 925.86,-205.77"/>
<polygon fill="midnightblue" stroke="midnightblue" points="925.91,-209.27 935.91,-205.77 925.91,-202.27 925.91,-209.27"/>
</g>
<!-- Node6 -->
<g id="node6" class="node">
<title>Node6</title>
<g id="a_node6"><a xlink:href="class_perceptual_color_1_1_rgb_color_space.html#ab494c2d0f561c49b8325688a8ddc0095" target="_top" xlink:title="Calculates the RGB value.">
<polygon fill="white" stroke="black" points="1159.5,-215.77 1159.5,-245.77 1303.5,-245.77 1303.5,-215.77 1159.5,-215.77"/>
<text text-anchor="start" x="1167.5" y="-233.77" font-family="Helvetica,sans-Serif" font-size="10.00">PerceptualColor::RgbColor</text>
<text text-anchor="middle" x="1231.5" y="-222.77" font-family="Helvetica,sans-Serif" font-size="10.00">Space::colorRgb</text>
</a>
</g>
</g>
<!-- Node5&#45;&gt;Node6 -->
<g id="edge5" class="edge">
<title>Node5&#45;&gt;Node6</title>
<path fill="none" stroke="midnightblue" d="M1121.18,-217.17C1130.61,-218.35 1140.14,-219.53 1149.44,-220.69"/>
<polygon fill="midnightblue" stroke="midnightblue" points="1149.07,-224.17 1159.43,-221.93 1149.94,-217.22 1149.07,-224.17"/>
</g>
<!-- Node7 -->
<g id="node7" class="node">
<title>Node7</title>
<g id="a_node7"><a xlink:href="class_perceptual_color_1_1_polar_point_f.html#a9eefd08d3a5ad536232292380f958804" target="_top" xlink:title="Normalizes an angle.">
<polygon fill="white" stroke="black" points="1157,-166.77 1157,-196.77 1306,-196.77 1306,-166.77 1157,-166.77"/>
<text text-anchor="start" x="1165" y="-184.77" font-family="Helvetica,sans-Serif" font-size="10.00">PerceptualColor::PolarPoint</text>
<text text-anchor="middle" x="1231.5" y="-173.77" font-family="Helvetica,sans-Serif" font-size="10.00">F::normalizedAngleDegree</text>
</a>
</g>
</g>
<!-- Node5&#45;&gt;Node7 -->
<g id="edge6" class="edge">
<title>Node5&#45;&gt;Node7</title>
<path fill="none" stroke="midnightblue" d="M1121.18,-194.83C1129.64,-193.81 1138.19,-192.79 1146.58,-191.79"/>
<polygon fill="midnightblue" stroke="midnightblue" points="1147.21,-195.24 1156.72,-190.58 1146.38,-188.29 1147.21,-195.24"/>
</g>
<!-- Node8 -->
<g id="node8" class="node">
<title>Node8</title>
<g id="a_node8"><a xlink:href="class_perceptual_color_1_1_polar_point_f.html#a882cd166affc603fc62241dcb3be4fd5" target="_top" xlink:title="Normalized angle.">
<polygon fill="white" stroke="black" points="1342,-166.77 1342,-196.77 1491,-196.77 1491,-166.77 1342,-166.77"/>
<text text-anchor="start" x="1350" y="-184.77" font-family="Helvetica,sans-Serif" font-size="10.00">PerceptualColor::PolarPoint</text>
<text text-anchor="middle" x="1416.5" y="-173.77" font-family="Helvetica,sans-Serif" font-size="10.00">F::angleDegree</text>
</a>
</g>
</g>
<!-- Node7&#45;&gt;Node8 -->
<g id="edge7" class="edge">
<title>Node7&#45;&gt;Node8</title>
<path fill="none" stroke="midnightblue" d="M1306.14,-181.77C1314.47,-181.77 1323.01,-181.77 1331.46,-181.77"/>
<polygon fill="midnightblue" stroke="midnightblue" points="1331.71,-185.27 1341.71,-181.77 1331.71,-178.27 1331.71,-185.27"/>
</g>
<!-- Node9&#45;&gt;Node4 -->
<g id="edge10" class="edge">
<title>Node9&#45;&gt;Node4</title>
<path fill="none" stroke="midnightblue" d="M417.19,-279.51C490.11,-280.89 591.92,-278.18 679,-258.77 710.54,-251.74 744.21,-237.43 769.02,-225.44"/>
<polygon fill="midnightblue" stroke="midnightblue" points="770.65,-228.54 778.08,-220.98 767.56,-222.26 770.65,-228.54"/>
</g>
<!-- Node10&#45;&gt;Node2 -->
<g id="edge12" class="edge">
<title>Node10&#45;&gt;Node2</title>
<path fill="none" stroke="midnightblue" d="M340.58,-144.83C365.84,-162.62 410.56,-191.93 453,-208.77 459.62,-211.4 466.58,-213.78 473.64,-215.93"/>
<polygon fill="midnightblue" stroke="midnightblue" points="472.75,-219.32 483.33,-218.73 474.69,-212.59 472.75,-219.32"/>
</g>
<!-- Node10&#45;&gt;Node3 -->
<g id="edge18" class="edge">
<title>Node10&#45;&gt;Node3</title>
<path fill="none" stroke="midnightblue" d="M411.55,-123.54C425.43,-122.81 439.59,-122.17 453,-121.77 629.02,-116.48 835.39,-126.09 946.61,-132.57"/>
<polygon fill="midnightblue" stroke="midnightblue" points="946.55,-136.07 956.74,-133.17 946.97,-129.08 946.55,-136.07"/>
</g>
<!-- Node10&#45;&gt;Node4 -->
<g id="edge19" class="edge">
<title>Node10&#45;&gt;Node4</title>
<path fill="none" stroke="midnightblue" d="M411.69,-125.47C485.03,-124.2 589.96,-127.3 679,-148.77 711.61,-156.63 746.2,-172.64 771.12,-185.7"/>
<polygon fill="midnightblue" stroke="midnightblue" points="769.7,-188.91 780.17,-190.53 773,-182.73 769.7,-188.91"/>
</g>
<!-- Node11 -->
<g id="node11" class="node">
<title>Node11</title>
<g id="a_node11"><a xlink:href="class_perceptual_color_1_1_chroma_lightness_diagram.html#a9bfa53bcbfd4010c082294c9cfb5b2eb" target="_top" xlink:title=" ">
<polygon fill="white" stroke="black" points="453,-158.27 453,-199.27 679,-199.27 679,-158.27 453,-158.27"/>
<text text-anchor="start" x="461" y="-187.27" font-family="Helvetica,sans-Serif" font-size="10.00">PerceptualColor::ChromaLightness</text>
<text text-anchor="start" x="461" y="-176.27" font-family="Helvetica,sans-Serif" font-size="10.00">Diagram::fromImageCoordinatesToChroma</text>
<text text-anchor="middle" x="566" y="-165.27" font-family="Helvetica,sans-Serif" font-size="10.00">Lightness</text>
</a>
</g>
</g>
<!-- Node10&#45;&gt;Node11 -->
<g id="edge13" class="edge">
<title>Node10&#45;&gt;Node11</title>
<path fill="none" stroke="midnightblue" d="M395.17,-144.81C413.34,-148.44 433.15,-152.4 452.62,-156.3"/>
<polygon fill="midnightblue" stroke="midnightblue" points="451.96,-159.73 462.45,-158.26 453.33,-152.87 451.96,-159.73"/>
</g>
<!-- Node12 -->
<g id="node12" class="node">
<title>Node12</title>
<g id="a_node12"><a xlink:href="class_perceptual_color_1_1_chroma_lightness_diagram.html#a5dfa80fbb52c1217a61fb9adb108bd14" target="_top" xlink:title="Search the nearest non&#45;transparent neighbor pixel.">
<polygon fill="white" stroke="black" points="473.5,-32.77 473.5,-62.77 658.5,-62.77 658.5,-32.77 473.5,-32.77"/>
<text text-anchor="start" x="481.5" y="-50.77" font-family="Helvetica,sans-Serif" font-size="10.00">PerceptualColor::ChromaLightness</text>
<text text-anchor="middle" x="566" y="-39.77" font-family="Helvetica,sans-Serif" font-size="10.00">Diagram::nearestNeighborSearch</text>
</a>
</g>
</g>
<!-- Node10&#45;&gt;Node12 -->
<g id="edge15" class="edge">
<title>Node10&#45;&gt;Node12</title>
<path fill="none" stroke="midnightblue" d="M355.45,-114.67C382.03,-103.66 419.43,-88.79 453,-77.77 466.16,-73.45 480.33,-69.29 494.03,-65.51"/>
<polygon fill="midnightblue" stroke="midnightblue" points="495.16,-68.82 503.89,-62.82 493.33,-62.07 495.16,-68.82"/>
</g>
<!-- Node13 -->
<g id="node13" class="node">
<title>Node13</title>
<g id="a_node13"><a xlink:href="class_perceptual_color_1_1_chroma_lightness_diagram.html#a27d7c972e420480674da1a0fae0b10b3" target="_top" xlink:title="Setter for the color() property.">
<polygon fill="white" stroke="black" points="715,-10.77 715,-40.77 900,-40.77 900,-10.77 715,-10.77"/>
<text text-anchor="start" x="723" y="-28.77" font-family="Helvetica,sans-Serif" font-size="10.00">PerceptualColor::ChromaLightness</text>
<text text-anchor="middle" x="807.5" y="-17.77" font-family="Helvetica,sans-Serif" font-size="10.00">Diagram::setColor</text>
</a>
</g>
</g>
<!-- Node10&#45;&gt;Node13 -->
<g id="edge16" class="edge">
<title>Node10&#45;&gt;Node13</title>
<path fill="none" stroke="midnightblue" d="M332.39,-114.66C353.86,-89.79 400.73,-41.19 453,-22.77 540.63,8.1 648.23,1.41 721.54,-9.21"/>
<polygon fill="midnightblue" stroke="midnightblue" points="721.24,-12.7 731.65,-10.73 722.29,-5.78 721.24,-12.7"/>
</g>
<!-- Node11&#45;&gt;Node4 -->
<g id="edge14" class="edge">
<title>Node11&#45;&gt;Node4</title>
<path fill="none" stroke="midnightblue" d="M679.04,-191.4C687.52,-192.36 696.05,-193.32 704.47,-194.27"/>
<polygon fill="midnightblue" stroke="midnightblue" points="704.33,-197.78 714.66,-195.42 705.12,-190.82 704.33,-197.78"/>
</g>
<!-- Node13&#45;&gt;Node3 -->
<g id="edge17" class="edge">
<title>Node13&#45;&gt;Node3</title>
<path fill="none" stroke="midnightblue" d="M838.04,-40.88C877.08,-60.85 945.97,-96.07 989.04,-118.1"/>
<polygon fill="midnightblue" stroke="midnightblue" points="987.59,-121.29 998.08,-122.73 990.77,-115.06 987.59,-121.29"/>
</g>
</g>
</svg>
