<?xml version="1.0" encoding="UTF-8" standalone="no"?>
<!DOCTYPE svg PUBLIC "-//W3C//DTD SVG 1.1//EN"
 "http://www.w3.org/Graphics/SVG/1.1/DTD/svg11.dtd">
<!-- Generated by graphviz version 2.43.0 (0)
 -->
<!-- Title: PerceptualColor::ChromaHueDiagram::areImageCoordinatesWithinDiagramSurface Pages: 1 -->
<svg width="403pt" height="137pt"
 viewBox="0.00 0.00 403.00 137.00" xmlns="http://www.w3.org/2000/svg" xmlns:xlink="http://www.w3.org/1999/xlink">
<g id="graph0" class="graph" transform="scale(1 1) rotate(0) translate(4 133)">
<title>PerceptualColor::ChromaHueDiagram::areImageCoordinatesWithinDiagramSurface</title>
<polygon fill="white" stroke="transparent" points="-4,4 -4,-133 399,-133 399,4 -4,4"/>
<!-- Node1 -->
<g id="node1" class="node">
<title>Node1</title>
<g id="a_node1"><a xlink:title="Tests if image coordinates are within the diagram surface.">
<polygon fill="#bfbfbf" stroke="black" points="194,-44 194,-85 395,-85 395,-44 194,-44"/>
<text text-anchor="start" x="202" y="-73" font-family="Helvetica,sans-Serif" font-size="10.00">PerceptualColor::ChromaHue</text>
<text text-anchor="start" x="202" y="-62" font-family="Helvetica,sans-Serif" font-size="10.00">Diagram::areImageCoordinatesWithin</text>
<text text-anchor="middle" x="294.5" y="-51" font-family="Helvetica,sans-Serif" font-size="10.00">DiagramSurface</text>
</a>
</g>
</g>
<!-- Node2 -->
<g id="node2" class="node">
<title>Node2</title>
<g id="a_node2"><a xlink:href="class_perceptual_color_1_1_chroma_hue_diagram.html#a16bcb9d0eee3536fe4f1034d2b9c3329" target="_top" xlink:title="React on a mouse move event.">
<polygon fill="white" stroke="black" points="0,-98.5 0,-128.5 158,-128.5 158,-98.5 0,-98.5"/>
<text text-anchor="start" x="8" y="-116.5" font-family="Helvetica,sans-Serif" font-size="10.00">PerceptualColor::ChromaHue</text>
<text text-anchor="middle" x="79" y="-105.5" font-family="Helvetica,sans-Serif" font-size="10.00">Diagram::mouseMoveEvent</text>
</a>
</g>
</g>
<!-- Node1&#45;&gt;Node2 -->
<g id="edge1" class="edge">
<title>Node1&#45;&gt;Node2</title>
<path fill="none" stroke="midnightblue" d="M193.71,-87.4C177.3,-91.17 160.66,-94.99 145.37,-98.5"/>
<polygon fill="midnightblue" stroke="midnightblue" points="194.92,-90.72 203.88,-85.07 193.36,-83.89 194.92,-90.72"/>
</g>
<!-- Node3 -->
<g id="node3" class="node">
<title>Node3</title>
<g id="a_node3"><a xlink:href="class_perceptual_color_1_1_chroma_hue_diagram.html#ad8957ee9c3a3ecb73841c00110ee3058" target="_top" xlink:title="React on a mouse press event.">
<polygon fill="white" stroke="black" points="0,-49.5 0,-79.5 158,-79.5 158,-49.5 0,-49.5"/>
<text text-anchor="start" x="8" y="-67.5" font-family="Helvetica,sans-Serif" font-size="10.00">PerceptualColor::ChromaHue</text>
<text text-anchor="middle" x="79" y="-56.5" font-family="Helvetica,sans-Serif" font-size="10.00">Diagram::mousePressEvent</text>
</a>
</g>
</g>
<!-- Node1&#45;&gt;Node3 -->
<g id="edge2" class="edge">
<title>Node1&#45;&gt;Node3</title>
<path fill="none" stroke="midnightblue" d="M183.83,-64.5C175.22,-64.5 166.64,-64.5 158.3,-64.5"/>
<polygon fill="midnightblue" stroke="midnightblue" points="183.94,-68 193.94,-64.5 183.94,-61 183.94,-68"/>
</g>
<!-- Node4 -->
<g id="node4" class="node">
<title>Node4</title>
<g id="a_node4"><a xlink:href="class_perceptual_color_1_1_chroma_hue_diagram.html#a2b14fea4dd40197c7d37c88fb8be63e7" target="_top" xlink:title=" ">
<polygon fill="white" stroke="black" points="0,-0.5 0,-30.5 158,-30.5 158,-0.5 0,-0.5"/>
<text text-anchor="start" x="8" y="-18.5" font-family="Helvetica,sans-Serif" font-size="10.00">PerceptualColor::ChromaHue</text>
<text text-anchor="middle" x="79" y="-7.5" font-family="Helvetica,sans-Serif" font-size="10.00">Diagram::wheelEvent</text>
</a>
</g>
</g>
<!-- Node1&#45;&gt;Node4 -->
<g id="edge3" class="edge">
<title>Node1&#45;&gt;Node4</title>
<path fill="none" stroke="midnightblue" d="M193.71,-41.6C177.3,-37.83 160.66,-34.01 145.37,-30.5"/>
<polygon fill="midnightblue" stroke="midnightblue" points="193.36,-45.11 203.88,-43.93 194.92,-38.28 193.36,-45.11"/>
</g>
</g>
</svg>
