<?xml version="1.0" encoding="UTF-8" standalone="no"?>
<!DOCTYPE svg PUBLIC "-//W3C//DTD SVG 1.1//EN"
 "http://www.w3.org/Graphics/SVG/1.1/DTD/svg11.dtd">
<!-- Generated by graphviz version 2.43.0 (0)
 -->
<!-- Title: PerceptualColor::CircularDiagram Pages: 1 -->
<svg width="343pt" height="296pt"
 viewBox="0.00 0.00 342.50 296.00" xmlns="http://www.w3.org/2000/svg" xmlns:xlink="http://www.w3.org/1999/xlink">
<g id="graph0" class="graph" transform="scale(1 1) rotate(0) translate(4 292)">
<title>PerceptualColor::CircularDiagram</title>
<polygon fill="white" stroke="transparent" points="-4,4 -4,-292 338.5,-292 338.5,4 -4,4"/>
<!-- Node1 -->
<g id="node1" class="node">
<title>Node1</title>
<g id="a_node1"><a xlink:title="Base class for circular diagrams.">
<polygon fill="#bfbfbf" stroke="black" points="98.5,-134.5 98.5,-164.5 235.5,-164.5 235.5,-134.5 98.5,-134.5"/>
<text text-anchor="start" x="106.5" y="-152.5" font-family="Helvetica,sans-Serif" font-size="10.00">PerceptualColor::Circular</text>
<text text-anchor="middle" x="167" y="-141.5" font-family="Helvetica,sans-Serif" font-size="10.00">Diagram</text>
</a>
</g>
</g>
<!-- Node4 -->
<g id="node4" class="node">
<title>Node4</title>
<g id="a_node4"><a xlink:href="class_perceptual_color_1_1_chroma_hue_diagram.html" target="_top" xlink:title="A widget for selecting chroma and hue in LCh color space.">
<polygon fill="white" stroke="black" points="0,-67.5 0,-97.5 158,-97.5 158,-67.5 0,-67.5"/>
<text text-anchor="start" x="8" y="-85.5" font-family="Helvetica,sans-Serif" font-size="10.00">PerceptualColor::ChromaHue</text>
<text text-anchor="middle" x="79" y="-74.5" font-family="Helvetica,sans-Serif" font-size="10.00">Diagram</text>
</a>
</g>
</g>
<!-- Node1&#45;&gt;Node4 -->
<g id="edge3" class="edge">
<title>Node1&#45;&gt;Node4</title>
<path fill="none" stroke="midnightblue" d="M139.86,-128.45C126.32,-118.45 110.27,-106.6 98.06,-97.58"/>
<polygon fill="midnightblue" stroke="midnightblue" points="137.78,-131.27 147.91,-134.4 141.94,-125.64 137.78,-131.27"/>
</g>
<!-- Node5 -->
<g id="node5" class="node">
<title>Node5</title>
<g id="a_node5"><a xlink:href="class_perceptual_color_1_1_simple_color_wheel.html" target="_top" xlink:title="Widget to choose the hue in a wheel.">
<polygon fill="white" stroke="black" points="175.5,-67.5 175.5,-97.5 334.5,-97.5 334.5,-67.5 175.5,-67.5"/>
<text text-anchor="start" x="183.5" y="-85.5" font-family="Helvetica,sans-Serif" font-size="10.00">PerceptualColor::SimpleColor</text>
<text text-anchor="middle" x="255" y="-74.5" font-family="Helvetica,sans-Serif" font-size="10.00">Wheel</text>
</a>
</g>
</g>
<!-- Node1&#45;&gt;Node5 -->
<g id="edge4" class="edge">
<title>Node1&#45;&gt;Node5</title>
<path fill="none" stroke="midnightblue" d="M194.14,-128.45C207.68,-118.45 223.73,-106.6 235.94,-97.58"/>
<polygon fill="midnightblue" stroke="midnightblue" points="192.06,-125.64 186.09,-134.4 196.22,-131.27 192.06,-125.64"/>
</g>
<!-- Node2 -->
<g id="node2" class="node">
<title>Node2</title>
<g id="a_node2"><a xlink:href="class_perceptual_color_1_1_abstract_diagram.html" target="_top" xlink:title="Base class for LCh diagrams.">
<polygon fill="white" stroke="black" points="97,-201.5 97,-231.5 237,-231.5 237,-201.5 97,-201.5"/>
<text text-anchor="start" x="105" y="-219.5" font-family="Helvetica,sans-Serif" font-size="10.00">PerceptualColor::Abstract</text>
<text text-anchor="middle" x="167" y="-208.5" font-family="Helvetica,sans-Serif" font-size="10.00">Diagram</text>
</a>
</g>
</g>
<!-- Node2&#45;&gt;Node1 -->
<g id="edge1" class="edge">
<title>Node2&#45;&gt;Node1</title>
<path fill="none" stroke="midnightblue" d="M167,-191.11C167,-182.15 167,-172.32 167,-164.58"/>
<polygon fill="midnightblue" stroke="midnightblue" points="163.5,-191.4 167,-201.4 170.5,-191.4 163.5,-191.4"/>
</g>
<!-- Node3 -->
<g id="node3" class="node">
<title>Node3</title>
<g id="a_node3"><a xlink:title=" ">
<polygon fill="white" stroke="#bfbfbf" points="137.5,-268.5 137.5,-287.5 196.5,-287.5 196.5,-268.5 137.5,-268.5"/>
<text text-anchor="middle" x="167" y="-275.5" font-family="Helvetica,sans-Serif" font-size="10.00">QWidget</text>
</a>
</g>
</g>
<!-- Node3&#45;&gt;Node2 -->
<g id="edge2" class="edge">
<title>Node3&#45;&gt;Node2</title>
<path fill="none" stroke="midnightblue" d="M167,-258.23C167,-249.59 167,-239.5 167,-231.52"/>
<polygon fill="midnightblue" stroke="midnightblue" points="163.5,-258.48 167,-268.48 170.5,-258.48 163.5,-258.48"/>
</g>
<!-- Node6 -->
<g id="node6" class="node">
<title>Node6</title>
<g id="a_node6"><a xlink:href="class_perceptual_color_1_1_wheel_color_picker.html" target="_top" xlink:title="Complete wheel&#45;based color picker widget.">
<polygon fill="white" stroke="black" points="177,-0.5 177,-30.5 333,-30.5 333,-0.5 177,-0.5"/>
<text text-anchor="start" x="185" y="-18.5" font-family="Helvetica,sans-Serif" font-size="10.00">PerceptualColor::WheelColor</text>
<text text-anchor="middle" x="255" y="-7.5" font-family="Helvetica,sans-Serif" font-size="10.00">Picker</text>
</a>
</g>
</g>
<!-- Node5&#45;&gt;Node6 -->
<g id="edge5" class="edge">
<title>Node5&#45;&gt;Node6</title>
<path fill="none" stroke="midnightblue" d="M255,-57.11C255,-48.15 255,-38.32 255,-30.58"/>
<polygon fill="midnightblue" stroke="midnightblue" points="251.5,-57.4 255,-67.4 258.5,-57.4 251.5,-57.4"/>
</g>
</g>
</svg>
