<?xml version="1.0" encoding="UTF-8" standalone="no"?>
<!DOCTYPE svg PUBLIC "-//W3C//DTD SVG 1.1//EN"
 "http://www.w3.org/Graphics/SVG/1.1/DTD/svg11.dtd">
<!-- Generated by graphviz version 2.43.0 (0)
 -->
<!-- Title: PerceptualColor::ChromaLightnessDiagram::paintEvent Pages: 1 -->
<svg width="1229pt" height="122pt"
 viewBox="0.00 0.00 1229.00 121.57" xmlns="http://www.w3.org/2000/svg" xmlns:xlink="http://www.w3.org/1999/xlink">
<g id="graph0" class="graph" transform="scale(1 1) rotate(0) translate(4 117.57)">
<title>PerceptualColor::ChromaLightnessDiagram::paintEvent</title>
<polygon fill="white" stroke="transparent" points="-4,4 -4,-117.57 1225,-117.57 1225,4 -4,4"/>
<!-- Node1 -->
<g id="node1" class="node">
<title>Node1</title>
<g id="a_node1"><a xlink:title="Paint the widget.">
<polygon fill="#bfbfbf" stroke="black" points="0,-67.5 0,-97.5 185,-97.5 185,-67.5 0,-67.5"/>
<text text-anchor="start" x="8" y="-85.5" font-family="Helvetica,sans-Serif" font-size="10.00">PerceptualColor::ChromaLightness</text>
<text text-anchor="middle" x="92.5" y="-74.5" font-family="Helvetica,sans-Serif" font-size="10.00">Diagram::paintEvent</text>
</a>
</g>
</g>
<!-- Node2 -->
<g id="node2" class="node">
<title>Node2</title>
<g id="a_node2"><a xlink:href="class_perceptual_color_1_1_chroma_lightness_diagram.html#a9f6471b44d4f4eba95914945bc53037a" target="_top" xlink:title=" ">
<polygon fill="white" stroke="black" points="221,-67.5 221,-97.5 409,-97.5 409,-67.5 221,-67.5"/>
<text text-anchor="start" x="229" y="-85.5" font-family="Helvetica,sans-Serif" font-size="10.00">PerceptualColor::ChromaLightness</text>
<text text-anchor="middle" x="315" y="-74.5" font-family="Helvetica,sans-Serif" font-size="10.00">Diagram::currentImageCoordinates</text>
</a>
</g>
</g>
<!-- Node1&#45;&gt;Node2 -->
<g id="edge1" class="edge">
<title>Node1&#45;&gt;Node2</title>
<path fill="none" stroke="midnightblue" d="M185.1,-82.5C193.6,-82.5 202.26,-82.5 210.86,-82.5"/>
<polygon fill="midnightblue" stroke="midnightblue" points="210.91,-86 220.91,-82.5 210.91,-79 210.91,-86"/>
</g>
<!-- Node3 -->
<g id="node3" class="node">
<title>Node3</title>
<g id="a_node3"><a xlink:href="class_perceptual_color_1_1_full_color_description.html#acdbff4639f8a118f0d13a831a4b57ffe" target="_top" xlink:title=" ">
<polygon fill="white" stroke="black" points="687,-73.5 687,-103.5 830,-103.5 830,-73.5 687,-73.5"/>
<text text-anchor="start" x="695" y="-91.5" font-family="Helvetica,sans-Serif" font-size="10.00">PerceptualColor::FullColor</text>
<text text-anchor="middle" x="758.5" y="-80.5" font-family="Helvetica,sans-Serif" font-size="10.00">Description::toLch</text>
</a>
</g>
</g>
<!-- Node1&#45;&gt;Node3 -->
<g id="edge9" class="edge">
<title>Node1&#45;&gt;Node3</title>
<path fill="none" stroke="midnightblue" d="M160.33,-97.5C179.79,-101.21 201.15,-104.65 221,-106.5 381.97,-121.52 571.13,-107.92 676.37,-97.59"/>
<polygon fill="midnightblue" stroke="midnightblue" points="677,-101.04 686.6,-96.57 676.3,-94.08 677,-101.04"/>
</g>
<!-- Node4 -->
<g id="node4" class="node">
<title>Node4</title>
<g id="a_node4"><a xlink:href="class_perceptual_color_1_1_chroma_lightness_diagram.html#a7d48f62249ffee09f55edfd3c127eb84" target="_top" xlink:title="Refresh the diagram and associated data.">
<polygon fill="white" stroke="black" points="445,-26.5 445,-56.5 630,-56.5 630,-26.5 445,-26.5"/>
<text text-anchor="start" x="453" y="-44.5" font-family="Helvetica,sans-Serif" font-size="10.00">PerceptualColor::ChromaLightness</text>
<text text-anchor="middle" x="537.5" y="-33.5" font-family="Helvetica,sans-Serif" font-size="10.00">Diagram::updateDiagramCache</text>
</a>
</g>
</g>
<!-- Node1&#45;&gt;Node4 -->
<g id="edge10" class="edge">
<title>Node1&#45;&gt;Node4</title>
<path fill="none" stroke="midnightblue" d="M160.7,-67.46C180.07,-63.63 201.3,-59.92 221,-57.5 292.03,-48.78 372.62,-44.79 434.57,-42.98"/>
<polygon fill="midnightblue" stroke="midnightblue" points="434.84,-46.47 444.74,-42.7 434.64,-39.48 434.84,-46.47"/>
</g>
<!-- Node2&#45;&gt;Node3 -->
<g id="edge2" class="edge">
<title>Node2&#45;&gt;Node3</title>
<path fill="none" stroke="midnightblue" d="M409.09,-83.77C488.22,-84.84 600.7,-86.37 676.25,-87.4"/>
<polygon fill="midnightblue" stroke="midnightblue" points="676.61,-90.9 686.66,-87.54 676.71,-83.9 676.61,-90.9"/>
</g>
<!-- Node2&#45;&gt;Node4 -->
<g id="edge3" class="edge">
<title>Node2&#45;&gt;Node4</title>
<path fill="none" stroke="midnightblue" d="M396.85,-67.47C412.73,-64.51 429.49,-61.4 445.67,-58.39"/>
<polygon fill="midnightblue" stroke="midnightblue" points="446.46,-61.8 455.66,-56.53 445.18,-54.92 446.46,-61.8"/>
</g>
<!-- Node4&#45;&gt;Node3 -->
<g id="edge8" class="edge">
<title>Node4&#45;&gt;Node3</title>
<path fill="none" stroke="midnightblue" d="M608.4,-56.5C630.42,-61.23 654.92,-66.49 677.59,-71.35"/>
<polygon fill="midnightblue" stroke="midnightblue" points="677.01,-74.8 687.52,-73.48 678.47,-67.96 677.01,-74.8"/>
</g>
<!-- Node5 -->
<g id="node5" class="node">
<title>Node5</title>
<g id="a_node5"><a xlink:href="class_perceptual_color_1_1_chroma_lightness_diagram.html#ae0395993434db2cd0d74b146fed6621c" target="_top" xlink:title="Generates an image of a chroma&#45;lightness diagram.">
<polygon fill="white" stroke="black" points="666,-24.5 666,-54.5 851,-54.5 851,-24.5 666,-24.5"/>
<text text-anchor="start" x="674" y="-42.5" font-family="Helvetica,sans-Serif" font-size="10.00">PerceptualColor::ChromaLightness</text>
<text text-anchor="middle" x="758.5" y="-31.5" font-family="Helvetica,sans-Serif" font-size="10.00">Diagram::generateDiagramImage</text>
</a>
</g>
</g>
<!-- Node4&#45;&gt;Node5 -->
<g id="edge4" class="edge">
<title>Node4&#45;&gt;Node5</title>
<path fill="none" stroke="midnightblue" d="M630.11,-40.66C638.62,-40.59 647.27,-40.51 655.86,-40.43"/>
<polygon fill="midnightblue" stroke="midnightblue" points="655.94,-43.93 665.91,-40.34 655.88,-36.93 655.94,-43.93"/>
</g>
<!-- Node6 -->
<g id="node6" class="node">
<title>Node6</title>
<g id="a_node6"><a xlink:href="class_perceptual_color_1_1_rgb_color_space.html#ab494c2d0f561c49b8325688a8ddc0095" target="_top" xlink:title="Calculates the RGB value.">
<polygon fill="white" stroke="black" points="889.5,-49.5 889.5,-79.5 1033.5,-79.5 1033.5,-49.5 889.5,-49.5"/>
<text text-anchor="start" x="897.5" y="-67.5" font-family="Helvetica,sans-Serif" font-size="10.00">PerceptualColor::RgbColor</text>
<text text-anchor="middle" x="961.5" y="-56.5" font-family="Helvetica,sans-Serif" font-size="10.00">Space::colorRgb</text>
</a>
</g>
</g>
<!-- Node5&#45;&gt;Node6 -->
<g id="edge5" class="edge">
<title>Node5&#45;&gt;Node6</title>
<path fill="none" stroke="midnightblue" d="M851.18,-50.9C860.61,-52.08 870.14,-53.26 879.44,-54.42"/>
<polygon fill="midnightblue" stroke="midnightblue" points="879.07,-57.9 889.43,-55.66 879.94,-50.95 879.07,-57.9"/>
</g>
<!-- Node7 -->
<g id="node7" class="node">
<title>Node7</title>
<g id="a_node7"><a xlink:href="class_perceptual_color_1_1_polar_point_f.html#a9eefd08d3a5ad536232292380f958804" target="_top" xlink:title="Normalizes an angle.">
<polygon fill="white" stroke="black" points="887,-0.5 887,-30.5 1036,-30.5 1036,-0.5 887,-0.5"/>
<text text-anchor="start" x="895" y="-18.5" font-family="Helvetica,sans-Serif" font-size="10.00">PerceptualColor::PolarPoint</text>
<text text-anchor="middle" x="961.5" y="-7.5" font-family="Helvetica,sans-Serif" font-size="10.00">F::normalizedAngleDegree</text>
</a>
</g>
</g>
<!-- Node5&#45;&gt;Node7 -->
<g id="edge6" class="edge">
<title>Node5&#45;&gt;Node7</title>
<path fill="none" stroke="midnightblue" d="M851.18,-28.55C859.64,-27.54 868.19,-26.52 876.58,-25.52"/>
<polygon fill="midnightblue" stroke="midnightblue" points="877.21,-28.97 886.72,-24.31 876.38,-22.02 877.21,-28.97"/>
</g>
<!-- Node8 -->
<g id="node8" class="node">
<title>Node8</title>
<g id="a_node8"><a xlink:href="class_perceptual_color_1_1_polar_point_f.html#a882cd166affc603fc62241dcb3be4fd5" target="_top" xlink:title="Normalized angle.">
<polygon fill="white" stroke="black" points="1072,-0.5 1072,-30.5 1221,-30.5 1221,-0.5 1072,-0.5"/>
<text text-anchor="start" x="1080" y="-18.5" font-family="Helvetica,sans-Serif" font-size="10.00">PerceptualColor::PolarPoint</text>
<text text-anchor="middle" x="1146.5" y="-7.5" font-family="Helvetica,sans-Serif" font-size="10.00">F::angleDegree</text>
</a>
</g>
</g>
<!-- Node7&#45;&gt;Node8 -->
<g id="edge7" class="edge">
<title>Node7&#45;&gt;Node8</title>
<path fill="none" stroke="midnightblue" d="M1036.14,-15.5C1044.47,-15.5 1053.01,-15.5 1061.46,-15.5"/>
<polygon fill="midnightblue" stroke="midnightblue" points="1061.71,-19 1071.71,-15.5 1061.71,-12 1061.71,-19"/>
</g>
</g>
</svg>
