<?xml version="1.0" encoding="UTF-8" standalone="no"?>
<!DOCTYPE svg PUBLIC "-//W3C//DTD SVG 1.1//EN"
 "http://www.w3.org/Graphics/SVG/1.1/DTD/svg11.dtd">
<!-- Generated by graphviz version 2.43.0 (0)
 -->
<!-- Title: PerceptualColor::FullColorDescription::FullColorDescription Pages: 1 -->
<svg width="364pt" height="88pt"
 viewBox="0.00 0.00 364.00 88.00" xmlns="http://www.w3.org/2000/svg" xmlns:xlink="http://www.w3.org/1999/xlink">
<g id="graph0" class="graph" transform="scale(1 1) rotate(0) translate(4 84)">
<title>PerceptualColor::FullColorDescription::FullColorDescription</title>
<polygon fill="white" stroke="transparent" points="-4,4 -4,-84 360,-84 360,4 -4,4"/>
<!-- Node1 -->
<g id="node1" class="node">
<title>Node1</title>
<g id="a_node1"><a xlink:title="Constructor.">
<polygon fill="#bfbfbf" stroke="black" points="0,-24.5 0,-54.5 176,-54.5 176,-24.5 0,-24.5"/>
<text text-anchor="start" x="8" y="-42.5" font-family="Helvetica,sans-Serif" font-size="10.00">PerceptualColor::FullColor</text>
<text text-anchor="middle" x="88" y="-31.5" font-family="Helvetica,sans-Serif" font-size="10.00">Description::FullColorDescription</text>
</a>
</g>
</g>
<!-- Node2 -->
<g id="node2" class="node">
<title>Node2</title>
<g id="a_node2"><a xlink:href="class_perceptual_color_1_1_rgb_color_space.html#a813721e6284e83c8493f1557eeeb4469" target="_top" xlink:title="Calculates the Lab value.">
<polygon fill="white" stroke="black" points="212,-49.5 212,-79.5 356,-79.5 356,-49.5 212,-49.5"/>
<text text-anchor="start" x="220" y="-67.5" font-family="Helvetica,sans-Serif" font-size="10.00">PerceptualColor::RgbColor</text>
<text text-anchor="middle" x="284" y="-56.5" font-family="Helvetica,sans-Serif" font-size="10.00">Space::colorLab</text>
</a>
</g>
</g>
<!-- Node1&#45;&gt;Node2 -->
<g id="edge1" class="edge">
<title>Node1&#45;&gt;Node2</title>
<path fill="none" stroke="midnightblue" d="M176.07,-50.72C184.68,-51.83 193.41,-52.95 201.96,-54.06"/>
<polygon fill="midnightblue" stroke="midnightblue" points="201.53,-57.53 211.9,-55.34 202.43,-50.59 201.53,-57.53"/>
</g>
<!-- Node3 -->
<g id="node3" class="node">
<title>Node3</title>
<g id="a_node3"><a xlink:href="class_perceptual_color_1_1_full_color_description.html#acdbff4639f8a118f0d13a831a4b57ffe" target="_top" xlink:title=" ">
<polygon fill="white" stroke="black" points="212.5,-0.5 212.5,-30.5 355.5,-30.5 355.5,-0.5 212.5,-0.5"/>
<text text-anchor="start" x="220.5" y="-18.5" font-family="Helvetica,sans-Serif" font-size="10.00">PerceptualColor::FullColor</text>
<text text-anchor="middle" x="284" y="-7.5" font-family="Helvetica,sans-Serif" font-size="10.00">Description::toLch</text>
</a>
</g>
</g>
<!-- Node1&#45;&gt;Node3 -->
<g id="edge2" class="edge">
<title>Node1&#45;&gt;Node3</title>
<path fill="none" stroke="midnightblue" d="M176.07,-28.73C184.83,-27.64 193.7,-26.55 202.39,-25.47"/>
<polygon fill="midnightblue" stroke="midnightblue" points="202.99,-28.92 212.49,-24.22 202.13,-21.98 202.99,-28.92"/>
</g>
</g>
</svg>
