<?xml version="1.0" encoding="UTF-8" standalone="no"?>
<!DOCTYPE svg PUBLIC "-//W3C//DTD SVG 1.1//EN"
 "http://www.w3.org/Graphics/SVG/1.1/DTD/svg11.dtd">
<!-- Generated by graphviz version 2.43.0 (0)
 -->
<!-- Title: PerceptualColor::SimpleColorWheel::resetWheelRibbonChroma Pages: 1 -->
<svg width="396pt" height="39pt"
 viewBox="0.00 0.00 396.00 39.00" xmlns="http://www.w3.org/2000/svg" xmlns:xlink="http://www.w3.org/1999/xlink">
<g id="graph0" class="graph" transform="scale(1 1) rotate(0) translate(4 35)">
<title>PerceptualColor::SimpleColorWheel::resetWheelRibbonChroma</title>
<polygon fill="white" stroke="transparent" points="-4,4 -4,-35 392,-35 392,4 -4,4"/>
<!-- Node1 -->
<g id="node1" class="node">
<title>Node1</title>
<g id="a_node1"><a xlink:title="Reset the wheelRibbonChroma() property.">
<polygon fill="#bfbfbf" stroke="black" points="0,-0.5 0,-30.5 181,-30.5 181,-0.5 0,-0.5"/>
<text text-anchor="start" x="8" y="-18.5" font-family="Helvetica,sans-Serif" font-size="10.00">PerceptualColor::SimpleColor</text>
<text text-anchor="middle" x="90.5" y="-7.5" font-family="Helvetica,sans-Serif" font-size="10.00">Wheel::resetWheelRibbonChroma</text>
</a>
</g>
</g>
<!-- Node2 -->
<g id="node2" class="node">
<title>Node2</title>
<g id="a_node2"><a xlink:href="class_perceptual_color_1_1_simple_color_wheel.html#aba9b4f7471aea4bbe77a8eb1ccc6d9e6" target="_top" xlink:title=" ">
<polygon fill="white" stroke="black" points="217,-0.5 217,-30.5 388,-30.5 388,-0.5 217,-0.5"/>
<text text-anchor="start" x="225" y="-18.5" font-family="Helvetica,sans-Serif" font-size="10.00">PerceptualColor::SimpleColor</text>
<text text-anchor="middle" x="302.5" y="-7.5" font-family="Helvetica,sans-Serif" font-size="10.00">Wheel::setWheelRibbonChroma</text>
</a>
</g>
</g>
<!-- Node1&#45;&gt;Node2 -->
<g id="edge1" class="edge">
<title>Node1&#45;&gt;Node2</title>
<path fill="none" stroke="midnightblue" d="M181.17,-15.5C189.57,-15.5 198.1,-15.5 206.55,-15.5"/>
<polygon fill="midnightblue" stroke="midnightblue" points="206.8,-19 216.8,-15.5 206.8,-12 206.8,-19"/>
</g>
</g>
</svg>
