<?xml version="1.0" encoding="UTF-8" standalone="no"?>
<!DOCTYPE svg PUBLIC "-//W3C//DTD SVG 1.1//EN"
 "http://www.w3.org/Graphics/SVG/1.1/DTD/svg11.dtd">
<!-- Generated by graphviz version 2.43.0 (0)
 -->
<!-- Title: PerceptualColor::FullColorDescription::toRgbQColor Pages: 1 -->
<svg width="1321pt" height="404pt"
 viewBox="0.00 0.00 1321.00 403.71" xmlns="http://www.w3.org/2000/svg" xmlns:xlink="http://www.w3.org/1999/xlink">
<g id="graph0" class="graph" transform="scale(1 1) rotate(0) translate(4 399.71)">
<title>PerceptualColor::FullColorDescription::toRgbQColor</title>
<polygon fill="white" stroke="transparent" points="-4,4 -4,-399.71 1317,-399.71 1317,4 -4,4"/>
<!-- Node1 -->
<g id="node1" class="node">
<title>Node1</title>
<g id="a_node1"><a xlink:title=" ">
<polygon fill="#bfbfbf" stroke="black" points="1170,-190.75 1170,-220.75 1313,-220.75 1313,-190.75 1170,-190.75"/>
<text text-anchor="start" x="1178" y="-208.75" font-family="Helvetica,sans-Serif" font-size="10.00">PerceptualColor::FullColor</text>
<text text-anchor="middle" x="1241.5" y="-197.75" font-family="Helvetica,sans-Serif" font-size="10.00">Description::toRgbQColor</text>
</a>
</g>
</g>
<!-- Node2 -->
<g id="node2" class="node">
<title>Node2</title>
<g id="a_node2"><a xlink:href="namespace_perceptual_color.html#a620b7112ca52bb01e49162724d26887f" target="_top" xlink:title="Adds QDebug() support for this data type.">
<polygon fill="white" stroke="black" points="970.5,-262.25 970.5,-281.25 1128.5,-281.25 1128.5,-262.25 970.5,-262.25"/>
<text text-anchor="middle" x="1049.5" y="-269.25" font-family="Helvetica,sans-Serif" font-size="10.00">PerceptualColor::operator&lt;&lt;</text>
</a>
</g>
</g>
<!-- Node1&#45;&gt;Node2 -->
<g id="edge1" class="edge">
<title>Node1&#45;&gt;Node2</title>
<path fill="none" stroke="midnightblue" d="M1201.06,-225.33C1181.28,-234.58 1156.75,-245.22 1134,-252.75 1123.13,-256.35 1111.25,-259.5 1099.94,-262.15"/>
<polygon fill="midnightblue" stroke="midnightblue" points="1202.82,-228.36 1210.35,-220.91 1199.82,-222.04 1202.82,-228.36"/>
</g>
<!-- Node3 -->
<g id="node3" class="node">
<title>Node3</title>
<g id="a_node3"><a xlink:href="class_perceptual_color_1_1_color_dialog.html#abd0da334b7034a67a3cc83bc3ed0a425" target="_top" xlink:title="Updates m_currentOpaqueColor and all affected widgets.">
<polygon fill="white" stroke="black" points="772,-170.75 772,-200.75 929,-200.75 929,-170.75 772,-170.75"/>
<text text-anchor="start" x="780" y="-188.75" font-family="Helvetica,sans-Serif" font-size="10.00">PerceptualColor::ColorDialog</text>
<text text-anchor="middle" x="850.5" y="-177.75" font-family="Helvetica,sans-Serif" font-size="10.00">::setCurrentOpaqueColor</text>
</a>
</g>
</g>
<!-- Node1&#45;&gt;Node3 -->
<g id="edge2" class="edge">
<title>Node1&#45;&gt;Node3</title>
<path fill="none" stroke="midnightblue" d="M1159.41,-201.58C1091.76,-198.1 995.96,-193.18 929.25,-189.75"/>
<polygon fill="midnightblue" stroke="midnightblue" points="1159.44,-205.09 1169.6,-202.1 1159.8,-198.1 1159.44,-205.09"/>
</g>
<!-- Node15 -->
<g id="node15" class="node">
<title>Node15</title>
<g id="a_node15"><a xlink:href="class_perceptual_color_1_1_color_dialog.html#a18985e0cf14c64400f1edc5f64da159d" target="_top" xlink:title="Updates the color patch widget.">
<polygon fill="white" stroke="black" points="971,-212.75 971,-242.75 1128,-242.75 1128,-212.75 971,-212.75"/>
<text text-anchor="start" x="979" y="-230.75" font-family="Helvetica,sans-Serif" font-size="10.00">PerceptualColor::ColorDialog</text>
<text text-anchor="middle" x="1049.5" y="-219.75" font-family="Helvetica,sans-Serif" font-size="10.00">::updateColorPatch</text>
</a>
</g>
</g>
<!-- Node1&#45;&gt;Node15 -->
<g id="edge21" class="edge">
<title>Node1&#45;&gt;Node15</title>
<path fill="none" stroke="midnightblue" d="M1159.75,-215.1C1149.23,-216.32 1138.47,-217.56 1128.01,-218.77"/>
<polygon fill="midnightblue" stroke="midnightblue" points="1160.22,-218.57 1169.75,-213.94 1159.41,-211.61 1160.22,-218.57"/>
</g>
<!-- Node16 -->
<g id="node16" class="node">
<title>Node16</title>
<g id="a_node16"><a xlink:href="class_perceptual_color_1_1_gradient_selector.html#a82a87ec1701c4db18f821c3b35026e90" target="_top" xlink:title=" ">
<polygon fill="white" stroke="black" points="965,-123.75 965,-153.75 1134,-153.75 1134,-123.75 965,-123.75"/>
<text text-anchor="start" x="973" y="-141.75" font-family="Helvetica,sans-Serif" font-size="10.00">PerceptualColor::Gradient</text>
<text text-anchor="middle" x="1049.5" y="-130.75" font-family="Helvetica,sans-Serif" font-size="10.00">Selector::updateGradientImage</text>
</a>
</g>
</g>
<!-- Node1&#45;&gt;Node16 -->
<g id="edge24" class="edge">
<title>Node1&#45;&gt;Node16</title>
<path fill="none" stroke="midnightblue" d="M1188.04,-187.25C1158.23,-176.74 1121.38,-163.74 1093.33,-153.85"/>
<polygon fill="midnightblue" stroke="midnightblue" points="1187.27,-190.69 1197.86,-190.71 1189.59,-184.09 1187.27,-190.69"/>
</g>
<!-- Node4 -->
<g id="node4" class="node">
<title>Node4</title>
<g id="a_node4"><a xlink:href="class_perceptual_color_1_1_color_dialog.html#ad31fb985e1323cdf1208c91f16fe2a51" target="_top" xlink:title="Basic initialization.">
<polygon fill="white" stroke="black" points="193,-192.75 193,-222.75 350,-222.75 350,-192.75 193,-192.75"/>
<text text-anchor="start" x="201" y="-210.75" font-family="Helvetica,sans-Serif" font-size="10.00">PerceptualColor::ColorDialog</text>
<text text-anchor="middle" x="271.5" y="-199.75" font-family="Helvetica,sans-Serif" font-size="10.00">::initialize</text>
</a>
</g>
</g>
<!-- Node3&#45;&gt;Node4 -->
<g id="edge3" class="edge">
<title>Node3&#45;&gt;Node4</title>
<path fill="none" stroke="midnightblue" d="M761.46,-179.2C668,-173.63 516.12,-168.59 386,-182.75 367.35,-184.78 347.27,-188.63 329.26,-192.72"/>
<polygon fill="midnightblue" stroke="midnightblue" points="761.53,-182.71 771.72,-179.82 761.96,-175.72 761.53,-182.71"/>
</g>
<!-- Node6 -->
<g id="node6" class="node">
<title>Node6</title>
<g id="a_node6"><a xlink:href="class_perceptual_color_1_1_color_dialog.html#adf67594f0cb9416b245d6cf726f18bf4" target="_top" xlink:title="Reads the HLC numbers in the dialog and updates the dialog accordingly.">
<polygon fill="white" stroke="black" points="579,-104.75 579,-134.75 736,-134.75 736,-104.75 579,-104.75"/>
<text text-anchor="start" x="587" y="-122.75" font-family="Helvetica,sans-Serif" font-size="10.00">PerceptualColor::ColorDialog</text>
<text text-anchor="middle" x="657.5" y="-111.75" font-family="Helvetica,sans-Serif" font-size="10.00">::readHlcNumericValues</text>
</a>
</g>
</g>
<!-- Node3&#45;&gt;Node6 -->
<g id="edge5" class="edge">
<title>Node3&#45;&gt;Node6</title>
<path fill="none" stroke="midnightblue" d="M792.03,-167.45C785.26,-165.23 778.47,-162.96 772,-160.75 747.71,-152.45 720.68,-142.7 699.09,-134.8"/>
<polygon fill="midnightblue" stroke="midnightblue" points="791.28,-170.89 801.87,-170.67 793.45,-164.24 791.28,-170.89"/>
</g>
<!-- Node8 -->
<g id="node8" class="node">
<title>Node8</title>
<g id="a_node8"><a xlink:href="class_perceptual_color_1_1_color_dialog.html#a2a48f4c33652bc9a1a0cb22fd0a6b221" target="_top" xlink:title="Reads the value from the lightness selector in the dialog and updates the dialog accordingly.">
<polygon fill="white" stroke="black" points="579,-285.75 579,-315.75 736,-315.75 736,-285.75 579,-285.75"/>
<text text-anchor="start" x="587" y="-303.75" font-family="Helvetica,sans-Serif" font-size="10.00">PerceptualColor::ColorDialog</text>
<text text-anchor="middle" x="657.5" y="-292.75" font-family="Helvetica,sans-Serif" font-size="10.00">::readLightnessValue</text>
</a>
</g>
</g>
<!-- Node3&#45;&gt;Node8 -->
<g id="edge9" class="edge">
<title>Node3&#45;&gt;Node8</title>
<path fill="none" stroke="midnightblue" d="M816.2,-206.12C793.61,-219.91 763.05,-238.5 736,-254.75 718.7,-265.14 699.15,-276.74 684.02,-285.69"/>
<polygon fill="midnightblue" stroke="midnightblue" points="818.04,-209.1 824.75,-200.9 814.39,-203.12 818.04,-209.1"/>
</g>
<!-- Node9 -->
<g id="node9" class="node">
<title>Node9</title>
<g id="a_node9"><a xlink:href="class_perceptual_color_1_1_color_dialog.html#a64b6c698ebfaf2461c513ebbb7ef2637" target="_top" xlink:title="Setter for currentColor property.">
<polygon fill="white" stroke="black" points="579,-16.75 579,-46.75 736,-46.75 736,-16.75 579,-16.75"/>
<text text-anchor="start" x="587" y="-34.75" font-family="Helvetica,sans-Serif" font-size="10.00">PerceptualColor::ColorDialog</text>
<text text-anchor="middle" x="657.5" y="-23.75" font-family="Helvetica,sans-Serif" font-size="10.00">::setCurrentColor</text>
</a>
</g>
</g>
<!-- Node3&#45;&gt;Node9 -->
<g id="edge11" class="edge">
<title>Node3&#45;&gt;Node9</title>
<path fill="none" stroke="midnightblue" d="M778.47,-165.5C776.21,-164.03 774.05,-162.45 772,-160.75 746.27,-139.44 757.37,-120.44 736,-94.75 720.26,-75.82 698.13,-58.51 681.55,-46.84"/>
<polygon fill="midnightblue" stroke="midnightblue" points="777.13,-168.77 787.55,-170.68 780.6,-162.69 777.13,-168.77"/>
</g>
<!-- Node11 -->
<g id="node11" class="node">
<title>Node11</title>
<g id="a_node11"><a xlink:href="class_perceptual_color_1_1_color_dialog.html#acf0e7b1b619cee3fc7f5a992e2c93e7d" target="_top" xlink:title="Convenience version of setCurrentOpaqueColor(), accepting QColor.">
<polygon fill="white" stroke="black" points="579,-214.75 579,-244.75 736,-244.75 736,-214.75 579,-214.75"/>
<text text-anchor="start" x="587" y="-232.75" font-family="Helvetica,sans-Serif" font-size="10.00">PerceptualColor::ColorDialog</text>
<text text-anchor="middle" x="657.5" y="-221.75" font-family="Helvetica,sans-Serif" font-size="10.00">::setCurrentOpaqueQColor</text>
</a>
</g>
</g>
<!-- Node3&#45;&gt;Node11 -->
<g id="edge14" class="edge">
<title>Node3&#45;&gt;Node11</title>
<path fill="none" stroke="midnightblue" d="M774.54,-203.02C757.75,-206.88 740.08,-210.96 723.73,-214.72"/>
<polygon fill="midnightblue" stroke="midnightblue" points="775.34,-206.42 784.3,-200.77 773.77,-199.6 775.34,-206.42"/>
</g>
<!-- Node5 -->
<g id="node5" class="node">
<title>Node5</title>
<g id="a_node5"><a xlink:href="class_perceptual_color_1_1_color_dialog.html#a3c1ad1040ede00087aa11fab1514a6e7" target="_top" xlink:title="Constructor.">
<polygon fill="white" stroke="black" points="0,-82.75 0,-112.75 157,-112.75 157,-82.75 0,-82.75"/>
<text text-anchor="start" x="8" y="-100.75" font-family="Helvetica,sans-Serif" font-size="10.00">PerceptualColor::ColorDialog</text>
<text text-anchor="middle" x="78.5" y="-89.75" font-family="Helvetica,sans-Serif" font-size="10.00">::ColorDialog</text>
</a>
</g>
</g>
<!-- Node4&#45;&gt;Node5 -->
<g id="edge4" class="edge">
<title>Node4&#45;&gt;Node5</title>
<path fill="none" stroke="midnightblue" d="M235.29,-187.47C197.77,-165.86 139.27,-132.17 105.65,-112.81"/>
<polygon fill="midnightblue" stroke="midnightblue" points="233.93,-190.73 244.34,-192.68 237.42,-184.66 233.93,-190.73"/>
</g>
<!-- Node6&#45;&gt;Node4 -->
<g id="edge8" class="edge">
<title>Node6&#45;&gt;Node4</title>
<path fill="none" stroke="midnightblue" d="M606.57,-101.58C550.65,-84.26 458.38,-64.86 386,-94.75 337.43,-114.81 298.71,-166.84 281.77,-192.7"/>
<polygon fill="midnightblue" stroke="midnightblue" points="605.65,-104.96 616.24,-104.67 607.78,-98.29 605.65,-104.96"/>
</g>
<!-- Node7 -->
<g id="node7" class="node">
<title>Node7</title>
<g id="a_node7"><a xlink:href="class_perceptual_color_1_1_color_dialog.html#a64f6d0e30a627458ccb7bbf4a77ad42b" target="_top" xlink:title="React on focus changes.">
<polygon fill="white" stroke="black" points="386,-104.75 386,-134.75 543,-134.75 543,-104.75 386,-104.75"/>
<text text-anchor="start" x="394" y="-122.75" font-family="Helvetica,sans-Serif" font-size="10.00">PerceptualColor::ColorDialog</text>
<text text-anchor="middle" x="464.5" y="-111.75" font-family="Helvetica,sans-Serif" font-size="10.00">::handleFocusChange</text>
</a>
</g>
</g>
<!-- Node6&#45;&gt;Node7 -->
<g id="edge6" class="edge">
<title>Node6&#45;&gt;Node7</title>
<path fill="none" stroke="midnightblue" d="M568.81,-119.75C560.24,-119.75 551.58,-119.75 543.12,-119.75"/>
<polygon fill="midnightblue" stroke="midnightblue" points="568.81,-123.25 578.81,-119.75 568.81,-116.25 568.81,-123.25"/>
</g>
<!-- Node7&#45;&gt;Node4 -->
<g id="edge7" class="edge">
<title>Node7&#45;&gt;Node4</title>
<path fill="none" stroke="midnightblue" d="M412.59,-138.59C403.66,-142.14 394.51,-145.94 386,-149.75 356.11,-163.13 322.84,-180.42 300.1,-192.64"/>
<polygon fill="midnightblue" stroke="midnightblue" points="414.11,-141.75 422.15,-134.85 411.56,-135.24 414.11,-141.75"/>
</g>
<!-- Node8&#45;&gt;Node4 -->
<g id="edge10" class="edge">
<title>Node8&#45;&gt;Node4</title>
<path fill="none" stroke="midnightblue" d="M611.07,-319.28C555.56,-338.96 459.9,-363.11 386,-330.75 334.9,-308.37 296.6,-250.37 280.65,-222.77"/>
<polygon fill="midnightblue" stroke="midnightblue" points="612.43,-322.51 620.62,-315.8 610.03,-315.94 612.43,-322.51"/>
</g>
<!-- Node9&#45;&gt;Node5 -->
<g id="edge12" class="edge">
<title>Node9&#45;&gt;Node5</title>
<path fill="none" stroke="midnightblue" d="M589.85,-14.55C574.56,-11.31 558.3,-8.41 543,-6.75 473.63,0.8 455.05,3.29 386,-6.75 286.58,-21.2 174.53,-60.71 117.41,-82.61"/>
<polygon fill="midnightblue" stroke="midnightblue" points="589.22,-17.99 599.74,-16.72 590.73,-11.16 589.22,-17.99"/>
</g>
<!-- Node10 -->
<g id="node10" class="node">
<title>Node10</title>
<g id="a_node10"><a xlink:href="class_perceptual_color_1_1_color_dialog.html#a08677555088721a366cc839a90b5eea2" target="_top" xlink:title="Pops up a modal color dialog, lets the user choose a color, and returns that color.">
<polygon fill="white" stroke="black" points="386,-16.75 386,-46.75 543,-46.75 543,-16.75 386,-16.75"/>
<text text-anchor="start" x="394" y="-34.75" font-family="Helvetica,sans-Serif" font-size="10.00">PerceptualColor::ColorDialog</text>
<text text-anchor="middle" x="464.5" y="-23.75" font-family="Helvetica,sans-Serif" font-size="10.00">::getColor</text>
</a>
</g>
</g>
<!-- Node9&#45;&gt;Node10 -->
<g id="edge13" class="edge">
<title>Node9&#45;&gt;Node10</title>
<path fill="none" stroke="midnightblue" d="M568.81,-31.75C560.24,-31.75 551.58,-31.75 543.12,-31.75"/>
<polygon fill="midnightblue" stroke="midnightblue" points="568.81,-35.25 578.81,-31.75 568.81,-28.25 568.81,-35.25"/>
</g>
<!-- Node12 -->
<g id="node12" class="node">
<title>Node12</title>
<g id="a_node12"><a xlink:href="class_perceptual_color_1_1_color_dialog.html#ad834c4b1975dd4b226a054497bd1ef47" target="_top" xlink:title="Reads the HSV numbers in the dialog and updates the dialog accordingly.">
<polygon fill="white" stroke="black" points="386,-241.75 386,-271.75 543,-271.75 543,-241.75 386,-241.75"/>
<text text-anchor="start" x="394" y="-259.75" font-family="Helvetica,sans-Serif" font-size="10.00">PerceptualColor::ColorDialog</text>
<text text-anchor="middle" x="464.5" y="-248.75" font-family="Helvetica,sans-Serif" font-size="10.00">::readHsvNumericValues</text>
</a>
</g>
</g>
<!-- Node11&#45;&gt;Node12 -->
<g id="edge15" class="edge">
<title>Node11&#45;&gt;Node12</title>
<path fill="none" stroke="midnightblue" d="M568.81,-242.15C560.24,-243.36 551.58,-244.58 543.12,-245.78"/>
<polygon fill="midnightblue" stroke="midnightblue" points="569.4,-245.6 578.81,-240.73 568.42,-238.67 569.4,-245.6"/>
</g>
<!-- Node13 -->
<g id="node13" class="node">
<title>Node13</title>
<g id="a_node13"><a xlink:href="class_perceptual_color_1_1_color_dialog.html#a4554999f424ac055986478fe8c899ae1" target="_top" xlink:title="Reads the hexadecimal RGB numbers in the dialog and updates the dialog accordingly.">
<polygon fill="white" stroke="black" points="386,-192.75 386,-222.75 543,-222.75 543,-192.75 386,-192.75"/>
<text text-anchor="start" x="394" y="-210.75" font-family="Helvetica,sans-Serif" font-size="10.00">PerceptualColor::ColorDialog</text>
<text text-anchor="middle" x="464.5" y="-199.75" font-family="Helvetica,sans-Serif" font-size="10.00">::readRgbHexValues</text>
</a>
</g>
</g>
<!-- Node11&#45;&gt;Node13 -->
<g id="edge17" class="edge">
<title>Node11&#45;&gt;Node13</title>
<path fill="none" stroke="midnightblue" d="M568.81,-219.65C560.24,-218.66 551.58,-217.66 543.12,-216.69"/>
<polygon fill="midnightblue" stroke="midnightblue" points="568.48,-223.13 578.81,-220.8 569.28,-216.18 568.48,-223.13"/>
</g>
<!-- Node14 -->
<g id="node14" class="node">
<title>Node14</title>
<g id="a_node14"><a xlink:href="class_perceptual_color_1_1_color_dialog.html#a9bb8f87d25714fc283fdda98424030fe" target="_top" xlink:title="Reads the decimal RGB numbers in the dialog and updates the dialog accordingly.">
<polygon fill="white" stroke="black" points="386,-290.75 386,-320.75 543,-320.75 543,-290.75 386,-290.75"/>
<text text-anchor="start" x="394" y="-308.75" font-family="Helvetica,sans-Serif" font-size="10.00">PerceptualColor::ColorDialog</text>
<text text-anchor="middle" x="464.5" y="-297.75" font-family="Helvetica,sans-Serif" font-size="10.00">::readRgbNumericValues</text>
</a>
</g>
</g>
<!-- Node11&#45;&gt;Node14 -->
<g id="edge19" class="edge">
<title>Node11&#45;&gt;Node14</title>
<path fill="none" stroke="midnightblue" d="M616.96,-249.39C595.39,-259.72 568.04,-272.18 543,-281.75 534.84,-284.87 526.09,-287.88 517.51,-290.66"/>
<polygon fill="midnightblue" stroke="midnightblue" points="618.64,-252.46 626.13,-244.97 615.6,-246.16 618.64,-252.46"/>
</g>
<!-- Node12&#45;&gt;Node4 -->
<g id="edge16" class="edge">
<title>Node12&#45;&gt;Node4</title>
<path fill="none" stroke="midnightblue" d="M395.09,-239.2C374.12,-233.82 351.24,-227.95 330.99,-222.76"/>
<polygon fill="midnightblue" stroke="midnightblue" points="394.34,-242.62 404.9,-241.71 396.08,-235.84 394.34,-242.62"/>
</g>
<!-- Node13&#45;&gt;Node4 -->
<g id="edge18" class="edge">
<title>Node13&#45;&gt;Node4</title>
<path fill="none" stroke="midnightblue" d="M375.81,-207.75C367.24,-207.75 358.58,-207.75 350.12,-207.75"/>
<polygon fill="midnightblue" stroke="midnightblue" points="375.81,-211.25 385.81,-207.75 375.81,-204.25 375.81,-211.25"/>
</g>
<!-- Node14&#45;&gt;Node4 -->
<g id="edge20" class="edge">
<title>Node14&#45;&gt;Node4</title>
<path fill="none" stroke="midnightblue" d="M398.62,-287.15C394.3,-285.45 390.05,-283.65 386,-281.75 350.87,-265.25 313.87,-239.28 292.01,-222.9"/>
<polygon fill="midnightblue" stroke="midnightblue" points="397.57,-290.49 408.16,-290.69 400,-283.93 397.57,-290.49"/>
</g>
<!-- Node15&#45;&gt;Node3 -->
<g id="edge23" class="edge">
<title>Node15&#45;&gt;Node3</title>
<path fill="none" stroke="midnightblue" d="M968,-210.59C952.72,-207.33 936.84,-203.94 921.9,-200.76"/>
<polygon fill="midnightblue" stroke="midnightblue" points="967.42,-214.04 977.93,-212.7 968.88,-207.2 967.42,-214.04"/>
</g>
<!-- Node15&#45;&gt;Node4 -->
<g id="edge22" class="edge">
<title>Node15&#45;&gt;Node4</title>
<path fill="none" stroke="midnightblue" d="M987.95,-245.74C980.22,-248.08 972.42,-250.46 965,-252.75 715.57,-329.84 620.89,-465.69 386,-351.75 329.58,-324.38 292.78,-253.86 278.82,-222.81"/>
<polygon fill="midnightblue" stroke="midnightblue" points="989.11,-249.05 997.68,-242.81 987.09,-242.34 989.11,-249.05"/>
</g>
<!-- Node17 -->
<g id="node17" class="node">
<title>Node17</title>
<g id="a_node17"><a xlink:href="class_perceptual_color_1_1_gradient_selector.html#a749286260e19cc0c9ddd93c431c410da" target="_top" xlink:title=" ">
<polygon fill="white" stroke="black" points="779.5,-121.75 779.5,-151.75 921.5,-151.75 921.5,-121.75 779.5,-121.75"/>
<text text-anchor="start" x="787.5" y="-139.75" font-family="Helvetica,sans-Serif" font-size="10.00">PerceptualColor::Gradient</text>
<text text-anchor="middle" x="850.5" y="-128.75" font-family="Helvetica,sans-Serif" font-size="10.00">Selector::paintEvent</text>
</a>
</g>
</g>
<!-- Node16&#45;&gt;Node17 -->
<g id="edge25" class="edge">
<title>Node16&#45;&gt;Node17</title>
<path fill="none" stroke="midnightblue" d="M954.72,-137.8C943.54,-137.68 932.27,-137.57 921.51,-137.46"/>
<polygon fill="midnightblue" stroke="midnightblue" points="954.92,-141.3 964.95,-137.9 954.99,-134.3 954.92,-141.3"/>
</g>
</g>
</svg>
