<?xml version="1.0" encoding="UTF-8" standalone="no"?>
<!DOCTYPE svg PUBLIC "-//W3C//DTD SVG 1.1//EN"
 "http://www.w3.org/Graphics/SVG/1.1/DTD/svg11.dtd">
<!-- Generated by graphviz version 2.43.0 (0)
 -->
<!-- Title: PerceptualColor::GradientSelector::setColors Pages: 1 -->
<svg width="1328pt" height="455pt"
 viewBox="0.00 0.00 1328.00 455.11" xmlns="http://www.w3.org/2000/svg" xmlns:xlink="http://www.w3.org/1999/xlink">
<g id="graph0" class="graph" transform="scale(1 1) rotate(0) translate(4 451.11)">
<title>PerceptualColor::GradientSelector::setColors</title>
<polygon fill="white" stroke="transparent" points="-4,4 -4,-451.11 1324,-451.11 1324,4 -4,4"/>
<!-- Node1 -->
<g id="node1" class="node">
<title>Node1</title>
<g id="a_node1"><a xlink:title=" ">
<polygon fill="#bfbfbf" stroke="black" points="1178,-328.61 1178,-358.61 1320,-358.61 1320,-328.61 1178,-328.61"/>
<text text-anchor="start" x="1186" y="-346.61" font-family="Helvetica,sans-Serif" font-size="10.00">PerceptualColor::Gradient</text>
<text text-anchor="middle" x="1249" y="-335.61" font-family="Helvetica,sans-Serif" font-size="10.00">Selector::setColors</text>
</a>
</g>
</g>
<!-- Node2 -->
<g id="node2" class="node">
<title>Node2</title>
<g id="a_node2"><a xlink:href="class_perceptual_color_1_1_gradient_selector.html#a4a19e9fef9d31d5e028ff7eeb783d1be" target="_top" xlink:title=" ">
<polygon fill="white" stroke="black" points="987.5,-416.61 987.5,-446.61 1129.5,-446.61 1129.5,-416.61 987.5,-416.61"/>
<text text-anchor="start" x="995.5" y="-434.61" font-family="Helvetica,sans-Serif" font-size="10.00">PerceptualColor::Gradient</text>
<text text-anchor="middle" x="1058.5" y="-423.61" font-family="Helvetica,sans-Serif" font-size="10.00">Selector::initialize</text>
</a>
</g>
</g>
<!-- Node1&#45;&gt;Node2 -->
<g id="edge1" class="edge">
<title>Node1&#45;&gt;Node2</title>
<path fill="none" stroke="midnightblue" d="M1214.2,-363.82C1193.71,-375.64 1166.81,-390.39 1142,-401.61 1130.2,-406.95 1117.14,-412.05 1104.95,-416.48"/>
<polygon fill="midnightblue" stroke="midnightblue" points="1215.97,-366.84 1222.85,-358.79 1212.45,-360.79 1215.97,-366.84"/>
</g>
<!-- Node4 -->
<g id="node4" class="node">
<title>Node4</title>
<g id="a_node4"><a xlink:href="class_perceptual_color_1_1_color_dialog.html#ad31fb985e1323cdf1208c91f16fe2a51" target="_top" xlink:title="Basic initialization.">
<polygon fill="white" stroke="black" points="193,-186.61 193,-216.61 350,-216.61 350,-186.61 193,-186.61"/>
<text text-anchor="start" x="201" y="-204.61" font-family="Helvetica,sans-Serif" font-size="10.00">PerceptualColor::ColorDialog</text>
<text text-anchor="middle" x="271.5" y="-193.61" font-family="Helvetica,sans-Serif" font-size="10.00">::initialize</text>
</a>
</g>
</g>
<!-- Node1&#45;&gt;Node4 -->
<g id="edge3" class="edge">
<title>Node1&#45;&gt;Node4</title>
<path fill="none" stroke="midnightblue" d="M1182.02,-360.95C1168.84,-363.91 1155.04,-366.66 1142,-368.61 1016.24,-387.5 983.67,-387.61 856.5,-387.61 856.5,-387.61 856.5,-387.61 656.5,-387.61 535.98,-387.61 490.47,-428.7 386,-368.61 325.07,-333.57 289.96,-250.98 277.6,-216.82"/>
<polygon fill="midnightblue" stroke="midnightblue" points="1182.99,-364.32 1191.95,-358.65 1181.42,-357.5 1182.99,-364.32"/>
</g>
<!-- Node6 -->
<g id="node6" class="node">
<title>Node6</title>
<g id="a_node6"><a xlink:href="class_perceptual_color_1_1_alpha_selector.html#ac9faa6bbf68757f843e4cce92d697067" target="_top" xlink:title=" ">
<polygon fill="white" stroke="black" points="975,-328.61 975,-358.61 1142,-358.61 1142,-328.61 975,-328.61"/>
<text text-anchor="start" x="983" y="-346.61" font-family="Helvetica,sans-Serif" font-size="10.00">PerceptualColor::AlphaSelector</text>
<text text-anchor="middle" x="1058.5" y="-335.61" font-family="Helvetica,sans-Serif" font-size="10.00">::setColor</text>
</a>
</g>
</g>
<!-- Node1&#45;&gt;Node6 -->
<g id="edge5" class="edge">
<title>Node1&#45;&gt;Node6</title>
<path fill="none" stroke="midnightblue" d="M1167.62,-343.61C1159.19,-343.61 1150.61,-343.61 1142.16,-343.61"/>
<polygon fill="midnightblue" stroke="midnightblue" points="1167.81,-347.11 1177.81,-343.61 1167.81,-340.11 1167.81,-347.11"/>
</g>
<!-- Node18 -->
<g id="node18" class="node">
<title>Node18</title>
<g id="a_node18"><a xlink:href="class_perceptual_color_1_1_gradient_selector.html#a52b322c9542afa52be32f42b5250fc6b" target="_top" xlink:title=" ">
<polygon fill="white" stroke="black" points="987.5,-279.61 987.5,-309.61 1129.5,-309.61 1129.5,-279.61 987.5,-279.61"/>
<text text-anchor="start" x="995.5" y="-297.61" font-family="Helvetica,sans-Serif" font-size="10.00">PerceptualColor::Gradient</text>
<text text-anchor="middle" x="1058.5" y="-286.61" font-family="Helvetica,sans-Serif" font-size="10.00">Selector::setFirstColor</text>
</a>
</g>
</g>
<!-- Node1&#45;&gt;Node18 -->
<g id="edge25" class="edge">
<title>Node1&#45;&gt;Node18</title>
<path fill="none" stroke="midnightblue" d="M1180.21,-325.99C1159.58,-320.63 1137.12,-314.79 1117.23,-309.62"/>
<polygon fill="midnightblue" stroke="midnightblue" points="1179.6,-329.45 1190.16,-328.58 1181.36,-322.67 1179.6,-329.45"/>
</g>
<!-- Node19 -->
<g id="node19" class="node">
<title>Node19</title>
<g id="a_node19"><a xlink:href="class_perceptual_color_1_1_gradient_selector.html#abd0f7a3cdbda7f684bc88d7116d0fd58" target="_top" xlink:title=" ">
<polygon fill="white" stroke="black" points="987.5,-230.61 987.5,-260.61 1129.5,-260.61 1129.5,-230.61 987.5,-230.61"/>
<text text-anchor="start" x="995.5" y="-248.61" font-family="Helvetica,sans-Serif" font-size="10.00">PerceptualColor::Gradient</text>
<text text-anchor="middle" x="1058.5" y="-237.61" font-family="Helvetica,sans-Serif" font-size="10.00">Selector::setSecondColor</text>
</a>
</g>
</g>
<!-- Node1&#45;&gt;Node19 -->
<g id="edge26" class="edge">
<title>Node1&#45;&gt;Node19</title>
<path fill="none" stroke="midnightblue" d="M1221.97,-322.27C1201.33,-306.23 1171.2,-284.67 1142,-270.61 1134.31,-266.91 1125.96,-263.62 1117.62,-260.74"/>
<polygon fill="midnightblue" stroke="midnightblue" points="1219.92,-325.11 1229.93,-328.56 1224.25,-319.62 1219.92,-325.11"/>
</g>
<!-- Node3 -->
<g id="node3" class="node">
<title>Node3</title>
<g id="a_node3"><a xlink:href="class_perceptual_color_1_1_gradient_selector.html#a9afd88c06d6ae19d85a0f91e4def1b01" target="_top" xlink:title=" ">
<polygon fill="white" stroke="black" points="783.5,-416.61 783.5,-446.61 927.5,-446.61 927.5,-416.61 783.5,-416.61"/>
<text text-anchor="start" x="791.5" y="-434.61" font-family="Helvetica,sans-Serif" font-size="10.00">PerceptualColor::Gradient</text>
<text text-anchor="middle" x="855.5" y="-423.61" font-family="Helvetica,sans-Serif" font-size="10.00">Selector::GradientSelector</text>
</a>
</g>
</g>
<!-- Node2&#45;&gt;Node3 -->
<g id="edge2" class="edge">
<title>Node2&#45;&gt;Node3</title>
<path fill="none" stroke="midnightblue" d="M977.36,-431.61C960.92,-431.61 943.72,-431.61 927.63,-431.61"/>
<polygon fill="midnightblue" stroke="midnightblue" points="977.48,-435.11 987.48,-431.61 977.48,-428.11 977.48,-435.11"/>
</g>
<!-- Node5 -->
<g id="node5" class="node">
<title>Node5</title>
<g id="a_node5"><a xlink:href="class_perceptual_color_1_1_color_dialog.html#a3c1ad1040ede00087aa11fab1514a6e7" target="_top" xlink:title="Constructor.">
<polygon fill="white" stroke="black" points="0,-79.61 0,-109.61 157,-109.61 157,-79.61 0,-79.61"/>
<text text-anchor="start" x="8" y="-97.61" font-family="Helvetica,sans-Serif" font-size="10.00">PerceptualColor::ColorDialog</text>
<text text-anchor="middle" x="78.5" y="-86.61" font-family="Helvetica,sans-Serif" font-size="10.00">::ColorDialog</text>
</a>
</g>
</g>
<!-- Node4&#45;&gt;Node5 -->
<g id="edge4" class="edge">
<title>Node4&#45;&gt;Node5</title>
<path fill="none" stroke="midnightblue" d="M234.52,-181.46C197.23,-160.57 139.82,-128.4 106.32,-109.64"/>
<polygon fill="midnightblue" stroke="midnightblue" points="233.1,-184.68 243.54,-186.51 236.53,-178.57 233.1,-184.68"/>
</g>
<!-- Node7 -->
<g id="node7" class="node">
<title>Node7</title>
<g id="a_node7"><a xlink:href="class_perceptual_color_1_1_alpha_selector.html#a3054b783bd88068bbf6caa4553dc4649" target="_top" xlink:title=" ">
<polygon fill="white" stroke="black" points="772,-328.61 772,-358.61 939,-358.61 939,-328.61 772,-328.61"/>
<text text-anchor="start" x="780" y="-346.61" font-family="Helvetica,sans-Serif" font-size="10.00">PerceptualColor::AlphaSelector</text>
<text text-anchor="middle" x="855.5" y="-335.61" font-family="Helvetica,sans-Serif" font-size="10.00">::AlphaSelector</text>
</a>
</g>
</g>
<!-- Node6&#45;&gt;Node7 -->
<g id="edge6" class="edge">
<title>Node6&#45;&gt;Node7</title>
<path fill="none" stroke="midnightblue" d="M964.85,-343.61C956.27,-343.61 947.61,-343.61 939.13,-343.61"/>
<polygon fill="midnightblue" stroke="midnightblue" points="964.88,-347.11 974.88,-343.61 964.88,-340.11 964.88,-347.11"/>
</g>
<!-- Node8 -->
<g id="node8" class="node">
<title>Node8</title>
<g id="a_node8"><a xlink:href="class_perceptual_color_1_1_color_dialog.html#abd0da334b7034a67a3cc83bc3ed0a425" target="_top" xlink:title="Updates m_currentOpaqueColor and all affected widgets.">
<polygon fill="white" stroke="black" points="777,-164.61 777,-194.61 934,-194.61 934,-164.61 777,-164.61"/>
<text text-anchor="start" x="785" y="-182.61" font-family="Helvetica,sans-Serif" font-size="10.00">PerceptualColor::ColorDialog</text>
<text text-anchor="middle" x="855.5" y="-171.61" font-family="Helvetica,sans-Serif" font-size="10.00">::setCurrentOpaqueColor</text>
</a>
</g>
</g>
<!-- Node6&#45;&gt;Node8 -->
<g id="edge7" class="edge">
<title>Node6&#45;&gt;Node8</title>
<path fill="none" stroke="midnightblue" d="M982.69,-324.1C980.04,-322.71 977.46,-321.21 975,-319.61 923.45,-286.15 882.28,-223.57 865.13,-194.8"/>
<polygon fill="midnightblue" stroke="midnightblue" points="981.41,-327.37 991.95,-328.49 984.41,-321.05 981.41,-327.37"/>
</g>
<!-- Node8&#45;&gt;Node4 -->
<g id="edge8" class="edge">
<title>Node8&#45;&gt;Node4</title>
<path fill="none" stroke="midnightblue" d="M766.89,-182.92C653.62,-187.21 458.13,-194.6 350.02,-198.68"/>
<polygon fill="midnightblue" stroke="midnightblue" points="767.05,-186.42 776.91,-182.55 766.79,-179.43 767.05,-186.42"/>
</g>
<!-- Node9 -->
<g id="node9" class="node">
<title>Node9</title>
<g id="a_node9"><a xlink:href="class_perceptual_color_1_1_color_dialog.html#adf67594f0cb9416b245d6cf726f18bf4" target="_top" xlink:title="Reads the HLC numbers in the dialog and updates the dialog accordingly.">
<polygon fill="white" stroke="black" points="579,-142.61 579,-172.61 736,-172.61 736,-142.61 579,-142.61"/>
<text text-anchor="start" x="587" y="-160.61" font-family="Helvetica,sans-Serif" font-size="10.00">PerceptualColor::ColorDialog</text>
<text text-anchor="middle" x="657.5" y="-149.61" font-family="Helvetica,sans-Serif" font-size="10.00">::readHlcNumericValues</text>
</a>
</g>
</g>
<!-- Node8&#45;&gt;Node9 -->
<g id="edge9" class="edge">
<title>Node8&#45;&gt;Node9</title>
<path fill="none" stroke="midnightblue" d="M766.65,-169.75C756.48,-168.61 746.17,-167.45 736.15,-166.33"/>
<polygon fill="midnightblue" stroke="midnightblue" points="766.43,-173.25 776.75,-170.89 767.21,-166.29 766.43,-173.25"/>
</g>
<!-- Node11 -->
<g id="node11" class="node">
<title>Node11</title>
<g id="a_node11"><a xlink:href="class_perceptual_color_1_1_color_dialog.html#a2a48f4c33652bc9a1a0cb22fd0a6b221" target="_top" xlink:title="Reads the value from the lightness selector in the dialog and updates the dialog accordingly.">
<polygon fill="white" stroke="black" points="579,-79.61 579,-109.61 736,-109.61 736,-79.61 579,-79.61"/>
<text text-anchor="start" x="587" y="-97.61" font-family="Helvetica,sans-Serif" font-size="10.00">PerceptualColor::ColorDialog</text>
<text text-anchor="middle" x="657.5" y="-86.61" font-family="Helvetica,sans-Serif" font-size="10.00">::readLightnessValue</text>
</a>
</g>
</g>
<!-- Node8&#45;&gt;Node11 -->
<g id="edge13" class="edge">
<title>Node8&#45;&gt;Node11</title>
<path fill="none" stroke="midnightblue" d="M810.32,-160.45C774.96,-145.12 726.05,-123.91 693.4,-109.75"/>
<polygon fill="midnightblue" stroke="midnightblue" points="809.34,-163.84 819.91,-164.61 812.13,-157.42 809.34,-163.84"/>
</g>
<!-- Node12 -->
<g id="node12" class="node">
<title>Node12</title>
<g id="a_node12"><a xlink:href="class_perceptual_color_1_1_color_dialog.html#a64b6c698ebfaf2461c513ebbb7ef2637" target="_top" xlink:title="Setter for currentColor property.">
<polygon fill="white" stroke="black" points="579,-16.61 579,-46.61 736,-46.61 736,-16.61 579,-16.61"/>
<text text-anchor="start" x="587" y="-34.61" font-family="Helvetica,sans-Serif" font-size="10.00">PerceptualColor::ColorDialog</text>
<text text-anchor="middle" x="657.5" y="-23.61" font-family="Helvetica,sans-Serif" font-size="10.00">::setCurrentColor</text>
</a>
</g>
</g>
<!-- Node8&#45;&gt;Node12 -->
<g id="edge15" class="edge">
<title>Node8&#45;&gt;Node12</title>
<path fill="none" stroke="midnightblue" d="M834.09,-157.09C811.68,-133.27 773.83,-95.61 736,-69.61 723.28,-60.87 708.25,-53.01 694.83,-46.74"/>
<polygon fill="midnightblue" stroke="midnightblue" points="831.7,-159.67 841.07,-164.61 836.83,-154.9 831.7,-159.67"/>
</g>
<!-- Node14 -->
<g id="node14" class="node">
<title>Node14</title>
<g id="a_node14"><a xlink:href="class_perceptual_color_1_1_color_dialog.html#acf0e7b1b619cee3fc7f5a992e2c93e7d" target="_top" xlink:title="Convenience version of setCurrentOpaqueColor(), accepting QColor.">
<polygon fill="white" stroke="black" points="579,-254.61 579,-284.61 736,-284.61 736,-254.61 579,-254.61"/>
<text text-anchor="start" x="587" y="-272.61" font-family="Helvetica,sans-Serif" font-size="10.00">PerceptualColor::ColorDialog</text>
<text text-anchor="middle" x="657.5" y="-261.61" font-family="Helvetica,sans-Serif" font-size="10.00">::setCurrentOpaqueQColor</text>
</a>
</g>
</g>
<!-- Node8&#45;&gt;Node14 -->
<g id="edge18" class="edge">
<title>Node8&#45;&gt;Node14</title>
<path fill="none" stroke="midnightblue" d="M812.38,-198.96C776.16,-215.58 724.66,-239.23 691.41,-254.5"/>
<polygon fill="midnightblue" stroke="midnightblue" points="814.07,-202.03 821.69,-194.68 811.15,-195.67 814.07,-202.03"/>
</g>
<!-- Node9&#45;&gt;Node4 -->
<g id="edge12" class="edge">
<title>Node9&#45;&gt;Node4</title>
<path fill="none" stroke="midnightblue" d="M597.14,-140.01C541.58,-126.36 456.76,-112.79 386,-132.61 348.69,-143.06 311.47,-169.51 290.29,-186.46"/>
<polygon fill="midnightblue" stroke="midnightblue" points="596.61,-143.49 607.16,-142.56 598.33,-136.7 596.61,-143.49"/>
</g>
<!-- Node10 -->
<g id="node10" class="node">
<title>Node10</title>
<g id="a_node10"><a xlink:href="class_perceptual_color_1_1_color_dialog.html#a64f6d0e30a627458ccb7bbf4a77ad42b" target="_top" xlink:title="React on focus changes.">
<polygon fill="white" stroke="black" points="386,-142.61 386,-172.61 543,-172.61 543,-142.61 386,-142.61"/>
<text text-anchor="start" x="394" y="-160.61" font-family="Helvetica,sans-Serif" font-size="10.00">PerceptualColor::ColorDialog</text>
<text text-anchor="middle" x="464.5" y="-149.61" font-family="Helvetica,sans-Serif" font-size="10.00">::handleFocusChange</text>
</a>
</g>
</g>
<!-- Node9&#45;&gt;Node10 -->
<g id="edge10" class="edge">
<title>Node9&#45;&gt;Node10</title>
<path fill="none" stroke="midnightblue" d="M568.81,-157.61C560.24,-157.61 551.58,-157.61 543.12,-157.61"/>
<polygon fill="midnightblue" stroke="midnightblue" points="568.81,-161.11 578.81,-157.61 568.81,-154.11 568.81,-161.11"/>
</g>
<!-- Node10&#45;&gt;Node4 -->
<g id="edge11" class="edge">
<title>Node10&#45;&gt;Node4</title>
<path fill="none" stroke="midnightblue" d="M388.54,-174.88C371.75,-178.75 354.08,-182.82 337.73,-186.59"/>
<polygon fill="midnightblue" stroke="midnightblue" points="389.34,-178.29 398.3,-172.63 387.77,-171.47 389.34,-178.29"/>
</g>
<!-- Node11&#45;&gt;Node4 -->
<g id="edge14" class="edge">
<title>Node11&#45;&gt;Node4</title>
<path fill="none" stroke="midnightblue" d="M568.61,-91.14C514.38,-91.78 444.28,-97.75 386,-119.61 346.4,-134.47 308.19,-167.01 287.79,-186.34"/>
<polygon fill="midnightblue" stroke="midnightblue" points="568.91,-94.63 578.89,-91.07 568.86,-87.63 568.91,-94.63"/>
</g>
<!-- Node12&#45;&gt;Node5 -->
<g id="edge16" class="edge">
<title>Node12&#45;&gt;Node5</title>
<path fill="none" stroke="midnightblue" d="M589.85,-14.41C574.56,-11.17 558.3,-8.28 543,-6.61 473.63,0.94 455.1,3.11 386,-6.61 287.6,-20.46 176.5,-58.15 118.89,-79.44"/>
<polygon fill="midnightblue" stroke="midnightblue" points="589.22,-17.86 599.74,-16.58 590.73,-11.02 589.22,-17.86"/>
</g>
<!-- Node13 -->
<g id="node13" class="node">
<title>Node13</title>
<g id="a_node13"><a xlink:href="class_perceptual_color_1_1_color_dialog.html#a08677555088721a366cc839a90b5eea2" target="_top" xlink:title="Pops up a modal color dialog, lets the user choose a color, and returns that color.">
<polygon fill="white" stroke="black" points="386,-16.61 386,-46.61 543,-46.61 543,-16.61 386,-16.61"/>
<text text-anchor="start" x="394" y="-34.61" font-family="Helvetica,sans-Serif" font-size="10.00">PerceptualColor::ColorDialog</text>
<text text-anchor="middle" x="464.5" y="-23.61" font-family="Helvetica,sans-Serif" font-size="10.00">::getColor</text>
</a>
</g>
</g>
<!-- Node12&#45;&gt;Node13 -->
<g id="edge17" class="edge">
<title>Node12&#45;&gt;Node13</title>
<path fill="none" stroke="midnightblue" d="M568.81,-31.61C560.24,-31.61 551.58,-31.61 543.12,-31.61"/>
<polygon fill="midnightblue" stroke="midnightblue" points="568.81,-35.11 578.81,-31.61 568.81,-28.11 568.81,-35.11"/>
</g>
<!-- Node15 -->
<g id="node15" class="node">
<title>Node15</title>
<g id="a_node15"><a xlink:href="class_perceptual_color_1_1_color_dialog.html#ad834c4b1975dd4b226a054497bd1ef47" target="_top" xlink:title="Reads the HSV numbers in the dialog and updates the dialog accordingly.">
<polygon fill="white" stroke="black" points="386,-279.61 386,-309.61 543,-309.61 543,-279.61 386,-279.61"/>
<text text-anchor="start" x="394" y="-297.61" font-family="Helvetica,sans-Serif" font-size="10.00">PerceptualColor::ColorDialog</text>
<text text-anchor="middle" x="464.5" y="-286.61" font-family="Helvetica,sans-Serif" font-size="10.00">::readHsvNumericValues</text>
</a>
</g>
</g>
<!-- Node14&#45;&gt;Node15 -->
<g id="edge19" class="edge">
<title>Node14&#45;&gt;Node15</title>
<path fill="none" stroke="midnightblue" d="M568.81,-281.09C560.24,-282.21 551.58,-283.35 543.12,-284.45"/>
<polygon fill="midnightblue" stroke="midnightblue" points="569.35,-284.55 578.81,-279.78 568.44,-277.61 569.35,-284.55"/>
</g>
<!-- Node16 -->
<g id="node16" class="node">
<title>Node16</title>
<g id="a_node16"><a xlink:href="class_perceptual_color_1_1_color_dialog.html#a4554999f424ac055986478fe8c899ae1" target="_top" xlink:title="Reads the hexadecimal RGB numbers in the dialog and updates the dialog accordingly.">
<polygon fill="white" stroke="black" points="386,-230.61 386,-260.61 543,-260.61 543,-230.61 386,-230.61"/>
<text text-anchor="start" x="394" y="-248.61" font-family="Helvetica,sans-Serif" font-size="10.00">PerceptualColor::ColorDialog</text>
<text text-anchor="middle" x="464.5" y="-237.61" font-family="Helvetica,sans-Serif" font-size="10.00">::readRgbHexValues</text>
</a>
</g>
</g>
<!-- Node14&#45;&gt;Node16 -->
<g id="edge21" class="edge">
<title>Node14&#45;&gt;Node16</title>
<path fill="none" stroke="midnightblue" d="M568.81,-258.59C560.24,-257.52 551.58,-256.43 543.12,-255.37"/>
<polygon fill="midnightblue" stroke="midnightblue" points="568.45,-262.08 578.81,-259.85 569.33,-255.13 568.45,-262.08"/>
</g>
<!-- Node17 -->
<g id="node17" class="node">
<title>Node17</title>
<g id="a_node17"><a xlink:href="class_perceptual_color_1_1_color_dialog.html#a9bb8f87d25714fc283fdda98424030fe" target="_top" xlink:title="Reads the decimal RGB numbers in the dialog and updates the dialog accordingly.">
<polygon fill="white" stroke="black" points="386,-328.61 386,-358.61 543,-358.61 543,-328.61 386,-328.61"/>
<text text-anchor="start" x="394" y="-346.61" font-family="Helvetica,sans-Serif" font-size="10.00">PerceptualColor::ColorDialog</text>
<text text-anchor="middle" x="464.5" y="-335.61" font-family="Helvetica,sans-Serif" font-size="10.00">::readRgbNumericValues</text>
</a>
</g>
</g>
<!-- Node14&#45;&gt;Node17 -->
<g id="edge23" class="edge">
<title>Node14&#45;&gt;Node17</title>
<path fill="none" stroke="midnightblue" d="M615.5,-289.03C594.13,-298.81 567.42,-310.49 543,-319.61 534.69,-322.72 525.77,-325.75 517.06,-328.55"/>
<polygon fill="midnightblue" stroke="midnightblue" points="617,-292.2 624.62,-284.83 614.07,-285.84 617,-292.2"/>
</g>
<!-- Node15&#45;&gt;Node4 -->
<g id="edge20" class="edge">
<title>Node15&#45;&gt;Node4</title>
<path fill="none" stroke="midnightblue" d="M398.92,-275.96C394.5,-274.27 390.16,-272.49 386,-270.61 352.15,-255.36 315.98,-232 293.81,-216.77"/>
<polygon fill="midnightblue" stroke="midnightblue" points="398.08,-279.37 408.67,-279.49 400.46,-272.79 398.08,-279.37"/>
</g>
<!-- Node16&#45;&gt;Node4 -->
<g id="edge22" class="edge">
<title>Node16&#45;&gt;Node4</title>
<path fill="none" stroke="midnightblue" d="M388.54,-228.34C371.75,-224.48 354.08,-220.41 337.73,-216.64"/>
<polygon fill="midnightblue" stroke="midnightblue" points="387.77,-231.76 398.3,-230.59 389.34,-224.94 387.77,-231.76"/>
</g>
<!-- Node17&#45;&gt;Node4 -->
<g id="edge24" class="edge">
<title>Node17&#45;&gt;Node4</title>
<path fill="none" stroke="midnightblue" d="M394.62,-324.39C391.65,-322.9 388.76,-321.31 386,-319.61 340.76,-291.71 301.05,-241.61 282.93,-216.63"/>
<polygon fill="midnightblue" stroke="midnightblue" points="393.19,-327.58 403.74,-328.52 396.08,-321.21 393.19,-327.58"/>
</g>
</g>
</svg>
