<?xml version="1.0" encoding="UTF-8" standalone="no"?>
<!DOCTYPE svg PUBLIC "-//W3C//DTD SVG 1.1//EN"
 "http://www.w3.org/Graphics/SVG/1.1/DTD/svg11.dtd">
<!-- Generated by graphviz version 2.43.0 (0)
 -->
<!-- Title: PerceptualColor::ColorDialog Pages: 1 -->
<svg width="1411pt" height="466pt"
 viewBox="0.00 0.00 1411.00 466.00" xmlns="http://www.w3.org/2000/svg" xmlns:xlink="http://www.w3.org/1999/xlink">
<g id="graph0" class="graph" transform="scale(1 1) rotate(0) translate(4 462)">
<title>PerceptualColor::ColorDialog</title>
<polygon fill="white" stroke="transparent" points="-4,4 -4,-462 1407,-462 1407,4 -4,4"/>
<!-- Node1 -->
<g id="node1" class="node">
<title>Node1</title>
<g id="a_node1"><a xlink:title="A perceptually uniform color picker dialog.">
<polygon fill="#bfbfbf" stroke="black" points="1246,-264.5 1246,-283.5 1403,-283.5 1403,-264.5 1246,-264.5"/>
<text text-anchor="middle" x="1324.5" y="-271.5" font-family="Helvetica,sans-Serif" font-size="10.00">PerceptualColor::ColorDialog</text>
</a>
</g>
</g>
<!-- Node2 -->
<g id="node2" class="node">
<title>Node2</title>
<g id="a_node2"><a xlink:title=" ">
<polygon fill="white" stroke="#bfbfbf" points="995.5,-414.5 995.5,-433.5 1051.5,-433.5 1051.5,-414.5 995.5,-414.5"/>
<text text-anchor="middle" x="1023.5" y="-421.5" font-family="Helvetica,sans-Serif" font-size="10.00">QDialog</text>
</a>
</g>
</g>
<!-- Node2&#45;&gt;Node1 -->
<g id="edge1" class="edge">
<title>Node2&#45;&gt;Node1</title>
<path fill="none" stroke="midnightblue" d="M1061.79,-425.12C1104.7,-424.78 1175.92,-419.1 1228,-389 1273.39,-362.77 1306.61,-306.33 1318.6,-283.69"/>
<polygon fill="midnightblue" stroke="midnightblue" points="1061.53,-421.62 1051.52,-425.1 1061.52,-428.62 1061.53,-421.62"/>
</g>
<!-- Node3 -->
<g id="node3" class="node">
<title>Node3</title>
<g id="a_node3"><a xlink:href="class_perceptual_color_1_1_color_patch.html" target="_top" xlink:title="A color display widget.">
<polygon fill="white" stroke="black" points="947.5,-376.5 947.5,-395.5 1099.5,-395.5 1099.5,-376.5 947.5,-376.5"/>
<text text-anchor="middle" x="1023.5" y="-383.5" font-family="Helvetica,sans-Serif" font-size="10.00">PerceptualColor::ColorPatch</text>
</a>
</g>
</g>
<!-- Node3&#45;&gt;Node1 -->
<g id="edge2" class="edge">
<title>Node3&#45;&gt;Node1</title>
<path fill="none" stroke="#9a32cd" stroke-dasharray="5,2" d="M1110.26,-377.26C1147.59,-371.32 1191.14,-361.42 1228,-345 1263.1,-329.36 1297.61,-298.97 1313.86,-283.52"/>
<polygon fill="#9a32cd" stroke="#9a32cd" points="1109.26,-373.87 1099.9,-378.84 1110.31,-380.79 1109.26,-373.87"/>
<text text-anchor="middle" x="1176.5" y="-377" font-family="Helvetica,sans-Serif" font-size="10.00"> m_colorPatch</text>
</g>
<!-- Node4 -->
<g id="node4" class="node">
<title>Node4</title>
<g id="a_node4"><a xlink:title=" ">
<polygon fill="white" stroke="#bfbfbf" points="640,-438.5 640,-457.5 695,-457.5 695,-438.5 640,-438.5"/>
<text text-anchor="middle" x="667.5" y="-445.5" font-family="Helvetica,sans-Serif" font-size="10.00">QFrame</text>
</a>
</g>
</g>
<!-- Node4&#45;&gt;Node3 -->
<g id="edge3" class="edge">
<title>Node4&#45;&gt;Node3</title>
<path fill="none" stroke="midnightblue" d="M705.29,-441.56C767.83,-430.6 895.17,-408.3 968.05,-395.54"/>
<polygon fill="midnightblue" stroke="midnightblue" points="704.35,-438.17 695.11,-443.34 705.56,-445.06 704.35,-438.17"/>
</g>
<!-- Node5 -->
<g id="node5" class="node">
<title>Node5</title>
<g id="a_node5"><a xlink:href="class_perceptual_color_1_1_wheel_color_picker.html" target="_top" xlink:title="Complete wheel&#45;based color picker widget.">
<polygon fill="white" stroke="black" points="945.5,-327 945.5,-357 1101.5,-357 1101.5,-327 945.5,-327"/>
<text text-anchor="start" x="953.5" y="-345" font-family="Helvetica,sans-Serif" font-size="10.00">PerceptualColor::WheelColor</text>
<text text-anchor="middle" x="1023.5" y="-334" font-family="Helvetica,sans-Serif" font-size="10.00">Picker</text>
</a>
</g>
</g>
<!-- Node5&#45;&gt;Node1 -->
<g id="edge4" class="edge">
<title>Node5&#45;&gt;Node1</title>
<path fill="none" stroke="#9a32cd" stroke-dasharray="5,2" d="M1111.73,-332.96C1148.06,-328.11 1190.44,-321.01 1228,-311 1254.46,-303.95 1283.64,-291.99 1302.7,-283.58"/>
<polygon fill="#9a32cd" stroke="#9a32cd" points="1111.12,-329.51 1101.66,-334.28 1112.02,-336.46 1111.12,-329.51"/>
<text text-anchor="middle" x="1176.5" y="-333" font-family="Helvetica,sans-Serif" font-size="10.00"> m_wheelColorPicker</text>
</g>
<!-- Node6 -->
<g id="node6" class="node">
<title>Node6</title>
<g id="a_node6"><a xlink:href="class_perceptual_color_1_1_simple_color_wheel.html" target="_top" xlink:title="Widget to choose the hue in a wheel.">
<polygon fill="white" stroke="black" points="588,-389 588,-419 747,-419 747,-389 588,-389"/>
<text text-anchor="start" x="596" y="-407" font-family="Helvetica,sans-Serif" font-size="10.00">PerceptualColor::SimpleColor</text>
<text text-anchor="middle" x="667.5" y="-396" font-family="Helvetica,sans-Serif" font-size="10.00">Wheel</text>
</a>
</g>
</g>
<!-- Node6&#45;&gt;Node5 -->
<g id="edge5" class="edge">
<title>Node6&#45;&gt;Node5</title>
<path fill="none" stroke="midnightblue" d="M756.96,-389.42C805.69,-381.28 867.23,-370.82 922,-361 929.6,-359.64 937.52,-358.19 945.44,-356.72"/>
<polygon fill="midnightblue" stroke="midnightblue" points="756.36,-385.97 747.07,-391.06 757.51,-392.87 756.36,-385.97"/>
</g>
<!-- Node7 -->
<g id="node7" class="node">
<title>Node7</title>
<g id="a_node7"><a xlink:href="class_perceptual_color_1_1_circular_diagram.html" target="_top" xlink:title="Base class for circular diagrams.">
<polygon fill="white" stroke="black" points="309.5,-383 309.5,-413 446.5,-413 446.5,-383 309.5,-383"/>
<text text-anchor="start" x="317.5" y="-401" font-family="Helvetica,sans-Serif" font-size="10.00">PerceptualColor::Circular</text>
<text text-anchor="middle" x="378" y="-390" font-family="Helvetica,sans-Serif" font-size="10.00">Diagram</text>
</a>
</g>
</g>
<!-- Node7&#45;&gt;Node6 -->
<g id="edge6" class="edge">
<title>Node7&#45;&gt;Node6</title>
<path fill="none" stroke="midnightblue" d="M433.13,-415.74C444.53,-418.76 456.56,-421.42 468,-423 509.5,-428.72 556.11,-424.79 593.74,-419.05"/>
<polygon fill="midnightblue" stroke="midnightblue" points="433.89,-412.32 423.31,-413.02 432.01,-419.07 433.89,-412.32"/>
</g>
<!-- Node17 -->
<g id="node17" class="node">
<title>Node17</title>
<g id="a_node17"><a xlink:href="class_perceptual_color_1_1_chroma_hue_diagram.html" target="_top" xlink:title="A widget for selecting chroma and hue in LCh color space.">
<polygon fill="white" stroke="black" points="588.5,-281 588.5,-311 746.5,-311 746.5,-281 588.5,-281"/>
<text text-anchor="start" x="596.5" y="-299" font-family="Helvetica,sans-Serif" font-size="10.00">PerceptualColor::ChromaHue</text>
<text text-anchor="middle" x="667.5" y="-288" font-family="Helvetica,sans-Serif" font-size="10.00">Diagram</text>
</a>
</g>
</g>
<!-- Node7&#45;&gt;Node17 -->
<g id="edge28" class="edge">
<title>Node7&#45;&gt;Node17</title>
<path fill="none" stroke="midnightblue" d="M456.82,-389.22C497.15,-383.33 541.21,-374.36 557,-362 571.72,-350.48 560.86,-336.22 575,-324 581.03,-318.79 588.02,-314.54 595.39,-311.09"/>
<polygon fill="midnightblue" stroke="midnightblue" points="456.08,-385.79 446.67,-390.65 457.06,-392.72 456.08,-385.79"/>
</g>
<!-- Node8 -->
<g id="node8" class="node">
<title>Node8</title>
<g id="a_node8"><a xlink:href="class_perceptual_color_1_1_abstract_diagram.html" target="_top" xlink:title="Base class for LCh diagrams.">
<polygon fill="white" stroke="black" points="96,-383 96,-413 236,-413 236,-383 96,-383"/>
<text text-anchor="start" x="104" y="-401" font-family="Helvetica,sans-Serif" font-size="10.00">PerceptualColor::Abstract</text>
<text text-anchor="middle" x="166" y="-390" font-family="Helvetica,sans-Serif" font-size="10.00">Diagram</text>
</a>
</g>
</g>
<!-- Node8&#45;&gt;Node7 -->
<g id="edge7" class="edge">
<title>Node8&#45;&gt;Node7</title>
<path fill="none" stroke="midnightblue" d="M246.14,-398C266.94,-398 289.19,-398 309.34,-398"/>
<polygon fill="midnightblue" stroke="midnightblue" points="246.05,-394.5 236.05,-398 246.05,-401.5 246.05,-394.5"/>
</g>
<!-- Node12 -->
<g id="node12" class="node">
<title>Node12</title>
<g id="a_node12"><a xlink:href="class_perceptual_color_1_1_chroma_lightness_diagram.html" target="_top" xlink:title="A widget that displays a chroma&#45;lightness diagram.">
<polygon fill="white" stroke="black" points="575,-333 575,-363 760,-363 760,-333 575,-333"/>
<text text-anchor="start" x="583" y="-351" font-family="Helvetica,sans-Serif" font-size="10.00">PerceptualColor::ChromaLightness</text>
<text text-anchor="middle" x="667.5" y="-340" font-family="Helvetica,sans-Serif" font-size="10.00">Diagram</text>
</a>
</g>
</g>
<!-- Node8&#45;&gt;Node12 -->
<g id="edge12" class="edge">
<title>Node8&#45;&gt;Node12</title>
<path fill="none" stroke="midnightblue" d="M218.94,-416.11C298.56,-440.4 452.54,-473.31 557,-407 569.18,-399.27 563.6,-388.84 575,-380 584.04,-372.99 594.74,-367.44 605.57,-363.08"/>
<polygon fill="midnightblue" stroke="midnightblue" points="219.72,-412.69 209.14,-413.05 217.64,-419.37 219.72,-412.69"/>
</g>
<!-- Node9 -->
<g id="node9" class="node">
<title>Node9</title>
<g id="a_node9"><a xlink:title=" ">
<polygon fill="white" stroke="#bfbfbf" points="0,-28.5 0,-47.5 59,-47.5 59,-28.5 0,-28.5"/>
<text text-anchor="middle" x="29.5" y="-35.5" font-family="Helvetica,sans-Serif" font-size="10.00">QWidget</text>
</a>
</g>
</g>
<!-- Node9&#45;&gt;Node8 -->
<g id="edge8" class="edge">
<title>Node9&#45;&gt;Node8</title>
<path fill="none" stroke="midnightblue" d="M33.68,-57.76C41.01,-100.63 61.19,-204.85 96,-286 111.84,-322.94 138.52,-362.03 153.64,-382.85"/>
<polygon fill="midnightblue" stroke="midnightblue" points="37.12,-57.09 32.02,-47.8 30.21,-58.24 37.12,-57.09"/>
</g>
<!-- Node15 -->
<g id="node15" class="node">
<title>Node15</title>
<g id="a_node15"><a xlink:href="class_perceptual_color_1_1_alpha_selector.html" target="_top" xlink:title="Combined widget with a gradient slider and a spin box; for selecting alpha channel.">
<polygon fill="white" stroke="black" points="940,-98.5 940,-117.5 1107,-117.5 1107,-98.5 940,-98.5"/>
<text text-anchor="middle" x="1023.5" y="-105.5" font-family="Helvetica,sans-Serif" font-size="10.00">PerceptualColor::AlphaSelector</text>
</a>
</g>
</g>
<!-- Node9&#45;&gt;Node15 -->
<g id="edge19" class="edge">
<title>Node9&#45;&gt;Node15</title>
<path fill="none" stroke="midnightblue" d="M60.52,-24.39C87.34,-13.49 127.99,0 165,0 165,0 165,0 668.5,0 802.79,0 953.76,-71.98 1004.66,-98.42"/>
<polygon fill="midnightblue" stroke="midnightblue" points="58.82,-21.31 50.96,-28.41 61.53,-27.76 58.82,-21.31"/>
</g>
<!-- Node16 -->
<g id="node16" class="node">
<title>Node16</title>
<g id="a_node16"><a xlink:href="class_perceptual_color_1_1_gradient_selector.html" target="_top" xlink:title="A slider displaying a gradient.">
<polygon fill="white" stroke="black" points="596.5,-41 596.5,-71 738.5,-71 738.5,-41 596.5,-41"/>
<text text-anchor="start" x="604.5" y="-59" font-family="Helvetica,sans-Serif" font-size="10.00">PerceptualColor::Gradient</text>
<text text-anchor="middle" x="667.5" y="-48" font-family="Helvetica,sans-Serif" font-size="10.00">Selector</text>
</a>
</g>
</g>
<!-- Node9&#45;&gt;Node16 -->
<g id="edge23" class="edge">
<title>Node9&#45;&gt;Node16</title>
<path fill="none" stroke="midnightblue" d="M69.25,-38.9C156.4,-40.95 374.51,-46.24 557,-52 569.74,-52.4 583.31,-52.87 596.41,-53.34"/>
<polygon fill="midnightblue" stroke="midnightblue" points="69.12,-35.39 59.04,-38.66 68.95,-42.39 69.12,-35.39"/>
</g>
<!-- Node10 -->
<g id="node10" class="node">
<title>Node10</title>
<g id="a_node10"><a xlink:href="class_perceptual_color_1_1_rgb_color_space.html" target="_top" xlink:title="Interface to LittleCMS for working with an RGB color space.">
<polygon fill="white" stroke="black" points="306,-252 306,-282 450,-282 450,-252 306,-252"/>
<text text-anchor="start" x="314" y="-270" font-family="Helvetica,sans-Serif" font-size="10.00">PerceptualColor::RgbColor</text>
<text text-anchor="middle" x="378" y="-259" font-family="Helvetica,sans-Serif" font-size="10.00">Space</text>
</a>
</g>
</g>
<!-- Node10&#45;&gt;Node1 -->
<g id="edge17" class="edge">
<title>Node10&#45;&gt;Node1</title>
<path fill="none" stroke="#9a32cd" stroke-dasharray="5,2" d="M460.41,-267.48C611.63,-268.4 946.14,-270.53 1228,-273 1233.8,-273.05 1239.8,-273.11 1245.84,-273.16"/>
<polygon fill="#9a32cd" stroke="#9a32cd" points="460.3,-263.98 450.28,-267.42 460.26,-270.98 460.3,-263.98"/>
<text text-anchor="middle" x="850" y="-273" font-family="Helvetica,sans-Serif" font-size="10.00"> m_rgbColorSpace</text>
</g>
<!-- Node10&#45;&gt;Node6 -->
<g id="edge9" class="edge">
<title>Node10&#45;&gt;Node6</title>
<path fill="none" stroke="#9a32cd" stroke-dasharray="5,2" d="M394.67,-290.68C410.51,-312.66 437.03,-344.54 468,-362 504.36,-382.5 549.59,-393.02 587.69,-398.4"/>
<polygon fill="#9a32cd" stroke="#9a32cd" points="397.35,-288.41 388.75,-282.22 391.62,-292.42 397.35,-288.41"/>
<text text-anchor="middle" x="512.5" y="-395" font-family="Helvetica,sans-Serif" font-size="10.00"> m_rgbColorSpace</text>
</g>
<!-- Node10&#45;&gt;Node12 -->
<g id="edge15" class="edge">
<title>Node10&#45;&gt;Node12</title>
<path fill="none" stroke="#9a32cd" stroke-dasharray="5,2" d="M402.54,-288.94C419.42,-303.27 443.42,-320.94 468,-330 501.6,-342.39 540.48,-347.7 574.88,-349.64"/>
<polygon fill="#9a32cd" stroke="#9a32cd" points="404.69,-286.18 394.86,-282.23 400.09,-291.45 404.69,-286.18"/>
<text text-anchor="middle" x="512.5" y="-350" font-family="Helvetica,sans-Serif" font-size="10.00"> m_rgbColorSpace</text>
</g>
<!-- Node10&#45;&gt;Node15 -->
<g id="edge21" class="edge">
<title>Node10&#45;&gt;Node15</title>
<path fill="none" stroke="#9a32cd" stroke-dasharray="5,2" d="M402.93,-245.36C419.82,-231.48 443.69,-214.51 468,-206 658.95,-139.16 730.17,-237.28 922,-173 958.25,-160.85 994.31,-132.59 1011.73,-117.65"/>
<polygon fill="#9a32cd" stroke="#9a32cd" points="400.6,-242.75 395.23,-251.88 405.12,-248.09 400.6,-242.75"/>
<text text-anchor="middle" x="667.5" y="-198" font-family="Helvetica,sans-Serif" font-size="10.00"> m_rgbColorSpace</text>
</g>
<!-- Node10&#45;&gt;Node16 -->
<g id="edge25" class="edge">
<title>Node10&#45;&gt;Node16</title>
<path fill="none" stroke="#9a32cd" stroke-dasharray="5,2" d="M401.24,-244.49C415.58,-229.66 434.4,-209.62 450,-191 458.56,-180.78 458.59,-176.45 468,-167 478.52,-156.43 561.79,-92.92 575,-86 586.11,-80.18 598.56,-75.2 610.62,-71.06"/>
<polygon fill="#9a32cd" stroke="#9a32cd" points="398.66,-242.12 394.19,-251.73 403.68,-247 398.66,-242.12"/>
<text text-anchor="middle" x="512.5" y="-170" font-family="Helvetica,sans-Serif" font-size="10.00"> m_rgbColorSpace</text>
</g>
<!-- Node10&#45;&gt;Node17 -->
<g id="edge30" class="edge">
<title>Node10&#45;&gt;Node17</title>
<path fill="none" stroke="#9a32cd" stroke-dasharray="5,2" d="M460.1,-275.18C500.31,-279.24 548.64,-284.11 588.42,-288.12"/>
<polygon fill="#9a32cd" stroke="#9a32cd" points="460.37,-271.69 450.07,-274.17 459.67,-278.65 460.37,-271.69"/>
<text text-anchor="middle" x="512.5" y="-287" font-family="Helvetica,sans-Serif" font-size="10.00"> m_rgbColorSpace</text>
</g>
<!-- Node11 -->
<g id="node11" class="node">
<title>Node11</title>
<g id="a_node11"><a xlink:title=" ">
<polygon fill="white" stroke="#bfbfbf" points="138,-257.5 138,-276.5 194,-276.5 194,-257.5 138,-257.5"/>
<text text-anchor="middle" x="166" y="-264.5" font-family="Helvetica,sans-Serif" font-size="10.00">QObject</text>
</a>
</g>
</g>
<!-- Node11&#45;&gt;Node10 -->
<g id="edge10" class="edge">
<title>Node11&#45;&gt;Node10</title>
<path fill="none" stroke="midnightblue" d="M204.21,-267C232.33,-267 271.77,-267 305.87,-267"/>
<polygon fill="midnightblue" stroke="midnightblue" points="204.02,-263.5 194.02,-267 204.02,-270.5 204.02,-263.5"/>
</g>
<!-- Node12&#45;&gt;Node5 -->
<g id="edge11" class="edge">
<title>Node12&#45;&gt;Node5</title>
<path fill="none" stroke="#9a32cd" stroke-dasharray="5,2" d="M770.38,-346.27C826.11,-345.33 894.03,-344.18 945.33,-343.31"/>
<polygon fill="#9a32cd" stroke="#9a32cd" points="770.06,-342.78 760.12,-346.45 770.18,-349.78 770.06,-342.78"/>
<text text-anchor="middle" x="850" y="-349" font-family="Helvetica,sans-Serif" font-size="10.00"> m_chromaLightnessDiagram</text>
</g>
<!-- Node13 -->
<g id="node13" class="node">
<title>Node13</title>
<g id="a_node13"><a xlink:href="class_perceptual_color_1_1_full_color_description.html" target="_top" xlink:title="A fully qualified color.">
<polygon fill="white" stroke="black" points="306.5,-152 306.5,-182 449.5,-182 449.5,-152 306.5,-152"/>
<text text-anchor="start" x="314.5" y="-170" font-family="Helvetica,sans-Serif" font-size="10.00">PerceptualColor::FullColor</text>
<text text-anchor="middle" x="378" y="-159" font-family="Helvetica,sans-Serif" font-size="10.00">Description</text>
</a>
</g>
</g>
<!-- Node13&#45;&gt;Node1 -->
<g id="edge16" class="edge">
<title>Node13&#45;&gt;Node1</title>
<path fill="none" stroke="#9a32cd" stroke-dasharray="5,2" d="M459.91,-166.06C537.18,-165.94 656.8,-167.77 760,-178 955.54,-197.38 1185.69,-244.21 1279.94,-264.43"/>
<polygon fill="#9a32cd" stroke="#9a32cd" points="459.75,-162.56 449.76,-166.09 459.77,-169.56 459.75,-162.56"/>
<text text-anchor="middle" x="850" y="-202" font-family="Helvetica,sans-Serif" font-size="10.00"> m_currentOpaqueColor</text>
</g>
<!-- Node13&#45;&gt;Node12 -->
<g id="edge13" class="edge">
<title>Node13&#45;&gt;Node12</title>
<path fill="none" stroke="#9a32cd" stroke-dasharray="5,2" d="M404.86,-189C419.82,-202.89 437.99,-221.96 450,-242 463,-263.7 449.32,-278.93 468,-296 498,-323.42 517.66,-306.8 557,-317 576.03,-321.94 596.81,-327.72 615.1,-332.94"/>
<polygon fill="#9a32cd" stroke="#9a32cd" points="407.15,-186.34 397.38,-182.23 402.45,-191.53 407.15,-186.34"/>
<text text-anchor="middle" x="512.5" y="-320" font-family="Helvetica,sans-Serif" font-size="10.00"> m_color</text>
</g>
<!-- Node13&#45;&gt;Node15 -->
<g id="edge20" class="edge">
<title>Node13&#45;&gt;Node15</title>
<path fill="none" stroke="#9a32cd" stroke-dasharray="5,2" d="M410.34,-146.84C426.81,-137.39 447.74,-127.1 468,-122 554.73,-100.16 807.53,-102.64 939.74,-105.65"/>
<polygon fill="#9a32cd" stroke="#9a32cd" points="408.5,-143.86 401.68,-151.97 412.07,-149.89 408.5,-143.86"/>
<text text-anchor="middle" x="667.5" y="-112" font-family="Helvetica,sans-Serif" font-size="10.00"> m_color</text>
</g>
<!-- Node13&#45;&gt;Node16 -->
<g id="edge24" class="edge">
<title>Node13&#45;&gt;Node16</title>
<path fill="none" stroke="#9a32cd" stroke-dasharray="5,2" d="M393.48,-143.48C408.88,-120.8 435.47,-87.68 468,-72 507.55,-52.93 556.71,-48.85 596.22,-49.57"/>
<polygon fill="#9a32cd" stroke="#9a32cd" points="390.52,-141.61 387.95,-151.89 396.37,-145.45 390.52,-141.61"/>
<text text-anchor="middle" x="512.5" y="-86" font-family="Helvetica,sans-Serif" font-size="10.00"> m_secondColor</text>
<text text-anchor="middle" x="512.5" y="-75" font-family="Helvetica,sans-Serif" font-size="10.00">m_firstColor</text>
</g>
<!-- Node13&#45;&gt;Node17 -->
<g id="edge29" class="edge">
<title>Node13&#45;&gt;Node17</title>
<path fill="none" stroke="#9a32cd" stroke-dasharray="5,2" d="M421.72,-186.17C479.19,-211.96 580.25,-257.3 632.73,-280.85"/>
<polygon fill="#9a32cd" stroke="#9a32cd" points="423.1,-182.95 412.54,-182.05 420.23,-189.34 423.1,-182.95"/>
<text text-anchor="middle" x="512.5" y="-250" font-family="Helvetica,sans-Serif" font-size="10.00"> m_color</text>
</g>
<!-- Node14 -->
<g id="node14" class="node">
<title>Node14</title>
<g id="a_node14"><a xlink:href="struct_perceptual_color_1_1_helper_1_1cms_r_g_b.html" target="_top" xlink:title="An RGB color.">
<polygon fill="white" stroke="black" points="100,-152 100,-182 232,-182 232,-152 100,-152"/>
<text text-anchor="start" x="108" y="-170" font-family="Helvetica,sans-Serif" font-size="10.00">PerceptualColor::Helper</text>
<text text-anchor="middle" x="166" y="-159" font-family="Helvetica,sans-Serif" font-size="10.00">::cmsRGB</text>
</a>
</g>
</g>
<!-- Node14&#45;&gt;Node13 -->
<g id="edge14" class="edge">
<title>Node14&#45;&gt;Node13</title>
<path fill="none" stroke="#9a32cd" stroke-dasharray="5,2" d="M242.14,-167C263.1,-167 285.78,-167 306.46,-167"/>
<polygon fill="#9a32cd" stroke="#9a32cd" points="242.01,-163.5 232.01,-167 242.01,-170.5 242.01,-163.5"/>
<text text-anchor="middle" x="271" y="-170" font-family="Helvetica,sans-Serif" font-size="10.00"> m_rgb</text>
</g>
<!-- Node15&#45;&gt;Node1 -->
<g id="edge18" class="edge">
<title>Node15&#45;&gt;Node1</title>
<path fill="none" stroke="#9a32cd" stroke-dasharray="5,2" d="M1117.63,-103.33C1154.32,-105.45 1195.38,-113.05 1228,-133 1280.46,-165.08 1310.72,-238.11 1320.22,-264.37"/>
<polygon fill="#9a32cd" stroke="#9a32cd" points="1117.56,-99.82 1107.41,-102.87 1117.24,-106.82 1117.56,-99.82"/>
<text text-anchor="middle" x="1176.5" y="-136" font-family="Helvetica,sans-Serif" font-size="10.00"> m_alphaSelector</text>
</g>
<!-- Node16&#45;&gt;Node1 -->
<g id="edge26" class="edge">
<title>Node16&#45;&gt;Node1</title>
<path fill="none" stroke="#9a32cd" stroke-dasharray="5,2" d="M744.9,-39.17C861.13,-18.19 1084.05,3.32 1228,-101 1286.89,-143.68 1313.74,-234.31 1321.23,-264.21"/>
<polygon fill="#9a32cd" stroke="#9a32cd" points="744.2,-35.74 735.01,-41 745.48,-42.62 744.2,-35.74"/>
<text text-anchor="middle" x="1023.5" y="-46" font-family="Helvetica,sans-Serif" font-size="10.00"> m_lchLightnessSelector</text>
</g>
<!-- Node16&#45;&gt;Node15 -->
<g id="edge22" class="edge">
<title>Node16&#45;&gt;Node15</title>
<path fill="none" stroke="#9a32cd" stroke-dasharray="5,2" d="M748.65,-61.7C798.72,-65.95 864.41,-72.82 922,-83 944.49,-86.97 969.4,-93.16 988.79,-98.38"/>
<polygon fill="#9a32cd" stroke="#9a32cd" points="748.79,-58.19 738.53,-60.85 748.21,-65.17 748.79,-58.19"/>
<text text-anchor="middle" x="850" y="-86" font-family="Helvetica,sans-Serif" font-size="10.00"> m_gradientSelector</text>
</g>
<!-- Node17&#45;&gt;Node1 -->
<g id="edge27" class="edge">
<title>Node17&#45;&gt;Node1</title>
<path fill="none" stroke="#9a32cd" stroke-dasharray="5,2" d="M756.76,-293.04C885.68,-288.71 1123.44,-280.72 1245.98,-276.6"/>
<polygon fill="#9a32cd" stroke="#9a32cd" points="756.41,-289.55 746.53,-293.38 756.65,-296.54 756.41,-289.55"/>
<text text-anchor="middle" x="1023.5" y="-289" font-family="Helvetica,sans-Serif" font-size="10.00"> m_chromaHueDiagram</text>
</g>
</g>
</svg>
