<?xml version="1.0" encoding="UTF-8" standalone="no"?>
<!DOCTYPE svg PUBLIC "-//W3C//DTD SVG 1.1//EN"
 "http://www.w3.org/Graphics/SVG/1.1/DTD/svg11.dtd">
<!-- Generated by graphviz version 2.43.0 (0)
 -->
<!-- Title: PerceptualColor::ChromaHueDiagram::updateDiagramCache Pages: 1 -->
<svg width="770pt" height="112pt"
 viewBox="0.00 0.00 770.00 112.00" xmlns="http://www.w3.org/2000/svg" xmlns:xlink="http://www.w3.org/1999/xlink">
<g id="graph0" class="graph" transform="scale(1 1) rotate(0) translate(4 108)">
<title>PerceptualColor::ChromaHueDiagram::updateDiagramCache</title>
<polygon fill="white" stroke="transparent" points="-4,4 -4,-108 766,-108 766,4 -4,4"/>
<!-- Node1 -->
<g id="node1" class="node">
<title>Node1</title>
<g id="a_node1"><a xlink:title="Refresh the diagram and associated data.">
<polygon fill="#bfbfbf" stroke="black" points="0,-24.5 0,-54.5 170,-54.5 170,-24.5 0,-24.5"/>
<text text-anchor="start" x="8" y="-42.5" font-family="Helvetica,sans-Serif" font-size="10.00">PerceptualColor::ChromaHue</text>
<text text-anchor="middle" x="85" y="-31.5" font-family="Helvetica,sans-Serif" font-size="10.00">Diagram::updateDiagramCache</text>
</a>
</g>
</g>
<!-- Node2 -->
<g id="node2" class="node">
<title>Node2</title>
<g id="a_node2"><a xlink:href="class_perceptual_color_1_1_chroma_hue_diagram.html#adc53e31427f7c15d0aedc521aea5edd7" target="_top" xlink:title="in image of a&#45;b plane of the color space at a given lightness">
<polygon fill="white" stroke="black" points="206,-49.5 206,-79.5 387,-79.5 387,-49.5 206,-49.5"/>
<text text-anchor="start" x="214" y="-67.5" font-family="Helvetica,sans-Serif" font-size="10.00">PerceptualColor::ChromaHue</text>
<text text-anchor="middle" x="296.5" y="-56.5" font-family="Helvetica,sans-Serif" font-size="10.00">Diagram::generateDiagramImage</text>
</a>
</g>
</g>
<!-- Node1&#45;&gt;Node2 -->
<g id="edge1" class="edge">
<title>Node1&#45;&gt;Node2</title>
<path fill="none" stroke="midnightblue" d="M170,-49.52C178.51,-50.54 187.21,-51.58 195.87,-52.61"/>
<polygon fill="midnightblue" stroke="midnightblue" points="195.64,-56.11 205.99,-53.82 196.47,-49.16 195.64,-56.11"/>
</g>
<!-- Node6 -->
<g id="node6" class="node">
<title>Node6</title>
<g id="a_node6"><a xlink:href="class_perceptual_color_1_1_full_color_description.html#acdbff4639f8a118f0d13a831a4b57ffe" target="_top" xlink:title=" ">
<polygon fill="white" stroke="black" points="225,-0.5 225,-30.5 368,-30.5 368,-0.5 225,-0.5"/>
<text text-anchor="start" x="233" y="-18.5" font-family="Helvetica,sans-Serif" font-size="10.00">PerceptualColor::FullColor</text>
<text text-anchor="middle" x="296.5" y="-7.5" font-family="Helvetica,sans-Serif" font-size="10.00">Description::toLch</text>
</a>
</g>
</g>
<!-- Node1&#45;&gt;Node6 -->
<g id="edge5" class="edge">
<title>Node1&#45;&gt;Node6</title>
<path fill="none" stroke="midnightblue" d="M170,-29.88C184.8,-28.18 200.18,-26.42 214.88,-24.74"/>
<polygon fill="midnightblue" stroke="midnightblue" points="215.4,-28.2 224.94,-23.58 214.6,-21.24 215.4,-28.2"/>
</g>
<!-- Node3 -->
<g id="node3" class="node">
<title>Node3</title>
<g id="a_node3"><a xlink:href="class_perceptual_color_1_1_rgb_color_space.html#a813721e6284e83c8493f1557eeeb4469" target="_top" xlink:title="Calculates the Lab value.">
<polygon fill="white" stroke="black" points="423,-73.5 423,-103.5 567,-103.5 567,-73.5 423,-73.5"/>
<text text-anchor="start" x="431" y="-91.5" font-family="Helvetica,sans-Serif" font-size="10.00">PerceptualColor::RgbColor</text>
<text text-anchor="middle" x="495" y="-80.5" font-family="Helvetica,sans-Serif" font-size="10.00">Space::colorLab</text>
</a>
</g>
</g>
<!-- Node2&#45;&gt;Node3 -->
<g id="edge2" class="edge">
<title>Node2&#45;&gt;Node3</title>
<path fill="none" stroke="midnightblue" d="M387.12,-75.45C395.62,-76.48 404.19,-77.53 412.6,-78.56"/>
<polygon fill="midnightblue" stroke="midnightblue" points="412.41,-82.06 422.76,-79.8 413.26,-75.11 412.41,-82.06"/>
</g>
<!-- Node4 -->
<g id="node4" class="node">
<title>Node4</title>
<g id="a_node4"><a xlink:href="class_perceptual_color_1_1_rgb_color_space.html#a597d093bcc9c79444792359569e537b4" target="_top" xlink:title="Calculates the RGB value.">
<polygon fill="white" stroke="black" points="423,-24.5 423,-54.5 567,-54.5 567,-24.5 423,-24.5"/>
<text text-anchor="start" x="431" y="-42.5" font-family="Helvetica,sans-Serif" font-size="10.00">PerceptualColor::RgbColor</text>
<text text-anchor="middle" x="495" y="-31.5" font-family="Helvetica,sans-Serif" font-size="10.00">Space::colorRgbBound</text>
</a>
</g>
</g>
<!-- Node2&#45;&gt;Node4 -->
<g id="edge3" class="edge">
<title>Node2&#45;&gt;Node4</title>
<path fill="none" stroke="midnightblue" d="M387.12,-53.1C395.62,-52.02 404.19,-50.93 412.6,-49.86"/>
<polygon fill="midnightblue" stroke="midnightblue" points="413.28,-53.3 422.76,-48.56 412.4,-46.35 413.28,-53.3"/>
</g>
<!-- Node5 -->
<g id="node5" class="node">
<title>Node5</title>
<g id="a_node5"><a xlink:href="class_perceptual_color_1_1_rgb_color_space.html#aeb749cb42b24d3989be041a7d4096258" target="_top" xlink:title=" ">
<polygon fill="white" stroke="black" points="603,-24.5 603,-54.5 762,-54.5 762,-24.5 603,-24.5"/>
<text text-anchor="start" x="611" y="-42.5" font-family="Helvetica,sans-Serif" font-size="10.00">PerceptualColor::RgbColor</text>
<text text-anchor="middle" x="682.5" y="-31.5" font-family="Helvetica,sans-Serif" font-size="10.00">Space::colorRgbBoundSimple</text>
</a>
</g>
</g>
<!-- Node4&#45;&gt;Node5 -->
<g id="edge4" class="edge">
<title>Node4&#45;&gt;Node5</title>
<path fill="none" stroke="midnightblue" d="M567.19,-39.5C575.56,-39.5 584.18,-39.5 592.75,-39.5"/>
<polygon fill="midnightblue" stroke="midnightblue" points="592.78,-43 602.78,-39.5 592.78,-36 592.78,-43"/>
</g>
</g>
</svg>
