<?xml version="1.0" encoding="UTF-8" standalone="no"?>
<!DOCTYPE svg PUBLIC "-//W3C//DTD SVG 1.1//EN"
 "http://www.w3.org/Graphics/SVG/1.1/DTD/svg11.dtd">
<!-- Generated by graphviz version 2.43.0 (0)
 -->
<!-- Title: PerceptualColor::FullColorDescription::toLab Pages: 1 -->
<svg width="846pt" height="161pt"
 viewBox="0.00 0.00 846.00 161.00" xmlns="http://www.w3.org/2000/svg" xmlns:xlink="http://www.w3.org/1999/xlink">
<g id="graph0" class="graph" transform="scale(1 1) rotate(0) translate(4 157)">
<title>PerceptualColor::FullColorDescription::toLab</title>
<polygon fill="white" stroke="transparent" points="-4,4 -4,-157 842,-157 842,4 -4,4"/>
<!-- Node1 -->
<g id="node1" class="node">
<title>Node1</title>
<g id="a_node1"><a xlink:title=" ">
<polygon fill="#bfbfbf" stroke="black" points="695,-73.5 695,-103.5 838,-103.5 838,-73.5 695,-73.5"/>
<text text-anchor="start" x="703" y="-91.5" font-family="Helvetica,sans-Serif" font-size="10.00">PerceptualColor::FullColor</text>
<text text-anchor="middle" x="766.5" y="-80.5" font-family="Helvetica,sans-Serif" font-size="10.00">Description::toLab</text>
</a>
</g>
</g>
<!-- Node2 -->
<g id="node2" class="node">
<title>Node2</title>
<g id="a_node2"><a xlink:href="class_perceptual_color_1_1_full_color_description.html#a7d27cb4b18ebaf0a3d0374201c2d283a" target="_top" xlink:title="Constructor.">
<polygon fill="white" stroke="black" points="469,-122.5 469,-152.5 645,-152.5 645,-122.5 469,-122.5"/>
<text text-anchor="start" x="477" y="-140.5" font-family="Helvetica,sans-Serif" font-size="10.00">PerceptualColor::FullColor</text>
<text text-anchor="middle" x="557" y="-129.5" font-family="Helvetica,sans-Serif" font-size="10.00">Description::FullColorDescription</text>
</a>
</g>
</g>
<!-- Node1&#45;&gt;Node2 -->
<g id="edge1" class="edge">
<title>Node1&#45;&gt;Node2</title>
<path fill="none" stroke="midnightblue" d="M691.8,-105.9C668.85,-111.32 643.74,-117.25 621.55,-122.49"/>
<polygon fill="midnightblue" stroke="midnightblue" points="692.91,-109.24 701.83,-103.53 691.3,-102.43 692.91,-109.24"/>
</g>
<!-- Node3 -->
<g id="node3" class="node">
<title>Node3</title>
<g id="a_node3"><a xlink:href="class_perceptual_color_1_1_chroma_hue_diagram.html#a3a62b8d0b33df74dacd6150865c57382" target="_top" xlink:title=" ">
<polygon fill="white" stroke="black" points="455,-73.5 455,-103.5 659,-103.5 659,-73.5 455,-73.5"/>
<text text-anchor="start" x="463" y="-91.5" font-family="Helvetica,sans-Serif" font-size="10.00">PerceptualColor::ChromaHue</text>
<text text-anchor="middle" x="557" y="-80.5" font-family="Helvetica,sans-Serif" font-size="10.00">Diagram::imageCoordinatesFromColor</text>
</a>
</g>
</g>
<!-- Node1&#45;&gt;Node3 -->
<g id="edge2" class="edge">
<title>Node1&#45;&gt;Node3</title>
<path fill="none" stroke="midnightblue" d="M684.84,-88.5C676.44,-88.5 667.83,-88.5 659.24,-88.5"/>
<polygon fill="midnightblue" stroke="midnightblue" points="684.96,-92 694.96,-88.5 684.96,-85 684.96,-92"/>
</g>
<!-- Node9 -->
<g id="node9" class="node">
<title>Node9</title>
<g id="a_node9"><a xlink:href="namespace_perceptual_color.html#a620b7112ca52bb01e49162724d26887f" target="_top" xlink:title="Adds QDebug() support for this data type.">
<polygon fill="white" stroke="black" points="478,-35 478,-54 636,-54 636,-35 478,-35"/>
<text text-anchor="middle" x="557" y="-42" font-family="Helvetica,sans-Serif" font-size="10.00">PerceptualColor::operator&lt;&lt;</text>
</a>
</g>
</g>
<!-- Node1&#45;&gt;Node9 -->
<g id="edge8" class="edge">
<title>Node1&#45;&gt;Node9</title>
<path fill="none" stroke="midnightblue" d="M690.03,-71.23C679.61,-68.93 669.05,-66.63 659,-64.5 642.21,-60.95 623.81,-57.25 607.37,-54.01"/>
<polygon fill="midnightblue" stroke="midnightblue" points="689.42,-74.69 699.94,-73.44 690.94,-67.85 689.42,-74.69"/>
</g>
<!-- Node4 -->
<g id="node4" class="node">
<title>Node4</title>
<g id="a_node4"><a xlink:href="class_perceptual_color_1_1_chroma_hue_diagram.html#ad7709d55647d4a6842f34a5dd10cb2a9" target="_top" xlink:title="Paint the widget.">
<polygon fill="white" stroke="black" points="230.5,-98.5 230.5,-128.5 388.5,-128.5 388.5,-98.5 230.5,-98.5"/>
<text text-anchor="start" x="238.5" y="-116.5" font-family="Helvetica,sans-Serif" font-size="10.00">PerceptualColor::ChromaHue</text>
<text text-anchor="middle" x="309.5" y="-105.5" font-family="Helvetica,sans-Serif" font-size="10.00">Diagram::paintEvent</text>
</a>
</g>
</g>
<!-- Node3&#45;&gt;Node4 -->
<g id="edge3" class="edge">
<title>Node3&#45;&gt;Node4</title>
<path fill="none" stroke="midnightblue" d="M444.59,-99.85C425.71,-101.77 406.46,-103.73 388.66,-105.54"/>
<polygon fill="midnightblue" stroke="midnightblue" points="445.13,-103.31 454.73,-98.81 444.43,-96.34 445.13,-103.31"/>
</g>
<!-- Node5 -->
<g id="node5" class="node">
<title>Node5</title>
<g id="a_node5"><a xlink:href="class_perceptual_color_1_1_chroma_hue_diagram.html#a65ff87dfbc2ffa5d71b5e58c30d3b39c" target="_top" xlink:title="Sets the color property corresponding to given widget coordinates.">
<polygon fill="white" stroke="black" points="200,-49.5 200,-79.5 419,-79.5 419,-49.5 200,-49.5"/>
<text text-anchor="start" x="208" y="-67.5" font-family="Helvetica,sans-Serif" font-size="10.00">PerceptualColor::ChromaHue</text>
<text text-anchor="middle" x="309.5" y="-56.5" font-family="Helvetica,sans-Serif" font-size="10.00">Diagram::setColorFromImageCoordinates</text>
</a>
</g>
</g>
<!-- Node3&#45;&gt;Node5 -->
<g id="edge4" class="edge">
<title>Node3&#45;&gt;Node5</title>
<path fill="none" stroke="midnightblue" d="M444.76,-77.62C436.22,-76.79 427.61,-75.95 419.1,-75.12"/>
<polygon fill="midnightblue" stroke="midnightblue" points="444.44,-81.11 454.73,-78.6 445.12,-74.14 444.44,-81.11"/>
</g>
<!-- Node6 -->
<g id="node6" class="node">
<title>Node6</title>
<g id="a_node6"><a xlink:href="class_perceptual_color_1_1_chroma_hue_diagram.html#a16bcb9d0eee3536fe4f1034d2b9c3329" target="_top" xlink:title="React on a mouse move event.">
<polygon fill="white" stroke="black" points="3,-98.5 3,-128.5 161,-128.5 161,-98.5 3,-98.5"/>
<text text-anchor="start" x="11" y="-116.5" font-family="Helvetica,sans-Serif" font-size="10.00">PerceptualColor::ChromaHue</text>
<text text-anchor="middle" x="82" y="-105.5" font-family="Helvetica,sans-Serif" font-size="10.00">Diagram::mouseMoveEvent</text>
</a>
</g>
</g>
<!-- Node5&#45;&gt;Node6 -->
<g id="edge5" class="edge">
<title>Node5&#45;&gt;Node6</title>
<path fill="none" stroke="midnightblue" d="M229.41,-81.69C204.2,-87.16 176.51,-93.18 152.06,-98.49"/>
<polygon fill="midnightblue" stroke="midnightblue" points="230.28,-85.08 239.31,-79.53 228.79,-78.24 230.28,-85.08"/>
</g>
<!-- Node7 -->
<g id="node7" class="node">
<title>Node7</title>
<g id="a_node7"><a xlink:href="class_perceptual_color_1_1_chroma_hue_diagram.html#ad8957ee9c3a3ecb73841c00110ee3058" target="_top" xlink:title="React on a mouse press event.">
<polygon fill="white" stroke="black" points="3,-49.5 3,-79.5 161,-79.5 161,-49.5 3,-49.5"/>
<text text-anchor="start" x="11" y="-67.5" font-family="Helvetica,sans-Serif" font-size="10.00">PerceptualColor::ChromaHue</text>
<text text-anchor="middle" x="82" y="-56.5" font-family="Helvetica,sans-Serif" font-size="10.00">Diagram::mousePressEvent</text>
</a>
</g>
</g>
<!-- Node5&#45;&gt;Node7 -->
<g id="edge6" class="edge">
<title>Node5&#45;&gt;Node7</title>
<path fill="none" stroke="midnightblue" d="M189.61,-64.5C179.92,-64.5 170.29,-64.5 161.01,-64.5"/>
<polygon fill="midnightblue" stroke="midnightblue" points="189.71,-68 199.71,-64.5 189.71,-61 189.71,-68"/>
</g>
<!-- Node8 -->
<g id="node8" class="node">
<title>Node8</title>
<g id="a_node8"><a xlink:href="class_perceptual_color_1_1_chroma_hue_diagram.html#adfe93a3ac0005a23c03465635089d846" target="_top" xlink:title="React on a mouse release event.">
<polygon fill="white" stroke="black" points="0,-0.5 0,-30.5 164,-30.5 164,-0.5 0,-0.5"/>
<text text-anchor="start" x="8" y="-18.5" font-family="Helvetica,sans-Serif" font-size="10.00">PerceptualColor::ChromaHue</text>
<text text-anchor="middle" x="82" y="-7.5" font-family="Helvetica,sans-Serif" font-size="10.00">Diagram::mouseReleaseEvent</text>
</a>
</g>
</g>
<!-- Node5&#45;&gt;Node8 -->
<g id="edge7" class="edge">
<title>Node5&#45;&gt;Node8</title>
<path fill="none" stroke="midnightblue" d="M229.41,-47.31C204.2,-41.84 176.51,-35.82 152.06,-30.51"/>
<polygon fill="midnightblue" stroke="midnightblue" points="228.79,-50.76 239.31,-49.47 230.28,-43.92 228.79,-50.76"/>
</g>
</g>
</svg>
