<?xml version="1.0" encoding="UTF-8" standalone="no"?>
<!DOCTYPE svg PUBLIC "-//W3C//DTD SVG 1.1//EN"
 "http://www.w3.org/Graphics/SVG/1.1/DTD/svg11.dtd">
<!-- Generated by graphviz version 2.43.0 (0)
 -->
<!-- Title: PerceptualColor::SimpleColorWheel::paintEvent Pages: 1 -->
<svg width="794pt" height="192pt"
 viewBox="0.00 0.00 794.00 192.00" xmlns="http://www.w3.org/2000/svg" xmlns:xlink="http://www.w3.org/1999/xlink">
<g id="graph0" class="graph" transform="scale(1 1) rotate(0) translate(4 188)">
<title>PerceptualColor::SimpleColorWheel::paintEvent</title>
<polygon fill="white" stroke="transparent" points="-4,4 -4,-188 790,-188 790,4 -4,4"/>
<!-- Node1 -->
<g id="node1" class="node">
<title>Node1</title>
<g id="a_node1"><a xlink:title="Paint the widget.">
<polygon fill="#bfbfbf" stroke="black" points="0,-104.5 0,-134.5 159,-134.5 159,-104.5 0,-104.5"/>
<text text-anchor="start" x="8" y="-122.5" font-family="Helvetica,sans-Serif" font-size="10.00">PerceptualColor::SimpleColor</text>
<text text-anchor="middle" x="79.5" y="-111.5" font-family="Helvetica,sans-Serif" font-size="10.00">Wheel::paintEvent</text>
</a>
</g>
</g>
<!-- Node2 -->
<g id="node2" class="node">
<title>Node2</title>
<g id="a_node2"><a xlink:href="class_perceptual_color_1_1_simple_color_wheel.html#a6fe09144d693f81d5c7d8306666bc2aa" target="_top" xlink:title="The diameter of the widget content.">
<polygon fill="white" stroke="black" points="442,-153.5 442,-183.5 601,-183.5 601,-153.5 442,-153.5"/>
<text text-anchor="start" x="450" y="-171.5" font-family="Helvetica,sans-Serif" font-size="10.00">PerceptualColor::SimpleColor</text>
<text text-anchor="middle" x="521.5" y="-160.5" font-family="Helvetica,sans-Serif" font-size="10.00">Wheel::contentDiameter</text>
</a>
</g>
</g>
<!-- Node1&#45;&gt;Node2 -->
<g id="edge1" class="edge">
<title>Node1&#45;&gt;Node2</title>
<path fill="none" stroke="midnightblue" d="M129.08,-134.5C149.28,-140.14 173.08,-146.02 195,-149.5 274.34,-162.08 365.74,-166.55 431.45,-168.04"/>
<polygon fill="midnightblue" stroke="midnightblue" points="431.7,-171.55 441.77,-168.25 431.84,-164.55 431.7,-171.55"/>
</g>
<!-- Node3 -->
<g id="node3" class="node">
<title>Node3</title>
<g id="a_node3"><a xlink:href="class_perceptual_color_1_1_simple_color_wheel.html#a45d568d5ec1f9ffc175f9bdc527c54e3" target="_top" xlink:title="Converts wheel coordinates to widget coordinates.">
<polygon fill="white" stroke="black" points="195,-99 195,-140 406,-140 406,-99 195,-99"/>
<text text-anchor="start" x="203" y="-128" font-family="Helvetica,sans-Serif" font-size="10.00">PerceptualColor::SimpleColor</text>
<text text-anchor="start" x="203" y="-117" font-family="Helvetica,sans-Serif" font-size="10.00">Wheel::fromWheelCoordinatesToWidget</text>
<text text-anchor="middle" x="300.5" y="-106" font-family="Helvetica,sans-Serif" font-size="10.00">Coordinates</text>
</a>
</g>
</g>
<!-- Node1&#45;&gt;Node3 -->
<g id="edge2" class="edge">
<title>Node1&#45;&gt;Node3</title>
<path fill="none" stroke="midnightblue" d="M159.25,-119.5C167.54,-119.5 176.08,-119.5 184.66,-119.5"/>
<polygon fill="midnightblue" stroke="midnightblue" points="184.75,-123 194.75,-119.5 184.75,-116 184.75,-123"/>
</g>
<!-- Node5 -->
<g id="node5" class="node">
<title>Node5</title>
<g id="a_node5"><a xlink:href="class_perceptual_color_1_1_simple_color_wheel.html#ac454a7cd994298cad632b343c2efe6ba" target="_top" xlink:title="Refresh the wheel ribbon pixmap.">
<polygon fill="white" stroke="black" points="221,-49.5 221,-79.5 380,-79.5 380,-49.5 221,-49.5"/>
<text text-anchor="start" x="229" y="-67.5" font-family="Helvetica,sans-Serif" font-size="10.00">PerceptualColor::SimpleColor</text>
<text text-anchor="middle" x="300.5" y="-56.5" font-family="Helvetica,sans-Serif" font-size="10.00">Wheel::updateWheelImage</text>
</a>
</g>
</g>
<!-- Node1&#45;&gt;Node5 -->
<g id="edge5" class="edge">
<title>Node1&#45;&gt;Node5</title>
<path fill="none" stroke="midnightblue" d="M136.93,-104.46C155.41,-99.6 176.06,-94.25 195,-89.5 204.94,-87.01 215.43,-84.44 225.77,-81.93"/>
<polygon fill="midnightblue" stroke="midnightblue" points="226.72,-85.3 235.62,-79.55 225.08,-78.5 226.72,-85.3"/>
</g>
<!-- Node3&#45;&gt;Node2 -->
<g id="edge3" class="edge">
<title>Node3&#45;&gt;Node2</title>
<path fill="none" stroke="midnightblue" d="M393.42,-140.07C410.1,-143.8 427.33,-147.65 443.52,-151.28"/>
<polygon fill="midnightblue" stroke="midnightblue" points="442.92,-154.73 453.45,-153.5 444.45,-147.9 442.92,-154.73"/>
</g>
<!-- Node4 -->
<g id="node4" class="node">
<title>Node4</title>
<g id="a_node4"><a xlink:href="class_perceptual_color_1_1_polar_point_f.html#aed5188496a9aa06270e590f1f5d3202a" target="_top" xlink:title="Convert to cartesion coordinates.">
<polygon fill="white" stroke="black" points="447,-104.5 447,-134.5 596,-134.5 596,-104.5 447,-104.5"/>
<text text-anchor="start" x="455" y="-122.5" font-family="Helvetica,sans-Serif" font-size="10.00">PerceptualColor::PolarPoint</text>
<text text-anchor="middle" x="521.5" y="-111.5" font-family="Helvetica,sans-Serif" font-size="10.00">F::toCartesian</text>
</a>
</g>
</g>
<!-- Node3&#45;&gt;Node4 -->
<g id="edge4" class="edge">
<title>Node3&#45;&gt;Node4</title>
<path fill="none" stroke="midnightblue" d="M406.19,-119.5C416.39,-119.5 426.65,-119.5 436.61,-119.5"/>
<polygon fill="midnightblue" stroke="midnightblue" points="436.86,-123 446.86,-119.5 436.86,-116 436.86,-123"/>
</g>
<!-- Node6 -->
<g id="node6" class="node">
<title>Node6</title>
<g id="a_node6"><a xlink:href="class_perceptual_color_1_1_simple_color_wheel.html#acff6e0159f9cb6c41c0bbedb9f6da1c4" target="_top" xlink:title="Generates an image of a color wheel.">
<polygon fill="white" stroke="black" points="442,-49.5 442,-79.5 601,-79.5 601,-49.5 442,-49.5"/>
<text text-anchor="start" x="450" y="-67.5" font-family="Helvetica,sans-Serif" font-size="10.00">PerceptualColor::SimpleColor</text>
<text text-anchor="middle" x="521.5" y="-56.5" font-family="Helvetica,sans-Serif" font-size="10.00">Wheel::generateWheelImage</text>
</a>
</g>
</g>
<!-- Node5&#45;&gt;Node6 -->
<g id="edge6" class="edge">
<title>Node5&#45;&gt;Node6</title>
<path fill="none" stroke="midnightblue" d="M380.25,-64.5C396.81,-64.5 414.38,-64.5 431.28,-64.5"/>
<polygon fill="midnightblue" stroke="midnightblue" points="431.71,-68 441.71,-64.5 431.71,-61 431.71,-68"/>
</g>
<!-- Node7 -->
<g id="node7" class="node">
<title>Node7</title>
<g id="a_node7"><a xlink:href="class_perceptual_color_1_1_polar_point_f.html#a882cd166affc603fc62241dcb3be4fd5" target="_top" xlink:title="Normalized angle.">
<polygon fill="white" stroke="black" points="637,-98.5 637,-128.5 786,-128.5 786,-98.5 637,-98.5"/>
<text text-anchor="start" x="645" y="-116.5" font-family="Helvetica,sans-Serif" font-size="10.00">PerceptualColor::PolarPoint</text>
<text text-anchor="middle" x="711.5" y="-105.5" font-family="Helvetica,sans-Serif" font-size="10.00">F::angleDegree</text>
</a>
</g>
</g>
<!-- Node6&#45;&gt;Node7 -->
<g id="edge7" class="edge">
<title>Node6&#45;&gt;Node7</title>
<path fill="none" stroke="midnightblue" d="M580.18,-79.53C600.03,-84.71 622.44,-90.55 643,-95.91"/>
<polygon fill="midnightblue" stroke="midnightblue" points="642.37,-99.36 652.93,-98.49 644.13,-92.58 642.37,-99.36"/>
</g>
<!-- Node8 -->
<g id="node8" class="node">
<title>Node8</title>
<g id="a_node8"><a xlink:href="class_perceptual_color_1_1_rgb_color_space.html#ab494c2d0f561c49b8325688a8ddc0095" target="_top" xlink:title="Calculates the RGB value.">
<polygon fill="white" stroke="black" points="639.5,-49.5 639.5,-79.5 783.5,-79.5 783.5,-49.5 639.5,-49.5"/>
<text text-anchor="start" x="647.5" y="-67.5" font-family="Helvetica,sans-Serif" font-size="10.00">PerceptualColor::RgbColor</text>
<text text-anchor="middle" x="711.5" y="-56.5" font-family="Helvetica,sans-Serif" font-size="10.00">Space::colorRgb</text>
</a>
</g>
</g>
<!-- Node6&#45;&gt;Node8 -->
<g id="edge8" class="edge">
<title>Node6&#45;&gt;Node8</title>
<path fill="none" stroke="midnightblue" d="M601.14,-64.5C610.45,-64.5 619.97,-64.5 629.31,-64.5"/>
<polygon fill="midnightblue" stroke="midnightblue" points="629.37,-68 639.37,-64.5 629.37,-61 629.37,-68"/>
</g>
<!-- Node9 -->
<g id="node9" class="node">
<title>Node9</title>
<g id="a_node9"><a xlink:href="class_perceptual_color_1_1_polar_point_f.html#ad9e45debe2dc38bbba834d791336f1fd" target="_top" xlink:title="Normalized radial.">
<polygon fill="white" stroke="black" points="637,-0.5 637,-30.5 786,-30.5 786,-0.5 637,-0.5"/>
<text text-anchor="start" x="645" y="-18.5" font-family="Helvetica,sans-Serif" font-size="10.00">PerceptualColor::PolarPoint</text>
<text text-anchor="middle" x="711.5" y="-7.5" font-family="Helvetica,sans-Serif" font-size="10.00">F::radial</text>
</a>
</g>
</g>
<!-- Node6&#45;&gt;Node9 -->
<g id="edge9" class="edge">
<title>Node6&#45;&gt;Node9</title>
<path fill="none" stroke="midnightblue" d="M580.18,-49.47C600.03,-44.29 622.44,-38.45 643,-33.09"/>
<polygon fill="midnightblue" stroke="midnightblue" points="644.13,-36.42 652.93,-30.51 642.37,-29.64 644.13,-36.42"/>
</g>
</g>
</svg>
