<?xml version="1.0" encoding="UTF-8" standalone="no"?>
<!DOCTYPE svg PUBLIC "-//W3C//DTD SVG 1.1//EN"
 "http://www.w3.org/Graphics/SVG/1.1/DTD/svg11.dtd">
<!-- Generated by graphviz version 2.43.0 (0)
 -->
<!-- Title: PerceptualColor::ColorDialog::readRgbNumericValues Pages: 1 -->
<svg width="1345pt" height="586pt"
 viewBox="0.00 0.00 1345.00 586.00" xmlns="http://www.w3.org/2000/svg" xmlns:xlink="http://www.w3.org/1999/xlink">
<g id="graph0" class="graph" transform="scale(1 1) rotate(0) translate(4 582)">
<title>PerceptualColor::ColorDialog::readRgbNumericValues</title>
<polygon fill="white" stroke="transparent" points="-4,4 -4,-582 1341,-582 1341,4 -4,4"/>
<!-- Node1 -->
<g id="node1" class="node">
<title>Node1</title>
<g id="a_node1"><a xlink:title="Reads the decimal RGB numbers in the dialog and updates the dialog accordingly.">
<polygon fill="#bfbfbf" stroke="black" points="0,-235.5 0,-265.5 157,-265.5 157,-235.5 0,-235.5"/>
<text text-anchor="start" x="8" y="-253.5" font-family="Helvetica,sans-Serif" font-size="10.00">PerceptualColor::ColorDialog</text>
<text text-anchor="middle" x="78.5" y="-242.5" font-family="Helvetica,sans-Serif" font-size="10.00">::readRgbNumericValues</text>
</a>
</g>
</g>
<!-- Node2 -->
<g id="node2" class="node">
<title>Node2</title>
<g id="a_node2"><a xlink:href="class_perceptual_color_1_1_color_dialog.html#acf0e7b1b619cee3fc7f5a992e2c93e7d" target="_top" xlink:title="Convenience version of setCurrentOpaqueColor(), accepting QColor.">
<polygon fill="white" stroke="black" points="193,-235.5 193,-265.5 350,-265.5 350,-235.5 193,-235.5"/>
<text text-anchor="start" x="201" y="-253.5" font-family="Helvetica,sans-Serif" font-size="10.00">PerceptualColor::ColorDialog</text>
<text text-anchor="middle" x="271.5" y="-242.5" font-family="Helvetica,sans-Serif" font-size="10.00">::setCurrentOpaqueQColor</text>
</a>
</g>
</g>
<!-- Node1&#45;&gt;Node2 -->
<g id="edge1" class="edge">
<title>Node1&#45;&gt;Node2</title>
<path fill="none" stroke="midnightblue" d="M157.19,-250.5C165.65,-250.5 174.31,-250.5 182.88,-250.5"/>
<polygon fill="midnightblue" stroke="midnightblue" points="182.88,-254 192.88,-250.5 182.88,-247 182.88,-254"/>
</g>
<!-- Node3 -->
<g id="node3" class="node">
<title>Node3</title>
<g id="a_node3"><a xlink:href="class_perceptual_color_1_1_color_dialog.html#abd0da334b7034a67a3cc83bc3ed0a425" target="_top" xlink:title="Updates m_currentOpaqueColor and all affected widgets.">
<polygon fill="white" stroke="black" points="386,-235.5 386,-265.5 543,-265.5 543,-235.5 386,-235.5"/>
<text text-anchor="start" x="394" y="-253.5" font-family="Helvetica,sans-Serif" font-size="10.00">PerceptualColor::ColorDialog</text>
<text text-anchor="middle" x="464.5" y="-242.5" font-family="Helvetica,sans-Serif" font-size="10.00">::setCurrentOpaqueColor</text>
</a>
</g>
</g>
<!-- Node2&#45;&gt;Node3 -->
<g id="edge2" class="edge">
<title>Node2&#45;&gt;Node3</title>
<path fill="none" stroke="midnightblue" d="M350.19,-250.5C358.65,-250.5 367.31,-250.5 375.88,-250.5"/>
<polygon fill="midnightblue" stroke="midnightblue" points="375.88,-254 385.88,-250.5 375.88,-247 375.88,-254"/>
</g>
<!-- Node4 -->
<g id="node4" class="node">
<title>Node4</title>
<g id="a_node4"><a xlink:href="class_perceptual_color_1_1_full_color_description.html#a45a4e34ce415f9fc71f3fe4847c89068" target="_top" xlink:title=" ">
<polygon fill="white" stroke="black" points="591,-508.5 591,-538.5 734,-538.5 734,-508.5 591,-508.5"/>
<text text-anchor="start" x="599" y="-526.5" font-family="Helvetica,sans-Serif" font-size="10.00">PerceptualColor::FullColor</text>
<text text-anchor="middle" x="662.5" y="-515.5" font-family="Helvetica,sans-Serif" font-size="10.00">Description::isValid</text>
</a>
</g>
</g>
<!-- Node3&#45;&gt;Node4 -->
<g id="edge3" class="edge">
<title>Node3&#45;&gt;Node4</title>
<path fill="none" stroke="midnightblue" d="M467.92,-265.72C475.64,-309.09 503.72,-434.39 579,-499.5 580.36,-500.67 581.77,-501.79 583.23,-502.85"/>
<polygon fill="midnightblue" stroke="midnightblue" points="581.7,-506.02 592.03,-508.36 585.41,-500.09 581.7,-506.02"/>
</g>
<!-- Node5 -->
<g id="node5" class="node">
<title>Node5</title>
<g id="a_node5"><a xlink:href="class_perceptual_color_1_1_alpha_selector.html#ac9faa6bbf68757f843e4cce92d697067" target="_top" xlink:title=" ">
<polygon fill="white" stroke="black" points="579,-366.5 579,-396.5 746,-396.5 746,-366.5 579,-366.5"/>
<text text-anchor="start" x="587" y="-384.5" font-family="Helvetica,sans-Serif" font-size="10.00">PerceptualColor::AlphaSelector</text>
<text text-anchor="middle" x="662.5" y="-373.5" font-family="Helvetica,sans-Serif" font-size="10.00">::setColor</text>
</a>
</g>
</g>
<!-- Node3&#45;&gt;Node5 -->
<g id="edge4" class="edge">
<title>Node3&#45;&gt;Node5</title>
<path fill="none" stroke="midnightblue" d="M480.49,-265.79C501.18,-286.25 540.32,-322.69 579,-346.5 588.54,-352.37 599.23,-357.7 609.68,-362.34"/>
<polygon fill="midnightblue" stroke="midnightblue" points="608.59,-365.68 619.16,-366.4 611.35,-359.25 608.59,-365.68"/>
</g>
<!-- Node7 -->
<g id="node7" class="node">
<title>Node7</title>
<g id="a_node7"><a xlink:href="class_perceptual_color_1_1_full_color_description.html#acdbff4639f8a118f0d13a831a4b57ffe" target="_top" xlink:title=" ">
<polygon fill="white" stroke="black" points="1006,-344.5 1006,-374.5 1149,-374.5 1149,-344.5 1006,-344.5"/>
<text text-anchor="start" x="1014" y="-362.5" font-family="Helvetica,sans-Serif" font-size="10.00">PerceptualColor::FullColor</text>
<text text-anchor="middle" x="1077.5" y="-351.5" font-family="Helvetica,sans-Serif" font-size="10.00">Description::toLch</text>
</a>
</g>
</g>
<!-- Node3&#45;&gt;Node7 -->
<g id="edge20" class="edge">
<title>Node3&#45;&gt;Node7</title>
<path fill="none" stroke="midnightblue" d="M543.49,-246.34C664.69,-240.95 892.12,-235.35 967,-264.5 1005.02,-279.3 1038.79,-313.44 1058.45,-336.5"/>
<polygon fill="midnightblue" stroke="midnightblue" points="1055.96,-338.98 1065.04,-344.44 1061.35,-334.51 1055.96,-338.98"/>
</g>
<!-- Node8 -->
<g id="node8" class="node">
<title>Node8</title>
<g id="a_node8"><a xlink:href="class_perceptual_color_1_1_chroma_hue_diagram.html#a443db20bc2c25119febcd61ca9299d21" target="_top" xlink:title="Setter for the color() property.">
<polygon fill="white" stroke="black" points="795.5,-273.5 795.5,-303.5 953.5,-303.5 953.5,-273.5 795.5,-273.5"/>
<text text-anchor="start" x="803.5" y="-291.5" font-family="Helvetica,sans-Serif" font-size="10.00">PerceptualColor::ChromaHue</text>
<text text-anchor="middle" x="874.5" y="-280.5" font-family="Helvetica,sans-Serif" font-size="10.00">Diagram::setColor</text>
</a>
</g>
</g>
<!-- Node3&#45;&gt;Node8 -->
<g id="edge7" class="edge">
<title>Node3&#45;&gt;Node8</title>
<path fill="none" stroke="midnightblue" d="M543.3,-260.53C555.25,-261.94 567.45,-263.32 579,-264.5 648.08,-271.57 726.45,-277.88 784.97,-282.25"/>
<polygon fill="midnightblue" stroke="midnightblue" points="785.06,-285.76 795.29,-283.01 785.58,-278.78 785.06,-285.76"/>
</g>
<!-- Node9 -->
<g id="node9" class="node">
<title>Node9</title>
<g id="a_node9"><a xlink:href="class_perceptual_color_1_1_wheel_color_picker.html#a5f3a58bb672323221c98c2285404bf76" target="_top" xlink:title="Setter for currentColorRgb() property.">
<polygon fill="white" stroke="black" points="584.5,-459.5 584.5,-489.5 740.5,-489.5 740.5,-459.5 584.5,-459.5"/>
<text text-anchor="start" x="592.5" y="-477.5" font-family="Helvetica,sans-Serif" font-size="10.00">PerceptualColor::WheelColor</text>
<text text-anchor="middle" x="662.5" y="-466.5" font-family="Helvetica,sans-Serif" font-size="10.00">Picker::setCurrentColor</text>
</a>
</g>
</g>
<!-- Node3&#45;&gt;Node9 -->
<g id="edge9" class="edge">
<title>Node3&#45;&gt;Node9</title>
<path fill="none" stroke="midnightblue" d="M474.69,-265.64C492.68,-294.67 534.69,-359.43 579,-406.5 595.14,-423.65 615.55,-440.5 632.03,-453.14"/>
<polygon fill="midnightblue" stroke="midnightblue" points="630.16,-456.11 640.25,-459.35 634.37,-450.53 630.16,-456.11"/>
</g>
<!-- Node14 -->
<g id="node14" class="node">
<title>Node14</title>
<g id="a_node14"><a xlink:href="class_perceptual_color_1_1_gradient_selector.html#a1548390b891333547c1dee97573be568" target="_top" xlink:title=" ">
<polygon fill="white" stroke="black" points="591.5,-191.5 591.5,-221.5 733.5,-221.5 733.5,-191.5 591.5,-191.5"/>
<text text-anchor="start" x="599.5" y="-209.5" font-family="Helvetica,sans-Serif" font-size="10.00">PerceptualColor::Gradient</text>
<text text-anchor="middle" x="662.5" y="-198.5" font-family="Helvetica,sans-Serif" font-size="10.00">Selector::setFraction</text>
</a>
</g>
</g>
<!-- Node3&#45;&gt;Node14 -->
<g id="edge16" class="edge">
<title>Node3&#45;&gt;Node14</title>
<path fill="none" stroke="midnightblue" d="M532.4,-235.48C549.18,-231.71 567.32,-227.64 584.55,-223.78"/>
<polygon fill="midnightblue" stroke="midnightblue" points="585.57,-227.13 594.57,-221.53 584.04,-220.3 585.57,-227.13"/>
</g>
<!-- Node15 -->
<g id="node15" class="node">
<title>Node15</title>
<g id="a_node15"><a xlink:href="class_perceptual_color_1_1_color_dialog.html#a38134a3e22f2b3df4602a08025ec1d52" target="_top" xlink:title="Get text for m_hlcLineEdit based on m_currentOpaqueColor.">
<polygon fill="white" stroke="black" points="796,-322.5 796,-352.5 953,-352.5 953,-322.5 796,-322.5"/>
<text text-anchor="start" x="804" y="-340.5" font-family="Helvetica,sans-Serif" font-size="10.00">PerceptualColor::ColorDialog</text>
<text text-anchor="middle" x="874.5" y="-329.5" font-family="Helvetica,sans-Serif" font-size="10.00">::textForHlcLineEdit</text>
</a>
</g>
</g>
<!-- Node3&#45;&gt;Node15 -->
<g id="edge17" class="edge">
<title>Node3&#45;&gt;Node15</title>
<path fill="none" stroke="midnightblue" d="M509.62,-265.5C530.48,-272.24 555.85,-279.91 579,-285.5 647.82,-302.12 726.88,-315.79 785.75,-324.93"/>
<polygon fill="midnightblue" stroke="midnightblue" points="785.34,-328.41 795.76,-326.47 786.41,-321.49 785.34,-328.41"/>
</g>
<!-- Node16 -->
<g id="node16" class="node">
<title>Node16</title>
<g id="a_node16"><a xlink:href="class_perceptual_color_1_1_full_color_description.html#aaa17133c6e1d040b2f088e79a42d3283" target="_top" xlink:title=" ">
<polygon fill="white" stroke="black" points="591,-142.5 591,-172.5 734,-172.5 734,-142.5 591,-142.5"/>
<text text-anchor="start" x="599" y="-160.5" font-family="Helvetica,sans-Serif" font-size="10.00">PerceptualColor::FullColor</text>
<text text-anchor="middle" x="662.5" y="-149.5" font-family="Helvetica,sans-Serif" font-size="10.00">Description::toHsvQColor</text>
</a>
</g>
</g>
<!-- Node3&#45;&gt;Node16 -->
<g id="edge19" class="edge">
<title>Node3&#45;&gt;Node16</title>
<path fill="none" stroke="midnightblue" d="M487.24,-235.26C509.46,-220.23 545.4,-197.39 579,-182.5 584.26,-180.17 589.8,-177.98 595.42,-175.93"/>
<polygon fill="midnightblue" stroke="midnightblue" points="596.61,-179.22 604.91,-172.63 594.31,-172.61 596.61,-179.22"/>
</g>
<!-- Node17 -->
<g id="node17" class="node">
<title>Node17</title>
<g id="a_node17"><a xlink:href="class_perceptual_color_1_1_full_color_description.html#a572e2abe28e31c6315732d30f06b1732" target="_top" xlink:title="A string with a hexadecimal representation of the color.">
<polygon fill="white" stroke="black" points="585,-93.5 585,-123.5 740,-123.5 740,-93.5 585,-93.5"/>
<text text-anchor="start" x="593" y="-111.5" font-family="Helvetica,sans-Serif" font-size="10.00">PerceptualColor::FullColor</text>
<text text-anchor="middle" x="662.5" y="-100.5" font-family="Helvetica,sans-Serif" font-size="10.00">Description::toRgbHexString</text>
</a>
</g>
</g>
<!-- Node3&#45;&gt;Node17 -->
<g id="edge21" class="edge">
<title>Node3&#45;&gt;Node17</title>
<path fill="none" stroke="midnightblue" d="M475.88,-235.4C493.92,-210.29 533.52,-160.01 579,-132.5 581.81,-130.8 584.74,-129.22 587.76,-127.74"/>
<polygon fill="midnightblue" stroke="midnightblue" points="589.31,-130.88 597.03,-123.63 586.47,-124.49 589.31,-130.88"/>
</g>
<!-- Node18 -->
<g id="node18" class="node">
<title>Node18</title>
<g id="a_node18"><a xlink:href="class_perceptual_color_1_1_full_color_description.html#aad1d9cc70b7a9ae81c829c391334d768" target="_top" xlink:title=" ">
<polygon fill="white" stroke="black" points="803,-49.5 803,-79.5 946,-79.5 946,-49.5 803,-49.5"/>
<text text-anchor="start" x="811" y="-67.5" font-family="Helvetica,sans-Serif" font-size="10.00">PerceptualColor::FullColor</text>
<text text-anchor="middle" x="874.5" y="-56.5" font-family="Helvetica,sans-Serif" font-size="10.00">Description::toRgbQColor</text>
</a>
</g>
</g>
<!-- Node3&#45;&gt;Node18 -->
<g id="edge22" class="edge">
<title>Node3&#45;&gt;Node18</title>
<path fill="none" stroke="midnightblue" d="M470.59,-235.27C482.92,-201.06 517.97,-118.37 579,-83.5 643.79,-46.48 730.18,-45.43 792.62,-51.41"/>
<polygon fill="midnightblue" stroke="midnightblue" points="792.51,-54.92 802.82,-52.47 793.23,-47.95 792.51,-54.92"/>
</g>
<!-- Node19 -->
<g id="node19" class="node">
<title>Node19</title>
<g id="a_node19"><a xlink:href="class_perceptual_color_1_1_color_dialog.html#a18985e0cf14c64400f1edc5f64da159d" target="_top" xlink:title="Updates the color patch widget.">
<polygon fill="white" stroke="black" points="584,-5.5 584,-35.5 741,-35.5 741,-5.5 584,-5.5"/>
<text text-anchor="start" x="592" y="-23.5" font-family="Helvetica,sans-Serif" font-size="10.00">PerceptualColor::ColorDialog</text>
<text text-anchor="middle" x="662.5" y="-12.5" font-family="Helvetica,sans-Serif" font-size="10.00">::updateColorPatch</text>
</a>
</g>
</g>
<!-- Node3&#45;&gt;Node19 -->
<g id="edge23" class="edge">
<title>Node3&#45;&gt;Node19</title>
<path fill="none" stroke="midnightblue" d="M470.03,-235.33C481.83,-198.39 516.95,-102.94 579,-50.5 583.62,-46.59 588.8,-43.18 594.24,-40.19"/>
<polygon fill="midnightblue" stroke="midnightblue" points="596.19,-43.13 603.61,-35.56 593.09,-36.86 596.19,-43.13"/>
</g>
<!-- Node6 -->
<g id="node6" class="node">
<title>Node6</title>
<g id="a_node6"><a xlink:href="class_perceptual_color_1_1_gradient_selector.html#aabfd1c82565fb7c491e3bf1735beca11" target="_top" xlink:title=" ">
<polygon fill="white" stroke="black" points="803.5,-410.5 803.5,-440.5 945.5,-440.5 945.5,-410.5 803.5,-410.5"/>
<text text-anchor="start" x="811.5" y="-428.5" font-family="Helvetica,sans-Serif" font-size="10.00">PerceptualColor::Gradient</text>
<text text-anchor="middle" x="874.5" y="-417.5" font-family="Helvetica,sans-Serif" font-size="10.00">Selector::setColors</text>
</a>
</g>
</g>
<!-- Node5&#45;&gt;Node6 -->
<g id="edge5" class="edge">
<title>Node5&#45;&gt;Node6</title>
<path fill="none" stroke="midnightblue" d="M735.18,-396.52C753.9,-400.44 774.2,-404.69 793.32,-408.7"/>
<polygon fill="midnightblue" stroke="midnightblue" points="792.7,-412.15 803.21,-410.77 794.14,-405.3 792.7,-412.15"/>
</g>
<!-- Node5&#45;&gt;Node7 -->
<g id="edge6" class="edge">
<title>Node5&#45;&gt;Node7</title>
<path fill="none" stroke="midnightblue" d="M746.08,-377.1C818.55,-373.24 923.33,-367.66 995.37,-363.82"/>
<polygon fill="midnightblue" stroke="midnightblue" points="995.95,-367.3 1005.75,-363.27 995.58,-360.31 995.95,-367.3"/>
</g>
<!-- Node8&#45;&gt;Node7 -->
<g id="edge8" class="edge">
<title>Node8&#45;&gt;Node7</title>
<path fill="none" stroke="midnightblue" d="M934.91,-303.51C945.67,-306.58 956.73,-309.96 967,-313.5 989.72,-321.34 1014.44,-331.57 1034.64,-340.4"/>
<polygon fill="midnightblue" stroke="midnightblue" points="1033.31,-343.64 1043.87,-344.47 1036.14,-337.23 1033.31,-343.64"/>
</g>
<!-- Node9&#45;&gt;Node7 -->
<g id="edge15" class="edge">
<title>Node9&#45;&gt;Node7</title>
<path fill="none" stroke="midnightblue" d="M722.79,-489.53C741.59,-493.62 762.55,-497.47 782,-499.5 863.78,-508.03 893.09,-535.52 967,-499.5 1016.27,-475.49 1049.88,-417.4 1065.85,-384.08"/>
<polygon fill="midnightblue" stroke="midnightblue" points="1069.21,-385.15 1070.23,-374.6 1062.86,-382.21 1069.21,-385.15"/>
</g>
<!-- Node10 -->
<g id="node10" class="node">
<title>Node10</title>
<g id="a_node10"><a xlink:href="class_perceptual_color_1_1_chroma_lightness_diagram.html#a27d7c972e420480674da1a0fae0b10b3" target="_top" xlink:title="Setter for the color() property.">
<polygon fill="white" stroke="black" points="782,-459.5 782,-489.5 967,-489.5 967,-459.5 782,-459.5"/>
<text text-anchor="start" x="790" y="-477.5" font-family="Helvetica,sans-Serif" font-size="10.00">PerceptualColor::ChromaLightness</text>
<text text-anchor="middle" x="874.5" y="-466.5" font-family="Helvetica,sans-Serif" font-size="10.00">Diagram::setColor</text>
</a>
</g>
</g>
<!-- Node9&#45;&gt;Node10 -->
<g id="edge10" class="edge">
<title>Node9&#45;&gt;Node10</title>
<path fill="none" stroke="midnightblue" d="M740.5,-474.5C750.71,-474.5 761.29,-474.5 771.82,-474.5"/>
<polygon fill="midnightblue" stroke="midnightblue" points="771.9,-478 781.9,-474.5 771.9,-471 771.9,-478"/>
</g>
<!-- Node11 -->
<g id="node11" class="node">
<title>Node11</title>
<g id="a_node11"><a xlink:href="class_perceptual_color_1_1_simple_color_wheel.html#aa9eec6e96f6069be6d983d1c854644d1" target="_top" xlink:title=" ">
<polygon fill="white" stroke="black" points="795,-547.5 795,-577.5 954,-577.5 954,-547.5 795,-547.5"/>
<text text-anchor="start" x="803" y="-565.5" font-family="Helvetica,sans-Serif" font-size="10.00">PerceptualColor::SimpleColor</text>
<text text-anchor="middle" x="874.5" y="-554.5" font-family="Helvetica,sans-Serif" font-size="10.00">Wheel::setHue</text>
</a>
</g>
</g>
<!-- Node9&#45;&gt;Node11 -->
<g id="edge12" class="edge">
<title>Node9&#45;&gt;Node11</title>
<path fill="none" stroke="midnightblue" d="M724.73,-489.65C732.11,-492.45 739.37,-495.72 746,-499.5 764.86,-510.25 763.27,-521.54 782,-532.5 789.26,-536.75 797.2,-540.48 805.27,-543.75"/>
<polygon fill="midnightblue" stroke="midnightblue" points="804.19,-547.08 814.78,-547.36 806.68,-540.54 804.19,-547.08"/>
</g>
<!-- Node10&#45;&gt;Node7 -->
<g id="edge11" class="edge">
<title>Node10&#45;&gt;Node7</title>
<path fill="none" stroke="midnightblue" d="M946.12,-459.35C953.34,-456.81 960.43,-453.88 967,-450.5 1001.46,-432.78 1034.77,-402.64 1055.42,-381.94"/>
<polygon fill="midnightblue" stroke="midnightblue" points="1057.94,-384.37 1062.44,-374.78 1052.94,-379.47 1057.94,-384.37"/>
</g>
<!-- Node12 -->
<g id="node12" class="node">
<title>Node12</title>
<g id="a_node12"><a xlink:href="class_perceptual_color_1_1_polar_point_f.html#a9eefd08d3a5ad536232292380f958804" target="_top" xlink:title="Normalizes an angle.">
<polygon fill="white" stroke="black" points="1003,-547.5 1003,-577.5 1152,-577.5 1152,-547.5 1003,-547.5"/>
<text text-anchor="start" x="1011" y="-565.5" font-family="Helvetica,sans-Serif" font-size="10.00">PerceptualColor::PolarPoint</text>
<text text-anchor="middle" x="1077.5" y="-554.5" font-family="Helvetica,sans-Serif" font-size="10.00">F::normalizedAngleDegree</text>
</a>
</g>
</g>
<!-- Node11&#45;&gt;Node12 -->
<g id="edge13" class="edge">
<title>Node11&#45;&gt;Node12</title>
<path fill="none" stroke="midnightblue" d="M954.08,-562.5C966.76,-562.5 979.93,-562.5 992.74,-562.5"/>
<polygon fill="midnightblue" stroke="midnightblue" points="992.91,-566 1002.91,-562.5 992.91,-559 992.91,-566"/>
</g>
<!-- Node13 -->
<g id="node13" class="node">
<title>Node13</title>
<g id="a_node13"><a xlink:href="class_perceptual_color_1_1_polar_point_f.html#a882cd166affc603fc62241dcb3be4fd5" target="_top" xlink:title="Normalized angle.">
<polygon fill="white" stroke="black" points="1188,-547.5 1188,-577.5 1337,-577.5 1337,-547.5 1188,-547.5"/>
<text text-anchor="start" x="1196" y="-565.5" font-family="Helvetica,sans-Serif" font-size="10.00">PerceptualColor::PolarPoint</text>
<text text-anchor="middle" x="1262.5" y="-554.5" font-family="Helvetica,sans-Serif" font-size="10.00">F::angleDegree</text>
</a>
</g>
</g>
<!-- Node12&#45;&gt;Node13 -->
<g id="edge14" class="edge">
<title>Node12&#45;&gt;Node13</title>
<path fill="none" stroke="midnightblue" d="M1152.14,-562.5C1160.47,-562.5 1169.01,-562.5 1177.46,-562.5"/>
<polygon fill="midnightblue" stroke="midnightblue" points="1177.71,-566 1187.71,-562.5 1177.71,-559 1177.71,-566"/>
</g>
<!-- Node15&#45;&gt;Node7 -->
<g id="edge18" class="edge">
<title>Node15&#45;&gt;Node7</title>
<path fill="none" stroke="midnightblue" d="M953.21,-346.01C967.17,-347.53 981.74,-349.13 995.78,-350.67"/>
<polygon fill="midnightblue" stroke="midnightblue" points="995.57,-354.16 1005.89,-351.77 996.33,-347.2 995.57,-354.16"/>
</g>
<!-- Node19&#45;&gt;Node18 -->
<g id="edge25" class="edge">
<title>Node19&#45;&gt;Node18</title>
<path fill="none" stroke="midnightblue" d="M735.18,-35.52C753.8,-39.42 773.98,-43.65 793.01,-47.64"/>
<polygon fill="midnightblue" stroke="midnightblue" points="792.35,-51.07 802.85,-49.7 793.78,-44.22 792.35,-51.07"/>
</g>
<!-- Node20 -->
<g id="node20" class="node">
<title>Node20</title>
<g id="a_node20"><a xlink:href="class_perceptual_color_1_1_color_patch.html#ada8693cd4a8e51eb2debd3c0192a7458" target="_top" xlink:title="Set the color property.">
<polygon fill="white" stroke="black" points="798.5,-0.5 798.5,-30.5 950.5,-30.5 950.5,-0.5 798.5,-0.5"/>
<text text-anchor="start" x="806.5" y="-18.5" font-family="Helvetica,sans-Serif" font-size="10.00">PerceptualColor::ColorPatch</text>
<text text-anchor="middle" x="874.5" y="-7.5" font-family="Helvetica,sans-Serif" font-size="10.00">::setColor</text>
</a>
</g>
</g>
<!-- Node19&#45;&gt;Node20 -->
<g id="edge24" class="edge">
<title>Node19&#45;&gt;Node20</title>
<path fill="none" stroke="midnightblue" d="M741.1,-18.65C756.43,-18.29 772.61,-17.9 788.18,-17.53"/>
<polygon fill="midnightblue" stroke="midnightblue" points="788.4,-21.03 798.32,-17.29 788.23,-14.03 788.4,-21.03"/>
</g>
</g>
</svg>
