<?xml version="1.0" encoding="UTF-8" standalone="no"?>
<!DOCTYPE svg PUBLIC "-//W3C//DTD SVG 1.1//EN"
 "http://www.w3.org/Graphics/SVG/1.1/DTD/svg11.dtd">
<!-- Generated by graphviz version 2.43.0 (0)
 -->
<!-- Title: PerceptualColor::AbstractDiagram Pages: 1 -->
<svg width="447pt" height="296pt"
 viewBox="0.00 0.00 447.00 296.00" xmlns="http://www.w3.org/2000/svg" xmlns:xlink="http://www.w3.org/1999/xlink">
<g id="graph0" class="graph" transform="scale(1 1) rotate(0) translate(4 292)">
<title>PerceptualColor::AbstractDiagram</title>
<polygon fill="white" stroke="transparent" points="-4,4 -4,-292 443,-292 443,4 -4,4"/>
<!-- Node1 -->
<g id="node1" class="node">
<title>Node1</title>
<g id="a_node1"><a xlink:title="Base class for LCh diagrams.">
<polygon fill="#bfbfbf" stroke="black" points="111.5,-201.5 111.5,-231.5 251.5,-231.5 251.5,-201.5 111.5,-201.5"/>
<text text-anchor="start" x="119.5" y="-219.5" font-family="Helvetica,sans-Serif" font-size="10.00">PerceptualColor::Abstract</text>
<text text-anchor="middle" x="181.5" y="-208.5" font-family="Helvetica,sans-Serif" font-size="10.00">Diagram</text>
</a>
</g>
</g>
<!-- Node3 -->
<g id="node3" class="node">
<title>Node3</title>
<g id="a_node3"><a xlink:href="class_perceptual_color_1_1_chroma_lightness_diagram.html" target="_top" xlink:title="A widget that displays a chroma&#45;lightness diagram.">
<polygon fill="white" stroke="black" points="0,-134.5 0,-164.5 185,-164.5 185,-134.5 0,-134.5"/>
<text text-anchor="start" x="8" y="-152.5" font-family="Helvetica,sans-Serif" font-size="10.00">PerceptualColor::ChromaLightness</text>
<text text-anchor="middle" x="92.5" y="-141.5" font-family="Helvetica,sans-Serif" font-size="10.00">Diagram</text>
</a>
</g>
</g>
<!-- Node1&#45;&gt;Node3 -->
<g id="edge2" class="edge">
<title>Node1&#45;&gt;Node3</title>
<path fill="none" stroke="midnightblue" d="M154.05,-195.45C140.36,-185.45 124.13,-173.6 111.77,-164.58"/>
<polygon fill="midnightblue" stroke="midnightblue" points="152.05,-198.32 162.19,-201.4 156.18,-192.67 152.05,-198.32"/>
</g>
<!-- Node4 -->
<g id="node4" class="node">
<title>Node4</title>
<g id="a_node4"><a xlink:href="class_perceptual_color_1_1_circular_diagram.html" target="_top" xlink:title="Base class for circular diagrams.">
<polygon fill="white" stroke="black" points="203,-134.5 203,-164.5 340,-164.5 340,-134.5 203,-134.5"/>
<text text-anchor="start" x="211" y="-152.5" font-family="Helvetica,sans-Serif" font-size="10.00">PerceptualColor::Circular</text>
<text text-anchor="middle" x="271.5" y="-141.5" font-family="Helvetica,sans-Serif" font-size="10.00">Diagram</text>
</a>
</g>
</g>
<!-- Node1&#45;&gt;Node4 -->
<g id="edge3" class="edge">
<title>Node1&#45;&gt;Node4</title>
<path fill="none" stroke="midnightblue" d="M209.26,-195.45C223.11,-185.45 239.52,-173.6 252.01,-164.58"/>
<polygon fill="midnightblue" stroke="midnightblue" points="207.09,-192.7 201.03,-201.4 211.18,-198.38 207.09,-192.7"/>
</g>
<!-- Node2 -->
<g id="node2" class="node">
<title>Node2</title>
<g id="a_node2"><a xlink:title=" ">
<polygon fill="white" stroke="#bfbfbf" points="152,-268.5 152,-287.5 211,-287.5 211,-268.5 152,-268.5"/>
<text text-anchor="middle" x="181.5" y="-275.5" font-family="Helvetica,sans-Serif" font-size="10.00">QWidget</text>
</a>
</g>
</g>
<!-- Node2&#45;&gt;Node1 -->
<g id="edge1" class="edge">
<title>Node2&#45;&gt;Node1</title>
<path fill="none" stroke="midnightblue" d="M181.5,-258.23C181.5,-249.59 181.5,-239.5 181.5,-231.52"/>
<polygon fill="midnightblue" stroke="midnightblue" points="178,-258.48 181.5,-268.48 185,-258.48 178,-258.48"/>
</g>
<!-- Node5 -->
<g id="node5" class="node">
<title>Node5</title>
<g id="a_node5"><a xlink:href="class_perceptual_color_1_1_chroma_hue_diagram.html" target="_top" xlink:title="A widget for selecting chroma and hue in LCh color space.">
<polygon fill="white" stroke="black" points="104.5,-67.5 104.5,-97.5 262.5,-97.5 262.5,-67.5 104.5,-67.5"/>
<text text-anchor="start" x="112.5" y="-85.5" font-family="Helvetica,sans-Serif" font-size="10.00">PerceptualColor::ChromaHue</text>
<text text-anchor="middle" x="183.5" y="-74.5" font-family="Helvetica,sans-Serif" font-size="10.00">Diagram</text>
</a>
</g>
</g>
<!-- Node4&#45;&gt;Node5 -->
<g id="edge4" class="edge">
<title>Node4&#45;&gt;Node5</title>
<path fill="none" stroke="midnightblue" d="M244.36,-128.45C230.82,-118.45 214.77,-106.6 202.56,-97.58"/>
<polygon fill="midnightblue" stroke="midnightblue" points="242.28,-131.27 252.41,-134.4 246.44,-125.64 242.28,-131.27"/>
</g>
<!-- Node6 -->
<g id="node6" class="node">
<title>Node6</title>
<g id="a_node6"><a xlink:href="class_perceptual_color_1_1_simple_color_wheel.html" target="_top" xlink:title="Widget to choose the hue in a wheel.">
<polygon fill="white" stroke="black" points="280,-67.5 280,-97.5 439,-97.5 439,-67.5 280,-67.5"/>
<text text-anchor="start" x="288" y="-85.5" font-family="Helvetica,sans-Serif" font-size="10.00">PerceptualColor::SimpleColor</text>
<text text-anchor="middle" x="359.5" y="-74.5" font-family="Helvetica,sans-Serif" font-size="10.00">Wheel</text>
</a>
</g>
</g>
<!-- Node4&#45;&gt;Node6 -->
<g id="edge5" class="edge">
<title>Node4&#45;&gt;Node6</title>
<path fill="none" stroke="midnightblue" d="M298.64,-128.45C312.18,-118.45 328.23,-106.6 340.44,-97.58"/>
<polygon fill="midnightblue" stroke="midnightblue" points="296.56,-125.64 290.59,-134.4 300.72,-131.27 296.56,-125.64"/>
</g>
<!-- Node7 -->
<g id="node7" class="node">
<title>Node7</title>
<g id="a_node7"><a xlink:href="class_perceptual_color_1_1_wheel_color_picker.html" target="_top" xlink:title="Complete wheel&#45;based color picker widget.">
<polygon fill="white" stroke="black" points="281.5,-0.5 281.5,-30.5 437.5,-30.5 437.5,-0.5 281.5,-0.5"/>
<text text-anchor="start" x="289.5" y="-18.5" font-family="Helvetica,sans-Serif" font-size="10.00">PerceptualColor::WheelColor</text>
<text text-anchor="middle" x="359.5" y="-7.5" font-family="Helvetica,sans-Serif" font-size="10.00">Picker</text>
</a>
</g>
</g>
<!-- Node6&#45;&gt;Node7 -->
<g id="edge6" class="edge">
<title>Node6&#45;&gt;Node7</title>
<path fill="none" stroke="midnightblue" d="M359.5,-57.11C359.5,-48.15 359.5,-38.32 359.5,-30.58"/>
<polygon fill="midnightblue" stroke="midnightblue" points="356,-57.4 359.5,-67.4 363,-57.4 356,-57.4"/>
</g>
</g>
</svg>
