<?xml version="1.0" encoding="UTF-8" standalone="no"?>
<!DOCTYPE svg PUBLIC "-//W3C//DTD SVG 1.1//EN"
 "http://www.w3.org/Graphics/SVG/1.1/DTD/svg11.dtd">
<!-- Generated by graphviz version 2.43.0 (0)
 -->
<!-- Title: PerceptualColor::WheelColorPicker::currentColorChanged Pages: 1 -->
<svg width="550pt" height="88pt"
 viewBox="0.00 0.00 550.00 88.00" xmlns="http://www.w3.org/2000/svg" xmlns:xlink="http://www.w3.org/1999/xlink">
<g id="graph0" class="graph" transform="scale(1 1) rotate(0) translate(4 84)">
<title>PerceptualColor::WheelColorPicker::currentColorChanged</title>
<polygon fill="white" stroke="transparent" points="-4,4 -4,-84 546,-84 546,4 -4,4"/>
<!-- Node1 -->
<g id="node1" class="node">
<title>Node1</title>
<g id="a_node1"><a xlink:title="Signal for currentColor() property.">
<polygon fill="#bfbfbf" stroke="black" points="386,-24.5 386,-54.5 542,-54.5 542,-24.5 386,-24.5"/>
<text text-anchor="start" x="394" y="-42.5" font-family="Helvetica,sans-Serif" font-size="10.00">PerceptualColor::WheelColor</text>
<text text-anchor="middle" x="464" y="-31.5" font-family="Helvetica,sans-Serif" font-size="10.00">Picker::currentColorChanged</text>
</a>
</g>
</g>
<!-- Node2 -->
<g id="node2" class="node">
<title>Node2</title>
<g id="a_node2"><a xlink:href="class_perceptual_color_1_1_color_dialog.html#ad31fb985e1323cdf1208c91f16fe2a51" target="_top" xlink:title="Basic initialization.">
<polygon fill="white" stroke="black" points="193,-49.5 193,-79.5 350,-79.5 350,-49.5 193,-49.5"/>
<text text-anchor="start" x="201" y="-67.5" font-family="Helvetica,sans-Serif" font-size="10.00">PerceptualColor::ColorDialog</text>
<text text-anchor="middle" x="271.5" y="-56.5" font-family="Helvetica,sans-Serif" font-size="10.00">::initialize</text>
</a>
</g>
</g>
<!-- Node1&#45;&gt;Node2 -->
<g id="edge1" class="edge">
<title>Node1&#45;&gt;Node2</title>
<path fill="none" stroke="midnightblue" d="M375.8,-50.94C367.23,-52.07 358.59,-53.2 350.13,-54.31"/>
<polygon fill="midnightblue" stroke="midnightblue" points="376.33,-54.4 385.79,-49.63 375.42,-47.46 376.33,-54.4"/>
</g>
<!-- Node4 -->
<g id="node4" class="node">
<title>Node4</title>
<g id="a_node4"><a xlink:href="class_perceptual_color_1_1_wheel_color_picker.html#a44595e05acd7bf6ad716242f987507da" target="_top" xlink:title="Constructor.">
<polygon fill="white" stroke="black" points="193.5,-0.5 193.5,-30.5 349.5,-30.5 349.5,-0.5 193.5,-0.5"/>
<text text-anchor="start" x="201.5" y="-18.5" font-family="Helvetica,sans-Serif" font-size="10.00">PerceptualColor::WheelColor</text>
<text text-anchor="middle" x="271.5" y="-7.5" font-family="Helvetica,sans-Serif" font-size="10.00">Picker::WheelColorPicker</text>
</a>
</g>
</g>
<!-- Node1&#45;&gt;Node4 -->
<g id="edge3" class="edge">
<title>Node1&#45;&gt;Node4</title>
<path fill="none" stroke="midnightblue" d="M375.62,-28.49C366.91,-27.39 358.11,-26.28 349.51,-25.2"/>
<polygon fill="midnightblue" stroke="midnightblue" points="375.43,-32 385.79,-29.77 376.31,-25.05 375.43,-32"/>
</g>
<!-- Node3 -->
<g id="node3" class="node">
<title>Node3</title>
<g id="a_node3"><a xlink:href="class_perceptual_color_1_1_color_dialog.html#a3c1ad1040ede00087aa11fab1514a6e7" target="_top" xlink:title="Constructor.">
<polygon fill="white" stroke="black" points="0,-49.5 0,-79.5 157,-79.5 157,-49.5 0,-49.5"/>
<text text-anchor="start" x="8" y="-67.5" font-family="Helvetica,sans-Serif" font-size="10.00">PerceptualColor::ColorDialog</text>
<text text-anchor="middle" x="78.5" y="-56.5" font-family="Helvetica,sans-Serif" font-size="10.00">::ColorDialog</text>
</a>
</g>
</g>
<!-- Node2&#45;&gt;Node3 -->
<g id="edge2" class="edge">
<title>Node2&#45;&gt;Node3</title>
<path fill="none" stroke="midnightblue" d="M182.81,-64.5C174.24,-64.5 165.58,-64.5 157.12,-64.5"/>
<polygon fill="midnightblue" stroke="midnightblue" points="182.81,-68 192.81,-64.5 182.81,-61 182.81,-68"/>
</g>
</g>
</svg>
