<?xml version="1.0" encoding="UTF-8" standalone="no"?>
<!DOCTYPE svg PUBLIC "-//W3C//DTD SVG 1.1//EN"
 "http://www.w3.org/Graphics/SVG/1.1/DTD/svg11.dtd">
<!-- Generated by graphviz version 2.43.0 (0)
 -->
<!-- Title: PerceptualColor::GradientSelector::mouseMoveEvent Pages: 1 -->
<svg width="377pt" height="100pt"
 viewBox="0.00 0.00 377.00 99.50" xmlns="http://www.w3.org/2000/svg" xmlns:xlink="http://www.w3.org/1999/xlink">
<g id="graph0" class="graph" transform="scale(1 1) rotate(0) translate(4 95.5)">
<title>PerceptualColor::GradientSelector::mouseMoveEvent</title>
<polygon fill="white" stroke="transparent" points="-4,4 -4,-95.5 373,-95.5 373,4 -4,4"/>
<!-- Node1 -->
<g id="node1" class="node">
<title>Node1</title>
<g id="a_node1"><a xlink:title=" ">
<polygon fill="#bfbfbf" stroke="black" points="0,-27.5 0,-57.5 150,-57.5 150,-27.5 0,-27.5"/>
<text text-anchor="start" x="8" y="-45.5" font-family="Helvetica,sans-Serif" font-size="10.00">PerceptualColor::Gradient</text>
<text text-anchor="middle" x="75" y="-34.5" font-family="Helvetica,sans-Serif" font-size="10.00">Selector::mouseMoveEvent</text>
</a>
</g>
</g>
<!-- Node2 -->
<g id="node2" class="node">
<title>Node2</title>
<g id="a_node2"><a xlink:href="class_perceptual_color_1_1_gradient_selector.html#aca3bebb17bed8f9728fb2641af41bb60" target="_top" xlink:title=" ">
<polygon fill="white" stroke="black" points="186,-50 186,-91 369,-91 369,-50 186,-50"/>
<text text-anchor="start" x="194" y="-79" font-family="Helvetica,sans-Serif" font-size="10.00">PerceptualColor::Gradient</text>
<text text-anchor="start" x="194" y="-68" font-family="Helvetica,sans-Serif" font-size="10.00">Selector::fromWindowCoordinates</text>
<text text-anchor="middle" x="277.5" y="-57" font-family="Helvetica,sans-Serif" font-size="10.00">ToFraction</text>
</a>
</g>
</g>
<!-- Node1&#45;&gt;Node2 -->
<g id="edge1" class="edge">
<title>Node1&#45;&gt;Node2</title>
<path fill="none" stroke="midnightblue" d="M150.09,-52.85C158.43,-54.01 167.03,-55.21 175.63,-56.41"/>
<polygon fill="midnightblue" stroke="midnightblue" points="175.33,-59.91 185.72,-57.82 176.3,-52.97 175.33,-59.91"/>
</g>
<!-- Node3 -->
<g id="node3" class="node">
<title>Node3</title>
<g id="a_node3"><a xlink:href="class_perceptual_color_1_1_gradient_selector.html#a1548390b891333547c1dee97573be568" target="_top" xlink:title=" ">
<polygon fill="white" stroke="black" points="206.5,-0.5 206.5,-30.5 348.5,-30.5 348.5,-0.5 206.5,-0.5"/>
<text text-anchor="start" x="214.5" y="-18.5" font-family="Helvetica,sans-Serif" font-size="10.00">PerceptualColor::Gradient</text>
<text text-anchor="middle" x="277.5" y="-7.5" font-family="Helvetica,sans-Serif" font-size="10.00">Selector::setFraction</text>
</a>
</g>
</g>
<!-- Node1&#45;&gt;Node3 -->
<g id="edge2" class="edge">
<title>Node1&#45;&gt;Node3</title>
<path fill="none" stroke="midnightblue" d="M150.09,-32.52C165.19,-30.49 181.14,-28.34 196.43,-26.28"/>
<polygon fill="midnightblue" stroke="midnightblue" points="196.93,-29.75 206.38,-24.94 196,-22.81 196.93,-29.75"/>
</g>
</g>
</svg>
