<?xml version="1.0" encoding="UTF-8" standalone="no"?>
<!DOCTYPE svg PUBLIC "-//W3C//DTD SVG 1.1//EN"
 "http://www.w3.org/Graphics/SVG/1.1/DTD/svg11.dtd">
<!-- Generated by graphviz version 2.43.0 (0)
 -->
<!-- Title: PerceptualColor::FullColorDescription::FullColorDescription Pages: 1 -->
<svg width="601pt" height="235pt"
 viewBox="0.00 0.00 601.00 235.00" xmlns="http://www.w3.org/2000/svg" xmlns:xlink="http://www.w3.org/1999/xlink">
<g id="graph0" class="graph" transform="scale(1 1) rotate(0) translate(4 231)">
<title>PerceptualColor::FullColorDescription::FullColorDescription</title>
<polygon fill="white" stroke="transparent" points="-4,4 -4,-231 597,-231 597,4 -4,4"/>
<!-- Node1 -->
<g id="node1" class="node">
<title>Node1</title>
<g id="a_node1"><a xlink:title="Constructor.">
<polygon fill="#bfbfbf" stroke="black" points="0,-98.5 0,-128.5 176,-128.5 176,-98.5 0,-98.5"/>
<text text-anchor="start" x="8" y="-116.5" font-family="Helvetica,sans-Serif" font-size="10.00">PerceptualColor::FullColor</text>
<text text-anchor="middle" x="88" y="-105.5" font-family="Helvetica,sans-Serif" font-size="10.00">Description::FullColorDescription</text>
</a>
</g>
</g>
<!-- Node2 -->
<g id="node2" class="node">
<title>Node2</title>
<g id="a_node2"><a xlink:href="class_perceptual_color_1_1_full_color_description.html#aa4fabb35ce1684e4321ff58d008a2885" target="_top" xlink:title=" ">
<polygon fill="white" stroke="black" points="238.5,-196.5 238.5,-226.5 381.5,-226.5 381.5,-196.5 238.5,-196.5"/>
<text text-anchor="start" x="246.5" y="-214.5" font-family="Helvetica,sans-Serif" font-size="10.00">PerceptualColor::FullColor</text>
<text text-anchor="middle" x="310" y="-203.5" font-family="Helvetica,sans-Serif" font-size="10.00">Description::alpha</text>
</a>
</g>
</g>
<!-- Node1&#45;&gt;Node2 -->
<g id="edge1" class="edge">
<title>Node1&#45;&gt;Node2</title>
<path fill="none" stroke="midnightblue" d="M109.74,-128.65C133.4,-145.27 173.77,-171.69 212,-187.5 217.34,-189.71 222.93,-191.75 228.62,-193.63"/>
<polygon fill="midnightblue" stroke="midnightblue" points="227.67,-197 238.26,-196.64 229.76,-190.31 227.67,-197"/>
</g>
<!-- Node3 -->
<g id="node3" class="node">
<title>Node3</title>
<g id="a_node3"><a xlink:href="class_perceptual_color_1_1_rgb_color_space.html#aeb749cb42b24d3989be041a7d4096258" target="_top" xlink:title=" ">
<polygon fill="white" stroke="black" points="230.5,-147.5 230.5,-177.5 389.5,-177.5 389.5,-147.5 230.5,-147.5"/>
<text text-anchor="start" x="238.5" y="-165.5" font-family="Helvetica,sans-Serif" font-size="10.00">PerceptualColor::RgbColor</text>
<text text-anchor="middle" x="310" y="-154.5" font-family="Helvetica,sans-Serif" font-size="10.00">Space::colorRgbBoundSimple</text>
</a>
</g>
</g>
<!-- Node1&#45;&gt;Node3 -->
<g id="edge2" class="edge">
<title>Node1&#45;&gt;Node3</title>
<path fill="none" stroke="midnightblue" d="M156.5,-128.53C180.26,-133.83 207.14,-139.81 231.65,-145.27"/>
<polygon fill="midnightblue" stroke="midnightblue" points="231.1,-148.74 241.63,-147.49 232.63,-141.9 231.1,-148.74"/>
</g>
<!-- Node4 -->
<g id="node4" class="node">
<title>Node4</title>
<g id="a_node4"><a xlink:href="class_perceptual_color_1_1_full_color_description.html#a5c7e9555e961f25f39c961b6aedda06a" target="_top" xlink:title=" ">
<polygon fill="white" stroke="black" points="212,-98.5 212,-128.5 408,-128.5 408,-98.5 212,-98.5"/>
<text text-anchor="start" x="220" y="-116.5" font-family="Helvetica,sans-Serif" font-size="10.00">PerceptualColor::FullColor</text>
<text text-anchor="middle" x="310" y="-105.5" font-family="Helvetica,sans-Serif" font-size="10.00">Description::moveChromaIntoGamut</text>
</a>
</g>
</g>
<!-- Node1&#45;&gt;Node4 -->
<g id="edge3" class="edge">
<title>Node1&#45;&gt;Node4</title>
<path fill="none" stroke="midnightblue" d="M176.27,-113.5C184.54,-113.5 192.99,-113.5 201.42,-113.5"/>
<polygon fill="midnightblue" stroke="midnightblue" points="201.69,-117 211.69,-113.5 201.69,-110 201.69,-117"/>
</g>
<!-- Node8 -->
<g id="node8" class="node">
<title>Node8</title>
<g id="a_node8"><a xlink:href="class_perceptual_color_1_1_full_color_description.html#aa9eb9b1edc15f59182dbad8add233291" target="_top" xlink:title=" ">
<polygon fill="white" stroke="black" points="238.5,-49.5 238.5,-79.5 381.5,-79.5 381.5,-49.5 238.5,-49.5"/>
<text text-anchor="start" x="246.5" y="-67.5" font-family="Helvetica,sans-Serif" font-size="10.00">PerceptualColor::FullColor</text>
<text text-anchor="middle" x="310" y="-56.5" font-family="Helvetica,sans-Serif" font-size="10.00">Description::normalizeLch</text>
</a>
</g>
</g>
<!-- Node1&#45;&gt;Node8 -->
<g id="edge7" class="edge">
<title>Node1&#45;&gt;Node8</title>
<path fill="none" stroke="midnightblue" d="M156.5,-98.47C180.26,-93.17 207.14,-87.19 231.65,-81.73"/>
<polygon fill="midnightblue" stroke="midnightblue" points="232.63,-85.1 241.63,-79.51 231.1,-78.26 232.63,-85.1"/>
</g>
<!-- Node11 -->
<g id="node11" class="node">
<title>Node11</title>
<g id="a_node11"><a xlink:href="class_perceptual_color_1_1_full_color_description.html#a26e4ea239adaeeb9237e9655b1cab9e5" target="_top" xlink:title=" ">
<polygon fill="white" stroke="black" points="238.5,-0.5 238.5,-30.5 381.5,-30.5 381.5,-0.5 238.5,-0.5"/>
<text text-anchor="start" x="246.5" y="-18.5" font-family="Helvetica,sans-Serif" font-size="10.00">PerceptualColor::FullColor</text>
<text text-anchor="middle" x="310" y="-7.5" font-family="Helvetica,sans-Serif" font-size="10.00">Description::toLab</text>
</a>
</g>
</g>
<!-- Node1&#45;&gt;Node11 -->
<g id="edge10" class="edge">
<title>Node1&#45;&gt;Node11</title>
<path fill="none" stroke="midnightblue" d="M110.23,-98.35C134.01,-82.01 174.17,-56.23 212,-40.5 218.1,-37.97 224.52,-35.63 231.03,-33.5"/>
<polygon fill="midnightblue" stroke="midnightblue" points="232.11,-36.83 240.62,-30.51 230.03,-30.15 232.11,-36.83"/>
</g>
<!-- Node5 -->
<g id="node5" class="node">
<title>Node5</title>
<g id="a_node5"><a xlink:href="class_perceptual_color_1_1_rgb_color_space.html#a805768f351ccde875254755901d943fa" target="_top" xlink:title="The darkest in&#45;gamut point on the L* axis.">
<polygon fill="white" stroke="black" points="446.5,-196.5 446.5,-226.5 590.5,-226.5 590.5,-196.5 446.5,-196.5"/>
<text text-anchor="start" x="454.5" y="-214.5" font-family="Helvetica,sans-Serif" font-size="10.00">PerceptualColor::RgbColor</text>
<text text-anchor="middle" x="518.5" y="-203.5" font-family="Helvetica,sans-Serif" font-size="10.00">Space::blackpointL</text>
</a>
</g>
</g>
<!-- Node4&#45;&gt;Node5 -->
<g id="edge4" class="edge">
<title>Node4&#45;&gt;Node5</title>
<path fill="none" stroke="midnightblue" d="M389.33,-128.54C395.91,-131.31 402.24,-134.6 408,-138.5 430.38,-153.64 422.11,-171.66 444,-187.5 445.9,-188.87 447.88,-190.17 449.93,-191.4"/>
<polygon fill="midnightblue" stroke="midnightblue" points="448.76,-194.74 459.24,-196.33 452.04,-188.56 448.76,-194.74"/>
</g>
<!-- Node6 -->
<g id="node6" class="node">
<title>Node6</title>
<g id="a_node6"><a xlink:href="class_perceptual_color_1_1_rgb_color_space.html#a24382dbdad4c514bde0842b5a8313be0" target="_top" xlink:title="check if a Lab value is within a specific RGB gamut">
<polygon fill="white" stroke="black" points="446.5,-147.5 446.5,-177.5 590.5,-177.5 590.5,-147.5 446.5,-147.5"/>
<text text-anchor="start" x="454.5" y="-165.5" font-family="Helvetica,sans-Serif" font-size="10.00">PerceptualColor::RgbColor</text>
<text text-anchor="middle" x="518.5" y="-154.5" font-family="Helvetica,sans-Serif" font-size="10.00">Space::inGamut</text>
</a>
</g>
</g>
<!-- Node4&#45;&gt;Node6 -->
<g id="edge5" class="edge">
<title>Node4&#45;&gt;Node6</title>
<path fill="none" stroke="midnightblue" d="M374.36,-128.53C396.46,-133.78 421.44,-139.71 444.28,-145.13"/>
<polygon fill="midnightblue" stroke="midnightblue" points="443.72,-148.59 454.26,-147.49 445.34,-141.78 443.72,-148.59"/>
</g>
<!-- Node7 -->
<g id="node7" class="node">
<title>Node7</title>
<g id="a_node7"><a xlink:href="class_perceptual_color_1_1_rgb_color_space.html#a1e3cb8f4108729442a61b43df4664397" target="_top" xlink:title="The lightest in&#45;gamut point on the L* axis.">
<polygon fill="white" stroke="black" points="446.5,-98.5 446.5,-128.5 590.5,-128.5 590.5,-98.5 446.5,-98.5"/>
<text text-anchor="start" x="454.5" y="-116.5" font-family="Helvetica,sans-Serif" font-size="10.00">PerceptualColor::RgbColor</text>
<text text-anchor="middle" x="518.5" y="-105.5" font-family="Helvetica,sans-Serif" font-size="10.00">Space::whitepointL</text>
</a>
</g>
</g>
<!-- Node4&#45;&gt;Node7 -->
<g id="edge6" class="edge">
<title>Node4&#45;&gt;Node7</title>
<path fill="none" stroke="midnightblue" d="M408.2,-113.5C417.55,-113.5 426.97,-113.5 436.14,-113.5"/>
<polygon fill="midnightblue" stroke="midnightblue" points="436.38,-117 446.38,-113.5 436.38,-110 436.38,-117"/>
</g>
<!-- Node9 -->
<g id="node9" class="node">
<title>Node9</title>
<g id="a_node9"><a xlink:href="class_perceptual_color_1_1_polar_point_f.html#a882cd166affc603fc62241dcb3be4fd5" target="_top" xlink:title="Normalized angle.">
<polygon fill="white" stroke="black" points="444,-49.5 444,-79.5 593,-79.5 593,-49.5 444,-49.5"/>
<text text-anchor="start" x="452" y="-67.5" font-family="Helvetica,sans-Serif" font-size="10.00">PerceptualColor::PolarPoint</text>
<text text-anchor="middle" x="518.5" y="-56.5" font-family="Helvetica,sans-Serif" font-size="10.00">F::angleDegree</text>
</a>
</g>
</g>
<!-- Node8&#45;&gt;Node9 -->
<g id="edge8" class="edge">
<title>Node8&#45;&gt;Node9</title>
<path fill="none" stroke="midnightblue" d="M381.78,-64.5C398.47,-64.5 416.42,-64.5 433.62,-64.5"/>
<polygon fill="midnightblue" stroke="midnightblue" points="433.65,-68 443.65,-64.5 433.65,-61 433.65,-68"/>
</g>
<!-- Node10 -->
<g id="node10" class="node">
<title>Node10</title>
<g id="a_node10"><a xlink:href="class_perceptual_color_1_1_polar_point_f.html#ad9e45debe2dc38bbba834d791336f1fd" target="_top" xlink:title="Normalized radial.">
<polygon fill="white" stroke="black" points="444,-0.5 444,-30.5 593,-30.5 593,-0.5 444,-0.5"/>
<text text-anchor="start" x="452" y="-18.5" font-family="Helvetica,sans-Serif" font-size="10.00">PerceptualColor::PolarPoint</text>
<text text-anchor="middle" x="518.5" y="-7.5" font-family="Helvetica,sans-Serif" font-size="10.00">F::radial</text>
</a>
</g>
</g>
<!-- Node8&#45;&gt;Node10 -->
<g id="edge9" class="edge">
<title>Node8&#45;&gt;Node10</title>
<path fill="none" stroke="midnightblue" d="M374.36,-49.47C396.46,-44.22 421.44,-38.29 444.28,-32.87"/>
<polygon fill="midnightblue" stroke="midnightblue" points="445.34,-36.22 454.26,-30.51 443.72,-29.41 445.34,-36.22"/>
</g>
</g>
</svg>
