<?xml version="1.0" encoding="UTF-8" standalone="no"?>
<!DOCTYPE svg PUBLIC "-//W3C//DTD SVG 1.1//EN"
 "http://www.w3.org/Graphics/SVG/1.1/DTD/svg11.dtd">
<!-- Generated by graphviz version 2.43.0 (0)
 -->
<!-- Title: PerceptualColor::SimpleColorWheel::sizeHint Pages: 1 -->
<svg width="553pt" height="88pt"
 viewBox="0.00 0.00 553.00 88.00" xmlns="http://www.w3.org/2000/svg" xmlns:xlink="http://www.w3.org/1999/xlink">
<g id="graph0" class="graph" transform="scale(1 1) rotate(0) translate(4 84)">
<title>PerceptualColor::SimpleColorWheel::sizeHint</title>
<polygon fill="white" stroke="transparent" points="-4,4 -4,-84 549,-84 549,4 -4,4"/>
<!-- Node1 -->
<g id="node1" class="node">
<title>Node1</title>
<g id="a_node1"><a xlink:title="Provide the size hint.">
<polygon fill="#bfbfbf" stroke="black" points="386,-24.5 386,-54.5 545,-54.5 545,-24.5 386,-24.5"/>
<text text-anchor="start" x="394" y="-42.5" font-family="Helvetica,sans-Serif" font-size="10.00">PerceptualColor::SimpleColor</text>
<text text-anchor="middle" x="465.5" y="-31.5" font-family="Helvetica,sans-Serif" font-size="10.00">Wheel::sizeHint</text>
</a>
</g>
</g>
<!-- Node2 -->
<g id="node2" class="node">
<title>Node2</title>
<g id="a_node2"><a xlink:href="class_perceptual_color_1_1_color_dialog.html#aa0acac5d112ac65532a3a3ec9a45f094" target="_top" xlink:title="Arranges the layout conforming to layoutDimensions.">
<polygon fill="white" stroke="black" points="193,-24.5 193,-54.5 350,-54.5 350,-24.5 193,-24.5"/>
<text text-anchor="start" x="201" y="-42.5" font-family="Helvetica,sans-Serif" font-size="10.00">PerceptualColor::ColorDialog</text>
<text text-anchor="middle" x="271.5" y="-31.5" font-family="Helvetica,sans-Serif" font-size="10.00">::applyLayoutDimensions</text>
</a>
</g>
</g>
<!-- Node1&#45;&gt;Node2 -->
<g id="edge1" class="edge">
<title>Node1&#45;&gt;Node2</title>
<path fill="none" stroke="midnightblue" d="M375.82,-39.5C367.23,-39.5 358.56,-39.5 350.09,-39.5"/>
<polygon fill="midnightblue" stroke="midnightblue" points="375.85,-43 385.85,-39.5 375.85,-36 375.85,-43"/>
</g>
<!-- Node3 -->
<g id="node3" class="node">
<title>Node3</title>
<g id="a_node3"><a xlink:href="class_perceptual_color_1_1_color_dialog.html#a4d8c3a0e0ac520c789565d68c135431b" target="_top" xlink:title="Setter for property layoutDimensions.">
<polygon fill="white" stroke="black" points="0,-49.5 0,-79.5 157,-79.5 157,-49.5 0,-49.5"/>
<text text-anchor="start" x="8" y="-67.5" font-family="Helvetica,sans-Serif" font-size="10.00">PerceptualColor::ColorDialog</text>
<text text-anchor="middle" x="78.5" y="-56.5" font-family="Helvetica,sans-Serif" font-size="10.00">::setLayoutDimensions</text>
</a>
</g>
</g>
<!-- Node2&#45;&gt;Node3 -->
<g id="edge2" class="edge">
<title>Node2&#45;&gt;Node3</title>
<path fill="none" stroke="midnightblue" d="M182.81,-50.98C174.24,-52.1 165.58,-53.23 157.12,-54.34"/>
<polygon fill="midnightblue" stroke="midnightblue" points="183.35,-54.44 192.81,-49.67 182.44,-47.5 183.35,-54.44"/>
</g>
<!-- Node4 -->
<g id="node4" class="node">
<title>Node4</title>
<g id="a_node4"><a xlink:href="class_perceptual_color_1_1_color_dialog.html#a2569086f612b1714dc922564808fe5e9" target="_top" xlink:title="Setter for property visible.">
<polygon fill="white" stroke="black" points="0,-0.5 0,-30.5 157,-30.5 157,-0.5 0,-0.5"/>
<text text-anchor="start" x="8" y="-18.5" font-family="Helvetica,sans-Serif" font-size="10.00">PerceptualColor::ColorDialog</text>
<text text-anchor="middle" x="78.5" y="-7.5" font-family="Helvetica,sans-Serif" font-size="10.00">::setVisible</text>
</a>
</g>
</g>
<!-- Node2&#45;&gt;Node4 -->
<g id="edge3" class="edge">
<title>Node2&#45;&gt;Node4</title>
<path fill="none" stroke="midnightblue" d="M182.81,-28.48C174.24,-27.4 165.58,-26.32 157.12,-25.25"/>
<polygon fill="midnightblue" stroke="midnightblue" points="182.45,-31.96 192.81,-29.74 183.33,-25.02 182.45,-31.96"/>
</g>
</g>
</svg>
