<?xml version="1.0" encoding="UTF-8" standalone="no"?>
<!DOCTYPE svg PUBLIC "-//W3C//DTD SVG 1.1//EN"
 "http://www.w3.org/Graphics/SVG/1.1/DTD/svg11.dtd">
<!-- Generated by graphviz version 2.43.0 (0)
 -->
<!-- Title: PerceptualColor::GradientSelector::GradientSelector Pages: 1 -->
<svg width="510pt" height="137pt"
 viewBox="0.00 0.00 510.00 137.00" xmlns="http://www.w3.org/2000/svg" xmlns:xlink="http://www.w3.org/1999/xlink">
<g id="graph0" class="graph" transform="scale(1 1) rotate(0) translate(4 133)">
<title>PerceptualColor::GradientSelector::GradientSelector</title>
<polygon fill="white" stroke="transparent" points="-4,4 -4,-133 506,-133 506,4 -4,4"/>
<!-- Node1 -->
<g id="node1" class="node">
<title>Node1</title>
<g id="a_node1"><a xlink:title=" ">
<polygon fill="#bfbfbf" stroke="black" points="0,-49.5 0,-79.5 144,-79.5 144,-49.5 0,-49.5"/>
<text text-anchor="start" x="8" y="-67.5" font-family="Helvetica,sans-Serif" font-size="10.00">PerceptualColor::Gradient</text>
<text text-anchor="middle" x="72" y="-56.5" font-family="Helvetica,sans-Serif" font-size="10.00">Selector::GradientSelector</text>
</a>
</g>
</g>
<!-- Node2 -->
<g id="node2" class="node">
<title>Node2</title>
<g id="a_node2"><a xlink:href="class_perceptual_color_1_1_gradient_selector.html#a4a19e9fef9d31d5e028ff7eeb783d1be" target="_top" xlink:title=" ">
<polygon fill="white" stroke="black" points="180,-49.5 180,-79.5 322,-79.5 322,-49.5 180,-49.5"/>
<text text-anchor="start" x="188" y="-67.5" font-family="Helvetica,sans-Serif" font-size="10.00">PerceptualColor::Gradient</text>
<text text-anchor="middle" x="251" y="-56.5" font-family="Helvetica,sans-Serif" font-size="10.00">Selector::initialize</text>
</a>
</g>
</g>
<!-- Node1&#45;&gt;Node2 -->
<g id="edge1" class="edge">
<title>Node1&#45;&gt;Node2</title>
<path fill="none" stroke="midnightblue" d="M144.23,-64.5C152.56,-64.5 161.1,-64.5 169.55,-64.5"/>
<polygon fill="midnightblue" stroke="midnightblue" points="169.78,-68 179.78,-64.5 169.78,-61 169.78,-68"/>
</g>
<!-- Node3 -->
<g id="node3" class="node">
<title>Node3</title>
<g id="a_node3"><a xlink:href="class_perceptual_color_1_1_gradient_selector.html#aabfd1c82565fb7c491e3bf1735beca11" target="_top" xlink:title=" ">
<polygon fill="white" stroke="black" points="359,-98.5 359,-128.5 501,-128.5 501,-98.5 359,-98.5"/>
<text text-anchor="start" x="367" y="-116.5" font-family="Helvetica,sans-Serif" font-size="10.00">PerceptualColor::Gradient</text>
<text text-anchor="middle" x="430" y="-105.5" font-family="Helvetica,sans-Serif" font-size="10.00">Selector::setColors</text>
</a>
</g>
</g>
<!-- Node2&#45;&gt;Node3 -->
<g id="edge2" class="edge">
<title>Node2&#45;&gt;Node3</title>
<path fill="none" stroke="midnightblue" d="M306.55,-79.6C324.97,-84.7 345.71,-90.44 364.81,-95.73"/>
<polygon fill="midnightblue" stroke="midnightblue" points="364.06,-99.15 374.63,-98.45 365.93,-92.41 364.06,-99.15"/>
</g>
<!-- Node4 -->
<g id="node4" class="node">
<title>Node4</title>
<g id="a_node4"><a xlink:href="class_perceptual_color_1_1_gradient_selector.html#af7d0fa1b1ddc7bad5124f66033fd65db" target="_top" xlink:title=" ">
<polygon fill="white" stroke="black" points="359,-49.5 359,-79.5 501,-79.5 501,-49.5 359,-49.5"/>
<text text-anchor="start" x="367" y="-67.5" font-family="Helvetica,sans-Serif" font-size="10.00">PerceptualColor::Gradient</text>
<text text-anchor="middle" x="430" y="-56.5" font-family="Helvetica,sans-Serif" font-size="10.00">Selector::setOrientation</text>
</a>
</g>
</g>
<!-- Node2&#45;&gt;Node4 -->
<g id="edge3" class="edge">
<title>Node2&#45;&gt;Node4</title>
<path fill="none" stroke="midnightblue" d="M322.21,-64.5C330.88,-64.5 339.8,-64.5 348.61,-64.5"/>
<polygon fill="midnightblue" stroke="midnightblue" points="348.88,-68 358.88,-64.5 348.88,-61 348.88,-68"/>
</g>
<!-- Node5 -->
<g id="node5" class="node">
<title>Node5</title>
<g id="a_node5"><a xlink:href="namespace_perceptual_color_1_1_helper.html#a5e5b05b338fc63c8d9a591b1be979ec4" target="_top" xlink:title="Background for semi&#45;transparent colors.">
<polygon fill="white" stroke="black" points="358,-0.5 358,-30.5 502,-30.5 502,-0.5 358,-0.5"/>
<text text-anchor="start" x="366" y="-18.5" font-family="Helvetica,sans-Serif" font-size="10.00">PerceptualColor::Helper</text>
<text text-anchor="middle" x="430" y="-7.5" font-family="Helvetica,sans-Serif" font-size="10.00">::transparencyBackground</text>
</a>
</g>
</g>
<!-- Node2&#45;&gt;Node5 -->
<g id="edge4" class="edge">
<title>Node2&#45;&gt;Node5</title>
<path fill="none" stroke="midnightblue" d="M306.55,-49.4C324.97,-44.3 345.71,-38.56 364.81,-33.27"/>
<polygon fill="midnightblue" stroke="midnightblue" points="365.93,-36.59 374.63,-30.55 364.06,-29.85 365.93,-36.59"/>
</g>
</g>
</svg>
