<?xml version="1.0" encoding="UTF-8" standalone="no"?>
<!DOCTYPE svg PUBLIC "-//W3C//DTD SVG 1.1//EN"
 "http://www.w3.org/Graphics/SVG/1.1/DTD/svg11.dtd">
<!-- Generated by graphviz version 2.43.0 (0)
 -->
<!-- Title: PerceptualColor::ColorDialog::setCurrentOpaqueColor Pages: 1 -->
<svg width="959pt" height="586pt"
 viewBox="0.00 0.00 959.00 586.00" xmlns="http://www.w3.org/2000/svg" xmlns:xlink="http://www.w3.org/1999/xlink">
<g id="graph0" class="graph" transform="scale(1 1) rotate(0) translate(4 582)">
<title>PerceptualColor::ColorDialog::setCurrentOpaqueColor</title>
<polygon fill="white" stroke="transparent" points="-4,4 -4,-582 955,-582 955,4 -4,4"/>
<!-- Node1 -->
<g id="node1" class="node">
<title>Node1</title>
<g id="a_node1"><a xlink:title="Updates m_currentOpaqueColor and all affected widgets.">
<polygon fill="#bfbfbf" stroke="black" points="0,-235.5 0,-265.5 157,-265.5 157,-235.5 0,-235.5"/>
<text text-anchor="start" x="8" y="-253.5" font-family="Helvetica,sans-Serif" font-size="10.00">PerceptualColor::ColorDialog</text>
<text text-anchor="middle" x="78.5" y="-242.5" font-family="Helvetica,sans-Serif" font-size="10.00">::setCurrentOpaqueColor</text>
</a>
</g>
</g>
<!-- Node2 -->
<g id="node2" class="node">
<title>Node2</title>
<g id="a_node2"><a xlink:href="class_perceptual_color_1_1_full_color_description.html#a45a4e34ce415f9fc71f3fe4847c89068" target="_top" xlink:title=" ">
<polygon fill="white" stroke="black" points="205,-508.5 205,-538.5 348,-538.5 348,-508.5 205,-508.5"/>
<text text-anchor="start" x="213" y="-526.5" font-family="Helvetica,sans-Serif" font-size="10.00">PerceptualColor::FullColor</text>
<text text-anchor="middle" x="276.5" y="-515.5" font-family="Helvetica,sans-Serif" font-size="10.00">Description::isValid</text>
</a>
</g>
</g>
<!-- Node1&#45;&gt;Node2 -->
<g id="edge1" class="edge">
<title>Node1&#45;&gt;Node2</title>
<path fill="none" stroke="midnightblue" d="M81.92,-265.72C89.64,-309.09 117.72,-434.39 193,-499.5 194.36,-500.67 195.77,-501.79 197.23,-502.85"/>
<polygon fill="midnightblue" stroke="midnightblue" points="195.7,-506.02 206.03,-508.36 199.41,-500.09 195.7,-506.02"/>
</g>
<!-- Node3 -->
<g id="node3" class="node">
<title>Node3</title>
<g id="a_node3"><a xlink:href="class_perceptual_color_1_1_alpha_selector.html#ac9faa6bbf68757f843e4cce92d697067" target="_top" xlink:title=" ">
<polygon fill="white" stroke="black" points="193,-366.5 193,-396.5 360,-396.5 360,-366.5 193,-366.5"/>
<text text-anchor="start" x="201" y="-384.5" font-family="Helvetica,sans-Serif" font-size="10.00">PerceptualColor::AlphaSelector</text>
<text text-anchor="middle" x="276.5" y="-373.5" font-family="Helvetica,sans-Serif" font-size="10.00">::setColor</text>
</a>
</g>
</g>
<!-- Node1&#45;&gt;Node3 -->
<g id="edge2" class="edge">
<title>Node1&#45;&gt;Node3</title>
<path fill="none" stroke="midnightblue" d="M94.49,-265.79C115.18,-286.25 154.32,-322.69 193,-346.5 202.54,-352.37 213.23,-357.7 223.68,-362.34"/>
<polygon fill="midnightblue" stroke="midnightblue" points="222.59,-365.68 233.16,-366.4 225.35,-359.25 222.59,-365.68"/>
</g>
<!-- Node5 -->
<g id="node5" class="node">
<title>Node5</title>
<g id="a_node5"><a xlink:href="class_perceptual_color_1_1_full_color_description.html#acdbff4639f8a118f0d13a831a4b57ffe" target="_top" xlink:title=" ">
<polygon fill="white" stroke="black" points="620,-344.5 620,-374.5 763,-374.5 763,-344.5 620,-344.5"/>
<text text-anchor="start" x="628" y="-362.5" font-family="Helvetica,sans-Serif" font-size="10.00">PerceptualColor::FullColor</text>
<text text-anchor="middle" x="691.5" y="-351.5" font-family="Helvetica,sans-Serif" font-size="10.00">Description::toLch</text>
</a>
</g>
</g>
<!-- Node1&#45;&gt;Node5 -->
<g id="edge18" class="edge">
<title>Node1&#45;&gt;Node5</title>
<path fill="none" stroke="midnightblue" d="M157.49,-246.34C278.69,-240.95 506.12,-235.35 581,-264.5 619.02,-279.3 652.79,-313.44 672.45,-336.5"/>
<polygon fill="midnightblue" stroke="midnightblue" points="669.96,-338.98 679.04,-344.44 675.35,-334.51 669.96,-338.98"/>
</g>
<!-- Node6 -->
<g id="node6" class="node">
<title>Node6</title>
<g id="a_node6"><a xlink:href="class_perceptual_color_1_1_chroma_hue_diagram.html#a443db20bc2c25119febcd61ca9299d21" target="_top" xlink:title="Setter for the color() property.">
<polygon fill="white" stroke="black" points="409.5,-273.5 409.5,-303.5 567.5,-303.5 567.5,-273.5 409.5,-273.5"/>
<text text-anchor="start" x="417.5" y="-291.5" font-family="Helvetica,sans-Serif" font-size="10.00">PerceptualColor::ChromaHue</text>
<text text-anchor="middle" x="488.5" y="-280.5" font-family="Helvetica,sans-Serif" font-size="10.00">Diagram::setColor</text>
</a>
</g>
</g>
<!-- Node1&#45;&gt;Node6 -->
<g id="edge5" class="edge">
<title>Node1&#45;&gt;Node6</title>
<path fill="none" stroke="midnightblue" d="M157.3,-260.53C169.25,-261.94 181.45,-263.32 193,-264.5 262.08,-271.57 340.45,-277.88 398.97,-282.25"/>
<polygon fill="midnightblue" stroke="midnightblue" points="399.06,-285.76 409.29,-283.01 399.58,-278.78 399.06,-285.76"/>
</g>
<!-- Node7 -->
<g id="node7" class="node">
<title>Node7</title>
<g id="a_node7"><a xlink:href="class_perceptual_color_1_1_wheel_color_picker.html#a5f3a58bb672323221c98c2285404bf76" target="_top" xlink:title="Setter for currentColorRgb() property.">
<polygon fill="white" stroke="black" points="198.5,-459.5 198.5,-489.5 354.5,-489.5 354.5,-459.5 198.5,-459.5"/>
<text text-anchor="start" x="206.5" y="-477.5" font-family="Helvetica,sans-Serif" font-size="10.00">PerceptualColor::WheelColor</text>
<text text-anchor="middle" x="276.5" y="-466.5" font-family="Helvetica,sans-Serif" font-size="10.00">Picker::setCurrentColor</text>
</a>
</g>
</g>
<!-- Node1&#45;&gt;Node7 -->
<g id="edge7" class="edge">
<title>Node1&#45;&gt;Node7</title>
<path fill="none" stroke="midnightblue" d="M88.69,-265.64C106.68,-294.67 148.69,-359.43 193,-406.5 209.14,-423.65 229.55,-440.5 246.03,-453.14"/>
<polygon fill="midnightblue" stroke="midnightblue" points="244.16,-456.11 254.25,-459.35 248.37,-450.53 244.16,-456.11"/>
</g>
<!-- Node12 -->
<g id="node12" class="node">
<title>Node12</title>
<g id="a_node12"><a xlink:href="class_perceptual_color_1_1_gradient_selector.html#a1548390b891333547c1dee97573be568" target="_top" xlink:title=" ">
<polygon fill="white" stroke="black" points="205.5,-191.5 205.5,-221.5 347.5,-221.5 347.5,-191.5 205.5,-191.5"/>
<text text-anchor="start" x="213.5" y="-209.5" font-family="Helvetica,sans-Serif" font-size="10.00">PerceptualColor::Gradient</text>
<text text-anchor="middle" x="276.5" y="-198.5" font-family="Helvetica,sans-Serif" font-size="10.00">Selector::setFraction</text>
</a>
</g>
</g>
<!-- Node1&#45;&gt;Node12 -->
<g id="edge14" class="edge">
<title>Node1&#45;&gt;Node12</title>
<path fill="none" stroke="midnightblue" d="M146.4,-235.48C163.18,-231.71 181.32,-227.64 198.55,-223.78"/>
<polygon fill="midnightblue" stroke="midnightblue" points="199.57,-227.13 208.57,-221.53 198.04,-220.3 199.57,-227.13"/>
</g>
<!-- Node13 -->
<g id="node13" class="node">
<title>Node13</title>
<g id="a_node13"><a xlink:href="class_perceptual_color_1_1_color_dialog.html#a38134a3e22f2b3df4602a08025ec1d52" target="_top" xlink:title="Get text for m_hlcLineEdit based on m_currentOpaqueColor.">
<polygon fill="white" stroke="black" points="410,-322.5 410,-352.5 567,-352.5 567,-322.5 410,-322.5"/>
<text text-anchor="start" x="418" y="-340.5" font-family="Helvetica,sans-Serif" font-size="10.00">PerceptualColor::ColorDialog</text>
<text text-anchor="middle" x="488.5" y="-329.5" font-family="Helvetica,sans-Serif" font-size="10.00">::textForHlcLineEdit</text>
</a>
</g>
</g>
<!-- Node1&#45;&gt;Node13 -->
<g id="edge15" class="edge">
<title>Node1&#45;&gt;Node13</title>
<path fill="none" stroke="midnightblue" d="M123.62,-265.5C144.48,-272.24 169.85,-279.91 193,-285.5 261.82,-302.12 340.88,-315.79 399.75,-324.93"/>
<polygon fill="midnightblue" stroke="midnightblue" points="399.34,-328.41 409.76,-326.47 400.41,-321.49 399.34,-328.41"/>
</g>
<!-- Node14 -->
<g id="node14" class="node">
<title>Node14</title>
<g id="a_node14"><a xlink:href="class_perceptual_color_1_1_full_color_description.html#aaa17133c6e1d040b2f088e79a42d3283" target="_top" xlink:title=" ">
<polygon fill="white" stroke="black" points="205,-142.5 205,-172.5 348,-172.5 348,-142.5 205,-142.5"/>
<text text-anchor="start" x="213" y="-160.5" font-family="Helvetica,sans-Serif" font-size="10.00">PerceptualColor::FullColor</text>
<text text-anchor="middle" x="276.5" y="-149.5" font-family="Helvetica,sans-Serif" font-size="10.00">Description::toHsvQColor</text>
</a>
</g>
</g>
<!-- Node1&#45;&gt;Node14 -->
<g id="edge17" class="edge">
<title>Node1&#45;&gt;Node14</title>
<path fill="none" stroke="midnightblue" d="M101.24,-235.26C123.46,-220.23 159.4,-197.39 193,-182.5 198.26,-180.17 203.8,-177.98 209.42,-175.93"/>
<polygon fill="midnightblue" stroke="midnightblue" points="210.61,-179.22 218.91,-172.63 208.31,-172.61 210.61,-179.22"/>
</g>
<!-- Node15 -->
<g id="node15" class="node">
<title>Node15</title>
<g id="a_node15"><a xlink:href="class_perceptual_color_1_1_full_color_description.html#a572e2abe28e31c6315732d30f06b1732" target="_top" xlink:title="A string with a hexadecimal representation of the color.">
<polygon fill="white" stroke="black" points="199,-93.5 199,-123.5 354,-123.5 354,-93.5 199,-93.5"/>
<text text-anchor="start" x="207" y="-111.5" font-family="Helvetica,sans-Serif" font-size="10.00">PerceptualColor::FullColor</text>
<text text-anchor="middle" x="276.5" y="-100.5" font-family="Helvetica,sans-Serif" font-size="10.00">Description::toRgbHexString</text>
</a>
</g>
</g>
<!-- Node1&#45;&gt;Node15 -->
<g id="edge19" class="edge">
<title>Node1&#45;&gt;Node15</title>
<path fill="none" stroke="midnightblue" d="M89.88,-235.4C107.92,-210.29 147.52,-160.01 193,-132.5 195.81,-130.8 198.74,-129.22 201.76,-127.74"/>
<polygon fill="midnightblue" stroke="midnightblue" points="203.31,-130.88 211.03,-123.63 200.47,-124.49 203.31,-130.88"/>
</g>
<!-- Node16 -->
<g id="node16" class="node">
<title>Node16</title>
<g id="a_node16"><a xlink:href="class_perceptual_color_1_1_full_color_description.html#aad1d9cc70b7a9ae81c829c391334d768" target="_top" xlink:title=" ">
<polygon fill="white" stroke="black" points="417,-49.5 417,-79.5 560,-79.5 560,-49.5 417,-49.5"/>
<text text-anchor="start" x="425" y="-67.5" font-family="Helvetica,sans-Serif" font-size="10.00">PerceptualColor::FullColor</text>
<text text-anchor="middle" x="488.5" y="-56.5" font-family="Helvetica,sans-Serif" font-size="10.00">Description::toRgbQColor</text>
</a>
</g>
</g>
<!-- Node1&#45;&gt;Node16 -->
<g id="edge20" class="edge">
<title>Node1&#45;&gt;Node16</title>
<path fill="none" stroke="midnightblue" d="M84.59,-235.27C96.92,-201.06 131.97,-118.37 193,-83.5 257.79,-46.48 344.18,-45.43 406.62,-51.41"/>
<polygon fill="midnightblue" stroke="midnightblue" points="406.51,-54.92 416.82,-52.47 407.23,-47.95 406.51,-54.92"/>
</g>
<!-- Node17 -->
<g id="node17" class="node">
<title>Node17</title>
<g id="a_node17"><a xlink:href="class_perceptual_color_1_1_color_dialog.html#a18985e0cf14c64400f1edc5f64da159d" target="_top" xlink:title="Updates the color patch widget.">
<polygon fill="white" stroke="black" points="198,-5.5 198,-35.5 355,-35.5 355,-5.5 198,-5.5"/>
<text text-anchor="start" x="206" y="-23.5" font-family="Helvetica,sans-Serif" font-size="10.00">PerceptualColor::ColorDialog</text>
<text text-anchor="middle" x="276.5" y="-12.5" font-family="Helvetica,sans-Serif" font-size="10.00">::updateColorPatch</text>
</a>
</g>
</g>
<!-- Node1&#45;&gt;Node17 -->
<g id="edge21" class="edge">
<title>Node1&#45;&gt;Node17</title>
<path fill="none" stroke="midnightblue" d="M84.03,-235.33C95.83,-198.39 130.95,-102.94 193,-50.5 197.62,-46.59 202.8,-43.18 208.24,-40.19"/>
<polygon fill="midnightblue" stroke="midnightblue" points="210.19,-43.13 217.61,-35.56 207.09,-36.86 210.19,-43.13"/>
</g>
<!-- Node4 -->
<g id="node4" class="node">
<title>Node4</title>
<g id="a_node4"><a xlink:href="class_perceptual_color_1_1_gradient_selector.html#aabfd1c82565fb7c491e3bf1735beca11" target="_top" xlink:title=" ">
<polygon fill="white" stroke="black" points="417.5,-410.5 417.5,-440.5 559.5,-440.5 559.5,-410.5 417.5,-410.5"/>
<text text-anchor="start" x="425.5" y="-428.5" font-family="Helvetica,sans-Serif" font-size="10.00">PerceptualColor::Gradient</text>
<text text-anchor="middle" x="488.5" y="-417.5" font-family="Helvetica,sans-Serif" font-size="10.00">Selector::setColors</text>
</a>
</g>
</g>
<!-- Node3&#45;&gt;Node4 -->
<g id="edge3" class="edge">
<title>Node3&#45;&gt;Node4</title>
<path fill="none" stroke="midnightblue" d="M349.18,-396.52C367.9,-400.44 388.2,-404.69 407.32,-408.7"/>
<polygon fill="midnightblue" stroke="midnightblue" points="406.7,-412.15 417.21,-410.77 408.14,-405.3 406.7,-412.15"/>
</g>
<!-- Node3&#45;&gt;Node5 -->
<g id="edge4" class="edge">
<title>Node3&#45;&gt;Node5</title>
<path fill="none" stroke="midnightblue" d="M360.08,-377.1C432.55,-373.24 537.33,-367.66 609.37,-363.82"/>
<polygon fill="midnightblue" stroke="midnightblue" points="609.95,-367.3 619.75,-363.27 609.58,-360.31 609.95,-367.3"/>
</g>
<!-- Node6&#45;&gt;Node5 -->
<g id="edge6" class="edge">
<title>Node6&#45;&gt;Node5</title>
<path fill="none" stroke="midnightblue" d="M548.91,-303.51C559.67,-306.58 570.73,-309.96 581,-313.5 603.72,-321.34 628.44,-331.57 648.64,-340.4"/>
<polygon fill="midnightblue" stroke="midnightblue" points="647.31,-343.64 657.87,-344.47 650.14,-337.23 647.31,-343.64"/>
</g>
<!-- Node7&#45;&gt;Node5 -->
<g id="edge13" class="edge">
<title>Node7&#45;&gt;Node5</title>
<path fill="none" stroke="midnightblue" d="M336.79,-489.53C355.59,-493.62 376.55,-497.47 396,-499.5 477.78,-508.03 507.09,-535.52 581,-499.5 630.27,-475.49 663.88,-417.4 679.85,-384.08"/>
<polygon fill="midnightblue" stroke="midnightblue" points="683.21,-385.15 684.23,-374.6 676.86,-382.21 683.21,-385.15"/>
</g>
<!-- Node8 -->
<g id="node8" class="node">
<title>Node8</title>
<g id="a_node8"><a xlink:href="class_perceptual_color_1_1_chroma_lightness_diagram.html#a27d7c972e420480674da1a0fae0b10b3" target="_top" xlink:title="Setter for the color() property.">
<polygon fill="white" stroke="black" points="396,-459.5 396,-489.5 581,-489.5 581,-459.5 396,-459.5"/>
<text text-anchor="start" x="404" y="-477.5" font-family="Helvetica,sans-Serif" font-size="10.00">PerceptualColor::ChromaLightness</text>
<text text-anchor="middle" x="488.5" y="-466.5" font-family="Helvetica,sans-Serif" font-size="10.00">Diagram::setColor</text>
</a>
</g>
</g>
<!-- Node7&#45;&gt;Node8 -->
<g id="edge8" class="edge">
<title>Node7&#45;&gt;Node8</title>
<path fill="none" stroke="midnightblue" d="M354.5,-474.5C364.71,-474.5 375.29,-474.5 385.82,-474.5"/>
<polygon fill="midnightblue" stroke="midnightblue" points="385.9,-478 395.9,-474.5 385.9,-471 385.9,-478"/>
</g>
<!-- Node9 -->
<g id="node9" class="node">
<title>Node9</title>
<g id="a_node9"><a xlink:href="class_perceptual_color_1_1_simple_color_wheel.html#aa9eec6e96f6069be6d983d1c854644d1" target="_top" xlink:title=" ">
<polygon fill="white" stroke="black" points="409,-547.5 409,-577.5 568,-577.5 568,-547.5 409,-547.5"/>
<text text-anchor="start" x="417" y="-565.5" font-family="Helvetica,sans-Serif" font-size="10.00">PerceptualColor::SimpleColor</text>
<text text-anchor="middle" x="488.5" y="-554.5" font-family="Helvetica,sans-Serif" font-size="10.00">Wheel::setHue</text>
</a>
</g>
</g>
<!-- Node7&#45;&gt;Node9 -->
<g id="edge10" class="edge">
<title>Node7&#45;&gt;Node9</title>
<path fill="none" stroke="midnightblue" d="M338.73,-489.65C346.11,-492.45 353.37,-495.72 360,-499.5 378.86,-510.25 377.27,-521.54 396,-532.5 403.26,-536.75 411.2,-540.48 419.27,-543.75"/>
<polygon fill="midnightblue" stroke="midnightblue" points="418.19,-547.08 428.78,-547.36 420.68,-540.54 418.19,-547.08"/>
</g>
<!-- Node8&#45;&gt;Node5 -->
<g id="edge9" class="edge">
<title>Node8&#45;&gt;Node5</title>
<path fill="none" stroke="midnightblue" d="M560.12,-459.35C567.34,-456.81 574.43,-453.88 581,-450.5 615.46,-432.78 648.77,-402.64 669.42,-381.94"/>
<polygon fill="midnightblue" stroke="midnightblue" points="671.94,-384.37 676.44,-374.78 666.94,-379.47 671.94,-384.37"/>
</g>
<!-- Node10 -->
<g id="node10" class="node">
<title>Node10</title>
<g id="a_node10"><a xlink:href="class_perceptual_color_1_1_polar_point_f.html#a9eefd08d3a5ad536232292380f958804" target="_top" xlink:title="Normalizes an angle.">
<polygon fill="white" stroke="black" points="617,-547.5 617,-577.5 766,-577.5 766,-547.5 617,-547.5"/>
<text text-anchor="start" x="625" y="-565.5" font-family="Helvetica,sans-Serif" font-size="10.00">PerceptualColor::PolarPoint</text>
<text text-anchor="middle" x="691.5" y="-554.5" font-family="Helvetica,sans-Serif" font-size="10.00">F::normalizedAngleDegree</text>
</a>
</g>
</g>
<!-- Node9&#45;&gt;Node10 -->
<g id="edge11" class="edge">
<title>Node9&#45;&gt;Node10</title>
<path fill="none" stroke="midnightblue" d="M568.08,-562.5C580.76,-562.5 593.93,-562.5 606.74,-562.5"/>
<polygon fill="midnightblue" stroke="midnightblue" points="606.91,-566 616.91,-562.5 606.91,-559 606.91,-566"/>
</g>
<!-- Node11 -->
<g id="node11" class="node">
<title>Node11</title>
<g id="a_node11"><a xlink:href="class_perceptual_color_1_1_polar_point_f.html#a882cd166affc603fc62241dcb3be4fd5" target="_top" xlink:title="Normalized angle.">
<polygon fill="white" stroke="black" points="802,-547.5 802,-577.5 951,-577.5 951,-547.5 802,-547.5"/>
<text text-anchor="start" x="810" y="-565.5" font-family="Helvetica,sans-Serif" font-size="10.00">PerceptualColor::PolarPoint</text>
<text text-anchor="middle" x="876.5" y="-554.5" font-family="Helvetica,sans-Serif" font-size="10.00">F::angleDegree</text>
</a>
</g>
</g>
<!-- Node10&#45;&gt;Node11 -->
<g id="edge12" class="edge">
<title>Node10&#45;&gt;Node11</title>
<path fill="none" stroke="midnightblue" d="M766.14,-562.5C774.47,-562.5 783.01,-562.5 791.46,-562.5"/>
<polygon fill="midnightblue" stroke="midnightblue" points="791.71,-566 801.71,-562.5 791.71,-559 791.71,-566"/>
</g>
<!-- Node13&#45;&gt;Node5 -->
<g id="edge16" class="edge">
<title>Node13&#45;&gt;Node5</title>
<path fill="none" stroke="midnightblue" d="M567.21,-346.01C581.17,-347.53 595.74,-349.13 609.78,-350.67"/>
<polygon fill="midnightblue" stroke="midnightblue" points="609.57,-354.16 619.89,-351.77 610.33,-347.2 609.57,-354.16"/>
</g>
<!-- Node17&#45;&gt;Node16 -->
<g id="edge23" class="edge">
<title>Node17&#45;&gt;Node16</title>
<path fill="none" stroke="midnightblue" d="M349.18,-35.52C367.8,-39.42 387.98,-43.65 407.01,-47.64"/>
<polygon fill="midnightblue" stroke="midnightblue" points="406.35,-51.07 416.85,-49.7 407.78,-44.22 406.35,-51.07"/>
</g>
<!-- Node18 -->
<g id="node18" class="node">
<title>Node18</title>
<g id="a_node18"><a xlink:href="class_perceptual_color_1_1_color_patch.html#ada8693cd4a8e51eb2debd3c0192a7458" target="_top" xlink:title="Set the color property.">
<polygon fill="white" stroke="black" points="412.5,-0.5 412.5,-30.5 564.5,-30.5 564.5,-0.5 412.5,-0.5"/>
<text text-anchor="start" x="420.5" y="-18.5" font-family="Helvetica,sans-Serif" font-size="10.00">PerceptualColor::ColorPatch</text>
<text text-anchor="middle" x="488.5" y="-7.5" font-family="Helvetica,sans-Serif" font-size="10.00">::setColor</text>
</a>
</g>
</g>
<!-- Node17&#45;&gt;Node18 -->
<g id="edge22" class="edge">
<title>Node17&#45;&gt;Node18</title>
<path fill="none" stroke="midnightblue" d="M355.1,-18.65C370.43,-18.29 386.61,-17.9 402.18,-17.53"/>
<polygon fill="midnightblue" stroke="midnightblue" points="402.4,-21.03 412.32,-17.29 402.23,-14.03 402.4,-21.03"/>
</g>
</g>
</svg>
