<?xml version="1.0" encoding="UTF-8" standalone="no"?>
<!DOCTYPE svg PUBLIC "-//W3C//DTD SVG 1.1//EN"
 "http://www.w3.org/Graphics/SVG/1.1/DTD/svg11.dtd">
<!-- Generated by graphviz version 2.43.0 (0)
 -->
<!-- Title: PerceptualColor::ChromaLightnessDiagram::updateDiagramCache Pages: 1 -->
<svg width="784pt" height="112pt"
 viewBox="0.00 0.00 784.00 112.00" xmlns="http://www.w3.org/2000/svg" xmlns:xlink="http://www.w3.org/1999/xlink">
<g id="graph0" class="graph" transform="scale(1 1) rotate(0) translate(4 108)">
<title>PerceptualColor::ChromaLightnessDiagram::updateDiagramCache</title>
<polygon fill="white" stroke="transparent" points="-4,4 -4,-108 780,-108 780,4 -4,4"/>
<!-- Node1 -->
<g id="node1" class="node">
<title>Node1</title>
<g id="a_node1"><a xlink:title="Refresh the diagram and associated data.">
<polygon fill="#bfbfbf" stroke="black" points="0,-24.5 0,-54.5 185,-54.5 185,-24.5 0,-24.5"/>
<text text-anchor="start" x="8" y="-42.5" font-family="Helvetica,sans-Serif" font-size="10.00">PerceptualColor::ChromaLightness</text>
<text text-anchor="middle" x="92.5" y="-31.5" font-family="Helvetica,sans-Serif" font-size="10.00">Diagram::updateDiagramCache</text>
</a>
</g>
</g>
<!-- Node2 -->
<g id="node2" class="node">
<title>Node2</title>
<g id="a_node2"><a xlink:href="class_perceptual_color_1_1_chroma_lightness_diagram.html#ae0395993434db2cd0d74b146fed6621c" target="_top" xlink:title="Generates an image of a chroma&#45;lightness diagram.">
<polygon fill="white" stroke="black" points="221,-49.5 221,-79.5 406,-79.5 406,-49.5 221,-49.5"/>
<text text-anchor="start" x="229" y="-67.5" font-family="Helvetica,sans-Serif" font-size="10.00">PerceptualColor::ChromaLightness</text>
<text text-anchor="middle" x="313.5" y="-56.5" font-family="Helvetica,sans-Serif" font-size="10.00">Diagram::generateDiagramImage</text>
</a>
</g>
</g>
<!-- Node1&#45;&gt;Node2 -->
<g id="edge1" class="edge">
<title>Node1&#45;&gt;Node2</title>
<path fill="none" stroke="midnightblue" d="M185.11,-49.96C193.62,-50.93 202.27,-51.92 210.86,-52.9"/>
<polygon fill="midnightblue" stroke="midnightblue" points="210.58,-56.39 220.91,-54.04 211.37,-49.43 210.58,-56.39"/>
</g>
<!-- Node6 -->
<g id="node6" class="node">
<title>Node6</title>
<g id="a_node6"><a xlink:href="class_perceptual_color_1_1_full_color_description.html#acdbff4639f8a118f0d13a831a4b57ffe" target="_top" xlink:title=" ">
<polygon fill="white" stroke="black" points="242,-0.5 242,-30.5 385,-30.5 385,-0.5 242,-0.5"/>
<text text-anchor="start" x="250" y="-18.5" font-family="Helvetica,sans-Serif" font-size="10.00">PerceptualColor::FullColor</text>
<text text-anchor="middle" x="313.5" y="-7.5" font-family="Helvetica,sans-Serif" font-size="10.00">Description::toLch</text>
</a>
</g>
</g>
<!-- Node1&#45;&gt;Node6 -->
<g id="edge5" class="edge">
<title>Node1&#45;&gt;Node6</title>
<path fill="none" stroke="midnightblue" d="M185.11,-29.46C200.53,-27.77 216.45,-26.03 231.58,-24.37"/>
<polygon fill="midnightblue" stroke="midnightblue" points="232.36,-27.8 241.92,-23.24 231.59,-20.85 232.36,-27.8"/>
</g>
<!-- Node3 -->
<g id="node3" class="node">
<title>Node3</title>
<g id="a_node3"><a xlink:href="class_perceptual_color_1_1_rgb_color_space.html#ab494c2d0f561c49b8325688a8ddc0095" target="_top" xlink:title="Calculates the RGB value.">
<polygon fill="white" stroke="black" points="444.5,-73.5 444.5,-103.5 588.5,-103.5 588.5,-73.5 444.5,-73.5"/>
<text text-anchor="start" x="452.5" y="-91.5" font-family="Helvetica,sans-Serif" font-size="10.00">PerceptualColor::RgbColor</text>
<text text-anchor="middle" x="516.5" y="-80.5" font-family="Helvetica,sans-Serif" font-size="10.00">Space::colorRgb</text>
</a>
</g>
</g>
<!-- Node2&#45;&gt;Node3 -->
<g id="edge2" class="edge">
<title>Node2&#45;&gt;Node3</title>
<path fill="none" stroke="midnightblue" d="M406.18,-75.45C415.61,-76.57 425.14,-77.71 434.44,-78.82"/>
<polygon fill="midnightblue" stroke="midnightblue" points="434.08,-82.3 444.43,-80.01 434.91,-75.35 434.08,-82.3"/>
</g>
<!-- Node4 -->
<g id="node4" class="node">
<title>Node4</title>
<g id="a_node4"><a xlink:href="class_perceptual_color_1_1_polar_point_f.html#a9eefd08d3a5ad536232292380f958804" target="_top" xlink:title="Normalizes an angle.">
<polygon fill="white" stroke="black" points="442,-24.5 442,-54.5 591,-54.5 591,-24.5 442,-24.5"/>
<text text-anchor="start" x="450" y="-42.5" font-family="Helvetica,sans-Serif" font-size="10.00">PerceptualColor::PolarPoint</text>
<text text-anchor="middle" x="516.5" y="-31.5" font-family="Helvetica,sans-Serif" font-size="10.00">F::normalizedAngleDegree</text>
</a>
</g>
</g>
<!-- Node2&#45;&gt;Node4 -->
<g id="edge3" class="edge">
<title>Node2&#45;&gt;Node4</title>
<path fill="none" stroke="midnightblue" d="M406.18,-53.1C414.64,-52.04 423.19,-50.98 431.58,-49.94"/>
<polygon fill="midnightblue" stroke="midnightblue" points="432.23,-53.38 441.72,-48.68 431.37,-46.44 432.23,-53.38"/>
</g>
<!-- Node5 -->
<g id="node5" class="node">
<title>Node5</title>
<g id="a_node5"><a xlink:href="class_perceptual_color_1_1_polar_point_f.html#a882cd166affc603fc62241dcb3be4fd5" target="_top" xlink:title="Normalized angle.">
<polygon fill="white" stroke="black" points="627,-24.5 627,-54.5 776,-54.5 776,-24.5 627,-24.5"/>
<text text-anchor="start" x="635" y="-42.5" font-family="Helvetica,sans-Serif" font-size="10.00">PerceptualColor::PolarPoint</text>
<text text-anchor="middle" x="701.5" y="-31.5" font-family="Helvetica,sans-Serif" font-size="10.00">F::angleDegree</text>
</a>
</g>
</g>
<!-- Node4&#45;&gt;Node5 -->
<g id="edge4" class="edge">
<title>Node4&#45;&gt;Node5</title>
<path fill="none" stroke="midnightblue" d="M591.14,-39.5C599.47,-39.5 608.01,-39.5 616.46,-39.5"/>
<polygon fill="midnightblue" stroke="midnightblue" points="616.71,-43 626.71,-39.5 616.71,-36 616.71,-43"/>
</g>
</g>
</svg>
