<?xml version="1.0" encoding="UTF-8" standalone="no"?>
<!DOCTYPE svg PUBLIC "-//W3C//DTD SVG 1.1//EN"
 "http://www.w3.org/Graphics/SVG/1.1/DTD/svg11.dtd">
<!-- Generated by graphviz version 2.43.0 (0)
 -->
<!-- Title: PerceptualColor::ChromaHueDiagram::mouseReleaseEvent Pages: 1 -->
<svg width="846pt" height="159pt"
 viewBox="0.00 0.00 846.00 159.00" xmlns="http://www.w3.org/2000/svg" xmlns:xlink="http://www.w3.org/1999/xlink">
<g id="graph0" class="graph" transform="scale(1 1) rotate(0) translate(4 155)">
<title>PerceptualColor::ChromaHueDiagram::mouseReleaseEvent</title>
<polygon fill="white" stroke="transparent" points="-4,4 -4,-155 842,-155 842,4 -4,4"/>
<!-- Node1 -->
<g id="node1" class="node">
<title>Node1</title>
<g id="a_node1"><a xlink:title="React on a mouse release event.">
<polygon fill="#bfbfbf" stroke="black" points="0,-46.5 0,-76.5 164,-76.5 164,-46.5 0,-46.5"/>
<text text-anchor="start" x="8" y="-64.5" font-family="Helvetica,sans-Serif" font-size="10.00">PerceptualColor::ChromaHue</text>
<text text-anchor="middle" x="82" y="-53.5" font-family="Helvetica,sans-Serif" font-size="10.00">Diagram::mouseReleaseEvent</text>
</a>
</g>
</g>
<!-- Node2 -->
<g id="node2" class="node">
<title>Node2</title>
<g id="a_node2"><a xlink:href="class_perceptual_color_1_1_chroma_hue_diagram.html#a65ff87dfbc2ffa5d71b5e58c30d3b39c" target="_top" xlink:title="Sets the color property corresponding to given widget coordinates.">
<polygon fill="white" stroke="black" points="200,-46.5 200,-76.5 419,-76.5 419,-46.5 200,-46.5"/>
<text text-anchor="start" x="208" y="-64.5" font-family="Helvetica,sans-Serif" font-size="10.00">PerceptualColor::ChromaHue</text>
<text text-anchor="middle" x="309.5" y="-53.5" font-family="Helvetica,sans-Serif" font-size="10.00">Diagram::setColorFromImageCoordinates</text>
</a>
</g>
</g>
<!-- Node1&#45;&gt;Node2 -->
<g id="edge1" class="edge">
<title>Node1&#45;&gt;Node2</title>
<path fill="none" stroke="midnightblue" d="M164.09,-61.5C172.44,-61.5 181.04,-61.5 189.69,-61.5"/>
<polygon fill="midnightblue" stroke="midnightblue" points="189.86,-65 199.85,-61.5 189.85,-58 189.86,-65"/>
</g>
<!-- Node3 -->
<g id="node3" class="node">
<title>Node3</title>
<g id="a_node3"><a xlink:href="class_perceptual_color_1_1_chroma_hue_diagram.html#a82bab0738efff92bf357584527f85b65" target="_top" xlink:title=" ">
<polygon fill="white" stroke="black" points="456.5,-120.5 456.5,-150.5 657.5,-150.5 657.5,-120.5 456.5,-120.5"/>
<text text-anchor="start" x="464.5" y="-138.5" font-family="Helvetica,sans-Serif" font-size="10.00">PerceptualColor::ChromaHue</text>
<text text-anchor="middle" x="557" y="-127.5" font-family="Helvetica,sans-Serif" font-size="10.00">Diagram::fromImageCoordinatesToAB</text>
</a>
</g>
</g>
<!-- Node2&#45;&gt;Node3 -->
<g id="edge2" class="edge">
<title>Node2&#45;&gt;Node3</title>
<path fill="none" stroke="midnightblue" d="M350.64,-76.6C379.45,-87.13 419.32,-101.11 455,-111.5 462.69,-113.74 470.75,-115.92 478.83,-118"/>
<polygon fill="midnightblue" stroke="midnightblue" points="478.11,-121.43 488.66,-120.49 479.82,-114.64 478.11,-121.43"/>
</g>
<!-- Node4 -->
<g id="node4" class="node">
<title>Node4</title>
<g id="a_node4"><a xlink:href="class_perceptual_color_1_1_chroma_hue_diagram.html#a3a62b8d0b33df74dacd6150865c57382" target="_top" xlink:title=" ">
<polygon fill="white" stroke="black" points="455,-71.5 455,-101.5 659,-101.5 659,-71.5 455,-71.5"/>
<text text-anchor="start" x="463" y="-89.5" font-family="Helvetica,sans-Serif" font-size="10.00">PerceptualColor::ChromaHue</text>
<text text-anchor="middle" x="557" y="-78.5" font-family="Helvetica,sans-Serif" font-size="10.00">Diagram::imageCoordinatesFromColor</text>
</a>
</g>
</g>
<!-- Node2&#45;&gt;Node4 -->
<g id="edge3" class="edge">
<title>Node2&#45;&gt;Node4</title>
<path fill="none" stroke="midnightblue" d="M419.25,-72.57C427.64,-73.43 436.12,-74.29 444.52,-75.15"/>
<polygon fill="midnightblue" stroke="midnightblue" points="444.43,-78.66 454.73,-76.19 445.14,-71.69 444.43,-78.66"/>
</g>
<!-- Node6 -->
<g id="node6" class="node">
<title>Node6</title>
<g id="a_node6"><a xlink:href="class_perceptual_color_1_1_chroma_hue_diagram.html#a443db20bc2c25119febcd61ca9299d21" target="_top" xlink:title="Setter for the color() property.">
<polygon fill="white" stroke="black" points="478,-22.5 478,-52.5 636,-52.5 636,-22.5 478,-22.5"/>
<text text-anchor="start" x="486" y="-40.5" font-family="Helvetica,sans-Serif" font-size="10.00">PerceptualColor::ChromaHue</text>
<text text-anchor="middle" x="557" y="-29.5" font-family="Helvetica,sans-Serif" font-size="10.00">Diagram::setColor</text>
</a>
</g>
</g>
<!-- Node2&#45;&gt;Node6 -->
<g id="edge5" class="edge">
<title>Node2&#45;&gt;Node6</title>
<path fill="none" stroke="midnightblue" d="M419.25,-50.87C435.45,-49.28 451.99,-47.67 467.7,-46.13"/>
<polygon fill="midnightblue" stroke="midnightblue" points="468.28,-49.59 477.89,-45.14 467.6,-42.63 468.28,-49.59"/>
</g>
<!-- Node7 -->
<g id="node7" class="node">
<title>Node7</title>
<g id="a_node7"><a xlink:href="class_perceptual_color_1_1_full_color_description.html#acdbff4639f8a118f0d13a831a4b57ffe" target="_top" xlink:title=" ">
<polygon fill="white" stroke="black" points="695,-0.5 695,-30.5 838,-30.5 838,-0.5 695,-0.5"/>
<text text-anchor="start" x="703" y="-18.5" font-family="Helvetica,sans-Serif" font-size="10.00">PerceptualColor::FullColor</text>
<text text-anchor="middle" x="766.5" y="-7.5" font-family="Helvetica,sans-Serif" font-size="10.00">Description::toLch</text>
</a>
</g>
</g>
<!-- Node2&#45;&gt;Node7 -->
<g id="edge7" class="edge">
<title>Node2&#45;&gt;Node7</title>
<path fill="none" stroke="midnightblue" d="M344.43,-46.46C373.21,-34.57 415.93,-18.94 455,-12.5 532.22,0.24 621.7,-2.44 684.72,-7.14"/>
<polygon fill="midnightblue" stroke="midnightblue" points="684.74,-10.65 694.99,-7.94 685.29,-3.67 684.74,-10.65"/>
</g>
<!-- Node5 -->
<g id="node5" class="node">
<title>Node5</title>
<g id="a_node5"><a xlink:href="class_perceptual_color_1_1_full_color_description.html#a26e4ea239adaeeb9237e9655b1cab9e5" target="_top" xlink:title=" ">
<polygon fill="white" stroke="black" points="695,-71.5 695,-101.5 838,-101.5 838,-71.5 695,-71.5"/>
<text text-anchor="start" x="703" y="-89.5" font-family="Helvetica,sans-Serif" font-size="10.00">PerceptualColor::FullColor</text>
<text text-anchor="middle" x="766.5" y="-78.5" font-family="Helvetica,sans-Serif" font-size="10.00">Description::toLab</text>
</a>
</g>
</g>
<!-- Node4&#45;&gt;Node5 -->
<g id="edge4" class="edge">
<title>Node4&#45;&gt;Node5</title>
<path fill="none" stroke="midnightblue" d="M659.01,-86.5C667.66,-86.5 676.33,-86.5 684.79,-86.5"/>
<polygon fill="midnightblue" stroke="midnightblue" points="684.98,-90 694.98,-86.5 684.98,-83 684.98,-90"/>
</g>
<!-- Node6&#45;&gt;Node7 -->
<g id="edge6" class="edge">
<title>Node6&#45;&gt;Node7</title>
<path fill="none" stroke="midnightblue" d="M636.15,-29.21C651.98,-27.54 668.66,-25.77 684.59,-24.08"/>
<polygon fill="midnightblue" stroke="midnightblue" points="685.35,-27.52 694.93,-22.98 684.62,-20.56 685.35,-27.52"/>
</g>
</g>
</svg>
