<?xml version="1.0" encoding="UTF-8" standalone="no"?>
<!DOCTYPE svg PUBLIC "-//W3C//DTD SVG 1.1//EN"
 "http://www.w3.org/Graphics/SVG/1.1/DTD/svg11.dtd">
<!-- Generated by graphviz version 2.43.0 (0)
 -->
<!-- Title: PerceptualColor::ColorDialog::ColorDialog Pages: 1 -->
<svg width="1751pt" height="711pt"
 viewBox="0.00 0.00 1751.00 711.21" xmlns="http://www.w3.org/2000/svg" xmlns:xlink="http://www.w3.org/1999/xlink">
<g id="graph0" class="graph" transform="scale(1 1) rotate(0) translate(4 707.21)">
<title>PerceptualColor::ColorDialog::ColorDialog</title>
<polygon fill="white" stroke="transparent" points="-4,4 -4,-707.21 1747,-707.21 1747,4 -4,4"/>
<!-- Node1 -->
<g id="node1" class="node">
<title>Node1</title>
<g id="a_node1"><a xlink:title="Constructor.">
<polygon fill="#bfbfbf" stroke="black" points="0,-258 0,-288 157,-288 157,-258 0,-258"/>
<text text-anchor="start" x="8" y="-276" font-family="Helvetica,sans-Serif" font-size="10.00">PerceptualColor::ColorDialog</text>
<text text-anchor="middle" x="78.5" y="-265" font-family="Helvetica,sans-Serif" font-size="10.00">::ColorDialog</text>
</a>
</g>
</g>
<!-- Node2 -->
<g id="node2" class="node">
<title>Node2</title>
<g id="a_node2"><a xlink:href="class_perceptual_color_1_1_color_dialog.html#ad31fb985e1323cdf1208c91f16fe2a51" target="_top" xlink:title="Basic initialization.">
<polygon fill="white" stroke="black" points="193,-398 193,-428 350,-428 350,-398 193,-398"/>
<text text-anchor="start" x="201" y="-416" font-family="Helvetica,sans-Serif" font-size="10.00">PerceptualColor::ColorDialog</text>
<text text-anchor="middle" x="271.5" y="-405" font-family="Helvetica,sans-Serif" font-size="10.00">::initialize</text>
</a>
</g>
</g>
<!-- Node1&#45;&gt;Node2 -->
<g id="edge1" class="edge">
<title>Node1&#45;&gt;Node2</title>
<path fill="none" stroke="midnightblue" d="M100.3,-288.25C134.55,-313.35 202.87,-363.43 241.73,-391.91"/>
<polygon fill="midnightblue" stroke="midnightblue" points="239.88,-394.9 250.01,-397.98 244.01,-389.25 239.88,-394.9"/>
</g>
<!-- Node31 -->
<g id="node31" class="node">
<title>Node31</title>
<g id="a_node31"><a xlink:href="class_perceptual_color_1_1_color_dialog.html#a64b6c698ebfaf2461c513ebbb7ef2637" target="_top" xlink:title="Setter for currentColor property.">
<polygon fill="white" stroke="black" points="589,-119 589,-149 746,-149 746,-119 589,-119"/>
<text text-anchor="start" x="597" y="-137" font-family="Helvetica,sans-Serif" font-size="10.00">PerceptualColor::ColorDialog</text>
<text text-anchor="middle" x="667.5" y="-126" font-family="Helvetica,sans-Serif" font-size="10.00">::setCurrentColor</text>
</a>
</g>
</g>
<!-- Node1&#45;&gt;Node31 -->
<g id="edge48" class="edge">
<title>Node1&#45;&gt;Node31</title>
<path fill="none" stroke="midnightblue" d="M108.99,-257.92C162.54,-231.34 280.05,-176.74 386,-153 449.45,-138.79 522.81,-134.22 578.6,-133.11"/>
<polygon fill="midnightblue" stroke="midnightblue" points="578.86,-136.61 588.8,-132.94 578.75,-129.61 578.86,-136.61"/>
</g>
<!-- Node3 -->
<g id="node3" class="node">
<title>Node3</title>
<g id="a_node3"><a xlink:href="class_perceptual_color_1_1_color_dialog.html#a64f6d0e30a627458ccb7bbf4a77ad42b" target="_top" xlink:title="React on focus changes.">
<polygon fill="white" stroke="black" points="391,-212 391,-242 548,-242 548,-212 391,-212"/>
<text text-anchor="start" x="399" y="-230" font-family="Helvetica,sans-Serif" font-size="10.00">PerceptualColor::ColorDialog</text>
<text text-anchor="middle" x="469.5" y="-219" font-family="Helvetica,sans-Serif" font-size="10.00">::handleFocusChange</text>
</a>
</g>
</g>
<!-- Node2&#45;&gt;Node3 -->
<g id="edge2" class="edge">
<title>Node2&#45;&gt;Node3</title>
<path fill="none" stroke="midnightblue" d="M279.64,-397.82C294.88,-366.95 333.55,-296.48 386,-257 391.4,-252.94 397.4,-249.38 403.64,-246.28"/>
<polygon fill="midnightblue" stroke="midnightblue" points="405.26,-249.39 412.9,-242.05 402.35,-243.02 405.26,-249.39"/>
</g>
<!-- Node4 -->
<g id="node4" class="node">
<title>Node4</title>
<g id="a_node4"><a xlink:href="class_perceptual_color_1_1_color_dialog.html#adf67594f0cb9416b245d6cf726f18bf4" target="_top" xlink:title="Reads the HLC numbers in the dialog and updates the dialog accordingly.">
<polygon fill="white" stroke="black" points="589,-234 589,-264 746,-264 746,-234 589,-234"/>
<text text-anchor="start" x="597" y="-252" font-family="Helvetica,sans-Serif" font-size="10.00">PerceptualColor::ColorDialog</text>
<text text-anchor="middle" x="667.5" y="-241" font-family="Helvetica,sans-Serif" font-size="10.00">::readHlcNumericValues</text>
</a>
</g>
</g>
<!-- Node2&#45;&gt;Node4 -->
<g id="edge31" class="edge">
<title>Node2&#45;&gt;Node4</title>
<path fill="none" stroke="midnightblue" d="M281.51,-397.83C298.3,-371.04 337.17,-315.76 386,-290 418.62,-272.8 509.19,-261.68 578.68,-255.43"/>
<polygon fill="midnightblue" stroke="midnightblue" points="579.11,-258.9 588.77,-254.54 578.5,-251.93 579.11,-258.9"/>
</g>
<!-- Node5 -->
<g id="node5" class="node">
<title>Node5</title>
<g id="a_node5"><a xlink:href="class_perceptual_color_1_1_color_dialog.html#abd0da334b7034a67a3cc83bc3ed0a425" target="_top" xlink:title="Updates m_currentOpaqueColor and all affected widgets.">
<polygon fill="white" stroke="black" points="787,-283 787,-313 944,-313 944,-283 787,-283"/>
<text text-anchor="start" x="795" y="-301" font-family="Helvetica,sans-Serif" font-size="10.00">PerceptualColor::ColorDialog</text>
<text text-anchor="middle" x="865.5" y="-290" font-family="Helvetica,sans-Serif" font-size="10.00">::setCurrentOpaqueColor</text>
</a>
</g>
</g>
<!-- Node2&#45;&gt;Node5 -->
<g id="edge45" class="edge">
<title>Node2&#45;&gt;Node5</title>
<path fill="none" stroke="midnightblue" d="M329.26,-428.03C347.27,-432.12 367.35,-435.97 386,-438 459.79,-446.03 480.02,-451.51 553,-438 662.35,-417.76 778.67,-352.03 833.06,-318.33"/>
<polygon fill="midnightblue" stroke="midnightblue" points="834.93,-321.29 841.55,-313.01 831.22,-315.35 834.93,-321.29"/>
</g>
<!-- Node8 -->
<g id="node8" class="node">
<title>Node8</title>
<g id="a_node8"><a xlink:href="class_perceptual_color_1_1_gradient_selector.html#aabfd1c82565fb7c491e3bf1735beca11" target="_top" xlink:title=" ">
<polygon fill="white" stroke="black" points="1209.5,-452 1209.5,-482 1351.5,-482 1351.5,-452 1209.5,-452"/>
<text text-anchor="start" x="1217.5" y="-470" font-family="Helvetica,sans-Serif" font-size="10.00">PerceptualColor::Gradient</text>
<text text-anchor="middle" x="1280.5" y="-459" font-family="Helvetica,sans-Serif" font-size="10.00">Selector::setColors</text>
</a>
</g>
</g>
<!-- Node2&#45;&gt;Node8 -->
<g id="edge44" class="edge">
<title>Node2&#45;&gt;Node8</title>
<path fill="none" stroke="midnightblue" d="M306.13,-428.02C328.38,-437.39 358.44,-448.96 386,-456 507.95,-487.16 540.63,-495 666.5,-495 666.5,-495 666.5,-495 866.5,-495 982.4,-495 1116.18,-483.89 1199.31,-475.67"/>
<polygon fill="midnightblue" stroke="midnightblue" points="1199.84,-479.13 1209.45,-474.65 1199.15,-472.17 1199.84,-479.13"/>
</g>
<!-- Node21 -->
<g id="node21" class="node">
<title>Node21</title>
<g id="a_node21"><a xlink:href="class_perceptual_color_1_1_color_dialog.html#a18985e0cf14c64400f1edc5f64da159d" target="_top" xlink:title="Updates the color patch widget.">
<polygon fill="white" stroke="black" points="990,-524 990,-554 1147,-554 1147,-524 990,-524"/>
<text text-anchor="start" x="998" y="-542" font-family="Helvetica,sans-Serif" font-size="10.00">PerceptualColor::ColorDialog</text>
<text text-anchor="middle" x="1068.5" y="-531" font-family="Helvetica,sans-Serif" font-size="10.00">::updateColorPatch</text>
</a>
</g>
</g>
<!-- Node2&#45;&gt;Node21 -->
<g id="edge47" class="edge">
<title>Node2&#45;&gt;Node21</title>
<path fill="none" stroke="midnightblue" d="M274.26,-428.01C280.29,-471.81 304.51,-599.58 386,-651 601.57,-787.03 929.06,-619.91 1033.94,-559.31"/>
<polygon fill="midnightblue" stroke="midnightblue" points="1035.95,-562.19 1042.82,-554.13 1032.42,-556.15 1035.95,-562.19"/>
</g>
<!-- Node23 -->
<g id="node23" class="node">
<title>Node23</title>
<g id="a_node23"><a xlink:href="class_perceptual_color_1_1_color_dialog.html#a9b3605a59f06f199999f466e5ffcaf00" target="_top" xlink:title="Initialize the numeric input widgets of this dialog.">
<polygon fill="white" stroke="black" points="391,-163 391,-193 548,-193 548,-163 391,-163"/>
<text text-anchor="start" x="399" y="-181" font-family="Helvetica,sans-Serif" font-size="10.00">PerceptualColor::ColorDialog</text>
<text text-anchor="middle" x="469.5" y="-170" font-family="Helvetica,sans-Serif" font-size="10.00">::initializeNumericPage</text>
</a>
</g>
</g>
<!-- Node2&#45;&gt;Node23 -->
<g id="edge30" class="edge">
<title>Node2&#45;&gt;Node23</title>
<path fill="none" stroke="midnightblue" d="M276.25,-397.89C286.64,-359.18 319.54,-255.76 386,-202 387.61,-200.7 389.29,-199.47 391.02,-198.31"/>
<polygon fill="midnightblue" stroke="midnightblue" points="393.21,-201.08 400.09,-193.02 389.69,-195.03 393.21,-201.08"/>
</g>
<!-- Node24 -->
<g id="node24" class="node">
<title>Node24</title>
<g id="a_node24"><a xlink:href="class_perceptual_color_1_1_color_dialog.html#ad834c4b1975dd4b226a054497bd1ef47" target="_top" xlink:title="Reads the HSV numbers in the dialog and updates the dialog accordingly.">
<polygon fill="white" stroke="black" points="391,-300 391,-330 548,-330 548,-300 391,-300"/>
<text text-anchor="start" x="399" y="-318" font-family="Helvetica,sans-Serif" font-size="10.00">PerceptualColor::ColorDialog</text>
<text text-anchor="middle" x="469.5" y="-307" font-family="Helvetica,sans-Serif" font-size="10.00">::readHsvNumericValues</text>
</a>
</g>
</g>
<!-- Node2&#45;&gt;Node24 -->
<g id="edge32" class="edge">
<title>Node2&#45;&gt;Node24</title>
<path fill="none" stroke="midnightblue" d="M291.96,-397.74C313.77,-381.26 350.73,-355.2 386,-339 390.27,-337.04 394.73,-335.2 399.28,-333.48"/>
<polygon fill="midnightblue" stroke="midnightblue" points="400.46,-336.78 408.7,-330.12 398.1,-330.19 400.46,-336.78"/>
</g>
<!-- Node26 -->
<g id="node26" class="node">
<title>Node26</title>
<g id="a_node26"><a xlink:href="class_perceptual_color_1_1_color_dialog.html#a2a48f4c33652bc9a1a0cb22fd0a6b221" target="_top" xlink:title="Reads the value from the lightness selector in the dialog and updates the dialog accordingly.">
<polygon fill="white" stroke="black" points="589,-524 589,-554 746,-554 746,-524 589,-524"/>
<text text-anchor="start" x="597" y="-542" font-family="Helvetica,sans-Serif" font-size="10.00">PerceptualColor::ColorDialog</text>
<text text-anchor="middle" x="667.5" y="-531" font-family="Helvetica,sans-Serif" font-size="10.00">::readLightnessValue</text>
</a>
</g>
</g>
<!-- Node2&#45;&gt;Node26 -->
<g id="edge35" class="edge">
<title>Node2&#45;&gt;Node26</title>
<path fill="none" stroke="midnightblue" d="M284.96,-428.16C304.1,-450.25 343.05,-490.63 386,-509 446.85,-535.04 521.62,-541.95 578.66,-542.67"/>
<polygon fill="midnightblue" stroke="midnightblue" points="578.71,-546.17 588.73,-542.73 578.75,-539.17 578.71,-546.17"/>
</g>
<!-- Node27 -->
<g id="node27" class="node">
<title>Node27</title>
<g id="a_node27"><a xlink:href="class_perceptual_color_1_1_color_dialog.html#a4554999f424ac055986478fe8c899ae1" target="_top" xlink:title="Reads the hexadecimal RGB numbers in the dialog and updates the dialog accordingly.">
<polygon fill="white" stroke="black" points="391,-398 391,-428 548,-428 548,-398 391,-398"/>
<text text-anchor="start" x="399" y="-416" font-family="Helvetica,sans-Serif" font-size="10.00">PerceptualColor::ColorDialog</text>
<text text-anchor="middle" x="469.5" y="-405" font-family="Helvetica,sans-Serif" font-size="10.00">::readRgbHexValues</text>
</a>
</g>
</g>
<!-- Node2&#45;&gt;Node27 -->
<g id="edge38" class="edge">
<title>Node2&#45;&gt;Node27</title>
<path fill="none" stroke="midnightblue" d="M350.25,-413C360.27,-413 370.58,-413 380.75,-413"/>
<polygon fill="midnightblue" stroke="midnightblue" points="380.85,-416.5 390.85,-413 380.85,-409.5 380.85,-416.5"/>
</g>
<!-- Node28 -->
<g id="node28" class="node">
<title>Node28</title>
<g id="a_node28"><a xlink:href="class_perceptual_color_1_1_color_dialog.html#a9bb8f87d25714fc283fdda98424030fe" target="_top" xlink:title="Reads the decimal RGB numbers in the dialog and updates the dialog accordingly.">
<polygon fill="white" stroke="black" points="391,-349 391,-379 548,-379 548,-349 391,-349"/>
<text text-anchor="start" x="399" y="-367" font-family="Helvetica,sans-Serif" font-size="10.00">PerceptualColor::ColorDialog</text>
<text text-anchor="middle" x="469.5" y="-356" font-family="Helvetica,sans-Serif" font-size="10.00">::readRgbNumericValues</text>
</a>
</g>
</g>
<!-- Node2&#45;&gt;Node28 -->
<g id="edge41" class="edge">
<title>Node2&#45;&gt;Node28</title>
<path fill="none" stroke="midnightblue" d="M332.64,-397.97C353.52,-392.75 377.11,-386.85 398.71,-381.45"/>
<polygon fill="midnightblue" stroke="midnightblue" points="399.62,-384.83 408.48,-379.01 397.92,-378.04 399.62,-384.83"/>
</g>
<!-- Node29 -->
<g id="node29" class="node">
<title>Node29</title>
<g id="a_node29"><a xlink:href="class_perceptual_color_1_1_alpha_selector.html#a79127e3855f2b95421109925bbae888e" target="_top" xlink:title="Register this widget as buddy.">
<polygon fill="white" stroke="black" points="386,-611 386,-641 553,-641 553,-611 386,-611"/>
<text text-anchor="start" x="394" y="-629" font-family="Helvetica,sans-Serif" font-size="10.00">PerceptualColor::AlphaSelector</text>
<text text-anchor="middle" x="469.5" y="-618" font-family="Helvetica,sans-Serif" font-size="10.00">::registerAsBuddy</text>
</a>
</g>
</g>
<!-- Node2&#45;&gt;Node29 -->
<g id="edge43" class="edge">
<title>Node2&#45;&gt;Node29</title>
<path fill="none" stroke="midnightblue" d="M277.26,-428.12C289.32,-463.97 324.61,-554.69 386,-602 387.82,-603.41 389.73,-604.73 391.7,-605.98"/>
<polygon fill="midnightblue" stroke="midnightblue" points="390.24,-609.17 400.68,-610.96 393.63,-603.05 390.24,-609.17"/>
</g>
<!-- Node30 -->
<g id="node30" class="node">
<title>Node30</title>
<g id="a_node30"><a xlink:href="class_perceptual_color_1_1_color_dialog.html#adbc5f4f261b5378aab627c85f344136d" target="_top" xlink:title="Setter for options.">
<polygon fill="white" stroke="black" points="391,-562 391,-592 548,-592 548,-562 391,-562"/>
<text text-anchor="start" x="399" y="-580" font-family="Helvetica,sans-Serif" font-size="10.00">PerceptualColor::ColorDialog</text>
<text text-anchor="middle" x="469.5" y="-569" font-family="Helvetica,sans-Serif" font-size="10.00">::setOptions</text>
</a>
</g>
</g>
<!-- Node2&#45;&gt;Node30 -->
<g id="edge46" class="edge">
<title>Node2&#45;&gt;Node30</title>
<path fill="none" stroke="midnightblue" d="M281.49,-428.1C298.56,-455.51 338.22,-513.72 386,-547 391.93,-551.14 398.5,-554.77 405.26,-557.94"/>
<polygon fill="midnightblue" stroke="midnightblue" points="404,-561.21 414.56,-561.99 406.79,-554.79 404,-561.21"/>
</g>
<!-- Node3&#45;&gt;Node4 -->
<g id="edge3" class="edge">
<title>Node3&#45;&gt;Node4</title>
<path fill="none" stroke="midnightblue" d="M548.25,-235.73C558.27,-236.85 568.58,-238.01 578.75,-239.15"/>
<polygon fill="midnightblue" stroke="midnightblue" points="578.52,-242.65 588.85,-240.29 579.3,-235.69 578.52,-242.65"/>
</g>
<!-- Node17 -->
<g id="node17" class="node">
<title>Node17</title>
<g id="a_node17"><a xlink:href="class_perceptual_color_1_1_color_dialog.html#a38134a3e22f2b3df4602a08025ec1d52" target="_top" xlink:title="Get text for m_hlcLineEdit based on m_currentOpaqueColor.">
<polygon fill="white" stroke="black" points="990,-76 990,-106 1147,-106 1147,-76 990,-76"/>
<text text-anchor="start" x="998" y="-94" font-family="Helvetica,sans-Serif" font-size="10.00">PerceptualColor::ColorDialog</text>
<text text-anchor="middle" x="1068.5" y="-83" font-family="Helvetica,sans-Serif" font-size="10.00">::textForHlcLineEdit</text>
</a>
</g>
</g>
<!-- Node3&#45;&gt;Node17 -->
<g id="edge29" class="edge">
<title>Node3&#45;&gt;Node17</title>
<path fill="none" stroke="midnightblue" d="M548.19,-222.52C665.64,-214.64 881.83,-195.44 949,-158 970.77,-145.87 964.13,-128.63 985,-115 987.46,-113.4 990.03,-111.9 992.67,-110.49"/>
<polygon fill="midnightblue" stroke="midnightblue" points="994.4,-113.55 1001.93,-106.1 991.4,-107.23 994.4,-113.55"/>
</g>
<!-- Node4&#45;&gt;Node5 -->
<g id="edge4" class="edge">
<title>Node4&#45;&gt;Node5</title>
<path fill="none" stroke="midnightblue" d="M728.64,-264.04C749.52,-269.26 773.11,-275.16 794.71,-280.56"/>
<polygon fill="midnightblue" stroke="midnightblue" points="793.92,-283.97 804.48,-283 795.62,-277.18 793.92,-283.97"/>
</g>
<!-- Node4&#45;&gt;Node17 -->
<g id="edge28" class="edge">
<title>Node4&#45;&gt;Node17</title>
<path fill="none" stroke="midnightblue" d="M746.26,-255.65C807.62,-256.71 892.06,-248.35 949,-203 982.06,-176.68 953.59,-143.27 985,-115 986.3,-113.84 987.65,-112.73 989.04,-111.67"/>
<polygon fill="midnightblue" stroke="midnightblue" points="991,-114.57 997.48,-106.19 987.19,-108.7 991,-114.57"/>
</g>
<!-- Node6 -->
<g id="node6" class="node">
<title>Node6</title>
<g id="a_node6"><a xlink:href="class_perceptual_color_1_1_full_color_description.html#a45a4e34ce415f9fc71f3fe4847c89068" target="_top" xlink:title=" ">
<polygon fill="white" stroke="black" points="997,-338 997,-368 1140,-368 1140,-338 997,-338"/>
<text text-anchor="start" x="1005" y="-356" font-family="Helvetica,sans-Serif" font-size="10.00">PerceptualColor::FullColor</text>
<text text-anchor="middle" x="1068.5" y="-345" font-family="Helvetica,sans-Serif" font-size="10.00">Description::isValid</text>
</a>
</g>
</g>
<!-- Node5&#45;&gt;Node6 -->
<g id="edge5" class="edge">
<title>Node5&#45;&gt;Node6</title>
<path fill="none" stroke="midnightblue" d="M921.42,-313.03C946.57,-319.91 976.55,-328.12 1002.79,-335.3"/>
<polygon fill="midnightblue" stroke="midnightblue" points="1002.07,-338.73 1012.64,-337.99 1003.92,-331.98 1002.07,-338.73"/>
</g>
<!-- Node7 -->
<g id="node7" class="node">
<title>Node7</title>
<g id="a_node7"><a xlink:href="class_perceptual_color_1_1_alpha_selector.html#ac9faa6bbf68757f843e4cce92d697067" target="_top" xlink:title=" ">
<polygon fill="white" stroke="black" points="985,-289 985,-319 1152,-319 1152,-289 985,-289"/>
<text text-anchor="start" x="993" y="-307" font-family="Helvetica,sans-Serif" font-size="10.00">PerceptualColor::AlphaSelector</text>
<text text-anchor="middle" x="1068.5" y="-296" font-family="Helvetica,sans-Serif" font-size="10.00">::setColor</text>
</a>
</g>
</g>
<!-- Node5&#45;&gt;Node7 -->
<g id="edge6" class="edge">
<title>Node5&#45;&gt;Node7</title>
<path fill="none" stroke="midnightblue" d="M944.21,-300.32C954.15,-300.62 964.41,-300.93 974.56,-301.23"/>
<polygon fill="midnightblue" stroke="midnightblue" points="974.57,-304.73 984.67,-301.53 974.78,-297.73 974.57,-304.73"/>
</g>
<!-- Node9 -->
<g id="node9" class="node">
<title>Node9</title>
<g id="a_node9"><a xlink:href="class_perceptual_color_1_1_full_color_description.html#acdbff4639f8a118f0d13a831a4b57ffe" target="_top" xlink:title=" ">
<polygon fill="white" stroke="black" points="1412,-174 1412,-204 1555,-204 1555,-174 1412,-174"/>
<text text-anchor="start" x="1420" y="-192" font-family="Helvetica,sans-Serif" font-size="10.00">PerceptualColor::FullColor</text>
<text text-anchor="middle" x="1483.5" y="-181" font-family="Helvetica,sans-Serif" font-size="10.00">Description::toLch</text>
</a>
</g>
</g>
<!-- Node5&#45;&gt;Node9 -->
<g id="edge22" class="edge">
<title>Node5&#45;&gt;Node9</title>
<path fill="none" stroke="midnightblue" d="M909.66,-282.97C931.92,-275.7 959.66,-267.41 985,-262 1154.99,-225.72 1201.71,-242.53 1373,-213 1384.54,-211.01 1396.7,-208.64 1408.55,-206.16"/>
<polygon fill="midnightblue" stroke="midnightblue" points="1409.37,-209.56 1418.42,-204.06 1407.91,-202.72 1409.37,-209.56"/>
</g>
<!-- Node10 -->
<g id="node10" class="node">
<title>Node10</title>
<g id="a_node10"><a xlink:href="class_perceptual_color_1_1_chroma_hue_diagram.html#a443db20bc2c25119febcd61ca9299d21" target="_top" xlink:title="Setter for the color() property.">
<polygon fill="white" stroke="black" points="1201.5,-174 1201.5,-204 1359.5,-204 1359.5,-174 1201.5,-174"/>
<text text-anchor="start" x="1209.5" y="-192" font-family="Helvetica,sans-Serif" font-size="10.00">PerceptualColor::ChromaHue</text>
<text text-anchor="middle" x="1280.5" y="-181" font-family="Helvetica,sans-Serif" font-size="10.00">Diagram::setColor</text>
</a>
</g>
</g>
<!-- Node5&#45;&gt;Node10 -->
<g id="edge9" class="edge">
<title>Node5&#45;&gt;Node10</title>
<path fill="none" stroke="midnightblue" d="M894.04,-282.98C910.66,-273.36 931.86,-260.08 949,-246 966.98,-231.24 963.94,-217.88 985,-208 1049.24,-177.88 1130.16,-174.79 1190.92,-178.3"/>
<polygon fill="midnightblue" stroke="midnightblue" points="1191.05,-181.81 1201.25,-178.97 1191.5,-174.83 1191.05,-181.81"/>
</g>
<!-- Node11 -->
<g id="node11" class="node">
<title>Node11</title>
<g id="a_node11"><a xlink:href="class_perceptual_color_1_1_wheel_color_picker.html#a5f3a58bb672323221c98c2285404bf76" target="_top" xlink:title="Setter for currentColorRgb() property.">
<polygon fill="white" stroke="black" points="990.5,-125 990.5,-155 1146.5,-155 1146.5,-125 990.5,-125"/>
<text text-anchor="start" x="998.5" y="-143" font-family="Helvetica,sans-Serif" font-size="10.00">PerceptualColor::WheelColor</text>
<text text-anchor="middle" x="1068.5" y="-132" font-family="Helvetica,sans-Serif" font-size="10.00">Picker::setCurrentColor</text>
</a>
</g>
</g>
<!-- Node5&#45;&gt;Node11 -->
<g id="edge11" class="edge">
<title>Node5&#45;&gt;Node11</title>
<path fill="none" stroke="midnightblue" d="M899.38,-282.88C915.92,-273.99 935.3,-261.46 949,-246 973.8,-218.04 957.36,-195.17 985,-170 989.33,-166.06 994.22,-162.62 999.41,-159.63"/>
<polygon fill="midnightblue" stroke="midnightblue" points="1001.08,-162.7 1008.36,-155.01 997.87,-156.49 1001.08,-162.7"/>
</g>
<!-- Node16 -->
<g id="node16" class="node">
<title>Node16</title>
<g id="a_node16"><a xlink:href="class_perceptual_color_1_1_gradient_selector.html#a1548390b891333547c1dee97573be568" target="_top" xlink:title=" ">
<polygon fill="white" stroke="black" points="997.5,-27 997.5,-57 1139.5,-57 1139.5,-27 997.5,-27"/>
<text text-anchor="start" x="1005.5" y="-45" font-family="Helvetica,sans-Serif" font-size="10.00">PerceptualColor::Gradient</text>
<text text-anchor="middle" x="1068.5" y="-34" font-family="Helvetica,sans-Serif" font-size="10.00">Selector::setFraction</text>
</a>
</g>
</g>
<!-- Node5&#45;&gt;Node16 -->
<g id="edge18" class="edge">
<title>Node5&#45;&gt;Node16</title>
<path fill="none" stroke="midnightblue" d="M876.48,-282.91C892.9,-257.71 926.05,-205.19 949,-158 968.21,-118.52 952.59,-95.62 985,-66 986.29,-64.83 987.63,-63.71 989.02,-62.64"/>
<polygon fill="midnightblue" stroke="midnightblue" points="990.98,-65.54 997.43,-57.13 987.14,-59.69 990.98,-65.54"/>
</g>
<!-- Node5&#45;&gt;Node17 -->
<g id="edge19" class="edge">
<title>Node5&#45;&gt;Node17</title>
<path fill="none" stroke="midnightblue" d="M902.2,-282.95C918.64,-274.35 937.1,-262.05 949,-246 984.98,-197.51 942.62,-158.02 985,-115 985.94,-114.05 986.92,-113.13 987.93,-112.25"/>
<polygon fill="midnightblue" stroke="midnightblue" points="990.24,-114.89 996.24,-106.16 986.1,-109.25 990.24,-114.89"/>
</g>
<!-- Node18 -->
<g id="node18" class="node">
<title>Node18</title>
<g id="a_node18"><a xlink:href="class_perceptual_color_1_1_full_color_description.html#aaa17133c6e1d040b2f088e79a42d3283" target="_top" xlink:title=" ">
<polygon fill="white" stroke="black" points="997,-387 997,-417 1140,-417 1140,-387 997,-387"/>
<text text-anchor="start" x="1005" y="-405" font-family="Helvetica,sans-Serif" font-size="10.00">PerceptualColor::FullColor</text>
<text text-anchor="middle" x="1068.5" y="-394" font-family="Helvetica,sans-Serif" font-size="10.00">Description::toHsvQColor</text>
</a>
</g>
</g>
<!-- Node5&#45;&gt;Node18 -->
<g id="edge21" class="edge">
<title>Node5&#45;&gt;Node18</title>
<path fill="none" stroke="midnightblue" d="M885.56,-313.3C908.14,-330.79 947.44,-359.27 985,-377 989.91,-379.32 995.08,-381.48 1000.34,-383.49"/>
<polygon fill="midnightblue" stroke="midnightblue" points="999.28,-386.82 1009.87,-386.92 1001.65,-380.24 999.28,-386.82"/>
</g>
<!-- Node19 -->
<g id="node19" class="node">
<title>Node19</title>
<g id="a_node19"><a xlink:href="class_perceptual_color_1_1_full_color_description.html#a572e2abe28e31c6315732d30f06b1732" target="_top" xlink:title="A string with a hexadecimal representation of the color.">
<polygon fill="white" stroke="black" points="991,-436 991,-466 1146,-466 1146,-436 991,-436"/>
<text text-anchor="start" x="999" y="-454" font-family="Helvetica,sans-Serif" font-size="10.00">PerceptualColor::FullColor</text>
<text text-anchor="middle" x="1068.5" y="-443" font-family="Helvetica,sans-Serif" font-size="10.00">Description::toRgbHexString</text>
</a>
</g>
</g>
<!-- Node5&#45;&gt;Node19 -->
<g id="edge23" class="edge">
<title>Node5&#45;&gt;Node19</title>
<path fill="none" stroke="midnightblue" d="M876.28,-313.23C894.41,-340.23 935.91,-396.53 985,-427 987.64,-428.64 990.4,-430.17 993.23,-431.6"/>
<polygon fill="midnightblue" stroke="midnightblue" points="991.97,-434.87 1002.52,-435.83 994.87,-428.5 991.97,-434.87"/>
</g>
<!-- Node20 -->
<g id="node20" class="node">
<title>Node20</title>
<g id="a_node20"><a xlink:href="class_perceptual_color_1_1_full_color_description.html#aad1d9cc70b7a9ae81c829c391334d768" target="_top" xlink:title=" ">
<polygon fill="white" stroke="black" points="1209,-357 1209,-387 1352,-387 1352,-357 1209,-357"/>
<text text-anchor="start" x="1217" y="-375" font-family="Helvetica,sans-Serif" font-size="10.00">PerceptualColor::FullColor</text>
<text text-anchor="middle" x="1280.5" y="-364" font-family="Helvetica,sans-Serif" font-size="10.00">Description::toRgbQColor</text>
</a>
</g>
</g>
<!-- Node5&#45;&gt;Node20 -->
<g id="edge24" class="edge">
<title>Node5&#45;&gt;Node20</title>
<path fill="none" stroke="midnightblue" d="M919.27,-282.94C977.7,-268.88 1073.95,-253.56 1152,-279 1194.36,-292.81 1234.35,-326.6 1257.89,-349.42"/>
<polygon fill="midnightblue" stroke="midnightblue" points="1255.66,-352.13 1265.22,-356.69 1260.59,-347.16 1255.66,-352.13"/>
</g>
<!-- Node5&#45;&gt;Node21 -->
<g id="edge25" class="edge">
<title>Node5&#45;&gt;Node21</title>
<path fill="none" stroke="midnightblue" d="M874.25,-313.01C891.34,-345.22 934.73,-422.37 985,-476 999.77,-491.76 1018.78,-506.57 1034.83,-517.86"/>
<polygon fill="midnightblue" stroke="midnightblue" points="1033.18,-520.97 1043.4,-523.76 1037.15,-515.21 1033.18,-520.97"/>
</g>
<!-- Node7&#45;&gt;Node8 -->
<g id="edge7" class="edge">
<title>Node7&#45;&gt;Node8</title>
<path fill="none" stroke="midnightblue" d="M1138.36,-319.17C1143.23,-321.68 1147.85,-324.6 1152,-328 1178.75,-349.93 1165.73,-370.53 1188,-397 1204.34,-416.43 1226.96,-433.8 1245.63,-446.37"/>
<polygon fill="midnightblue" stroke="midnightblue" points="1243.88,-449.41 1254.15,-451.98 1247.72,-443.56 1243.88,-449.41"/>
</g>
<!-- Node7&#45;&gt;Node9 -->
<g id="edge8" class="edge">
<title>Node7&#45;&gt;Node9</title>
<path fill="none" stroke="midnightblue" d="M1152.07,-295.32C1214.11,-287.18 1300.5,-272.35 1373,-247 1400.36,-237.44 1429.26,-221.87 1450.49,-209.27"/>
<polygon fill="midnightblue" stroke="midnightblue" points="1452.34,-212.24 1459.1,-204.08 1448.73,-206.25 1452.34,-212.24"/>
</g>
<!-- Node10&#45;&gt;Node9 -->
<g id="edge10" class="edge">
<title>Node10&#45;&gt;Node9</title>
<path fill="none" stroke="midnightblue" d="M1359.79,-189C1373.62,-189 1388.05,-189 1401.95,-189"/>
<polygon fill="midnightblue" stroke="midnightblue" points="1401.96,-192.5 1411.96,-189 1401.96,-185.5 1401.96,-192.5"/>
</g>
<!-- Node11&#45;&gt;Node9 -->
<g id="edge17" class="edge">
<title>Node11&#45;&gt;Node9</title>
<path fill="none" stroke="midnightblue" d="M1118.53,-124.95C1179.56,-108.7 1286.3,-88.46 1373,-115 1406.12,-125.14 1438.26,-149.06 1459.05,-166.97"/>
<polygon fill="midnightblue" stroke="midnightblue" points="1456.9,-169.74 1466.71,-173.75 1461.54,-164.5 1456.9,-169.74"/>
</g>
<!-- Node12 -->
<g id="node12" class="node">
<title>Node12</title>
<g id="a_node12"><a xlink:href="class_perceptual_color_1_1_chroma_lightness_diagram.html#a27d7c972e420480674da1a0fae0b10b3" target="_top" xlink:title="Setter for the color() property.">
<polygon fill="white" stroke="black" points="1188,-125 1188,-155 1373,-155 1373,-125 1188,-125"/>
<text text-anchor="start" x="1196" y="-143" font-family="Helvetica,sans-Serif" font-size="10.00">PerceptualColor::ChromaLightness</text>
<text text-anchor="middle" x="1280.5" y="-132" font-family="Helvetica,sans-Serif" font-size="10.00">Diagram::setColor</text>
</a>
</g>
</g>
<!-- Node11&#45;&gt;Node12 -->
<g id="edge12" class="edge">
<title>Node11&#45;&gt;Node12</title>
<path fill="none" stroke="midnightblue" d="M1146.5,-140C1156.71,-140 1167.29,-140 1177.82,-140"/>
<polygon fill="midnightblue" stroke="midnightblue" points="1177.9,-143.5 1187.9,-140 1177.9,-136.5 1177.9,-143.5"/>
</g>
<!-- Node13 -->
<g id="node13" class="node">
<title>Node13</title>
<g id="a_node13"><a xlink:href="class_perceptual_color_1_1_simple_color_wheel.html#aa9eec6e96f6069be6d983d1c854644d1" target="_top" xlink:title=" ">
<polygon fill="white" stroke="black" points="1201,-37 1201,-67 1360,-67 1360,-37 1201,-37"/>
<text text-anchor="start" x="1209" y="-55" font-family="Helvetica,sans-Serif" font-size="10.00">PerceptualColor::SimpleColor</text>
<text text-anchor="middle" x="1280.5" y="-44" font-family="Helvetica,sans-Serif" font-size="10.00">Wheel::setHue</text>
</a>
</g>
</g>
<!-- Node11&#45;&gt;Node13 -->
<g id="edge14" class="edge">
<title>Node11&#45;&gt;Node13</title>
<path fill="none" stroke="midnightblue" d="M1130.73,-124.86C1138.11,-122.05 1145.37,-118.78 1152,-115 1170.86,-104.25 1169.27,-92.96 1188,-82 1195.26,-77.76 1203.2,-74.02 1211.27,-70.76"/>
<polygon fill="midnightblue" stroke="midnightblue" points="1212.68,-73.97 1220.78,-67.14 1210.19,-67.42 1212.68,-73.97"/>
</g>
<!-- Node12&#45;&gt;Node9 -->
<g id="edge13" class="edge">
<title>Node12&#45;&gt;Node9</title>
<path fill="none" stroke="midnightblue" d="M1343.17,-155.04C1364.59,-160.26 1388.78,-166.16 1410.93,-171.56"/>
<polygon fill="midnightblue" stroke="midnightblue" points="1410.4,-175.03 1420.94,-174 1412.06,-168.23 1410.4,-175.03"/>
</g>
<!-- Node14 -->
<g id="node14" class="node">
<title>Node14</title>
<g id="a_node14"><a xlink:href="class_perceptual_color_1_1_polar_point_f.html#a9eefd08d3a5ad536232292380f958804" target="_top" xlink:title="Normalizes an angle.">
<polygon fill="white" stroke="black" points="1409,-37 1409,-67 1558,-67 1558,-37 1409,-37"/>
<text text-anchor="start" x="1417" y="-55" font-family="Helvetica,sans-Serif" font-size="10.00">PerceptualColor::PolarPoint</text>
<text text-anchor="middle" x="1483.5" y="-44" font-family="Helvetica,sans-Serif" font-size="10.00">F::normalizedAngleDegree</text>
</a>
</g>
</g>
<!-- Node13&#45;&gt;Node14 -->
<g id="edge15" class="edge">
<title>Node13&#45;&gt;Node14</title>
<path fill="none" stroke="midnightblue" d="M1360.08,-52C1372.76,-52 1385.93,-52 1398.74,-52"/>
<polygon fill="midnightblue" stroke="midnightblue" points="1398.91,-55.5 1408.91,-52 1398.91,-48.5 1398.91,-55.5"/>
</g>
<!-- Node15 -->
<g id="node15" class="node">
<title>Node15</title>
<g id="a_node15"><a xlink:href="class_perceptual_color_1_1_polar_point_f.html#a882cd166affc603fc62241dcb3be4fd5" target="_top" xlink:title="Normalized angle.">
<polygon fill="white" stroke="black" points="1594,-37 1594,-67 1743,-67 1743,-37 1594,-37"/>
<text text-anchor="start" x="1602" y="-55" font-family="Helvetica,sans-Serif" font-size="10.00">PerceptualColor::PolarPoint</text>
<text text-anchor="middle" x="1668.5" y="-44" font-family="Helvetica,sans-Serif" font-size="10.00">F::angleDegree</text>
</a>
</g>
</g>
<!-- Node14&#45;&gt;Node15 -->
<g id="edge16" class="edge">
<title>Node14&#45;&gt;Node15</title>
<path fill="none" stroke="midnightblue" d="M1558.14,-52C1566.47,-52 1575.01,-52 1583.46,-52"/>
<polygon fill="midnightblue" stroke="midnightblue" points="1583.71,-55.5 1593.71,-52 1583.71,-48.5 1583.71,-55.5"/>
</g>
<!-- Node17&#45;&gt;Node9 -->
<g id="edge20" class="edge">
<title>Node17&#45;&gt;Node9</title>
<path fill="none" stroke="midnightblue" d="M1132.33,-75.87C1139.21,-73.08 1145.91,-69.82 1152,-66 1171.99,-53.48 1166.39,-36.46 1188,-27 1263.32,5.97 1300.38,11.56 1373,-27 1380.24,-30.85 1438.95,-121.21 1467.3,-165.27"/>
<polygon fill="midnightblue" stroke="midnightblue" points="1464.5,-167.4 1472.85,-173.92 1470.39,-163.62 1464.5,-167.4"/>
</g>
<!-- Node21&#45;&gt;Node20 -->
<g id="edge27" class="edge">
<title>Node21&#45;&gt;Node20</title>
<path fill="none" stroke="midnightblue" d="M1090.24,-523.97C1107.17,-511.51 1131.55,-493.13 1152,-476 1168.64,-462.07 1171.41,-457 1188,-443 1208.47,-425.73 1232.41,-407.21 1250.67,-393.42"/>
<polygon fill="midnightblue" stroke="midnightblue" points="1253.24,-395.86 1259.13,-387.05 1249.04,-390.26 1253.24,-395.86"/>
</g>
<!-- Node22 -->
<g id="node22" class="node">
<title>Node22</title>
<g id="a_node22"><a xlink:href="class_perceptual_color_1_1_color_patch.html#ada8693cd4a8e51eb2debd3c0192a7458" target="_top" xlink:title="Set the color property.">
<polygon fill="white" stroke="black" points="1204.5,-524 1204.5,-554 1356.5,-554 1356.5,-524 1204.5,-524"/>
<text text-anchor="start" x="1212.5" y="-542" font-family="Helvetica,sans-Serif" font-size="10.00">PerceptualColor::ColorPatch</text>
<text text-anchor="middle" x="1280.5" y="-531" font-family="Helvetica,sans-Serif" font-size="10.00">::setColor</text>
</a>
</g>
</g>
<!-- Node21&#45;&gt;Node22 -->
<g id="edge26" class="edge">
<title>Node21&#45;&gt;Node22</title>
<path fill="none" stroke="midnightblue" d="M1147.1,-539C1162.43,-539 1178.61,-539 1194.18,-539"/>
<polygon fill="midnightblue" stroke="midnightblue" points="1194.32,-542.5 1204.32,-539 1194.32,-535.5 1194.32,-542.5"/>
</g>
<!-- Node25 -->
<g id="node25" class="node">
<title>Node25</title>
<g id="a_node25"><a xlink:href="class_perceptual_color_1_1_color_dialog.html#acf0e7b1b619cee3fc7f5a992e2c93e7d" target="_top" xlink:title="Convenience version of setCurrentOpaqueColor(), accepting QColor.">
<polygon fill="white" stroke="black" points="589,-325 589,-355 746,-355 746,-325 589,-325"/>
<text text-anchor="start" x="597" y="-343" font-family="Helvetica,sans-Serif" font-size="10.00">PerceptualColor::ColorDialog</text>
<text text-anchor="middle" x="667.5" y="-332" font-family="Helvetica,sans-Serif" font-size="10.00">::setCurrentOpaqueQColor</text>
</a>
</g>
</g>
<!-- Node24&#45;&gt;Node25 -->
<g id="edge33" class="edge">
<title>Node24&#45;&gt;Node25</title>
<path fill="none" stroke="midnightblue" d="M548.25,-324.92C558.27,-326.2 568.58,-327.51 578.75,-328.81"/>
<polygon fill="midnightblue" stroke="midnightblue" points="578.49,-332.31 588.85,-330.1 579.37,-325.36 578.49,-332.31"/>
</g>
<!-- Node25&#45;&gt;Node5 -->
<g id="edge34" class="edge">
<title>Node25&#45;&gt;Node5</title>
<path fill="none" stroke="midnightblue" d="M738.71,-324.96C753.57,-321.77 769.37,-318.39 784.57,-315.13"/>
<polygon fill="midnightblue" stroke="midnightblue" points="785.41,-318.53 794.45,-313.01 783.94,-311.69 785.41,-318.53"/>
</g>
<!-- Node26&#45;&gt;Node5 -->
<g id="edge36" class="edge">
<title>Node26&#45;&gt;Node5</title>
<path fill="none" stroke="midnightblue" d="M688.52,-523.75C704.95,-510.72 728.3,-490.96 746,-471 789.28,-422.21 830.02,-356.98 850.58,-322.22"/>
<polygon fill="midnightblue" stroke="midnightblue" points="853.79,-323.66 855.83,-313.26 847.75,-320.12 853.79,-323.66"/>
</g>
<!-- Node26&#45;&gt;Node9 -->
<g id="edge37" class="edge">
<title>Node26&#45;&gt;Node9</title>
<path fill="none" stroke="midnightblue" d="M703.8,-554.12C815.23,-599.23 1164.43,-720.38 1373,-564 1430.54,-520.86 1467.89,-291.85 1479.02,-214.53"/>
<polygon fill="midnightblue" stroke="midnightblue" points="1482.53,-214.65 1480.47,-204.26 1475.6,-213.67 1482.53,-214.65"/>
</g>
<!-- Node27&#45;&gt;Node19 -->
<g id="edge40" class="edge">
<title>Node27&#45;&gt;Node19</title>
<path fill="none" stroke="midnightblue" d="M548.24,-417.95C659.66,-425.04 864.13,-438.06 980.47,-445.46"/>
<polygon fill="midnightblue" stroke="midnightblue" points="980.56,-448.98 990.76,-446.12 981.01,-441.99 980.56,-448.98"/>
</g>
<!-- Node27&#45;&gt;Node25 -->
<g id="edge39" class="edge">
<title>Node27&#45;&gt;Node25</title>
<path fill="none" stroke="midnightblue" d="M523.15,-397.96C533.12,-394.85 543.43,-391.47 553,-388 576.9,-379.36 603.06,-368.4 624.24,-359.13"/>
<polygon fill="midnightblue" stroke="midnightblue" points="625.85,-362.25 633.59,-355.01 623.03,-355.84 625.85,-362.25"/>
</g>
<!-- Node28&#45;&gt;Node25 -->
<g id="edge42" class="edge">
<title>Node28&#45;&gt;Node25</title>
<path fill="none" stroke="midnightblue" d="M548.25,-354.48C558.27,-353.26 568.58,-351.99 578.75,-350.75"/>
<polygon fill="midnightblue" stroke="midnightblue" points="579.35,-354.2 588.85,-349.51 578.5,-347.25 579.35,-354.2"/>
</g>
<!-- Node31&#45;&gt;Node5 -->
<g id="edge51" class="edge">
<title>Node31&#45;&gt;Node5</title>
<path fill="none" stroke="midnightblue" d="M686.59,-149.14C721.52,-178.37 798.37,-242.67 838.67,-276.39"/>
<polygon fill="midnightblue" stroke="midnightblue" points="836.54,-279.17 846.46,-282.91 841.03,-273.8 836.54,-279.17"/>
</g>
<!-- Node32 -->
<g id="node32" class="node">
<title>Node32</title>
<g id="a_node32"><a xlink:href="class_perceptual_color_1_1_alpha_selector.html#a1f85608426b1828b131c058fa108fff7" target="_top" xlink:title=" ">
<polygon fill="white" stroke="black" points="782,-49 782,-79 949,-79 949,-49 782,-49"/>
<text text-anchor="start" x="790" y="-67" font-family="Helvetica,sans-Serif" font-size="10.00">PerceptualColor::AlphaSelector</text>
<text text-anchor="middle" x="865.5" y="-56" font-family="Helvetica,sans-Serif" font-size="10.00">::setAlpha</text>
</a>
</g>
</g>
<!-- Node31&#45;&gt;Node32 -->
<g id="edge49" class="edge">
<title>Node31&#45;&gt;Node32</title>
<path fill="none" stroke="midnightblue" d="M710.55,-118.99C740.41,-108.32 780.71,-93.93 812.58,-82.54"/>
<polygon fill="midnightblue" stroke="midnightblue" points="813.94,-85.78 822.18,-79.12 811.59,-79.18 813.94,-85.78"/>
</g>
<!-- Node33 -->
<g id="node33" class="node">
<title>Node33</title>
<g id="a_node33"><a xlink:href="class_perceptual_color_1_1_color_dialog.html#a089b98a6748380428f2d77411168e930" target="_top" xlink:title="Getter for options.">
<polygon fill="white" stroke="black" points="787,-119 787,-149 944,-149 944,-119 787,-119"/>
<text text-anchor="start" x="795" y="-137" font-family="Helvetica,sans-Serif" font-size="10.00">PerceptualColor::ColorDialog</text>
<text text-anchor="middle" x="865.5" y="-126" font-family="Helvetica,sans-Serif" font-size="10.00">::testOption</text>
</a>
</g>
</g>
<!-- Node31&#45;&gt;Node33 -->
<g id="edge52" class="edge">
<title>Node31&#45;&gt;Node33</title>
<path fill="none" stroke="midnightblue" d="M746.25,-134C756.27,-134 766.58,-134 776.75,-134"/>
<polygon fill="midnightblue" stroke="midnightblue" points="776.85,-137.5 786.85,-134 776.85,-130.5 776.85,-137.5"/>
</g>
<!-- Node32&#45;&gt;Node16 -->
<g id="edge50" class="edge">
<title>Node32&#45;&gt;Node16</title>
<path fill="none" stroke="midnightblue" d="M949.12,-54.96C961.77,-53.58 974.8,-52.15 987.39,-50.77"/>
<polygon fill="midnightblue" stroke="midnightblue" points="987.82,-54.25 997.38,-49.68 987.06,-47.29 987.82,-54.25"/>
</g>
</g>
</svg>
