<?xml version="1.0" encoding="UTF-8" standalone="no"?>
<!DOCTYPE svg PUBLIC "-//W3C//DTD SVG 1.1//EN"
 "http://www.w3.org/Graphics/SVG/1.1/DTD/svg11.dtd">
<!-- Generated by graphviz version 2.43.0 (0)
 -->
<!-- Title: PerceptualColor::AlphaSelector::setAlpha Pages: 1 -->
<svg width="613pt" height="159pt"
 viewBox="0.00 0.00 613.00 159.00" xmlns="http://www.w3.org/2000/svg" xmlns:xlink="http://www.w3.org/1999/xlink">
<g id="graph0" class="graph" transform="scale(1 1) rotate(0) translate(4 155)">
<title>PerceptualColor::AlphaSelector::setAlpha</title>
<polygon fill="white" stroke="transparent" points="-4,4 -4,-155 609,-155 609,4 -4,4"/>
<!-- Node1 -->
<g id="node1" class="node">
<title>Node1</title>
<g id="a_node1"><a xlink:title=" ">
<polygon fill="#bfbfbf" stroke="black" points="438,-87.5 438,-117.5 605,-117.5 605,-87.5 438,-87.5"/>
<text text-anchor="start" x="446" y="-105.5" font-family="Helvetica,sans-Serif" font-size="10.00">PerceptualColor::AlphaSelector</text>
<text text-anchor="middle" x="521.5" y="-94.5" font-family="Helvetica,sans-Serif" font-size="10.00">::setAlpha</text>
</a>
</g>
</g>
<!-- Node2 -->
<g id="node2" class="node">
<title>Node2</title>
<g id="a_node2"><a xlink:href="class_perceptual_color_1_1_alpha_selector.html#a3054b783bd88068bbf6caa4553dc4649" target="_top" xlink:title=" ">
<polygon fill="white" stroke="black" points="0,-120.5 0,-150.5 167,-150.5 167,-120.5 0,-120.5"/>
<text text-anchor="start" x="8" y="-138.5" font-family="Helvetica,sans-Serif" font-size="10.00">PerceptualColor::AlphaSelector</text>
<text text-anchor="middle" x="83.5" y="-127.5" font-family="Helvetica,sans-Serif" font-size="10.00">::AlphaSelector</text>
</a>
</g>
</g>
<!-- Node1&#45;&gt;Node2 -->
<g id="edge1" class="edge">
<title>Node1&#45;&gt;Node2</title>
<path fill="none" stroke="midnightblue" d="M449.56,-119.67C433.98,-122.82 417.5,-125.68 402,-127.5 322.59,-136.8 231.28,-138.13 167.02,-137.54"/>
<polygon fill="midnightblue" stroke="midnightblue" points="450.58,-123.03 459.65,-117.56 449.15,-116.18 450.58,-123.03"/>
</g>
<!-- Node3 -->
<g id="node3" class="node">
<title>Node3</title>
<g id="a_node3"><a xlink:href="class_perceptual_color_1_1_alpha_selector.html#a5d4081da5f351f6c98a2ffda568f434e" target="_top" xlink:title=" ">
<polygon fill="white" stroke="black" points="203,-87.5 203,-117.5 402,-117.5 402,-87.5 203,-87.5"/>
<text text-anchor="start" x="211" y="-105.5" font-family="Helvetica,sans-Serif" font-size="10.00">PerceptualColor::AlphaSelector</text>
<text text-anchor="middle" x="302.5" y="-94.5" font-family="Helvetica,sans-Serif" font-size="10.00">::setAlphaFromRepresentationFormat</text>
</a>
</g>
</g>
<!-- Node1&#45;&gt;Node3 -->
<g id="edge2" class="edge">
<title>Node1&#45;&gt;Node3</title>
<path fill="none" stroke="midnightblue" d="M427.68,-102.5C419.28,-102.5 410.75,-102.5 402.31,-102.5"/>
<polygon fill="midnightblue" stroke="midnightblue" points="427.84,-106 437.84,-102.5 427.84,-99 427.84,-106"/>
</g>
<!-- Node4 -->
<g id="node4" class="node">
<title>Node4</title>
<g id="a_node4"><a xlink:href="class_perceptual_color_1_1_color_dialog.html#a64b6c698ebfaf2461c513ebbb7ef2637" target="_top" xlink:title="Setter for currentColor property.">
<polygon fill="white" stroke="black" points="224,-38.5 224,-68.5 381,-68.5 381,-38.5 224,-38.5"/>
<text text-anchor="start" x="232" y="-56.5" font-family="Helvetica,sans-Serif" font-size="10.00">PerceptualColor::ColorDialog</text>
<text text-anchor="middle" x="302.5" y="-45.5" font-family="Helvetica,sans-Serif" font-size="10.00">::setCurrentColor</text>
</a>
</g>
</g>
<!-- Node1&#45;&gt;Node4 -->
<g id="edge4" class="edge">
<title>Node1&#45;&gt;Node4</title>
<path fill="none" stroke="midnightblue" d="M444.07,-85.24C419.89,-79.78 393.38,-73.79 369.96,-68.51"/>
<polygon fill="midnightblue" stroke="midnightblue" points="443.39,-88.68 453.92,-87.47 444.93,-81.85 443.39,-88.68"/>
</g>
<!-- Node3&#45;&gt;Node2 -->
<g id="edge3" class="edge">
<title>Node3&#45;&gt;Node2</title>
<path fill="none" stroke="midnightblue" d="M192.71,-119.04C184.07,-120.36 175.43,-121.67 167.01,-122.95"/>
<polygon fill="midnightblue" stroke="midnightblue" points="193.48,-122.47 202.84,-117.5 192.43,-115.55 193.48,-122.47"/>
</g>
<!-- Node5 -->
<g id="node5" class="node">
<title>Node5</title>
<g id="a_node5"><a xlink:href="class_perceptual_color_1_1_color_dialog.html#a3c1ad1040ede00087aa11fab1514a6e7" target="_top" xlink:title="Constructor.">
<polygon fill="white" stroke="black" points="5,-49.5 5,-79.5 162,-79.5 162,-49.5 5,-49.5"/>
<text text-anchor="start" x="13" y="-67.5" font-family="Helvetica,sans-Serif" font-size="10.00">PerceptualColor::ColorDialog</text>
<text text-anchor="middle" x="83.5" y="-56.5" font-family="Helvetica,sans-Serif" font-size="10.00">::ColorDialog</text>
</a>
</g>
</g>
<!-- Node4&#45;&gt;Node5 -->
<g id="edge5" class="edge">
<title>Node4&#45;&gt;Node5</title>
<path fill="none" stroke="midnightblue" d="M213.3,-57.97C196.33,-58.83 178.66,-59.73 162.05,-60.57"/>
<polygon fill="midnightblue" stroke="midnightblue" points="213.96,-61.44 223.77,-57.44 213.61,-54.45 213.96,-61.44"/>
</g>
<!-- Node6 -->
<g id="node6" class="node">
<title>Node6</title>
<g id="a_node6"><a xlink:href="class_perceptual_color_1_1_color_dialog.html#a08677555088721a366cc839a90b5eea2" target="_top" xlink:title="Pops up a modal color dialog, lets the user choose a color, and returns that color.">
<polygon fill="white" stroke="black" points="5,-0.5 5,-30.5 162,-30.5 162,-0.5 5,-0.5"/>
<text text-anchor="start" x="13" y="-18.5" font-family="Helvetica,sans-Serif" font-size="10.00">PerceptualColor::ColorDialog</text>
<text text-anchor="middle" x="83.5" y="-7.5" font-family="Helvetica,sans-Serif" font-size="10.00">::getColor</text>
</a>
</g>
</g>
<!-- Node4&#45;&gt;Node6 -->
<g id="edge6" class="edge">
<title>Node4&#45;&gt;Node6</title>
<path fill="none" stroke="midnightblue" d="M213.78,-38.14C196.66,-35.14 178.82,-32.02 162.05,-29.08"/>
<polygon fill="midnightblue" stroke="midnightblue" points="213.32,-41.61 223.77,-39.89 214.52,-34.72 213.32,-41.61"/>
</g>
</g>
</svg>
