<?xml version="1.0" encoding="UTF-8" standalone="no"?>
<!DOCTYPE svg PUBLIC "-//W3C//DTD SVG 1.1//EN"
 "http://www.w3.org/Graphics/SVG/1.1/DTD/svg11.dtd">
<!-- Generated by graphviz version 2.43.0 (0)
 -->
<!-- Title: PerceptualColor::ChromaLightnessDiagram::imageCoordinatesInGamut Pages: 1 -->
<svg width="425pt" height="137pt"
 viewBox="0.00 0.00 425.00 137.00" xmlns="http://www.w3.org/2000/svg" xmlns:xlink="http://www.w3.org/1999/xlink">
<g id="graph0" class="graph" transform="scale(1 1) rotate(0) translate(4 133)">
<title>PerceptualColor::ChromaLightnessDiagram::imageCoordinatesInGamut</title>
<polygon fill="white" stroke="transparent" points="-4,4 -4,-133 421,-133 421,4 -4,4"/>
<!-- Node1 -->
<g id="node1" class="node">
<title>Node1</title>
<g id="a_node1"><a xlink:title="Tests if image coordinates are in gamut.">
<polygon fill="#bfbfbf" stroke="black" points="221,-49.5 221,-79.5 417,-79.5 417,-49.5 221,-49.5"/>
<text text-anchor="start" x="229" y="-67.5" font-family="Helvetica,sans-Serif" font-size="10.00">PerceptualColor::ChromaLightness</text>
<text text-anchor="middle" x="319" y="-56.5" font-family="Helvetica,sans-Serif" font-size="10.00">Diagram::imageCoordinatesInGamut</text>
</a>
</g>
</g>
<!-- Node2 -->
<g id="node2" class="node">
<title>Node2</title>
<g id="a_node2"><a xlink:href="class_perceptual_color_1_1_chroma_lightness_diagram.html#abd23775803f181201fefbdcc08378ab8" target="_top" xlink:title="React on key press events.">
<polygon fill="white" stroke="black" points="0,-98.5 0,-128.5 185,-128.5 185,-98.5 0,-98.5"/>
<text text-anchor="start" x="8" y="-116.5" font-family="Helvetica,sans-Serif" font-size="10.00">PerceptualColor::ChromaLightness</text>
<text text-anchor="middle" x="92.5" y="-105.5" font-family="Helvetica,sans-Serif" font-size="10.00">Diagram::keyPressEvent</text>
</a>
</g>
</g>
<!-- Node1&#45;&gt;Node2 -->
<g id="edge1" class="edge">
<title>Node1&#45;&gt;Node2</title>
<path fill="none" stroke="midnightblue" d="M239.26,-81.69C214.16,-87.16 186.59,-93.18 162.25,-98.49"/>
<polygon fill="midnightblue" stroke="midnightblue" points="240.09,-85.09 249.12,-79.53 238.6,-78.25 240.09,-85.09"/>
</g>
<!-- Node3 -->
<g id="node3" class="node">
<title>Node3</title>
<g id="a_node3"><a xlink:href="class_perceptual_color_1_1_chroma_lightness_diagram.html#a1697a065cdb13e6a5b8af378673c77f3" target="_top" xlink:title="React on a mouse move event.">
<polygon fill="white" stroke="black" points="0,-49.5 0,-79.5 185,-79.5 185,-49.5 0,-49.5"/>
<text text-anchor="start" x="8" y="-67.5" font-family="Helvetica,sans-Serif" font-size="10.00">PerceptualColor::ChromaLightness</text>
<text text-anchor="middle" x="92.5" y="-56.5" font-family="Helvetica,sans-Serif" font-size="10.00">Diagram::mouseMoveEvent</text>
</a>
</g>
</g>
<!-- Node1&#45;&gt;Node3 -->
<g id="edge2" class="edge">
<title>Node1&#45;&gt;Node3</title>
<path fill="none" stroke="midnightblue" d="M210.8,-64.5C202.22,-64.5 193.6,-64.5 185.14,-64.5"/>
<polygon fill="midnightblue" stroke="midnightblue" points="210.84,-68 220.84,-64.5 210.84,-61 210.84,-68"/>
</g>
<!-- Node4 -->
<g id="node4" class="node">
<title>Node4</title>
<g id="a_node4"><a xlink:href="class_perceptual_color_1_1_chroma_lightness_diagram.html#aa0aa6d31cefd3b9dfbfe9acfcac18e3d" target="_top" xlink:title="React on a mouse press event.">
<polygon fill="white" stroke="black" points="0,-0.5 0,-30.5 185,-30.5 185,-0.5 0,-0.5"/>
<text text-anchor="start" x="8" y="-18.5" font-family="Helvetica,sans-Serif" font-size="10.00">PerceptualColor::ChromaLightness</text>
<text text-anchor="middle" x="92.5" y="-7.5" font-family="Helvetica,sans-Serif" font-size="10.00">Diagram::mousePressEvent</text>
</a>
</g>
</g>
<!-- Node1&#45;&gt;Node4 -->
<g id="edge3" class="edge">
<title>Node1&#45;&gt;Node4</title>
<path fill="none" stroke="midnightblue" d="M239.26,-47.31C214.16,-41.84 186.59,-35.82 162.25,-30.51"/>
<polygon fill="midnightblue" stroke="midnightblue" points="238.6,-50.75 249.12,-49.47 240.09,-43.91 238.6,-50.75"/>
</g>
</g>
</svg>
