<?xml version="1.0" encoding="UTF-8" standalone="no"?>
<!DOCTYPE svg PUBLIC "-//W3C//DTD SVG 1.1//EN"
 "http://www.w3.org/Graphics/SVG/1.1/DTD/svg11.dtd">
<!-- Generated by graphviz version 2.43.0 (0)
 -->
<!-- Title: PerceptualColor::ColorDialog::readRgbHexValues Pages: 1 -->
<svg width="1345pt" height="586pt"
 viewBox="0.00 0.00 1345.00 586.00" xmlns="http://www.w3.org/2000/svg" xmlns:xlink="http://www.w3.org/1999/xlink">
<g id="graph0" class="graph" transform="scale(1 1) rotate(0) translate(4 582)">
<title>PerceptualColor::ColorDialog::readRgbHexValues</title>
<polygon fill="white" stroke="transparent" points="-4,4 -4,-582 1341,-582 1341,4 -4,4"/>
<!-- Node1 -->
<g id="node1" class="node">
<title>Node1</title>
<g id="a_node1"><a xlink:title="Reads the hexadecimal RGB numbers in the dialog and updates the dialog accordingly.">
<polygon fill="#bfbfbf" stroke="black" points="0,-109.5 0,-139.5 157,-139.5 157,-109.5 0,-109.5"/>
<text text-anchor="start" x="8" y="-127.5" font-family="Helvetica,sans-Serif" font-size="10.00">PerceptualColor::ColorDialog</text>
<text text-anchor="middle" x="78.5" y="-116.5" font-family="Helvetica,sans-Serif" font-size="10.00">::readRgbHexValues</text>
</a>
</g>
</g>
<!-- Node2 -->
<g id="node2" class="node">
<title>Node2</title>
<g id="a_node2"><a xlink:href="class_perceptual_color_1_1_color_dialog.html#acf0e7b1b619cee3fc7f5a992e2c93e7d" target="_top" xlink:title="Convenience version of setCurrentOpaqueColor(), accepting QColor.">
<polygon fill="white" stroke="black" points="193,-131.5 193,-161.5 350,-161.5 350,-131.5 193,-131.5"/>
<text text-anchor="start" x="201" y="-149.5" font-family="Helvetica,sans-Serif" font-size="10.00">PerceptualColor::ColorDialog</text>
<text text-anchor="middle" x="271.5" y="-138.5" font-family="Helvetica,sans-Serif" font-size="10.00">::setCurrentOpaqueQColor</text>
</a>
</g>
</g>
<!-- Node1&#45;&gt;Node2 -->
<g id="edge1" class="edge">
<title>Node1&#45;&gt;Node2</title>
<path fill="none" stroke="midnightblue" d="M157.19,-133.45C165.65,-134.42 174.31,-135.42 182.88,-136.41"/>
<polygon fill="midnightblue" stroke="midnightblue" points="182.55,-139.89 192.88,-137.56 183.35,-132.94 182.55,-139.89"/>
</g>
<!-- Node17 -->
<g id="node17" class="node">
<title>Node17</title>
<g id="a_node17"><a xlink:href="class_perceptual_color_1_1_full_color_description.html#a572e2abe28e31c6315732d30f06b1732" target="_top" xlink:title="A string with a hexadecimal representation of the color.">
<polygon fill="white" stroke="black" points="585,-0.5 585,-30.5 740,-30.5 740,-0.5 585,-0.5"/>
<text text-anchor="start" x="593" y="-18.5" font-family="Helvetica,sans-Serif" font-size="10.00">PerceptualColor::FullColor</text>
<text text-anchor="middle" x="662.5" y="-7.5" font-family="Helvetica,sans-Serif" font-size="10.00">Description::toRgbHexString</text>
</a>
</g>
</g>
<!-- Node1&#45;&gt;Node17 -->
<g id="edge26" class="edge">
<title>Node1&#45;&gt;Node17</title>
<path fill="none" stroke="midnightblue" d="M157.09,-109.97C265.53,-89.66 461.82,-52.9 574.9,-31.72"/>
<polygon fill="midnightblue" stroke="midnightblue" points="575.73,-35.13 584.91,-29.84 574.44,-28.24 575.73,-35.13"/>
</g>
<!-- Node3 -->
<g id="node3" class="node">
<title>Node3</title>
<g id="a_node3"><a xlink:href="class_perceptual_color_1_1_color_dialog.html#abd0da334b7034a67a3cc83bc3ed0a425" target="_top" xlink:title="Updates m_currentOpaqueColor and all affected widgets.">
<polygon fill="white" stroke="black" points="386,-199.5 386,-229.5 543,-229.5 543,-199.5 386,-199.5"/>
<text text-anchor="start" x="394" y="-217.5" font-family="Helvetica,sans-Serif" font-size="10.00">PerceptualColor::ColorDialog</text>
<text text-anchor="middle" x="464.5" y="-206.5" font-family="Helvetica,sans-Serif" font-size="10.00">::setCurrentOpaqueColor</text>
</a>
</g>
</g>
<!-- Node2&#45;&gt;Node3 -->
<g id="edge2" class="edge">
<title>Node2&#45;&gt;Node3</title>
<path fill="none" stroke="midnightblue" d="M314.89,-161.59C343.45,-171.76 381.3,-185.24 411.66,-196.04"/>
<polygon fill="midnightblue" stroke="midnightblue" points="410.63,-199.39 421.23,-199.45 412.98,-192.8 410.63,-199.39"/>
</g>
<!-- Node4 -->
<g id="node4" class="node">
<title>Node4</title>
<g id="a_node4"><a xlink:href="class_perceptual_color_1_1_full_color_description.html#a45a4e34ce415f9fc71f3fe4847c89068" target="_top" xlink:title=" ">
<polygon fill="white" stroke="black" points="591,-349.5 591,-379.5 734,-379.5 734,-349.5 591,-349.5"/>
<text text-anchor="start" x="599" y="-367.5" font-family="Helvetica,sans-Serif" font-size="10.00">PerceptualColor::FullColor</text>
<text text-anchor="middle" x="662.5" y="-356.5" font-family="Helvetica,sans-Serif" font-size="10.00">Description::isValid</text>
</a>
</g>
</g>
<!-- Node3&#45;&gt;Node4 -->
<g id="edge3" class="edge">
<title>Node3&#45;&gt;Node4</title>
<path fill="none" stroke="midnightblue" d="M475.07,-229.8C492.46,-256.34 531.86,-310.93 579,-340.5 581.63,-342.15 584.38,-343.69 587.21,-345.13"/>
<polygon fill="midnightblue" stroke="midnightblue" points="585.94,-348.4 596.49,-349.38 588.85,-342.03 585.94,-348.4"/>
</g>
<!-- Node5 -->
<g id="node5" class="node">
<title>Node5</title>
<g id="a_node5"><a xlink:href="class_perceptual_color_1_1_alpha_selector.html#ac9faa6bbf68757f843e4cce92d697067" target="_top" xlink:title=" ">
<polygon fill="white" stroke="black" points="579,-503.5 579,-533.5 746,-533.5 746,-503.5 579,-503.5"/>
<text text-anchor="start" x="587" y="-521.5" font-family="Helvetica,sans-Serif" font-size="10.00">PerceptualColor::AlphaSelector</text>
<text text-anchor="middle" x="662.5" y="-510.5" font-family="Helvetica,sans-Serif" font-size="10.00">::setColor</text>
</a>
</g>
</g>
<!-- Node3&#45;&gt;Node5 -->
<g id="edge4" class="edge">
<title>Node3&#45;&gt;Node5</title>
<path fill="none" stroke="midnightblue" d="M470.65,-229.59C484.24,-268.04 523.83,-371.78 579,-444.5 594.19,-464.52 615.36,-483.38 632.45,-497.05"/>
<polygon fill="midnightblue" stroke="midnightblue" points="630.44,-499.91 640.47,-503.32 634.75,-494.4 630.44,-499.91"/>
</g>
<!-- Node7 -->
<g id="node7" class="node">
<title>Node7</title>
<g id="a_node7"><a xlink:href="class_perceptual_color_1_1_full_color_description.html#acdbff4639f8a118f0d13a831a4b57ffe" target="_top" xlink:title=" ">
<polygon fill="white" stroke="black" points="1006,-295.5 1006,-325.5 1149,-325.5 1149,-295.5 1006,-295.5"/>
<text text-anchor="start" x="1014" y="-313.5" font-family="Helvetica,sans-Serif" font-size="10.00">PerceptualColor::FullColor</text>
<text text-anchor="middle" x="1077.5" y="-302.5" font-family="Helvetica,sans-Serif" font-size="10.00">Description::toLch</text>
</a>
</g>
</g>
<!-- Node3&#45;&gt;Node7 -->
<g id="edge20" class="edge">
<title>Node3&#45;&gt;Node7</title>
<path fill="none" stroke="midnightblue" d="M543.42,-207.88C664.52,-198.7 891.83,-186.21 967,-214.5 1005.52,-229 1039.33,-263.88 1058.85,-287.36"/>
<polygon fill="midnightblue" stroke="midnightblue" points="1056.13,-289.56 1065.14,-295.14 1061.57,-285.16 1056.13,-289.56"/>
</g>
<!-- Node8 -->
<g id="node8" class="node">
<title>Node8</title>
<g id="a_node8"><a xlink:href="class_perceptual_color_1_1_chroma_hue_diagram.html#a443db20bc2c25119febcd61ca9299d21" target="_top" xlink:title="Setter for the color() property.">
<polygon fill="white" stroke="black" points="795.5,-136.5 795.5,-166.5 953.5,-166.5 953.5,-136.5 795.5,-136.5"/>
<text text-anchor="start" x="803.5" y="-154.5" font-family="Helvetica,sans-Serif" font-size="10.00">PerceptualColor::ChromaHue</text>
<text text-anchor="middle" x="874.5" y="-143.5" font-family="Helvetica,sans-Serif" font-size="10.00">Diagram::setColor</text>
</a>
</g>
</g>
<!-- Node3&#45;&gt;Node8 -->
<g id="edge7" class="edge">
<title>Node3&#45;&gt;Node8</title>
<path fill="none" stroke="midnightblue" d="M510.33,-199.43C531.02,-193 556.04,-185.97 579,-181.5 647.67,-168.13 726.58,-160.5 785.42,-156.28"/>
<polygon fill="midnightblue" stroke="midnightblue" points="785.7,-159.77 795.43,-155.58 785.21,-152.79 785.7,-159.77"/>
</g>
<!-- Node9 -->
<g id="node9" class="node">
<title>Node9</title>
<g id="a_node9"><a xlink:href="class_perceptual_color_1_1_wheel_color_picker.html#a5f3a58bb672323221c98c2285404bf76" target="_top" xlink:title="Setter for currentColorRgb() property.">
<polygon fill="white" stroke="black" points="584.5,-404.5 584.5,-434.5 740.5,-434.5 740.5,-404.5 584.5,-404.5"/>
<text text-anchor="start" x="592.5" y="-422.5" font-family="Helvetica,sans-Serif" font-size="10.00">PerceptualColor::WheelColor</text>
<text text-anchor="middle" x="662.5" y="-411.5" font-family="Helvetica,sans-Serif" font-size="10.00">Picker::setCurrentColor</text>
</a>
</g>
</g>
<!-- Node3&#45;&gt;Node9 -->
<g id="edge9" class="edge">
<title>Node3&#45;&gt;Node9</title>
<path fill="none" stroke="midnightblue" d="M471.38,-229.74C485.12,-263.37 522.47,-344.52 579,-389.5 584.01,-393.49 589.59,-396.97 595.43,-400.01"/>
<polygon fill="midnightblue" stroke="midnightblue" points="594.23,-403.32 604.77,-404.44 597.23,-396.99 594.23,-403.32"/>
</g>
<!-- Node14 -->
<g id="node14" class="node">
<title>Node14</title>
<g id="a_node14"><a xlink:href="class_perceptual_color_1_1_gradient_selector.html#a1548390b891333547c1dee97573be568" target="_top" xlink:title=" ">
<polygon fill="white" stroke="black" points="591.5,-98.5 591.5,-128.5 733.5,-128.5 733.5,-98.5 591.5,-98.5"/>
<text text-anchor="start" x="599.5" y="-116.5" font-family="Helvetica,sans-Serif" font-size="10.00">PerceptualColor::Gradient</text>
<text text-anchor="middle" x="662.5" y="-105.5" font-family="Helvetica,sans-Serif" font-size="10.00">Selector::setFraction</text>
</a>
</g>
</g>
<!-- Node3&#45;&gt;Node14 -->
<g id="edge16" class="edge">
<title>Node3&#45;&gt;Node14</title>
<path fill="none" stroke="midnightblue" d="M486.48,-199.49C508.7,-184.06 545.16,-160.01 579,-143.5 587.25,-139.48 596.18,-135.69 605.02,-132.24"/>
<polygon fill="midnightblue" stroke="midnightblue" points="606.42,-135.45 614.54,-128.64 603.95,-128.9 606.42,-135.45"/>
</g>
<!-- Node15 -->
<g id="node15" class="node">
<title>Node15</title>
<g id="a_node15"><a xlink:href="class_perceptual_color_1_1_color_dialog.html#a38134a3e22f2b3df4602a08025ec1d52" target="_top" xlink:title="Get text for m_hlcLineEdit based on m_currentOpaqueColor.">
<polygon fill="white" stroke="black" points="796,-224.5 796,-254.5 953,-254.5 953,-224.5 796,-224.5"/>
<text text-anchor="start" x="804" y="-242.5" font-family="Helvetica,sans-Serif" font-size="10.00">PerceptualColor::ColorDialog</text>
<text text-anchor="middle" x="874.5" y="-231.5" font-family="Helvetica,sans-Serif" font-size="10.00">::textForHlcLineEdit</text>
</a>
</g>
</g>
<!-- Node3&#45;&gt;Node15 -->
<g id="edge17" class="edge">
<title>Node3&#45;&gt;Node15</title>
<path fill="none" stroke="midnightblue" d="M543.2,-219.26C612.29,-223.49 713.23,-229.68 785.32,-234.1"/>
<polygon fill="midnightblue" stroke="midnightblue" points="785.55,-237.62 795.74,-234.74 785.97,-230.63 785.55,-237.62"/>
</g>
<!-- Node16 -->
<g id="node16" class="node">
<title>Node16</title>
<g id="a_node16"><a xlink:href="class_perceptual_color_1_1_full_color_description.html#aaa17133c6e1d040b2f088e79a42d3283" target="_top" xlink:title=" ">
<polygon fill="white" stroke="black" points="591,-49.5 591,-79.5 734,-79.5 734,-49.5 591,-49.5"/>
<text text-anchor="start" x="599" y="-67.5" font-family="Helvetica,sans-Serif" font-size="10.00">PerceptualColor::FullColor</text>
<text text-anchor="middle" x="662.5" y="-56.5" font-family="Helvetica,sans-Serif" font-size="10.00">Description::toHsvQColor</text>
</a>
</g>
</g>
<!-- Node3&#45;&gt;Node16 -->
<g id="edge19" class="edge">
<title>Node3&#45;&gt;Node16</title>
<path fill="none" stroke="midnightblue" d="M475.07,-199.2C492.46,-172.66 531.86,-118.07 579,-88.5 581.63,-86.85 584.38,-85.31 587.21,-83.87"/>
<polygon fill="midnightblue" stroke="midnightblue" points="588.85,-86.97 596.49,-79.62 585.94,-80.6 588.85,-86.97"/>
</g>
<!-- Node3&#45;&gt;Node17 -->
<g id="edge21" class="edge">
<title>Node3&#45;&gt;Node17</title>
<path fill="none" stroke="midnightblue" d="M479.3,-199.37C495.81,-180.8 523.62,-147.87 543,-116.5 562.85,-84.36 550.31,-64.08 579,-39.5 580.36,-38.33 581.78,-37.22 583.24,-36.17"/>
<polygon fill="midnightblue" stroke="midnightblue" points="585.42,-38.93 592.07,-30.68 581.73,-32.99 585.42,-38.93"/>
</g>
<!-- Node18 -->
<g id="node18" class="node">
<title>Node18</title>
<g id="a_node18"><a xlink:href="class_perceptual_color_1_1_full_color_description.html#aad1d9cc70b7a9ae81c829c391334d768" target="_top" xlink:title=" ">
<polygon fill="white" stroke="black" points="803,-273.5 803,-303.5 946,-303.5 946,-273.5 803,-273.5"/>
<text text-anchor="start" x="811" y="-291.5" font-family="Helvetica,sans-Serif" font-size="10.00">PerceptualColor::FullColor</text>
<text text-anchor="middle" x="874.5" y="-280.5" font-family="Helvetica,sans-Serif" font-size="10.00">Description::toRgbQColor</text>
</a>
</g>
</g>
<!-- Node3&#45;&gt;Node18 -->
<g id="edge22" class="edge">
<title>Node3&#45;&gt;Node18</title>
<path fill="none" stroke="midnightblue" d="M525.1,-229.57C542.43,-233.71 561.42,-238.01 579,-241.5 650.89,-255.77 733.33,-268.63 792.66,-277.27"/>
<polygon fill="midnightblue" stroke="midnightblue" points="792.32,-280.76 802.72,-278.73 793.33,-273.83 792.32,-280.76"/>
</g>
<!-- Node19 -->
<g id="node19" class="node">
<title>Node19</title>
<g id="a_node19"><a xlink:href="class_perceptual_color_1_1_color_dialog.html#a18985e0cf14c64400f1edc5f64da159d" target="_top" xlink:title="Updates the color patch widget.">
<polygon fill="white" stroke="black" points="584,-300.5 584,-330.5 741,-330.5 741,-300.5 584,-300.5"/>
<text text-anchor="start" x="592" y="-318.5" font-family="Helvetica,sans-Serif" font-size="10.00">PerceptualColor::ColorDialog</text>
<text text-anchor="middle" x="662.5" y="-307.5" font-family="Helvetica,sans-Serif" font-size="10.00">::updateColorPatch</text>
</a>
</g>
</g>
<!-- Node3&#45;&gt;Node19 -->
<g id="edge23" class="edge">
<title>Node3&#45;&gt;Node19</title>
<path fill="none" stroke="midnightblue" d="M486.48,-229.51C508.7,-244.94 545.16,-268.99 579,-285.5 587.25,-289.52 596.18,-293.31 605.02,-296.76"/>
<polygon fill="midnightblue" stroke="midnightblue" points="603.95,-300.1 614.54,-300.36 606.42,-293.55 603.95,-300.1"/>
</g>
<!-- Node6 -->
<g id="node6" class="node">
<title>Node6</title>
<g id="a_node6"><a xlink:href="class_perceptual_color_1_1_gradient_selector.html#aabfd1c82565fb7c491e3bf1735beca11" target="_top" xlink:title=" ">
<polygon fill="white" stroke="black" points="803.5,-547.5 803.5,-577.5 945.5,-577.5 945.5,-547.5 803.5,-547.5"/>
<text text-anchor="start" x="811.5" y="-565.5" font-family="Helvetica,sans-Serif" font-size="10.00">PerceptualColor::Gradient</text>
<text text-anchor="middle" x="874.5" y="-554.5" font-family="Helvetica,sans-Serif" font-size="10.00">Selector::setColors</text>
</a>
</g>
</g>
<!-- Node5&#45;&gt;Node6 -->
<g id="edge5" class="edge">
<title>Node5&#45;&gt;Node6</title>
<path fill="none" stroke="midnightblue" d="M735.18,-533.52C753.9,-537.44 774.2,-541.69 793.32,-545.7"/>
<polygon fill="midnightblue" stroke="midnightblue" points="792.7,-549.15 803.21,-547.77 794.14,-542.3 792.7,-549.15"/>
</g>
<!-- Node5&#45;&gt;Node7 -->
<g id="edge6" class="edge">
<title>Node5&#45;&gt;Node7</title>
<path fill="none" stroke="midnightblue" d="M746.15,-533.35C811.04,-540.54 901.12,-540.27 967,-499.5 982.87,-489.68 1039.09,-383.18 1064.22,-334.52"/>
<polygon fill="midnightblue" stroke="midnightblue" points="1067.34,-336.09 1068.8,-325.6 1061.12,-332.89 1067.34,-336.09"/>
</g>
<!-- Node8&#45;&gt;Node7 -->
<g id="edge8" class="edge">
<title>Node8&#45;&gt;Node7</title>
<path fill="none" stroke="midnightblue" d="M937.24,-166.56C947.64,-170.52 957.98,-175.44 967,-181.5 1008.8,-209.6 1043.72,-257.92 1062.23,-286.77"/>
<polygon fill="midnightblue" stroke="midnightblue" points="1059.37,-288.8 1067.65,-295.41 1065.3,-285.08 1059.37,-288.8"/>
</g>
<!-- Node9&#45;&gt;Node7 -->
<g id="edge15" class="edge">
<title>Node9&#45;&gt;Node7</title>
<path fill="none" stroke="midnightblue" d="M740.56,-407.35C816.16,-395.01 925.9,-375.87 967,-362.5 992.63,-354.16 1020.01,-341.16 1040.99,-330.24"/>
<polygon fill="midnightblue" stroke="midnightblue" points="1042.65,-333.32 1049.85,-325.55 1039.37,-327.13 1042.65,-333.32"/>
</g>
<!-- Node10 -->
<g id="node10" class="node">
<title>Node10</title>
<g id="a_node10"><a xlink:href="class_perceptual_color_1_1_chroma_lightness_diagram.html#a27d7c972e420480674da1a0fae0b10b3" target="_top" xlink:title="Setter for the color() property.">
<polygon fill="white" stroke="black" points="782,-410.5 782,-440.5 967,-440.5 967,-410.5 782,-410.5"/>
<text text-anchor="start" x="790" y="-428.5" font-family="Helvetica,sans-Serif" font-size="10.00">PerceptualColor::ChromaLightness</text>
<text text-anchor="middle" x="874.5" y="-417.5" font-family="Helvetica,sans-Serif" font-size="10.00">Diagram::setColor</text>
</a>
</g>
</g>
<!-- Node9&#45;&gt;Node10 -->
<g id="edge10" class="edge">
<title>Node9&#45;&gt;Node10</title>
<path fill="none" stroke="midnightblue" d="M740.5,-421.7C750.71,-421.99 761.29,-422.29 771.82,-422.59"/>
<polygon fill="midnightblue" stroke="midnightblue" points="771.8,-426.1 781.9,-422.88 772,-419.1 771.8,-426.1"/>
</g>
<!-- Node11 -->
<g id="node11" class="node">
<title>Node11</title>
<g id="a_node11"><a xlink:href="class_perceptual_color_1_1_simple_color_wheel.html#aa9eec6e96f6069be6d983d1c854644d1" target="_top" xlink:title=" ">
<polygon fill="white" stroke="black" points="795,-459.5 795,-489.5 954,-489.5 954,-459.5 795,-459.5"/>
<text text-anchor="start" x="803" y="-477.5" font-family="Helvetica,sans-Serif" font-size="10.00">PerceptualColor::SimpleColor</text>
<text text-anchor="middle" x="874.5" y="-466.5" font-family="Helvetica,sans-Serif" font-size="10.00">Wheel::setHue</text>
</a>
</g>
</g>
<!-- Node9&#45;&gt;Node11 -->
<g id="edge12" class="edge">
<title>Node9&#45;&gt;Node11</title>
<path fill="none" stroke="midnightblue" d="M720.88,-434.53C747.27,-441.44 778.76,-449.69 806.25,-456.89"/>
<polygon fill="midnightblue" stroke="midnightblue" points="805.63,-460.34 816.19,-459.49 807.4,-453.57 805.63,-460.34"/>
</g>
<!-- Node10&#45;&gt;Node7 -->
<g id="edge11" class="edge">
<title>Node10&#45;&gt;Node7</title>
<path fill="none" stroke="midnightblue" d="M931.92,-410.37C943.82,-406.26 956.08,-401.31 967,-395.5 999.41,-378.28 1032.07,-351.41 1053.18,-332.5"/>
<polygon fill="midnightblue" stroke="midnightblue" points="1055.63,-334.99 1060.67,-325.68 1050.92,-329.81 1055.63,-334.99"/>
</g>
<!-- Node12 -->
<g id="node12" class="node">
<title>Node12</title>
<g id="a_node12"><a xlink:href="class_perceptual_color_1_1_polar_point_f.html#a9eefd08d3a5ad536232292380f958804" target="_top" xlink:title="Normalizes an angle.">
<polygon fill="white" stroke="black" points="1003,-459.5 1003,-489.5 1152,-489.5 1152,-459.5 1003,-459.5"/>
<text text-anchor="start" x="1011" y="-477.5" font-family="Helvetica,sans-Serif" font-size="10.00">PerceptualColor::PolarPoint</text>
<text text-anchor="middle" x="1077.5" y="-466.5" font-family="Helvetica,sans-Serif" font-size="10.00">F::normalizedAngleDegree</text>
</a>
</g>
</g>
<!-- Node11&#45;&gt;Node12 -->
<g id="edge13" class="edge">
<title>Node11&#45;&gt;Node12</title>
<path fill="none" stroke="midnightblue" d="M954.08,-474.5C966.76,-474.5 979.93,-474.5 992.74,-474.5"/>
<polygon fill="midnightblue" stroke="midnightblue" points="992.91,-478 1002.91,-474.5 992.91,-471 992.91,-478"/>
</g>
<!-- Node13 -->
<g id="node13" class="node">
<title>Node13</title>
<g id="a_node13"><a xlink:href="class_perceptual_color_1_1_polar_point_f.html#a882cd166affc603fc62241dcb3be4fd5" target="_top" xlink:title="Normalized angle.">
<polygon fill="white" stroke="black" points="1188,-459.5 1188,-489.5 1337,-489.5 1337,-459.5 1188,-459.5"/>
<text text-anchor="start" x="1196" y="-477.5" font-family="Helvetica,sans-Serif" font-size="10.00">PerceptualColor::PolarPoint</text>
<text text-anchor="middle" x="1262.5" y="-466.5" font-family="Helvetica,sans-Serif" font-size="10.00">F::angleDegree</text>
</a>
</g>
</g>
<!-- Node12&#45;&gt;Node13 -->
<g id="edge14" class="edge">
<title>Node12&#45;&gt;Node13</title>
<path fill="none" stroke="midnightblue" d="M1152.14,-474.5C1160.47,-474.5 1169.01,-474.5 1177.46,-474.5"/>
<polygon fill="midnightblue" stroke="midnightblue" points="1177.71,-478 1187.71,-474.5 1177.71,-471 1177.71,-478"/>
</g>
<!-- Node15&#45;&gt;Node7 -->
<g id="edge18" class="edge">
<title>Node15&#45;&gt;Node7</title>
<path fill="none" stroke="midnightblue" d="M934.91,-254.51C945.67,-257.58 956.73,-260.96 967,-264.5 989.72,-272.34 1014.44,-282.57 1034.64,-291.4"/>
<polygon fill="midnightblue" stroke="midnightblue" points="1033.31,-294.64 1043.87,-295.47 1036.14,-288.23 1033.31,-294.64"/>
</g>
<!-- Node19&#45;&gt;Node18 -->
<g id="edge25" class="edge">
<title>Node19&#45;&gt;Node18</title>
<path fill="none" stroke="midnightblue" d="M741.1,-305.52C757.84,-303.37 775.58,-301.09 792.44,-298.92"/>
<polygon fill="midnightblue" stroke="midnightblue" points="793.34,-302.33 802.82,-297.59 792.45,-295.39 793.34,-302.33"/>
</g>
<!-- Node20 -->
<g id="node20" class="node">
<title>Node20</title>
<g id="a_node20"><a xlink:href="class_perceptual_color_1_1_color_patch.html#ada8693cd4a8e51eb2debd3c0192a7458" target="_top" xlink:title="Set the color property.">
<polygon fill="white" stroke="black" points="798.5,-322.5 798.5,-352.5 950.5,-352.5 950.5,-322.5 798.5,-322.5"/>
<text text-anchor="start" x="806.5" y="-340.5" font-family="Helvetica,sans-Serif" font-size="10.00">PerceptualColor::ColorPatch</text>
<text text-anchor="middle" x="874.5" y="-329.5" font-family="Helvetica,sans-Serif" font-size="10.00">::setColor</text>
</a>
</g>
</g>
<!-- Node19&#45;&gt;Node20 -->
<g id="edge24" class="edge">
<title>Node19&#45;&gt;Node20</title>
<path fill="none" stroke="midnightblue" d="M741.1,-323.63C756.43,-325.24 772.61,-326.93 788.18,-328.56"/>
<polygon fill="midnightblue" stroke="midnightblue" points="788.01,-332.06 798.32,-329.62 788.73,-325.1 788.01,-332.06"/>
</g>
</g>
</svg>
