<?xml version="1.0" encoding="UTF-8" standalone="no"?>
<!DOCTYPE svg PUBLIC "-//W3C//DTD SVG 1.1//EN"
 "http://www.w3.org/Graphics/SVG/1.1/DTD/svg11.dtd">
<!-- Generated by graphviz version 2.43.0 (0)
 -->
<!-- Title: PerceptualColor::SimpleColorWheel Pages: 1 -->
<svg width="309pt" height="242pt"
 viewBox="0.00 0.00 309.00 242.00" xmlns="http://www.w3.org/2000/svg" xmlns:xlink="http://www.w3.org/1999/xlink">
<g id="graph0" class="graph" transform="scale(1 1) rotate(0) translate(4 238)">
<title>PerceptualColor::SimpleColorWheel</title>
<polygon fill="white" stroke="transparent" points="-4,4 -4,-238 305,-238 305,4 -4,4"/>
<!-- Node1 -->
<g id="node1" class="node">
<title>Node1</title>
<g id="a_node1"><a xlink:title="Widget to choose the hue in a wheel.">
<polygon fill="#bfbfbf" stroke="black" points="69.5,-0.5 69.5,-30.5 228.5,-30.5 228.5,-0.5 69.5,-0.5"/>
<text text-anchor="start" x="77.5" y="-18.5" font-family="Helvetica,sans-Serif" font-size="10.00">PerceptualColor::SimpleColor</text>
<text text-anchor="middle" x="149" y="-7.5" font-family="Helvetica,sans-Serif" font-size="10.00">Wheel</text>
</a>
</g>
</g>
<!-- Node2 -->
<g id="node2" class="node">
<title>Node2</title>
<g id="a_node2"><a xlink:href="class_perceptual_color_1_1_circular_diagram.html" target="_top" xlink:title="Base class for circular diagrams.">
<polygon fill="white" stroke="black" points="1.5,-78.5 1.5,-108.5 138.5,-108.5 138.5,-78.5 1.5,-78.5"/>
<text text-anchor="start" x="9.5" y="-96.5" font-family="Helvetica,sans-Serif" font-size="10.00">PerceptualColor::Circular</text>
<text text-anchor="middle" x="70" y="-85.5" font-family="Helvetica,sans-Serif" font-size="10.00">Diagram</text>
</a>
</g>
</g>
<!-- Node2&#45;&gt;Node1 -->
<g id="edge1" class="edge">
<title>Node2&#45;&gt;Node1</title>
<path fill="none" stroke="midnightblue" d="M92.31,-71.03C105.73,-58.13 122.42,-42.07 134.21,-30.73"/>
<polygon fill="midnightblue" stroke="midnightblue" points="89.64,-68.75 84.86,-78.2 94.49,-73.79 89.64,-68.75"/>
</g>
<!-- Node3 -->
<g id="node3" class="node">
<title>Node3</title>
<g id="a_node3"><a xlink:href="class_perceptual_color_1_1_abstract_diagram.html" target="_top" xlink:title="Base class for LCh diagrams.">
<polygon fill="white" stroke="black" points="0,-146.5 0,-176.5 140,-176.5 140,-146.5 0,-146.5"/>
<text text-anchor="start" x="8" y="-164.5" font-family="Helvetica,sans-Serif" font-size="10.00">PerceptualColor::Abstract</text>
<text text-anchor="middle" x="70" y="-153.5" font-family="Helvetica,sans-Serif" font-size="10.00">Diagram</text>
</a>
</g>
</g>
<!-- Node3&#45;&gt;Node2 -->
<g id="edge2" class="edge">
<title>Node3&#45;&gt;Node2</title>
<path fill="none" stroke="midnightblue" d="M70,-136.03C70,-126.86 70,-116.74 70,-108.79"/>
<polygon fill="midnightblue" stroke="midnightblue" points="66.5,-136.18 70,-146.18 73.5,-136.18 66.5,-136.18"/>
</g>
<!-- Node4 -->
<g id="node4" class="node">
<title>Node4</title>
<g id="a_node4"><a xlink:title=" ">
<polygon fill="white" stroke="#bfbfbf" points="40.5,-214.5 40.5,-233.5 99.5,-233.5 99.5,-214.5 40.5,-214.5"/>
<text text-anchor="middle" x="70" y="-221.5" font-family="Helvetica,sans-Serif" font-size="10.00">QWidget</text>
</a>
</g>
</g>
<!-- Node4&#45;&gt;Node3 -->
<g id="edge3" class="edge">
<title>Node4&#45;&gt;Node3</title>
<path fill="none" stroke="midnightblue" d="M70,-204.22C70,-195.36 70,-184.96 70,-176.76"/>
<polygon fill="midnightblue" stroke="midnightblue" points="66.5,-204.33 70,-214.33 73.5,-204.33 66.5,-204.33"/>
</g>
<!-- Node5 -->
<g id="node5" class="node">
<title>Node5</title>
<g id="a_node5"><a xlink:href="class_perceptual_color_1_1_rgb_color_space.html" target="_top" xlink:title="Interface to LittleCMS for working with an RGB color space.">
<polygon fill="white" stroke="black" points="157,-78.5 157,-108.5 301,-108.5 301,-78.5 157,-78.5"/>
<text text-anchor="start" x="165" y="-96.5" font-family="Helvetica,sans-Serif" font-size="10.00">PerceptualColor::RgbColor</text>
<text text-anchor="middle" x="229" y="-85.5" font-family="Helvetica,sans-Serif" font-size="10.00">Space</text>
</a>
</g>
</g>
<!-- Node5&#45;&gt;Node1 -->
<g id="edge4" class="edge">
<title>Node5&#45;&gt;Node1</title>
<path fill="none" stroke="#9a32cd" stroke-dasharray="5,2" d="M206.4,-71.03C192.82,-58.13 175.92,-42.07 163.98,-30.73"/>
<polygon fill="#9a32cd" stroke="#9a32cd" points="204.29,-73.85 213.95,-78.2 209.11,-68.78 204.29,-73.85"/>
<text text-anchor="middle" x="238.5" y="-52" font-family="Helvetica,sans-Serif" font-size="10.00"> m_rgbColorSpace</text>
</g>
<!-- Node6 -->
<g id="node6" class="node">
<title>Node6</title>
<g id="a_node6"><a xlink:title=" ">
<polygon fill="white" stroke="#bfbfbf" points="201,-152 201,-171 257,-171 257,-152 201,-152"/>
<text text-anchor="middle" x="229" y="-159" font-family="Helvetica,sans-Serif" font-size="10.00">QObject</text>
</a>
</g>
</g>
<!-- Node6&#45;&gt;Node5 -->
<g id="edge5" class="edge">
<title>Node6&#45;&gt;Node5</title>
<path fill="none" stroke="midnightblue" d="M229,-141.67C229,-131.18 229,-118.32 229,-108.68"/>
<polygon fill="midnightblue" stroke="midnightblue" points="225.5,-141.87 229,-151.87 232.5,-141.87 225.5,-141.87"/>
</g>
</g>
</svg>
