<?xml version="1.0" encoding="UTF-8" standalone="no"?>
<!DOCTYPE svg PUBLIC "-//W3C//DTD SVG 1.1//EN"
 "http://www.w3.org/Graphics/SVG/1.1/DTD/svg11.dtd">
<!-- Generated by graphviz version 2.43.0 (0)
 -->
<!-- Title: PerceptualColor::PolarPointF::normalizedAngleDegree Pages: 1 -->
<svg width="1700pt" height="715pt"
 viewBox="0.00 0.00 1700.00 715.46" xmlns="http://www.w3.org/2000/svg" xmlns:xlink="http://www.w3.org/1999/xlink">
<g id="graph0" class="graph" transform="scale(1 1) rotate(0) translate(4 711.46)">
<title>PerceptualColor::PolarPointF::normalizedAngleDegree</title>
<polygon fill="white" stroke="transparent" points="-4,4 -4,-711.46 1696,-711.46 1696,4 -4,4"/>
<!-- Node1 -->
<g id="node1" class="node">
<title>Node1</title>
<g id="a_node1"><a xlink:title="Normalizes an angle.">
<polygon fill="#bfbfbf" stroke="black" points="1543,-348.5 1543,-378.5 1692,-378.5 1692,-348.5 1543,-348.5"/>
<text text-anchor="start" x="1551" y="-366.5" font-family="Helvetica,sans-Serif" font-size="10.00">PerceptualColor::PolarPoint</text>
<text text-anchor="middle" x="1617.5" y="-355.5" font-family="Helvetica,sans-Serif" font-size="10.00">F::normalizedAngleDegree</text>
</a>
</g>
</g>
<!-- Node2 -->
<g id="node2" class="node">
<title>Node2</title>
<g id="a_node2"><a xlink:href="class_perceptual_color_1_1_chroma_lightness_diagram.html#ae0395993434db2cd0d74b146fed6621c" target="_top" xlink:title="Generates an image of a chroma&#45;lightness diagram.">
<polygon fill="white" stroke="black" points="1322,-461.5 1322,-491.5 1507,-491.5 1507,-461.5 1322,-461.5"/>
<text text-anchor="start" x="1330" y="-479.5" font-family="Helvetica,sans-Serif" font-size="10.00">PerceptualColor::ChromaLightness</text>
<text text-anchor="middle" x="1414.5" y="-468.5" font-family="Helvetica,sans-Serif" font-size="10.00">Diagram::generateDiagramImage</text>
</a>
</g>
</g>
<!-- Node1&#45;&gt;Node2 -->
<g id="edge1" class="edge">
<title>Node1&#45;&gt;Node2</title>
<path fill="none" stroke="midnightblue" d="M1581,-383.46C1541.33,-405.76 1478.02,-441.35 1442.3,-461.43"/>
<polygon fill="midnightblue" stroke="midnightblue" points="1582.81,-386.46 1589.81,-378.51 1579.38,-380.36 1582.81,-386.46"/>
</g>
<!-- Node13 -->
<g id="node13" class="node">
<title>Node13</title>
<g id="a_node13"><a xlink:href="class_perceptual_color_1_1_polar_point_f.html#a56a3e441f1d5d64d9eceab4bb443d5dc" target="_top" xlink:title="Constructor.">
<polygon fill="white" stroke="black" points="1340,-348.5 1340,-378.5 1489,-378.5 1489,-348.5 1340,-348.5"/>
<text text-anchor="start" x="1348" y="-366.5" font-family="Helvetica,sans-Serif" font-size="10.00">PerceptualColor::PolarPoint</text>
<text text-anchor="middle" x="1414.5" y="-355.5" font-family="Helvetica,sans-Serif" font-size="10.00">F::PolarPointF</text>
</a>
</g>
</g>
<!-- Node1&#45;&gt;Node13 -->
<g id="edge20" class="edge">
<title>Node1&#45;&gt;Node13</title>
<path fill="none" stroke="midnightblue" d="M1532.44,-363.5C1518.08,-363.5 1503.26,-363.5 1489.19,-363.5"/>
<polygon fill="midnightblue" stroke="midnightblue" points="1532.8,-367 1542.8,-363.5 1532.8,-360 1532.8,-367"/>
</g>
<!-- Node14 -->
<g id="node14" class="node">
<title>Node14</title>
<g id="a_node14"><a xlink:href="class_perceptual_color_1_1_simple_color_wheel.html#aa9eec6e96f6069be6d983d1c854644d1" target="_top" xlink:title=" ">
<polygon fill="white" stroke="black" points="1335,-171.5 1335,-201.5 1494,-201.5 1494,-171.5 1335,-171.5"/>
<text text-anchor="start" x="1343" y="-189.5" font-family="Helvetica,sans-Serif" font-size="10.00">PerceptualColor::SimpleColor</text>
<text text-anchor="middle" x="1414.5" y="-178.5" font-family="Helvetica,sans-Serif" font-size="10.00">Wheel::setHue</text>
</a>
</g>
</g>
<!-- Node1&#45;&gt;Node14 -->
<g id="edge21" class="edge">
<title>Node1&#45;&gt;Node14</title>
<path fill="none" stroke="midnightblue" d="M1591.65,-341.62C1550.24,-305.15 1468.16,-232.87 1432.59,-201.55"/>
<polygon fill="midnightblue" stroke="midnightblue" points="1589.54,-344.43 1599.36,-348.41 1594.17,-339.17 1589.54,-344.43"/>
</g>
<!-- Node3 -->
<g id="node3" class="node">
<title>Node3</title>
<g id="a_node3"><a xlink:href="class_perceptual_color_1_1_chroma_lightness_diagram.html#a7d48f62249ffee09f55edfd3c127eb84" target="_top" xlink:title="Refresh the diagram and associated data.">
<polygon fill="white" stroke="black" points="1101,-550.5 1101,-580.5 1286,-580.5 1286,-550.5 1101,-550.5"/>
<text text-anchor="start" x="1109" y="-568.5" font-family="Helvetica,sans-Serif" font-size="10.00">PerceptualColor::ChromaLightness</text>
<text text-anchor="middle" x="1193.5" y="-557.5" font-family="Helvetica,sans-Serif" font-size="10.00">Diagram::updateDiagramCache</text>
</a>
</g>
</g>
<!-- Node2&#45;&gt;Node3 -->
<g id="edge2" class="edge">
<title>Node2&#45;&gt;Node3</title>
<path fill="none" stroke="midnightblue" d="M1366.98,-495.4C1326.56,-511.83 1268.8,-535.31 1231.47,-550.48"/>
<polygon fill="midnightblue" stroke="midnightblue" points="1368.4,-498.61 1376.35,-491.6 1365.77,-492.12 1368.4,-498.61"/>
</g>
<!-- Node4 -->
<g id="node4" class="node">
<title>Node4</title>
<g id="a_node4"><a xlink:href="class_perceptual_color_1_1_chroma_lightness_diagram.html#a9f6471b44d4f4eba95914945bc53037a" target="_top" xlink:title=" ">
<polygon fill="white" stroke="black" points="858,-594.5 858,-624.5 1046,-624.5 1046,-594.5 858,-594.5"/>
<text text-anchor="start" x="866" y="-612.5" font-family="Helvetica,sans-Serif" font-size="10.00">PerceptualColor::ChromaLightness</text>
<text text-anchor="middle" x="952" y="-601.5" font-family="Helvetica,sans-Serif" font-size="10.00">Diagram::currentImageCoordinates</text>
</a>
</g>
</g>
<!-- Node3&#45;&gt;Node4 -->
<g id="edge3" class="edge">
<title>Node3&#45;&gt;Node4</title>
<path fill="none" stroke="midnightblue" d="M1100.86,-582.34C1079.12,-586.33 1056.06,-590.57 1034.79,-594.47"/>
<polygon fill="midnightblue" stroke="midnightblue" points="1101.54,-585.77 1110.75,-580.52 1100.28,-578.88 1101.54,-585.77"/>
</g>
<!-- Node5 -->
<g id="node5" class="node">
<title>Node5</title>
<g id="a_node5"><a xlink:href="class_perceptual_color_1_1_chroma_lightness_diagram.html#abd23775803f181201fefbdcc08378ab8" target="_top" xlink:title="React on key press events.">
<polygon fill="white" stroke="black" points="386,-624.5 386,-654.5 571,-654.5 571,-624.5 386,-624.5"/>
<text text-anchor="start" x="394" y="-642.5" font-family="Helvetica,sans-Serif" font-size="10.00">PerceptualColor::ChromaLightness</text>
<text text-anchor="middle" x="478.5" y="-631.5" font-family="Helvetica,sans-Serif" font-size="10.00">Diagram::keyPressEvent</text>
</a>
</g>
</g>
<!-- Node3&#45;&gt;Node5 -->
<g id="edge17" class="edge">
<title>Node3&#45;&gt;Node5</title>
<path fill="none" stroke="midnightblue" d="M1170.79,-587.98C1147.16,-610.8 1107.1,-644.92 1065,-660.5 873.95,-731.21 808.47,-708.62 607,-678.5 576.32,-673.91 542.83,-663.44 517.87,-654.5"/>
<polygon fill="midnightblue" stroke="midnightblue" points="1173.49,-590.23 1178.15,-580.72 1168.57,-585.25 1173.49,-590.23"/>
</g>
<!-- Node6 -->
<g id="node6" class="node">
<title>Node6</title>
<g id="a_node6"><a xlink:href="class_perceptual_color_1_1_chroma_lightness_diagram.html#a82c4e4f64c0d5e9307d767f2bfa052db" target="_top" xlink:title="Paint the widget.">
<polygon fill="white" stroke="black" points="612.5,-638.5 612.5,-668.5 797.5,-668.5 797.5,-638.5 612.5,-638.5"/>
<text text-anchor="start" x="620.5" y="-656.5" font-family="Helvetica,sans-Serif" font-size="10.00">PerceptualColor::ChromaLightness</text>
<text text-anchor="middle" x="705" y="-645.5" font-family="Helvetica,sans-Serif" font-size="10.00">Diagram::paintEvent</text>
</a>
</g>
</g>
<!-- Node3&#45;&gt;Node6 -->
<g id="edge18" class="edge">
<title>Node3&#45;&gt;Node6</title>
<path fill="none" stroke="midnightblue" d="M1163.08,-586.35C1138.23,-602.71 1101.03,-624.35 1065,-634.5 976.69,-659.37 871.42,-661.94 797.8,-659.62"/>
<polygon fill="midnightblue" stroke="midnightblue" points="1165.3,-589.07 1171.65,-580.59 1161.4,-583.26 1165.3,-589.07"/>
</g>
<!-- Node7 -->
<g id="node7" class="node">
<title>Node7</title>
<g id="a_node7"><a xlink:href="class_perceptual_color_1_1_chroma_lightness_diagram.html#ac9b6d25ecc2c6a954f1ba361960458b1" target="_top" xlink:title=" ">
<polygon fill="white" stroke="black" points="612.5,-550.5 612.5,-580.5 797.5,-580.5 797.5,-550.5 612.5,-550.5"/>
<text text-anchor="start" x="620.5" y="-568.5" font-family="Helvetica,sans-Serif" font-size="10.00">PerceptualColor::ChromaLightness</text>
<text text-anchor="middle" x="705" y="-557.5" font-family="Helvetica,sans-Serif" font-size="10.00">Diagram::setImageCoordinates</text>
</a>
</g>
</g>
<!-- Node3&#45;&gt;Node7 -->
<g id="edge19" class="edge">
<title>Node3&#45;&gt;Node7</title>
<path fill="none" stroke="midnightblue" d="M1090.89,-565.5C1004.33,-565.5 881.04,-565.5 797.51,-565.5"/>
<polygon fill="midnightblue" stroke="midnightblue" points="1090.99,-569 1100.99,-565.5 1090.99,-562 1090.99,-569"/>
</g>
<!-- Node11 -->
<g id="node11" class="node">
<title>Node11</title>
<g id="a_node11"><a xlink:href="class_perceptual_color_1_1_chroma_lightness_diagram.html#a9bfa53bcbfd4010c082294c9cfb5b2eb" target="_top" xlink:title=" ">
<polygon fill="white" stroke="black" points="839,-496 839,-537 1065,-537 1065,-496 839,-496"/>
<text text-anchor="start" x="847" y="-525" font-family="Helvetica,sans-Serif" font-size="10.00">PerceptualColor::ChromaLightness</text>
<text text-anchor="start" x="847" y="-514" font-family="Helvetica,sans-Serif" font-size="10.00">Diagram::fromImageCoordinatesToChroma</text>
<text text-anchor="middle" x="952" y="-503" font-family="Helvetica,sans-Serif" font-size="10.00">Lightness</text>
</a>
</g>
</g>
<!-- Node3&#45;&gt;Node11 -->
<g id="edge11" class="edge">
<title>Node3&#45;&gt;Node11</title>
<path fill="none" stroke="midnightblue" d="M1109.13,-548.44C1091.1,-544.75 1071.85,-540.82 1053.25,-537.01"/>
<polygon fill="midnightblue" stroke="midnightblue" points="1108.52,-551.89 1119.01,-550.47 1109.92,-545.03 1108.52,-551.89"/>
</g>
<!-- Node12 -->
<g id="node12" class="node">
<title>Node12</title>
<g id="a_node12"><a xlink:href="class_perceptual_color_1_1_chroma_lightness_diagram.html#a00a13ef1aa732e2f16d0d9f371aa4746" target="_top" xlink:title="Tests if image coordinates are in gamut.">
<polygon fill="white" stroke="black" points="607,-489.5 607,-519.5 803,-519.5 803,-489.5 607,-489.5"/>
<text text-anchor="start" x="615" y="-507.5" font-family="Helvetica,sans-Serif" font-size="10.00">PerceptualColor::ChromaLightness</text>
<text text-anchor="middle" x="705" y="-496.5" font-family="Helvetica,sans-Serif" font-size="10.00">Diagram::imageCoordinatesInGamut</text>
</a>
</g>
</g>
<!-- Node3&#45;&gt;Node12 -->
<g id="edge13" class="edge">
<title>Node3&#45;&gt;Node12</title>
<path fill="none" stroke="midnightblue" d="M1167.05,-543.72C1142.69,-524.4 1103.98,-497.6 1065,-486.5 964.02,-457.75 840.7,-474.57 768.03,-489.47"/>
<polygon fill="midnightblue" stroke="midnightblue" points="1165.08,-546.62 1175.05,-550.2 1169.48,-541.18 1165.08,-546.62"/>
</g>
<!-- Node4&#45;&gt;Node5 -->
<g id="edge4" class="edge">
<title>Node4&#45;&gt;Node5</title>
<path fill="none" stroke="midnightblue" d="M847.56,-614.97C779.24,-618.71 687.76,-623.99 607,-629.5 595.37,-630.29 583.15,-631.18 571.07,-632.09"/>
<polygon fill="midnightblue" stroke="midnightblue" points="848.1,-618.44 857.89,-614.4 847.71,-611.45 848.1,-618.44"/>
</g>
<!-- Node4&#45;&gt;Node6 -->
<g id="edge5" class="edge">
<title>Node4&#45;&gt;Node6</title>
<path fill="none" stroke="midnightblue" d="M857.26,-626.34C835.01,-630.33 811.43,-634.57 789.67,-638.47"/>
<polygon fill="midnightblue" stroke="midnightblue" points="858.15,-629.73 867.37,-624.52 856.91,-622.84 858.15,-629.73"/>
</g>
<!-- Node4&#45;&gt;Node7 -->
<g id="edge6" class="edge">
<title>Node4&#45;&gt;Node7</title>
<path fill="none" stroke="midnightblue" d="M857.26,-592.66C835.01,-588.67 811.43,-584.43 789.67,-580.53"/>
<polygon fill="midnightblue" stroke="midnightblue" points="856.91,-596.16 867.37,-594.48 858.15,-589.27 856.91,-596.16"/>
</g>
<!-- Node7&#45;&gt;Node5 -->
<g id="edge7" class="edge">
<title>Node7&#45;&gt;Node5</title>
<path fill="none" stroke="midnightblue" d="M638.64,-583.68C627.93,-587.23 617.05,-591.21 607,-595.5 590.17,-602.69 587.99,-608.68 571,-615.5 562.77,-618.8 553.94,-621.78 545.13,-624.43"/>
<polygon fill="midnightblue" stroke="midnightblue" points="639.95,-586.93 648.4,-580.53 637.8,-580.27 639.95,-586.93"/>
</g>
<!-- Node8 -->
<g id="node8" class="node">
<title>Node8</title>
<g id="a_node8"><a xlink:href="class_perceptual_color_1_1_chroma_lightness_diagram.html#a1697a065cdb13e6a5b8af378673c77f3" target="_top" xlink:title="React on a mouse move event.">
<polygon fill="white" stroke="black" points="386,-526.5 386,-556.5 571,-556.5 571,-526.5 386,-526.5"/>
<text text-anchor="start" x="394" y="-544.5" font-family="Helvetica,sans-Serif" font-size="10.00">PerceptualColor::ChromaLightness</text>
<text text-anchor="middle" x="478.5" y="-533.5" font-family="Helvetica,sans-Serif" font-size="10.00">Diagram::mouseMoveEvent</text>
</a>
</g>
</g>
<!-- Node7&#45;&gt;Node8 -->
<g id="edge8" class="edge">
<title>Node7&#45;&gt;Node8</title>
<path fill="none" stroke="midnightblue" d="M602.11,-554.61C591.81,-553.51 581.39,-552.39 571.21,-551.3"/>
<polygon fill="midnightblue" stroke="midnightblue" points="602.05,-558.12 612.36,-555.7 602.79,-551.16 602.05,-558.12"/>
</g>
<!-- Node9 -->
<g id="node9" class="node">
<title>Node9</title>
<g id="a_node9"><a xlink:href="class_perceptual_color_1_1_chroma_lightness_diagram.html#aa0aa6d31cefd3b9dfbfe9acfcac18e3d" target="_top" xlink:title="React on a mouse press event.">
<polygon fill="white" stroke="black" points="386,-477.5 386,-507.5 571,-507.5 571,-477.5 386,-477.5"/>
<text text-anchor="start" x="394" y="-495.5" font-family="Helvetica,sans-Serif" font-size="10.00">PerceptualColor::ChromaLightness</text>
<text text-anchor="middle" x="478.5" y="-484.5" font-family="Helvetica,sans-Serif" font-size="10.00">Diagram::mousePressEvent</text>
</a>
</g>
</g>
<!-- Node7&#45;&gt;Node9 -->
<g id="edge9" class="edge">
<title>Node7&#45;&gt;Node9</title>
<path fill="none" stroke="midnightblue" d="M653.78,-546.91C623.11,-535.64 586.84,-522.51 571,-517.5 560.17,-514.07 548.53,-510.67 537.3,-507.54"/>
<polygon fill="midnightblue" stroke="midnightblue" points="652.91,-550.32 663.5,-550.48 655.33,-543.75 652.91,-550.32"/>
</g>
<!-- Node10 -->
<g id="node10" class="node">
<title>Node10</title>
<g id="a_node10"><a xlink:href="class_perceptual_color_1_1_chroma_lightness_diagram.html#a9bd534e0817d1afb0a3674f98919b8db" target="_top" xlink:title="React on a mouse release event.">
<polygon fill="white" stroke="black" points="386,-575.5 386,-605.5 571,-605.5 571,-575.5 386,-575.5"/>
<text text-anchor="start" x="394" y="-593.5" font-family="Helvetica,sans-Serif" font-size="10.00">PerceptualColor::ChromaLightness</text>
<text text-anchor="middle" x="478.5" y="-582.5" font-family="Helvetica,sans-Serif" font-size="10.00">Diagram::mouseReleaseEvent</text>
</a>
</g>
</g>
<!-- Node7&#45;&gt;Node10 -->
<g id="edge10" class="edge">
<title>Node7&#45;&gt;Node10</title>
<path fill="none" stroke="midnightblue" d="M602.11,-576.85C591.81,-577.99 581.39,-579.15 571.21,-580.29"/>
<polygon fill="midnightblue" stroke="midnightblue" points="602.81,-580.29 612.36,-575.7 602.04,-573.33 602.81,-580.29"/>
</g>
<!-- Node11&#45;&gt;Node7 -->
<g id="edge12" class="edge">
<title>Node11&#45;&gt;Node7</title>
<path fill="none" stroke="midnightblue" d="M838.35,-539.03C818.91,-542.92 799.14,-546.87 781.01,-550.5"/>
<polygon fill="midnightblue" stroke="midnightblue" points="839.04,-542.46 848.16,-537.07 837.67,-535.6 839.04,-542.46"/>
</g>
<!-- Node12&#45;&gt;Node5 -->
<g id="edge14" class="edge">
<title>Node12&#45;&gt;Node5</title>
<path fill="none" stroke="midnightblue" d="M634.38,-523.58C624.45,-528.34 614.94,-534.23 607,-541.5 580.02,-566.19 599.27,-592.3 571,-615.5 566.81,-618.94 562.18,-621.89 557.29,-624.42"/>
<polygon fill="midnightblue" stroke="midnightblue" points="635.84,-526.76 643.57,-519.52 633.01,-520.36 635.84,-526.76"/>
</g>
<!-- Node12&#45;&gt;Node8 -->
<g id="edge15" class="edge">
<title>Node12&#45;&gt;Node8</title>
<path fill="none" stroke="midnightblue" d="M602.57,-521.22C591.96,-522.97 581.22,-524.74 570.73,-526.46"/>
<polygon fill="midnightblue" stroke="midnightblue" points="603.39,-524.63 612.69,-519.55 602.25,-517.72 603.39,-524.63"/>
</g>
<!-- Node12&#45;&gt;Node9 -->
<g id="edge16" class="edge">
<title>Node12&#45;&gt;Node9</title>
<path fill="none" stroke="midnightblue" d="M596.8,-498.77C588.22,-498.31 579.6,-497.85 571.14,-497.4"/>
<polygon fill="midnightblue" stroke="midnightblue" points="596.66,-502.27 606.84,-499.31 597.04,-495.28 596.66,-502.27"/>
</g>
<!-- Node15 -->
<g id="node15" class="node">
<title>Node15</title>
<g id="a_node15"><a xlink:href="class_perceptual_color_1_1_simple_color_wheel.html#aac244ab9d153c809ef6e4c2aac05fa22" target="_top" xlink:title="React on key press events.">
<polygon fill="white" stroke="black" points="1114,-147.5 1114,-177.5 1273,-177.5 1273,-147.5 1114,-147.5"/>
<text text-anchor="start" x="1122" y="-165.5" font-family="Helvetica,sans-Serif" font-size="10.00">PerceptualColor::SimpleColor</text>
<text text-anchor="middle" x="1193.5" y="-154.5" font-family="Helvetica,sans-Serif" font-size="10.00">Wheel::keyPressEvent</text>
</a>
</g>
</g>
<!-- Node14&#45;&gt;Node15 -->
<g id="edge22" class="edge">
<title>Node14&#45;&gt;Node15</title>
<path fill="none" stroke="midnightblue" d="M1324.8,-176.78C1307.75,-174.91 1290,-172.97 1273.29,-171.13"/>
<polygon fill="midnightblue" stroke="midnightblue" points="1324.42,-180.26 1334.75,-177.87 1325.19,-173.3 1324.42,-180.26"/>
</g>
<!-- Node17 -->
<g id="node17" class="node">
<title>Node17</title>
<g id="a_node17"><a xlink:href="class_perceptual_color_1_1_simple_color_wheel.html#abe3135d19fc45216402f78bce2cf85f3" target="_top" xlink:title="React on a mouse move event.">
<polygon fill="white" stroke="black" points="1114,-98.5 1114,-128.5 1273,-128.5 1273,-98.5 1114,-98.5"/>
<text text-anchor="start" x="1122" y="-116.5" font-family="Helvetica,sans-Serif" font-size="10.00">PerceptualColor::SimpleColor</text>
<text text-anchor="middle" x="1193.5" y="-105.5" font-family="Helvetica,sans-Serif" font-size="10.00">Wheel::mouseMoveEvent</text>
</a>
</g>
</g>
<!-- Node14&#45;&gt;Node17 -->
<g id="edge24" class="edge">
<title>Node14&#45;&gt;Node17</title>
<path fill="none" stroke="midnightblue" d="M1368.33,-167.74C1344.14,-158.05 1313.7,-146.42 1286,-137.5 1276.31,-134.38 1265.94,-131.36 1255.8,-128.58"/>
<polygon fill="midnightblue" stroke="midnightblue" points="1367.02,-170.99 1377.61,-171.49 1369.64,-164.5 1367.02,-170.99"/>
</g>
<!-- Node18 -->
<g id="node18" class="node">
<title>Node18</title>
<g id="a_node18"><a xlink:href="class_perceptual_color_1_1_simple_color_wheel.html#a8e6801f8291ff6214d93d56d0ec59e22" target="_top" xlink:title="React on a mouse press event.">
<polygon fill="white" stroke="black" points="1114,-49.5 1114,-79.5 1273,-79.5 1273,-49.5 1114,-49.5"/>
<text text-anchor="start" x="1122" y="-67.5" font-family="Helvetica,sans-Serif" font-size="10.00">PerceptualColor::SimpleColor</text>
<text text-anchor="middle" x="1193.5" y="-56.5" font-family="Helvetica,sans-Serif" font-size="10.00">Wheel::mousePressEvent</text>
</a>
</g>
</g>
<!-- Node14&#45;&gt;Node18 -->
<g id="edge25" class="edge">
<title>Node14&#45;&gt;Node18</title>
<path fill="none" stroke="midnightblue" d="M1390.45,-164.13C1366.29,-141.87 1326.31,-108.27 1286,-88.5 1279.07,-85.1 1271.6,-82.14 1264.02,-79.57"/>
<polygon fill="midnightblue" stroke="midnightblue" points="1388.32,-166.93 1398.01,-171.21 1393.1,-161.82 1388.32,-166.93"/>
</g>
<!-- Node19 -->
<g id="node19" class="node">
<title>Node19</title>
<g id="a_node19"><a xlink:href="class_perceptual_color_1_1_simple_color_wheel.html#af9f91c60348e415b8726732231230fd0" target="_top" xlink:title="React on a mouse release event.">
<polygon fill="white" stroke="black" points="1114,-0.5 1114,-30.5 1273,-30.5 1273,-0.5 1114,-0.5"/>
<text text-anchor="start" x="1122" y="-18.5" font-family="Helvetica,sans-Serif" font-size="10.00">PerceptualColor::SimpleColor</text>
<text text-anchor="middle" x="1193.5" y="-7.5" font-family="Helvetica,sans-Serif" font-size="10.00">Wheel::mouseReleaseEvent</text>
</a>
</g>
</g>
<!-- Node14&#45;&gt;Node19 -->
<g id="edge26" class="edge">
<title>Node14&#45;&gt;Node19</title>
<path fill="none" stroke="midnightblue" d="M1399.51,-162.85C1378.87,-130.08 1337.13,-71.3 1286,-39.5 1280.42,-36.03 1274.35,-33.06 1268.08,-30.52"/>
<polygon fill="midnightblue" stroke="midnightblue" points="1396.53,-164.69 1404.76,-171.36 1402.49,-161.02 1396.53,-164.69"/>
</g>
<!-- Node20 -->
<g id="node20" class="node">
<title>Node20</title>
<g id="a_node20"><a xlink:href="class_perceptual_color_1_1_simple_color_wheel.html#ae95bfc11214636a89ccbb380f3a506e3" target="_top" xlink:title="Reset the hue() property.">
<polygon fill="white" stroke="black" points="1114,-294.5 1114,-324.5 1273,-324.5 1273,-294.5 1114,-294.5"/>
<text text-anchor="start" x="1122" y="-312.5" font-family="Helvetica,sans-Serif" font-size="10.00">PerceptualColor::SimpleColor</text>
<text text-anchor="middle" x="1193.5" y="-301.5" font-family="Helvetica,sans-Serif" font-size="10.00">Wheel::resetHue</text>
</a>
</g>
</g>
<!-- Node14&#45;&gt;Node20 -->
<g id="edge27" class="edge">
<title>Node14&#45;&gt;Node20</title>
<path fill="none" stroke="midnightblue" d="M1390.41,-208.78C1366.22,-230.97 1326.21,-264.53 1286,-284.5 1278.33,-288.31 1270,-291.6 1261.6,-294.43"/>
<polygon fill="midnightblue" stroke="midnightblue" points="1393.05,-211.11 1397.98,-201.73 1388.28,-205.98 1393.05,-211.11"/>
</g>
<!-- Node21 -->
<g id="node21" class="node">
<title>Node21</title>
<g id="a_node21"><a xlink:href="class_perceptual_color_1_1_wheel_color_picker.html#a5f3a58bb672323221c98c2285404bf76" target="_top" xlink:title="Setter for currentColorRgb() property.">
<polygon fill="white" stroke="black" points="1115.5,-245.5 1115.5,-275.5 1271.5,-275.5 1271.5,-245.5 1115.5,-245.5"/>
<text text-anchor="start" x="1123.5" y="-263.5" font-family="Helvetica,sans-Serif" font-size="10.00">PerceptualColor::WheelColor</text>
<text text-anchor="middle" x="1193.5" y="-252.5" font-family="Helvetica,sans-Serif" font-size="10.00">Picker::setCurrentColor</text>
</a>
</g>
</g>
<!-- Node14&#45;&gt;Node21 -->
<g id="edge28" class="edge">
<title>Node14&#45;&gt;Node21</title>
<path fill="none" stroke="midnightblue" d="M1367.71,-205.38C1343.6,-214.99 1313.43,-226.51 1286,-235.5 1275.36,-238.99 1263.92,-242.39 1252.85,-245.5"/>
<polygon fill="midnightblue" stroke="midnightblue" points="1369.32,-208.5 1377.3,-201.53 1366.72,-202 1369.32,-208.5"/>
</g>
<!-- Node34 -->
<g id="node34" class="node">
<title>Node34</title>
<g id="a_node34"><a xlink:href="class_perceptual_color_1_1_simple_color_wheel.html#a39f69259647eebe1e95ce3a1aa73bcd6" target="_top" xlink:title="React on a mouse wheel event.">
<polygon fill="white" stroke="black" points="1114,-196.5 1114,-226.5 1273,-226.5 1273,-196.5 1114,-196.5"/>
<text text-anchor="start" x="1122" y="-214.5" font-family="Helvetica,sans-Serif" font-size="10.00">PerceptualColor::SimpleColor</text>
<text text-anchor="middle" x="1193.5" y="-203.5" font-family="Helvetica,sans-Serif" font-size="10.00">Wheel::wheelEvent</text>
</a>
</g>
</g>
<!-- Node14&#45;&gt;Node34 -->
<g id="edge48" class="edge">
<title>Node14&#45;&gt;Node34</title>
<path fill="none" stroke="midnightblue" d="M1324.8,-196.63C1307.75,-198.57 1290,-200.6 1273.29,-202.51"/>
<polygon fill="midnightblue" stroke="midnightblue" points="1325.21,-200.1 1334.75,-195.49 1324.41,-193.15 1325.21,-200.1"/>
</g>
<!-- Node16 -->
<g id="node16" class="node">
<title>Node16</title>
<g id="a_node16"><a xlink:href="class_perceptual_color_1_1_wheel_color_picker.html#a6d884a79dac5e9c5241bee146960dfad" target="_top" xlink:title="React on key press events.">
<polygon fill="white" stroke="black" points="874,-147.5 874,-177.5 1030,-177.5 1030,-147.5 874,-147.5"/>
<text text-anchor="start" x="882" y="-165.5" font-family="Helvetica,sans-Serif" font-size="10.00">PerceptualColor::WheelColor</text>
<text text-anchor="middle" x="952" y="-154.5" font-family="Helvetica,sans-Serif" font-size="10.00">Picker::keyPressEvent</text>
</a>
</g>
</g>
<!-- Node15&#45;&gt;Node16 -->
<g id="edge23" class="edge">
<title>Node15&#45;&gt;Node16</title>
<path fill="none" stroke="midnightblue" d="M1103.54,-162.5C1079.44,-162.5 1053.56,-162.5 1030.17,-162.5"/>
<polygon fill="midnightblue" stroke="midnightblue" points="1103.75,-166 1113.75,-162.5 1103.75,-159 1103.75,-166"/>
</g>
<!-- Node22 -->
<g id="node22" class="node">
<title>Node22</title>
<g id="a_node22"><a xlink:href="class_perceptual_color_1_1_color_dialog.html#abd0da334b7034a67a3cc83bc3ed0a425" target="_top" xlink:title="Updates m_currentOpaqueColor and all affected widgets.">
<polygon fill="white" stroke="black" points="873.5,-220.5 873.5,-250.5 1030.5,-250.5 1030.5,-220.5 873.5,-220.5"/>
<text text-anchor="start" x="881.5" y="-238.5" font-family="Helvetica,sans-Serif" font-size="10.00">PerceptualColor::ColorDialog</text>
<text text-anchor="middle" x="952" y="-227.5" font-family="Helvetica,sans-Serif" font-size="10.00">::setCurrentOpaqueColor</text>
</a>
</g>
</g>
<!-- Node21&#45;&gt;Node22 -->
<g id="edge29" class="edge">
<title>Node21&#45;&gt;Node22</title>
<path fill="none" stroke="midnightblue" d="M1105.43,-251.41C1081.01,-248.86 1054.62,-246.11 1030.77,-243.62"/>
<polygon fill="midnightblue" stroke="midnightblue" points="1105.09,-254.9 1115.4,-252.45 1105.82,-247.93 1105.09,-254.9"/>
</g>
<!-- Node23 -->
<g id="node23" class="node">
<title>Node23</title>
<g id="a_node23"><a xlink:href="class_perceptual_color_1_1_color_dialog.html#ad31fb985e1323cdf1208c91f16fe2a51" target="_top" xlink:title="Basic initialization.">
<polygon fill="white" stroke="black" points="193,-264.5 193,-294.5 350,-294.5 350,-264.5 193,-264.5"/>
<text text-anchor="start" x="201" y="-282.5" font-family="Helvetica,sans-Serif" font-size="10.00">PerceptualColor::ColorDialog</text>
<text text-anchor="middle" x="271.5" y="-271.5" font-family="Helvetica,sans-Serif" font-size="10.00">::initialize</text>
</a>
</g>
</g>
<!-- Node22&#45;&gt;Node23 -->
<g id="edge30" class="edge">
<title>Node22&#45;&gt;Node23</title>
<path fill="none" stroke="midnightblue" d="M863.07,-224.24C751.05,-212.35 552.07,-199.48 386,-232.5 355.46,-238.57 322.84,-253.01 300.44,-264.29"/>
<polygon fill="midnightblue" stroke="midnightblue" points="862.98,-227.75 873.3,-225.35 863.74,-220.79 862.98,-227.75"/>
</g>
<!-- Node25 -->
<g id="node25" class="node">
<title>Node25</title>
<g id="a_node25"><a xlink:href="class_perceptual_color_1_1_color_dialog.html#adf67594f0cb9416b245d6cf726f18bf4" target="_top" xlink:title="Reads the HLC numbers in the dialog and updates the dialog accordingly.">
<polygon fill="white" stroke="black" points="626.5,-242.5 626.5,-272.5 783.5,-272.5 783.5,-242.5 626.5,-242.5"/>
<text text-anchor="start" x="634.5" y="-260.5" font-family="Helvetica,sans-Serif" font-size="10.00">PerceptualColor::ColorDialog</text>
<text text-anchor="middle" x="705" y="-249.5" font-family="Helvetica,sans-Serif" font-size="10.00">::readHlcNumericValues</text>
</a>
</g>
</g>
<!-- Node22&#45;&gt;Node25 -->
<g id="edge32" class="edge">
<title>Node22&#45;&gt;Node25</title>
<path fill="none" stroke="midnightblue" d="M863.28,-243.38C837.34,-245.71 809.13,-248.24 783.86,-250.51"/>
<polygon fill="midnightblue" stroke="midnightblue" points="863.83,-246.84 873.48,-242.46 863.21,-239.87 863.83,-246.84"/>
</g>
<!-- Node27 -->
<g id="node27" class="node">
<title>Node27</title>
<g id="a_node27"><a xlink:href="class_perceptual_color_1_1_color_dialog.html#a2a48f4c33652bc9a1a0cb22fd0a6b221" target="_top" xlink:title="Reads the value from the lightness selector in the dialog and updates the dialog accordingly.">
<polygon fill="white" stroke="black" points="626.5,-154.5 626.5,-184.5 783.5,-184.5 783.5,-154.5 626.5,-154.5"/>
<text text-anchor="start" x="634.5" y="-172.5" font-family="Helvetica,sans-Serif" font-size="10.00">PerceptualColor::ColorDialog</text>
<text text-anchor="middle" x="705" y="-161.5" font-family="Helvetica,sans-Serif" font-size="10.00">::readLightnessValue</text>
</a>
</g>
</g>
<!-- Node22&#45;&gt;Node27 -->
<g id="edge36" class="edge">
<title>Node22&#45;&gt;Node27</title>
<path fill="none" stroke="midnightblue" d="M885.04,-217.73C846.62,-207.38 798.68,-194.47 762.08,-184.61"/>
<polygon fill="midnightblue" stroke="midnightblue" points="884.53,-221.22 895.1,-220.44 886.35,-214.46 884.53,-221.22"/>
</g>
<!-- Node28 -->
<g id="node28" class="node">
<title>Node28</title>
<g id="a_node28"><a xlink:href="class_perceptual_color_1_1_color_dialog.html#a64b6c698ebfaf2461c513ebbb7ef2637" target="_top" xlink:title="Setter for currentColor property.">
<polygon fill="white" stroke="black" points="626.5,-105.5 626.5,-135.5 783.5,-135.5 783.5,-105.5 626.5,-105.5"/>
<text text-anchor="start" x="634.5" y="-123.5" font-family="Helvetica,sans-Serif" font-size="10.00">PerceptualColor::ColorDialog</text>
<text text-anchor="middle" x="705" y="-112.5" font-family="Helvetica,sans-Serif" font-size="10.00">::setCurrentColor</text>
</a>
</g>
</g>
<!-- Node22&#45;&gt;Node28 -->
<g id="edge38" class="edge">
<title>Node22&#45;&gt;Node28</title>
<path fill="none" stroke="midnightblue" d="M894.99,-216.78C876.21,-209.04 855.78,-198.92 839,-186.5 819.24,-171.87 823.93,-157.4 803,-144.5 796.95,-140.77 790.34,-137.62 783.52,-134.95"/>
<polygon fill="midnightblue" stroke="midnightblue" points="893.77,-220.05 904.35,-220.5 896.35,-213.55 893.77,-220.05"/>
</g>
<!-- Node30 -->
<g id="node30" class="node">
<title>Node30</title>
<g id="a_node30"><a xlink:href="class_perceptual_color_1_1_color_dialog.html#acf0e7b1b619cee3fc7f5a992e2c93e7d" target="_top" xlink:title="Convenience version of setCurrentOpaqueColor(), accepting QColor.">
<polygon fill="white" stroke="black" points="626.5,-354.5 626.5,-384.5 783.5,-384.5 783.5,-354.5 626.5,-354.5"/>
<text text-anchor="start" x="634.5" y="-372.5" font-family="Helvetica,sans-Serif" font-size="10.00">PerceptualColor::ColorDialog</text>
<text text-anchor="middle" x="705" y="-361.5" font-family="Helvetica,sans-Serif" font-size="10.00">::setCurrentOpaqueQColor</text>
</a>
</g>
</g>
<!-- Node22&#45;&gt;Node30 -->
<g id="edge41" class="edge">
<title>Node22&#45;&gt;Node30</title>
<path fill="none" stroke="midnightblue" d="M914.29,-255.58C864.8,-282.65 777.79,-330.24 733.53,-354.44"/>
<polygon fill="midnightblue" stroke="midnightblue" points="916.28,-258.48 923.37,-250.61 912.92,-252.34 916.28,-258.48"/>
</g>
<!-- Node24 -->
<g id="node24" class="node">
<title>Node24</title>
<g id="a_node24"><a xlink:href="class_perceptual_color_1_1_color_dialog.html#a3c1ad1040ede00087aa11fab1514a6e7" target="_top" xlink:title="Constructor.">
<polygon fill="white" stroke="black" points="0,-157.5 0,-187.5 157,-187.5 157,-157.5 0,-157.5"/>
<text text-anchor="start" x="8" y="-175.5" font-family="Helvetica,sans-Serif" font-size="10.00">PerceptualColor::ColorDialog</text>
<text text-anchor="middle" x="78.5" y="-164.5" font-family="Helvetica,sans-Serif" font-size="10.00">::ColorDialog</text>
</a>
</g>
</g>
<!-- Node23&#45;&gt;Node24 -->
<g id="edge31" class="edge">
<title>Node23&#45;&gt;Node24</title>
<path fill="none" stroke="midnightblue" d="M234.52,-259.34C197.23,-238.46 139.82,-206.29 106.32,-187.53"/>
<polygon fill="midnightblue" stroke="midnightblue" points="233.1,-262.56 243.54,-264.4 236.53,-256.46 233.1,-262.56"/>
</g>
<!-- Node25&#45;&gt;Node23 -->
<g id="edge35" class="edge">
<title>Node25&#45;&gt;Node23</title>
<path fill="none" stroke="midnightblue" d="M624.12,-274.3C606.69,-277.3 588.29,-279.95 571,-281.5 489.11,-288.83 468.22,-282.22 386,-281.5 374.37,-281.4 362.08,-281.24 350.04,-281.05"/>
<polygon fill="midnightblue" stroke="midnightblue" points="625.02,-277.69 634.26,-272.5 623.8,-270.8 625.02,-277.69"/>
</g>
<!-- Node26 -->
<g id="node26" class="node">
<title>Node26</title>
<g id="a_node26"><a xlink:href="class_perceptual_color_1_1_color_dialog.html#a64f6d0e30a627458ccb7bbf4a77ad42b" target="_top" xlink:title="React on focus changes.">
<polygon fill="white" stroke="black" points="400,-242.5 400,-272.5 557,-272.5 557,-242.5 400,-242.5"/>
<text text-anchor="start" x="408" y="-260.5" font-family="Helvetica,sans-Serif" font-size="10.00">PerceptualColor::ColorDialog</text>
<text text-anchor="middle" x="478.5" y="-249.5" font-family="Helvetica,sans-Serif" font-size="10.00">::handleFocusChange</text>
</a>
</g>
</g>
<!-- Node25&#45;&gt;Node26 -->
<g id="edge33" class="edge">
<title>Node25&#45;&gt;Node26</title>
<path fill="none" stroke="midnightblue" d="M616.31,-257.5C596.77,-257.5 576.18,-257.5 557.08,-257.5"/>
<polygon fill="midnightblue" stroke="midnightblue" points="616.43,-261 626.43,-257.5 616.43,-254 616.43,-261"/>
</g>
<!-- Node26&#45;&gt;Node23 -->
<g id="edge34" class="edge">
<title>Node26&#45;&gt;Node23</title>
<path fill="none" stroke="midnightblue" d="M389.95,-266.9C376.71,-268.32 363.13,-269.77 350.11,-271.17"/>
<polygon fill="midnightblue" stroke="midnightblue" points="390.43,-270.36 400,-265.82 389.68,-263.4 390.43,-270.36"/>
</g>
<!-- Node27&#45;&gt;Node23 -->
<g id="edge37" class="edge">
<title>Node27&#45;&gt;Node23</title>
<path fill="none" stroke="midnightblue" d="M616.1,-165.81C550.71,-165.88 460.31,-172.04 386,-199.5 346.88,-213.96 308.8,-245.41 288.22,-264.28"/>
<polygon fill="midnightblue" stroke="midnightblue" points="616.36,-169.31 626.38,-165.84 616.39,-162.31 616.36,-169.31"/>
</g>
<!-- Node28&#45;&gt;Node24 -->
<g id="edge39" class="edge">
<title>Node28&#45;&gt;Node24</title>
<path fill="none" stroke="midnightblue" d="M616.08,-109.93C601.06,-108.5 585.6,-107.27 571,-106.5 488.89,-102.19 467.76,-97.8 386,-106.5 295.88,-116.09 193.33,-141.13 132.65,-157.46"/>
<polygon fill="midnightblue" stroke="midnightblue" points="616.1,-113.45 626.4,-110.95 616.79,-106.48 616.1,-113.45"/>
</g>
<!-- Node29 -->
<g id="node29" class="node">
<title>Node29</title>
<g id="a_node29"><a xlink:href="class_perceptual_color_1_1_color_dialog.html#a08677555088721a366cc839a90b5eea2" target="_top" xlink:title="Pops up a modal color dialog, lets the user choose a color, and returns that color.">
<polygon fill="white" stroke="black" points="400,-116.5 400,-146.5 557,-146.5 557,-116.5 400,-116.5"/>
<text text-anchor="start" x="408" y="-134.5" font-family="Helvetica,sans-Serif" font-size="10.00">PerceptualColor::ColorDialog</text>
<text text-anchor="middle" x="478.5" y="-123.5" font-family="Helvetica,sans-Serif" font-size="10.00">::getColor</text>
</a>
</g>
</g>
<!-- Node28&#45;&gt;Node29 -->
<g id="edge40" class="edge">
<title>Node28&#45;&gt;Node29</title>
<path fill="none" stroke="midnightblue" d="M616.31,-124.8C596.77,-125.75 576.18,-126.76 557.08,-127.7"/>
<polygon fill="midnightblue" stroke="midnightblue" points="616.61,-128.29 626.43,-124.3 616.27,-121.29 616.61,-128.29"/>
</g>
<!-- Node31 -->
<g id="node31" class="node">
<title>Node31</title>
<g id="a_node31"><a xlink:href="class_perceptual_color_1_1_color_dialog.html#ad834c4b1975dd4b226a054497bd1ef47" target="_top" xlink:title="Reads the HSV numbers in the dialog and updates the dialog accordingly.">
<polygon fill="white" stroke="black" points="400,-428.5 400,-458.5 557,-458.5 557,-428.5 400,-428.5"/>
<text text-anchor="start" x="408" y="-446.5" font-family="Helvetica,sans-Serif" font-size="10.00">PerceptualColor::ColorDialog</text>
<text text-anchor="middle" x="478.5" y="-435.5" font-family="Helvetica,sans-Serif" font-size="10.00">::readHsvNumericValues</text>
</a>
</g>
</g>
<!-- Node30&#45;&gt;Node31 -->
<g id="edge42" class="edge">
<title>Node30&#45;&gt;Node31</title>
<path fill="none" stroke="midnightblue" d="M657.72,-388.24C632.34,-398.18 600.18,-410.21 571,-419.5 561.14,-422.64 550.59,-425.68 540.29,-428.49"/>
<polygon fill="midnightblue" stroke="midnightblue" points="659.08,-391.47 667.1,-384.54 656.51,-384.96 659.08,-391.47"/>
</g>
<!-- Node32 -->
<g id="node32" class="node">
<title>Node32</title>
<g id="a_node32"><a xlink:href="class_perceptual_color_1_1_color_dialog.html#a4554999f424ac055986478fe8c899ae1" target="_top" xlink:title="Reads the hexadecimal RGB numbers in the dialog and updates the dialog accordingly.">
<polygon fill="white" stroke="black" points="400,-379.5 400,-409.5 557,-409.5 557,-379.5 400,-379.5"/>
<text text-anchor="start" x="408" y="-397.5" font-family="Helvetica,sans-Serif" font-size="10.00">PerceptualColor::ColorDialog</text>
<text text-anchor="middle" x="478.5" y="-386.5" font-family="Helvetica,sans-Serif" font-size="10.00">::readRgbHexValues</text>
</a>
</g>
</g>
<!-- Node30&#45;&gt;Node32 -->
<g id="edge44" class="edge">
<title>Node30&#45;&gt;Node32</title>
<path fill="none" stroke="midnightblue" d="M616.31,-379.26C596.77,-381.44 576.18,-383.73 557.08,-385.86"/>
<polygon fill="midnightblue" stroke="midnightblue" points="616.87,-382.72 626.43,-378.14 616.1,-375.77 616.87,-382.72"/>
</g>
<!-- Node33 -->
<g id="node33" class="node">
<title>Node33</title>
<g id="a_node33"><a xlink:href="class_perceptual_color_1_1_color_dialog.html#a9bb8f87d25714fc283fdda98424030fe" target="_top" xlink:title="Reads the decimal RGB numbers in the dialog and updates the dialog accordingly.">
<polygon fill="white" stroke="black" points="400,-330.5 400,-360.5 557,-360.5 557,-330.5 400,-330.5"/>
<text text-anchor="start" x="408" y="-348.5" font-family="Helvetica,sans-Serif" font-size="10.00">PerceptualColor::ColorDialog</text>
<text text-anchor="middle" x="478.5" y="-337.5" font-family="Helvetica,sans-Serif" font-size="10.00">::readRgbNumericValues</text>
</a>
</g>
</g>
<!-- Node30&#45;&gt;Node33 -->
<g id="edge46" class="edge">
<title>Node30&#45;&gt;Node33</title>
<path fill="none" stroke="midnightblue" d="M616.31,-360.13C596.77,-358.04 576.18,-355.84 557.08,-353.79"/>
<polygon fill="midnightblue" stroke="midnightblue" points="616.11,-363.62 626.43,-361.21 616.85,-356.66 616.11,-363.62"/>
</g>
<!-- Node31&#45;&gt;Node23 -->
<g id="edge43" class="edge">
<title>Node31&#45;&gt;Node23</title>
<path fill="none" stroke="midnightblue" d="M394.13,-424.2C391.33,-422.75 388.61,-421.18 386,-419.5 335.26,-386.76 296.51,-323.81 280.52,-294.81"/>
<polygon fill="midnightblue" stroke="midnightblue" points="392.78,-427.43 403.32,-428.49 395.74,-421.09 392.78,-427.43"/>
</g>
<!-- Node32&#45;&gt;Node23 -->
<g id="edge45" class="edge">
<title>Node32&#45;&gt;Node23</title>
<path fill="none" stroke="midnightblue" d="M397.82,-375.82C393.76,-374.18 389.8,-372.41 386,-370.5 346.29,-350.52 307.54,-315 287.19,-294.75"/>
<polygon fill="midnightblue" stroke="midnightblue" points="396.83,-379.18 407.42,-379.4 399.28,-372.63 396.83,-379.18"/>
</g>
<!-- Node33&#45;&gt;Node23 -->
<g id="edge47" class="edge">
<title>Node33&#45;&gt;Node23</title>
<path fill="none" stroke="midnightblue" d="M421.07,-327.33C389.14,-317.05 349.66,-304.34 319.43,-294.61"/>
<polygon fill="midnightblue" stroke="midnightblue" points="420.13,-330.71 430.73,-330.44 422.28,-324.04 420.13,-330.71"/>
</g>
</g>
</svg>
