<?xml version="1.0" encoding="UTF-8" standalone="no"?>
<!DOCTYPE svg PUBLIC "-//W3C//DTD SVG 1.1//EN"
 "http://www.w3.org/Graphics/SVG/1.1/DTD/svg11.dtd">
<!-- Generated by graphviz version 2.43.0 (0)
 -->
<!-- Title: PerceptualColor::ChromaLightnessDiagram::setImageCoordinates Pages: 1 -->
<svg width="1267pt" height="244pt"
 viewBox="0.00 0.00 1267.00 244.26" xmlns="http://www.w3.org/2000/svg" xmlns:xlink="http://www.w3.org/1999/xlink">
<g id="graph0" class="graph" transform="scale(1 1) rotate(0) translate(4 240.26)">
<title>PerceptualColor::ChromaLightnessDiagram::setImageCoordinates</title>
<polygon fill="white" stroke="transparent" points="-4,4 -4,-240.26 1263,-240.26 1263,4 -4,4"/>
<!-- Node1 -->
<g id="node1" class="node">
<title>Node1</title>
<g id="a_node1"><a xlink:title=" ">
<polygon fill="#bfbfbf" stroke="black" points="0,-97.18 0,-127.18 185,-127.18 185,-97.18 0,-97.18"/>
<text text-anchor="start" x="8" y="-115.18" font-family="Helvetica,sans-Serif" font-size="10.00">PerceptualColor::ChromaLightness</text>
<text text-anchor="middle" x="92.5" y="-104.18" font-family="Helvetica,sans-Serif" font-size="10.00">Diagram::setImageCoordinates</text>
</a>
</g>
</g>
<!-- Node2 -->
<g id="node2" class="node">
<title>Node2</title>
<g id="a_node2"><a xlink:href="class_perceptual_color_1_1_chroma_lightness_diagram.html#a9f6471b44d4f4eba95914945bc53037a" target="_top" xlink:title=" ">
<polygon fill="white" stroke="black" points="240,-119.18 240,-149.18 428,-149.18 428,-119.18 240,-119.18"/>
<text text-anchor="start" x="248" y="-137.18" font-family="Helvetica,sans-Serif" font-size="10.00">PerceptualColor::ChromaLightness</text>
<text text-anchor="middle" x="334" y="-126.18" font-family="Helvetica,sans-Serif" font-size="10.00">Diagram::currentImageCoordinates</text>
</a>
</g>
</g>
<!-- Node1&#45;&gt;Node2 -->
<g id="edge1" class="edge">
<title>Node1&#45;&gt;Node2</title>
<path fill="none" stroke="midnightblue" d="M185.07,-120.59C199.66,-121.93 214.85,-123.32 229.69,-124.69"/>
<polygon fill="midnightblue" stroke="midnightblue" points="229.62,-128.19 239.89,-125.62 230.26,-121.22 229.62,-128.19"/>
</g>
<!-- Node3 -->
<g id="node3" class="node">
<title>Node3</title>
<g id="a_node3"><a xlink:href="class_perceptual_color_1_1_full_color_description.html#acdbff4639f8a118f0d13a831a4b57ffe" target="_top" xlink:title=" ">
<polygon fill="white" stroke="black" points="725,-96.18 725,-126.18 868,-126.18 868,-96.18 725,-96.18"/>
<text text-anchor="start" x="733" y="-114.18" font-family="Helvetica,sans-Serif" font-size="10.00">PerceptualColor::FullColor</text>
<text text-anchor="middle" x="796.5" y="-103.18" font-family="Helvetica,sans-Serif" font-size="10.00">Description::toLch</text>
</a>
</g>
</g>
<!-- Node1&#45;&gt;Node3 -->
<g id="edge14" class="edge">
<title>Node1&#45;&gt;Node3</title>
<path fill="none" stroke="midnightblue" d="M108.21,-96.82C130.29,-75.03 174.38,-36.11 221,-21.18 414.34,40.74 658.43,-50.15 754.24,-91.99"/>
<polygon fill="midnightblue" stroke="midnightblue" points="753.01,-95.27 763.57,-96.11 755.84,-88.87 753.01,-95.27"/>
</g>
<!-- Node4 -->
<g id="node4" class="node">
<title>Node4</title>
<g id="a_node4"><a xlink:href="class_perceptual_color_1_1_chroma_lightness_diagram.html#a7d48f62249ffee09f55edfd3c127eb84" target="_top" xlink:title="Refresh the diagram and associated data.">
<polygon fill="white" stroke="black" points="483,-165.18 483,-195.18 668,-195.18 668,-165.18 483,-165.18"/>
<text text-anchor="start" x="491" y="-183.18" font-family="Helvetica,sans-Serif" font-size="10.00">PerceptualColor::ChromaLightness</text>
<text text-anchor="middle" x="575.5" y="-172.18" font-family="Helvetica,sans-Serif" font-size="10.00">Diagram::updateDiagramCache</text>
</a>
</g>
</g>
<!-- Node1&#45;&gt;Node4 -->
<g id="edge15" class="edge">
<title>Node1&#45;&gt;Node4</title>
<path fill="none" stroke="midnightblue" d="M105.23,-127.28C125.6,-152.12 170.22,-200.69 221,-219.18 325.24,-257.12 457.28,-222.6 526.76,-198.63"/>
<polygon fill="midnightblue" stroke="midnightblue" points="528.27,-201.81 536.54,-195.18 525.95,-195.21 528.27,-201.81"/>
</g>
<!-- Node9 -->
<g id="node9" class="node">
<title>Node9</title>
<g id="a_node9"><a xlink:href="class_perceptual_color_1_1_chroma_lightness_diagram.html#a9bfa53bcbfd4010c082294c9cfb5b2eb" target="_top" xlink:title=" ">
<polygon fill="white" stroke="black" points="221,-168.68 221,-209.68 447,-209.68 447,-168.68 221,-168.68"/>
<text text-anchor="start" x="229" y="-197.68" font-family="Helvetica,sans-Serif" font-size="10.00">PerceptualColor::ChromaLightness</text>
<text text-anchor="start" x="229" y="-186.68" font-family="Helvetica,sans-Serif" font-size="10.00">Diagram::fromImageCoordinatesToChroma</text>
<text text-anchor="middle" x="334" y="-175.68" font-family="Helvetica,sans-Serif" font-size="10.00">Lightness</text>
</a>
</g>
</g>
<!-- Node1&#45;&gt;Node9 -->
<g id="edge9" class="edge">
<title>Node1&#45;&gt;Node9</title>
<path fill="none" stroke="midnightblue" d="M131.4,-127.18C156.6,-136.9 190.53,-149.5 221,-159.18 227.99,-161.4 235.26,-163.59 242.59,-165.72"/>
<polygon fill="midnightblue" stroke="midnightblue" points="242.02,-169.2 252.6,-168.59 243.95,-162.47 242.02,-169.2"/>
</g>
<!-- Node10 -->
<g id="node10" class="node">
<title>Node10</title>
<g id="a_node10"><a xlink:href="class_perceptual_color_1_1_chroma_lightness_diagram.html#a5dfa80fbb52c1217a61fb9adb108bd14" target="_top" xlink:title="Search the nearest non&#45;transparent neighbor pixel.">
<polygon fill="white" stroke="black" points="241.5,-31.18 241.5,-61.18 426.5,-61.18 426.5,-31.18 241.5,-31.18"/>
<text text-anchor="start" x="249.5" y="-49.18" font-family="Helvetica,sans-Serif" font-size="10.00">PerceptualColor::ChromaLightness</text>
<text text-anchor="middle" x="334" y="-38.18" font-family="Helvetica,sans-Serif" font-size="10.00">Diagram::nearestNeighborSearch</text>
</a>
</g>
</g>
<!-- Node1&#45;&gt;Node10 -->
<g id="edge11" class="edge">
<title>Node1&#45;&gt;Node10</title>
<path fill="none" stroke="midnightblue" d="M146.18,-97.13C169.14,-90.61 196.38,-82.95 221,-76.18 235.73,-72.12 251.56,-67.84 266.56,-63.81"/>
<polygon fill="midnightblue" stroke="midnightblue" points="267.52,-67.18 276.27,-61.21 265.7,-60.42 267.52,-67.18"/>
</g>
<!-- Node11 -->
<g id="node11" class="node">
<title>Node11</title>
<g id="a_node11"><a xlink:href="class_perceptual_color_1_1_chroma_lightness_diagram.html#a27d7c972e420480674da1a0fae0b10b3" target="_top" xlink:title="Setter for the color() property.">
<polygon fill="white" stroke="black" points="483,-75.18 483,-105.18 668,-105.18 668,-75.18 483,-75.18"/>
<text text-anchor="start" x="491" y="-93.18" font-family="Helvetica,sans-Serif" font-size="10.00">PerceptualColor::ChromaLightness</text>
<text text-anchor="middle" x="575.5" y="-82.18" font-family="Helvetica,sans-Serif" font-size="10.00">Diagram::setColor</text>
</a>
</g>
</g>
<!-- Node1&#45;&gt;Node11 -->
<g id="edge12" class="edge">
<title>Node1&#45;&gt;Node11</title>
<path fill="none" stroke="midnightblue" d="M185.1,-107.99C267.22,-104.23 387.51,-98.73 472.63,-94.83"/>
<polygon fill="midnightblue" stroke="midnightblue" points="473,-98.32 482.83,-94.37 472.68,-91.33 473,-98.32"/>
</g>
<!-- Node2&#45;&gt;Node3 -->
<g id="edge2" class="edge">
<title>Node2&#45;&gt;Node3</title>
<path fill="none" stroke="midnightblue" d="M428.19,-129.52C512.24,-125.32 634.61,-119.21 714.63,-115.21"/>
<polygon fill="midnightblue" stroke="midnightblue" points="714.84,-118.71 724.65,-114.71 714.49,-111.72 714.84,-118.71"/>
</g>
<!-- Node2&#45;&gt;Node4 -->
<g id="edge3" class="edge">
<title>Node2&#45;&gt;Node4</title>
<path fill="none" stroke="midnightblue" d="M413.42,-149.24C436.7,-153.71 462.35,-158.64 486.21,-163.22"/>
<polygon fill="midnightblue" stroke="midnightblue" points="485.83,-166.71 496.31,-165.16 487.15,-159.83 485.83,-166.71"/>
</g>
<!-- Node4&#45;&gt;Node3 -->
<g id="edge8" class="edge">
<title>Node4&#45;&gt;Node3</title>
<path fill="none" stroke="midnightblue" d="M624.29,-165.12C657.77,-154.57 702.67,-140.42 738.09,-129.26"/>
<polygon fill="midnightblue" stroke="midnightblue" points="739.33,-132.54 747.81,-126.2 737.22,-125.87 739.33,-132.54"/>
</g>
<!-- Node5 -->
<g id="node5" class="node">
<title>Node5</title>
<g id="a_node5"><a xlink:href="class_perceptual_color_1_1_chroma_lightness_diagram.html#ae0395993434db2cd0d74b146fed6621c" target="_top" xlink:title="Generates an image of a chroma&#45;lightness diagram.">
<polygon fill="white" stroke="black" points="704,-165.18 704,-195.18 889,-195.18 889,-165.18 704,-165.18"/>
<text text-anchor="start" x="712" y="-183.18" font-family="Helvetica,sans-Serif" font-size="10.00">PerceptualColor::ChromaLightness</text>
<text text-anchor="middle" x="796.5" y="-172.18" font-family="Helvetica,sans-Serif" font-size="10.00">Diagram::generateDiagramImage</text>
</a>
</g>
</g>
<!-- Node4&#45;&gt;Node5 -->
<g id="edge4" class="edge">
<title>Node4&#45;&gt;Node5</title>
<path fill="none" stroke="midnightblue" d="M668.11,-180.18C676.62,-180.18 685.27,-180.18 693.86,-180.18"/>
<polygon fill="midnightblue" stroke="midnightblue" points="693.91,-183.68 703.91,-180.18 693.91,-176.68 693.91,-183.68"/>
</g>
<!-- Node6 -->
<g id="node6" class="node">
<title>Node6</title>
<g id="a_node6"><a xlink:href="class_perceptual_color_1_1_rgb_color_space.html#ab494c2d0f561c49b8325688a8ddc0095" target="_top" xlink:title="Calculates the RGB value.">
<polygon fill="white" stroke="black" points="927.5,-189.18 927.5,-219.18 1071.5,-219.18 1071.5,-189.18 927.5,-189.18"/>
<text text-anchor="start" x="935.5" y="-207.18" font-family="Helvetica,sans-Serif" font-size="10.00">PerceptualColor::RgbColor</text>
<text text-anchor="middle" x="999.5" y="-196.18" font-family="Helvetica,sans-Serif" font-size="10.00">Space::colorRgb</text>
</a>
</g>
</g>
<!-- Node5&#45;&gt;Node6 -->
<g id="edge5" class="edge">
<title>Node5&#45;&gt;Node6</title>
<path fill="none" stroke="midnightblue" d="M889.18,-191.12C898.61,-192.25 908.14,-193.39 917.44,-194.5"/>
<polygon fill="midnightblue" stroke="midnightblue" points="917.08,-197.98 927.43,-195.69 917.91,-191.03 917.08,-197.98"/>
</g>
<!-- Node7 -->
<g id="node7" class="node">
<title>Node7</title>
<g id="a_node7"><a xlink:href="class_perceptual_color_1_1_polar_point_f.html#a9eefd08d3a5ad536232292380f958804" target="_top" xlink:title="Normalizes an angle.">
<polygon fill="white" stroke="black" points="925,-140.18 925,-170.18 1074,-170.18 1074,-140.18 925,-140.18"/>
<text text-anchor="start" x="933" y="-158.18" font-family="Helvetica,sans-Serif" font-size="10.00">PerceptualColor::PolarPoint</text>
<text text-anchor="middle" x="999.5" y="-147.18" font-family="Helvetica,sans-Serif" font-size="10.00">F::normalizedAngleDegree</text>
</a>
</g>
</g>
<!-- Node5&#45;&gt;Node7 -->
<g id="edge6" class="edge">
<title>Node5&#45;&gt;Node7</title>
<path fill="none" stroke="midnightblue" d="M889.18,-168.77C897.64,-167.72 906.19,-166.66 914.58,-165.61"/>
<polygon fill="midnightblue" stroke="midnightblue" points="915.23,-169.06 924.72,-164.35 914.37,-162.11 915.23,-169.06"/>
</g>
<!-- Node8 -->
<g id="node8" class="node">
<title>Node8</title>
<g id="a_node8"><a xlink:href="class_perceptual_color_1_1_polar_point_f.html#a882cd166affc603fc62241dcb3be4fd5" target="_top" xlink:title="Normalized angle.">
<polygon fill="white" stroke="black" points="1110,-140.18 1110,-170.18 1259,-170.18 1259,-140.18 1110,-140.18"/>
<text text-anchor="start" x="1118" y="-158.18" font-family="Helvetica,sans-Serif" font-size="10.00">PerceptualColor::PolarPoint</text>
<text text-anchor="middle" x="1184.5" y="-147.18" font-family="Helvetica,sans-Serif" font-size="10.00">F::angleDegree</text>
</a>
</g>
</g>
<!-- Node7&#45;&gt;Node8 -->
<g id="edge7" class="edge">
<title>Node7&#45;&gt;Node8</title>
<path fill="none" stroke="midnightblue" d="M1074.14,-155.18C1082.47,-155.18 1091.01,-155.18 1099.46,-155.18"/>
<polygon fill="midnightblue" stroke="midnightblue" points="1099.71,-158.68 1109.71,-155.18 1099.71,-151.68 1099.71,-158.68"/>
</g>
<!-- Node9&#45;&gt;Node4 -->
<g id="edge10" class="edge">
<title>Node9&#45;&gt;Node4</title>
<path fill="none" stroke="midnightblue" d="M447.04,-184.97C455.52,-184.65 464.05,-184.33 472.47,-184.01"/>
<polygon fill="midnightblue" stroke="midnightblue" points="472.8,-187.5 482.66,-183.63 472.54,-180.5 472.8,-187.5"/>
</g>
<!-- Node11&#45;&gt;Node3 -->
<g id="edge13" class="edge">
<title>Node11&#45;&gt;Node3</title>
<path fill="none" stroke="midnightblue" d="M668.11,-98.96C683.53,-100.44 699.45,-101.97 714.58,-103.42"/>
<polygon fill="midnightblue" stroke="midnightblue" points="714.63,-106.94 724.92,-104.41 715.3,-99.97 714.63,-106.94"/>
</g>
</g>
</svg>
