<?xml version="1.0" encoding="UTF-8" standalone="no"?>
<!DOCTYPE svg PUBLIC "-//W3C//DTD SVG 1.1//EN"
 "http://www.w3.org/Graphics/SVG/1.1/DTD/svg11.dtd">
<!-- Generated by graphviz version 2.43.0 (0)
 -->
<!-- Title: PerceptualColor::ColorDialog::setCurrentColor Pages: 1 -->
<svg width="1162pt" height="537pt"
 viewBox="0.00 0.00 1162.00 537.00" xmlns="http://www.w3.org/2000/svg" xmlns:xlink="http://www.w3.org/1999/xlink">
<g id="graph0" class="graph" transform="scale(1 1) rotate(0) translate(4 533)">
<title>PerceptualColor::ColorDialog::setCurrentColor</title>
<polygon fill="white" stroke="transparent" points="-4,4 -4,-533 1158,-533 1158,4 -4,4"/>
<!-- Node1 -->
<g id="node1" class="node">
<title>Node1</title>
<g id="a_node1"><a xlink:title="Setter for currentColor property.">
<polygon fill="#bfbfbf" stroke="black" points="0,-235.5 0,-265.5 157,-265.5 157,-235.5 0,-235.5"/>
<text text-anchor="start" x="8" y="-253.5" font-family="Helvetica,sans-Serif" font-size="10.00">PerceptualColor::ColorDialog</text>
<text text-anchor="middle" x="78.5" y="-242.5" font-family="Helvetica,sans-Serif" font-size="10.00">::setCurrentColor</text>
</a>
</g>
</g>
<!-- Node2 -->
<g id="node2" class="node">
<title>Node2</title>
<g id="a_node2"><a xlink:href="class_perceptual_color_1_1_alpha_selector.html#a1f85608426b1828b131c058fa108fff7" target="_top" xlink:title=" ">
<polygon fill="white" stroke="black" points="193,-379.5 193,-409.5 360,-409.5 360,-379.5 193,-379.5"/>
<text text-anchor="start" x="201" y="-397.5" font-family="Helvetica,sans-Serif" font-size="10.00">PerceptualColor::AlphaSelector</text>
<text text-anchor="middle" x="276.5" y="-386.5" font-family="Helvetica,sans-Serif" font-size="10.00">::setAlpha</text>
</a>
</g>
</g>
<!-- Node1&#45;&gt;Node2 -->
<g id="edge1" class="edge">
<title>Node1&#45;&gt;Node2</title>
<path fill="none" stroke="midnightblue" d="M100.1,-265.64C135.18,-291.4 206.55,-343.84 246.59,-373.26"/>
<polygon fill="midnightblue" stroke="midnightblue" points="244.75,-376.25 254.88,-379.35 248.89,-370.61 244.75,-376.25"/>
</g>
<!-- Node4 -->
<g id="node4" class="node">
<title>Node4</title>
<g id="a_node4"><a xlink:href="class_perceptual_color_1_1_color_dialog.html#abd0da334b7034a67a3cc83bc3ed0a425" target="_top" xlink:title="Updates m_currentOpaqueColor and all affected widgets.">
<polygon fill="white" stroke="black" points="198,-235.5 198,-265.5 355,-265.5 355,-235.5 198,-235.5"/>
<text text-anchor="start" x="206" y="-253.5" font-family="Helvetica,sans-Serif" font-size="10.00">PerceptualColor::ColorDialog</text>
<text text-anchor="middle" x="276.5" y="-242.5" font-family="Helvetica,sans-Serif" font-size="10.00">::setCurrentOpaqueColor</text>
</a>
</g>
</g>
<!-- Node1&#45;&gt;Node4 -->
<g id="edge3" class="edge">
<title>Node1&#45;&gt;Node4</title>
<path fill="none" stroke="midnightblue" d="M157.25,-250.5C167.27,-250.5 177.58,-250.5 187.75,-250.5"/>
<polygon fill="midnightblue" stroke="midnightblue" points="187.85,-254 197.85,-250.5 187.85,-247 187.85,-254"/>
</g>
<!-- Node21 -->
<g id="node21" class="node">
<title>Node21</title>
<g id="a_node21"><a xlink:href="class_perceptual_color_1_1_color_dialog.html#a089b98a6748380428f2d77411168e930" target="_top" xlink:title="Getter for options.">
<polygon fill="white" stroke="black" points="198,-186.5 198,-216.5 355,-216.5 355,-186.5 198,-186.5"/>
<text text-anchor="start" x="206" y="-204.5" font-family="Helvetica,sans-Serif" font-size="10.00">PerceptualColor::ColorDialog</text>
<text text-anchor="middle" x="276.5" y="-193.5" font-family="Helvetica,sans-Serif" font-size="10.00">::testOption</text>
</a>
</g>
</g>
<!-- Node1&#45;&gt;Node21 -->
<g id="edge27" class="edge">
<title>Node1&#45;&gt;Node21</title>
<path fill="none" stroke="midnightblue" d="M139.64,-235.47C160.52,-230.24 184.11,-224.35 205.71,-218.95"/>
<polygon fill="midnightblue" stroke="midnightblue" points="206.62,-222.33 215.48,-216.51 204.92,-215.54 206.62,-222.33"/>
</g>
<!-- Node3 -->
<g id="node3" class="node">
<title>Node3</title>
<g id="a_node3"><a xlink:href="class_perceptual_color_1_1_gradient_selector.html#a1548390b891333547c1dee97573be568" target="_top" xlink:title=" ">
<polygon fill="white" stroke="black" points="408.5,-453.5 408.5,-483.5 550.5,-483.5 550.5,-453.5 408.5,-453.5"/>
<text text-anchor="start" x="416.5" y="-471.5" font-family="Helvetica,sans-Serif" font-size="10.00">PerceptualColor::Gradient</text>
<text text-anchor="middle" x="479.5" y="-460.5" font-family="Helvetica,sans-Serif" font-size="10.00">Selector::setFraction</text>
</a>
</g>
</g>
<!-- Node2&#45;&gt;Node3 -->
<g id="edge2" class="edge">
<title>Node2&#45;&gt;Node3</title>
<path fill="none" stroke="midnightblue" d="M310.3,-409.55C333.86,-420.07 366.54,-434.04 396,-444.5 401.58,-446.48 407.42,-448.43 413.3,-450.3"/>
<polygon fill="midnightblue" stroke="midnightblue" points="412.6,-453.75 423.19,-453.37 414.68,-447.06 412.6,-453.75"/>
</g>
<!-- Node4&#45;&gt;Node3 -->
<g id="edge17" class="edge">
<title>Node4&#45;&gt;Node3</title>
<path fill="none" stroke="midnightblue" d="M288.94,-265.55C305.61,-287.83 337.09,-331.18 360,-370.5 378.41,-402.1 368.04,-420.92 396,-444.5 397.54,-445.8 399.15,-447.03 400.81,-448.19"/>
<polygon fill="midnightblue" stroke="midnightblue" points="399.16,-451.28 409.53,-453.46 402.78,-445.29 399.16,-451.28"/>
</g>
<!-- Node5 -->
<g id="node5" class="node">
<title>Node5</title>
<g id="a_node5"><a xlink:href="class_perceptual_color_1_1_full_color_description.html#a45a4e34ce415f9fc71f3fe4847c89068" target="_top" xlink:title=" ">
<polygon fill="white" stroke="black" points="408,-306.5 408,-336.5 551,-336.5 551,-306.5 408,-306.5"/>
<text text-anchor="start" x="416" y="-324.5" font-family="Helvetica,sans-Serif" font-size="10.00">PerceptualColor::FullColor</text>
<text text-anchor="middle" x="479.5" y="-313.5" font-family="Helvetica,sans-Serif" font-size="10.00">Description::isValid</text>
</a>
</g>
</g>
<!-- Node4&#45;&gt;Node5 -->
<g id="edge4" class="edge">
<title>Node4&#45;&gt;Node5</title>
<path fill="none" stroke="midnightblue" d="M312.95,-265.58C336.33,-275.27 367.74,-287.81 396,-297.5 401.93,-299.53 408.13,-301.54 414.36,-303.49"/>
<polygon fill="midnightblue" stroke="midnightblue" points="413.54,-306.9 424.13,-306.48 415.59,-300.2 413.54,-306.9"/>
</g>
<!-- Node6 -->
<g id="node6" class="node">
<title>Node6</title>
<g id="a_node6"><a xlink:href="class_perceptual_color_1_1_alpha_selector.html#ac9faa6bbf68757f843e4cce92d697067" target="_top" xlink:title=" ">
<polygon fill="white" stroke="black" points="396,-404.5 396,-434.5 563,-434.5 563,-404.5 396,-404.5"/>
<text text-anchor="start" x="404" y="-422.5" font-family="Helvetica,sans-Serif" font-size="10.00">PerceptualColor::AlphaSelector</text>
<text text-anchor="middle" x="479.5" y="-411.5" font-family="Helvetica,sans-Serif" font-size="10.00">::setColor</text>
</a>
</g>
</g>
<!-- Node4&#45;&gt;Node6 -->
<g id="edge5" class="edge">
<title>Node4&#45;&gt;Node6</title>
<path fill="none" stroke="midnightblue" d="M285.73,-265.77C302.47,-295.38 343.39,-360.71 396,-395.5 398.45,-397.12 401.01,-398.63 403.65,-400.05"/>
<polygon fill="midnightblue" stroke="midnightblue" points="402.36,-403.31 412.89,-404.47 405.38,-396.99 402.36,-403.31"/>
</g>
<!-- Node8 -->
<g id="node8" class="node">
<title>Node8</title>
<g id="a_node8"><a xlink:href="class_perceptual_color_1_1_full_color_description.html#acdbff4639f8a118f0d13a831a4b57ffe" target="_top" xlink:title=" ">
<polygon fill="white" stroke="black" points="823,-246.5 823,-276.5 966,-276.5 966,-246.5 823,-246.5"/>
<text text-anchor="start" x="831" y="-264.5" font-family="Helvetica,sans-Serif" font-size="10.00">PerceptualColor::FullColor</text>
<text text-anchor="middle" x="894.5" y="-253.5" font-family="Helvetica,sans-Serif" font-size="10.00">Description::toLch</text>
</a>
</g>
</g>
<!-- Node4&#45;&gt;Node8 -->
<g id="edge21" class="edge">
<title>Node4&#45;&gt;Node8</title>
<path fill="none" stroke="midnightblue" d="M332.6,-235.41C341.85,-232.42 351.28,-229.08 360,-225.5 376.73,-218.62 378.96,-212.58 396,-206.5 559.34,-148.27 621.71,-104.43 784,-165.5 822.52,-180 856.33,-214.88 875.85,-238.36"/>
<polygon fill="midnightblue" stroke="midnightblue" points="873.13,-240.56 882.14,-246.14 878.57,-236.16 873.13,-240.56"/>
</g>
<!-- Node9 -->
<g id="node9" class="node">
<title>Node9</title>
<g id="a_node9"><a xlink:href="class_perceptual_color_1_1_chroma_hue_diagram.html#a443db20bc2c25119febcd61ca9299d21" target="_top" xlink:title="Setter for the color() property.">
<polygon fill="white" stroke="black" points="612.5,-87.5 612.5,-117.5 770.5,-117.5 770.5,-87.5 612.5,-87.5"/>
<text text-anchor="start" x="620.5" y="-105.5" font-family="Helvetica,sans-Serif" font-size="10.00">PerceptualColor::ChromaHue</text>
<text text-anchor="middle" x="691.5" y="-94.5" font-family="Helvetica,sans-Serif" font-size="10.00">Diagram::setColor</text>
</a>
</g>
</g>
<!-- Node4&#45;&gt;Node9 -->
<g id="edge8" class="edge">
<title>Node4&#45;&gt;Node9</title>
<path fill="none" stroke="midnightblue" d="M346.02,-235.4C351.08,-232.64 355.83,-229.37 360,-225.5 392.49,-195.36 360.76,-159.38 396,-132.5 427.37,-108.58 527.04,-102.56 601.8,-101.57"/>
<polygon fill="midnightblue" stroke="midnightblue" points="602.21,-105.07 612.17,-101.47 602.14,-98.07 602.21,-105.07"/>
</g>
<!-- Node10 -->
<g id="node10" class="node">
<title>Node10</title>
<g id="a_node10"><a xlink:href="class_perceptual_color_1_1_wheel_color_picker.html#a5f3a58bb672323221c98c2285404bf76" target="_top" xlink:title="Setter for currentColorRgb() property.">
<polygon fill="white" stroke="black" points="401.5,-355.5 401.5,-385.5 557.5,-385.5 557.5,-355.5 401.5,-355.5"/>
<text text-anchor="start" x="409.5" y="-373.5" font-family="Helvetica,sans-Serif" font-size="10.00">PerceptualColor::WheelColor</text>
<text text-anchor="middle" x="479.5" y="-362.5" font-family="Helvetica,sans-Serif" font-size="10.00">Picker::setCurrentColor</text>
</a>
</g>
</g>
<!-- Node4&#45;&gt;Node10 -->
<g id="edge10" class="edge">
<title>Node4&#45;&gt;Node10</title>
<path fill="none" stroke="midnightblue" d="M292.17,-265.72C313.26,-286.78 354.24,-324.65 396,-346.5 399.54,-348.35 403.25,-350.08 407.04,-351.69"/>
<polygon fill="midnightblue" stroke="midnightblue" points="406.03,-355.05 416.61,-355.45 408.58,-348.54 406.03,-355.05"/>
</g>
<!-- Node15 -->
<g id="node15" class="node">
<title>Node15</title>
<g id="a_node15"><a xlink:href="class_perceptual_color_1_1_color_dialog.html#a38134a3e22f2b3df4602a08025ec1d52" target="_top" xlink:title="Get text for m_hlcLineEdit based on m_currentOpaqueColor.">
<polygon fill="white" stroke="black" points="613,-175.5 613,-205.5 770,-205.5 770,-175.5 613,-175.5"/>
<text text-anchor="start" x="621" y="-193.5" font-family="Helvetica,sans-Serif" font-size="10.00">PerceptualColor::ColorDialog</text>
<text text-anchor="middle" x="691.5" y="-182.5" font-family="Helvetica,sans-Serif" font-size="10.00">::textForHlcLineEdit</text>
</a>
</g>
</g>
<!-- Node4&#45;&gt;Node15 -->
<g id="edge18" class="edge">
<title>Node4&#45;&gt;Node15</title>
<path fill="none" stroke="midnightblue" d="M355.18,-239.21C425.59,-228.99 529.27,-213.92 602.67,-203.26"/>
<polygon fill="midnightblue" stroke="midnightblue" points="603.42,-206.69 612.82,-201.79 602.42,-199.76 603.42,-206.69"/>
</g>
<!-- Node16 -->
<g id="node16" class="node">
<title>Node16</title>
<g id="a_node16"><a xlink:href="class_perceptual_color_1_1_full_color_description.html#aaa17133c6e1d040b2f088e79a42d3283" target="_top" xlink:title=" ">
<polygon fill="white" stroke="black" points="408,-49.5 408,-79.5 551,-79.5 551,-49.5 408,-49.5"/>
<text text-anchor="start" x="416" y="-67.5" font-family="Helvetica,sans-Serif" font-size="10.00">PerceptualColor::FullColor</text>
<text text-anchor="middle" x="479.5" y="-56.5" font-family="Helvetica,sans-Serif" font-size="10.00">Description::toHsvQColor</text>
</a>
</g>
</g>
<!-- Node4&#45;&gt;Node16 -->
<g id="edge20" class="edge">
<title>Node4&#45;&gt;Node16</title>
<path fill="none" stroke="midnightblue" d="M347.23,-235.39C351.91,-232.63 356.24,-229.36 360,-225.5 402.14,-182.25 355.06,-138.88 396,-94.5 399.37,-90.84 403.23,-87.63 407.39,-84.81"/>
<polygon fill="midnightblue" stroke="midnightblue" points="409.47,-87.64 416.3,-79.55 405.91,-81.62 409.47,-87.64"/>
</g>
<!-- Node17 -->
<g id="node17" class="node">
<title>Node17</title>
<g id="a_node17"><a xlink:href="class_perceptual_color_1_1_full_color_description.html#a572e2abe28e31c6315732d30f06b1732" target="_top" xlink:title="A string with a hexadecimal representation of the color.">
<polygon fill="white" stroke="black" points="402,-0.5 402,-30.5 557,-30.5 557,-0.5 402,-0.5"/>
<text text-anchor="start" x="410" y="-18.5" font-family="Helvetica,sans-Serif" font-size="10.00">PerceptualColor::FullColor</text>
<text text-anchor="middle" x="479.5" y="-7.5" font-family="Helvetica,sans-Serif" font-size="10.00">Description::toRgbHexString</text>
</a>
</g>
</g>
<!-- Node4&#45;&gt;Node17 -->
<g id="edge22" class="edge">
<title>Node4&#45;&gt;Node17</title>
<path fill="none" stroke="midnightblue" d="M347.95,-235.47C352.4,-232.68 356.49,-229.39 360,-225.5 416.39,-162.97 339.26,-101.71 396,-39.5 396.78,-38.65 397.59,-37.82 398.42,-37.03"/>
<polygon fill="midnightblue" stroke="midnightblue" points="400.87,-39.55 406.56,-30.61 396.54,-34.05 400.87,-39.55"/>
</g>
<!-- Node18 -->
<g id="node18" class="node">
<title>Node18</title>
<g id="a_node18"><a xlink:href="class_perceptual_color_1_1_full_color_description.html#aad1d9cc70b7a9ae81c829c391334d768" target="_top" xlink:title=" ">
<polygon fill="white" stroke="black" points="620,-224.5 620,-254.5 763,-254.5 763,-224.5 620,-224.5"/>
<text text-anchor="start" x="628" y="-242.5" font-family="Helvetica,sans-Serif" font-size="10.00">PerceptualColor::FullColor</text>
<text text-anchor="middle" x="691.5" y="-231.5" font-family="Helvetica,sans-Serif" font-size="10.00">Description::toRgbQColor</text>
</a>
</g>
</g>
<!-- Node4&#45;&gt;Node18 -->
<g id="edge23" class="edge">
<title>Node4&#45;&gt;Node18</title>
<path fill="none" stroke="midnightblue" d="M355.18,-248.43C427.82,-246.5 535.87,-243.62 609.55,-241.66"/>
<polygon fill="midnightblue" stroke="midnightblue" points="609.81,-245.15 619.71,-241.39 609.62,-238.15 609.81,-245.15"/>
</g>
<!-- Node19 -->
<g id="node19" class="node">
<title>Node19</title>
<g id="a_node19"><a xlink:href="class_perceptual_color_1_1_color_dialog.html#a18985e0cf14c64400f1edc5f64da159d" target="_top" xlink:title="Updates the color patch widget.">
<polygon fill="white" stroke="black" points="401,-257.5 401,-287.5 558,-287.5 558,-257.5 401,-257.5"/>
<text text-anchor="start" x="409" y="-275.5" font-family="Helvetica,sans-Serif" font-size="10.00">PerceptualColor::ColorDialog</text>
<text text-anchor="middle" x="479.5" y="-264.5" font-family="Helvetica,sans-Serif" font-size="10.00">::updateColorPatch</text>
</a>
</g>
</g>
<!-- Node4&#45;&gt;Node19 -->
<g id="edge24" class="edge">
<title>Node4&#45;&gt;Node19</title>
<path fill="none" stroke="midnightblue" d="M355.21,-259.01C366.95,-260.29 379.12,-261.62 391.05,-262.93"/>
<polygon fill="midnightblue" stroke="midnightblue" points="390.67,-266.41 400.99,-264.02 391.44,-259.45 390.67,-266.41"/>
</g>
<!-- Node7 -->
<g id="node7" class="node">
<title>Node7</title>
<g id="a_node7"><a xlink:href="class_perceptual_color_1_1_gradient_selector.html#aabfd1c82565fb7c491e3bf1735beca11" target="_top" xlink:title=" ">
<polygon fill="white" stroke="black" points="620.5,-498.5 620.5,-528.5 762.5,-528.5 762.5,-498.5 620.5,-498.5"/>
<text text-anchor="start" x="628.5" y="-516.5" font-family="Helvetica,sans-Serif" font-size="10.00">PerceptualColor::Gradient</text>
<text text-anchor="middle" x="691.5" y="-505.5" font-family="Helvetica,sans-Serif" font-size="10.00">Selector::setColors</text>
</a>
</g>
</g>
<!-- Node6&#45;&gt;Node7 -->
<g id="edge6" class="edge">
<title>Node6&#45;&gt;Node7</title>
<path fill="none" stroke="midnightblue" d="M543.33,-434.64C550.21,-437.42 556.91,-440.69 563,-444.5 582.99,-457.03 579.15,-470.75 599,-483.5 605.63,-487.76 612.91,-491.46 620.39,-494.68"/>
<polygon fill="midnightblue" stroke="midnightblue" points="619.35,-498.03 629.93,-498.49 621.94,-491.53 619.35,-498.03"/>
</g>
<!-- Node6&#45;&gt;Node8 -->
<g id="edge7" class="edge">
<title>Node6&#45;&gt;Node8</title>
<path fill="none" stroke="midnightblue" d="M526.67,-434.51C548.37,-440.81 574.74,-447.38 599,-450.5 680.55,-460.99 712.76,-491.56 784,-450.5 800.17,-441.18 856.23,-334.42 881.26,-285.6"/>
<polygon fill="midnightblue" stroke="midnightblue" points="884.4,-287.15 885.83,-276.65 878.17,-283.96 884.4,-287.15"/>
</g>
<!-- Node9&#45;&gt;Node8 -->
<g id="edge9" class="edge">
<title>Node9&#45;&gt;Node8</title>
<path fill="none" stroke="midnightblue" d="M754.24,-117.56C764.64,-121.52 774.98,-126.44 784,-132.5 825.8,-160.6 860.72,-208.92 879.23,-237.77"/>
<polygon fill="midnightblue" stroke="midnightblue" points="876.37,-239.8 884.65,-246.41 882.3,-236.08 876.37,-239.8"/>
</g>
<!-- Node10&#45;&gt;Node8 -->
<g id="edge16" class="edge">
<title>Node10&#45;&gt;Node8</title>
<path fill="none" stroke="midnightblue" d="M557.56,-358.35C633.16,-346.01 742.9,-326.87 784,-313.5 809.63,-305.16 837.01,-292.16 857.99,-281.24"/>
<polygon fill="midnightblue" stroke="midnightblue" points="859.65,-284.32 866.85,-276.55 856.37,-278.13 859.65,-284.32"/>
</g>
<!-- Node11 -->
<g id="node11" class="node">
<title>Node11</title>
<g id="a_node11"><a xlink:href="class_perceptual_color_1_1_chroma_lightness_diagram.html#a27d7c972e420480674da1a0fae0b10b3" target="_top" xlink:title="Setter for the color() property.">
<polygon fill="white" stroke="black" points="599,-361.5 599,-391.5 784,-391.5 784,-361.5 599,-361.5"/>
<text text-anchor="start" x="607" y="-379.5" font-family="Helvetica,sans-Serif" font-size="10.00">PerceptualColor::ChromaLightness</text>
<text text-anchor="middle" x="691.5" y="-368.5" font-family="Helvetica,sans-Serif" font-size="10.00">Diagram::setColor</text>
</a>
</g>
</g>
<!-- Node10&#45;&gt;Node11 -->
<g id="edge11" class="edge">
<title>Node10&#45;&gt;Node11</title>
<path fill="none" stroke="midnightblue" d="M557.5,-372.7C567.71,-372.99 578.29,-373.29 588.82,-373.59"/>
<polygon fill="midnightblue" stroke="midnightblue" points="588.8,-377.1 598.9,-373.88 589,-370.1 588.8,-377.1"/>
</g>
<!-- Node12 -->
<g id="node12" class="node">
<title>Node12</title>
<g id="a_node12"><a xlink:href="class_perceptual_color_1_1_simple_color_wheel.html#aa9eec6e96f6069be6d983d1c854644d1" target="_top" xlink:title=" ">
<polygon fill="white" stroke="black" points="612,-410.5 612,-440.5 771,-440.5 771,-410.5 612,-410.5"/>
<text text-anchor="start" x="620" y="-428.5" font-family="Helvetica,sans-Serif" font-size="10.00">PerceptualColor::SimpleColor</text>
<text text-anchor="middle" x="691.5" y="-417.5" font-family="Helvetica,sans-Serif" font-size="10.00">Wheel::setHue</text>
</a>
</g>
</g>
<!-- Node10&#45;&gt;Node12 -->
<g id="edge13" class="edge">
<title>Node10&#45;&gt;Node12</title>
<path fill="none" stroke="midnightblue" d="M537.88,-385.53C564.27,-392.44 595.76,-400.69 623.25,-407.89"/>
<polygon fill="midnightblue" stroke="midnightblue" points="622.63,-411.34 633.19,-410.49 624.4,-404.57 622.63,-411.34"/>
</g>
<!-- Node11&#45;&gt;Node8 -->
<g id="edge12" class="edge">
<title>Node11&#45;&gt;Node8</title>
<path fill="none" stroke="midnightblue" d="M748.92,-361.37C760.82,-357.26 773.08,-352.31 784,-346.5 816.41,-329.28 849.07,-302.41 870.18,-283.5"/>
<polygon fill="midnightblue" stroke="midnightblue" points="872.63,-285.99 877.67,-276.68 867.92,-280.81 872.63,-285.99"/>
</g>
<!-- Node13 -->
<g id="node13" class="node">
<title>Node13</title>
<g id="a_node13"><a xlink:href="class_perceptual_color_1_1_polar_point_f.html#a9eefd08d3a5ad536232292380f958804" target="_top" xlink:title="Normalizes an angle.">
<polygon fill="white" stroke="black" points="820,-410.5 820,-440.5 969,-440.5 969,-410.5 820,-410.5"/>
<text text-anchor="start" x="828" y="-428.5" font-family="Helvetica,sans-Serif" font-size="10.00">PerceptualColor::PolarPoint</text>
<text text-anchor="middle" x="894.5" y="-417.5" font-family="Helvetica,sans-Serif" font-size="10.00">F::normalizedAngleDegree</text>
</a>
</g>
</g>
<!-- Node12&#45;&gt;Node13 -->
<g id="edge14" class="edge">
<title>Node12&#45;&gt;Node13</title>
<path fill="none" stroke="midnightblue" d="M771.08,-425.5C783.76,-425.5 796.93,-425.5 809.74,-425.5"/>
<polygon fill="midnightblue" stroke="midnightblue" points="809.91,-429 819.91,-425.5 809.91,-422 809.91,-429"/>
</g>
<!-- Node14 -->
<g id="node14" class="node">
<title>Node14</title>
<g id="a_node14"><a xlink:href="class_perceptual_color_1_1_polar_point_f.html#a882cd166affc603fc62241dcb3be4fd5" target="_top" xlink:title="Normalized angle.">
<polygon fill="white" stroke="black" points="1005,-410.5 1005,-440.5 1154,-440.5 1154,-410.5 1005,-410.5"/>
<text text-anchor="start" x="1013" y="-428.5" font-family="Helvetica,sans-Serif" font-size="10.00">PerceptualColor::PolarPoint</text>
<text text-anchor="middle" x="1079.5" y="-417.5" font-family="Helvetica,sans-Serif" font-size="10.00">F::angleDegree</text>
</a>
</g>
</g>
<!-- Node13&#45;&gt;Node14 -->
<g id="edge15" class="edge">
<title>Node13&#45;&gt;Node14</title>
<path fill="none" stroke="midnightblue" d="M969.14,-425.5C977.47,-425.5 986.01,-425.5 994.46,-425.5"/>
<polygon fill="midnightblue" stroke="midnightblue" points="994.71,-429 1004.71,-425.5 994.71,-422 994.71,-429"/>
</g>
<!-- Node15&#45;&gt;Node8 -->
<g id="edge19" class="edge">
<title>Node15&#45;&gt;Node8</title>
<path fill="none" stroke="midnightblue" d="M751.91,-205.51C762.67,-208.58 773.73,-211.96 784,-215.5 806.72,-223.34 831.44,-233.57 851.64,-242.4"/>
<polygon fill="midnightblue" stroke="midnightblue" points="850.31,-245.64 860.87,-246.47 853.14,-239.23 850.31,-245.64"/>
</g>
<!-- Node19&#45;&gt;Node18 -->
<g id="edge26" class="edge">
<title>Node19&#45;&gt;Node18</title>
<path fill="none" stroke="midnightblue" d="M558.1,-260.31C575,-257.65 592.91,-254.84 609.92,-252.16"/>
<polygon fill="midnightblue" stroke="midnightblue" points="610.48,-255.62 619.82,-250.61 609.39,-248.7 610.48,-255.62"/>
</g>
<!-- Node20 -->
<g id="node20" class="node">
<title>Node20</title>
<g id="a_node20"><a xlink:href="class_perceptual_color_1_1_color_patch.html#ada8693cd4a8e51eb2debd3c0192a7458" target="_top" xlink:title="Set the color property.">
<polygon fill="white" stroke="black" points="615.5,-273.5 615.5,-303.5 767.5,-303.5 767.5,-273.5 615.5,-273.5"/>
<text text-anchor="start" x="623.5" y="-291.5" font-family="Helvetica,sans-Serif" font-size="10.00">PerceptualColor::ColorPatch</text>
<text text-anchor="middle" x="691.5" y="-280.5" font-family="Helvetica,sans-Serif" font-size="10.00">::setColor</text>
</a>
</g>
</g>
<!-- Node19&#45;&gt;Node20 -->
<g id="edge25" class="edge">
<title>Node19&#45;&gt;Node20</title>
<path fill="none" stroke="midnightblue" d="M558.1,-278.41C573.43,-279.58 589.61,-280.81 605.18,-282"/>
<polygon fill="midnightblue" stroke="midnightblue" points="605.08,-285.5 615.32,-282.77 605.61,-278.52 605.08,-285.5"/>
</g>
</g>
</svg>
