<?xml version="1.0" encoding="UTF-8" standalone="no"?>
<!DOCTYPE svg PUBLIC "-//W3C//DTD SVG 1.1//EN"
 "http://www.w3.org/Graphics/SVG/1.1/DTD/svg11.dtd">
<!-- Generated by graphviz version 2.43.0 (0)
 -->
<!-- Title: PerceptualColor::ChromaLightnessDiagram Pages: 1 -->
<svg width="664pt" height="137pt"
 viewBox="0.00 0.00 664.00 137.00" xmlns="http://www.w3.org/2000/svg" xmlns:xlink="http://www.w3.org/1999/xlink">
<g id="graph0" class="graph" transform="scale(1 1) rotate(0) translate(4 133)">
<title>PerceptualColor::ChromaLightnessDiagram</title>
<polygon fill="white" stroke="transparent" points="-4,4 -4,-133 660,-133 660,4 -4,4"/>
<!-- Node1 -->
<g id="node1" class="node">
<title>Node1</title>
<g id="a_node1"><a xlink:title="A widget that displays a chroma&#45;lightness diagram.">
<polygon fill="#bfbfbf" stroke="black" points="471,-49.5 471,-79.5 656,-79.5 656,-49.5 471,-49.5"/>
<text text-anchor="start" x="479" y="-67.5" font-family="Helvetica,sans-Serif" font-size="10.00">PerceptualColor::ChromaLightness</text>
<text text-anchor="middle" x="563.5" y="-56.5" font-family="Helvetica,sans-Serif" font-size="10.00">Diagram</text>
</a>
</g>
</g>
<!-- Node2 -->
<g id="node2" class="node">
<title>Node2</title>
<g id="a_node2"><a xlink:href="class_perceptual_color_1_1_abstract_diagram.html" target="_top" xlink:title="Base class for LCh diagrams.">
<polygon fill="white" stroke="black" points="204,-98.5 204,-128.5 344,-128.5 344,-98.5 204,-98.5"/>
<text text-anchor="start" x="212" y="-116.5" font-family="Helvetica,sans-Serif" font-size="10.00">PerceptualColor::Abstract</text>
<text text-anchor="middle" x="274" y="-105.5" font-family="Helvetica,sans-Serif" font-size="10.00">Diagram</text>
</a>
</g>
</g>
<!-- Node2&#45;&gt;Node1 -->
<g id="edge1" class="edge">
<title>Node2&#45;&gt;Node1</title>
<path fill="none" stroke="midnightblue" d="M354.51,-99.95C391.67,-93.61 436.05,-86.05 474.25,-79.54"/>
<polygon fill="midnightblue" stroke="midnightblue" points="353.5,-96.57 344.23,-101.7 354.68,-103.47 353.5,-96.57"/>
</g>
<!-- Node3 -->
<g id="node3" class="node">
<title>Node3</title>
<g id="a_node3"><a xlink:title=" ">
<polygon fill="white" stroke="#bfbfbf" points="36.5,-104 36.5,-123 95.5,-123 95.5,-104 36.5,-104"/>
<text text-anchor="middle" x="66" y="-111" font-family="Helvetica,sans-Serif" font-size="10.00">QWidget</text>
</a>
</g>
</g>
<!-- Node3&#45;&gt;Node2 -->
<g id="edge2" class="edge">
<title>Node3&#45;&gt;Node2</title>
<path fill="none" stroke="midnightblue" d="M105.68,-113.5C133.25,-113.5 171.08,-113.5 203.8,-113.5"/>
<polygon fill="midnightblue" stroke="midnightblue" points="105.64,-110 95.64,-113.5 105.64,-117 105.64,-110"/>
</g>
<!-- Node4 -->
<g id="node4" class="node">
<title>Node4</title>
<g id="a_node4"><a xlink:href="class_perceptual_color_1_1_full_color_description.html" target="_top" xlink:title="A fully qualified color.">
<polygon fill="white" stroke="black" points="202.5,-49.5 202.5,-79.5 345.5,-79.5 345.5,-49.5 202.5,-49.5"/>
<text text-anchor="start" x="210.5" y="-67.5" font-family="Helvetica,sans-Serif" font-size="10.00">PerceptualColor::FullColor</text>
<text text-anchor="middle" x="274" y="-56.5" font-family="Helvetica,sans-Serif" font-size="10.00">Description</text>
</a>
</g>
</g>
<!-- Node4&#45;&gt;Node1 -->
<g id="edge3" class="edge">
<title>Node4&#45;&gt;Node1</title>
<path fill="none" stroke="#9a32cd" stroke-dasharray="5,2" d="M356.08,-64.5C391.81,-64.5 433.97,-64.5 470.84,-64.5"/>
<polygon fill="#9a32cd" stroke="#9a32cd" points="355.7,-61 345.7,-64.5 355.7,-68 355.7,-61"/>
<text text-anchor="middle" x="408.5" y="-67.5" font-family="Helvetica,sans-Serif" font-size="10.00"> m_color</text>
</g>
<!-- Node5 -->
<g id="node5" class="node">
<title>Node5</title>
<g id="a_node5"><a xlink:href="struct_perceptual_color_1_1_helper_1_1cms_r_g_b.html" target="_top" xlink:title="An RGB color.">
<polygon fill="white" stroke="black" points="0,-49.5 0,-79.5 132,-79.5 132,-49.5 0,-49.5"/>
<text text-anchor="start" x="8" y="-67.5" font-family="Helvetica,sans-Serif" font-size="10.00">PerceptualColor::Helper</text>
<text text-anchor="middle" x="66" y="-56.5" font-family="Helvetica,sans-Serif" font-size="10.00">::cmsRGB</text>
</a>
</g>
</g>
<!-- Node5&#45;&gt;Node4 -->
<g id="edge4" class="edge">
<title>Node5&#45;&gt;Node4</title>
<path fill="none" stroke="#9a32cd" stroke-dasharray="5,2" d="M142.27,-64.5C161.83,-64.5 182.85,-64.5 202.18,-64.5"/>
<polygon fill="#9a32cd" stroke="#9a32cd" points="142.18,-61 132.18,-64.5 142.18,-68 142.18,-61"/>
<text text-anchor="middle" x="167" y="-67.5" font-family="Helvetica,sans-Serif" font-size="10.00"> m_rgb</text>
</g>
<!-- Node6 -->
<g id="node6" class="node">
<title>Node6</title>
<g id="a_node6"><a xlink:href="class_perceptual_color_1_1_rgb_color_space.html" target="_top" xlink:title="Interface to LittleCMS for working with an RGB color space.">
<polygon fill="white" stroke="black" points="202,-0.5 202,-30.5 346,-30.5 346,-0.5 202,-0.5"/>
<text text-anchor="start" x="210" y="-18.5" font-family="Helvetica,sans-Serif" font-size="10.00">PerceptualColor::RgbColor</text>
<text text-anchor="middle" x="274" y="-7.5" font-family="Helvetica,sans-Serif" font-size="10.00">Space</text>
</a>
</g>
</g>
<!-- Node6&#45;&gt;Node1 -->
<g id="edge5" class="edge">
<title>Node6&#45;&gt;Node1</title>
<path fill="none" stroke="#9a32cd" stroke-dasharray="5,2" d="M356.26,-29.35C393.06,-35.62 436.65,-43.05 474.25,-49.46"/>
<polygon fill="#9a32cd" stroke="#9a32cd" points="356.51,-25.84 346.07,-27.61 355.34,-32.74 356.51,-25.84"/>
<text text-anchor="middle" x="408.5" y="-49.5" font-family="Helvetica,sans-Serif" font-size="10.00"> m_rgbColorSpace</text>
</g>
<!-- Node7 -->
<g id="node7" class="node">
<title>Node7</title>
<g id="a_node7"><a xlink:title=" ">
<polygon fill="white" stroke="#bfbfbf" points="38,-6 38,-25 94,-25 94,-6 38,-6"/>
<text text-anchor="middle" x="66" y="-13" font-family="Helvetica,sans-Serif" font-size="10.00">QObject</text>
</a>
</g>
</g>
<!-- Node7&#45;&gt;Node6 -->
<g id="edge6" class="edge">
<title>Node7&#45;&gt;Node6</title>
<path fill="none" stroke="midnightblue" d="M104.55,-15.5C131.6,-15.5 168.94,-15.5 201.59,-15.5"/>
<polygon fill="midnightblue" stroke="midnightblue" points="104.36,-12 94.36,-15.5 104.36,-19 104.36,-12"/>
</g>
</g>
</svg>
