<?xml version="1.0" encoding="UTF-8" standalone="no"?>
<!DOCTYPE svg PUBLIC "-//W3C//DTD SVG 1.1//EN"
 "http://www.w3.org/Graphics/SVG/1.1/DTD/svg11.dtd">
<!-- Generated by graphviz version 2.43.0 (0)
 -->
<!-- Title: PerceptualColor::PolarPointF::radial Pages: 1 -->
<svg width="801pt" height="460pt"
 viewBox="0.00 0.00 801.00 460.00" xmlns="http://www.w3.org/2000/svg" xmlns:xlink="http://www.w3.org/1999/xlink">
<g id="graph0" class="graph" transform="scale(1 1) rotate(0) translate(4 456)">
<title>PerceptualColor::PolarPointF::radial</title>
<polygon fill="white" stroke="transparent" points="-4,4 -4,-456 797,-456 797,4 -4,4"/>
<!-- Node1 -->
<g id="node1" class="node">
<title>Node1</title>
<g id="a_node1"><a xlink:title="Normalized radial.">
<polygon fill="#bfbfbf" stroke="black" points="644,-137.5 644,-167.5 793,-167.5 793,-137.5 644,-137.5"/>
<text text-anchor="start" x="652" y="-155.5" font-family="Helvetica,sans-Serif" font-size="10.00">PerceptualColor::PolarPoint</text>
<text text-anchor="middle" x="718.5" y="-144.5" font-family="Helvetica,sans-Serif" font-size="10.00">F::radial</text>
</a>
</g>
</g>
<!-- Node2 -->
<g id="node2" class="node">
<title>Node2</title>
<g id="a_node2"><a xlink:href="class_perceptual_color_1_1_chroma_hue_diagram.html#aa447440e88450057faa8bfc5f31dfb46" target="_top" xlink:title="Tests if image coordinates are within the diagram surface.">
<polygon fill="white" stroke="black" points="407,-342 407,-383 608,-383 608,-342 407,-342"/>
<text text-anchor="start" x="415" y="-371" font-family="Helvetica,sans-Serif" font-size="10.00">PerceptualColor::ChromaHue</text>
<text text-anchor="start" x="415" y="-360" font-family="Helvetica,sans-Serif" font-size="10.00">Diagram::areImageCoordinatesWithin</text>
<text text-anchor="middle" x="507.5" y="-349" font-family="Helvetica,sans-Serif" font-size="10.00">DiagramSurface</text>
</a>
</g>
</g>
<!-- Node1&#45;&gt;Node2 -->
<g id="edge1" class="edge">
<title>Node1&#45;&gt;Node2</title>
<path fill="none" stroke="midnightblue" d="M695.92,-175.14C673.97,-198.09 638.88,-234.52 608,-265.5 581.43,-292.15 550.29,-322.34 530.02,-341.86"/>
<polygon fill="midnightblue" stroke="midnightblue" points="698.73,-177.27 703.11,-167.62 693.67,-172.43 698.73,-177.27"/>
</g>
<!-- Node6 -->
<g id="node6" class="node">
<title>Node6</title>
<g id="a_node6"><a xlink:href="class_perceptual_color_1_1_simple_color_wheel.html#acff6e0159f9cb6c41c0bbedb9f6da1c4" target="_top" xlink:title="Generates an image of a color wheel.">
<polygon fill="white" stroke="black" points="428,-225.5 428,-255.5 587,-255.5 587,-225.5 428,-225.5"/>
<text text-anchor="start" x="436" y="-243.5" font-family="Helvetica,sans-Serif" font-size="10.00">PerceptualColor::SimpleColor</text>
<text text-anchor="middle" x="507.5" y="-232.5" font-family="Helvetica,sans-Serif" font-size="10.00">Wheel::generateWheelImage</text>
</a>
</g>
</g>
<!-- Node1&#45;&gt;Node6 -->
<g id="edge5" class="edge">
<title>Node1&#45;&gt;Node6</title>
<path fill="none" stroke="midnightblue" d="M683.58,-172.67C662.36,-184.73 634.17,-199.74 608,-210.5 594.4,-216.09 579.37,-221.16 565.21,-225.48"/>
<polygon fill="midnightblue" stroke="midnightblue" points="685.59,-175.55 692.51,-167.54 682.1,-169.48 685.59,-175.55"/>
</g>
<!-- Node8 -->
<g id="node8" class="node">
<title>Node8</title>
<g id="a_node8"><a xlink:href="class_perceptual_color_1_1_chroma_hue_diagram.html#ad7709d55647d4a6842f34a5dd10cb2a9" target="_top" xlink:title="Paint the widget.">
<polygon fill="white" stroke="black" points="0.5,-203.5 0.5,-233.5 158.5,-233.5 158.5,-203.5 0.5,-203.5"/>
<text text-anchor="start" x="8.5" y="-221.5" font-family="Helvetica,sans-Serif" font-size="10.00">PerceptualColor::ChromaHue</text>
<text text-anchor="middle" x="79.5" y="-210.5" font-family="Helvetica,sans-Serif" font-size="10.00">Diagram::paintEvent</text>
</a>
</g>
</g>
<!-- Node1&#45;&gt;Node8 -->
<g id="edge14" class="edge">
<title>Node1&#45;&gt;Node8</title>
<path fill="none" stroke="midnightblue" d="M645.85,-169.67C633.29,-172.26 620.3,-174.67 608,-176.5 449.43,-200.08 261.94,-211.03 158.64,-215.61"/>
<polygon fill="midnightblue" stroke="midnightblue" points="646.75,-173.06 655.81,-167.56 645.3,-166.21 646.75,-173.06"/>
</g>
<!-- Node11 -->
<g id="node11" class="node">
<title>Node11</title>
<g id="a_node11"><a xlink:href="class_perceptual_color_1_1_simple_color_wheel.html#a8e6801f8291ff6214d93d56d0ec59e22" target="_top" xlink:title="React on a mouse press event.">
<polygon fill="white" stroke="black" points="428,-137.5 428,-167.5 587,-167.5 587,-137.5 428,-137.5"/>
<text text-anchor="start" x="436" y="-155.5" font-family="Helvetica,sans-Serif" font-size="10.00">PerceptualColor::SimpleColor</text>
<text text-anchor="middle" x="507.5" y="-144.5" font-family="Helvetica,sans-Serif" font-size="10.00">Wheel::mousePressEvent</text>
</a>
</g>
</g>
<!-- Node1&#45;&gt;Node11 -->
<g id="edge10" class="edge">
<title>Node1&#45;&gt;Node11</title>
<path fill="none" stroke="midnightblue" d="M633.81,-152.5C618.43,-152.5 602.42,-152.5 587.19,-152.5"/>
<polygon fill="midnightblue" stroke="midnightblue" points="633.81,-156 643.81,-152.5 633.81,-149 633.81,-156"/>
</g>
<!-- Node12 -->
<g id="node12" class="node">
<title>Node12</title>
<g id="a_node12"><a xlink:href="class_perceptual_color_1_1_full_color_description.html#aa9eb9b1edc15f59182dbad8add233291" target="_top" xlink:title=" ">
<polygon fill="white" stroke="black" points="436,-88.5 436,-118.5 579,-118.5 579,-88.5 436,-88.5"/>
<text text-anchor="start" x="444" y="-106.5" font-family="Helvetica,sans-Serif" font-size="10.00">PerceptualColor::FullColor</text>
<text text-anchor="middle" x="507.5" y="-95.5" font-family="Helvetica,sans-Serif" font-size="10.00">Description::normalizeLch</text>
</a>
</g>
</g>
<!-- Node1&#45;&gt;Node12 -->
<g id="edge11" class="edge">
<title>Node1&#45;&gt;Node12</title>
<path fill="none" stroke="midnightblue" d="M643.58,-135.17C620.37,-129.73 594.96,-123.77 572.51,-118.51"/>
<polygon fill="midnightblue" stroke="midnightblue" points="642.84,-138.59 653.37,-137.47 644.44,-131.78 642.84,-138.59"/>
</g>
<!-- Node14 -->
<g id="node14" class="node">
<title>Node14</title>
<g id="a_node14"><a xlink:href="namespace_perceptual_color.html#a7636e0ac59a0d18af45252df7c81bca1" target="_top" xlink:title="Adds QDebug() support for this data type.">
<polygon fill="white" stroke="black" points="428.5,-50 428.5,-69 586.5,-69 586.5,-50 428.5,-50"/>
<text text-anchor="middle" x="507.5" y="-57" font-family="Helvetica,sans-Serif" font-size="10.00">PerceptualColor::operator&lt;&lt;</text>
</a>
</g>
</g>
<!-- Node1&#45;&gt;Node14 -->
<g id="edge13" class="edge">
<title>Node1&#45;&gt;Node14</title>
<path fill="none" stroke="midnightblue" d="M692.37,-131.13C671.22,-114.26 639.45,-91.48 608,-78.5 598.57,-74.61 588.31,-71.5 578.07,-69.03"/>
<polygon fill="midnightblue" stroke="midnightblue" points="690.24,-133.9 700.21,-137.49 694.65,-128.47 690.24,-133.9"/>
</g>
<!-- Node15 -->
<g id="node15" class="node">
<title>Node15</title>
<g id="a_node15"><a xlink:href="class_perceptual_color_1_1_simple_color_wheel.html#a39f69259647eebe1e95ce3a1aa73bcd6" target="_top" xlink:title="React on a mouse wheel event.">
<polygon fill="white" stroke="black" points="428,-0.5 428,-30.5 587,-30.5 587,-0.5 428,-0.5"/>
<text text-anchor="start" x="436" y="-18.5" font-family="Helvetica,sans-Serif" font-size="10.00">PerceptualColor::SimpleColor</text>
<text text-anchor="middle" x="507.5" y="-7.5" font-family="Helvetica,sans-Serif" font-size="10.00">Wheel::wheelEvent</text>
</a>
</g>
</g>
<!-- Node1&#45;&gt;Node15 -->
<g id="edge15" class="edge">
<title>Node1&#45;&gt;Node15</title>
<path fill="none" stroke="midnightblue" d="M701,-129.14C681.65,-103.51 647.19,-63.01 608,-40.5 601.2,-36.6 593.81,-33.3 586.21,-30.51"/>
<polygon fill="midnightblue" stroke="midnightblue" points="698.21,-131.25 706.97,-137.22 703.84,-127.09 698.21,-131.25"/>
</g>
<!-- Node3 -->
<g id="node3" class="node">
<title>Node3</title>
<g id="a_node3"><a xlink:href="class_perceptual_color_1_1_chroma_hue_diagram.html#a16bcb9d0eee3536fe4f1034d2b9c3329" target="_top" xlink:title="React on a mouse move event.">
<polygon fill="white" stroke="black" points="204,-372.5 204,-402.5 362,-402.5 362,-372.5 204,-372.5"/>
<text text-anchor="start" x="212" y="-390.5" font-family="Helvetica,sans-Serif" font-size="10.00">PerceptualColor::ChromaHue</text>
<text text-anchor="middle" x="283" y="-379.5" font-family="Helvetica,sans-Serif" font-size="10.00">Diagram::mouseMoveEvent</text>
</a>
</g>
</g>
<!-- Node2&#45;&gt;Node3 -->
<g id="edge2" class="edge">
<title>Node2&#45;&gt;Node3</title>
<path fill="none" stroke="midnightblue" d="M396.71,-374.84C385.02,-376.15 373.31,-377.47 362.09,-378.73"/>
<polygon fill="midnightblue" stroke="midnightblue" points="397.42,-378.28 406.96,-373.68 396.64,-371.32 397.42,-378.28"/>
</g>
<!-- Node4 -->
<g id="node4" class="node">
<title>Node4</title>
<g id="a_node4"><a xlink:href="class_perceptual_color_1_1_chroma_hue_diagram.html#ad8957ee9c3a3ecb73841c00110ee3058" target="_top" xlink:title="React on a mouse press event.">
<polygon fill="white" stroke="black" points="204,-323.5 204,-353.5 362,-353.5 362,-323.5 204,-323.5"/>
<text text-anchor="start" x="212" y="-341.5" font-family="Helvetica,sans-Serif" font-size="10.00">PerceptualColor::ChromaHue</text>
<text text-anchor="middle" x="283" y="-330.5" font-family="Helvetica,sans-Serif" font-size="10.00">Diagram::mousePressEvent</text>
</a>
</g>
</g>
<!-- Node2&#45;&gt;Node4 -->
<g id="edge3" class="edge">
<title>Node2&#45;&gt;Node4</title>
<path fill="none" stroke="midnightblue" d="M396.71,-350.66C385.02,-349.4 373.31,-348.13 362.09,-346.92"/>
<polygon fill="midnightblue" stroke="midnightblue" points="396.65,-354.17 406.96,-351.76 397.4,-347.21 396.65,-354.17"/>
</g>
<!-- Node5 -->
<g id="node5" class="node">
<title>Node5</title>
<g id="a_node5"><a xlink:href="class_perceptual_color_1_1_chroma_hue_diagram.html#a2b14fea4dd40197c7d37c88fb8be63e7" target="_top" xlink:title=" ">
<polygon fill="white" stroke="black" points="204,-421.5 204,-451.5 362,-451.5 362,-421.5 204,-421.5"/>
<text text-anchor="start" x="212" y="-439.5" font-family="Helvetica,sans-Serif" font-size="10.00">PerceptualColor::ChromaHue</text>
<text text-anchor="middle" x="283" y="-428.5" font-family="Helvetica,sans-Serif" font-size="10.00">Diagram::wheelEvent</text>
</a>
</g>
</g>
<!-- Node2&#45;&gt;Node5 -->
<g id="edge4" class="edge">
<title>Node2&#45;&gt;Node5</title>
<path fill="none" stroke="midnightblue" d="M444.48,-386.63C421.54,-395.23 395.23,-404.7 371,-412.5 361.45,-415.57 351.24,-418.61 341.3,-421.43"/>
<polygon fill="midnightblue" stroke="midnightblue" points="445.97,-389.81 454.09,-383.01 443.5,-383.26 445.97,-389.81"/>
</g>
<!-- Node7 -->
<g id="node7" class="node">
<title>Node7</title>
<g id="a_node7"><a xlink:href="class_perceptual_color_1_1_chroma_hue_diagram.html#a7d8f858f515726d5e171b8e150c6ec2b" target="_top" xlink:title="Refresh the wheel and associated data.">
<polygon fill="white" stroke="black" points="203.5,-225.5 203.5,-255.5 362.5,-255.5 362.5,-225.5 203.5,-225.5"/>
<text text-anchor="start" x="211.5" y="-243.5" font-family="Helvetica,sans-Serif" font-size="10.00">PerceptualColor::ChromaHue</text>
<text text-anchor="middle" x="283" y="-232.5" font-family="Helvetica,sans-Serif" font-size="10.00">Diagram::updateWheelCache</text>
</a>
</g>
</g>
<!-- Node6&#45;&gt;Node7 -->
<g id="edge6" class="edge">
<title>Node6&#45;&gt;Node7</title>
<path fill="none" stroke="midnightblue" d="M417.73,-240.5C399.52,-240.5 380.47,-240.5 362.65,-240.5"/>
<polygon fill="midnightblue" stroke="midnightblue" points="417.74,-244 427.74,-240.5 417.74,-237 417.74,-244"/>
</g>
<!-- Node9 -->
<g id="node9" class="node">
<title>Node9</title>
<g id="a_node9"><a xlink:href="class_perceptual_color_1_1_simple_color_wheel.html#ac454a7cd994298cad632b343c2efe6ba" target="_top" xlink:title="Refresh the wheel ribbon pixmap.">
<polygon fill="white" stroke="black" points="203.5,-274.5 203.5,-304.5 362.5,-304.5 362.5,-274.5 203.5,-274.5"/>
<text text-anchor="start" x="211.5" y="-292.5" font-family="Helvetica,sans-Serif" font-size="10.00">PerceptualColor::SimpleColor</text>
<text text-anchor="middle" x="283" y="-281.5" font-family="Helvetica,sans-Serif" font-size="10.00">Wheel::updateWheelImage</text>
</a>
</g>
</g>
<!-- Node6&#45;&gt;Node9 -->
<g id="edge8" class="edge">
<title>Node6&#45;&gt;Node9</title>
<path fill="none" stroke="midnightblue" d="M428.46,-257.69C403.58,-263.16 376.26,-269.18 352.14,-274.49"/>
<polygon fill="midnightblue" stroke="midnightblue" points="429.22,-261.1 438.23,-255.53 427.71,-254.27 429.22,-261.1"/>
</g>
<!-- Node7&#45;&gt;Node8 -->
<g id="edge7" class="edge">
<title>Node7&#45;&gt;Node8</title>
<path fill="none" stroke="midnightblue" d="M193.17,-230.8C181.63,-229.54 169.89,-228.26 158.55,-227.02"/>
<polygon fill="midnightblue" stroke="midnightblue" points="192.91,-234.29 203.23,-231.9 193.67,-227.33 192.91,-234.29"/>
</g>
<!-- Node10 -->
<g id="node10" class="node">
<title>Node10</title>
<g id="a_node10"><a xlink:href="class_perceptual_color_1_1_simple_color_wheel.html#acec7e14aa3949bb3a1afd03a9d9cc15b" target="_top" xlink:title="Paint the widget.">
<polygon fill="white" stroke="black" points="0,-274.5 0,-304.5 159,-304.5 159,-274.5 0,-274.5"/>
<text text-anchor="start" x="8" y="-292.5" font-family="Helvetica,sans-Serif" font-size="10.00">PerceptualColor::SimpleColor</text>
<text text-anchor="middle" x="79.5" y="-281.5" font-family="Helvetica,sans-Serif" font-size="10.00">Wheel::paintEvent</text>
</a>
</g>
</g>
<!-- Node9&#45;&gt;Node10 -->
<g id="edge9" class="edge">
<title>Node9&#45;&gt;Node10</title>
<path fill="none" stroke="midnightblue" d="M192.97,-289.5C181.73,-289.5 170.29,-289.5 159.22,-289.5"/>
<polygon fill="midnightblue" stroke="midnightblue" points="193.23,-293 203.23,-289.5 193.23,-286 193.23,-293"/>
</g>
<!-- Node13 -->
<g id="node13" class="node">
<title>Node13</title>
<g id="a_node13"><a xlink:href="class_perceptual_color_1_1_full_color_description.html#a7d27cb4b18ebaf0a3d0374201c2d283a" target="_top" xlink:title="Constructor.">
<polygon fill="white" stroke="black" points="195,-88.5 195,-118.5 371,-118.5 371,-88.5 195,-88.5"/>
<text text-anchor="start" x="203" y="-106.5" font-family="Helvetica,sans-Serif" font-size="10.00">PerceptualColor::FullColor</text>
<text text-anchor="middle" x="283" y="-95.5" font-family="Helvetica,sans-Serif" font-size="10.00">Description::FullColorDescription</text>
</a>
</g>
</g>
<!-- Node12&#45;&gt;Node13 -->
<g id="edge12" class="edge">
<title>Node12&#45;&gt;Node13</title>
<path fill="none" stroke="midnightblue" d="M425.55,-103.5C407.92,-103.5 389.19,-103.5 371.32,-103.5"/>
<polygon fill="midnightblue" stroke="midnightblue" points="425.79,-107 435.79,-103.5 425.79,-100 425.79,-107"/>
</g>
</g>
</svg>
