<?xml version="1.0" encoding="UTF-8" standalone="no"?>
<!DOCTYPE svg PUBLIC "-//W3C//DTD SVG 1.1//EN"
 "http://www.w3.org/Graphics/SVG/1.1/DTD/svg11.dtd">
<!-- Generated by graphviz version 2.43.0 (0)
 -->
<!-- Title: PerceptualColor::ChromaLightnessDiagram::currentImageCoordinates Pages: 1 -->
<svg width="638pt" height="186pt"
 viewBox="0.00 0.00 638.00 186.00" xmlns="http://www.w3.org/2000/svg" xmlns:xlink="http://www.w3.org/1999/xlink">
<g id="graph0" class="graph" transform="scale(1 1) rotate(0) translate(4 182)">
<title>PerceptualColor::ChromaLightnessDiagram::currentImageCoordinates</title>
<polygon fill="white" stroke="transparent" points="-4,4 -4,-182 634,-182 634,4 -4,4"/>
<!-- Node1 -->
<g id="node1" class="node">
<title>Node1</title>
<g id="a_node1"><a xlink:title=" ">
<polygon fill="#bfbfbf" stroke="black" points="442,-103.5 442,-133.5 630,-133.5 630,-103.5 442,-103.5"/>
<text text-anchor="start" x="450" y="-121.5" font-family="Helvetica,sans-Serif" font-size="10.00">PerceptualColor::ChromaLightness</text>
<text text-anchor="middle" x="536" y="-110.5" font-family="Helvetica,sans-Serif" font-size="10.00">Diagram::currentImageCoordinates</text>
</a>
</g>
</g>
<!-- Node2 -->
<g id="node2" class="node">
<title>Node2</title>
<g id="a_node2"><a xlink:href="class_perceptual_color_1_1_chroma_lightness_diagram.html#abd23775803f181201fefbdcc08378ab8" target="_top" xlink:title="React on key press events.">
<polygon fill="white" stroke="black" points="0,-147.5 0,-177.5 185,-177.5 185,-147.5 0,-147.5"/>
<text text-anchor="start" x="8" y="-165.5" font-family="Helvetica,sans-Serif" font-size="10.00">PerceptualColor::ChromaLightness</text>
<text text-anchor="middle" x="92.5" y="-154.5" font-family="Helvetica,sans-Serif" font-size="10.00">Diagram::keyPressEvent</text>
</a>
</g>
</g>
<!-- Node1&#45;&gt;Node2 -->
<g id="edge1" class="edge">
<title>Node1&#45;&gt;Node2</title>
<path fill="none" stroke="midnightblue" d="M456.16,-135.47C439.65,-138.55 422.31,-141.43 406,-143.5 331.99,-152.88 247.52,-157.66 185.07,-160.08"/>
<polygon fill="midnightblue" stroke="midnightblue" points="457.14,-138.85 466.31,-133.54 455.83,-131.97 457.14,-138.85"/>
</g>
<!-- Node3 -->
<g id="node3" class="node">
<title>Node3</title>
<g id="a_node3"><a xlink:href="class_perceptual_color_1_1_chroma_lightness_diagram.html#a82c4e4f64c0d5e9307d767f2bfa052db" target="_top" xlink:title="Paint the widget.">
<polygon fill="white" stroke="black" points="221,-103.5 221,-133.5 406,-133.5 406,-103.5 221,-103.5"/>
<text text-anchor="start" x="229" y="-121.5" font-family="Helvetica,sans-Serif" font-size="10.00">PerceptualColor::ChromaLightness</text>
<text text-anchor="middle" x="313.5" y="-110.5" font-family="Helvetica,sans-Serif" font-size="10.00">Diagram::paintEvent</text>
</a>
</g>
</g>
<!-- Node1&#45;&gt;Node3 -->
<g id="edge2" class="edge">
<title>Node1&#45;&gt;Node3</title>
<path fill="none" stroke="midnightblue" d="M431.56,-118.5C423.13,-118.5 414.64,-118.5 406.3,-118.5"/>
<polygon fill="midnightblue" stroke="midnightblue" points="431.81,-122 441.81,-118.5 431.81,-115 431.81,-122"/>
</g>
<!-- Node4 -->
<g id="node4" class="node">
<title>Node4</title>
<g id="a_node4"><a xlink:href="class_perceptual_color_1_1_chroma_lightness_diagram.html#ac9b6d25ecc2c6a954f1ba361960458b1" target="_top" xlink:title=" ">
<polygon fill="white" stroke="black" points="221,-54.5 221,-84.5 406,-84.5 406,-54.5 221,-54.5"/>
<text text-anchor="start" x="229" y="-72.5" font-family="Helvetica,sans-Serif" font-size="10.00">PerceptualColor::ChromaLightness</text>
<text text-anchor="middle" x="313.5" y="-61.5" font-family="Helvetica,sans-Serif" font-size="10.00">Diagram::setImageCoordinates</text>
</a>
</g>
</g>
<!-- Node1&#45;&gt;Node4 -->
<g id="edge3" class="edge">
<title>Node1&#45;&gt;Node4</title>
<path fill="none" stroke="midnightblue" d="M457.34,-101.24C432.77,-95.78 405.83,-89.79 382.03,-84.51"/>
<polygon fill="midnightblue" stroke="midnightblue" points="456.82,-104.71 467.34,-103.47 458.34,-97.88 456.82,-104.71"/>
</g>
<!-- Node4&#45;&gt;Node2 -->
<g id="edge4" class="edge">
<title>Node4&#45;&gt;Node2</title>
<path fill="none" stroke="midnightblue" d="M230.91,-88.84C227.48,-90.57 224.16,-92.45 221,-94.5 199.81,-108.26 206.26,-124.85 185,-138.5 179.61,-141.96 173.74,-144.92 167.66,-147.46"/>
<polygon fill="midnightblue" stroke="midnightblue" points="232.56,-91.94 240.21,-84.61 229.66,-85.56 232.56,-91.94"/>
</g>
<!-- Node5 -->
<g id="node5" class="node">
<title>Node5</title>
<g id="a_node5"><a xlink:href="class_perceptual_color_1_1_chroma_lightness_diagram.html#a1697a065cdb13e6a5b8af378673c77f3" target="_top" xlink:title="React on a mouse move event.">
<polygon fill="white" stroke="black" points="0,-98.5 0,-128.5 185,-128.5 185,-98.5 0,-98.5"/>
<text text-anchor="start" x="8" y="-116.5" font-family="Helvetica,sans-Serif" font-size="10.00">PerceptualColor::ChromaLightness</text>
<text text-anchor="middle" x="92.5" y="-105.5" font-family="Helvetica,sans-Serif" font-size="10.00">Diagram::mouseMoveEvent</text>
</a>
</g>
</g>
<!-- Node4&#45;&gt;Node5 -->
<g id="edge5" class="edge">
<title>Node4&#45;&gt;Node5</title>
<path fill="none" stroke="midnightblue" d="M227.9,-86.5C208.25,-90.44 187.48,-94.62 168.29,-98.47"/>
<polygon fill="midnightblue" stroke="midnightblue" points="228.63,-89.92 237.75,-84.52 227.25,-83.06 228.63,-89.92"/>
</g>
<!-- Node6 -->
<g id="node6" class="node">
<title>Node6</title>
<g id="a_node6"><a xlink:href="class_perceptual_color_1_1_chroma_lightness_diagram.html#aa0aa6d31cefd3b9dfbfe9acfcac18e3d" target="_top" xlink:title="React on a mouse press event.">
<polygon fill="white" stroke="black" points="0,-49.5 0,-79.5 185,-79.5 185,-49.5 0,-49.5"/>
<text text-anchor="start" x="8" y="-67.5" font-family="Helvetica,sans-Serif" font-size="10.00">PerceptualColor::ChromaLightness</text>
<text text-anchor="middle" x="92.5" y="-56.5" font-family="Helvetica,sans-Serif" font-size="10.00">Diagram::mousePressEvent</text>
</a>
</g>
</g>
<!-- Node4&#45;&gt;Node6 -->
<g id="edge6" class="edge">
<title>Node4&#45;&gt;Node6</title>
<path fill="none" stroke="midnightblue" d="M210.85,-67.18C202.26,-66.98 193.6,-66.79 185.09,-66.59"/>
<polygon fill="midnightblue" stroke="midnightblue" points="210.82,-70.68 220.89,-67.41 210.98,-63.68 210.82,-70.68"/>
</g>
<!-- Node7 -->
<g id="node7" class="node">
<title>Node7</title>
<g id="a_node7"><a xlink:href="class_perceptual_color_1_1_chroma_lightness_diagram.html#a9bd534e0817d1afb0a3674f98919b8db" target="_top" xlink:title="React on a mouse release event.">
<polygon fill="white" stroke="black" points="0,-0.5 0,-30.5 185,-30.5 185,-0.5 0,-0.5"/>
<text text-anchor="start" x="8" y="-18.5" font-family="Helvetica,sans-Serif" font-size="10.00">PerceptualColor::ChromaLightness</text>
<text text-anchor="middle" x="92.5" y="-7.5" font-family="Helvetica,sans-Serif" font-size="10.00">Diagram::mouseReleaseEvent</text>
</a>
</g>
</g>
<!-- Node4&#45;&gt;Node7 -->
<g id="edge7" class="edge">
<title>Node4&#45;&gt;Node7</title>
<path fill="none" stroke="midnightblue" d="M241.73,-52.05C213.63,-45.12 181.62,-37.23 154.56,-30.55"/>
<polygon fill="midnightblue" stroke="midnightblue" points="240.95,-55.46 251.5,-54.46 242.63,-48.67 240.95,-55.46"/>
</g>
</g>
</svg>
