<?xml version="1.0" encoding="UTF-8" standalone="no"?>
<!DOCTYPE svg PUBLIC "-//W3C//DTD SVG 1.1//EN"
 "http://www.w3.org/Graphics/SVG/1.1/DTD/svg11.dtd">
<!-- Generated by graphviz version 2.43.0 (0)
 -->
<!-- Title: PerceptualColor::ColorDialog::applyLayoutDimensions Pages: 1 -->
<svg width="360pt" height="39pt"
 viewBox="0.00 0.00 360.00 39.00" xmlns="http://www.w3.org/2000/svg" xmlns:xlink="http://www.w3.org/1999/xlink">
<g id="graph0" class="graph" transform="scale(1 1) rotate(0) translate(4 35)">
<title>PerceptualColor::ColorDialog::applyLayoutDimensions</title>
<polygon fill="white" stroke="transparent" points="-4,4 -4,-35 356,-35 356,4 -4,4"/>
<!-- Node1 -->
<g id="node1" class="node">
<title>Node1</title>
<g id="a_node1"><a xlink:title="Arranges the layout conforming to layoutDimensions.">
<polygon fill="#bfbfbf" stroke="black" points="0,-0.5 0,-30.5 157,-30.5 157,-0.5 0,-0.5"/>
<text text-anchor="start" x="8" y="-18.5" font-family="Helvetica,sans-Serif" font-size="10.00">PerceptualColor::ColorDialog</text>
<text text-anchor="middle" x="78.5" y="-7.5" font-family="Helvetica,sans-Serif" font-size="10.00">::applyLayoutDimensions</text>
</a>
</g>
</g>
<!-- Node2 -->
<g id="node2" class="node">
<title>Node2</title>
<g id="a_node2"><a xlink:href="class_perceptual_color_1_1_simple_color_wheel.html#a7e050ae3afdec8f4f5e7ee348ab83002" target="_top" xlink:title="Provide the size hint.">
<polygon fill="white" stroke="black" points="193,-0.5 193,-30.5 352,-30.5 352,-0.5 193,-0.5"/>
<text text-anchor="start" x="201" y="-18.5" font-family="Helvetica,sans-Serif" font-size="10.00">PerceptualColor::SimpleColor</text>
<text text-anchor="middle" x="272.5" y="-7.5" font-family="Helvetica,sans-Serif" font-size="10.00">Wheel::sizeHint</text>
</a>
</g>
</g>
<!-- Node1&#45;&gt;Node2 -->
<g id="edge1" class="edge">
<title>Node1&#45;&gt;Node2</title>
<path fill="none" stroke="midnightblue" d="M157.04,-15.5C165.49,-15.5 174.14,-15.5 182.72,-15.5"/>
<polygon fill="midnightblue" stroke="midnightblue" points="182.73,-19 192.73,-15.5 182.73,-12 182.73,-19"/>
</g>
</g>
</svg>
