<?xml version="1.0" encoding="UTF-8" standalone="no"?>
<!DOCTYPE svg PUBLIC "-//W3C//DTD SVG 1.1//EN"
 "http://www.w3.org/Graphics/SVG/1.1/DTD/svg11.dtd">
<!-- Generated by graphviz version 2.43.0 (0)
 -->
<!-- Title: PerceptualColor::ChromaLightnessDiagram::generateDiagramImage Pages: 1 -->
<svg width="1129pt" height="267pt"
 viewBox="0.00 0.00 1129.00 266.87" xmlns="http://www.w3.org/2000/svg" xmlns:xlink="http://www.w3.org/1999/xlink">
<g id="graph0" class="graph" transform="scale(1 1) rotate(0) translate(4 262.87)">
<title>PerceptualColor::ChromaLightnessDiagram::generateDiagramImage</title>
<polygon fill="white" stroke="transparent" points="-4,4 -4,-262.87 1125,-262.87 1125,4 -4,4"/>
<!-- Node1 -->
<g id="node1" class="node">
<title>Node1</title>
<g id="a_node1"><a xlink:title="Generates an image of a chroma&#45;lightness diagram.">
<polygon fill="#bfbfbf" stroke="black" points="936,-123.5 936,-153.5 1121,-153.5 1121,-123.5 936,-123.5"/>
<text text-anchor="start" x="944" y="-141.5" font-family="Helvetica,sans-Serif" font-size="10.00">PerceptualColor::ChromaLightness</text>
<text text-anchor="middle" x="1028.5" y="-130.5" font-family="Helvetica,sans-Serif" font-size="10.00">Diagram::generateDiagramImage</text>
</a>
</g>
</g>
<!-- Node2 -->
<g id="node2" class="node">
<title>Node2</title>
<g id="a_node2"><a xlink:href="class_perceptual_color_1_1_chroma_lightness_diagram.html#a7d48f62249ffee09f55edfd3c127eb84" target="_top" xlink:title="Refresh the diagram and associated data.">
<polygon fill="white" stroke="black" points="715,-123.5 715,-153.5 900,-153.5 900,-123.5 715,-123.5"/>
<text text-anchor="start" x="723" y="-141.5" font-family="Helvetica,sans-Serif" font-size="10.00">PerceptualColor::ChromaLightness</text>
<text text-anchor="middle" x="807.5" y="-130.5" font-family="Helvetica,sans-Serif" font-size="10.00">Diagram::updateDiagramCache</text>
</a>
</g>
</g>
<!-- Node1&#45;&gt;Node2 -->
<g id="edge1" class="edge">
<title>Node1&#45;&gt;Node2</title>
<path fill="none" stroke="midnightblue" d="M925.85,-138.5C917.26,-138.5 908.6,-138.5 900.09,-138.5"/>
<polygon fill="midnightblue" stroke="midnightblue" points="925.89,-142 935.89,-138.5 925.89,-135 925.89,-142"/>
</g>
<!-- Node3 -->
<g id="node3" class="node">
<title>Node3</title>
<g id="a_node3"><a xlink:href="class_perceptual_color_1_1_chroma_lightness_diagram.html#a9f6471b44d4f4eba95914945bc53037a" target="_top" xlink:title=" ">
<polygon fill="white" stroke="black" points="472,-145.5 472,-175.5 660,-175.5 660,-145.5 472,-145.5"/>
<text text-anchor="start" x="480" y="-163.5" font-family="Helvetica,sans-Serif" font-size="10.00">PerceptualColor::ChromaLightness</text>
<text text-anchor="middle" x="566" y="-152.5" font-family="Helvetica,sans-Serif" font-size="10.00">Diagram::currentImageCoordinates</text>
</a>
</g>
</g>
<!-- Node2&#45;&gt;Node3 -->
<g id="edge2" class="edge">
<title>Node2&#45;&gt;Node3</title>
<path fill="none" stroke="midnightblue" d="M704.74,-147.85C689.93,-149.21 674.74,-150.6 660.11,-151.95"/>
<polygon fill="midnightblue" stroke="midnightblue" points="705.29,-151.31 714.93,-146.91 704.65,-144.34 705.29,-151.31"/>
</g>
<!-- Node4 -->
<g id="node4" class="node">
<title>Node4</title>
<g id="a_node4"><a xlink:href="class_perceptual_color_1_1_chroma_lightness_diagram.html#abd23775803f181201fefbdcc08378ab8" target="_top" xlink:title="React on key press events.">
<polygon fill="white" stroke="black" points="0,-147.5 0,-177.5 185,-177.5 185,-147.5 0,-147.5"/>
<text text-anchor="start" x="8" y="-165.5" font-family="Helvetica,sans-Serif" font-size="10.00">PerceptualColor::ChromaLightness</text>
<text text-anchor="middle" x="92.5" y="-154.5" font-family="Helvetica,sans-Serif" font-size="10.00">Diagram::keyPressEvent</text>
</a>
</g>
</g>
<!-- Node2&#45;&gt;Node4 -->
<g id="edge16" class="edge">
<title>Node2&#45;&gt;Node4</title>
<path fill="none" stroke="midnightblue" d="M777.58,-159.51C752.76,-176.29 715.34,-198.72 679,-209.5 483.7,-267.43 419.08,-275.08 221,-227.5 181.14,-217.93 139.69,-193.69 115.27,-177.67"/>
<polygon fill="midnightblue" stroke="midnightblue" points="779.88,-162.17 786.13,-153.61 775.91,-156.41 779.88,-162.17"/>
</g>
<!-- Node5 -->
<g id="node5" class="node">
<title>Node5</title>
<g id="a_node5"><a xlink:href="class_perceptual_color_1_1_chroma_lightness_diagram.html#a82c4e4f64c0d5e9307d767f2bfa052db" target="_top" xlink:title="Paint the widget.">
<polygon fill="white" stroke="black" points="226.5,-187.5 226.5,-217.5 411.5,-217.5 411.5,-187.5 226.5,-187.5"/>
<text text-anchor="start" x="234.5" y="-205.5" font-family="Helvetica,sans-Serif" font-size="10.00">PerceptualColor::ChromaLightness</text>
<text text-anchor="middle" x="319" y="-194.5" font-family="Helvetica,sans-Serif" font-size="10.00">Diagram::paintEvent</text>
</a>
</g>
</g>
<!-- Node2&#45;&gt;Node5 -->
<g id="edge17" class="edge">
<title>Node2&#45;&gt;Node5</title>
<path fill="none" stroke="midnightblue" d="M764.95,-157.49C740.47,-167.74 708.6,-179.49 679,-185.5 589.42,-203.68 484.8,-206.62 411.69,-205.81"/>
<polygon fill="midnightblue" stroke="midnightblue" points="766.46,-160.65 774.28,-153.51 763.71,-154.22 766.46,-160.65"/>
</g>
<!-- Node6 -->
<g id="node6" class="node">
<title>Node6</title>
<g id="a_node6"><a xlink:href="class_perceptual_color_1_1_chroma_lightness_diagram.html#ac9b6d25ecc2c6a954f1ba361960458b1" target="_top" xlink:title=" ">
<polygon fill="white" stroke="black" points="226.5,-98.5 226.5,-128.5 411.5,-128.5 411.5,-98.5 226.5,-98.5"/>
<text text-anchor="start" x="234.5" y="-116.5" font-family="Helvetica,sans-Serif" font-size="10.00">PerceptualColor::ChromaLightness</text>
<text text-anchor="middle" x="319" y="-105.5" font-family="Helvetica,sans-Serif" font-size="10.00">Diagram::setImageCoordinates</text>
</a>
</g>
</g>
<!-- Node2&#45;&gt;Node6 -->
<g id="edge18" class="edge">
<title>Node2&#45;&gt;Node6</title>
<path fill="none" stroke="midnightblue" d="M704.89,-133.28C618.33,-128.83 495.04,-122.5 411.51,-118.2"/>
<polygon fill="midnightblue" stroke="midnightblue" points="704.83,-136.78 714.99,-133.8 705.19,-129.79 704.83,-136.78"/>
</g>
<!-- Node10 -->
<g id="node10" class="node">
<title>Node10</title>
<g id="a_node10"><a xlink:href="class_perceptual_color_1_1_chroma_lightness_diagram.html#a9bfa53bcbfd4010c082294c9cfb5b2eb" target="_top" xlink:title=" ">
<polygon fill="white" stroke="black" points="453,-47 453,-88 679,-88 679,-47 453,-47"/>
<text text-anchor="start" x="461" y="-76" font-family="Helvetica,sans-Serif" font-size="10.00">PerceptualColor::ChromaLightness</text>
<text text-anchor="start" x="461" y="-65" font-family="Helvetica,sans-Serif" font-size="10.00">Diagram::fromImageCoordinatesToChroma</text>
<text text-anchor="middle" x="566" y="-54" font-family="Helvetica,sans-Serif" font-size="10.00">Lightness</text>
</a>
</g>
</g>
<!-- Node2&#45;&gt;Node10 -->
<g id="edge10" class="edge">
<title>Node2&#45;&gt;Node10</title>
<path fill="none" stroke="midnightblue" d="M746.07,-120.59C712.68,-110.69 671.06,-98.35 636.34,-88.06"/>
<polygon fill="midnightblue" stroke="midnightblue" points="745.13,-123.96 755.71,-123.44 747.12,-117.24 745.13,-123.96"/>
</g>
<!-- Node11 -->
<g id="node11" class="node">
<title>Node11</title>
<g id="a_node11"><a xlink:href="class_perceptual_color_1_1_chroma_lightness_diagram.html#a00a13ef1aa732e2f16d0d9f371aa4746" target="_top" xlink:title="Tests if image coordinates are in gamut.">
<polygon fill="white" stroke="black" points="221,-3.5 221,-33.5 417,-33.5 417,-3.5 221,-3.5"/>
<text text-anchor="start" x="229" y="-21.5" font-family="Helvetica,sans-Serif" font-size="10.00">PerceptualColor::ChromaLightness</text>
<text text-anchor="middle" x="319" y="-10.5" font-family="Helvetica,sans-Serif" font-size="10.00">Diagram::imageCoordinatesInGamut</text>
</a>
</g>
</g>
<!-- Node2&#45;&gt;Node11 -->
<g id="edge12" class="edge">
<title>Node2&#45;&gt;Node11</title>
<path fill="none" stroke="midnightblue" d="M786.58,-115.99C763.46,-91.64 722.86,-54.08 679,-37.5 594.78,-5.67 491.49,-3.67 417.36,-8"/>
<polygon fill="midnightblue" stroke="midnightblue" points="784.08,-118.44 793.45,-123.39 789.21,-113.68 784.08,-118.44"/>
</g>
<!-- Node3&#45;&gt;Node4 -->
<g id="edge3" class="edge">
<title>Node3&#45;&gt;Node4</title>
<path fill="none" stroke="midnightblue" d="M461.69,-160.94C379.16,-161.29 264.58,-161.77 185.26,-162.11"/>
<polygon fill="midnightblue" stroke="midnightblue" points="461.86,-164.44 471.85,-160.9 461.83,-157.44 461.86,-164.44"/>
</g>
<!-- Node3&#45;&gt;Node5 -->
<g id="edge4" class="edge">
<title>Node3&#45;&gt;Node5</title>
<path fill="none" stroke="midnightblue" d="M467.32,-177.25C447.57,-180.63 426.93,-184.17 407.56,-187.49"/>
<polygon fill="midnightblue" stroke="midnightblue" points="467.98,-180.68 477.24,-175.54 466.79,-173.78 467.98,-180.68"/>
</g>
<!-- Node3&#45;&gt;Node6 -->
<g id="edge5" class="edge">
<title>Node3&#45;&gt;Node6</title>
<path fill="none" stroke="midnightblue" d="M476.72,-143.57C451.08,-138.65 423.27,-133.31 398.29,-128.52"/>
<polygon fill="midnightblue" stroke="midnightblue" points="476.33,-147.05 486.81,-145.5 477.65,-140.18 476.33,-147.05"/>
</g>
<!-- Node6&#45;&gt;Node4 -->
<g id="edge6" class="edge">
<title>Node6&#45;&gt;Node4</title>
<path fill="none" stroke="midnightblue" d="M239.26,-130.69C214.16,-136.16 186.59,-142.18 162.25,-147.49"/>
<polygon fill="midnightblue" stroke="midnightblue" points="240.09,-134.09 249.12,-128.53 238.6,-127.25 240.09,-134.09"/>
</g>
<!-- Node7 -->
<g id="node7" class="node">
<title>Node7</title>
<g id="a_node7"><a xlink:href="class_perceptual_color_1_1_chroma_lightness_diagram.html#a1697a065cdb13e6a5b8af378673c77f3" target="_top" xlink:title="React on a mouse move event.">
<polygon fill="white" stroke="black" points="0,-49.5 0,-79.5 185,-79.5 185,-49.5 0,-49.5"/>
<text text-anchor="start" x="8" y="-67.5" font-family="Helvetica,sans-Serif" font-size="10.00">PerceptualColor::ChromaLightness</text>
<text text-anchor="middle" x="92.5" y="-56.5" font-family="Helvetica,sans-Serif" font-size="10.00">Diagram::mouseMoveEvent</text>
</a>
</g>
</g>
<!-- Node6&#45;&gt;Node7 -->
<g id="edge7" class="edge">
<title>Node6&#45;&gt;Node7</title>
<path fill="none" stroke="midnightblue" d="M239.26,-96.31C214.16,-90.84 186.59,-84.82 162.25,-79.51"/>
<polygon fill="midnightblue" stroke="midnightblue" points="238.6,-99.75 249.12,-98.47 240.09,-92.91 238.6,-99.75"/>
</g>
<!-- Node8 -->
<g id="node8" class="node">
<title>Node8</title>
<g id="a_node8"><a xlink:href="class_perceptual_color_1_1_chroma_lightness_diagram.html#aa0aa6d31cefd3b9dfbfe9acfcac18e3d" target="_top" xlink:title="React on a mouse press event.">
<polygon fill="white" stroke="black" points="0,-0.5 0,-30.5 185,-30.5 185,-0.5 0,-0.5"/>
<text text-anchor="start" x="8" y="-18.5" font-family="Helvetica,sans-Serif" font-size="10.00">PerceptualColor::ChromaLightness</text>
<text text-anchor="middle" x="92.5" y="-7.5" font-family="Helvetica,sans-Serif" font-size="10.00">Diagram::mousePressEvent</text>
</a>
</g>
</g>
<!-- Node6&#45;&gt;Node8 -->
<g id="edge8" class="edge">
<title>Node6&#45;&gt;Node8</title>
<path fill="none" stroke="midnightblue" d="M286.12,-92.75C259.86,-76.42 221.19,-54.04 185,-39.5 176.77,-36.19 167.94,-33.21 159.13,-30.57"/>
<polygon fill="midnightblue" stroke="midnightblue" points="284.54,-95.89 294.87,-98.26 288.27,-89.97 284.54,-95.89"/>
</g>
<!-- Node9 -->
<g id="node9" class="node">
<title>Node9</title>
<g id="a_node9"><a xlink:href="class_perceptual_color_1_1_chroma_lightness_diagram.html#a9bd534e0817d1afb0a3674f98919b8db" target="_top" xlink:title="React on a mouse release event.">
<polygon fill="white" stroke="black" points="0,-98.5 0,-128.5 185,-128.5 185,-98.5 0,-98.5"/>
<text text-anchor="start" x="8" y="-116.5" font-family="Helvetica,sans-Serif" font-size="10.00">PerceptualColor::ChromaLightness</text>
<text text-anchor="middle" x="92.5" y="-105.5" font-family="Helvetica,sans-Serif" font-size="10.00">Diagram::mouseReleaseEvent</text>
</a>
</g>
</g>
<!-- Node6&#45;&gt;Node9 -->
<g id="edge9" class="edge">
<title>Node6&#45;&gt;Node9</title>
<path fill="none" stroke="midnightblue" d="M216.11,-113.5C205.81,-113.5 195.39,-113.5 185.21,-113.5"/>
<polygon fill="midnightblue" stroke="midnightblue" points="216.36,-117 226.36,-113.5 216.36,-110 216.36,-117"/>
</g>
<!-- Node10&#45;&gt;Node6 -->
<g id="edge11" class="edge">
<title>Node10&#45;&gt;Node6</title>
<path fill="none" stroke="midnightblue" d="M445.61,-89.92C430.15,-92.82 414.62,-95.73 400.01,-98.48"/>
<polygon fill="midnightblue" stroke="midnightblue" points="446.57,-93.3 455.76,-88.01 445.28,-86.42 446.57,-93.3"/>
</g>
<!-- Node11&#45;&gt;Node4 -->
<g id="edge13" class="edge">
<title>Node11&#45;&gt;Node4</title>
<path fill="none" stroke="midnightblue" d="M283.75,-39.29C264.17,-52.1 239.84,-69.64 221,-88.5 201.65,-107.87 207.57,-123 185,-138.5 179.99,-141.94 174.52,-144.89 168.82,-147.41"/>
<polygon fill="midnightblue" stroke="midnightblue" points="285.85,-42.1 292.37,-33.75 282.07,-36.21 285.85,-42.1"/>
</g>
<!-- Node11&#45;&gt;Node7 -->
<g id="edge14" class="edge">
<title>Node11&#45;&gt;Node7</title>
<path fill="none" stroke="midnightblue" d="M234.41,-35.63C212.21,-40.18 188.4,-45.05 166.79,-49.48"/>
<polygon fill="midnightblue" stroke="midnightblue" points="235.4,-39 244.49,-33.56 233.99,-32.14 235.4,-39"/>
</g>
<!-- Node11&#45;&gt;Node8 -->
<g id="edge15" class="edge">
<title>Node11&#45;&gt;Node8</title>
<path fill="none" stroke="midnightblue" d="M210.8,-17.07C202.22,-16.95 193.6,-16.84 185.14,-16.72"/>
<polygon fill="midnightblue" stroke="midnightblue" points="210.79,-20.57 220.84,-17.2 210.88,-13.57 210.79,-20.57"/>
</g>
</g>
</svg>
