<?xml version="1.0" encoding="UTF-8" standalone="no"?>
<!DOCTYPE svg PUBLIC "-//W3C//DTD SVG 1.1//EN"
 "http://www.w3.org/Graphics/SVG/1.1/DTD/svg11.dtd">
<!-- Generated by graphviz version 2.43.0 (0)
 -->
<!-- Title: PerceptualColor::SimpleColorWheel::wheelEvent Pages: 1 -->
<svg width="794pt" height="225pt"
 viewBox="0.00 0.00 794.00 225.47" xmlns="http://www.w3.org/2000/svg" xmlns:xlink="http://www.w3.org/1999/xlink">
<g id="graph0" class="graph" transform="scale(1 1) rotate(0) translate(4 221.47)">
<title>PerceptualColor::SimpleColorWheel::wheelEvent</title>
<polygon fill="white" stroke="transparent" points="-4,4 -4,-221.47 790,-221.47 790,4 -4,4"/>
<!-- Node1 -->
<g id="node1" class="node">
<title>Node1</title>
<g id="a_node1"><a xlink:title="React on a mouse wheel event.">
<polygon fill="#bfbfbf" stroke="black" points="0,-98.5 0,-128.5 159,-128.5 159,-98.5 0,-98.5"/>
<text text-anchor="start" x="8" y="-116.5" font-family="Helvetica,sans-Serif" font-size="10.00">PerceptualColor::SimpleColor</text>
<text text-anchor="middle" x="79.5" y="-105.5" font-family="Helvetica,sans-Serif" font-size="10.00">Wheel::wheelEvent</text>
</a>
</g>
</g>
<!-- Node2 -->
<g id="node2" class="node">
<title>Node2</title>
<g id="a_node2"><a xlink:href="class_perceptual_color_1_1_simple_color_wheel.html#a6fe09144d693f81d5c7d8306666bc2aa" target="_top" xlink:title="The diameter of the widget content.">
<polygon fill="white" stroke="black" points="442,-177.5 442,-207.5 601,-207.5 601,-177.5 442,-177.5"/>
<text text-anchor="start" x="450" y="-195.5" font-family="Helvetica,sans-Serif" font-size="10.00">PerceptualColor::SimpleColor</text>
<text text-anchor="middle" x="521.5" y="-184.5" font-family="Helvetica,sans-Serif" font-size="10.00">Wheel::contentDiameter</text>
</a>
</g>
</g>
<!-- Node1&#45;&gt;Node2 -->
<g id="edge1" class="edge">
<title>Node1&#45;&gt;Node2</title>
<path fill="none" stroke="midnightblue" d="M94.26,-128.51C114.15,-148.98 153.16,-184.67 195,-198.5 273.86,-224.57 369.44,-218.73 436.56,-209.03"/>
<polygon fill="midnightblue" stroke="midnightblue" points="437.3,-212.46 446.67,-207.51 436.26,-205.54 437.3,-212.46"/>
</g>
<!-- Node3 -->
<g id="node3" class="node">
<title>Node3</title>
<g id="a_node3"><a xlink:href="class_perceptual_color_1_1_simple_color_wheel.html#a59df6b50669b8b8b5aec2e190bd23aa8" target="_top" xlink:title="Converts window coordinates to wheel coordinates.">
<polygon fill="white" stroke="black" points="195,-148 195,-189 406,-189 406,-148 195,-148"/>
<text text-anchor="start" x="203" y="-177" font-family="Helvetica,sans-Serif" font-size="10.00">PerceptualColor::SimpleColor</text>
<text text-anchor="start" x="203" y="-166" font-family="Helvetica,sans-Serif" font-size="10.00">Wheel::fromWidgetCoordinatesToWheel</text>
<text text-anchor="middle" x="300.5" y="-155" font-family="Helvetica,sans-Serif" font-size="10.00">Coordinates</text>
</a>
</g>
</g>
<!-- Node1&#45;&gt;Node3 -->
<g id="edge2" class="edge">
<title>Node1&#45;&gt;Node3</title>
<path fill="none" stroke="midnightblue" d="M140.34,-128.53C161.18,-133.76 185.05,-139.76 207.86,-145.49"/>
<polygon fill="midnightblue" stroke="midnightblue" points="207.01,-148.88 217.56,-147.92 208.72,-142.09 207.01,-148.88"/>
</g>
<!-- Node4 -->
<g id="node4" class="node">
<title>Node4</title>
<g id="a_node4"><a xlink:href="class_perceptual_color_1_1_polar_point_f.html#ad9e45debe2dc38bbba834d791336f1fd" target="_top" xlink:title="Normalized radial.">
<polygon fill="white" stroke="black" points="226,-98.5 226,-128.5 375,-128.5 375,-98.5 226,-98.5"/>
<text text-anchor="start" x="234" y="-116.5" font-family="Helvetica,sans-Serif" font-size="10.00">PerceptualColor::PolarPoint</text>
<text text-anchor="middle" x="300.5" y="-105.5" font-family="Helvetica,sans-Serif" font-size="10.00">F::radial</text>
</a>
</g>
</g>
<!-- Node1&#45;&gt;Node4 -->
<g id="edge4" class="edge">
<title>Node1&#45;&gt;Node4</title>
<path fill="none" stroke="midnightblue" d="M159.25,-113.5C177.57,-113.5 197.13,-113.5 215.65,-113.5"/>
<polygon fill="midnightblue" stroke="midnightblue" points="215.82,-117 225.82,-113.5 215.82,-110 215.82,-117"/>
</g>
<!-- Node5 -->
<g id="node5" class="node">
<title>Node5</title>
<g id="a_node5"><a xlink:href="class_perceptual_color_1_1_simple_color_wheel.html#aa9eec6e96f6069be6d983d1c854644d1" target="_top" xlink:title=" ">
<polygon fill="white" stroke="black" points="221,-49.5 221,-79.5 380,-79.5 380,-49.5 221,-49.5"/>
<text text-anchor="start" x="229" y="-67.5" font-family="Helvetica,sans-Serif" font-size="10.00">PerceptualColor::SimpleColor</text>
<text text-anchor="middle" x="300.5" y="-56.5" font-family="Helvetica,sans-Serif" font-size="10.00">Wheel::setHue</text>
</a>
</g>
</g>
<!-- Node1&#45;&gt;Node5 -->
<g id="edge5" class="edge">
<title>Node1&#45;&gt;Node5</title>
<path fill="none" stroke="midnightblue" d="M147.7,-98.47C171.34,-93.17 198.1,-87.19 222.5,-81.73"/>
<polygon fill="midnightblue" stroke="midnightblue" points="223.44,-85.11 232.43,-79.51 221.91,-78.27 223.44,-85.11"/>
</g>
<!-- Node8 -->
<g id="node8" class="node">
<title>Node8</title>
<g id="a_node8"><a xlink:href="namespace_perceptual_color_1_1_helper.html#a38f2fafe1c8902cdf2aa059f62396986" target="_top" xlink:title="Number of vertical standard wheel steps done by a wheel event.">
<polygon fill="white" stroke="black" points="234.5,-0.5 234.5,-30.5 366.5,-30.5 366.5,-0.5 234.5,-0.5"/>
<text text-anchor="start" x="242.5" y="-18.5" font-family="Helvetica,sans-Serif" font-size="10.00">PerceptualColor::Helper</text>
<text text-anchor="middle" x="300.5" y="-7.5" font-family="Helvetica,sans-Serif" font-size="10.00">::standardWheelSteps</text>
</a>
</g>
</g>
<!-- Node1&#45;&gt;Node8 -->
<g id="edge8" class="edge">
<title>Node1&#45;&gt;Node8</title>
<path fill="none" stroke="midnightblue" d="M99.19,-98.46C120.96,-81.69 158.59,-54.88 195,-39.5 204.36,-35.55 214.47,-32.19 224.6,-29.35"/>
<polygon fill="midnightblue" stroke="midnightblue" points="225.51,-32.73 234.28,-26.79 223.72,-25.96 225.51,-32.73"/>
</g>
<!-- Node3&#45;&gt;Node2 -->
<g id="edge3" class="edge">
<title>Node3&#45;&gt;Node2</title>
<path fill="none" stroke="midnightblue" d="M406.19,-179.97C414.71,-180.91 423.27,-181.84 431.67,-182.76"/>
<polygon fill="midnightblue" stroke="midnightblue" points="431.48,-186.27 441.81,-183.88 432.25,-179.31 431.48,-186.27"/>
</g>
<!-- Node6 -->
<g id="node6" class="node">
<title>Node6</title>
<g id="a_node6"><a xlink:href="class_perceptual_color_1_1_polar_point_f.html#a9eefd08d3a5ad536232292380f958804" target="_top" xlink:title="Normalizes an angle.">
<polygon fill="white" stroke="black" points="447,-49.5 447,-79.5 596,-79.5 596,-49.5 447,-49.5"/>
<text text-anchor="start" x="455" y="-67.5" font-family="Helvetica,sans-Serif" font-size="10.00">PerceptualColor::PolarPoint</text>
<text text-anchor="middle" x="521.5" y="-56.5" font-family="Helvetica,sans-Serif" font-size="10.00">F::normalizedAngleDegree</text>
</a>
</g>
</g>
<!-- Node5&#45;&gt;Node6 -->
<g id="edge6" class="edge">
<title>Node5&#45;&gt;Node6</title>
<path fill="none" stroke="midnightblue" d="M380.25,-64.5C398.57,-64.5 418.13,-64.5 436.65,-64.5"/>
<polygon fill="midnightblue" stroke="midnightblue" points="436.82,-68 446.82,-64.5 436.82,-61 436.82,-68"/>
</g>
<!-- Node7 -->
<g id="node7" class="node">
<title>Node7</title>
<g id="a_node7"><a xlink:href="class_perceptual_color_1_1_polar_point_f.html#a882cd166affc603fc62241dcb3be4fd5" target="_top" xlink:title="Normalized angle.">
<polygon fill="white" stroke="black" points="637,-49.5 637,-79.5 786,-79.5 786,-49.5 637,-49.5"/>
<text text-anchor="start" x="645" y="-67.5" font-family="Helvetica,sans-Serif" font-size="10.00">PerceptualColor::PolarPoint</text>
<text text-anchor="middle" x="711.5" y="-56.5" font-family="Helvetica,sans-Serif" font-size="10.00">F::angleDegree</text>
</a>
</g>
</g>
<!-- Node6&#45;&gt;Node7 -->
<g id="edge7" class="edge">
<title>Node6&#45;&gt;Node7</title>
<path fill="none" stroke="midnightblue" d="M596.26,-64.5C606.29,-64.5 616.65,-64.5 626.83,-64.5"/>
<polygon fill="midnightblue" stroke="midnightblue" points="626.95,-68 636.95,-64.5 626.95,-61 626.95,-68"/>
</g>
</g>
</svg>
