<?xml version="1.0" encoding="UTF-8" standalone="no"?>
<!DOCTYPE svg PUBLIC "-//W3C//DTD SVG 1.1//EN"
 "http://www.w3.org/Graphics/SVG/1.1/DTD/svg11.dtd">
<!-- Generated by graphviz version 2.43.0 (0)
 -->
<!-- Title: PerceptualColor::ChromaHueDiagram::generateDiagramImage Pages: 1 -->
<svg width="564pt" height="88pt"
 viewBox="0.00 0.00 564.00 88.00" xmlns="http://www.w3.org/2000/svg" xmlns:xlink="http://www.w3.org/1999/xlink">
<g id="graph0" class="graph" transform="scale(1 1) rotate(0) translate(4 84)">
<title>PerceptualColor::ChromaHueDiagram::generateDiagramImage</title>
<polygon fill="white" stroke="transparent" points="-4,4 -4,-84 560,-84 560,4 -4,4"/>
<!-- Node1 -->
<g id="node1" class="node">
<title>Node1</title>
<g id="a_node1"><a xlink:title="in image of a&#45;b plane of the color space at a given lightness">
<polygon fill="#bfbfbf" stroke="black" points="0,-24.5 0,-54.5 181,-54.5 181,-24.5 0,-24.5"/>
<text text-anchor="start" x="8" y="-42.5" font-family="Helvetica,sans-Serif" font-size="10.00">PerceptualColor::ChromaHue</text>
<text text-anchor="middle" x="90.5" y="-31.5" font-family="Helvetica,sans-Serif" font-size="10.00">Diagram::generateDiagramImage</text>
</a>
</g>
</g>
<!-- Node2 -->
<g id="node2" class="node">
<title>Node2</title>
<g id="a_node2"><a xlink:href="class_perceptual_color_1_1_rgb_color_space.html#a813721e6284e83c8493f1557eeeb4469" target="_top" xlink:title="Calculates the Lab value.">
<polygon fill="white" stroke="black" points="217,-49.5 217,-79.5 361,-79.5 361,-49.5 217,-49.5"/>
<text text-anchor="start" x="225" y="-67.5" font-family="Helvetica,sans-Serif" font-size="10.00">PerceptualColor::RgbColor</text>
<text text-anchor="middle" x="289" y="-56.5" font-family="Helvetica,sans-Serif" font-size="10.00">Space::colorLab</text>
</a>
</g>
</g>
<!-- Node1&#45;&gt;Node2 -->
<g id="edge1" class="edge">
<title>Node1&#45;&gt;Node2</title>
<path fill="none" stroke="midnightblue" d="M181.12,-50.9C189.62,-51.98 198.19,-53.07 206.6,-54.14"/>
<polygon fill="midnightblue" stroke="midnightblue" points="206.4,-57.65 216.76,-55.44 207.28,-50.7 206.4,-57.65"/>
</g>
<!-- Node3 -->
<g id="node3" class="node">
<title>Node3</title>
<g id="a_node3"><a xlink:href="class_perceptual_color_1_1_rgb_color_space.html#a597d093bcc9c79444792359569e537b4" target="_top" xlink:title="Calculates the RGB value.">
<polygon fill="white" stroke="black" points="217,-0.5 217,-30.5 361,-30.5 361,-0.5 217,-0.5"/>
<text text-anchor="start" x="225" y="-18.5" font-family="Helvetica,sans-Serif" font-size="10.00">PerceptualColor::RgbColor</text>
<text text-anchor="middle" x="289" y="-7.5" font-family="Helvetica,sans-Serif" font-size="10.00">Space::colorRgbBound</text>
</a>
</g>
</g>
<!-- Node1&#45;&gt;Node3 -->
<g id="edge2" class="edge">
<title>Node1&#45;&gt;Node3</title>
<path fill="none" stroke="midnightblue" d="M181.12,-28.55C189.62,-27.52 198.19,-26.47 206.6,-25.44"/>
<polygon fill="midnightblue" stroke="midnightblue" points="207.26,-28.89 216.76,-24.2 206.41,-21.94 207.26,-28.89"/>
</g>
<!-- Node4 -->
<g id="node4" class="node">
<title>Node4</title>
<g id="a_node4"><a xlink:href="class_perceptual_color_1_1_rgb_color_space.html#aeb749cb42b24d3989be041a7d4096258" target="_top" xlink:title=" ">
<polygon fill="white" stroke="black" points="397,-0.5 397,-30.5 556,-30.5 556,-0.5 397,-0.5"/>
<text text-anchor="start" x="405" y="-18.5" font-family="Helvetica,sans-Serif" font-size="10.00">PerceptualColor::RgbColor</text>
<text text-anchor="middle" x="476.5" y="-7.5" font-family="Helvetica,sans-Serif" font-size="10.00">Space::colorRgbBoundSimple</text>
</a>
</g>
</g>
<!-- Node3&#45;&gt;Node4 -->
<g id="edge3" class="edge">
<title>Node3&#45;&gt;Node4</title>
<path fill="none" stroke="midnightblue" d="M361.19,-15.5C369.56,-15.5 378.18,-15.5 386.75,-15.5"/>
<polygon fill="midnightblue" stroke="midnightblue" points="386.78,-19 396.78,-15.5 386.78,-12 386.78,-19"/>
</g>
</g>
</svg>
