<?xml version="1.0" encoding="UTF-8" standalone="no"?>
<!DOCTYPE svg PUBLIC "-//W3C//DTD SVG 1.1//EN"
 "http://www.w3.org/Graphics/SVG/1.1/DTD/svg11.dtd">
<!-- Generated by graphviz version 2.43.0 (0)
 -->
<!-- Title: PerceptualColor::SimpleColorWheel::mouseMoveEvent Pages: 1 -->
<svg width="794pt" height="124pt"
 viewBox="0.00 0.00 794.00 124.47" xmlns="http://www.w3.org/2000/svg" xmlns:xlink="http://www.w3.org/1999/xlink">
<g id="graph0" class="graph" transform="scale(1 1) rotate(0) translate(4 120.47)">
<title>PerceptualColor::SimpleColorWheel::mouseMoveEvent</title>
<polygon fill="white" stroke="transparent" points="-4,4 -4,-120.47 790,-120.47 790,4 -4,4"/>
<!-- Node1 -->
<g id="node1" class="node">
<title>Node1</title>
<g id="a_node1"><a xlink:title="React on a mouse move event.">
<polygon fill="#bfbfbf" stroke="black" points="0,-55.5 0,-85.5 159,-85.5 159,-55.5 0,-55.5"/>
<text text-anchor="start" x="8" y="-73.5" font-family="Helvetica,sans-Serif" font-size="10.00">PerceptualColor::SimpleColor</text>
<text text-anchor="middle" x="79.5" y="-62.5" font-family="Helvetica,sans-Serif" font-size="10.00">Wheel::mouseMoveEvent</text>
</a>
</g>
</g>
<!-- Node2 -->
<g id="node2" class="node">
<title>Node2</title>
<g id="a_node2"><a xlink:href="class_perceptual_color_1_1_polar_point_f.html#a882cd166affc603fc62241dcb3be4fd5" target="_top" xlink:title="Normalized angle.">
<polygon fill="white" stroke="black" points="637,-52.5 637,-82.5 786,-82.5 786,-52.5 637,-52.5"/>
<text text-anchor="start" x="645" y="-70.5" font-family="Helvetica,sans-Serif" font-size="10.00">PerceptualColor::PolarPoint</text>
<text text-anchor="middle" x="711.5" y="-59.5" font-family="Helvetica,sans-Serif" font-size="10.00">F::angleDegree</text>
</a>
</g>
</g>
<!-- Node1&#45;&gt;Node2 -->
<g id="edge1" class="edge">
<title>Node1&#45;&gt;Node2</title>
<path fill="none" stroke="midnightblue" d="M126.76,-85.51C147.4,-91.45 172.17,-97.56 195,-100.5 373.98,-123.56 422.26,-120.32 601,-95.5 617.58,-93.2 635.26,-89.32 651.48,-85.18"/>
<polygon fill="midnightblue" stroke="midnightblue" points="652.59,-88.5 661.37,-82.57 650.8,-81.73 652.59,-88.5"/>
</g>
<!-- Node3 -->
<g id="node3" class="node">
<title>Node3</title>
<g id="a_node3"><a xlink:href="class_perceptual_color_1_1_simple_color_wheel.html#a59df6b50669b8b8b5aec2e190bd23aa8" target="_top" xlink:title="Converts window coordinates to wheel coordinates.">
<polygon fill="white" stroke="black" points="195,-50 195,-91 406,-91 406,-50 195,-50"/>
<text text-anchor="start" x="203" y="-79" font-family="Helvetica,sans-Serif" font-size="10.00">PerceptualColor::SimpleColor</text>
<text text-anchor="start" x="203" y="-68" font-family="Helvetica,sans-Serif" font-size="10.00">Wheel::fromWidgetCoordinatesToWheel</text>
<text text-anchor="middle" x="300.5" y="-57" font-family="Helvetica,sans-Serif" font-size="10.00">Coordinates</text>
</a>
</g>
</g>
<!-- Node1&#45;&gt;Node3 -->
<g id="edge2" class="edge">
<title>Node1&#45;&gt;Node3</title>
<path fill="none" stroke="midnightblue" d="M159.25,-70.5C167.54,-70.5 176.08,-70.5 184.66,-70.5"/>
<polygon fill="midnightblue" stroke="midnightblue" points="184.75,-74 194.75,-70.5 184.75,-67 184.75,-74"/>
</g>
<!-- Node5 -->
<g id="node5" class="node">
<title>Node5</title>
<g id="a_node5"><a xlink:href="class_perceptual_color_1_1_simple_color_wheel.html#aa9eec6e96f6069be6d983d1c854644d1" target="_top" xlink:title=" ">
<polygon fill="white" stroke="black" points="221,-0.5 221,-30.5 380,-30.5 380,-0.5 221,-0.5"/>
<text text-anchor="start" x="229" y="-18.5" font-family="Helvetica,sans-Serif" font-size="10.00">PerceptualColor::SimpleColor</text>
<text text-anchor="middle" x="300.5" y="-7.5" font-family="Helvetica,sans-Serif" font-size="10.00">Wheel::setHue</text>
</a>
</g>
</g>
<!-- Node1&#45;&gt;Node5 -->
<g id="edge4" class="edge">
<title>Node1&#45;&gt;Node5</title>
<path fill="none" stroke="midnightblue" d="M136.93,-55.46C155.41,-50.6 176.06,-45.25 195,-40.5 204.94,-38.01 215.43,-35.44 225.77,-32.93"/>
<polygon fill="midnightblue" stroke="midnightblue" points="226.72,-36.3 235.62,-30.55 225.08,-29.5 226.72,-36.3"/>
</g>
<!-- Node4 -->
<g id="node4" class="node">
<title>Node4</title>
<g id="a_node4"><a xlink:href="class_perceptual_color_1_1_simple_color_wheel.html#a6fe09144d693f81d5c7d8306666bc2aa" target="_top" xlink:title="The diameter of the widget content.">
<polygon fill="white" stroke="black" points="442,-55.5 442,-85.5 601,-85.5 601,-55.5 442,-55.5"/>
<text text-anchor="start" x="450" y="-73.5" font-family="Helvetica,sans-Serif" font-size="10.00">PerceptualColor::SimpleColor</text>
<text text-anchor="middle" x="521.5" y="-62.5" font-family="Helvetica,sans-Serif" font-size="10.00">Wheel::contentDiameter</text>
</a>
</g>
</g>
<!-- Node3&#45;&gt;Node4 -->
<g id="edge3" class="edge">
<title>Node3&#45;&gt;Node4</title>
<path fill="none" stroke="midnightblue" d="M406.19,-70.5C414.71,-70.5 423.27,-70.5 431.67,-70.5"/>
<polygon fill="midnightblue" stroke="midnightblue" points="431.81,-74 441.81,-70.5 431.81,-67 431.81,-74"/>
</g>
<!-- Node6 -->
<g id="node6" class="node">
<title>Node6</title>
<g id="a_node6"><a xlink:href="class_perceptual_color_1_1_polar_point_f.html#a9eefd08d3a5ad536232292380f958804" target="_top" xlink:title="Normalizes an angle.">
<polygon fill="white" stroke="black" points="447,-3.5 447,-33.5 596,-33.5 596,-3.5 447,-3.5"/>
<text text-anchor="start" x="455" y="-21.5" font-family="Helvetica,sans-Serif" font-size="10.00">PerceptualColor::PolarPoint</text>
<text text-anchor="middle" x="521.5" y="-10.5" font-family="Helvetica,sans-Serif" font-size="10.00">F::normalizedAngleDegree</text>
</a>
</g>
</g>
<!-- Node5&#45;&gt;Node6 -->
<g id="edge5" class="edge">
<title>Node5&#45;&gt;Node6</title>
<path fill="none" stroke="midnightblue" d="M380.25,-16.58C398.57,-16.83 418.13,-17.1 436.65,-17.35"/>
<polygon fill="midnightblue" stroke="midnightblue" points="436.78,-20.85 446.82,-17.49 436.87,-13.85 436.78,-20.85"/>
</g>
<!-- Node6&#45;&gt;Node2 -->
<g id="edge6" class="edge">
<title>Node6&#45;&gt;Node2</title>
<path fill="none" stroke="midnightblue" d="M580.18,-33.53C600.03,-38.71 622.44,-44.55 643,-49.91"/>
<polygon fill="midnightblue" stroke="midnightblue" points="642.37,-53.36 652.93,-52.49 644.13,-46.58 642.37,-53.36"/>
</g>
</g>
</svg>
