<?xml version="1.0" encoding="UTF-8" standalone="no"?>
<!DOCTYPE svg PUBLIC "-//W3C//DTD SVG 1.1//EN"
 "http://www.w3.org/Graphics/SVG/1.1/DTD/svg11.dtd">
<!-- Generated by graphviz version 2.43.0 (0)
 -->
<!-- Title: PerceptualColor::ChromaHueDiagram::setColor Pages: 1 -->
<svg width="1200pt" height="453pt"
 viewBox="0.00 0.00 1200.00 452.85" xmlns="http://www.w3.org/2000/svg" xmlns:xlink="http://www.w3.org/1999/xlink">
<g id="graph0" class="graph" transform="scale(1 1) rotate(0) translate(4 448.85)">
<title>PerceptualColor::ChromaHueDiagram::setColor</title>
<polygon fill="white" stroke="transparent" points="-4,4 -4,-448.85 1196,-448.85 1196,4 -4,4"/>
<!-- Node1 -->
<g id="node1" class="node">
<title>Node1</title>
<g id="a_node1"><a xlink:title="Setter for the color() property.">
<polygon fill="#bfbfbf" stroke="black" points="1034,-267.35 1034,-297.35 1192,-297.35 1192,-267.35 1034,-267.35"/>
<text text-anchor="start" x="1042" y="-285.35" font-family="Helvetica,sans-Serif" font-size="10.00">PerceptualColor::ChromaHue</text>
<text text-anchor="middle" x="1113" y="-274.35" font-family="Helvetica,sans-Serif" font-size="10.00">Diagram::setColor</text>
</a>
</g>
</g>
<!-- Node2 -->
<g id="node2" class="node">
<title>Node2</title>
<g id="a_node2"><a xlink:href="class_perceptual_color_1_1_chroma_hue_diagram.html#a896cd3a826210cf78a39e3cbbdbc34f8" target="_top" xlink:title="React on key press events.">
<polygon fill="white" stroke="black" points="809.5,-365.35 809.5,-395.35 967.5,-395.35 967.5,-365.35 809.5,-365.35"/>
<text text-anchor="start" x="817.5" y="-383.35" font-family="Helvetica,sans-Serif" font-size="10.00">PerceptualColor::ChromaHue</text>
<text text-anchor="middle" x="888.5" y="-372.35" font-family="Helvetica,sans-Serif" font-size="10.00">Diagram::keyPressEvent</text>
</a>
</g>
</g>
<!-- Node1&#45;&gt;Node2 -->
<g id="edge1" class="edge">
<title>Node1&#45;&gt;Node2</title>
<path fill="none" stroke="midnightblue" d="M1085.19,-303.74C1063.02,-320.41 1030.09,-342.91 998,-356.35 988.39,-360.37 978.01,-363.77 967.61,-366.62"/>
<polygon fill="midnightblue" stroke="midnightblue" points="1087.61,-306.3 1093.42,-297.44 1083.35,-300.74 1087.61,-306.3"/>
</g>
<!-- Node3 -->
<g id="node3" class="node">
<title>Node3</title>
<g id="a_node3"><a xlink:href="class_perceptual_color_1_1_chroma_hue_diagram.html#a65ff87dfbc2ffa5d71b5e58c30d3b39c" target="_top" xlink:title="Sets the color property corresponding to given widget coordinates.">
<polygon fill="white" stroke="black" points="779,-316.35 779,-346.35 998,-346.35 998,-316.35 779,-316.35"/>
<text text-anchor="start" x="787" y="-334.35" font-family="Helvetica,sans-Serif" font-size="10.00">PerceptualColor::ChromaHue</text>
<text text-anchor="middle" x="888.5" y="-323.35" font-family="Helvetica,sans-Serif" font-size="10.00">Diagram::setColorFromImageCoordinates</text>
</a>
</g>
</g>
<!-- Node1&#45;&gt;Node3 -->
<g id="edge2" class="edge">
<title>Node1&#45;&gt;Node3</title>
<path fill="none" stroke="midnightblue" d="M1033.96,-299.53C1009.08,-305.01 981.76,-311.03 957.64,-316.34"/>
<polygon fill="midnightblue" stroke="midnightblue" points="1034.72,-302.95 1043.73,-297.38 1033.21,-296.12 1034.72,-302.95"/>
</g>
<!-- Node7 -->
<g id="node7" class="node">
<title>Node7</title>
<g id="a_node7"><a xlink:href="class_perceptual_color_1_1_color_dialog.html#abd0da334b7034a67a3cc83bc3ed0a425" target="_top" xlink:title="Updates m_currentOpaqueColor and all affected widgets.">
<polygon fill="white" stroke="black" points="810,-218.35 810,-248.35 967,-248.35 967,-218.35 810,-218.35"/>
<text text-anchor="start" x="818" y="-236.35" font-family="Helvetica,sans-Serif" font-size="10.00">PerceptualColor::ColorDialog</text>
<text text-anchor="middle" x="888.5" y="-225.35" font-family="Helvetica,sans-Serif" font-size="10.00">::setCurrentOpaqueColor</text>
</a>
</g>
</g>
<!-- Node1&#45;&gt;Node7 -->
<g id="edge6" class="edge">
<title>Node1&#45;&gt;Node7</title>
<path fill="none" stroke="midnightblue" d="M1033.96,-265.16C1009.08,-259.68 981.76,-253.67 957.64,-248.36"/>
<polygon fill="midnightblue" stroke="midnightblue" points="1033.21,-268.58 1043.73,-267.31 1034.72,-261.75 1033.21,-268.58"/>
</g>
<!-- Node19 -->
<g id="node19" class="node">
<title>Node19</title>
<g id="a_node19"><a xlink:href="class_perceptual_color_1_1_chroma_hue_diagram.html#a2b14fea4dd40197c7d37c88fb8be63e7" target="_top" xlink:title=" ">
<polygon fill="white" stroke="black" points="809.5,-169.35 809.5,-199.35 967.5,-199.35 967.5,-169.35 809.5,-169.35"/>
<text text-anchor="start" x="817.5" y="-187.35" font-family="Helvetica,sans-Serif" font-size="10.00">PerceptualColor::ChromaHue</text>
<text text-anchor="middle" x="888.5" y="-176.35" font-family="Helvetica,sans-Serif" font-size="10.00">Diagram::wheelEvent</text>
</a>
</g>
</g>
<!-- Node1&#45;&gt;Node19 -->
<g id="edge25" class="edge">
<title>Node1&#45;&gt;Node19</title>
<path fill="none" stroke="midnightblue" d="M1084.71,-261.05C1062.51,-244.69 1029.75,-222.7 998,-209.35 988.38,-205.3 977.99,-201.85 967.58,-198.92"/>
<polygon fill="midnightblue" stroke="midnightblue" points="1082.87,-264.04 1092.97,-267.23 1087.07,-258.44 1082.87,-264.04"/>
</g>
<!-- Node4 -->
<g id="node4" class="node">
<title>Node4</title>
<g id="a_node4"><a xlink:href="class_perceptual_color_1_1_chroma_hue_diagram.html#a16bcb9d0eee3536fe4f1034d2b9c3329" target="_top" xlink:title="React on a mouse move event.">
<polygon fill="white" stroke="black" points="582,-316.35 582,-346.35 740,-346.35 740,-316.35 582,-316.35"/>
<text text-anchor="start" x="590" y="-334.35" font-family="Helvetica,sans-Serif" font-size="10.00">PerceptualColor::ChromaHue</text>
<text text-anchor="middle" x="661" y="-323.35" font-family="Helvetica,sans-Serif" font-size="10.00">Diagram::mouseMoveEvent</text>
</a>
</g>
</g>
<!-- Node3&#45;&gt;Node4 -->
<g id="edge3" class="edge">
<title>Node3&#45;&gt;Node4</title>
<path fill="none" stroke="midnightblue" d="M768.61,-331.35C758.92,-331.35 749.29,-331.35 740.01,-331.35"/>
<polygon fill="midnightblue" stroke="midnightblue" points="768.71,-334.85 778.71,-331.35 768.71,-327.85 768.71,-334.85"/>
</g>
<!-- Node5 -->
<g id="node5" class="node">
<title>Node5</title>
<g id="a_node5"><a xlink:href="class_perceptual_color_1_1_chroma_hue_diagram.html#ad8957ee9c3a3ecb73841c00110ee3058" target="_top" xlink:title="React on a mouse press event.">
<polygon fill="white" stroke="black" points="582,-414.35 582,-444.35 740,-444.35 740,-414.35 582,-414.35"/>
<text text-anchor="start" x="590" y="-432.35" font-family="Helvetica,sans-Serif" font-size="10.00">PerceptualColor::ChromaHue</text>
<text text-anchor="middle" x="661" y="-421.35" font-family="Helvetica,sans-Serif" font-size="10.00">Diagram::mousePressEvent</text>
</a>
</g>
</g>
<!-- Node3&#45;&gt;Node5 -->
<g id="edge4" class="edge">
<title>Node3&#45;&gt;Node5</title>
<path fill="none" stroke="midnightblue" d="M788.8,-350.66C785.41,-352.4 782.13,-354.29 779,-356.35 756.42,-371.2 765.11,-389.81 743,-405.35 738.08,-408.81 732.66,-411.77 727.02,-414.32"/>
<polygon fill="midnightblue" stroke="midnightblue" points="790.38,-353.79 797.99,-346.42 787.44,-347.43 790.38,-353.79"/>
</g>
<!-- Node6 -->
<g id="node6" class="node">
<title>Node6</title>
<g id="a_node6"><a xlink:href="class_perceptual_color_1_1_chroma_hue_diagram.html#adfe93a3ac0005a23c03465635089d846" target="_top" xlink:title="React on a mouse release event.">
<polygon fill="white" stroke="black" points="579,-365.35 579,-395.35 743,-395.35 743,-365.35 579,-365.35"/>
<text text-anchor="start" x="587" y="-383.35" font-family="Helvetica,sans-Serif" font-size="10.00">PerceptualColor::ChromaHue</text>
<text text-anchor="middle" x="661" y="-372.35" font-family="Helvetica,sans-Serif" font-size="10.00">Diagram::mouseReleaseEvent</text>
</a>
</g>
</g>
<!-- Node3&#45;&gt;Node6 -->
<g id="edge5" class="edge">
<title>Node3&#45;&gt;Node6</title>
<path fill="none" stroke="midnightblue" d="M808.41,-348.53C783.2,-354.01 755.51,-360.03 731.06,-365.34"/>
<polygon fill="midnightblue" stroke="midnightblue" points="809.28,-351.93 818.31,-346.38 807.79,-345.09 809.28,-351.93"/>
</g>
<!-- Node8 -->
<g id="node8" class="node">
<title>Node8</title>
<g id="a_node8"><a xlink:href="class_perceptual_color_1_1_color_dialog.html#ad31fb985e1323cdf1208c91f16fe2a51" target="_top" xlink:title="Basic initialization.">
<polygon fill="white" stroke="black" points="193,-150.35 193,-180.35 350,-180.35 350,-150.35 193,-150.35"/>
<text text-anchor="start" x="201" y="-168.35" font-family="Helvetica,sans-Serif" font-size="10.00">PerceptualColor::ColorDialog</text>
<text text-anchor="middle" x="271.5" y="-157.35" font-family="Helvetica,sans-Serif" font-size="10.00">::initialize</text>
</a>
</g>
</g>
<!-- Node7&#45;&gt;Node8 -->
<g id="edge7" class="edge">
<title>Node7&#45;&gt;Node8</title>
<path fill="none" stroke="midnightblue" d="M800.45,-223.14C792.6,-219.64 785.26,-215.14 779,-209.35 738.74,-172.13 780.63,-131.23 743,-91.35 677.96,-22.41 636.29,-34.06 543,-17.35 474.31,-5.05 448.58,13.52 386,-17.35 328.79,-45.57 292.42,-118 278.69,-149.89"/>
<polygon fill="midnightblue" stroke="midnightblue" points="799.27,-226.44 809.86,-226.79 801.8,-219.91 799.27,-226.44"/>
</g>
<!-- Node10 -->
<g id="node10" class="node">
<title>Node10</title>
<g id="a_node10"><a xlink:href="class_perceptual_color_1_1_color_dialog.html#adf67594f0cb9416b245d6cf726f18bf4" target="_top" xlink:title="Reads the HLC numbers in the dialog and updates the dialog accordingly.">
<polygon fill="white" stroke="black" points="582.5,-218.35 582.5,-248.35 739.5,-248.35 739.5,-218.35 582.5,-218.35"/>
<text text-anchor="start" x="590.5" y="-236.35" font-family="Helvetica,sans-Serif" font-size="10.00">PerceptualColor::ColorDialog</text>
<text text-anchor="middle" x="661" y="-225.35" font-family="Helvetica,sans-Serif" font-size="10.00">::readHlcNumericValues</text>
</a>
</g>
</g>
<!-- Node7&#45;&gt;Node10 -->
<g id="edge9" class="edge">
<title>Node7&#45;&gt;Node10</title>
<path fill="none" stroke="midnightblue" d="M799.67,-233.35C779.91,-233.35 759.07,-233.35 739.75,-233.35"/>
<polygon fill="midnightblue" stroke="midnightblue" points="799.9,-236.85 809.9,-233.35 799.9,-229.85 799.9,-236.85"/>
</g>
<!-- Node12 -->
<g id="node12" class="node">
<title>Node12</title>
<g id="a_node12"><a xlink:href="class_perceptual_color_1_1_color_dialog.html#a2a48f4c33652bc9a1a0cb22fd0a6b221" target="_top" xlink:title="Reads the value from the lightness selector in the dialog and updates the dialog accordingly.">
<polygon fill="white" stroke="black" points="386,-174.35 386,-204.35 543,-204.35 543,-174.35 386,-174.35"/>
<text text-anchor="start" x="394" y="-192.35" font-family="Helvetica,sans-Serif" font-size="10.00">PerceptualColor::ColorDialog</text>
<text text-anchor="middle" x="464.5" y="-181.35" font-family="Helvetica,sans-Serif" font-size="10.00">::readLightnessValue</text>
</a>
</g>
</g>
<!-- Node7&#45;&gt;Node12 -->
<g id="edge13" class="edge">
<title>Node7&#45;&gt;Node12</title>
<path fill="none" stroke="midnightblue" d="M799.73,-217.44C781.05,-214.42 761.41,-211.54 743,-209.35 675.73,-201.36 598.88,-196.12 543.13,-193.02"/>
<polygon fill="midnightblue" stroke="midnightblue" points="799.26,-220.91 809.7,-219.07 800.39,-214 799.26,-220.91"/>
</g>
<!-- Node13 -->
<g id="node13" class="node">
<title>Node13</title>
<g id="a_node13"><a xlink:href="class_perceptual_color_1_1_color_dialog.html#a64b6c698ebfaf2461c513ebbb7ef2637" target="_top" xlink:title="Setter for currentColor property.">
<polygon fill="white" stroke="black" points="582.5,-267.35 582.5,-297.35 739.5,-297.35 739.5,-267.35 582.5,-267.35"/>
<text text-anchor="start" x="590.5" y="-285.35" font-family="Helvetica,sans-Serif" font-size="10.00">PerceptualColor::ColorDialog</text>
<text text-anchor="middle" x="661" y="-274.35" font-family="Helvetica,sans-Serif" font-size="10.00">::setCurrentColor</text>
</a>
</g>
</g>
<!-- Node7&#45;&gt;Node13 -->
<g id="edge15" class="edge">
<title>Node7&#45;&gt;Node13</title>
<path fill="none" stroke="midnightblue" d="M808.41,-250.53C783.2,-256.01 755.51,-262.03 731.06,-267.34"/>
<polygon fill="midnightblue" stroke="midnightblue" points="809.28,-253.93 818.31,-248.38 807.79,-247.09 809.28,-253.93"/>
</g>
<!-- Node15 -->
<g id="node15" class="node">
<title>Node15</title>
<g id="a_node15"><a xlink:href="class_perceptual_color_1_1_color_dialog.html#acf0e7b1b619cee3fc7f5a992e2c93e7d" target="_top" xlink:title="Convenience version of setCurrentOpaqueColor(), accepting QColor.">
<polygon fill="white" stroke="black" points="582.5,-100.35 582.5,-130.35 739.5,-130.35 739.5,-100.35 582.5,-100.35"/>
<text text-anchor="start" x="590.5" y="-118.35" font-family="Helvetica,sans-Serif" font-size="10.00">PerceptualColor::ColorDialog</text>
<text text-anchor="middle" x="661" y="-107.35" font-family="Helvetica,sans-Serif" font-size="10.00">::setCurrentOpaqueQColor</text>
</a>
</g>
</g>
<!-- Node7&#45;&gt;Node15 -->
<g id="edge18" class="edge">
<title>Node7&#45;&gt;Node15</title>
<path fill="none" stroke="midnightblue" d="M799.84,-218.35C792.61,-215.8 785.56,-212.83 779,-209.35 759.55,-199.05 759.87,-189.48 743,-175.35 723.68,-159.17 700.47,-142.21 683.85,-130.46"/>
<polygon fill="midnightblue" stroke="midnightblue" points="799.19,-221.82 809.78,-221.55 801.34,-215.15 799.19,-221.82"/>
</g>
<!-- Node9 -->
<g id="node9" class="node">
<title>Node9</title>
<g id="a_node9"><a xlink:href="class_perceptual_color_1_1_color_dialog.html#a3c1ad1040ede00087aa11fab1514a6e7" target="_top" xlink:title="Constructor.">
<polygon fill="white" stroke="black" points="0,-240.35 0,-270.35 157,-270.35 157,-240.35 0,-240.35"/>
<text text-anchor="start" x="8" y="-258.35" font-family="Helvetica,sans-Serif" font-size="10.00">PerceptualColor::ColorDialog</text>
<text text-anchor="middle" x="78.5" y="-247.35" font-family="Helvetica,sans-Serif" font-size="10.00">::ColorDialog</text>
</a>
</g>
</g>
<!-- Node8&#45;&gt;Node9 -->
<g id="edge8" class="edge">
<title>Node8&#45;&gt;Node9</title>
<path fill="none" stroke="midnightblue" d="M229.45,-184.69C194.16,-201.32 143.98,-224.97 111.57,-240.24"/>
<polygon fill="midnightblue" stroke="midnightblue" points="230.98,-187.84 238.53,-180.41 227.99,-181.51 230.98,-187.84"/>
</g>
<!-- Node10&#45;&gt;Node8 -->
<g id="edge12" class="edge">
<title>Node10&#45;&gt;Node8</title>
<path fill="none" stroke="midnightblue" d="M572.17,-234.75C517.84,-233.78 447.05,-229.19 386,-214.35 355.34,-206.9 322.47,-191.85 300.03,-180.38"/>
<polygon fill="midnightblue" stroke="midnightblue" points="572.42,-238.25 582.46,-234.89 572.51,-231.26 572.42,-238.25"/>
</g>
<!-- Node11 -->
<g id="node11" class="node">
<title>Node11</title>
<g id="a_node11"><a xlink:href="class_perceptual_color_1_1_color_dialog.html#a64f6d0e30a627458ccb7bbf4a77ad42b" target="_top" xlink:title="React on focus changes.">
<polygon fill="white" stroke="black" points="386,-262.35 386,-292.35 543,-292.35 543,-262.35 386,-262.35"/>
<text text-anchor="start" x="394" y="-280.35" font-family="Helvetica,sans-Serif" font-size="10.00">PerceptualColor::ColorDialog</text>
<text text-anchor="middle" x="464.5" y="-269.35" font-family="Helvetica,sans-Serif" font-size="10.00">::handleFocusChange</text>
</a>
</g>
</g>
<!-- Node10&#45;&gt;Node11 -->
<g id="edge10" class="edge">
<title>Node10&#45;&gt;Node11</title>
<path fill="none" stroke="midnightblue" d="M583.67,-250.62C566.57,-254.48 548.58,-258.56 531.92,-262.32"/>
<polygon fill="midnightblue" stroke="midnightblue" points="584.63,-253.99 593.61,-248.37 583.08,-247.16 584.63,-253.99"/>
</g>
<!-- Node11&#45;&gt;Node8 -->
<g id="edge11" class="edge">
<title>Node11&#45;&gt;Node8</title>
<path fill="none" stroke="midnightblue" d="M409.42,-258.48C401.41,-255.09 393.38,-251.36 386,-247.35 349.9,-227.74 312,-198.29 290.41,-180.53"/>
<polygon fill="midnightblue" stroke="midnightblue" points="408.18,-261.75 418.76,-262.28 410.82,-255.27 408.18,-261.75"/>
</g>
<!-- Node12&#45;&gt;Node8 -->
<g id="edge14" class="edge">
<title>Node12&#45;&gt;Node8</title>
<path fill="none" stroke="midnightblue" d="M375.81,-178.33C367.24,-177.25 358.58,-176.17 350.12,-175.1"/>
<polygon fill="midnightblue" stroke="midnightblue" points="375.45,-181.81 385.81,-179.59 376.33,-174.87 375.45,-181.81"/>
</g>
<!-- Node13&#45;&gt;Node9 -->
<g id="edge16" class="edge">
<title>Node13&#45;&gt;Node9</title>
<path fill="none" stroke="midnightblue" d="M588.61,-301.67C585.27,-303.41 582.05,-305.3 579,-307.35 558.04,-321.45 565.83,-340.53 543,-351.35 386.68,-425.43 174.05,-312.77 103.41,-270.39"/>
<polygon fill="midnightblue" stroke="midnightblue" points="590.11,-304.84 597.66,-297.41 587.13,-298.5 590.11,-304.84"/>
</g>
<!-- Node14 -->
<g id="node14" class="node">
<title>Node14</title>
<g id="a_node14"><a xlink:href="class_perceptual_color_1_1_color_dialog.html#a08677555088721a366cc839a90b5eea2" target="_top" xlink:title="Pops up a modal color dialog, lets the user choose a color, and returns that color.">
<polygon fill="white" stroke="black" points="386,-311.35 386,-341.35 543,-341.35 543,-311.35 386,-311.35"/>
<text text-anchor="start" x="394" y="-329.35" font-family="Helvetica,sans-Serif" font-size="10.00">PerceptualColor::ColorDialog</text>
<text text-anchor="middle" x="464.5" y="-318.35" font-family="Helvetica,sans-Serif" font-size="10.00">::getColor</text>
</a>
</g>
</g>
<!-- Node13&#45;&gt;Node14 -->
<g id="edge17" class="edge">
<title>Node13&#45;&gt;Node14</title>
<path fill="none" stroke="midnightblue" d="M583.67,-299.62C566.57,-303.48 548.58,-307.56 531.92,-311.32"/>
<polygon fill="midnightblue" stroke="midnightblue" points="584.63,-302.99 593.61,-297.37 583.08,-296.16 584.63,-302.99"/>
</g>
<!-- Node16 -->
<g id="node16" class="node">
<title>Node16</title>
<g id="a_node16"><a xlink:href="class_perceptual_color_1_1_color_dialog.html#ad834c4b1975dd4b226a054497bd1ef47" target="_top" xlink:title="Reads the HSV numbers in the dialog and updates the dialog accordingly.">
<polygon fill="white" stroke="black" points="386,-125.35 386,-155.35 543,-155.35 543,-125.35 386,-125.35"/>
<text text-anchor="start" x="394" y="-143.35" font-family="Helvetica,sans-Serif" font-size="10.00">PerceptualColor::ColorDialog</text>
<text text-anchor="middle" x="464.5" y="-132.35" font-family="Helvetica,sans-Serif" font-size="10.00">::readHsvNumericValues</text>
</a>
</g>
</g>
<!-- Node15&#45;&gt;Node16 -->
<g id="edge19" class="edge">
<title>Node15&#45;&gt;Node16</title>
<path fill="none" stroke="midnightblue" d="M572.23,-126.63C562.51,-127.88 552.67,-129.15 543.09,-130.38"/>
<polygon fill="midnightblue" stroke="midnightblue" points="572.82,-130.08 582.29,-125.34 571.93,-123.14 572.82,-130.08"/>
</g>
<!-- Node17 -->
<g id="node17" class="node">
<title>Node17</title>
<g id="a_node17"><a xlink:href="class_perceptual_color_1_1_color_dialog.html#a4554999f424ac055986478fe8c899ae1" target="_top" xlink:title="Reads the hexadecimal RGB numbers in the dialog and updates the dialog accordingly.">
<polygon fill="white" stroke="black" points="386,-76.35 386,-106.35 543,-106.35 543,-76.35 386,-76.35"/>
<text text-anchor="start" x="394" y="-94.35" font-family="Helvetica,sans-Serif" font-size="10.00">PerceptualColor::ColorDialog</text>
<text text-anchor="middle" x="464.5" y="-83.35" font-family="Helvetica,sans-Serif" font-size="10.00">::readRgbHexValues</text>
</a>
</g>
</g>
<!-- Node15&#45;&gt;Node17 -->
<g id="edge21" class="edge">
<title>Node15&#45;&gt;Node17</title>
<path fill="none" stroke="midnightblue" d="M572.23,-104.52C562.51,-103.32 552.67,-102.1 543.09,-100.92"/>
<polygon fill="midnightblue" stroke="midnightblue" points="571.94,-108.01 582.29,-105.76 572.79,-101.06 571.94,-108.01"/>
</g>
<!-- Node18 -->
<g id="node18" class="node">
<title>Node18</title>
<g id="a_node18"><a xlink:href="class_perceptual_color_1_1_color_dialog.html#a9bb8f87d25714fc283fdda98424030fe" target="_top" xlink:title="Reads the decimal RGB numbers in the dialog and updates the dialog accordingly.">
<polygon fill="white" stroke="black" points="386,-27.35 386,-57.35 543,-57.35 543,-27.35 386,-27.35"/>
<text text-anchor="start" x="394" y="-45.35" font-family="Helvetica,sans-Serif" font-size="10.00">PerceptualColor::ColorDialog</text>
<text text-anchor="middle" x="464.5" y="-34.35" font-family="Helvetica,sans-Serif" font-size="10.00">::readRgbNumericValues</text>
</a>
</g>
</g>
<!-- Node15&#45;&gt;Node18 -->
<g id="edge23" class="edge">
<title>Node15&#45;&gt;Node18</title>
<path fill="none" stroke="midnightblue" d="M617.17,-96.25C595.19,-86.74 567.88,-75.39 543,-66.35 534.53,-63.27 525.45,-60.23 516.59,-57.41"/>
<polygon fill="midnightblue" stroke="midnightblue" points="615.98,-99.55 626.55,-100.33 618.78,-93.13 615.98,-99.55"/>
</g>
<!-- Node16&#45;&gt;Node8 -->
<g id="edge20" class="edge">
<title>Node16&#45;&gt;Node8</title>
<path fill="none" stroke="midnightblue" d="M375.81,-151.83C367.24,-152.95 358.58,-154.08 350.12,-155.19"/>
<polygon fill="midnightblue" stroke="midnightblue" points="376.35,-155.29 385.81,-150.52 375.44,-148.35 376.35,-155.29"/>
</g>
<!-- Node17&#45;&gt;Node8 -->
<g id="edge22" class="edge">
<title>Node17&#45;&gt;Node8</title>
<path fill="none" stroke="midnightblue" d="M404.6,-109.7C398.29,-111.86 391.99,-114.1 386,-116.35 358.48,-126.7 327.91,-140.01 305.43,-150.14"/>
<polygon fill="midnightblue" stroke="midnightblue" points="406.11,-112.88 414.47,-106.38 403.88,-106.25 406.11,-112.88"/>
</g>
<!-- Node18&#45;&gt;Node8 -->
<g id="edge24" class="edge">
<title>Node18&#45;&gt;Node8</title>
<path fill="none" stroke="midnightblue" d="M395.99,-61.33C392.55,-62.89 389.2,-64.56 386,-66.35 345.12,-89.15 305.92,-128.47 286.03,-150.06"/>
<polygon fill="midnightblue" stroke="midnightblue" points="397.38,-64.54 405.25,-57.45 394.68,-58.09 397.38,-64.54"/>
</g>
</g>
</svg>
