<?xml version="1.0" encoding="UTF-8" standalone="no"?>
<!DOCTYPE svg PUBLIC "-//W3C//DTD SVG 1.1//EN"
 "http://www.w3.org/Graphics/SVG/1.1/DTD/svg11.dtd">
<!-- Generated by graphviz version 2.43.0 (0)
 -->
<!-- Title: PerceptualColor::SimpleColorWheel::fromWidgetCoordinatesToWheelCoordinates Pages: 1 -->
<svg width="414pt" height="186pt"
 viewBox="0.00 0.00 414.00 186.00" xmlns="http://www.w3.org/2000/svg" xmlns:xlink="http://www.w3.org/1999/xlink">
<g id="graph0" class="graph" transform="scale(1 1) rotate(0) translate(4 182)">
<title>PerceptualColor::SimpleColorWheel::fromWidgetCoordinatesToWheelCoordinates</title>
<polygon fill="white" stroke="transparent" points="-4,4 -4,-182 410,-182 410,4 -4,4"/>
<!-- Node1 -->
<g id="node1" class="node">
<title>Node1</title>
<g id="a_node1"><a xlink:title="Converts window coordinates to wheel coordinates.">
<polygon fill="#bfbfbf" stroke="black" points="195,-68 195,-109 406,-109 406,-68 195,-68"/>
<text text-anchor="start" x="203" y="-97" font-family="Helvetica,sans-Serif" font-size="10.00">PerceptualColor::SimpleColor</text>
<text text-anchor="start" x="203" y="-86" font-family="Helvetica,sans-Serif" font-size="10.00">Wheel::fromWidgetCoordinatesToWheel</text>
<text text-anchor="middle" x="300.5" y="-75" font-family="Helvetica,sans-Serif" font-size="10.00">Coordinates</text>
</a>
</g>
</g>
<!-- Node2 -->
<g id="node2" class="node">
<title>Node2</title>
<g id="a_node2"><a xlink:href="class_perceptual_color_1_1_simple_color_wheel.html#abe3135d19fc45216402f78bce2cf85f3" target="_top" xlink:title="React on a mouse move event.">
<polygon fill="white" stroke="black" points="0,-147.5 0,-177.5 159,-177.5 159,-147.5 0,-147.5"/>
<text text-anchor="start" x="8" y="-165.5" font-family="Helvetica,sans-Serif" font-size="10.00">PerceptualColor::SimpleColor</text>
<text text-anchor="middle" x="79.5" y="-154.5" font-family="Helvetica,sans-Serif" font-size="10.00">Wheel::mouseMoveEvent</text>
</a>
</g>
</g>
<!-- Node1&#45;&gt;Node2 -->
<g id="edge1" class="edge">
<title>Node1&#45;&gt;Node2</title>
<path fill="none" stroke="midnightblue" d="M234.09,-112.47C210.5,-120.93 183.63,-130.36 159,-138.5 149.93,-141.5 140.24,-144.57 130.86,-147.47"/>
<polygon fill="midnightblue" stroke="midnightblue" points="235.41,-115.71 243.64,-109.03 233.04,-109.13 235.41,-115.71"/>
</g>
<!-- Node3 -->
<g id="node3" class="node">
<title>Node3</title>
<g id="a_node3"><a xlink:href="class_perceptual_color_1_1_simple_color_wheel.html#a8e6801f8291ff6214d93d56d0ec59e22" target="_top" xlink:title="React on a mouse press event.">
<polygon fill="white" stroke="black" points="0,-98.5 0,-128.5 159,-128.5 159,-98.5 0,-98.5"/>
<text text-anchor="start" x="8" y="-116.5" font-family="Helvetica,sans-Serif" font-size="10.00">PerceptualColor::SimpleColor</text>
<text text-anchor="middle" x="79.5" y="-105.5" font-family="Helvetica,sans-Serif" font-size="10.00">Wheel::mousePressEvent</text>
</a>
</g>
</g>
<!-- Node1&#45;&gt;Node3 -->
<g id="edge2" class="edge">
<title>Node1&#45;&gt;Node3</title>
<path fill="none" stroke="midnightblue" d="M184.69,-101.61C176.08,-102.59 167.51,-103.57 159.19,-104.52"/>
<polygon fill="midnightblue" stroke="midnightblue" points="185.27,-105.06 194.81,-100.45 184.48,-98.11 185.27,-105.06"/>
</g>
<!-- Node4 -->
<g id="node4" class="node">
<title>Node4</title>
<g id="a_node4"><a xlink:href="class_perceptual_color_1_1_simple_color_wheel.html#af9f91c60348e415b8726732231230fd0" target="_top" xlink:title="React on a mouse release event.">
<polygon fill="white" stroke="black" points="0,-49.5 0,-79.5 159,-79.5 159,-49.5 0,-49.5"/>
<text text-anchor="start" x="8" y="-67.5" font-family="Helvetica,sans-Serif" font-size="10.00">PerceptualColor::SimpleColor</text>
<text text-anchor="middle" x="79.5" y="-56.5" font-family="Helvetica,sans-Serif" font-size="10.00">Wheel::mouseReleaseEvent</text>
</a>
</g>
</g>
<!-- Node1&#45;&gt;Node4 -->
<g id="edge3" class="edge">
<title>Node1&#45;&gt;Node4</title>
<path fill="none" stroke="midnightblue" d="M184.69,-75.92C176.08,-74.97 167.51,-74.04 159.19,-73.12"/>
<polygon fill="midnightblue" stroke="midnightblue" points="184.49,-79.42 194.81,-77.03 185.25,-72.46 184.49,-79.42"/>
</g>
<!-- Node5 -->
<g id="node5" class="node">
<title>Node5</title>
<g id="a_node5"><a xlink:href="class_perceptual_color_1_1_simple_color_wheel.html#a39f69259647eebe1e95ce3a1aa73bcd6" target="_top" xlink:title="React on a mouse wheel event.">
<polygon fill="white" stroke="black" points="0,-0.5 0,-30.5 159,-30.5 159,-0.5 0,-0.5"/>
<text text-anchor="start" x="8" y="-18.5" font-family="Helvetica,sans-Serif" font-size="10.00">PerceptualColor::SimpleColor</text>
<text text-anchor="middle" x="79.5" y="-7.5" font-family="Helvetica,sans-Serif" font-size="10.00">Wheel::wheelEvent</text>
</a>
</g>
</g>
<!-- Node1&#45;&gt;Node5 -->
<g id="edge4" class="edge">
<title>Node1&#45;&gt;Node5</title>
<path fill="none" stroke="midnightblue" d="M230.55,-64.62C207.8,-56.83 182.35,-48.2 159,-40.5 149.08,-37.23 138.44,-33.79 128.29,-30.54"/>
<polygon fill="midnightblue" stroke="midnightblue" points="229.52,-67.97 240.12,-67.91 231.79,-61.35 229.52,-67.97"/>
</g>
</g>
</svg>
