<?xml version="1.0" encoding="UTF-8" standalone="no"?>
<!DOCTYPE svg PUBLIC "-//W3C//DTD SVG 1.1//EN"
 "http://www.w3.org/Graphics/SVG/1.1/DTD/svg11.dtd">
<!-- Generated by graphviz version 2.43.0 (0)
 -->
<!-- Title: PerceptualColor::WheelColorPicker::WheelColorPicker Pages: 1 -->
<svg width="785pt" height="159pt"
 viewBox="0.00 0.00 785.00 159.00" xmlns="http://www.w3.org/2000/svg" xmlns:xlink="http://www.w3.org/1999/xlink">
<g id="graph0" class="graph" transform="scale(1 1) rotate(0) translate(4 155)">
<title>PerceptualColor::WheelColorPicker::WheelColorPicker</title>
<polygon fill="white" stroke="transparent" points="-4,4 -4,-155 781,-155 781,4 -4,4"/>
<!-- Node1 -->
<g id="node1" class="node">
<title>Node1</title>
<g id="a_node1"><a xlink:title="Constructor.">
<polygon fill="#bfbfbf" stroke="black" points="0,-46.5 0,-76.5 156,-76.5 156,-46.5 0,-46.5"/>
<text text-anchor="start" x="8" y="-64.5" font-family="Helvetica,sans-Serif" font-size="10.00">PerceptualColor::WheelColor</text>
<text text-anchor="middle" x="78" y="-53.5" font-family="Helvetica,sans-Serif" font-size="10.00">Picker::WheelColorPicker</text>
</a>
</g>
</g>
<!-- Node2 -->
<g id="node2" class="node">
<title>Node2</title>
<g id="a_node2"><a xlink:href="class_perceptual_color_1_1_wheel_color_picker.html#aba042e926a0c507c43d0f16afb63cb8e" target="_top" xlink:title="Update the size of the child widget.">
<polygon fill="white" stroke="black" points="206.5,-71.5 206.5,-101.5 362.5,-101.5 362.5,-71.5 206.5,-71.5"/>
<text text-anchor="start" x="214.5" y="-89.5" font-family="Helvetica,sans-Serif" font-size="10.00">PerceptualColor::WheelColor</text>
<text text-anchor="middle" x="284.5" y="-78.5" font-family="Helvetica,sans-Serif" font-size="10.00">Picker::resizeChildWidget</text>
</a>
</g>
</g>
<!-- Node1&#45;&gt;Node2 -->
<g id="edge1" class="edge">
<title>Node1&#45;&gt;Node2</title>
<path fill="none" stroke="midnightblue" d="M156.02,-70.92C169.1,-72.52 182.77,-74.19 196.1,-75.82"/>
<polygon fill="midnightblue" stroke="midnightblue" points="195.86,-79.31 206.21,-77.05 196.71,-72.36 195.86,-79.31"/>
</g>
<!-- Node5 -->
<g id="node5" class="node">
<title>Node5</title>
<g id="a_node5"><a xlink:href="class_perceptual_color_1_1_chroma_lightness_diagram.html#ab46f7c4b9bb12ba3511c29372a25c9f8" target="_top" xlink:title="Set the hue.">
<polygon fill="white" stroke="black" points="192,-22.5 192,-52.5 377,-52.5 377,-22.5 192,-22.5"/>
<text text-anchor="start" x="200" y="-40.5" font-family="Helvetica,sans-Serif" font-size="10.00">PerceptualColor::ChromaLightness</text>
<text text-anchor="middle" x="284.5" y="-29.5" font-family="Helvetica,sans-Serif" font-size="10.00">Diagram::setHue</text>
</a>
</g>
</g>
<!-- Node1&#45;&gt;Node5 -->
<g id="edge4" class="edge">
<title>Node1&#45;&gt;Node5</title>
<path fill="none" stroke="midnightblue" d="M156.02,-52.46C164.4,-51.48 173.03,-50.47 181.65,-49.45"/>
<polygon fill="midnightblue" stroke="midnightblue" points="182.22,-52.91 191.75,-48.27 181.41,-45.96 182.22,-52.91"/>
</g>
<!-- Node3 -->
<g id="node3" class="node">
<title>Node3</title>
<g id="a_node3"><a xlink:href="class_perceptual_color_1_1_simple_color_wheel.html#a6fe09144d693f81d5c7d8306666bc2aa" target="_top" xlink:title="The diameter of the widget content.">
<polygon fill="white" stroke="black" points="426,-120.5 426,-150.5 585,-150.5 585,-120.5 426,-120.5"/>
<text text-anchor="start" x="434" y="-138.5" font-family="Helvetica,sans-Serif" font-size="10.00">PerceptualColor::SimpleColor</text>
<text text-anchor="middle" x="505.5" y="-127.5" font-family="Helvetica,sans-Serif" font-size="10.00">Wheel::contentDiameter</text>
</a>
</g>
</g>
<!-- Node2&#45;&gt;Node3 -->
<g id="edge2" class="edge">
<title>Node2&#45;&gt;Node3</title>
<path fill="none" stroke="midnightblue" d="M352.7,-101.53C376.34,-106.83 403.1,-112.81 427.5,-118.27"/>
<polygon fill="midnightblue" stroke="midnightblue" points="426.91,-121.73 437.43,-120.49 428.44,-114.89 426.91,-121.73"/>
</g>
<!-- Node4 -->
<g id="node4" class="node">
<title>Node4</title>
<g id="a_node4"><a xlink:href="class_perceptual_color_1_1_wheel_color_picker.html#a82999bc171a84656147c0b4f332dd38a" target="_top" xlink:title="Scale a rectangle to a given diagonal line length.">
<polygon fill="white" stroke="black" points="415.5,-71.5 415.5,-101.5 595.5,-101.5 595.5,-71.5 415.5,-71.5"/>
<text text-anchor="start" x="423.5" y="-89.5" font-family="Helvetica,sans-Serif" font-size="10.00">PerceptualColor::WheelColor</text>
<text text-anchor="middle" x="505.5" y="-78.5" font-family="Helvetica,sans-Serif" font-size="10.00">Picker::scaleRectangleToDiagonal</text>
</a>
</g>
</g>
<!-- Node2&#45;&gt;Node4 -->
<g id="edge3" class="edge">
<title>Node2&#45;&gt;Node4</title>
<path fill="none" stroke="midnightblue" d="M362.71,-86.5C376.39,-86.5 390.8,-86.5 404.99,-86.5"/>
<polygon fill="midnightblue" stroke="midnightblue" points="405.26,-90 415.26,-86.5 405.26,-83 405.26,-90"/>
</g>
<!-- Node6 -->
<g id="node6" class="node">
<title>Node6</title>
<g id="a_node6"><a xlink:href="class_perceptual_color_1_1_chroma_lightness_diagram.html#a27d7c972e420480674da1a0fae0b10b3" target="_top" xlink:title="Setter for the color() property.">
<polygon fill="white" stroke="black" points="413,-22.5 413,-52.5 598,-52.5 598,-22.5 413,-22.5"/>
<text text-anchor="start" x="421" y="-40.5" font-family="Helvetica,sans-Serif" font-size="10.00">PerceptualColor::ChromaLightness</text>
<text text-anchor="middle" x="505.5" y="-29.5" font-family="Helvetica,sans-Serif" font-size="10.00">Diagram::setColor</text>
</a>
</g>
</g>
<!-- Node5&#45;&gt;Node6 -->
<g id="edge5" class="edge">
<title>Node5&#45;&gt;Node6</title>
<path fill="none" stroke="midnightblue" d="M377.11,-37.5C385.62,-37.5 394.27,-37.5 402.86,-37.5"/>
<polygon fill="midnightblue" stroke="midnightblue" points="402.91,-41 412.91,-37.5 402.91,-34 402.91,-41"/>
</g>
<!-- Node7 -->
<g id="node7" class="node">
<title>Node7</title>
<g id="a_node7"><a xlink:href="class_perceptual_color_1_1_full_color_description.html#acdbff4639f8a118f0d13a831a4b57ffe" target="_top" xlink:title=" ">
<polygon fill="white" stroke="black" points="634,-0.5 634,-30.5 777,-30.5 777,-0.5 634,-0.5"/>
<text text-anchor="start" x="642" y="-18.5" font-family="Helvetica,sans-Serif" font-size="10.00">PerceptualColor::FullColor</text>
<text text-anchor="middle" x="705.5" y="-7.5" font-family="Helvetica,sans-Serif" font-size="10.00">Description::toLch</text>
</a>
</g>
</g>
<!-- Node5&#45;&gt;Node7 -->
<g id="edge7" class="edge">
<title>Node5&#45;&gt;Node7</title>
<path fill="none" stroke="midnightblue" d="M349.35,-22.47C369.58,-18.38 392.12,-14.53 413,-12.5 494.84,-4.55 515.79,-11.34 598,-12.5 606.31,-12.62 614.98,-12.79 623.63,-12.98"/>
<polygon fill="midnightblue" stroke="midnightblue" points="623.67,-16.49 633.76,-13.23 623.84,-9.49 623.67,-16.49"/>
</g>
<!-- Node6&#45;&gt;Node7 -->
<g id="edge6" class="edge">
<title>Node6&#45;&gt;Node7</title>
<path fill="none" stroke="midnightblue" d="M598.25,-27.31C606.74,-26.36 615.3,-25.41 623.68,-24.48"/>
<polygon fill="midnightblue" stroke="midnightblue" points="624.24,-27.94 633.79,-23.36 623.46,-20.98 624.24,-27.94"/>
</g>
</g>
</svg>
