<?xml version="1.0" encoding="UTF-8" standalone="no"?>
<!DOCTYPE svg PUBLIC "-//W3C//DTD SVG 1.1//EN"
 "http://www.w3.org/Graphics/SVG/1.1/DTD/svg11.dtd">
<!-- Generated by graphviz version 2.43.0 (0)
 -->
<!-- Title: PerceptualColor::WheelColorPicker Pages: 1 -->
<svg width="1104pt" height="181pt"
 viewBox="0.00 0.00 1104.00 181.00" xmlns="http://www.w3.org/2000/svg" xmlns:xlink="http://www.w3.org/1999/xlink">
<g id="graph0" class="graph" transform="scale(1 1) rotate(0) translate(4 177)">
<title>PerceptualColor::WheelColorPicker</title>
<polygon fill="white" stroke="transparent" points="-4,4 -4,-177 1100,-177 1100,4 -4,4"/>
<!-- Node1 -->
<g id="node1" class="node">
<title>Node1</title>
<g id="a_node1"><a xlink:title="Complete wheel&#45;based color picker widget.">
<polygon fill="#bfbfbf" stroke="black" points="940,-68.5 940,-98.5 1096,-98.5 1096,-68.5 940,-68.5"/>
<text text-anchor="start" x="948" y="-86.5" font-family="Helvetica,sans-Serif" font-size="10.00">PerceptualColor::WheelColor</text>
<text text-anchor="middle" x="1018" y="-75.5" font-family="Helvetica,sans-Serif" font-size="10.00">Picker</text>
</a>
</g>
</g>
<!-- Node2 -->
<g id="node2" class="node">
<title>Node2</title>
<g id="a_node2"><a xlink:href="class_perceptual_color_1_1_simple_color_wheel.html" target="_top" xlink:title="Widget to choose the hue in a wheel.">
<polygon fill="white" stroke="black" points="588,-93.5 588,-123.5 747,-123.5 747,-93.5 588,-93.5"/>
<text text-anchor="start" x="596" y="-111.5" font-family="Helvetica,sans-Serif" font-size="10.00">PerceptualColor::SimpleColor</text>
<text text-anchor="middle" x="667.5" y="-100.5" font-family="Helvetica,sans-Serif" font-size="10.00">Wheel</text>
</a>
</g>
</g>
<!-- Node2&#45;&gt;Node1 -->
<g id="edge1" class="edge">
<title>Node2&#45;&gt;Node1</title>
<path fill="none" stroke="midnightblue" d="M757.12,-102.14C813.51,-98.1 885.82,-92.91 939.84,-89.04"/>
<polygon fill="midnightblue" stroke="midnightblue" points="756.87,-98.65 747.14,-102.86 757.37,-105.63 756.87,-98.65"/>
</g>
<!-- Node3 -->
<g id="node3" class="node">
<title>Node3</title>
<g id="a_node3"><a xlink:href="class_perceptual_color_1_1_circular_diagram.html" target="_top" xlink:title="Base class for circular diagrams.">
<polygon fill="white" stroke="black" points="309.5,-88.5 309.5,-118.5 446.5,-118.5 446.5,-88.5 309.5,-88.5"/>
<text text-anchor="start" x="317.5" y="-106.5" font-family="Helvetica,sans-Serif" font-size="10.00">PerceptualColor::Circular</text>
<text text-anchor="middle" x="378" y="-95.5" font-family="Helvetica,sans-Serif" font-size="10.00">Diagram</text>
</a>
</g>
</g>
<!-- Node3&#45;&gt;Node2 -->
<g id="edge2" class="edge">
<title>Node3&#45;&gt;Node2</title>
<path fill="none" stroke="midnightblue" d="M456.91,-104.85C497.58,-105.56 547.23,-106.43 587.99,-107.13"/>
<polygon fill="midnightblue" stroke="midnightblue" points="456.83,-101.35 446.77,-104.68 456.71,-108.35 456.83,-101.35"/>
</g>
<!-- Node4 -->
<g id="node4" class="node">
<title>Node4</title>
<g id="a_node4"><a xlink:href="class_perceptual_color_1_1_abstract_diagram.html" target="_top" xlink:title="Base class for LCh diagrams.">
<polygon fill="white" stroke="black" points="96,-64.5 96,-94.5 236,-94.5 236,-64.5 96,-64.5"/>
<text text-anchor="start" x="104" y="-82.5" font-family="Helvetica,sans-Serif" font-size="10.00">PerceptualColor::Abstract</text>
<text text-anchor="middle" x="166" y="-71.5" font-family="Helvetica,sans-Serif" font-size="10.00">Diagram</text>
</a>
</g>
</g>
<!-- Node4&#45;&gt;Node3 -->
<g id="edge3" class="edge">
<title>Node4&#45;&gt;Node3</title>
<path fill="none" stroke="midnightblue" d="M246.14,-88.54C266.94,-90.92 289.19,-93.46 309.34,-95.77"/>
<polygon fill="midnightblue" stroke="midnightblue" points="246.39,-85.05 236.05,-87.39 245.59,-92 246.39,-85.05"/>
</g>
<!-- Node8 -->
<g id="node8" class="node">
<title>Node8</title>
<g id="a_node8"><a xlink:href="class_perceptual_color_1_1_chroma_lightness_diagram.html" target="_top" xlink:title="A widget that displays a chroma&#45;lightness diagram.">
<polygon fill="white" stroke="black" points="575,-44.5 575,-74.5 760,-74.5 760,-44.5 575,-44.5"/>
<text text-anchor="start" x="583" y="-62.5" font-family="Helvetica,sans-Serif" font-size="10.00">PerceptualColor::ChromaLightness</text>
<text text-anchor="middle" x="667.5" y="-51.5" font-family="Helvetica,sans-Serif" font-size="10.00">Diagram</text>
</a>
</g>
</g>
<!-- Node4&#45;&gt;Node8 -->
<g id="edge8" class="edge">
<title>Node4&#45;&gt;Node8</title>
<path fill="none" stroke="midnightblue" d="M246.26,-76.33C335.56,-72.75 480.49,-66.95 574.65,-63.18"/>
<polygon fill="midnightblue" stroke="midnightblue" points="246.04,-72.83 236.19,-76.73 246.32,-79.83 246.04,-72.83"/>
</g>
<!-- Node5 -->
<g id="node5" class="node">
<title>Node5</title>
<g id="a_node5"><a xlink:title=" ">
<polygon fill="white" stroke="#bfbfbf" points="0,-70 0,-89 59,-89 59,-70 0,-70"/>
<text text-anchor="middle" x="29.5" y="-77" font-family="Helvetica,sans-Serif" font-size="10.00">QWidget</text>
</a>
</g>
</g>
<!-- Node5&#45;&gt;Node4 -->
<g id="edge4" class="edge">
<title>Node5&#45;&gt;Node4</title>
<path fill="none" stroke="midnightblue" d="M69.2,-79.5C77.58,-79.5 86.68,-79.5 95.84,-79.5"/>
<polygon fill="midnightblue" stroke="midnightblue" points="69.02,-76 59.02,-79.5 69.02,-83 69.02,-76"/>
</g>
<!-- Node6 -->
<g id="node6" class="node">
<title>Node6</title>
<g id="a_node6"><a xlink:href="class_perceptual_color_1_1_rgb_color_space.html" target="_top" xlink:title="Interface to LittleCMS for working with an RGB color space.">
<polygon fill="white" stroke="black" points="306,-142.5 306,-172.5 450,-172.5 450,-142.5 306,-142.5"/>
<text text-anchor="start" x="314" y="-160.5" font-family="Helvetica,sans-Serif" font-size="10.00">PerceptualColor::RgbColor</text>
<text text-anchor="middle" x="378" y="-149.5" font-family="Helvetica,sans-Serif" font-size="10.00">Space</text>
</a>
</g>
</g>
<!-- Node6&#45;&gt;Node2 -->
<g id="edge5" class="edge">
<title>Node6&#45;&gt;Node2</title>
<path fill="none" stroke="#9a32cd" stroke-dasharray="5,2" d="M460.18,-152.3C490.71,-149.56 525.61,-145.48 557,-139.5 578.06,-135.49 600.94,-129.31 620.31,-123.52"/>
<polygon fill="#9a32cd" stroke="#9a32cd" points="459.67,-148.84 450.01,-153.18 460.27,-155.81 459.67,-148.84"/>
<text text-anchor="middle" x="512.5" y="-153.5" font-family="Helvetica,sans-Serif" font-size="10.00"> m_rgbColorSpace</text>
</g>
<!-- Node6&#45;&gt;Node8 -->
<g id="edge11" class="edge">
<title>Node6&#45;&gt;Node8</title>
<path fill="none" stroke="#9a32cd" stroke-dasharray="5,2" d="M425.84,-138.7C465.29,-123.2 523.38,-101.13 575,-84.5 585.66,-81.07 597.11,-77.69 608.18,-74.59"/>
<polygon fill="#9a32cd" stroke="#9a32cd" points="424.24,-135.57 416.22,-142.5 426.81,-142.08 424.24,-135.57"/>
<text text-anchor="middle" x="512.5" y="-123.5" font-family="Helvetica,sans-Serif" font-size="10.00"> m_rgbColorSpace</text>
</g>
<!-- Node7 -->
<g id="node7" class="node">
<title>Node7</title>
<g id="a_node7"><a xlink:title=" ">
<polygon fill="white" stroke="#bfbfbf" points="138,-148 138,-167 194,-167 194,-148 138,-148"/>
<text text-anchor="middle" x="166" y="-155" font-family="Helvetica,sans-Serif" font-size="10.00">QObject</text>
</a>
</g>
</g>
<!-- Node7&#45;&gt;Node6 -->
<g id="edge6" class="edge">
<title>Node7&#45;&gt;Node6</title>
<path fill="none" stroke="midnightblue" d="M204.21,-157.5C232.33,-157.5 271.77,-157.5 305.87,-157.5"/>
<polygon fill="midnightblue" stroke="midnightblue" points="204.02,-154 194.02,-157.5 204.02,-161 204.02,-154"/>
</g>
<!-- Node8&#45;&gt;Node1 -->
<g id="edge7" class="edge">
<title>Node8&#45;&gt;Node1</title>
<path fill="none" stroke="#9a32cd" stroke-dasharray="5,2" d="M770.05,-66.49C824.26,-70.23 889.91,-74.75 939.9,-78.19"/>
<polygon fill="#9a32cd" stroke="#9a32cd" points="770.28,-63 760.06,-65.81 769.8,-69.98 770.28,-63"/>
<text text-anchor="middle" x="850" y="-78.5" font-family="Helvetica,sans-Serif" font-size="10.00"> m_chromaLightnessDiagram</text>
</g>
<!-- Node9 -->
<g id="node9" class="node">
<title>Node9</title>
<g id="a_node9"><a xlink:href="class_perceptual_color_1_1_full_color_description.html" target="_top" xlink:title="A fully qualified color.">
<polygon fill="white" stroke="black" points="306.5,-0.5 306.5,-30.5 449.5,-30.5 449.5,-0.5 306.5,-0.5"/>
<text text-anchor="start" x="314.5" y="-18.5" font-family="Helvetica,sans-Serif" font-size="10.00">PerceptualColor::FullColor</text>
<text text-anchor="middle" x="378" y="-7.5" font-family="Helvetica,sans-Serif" font-size="10.00">Description</text>
</a>
</g>
</g>
<!-- Node9&#45;&gt;Node8 -->
<g id="edge9" class="edge">
<title>Node9&#45;&gt;Node8</title>
<path fill="none" stroke="#9a32cd" stroke-dasharray="5,2" d="M460.02,-22.11C490.53,-25.13 525.47,-29.24 557,-34.5 573.16,-37.2 590.5,-40.82 606.51,-44.46"/>
<polygon fill="#9a32cd" stroke="#9a32cd" points="460.15,-18.61 449.86,-21.13 459.47,-25.57 460.15,-18.61"/>
<text text-anchor="middle" x="512.5" y="-37.5" font-family="Helvetica,sans-Serif" font-size="10.00"> m_color</text>
</g>
<!-- Node10 -->
<g id="node10" class="node">
<title>Node10</title>
<g id="a_node10"><a xlink:href="struct_perceptual_color_1_1_helper_1_1cms_r_g_b.html" target="_top" xlink:title="An RGB color.">
<polygon fill="white" stroke="black" points="100,-0.5 100,-30.5 232,-30.5 232,-0.5 100,-0.5"/>
<text text-anchor="start" x="108" y="-18.5" font-family="Helvetica,sans-Serif" font-size="10.00">PerceptualColor::Helper</text>
<text text-anchor="middle" x="166" y="-7.5" font-family="Helvetica,sans-Serif" font-size="10.00">::cmsRGB</text>
</a>
</g>
</g>
<!-- Node10&#45;&gt;Node9 -->
<g id="edge10" class="edge">
<title>Node10&#45;&gt;Node9</title>
<path fill="none" stroke="#9a32cd" stroke-dasharray="5,2" d="M242.14,-15.5C263.1,-15.5 285.78,-15.5 306.46,-15.5"/>
<polygon fill="#9a32cd" stroke="#9a32cd" points="242.01,-12 232.01,-15.5 242.01,-19 242.01,-12"/>
<text text-anchor="middle" x="271" y="-18.5" font-family="Helvetica,sans-Serif" font-size="10.00"> m_rgb</text>
</g>
</g>
</svg>
