<?xml version="1.0" encoding="UTF-8" standalone="no"?>
<!DOCTYPE svg PUBLIC "-//W3C//DTD SVG 1.1//EN"
 "http://www.w3.org/Graphics/SVG/1.1/DTD/svg11.dtd">
<!-- Generated by graphviz version 2.43.0 (0)
 -->
<!-- Title: PerceptualColor::GradientSelector::setFraction Pages: 1 -->
<svg width="1177pt" height="549pt"
 viewBox="0.00 0.00 1177.00 549.00" xmlns="http://www.w3.org/2000/svg" xmlns:xlink="http://www.w3.org/1999/xlink">
<g id="graph0" class="graph" transform="scale(1 1) rotate(0) translate(4 545)">
<title>PerceptualColor::GradientSelector::setFraction</title>
<polygon fill="white" stroke="transparent" points="-4,4 -4,-545 1173,-545 1173,4 -4,4"/>
<!-- Node1 -->
<g id="node1" class="node">
<title>Node1</title>
<g id="a_node1"><a xlink:title=" ">
<polygon fill="#bfbfbf" stroke="black" points="1027,-363.5 1027,-393.5 1169,-393.5 1169,-363.5 1027,-363.5"/>
<text text-anchor="start" x="1035" y="-381.5" font-family="Helvetica,sans-Serif" font-size="10.00">PerceptualColor::Gradient</text>
<text text-anchor="middle" x="1098" y="-370.5" font-family="Helvetica,sans-Serif" font-size="10.00">Selector::setFraction</text>
</a>
</g>
</g>
<!-- Node2 -->
<g id="node2" class="node">
<title>Node2</title>
<g id="a_node2"><a xlink:href="class_perceptual_color_1_1_gradient_selector.html#a0ec90eaf0514195131a7a38e84cd6dfd" target="_top" xlink:title=" ">
<polygon fill="white" stroke="black" points="836.5,-510.5 836.5,-540.5 978.5,-540.5 978.5,-510.5 836.5,-510.5"/>
<text text-anchor="start" x="844.5" y="-528.5" font-family="Helvetica,sans-Serif" font-size="10.00">PerceptualColor::Gradient</text>
<text text-anchor="middle" x="907.5" y="-517.5" font-family="Helvetica,sans-Serif" font-size="10.00">Selector::keyPressEvent</text>
</a>
</g>
</g>
<!-- Node1&#45;&gt;Node2 -->
<g id="edge1" class="edge">
<title>Node1&#45;&gt;Node2</title>
<path fill="none" stroke="midnightblue" d="M1082.45,-402.58C1064.4,-430.44 1031.05,-475.75 991,-501.5 985.73,-504.89 979.97,-507.81 974.02,-510.33"/>
<polygon fill="midnightblue" stroke="midnightblue" points="1085.58,-404.18 1087.97,-393.86 1079.67,-400.44 1085.58,-404.18"/>
</g>
<!-- Node3 -->
<g id="node3" class="node">
<title>Node3</title>
<g id="a_node3"><a xlink:href="class_perceptual_color_1_1_gradient_selector.html#a194cc85b17400e9b227ebc38eb1c0959" target="_top" xlink:title=" ">
<polygon fill="white" stroke="black" points="832.5,-461.5 832.5,-491.5 982.5,-491.5 982.5,-461.5 832.5,-461.5"/>
<text text-anchor="start" x="840.5" y="-479.5" font-family="Helvetica,sans-Serif" font-size="10.00">PerceptualColor::Gradient</text>
<text text-anchor="middle" x="907.5" y="-468.5" font-family="Helvetica,sans-Serif" font-size="10.00">Selector::mouseMoveEvent</text>
</a>
</g>
</g>
<!-- Node1&#45;&gt;Node3 -->
<g id="edge2" class="edge">
<title>Node1&#45;&gt;Node3</title>
<path fill="none" stroke="midnightblue" d="M1071.44,-399.95C1050.84,-416.31 1020.54,-438.37 991,-452.5 984,-455.85 976.44,-458.83 968.84,-461.45"/>
<polygon fill="midnightblue" stroke="midnightblue" points="1073.78,-402.55 1079.37,-393.55 1069.39,-397.1 1073.78,-402.55"/>
</g>
<!-- Node4 -->
<g id="node4" class="node">
<title>Node4</title>
<g id="a_node4"><a xlink:href="class_perceptual_color_1_1_gradient_selector.html#a37fdfe6b99a523638631874159cd7c3b" target="_top" xlink:title=" ">
<polygon fill="white" stroke="black" points="833,-412.5 833,-442.5 982,-442.5 982,-412.5 833,-412.5"/>
<text text-anchor="start" x="841" y="-430.5" font-family="Helvetica,sans-Serif" font-size="10.00">PerceptualColor::Gradient</text>
<text text-anchor="middle" x="907.5" y="-419.5" font-family="Helvetica,sans-Serif" font-size="10.00">Selector::mousePressEvent</text>
</a>
</g>
</g>
<!-- Node1&#45;&gt;Node4 -->
<g id="edge3" class="edge">
<title>Node1&#45;&gt;Node4</title>
<path fill="none" stroke="midnightblue" d="M1029.21,-396.12C1008.58,-401.48 986.12,-407.32 966.23,-412.49"/>
<polygon fill="midnightblue" stroke="midnightblue" points="1030.36,-399.44 1039.16,-393.53 1028.6,-392.66 1030.36,-399.44"/>
</g>
<!-- Node5 -->
<g id="node5" class="node">
<title>Node5</title>
<g id="a_node5"><a xlink:href="class_perceptual_color_1_1_gradient_selector.html#a2c074fbb043b1b00f9b3e621a102e2a7" target="_top" xlink:title=" ">
<polygon fill="white" stroke="black" points="826.5,-363.5 826.5,-393.5 988.5,-393.5 988.5,-363.5 826.5,-363.5"/>
<text text-anchor="start" x="834.5" y="-381.5" font-family="Helvetica,sans-Serif" font-size="10.00">PerceptualColor::Gradient</text>
<text text-anchor="middle" x="907.5" y="-370.5" font-family="Helvetica,sans-Serif" font-size="10.00">Selector::mouseReleaseEvent</text>
</a>
</g>
</g>
<!-- Node1&#45;&gt;Node5 -->
<g id="edge4" class="edge">
<title>Node1&#45;&gt;Node5</title>
<path fill="none" stroke="midnightblue" d="M1016.77,-378.5C1007.44,-378.5 997.92,-378.5 988.59,-378.5"/>
<polygon fill="midnightblue" stroke="midnightblue" points="1016.81,-382 1026.81,-378.5 1016.81,-375 1016.81,-382"/>
</g>
<!-- Node6 -->
<g id="node6" class="node">
<title>Node6</title>
<g id="a_node6"><a xlink:href="class_perceptual_color_1_1_alpha_selector.html#a1f85608426b1828b131c058fa108fff7" target="_top" xlink:title=" ">
<polygon fill="white" stroke="black" points="824,-314.5 824,-344.5 991,-344.5 991,-314.5 824,-314.5"/>
<text text-anchor="start" x="832" y="-332.5" font-family="Helvetica,sans-Serif" font-size="10.00">PerceptualColor::AlphaSelector</text>
<text text-anchor="middle" x="907.5" y="-321.5" font-family="Helvetica,sans-Serif" font-size="10.00">::setAlpha</text>
</a>
</g>
</g>
<!-- Node1&#45;&gt;Node6 -->
<g id="edge5" class="edge">
<title>Node1&#45;&gt;Node6</title>
<path fill="none" stroke="midnightblue" d="M1029.21,-360.88C1008.58,-355.52 986.12,-349.68 966.23,-344.51"/>
<polygon fill="midnightblue" stroke="midnightblue" points="1028.6,-364.34 1039.16,-363.47 1030.36,-357.56 1028.6,-364.34"/>
</g>
<!-- Node12 -->
<g id="node12" class="node">
<title>Node12</title>
<g id="a_node12"><a xlink:href="class_perceptual_color_1_1_color_dialog.html#abd0da334b7034a67a3cc83bc3ed0a425" target="_top" xlink:title="Updates m_currentOpaqueColor and all affected widgets.">
<polygon fill="white" stroke="black" points="829,-265.5 829,-295.5 986,-295.5 986,-265.5 829,-265.5"/>
<text text-anchor="start" x="837" y="-283.5" font-family="Helvetica,sans-Serif" font-size="10.00">PerceptualColor::ColorDialog</text>
<text text-anchor="middle" x="907.5" y="-272.5" font-family="Helvetica,sans-Serif" font-size="10.00">::setCurrentOpaqueColor</text>
</a>
</g>
</g>
<!-- Node1&#45;&gt;Node12 -->
<g id="edge12" class="edge">
<title>Node1&#45;&gt;Node12</title>
<path fill="none" stroke="midnightblue" d="M1070.97,-357.16C1050.33,-341.11 1020.2,-319.56 991,-305.5 983.31,-301.8 974.96,-298.51 966.62,-295.63"/>
<polygon fill="midnightblue" stroke="midnightblue" points="1068.92,-360 1078.93,-363.45 1073.25,-354.5 1068.92,-360"/>
</g>
<!-- Node21 -->
<g id="node21" class="node">
<title>Node21</title>
<g id="a_node21"><a xlink:href="class_perceptual_color_1_1_gradient_selector.html#a2f1ad73ad864cffe3061133c3a048b0d" target="_top" xlink:title=" ">
<polygon fill="white" stroke="black" points="836.5,-216.5 836.5,-246.5 978.5,-246.5 978.5,-216.5 836.5,-216.5"/>
<text text-anchor="start" x="844.5" y="-234.5" font-family="Helvetica,sans-Serif" font-size="10.00">PerceptualColor::Gradient</text>
<text text-anchor="middle" x="907.5" y="-223.5" font-family="Helvetica,sans-Serif" font-size="10.00">Selector::wheelEvent</text>
</a>
</g>
</g>
<!-- Node1&#45;&gt;Node21 -->
<g id="edge29" class="edge">
<title>Node1&#45;&gt;Node21</title>
<path fill="none" stroke="midnightblue" d="M1082.35,-354.69C1064.21,-327.14 1030.78,-282.27 991,-256.5 985.1,-252.68 978.58,-249.41 971.87,-246.63"/>
<polygon fill="midnightblue" stroke="midnightblue" points="1079.55,-356.81 1087.91,-363.32 1085.44,-353.02 1079.55,-356.81"/>
</g>
<!-- Node7 -->
<g id="node7" class="node">
<title>Node7</title>
<g id="a_node7"><a xlink:href="class_perceptual_color_1_1_alpha_selector.html#a3054b783bd88068bbf6caa4553dc4649" target="_top" xlink:title=" ">
<polygon fill="white" stroke="black" points="386,-403.5 386,-433.5 553,-433.5 553,-403.5 386,-403.5"/>
<text text-anchor="start" x="394" y="-421.5" font-family="Helvetica,sans-Serif" font-size="10.00">PerceptualColor::AlphaSelector</text>
<text text-anchor="middle" x="469.5" y="-410.5" font-family="Helvetica,sans-Serif" font-size="10.00">::AlphaSelector</text>
</a>
</g>
</g>
<!-- Node6&#45;&gt;Node7 -->
<g id="edge6" class="edge">
<title>Node6&#45;&gt;Node7</title>
<path fill="none" stroke="midnightblue" d="M832.99,-349.02C829.87,-350.7 826.85,-352.52 824,-354.5 802.37,-369.48 811.27,-389.23 788,-401.5 715.49,-439.74 620.27,-439.34 553.08,-432.25"/>
<polygon fill="midnightblue" stroke="midnightblue" points="834.56,-352.15 842.04,-344.64 831.51,-345.85 834.56,-352.15"/>
</g>
<!-- Node8 -->
<g id="node8" class="node">
<title>Node8</title>
<g id="a_node8"><a xlink:href="class_perceptual_color_1_1_alpha_selector.html#a5d4081da5f351f6c98a2ffda568f434e" target="_top" xlink:title=" ">
<polygon fill="white" stroke="black" points="589,-361.5 589,-391.5 788,-391.5 788,-361.5 589,-361.5"/>
<text text-anchor="start" x="597" y="-379.5" font-family="Helvetica,sans-Serif" font-size="10.00">PerceptualColor::AlphaSelector</text>
<text text-anchor="middle" x="688.5" y="-368.5" font-family="Helvetica,sans-Serif" font-size="10.00">::setAlphaFromRepresentationFormat</text>
</a>
</g>
</g>
<!-- Node6&#45;&gt;Node8 -->
<g id="edge7" class="edge">
<title>Node6&#45;&gt;Node8</title>
<path fill="none" stroke="midnightblue" d="M827.41,-346.63C804.95,-351.49 780.68,-356.75 758.84,-361.48"/>
<polygon fill="midnightblue" stroke="midnightblue" points="828.21,-350.04 837.24,-344.5 826.73,-343.2 828.21,-350.04"/>
</g>
<!-- Node9 -->
<g id="node9" class="node">
<title>Node9</title>
<g id="a_node9"><a xlink:href="class_perceptual_color_1_1_color_dialog.html#a64b6c698ebfaf2461c513ebbb7ef2637" target="_top" xlink:title="Setter for currentColor property.">
<polygon fill="white" stroke="black" points="610,-312.5 610,-342.5 767,-342.5 767,-312.5 610,-312.5"/>
<text text-anchor="start" x="618" y="-330.5" font-family="Helvetica,sans-Serif" font-size="10.00">PerceptualColor::ColorDialog</text>
<text text-anchor="middle" x="688.5" y="-319.5" font-family="Helvetica,sans-Serif" font-size="10.00">::setCurrentColor</text>
</a>
</g>
</g>
<!-- Node6&#45;&gt;Node9 -->
<g id="edge9" class="edge">
<title>Node6&#45;&gt;Node9</title>
<path fill="none" stroke="midnightblue" d="M813.74,-328.65C798.26,-328.5 782.34,-328.36 767.28,-328.22"/>
<polygon fill="midnightblue" stroke="midnightblue" points="813.81,-332.15 823.84,-328.74 813.88,-325.15 813.81,-332.15"/>
</g>
<!-- Node8&#45;&gt;Node7 -->
<g id="edge8" class="edge">
<title>Node8&#45;&gt;Node7</title>
<path fill="none" stroke="midnightblue" d="M599.78,-393.48C582.66,-396.79 564.82,-400.25 548.05,-403.49"/>
<polygon fill="midnightblue" stroke="midnightblue" points="600.62,-396.88 609.77,-391.54 599.29,-390.01 600.62,-396.88"/>
</g>
<!-- Node10 -->
<g id="node10" class="node">
<title>Node10</title>
<g id="a_node10"><a xlink:href="class_perceptual_color_1_1_color_dialog.html#a3c1ad1040ede00087aa11fab1514a6e7" target="_top" xlink:title="Constructor.">
<polygon fill="white" stroke="black" points="0,-249.5 0,-279.5 157,-279.5 157,-249.5 0,-249.5"/>
<text text-anchor="start" x="8" y="-267.5" font-family="Helvetica,sans-Serif" font-size="10.00">PerceptualColor::ColorDialog</text>
<text text-anchor="middle" x="78.5" y="-256.5" font-family="Helvetica,sans-Serif" font-size="10.00">::ColorDialog</text>
</a>
</g>
</g>
<!-- Node9&#45;&gt;Node10 -->
<g id="edge10" class="edge">
<title>Node9&#45;&gt;Node10</title>
<path fill="none" stroke="midnightblue" d="M610.2,-344.38C591.56,-347.75 571.64,-350.78 553,-352.5 479.09,-359.31 459.5,-362.84 386,-352.5 287.6,-338.65 176.5,-300.96 118.89,-279.67"/>
<polygon fill="midnightblue" stroke="midnightblue" points="610.92,-347.81 620.11,-342.53 609.63,-340.92 610.92,-347.81"/>
</g>
<!-- Node11 -->
<g id="node11" class="node">
<title>Node11</title>
<g id="a_node11"><a xlink:href="class_perceptual_color_1_1_color_dialog.html#a08677555088721a366cc839a90b5eea2" target="_top" xlink:title="Pops up a modal color dialog, lets the user choose a color, and returns that color.">
<polygon fill="white" stroke="black" points="391,-312.5 391,-342.5 548,-342.5 548,-312.5 391,-312.5"/>
<text text-anchor="start" x="399" y="-330.5" font-family="Helvetica,sans-Serif" font-size="10.00">PerceptualColor::ColorDialog</text>
<text text-anchor="middle" x="469.5" y="-319.5" font-family="Helvetica,sans-Serif" font-size="10.00">::getColor</text>
</a>
</g>
</g>
<!-- Node9&#45;&gt;Node11 -->
<g id="edge11" class="edge">
<title>Node9&#45;&gt;Node11</title>
<path fill="none" stroke="midnightblue" d="M599.3,-327.5C582.33,-327.5 564.66,-327.5 548.05,-327.5"/>
<polygon fill="midnightblue" stroke="midnightblue" points="599.77,-331 609.77,-327.5 599.77,-324 599.77,-331"/>
</g>
<!-- Node12&#45;&gt;Node9 -->
<g id="edge21" class="edge">
<title>Node12&#45;&gt;Node9</title>
<path fill="none" stroke="midnightblue" d="M827.41,-297.63C804.95,-302.49 780.68,-307.75 758.84,-312.48"/>
<polygon fill="midnightblue" stroke="midnightblue" points="828.21,-301.04 837.24,-295.5 826.73,-294.2 828.21,-301.04"/>
</g>
<!-- Node13 -->
<g id="node13" class="node">
<title>Node13</title>
<g id="a_node13"><a xlink:href="class_perceptual_color_1_1_color_dialog.html#ad31fb985e1323cdf1208c91f16fe2a51" target="_top" xlink:title="Basic initialization.">
<polygon fill="white" stroke="black" points="193,-164.5 193,-194.5 350,-194.5 350,-164.5 193,-164.5"/>
<text text-anchor="start" x="201" y="-182.5" font-family="Helvetica,sans-Serif" font-size="10.00">PerceptualColor::ColorDialog</text>
<text text-anchor="middle" x="271.5" y="-171.5" font-family="Helvetica,sans-Serif" font-size="10.00">::initialize</text>
</a>
</g>
</g>
<!-- Node12&#45;&gt;Node13 -->
<g id="edge13" class="edge">
<title>Node12&#45;&gt;Node13</title>
<path fill="none" stroke="midnightblue" d="M818.59,-288.15C713.08,-294.4 532.12,-295.7 386,-248.5 349.57,-236.73 312.66,-211.21 291.21,-194.73"/>
<polygon fill="midnightblue" stroke="midnightblue" points="819.11,-291.63 828.87,-287.51 818.68,-284.64 819.11,-291.63"/>
</g>
<!-- Node14 -->
<g id="node14" class="node">
<title>Node14</title>
<g id="a_node14"><a xlink:href="class_perceptual_color_1_1_color_dialog.html#adf67594f0cb9416b245d6cf726f18bf4" target="_top" xlink:title="Reads the HLC numbers in the dialog and updates the dialog accordingly.">
<polygon fill="white" stroke="black" points="610,-224.5 610,-254.5 767,-254.5 767,-224.5 610,-224.5"/>
<text text-anchor="start" x="618" y="-242.5" font-family="Helvetica,sans-Serif" font-size="10.00">PerceptualColor::ColorDialog</text>
<text text-anchor="middle" x="688.5" y="-231.5" font-family="Helvetica,sans-Serif" font-size="10.00">::readHlcNumericValues</text>
</a>
</g>
</g>
<!-- Node12&#45;&gt;Node14 -->
<g id="edge15" class="edge">
<title>Node12&#45;&gt;Node14</title>
<path fill="none" stroke="midnightblue" d="M818.78,-263.93C801.66,-260.69 783.82,-257.32 767.05,-254.15"/>
<polygon fill="midnightblue" stroke="midnightblue" points="818.29,-267.4 828.77,-265.81 819.59,-260.52 818.29,-267.4"/>
</g>
<!-- Node16 -->
<g id="node16" class="node">
<title>Node16</title>
<g id="a_node16"><a xlink:href="class_perceptual_color_1_1_color_dialog.html#a2a48f4c33652bc9a1a0cb22fd0a6b221" target="_top" xlink:title="Reads the value from the lightness selector in the dialog and updates the dialog accordingly.">
<polygon fill="white" stroke="black" points="610,-161.5 610,-191.5 767,-191.5 767,-161.5 610,-161.5"/>
<text text-anchor="start" x="618" y="-179.5" font-family="Helvetica,sans-Serif" font-size="10.00">PerceptualColor::ColorDialog</text>
<text text-anchor="middle" x="688.5" y="-168.5" font-family="Helvetica,sans-Serif" font-size="10.00">::readLightnessValue</text>
</a>
</g>
</g>
<!-- Node12&#45;&gt;Node16 -->
<g id="edge19" class="edge">
<title>Node12&#45;&gt;Node16</title>
<path fill="none" stroke="midnightblue" d="M832.19,-261.17C829.36,-259.72 826.62,-258.17 824,-256.5 803.54,-243.48 807.83,-229.46 788,-215.5 773.79,-205.49 756.65,-197.56 740.68,-191.53"/>
<polygon fill="midnightblue" stroke="midnightblue" points="830.89,-264.43 841.44,-265.46 833.83,-258.08 830.89,-264.43"/>
</g>
<!-- Node17 -->
<g id="node17" class="node">
<title>Node17</title>
<g id="a_node17"><a xlink:href="class_perceptual_color_1_1_color_dialog.html#acf0e7b1b619cee3fc7f5a992e2c93e7d" target="_top" xlink:title="Convenience version of setCurrentOpaqueColor(), accepting QColor.">
<polygon fill="white" stroke="black" points="610,-74.5 610,-104.5 767,-104.5 767,-74.5 610,-74.5"/>
<text text-anchor="start" x="618" y="-92.5" font-family="Helvetica,sans-Serif" font-size="10.00">PerceptualColor::ColorDialog</text>
<text text-anchor="middle" x="688.5" y="-81.5" font-family="Helvetica,sans-Serif" font-size="10.00">::setCurrentOpaqueQColor</text>
</a>
</g>
</g>
<!-- Node12&#45;&gt;Node17 -->
<g id="edge22" class="edge">
<title>Node12&#45;&gt;Node17</title>
<path fill="none" stroke="midnightblue" d="M827.47,-259.54C826.27,-258.57 825.11,-257.56 824,-256.5 788.56,-222.79 818.28,-190.91 788,-152.5 771.41,-131.46 745.74,-115.36 724.77,-104.71"/>
<polygon fill="midnightblue" stroke="midnightblue" points="825.65,-262.54 835.88,-265.32 829.62,-256.77 825.65,-262.54"/>
</g>
<!-- Node13&#45;&gt;Node10 -->
<g id="edge14" class="edge">
<title>Node13&#45;&gt;Node10</title>
<path fill="none" stroke="midnightblue" d="M227.45,-198.66C192.99,-213.99 145.33,-235.2 113.51,-249.36"/>
<polygon fill="midnightblue" stroke="midnightblue" points="229.08,-201.76 236.79,-194.5 226.23,-195.37 229.08,-201.76"/>
</g>
<!-- Node14&#45;&gt;Node13 -->
<g id="edge18" class="edge">
<title>Node14&#45;&gt;Node13</title>
<path fill="none" stroke="midnightblue" d="M599.4,-243.72C538.71,-244.68 456.6,-242.13 386,-226.5 355.81,-219.82 323.4,-205.63 300.98,-194.58"/>
<polygon fill="midnightblue" stroke="midnightblue" points="599.78,-247.21 609.71,-243.52 599.64,-240.21 599.78,-247.21"/>
</g>
<!-- Node15 -->
<g id="node15" class="node">
<title>Node15</title>
<g id="a_node15"><a xlink:href="class_perceptual_color_1_1_color_dialog.html#a64f6d0e30a627458ccb7bbf4a77ad42b" target="_top" xlink:title="React on focus changes.">
<polygon fill="white" stroke="black" points="391,-186.5 391,-216.5 548,-216.5 548,-186.5 391,-186.5"/>
<text text-anchor="start" x="399" y="-204.5" font-family="Helvetica,sans-Serif" font-size="10.00">PerceptualColor::ColorDialog</text>
<text text-anchor="middle" x="469.5" y="-193.5" font-family="Helvetica,sans-Serif" font-size="10.00">::handleFocusChange</text>
</a>
</g>
</g>
<!-- Node14&#45;&gt;Node15 -->
<g id="edge16" class="edge">
<title>Node14&#45;&gt;Node15</title>
<path fill="none" stroke="midnightblue" d="M599.78,-224.14C582.66,-221.14 564.82,-218.02 548.05,-215.08"/>
<polygon fill="midnightblue" stroke="midnightblue" points="599.32,-227.61 609.77,-225.89 600.52,-220.72 599.32,-227.61"/>
</g>
<!-- Node15&#45;&gt;Node13 -->
<g id="edge17" class="edge">
<title>Node15&#45;&gt;Node13</title>
<path fill="none" stroke="midnightblue" d="M380.65,-191.64C370.48,-190.5 360.17,-189.34 350.15,-188.22"/>
<polygon fill="midnightblue" stroke="midnightblue" points="380.43,-195.14 390.75,-192.77 381.21,-188.18 380.43,-195.14"/>
</g>
<!-- Node16&#45;&gt;Node13 -->
<g id="edge20" class="edge">
<title>Node16&#45;&gt;Node13</title>
<path fill="none" stroke="midnightblue" d="M599.51,-176.46C539.38,-176.51 457.87,-176.75 386,-177.5 374.37,-177.62 362.08,-177.79 350.04,-177.99"/>
<polygon fill="midnightblue" stroke="midnightblue" points="599.73,-179.96 609.73,-176.45 599.72,-172.96 599.73,-179.96"/>
</g>
<!-- Node18 -->
<g id="node18" class="node">
<title>Node18</title>
<g id="a_node18"><a xlink:href="class_perceptual_color_1_1_color_dialog.html#ad834c4b1975dd4b226a054497bd1ef47" target="_top" xlink:title="Reads the HSV numbers in the dialog and updates the dialog accordingly.">
<polygon fill="white" stroke="black" points="391,-98.5 391,-128.5 548,-128.5 548,-98.5 391,-98.5"/>
<text text-anchor="start" x="399" y="-116.5" font-family="Helvetica,sans-Serif" font-size="10.00">PerceptualColor::ColorDialog</text>
<text text-anchor="middle" x="469.5" y="-105.5" font-family="Helvetica,sans-Serif" font-size="10.00">::readHsvNumericValues</text>
</a>
</g>
</g>
<!-- Node17&#45;&gt;Node18 -->
<g id="edge23" class="edge">
<title>Node17&#45;&gt;Node18</title>
<path fill="none" stroke="midnightblue" d="M599.78,-99.2C582.66,-101.1 564.82,-103.07 548.05,-104.92"/>
<polygon fill="midnightblue" stroke="midnightblue" points="600.22,-102.67 609.77,-98.1 599.45,-95.72 600.22,-102.67"/>
</g>
<!-- Node19 -->
<g id="node19" class="node">
<title>Node19</title>
<g id="a_node19"><a xlink:href="class_perceptual_color_1_1_color_dialog.html#a4554999f424ac055986478fe8c899ae1" target="_top" xlink:title="Reads the hexadecimal RGB numbers in the dialog and updates the dialog accordingly.">
<polygon fill="white" stroke="black" points="391,-49.5 391,-79.5 548,-79.5 548,-49.5 391,-49.5"/>
<text text-anchor="start" x="399" y="-67.5" font-family="Helvetica,sans-Serif" font-size="10.00">PerceptualColor::ColorDialog</text>
<text text-anchor="middle" x="469.5" y="-56.5" font-family="Helvetica,sans-Serif" font-size="10.00">::readRgbHexValues</text>
</a>
</g>
</g>
<!-- Node17&#45;&gt;Node19 -->
<g id="edge25" class="edge">
<title>Node17&#45;&gt;Node19</title>
<path fill="none" stroke="midnightblue" d="M599.78,-79.39C582.66,-77.42 564.82,-75.37 548.05,-73.43"/>
<polygon fill="midnightblue" stroke="midnightblue" points="599.44,-82.88 609.77,-80.55 600.24,-75.92 599.44,-82.88"/>
</g>
<!-- Node20 -->
<g id="node20" class="node">
<title>Node20</title>
<g id="a_node20"><a xlink:href="class_perceptual_color_1_1_color_dialog.html#a9bb8f87d25714fc283fdda98424030fe" target="_top" xlink:title="Reads the decimal RGB numbers in the dialog and updates the dialog accordingly.">
<polygon fill="white" stroke="black" points="391,-0.5 391,-30.5 548,-30.5 548,-0.5 391,-0.5"/>
<text text-anchor="start" x="399" y="-18.5" font-family="Helvetica,sans-Serif" font-size="10.00">PerceptualColor::ColorDialog</text>
<text text-anchor="middle" x="469.5" y="-7.5" font-family="Helvetica,sans-Serif" font-size="10.00">::readRgbNumericValues</text>
</a>
</g>
</g>
<!-- Node17&#45;&gt;Node20 -->
<g id="edge27" class="edge">
<title>Node17&#45;&gt;Node20</title>
<path fill="none" stroke="midnightblue" d="M639.75,-70.78C614.18,-61.01 582.05,-49.11 553,-39.5 543.79,-36.45 533.95,-33.41 524.37,-30.56"/>
<polygon fill="midnightblue" stroke="midnightblue" points="638.62,-74.1 649.21,-74.42 641.13,-67.56 638.62,-74.1"/>
</g>
<!-- Node18&#45;&gt;Node13 -->
<g id="edge24" class="edge">
<title>Node18&#45;&gt;Node13</title>
<path fill="none" stroke="midnightblue" d="M413.91,-131.88C383.45,-142.14 345.97,-154.76 317.26,-164.43"/>
<polygon fill="midnightblue" stroke="midnightblue" points="415.17,-135.15 423.53,-128.64 412.94,-128.52 415.17,-135.15"/>
</g>
<!-- Node19&#45;&gt;Node13 -->
<g id="edge26" class="edge">
<title>Node19&#45;&gt;Node13</title>
<path fill="none" stroke="midnightblue" d="M399.32,-83.31C394.73,-85.21 390.25,-87.27 386,-89.5 347.01,-109.91 308.29,-144.47 287.69,-164.3"/>
<polygon fill="midnightblue" stroke="midnightblue" points="400.77,-86.5 408.84,-79.63 398.25,-79.97 400.77,-86.5"/>
</g>
<!-- Node20&#45;&gt;Node13 -->
<g id="edge28" class="edge">
<title>Node20&#45;&gt;Node13</title>
<path fill="none" stroke="midnightblue" d="M393.64,-34.94C391,-36.36 388.45,-37.88 386,-39.5 335.7,-72.91 296.73,-135.52 280.6,-164.31"/>
<polygon fill="midnightblue" stroke="midnightblue" points="395.38,-37.99 402.87,-30.51 392.34,-31.68 395.38,-37.99"/>
</g>
</g>
</svg>
