<?xml version="1.0" encoding="UTF-8" standalone="no"?>
<!DOCTYPE svg PUBLIC "-//W3C//DTD SVG 1.1//EN"
 "http://www.w3.org/Graphics/SVG/1.1/DTD/svg11.dtd">
<!-- Generated by graphviz version 2.43.0 (0)
 -->
<!-- Title: PerceptualColor::SimpleColorWheel::contentDiameter Pages: 1 -->
<svg width="609pt" height="339pt"
 viewBox="0.00 0.00 609.00 338.50" xmlns="http://www.w3.org/2000/svg" xmlns:xlink="http://www.w3.org/1999/xlink">
<g id="graph0" class="graph" transform="scale(1 1) rotate(0) translate(4 334.5)">
<title>PerceptualColor::SimpleColorWheel::contentDiameter</title>
<polygon fill="white" stroke="transparent" points="-4,4 -4,-334.5 605,-334.5 605,4 -4,4"/>
<!-- Node1 -->
<g id="node1" class="node">
<title>Node1</title>
<g id="a_node1"><a xlink:title="The diameter of the widget content.">
<polygon fill="#bfbfbf" stroke="black" points="442,-182.5 442,-212.5 601,-212.5 601,-182.5 442,-182.5"/>
<text text-anchor="start" x="450" y="-200.5" font-family="Helvetica,sans-Serif" font-size="10.00">PerceptualColor::SimpleColor</text>
<text text-anchor="middle" x="521.5" y="-189.5" font-family="Helvetica,sans-Serif" font-size="10.00">Wheel::contentDiameter</text>
</a>
</g>
</g>
<!-- Node2 -->
<g id="node2" class="node">
<title>Node2</title>
<g id="a_node2"><a xlink:href="class_perceptual_color_1_1_simple_color_wheel.html#a45d568d5ec1f9ffc175f9bdc527c54e3" target="_top" xlink:title="Converts wheel coordinates to widget coordinates.">
<polygon fill="white" stroke="black" points="195,-289 195,-330 406,-330 406,-289 195,-289"/>
<text text-anchor="start" x="203" y="-318" font-family="Helvetica,sans-Serif" font-size="10.00">PerceptualColor::SimpleColor</text>
<text text-anchor="start" x="203" y="-307" font-family="Helvetica,sans-Serif" font-size="10.00">Wheel::fromWheelCoordinatesToWidget</text>
<text text-anchor="middle" x="300.5" y="-296" font-family="Helvetica,sans-Serif" font-size="10.00">Coordinates</text>
</a>
</g>
</g>
<!-- Node1&#45;&gt;Node2 -->
<g id="edge1" class="edge">
<title>Node1&#45;&gt;Node2</title>
<path fill="none" stroke="midnightblue" d="M493.58,-218.66C471.14,-235.52 437.82,-258.83 406,-274.5 395.1,-279.87 383.18,-284.73 371.41,-289"/>
<polygon fill="midnightblue" stroke="midnightblue" points="495.78,-221.38 501.62,-212.54 491.54,-215.81 495.78,-221.38"/>
</g>
<!-- Node3 -->
<g id="node3" class="node">
<title>Node3</title>
<g id="a_node3"><a xlink:href="class_perceptual_color_1_1_simple_color_wheel.html#acec7e14aa3949bb3a1afd03a9d9cc15b" target="_top" xlink:title="Paint the widget.">
<polygon fill="white" stroke="black" points="0,-294.5 0,-324.5 159,-324.5 159,-294.5 0,-294.5"/>
<text text-anchor="start" x="8" y="-312.5" font-family="Helvetica,sans-Serif" font-size="10.00">PerceptualColor::SimpleColor</text>
<text text-anchor="middle" x="79.5" y="-301.5" font-family="Helvetica,sans-Serif" font-size="10.00">Wheel::paintEvent</text>
</a>
</g>
</g>
<!-- Node1&#45;&gt;Node3 -->
<g id="edge9" class="edge">
<title>Node1&#45;&gt;Node3</title>
<path fill="none" stroke="midnightblue" d="M477.67,-216.7C456.46,-225.6 430.25,-235.68 406,-242.5 314.34,-268.26 288.02,-259.19 195,-279.5 175.02,-283.86 153.28,-289.36 134.16,-294.46"/>
<polygon fill="midnightblue" stroke="midnightblue" points="479.21,-219.85 487.04,-212.71 476.47,-213.41 479.21,-219.85"/>
</g>
<!-- Node4 -->
<g id="node4" class="node">
<title>Node4</title>
<g id="a_node4"><a xlink:href="class_perceptual_color_1_1_simple_color_wheel.html#a59df6b50669b8b8b5aec2e190bd23aa8" target="_top" xlink:title="Converts window coordinates to wheel coordinates.">
<polygon fill="white" stroke="black" points="195,-153 195,-194 406,-194 406,-153 195,-153"/>
<text text-anchor="start" x="203" y="-182" font-family="Helvetica,sans-Serif" font-size="10.00">PerceptualColor::SimpleColor</text>
<text text-anchor="start" x="203" y="-171" font-family="Helvetica,sans-Serif" font-size="10.00">Wheel::fromWidgetCoordinatesToWheel</text>
<text text-anchor="middle" x="300.5" y="-160" font-family="Helvetica,sans-Serif" font-size="10.00">Coordinates</text>
</a>
</g>
</g>
<!-- Node1&#45;&gt;Node4 -->
<g id="edge3" class="edge">
<title>Node1&#45;&gt;Node4</title>
<path fill="none" stroke="midnightblue" d="M431.64,-187.76C423.27,-186.85 414.74,-185.91 406.25,-184.98"/>
<polygon fill="midnightblue" stroke="midnightblue" points="431.42,-191.26 441.75,-188.87 432.19,-184.3 431.42,-191.26"/>
</g>
<!-- Node6 -->
<g id="node6" class="node">
<title>Node6</title>
<g id="a_node6"><a xlink:href="class_perceptual_color_1_1_simple_color_wheel.html#a8e6801f8291ff6214d93d56d0ec59e22" target="_top" xlink:title="React on a mouse press event.">
<polygon fill="white" stroke="black" points="0,-245.5 0,-275.5 159,-275.5 159,-245.5 0,-245.5"/>
<text text-anchor="start" x="8" y="-263.5" font-family="Helvetica,sans-Serif" font-size="10.00">PerceptualColor::SimpleColor</text>
<text text-anchor="middle" x="79.5" y="-252.5" font-family="Helvetica,sans-Serif" font-size="10.00">Wheel::mousePressEvent</text>
</a>
</g>
</g>
<!-- Node1&#45;&gt;Node6 -->
<g id="edge8" class="edge">
<title>Node1&#45;&gt;Node6</title>
<path fill="none" stroke="midnightblue" d="M431.8,-210.2C351.99,-221.63 235.81,-238.26 159.22,-249.23"/>
<polygon fill="midnightblue" stroke="midnightblue" points="432.43,-213.65 441.84,-208.76 431.44,-206.72 432.43,-213.65"/>
</g>
<!-- Node8 -->
<g id="node8" class="node">
<title>Node8</title>
<g id="a_node8"><a xlink:href="class_perceptual_color_1_1_simple_color_wheel.html#a39f69259647eebe1e95ce3a1aa73bcd6" target="_top" xlink:title="React on a mouse wheel event.">
<polygon fill="white" stroke="black" points="0,-98.5 0,-128.5 159,-128.5 159,-98.5 0,-98.5"/>
<text text-anchor="start" x="8" y="-116.5" font-family="Helvetica,sans-Serif" font-size="10.00">PerceptualColor::SimpleColor</text>
<text text-anchor="middle" x="79.5" y="-105.5" font-family="Helvetica,sans-Serif" font-size="10.00">Wheel::wheelEvent</text>
</a>
</g>
</g>
<!-- Node1&#45;&gt;Node8 -->
<g id="edge13" class="edge">
<title>Node1&#45;&gt;Node8</title>
<path fill="none" stroke="midnightblue" d="M486.13,-177.41C464,-165.47 434.2,-151.19 406,-143.5 323.74,-121.06 225.91,-114.63 159.13,-113.14"/>
<polygon fill="midnightblue" stroke="midnightblue" points="484.67,-180.6 495.12,-182.36 488.05,-174.47 484.67,-180.6"/>
</g>
<!-- Node9 -->
<g id="node9" class="node">
<title>Node9</title>
<g id="a_node9"><a xlink:href="class_perceptual_color_1_1_wheel_color_picker.html#aba042e926a0c507c43d0f16afb63cb8e" target="_top" xlink:title="Update the size of the child widget.">
<polygon fill="white" stroke="black" points="222.5,-49.5 222.5,-79.5 378.5,-79.5 378.5,-49.5 222.5,-49.5"/>
<text text-anchor="start" x="230.5" y="-67.5" font-family="Helvetica,sans-Serif" font-size="10.00">PerceptualColor::WheelColor</text>
<text text-anchor="middle" x="300.5" y="-56.5" font-family="Helvetica,sans-Serif" font-size="10.00">Picker::resizeChildWidget</text>
</a>
</g>
</g>
<!-- Node1&#45;&gt;Node9 -->
<g id="edge10" class="edge">
<title>Node1&#45;&gt;Node9</title>
<path fill="none" stroke="midnightblue" d="M497.51,-175.11C475.48,-154.59 440.56,-124.47 406,-104.5 388.67,-94.49 368.37,-86.06 350.3,-79.56"/>
<polygon fill="midnightblue" stroke="midnightblue" points="495.35,-177.88 505.02,-182.19 500.15,-172.78 495.35,-177.88"/>
</g>
<!-- Node2&#45;&gt;Node3 -->
<g id="edge2" class="edge">
<title>Node2&#45;&gt;Node3</title>
<path fill="none" stroke="midnightblue" d="M184.69,-309.5C176.08,-309.5 167.51,-309.5 159.19,-309.5"/>
<polygon fill="midnightblue" stroke="midnightblue" points="184.81,-313 194.81,-309.5 184.81,-306 184.81,-313"/>
</g>
<!-- Node5 -->
<g id="node5" class="node">
<title>Node5</title>
<g id="a_node5"><a xlink:href="class_perceptual_color_1_1_simple_color_wheel.html#abe3135d19fc45216402f78bce2cf85f3" target="_top" xlink:title="React on a mouse move event.">
<polygon fill="white" stroke="black" points="0,-196.5 0,-226.5 159,-226.5 159,-196.5 0,-196.5"/>
<text text-anchor="start" x="8" y="-214.5" font-family="Helvetica,sans-Serif" font-size="10.00">PerceptualColor::SimpleColor</text>
<text text-anchor="middle" x="79.5" y="-203.5" font-family="Helvetica,sans-Serif" font-size="10.00">Wheel::mouseMoveEvent</text>
</a>
</g>
</g>
<!-- Node4&#45;&gt;Node5 -->
<g id="edge4" class="edge">
<title>Node4&#45;&gt;Node5</title>
<path fill="none" stroke="midnightblue" d="M184.69,-193.42C176.08,-194.92 167.51,-196.4 159.19,-197.85"/>
<polygon fill="midnightblue" stroke="midnightblue" points="185.56,-196.82 194.81,-191.67 184.36,-189.93 185.56,-196.82"/>
</g>
<!-- Node4&#45;&gt;Node6 -->
<g id="edge5" class="edge">
<title>Node4&#45;&gt;Node6</title>
<path fill="none" stroke="midnightblue" d="M217.98,-197.77C210.06,-201.02 202.27,-204.6 195,-208.5 177.14,-218.08 176.99,-227.16 159,-236.5 152.55,-239.85 145.55,-242.82 138.49,-245.42"/>
<polygon fill="midnightblue" stroke="midnightblue" points="219.3,-201.01 227.32,-194.09 216.74,-194.5 219.3,-201.01"/>
</g>
<!-- Node7 -->
<g id="node7" class="node">
<title>Node7</title>
<g id="a_node7"><a xlink:href="class_perceptual_color_1_1_simple_color_wheel.html#af9f91c60348e415b8726732231230fd0" target="_top" xlink:title="React on a mouse release event.">
<polygon fill="white" stroke="black" points="0,-147.5 0,-177.5 159,-177.5 159,-147.5 0,-147.5"/>
<text text-anchor="start" x="8" y="-165.5" font-family="Helvetica,sans-Serif" font-size="10.00">PerceptualColor::SimpleColor</text>
<text text-anchor="middle" x="79.5" y="-154.5" font-family="Helvetica,sans-Serif" font-size="10.00">Wheel::mouseReleaseEvent</text>
</a>
</g>
</g>
<!-- Node4&#45;&gt;Node7 -->
<g id="edge6" class="edge">
<title>Node4&#45;&gt;Node7</title>
<path fill="none" stroke="midnightblue" d="M184.69,-167.73C176.08,-167.3 167.51,-166.87 159.19,-166.45"/>
<polygon fill="midnightblue" stroke="midnightblue" points="184.65,-171.24 194.81,-168.24 185,-164.24 184.65,-171.24"/>
</g>
<!-- Node4&#45;&gt;Node8 -->
<g id="edge7" class="edge">
<title>Node4&#45;&gt;Node8</title>
<path fill="none" stroke="midnightblue" d="M214.73,-150.28C188.1,-142.98 159.41,-135.12 135.41,-128.54"/>
<polygon fill="midnightblue" stroke="midnightblue" points="213.87,-153.67 224.44,-152.94 215.72,-146.92 213.87,-153.67"/>
</g>
<!-- Node10 -->
<g id="node10" class="node">
<title>Node10</title>
<g id="a_node10"><a xlink:href="class_perceptual_color_1_1_wheel_color_picker.html#adec0d229991217cd17e06887e829cdc2" target="_top" xlink:title="React on a resive event.">
<polygon fill="white" stroke="black" points="1.5,-49.5 1.5,-79.5 157.5,-79.5 157.5,-49.5 1.5,-49.5"/>
<text text-anchor="start" x="9.5" y="-67.5" font-family="Helvetica,sans-Serif" font-size="10.00">PerceptualColor::WheelColor</text>
<text text-anchor="middle" x="79.5" y="-56.5" font-family="Helvetica,sans-Serif" font-size="10.00">Picker::resizeEvent</text>
</a>
</g>
</g>
<!-- Node9&#45;&gt;Node10 -->
<g id="edge11" class="edge">
<title>Node9&#45;&gt;Node10</title>
<path fill="none" stroke="midnightblue" d="M212.11,-64.5C194.14,-64.5 175.34,-64.5 157.75,-64.5"/>
<polygon fill="midnightblue" stroke="midnightblue" points="212.29,-68 222.29,-64.5 212.29,-61 212.29,-68"/>
</g>
<!-- Node11 -->
<g id="node11" class="node">
<title>Node11</title>
<g id="a_node11"><a xlink:href="class_perceptual_color_1_1_wheel_color_picker.html#a44595e05acd7bf6ad716242f987507da" target="_top" xlink:title="Constructor.">
<polygon fill="white" stroke="black" points="1.5,-0.5 1.5,-30.5 157.5,-30.5 157.5,-0.5 1.5,-0.5"/>
<text text-anchor="start" x="9.5" y="-18.5" font-family="Helvetica,sans-Serif" font-size="10.00">PerceptualColor::WheelColor</text>
<text text-anchor="middle" x="79.5" y="-7.5" font-family="Helvetica,sans-Serif" font-size="10.00">Picker::WheelColorPicker</text>
</a>
</g>
</g>
<!-- Node9&#45;&gt;Node11 -->
<g id="edge12" class="edge">
<title>Node9&#45;&gt;Node11</title>
<path fill="none" stroke="midnightblue" d="M222.37,-47.24C197.96,-41.78 171.21,-35.79 147.57,-30.51"/>
<polygon fill="midnightblue" stroke="midnightblue" points="221.78,-50.7 232.3,-49.47 223.31,-43.87 221.78,-50.7"/>
</g>
</g>
</svg>
