<?xml version="1.0" encoding="UTF-8" standalone="no"?>
<!DOCTYPE svg PUBLIC "-//W3C//DTD SVG 1.1//EN"
 "http://www.w3.org/Graphics/SVG/1.1/DTD/svg11.dtd">
<!-- Generated by graphviz version 2.43.0 (0)
 -->
<!-- Title: PerceptualColor::ChromaHueDiagram::mouseMoveEvent Pages: 1 -->
<svg width="840pt" height="241pt"
 viewBox="0.00 0.00 840.00 241.06" xmlns="http://www.w3.org/2000/svg" xmlns:xlink="http://www.w3.org/1999/xlink">
<g id="graph0" class="graph" transform="scale(1 1) rotate(0) translate(4 237.06)">
<title>PerceptualColor::ChromaHueDiagram::mouseMoveEvent</title>
<polygon fill="white" stroke="transparent" points="-4,4 -4,-237.06 836,-237.06 836,4 -4,4"/>
<!-- Node1 -->
<g id="node1" class="node">
<title>Node1</title>
<g id="a_node1"><a xlink:title="React on a mouse move event.">
<polygon fill="#bfbfbf" stroke="black" points="0,-104.06 0,-134.06 158,-134.06 158,-104.06 0,-104.06"/>
<text text-anchor="start" x="8" y="-122.06" font-family="Helvetica,sans-Serif" font-size="10.00">PerceptualColor::ChromaHue</text>
<text text-anchor="middle" x="79" y="-111.06" font-family="Helvetica,sans-Serif" font-size="10.00">Diagram::mouseMoveEvent</text>
</a>
</g>
</g>
<!-- Node2 -->
<g id="node2" class="node">
<title>Node2</title>
<g id="a_node2"><a xlink:href="class_perceptual_color_1_1_chroma_hue_diagram.html#aa447440e88450057faa8bfc5f31dfb46" target="_top" xlink:title="Tests if image coordinates are within the diagram surface.">
<polygon fill="white" stroke="black" points="203,-191.56 203,-232.56 404,-232.56 404,-191.56 203,-191.56"/>
<text text-anchor="start" x="211" y="-220.56" font-family="Helvetica,sans-Serif" font-size="10.00">PerceptualColor::ChromaHue</text>
<text text-anchor="start" x="211" y="-209.56" font-family="Helvetica,sans-Serif" font-size="10.00">Diagram::areImageCoordinatesWithin</text>
<text text-anchor="middle" x="303.5" y="-198.56" font-family="Helvetica,sans-Serif" font-size="10.00">DiagramSurface</text>
</a>
</g>
</g>
<!-- Node1&#45;&gt;Node2 -->
<g id="edge1" class="edge">
<title>Node1&#45;&gt;Node2</title>
<path fill="none" stroke="midnightblue" d="M106.61,-134.12C129.36,-146.62 163.21,-164.35 194,-177.06 203.5,-180.97 213.6,-184.74 223.68,-188.26"/>
<polygon fill="midnightblue" stroke="midnightblue" points="222.72,-191.63 233.32,-191.56 224.99,-185.01 222.72,-191.63"/>
</g>
<!-- Node4 -->
<g id="node4" class="node">
<title>Node4</title>
<g id="a_node4"><a xlink:href="class_perceptual_color_1_1_chroma_hue_diagram.html#a82bab0738efff92bf357584527f85b65" target="_top" xlink:title=" ">
<polygon fill="white" stroke="black" points="450.5,-148.06 450.5,-178.06 651.5,-178.06 651.5,-148.06 450.5,-148.06"/>
<text text-anchor="start" x="458.5" y="-166.06" font-family="Helvetica,sans-Serif" font-size="10.00">PerceptualColor::ChromaHue</text>
<text text-anchor="middle" x="551" y="-155.06" font-family="Helvetica,sans-Serif" font-size="10.00">Diagram::fromImageCoordinatesToAB</text>
</a>
</g>
</g>
<!-- Node1&#45;&gt;Node4 -->
<g id="edge3" class="edge">
<title>Node1&#45;&gt;Node4</title>
<path fill="none" stroke="midnightblue" d="M139.73,-134.07C157.12,-137.92 176.23,-141.65 194,-144.06 275.99,-155.16 369.42,-159.85 439.99,-161.79"/>
<polygon fill="midnightblue" stroke="midnightblue" points="440.14,-165.3 450.23,-162.06 440.33,-158.3 440.14,-165.3"/>
</g>
<!-- Node5 -->
<g id="node5" class="node">
<title>Node5</title>
<g id="a_node5"><a xlink:href="class_perceptual_color_1_1_rgb_color_space.html#a24382dbdad4c514bde0842b5a8313be0" target="_top" xlink:title="check if a Lab value is within a specific RGB gamut">
<polygon fill="white" stroke="black" points="231.5,-104.06 231.5,-134.06 375.5,-134.06 375.5,-104.06 231.5,-104.06"/>
<text text-anchor="start" x="239.5" y="-122.06" font-family="Helvetica,sans-Serif" font-size="10.00">PerceptualColor::RgbColor</text>
<text text-anchor="middle" x="303.5" y="-111.06" font-family="Helvetica,sans-Serif" font-size="10.00">Space::inGamut</text>
</a>
</g>
</g>
<!-- Node1&#45;&gt;Node5 -->
<g id="edge4" class="edge">
<title>Node1&#45;&gt;Node5</title>
<path fill="none" stroke="midnightblue" d="M158.13,-119.06C178.48,-119.06 200.46,-119.06 220.99,-119.06"/>
<polygon fill="midnightblue" stroke="midnightblue" points="221.25,-122.56 231.25,-119.06 221.25,-115.56 221.25,-122.56"/>
</g>
<!-- Node6 -->
<g id="node6" class="node">
<title>Node6</title>
<g id="a_node6"><a xlink:href="class_perceptual_color_1_1_chroma_hue_diagram.html#a65ff87dfbc2ffa5d71b5e58c30d3b39c" target="_top" xlink:title="Sets the color property corresponding to given widget coordinates.">
<polygon fill="white" stroke="black" points="194,-55.06 194,-85.06 413,-85.06 413,-55.06 194,-55.06"/>
<text text-anchor="start" x="202" y="-73.06" font-family="Helvetica,sans-Serif" font-size="10.00">PerceptualColor::ChromaHue</text>
<text text-anchor="middle" x="303.5" y="-62.06" font-family="Helvetica,sans-Serif" font-size="10.00">Diagram::setColorFromImageCoordinates</text>
</a>
</g>
</g>
<!-- Node1&#45;&gt;Node6 -->
<g id="edge5" class="edge">
<title>Node1&#45;&gt;Node6</title>
<path fill="none" stroke="midnightblue" d="M148.27,-104.02C172.3,-98.73 199.48,-92.74 224.27,-87.28"/>
<polygon fill="midnightblue" stroke="midnightblue" points="225.35,-90.63 234.36,-85.06 223.84,-83.79 225.35,-90.63"/>
</g>
<!-- Node10 -->
<g id="node10" class="node">
<title>Node10</title>
<g id="a_node10"><a xlink:href="class_perceptual_color_1_1_full_color_description.html#acdbff4639f8a118f0d13a831a4b57ffe" target="_top" xlink:title=" ">
<polygon fill="white" stroke="black" points="689,-6.06 689,-36.06 832,-36.06 832,-6.06 689,-6.06"/>
<text text-anchor="start" x="697" y="-24.06" font-family="Helvetica,sans-Serif" font-size="10.00">PerceptualColor::FullColor</text>
<text text-anchor="middle" x="760.5" y="-13.06" font-family="Helvetica,sans-Serif" font-size="10.00">Description::toLch</text>
</a>
</g>
</g>
<!-- Node1&#45;&gt;Node10 -->
<g id="edge12" class="edge">
<title>Node1&#45;&gt;Node10</title>
<path fill="none" stroke="midnightblue" d="M97.51,-103.79C118.74,-86.26 156.36,-58.23 194,-45.06 358.36,12.48 566.16,1.86 678.49,-10.13"/>
<polygon fill="midnightblue" stroke="midnightblue" points="678.41,-13.64 688.73,-11.25 679.17,-6.68 678.41,-13.64"/>
</g>
<!-- Node3 -->
<g id="node3" class="node">
<title>Node3</title>
<g id="a_node3"><a xlink:href="class_perceptual_color_1_1_polar_point_f.html#ad9e45debe2dc38bbba834d791336f1fd" target="_top" xlink:title="Normalized radial.">
<polygon fill="white" stroke="black" points="476.5,-197.06 476.5,-227.06 625.5,-227.06 625.5,-197.06 476.5,-197.06"/>
<text text-anchor="start" x="484.5" y="-215.06" font-family="Helvetica,sans-Serif" font-size="10.00">PerceptualColor::PolarPoint</text>
<text text-anchor="middle" x="551" y="-204.06" font-family="Helvetica,sans-Serif" font-size="10.00">F::radial</text>
</a>
</g>
</g>
<!-- Node2&#45;&gt;Node3 -->
<g id="edge2" class="edge">
<title>Node2&#45;&gt;Node3</title>
<path fill="none" stroke="midnightblue" d="M404,-212.06C424.69,-212.06 446.3,-212.06 466.36,-212.06"/>
<polygon fill="midnightblue" stroke="midnightblue" points="466.38,-215.56 476.38,-212.06 466.38,-208.56 466.38,-215.56"/>
</g>
<!-- Node6&#45;&gt;Node4 -->
<g id="edge6" class="edge">
<title>Node6&#45;&gt;Node4</title>
<path fill="none" stroke="midnightblue" d="M392.96,-85.14C399.98,-87.9 406.76,-91.18 413,-95.06 434.46,-108.39 427.58,-125.65 449,-139.06 451.66,-140.72 454.43,-142.27 457.28,-143.72"/>
<polygon fill="midnightblue" stroke="midnightblue" points="456.06,-147.01 466.62,-147.97 458.97,-140.64 456.06,-147.01"/>
</g>
<!-- Node7 -->
<g id="node7" class="node">
<title>Node7</title>
<g id="a_node7"><a xlink:href="class_perceptual_color_1_1_chroma_hue_diagram.html#a3a62b8d0b33df74dacd6150865c57382" target="_top" xlink:title=" ">
<polygon fill="white" stroke="black" points="449,-99.06 449,-129.06 653,-129.06 653,-99.06 449,-99.06"/>
<text text-anchor="start" x="457" y="-117.06" font-family="Helvetica,sans-Serif" font-size="10.00">PerceptualColor::ChromaHue</text>
<text text-anchor="middle" x="551" y="-106.06" font-family="Helvetica,sans-Serif" font-size="10.00">Diagram::imageCoordinatesFromColor</text>
</a>
</g>
</g>
<!-- Node6&#45;&gt;Node7 -->
<g id="edge7" class="edge">
<title>Node6&#45;&gt;Node7</title>
<path fill="none" stroke="midnightblue" d="M388.3,-85.08C410.1,-88.98 433.73,-93.22 456.02,-97.21"/>
<polygon fill="midnightblue" stroke="midnightblue" points="455.7,-100.71 466.16,-99.03 456.93,-93.82 455.7,-100.71"/>
</g>
<!-- Node9 -->
<g id="node9" class="node">
<title>Node9</title>
<g id="a_node9"><a xlink:href="class_perceptual_color_1_1_chroma_hue_diagram.html#a443db20bc2c25119febcd61ca9299d21" target="_top" xlink:title="Setter for the color() property.">
<polygon fill="white" stroke="black" points="472,-50.06 472,-80.06 630,-80.06 630,-50.06 472,-50.06"/>
<text text-anchor="start" x="480" y="-68.06" font-family="Helvetica,sans-Serif" font-size="10.00">PerceptualColor::ChromaHue</text>
<text text-anchor="middle" x="551" y="-57.06" font-family="Helvetica,sans-Serif" font-size="10.00">Diagram::setColor</text>
</a>
</g>
</g>
<!-- Node6&#45;&gt;Node9 -->
<g id="edge9" class="edge">
<title>Node6&#45;&gt;Node9</title>
<path fill="none" stroke="midnightblue" d="M413.25,-67.84C429.45,-67.51 445.99,-67.17 461.7,-66.85"/>
<polygon fill="midnightblue" stroke="midnightblue" points="461.97,-70.35 471.89,-66.65 461.82,-63.35 461.97,-70.35"/>
</g>
<!-- Node6&#45;&gt;Node10 -->
<g id="edge11" class="edge">
<title>Node6&#45;&gt;Node10</title>
<path fill="none" stroke="midnightblue" d="M367.11,-55.01C392.4,-49.47 421.95,-43.67 449,-40.06 526.58,-29.68 615.84,-24.97 678.69,-22.82"/>
<polygon fill="midnightblue" stroke="midnightblue" points="679.05,-26.31 688.93,-22.49 678.82,-19.32 679.05,-26.31"/>
</g>
<!-- Node8 -->
<g id="node8" class="node">
<title>Node8</title>
<g id="a_node8"><a xlink:href="class_perceptual_color_1_1_full_color_description.html#a26e4ea239adaeeb9237e9655b1cab9e5" target="_top" xlink:title=" ">
<polygon fill="white" stroke="black" points="689,-99.06 689,-129.06 832,-129.06 832,-99.06 689,-99.06"/>
<text text-anchor="start" x="697" y="-117.06" font-family="Helvetica,sans-Serif" font-size="10.00">PerceptualColor::FullColor</text>
<text text-anchor="middle" x="760.5" y="-106.06" font-family="Helvetica,sans-Serif" font-size="10.00">Description::toLab</text>
</a>
</g>
</g>
<!-- Node7&#45;&gt;Node8 -->
<g id="edge8" class="edge">
<title>Node7&#45;&gt;Node8</title>
<path fill="none" stroke="midnightblue" d="M653.01,-114.06C661.66,-114.06 670.33,-114.06 678.79,-114.06"/>
<polygon fill="midnightblue" stroke="midnightblue" points="678.98,-117.56 688.98,-114.06 678.98,-110.56 678.98,-117.56"/>
</g>
<!-- Node9&#45;&gt;Node10 -->
<g id="edge10" class="edge">
<title>Node9&#45;&gt;Node10</title>
<path fill="none" stroke="midnightblue" d="M622.83,-50.04C640.94,-46.2 660.55,-42.04 679.1,-38.1"/>
<polygon fill="midnightblue" stroke="midnightblue" points="679.93,-41.51 688.99,-36.01 678.48,-34.66 679.93,-41.51"/>
</g>
</g>
</svg>
