<?xml version="1.0" encoding="UTF-8" standalone="no"?>
<!DOCTYPE svg PUBLIC "-//W3C//DTD SVG 1.1//EN"
 "http://www.w3.org/Graphics/SVG/1.1/DTD/svg11.dtd">
<!-- Generated by graphviz version 2.43.0 (0)
 -->
<!-- Title: PerceptualColor::AlphaSelector::AlphaSelector Pages: 1 -->
<svg width="791pt" height="219pt"
 viewBox="0.00 0.00 791.00 219.00" xmlns="http://www.w3.org/2000/svg" xmlns:xlink="http://www.w3.org/1999/xlink">
<g id="graph0" class="graph" transform="scale(1 1) rotate(0) translate(4 215)">
<title>PerceptualColor::AlphaSelector::AlphaSelector</title>
<polygon fill="white" stroke="transparent" points="-4,4 -4,-215 787,-215 787,4 -4,4"/>
<!-- Node1 -->
<g id="node1" class="node">
<title>Node1</title>
<g id="a_node1"><a xlink:title=" ">
<polygon fill="#bfbfbf" stroke="black" points="0,-98.5 0,-128.5 167,-128.5 167,-98.5 0,-98.5"/>
<text text-anchor="start" x="8" y="-116.5" font-family="Helvetica,sans-Serif" font-size="10.00">PerceptualColor::AlphaSelector</text>
<text text-anchor="middle" x="83.5" y="-105.5" font-family="Helvetica,sans-Serif" font-size="10.00">::AlphaSelector</text>
</a>
</g>
</g>
<!-- Node2 -->
<g id="node2" class="node">
<title>Node2</title>
<g id="a_node2"><a xlink:href="class_perceptual_color_1_1_alpha_selector.html#a1f85608426b1828b131c058fa108fff7" target="_top" xlink:title=" ">
<polygon fill="white" stroke="black" points="438,-180.5 438,-210.5 605,-210.5 605,-180.5 438,-180.5"/>
<text text-anchor="start" x="446" y="-198.5" font-family="Helvetica,sans-Serif" font-size="10.00">PerceptualColor::AlphaSelector</text>
<text text-anchor="middle" x="521.5" y="-187.5" font-family="Helvetica,sans-Serif" font-size="10.00">::setAlpha</text>
</a>
</g>
</g>
<!-- Node1&#45;&gt;Node2 -->
<g id="edge1" class="edge">
<title>Node1&#45;&gt;Node2</title>
<path fill="none" stroke="midnightblue" d="M102.31,-128.7C124.3,-146.41 163.64,-174.74 203,-186.5 276.23,-208.37 363.22,-209.2 427.61,-205.36"/>
<polygon fill="midnightblue" stroke="midnightblue" points="427.99,-208.84 437.74,-204.7 427.54,-201.86 427.99,-208.84"/>
</g>
<!-- Node4 -->
<g id="node4" class="node">
<title>Node4</title>
<g id="a_node4"><a xlink:href="class_perceptual_color_1_1_alpha_selector.html#a5d4081da5f351f6c98a2ffda568f434e" target="_top" xlink:title=" ">
<polygon fill="white" stroke="black" points="203,-147.5 203,-177.5 402,-177.5 402,-147.5 203,-147.5"/>
<text text-anchor="start" x="211" y="-165.5" font-family="Helvetica,sans-Serif" font-size="10.00">PerceptualColor::AlphaSelector</text>
<text text-anchor="middle" x="302.5" y="-154.5" font-family="Helvetica,sans-Serif" font-size="10.00">::setAlphaFromRepresentationFormat</text>
</a>
</g>
</g>
<!-- Node1&#45;&gt;Node4 -->
<g id="edge3" class="edge">
<title>Node1&#45;&gt;Node4</title>
<path fill="none" stroke="midnightblue" d="M151.08,-128.53C174.51,-133.83 201.03,-139.81 225.2,-145.27"/>
<polygon fill="midnightblue" stroke="midnightblue" points="224.52,-148.71 235.04,-147.49 226.06,-141.88 224.52,-148.71"/>
</g>
<!-- Node5 -->
<g id="node5" class="node">
<title>Node5</title>
<g id="a_node5"><a xlink:href="class_perceptual_color_1_1_alpha_selector.html#ac9faa6bbf68757f843e4cce92d697067" target="_top" xlink:title=" ">
<polygon fill="white" stroke="black" points="219,-98.5 219,-128.5 386,-128.5 386,-98.5 219,-98.5"/>
<text text-anchor="start" x="227" y="-116.5" font-family="Helvetica,sans-Serif" font-size="10.00">PerceptualColor::AlphaSelector</text>
<text text-anchor="middle" x="302.5" y="-105.5" font-family="Helvetica,sans-Serif" font-size="10.00">::setColor</text>
</a>
</g>
</g>
<!-- Node1&#45;&gt;Node5 -->
<g id="edge5" class="edge">
<title>Node1&#45;&gt;Node5</title>
<path fill="none" stroke="midnightblue" d="M167.16,-113.5C180.62,-113.5 194.64,-113.5 208.32,-113.5"/>
<polygon fill="midnightblue" stroke="midnightblue" points="208.71,-117 218.71,-113.5 208.71,-110 208.71,-117"/>
</g>
<!-- Node8 -->
<g id="node8" class="node">
<title>Node8</title>
<g id="a_node8"><a xlink:href="class_perceptual_color_1_1_gradient_selector.html#af7d0fa1b1ddc7bad5124f66033fd65db" target="_top" xlink:title=" ">
<polygon fill="white" stroke="black" points="231.5,-49.5 231.5,-79.5 373.5,-79.5 373.5,-49.5 231.5,-49.5"/>
<text text-anchor="start" x="239.5" y="-67.5" font-family="Helvetica,sans-Serif" font-size="10.00">PerceptualColor::Gradient</text>
<text text-anchor="middle" x="302.5" y="-56.5" font-family="Helvetica,sans-Serif" font-size="10.00">Selector::setOrientation</text>
</a>
</g>
</g>
<!-- Node1&#45;&gt;Node8 -->
<g id="edge8" class="edge">
<title>Node1&#45;&gt;Node8</title>
<path fill="none" stroke="midnightblue" d="M151.08,-98.47C174.51,-93.17 201.03,-87.19 225.2,-81.73"/>
<polygon fill="midnightblue" stroke="midnightblue" points="226.06,-85.12 235.04,-79.51 224.52,-78.29 226.06,-85.12"/>
</g>
<!-- Node9 -->
<g id="node9" class="node">
<title>Node9</title>
<g id="a_node9"><a xlink:href="class_perceptual_color_1_1_alpha_selector.html#a9ad3ea7f44ad06835e3ecaa89695a54c" target="_top" xlink:title=" ">
<polygon fill="white" stroke="black" points="219,-0.5 219,-30.5 386,-30.5 386,-0.5 219,-0.5"/>
<text text-anchor="start" x="227" y="-18.5" font-family="Helvetica,sans-Serif" font-size="10.00">PerceptualColor::AlphaSelector</text>
<text text-anchor="middle" x="302.5" y="-7.5" font-family="Helvetica,sans-Serif" font-size="10.00">::setRepresentation</text>
</a>
</g>
</g>
<!-- Node1&#45;&gt;Node9 -->
<g id="edge9" class="edge">
<title>Node1&#45;&gt;Node9</title>
<path fill="none" stroke="midnightblue" d="M104.38,-98.29C127.08,-81.6 165.89,-55.13 203,-39.5 208.02,-37.39 213.26,-35.43 218.6,-33.63"/>
<polygon fill="midnightblue" stroke="midnightblue" points="219.83,-36.92 228.3,-30.55 217.71,-30.25 219.83,-36.92"/>
</g>
<!-- Node3 -->
<g id="node3" class="node">
<title>Node3</title>
<g id="a_node3"><a xlink:href="class_perceptual_color_1_1_gradient_selector.html#a1548390b891333547c1dee97573be568" target="_top" xlink:title=" ">
<polygon fill="white" stroke="black" points="641,-180.5 641,-210.5 783,-210.5 783,-180.5 641,-180.5"/>
<text text-anchor="start" x="649" y="-198.5" font-family="Helvetica,sans-Serif" font-size="10.00">PerceptualColor::Gradient</text>
<text text-anchor="middle" x="712" y="-187.5" font-family="Helvetica,sans-Serif" font-size="10.00">Selector::setFraction</text>
</a>
</g>
</g>
<!-- Node2&#45;&gt;Node3 -->
<g id="edge2" class="edge">
<title>Node2&#45;&gt;Node3</title>
<path fill="none" stroke="midnightblue" d="M605.18,-195.5C613.62,-195.5 622.18,-195.5 630.6,-195.5"/>
<polygon fill="midnightblue" stroke="midnightblue" points="630.77,-199 640.77,-195.5 630.77,-192 630.77,-199"/>
</g>
<!-- Node4&#45;&gt;Node2 -->
<g id="edge4" class="edge">
<title>Node4&#45;&gt;Node2</title>
<path fill="none" stroke="midnightblue" d="M402.16,-177.5C410.77,-178.81 419.46,-180.13 428.02,-181.44"/>
<polygon fill="midnightblue" stroke="midnightblue" points="427.58,-184.91 437.99,-182.95 428.63,-177.99 427.58,-184.91"/>
</g>
<!-- Node6 -->
<g id="node6" class="node">
<title>Node6</title>
<g id="a_node6"><a xlink:href="class_perceptual_color_1_1_gradient_selector.html#aabfd1c82565fb7c491e3bf1735beca11" target="_top" xlink:title=" ">
<polygon fill="white" stroke="black" points="450.5,-109.5 450.5,-139.5 592.5,-139.5 592.5,-109.5 450.5,-109.5"/>
<text text-anchor="start" x="458.5" y="-127.5" font-family="Helvetica,sans-Serif" font-size="10.00">PerceptualColor::Gradient</text>
<text text-anchor="middle" x="521.5" y="-116.5" font-family="Helvetica,sans-Serif" font-size="10.00">Selector::setColors</text>
</a>
</g>
</g>
<!-- Node5&#45;&gt;Node6 -->
<g id="edge6" class="edge">
<title>Node5&#45;&gt;Node6</title>
<path fill="none" stroke="midnightblue" d="M386.16,-117.69C403.88,-118.59 422.58,-119.54 440.21,-120.43"/>
<polygon fill="midnightblue" stroke="midnightblue" points="440.29,-123.94 450.45,-120.95 440.64,-116.95 440.29,-123.94"/>
</g>
<!-- Node7 -->
<g id="node7" class="node">
<title>Node7</title>
<g id="a_node7"><a xlink:href="class_perceptual_color_1_1_full_color_description.html#acdbff4639f8a118f0d13a831a4b57ffe" target="_top" xlink:title=" ">
<polygon fill="white" stroke="black" points="450,-60.5 450,-90.5 593,-90.5 593,-60.5 450,-60.5"/>
<text text-anchor="start" x="458" y="-78.5" font-family="Helvetica,sans-Serif" font-size="10.00">PerceptualColor::FullColor</text>
<text text-anchor="middle" x="521.5" y="-67.5" font-family="Helvetica,sans-Serif" font-size="10.00">Description::toLch</text>
</a>
</g>
</g>
<!-- Node5&#45;&gt;Node7 -->
<g id="edge7" class="edge">
<title>Node5&#45;&gt;Node7</title>
<path fill="none" stroke="midnightblue" d="M386.16,-99.03C403.68,-95.96 422.16,-92.72 439.61,-89.67"/>
<polygon fill="midnightblue" stroke="midnightblue" points="440.51,-93.06 449.75,-87.89 439.3,-86.17 440.51,-93.06"/>
</g>
</g>
</svg>
