<?xml version="1.0" encoding="UTF-8" standalone="no"?>
<!DOCTYPE svg PUBLIC "-//W3C//DTD SVG 1.1//EN"
 "http://www.w3.org/Graphics/SVG/1.1/DTD/svg11.dtd">
<!-- Generated by graphviz version 2.43.0 (0)
 -->
<!-- Title: PerceptualColor::ColorDialog::readHlcNumericValues Pages: 1 -->
<svg width="1152pt" height="586pt"
 viewBox="0.00 0.00 1152.00 586.00" xmlns="http://www.w3.org/2000/svg" xmlns:xlink="http://www.w3.org/1999/xlink">
<g id="graph0" class="graph" transform="scale(1 1) rotate(0) translate(4 582)">
<title>PerceptualColor::ColorDialog::readHlcNumericValues</title>
<polygon fill="white" stroke="transparent" points="-4,4 -4,-582 1148,-582 1148,4 -4,4"/>
<!-- Node1 -->
<g id="node1" class="node">
<title>Node1</title>
<g id="a_node1"><a xlink:title="Reads the HLC numbers in the dialog and updates the dialog accordingly.">
<polygon fill="#bfbfbf" stroke="black" points="0,-118.5 0,-148.5 157,-148.5 157,-118.5 0,-118.5"/>
<text text-anchor="start" x="8" y="-136.5" font-family="Helvetica,sans-Serif" font-size="10.00">PerceptualColor::ColorDialog</text>
<text text-anchor="middle" x="78.5" y="-125.5" font-family="Helvetica,sans-Serif" font-size="10.00">::readHlcNumericValues</text>
</a>
</g>
</g>
<!-- Node2 -->
<g id="node2" class="node">
<title>Node2</title>
<g id="a_node2"><a xlink:href="class_perceptual_color_1_1_color_dialog.html#abd0da334b7034a67a3cc83bc3ed0a425" target="_top" xlink:title="Updates m_currentOpaqueColor and all affected widgets.">
<polygon fill="white" stroke="black" points="193,-213.5 193,-243.5 350,-243.5 350,-213.5 193,-213.5"/>
<text text-anchor="start" x="201" y="-231.5" font-family="Helvetica,sans-Serif" font-size="10.00">PerceptualColor::ColorDialog</text>
<text text-anchor="middle" x="271.5" y="-220.5" font-family="Helvetica,sans-Serif" font-size="10.00">::setCurrentOpaqueColor</text>
</a>
</g>
</g>
<!-- Node1&#45;&gt;Node2 -->
<g id="edge1" class="edge">
<title>Node1&#45;&gt;Node2</title>
<path fill="none" stroke="midnightblue" d="M109.76,-148.55C142.5,-164.83 194.82,-190.86 230.83,-208.77"/>
<polygon fill="midnightblue" stroke="midnightblue" points="229.55,-212.04 240.06,-213.36 232.67,-205.77 229.55,-212.04"/>
</g>
<!-- Node14 -->
<g id="node14" class="node">
<title>Node14</title>
<g id="a_node14"><a xlink:href="class_perceptual_color_1_1_color_dialog.html#a38134a3e22f2b3df4602a08025ec1d52" target="_top" xlink:title="Get text for m_hlcLineEdit based on m_currentOpaqueColor.">
<polygon fill="white" stroke="black" points="391,-0.5 391,-30.5 548,-30.5 548,-0.5 391,-0.5"/>
<text text-anchor="start" x="399" y="-18.5" font-family="Helvetica,sans-Serif" font-size="10.00">PerceptualColor::ColorDialog</text>
<text text-anchor="middle" x="469.5" y="-7.5" font-family="Helvetica,sans-Serif" font-size="10.00">::textForHlcLineEdit</text>
</a>
</g>
</g>
<!-- Node1&#45;&gt;Node14 -->
<g id="edge25" class="edge">
<title>Node1&#45;&gt;Node14</title>
<path fill="none" stroke="midnightblue" d="M127.74,-118.47C188.07,-99.73 294.54,-66.83 386,-39.5 392.53,-37.55 399.36,-35.53 406.17,-33.53"/>
<polygon fill="midnightblue" stroke="midnightblue" points="407.48,-36.79 416.09,-30.62 405.51,-30.07 407.48,-36.79"/>
</g>
<!-- Node3 -->
<g id="node3" class="node">
<title>Node3</title>
<g id="a_node3"><a xlink:href="class_perceptual_color_1_1_full_color_description.html#a45a4e34ce415f9fc71f3fe4847c89068" target="_top" xlink:title=" ">
<polygon fill="white" stroke="black" points="398,-323.5 398,-353.5 541,-353.5 541,-323.5 398,-323.5"/>
<text text-anchor="start" x="406" y="-341.5" font-family="Helvetica,sans-Serif" font-size="10.00">PerceptualColor::FullColor</text>
<text text-anchor="middle" x="469.5" y="-330.5" font-family="Helvetica,sans-Serif" font-size="10.00">Description::isValid</text>
</a>
</g>
</g>
<!-- Node2&#45;&gt;Node3 -->
<g id="edge2" class="edge">
<title>Node2&#45;&gt;Node3</title>
<path fill="none" stroke="midnightblue" d="M290.79,-243.71C312.44,-261.16 350.1,-289.75 386,-308.5 393.85,-312.6 402.39,-316.39 410.9,-319.79"/>
<polygon fill="midnightblue" stroke="midnightblue" points="409.87,-323.14 420.46,-323.46 412.38,-316.61 409.87,-323.14"/>
</g>
<!-- Node4 -->
<g id="node4" class="node">
<title>Node4</title>
<g id="a_node4"><a xlink:href="class_perceptual_color_1_1_alpha_selector.html#ac9faa6bbf68757f843e4cce92d697067" target="_top" xlink:title=" ">
<polygon fill="white" stroke="black" points="386,-372.5 386,-402.5 553,-402.5 553,-372.5 386,-372.5"/>
<text text-anchor="start" x="394" y="-390.5" font-family="Helvetica,sans-Serif" font-size="10.00">PerceptualColor::AlphaSelector</text>
<text text-anchor="middle" x="469.5" y="-379.5" font-family="Helvetica,sans-Serif" font-size="10.00">::setColor</text>
</a>
</g>
</g>
<!-- Node2&#45;&gt;Node4 -->
<g id="edge3" class="edge">
<title>Node2&#45;&gt;Node4</title>
<path fill="none" stroke="midnightblue" d="M281,-243.58C297.53,-271.52 336.74,-331.41 386,-363.5 388.46,-365.1 391.03,-366.6 393.68,-368"/>
<polygon fill="midnightblue" stroke="midnightblue" points="392.4,-371.27 402.94,-372.4 395.4,-364.95 392.4,-371.27"/>
</g>
<!-- Node6 -->
<g id="node6" class="node">
<title>Node6</title>
<g id="a_node6"><a xlink:href="class_perceptual_color_1_1_full_color_description.html#acdbff4639f8a118f0d13a831a4b57ffe" target="_top" xlink:title=" ">
<polygon fill="white" stroke="black" points="813,-372.5 813,-402.5 956,-402.5 956,-372.5 813,-372.5"/>
<text text-anchor="start" x="821" y="-390.5" font-family="Helvetica,sans-Serif" font-size="10.00">PerceptualColor::FullColor</text>
<text text-anchor="middle" x="884.5" y="-379.5" font-family="Helvetica,sans-Serif" font-size="10.00">Description::toLch</text>
</a>
</g>
</g>
<!-- Node2&#45;&gt;Node6 -->
<g id="edge19" class="edge">
<title>Node2&#45;&gt;Node6</title>
<path fill="none" stroke="midnightblue" d="M276.37,-243.57C286.76,-280.5 319.14,-375.19 386,-412.5 461.29,-454.52 688.32,-422.16 774,-412.5 788.64,-410.85 804.18,-408 818.81,-404.79"/>
<polygon fill="midnightblue" stroke="midnightblue" points="819.79,-408.16 828.77,-402.53 818.24,-401.33 819.79,-408.16"/>
</g>
<!-- Node7 -->
<g id="node7" class="node">
<title>Node7</title>
<g id="a_node7"><a xlink:href="class_perceptual_color_1_1_chroma_hue_diagram.html#a443db20bc2c25119febcd61ca9299d21" target="_top" xlink:title="Setter for the color() property.">
<polygon fill="white" stroke="black" points="602.5,-284.5 602.5,-314.5 760.5,-314.5 760.5,-284.5 602.5,-284.5"/>
<text text-anchor="start" x="610.5" y="-302.5" font-family="Helvetica,sans-Serif" font-size="10.00">PerceptualColor::ChromaHue</text>
<text text-anchor="middle" x="681.5" y="-291.5" font-family="Helvetica,sans-Serif" font-size="10.00">Diagram::setColor</text>
</a>
</g>
</g>
<!-- Node2&#45;&gt;Node7 -->
<g id="edge6" class="edge">
<title>Node2&#45;&gt;Node7</title>
<path fill="none" stroke="midnightblue" d="M301.99,-243.7C324.41,-254.51 356.35,-268.34 386,-275.5 454,-291.92 533.11,-297.66 592.21,-299.43"/>
<polygon fill="midnightblue" stroke="midnightblue" points="592.17,-302.93 602.26,-299.7 592.36,-295.94 592.17,-302.93"/>
</g>
<!-- Node8 -->
<g id="node8" class="node">
<title>Node8</title>
<g id="a_node8"><a xlink:href="class_perceptual_color_1_1_wheel_color_picker.html#a5f3a58bb672323221c98c2285404bf76" target="_top" xlink:title="Setter for currentColorRgb() property.">
<polygon fill="white" stroke="black" points="391.5,-479.5 391.5,-509.5 547.5,-509.5 547.5,-479.5 391.5,-479.5"/>
<text text-anchor="start" x="399.5" y="-497.5" font-family="Helvetica,sans-Serif" font-size="10.00">PerceptualColor::WheelColor</text>
<text text-anchor="middle" x="469.5" y="-486.5" font-family="Helvetica,sans-Serif" font-size="10.00">Picker::setCurrentColor</text>
</a>
</g>
</g>
<!-- Node2&#45;&gt;Node8 -->
<g id="edge8" class="edge">
<title>Node2&#45;&gt;Node8</title>
<path fill="none" stroke="midnightblue" d="M277.17,-243.65C289.51,-281.63 326.2,-382.38 386,-445.5 397,-457.11 411.34,-466.9 424.98,-474.6"/>
<polygon fill="midnightblue" stroke="midnightblue" points="423.34,-477.69 433.8,-479.36 426.66,-471.53 423.34,-477.69"/>
</g>
<!-- Node13 -->
<g id="node13" class="node">
<title>Node13</title>
<g id="a_node13"><a xlink:href="class_perceptual_color_1_1_gradient_selector.html#a1548390b891333547c1dee97573be568" target="_top" xlink:title=" ">
<polygon fill="white" stroke="black" points="398.5,-147.5 398.5,-177.5 540.5,-177.5 540.5,-147.5 398.5,-147.5"/>
<text text-anchor="start" x="406.5" y="-165.5" font-family="Helvetica,sans-Serif" font-size="10.00">PerceptualColor::Gradient</text>
<text text-anchor="middle" x="469.5" y="-154.5" font-family="Helvetica,sans-Serif" font-size="10.00">Selector::setFraction</text>
</a>
</g>
</g>
<!-- Node2&#45;&gt;Node13 -->
<g id="edge15" class="edge">
<title>Node2&#45;&gt;Node13</title>
<path fill="none" stroke="midnightblue" d="M317.47,-213.36C346.23,-203.67 383.7,-191.05 414.13,-180.81"/>
<polygon fill="midnightblue" stroke="midnightblue" points="415.38,-184.08 423.74,-177.57 413.15,-177.45 415.38,-184.08"/>
</g>
<!-- Node2&#45;&gt;Node14 -->
<g id="edge16" class="edge">
<title>Node2&#45;&gt;Node14</title>
<path fill="none" stroke="midnightblue" d="M285.87,-213.29C302.45,-193.91 330.85,-158.89 350,-125.5 370.62,-89.56 355.09,-67.09 386,-39.5 387.34,-38.3 388.73,-37.17 390.18,-36.09"/>
<polygon fill="midnightblue" stroke="midnightblue" points="392.37,-38.84 398.91,-30.5 388.6,-32.94 392.37,-38.84"/>
</g>
<!-- Node15 -->
<g id="node15" class="node">
<title>Node15</title>
<g id="a_node15"><a xlink:href="class_perceptual_color_1_1_full_color_description.html#aaa17133c6e1d040b2f088e79a42d3283" target="_top" xlink:title=" ">
<polygon fill="white" stroke="black" points="398,-98.5 398,-128.5 541,-128.5 541,-98.5 398,-98.5"/>
<text text-anchor="start" x="406" y="-116.5" font-family="Helvetica,sans-Serif" font-size="10.00">PerceptualColor::FullColor</text>
<text text-anchor="middle" x="469.5" y="-105.5" font-family="Helvetica,sans-Serif" font-size="10.00">Description::toHsvQColor</text>
</a>
</g>
</g>
<!-- Node2&#45;&gt;Node15 -->
<g id="edge18" class="edge">
<title>Node2&#45;&gt;Node15</title>
<path fill="none" stroke="midnightblue" d="M287.27,-213.4C307.7,-193.33 346.56,-158.01 386,-137.5 389.55,-135.66 393.25,-133.94 397.05,-132.33"/>
<polygon fill="midnightblue" stroke="midnightblue" points="398.59,-135.49 406.63,-128.59 396.04,-128.97 398.59,-135.49"/>
</g>
<!-- Node16 -->
<g id="node16" class="node">
<title>Node16</title>
<g id="a_node16"><a xlink:href="class_perceptual_color_1_1_full_color_description.html#a572e2abe28e31c6315732d30f06b1732" target="_top" xlink:title="A string with a hexadecimal representation of the color.">
<polygon fill="white" stroke="black" points="392,-49.5 392,-79.5 547,-79.5 547,-49.5 392,-49.5"/>
<text text-anchor="start" x="400" y="-67.5" font-family="Helvetica,sans-Serif" font-size="10.00">PerceptualColor::FullColor</text>
<text text-anchor="middle" x="469.5" y="-56.5" font-family="Helvetica,sans-Serif" font-size="10.00">Description::toRgbHexString</text>
</a>
</g>
</g>
<!-- Node2&#45;&gt;Node16 -->
<g id="edge20" class="edge">
<title>Node2&#45;&gt;Node16</title>
<path fill="none" stroke="midnightblue" d="M283.96,-213.35C310.09,-178.95 372.87,-97.22 386,-88.5 388.45,-86.88 391,-85.36 393.64,-83.94"/>
<polygon fill="midnightblue" stroke="midnightblue" points="395.38,-86.99 402.87,-79.51 392.34,-80.68 395.38,-86.99"/>
</g>
<!-- Node17 -->
<g id="node17" class="node">
<title>Node17</title>
<g id="a_node17"><a xlink:href="class_perceptual_color_1_1_full_color_description.html#aad1d9cc70b7a9ae81c829c391334d768" target="_top" xlink:title=" ">
<polygon fill="white" stroke="black" points="610,-186.5 610,-216.5 753,-216.5 753,-186.5 610,-186.5"/>
<text text-anchor="start" x="618" y="-204.5" font-family="Helvetica,sans-Serif" font-size="10.00">PerceptualColor::FullColor</text>
<text text-anchor="middle" x="681.5" y="-193.5" font-family="Helvetica,sans-Serif" font-size="10.00">Description::toRgbQColor</text>
</a>
</g>
</g>
<!-- Node2&#45;&gt;Node17 -->
<g id="edge21" class="edge">
<title>Node2&#45;&gt;Node17</title>
<path fill="none" stroke="midnightblue" d="M350.2,-223.36C421.75,-218.62 527.46,-211.63 599.91,-206.83"/>
<polygon fill="midnightblue" stroke="midnightblue" points="600.16,-210.32 609.9,-206.17 599.7,-203.34 600.16,-210.32"/>
</g>
<!-- Node18 -->
<g id="node18" class="node">
<title>Node18</title>
<g id="a_node18"><a xlink:href="class_perceptual_color_1_1_color_dialog.html#a18985e0cf14c64400f1edc5f64da159d" target="_top" xlink:title="Updates the color patch widget.">
<polygon fill="white" stroke="black" points="391,-235.5 391,-265.5 548,-265.5 548,-235.5 391,-235.5"/>
<text text-anchor="start" x="399" y="-253.5" font-family="Helvetica,sans-Serif" font-size="10.00">PerceptualColor::ColorDialog</text>
<text text-anchor="middle" x="469.5" y="-242.5" font-family="Helvetica,sans-Serif" font-size="10.00">::updateColorPatch</text>
</a>
</g>
</g>
<!-- Node2&#45;&gt;Node18 -->
<g id="edge22" class="edge">
<title>Node2&#45;&gt;Node18</title>
<path fill="none" stroke="midnightblue" d="M350.25,-237.23C360.27,-238.35 370.58,-239.51 380.75,-240.65"/>
<polygon fill="midnightblue" stroke="midnightblue" points="380.52,-244.15 390.85,-241.78 381.3,-237.19 380.52,-244.15"/>
</g>
<!-- Node5 -->
<g id="node5" class="node">
<title>Node5</title>
<g id="a_node5"><a xlink:href="class_perceptual_color_1_1_gradient_selector.html#aabfd1c82565fb7c491e3bf1735beca11" target="_top" xlink:title=" ">
<polygon fill="white" stroke="black" points="610.5,-372.5 610.5,-402.5 752.5,-402.5 752.5,-372.5 610.5,-372.5"/>
<text text-anchor="start" x="618.5" y="-390.5" font-family="Helvetica,sans-Serif" font-size="10.00">PerceptualColor::Gradient</text>
<text text-anchor="middle" x="681.5" y="-379.5" font-family="Helvetica,sans-Serif" font-size="10.00">Selector::setColors</text>
</a>
</g>
</g>
<!-- Node4&#45;&gt;Node5 -->
<g id="edge4" class="edge">
<title>Node4&#45;&gt;Node5</title>
<path fill="none" stroke="midnightblue" d="M553.2,-387.5C568.73,-387.5 584.95,-387.5 600.4,-387.5"/>
<polygon fill="midnightblue" stroke="midnightblue" points="600.43,-391 610.43,-387.5 600.43,-384 600.43,-391"/>
</g>
<!-- Node4&#45;&gt;Node6 -->
<g id="edge5" class="edge">
<title>Node4&#45;&gt;Node6</title>
<path fill="none" stroke="midnightblue" d="M532.87,-372.44C550.87,-368.75 570.62,-365.34 589,-363.5 670.81,-355.3 692.26,-354.65 774,-363.5 787.7,-364.98 802.2,-367.48 816.01,-370.32"/>
<polygon fill="midnightblue" stroke="midnightblue" points="815.41,-373.77 825.92,-372.44 816.87,-366.93 815.41,-373.77"/>
</g>
<!-- Node7&#45;&gt;Node6 -->
<g id="edge7" class="edge">
<title>Node7&#45;&gt;Node6</title>
<path fill="none" stroke="midnightblue" d="M733.89,-314.65C747.12,-319.01 761.23,-324.07 774,-329.5 799.87,-340.5 827.86,-355.38 849.06,-367.31"/>
<polygon fill="midnightblue" stroke="midnightblue" points="847.58,-370.5 858,-372.4 851.04,-364.41 847.58,-370.5"/>
</g>
<!-- Node8&#45;&gt;Node6 -->
<g id="edge14" class="edge">
<title>Node8&#45;&gt;Node6</title>
<path fill="none" stroke="midnightblue" d="M547.62,-489.05C609.98,-482.99 699.36,-470.53 774,-445.5 801.66,-436.22 830.75,-420.5 851.98,-407.76"/>
<polygon fill="midnightblue" stroke="midnightblue" points="853.87,-410.71 860.58,-402.51 850.22,-404.73 853.87,-410.71"/>
</g>
<!-- Node9 -->
<g id="node9" class="node">
<title>Node9</title>
<g id="a_node9"><a xlink:href="class_perceptual_color_1_1_chroma_lightness_diagram.html#a27d7c972e420480674da1a0fae0b10b3" target="_top" xlink:title="Setter for the color() property.">
<polygon fill="white" stroke="black" points="589,-498.5 589,-528.5 774,-528.5 774,-498.5 589,-498.5"/>
<text text-anchor="start" x="597" y="-516.5" font-family="Helvetica,sans-Serif" font-size="10.00">PerceptualColor::ChromaLightness</text>
<text text-anchor="middle" x="681.5" y="-505.5" font-family="Helvetica,sans-Serif" font-size="10.00">Diagram::setColor</text>
</a>
</g>
</g>
<!-- Node8&#45;&gt;Node9 -->
<g id="edge9" class="edge">
<title>Node8&#45;&gt;Node9</title>
<path fill="none" stroke="midnightblue" d="M547.5,-501.47C557.71,-502.39 568.29,-503.35 578.82,-504.3"/>
<polygon fill="midnightblue" stroke="midnightblue" points="578.62,-507.8 588.9,-505.21 579.26,-500.83 578.62,-507.8"/>
</g>
<!-- Node10 -->
<g id="node10" class="node">
<title>Node10</title>
<g id="a_node10"><a xlink:href="class_perceptual_color_1_1_simple_color_wheel.html#aa9eec6e96f6069be6d983d1c854644d1" target="_top" xlink:title=" ">
<polygon fill="white" stroke="black" points="602,-547.5 602,-577.5 761,-577.5 761,-547.5 602,-547.5"/>
<text text-anchor="start" x="610" y="-565.5" font-family="Helvetica,sans-Serif" font-size="10.00">PerceptualColor::SimpleColor</text>
<text text-anchor="middle" x="681.5" y="-554.5" font-family="Helvetica,sans-Serif" font-size="10.00">Wheel::setHue</text>
</a>
</g>
</g>
<!-- Node8&#45;&gt;Node10 -->
<g id="edge11" class="edge">
<title>Node8&#45;&gt;Node10</title>
<path fill="none" stroke="midnightblue" d="M508.06,-509.53C531.2,-518.52 561.59,-529.84 589,-538.5 595.78,-540.64 602.89,-542.75 610.02,-544.77"/>
<polygon fill="midnightblue" stroke="midnightblue" points="609.15,-548.16 619.72,-547.46 611.02,-541.41 609.15,-548.16"/>
</g>
<!-- Node9&#45;&gt;Node6 -->
<g id="edge10" class="edge">
<title>Node9&#45;&gt;Node6</title>
<path fill="none" stroke="midnightblue" d="M740.64,-498.36C752.06,-494.31 763.69,-489.38 774,-483.5 808.82,-463.64 842.5,-431.57 863.11,-410.02"/>
<polygon fill="midnightblue" stroke="midnightblue" points="865.78,-412.28 870.09,-402.6 860.69,-407.48 865.78,-412.28"/>
</g>
<!-- Node11 -->
<g id="node11" class="node">
<title>Node11</title>
<g id="a_node11"><a xlink:href="class_perceptual_color_1_1_polar_point_f.html#a9eefd08d3a5ad536232292380f958804" target="_top" xlink:title="Normalizes an angle.">
<polygon fill="white" stroke="black" points="810,-547.5 810,-577.5 959,-577.5 959,-547.5 810,-547.5"/>
<text text-anchor="start" x="818" y="-565.5" font-family="Helvetica,sans-Serif" font-size="10.00">PerceptualColor::PolarPoint</text>
<text text-anchor="middle" x="884.5" y="-554.5" font-family="Helvetica,sans-Serif" font-size="10.00">F::normalizedAngleDegree</text>
</a>
</g>
</g>
<!-- Node10&#45;&gt;Node11 -->
<g id="edge12" class="edge">
<title>Node10&#45;&gt;Node11</title>
<path fill="none" stroke="midnightblue" d="M761.08,-562.5C773.76,-562.5 786.93,-562.5 799.74,-562.5"/>
<polygon fill="midnightblue" stroke="midnightblue" points="799.91,-566 809.91,-562.5 799.91,-559 799.91,-566"/>
</g>
<!-- Node12 -->
<g id="node12" class="node">
<title>Node12</title>
<g id="a_node12"><a xlink:href="class_perceptual_color_1_1_polar_point_f.html#a882cd166affc603fc62241dcb3be4fd5" target="_top" xlink:title="Normalized angle.">
<polygon fill="white" stroke="black" points="995,-547.5 995,-577.5 1144,-577.5 1144,-547.5 995,-547.5"/>
<text text-anchor="start" x="1003" y="-565.5" font-family="Helvetica,sans-Serif" font-size="10.00">PerceptualColor::PolarPoint</text>
<text text-anchor="middle" x="1069.5" y="-554.5" font-family="Helvetica,sans-Serif" font-size="10.00">F::angleDegree</text>
</a>
</g>
</g>
<!-- Node11&#45;&gt;Node12 -->
<g id="edge13" class="edge">
<title>Node11&#45;&gt;Node12</title>
<path fill="none" stroke="midnightblue" d="M959.14,-562.5C967.47,-562.5 976.01,-562.5 984.46,-562.5"/>
<polygon fill="midnightblue" stroke="midnightblue" points="984.71,-566 994.71,-562.5 984.71,-559 984.71,-566"/>
</g>
<!-- Node14&#45;&gt;Node6 -->
<g id="edge17" class="edge">
<title>Node14&#45;&gt;Node6</title>
<path fill="none" stroke="midnightblue" d="M529.79,-30.63C537.72,-33.26 545.64,-36.22 553,-39.5 658.57,-86.52 695.46,-91.73 774,-176.5 826.73,-233.41 861.07,-320.53 875.59,-362.79"/>
<polygon fill="midnightblue" stroke="midnightblue" points="872.28,-363.92 878.78,-372.29 878.91,-361.7 872.28,-363.92"/>
</g>
<!-- Node18&#45;&gt;Node17 -->
<g id="edge24" class="edge">
<title>Node18&#45;&gt;Node17</title>
<path fill="none" stroke="midnightblue" d="M534.93,-235.47C557.51,-230.2 583.04,-224.24 606.35,-218.8"/>
<polygon fill="midnightblue" stroke="midnightblue" points="607.24,-222.19 616.19,-216.51 605.65,-215.37 607.24,-222.19"/>
</g>
<!-- Node19 -->
<g id="node19" class="node">
<title>Node19</title>
<g id="a_node19"><a xlink:href="class_perceptual_color_1_1_color_patch.html#ada8693cd4a8e51eb2debd3c0192a7458" target="_top" xlink:title="Set the color property.">
<polygon fill="white" stroke="black" points="605.5,-235.5 605.5,-265.5 757.5,-265.5 757.5,-235.5 605.5,-235.5"/>
<text text-anchor="start" x="613.5" y="-253.5" font-family="Helvetica,sans-Serif" font-size="10.00">PerceptualColor::ColorPatch</text>
<text text-anchor="middle" x="681.5" y="-242.5" font-family="Helvetica,sans-Serif" font-size="10.00">::setColor</text>
</a>
</g>
</g>
<!-- Node18&#45;&gt;Node19 -->
<g id="edge23" class="edge">
<title>Node18&#45;&gt;Node19</title>
<path fill="none" stroke="midnightblue" d="M548.1,-250.5C563.43,-250.5 579.61,-250.5 595.18,-250.5"/>
<polygon fill="midnightblue" stroke="midnightblue" points="595.32,-254 605.32,-250.5 595.32,-247 595.32,-254"/>
</g>
</g>
</svg>
