<?xml version="1.0" encoding="UTF-8" standalone="no"?>
<!DOCTYPE svg PUBLIC "-//W3C//DTD SVG 1.1//EN"
 "http://www.w3.org/Graphics/SVG/1.1/DTD/svg11.dtd">
<!-- Generated by graphviz version 2.43.0 (0)
 -->
<!-- Title: PerceptualColor::ColorDialog::updateColorPatch Pages: 1 -->
<svg width="1130pt" height="420pt"
 viewBox="0.00 0.00 1130.00 420.35" xmlns="http://www.w3.org/2000/svg" xmlns:xlink="http://www.w3.org/1999/xlink">
<g id="graph0" class="graph" transform="scale(1 1) rotate(0) translate(4 416.35)">
<title>PerceptualColor::ColorDialog::updateColorPatch</title>
<polygon fill="white" stroke="transparent" points="-4,4 -4,-416.35 1126,-416.35 1126,4 -4,4"/>
<!-- Node1 -->
<g id="node1" class="node">
<title>Node1</title>
<g id="a_node1"><a xlink:title="Updates the color patch widget.">
<polygon fill="#bfbfbf" stroke="black" points="965,-257.61 965,-287.61 1122,-287.61 1122,-257.61 965,-257.61"/>
<text text-anchor="start" x="973" y="-275.61" font-family="Helvetica,sans-Serif" font-size="10.00">PerceptualColor::ColorDialog</text>
<text text-anchor="middle" x="1043.5" y="-264.61" font-family="Helvetica,sans-Serif" font-size="10.00">::updateColorPatch</text>
</a>
</g>
</g>
<!-- Node2 -->
<g id="node2" class="node">
<title>Node2</title>
<g id="a_node2"><a xlink:href="class_perceptual_color_1_1_color_dialog.html#ad31fb985e1323cdf1208c91f16fe2a51" target="_top" xlink:title="Basic initialization.">
<polygon fill="white" stroke="black" points="193,-186.61 193,-216.61 350,-216.61 350,-186.61 193,-186.61"/>
<text text-anchor="start" x="201" y="-204.61" font-family="Helvetica,sans-Serif" font-size="10.00">PerceptualColor::ColorDialog</text>
<text text-anchor="middle" x="271.5" y="-193.61" font-family="Helvetica,sans-Serif" font-size="10.00">::initialize</text>
</a>
</g>
</g>
<!-- Node1&#45;&gt;Node2 -->
<g id="edge1" class="edge">
<title>Node1&#45;&gt;Node2</title>
<path fill="none" stroke="midnightblue" d="M1005.72,-292.54C901.62,-346.02 598.74,-481.25 386,-368.61 323.73,-335.64 289.27,-251.5 277.34,-216.86"/>
<polygon fill="midnightblue" stroke="midnightblue" points="1007.62,-295.5 1014.88,-287.78 1004.39,-289.29 1007.62,-295.5"/>
</g>
<!-- Node4 -->
<g id="node4" class="node">
<title>Node4</title>
<g id="a_node4"><a xlink:href="class_perceptual_color_1_1_color_dialog.html#abd0da334b7034a67a3cc83bc3ed0a425" target="_top" xlink:title="Updates m_currentOpaqueColor and all affected widgets.">
<polygon fill="white" stroke="black" points="772,-164.61 772,-194.61 929,-194.61 929,-164.61 772,-164.61"/>
<text text-anchor="start" x="780" y="-182.61" font-family="Helvetica,sans-Serif" font-size="10.00">PerceptualColor::ColorDialog</text>
<text text-anchor="middle" x="850.5" y="-171.61" font-family="Helvetica,sans-Serif" font-size="10.00">::setCurrentOpaqueColor</text>
</a>
</g>
</g>
<!-- Node1&#45;&gt;Node4 -->
<g id="edge3" class="edge">
<title>Node1&#45;&gt;Node4</title>
<path fill="none" stroke="midnightblue" d="M1002.22,-253C966.54,-235.63 915.2,-210.63 882.6,-194.76"/>
<polygon fill="midnightblue" stroke="midnightblue" points="1000.86,-256.23 1011.39,-257.46 1003.93,-249.94 1000.86,-256.23"/>
</g>
<!-- Node3 -->
<g id="node3" class="node">
<title>Node3</title>
<g id="a_node3"><a xlink:href="class_perceptual_color_1_1_color_dialog.html#a3c1ad1040ede00087aa11fab1514a6e7" target="_top" xlink:title="Constructor.">
<polygon fill="white" stroke="black" points="0,-79.61 0,-109.61 157,-109.61 157,-79.61 0,-79.61"/>
<text text-anchor="start" x="8" y="-97.61" font-family="Helvetica,sans-Serif" font-size="10.00">PerceptualColor::ColorDialog</text>
<text text-anchor="middle" x="78.5" y="-86.61" font-family="Helvetica,sans-Serif" font-size="10.00">::ColorDialog</text>
</a>
</g>
</g>
<!-- Node2&#45;&gt;Node3 -->
<g id="edge2" class="edge">
<title>Node2&#45;&gt;Node3</title>
<path fill="none" stroke="midnightblue" d="M234.52,-181.46C197.23,-160.57 139.82,-128.4 106.32,-109.64"/>
<polygon fill="midnightblue" stroke="midnightblue" points="233.1,-184.68 243.54,-186.51 236.53,-178.57 233.1,-184.68"/>
</g>
<!-- Node4&#45;&gt;Node2 -->
<g id="edge4" class="edge">
<title>Node4&#45;&gt;Node2</title>
<path fill="none" stroke="midnightblue" d="M761.72,-182.96C649.55,-187.24 457.13,-194.57 350.09,-198.65"/>
<polygon fill="midnightblue" stroke="midnightblue" points="762.12,-186.45 771.98,-182.57 761.86,-179.45 762.12,-186.45"/>
</g>
<!-- Node5 -->
<g id="node5" class="node">
<title>Node5</title>
<g id="a_node5"><a xlink:href="class_perceptual_color_1_1_color_dialog.html#adf67594f0cb9416b245d6cf726f18bf4" target="_top" xlink:title="Reads the HLC numbers in the dialog and updates the dialog accordingly.">
<polygon fill="white" stroke="black" points="579,-142.61 579,-172.61 736,-172.61 736,-142.61 579,-142.61"/>
<text text-anchor="start" x="587" y="-160.61" font-family="Helvetica,sans-Serif" font-size="10.00">PerceptualColor::ColorDialog</text>
<text text-anchor="middle" x="657.5" y="-149.61" font-family="Helvetica,sans-Serif" font-size="10.00">::readHlcNumericValues</text>
</a>
</g>
</g>
<!-- Node4&#45;&gt;Node5 -->
<g id="edge5" class="edge">
<title>Node4&#45;&gt;Node5</title>
<path fill="none" stroke="midnightblue" d="M761.81,-169.51C753.24,-168.52 744.58,-167.53 736.12,-166.55"/>
<polygon fill="midnightblue" stroke="midnightblue" points="761.48,-173 771.81,-170.66 762.28,-166.04 761.48,-173"/>
</g>
<!-- Node7 -->
<g id="node7" class="node">
<title>Node7</title>
<g id="a_node7"><a xlink:href="class_perceptual_color_1_1_color_dialog.html#a2a48f4c33652bc9a1a0cb22fd0a6b221" target="_top" xlink:title="Reads the value from the lightness selector in the dialog and updates the dialog accordingly.">
<polygon fill="white" stroke="black" points="579,-79.61 579,-109.61 736,-109.61 736,-79.61 579,-79.61"/>
<text text-anchor="start" x="587" y="-97.61" font-family="Helvetica,sans-Serif" font-size="10.00">PerceptualColor::ColorDialog</text>
<text text-anchor="middle" x="657.5" y="-86.61" font-family="Helvetica,sans-Serif" font-size="10.00">::readLightnessValue</text>
</a>
</g>
</g>
<!-- Node4&#45;&gt;Node7 -->
<g id="edge9" class="edge">
<title>Node4&#45;&gt;Node7</title>
<path fill="none" stroke="midnightblue" d="M806.45,-160.45C771.99,-145.12 724.33,-123.91 692.51,-109.75"/>
<polygon fill="midnightblue" stroke="midnightblue" points="805.23,-163.74 815.79,-164.61 808.08,-157.35 805.23,-163.74"/>
</g>
<!-- Node8 -->
<g id="node8" class="node">
<title>Node8</title>
<g id="a_node8"><a xlink:href="class_perceptual_color_1_1_color_dialog.html#a64b6c698ebfaf2461c513ebbb7ef2637" target="_top" xlink:title="Setter for currentColor property.">
<polygon fill="white" stroke="black" points="579,-16.61 579,-46.61 736,-46.61 736,-16.61 579,-16.61"/>
<text text-anchor="start" x="587" y="-34.61" font-family="Helvetica,sans-Serif" font-size="10.00">PerceptualColor::ColorDialog</text>
<text text-anchor="middle" x="657.5" y="-23.61" font-family="Helvetica,sans-Serif" font-size="10.00">::setCurrentColor</text>
</a>
</g>
</g>
<!-- Node4&#45;&gt;Node8 -->
<g id="edge11" class="edge">
<title>Node4&#45;&gt;Node8</title>
<path fill="none" stroke="midnightblue" d="M830.13,-157.02C808.83,-133.14 772.7,-95.42 736,-69.61 723.5,-60.82 708.65,-53 695.32,-46.78"/>
<polygon fill="midnightblue" stroke="midnightblue" points="827.54,-159.36 836.77,-164.55 832.79,-154.74 827.54,-159.36"/>
</g>
<!-- Node10 -->
<g id="node10" class="node">
<title>Node10</title>
<g id="a_node10"><a xlink:href="class_perceptual_color_1_1_color_dialog.html#acf0e7b1b619cee3fc7f5a992e2c93e7d" target="_top" xlink:title="Convenience version of setCurrentOpaqueColor(), accepting QColor.">
<polygon fill="white" stroke="black" points="579,-255.61 579,-285.61 736,-285.61 736,-255.61 579,-255.61"/>
<text text-anchor="start" x="587" y="-273.61" font-family="Helvetica,sans-Serif" font-size="10.00">PerceptualColor::ColorDialog</text>
<text text-anchor="middle" x="657.5" y="-262.61" font-family="Helvetica,sans-Serif" font-size="10.00">::setCurrentOpaqueQColor</text>
</a>
</g>
</g>
<!-- Node4&#45;&gt;Node10 -->
<g id="edge14" class="edge">
<title>Node4&#45;&gt;Node10</title>
<path fill="none" stroke="midnightblue" d="M808.84,-198.99C773.35,-215.89 722.59,-240.08 690.09,-255.56"/>
<polygon fill="midnightblue" stroke="midnightblue" points="810.44,-202.1 817.96,-194.64 807.43,-195.78 810.44,-202.1"/>
</g>
<!-- Node5&#45;&gt;Node2 -->
<g id="edge8" class="edge">
<title>Node5&#45;&gt;Node2</title>
<path fill="none" stroke="midnightblue" d="M597.14,-140.01C541.58,-126.36 456.76,-112.79 386,-132.61 348.69,-143.06 311.47,-169.51 290.29,-186.46"/>
<polygon fill="midnightblue" stroke="midnightblue" points="596.61,-143.49 607.16,-142.56 598.33,-136.7 596.61,-143.49"/>
</g>
<!-- Node6 -->
<g id="node6" class="node">
<title>Node6</title>
<g id="a_node6"><a xlink:href="class_perceptual_color_1_1_color_dialog.html#a64f6d0e30a627458ccb7bbf4a77ad42b" target="_top" xlink:title="React on focus changes.">
<polygon fill="white" stroke="black" points="386,-142.61 386,-172.61 543,-172.61 543,-142.61 386,-142.61"/>
<text text-anchor="start" x="394" y="-160.61" font-family="Helvetica,sans-Serif" font-size="10.00">PerceptualColor::ColorDialog</text>
<text text-anchor="middle" x="464.5" y="-149.61" font-family="Helvetica,sans-Serif" font-size="10.00">::handleFocusChange</text>
</a>
</g>
</g>
<!-- Node5&#45;&gt;Node6 -->
<g id="edge6" class="edge">
<title>Node5&#45;&gt;Node6</title>
<path fill="none" stroke="midnightblue" d="M568.81,-157.61C560.24,-157.61 551.58,-157.61 543.12,-157.61"/>
<polygon fill="midnightblue" stroke="midnightblue" points="568.81,-161.11 578.81,-157.61 568.81,-154.11 568.81,-161.11"/>
</g>
<!-- Node6&#45;&gt;Node2 -->
<g id="edge7" class="edge">
<title>Node6&#45;&gt;Node2</title>
<path fill="none" stroke="midnightblue" d="M388.54,-174.88C371.75,-178.75 354.08,-182.82 337.73,-186.59"/>
<polygon fill="midnightblue" stroke="midnightblue" points="389.34,-178.29 398.3,-172.63 387.77,-171.47 389.34,-178.29"/>
</g>
<!-- Node7&#45;&gt;Node2 -->
<g id="edge10" class="edge">
<title>Node7&#45;&gt;Node2</title>
<path fill="none" stroke="midnightblue" d="M568.61,-91.14C514.38,-91.78 444.28,-97.75 386,-119.61 346.4,-134.47 308.19,-167.01 287.79,-186.34"/>
<polygon fill="midnightblue" stroke="midnightblue" points="568.91,-94.63 578.89,-91.07 568.86,-87.63 568.91,-94.63"/>
</g>
<!-- Node8&#45;&gt;Node3 -->
<g id="edge12" class="edge">
<title>Node8&#45;&gt;Node3</title>
<path fill="none" stroke="midnightblue" d="M589.85,-14.41C574.56,-11.17 558.3,-8.28 543,-6.61 473.63,0.94 455.1,3.11 386,-6.61 287.6,-20.46 176.5,-58.15 118.89,-79.44"/>
<polygon fill="midnightblue" stroke="midnightblue" points="589.22,-17.86 599.74,-16.58 590.73,-11.02 589.22,-17.86"/>
</g>
<!-- Node9 -->
<g id="node9" class="node">
<title>Node9</title>
<g id="a_node9"><a xlink:href="class_perceptual_color_1_1_color_dialog.html#a08677555088721a366cc839a90b5eea2" target="_top" xlink:title="Pops up a modal color dialog, lets the user choose a color, and returns that color.">
<polygon fill="white" stroke="black" points="386,-16.61 386,-46.61 543,-46.61 543,-16.61 386,-16.61"/>
<text text-anchor="start" x="394" y="-34.61" font-family="Helvetica,sans-Serif" font-size="10.00">PerceptualColor::ColorDialog</text>
<text text-anchor="middle" x="464.5" y="-23.61" font-family="Helvetica,sans-Serif" font-size="10.00">::getColor</text>
</a>
</g>
</g>
<!-- Node8&#45;&gt;Node9 -->
<g id="edge13" class="edge">
<title>Node8&#45;&gt;Node9</title>
<path fill="none" stroke="midnightblue" d="M568.81,-31.61C560.24,-31.61 551.58,-31.61 543.12,-31.61"/>
<polygon fill="midnightblue" stroke="midnightblue" points="568.81,-35.11 578.81,-31.61 568.81,-28.11 568.81,-35.11"/>
</g>
<!-- Node11 -->
<g id="node11" class="node">
<title>Node11</title>
<g id="a_node11"><a xlink:href="class_perceptual_color_1_1_color_dialog.html#ad834c4b1975dd4b226a054497bd1ef47" target="_top" xlink:title="Reads the HSV numbers in the dialog and updates the dialog accordingly.">
<polygon fill="white" stroke="black" points="386,-279.61 386,-309.61 543,-309.61 543,-279.61 386,-279.61"/>
<text text-anchor="start" x="394" y="-297.61" font-family="Helvetica,sans-Serif" font-size="10.00">PerceptualColor::ColorDialog</text>
<text text-anchor="middle" x="464.5" y="-286.61" font-family="Helvetica,sans-Serif" font-size="10.00">::readHsvNumericValues</text>
</a>
</g>
</g>
<!-- Node10&#45;&gt;Node11 -->
<g id="edge15" class="edge">
<title>Node10&#45;&gt;Node11</title>
<path fill="none" stroke="midnightblue" d="M568.81,-281.63C560.24,-282.71 551.58,-283.8 543.12,-284.86"/>
<polygon fill="midnightblue" stroke="midnightblue" points="569.33,-285.09 578.81,-280.37 568.45,-278.15 569.33,-285.09"/>
</g>
<!-- Node12 -->
<g id="node12" class="node">
<title>Node12</title>
<g id="a_node12"><a xlink:href="class_perceptual_color_1_1_color_dialog.html#a4554999f424ac055986478fe8c899ae1" target="_top" xlink:title="Reads the hexadecimal RGB numbers in the dialog and updates the dialog accordingly.">
<polygon fill="white" stroke="black" points="386,-230.61 386,-260.61 543,-260.61 543,-230.61 386,-230.61"/>
<text text-anchor="start" x="394" y="-248.61" font-family="Helvetica,sans-Serif" font-size="10.00">PerceptualColor::ColorDialog</text>
<text text-anchor="middle" x="464.5" y="-237.61" font-family="Helvetica,sans-Serif" font-size="10.00">::readRgbHexValues</text>
</a>
</g>
</g>
<!-- Node10&#45;&gt;Node12 -->
<g id="edge17" class="edge">
<title>Node10&#45;&gt;Node12</title>
<path fill="none" stroke="midnightblue" d="M568.81,-259.13C560.24,-258.01 551.58,-256.88 543.12,-255.77"/>
<polygon fill="midnightblue" stroke="midnightblue" points="568.44,-262.62 578.81,-260.44 569.35,-255.68 568.44,-262.62"/>
</g>
<!-- Node13 -->
<g id="node13" class="node">
<title>Node13</title>
<g id="a_node13"><a xlink:href="class_perceptual_color_1_1_color_dialog.html#a9bb8f87d25714fc283fdda98424030fe" target="_top" xlink:title="Reads the decimal RGB numbers in the dialog and updates the dialog accordingly.">
<polygon fill="white" stroke="black" points="386,-328.61 386,-358.61 543,-358.61 543,-328.61 386,-328.61"/>
<text text-anchor="start" x="394" y="-346.61" font-family="Helvetica,sans-Serif" font-size="10.00">PerceptualColor::ColorDialog</text>
<text text-anchor="middle" x="464.5" y="-335.61" font-family="Helvetica,sans-Serif" font-size="10.00">::readRgbNumericValues</text>
</a>
</g>
</g>
<!-- Node10&#45;&gt;Node13 -->
<g id="edge19" class="edge">
<title>Node10&#45;&gt;Node13</title>
<path fill="none" stroke="midnightblue" d="M614.72,-289.93C593.46,-299.42 567.09,-310.71 543,-319.61 534.68,-322.69 525.76,-325.7 517.04,-328.5"/>
<polygon fill="midnightblue" stroke="midnightblue" points="616.41,-293 624.1,-285.7 613.54,-286.62 616.41,-293"/>
</g>
<!-- Node11&#45;&gt;Node2 -->
<g id="edge16" class="edge">
<title>Node11&#45;&gt;Node2</title>
<path fill="none" stroke="midnightblue" d="M398.92,-275.96C394.5,-274.27 390.16,-272.49 386,-270.61 352.15,-255.36 315.98,-232 293.81,-216.77"/>
<polygon fill="midnightblue" stroke="midnightblue" points="398.08,-279.37 408.67,-279.49 400.46,-272.79 398.08,-279.37"/>
</g>
<!-- Node12&#45;&gt;Node2 -->
<g id="edge18" class="edge">
<title>Node12&#45;&gt;Node2</title>
<path fill="none" stroke="midnightblue" d="M388.54,-228.34C371.75,-224.48 354.08,-220.41 337.73,-216.64"/>
<polygon fill="midnightblue" stroke="midnightblue" points="387.77,-231.76 398.3,-230.59 389.34,-224.94 387.77,-231.76"/>
</g>
<!-- Node13&#45;&gt;Node2 -->
<g id="edge20" class="edge">
<title>Node13&#45;&gt;Node2</title>
<path fill="none" stroke="midnightblue" d="M394.62,-324.39C391.65,-322.9 388.76,-321.31 386,-319.61 340.76,-291.71 301.05,-241.61 282.93,-216.63"/>
<polygon fill="midnightblue" stroke="midnightblue" points="393.19,-327.58 403.74,-328.52 396.08,-321.21 393.19,-327.58"/>
</g>
</g>
</svg>
