<?xml version="1.0" encoding="UTF-8" standalone="no"?>
<!DOCTYPE svg PUBLIC "-//W3C//DTD SVG 1.1//EN"
 "http://www.w3.org/Graphics/SVG/1.1/DTD/svg11.dtd">
<!-- Generated by graphviz version 2.43.0 (0)
 -->
<!-- Title: PerceptualColor::ChromaHueDiagram::setColorFromImageCoordinates Pages: 1 -->
<svg width="646pt" height="159pt"
 viewBox="0.00 0.00 646.00 159.00" xmlns="http://www.w3.org/2000/svg" xmlns:xlink="http://www.w3.org/1999/xlink">
<g id="graph0" class="graph" transform="scale(1 1) rotate(0) translate(4 155)">
<title>PerceptualColor::ChromaHueDiagram::setColorFromImageCoordinates</title>
<polygon fill="white" stroke="transparent" points="-4,4 -4,-155 642,-155 642,4 -4,4"/>
<!-- Node1 -->
<g id="node1" class="node">
<title>Node1</title>
<g id="a_node1"><a xlink:title="Sets the color property corresponding to given widget coordinates.">
<polygon fill="#bfbfbf" stroke="black" points="0,-46.5 0,-76.5 219,-76.5 219,-46.5 0,-46.5"/>
<text text-anchor="start" x="8" y="-64.5" font-family="Helvetica,sans-Serif" font-size="10.00">PerceptualColor::ChromaHue</text>
<text text-anchor="middle" x="109.5" y="-53.5" font-family="Helvetica,sans-Serif" font-size="10.00">Diagram::setColorFromImageCoordinates</text>
</a>
</g>
</g>
<!-- Node2 -->
<g id="node2" class="node">
<title>Node2</title>
<g id="a_node2"><a xlink:href="class_perceptual_color_1_1_chroma_hue_diagram.html#a82bab0738efff92bf357584527f85b65" target="_top" xlink:title=" ">
<polygon fill="white" stroke="black" points="256.5,-120.5 256.5,-150.5 457.5,-150.5 457.5,-120.5 256.5,-120.5"/>
<text text-anchor="start" x="264.5" y="-138.5" font-family="Helvetica,sans-Serif" font-size="10.00">PerceptualColor::ChromaHue</text>
<text text-anchor="middle" x="357" y="-127.5" font-family="Helvetica,sans-Serif" font-size="10.00">Diagram::fromImageCoordinatesToAB</text>
</a>
</g>
</g>
<!-- Node1&#45;&gt;Node2 -->
<g id="edge1" class="edge">
<title>Node1&#45;&gt;Node2</title>
<path fill="none" stroke="midnightblue" d="M150.64,-76.6C179.45,-87.13 219.32,-101.11 255,-111.5 262.69,-113.74 270.75,-115.92 278.83,-118"/>
<polygon fill="midnightblue" stroke="midnightblue" points="278.11,-121.43 288.66,-120.49 279.82,-114.64 278.11,-121.43"/>
</g>
<!-- Node3 -->
<g id="node3" class="node">
<title>Node3</title>
<g id="a_node3"><a xlink:href="class_perceptual_color_1_1_chroma_hue_diagram.html#a3a62b8d0b33df74dacd6150865c57382" target="_top" xlink:title=" ">
<polygon fill="white" stroke="black" points="255,-71.5 255,-101.5 459,-101.5 459,-71.5 255,-71.5"/>
<text text-anchor="start" x="263" y="-89.5" font-family="Helvetica,sans-Serif" font-size="10.00">PerceptualColor::ChromaHue</text>
<text text-anchor="middle" x="357" y="-78.5" font-family="Helvetica,sans-Serif" font-size="10.00">Diagram::imageCoordinatesFromColor</text>
</a>
</g>
</g>
<!-- Node1&#45;&gt;Node3 -->
<g id="edge2" class="edge">
<title>Node1&#45;&gt;Node3</title>
<path fill="none" stroke="midnightblue" d="M219.25,-72.57C227.64,-73.43 236.12,-74.29 244.52,-75.15"/>
<polygon fill="midnightblue" stroke="midnightblue" points="244.43,-78.66 254.73,-76.19 245.14,-71.69 244.43,-78.66"/>
</g>
<!-- Node5 -->
<g id="node5" class="node">
<title>Node5</title>
<g id="a_node5"><a xlink:href="class_perceptual_color_1_1_chroma_hue_diagram.html#a443db20bc2c25119febcd61ca9299d21" target="_top" xlink:title="Setter for the color() property.">
<polygon fill="white" stroke="black" points="278,-22.5 278,-52.5 436,-52.5 436,-22.5 278,-22.5"/>
<text text-anchor="start" x="286" y="-40.5" font-family="Helvetica,sans-Serif" font-size="10.00">PerceptualColor::ChromaHue</text>
<text text-anchor="middle" x="357" y="-29.5" font-family="Helvetica,sans-Serif" font-size="10.00">Diagram::setColor</text>
</a>
</g>
</g>
<!-- Node1&#45;&gt;Node5 -->
<g id="edge4" class="edge">
<title>Node1&#45;&gt;Node5</title>
<path fill="none" stroke="midnightblue" d="M219.25,-50.87C235.45,-49.28 251.99,-47.67 267.7,-46.13"/>
<polygon fill="midnightblue" stroke="midnightblue" points="268.28,-49.59 277.89,-45.14 267.6,-42.63 268.28,-49.59"/>
</g>
<!-- Node6 -->
<g id="node6" class="node">
<title>Node6</title>
<g id="a_node6"><a xlink:href="class_perceptual_color_1_1_full_color_description.html#acdbff4639f8a118f0d13a831a4b57ffe" target="_top" xlink:title=" ">
<polygon fill="white" stroke="black" points="495,-0.5 495,-30.5 638,-30.5 638,-0.5 495,-0.5"/>
<text text-anchor="start" x="503" y="-18.5" font-family="Helvetica,sans-Serif" font-size="10.00">PerceptualColor::FullColor</text>
<text text-anchor="middle" x="566.5" y="-7.5" font-family="Helvetica,sans-Serif" font-size="10.00">Description::toLch</text>
</a>
</g>
</g>
<!-- Node1&#45;&gt;Node6 -->
<g id="edge6" class="edge">
<title>Node1&#45;&gt;Node6</title>
<path fill="none" stroke="midnightblue" d="M144.43,-46.46C173.21,-34.57 215.93,-18.94 255,-12.5 332.22,0.24 421.7,-2.44 484.72,-7.14"/>
<polygon fill="midnightblue" stroke="midnightblue" points="484.74,-10.65 494.99,-7.94 485.29,-3.67 484.74,-10.65"/>
</g>
<!-- Node4 -->
<g id="node4" class="node">
<title>Node4</title>
<g id="a_node4"><a xlink:href="class_perceptual_color_1_1_full_color_description.html#a26e4ea239adaeeb9237e9655b1cab9e5" target="_top" xlink:title=" ">
<polygon fill="white" stroke="black" points="495,-71.5 495,-101.5 638,-101.5 638,-71.5 495,-71.5"/>
<text text-anchor="start" x="503" y="-89.5" font-family="Helvetica,sans-Serif" font-size="10.00">PerceptualColor::FullColor</text>
<text text-anchor="middle" x="566.5" y="-78.5" font-family="Helvetica,sans-Serif" font-size="10.00">Description::toLab</text>
</a>
</g>
</g>
<!-- Node3&#45;&gt;Node4 -->
<g id="edge3" class="edge">
<title>Node3&#45;&gt;Node4</title>
<path fill="none" stroke="midnightblue" d="M459.01,-86.5C467.66,-86.5 476.33,-86.5 484.79,-86.5"/>
<polygon fill="midnightblue" stroke="midnightblue" points="484.98,-90 494.98,-86.5 484.98,-83 484.98,-90"/>
</g>
<!-- Node5&#45;&gt;Node6 -->
<g id="edge5" class="edge">
<title>Node5&#45;&gt;Node6</title>
<path fill="none" stroke="midnightblue" d="M436.15,-29.21C451.98,-27.54 468.66,-25.77 484.59,-24.08"/>
<polygon fill="midnightblue" stroke="midnightblue" points="485.35,-27.52 494.93,-22.98 484.62,-20.56 485.35,-27.52"/>
</g>
</g>
</svg>
