<?xml version="1.0" encoding="UTF-8" standalone="no"?>
<!DOCTYPE svg PUBLIC "-//W3C//DTD SVG 1.1//EN"
 "http://www.w3.org/Graphics/SVG/1.1/DTD/svg11.dtd">
<!-- Generated by graphviz version 2.43.0 (0)
 -->
<!-- Title: PerceptualColor::ColorDialog::getColor Pages: 1 -->
<svg width="1355pt" height="537pt"
 viewBox="0.00 0.00 1355.00 537.00" xmlns="http://www.w3.org/2000/svg" xmlns:xlink="http://www.w3.org/1999/xlink">
<g id="graph0" class="graph" transform="scale(1 1) rotate(0) translate(4 533)">
<title>PerceptualColor::ColorDialog::getColor</title>
<polygon fill="white" stroke="transparent" points="-4,4 -4,-533 1351,-533 1351,4 -4,4"/>
<!-- Node1 -->
<g id="node1" class="node">
<title>Node1</title>
<g id="a_node1"><a xlink:title="Pops up a modal color dialog, lets the user choose a color, and returns that color.">
<polygon fill="#bfbfbf" stroke="black" points="0,-235.5 0,-265.5 157,-265.5 157,-235.5 0,-235.5"/>
<text text-anchor="start" x="8" y="-253.5" font-family="Helvetica,sans-Serif" font-size="10.00">PerceptualColor::ColorDialog</text>
<text text-anchor="middle" x="78.5" y="-242.5" font-family="Helvetica,sans-Serif" font-size="10.00">::getColor</text>
</a>
</g>
</g>
<!-- Node2 -->
<g id="node2" class="node">
<title>Node2</title>
<g id="a_node2"><a xlink:href="class_perceptual_color_1_1_color_dialog.html#aeb1b22aa195ea3b35cfa84509809fcff" target="_top" xlink:title="The color that was actually selected by the user.">
<polygon fill="white" stroke="black" points="193,-284.5 193,-314.5 350,-314.5 350,-284.5 193,-284.5"/>
<text text-anchor="start" x="201" y="-302.5" font-family="Helvetica,sans-Serif" font-size="10.00">PerceptualColor::ColorDialog</text>
<text text-anchor="middle" x="271.5" y="-291.5" font-family="Helvetica,sans-Serif" font-size="10.00">::selectedColor</text>
</a>
</g>
</g>
<!-- Node1&#45;&gt;Node2 -->
<g id="edge1" class="edge">
<title>Node1&#45;&gt;Node2</title>
<path fill="none" stroke="midnightblue" d="M138.1,-265.53C158.36,-270.73 181.24,-276.6 202.21,-281.98"/>
<polygon fill="midnightblue" stroke="midnightblue" points="201.45,-285.4 212.01,-284.49 203.19,-278.62 201.45,-285.4"/>
</g>
<!-- Node3 -->
<g id="node3" class="node">
<title>Node3</title>
<g id="a_node3"><a xlink:href="class_perceptual_color_1_1_color_dialog.html#a64b6c698ebfaf2461c513ebbb7ef2637" target="_top" xlink:title="Setter for currentColor property.">
<polygon fill="white" stroke="black" points="193,-235.5 193,-265.5 350,-265.5 350,-235.5 193,-235.5"/>
<text text-anchor="start" x="201" y="-253.5" font-family="Helvetica,sans-Serif" font-size="10.00">PerceptualColor::ColorDialog</text>
<text text-anchor="middle" x="271.5" y="-242.5" font-family="Helvetica,sans-Serif" font-size="10.00">::setCurrentColor</text>
</a>
</g>
</g>
<!-- Node1&#45;&gt;Node3 -->
<g id="edge2" class="edge">
<title>Node1&#45;&gt;Node3</title>
<path fill="none" stroke="midnightblue" d="M157.19,-250.5C165.65,-250.5 174.31,-250.5 182.88,-250.5"/>
<polygon fill="midnightblue" stroke="midnightblue" points="182.88,-254 192.88,-250.5 182.88,-247 182.88,-254"/>
</g>
<!-- Node24 -->
<g id="node24" class="node">
<title>Node24</title>
<g id="a_node24"><a xlink:href="class_perceptual_color_1_1_color_dialog.html#adbc5f4f261b5378aab627c85f344136d" target="_top" xlink:title="Setter for options.">
<polygon fill="white" stroke="black" points="193,-186.5 193,-216.5 350,-216.5 350,-186.5 193,-186.5"/>
<text text-anchor="start" x="201" y="-204.5" font-family="Helvetica,sans-Serif" font-size="10.00">PerceptualColor::ColorDialog</text>
<text text-anchor="middle" x="271.5" y="-193.5" font-family="Helvetica,sans-Serif" font-size="10.00">::setOptions</text>
</a>
</g>
</g>
<!-- Node1&#45;&gt;Node24 -->
<g id="edge30" class="edge">
<title>Node1&#45;&gt;Node24</title>
<path fill="none" stroke="midnightblue" d="M138.1,-235.47C158.36,-230.27 181.24,-224.4 202.21,-219.02"/>
<polygon fill="midnightblue" stroke="midnightblue" points="203.19,-222.38 212.01,-216.51 201.45,-215.6 203.19,-222.38"/>
</g>
<!-- Node4 -->
<g id="node4" class="node">
<title>Node4</title>
<g id="a_node4"><a xlink:href="class_perceptual_color_1_1_alpha_selector.html#a1f85608426b1828b131c058fa108fff7" target="_top" xlink:title=" ">
<polygon fill="white" stroke="black" points="386,-379.5 386,-409.5 553,-409.5 553,-379.5 386,-379.5"/>
<text text-anchor="start" x="394" y="-397.5" font-family="Helvetica,sans-Serif" font-size="10.00">PerceptualColor::AlphaSelector</text>
<text text-anchor="middle" x="469.5" y="-386.5" font-family="Helvetica,sans-Serif" font-size="10.00">::setAlpha</text>
</a>
</g>
</g>
<!-- Node3&#45;&gt;Node4 -->
<g id="edge3" class="edge">
<title>Node3&#45;&gt;Node4</title>
<path fill="none" stroke="midnightblue" d="M329.76,-265.51C336.81,-268.35 343.73,-271.66 350,-275.5 391.95,-301.21 430.08,-344.72 451.2,-371.41"/>
<polygon fill="midnightblue" stroke="midnightblue" points="448.54,-373.69 457.45,-379.43 454.07,-369.39 448.54,-373.69"/>
</g>
<!-- Node6 -->
<g id="node6" class="node">
<title>Node6</title>
<g id="a_node6"><a xlink:href="class_perceptual_color_1_1_color_dialog.html#abd0da334b7034a67a3cc83bc3ed0a425" target="_top" xlink:title="Updates m_currentOpaqueColor and all affected widgets.">
<polygon fill="white" stroke="black" points="391,-235.5 391,-265.5 548,-265.5 548,-235.5 391,-235.5"/>
<text text-anchor="start" x="399" y="-253.5" font-family="Helvetica,sans-Serif" font-size="10.00">PerceptualColor::ColorDialog</text>
<text text-anchor="middle" x="469.5" y="-242.5" font-family="Helvetica,sans-Serif" font-size="10.00">::setCurrentOpaqueColor</text>
</a>
</g>
</g>
<!-- Node3&#45;&gt;Node6 -->
<g id="edge5" class="edge">
<title>Node3&#45;&gt;Node6</title>
<path fill="none" stroke="midnightblue" d="M350.25,-250.5C360.27,-250.5 370.58,-250.5 380.75,-250.5"/>
<polygon fill="midnightblue" stroke="midnightblue" points="380.85,-254 390.85,-250.5 380.85,-247 380.85,-254"/>
</g>
<!-- Node23 -->
<g id="node23" class="node">
<title>Node23</title>
<g id="a_node23"><a xlink:href="class_perceptual_color_1_1_color_dialog.html#a089b98a6748380428f2d77411168e930" target="_top" xlink:title="Getter for options.">
<polygon fill="white" stroke="black" points="391,-186.5 391,-216.5 548,-216.5 548,-186.5 391,-186.5"/>
<text text-anchor="start" x="399" y="-204.5" font-family="Helvetica,sans-Serif" font-size="10.00">PerceptualColor::ColorDialog</text>
<text text-anchor="middle" x="469.5" y="-193.5" font-family="Helvetica,sans-Serif" font-size="10.00">::testOption</text>
</a>
</g>
</g>
<!-- Node3&#45;&gt;Node23 -->
<g id="edge29" class="edge">
<title>Node3&#45;&gt;Node23</title>
<path fill="none" stroke="midnightblue" d="M332.64,-235.47C353.52,-230.24 377.11,-224.35 398.71,-218.95"/>
<polygon fill="midnightblue" stroke="midnightblue" points="399.62,-222.33 408.48,-216.51 397.92,-215.54 399.62,-222.33"/>
</g>
<!-- Node5 -->
<g id="node5" class="node">
<title>Node5</title>
<g id="a_node5"><a xlink:href="class_perceptual_color_1_1_gradient_selector.html#a1548390b891333547c1dee97573be568" target="_top" xlink:title=" ">
<polygon fill="white" stroke="black" points="601.5,-453.5 601.5,-483.5 743.5,-483.5 743.5,-453.5 601.5,-453.5"/>
<text text-anchor="start" x="609.5" y="-471.5" font-family="Helvetica,sans-Serif" font-size="10.00">PerceptualColor::Gradient</text>
<text text-anchor="middle" x="672.5" y="-460.5" font-family="Helvetica,sans-Serif" font-size="10.00">Selector::setFraction</text>
</a>
</g>
</g>
<!-- Node4&#45;&gt;Node5 -->
<g id="edge4" class="edge">
<title>Node4&#45;&gt;Node5</title>
<path fill="none" stroke="midnightblue" d="M503.3,-409.55C526.86,-420.07 559.54,-434.04 589,-444.5 594.58,-446.48 600.42,-448.43 606.3,-450.3"/>
<polygon fill="midnightblue" stroke="midnightblue" points="605.6,-453.75 616.19,-453.37 607.68,-447.06 605.6,-453.75"/>
</g>
<!-- Node6&#45;&gt;Node5 -->
<g id="edge19" class="edge">
<title>Node6&#45;&gt;Node5</title>
<path fill="none" stroke="midnightblue" d="M481.94,-265.55C498.61,-287.83 530.09,-331.18 553,-370.5 571.41,-402.1 561.04,-420.92 589,-444.5 590.54,-445.8 592.15,-447.03 593.81,-448.19"/>
<polygon fill="midnightblue" stroke="midnightblue" points="592.16,-451.28 602.53,-453.46 595.78,-445.29 592.16,-451.28"/>
</g>
<!-- Node7 -->
<g id="node7" class="node">
<title>Node7</title>
<g id="a_node7"><a xlink:href="class_perceptual_color_1_1_full_color_description.html#a45a4e34ce415f9fc71f3fe4847c89068" target="_top" xlink:title=" ">
<polygon fill="white" stroke="black" points="601,-306.5 601,-336.5 744,-336.5 744,-306.5 601,-306.5"/>
<text text-anchor="start" x="609" y="-324.5" font-family="Helvetica,sans-Serif" font-size="10.00">PerceptualColor::FullColor</text>
<text text-anchor="middle" x="672.5" y="-313.5" font-family="Helvetica,sans-Serif" font-size="10.00">Description::isValid</text>
</a>
</g>
</g>
<!-- Node6&#45;&gt;Node7 -->
<g id="edge6" class="edge">
<title>Node6&#45;&gt;Node7</title>
<path fill="none" stroke="midnightblue" d="M505.95,-265.58C529.33,-275.27 560.74,-287.81 589,-297.5 594.93,-299.53 601.13,-301.54 607.36,-303.49"/>
<polygon fill="midnightblue" stroke="midnightblue" points="606.54,-306.9 617.13,-306.48 608.59,-300.2 606.54,-306.9"/>
</g>
<!-- Node8 -->
<g id="node8" class="node">
<title>Node8</title>
<g id="a_node8"><a xlink:href="class_perceptual_color_1_1_alpha_selector.html#ac9faa6bbf68757f843e4cce92d697067" target="_top" xlink:title=" ">
<polygon fill="white" stroke="black" points="589,-404.5 589,-434.5 756,-434.5 756,-404.5 589,-404.5"/>
<text text-anchor="start" x="597" y="-422.5" font-family="Helvetica,sans-Serif" font-size="10.00">PerceptualColor::AlphaSelector</text>
<text text-anchor="middle" x="672.5" y="-411.5" font-family="Helvetica,sans-Serif" font-size="10.00">::setColor</text>
</a>
</g>
</g>
<!-- Node6&#45;&gt;Node8 -->
<g id="edge7" class="edge">
<title>Node6&#45;&gt;Node8</title>
<path fill="none" stroke="midnightblue" d="M478.73,-265.77C495.47,-295.38 536.39,-360.71 589,-395.5 591.45,-397.12 594.01,-398.63 596.65,-400.05"/>
<polygon fill="midnightblue" stroke="midnightblue" points="595.36,-403.31 605.89,-404.47 598.38,-396.99 595.36,-403.31"/>
</g>
<!-- Node10 -->
<g id="node10" class="node">
<title>Node10</title>
<g id="a_node10"><a xlink:href="class_perceptual_color_1_1_full_color_description.html#acdbff4639f8a118f0d13a831a4b57ffe" target="_top" xlink:title=" ">
<polygon fill="white" stroke="black" points="1016,-246.5 1016,-276.5 1159,-276.5 1159,-246.5 1016,-246.5"/>
<text text-anchor="start" x="1024" y="-264.5" font-family="Helvetica,sans-Serif" font-size="10.00">PerceptualColor::FullColor</text>
<text text-anchor="middle" x="1087.5" y="-253.5" font-family="Helvetica,sans-Serif" font-size="10.00">Description::toLch</text>
</a>
</g>
</g>
<!-- Node6&#45;&gt;Node10 -->
<g id="edge23" class="edge">
<title>Node6&#45;&gt;Node10</title>
<path fill="none" stroke="midnightblue" d="M525.6,-235.41C534.85,-232.42 544.28,-229.08 553,-225.5 569.73,-218.62 571.96,-212.58 589,-206.5 752.34,-148.27 814.71,-104.43 977,-165.5 1015.52,-180 1049.33,-214.88 1068.85,-238.36"/>
<polygon fill="midnightblue" stroke="midnightblue" points="1066.13,-240.56 1075.14,-246.14 1071.57,-236.16 1066.13,-240.56"/>
</g>
<!-- Node11 -->
<g id="node11" class="node">
<title>Node11</title>
<g id="a_node11"><a xlink:href="class_perceptual_color_1_1_chroma_hue_diagram.html#a443db20bc2c25119febcd61ca9299d21" target="_top" xlink:title="Setter for the color() property.">
<polygon fill="white" stroke="black" points="805.5,-87.5 805.5,-117.5 963.5,-117.5 963.5,-87.5 805.5,-87.5"/>
<text text-anchor="start" x="813.5" y="-105.5" font-family="Helvetica,sans-Serif" font-size="10.00">PerceptualColor::ChromaHue</text>
<text text-anchor="middle" x="884.5" y="-94.5" font-family="Helvetica,sans-Serif" font-size="10.00">Diagram::setColor</text>
</a>
</g>
</g>
<!-- Node6&#45;&gt;Node11 -->
<g id="edge10" class="edge">
<title>Node6&#45;&gt;Node11</title>
<path fill="none" stroke="midnightblue" d="M539.02,-235.4C544.08,-232.64 548.83,-229.37 553,-225.5 585.49,-195.36 553.76,-159.38 589,-132.5 620.37,-108.58 720.04,-102.56 794.8,-101.57"/>
<polygon fill="midnightblue" stroke="midnightblue" points="795.21,-105.07 805.17,-101.47 795.14,-98.07 795.21,-105.07"/>
</g>
<!-- Node12 -->
<g id="node12" class="node">
<title>Node12</title>
<g id="a_node12"><a xlink:href="class_perceptual_color_1_1_wheel_color_picker.html#a5f3a58bb672323221c98c2285404bf76" target="_top" xlink:title="Setter for currentColorRgb() property.">
<polygon fill="white" stroke="black" points="594.5,-355.5 594.5,-385.5 750.5,-385.5 750.5,-355.5 594.5,-355.5"/>
<text text-anchor="start" x="602.5" y="-373.5" font-family="Helvetica,sans-Serif" font-size="10.00">PerceptualColor::WheelColor</text>
<text text-anchor="middle" x="672.5" y="-362.5" font-family="Helvetica,sans-Serif" font-size="10.00">Picker::setCurrentColor</text>
</a>
</g>
</g>
<!-- Node6&#45;&gt;Node12 -->
<g id="edge12" class="edge">
<title>Node6&#45;&gt;Node12</title>
<path fill="none" stroke="midnightblue" d="M485.17,-265.72C506.26,-286.78 547.24,-324.65 589,-346.5 592.54,-348.35 596.25,-350.08 600.04,-351.69"/>
<polygon fill="midnightblue" stroke="midnightblue" points="599.03,-355.05 609.61,-355.45 601.58,-348.54 599.03,-355.05"/>
</g>
<!-- Node17 -->
<g id="node17" class="node">
<title>Node17</title>
<g id="a_node17"><a xlink:href="class_perceptual_color_1_1_color_dialog.html#a38134a3e22f2b3df4602a08025ec1d52" target="_top" xlink:title="Get text for m_hlcLineEdit based on m_currentOpaqueColor.">
<polygon fill="white" stroke="black" points="806,-175.5 806,-205.5 963,-205.5 963,-175.5 806,-175.5"/>
<text text-anchor="start" x="814" y="-193.5" font-family="Helvetica,sans-Serif" font-size="10.00">PerceptualColor::ColorDialog</text>
<text text-anchor="middle" x="884.5" y="-182.5" font-family="Helvetica,sans-Serif" font-size="10.00">::textForHlcLineEdit</text>
</a>
</g>
</g>
<!-- Node6&#45;&gt;Node17 -->
<g id="edge20" class="edge">
<title>Node6&#45;&gt;Node17</title>
<path fill="none" stroke="midnightblue" d="M548.18,-239.21C618.59,-228.99 722.27,-213.92 795.67,-203.26"/>
<polygon fill="midnightblue" stroke="midnightblue" points="796.42,-206.69 805.82,-201.79 795.42,-199.76 796.42,-206.69"/>
</g>
<!-- Node18 -->
<g id="node18" class="node">
<title>Node18</title>
<g id="a_node18"><a xlink:href="class_perceptual_color_1_1_full_color_description.html#aaa17133c6e1d040b2f088e79a42d3283" target="_top" xlink:title=" ">
<polygon fill="white" stroke="black" points="601,-49.5 601,-79.5 744,-79.5 744,-49.5 601,-49.5"/>
<text text-anchor="start" x="609" y="-67.5" font-family="Helvetica,sans-Serif" font-size="10.00">PerceptualColor::FullColor</text>
<text text-anchor="middle" x="672.5" y="-56.5" font-family="Helvetica,sans-Serif" font-size="10.00">Description::toHsvQColor</text>
</a>
</g>
</g>
<!-- Node6&#45;&gt;Node18 -->
<g id="edge22" class="edge">
<title>Node6&#45;&gt;Node18</title>
<path fill="none" stroke="midnightblue" d="M540.23,-235.39C544.91,-232.63 549.24,-229.36 553,-225.5 595.14,-182.25 548.06,-138.88 589,-94.5 592.37,-90.84 596.23,-87.63 600.39,-84.81"/>
<polygon fill="midnightblue" stroke="midnightblue" points="602.47,-87.64 609.3,-79.55 598.91,-81.62 602.47,-87.64"/>
</g>
<!-- Node19 -->
<g id="node19" class="node">
<title>Node19</title>
<g id="a_node19"><a xlink:href="class_perceptual_color_1_1_full_color_description.html#a572e2abe28e31c6315732d30f06b1732" target="_top" xlink:title="A string with a hexadecimal representation of the color.">
<polygon fill="white" stroke="black" points="595,-0.5 595,-30.5 750,-30.5 750,-0.5 595,-0.5"/>
<text text-anchor="start" x="603" y="-18.5" font-family="Helvetica,sans-Serif" font-size="10.00">PerceptualColor::FullColor</text>
<text text-anchor="middle" x="672.5" y="-7.5" font-family="Helvetica,sans-Serif" font-size="10.00">Description::toRgbHexString</text>
</a>
</g>
</g>
<!-- Node6&#45;&gt;Node19 -->
<g id="edge24" class="edge">
<title>Node6&#45;&gt;Node19</title>
<path fill="none" stroke="midnightblue" d="M540.95,-235.47C545.4,-232.68 549.49,-229.39 553,-225.5 609.39,-162.97 532.26,-101.71 589,-39.5 589.78,-38.65 590.59,-37.82 591.42,-37.03"/>
<polygon fill="midnightblue" stroke="midnightblue" points="593.87,-39.55 599.56,-30.61 589.54,-34.05 593.87,-39.55"/>
</g>
<!-- Node20 -->
<g id="node20" class="node">
<title>Node20</title>
<g id="a_node20"><a xlink:href="class_perceptual_color_1_1_full_color_description.html#aad1d9cc70b7a9ae81c829c391334d768" target="_top" xlink:title=" ">
<polygon fill="white" stroke="black" points="813,-224.5 813,-254.5 956,-254.5 956,-224.5 813,-224.5"/>
<text text-anchor="start" x="821" y="-242.5" font-family="Helvetica,sans-Serif" font-size="10.00">PerceptualColor::FullColor</text>
<text text-anchor="middle" x="884.5" y="-231.5" font-family="Helvetica,sans-Serif" font-size="10.00">Description::toRgbQColor</text>
</a>
</g>
</g>
<!-- Node6&#45;&gt;Node20 -->
<g id="edge25" class="edge">
<title>Node6&#45;&gt;Node20</title>
<path fill="none" stroke="midnightblue" d="M548.18,-248.43C620.82,-246.5 728.87,-243.62 802.55,-241.66"/>
<polygon fill="midnightblue" stroke="midnightblue" points="802.81,-245.15 812.71,-241.39 802.62,-238.15 802.81,-245.15"/>
</g>
<!-- Node21 -->
<g id="node21" class="node">
<title>Node21</title>
<g id="a_node21"><a xlink:href="class_perceptual_color_1_1_color_dialog.html#a18985e0cf14c64400f1edc5f64da159d" target="_top" xlink:title="Updates the color patch widget.">
<polygon fill="white" stroke="black" points="594,-257.5 594,-287.5 751,-287.5 751,-257.5 594,-257.5"/>
<text text-anchor="start" x="602" y="-275.5" font-family="Helvetica,sans-Serif" font-size="10.00">PerceptualColor::ColorDialog</text>
<text text-anchor="middle" x="672.5" y="-264.5" font-family="Helvetica,sans-Serif" font-size="10.00">::updateColorPatch</text>
</a>
</g>
</g>
<!-- Node6&#45;&gt;Node21 -->
<g id="edge26" class="edge">
<title>Node6&#45;&gt;Node21</title>
<path fill="none" stroke="midnightblue" d="M548.21,-259.01C559.95,-260.29 572.12,-261.62 584.05,-262.93"/>
<polygon fill="midnightblue" stroke="midnightblue" points="583.67,-266.41 593.99,-264.02 584.44,-259.45 583.67,-266.41"/>
</g>
<!-- Node9 -->
<g id="node9" class="node">
<title>Node9</title>
<g id="a_node9"><a xlink:href="class_perceptual_color_1_1_gradient_selector.html#aabfd1c82565fb7c491e3bf1735beca11" target="_top" xlink:title=" ">
<polygon fill="white" stroke="black" points="813.5,-498.5 813.5,-528.5 955.5,-528.5 955.5,-498.5 813.5,-498.5"/>
<text text-anchor="start" x="821.5" y="-516.5" font-family="Helvetica,sans-Serif" font-size="10.00">PerceptualColor::Gradient</text>
<text text-anchor="middle" x="884.5" y="-505.5" font-family="Helvetica,sans-Serif" font-size="10.00">Selector::setColors</text>
</a>
</g>
</g>
<!-- Node8&#45;&gt;Node9 -->
<g id="edge8" class="edge">
<title>Node8&#45;&gt;Node9</title>
<path fill="none" stroke="midnightblue" d="M736.33,-434.64C743.21,-437.42 749.91,-440.69 756,-444.5 775.99,-457.03 772.15,-470.75 792,-483.5 798.63,-487.76 805.91,-491.46 813.39,-494.68"/>
<polygon fill="midnightblue" stroke="midnightblue" points="812.35,-498.03 822.93,-498.49 814.94,-491.53 812.35,-498.03"/>
</g>
<!-- Node8&#45;&gt;Node10 -->
<g id="edge9" class="edge">
<title>Node8&#45;&gt;Node10</title>
<path fill="none" stroke="midnightblue" d="M719.67,-434.51C741.37,-440.81 767.74,-447.38 792,-450.5 873.55,-460.99 905.76,-491.56 977,-450.5 993.17,-441.18 1049.23,-334.42 1074.26,-285.6"/>
<polygon fill="midnightblue" stroke="midnightblue" points="1077.4,-287.15 1078.83,-276.65 1071.17,-283.96 1077.4,-287.15"/>
</g>
<!-- Node11&#45;&gt;Node10 -->
<g id="edge11" class="edge">
<title>Node11&#45;&gt;Node10</title>
<path fill="none" stroke="midnightblue" d="M947.24,-117.56C957.64,-121.52 967.98,-126.44 977,-132.5 1018.8,-160.6 1053.72,-208.92 1072.23,-237.77"/>
<polygon fill="midnightblue" stroke="midnightblue" points="1069.37,-239.8 1077.65,-246.41 1075.3,-236.08 1069.37,-239.8"/>
</g>
<!-- Node12&#45;&gt;Node10 -->
<g id="edge18" class="edge">
<title>Node12&#45;&gt;Node10</title>
<path fill="none" stroke="midnightblue" d="M750.56,-358.35C826.16,-346.01 935.9,-326.87 977,-313.5 1002.63,-305.16 1030.01,-292.16 1050.99,-281.24"/>
<polygon fill="midnightblue" stroke="midnightblue" points="1052.65,-284.32 1059.85,-276.55 1049.37,-278.13 1052.65,-284.32"/>
</g>
<!-- Node13 -->
<g id="node13" class="node">
<title>Node13</title>
<g id="a_node13"><a xlink:href="class_perceptual_color_1_1_chroma_lightness_diagram.html#a27d7c972e420480674da1a0fae0b10b3" target="_top" xlink:title="Setter for the color() property.">
<polygon fill="white" stroke="black" points="792,-361.5 792,-391.5 977,-391.5 977,-361.5 792,-361.5"/>
<text text-anchor="start" x="800" y="-379.5" font-family="Helvetica,sans-Serif" font-size="10.00">PerceptualColor::ChromaLightness</text>
<text text-anchor="middle" x="884.5" y="-368.5" font-family="Helvetica,sans-Serif" font-size="10.00">Diagram::setColor</text>
</a>
</g>
</g>
<!-- Node12&#45;&gt;Node13 -->
<g id="edge13" class="edge">
<title>Node12&#45;&gt;Node13</title>
<path fill="none" stroke="midnightblue" d="M750.5,-372.7C760.71,-372.99 771.29,-373.29 781.82,-373.59"/>
<polygon fill="midnightblue" stroke="midnightblue" points="781.8,-377.1 791.9,-373.88 782,-370.1 781.8,-377.1"/>
</g>
<!-- Node14 -->
<g id="node14" class="node">
<title>Node14</title>
<g id="a_node14"><a xlink:href="class_perceptual_color_1_1_simple_color_wheel.html#aa9eec6e96f6069be6d983d1c854644d1" target="_top" xlink:title=" ">
<polygon fill="white" stroke="black" points="805,-410.5 805,-440.5 964,-440.5 964,-410.5 805,-410.5"/>
<text text-anchor="start" x="813" y="-428.5" font-family="Helvetica,sans-Serif" font-size="10.00">PerceptualColor::SimpleColor</text>
<text text-anchor="middle" x="884.5" y="-417.5" font-family="Helvetica,sans-Serif" font-size="10.00">Wheel::setHue</text>
</a>
</g>
</g>
<!-- Node12&#45;&gt;Node14 -->
<g id="edge15" class="edge">
<title>Node12&#45;&gt;Node14</title>
<path fill="none" stroke="midnightblue" d="M730.88,-385.53C757.27,-392.44 788.76,-400.69 816.25,-407.89"/>
<polygon fill="midnightblue" stroke="midnightblue" points="815.63,-411.34 826.19,-410.49 817.4,-404.57 815.63,-411.34"/>
</g>
<!-- Node13&#45;&gt;Node10 -->
<g id="edge14" class="edge">
<title>Node13&#45;&gt;Node10</title>
<path fill="none" stroke="midnightblue" d="M941.92,-361.37C953.82,-357.26 966.08,-352.31 977,-346.5 1009.41,-329.28 1042.07,-302.41 1063.18,-283.5"/>
<polygon fill="midnightblue" stroke="midnightblue" points="1065.63,-285.99 1070.67,-276.68 1060.92,-280.81 1065.63,-285.99"/>
</g>
<!-- Node15 -->
<g id="node15" class="node">
<title>Node15</title>
<g id="a_node15"><a xlink:href="class_perceptual_color_1_1_polar_point_f.html#a9eefd08d3a5ad536232292380f958804" target="_top" xlink:title="Normalizes an angle.">
<polygon fill="white" stroke="black" points="1013,-410.5 1013,-440.5 1162,-440.5 1162,-410.5 1013,-410.5"/>
<text text-anchor="start" x="1021" y="-428.5" font-family="Helvetica,sans-Serif" font-size="10.00">PerceptualColor::PolarPoint</text>
<text text-anchor="middle" x="1087.5" y="-417.5" font-family="Helvetica,sans-Serif" font-size="10.00">F::normalizedAngleDegree</text>
</a>
</g>
</g>
<!-- Node14&#45;&gt;Node15 -->
<g id="edge16" class="edge">
<title>Node14&#45;&gt;Node15</title>
<path fill="none" stroke="midnightblue" d="M964.08,-425.5C976.76,-425.5 989.93,-425.5 1002.74,-425.5"/>
<polygon fill="midnightblue" stroke="midnightblue" points="1002.91,-429 1012.91,-425.5 1002.91,-422 1002.91,-429"/>
</g>
<!-- Node16 -->
<g id="node16" class="node">
<title>Node16</title>
<g id="a_node16"><a xlink:href="class_perceptual_color_1_1_polar_point_f.html#a882cd166affc603fc62241dcb3be4fd5" target="_top" xlink:title="Normalized angle.">
<polygon fill="white" stroke="black" points="1198,-410.5 1198,-440.5 1347,-440.5 1347,-410.5 1198,-410.5"/>
<text text-anchor="start" x="1206" y="-428.5" font-family="Helvetica,sans-Serif" font-size="10.00">PerceptualColor::PolarPoint</text>
<text text-anchor="middle" x="1272.5" y="-417.5" font-family="Helvetica,sans-Serif" font-size="10.00">F::angleDegree</text>
</a>
</g>
</g>
<!-- Node15&#45;&gt;Node16 -->
<g id="edge17" class="edge">
<title>Node15&#45;&gt;Node16</title>
<path fill="none" stroke="midnightblue" d="M1162.14,-425.5C1170.47,-425.5 1179.01,-425.5 1187.46,-425.5"/>
<polygon fill="midnightblue" stroke="midnightblue" points="1187.71,-429 1197.71,-425.5 1187.71,-422 1187.71,-429"/>
</g>
<!-- Node17&#45;&gt;Node10 -->
<g id="edge21" class="edge">
<title>Node17&#45;&gt;Node10</title>
<path fill="none" stroke="midnightblue" d="M944.91,-205.51C955.67,-208.58 966.73,-211.96 977,-215.5 999.72,-223.34 1024.44,-233.57 1044.64,-242.4"/>
<polygon fill="midnightblue" stroke="midnightblue" points="1043.31,-245.64 1053.87,-246.47 1046.14,-239.23 1043.31,-245.64"/>
</g>
<!-- Node21&#45;&gt;Node20 -->
<g id="edge28" class="edge">
<title>Node21&#45;&gt;Node20</title>
<path fill="none" stroke="midnightblue" d="M751.1,-260.31C768,-257.65 785.91,-254.84 802.92,-252.16"/>
<polygon fill="midnightblue" stroke="midnightblue" points="803.48,-255.62 812.82,-250.61 802.39,-248.7 803.48,-255.62"/>
</g>
<!-- Node22 -->
<g id="node22" class="node">
<title>Node22</title>
<g id="a_node22"><a xlink:href="class_perceptual_color_1_1_color_patch.html#ada8693cd4a8e51eb2debd3c0192a7458" target="_top" xlink:title="Set the color property.">
<polygon fill="white" stroke="black" points="808.5,-273.5 808.5,-303.5 960.5,-303.5 960.5,-273.5 808.5,-273.5"/>
<text text-anchor="start" x="816.5" y="-291.5" font-family="Helvetica,sans-Serif" font-size="10.00">PerceptualColor::ColorPatch</text>
<text text-anchor="middle" x="884.5" y="-280.5" font-family="Helvetica,sans-Serif" font-size="10.00">::setColor</text>
</a>
</g>
</g>
<!-- Node21&#45;&gt;Node22 -->
<g id="edge27" class="edge">
<title>Node21&#45;&gt;Node22</title>
<path fill="none" stroke="midnightblue" d="M751.1,-278.41C766.43,-279.58 782.61,-280.81 798.18,-282"/>
<polygon fill="midnightblue" stroke="midnightblue" points="798.08,-285.5 808.32,-282.77 798.61,-278.52 798.08,-285.5"/>
</g>
</g>
</svg>
