<?xml version="1.0" encoding="UTF-8" standalone="no"?>
<!DOCTYPE svg PUBLIC "-//W3C//DTD SVG 1.1//EN"
 "http://www.w3.org/Graphics/SVG/1.1/DTD/svg11.dtd">
<!-- Generated by graphviz version 2.43.0 (0)
 -->
<!-- Title: PerceptualColor::SimpleColorWheel::hueChanged Pages: 1 -->
<svg width="1522pt" height="418pt"
 viewBox="0.00 0.00 1522.00 418.12" xmlns="http://www.w3.org/2000/svg" xmlns:xlink="http://www.w3.org/1999/xlink">
<g id="graph0" class="graph" transform="scale(1 1) rotate(0) translate(4 414.12)">
<title>PerceptualColor::SimpleColorWheel::hueChanged</title>
<polygon fill="white" stroke="transparent" points="-4,4 -4,-414.12 1518,-414.12 1518,4 -4,4"/>
<!-- Node1 -->
<g id="node1" class="node">
<title>Node1</title>
<g id="a_node1"><a xlink:title="Signal for hue() property.">
<polygon fill="#bfbfbf" stroke="black" points="1355,-207.62 1355,-237.62 1514,-237.62 1514,-207.62 1355,-207.62"/>
<text text-anchor="start" x="1363" y="-225.62" font-family="Helvetica,sans-Serif" font-size="10.00">PerceptualColor::SimpleColor</text>
<text text-anchor="middle" x="1434.5" y="-214.62" font-family="Helvetica,sans-Serif" font-size="10.00">Wheel::hueChanged</text>
</a>
</g>
</g>
<!-- Node2 -->
<g id="node2" class="node">
<title>Node2</title>
<g id="a_node2"><a xlink:href="class_perceptual_color_1_1_simple_color_wheel.html#aa9eec6e96f6069be6d983d1c854644d1" target="_top" xlink:title=" ">
<polygon fill="white" stroke="black" points="1160,-232.62 1160,-262.62 1319,-262.62 1319,-232.62 1160,-232.62"/>
<text text-anchor="start" x="1168" y="-250.62" font-family="Helvetica,sans-Serif" font-size="10.00">PerceptualColor::SimpleColor</text>
<text text-anchor="middle" x="1239.5" y="-239.62" font-family="Helvetica,sans-Serif" font-size="10.00">Wheel::setHue</text>
</a>
</g>
</g>
<!-- Node1&#45;&gt;Node2 -->
<g id="edge1" class="edge">
<title>Node1&#45;&gt;Node2</title>
<path fill="none" stroke="midnightblue" d="M1344.98,-234.09C1336.39,-235.2 1327.72,-236.32 1319.24,-237.42"/>
<polygon fill="midnightblue" stroke="midnightblue" points="1345.53,-237.55 1355,-232.79 1344.63,-230.6 1345.53,-237.55"/>
</g>
<!-- Node23 -->
<g id="node23" class="node">
<title>Node23</title>
<g id="a_node23"><a xlink:href="class_perceptual_color_1_1_wheel_color_picker.html#a44595e05acd7bf6ad716242f987507da" target="_top" xlink:title="Constructor.">
<polygon fill="white" stroke="black" points="1161.5,-183.62 1161.5,-213.62 1317.5,-213.62 1317.5,-183.62 1161.5,-183.62"/>
<text text-anchor="start" x="1169.5" y="-201.62" font-family="Helvetica,sans-Serif" font-size="10.00">PerceptualColor::WheelColor</text>
<text text-anchor="middle" x="1239.5" y="-190.62" font-family="Helvetica,sans-Serif" font-size="10.00">Picker::WheelColorPicker</text>
</a>
</g>
</g>
<!-- Node1&#45;&gt;Node23 -->
<g id="edge29" class="edge">
<title>Node1&#45;&gt;Node23</title>
<path fill="none" stroke="midnightblue" d="M1344.82,-211.59C1335.76,-210.47 1326.61,-209.33 1317.68,-208.22"/>
<polygon fill="midnightblue" stroke="midnightblue" points="1344.64,-215.1 1355,-212.86 1345.51,-208.15 1344.64,-215.1"/>
</g>
<!-- Node3 -->
<g id="node3" class="node">
<title>Node3</title>
<g id="a_node3"><a xlink:href="class_perceptual_color_1_1_simple_color_wheel.html#aac244ab9d153c809ef6e4c2aac05fa22" target="_top" xlink:title="React on key press events.">
<polygon fill="white" stroke="black" points="965,-379.62 965,-409.62 1124,-409.62 1124,-379.62 965,-379.62"/>
<text text-anchor="start" x="973" y="-397.62" font-family="Helvetica,sans-Serif" font-size="10.00">PerceptualColor::SimpleColor</text>
<text text-anchor="middle" x="1044.5" y="-386.62" font-family="Helvetica,sans-Serif" font-size="10.00">Wheel::keyPressEvent</text>
</a>
</g>
</g>
<!-- Node2&#45;&gt;Node3 -->
<g id="edge2" class="edge">
<title>Node2&#45;&gt;Node3</title>
<path fill="none" stroke="midnightblue" d="M1222.53,-271.21C1202.59,-298.9 1165.96,-344.38 1124,-370.62 1118.56,-374.02 1112.61,-376.97 1106.5,-379.52"/>
<polygon fill="midnightblue" stroke="midnightblue" points="1225.49,-273.08 1228.4,-262.89 1219.77,-269.04 1225.49,-273.08"/>
</g>
<!-- Node5 -->
<g id="node5" class="node">
<title>Node5</title>
<g id="a_node5"><a xlink:href="class_perceptual_color_1_1_simple_color_wheel.html#abe3135d19fc45216402f78bce2cf85f3" target="_top" xlink:title="React on a mouse move event.">
<polygon fill="white" stroke="black" points="965,-330.62 965,-360.62 1124,-360.62 1124,-330.62 965,-330.62"/>
<text text-anchor="start" x="973" y="-348.62" font-family="Helvetica,sans-Serif" font-size="10.00">PerceptualColor::SimpleColor</text>
<text text-anchor="middle" x="1044.5" y="-337.62" font-family="Helvetica,sans-Serif" font-size="10.00">Wheel::mouseMoveEvent</text>
</a>
</g>
</g>
<!-- Node2&#45;&gt;Node5 -->
<g id="edge4" class="edge">
<title>Node2&#45;&gt;Node5</title>
<path fill="none" stroke="midnightblue" d="M1210.45,-268.91C1188.02,-285.13 1155.26,-307.08 1124,-321.62 1116.89,-324.93 1109.22,-327.92 1101.54,-330.58"/>
<polygon fill="midnightblue" stroke="midnightblue" points="1212.81,-271.52 1218.81,-262.78 1208.67,-265.87 1212.81,-271.52"/>
</g>
<!-- Node6 -->
<g id="node6" class="node">
<title>Node6</title>
<g id="a_node6"><a xlink:href="class_perceptual_color_1_1_simple_color_wheel.html#a8e6801f8291ff6214d93d56d0ec59e22" target="_top" xlink:title="React on a mouse press event.">
<polygon fill="white" stroke="black" points="965,-281.62 965,-311.62 1124,-311.62 1124,-281.62 965,-281.62"/>
<text text-anchor="start" x="973" y="-299.62" font-family="Helvetica,sans-Serif" font-size="10.00">PerceptualColor::SimpleColor</text>
<text text-anchor="middle" x="1044.5" y="-288.62" font-family="Helvetica,sans-Serif" font-size="10.00">Wheel::mousePressEvent</text>
</a>
</g>
</g>
<!-- Node2&#45;&gt;Node6 -->
<g id="edge5" class="edge">
<title>Node2&#45;&gt;Node6</title>
<path fill="none" stroke="midnightblue" d="M1169.38,-265.17C1148.18,-270.55 1125.07,-276.42 1104.61,-281.61"/>
<polygon fill="midnightblue" stroke="midnightblue" points="1170.45,-268.51 1179.28,-262.66 1168.73,-261.72 1170.45,-268.51"/>
</g>
<!-- Node7 -->
<g id="node7" class="node">
<title>Node7</title>
<g id="a_node7"><a xlink:href="class_perceptual_color_1_1_simple_color_wheel.html#af9f91c60348e415b8726732231230fd0" target="_top" xlink:title="React on a mouse release event.">
<polygon fill="white" stroke="black" points="965,-232.62 965,-262.62 1124,-262.62 1124,-232.62 965,-232.62"/>
<text text-anchor="start" x="973" y="-250.62" font-family="Helvetica,sans-Serif" font-size="10.00">PerceptualColor::SimpleColor</text>
<text text-anchor="middle" x="1044.5" y="-239.62" font-family="Helvetica,sans-Serif" font-size="10.00">Wheel::mouseReleaseEvent</text>
</a>
</g>
</g>
<!-- Node2&#45;&gt;Node7 -->
<g id="edge6" class="edge">
<title>Node2&#45;&gt;Node7</title>
<path fill="none" stroke="midnightblue" d="M1149.98,-247.62C1141.39,-247.62 1132.72,-247.62 1124.24,-247.62"/>
<polygon fill="midnightblue" stroke="midnightblue" points="1150,-251.12 1160,-247.62 1150,-244.12 1150,-251.12"/>
</g>
<!-- Node8 -->
<g id="node8" class="node">
<title>Node8</title>
<g id="a_node8"><a xlink:href="class_perceptual_color_1_1_simple_color_wheel.html#ae95bfc11214636a89ccbb380f3a506e3" target="_top" xlink:title="Reset the hue() property.">
<polygon fill="white" stroke="black" points="965,-183.62 965,-213.62 1124,-213.62 1124,-183.62 965,-183.62"/>
<text text-anchor="start" x="973" y="-201.62" font-family="Helvetica,sans-Serif" font-size="10.00">PerceptualColor::SimpleColor</text>
<text text-anchor="middle" x="1044.5" y="-190.62" font-family="Helvetica,sans-Serif" font-size="10.00">Wheel::resetHue</text>
</a>
</g>
</g>
<!-- Node2&#45;&gt;Node8 -->
<g id="edge7" class="edge">
<title>Node2&#45;&gt;Node8</title>
<path fill="none" stroke="midnightblue" d="M1169.38,-230.07C1148.18,-224.69 1125.07,-218.82 1104.61,-213.63"/>
<polygon fill="midnightblue" stroke="midnightblue" points="1168.73,-233.52 1179.28,-232.59 1170.45,-226.73 1168.73,-233.52"/>
</g>
<!-- Node9 -->
<g id="node9" class="node">
<title>Node9</title>
<g id="a_node9"><a xlink:href="class_perceptual_color_1_1_wheel_color_picker.html#a5f3a58bb672323221c98c2285404bf76" target="_top" xlink:title="Setter for currentColorRgb() property.">
<polygon fill="white" stroke="black" points="966.5,-134.62 966.5,-164.62 1122.5,-164.62 1122.5,-134.62 966.5,-134.62"/>
<text text-anchor="start" x="974.5" y="-152.62" font-family="Helvetica,sans-Serif" font-size="10.00">PerceptualColor::WheelColor</text>
<text text-anchor="middle" x="1044.5" y="-141.62" font-family="Helvetica,sans-Serif" font-size="10.00">Picker::setCurrentColor</text>
</a>
</g>
</g>
<!-- Node2&#45;&gt;Node9 -->
<g id="edge8" class="edge">
<title>Node2&#45;&gt;Node9</title>
<path fill="none" stroke="midnightblue" d="M1166.68,-227.89C1164.37,-226.56 1162.14,-225.14 1160,-223.62 1137.96,-207.99 1145.95,-190.38 1124,-174.62 1118.66,-170.78 1112.7,-167.52 1106.52,-164.74"/>
<polygon fill="midnightblue" stroke="midnightblue" points="1165.38,-231.16 1175.88,-232.61 1168.58,-224.93 1165.38,-231.16"/>
</g>
<!-- Node22 -->
<g id="node22" class="node">
<title>Node22</title>
<g id="a_node22"><a xlink:href="class_perceptual_color_1_1_simple_color_wheel.html#a39f69259647eebe1e95ce3a1aa73bcd6" target="_top" xlink:title="React on a mouse wheel event.">
<polygon fill="white" stroke="black" points="965,-85.62 965,-115.62 1124,-115.62 1124,-85.62 965,-85.62"/>
<text text-anchor="start" x="973" y="-103.62" font-family="Helvetica,sans-Serif" font-size="10.00">PerceptualColor::SimpleColor</text>
<text text-anchor="middle" x="1044.5" y="-92.62" font-family="Helvetica,sans-Serif" font-size="10.00">Wheel::wheelEvent</text>
</a>
</g>
</g>
<!-- Node2&#45;&gt;Node22 -->
<g id="edge28" class="edge">
<title>Node2&#45;&gt;Node22</title>
<path fill="none" stroke="midnightblue" d="M1163.53,-226.7C1162.31,-225.72 1161.13,-224.69 1160,-223.62 1126.04,-191.39 1157.96,-156.85 1124,-124.62 1120.38,-121.19 1116.29,-118.24 1111.91,-115.72"/>
<polygon fill="midnightblue" stroke="midnightblue" points="1161.85,-229.79 1172.09,-232.52 1165.79,-224 1161.85,-229.79"/>
</g>
<!-- Node4 -->
<g id="node4" class="node">
<title>Node4</title>
<g id="a_node4"><a xlink:href="class_perceptual_color_1_1_wheel_color_picker.html#a6d884a79dac5e9c5241bee146960dfad" target="_top" xlink:title="React on key press events.">
<polygon fill="white" stroke="black" points="772.5,-379.62 772.5,-409.62 928.5,-409.62 928.5,-379.62 772.5,-379.62"/>
<text text-anchor="start" x="780.5" y="-397.62" font-family="Helvetica,sans-Serif" font-size="10.00">PerceptualColor::WheelColor</text>
<text text-anchor="middle" x="850.5" y="-386.62" font-family="Helvetica,sans-Serif" font-size="10.00">Picker::keyPressEvent</text>
</a>
</g>
</g>
<!-- Node3&#45;&gt;Node4 -->
<g id="edge3" class="edge">
<title>Node3&#45;&gt;Node4</title>
<path fill="none" stroke="midnightblue" d="M954.73,-394.62C946.07,-394.62 937.32,-394.62 928.78,-394.62"/>
<polygon fill="midnightblue" stroke="midnightblue" points="954.85,-398.12 964.85,-394.62 954.85,-391.12 954.85,-398.12"/>
</g>
<!-- Node10 -->
<g id="node10" class="node">
<title>Node10</title>
<g id="a_node10"><a xlink:href="class_perceptual_color_1_1_color_dialog.html#abd0da334b7034a67a3cc83bc3ed0a425" target="_top" xlink:title="Updates m_currentOpaqueColor and all affected widgets.">
<polygon fill="white" stroke="black" points="772,-134.62 772,-164.62 929,-164.62 929,-134.62 772,-134.62"/>
<text text-anchor="start" x="780" y="-152.62" font-family="Helvetica,sans-Serif" font-size="10.00">PerceptualColor::ColorDialog</text>
<text text-anchor="middle" x="850.5" y="-141.62" font-family="Helvetica,sans-Serif" font-size="10.00">::setCurrentOpaqueColor</text>
</a>
</g>
</g>
<!-- Node9&#45;&gt;Node10 -->
<g id="edge9" class="edge">
<title>Node9&#45;&gt;Node10</title>
<path fill="none" stroke="midnightblue" d="M956.16,-149.62C947.18,-149.62 938.1,-149.62 929.23,-149.62"/>
<polygon fill="midnightblue" stroke="midnightblue" points="956.24,-153.12 966.24,-149.62 956.24,-146.12 956.24,-153.12"/>
</g>
<!-- Node11 -->
<g id="node11" class="node">
<title>Node11</title>
<g id="a_node11"><a xlink:href="class_perceptual_color_1_1_color_dialog.html#ad31fb985e1323cdf1208c91f16fe2a51" target="_top" xlink:title="Basic initialization.">
<polygon fill="white" stroke="black" points="193,-163.62 193,-193.62 350,-193.62 350,-163.62 193,-163.62"/>
<text text-anchor="start" x="201" y="-181.62" font-family="Helvetica,sans-Serif" font-size="10.00">PerceptualColor::ColorDialog</text>
<text text-anchor="middle" x="271.5" y="-170.62" font-family="Helvetica,sans-Serif" font-size="10.00">::initialize</text>
</a>
</g>
</g>
<!-- Node10&#45;&gt;Node11 -->
<g id="edge10" class="edge">
<title>Node10&#45;&gt;Node11</title>
<path fill="none" stroke="midnightblue" d="M778.01,-166.69C764.14,-169.44 749.67,-171.94 736,-173.62 601.22,-190.19 442.73,-187.09 350.35,-183.05"/>
<polygon fill="midnightblue" stroke="midnightblue" points="778.88,-170.08 787.97,-164.64 777.47,-163.23 778.88,-170.08"/>
</g>
<!-- Node13 -->
<g id="node13" class="node">
<title>Node13</title>
<g id="a_node13"><a xlink:href="class_perceptual_color_1_1_color_dialog.html#adf67594f0cb9416b245d6cf726f18bf4" target="_top" xlink:title="Reads the HLC numbers in the dialog and updates the dialog accordingly.">
<polygon fill="white" stroke="black" points="579,-134.62 579,-164.62 736,-164.62 736,-134.62 579,-134.62"/>
<text text-anchor="start" x="587" y="-152.62" font-family="Helvetica,sans-Serif" font-size="10.00">PerceptualColor::ColorDialog</text>
<text text-anchor="middle" x="657.5" y="-141.62" font-family="Helvetica,sans-Serif" font-size="10.00">::readHlcNumericValues</text>
</a>
</g>
</g>
<!-- Node10&#45;&gt;Node13 -->
<g id="edge12" class="edge">
<title>Node10&#45;&gt;Node13</title>
<path fill="none" stroke="midnightblue" d="M761.81,-149.62C753.24,-149.62 744.58,-149.62 736.12,-149.62"/>
<polygon fill="midnightblue" stroke="midnightblue" points="761.81,-153.12 771.81,-149.62 761.81,-146.12 761.81,-153.12"/>
</g>
<!-- Node15 -->
<g id="node15" class="node">
<title>Node15</title>
<g id="a_node15"><a xlink:href="class_perceptual_color_1_1_color_dialog.html#a2a48f4c33652bc9a1a0cb22fd0a6b221" target="_top" xlink:title="Reads the value from the lightness selector in the dialog and updates the dialog accordingly.">
<polygon fill="white" stroke="black" points="579,-78.62 579,-108.62 736,-108.62 736,-78.62 579,-78.62"/>
<text text-anchor="start" x="587" y="-96.62" font-family="Helvetica,sans-Serif" font-size="10.00">PerceptualColor::ColorDialog</text>
<text text-anchor="middle" x="657.5" y="-85.62" font-family="Helvetica,sans-Serif" font-size="10.00">::readLightnessValue</text>
</a>
</g>
</g>
<!-- Node10&#45;&gt;Node15 -->
<g id="edge16" class="edge">
<title>Node10&#45;&gt;Node15</title>
<path fill="none" stroke="midnightblue" d="M788.44,-131.72C763.11,-124.29 734.04,-115.77 709.83,-108.67"/>
<polygon fill="midnightblue" stroke="midnightblue" points="787.73,-135.16 798.32,-134.61 789.7,-128.44 787.73,-135.16"/>
</g>
<!-- Node16 -->
<g id="node16" class="node">
<title>Node16</title>
<g id="a_node16"><a xlink:href="class_perceptual_color_1_1_color_dialog.html#a64b6c698ebfaf2461c513ebbb7ef2637" target="_top" xlink:title="Setter for currentColor property.">
<polygon fill="white" stroke="black" points="579,-15.62 579,-45.62 736,-45.62 736,-15.62 579,-15.62"/>
<text text-anchor="start" x="587" y="-33.62" font-family="Helvetica,sans-Serif" font-size="10.00">PerceptualColor::ColorDialog</text>
<text text-anchor="middle" x="657.5" y="-22.62" font-family="Helvetica,sans-Serif" font-size="10.00">::setCurrentColor</text>
</a>
</g>
</g>
<!-- Node10&#45;&gt;Node16 -->
<g id="edge18" class="edge">
<title>Node10&#45;&gt;Node16</title>
<path fill="none" stroke="midnightblue" d="M822.41,-128.36C799.93,-111.21 766.79,-86.99 736,-68.62 722.1,-60.33 706.14,-52.27 692.32,-45.72"/>
<polygon fill="midnightblue" stroke="midnightblue" points="820.41,-131.24 830.47,-134.57 824.68,-125.7 820.41,-131.24"/>
</g>
<!-- Node18 -->
<g id="node18" class="node">
<title>Node18</title>
<g id="a_node18"><a xlink:href="class_perceptual_color_1_1_color_dialog.html#acf0e7b1b619cee3fc7f5a992e2c93e7d" target="_top" xlink:title="Convenience version of setCurrentOpaqueColor(), accepting QColor.">
<polygon fill="white" stroke="black" points="579,-253.62 579,-283.62 736,-283.62 736,-253.62 579,-253.62"/>
<text text-anchor="start" x="587" y="-271.62" font-family="Helvetica,sans-Serif" font-size="10.00">PerceptualColor::ColorDialog</text>
<text text-anchor="middle" x="657.5" y="-260.62" font-family="Helvetica,sans-Serif" font-size="10.00">::setCurrentOpaqueQColor</text>
</a>
</g>
</g>
<!-- Node10&#45;&gt;Node18 -->
<g id="edge21" class="edge">
<title>Node10&#45;&gt;Node18</title>
<path fill="none" stroke="midnightblue" d="M816.64,-170.09C778.58,-193.81 716.77,-232.32 682.79,-253.48"/>
<polygon fill="midnightblue" stroke="midnightblue" points="818.67,-172.95 825.31,-164.69 814.97,-167.01 818.67,-172.95"/>
</g>
<!-- Node12 -->
<g id="node12" class="node">
<title>Node12</title>
<g id="a_node12"><a xlink:href="class_perceptual_color_1_1_color_dialog.html#a3c1ad1040ede00087aa11fab1514a6e7" target="_top" xlink:title="Constructor.">
<polygon fill="white" stroke="black" points="0,-56.62 0,-86.62 157,-86.62 157,-56.62 0,-56.62"/>
<text text-anchor="start" x="8" y="-74.62" font-family="Helvetica,sans-Serif" font-size="10.00">PerceptualColor::ColorDialog</text>
<text text-anchor="middle" x="78.5" y="-63.62" font-family="Helvetica,sans-Serif" font-size="10.00">::ColorDialog</text>
</a>
</g>
</g>
<!-- Node11&#45;&gt;Node12 -->
<g id="edge11" class="edge">
<title>Node11&#45;&gt;Node12</title>
<path fill="none" stroke="midnightblue" d="M234.52,-158.46C197.23,-137.58 139.82,-105.41 106.32,-86.65"/>
<polygon fill="midnightblue" stroke="midnightblue" points="233.1,-161.68 243.54,-163.52 236.53,-155.58 233.1,-161.68"/>
</g>
<!-- Node13&#45;&gt;Node11 -->
<g id="edge15" class="edge">
<title>Node13&#45;&gt;Node11</title>
<path fill="none" stroke="midnightblue" d="M573.87,-133.02C519.93,-124.9 448.23,-119.25 386,-131.62 355.46,-137.69 322.84,-152.13 300.44,-163.41"/>
<polygon fill="midnightblue" stroke="midnightblue" points="573.65,-136.53 584.07,-134.62 574.74,-129.61 573.65,-136.53"/>
</g>
<!-- Node14 -->
<g id="node14" class="node">
<title>Node14</title>
<g id="a_node14"><a xlink:href="class_perceptual_color_1_1_color_dialog.html#a64f6d0e30a627458ccb7bbf4a77ad42b" target="_top" xlink:title="React on focus changes.">
<polygon fill="white" stroke="black" points="386,-141.62 386,-171.62 543,-171.62 543,-141.62 386,-141.62"/>
<text text-anchor="start" x="394" y="-159.62" font-family="Helvetica,sans-Serif" font-size="10.00">PerceptualColor::ColorDialog</text>
<text text-anchor="middle" x="464.5" y="-148.62" font-family="Helvetica,sans-Serif" font-size="10.00">::handleFocusChange</text>
</a>
</g>
</g>
<!-- Node13&#45;&gt;Node14 -->
<g id="edge13" class="edge">
<title>Node13&#45;&gt;Node14</title>
<path fill="none" stroke="midnightblue" d="M568.81,-152.83C560.24,-153.15 551.58,-153.47 543.12,-153.78"/>
<polygon fill="midnightblue" stroke="midnightblue" points="568.95,-156.33 578.81,-152.47 568.69,-149.34 568.95,-156.33"/>
</g>
<!-- Node14&#45;&gt;Node11 -->
<g id="edge14" class="edge">
<title>Node14&#45;&gt;Node11</title>
<path fill="none" stroke="midnightblue" d="M375.81,-166.72C367.24,-167.71 358.58,-168.71 350.12,-169.68"/>
<polygon fill="midnightblue" stroke="midnightblue" points="376.28,-170.19 385.81,-165.57 375.48,-163.24 376.28,-170.19"/>
</g>
<!-- Node15&#45;&gt;Node11 -->
<g id="edge17" class="edge">
<title>Node15&#45;&gt;Node11</title>
<path fill="none" stroke="midnightblue" d="M568.78,-94.16C515.06,-96.49 445.45,-103.14 386,-120.62 352.88,-130.36 317.98,-149.77 295.77,-163.44"/>
<polygon fill="midnightblue" stroke="midnightblue" points="569.11,-97.65 578.97,-93.76 568.84,-90.65 569.11,-97.65"/>
</g>
<!-- Node16&#45;&gt;Node12 -->
<g id="edge19" class="edge">
<title>Node16&#45;&gt;Node12</title>
<path fill="none" stroke="midnightblue" d="M589.85,-13.42C574.56,-10.18 558.3,-7.29 543,-5.62 473.63,1.93 455.39,1.76 386,-5.62 295.88,-15.21 193.33,-40.25 132.65,-56.58"/>
<polygon fill="midnightblue" stroke="midnightblue" points="589.22,-16.87 599.74,-15.59 590.73,-10.03 589.22,-16.87"/>
</g>
<!-- Node17 -->
<g id="node17" class="node">
<title>Node17</title>
<g id="a_node17"><a xlink:href="class_perceptual_color_1_1_color_dialog.html#a08677555088721a366cc839a90b5eea2" target="_top" xlink:title="Pops up a modal color dialog, lets the user choose a color, and returns that color.">
<polygon fill="white" stroke="black" points="386,-15.62 386,-45.62 543,-45.62 543,-15.62 386,-15.62"/>
<text text-anchor="start" x="394" y="-33.62" font-family="Helvetica,sans-Serif" font-size="10.00">PerceptualColor::ColorDialog</text>
<text text-anchor="middle" x="464.5" y="-22.62" font-family="Helvetica,sans-Serif" font-size="10.00">::getColor</text>
</a>
</g>
</g>
<!-- Node16&#45;&gt;Node17 -->
<g id="edge20" class="edge">
<title>Node16&#45;&gt;Node17</title>
<path fill="none" stroke="midnightblue" d="M568.81,-30.62C560.24,-30.62 551.58,-30.62 543.12,-30.62"/>
<polygon fill="midnightblue" stroke="midnightblue" points="568.81,-34.12 578.81,-30.62 568.81,-27.12 568.81,-34.12"/>
</g>
<!-- Node19 -->
<g id="node19" class="node">
<title>Node19</title>
<g id="a_node19"><a xlink:href="class_perceptual_color_1_1_color_dialog.html#ad834c4b1975dd4b226a054497bd1ef47" target="_top" xlink:title="Reads the HSV numbers in the dialog and updates the dialog accordingly.">
<polygon fill="white" stroke="black" points="386,-229.62 386,-259.62 543,-259.62 543,-229.62 386,-229.62"/>
<text text-anchor="start" x="394" y="-247.62" font-family="Helvetica,sans-Serif" font-size="10.00">PerceptualColor::ColorDialog</text>
<text text-anchor="middle" x="464.5" y="-236.62" font-family="Helvetica,sans-Serif" font-size="10.00">::readHsvNumericValues</text>
</a>
</g>
</g>
<!-- Node18&#45;&gt;Node19 -->
<g id="edge22" class="edge">
<title>Node18&#45;&gt;Node19</title>
<path fill="none" stroke="midnightblue" d="M568.81,-257.6C560.24,-256.52 551.58,-255.44 543.12,-254.37"/>
<polygon fill="midnightblue" stroke="midnightblue" points="568.45,-261.09 578.81,-258.86 569.33,-254.14 568.45,-261.09"/>
</g>
<!-- Node20 -->
<g id="node20" class="node">
<title>Node20</title>
<g id="a_node20"><a xlink:href="class_perceptual_color_1_1_color_dialog.html#a4554999f424ac055986478fe8c899ae1" target="_top" xlink:title="Reads the hexadecimal RGB numbers in the dialog and updates the dialog accordingly.">
<polygon fill="white" stroke="black" points="386,-327.62 386,-357.62 543,-357.62 543,-327.62 386,-327.62"/>
<text text-anchor="start" x="394" y="-345.62" font-family="Helvetica,sans-Serif" font-size="10.00">PerceptualColor::ColorDialog</text>
<text text-anchor="middle" x="464.5" y="-334.62" font-family="Helvetica,sans-Serif" font-size="10.00">::readRgbHexValues</text>
</a>
</g>
</g>
<!-- Node18&#45;&gt;Node20 -->
<g id="edge24" class="edge">
<title>Node18&#45;&gt;Node20</title>
<path fill="none" stroke="midnightblue" d="M615.5,-288.04C594.13,-297.82 567.42,-309.49 543,-318.62 534.69,-321.73 525.77,-324.76 517.06,-327.56"/>
<polygon fill="midnightblue" stroke="midnightblue" points="617,-291.21 624.62,-283.84 614.07,-284.85 617,-291.21"/>
</g>
<!-- Node21 -->
<g id="node21" class="node">
<title>Node21</title>
<g id="a_node21"><a xlink:href="class_perceptual_color_1_1_color_dialog.html#a9bb8f87d25714fc283fdda98424030fe" target="_top" xlink:title="Reads the decimal RGB numbers in the dialog and updates the dialog accordingly.">
<polygon fill="white" stroke="black" points="386,-278.62 386,-308.62 543,-308.62 543,-278.62 386,-278.62"/>
<text text-anchor="start" x="394" y="-296.62" font-family="Helvetica,sans-Serif" font-size="10.00">PerceptualColor::ColorDialog</text>
<text text-anchor="middle" x="464.5" y="-285.62" font-family="Helvetica,sans-Serif" font-size="10.00">::readRgbNumericValues</text>
</a>
</g>
</g>
<!-- Node18&#45;&gt;Node21 -->
<g id="edge26" class="edge">
<title>Node18&#45;&gt;Node21</title>
<path fill="none" stroke="midnightblue" d="M568.81,-280.1C560.24,-281.22 551.58,-282.35 543.12,-283.46"/>
<polygon fill="midnightblue" stroke="midnightblue" points="569.35,-283.56 578.81,-278.79 568.44,-276.62 569.35,-283.56"/>
</g>
<!-- Node19&#45;&gt;Node11 -->
<g id="edge23" class="edge">
<title>Node19&#45;&gt;Node11</title>
<path fill="none" stroke="midnightblue" d="M409.92,-226.11C380.3,-215.87 343.98,-203.32 316.12,-193.69"/>
<polygon fill="midnightblue" stroke="midnightblue" points="409.09,-229.52 419.68,-229.48 411.37,-222.91 409.09,-229.52"/>
</g>
<!-- Node20&#45;&gt;Node11 -->
<g id="edge25" class="edge">
<title>Node20&#45;&gt;Node11</title>
<path fill="none" stroke="midnightblue" d="M393.1,-322.96C390.65,-321.6 388.27,-320.16 386,-318.62 335.99,-284.78 296.87,-222.39 280.65,-193.73"/>
<polygon fill="midnightblue" stroke="midnightblue" points="391.73,-326.18 402.24,-327.47 394.83,-319.91 391.73,-326.18"/>
</g>
<!-- Node21&#45;&gt;Node11 -->
<g id="edge27" class="edge">
<title>Node21&#45;&gt;Node11</title>
<path fill="none" stroke="midnightblue" d="M396.82,-274.8C393.1,-273.19 389.47,-271.46 386,-269.62 346.96,-248.9 308.26,-213.98 287.67,-193.96"/>
<polygon fill="midnightblue" stroke="midnightblue" points="395.62,-278.09 406.21,-278.58 398.24,-271.6 395.62,-278.09"/>
</g>
</g>
</svg>
