<?xml version="1.0" encoding="UTF-8" standalone="no"?>
<!DOCTYPE svg PUBLIC "-//W3C//DTD SVG 1.1//EN"
 "http://www.w3.org/Graphics/SVG/1.1/DTD/svg11.dtd">
<!-- Generated by graphviz version 2.43.0 (0)
 -->
<!-- Title: PerceptualColor::RgbColorSpace::whitepointL Pages: 1 -->
<svg width="596pt" height="39pt"
 viewBox="0.00 0.00 596.00 39.00" xmlns="http://www.w3.org/2000/svg" xmlns:xlink="http://www.w3.org/1999/xlink">
<g id="graph0" class="graph" transform="scale(1 1) rotate(0) translate(4 35)">
<title>PerceptualColor::RgbColorSpace::whitepointL</title>
<polygon fill="white" stroke="transparent" points="-4,4 -4,-35 592,-35 592,4 -4,4"/>
<!-- Node1 -->
<g id="node1" class="node">
<title>Node1</title>
<g id="a_node1"><a xlink:title="The lightest in&#45;gamut point on the L* axis.">
<polygon fill="#bfbfbf" stroke="black" points="444,-0.5 444,-30.5 588,-30.5 588,-0.5 444,-0.5"/>
<text text-anchor="start" x="452" y="-18.5" font-family="Helvetica,sans-Serif" font-size="10.00">PerceptualColor::RgbColor</text>
<text text-anchor="middle" x="516" y="-7.5" font-family="Helvetica,sans-Serif" font-size="10.00">Space::whitepointL</text>
</a>
</g>
</g>
<!-- Node2 -->
<g id="node2" class="node">
<title>Node2</title>
<g id="a_node2"><a xlink:href="class_perceptual_color_1_1_full_color_description.html#a5c7e9555e961f25f39c961b6aedda06a" target="_top" xlink:title=" ">
<polygon fill="white" stroke="black" points="212,-0.5 212,-30.5 408,-30.5 408,-0.5 212,-0.5"/>
<text text-anchor="start" x="220" y="-18.5" font-family="Helvetica,sans-Serif" font-size="10.00">PerceptualColor::FullColor</text>
<text text-anchor="middle" x="310" y="-7.5" font-family="Helvetica,sans-Serif" font-size="10.00">Description::moveChromaIntoGamut</text>
</a>
</g>
</g>
<!-- Node1&#45;&gt;Node2 -->
<g id="edge1" class="edge">
<title>Node1&#45;&gt;Node2</title>
<path fill="none" stroke="midnightblue" d="M433.73,-15.5C425.28,-15.5 416.62,-15.5 408.01,-15.5"/>
<polygon fill="midnightblue" stroke="midnightblue" points="433.94,-19 443.94,-15.5 433.94,-12 433.94,-19"/>
</g>
<!-- Node3 -->
<g id="node3" class="node">
<title>Node3</title>
<g id="a_node3"><a xlink:href="class_perceptual_color_1_1_full_color_description.html#a7d27cb4b18ebaf0a3d0374201c2d283a" target="_top" xlink:title="Constructor.">
<polygon fill="white" stroke="black" points="0,-0.5 0,-30.5 176,-30.5 176,-0.5 0,-0.5"/>
<text text-anchor="start" x="8" y="-18.5" font-family="Helvetica,sans-Serif" font-size="10.00">PerceptualColor::FullColor</text>
<text text-anchor="middle" x="88" y="-7.5" font-family="Helvetica,sans-Serif" font-size="10.00">Description::FullColorDescription</text>
</a>
</g>
</g>
<!-- Node2&#45;&gt;Node3 -->
<g id="edge2" class="edge">
<title>Node2&#45;&gt;Node3</title>
<path fill="none" stroke="midnightblue" d="M201.83,-15.5C193.25,-15.5 184.66,-15.5 176.25,-15.5"/>
<polygon fill="midnightblue" stroke="midnightblue" points="201.86,-19 211.86,-15.5 201.86,-12 201.86,-19"/>
</g>
</g>
</svg>
