<?xml version="1.0" encoding="UTF-8" standalone="no"?>
<!DOCTYPE svg PUBLIC "-//W3C//DTD SVG 1.1//EN"
 "http://www.w3.org/Graphics/SVG/1.1/DTD/svg11.dtd">
<!-- Generated by graphviz version 2.43.0 (0)
 -->
<!-- Title: PerceptualColor::AlphaSelector::alphaChanged Pages: 1 -->
<svg width="816pt" height="171pt"
 viewBox="0.00 0.00 816.00 171.00" xmlns="http://www.w3.org/2000/svg" xmlns:xlink="http://www.w3.org/1999/xlink">
<g id="graph0" class="graph" transform="scale(1 1) rotate(0) translate(4 167)">
<title>PerceptualColor::AlphaSelector::alphaChanged</title>
<polygon fill="white" stroke="transparent" points="-4,4 -4,-167 812,-167 812,4 -4,4"/>
<!-- Node1 -->
<g id="node1" class="node">
<title>Node1</title>
<g id="a_node1"><a xlink:title=" ">
<polygon fill="#bfbfbf" stroke="black" points="641,-87.5 641,-117.5 808,-117.5 808,-87.5 641,-87.5"/>
<text text-anchor="start" x="649" y="-105.5" font-family="Helvetica,sans-Serif" font-size="10.00">PerceptualColor::AlphaSelector</text>
<text text-anchor="middle" x="724.5" y="-94.5" font-family="Helvetica,sans-Serif" font-size="10.00">::alphaChanged</text>
</a>
</g>
</g>
<!-- Node2 -->
<g id="node2" class="node">
<title>Node2</title>
<g id="a_node2"><a xlink:href="class_perceptual_color_1_1_color_dialog.html#ad31fb985e1323cdf1208c91f16fe2a51" target="_top" xlink:title="Basic initialization.">
<polygon fill="white" stroke="black" points="443,-122.5 443,-152.5 600,-152.5 600,-122.5 443,-122.5"/>
<text text-anchor="start" x="451" y="-140.5" font-family="Helvetica,sans-Serif" font-size="10.00">PerceptualColor::ColorDialog</text>
<text text-anchor="middle" x="521.5" y="-129.5" font-family="Helvetica,sans-Serif" font-size="10.00">::initialize</text>
</a>
</g>
</g>
<!-- Node1&#45;&gt;Node2 -->
<g id="edge1" class="edge">
<title>Node1&#45;&gt;Node2</title>
<path fill="none" stroke="midnightblue" d="M630.74,-118.65C620.55,-120.43 610.26,-122.22 600.28,-123.96"/>
<polygon fill="midnightblue" stroke="midnightblue" points="631.62,-122.05 640.88,-116.89 630.42,-115.15 631.62,-122.05"/>
</g>
<!-- Node4 -->
<g id="node4" class="node">
<title>Node4</title>
<g id="a_node4"><a xlink:href="class_perceptual_color_1_1_alpha_selector.html#a1f85608426b1828b131c058fa108fff7" target="_top" xlink:title=" ">
<polygon fill="white" stroke="black" points="438,-63.5 438,-93.5 605,-93.5 605,-63.5 438,-63.5"/>
<text text-anchor="start" x="446" y="-81.5" font-family="Helvetica,sans-Serif" font-size="10.00">PerceptualColor::AlphaSelector</text>
<text text-anchor="middle" x="521.5" y="-70.5" font-family="Helvetica,sans-Serif" font-size="10.00">::setAlpha</text>
</a>
</g>
</g>
<!-- Node1&#45;&gt;Node4 -->
<g id="edge3" class="edge">
<title>Node1&#45;&gt;Node4</title>
<path fill="none" stroke="midnightblue" d="M630.85,-91.44C622.27,-90.41 613.61,-89.38 605.13,-88.37"/>
<polygon fill="midnightblue" stroke="midnightblue" points="630.53,-94.92 640.88,-92.63 631.36,-87.97 630.53,-94.92"/>
</g>
<!-- Node3 -->
<g id="node3" class="node">
<title>Node3</title>
<g id="a_node3"><a xlink:href="class_perceptual_color_1_1_color_dialog.html#a3c1ad1040ede00087aa11fab1514a6e7" target="_top" xlink:title="Constructor.">
<polygon fill="white" stroke="black" points="5,-132.5 5,-162.5 162,-162.5 162,-132.5 5,-132.5"/>
<text text-anchor="start" x="13" y="-150.5" font-family="Helvetica,sans-Serif" font-size="10.00">PerceptualColor::ColorDialog</text>
<text text-anchor="middle" x="83.5" y="-139.5" font-family="Helvetica,sans-Serif" font-size="10.00">::ColorDialog</text>
</a>
</g>
</g>
<!-- Node2&#45;&gt;Node3 -->
<g id="edge2" class="edge">
<title>Node2&#45;&gt;Node3</title>
<path fill="none" stroke="midnightblue" d="M432.36,-139.52C353.18,-141.34 238.04,-143.98 162.23,-145.72"/>
<polygon fill="midnightblue" stroke="midnightblue" points="432.89,-143.01 442.8,-139.28 432.73,-136.01 432.89,-143.01"/>
</g>
<!-- Node5 -->
<g id="node5" class="node">
<title>Node5</title>
<g id="a_node5"><a xlink:href="class_perceptual_color_1_1_alpha_selector.html#a3054b783bd88068bbf6caa4553dc4649" target="_top" xlink:title=" ">
<polygon fill="white" stroke="black" points="0,-17.5 0,-47.5 167,-47.5 167,-17.5 0,-17.5"/>
<text text-anchor="start" x="8" y="-35.5" font-family="Helvetica,sans-Serif" font-size="10.00">PerceptualColor::AlphaSelector</text>
<text text-anchor="middle" x="83.5" y="-24.5" font-family="Helvetica,sans-Serif" font-size="10.00">::AlphaSelector</text>
</a>
</g>
</g>
<!-- Node4&#45;&gt;Node5 -->
<g id="edge4" class="edge">
<title>Node4&#45;&gt;Node5</title>
<path fill="none" stroke="midnightblue" d="M427.77,-68.72C350.47,-60.56 241.37,-49.05 167.05,-41.21"/>
<polygon fill="midnightblue" stroke="midnightblue" points="427.67,-72.23 437.98,-69.79 428.4,-65.26 427.67,-72.23"/>
</g>
<!-- Node6 -->
<g id="node6" class="node">
<title>Node6</title>
<g id="a_node6"><a xlink:href="class_perceptual_color_1_1_alpha_selector.html#a5d4081da5f351f6c98a2ffda568f434e" target="_top" xlink:title=" ">
<polygon fill="white" stroke="black" points="203,-0.5 203,-30.5 402,-30.5 402,-0.5 203,-0.5"/>
<text text-anchor="start" x="211" y="-18.5" font-family="Helvetica,sans-Serif" font-size="10.00">PerceptualColor::AlphaSelector</text>
<text text-anchor="middle" x="302.5" y="-7.5" font-family="Helvetica,sans-Serif" font-size="10.00">::setAlphaFromRepresentationFormat</text>
</a>
</g>
</g>
<!-- Node4&#45;&gt;Node6 -->
<g id="edge5" class="edge">
<title>Node4&#45;&gt;Node6</title>
<path fill="none" stroke="midnightblue" d="M458.88,-60.61C426.12,-51.1 386.31,-39.54 355.18,-30.5"/>
<polygon fill="midnightblue" stroke="midnightblue" points="458.22,-64.06 468.8,-63.49 460.17,-57.34 458.22,-64.06"/>
</g>
<!-- Node7 -->
<g id="node7" class="node">
<title>Node7</title>
<g id="a_node7"><a xlink:href="class_perceptual_color_1_1_color_dialog.html#a64b6c698ebfaf2461c513ebbb7ef2637" target="_top" xlink:title="Setter for currentColor property.">
<polygon fill="white" stroke="black" points="224,-88.5 224,-118.5 381,-118.5 381,-88.5 224,-88.5"/>
<text text-anchor="start" x="232" y="-106.5" font-family="Helvetica,sans-Serif" font-size="10.00">PerceptualColor::ColorDialog</text>
<text text-anchor="middle" x="302.5" y="-95.5" font-family="Helvetica,sans-Serif" font-size="10.00">::setCurrentColor</text>
</a>
</g>
</g>
<!-- Node4&#45;&gt;Node7 -->
<g id="edge7" class="edge">
<title>Node4&#45;&gt;Node7</title>
<path fill="none" stroke="midnightblue" d="M427.74,-89.19C412.26,-90.97 396.34,-92.8 381.28,-94.54"/>
<polygon fill="midnightblue" stroke="midnightblue" points="428.31,-92.64 437.84,-88.02 427.51,-85.69 428.31,-92.64"/>
</g>
<!-- Node6&#45;&gt;Node5 -->
<g id="edge6" class="edge">
<title>Node6&#45;&gt;Node5</title>
<path fill="none" stroke="midnightblue" d="M192.71,-24.02C184.07,-24.7 175.43,-25.38 167.01,-26.04"/>
<polygon fill="midnightblue" stroke="midnightblue" points="193.15,-27.5 202.84,-23.23 192.6,-20.52 193.15,-27.5"/>
</g>
<!-- Node7&#45;&gt;Node3 -->
<g id="edge8" class="edge">
<title>Node7&#45;&gt;Node3</title>
<path fill="none" stroke="midnightblue" d="M217.4,-120.55C198.02,-124.48 177.53,-128.64 158.61,-132.47"/>
<polygon fill="midnightblue" stroke="midnightblue" points="218.32,-123.94 227.43,-118.52 216.93,-117.08 218.32,-123.94"/>
</g>
<!-- Node8 -->
<g id="node8" class="node">
<title>Node8</title>
<g id="a_node8"><a xlink:href="class_perceptual_color_1_1_color_dialog.html#a08677555088721a366cc839a90b5eea2" target="_top" xlink:title="Pops up a modal color dialog, lets the user choose a color, and returns that color.">
<polygon fill="white" stroke="black" points="5,-83.5 5,-113.5 162,-113.5 162,-83.5 5,-83.5"/>
<text text-anchor="start" x="13" y="-101.5" font-family="Helvetica,sans-Serif" font-size="10.00">PerceptualColor::ColorDialog</text>
<text text-anchor="middle" x="83.5" y="-90.5" font-family="Helvetica,sans-Serif" font-size="10.00">::getColor</text>
</a>
</g>
</g>
<!-- Node7&#45;&gt;Node8 -->
<g id="edge9" class="edge">
<title>Node7&#45;&gt;Node8</title>
<path fill="none" stroke="midnightblue" d="M213.3,-101.47C196.33,-101.08 178.66,-100.67 162.05,-100.29"/>
<polygon fill="midnightblue" stroke="midnightblue" points="213.69,-104.98 223.77,-101.71 213.85,-97.98 213.69,-104.98"/>
</g>
</g>
</svg>
