<?xml version="1.0" encoding="UTF-8" standalone="no"?>
<!DOCTYPE svg PUBLIC "-//W3C//DTD SVG 1.1//EN"
 "http://www.w3.org/Graphics/SVG/1.1/DTD/svg11.dtd">
<!-- Generated by graphviz version 2.43.0 (0)
 -->
<!-- Title: PerceptualColor::GradientSelector Pages: 1 -->
<svg width="391pt" height="206pt"
 viewBox="0.00 0.00 390.50 206.00" xmlns="http://www.w3.org/2000/svg" xmlns:xlink="http://www.w3.org/1999/xlink">
<g id="graph0" class="graph" transform="scale(1 1) rotate(0) translate(4 202)">
<title>PerceptualColor::GradientSelector</title>
<polygon fill="white" stroke="transparent" points="-4,4 -4,-202 386.5,-202 386.5,4 -4,4"/>
<!-- Node1 -->
<g id="node1" class="node">
<title>Node1</title>
<g id="a_node1"><a xlink:title="A slider displaying a gradient.">
<polygon fill="#bfbfbf" stroke="black" points="77.5,-0.5 77.5,-30.5 219.5,-30.5 219.5,-0.5 77.5,-0.5"/>
<text text-anchor="start" x="85.5" y="-18.5" font-family="Helvetica,sans-Serif" font-size="10.00">PerceptualColor::Gradient</text>
<text text-anchor="middle" x="148.5" y="-7.5" font-family="Helvetica,sans-Serif" font-size="10.00">Selector</text>
</a>
</g>
</g>
<!-- Node2 -->
<g id="node2" class="node">
<title>Node2</title>
<g id="a_node2"><a xlink:title=" ">
<polygon fill="white" stroke="#bfbfbf" points="0,-95 0,-114 59,-114 59,-95 0,-95"/>
<text text-anchor="middle" x="29.5" y="-102" font-family="Helvetica,sans-Serif" font-size="10.00">QWidget</text>
</a>
</g>
</g>
<!-- Node2&#45;&gt;Node1 -->
<g id="edge1" class="edge">
<title>Node2&#45;&gt;Node1</title>
<path fill="none" stroke="midnightblue" d="M49.42,-88.94C71.64,-72.69 107.35,-46.58 129.29,-30.55"/>
<polygon fill="midnightblue" stroke="midnightblue" points="47.35,-86.11 41.35,-94.84 51.48,-91.76 47.35,-86.11"/>
</g>
<!-- Node3 -->
<g id="node3" class="node">
<title>Node3</title>
<g id="a_node3"><a xlink:href="class_perceptual_color_1_1_full_color_description.html" target="_top" xlink:title="A fully qualified color.">
<polygon fill="white" stroke="black" points="77,-89.5 77,-119.5 220,-119.5 220,-89.5 77,-89.5"/>
<text text-anchor="start" x="85" y="-107.5" font-family="Helvetica,sans-Serif" font-size="10.00">PerceptualColor::FullColor</text>
<text text-anchor="middle" x="148.5" y="-96.5" font-family="Helvetica,sans-Serif" font-size="10.00">Description</text>
</a>
</g>
</g>
<!-- Node3&#45;&gt;Node1 -->
<g id="edge2" class="edge">
<title>Node3&#45;&gt;Node1</title>
<path fill="none" stroke="#9a32cd" stroke-dasharray="5,2" d="M148.5,-79.09C148.5,-63.44 148.5,-43.68 148.5,-30.6"/>
<polygon fill="#9a32cd" stroke="#9a32cd" points="145,-79.13 148.5,-89.13 152,-79.13 145,-79.13"/>
<text text-anchor="middle" x="188" y="-63" font-family="Helvetica,sans-Serif" font-size="10.00"> m_secondColor</text>
<text text-anchor="middle" x="188" y="-52" font-family="Helvetica,sans-Serif" font-size="10.00">m_firstColor</text>
</g>
<!-- Node4 -->
<g id="node4" class="node">
<title>Node4</title>
<g id="a_node4"><a xlink:href="struct_perceptual_color_1_1_helper_1_1cms_r_g_b.html" target="_top" xlink:title="An RGB color.">
<polygon fill="white" stroke="black" points="82.5,-167.5 82.5,-197.5 214.5,-197.5 214.5,-167.5 82.5,-167.5"/>
<text text-anchor="start" x="90.5" y="-185.5" font-family="Helvetica,sans-Serif" font-size="10.00">PerceptualColor::Helper</text>
<text text-anchor="middle" x="148.5" y="-174.5" font-family="Helvetica,sans-Serif" font-size="10.00">::cmsRGB</text>
</a>
</g>
</g>
<!-- Node4&#45;&gt;Node3 -->
<g id="edge3" class="edge">
<title>Node4&#45;&gt;Node3</title>
<path fill="none" stroke="#9a32cd" stroke-dasharray="5,2" d="M148.5,-157.09C148.5,-144.76 148.5,-130.22 148.5,-119.73"/>
<polygon fill="#9a32cd" stroke="#9a32cd" points="145,-157.2 148.5,-167.2 152,-157.21 145,-157.2"/>
<text text-anchor="middle" x="165.5" y="-141" font-family="Helvetica,sans-Serif" font-size="10.00"> m_rgb</text>
</g>
<!-- Node5 -->
<g id="node5" class="node">
<title>Node5</title>
<g id="a_node5"><a xlink:href="class_perceptual_color_1_1_rgb_color_space.html" target="_top" xlink:title="Interface to LittleCMS for working with an RGB color space.">
<polygon fill="white" stroke="black" points="238.5,-89.5 238.5,-119.5 382.5,-119.5 382.5,-89.5 238.5,-89.5"/>
<text text-anchor="start" x="246.5" y="-107.5" font-family="Helvetica,sans-Serif" font-size="10.00">PerceptualColor::RgbColor</text>
<text text-anchor="middle" x="310.5" y="-96.5" font-family="Helvetica,sans-Serif" font-size="10.00">Space</text>
</a>
</g>
</g>
<!-- Node5&#45;&gt;Node1 -->
<g id="edge4" class="edge">
<title>Node5&#45;&gt;Node1</title>
<path fill="none" stroke="#9a32cd" stroke-dasharray="5,2" d="M284.5,-83.29C269.54,-72.26 250.07,-58.87 231.5,-49 218.38,-42.03 203.43,-35.71 189.87,-30.55"/>
<polygon fill="#9a32cd" stroke="#9a32cd" points="282.64,-86.28 292.74,-89.48 286.84,-80.68 282.64,-86.28"/>
<text text-anchor="middle" x="310" y="-57.5" font-family="Helvetica,sans-Serif" font-size="10.00"> m_rgbColorSpace</text>
</g>
<!-- Node6 -->
<g id="node6" class="node">
<title>Node6</title>
<g id="a_node6"><a xlink:title=" ">
<polygon fill="white" stroke="#bfbfbf" points="282.5,-173 282.5,-192 338.5,-192 338.5,-173 282.5,-173"/>
<text text-anchor="middle" x="310.5" y="-180" font-family="Helvetica,sans-Serif" font-size="10.00">QObject</text>
</a>
</g>
</g>
<!-- Node6&#45;&gt;Node5 -->
<g id="edge5" class="edge">
<title>Node6&#45;&gt;Node5</title>
<path fill="none" stroke="midnightblue" d="M310.5,-162.78C310.5,-149.4 310.5,-131.69 310.5,-119.52"/>
<polygon fill="midnightblue" stroke="midnightblue" points="307,-162.78 310.5,-172.78 314,-162.78 307,-162.78"/>
</g>
</g>
</svg>
