<?xml version="1.0" encoding="UTF-8" standalone="no"?>
<!DOCTYPE svg PUBLIC "-//W3C//DTD SVG 1.1//EN"
 "http://www.w3.org/Graphics/SVG/1.1/DTD/svg11.dtd">
<!-- Generated by graphviz version 2.43.0 (0)
 -->
<!-- Title: PerceptualColor::FullColorDescription::isValid Pages: 1 -->
<svg width="1116pt" height="366pt"
 viewBox="0.00 0.00 1116.00 366.12" xmlns="http://www.w3.org/2000/svg" xmlns:xlink="http://www.w3.org/1999/xlink">
<g id="graph0" class="graph" transform="scale(1 1) rotate(0) translate(4 362.12)">
<title>PerceptualColor::FullColorDescription::isValid</title>
<polygon fill="white" stroke="transparent" points="-4,4 -4,-362.12 1112,-362.12 1112,4 -4,4"/>
<!-- Node1 -->
<g id="node1" class="node">
<title>Node1</title>
<g id="a_node1"><a xlink:title=" ">
<polygon fill="#bfbfbf" stroke="black" points="965,-134.62 965,-164.62 1108,-164.62 1108,-134.62 965,-134.62"/>
<text text-anchor="start" x="973" y="-152.62" font-family="Helvetica,sans-Serif" font-size="10.00">PerceptualColor::FullColor</text>
<text text-anchor="middle" x="1036.5" y="-141.62" font-family="Helvetica,sans-Serif" font-size="10.00">Description::isValid</text>
</a>
</g>
</g>
<!-- Node2 -->
<g id="node2" class="node">
<title>Node2</title>
<g id="a_node2"><a xlink:href="class_perceptual_color_1_1_color_dialog.html#abd0da334b7034a67a3cc83bc3ed0a425" target="_top" xlink:title="Updates m_currentOpaqueColor and all affected widgets.">
<polygon fill="white" stroke="black" points="772,-134.62 772,-164.62 929,-164.62 929,-134.62 772,-134.62"/>
<text text-anchor="start" x="780" y="-152.62" font-family="Helvetica,sans-Serif" font-size="10.00">PerceptualColor::ColorDialog</text>
<text text-anchor="middle" x="850.5" y="-141.62" font-family="Helvetica,sans-Serif" font-size="10.00">::setCurrentOpaqueColor</text>
</a>
</g>
</g>
<!-- Node1&#45;&gt;Node2 -->
<g id="edge1" class="edge">
<title>Node1&#45;&gt;Node2</title>
<path fill="none" stroke="midnightblue" d="M954.68,-149.62C946.24,-149.62 937.68,-149.62 929.27,-149.62"/>
<polygon fill="midnightblue" stroke="midnightblue" points="954.89,-153.12 964.89,-149.62 954.89,-146.12 954.89,-153.12"/>
</g>
<!-- Node3 -->
<g id="node3" class="node">
<title>Node3</title>
<g id="a_node3"><a xlink:href="class_perceptual_color_1_1_color_dialog.html#ad31fb985e1323cdf1208c91f16fe2a51" target="_top" xlink:title="Basic initialization.">
<polygon fill="white" stroke="black" points="193,-163.62 193,-193.62 350,-193.62 350,-163.62 193,-163.62"/>
<text text-anchor="start" x="201" y="-181.62" font-family="Helvetica,sans-Serif" font-size="10.00">PerceptualColor::ColorDialog</text>
<text text-anchor="middle" x="271.5" y="-170.62" font-family="Helvetica,sans-Serif" font-size="10.00">::initialize</text>
</a>
</g>
</g>
<!-- Node2&#45;&gt;Node3 -->
<g id="edge2" class="edge">
<title>Node2&#45;&gt;Node3</title>
<path fill="none" stroke="midnightblue" d="M778.01,-166.69C764.14,-169.44 749.67,-171.94 736,-173.62 601.22,-190.19 442.73,-187.09 350.35,-183.05"/>
<polygon fill="midnightblue" stroke="midnightblue" points="778.88,-170.08 787.97,-164.64 777.47,-163.23 778.88,-170.08"/>
</g>
<!-- Node5 -->
<g id="node5" class="node">
<title>Node5</title>
<g id="a_node5"><a xlink:href="class_perceptual_color_1_1_color_dialog.html#adf67594f0cb9416b245d6cf726f18bf4" target="_top" xlink:title="Reads the HLC numbers in the dialog and updates the dialog accordingly.">
<polygon fill="white" stroke="black" points="579,-134.62 579,-164.62 736,-164.62 736,-134.62 579,-134.62"/>
<text text-anchor="start" x="587" y="-152.62" font-family="Helvetica,sans-Serif" font-size="10.00">PerceptualColor::ColorDialog</text>
<text text-anchor="middle" x="657.5" y="-141.62" font-family="Helvetica,sans-Serif" font-size="10.00">::readHlcNumericValues</text>
</a>
</g>
</g>
<!-- Node2&#45;&gt;Node5 -->
<g id="edge4" class="edge">
<title>Node2&#45;&gt;Node5</title>
<path fill="none" stroke="midnightblue" d="M761.81,-149.62C753.24,-149.62 744.58,-149.62 736.12,-149.62"/>
<polygon fill="midnightblue" stroke="midnightblue" points="761.81,-153.12 771.81,-149.62 761.81,-146.12 761.81,-153.12"/>
</g>
<!-- Node7 -->
<g id="node7" class="node">
<title>Node7</title>
<g id="a_node7"><a xlink:href="class_perceptual_color_1_1_color_dialog.html#a2a48f4c33652bc9a1a0cb22fd0a6b221" target="_top" xlink:title="Reads the value from the lightness selector in the dialog and updates the dialog accordingly.">
<polygon fill="white" stroke="black" points="579,-78.62 579,-108.62 736,-108.62 736,-78.62 579,-78.62"/>
<text text-anchor="start" x="587" y="-96.62" font-family="Helvetica,sans-Serif" font-size="10.00">PerceptualColor::ColorDialog</text>
<text text-anchor="middle" x="657.5" y="-85.62" font-family="Helvetica,sans-Serif" font-size="10.00">::readLightnessValue</text>
</a>
</g>
</g>
<!-- Node2&#45;&gt;Node7 -->
<g id="edge8" class="edge">
<title>Node2&#45;&gt;Node7</title>
<path fill="none" stroke="midnightblue" d="M788.44,-131.72C763.11,-124.29 734.04,-115.77 709.83,-108.67"/>
<polygon fill="midnightblue" stroke="midnightblue" points="787.73,-135.16 798.32,-134.61 789.7,-128.44 787.73,-135.16"/>
</g>
<!-- Node8 -->
<g id="node8" class="node">
<title>Node8</title>
<g id="a_node8"><a xlink:href="class_perceptual_color_1_1_color_dialog.html#a64b6c698ebfaf2461c513ebbb7ef2637" target="_top" xlink:title="Setter for currentColor property.">
<polygon fill="white" stroke="black" points="579,-15.62 579,-45.62 736,-45.62 736,-15.62 579,-15.62"/>
<text text-anchor="start" x="587" y="-33.62" font-family="Helvetica,sans-Serif" font-size="10.00">PerceptualColor::ColorDialog</text>
<text text-anchor="middle" x="657.5" y="-22.62" font-family="Helvetica,sans-Serif" font-size="10.00">::setCurrentColor</text>
</a>
</g>
</g>
<!-- Node2&#45;&gt;Node8 -->
<g id="edge10" class="edge">
<title>Node2&#45;&gt;Node8</title>
<path fill="none" stroke="midnightblue" d="M822.41,-128.36C799.93,-111.21 766.79,-86.99 736,-68.62 722.1,-60.33 706.14,-52.27 692.32,-45.72"/>
<polygon fill="midnightblue" stroke="midnightblue" points="820.41,-131.24 830.47,-134.57 824.68,-125.7 820.41,-131.24"/>
</g>
<!-- Node10 -->
<g id="node10" class="node">
<title>Node10</title>
<g id="a_node10"><a xlink:href="class_perceptual_color_1_1_color_dialog.html#acf0e7b1b619cee3fc7f5a992e2c93e7d" target="_top" xlink:title="Convenience version of setCurrentOpaqueColor(), accepting QColor.">
<polygon fill="white" stroke="black" points="579,-253.62 579,-283.62 736,-283.62 736,-253.62 579,-253.62"/>
<text text-anchor="start" x="587" y="-271.62" font-family="Helvetica,sans-Serif" font-size="10.00">PerceptualColor::ColorDialog</text>
<text text-anchor="middle" x="657.5" y="-260.62" font-family="Helvetica,sans-Serif" font-size="10.00">::setCurrentOpaqueQColor</text>
</a>
</g>
</g>
<!-- Node2&#45;&gt;Node10 -->
<g id="edge13" class="edge">
<title>Node2&#45;&gt;Node10</title>
<path fill="none" stroke="midnightblue" d="M816.64,-170.09C778.58,-193.81 716.77,-232.32 682.79,-253.48"/>
<polygon fill="midnightblue" stroke="midnightblue" points="818.67,-172.95 825.31,-164.69 814.97,-167.01 818.67,-172.95"/>
</g>
<!-- Node4 -->
<g id="node4" class="node">
<title>Node4</title>
<g id="a_node4"><a xlink:href="class_perceptual_color_1_1_color_dialog.html#a3c1ad1040ede00087aa11fab1514a6e7" target="_top" xlink:title="Constructor.">
<polygon fill="white" stroke="black" points="0,-56.62 0,-86.62 157,-86.62 157,-56.62 0,-56.62"/>
<text text-anchor="start" x="8" y="-74.62" font-family="Helvetica,sans-Serif" font-size="10.00">PerceptualColor::ColorDialog</text>
<text text-anchor="middle" x="78.5" y="-63.62" font-family="Helvetica,sans-Serif" font-size="10.00">::ColorDialog</text>
</a>
</g>
</g>
<!-- Node3&#45;&gt;Node4 -->
<g id="edge3" class="edge">
<title>Node3&#45;&gt;Node4</title>
<path fill="none" stroke="midnightblue" d="M234.52,-158.46C197.23,-137.58 139.82,-105.41 106.32,-86.65"/>
<polygon fill="midnightblue" stroke="midnightblue" points="233.1,-161.68 243.54,-163.52 236.53,-155.58 233.1,-161.68"/>
</g>
<!-- Node5&#45;&gt;Node3 -->
<g id="edge7" class="edge">
<title>Node5&#45;&gt;Node3</title>
<path fill="none" stroke="midnightblue" d="M573.87,-133.02C519.93,-124.9 448.23,-119.25 386,-131.62 355.46,-137.69 322.84,-152.13 300.44,-163.41"/>
<polygon fill="midnightblue" stroke="midnightblue" points="573.65,-136.53 584.07,-134.62 574.74,-129.61 573.65,-136.53"/>
</g>
<!-- Node6 -->
<g id="node6" class="node">
<title>Node6</title>
<g id="a_node6"><a xlink:href="class_perceptual_color_1_1_color_dialog.html#a64f6d0e30a627458ccb7bbf4a77ad42b" target="_top" xlink:title="React on focus changes.">
<polygon fill="white" stroke="black" points="386,-141.62 386,-171.62 543,-171.62 543,-141.62 386,-141.62"/>
<text text-anchor="start" x="394" y="-159.62" font-family="Helvetica,sans-Serif" font-size="10.00">PerceptualColor::ColorDialog</text>
<text text-anchor="middle" x="464.5" y="-148.62" font-family="Helvetica,sans-Serif" font-size="10.00">::handleFocusChange</text>
</a>
</g>
</g>
<!-- Node5&#45;&gt;Node6 -->
<g id="edge5" class="edge">
<title>Node5&#45;&gt;Node6</title>
<path fill="none" stroke="midnightblue" d="M568.81,-152.83C560.24,-153.15 551.58,-153.47 543.12,-153.78"/>
<polygon fill="midnightblue" stroke="midnightblue" points="568.95,-156.33 578.81,-152.47 568.69,-149.34 568.95,-156.33"/>
</g>
<!-- Node6&#45;&gt;Node3 -->
<g id="edge6" class="edge">
<title>Node6&#45;&gt;Node3</title>
<path fill="none" stroke="midnightblue" d="M375.81,-166.72C367.24,-167.71 358.58,-168.71 350.12,-169.68"/>
<polygon fill="midnightblue" stroke="midnightblue" points="376.28,-170.19 385.81,-165.57 375.48,-163.24 376.28,-170.19"/>
</g>
<!-- Node7&#45;&gt;Node3 -->
<g id="edge9" class="edge">
<title>Node7&#45;&gt;Node3</title>
<path fill="none" stroke="midnightblue" d="M568.78,-94.16C515.06,-96.49 445.45,-103.14 386,-120.62 352.88,-130.36 317.98,-149.77 295.77,-163.44"/>
<polygon fill="midnightblue" stroke="midnightblue" points="569.11,-97.65 578.97,-93.76 568.84,-90.65 569.11,-97.65"/>
</g>
<!-- Node8&#45;&gt;Node4 -->
<g id="edge11" class="edge">
<title>Node8&#45;&gt;Node4</title>
<path fill="none" stroke="midnightblue" d="M589.85,-13.42C574.56,-10.18 558.3,-7.29 543,-5.62 473.63,1.93 455.39,1.76 386,-5.62 295.88,-15.21 193.33,-40.25 132.65,-56.58"/>
<polygon fill="midnightblue" stroke="midnightblue" points="589.22,-16.87 599.74,-15.59 590.73,-10.03 589.22,-16.87"/>
</g>
<!-- Node9 -->
<g id="node9" class="node">
<title>Node9</title>
<g id="a_node9"><a xlink:href="class_perceptual_color_1_1_color_dialog.html#a08677555088721a366cc839a90b5eea2" target="_top" xlink:title="Pops up a modal color dialog, lets the user choose a color, and returns that color.">
<polygon fill="white" stroke="black" points="386,-15.62 386,-45.62 543,-45.62 543,-15.62 386,-15.62"/>
<text text-anchor="start" x="394" y="-33.62" font-family="Helvetica,sans-Serif" font-size="10.00">PerceptualColor::ColorDialog</text>
<text text-anchor="middle" x="464.5" y="-22.62" font-family="Helvetica,sans-Serif" font-size="10.00">::getColor</text>
</a>
</g>
</g>
<!-- Node8&#45;&gt;Node9 -->
<g id="edge12" class="edge">
<title>Node8&#45;&gt;Node9</title>
<path fill="none" stroke="midnightblue" d="M568.81,-30.62C560.24,-30.62 551.58,-30.62 543.12,-30.62"/>
<polygon fill="midnightblue" stroke="midnightblue" points="568.81,-34.12 578.81,-30.62 568.81,-27.12 568.81,-34.12"/>
</g>
<!-- Node11 -->
<g id="node11" class="node">
<title>Node11</title>
<g id="a_node11"><a xlink:href="class_perceptual_color_1_1_color_dialog.html#ad834c4b1975dd4b226a054497bd1ef47" target="_top" xlink:title="Reads the HSV numbers in the dialog and updates the dialog accordingly.">
<polygon fill="white" stroke="black" points="386,-229.62 386,-259.62 543,-259.62 543,-229.62 386,-229.62"/>
<text text-anchor="start" x="394" y="-247.62" font-family="Helvetica,sans-Serif" font-size="10.00">PerceptualColor::ColorDialog</text>
<text text-anchor="middle" x="464.5" y="-236.62" font-family="Helvetica,sans-Serif" font-size="10.00">::readHsvNumericValues</text>
</a>
</g>
</g>
<!-- Node10&#45;&gt;Node11 -->
<g id="edge14" class="edge">
<title>Node10&#45;&gt;Node11</title>
<path fill="none" stroke="midnightblue" d="M568.81,-257.6C560.24,-256.52 551.58,-255.44 543.12,-254.37"/>
<polygon fill="midnightblue" stroke="midnightblue" points="568.45,-261.09 578.81,-258.86 569.33,-254.14 568.45,-261.09"/>
</g>
<!-- Node12 -->
<g id="node12" class="node">
<title>Node12</title>
<g id="a_node12"><a xlink:href="class_perceptual_color_1_1_color_dialog.html#a4554999f424ac055986478fe8c899ae1" target="_top" xlink:title="Reads the hexadecimal RGB numbers in the dialog and updates the dialog accordingly.">
<polygon fill="white" stroke="black" points="386,-327.62 386,-357.62 543,-357.62 543,-327.62 386,-327.62"/>
<text text-anchor="start" x="394" y="-345.62" font-family="Helvetica,sans-Serif" font-size="10.00">PerceptualColor::ColorDialog</text>
<text text-anchor="middle" x="464.5" y="-334.62" font-family="Helvetica,sans-Serif" font-size="10.00">::readRgbHexValues</text>
</a>
</g>
</g>
<!-- Node10&#45;&gt;Node12 -->
<g id="edge16" class="edge">
<title>Node10&#45;&gt;Node12</title>
<path fill="none" stroke="midnightblue" d="M615.5,-288.04C594.13,-297.82 567.42,-309.49 543,-318.62 534.69,-321.73 525.77,-324.76 517.06,-327.56"/>
<polygon fill="midnightblue" stroke="midnightblue" points="617,-291.21 624.62,-283.84 614.07,-284.85 617,-291.21"/>
</g>
<!-- Node13 -->
<g id="node13" class="node">
<title>Node13</title>
<g id="a_node13"><a xlink:href="class_perceptual_color_1_1_color_dialog.html#a9bb8f87d25714fc283fdda98424030fe" target="_top" xlink:title="Reads the decimal RGB numbers in the dialog and updates the dialog accordingly.">
<polygon fill="white" stroke="black" points="386,-278.62 386,-308.62 543,-308.62 543,-278.62 386,-278.62"/>
<text text-anchor="start" x="394" y="-296.62" font-family="Helvetica,sans-Serif" font-size="10.00">PerceptualColor::ColorDialog</text>
<text text-anchor="middle" x="464.5" y="-285.62" font-family="Helvetica,sans-Serif" font-size="10.00">::readRgbNumericValues</text>
</a>
</g>
</g>
<!-- Node10&#45;&gt;Node13 -->
<g id="edge18" class="edge">
<title>Node10&#45;&gt;Node13</title>
<path fill="none" stroke="midnightblue" d="M568.81,-280.1C560.24,-281.22 551.58,-282.35 543.12,-283.46"/>
<polygon fill="midnightblue" stroke="midnightblue" points="569.35,-283.56 578.81,-278.79 568.44,-276.62 569.35,-283.56"/>
</g>
<!-- Node11&#45;&gt;Node3 -->
<g id="edge15" class="edge">
<title>Node11&#45;&gt;Node3</title>
<path fill="none" stroke="midnightblue" d="M409.92,-226.11C380.3,-215.87 343.98,-203.32 316.12,-193.69"/>
<polygon fill="midnightblue" stroke="midnightblue" points="409.09,-229.52 419.68,-229.48 411.37,-222.91 409.09,-229.52"/>
</g>
<!-- Node12&#45;&gt;Node3 -->
<g id="edge17" class="edge">
<title>Node12&#45;&gt;Node3</title>
<path fill="none" stroke="midnightblue" d="M393.1,-322.96C390.65,-321.6 388.27,-320.16 386,-318.62 335.99,-284.78 296.87,-222.39 280.65,-193.73"/>
<polygon fill="midnightblue" stroke="midnightblue" points="391.73,-326.18 402.24,-327.47 394.83,-319.91 391.73,-326.18"/>
</g>
<!-- Node13&#45;&gt;Node3 -->
<g id="edge19" class="edge">
<title>Node13&#45;&gt;Node3</title>
<path fill="none" stroke="midnightblue" d="M396.82,-274.8C393.1,-273.19 389.47,-271.46 386,-269.62 346.96,-248.9 308.26,-213.98 287.67,-193.96"/>
<polygon fill="midnightblue" stroke="midnightblue" points="395.62,-278.09 406.21,-278.58 398.24,-271.6 395.62,-278.09"/>
</g>
</g>
</svg>
