<?xml version="1.0" encoding="UTF-8" standalone="no"?>
<!DOCTYPE svg PUBLIC "-//W3C//DTD SVG 1.1//EN"
 "http://www.w3.org/Graphics/SVG/1.1/DTD/svg11.dtd">
<!-- Generated by graphviz version 2.43.0 (0)
 -->
<!-- Title: PerceptualColor::ChromaLightnessDiagram::setColor Pages: 1 -->
<svg width="1407pt" height="484pt"
 viewBox="0.00 0.00 1407.00 484.00" xmlns="http://www.w3.org/2000/svg" xmlns:xlink="http://www.w3.org/1999/xlink">
<g id="graph0" class="graph" transform="scale(1 1) rotate(0) translate(4 480)">
<title>PerceptualColor::ChromaLightnessDiagram::setColor</title>
<polygon fill="white" stroke="transparent" points="-4,4 -4,-480 1403,-480 1403,4 -4,4"/>
<!-- Node1 -->
<g id="node1" class="node">
<title>Node1</title>
<g id="a_node1"><a xlink:title="Setter for the color() property.">
<polygon fill="#bfbfbf" stroke="black" points="1214,-196.5 1214,-226.5 1399,-226.5 1399,-196.5 1214,-196.5"/>
<text text-anchor="start" x="1222" y="-214.5" font-family="Helvetica,sans-Serif" font-size="10.00">PerceptualColor::ChromaLightness</text>
<text text-anchor="middle" x="1306.5" y="-203.5" font-family="Helvetica,sans-Serif" font-size="10.00">Diagram::setColor</text>
</a>
</g>
</g>
<!-- Node2 -->
<g id="node2" class="node">
<title>Node2</title>
<g id="a_node2"><a xlink:href="class_perceptual_color_1_1_wheel_color_picker.html#a5f3a58bb672323221c98c2285404bf76" target="_top" xlink:title="Setter for currentColorRgb() property.">
<polygon fill="white" stroke="black" points="1007.5,-245.5 1007.5,-275.5 1163.5,-275.5 1163.5,-245.5 1007.5,-245.5"/>
<text text-anchor="start" x="1015.5" y="-263.5" font-family="Helvetica,sans-Serif" font-size="10.00">PerceptualColor::WheelColor</text>
<text text-anchor="middle" x="1085.5" y="-252.5" font-family="Helvetica,sans-Serif" font-size="10.00">Picker::setCurrentColor</text>
</a>
</g>
</g>
<!-- Node1&#45;&gt;Node2 -->
<g id="edge1" class="edge">
<title>Node1&#45;&gt;Node2</title>
<path fill="none" stroke="midnightblue" d="M1228.37,-228.76C1203.96,-234.22 1177.21,-240.21 1153.57,-245.49"/>
<polygon fill="midnightblue" stroke="midnightblue" points="1229.31,-232.13 1238.3,-226.53 1227.78,-225.3 1229.31,-232.13"/>
</g>
<!-- Node15 -->
<g id="node15" class="node">
<title>Node15</title>
<g id="a_node15"><a xlink:href="class_perceptual_color_1_1_chroma_lightness_diagram.html#ab46f7c4b9bb12ba3511c29372a25c9f8" target="_top" xlink:title="Set the hue.">
<polygon fill="white" stroke="black" points="993,-196.5 993,-226.5 1178,-226.5 1178,-196.5 993,-196.5"/>
<text text-anchor="start" x="1001" y="-214.5" font-family="Helvetica,sans-Serif" font-size="10.00">PerceptualColor::ChromaLightness</text>
<text text-anchor="middle" x="1085.5" y="-203.5" font-family="Helvetica,sans-Serif" font-size="10.00">Diagram::setHue</text>
</a>
</g>
</g>
<!-- Node1&#45;&gt;Node15 -->
<g id="edge21" class="edge">
<title>Node1&#45;&gt;Node15</title>
<path fill="none" stroke="midnightblue" d="M1203.85,-211.5C1195.26,-211.5 1186.6,-211.5 1178.09,-211.5"/>
<polygon fill="midnightblue" stroke="midnightblue" points="1203.89,-215 1213.89,-211.5 1203.89,-208 1203.89,-215"/>
</g>
<!-- Node17 -->
<g id="node17" class="node">
<title>Node17</title>
<g id="a_node17"><a xlink:href="class_perceptual_color_1_1_chroma_lightness_diagram.html#ac9b6d25ecc2c6a954f1ba361960458b1" target="_top" xlink:title=" ">
<polygon fill="white" stroke="black" points="993,-98.5 993,-128.5 1178,-128.5 1178,-98.5 993,-98.5"/>
<text text-anchor="start" x="1001" y="-116.5" font-family="Helvetica,sans-Serif" font-size="10.00">PerceptualColor::ChromaLightness</text>
<text text-anchor="middle" x="1085.5" y="-105.5" font-family="Helvetica,sans-Serif" font-size="10.00">Diagram::setImageCoordinates</text>
</a>
</g>
</g>
<!-- Node1&#45;&gt;Node17 -->
<g id="edge23" class="edge">
<title>Node1&#45;&gt;Node17</title>
<path fill="none" stroke="midnightblue" d="M1262.42,-192.22C1220.76,-173.58 1158.47,-145.71 1120.28,-128.61"/>
<polygon fill="midnightblue" stroke="midnightblue" points="1261.2,-195.51 1271.76,-196.4 1264.06,-189.12 1261.2,-195.51"/>
</g>
<!-- Node3 -->
<g id="node3" class="node">
<title>Node3</title>
<g id="a_node3"><a xlink:href="class_perceptual_color_1_1_color_dialog.html#abd0da334b7034a67a3cc83bc3ed0a425" target="_top" xlink:title="Updates m_currentOpaqueColor and all affected widgets.">
<polygon fill="white" stroke="black" points="786,-245.5 786,-275.5 943,-275.5 943,-245.5 786,-245.5"/>
<text text-anchor="start" x="794" y="-263.5" font-family="Helvetica,sans-Serif" font-size="10.00">PerceptualColor::ColorDialog</text>
<text text-anchor="middle" x="864.5" y="-252.5" font-family="Helvetica,sans-Serif" font-size="10.00">::setCurrentOpaqueColor</text>
</a>
</g>
</g>
<!-- Node2&#45;&gt;Node3 -->
<g id="edge2" class="edge">
<title>Node2&#45;&gt;Node3</title>
<path fill="none" stroke="midnightblue" d="M996.92,-260.5C979.13,-260.5 960.54,-260.5 943.12,-260.5"/>
<polygon fill="midnightblue" stroke="midnightblue" points="997.29,-264 1007.29,-260.5 997.29,-257 997.29,-264"/>
</g>
<!-- Node4 -->
<g id="node4" class="node">
<title>Node4</title>
<g id="a_node4"><a xlink:href="class_perceptual_color_1_1_color_dialog.html#ad31fb985e1323cdf1208c91f16fe2a51" target="_top" xlink:title="Basic initialization.">
<polygon fill="white" stroke="black" points="193,-281.5 193,-311.5 350,-311.5 350,-281.5 193,-281.5"/>
<text text-anchor="start" x="201" y="-299.5" font-family="Helvetica,sans-Serif" font-size="10.00">PerceptualColor::ColorDialog</text>
<text text-anchor="middle" x="271.5" y="-288.5" font-family="Helvetica,sans-Serif" font-size="10.00">::initialize</text>
</a>
</g>
</g>
<!-- Node3&#45;&gt;Node4 -->
<g id="edge3" class="edge">
<title>Node3&#45;&gt;Node4</title>
<path fill="none" stroke="midnightblue" d="M785,-277.44C768.85,-280.49 751.92,-283.37 736,-285.5 601.37,-303.51 442.83,-302.56 350.4,-299.82"/>
<polygon fill="midnightblue" stroke="midnightblue" points="785.78,-280.86 794.94,-275.53 784.45,-273.98 785.78,-280.86"/>
</g>
<!-- Node6 -->
<g id="node6" class="node">
<title>Node6</title>
<g id="a_node6"><a xlink:href="class_perceptual_color_1_1_color_dialog.html#adf67594f0cb9416b245d6cf726f18bf4" target="_top" xlink:title="Reads the HLC numbers in the dialog and updates the dialog accordingly.">
<polygon fill="white" stroke="black" points="579,-245.5 579,-275.5 736,-275.5 736,-245.5 579,-245.5"/>
<text text-anchor="start" x="587" y="-263.5" font-family="Helvetica,sans-Serif" font-size="10.00">PerceptualColor::ColorDialog</text>
<text text-anchor="middle" x="657.5" y="-252.5" font-family="Helvetica,sans-Serif" font-size="10.00">::readHlcNumericValues</text>
</a>
</g>
</g>
<!-- Node3&#45;&gt;Node6 -->
<g id="edge5" class="edge">
<title>Node3&#45;&gt;Node6</title>
<path fill="none" stroke="midnightblue" d="M775.95,-260.5C762.71,-260.5 749.13,-260.5 736.11,-260.5"/>
<polygon fill="midnightblue" stroke="midnightblue" points="776,-264 786,-260.5 776,-257 776,-264"/>
</g>
<!-- Node8 -->
<g id="node8" class="node">
<title>Node8</title>
<g id="a_node8"><a xlink:href="class_perceptual_color_1_1_color_dialog.html#a2a48f4c33652bc9a1a0cb22fd0a6b221" target="_top" xlink:title="Reads the value from the lightness selector in the dialog and updates the dialog accordingly.">
<polygon fill="white" stroke="black" points="579,-189.5 579,-219.5 736,-219.5 736,-189.5 579,-189.5"/>
<text text-anchor="start" x="587" y="-207.5" font-family="Helvetica,sans-Serif" font-size="10.00">PerceptualColor::ColorDialog</text>
<text text-anchor="middle" x="657.5" y="-196.5" font-family="Helvetica,sans-Serif" font-size="10.00">::readLightnessValue</text>
</a>
</g>
</g>
<!-- Node3&#45;&gt;Node8 -->
<g id="edge9" class="edge">
<title>Node3&#45;&gt;Node8</title>
<path fill="none" stroke="midnightblue" d="M795.68,-242.86C787.69,-240.74 779.66,-238.58 772,-236.5 752.05,-231.07 730.17,-224.94 711,-219.52"/>
<polygon fill="midnightblue" stroke="midnightblue" points="794.81,-246.25 805.37,-245.42 796.6,-239.48 794.81,-246.25"/>
</g>
<!-- Node9 -->
<g id="node9" class="node">
<title>Node9</title>
<g id="a_node9"><a xlink:href="class_perceptual_color_1_1_color_dialog.html#a64b6c698ebfaf2461c513ebbb7ef2637" target="_top" xlink:title="Setter for currentColor property.">
<polygon fill="white" stroke="black" points="579,-133.5 579,-163.5 736,-163.5 736,-133.5 579,-133.5"/>
<text text-anchor="start" x="587" y="-151.5" font-family="Helvetica,sans-Serif" font-size="10.00">PerceptualColor::ColorDialog</text>
<text text-anchor="middle" x="657.5" y="-140.5" font-family="Helvetica,sans-Serif" font-size="10.00">::setCurrentColor</text>
</a>
</g>
</g>
<!-- Node3&#45;&gt;Node9 -->
<g id="edge11" class="edge">
<title>Node3&#45;&gt;Node9</title>
<path fill="none" stroke="midnightblue" d="M778.53,-240.78C776.27,-239.44 774.09,-238.02 772,-236.5 748.06,-219.12 758.72,-199.46 736,-180.5 727.73,-173.6 717.77,-168.01 707.78,-163.56"/>
<polygon fill="midnightblue" stroke="midnightblue" points="777.04,-243.95 787.52,-245.49 780.28,-237.75 777.04,-243.95"/>
</g>
<!-- Node11 -->
<g id="node11" class="node">
<title>Node11</title>
<g id="a_node11"><a xlink:href="class_perceptual_color_1_1_color_dialog.html#acf0e7b1b619cee3fc7f5a992e2c93e7d" target="_top" xlink:title="Convenience version of setCurrentOpaqueColor(), accepting QColor.">
<polygon fill="white" stroke="black" points="579,-371.5 579,-401.5 736,-401.5 736,-371.5 579,-371.5"/>
<text text-anchor="start" x="587" y="-389.5" font-family="Helvetica,sans-Serif" font-size="10.00">PerceptualColor::ColorDialog</text>
<text text-anchor="middle" x="657.5" y="-378.5" font-family="Helvetica,sans-Serif" font-size="10.00">::setCurrentOpaqueQColor</text>
</a>
</g>
</g>
<!-- Node3&#45;&gt;Node11 -->
<g id="edge14" class="edge">
<title>Node3&#45;&gt;Node11</title>
<path fill="none" stroke="midnightblue" d="M830.17,-280.99C788.92,-306.34 719.67,-348.9 683,-371.44"/>
<polygon fill="midnightblue" stroke="midnightblue" points="832.09,-283.92 838.77,-275.7 828.42,-277.95 832.09,-283.92"/>
</g>
<!-- Node5 -->
<g id="node5" class="node">
<title>Node5</title>
<g id="a_node5"><a xlink:href="class_perceptual_color_1_1_color_dialog.html#a3c1ad1040ede00087aa11fab1514a6e7" target="_top" xlink:title="Constructor.">
<polygon fill="white" stroke="black" points="0,-174.5 0,-204.5 157,-204.5 157,-174.5 0,-174.5"/>
<text text-anchor="start" x="8" y="-192.5" font-family="Helvetica,sans-Serif" font-size="10.00">PerceptualColor::ColorDialog</text>
<text text-anchor="middle" x="78.5" y="-181.5" font-family="Helvetica,sans-Serif" font-size="10.00">::ColorDialog</text>
</a>
</g>
</g>
<!-- Node4&#45;&gt;Node5 -->
<g id="edge4" class="edge">
<title>Node4&#45;&gt;Node5</title>
<path fill="none" stroke="midnightblue" d="M234.52,-276.34C197.23,-255.46 139.82,-223.29 106.32,-204.53"/>
<polygon fill="midnightblue" stroke="midnightblue" points="233.1,-279.56 243.54,-281.4 236.53,-273.46 233.1,-279.56"/>
</g>
<!-- Node6&#45;&gt;Node4 -->
<g id="edge8" class="edge">
<title>Node6&#45;&gt;Node4</title>
<path fill="none" stroke="midnightblue" d="M568.71,-247.2C515.4,-241.6 446.23,-238.76 386,-250.5 355.74,-256.4 323.35,-270.37 300.94,-281.38"/>
<polygon fill="midnightblue" stroke="midnightblue" points="568.49,-250.69 578.82,-248.31 569.26,-243.74 568.49,-250.69"/>
</g>
<!-- Node7 -->
<g id="node7" class="node">
<title>Node7</title>
<g id="a_node7"><a xlink:href="class_perceptual_color_1_1_color_dialog.html#a64f6d0e30a627458ccb7bbf4a77ad42b" target="_top" xlink:title="React on focus changes.">
<polygon fill="white" stroke="black" points="386,-259.5 386,-289.5 543,-289.5 543,-259.5 386,-259.5"/>
<text text-anchor="start" x="394" y="-277.5" font-family="Helvetica,sans-Serif" font-size="10.00">PerceptualColor::ColorDialog</text>
<text text-anchor="middle" x="464.5" y="-266.5" font-family="Helvetica,sans-Serif" font-size="10.00">::handleFocusChange</text>
</a>
</g>
</g>
<!-- Node6&#45;&gt;Node7 -->
<g id="edge6" class="edge">
<title>Node6&#45;&gt;Node7</title>
<path fill="none" stroke="midnightblue" d="M568.81,-266.93C560.24,-267.56 551.58,-268.19 543.12,-268.81"/>
<polygon fill="midnightblue" stroke="midnightblue" points="569.1,-270.42 578.81,-266.19 568.58,-263.43 569.1,-270.42"/>
</g>
<!-- Node7&#45;&gt;Node4 -->
<g id="edge7" class="edge">
<title>Node7&#45;&gt;Node4</title>
<path fill="none" stroke="midnightblue" d="M375.81,-284.6C367.24,-285.59 358.58,-286.59 350.12,-287.56"/>
<polygon fill="midnightblue" stroke="midnightblue" points="376.28,-288.07 385.81,-283.45 375.48,-281.12 376.28,-288.07"/>
</g>
<!-- Node8&#45;&gt;Node4 -->
<g id="edge10" class="edge">
<title>Node8&#45;&gt;Node4</title>
<path fill="none" stroke="midnightblue" d="M568.7,-207.28C514.95,-210.91 445.33,-219.12 386,-237.5 352.69,-247.82 317.55,-267.67 295.35,-281.48"/>
<polygon fill="midnightblue" stroke="midnightblue" points="569.13,-210.76 578.89,-206.63 568.69,-203.77 569.13,-210.76"/>
</g>
<!-- Node9&#45;&gt;Node5 -->
<g id="edge12" class="edge">
<title>Node9&#45;&gt;Node5</title>
<path fill="none" stroke="midnightblue" d="M589.85,-131.3C574.56,-128.06 558.3,-125.17 543,-123.5 473.63,-115.95 455.39,-116.11 386,-123.5 295.88,-133.09 193.33,-158.13 132.65,-174.46"/>
<polygon fill="midnightblue" stroke="midnightblue" points="589.22,-134.74 599.74,-133.47 590.73,-127.91 589.22,-134.74"/>
</g>
<!-- Node10 -->
<g id="node10" class="node">
<title>Node10</title>
<g id="a_node10"><a xlink:href="class_perceptual_color_1_1_color_dialog.html#a08677555088721a366cc839a90b5eea2" target="_top" xlink:title="Pops up a modal color dialog, lets the user choose a color, and returns that color.">
<polygon fill="white" stroke="black" points="386,-133.5 386,-163.5 543,-163.5 543,-133.5 386,-133.5"/>
<text text-anchor="start" x="394" y="-151.5" font-family="Helvetica,sans-Serif" font-size="10.00">PerceptualColor::ColorDialog</text>
<text text-anchor="middle" x="464.5" y="-140.5" font-family="Helvetica,sans-Serif" font-size="10.00">::getColor</text>
</a>
</g>
</g>
<!-- Node9&#45;&gt;Node10 -->
<g id="edge13" class="edge">
<title>Node9&#45;&gt;Node10</title>
<path fill="none" stroke="midnightblue" d="M568.81,-148.5C560.24,-148.5 551.58,-148.5 543.12,-148.5"/>
<polygon fill="midnightblue" stroke="midnightblue" points="568.81,-152 578.81,-148.5 568.81,-145 568.81,-152"/>
</g>
<!-- Node12 -->
<g id="node12" class="node">
<title>Node12</title>
<g id="a_node12"><a xlink:href="class_perceptual_color_1_1_color_dialog.html#ad834c4b1975dd4b226a054497bd1ef47" target="_top" xlink:title="Reads the HSV numbers in the dialog and updates the dialog accordingly.">
<polygon fill="white" stroke="black" points="386,-347.5 386,-377.5 543,-377.5 543,-347.5 386,-347.5"/>
<text text-anchor="start" x="394" y="-365.5" font-family="Helvetica,sans-Serif" font-size="10.00">PerceptualColor::ColorDialog</text>
<text text-anchor="middle" x="464.5" y="-354.5" font-family="Helvetica,sans-Serif" font-size="10.00">::readHsvNumericValues</text>
</a>
</g>
</g>
<!-- Node11&#45;&gt;Node12 -->
<g id="edge15" class="edge">
<title>Node11&#45;&gt;Node12</title>
<path fill="none" stroke="midnightblue" d="M568.81,-375.48C560.24,-374.4 551.58,-373.32 543.12,-372.25"/>
<polygon fill="midnightblue" stroke="midnightblue" points="568.45,-378.96 578.81,-376.74 569.33,-372.02 568.45,-378.96"/>
</g>
<!-- Node13 -->
<g id="node13" class="node">
<title>Node13</title>
<g id="a_node13"><a xlink:href="class_perceptual_color_1_1_color_dialog.html#a4554999f424ac055986478fe8c899ae1" target="_top" xlink:title="Reads the hexadecimal RGB numbers in the dialog and updates the dialog accordingly.">
<polygon fill="white" stroke="black" points="386,-445.5 386,-475.5 543,-475.5 543,-445.5 386,-445.5"/>
<text text-anchor="start" x="394" y="-463.5" font-family="Helvetica,sans-Serif" font-size="10.00">PerceptualColor::ColorDialog</text>
<text text-anchor="middle" x="464.5" y="-452.5" font-family="Helvetica,sans-Serif" font-size="10.00">::readRgbHexValues</text>
</a>
</g>
</g>
<!-- Node11&#45;&gt;Node13 -->
<g id="edge17" class="edge">
<title>Node11&#45;&gt;Node13</title>
<path fill="none" stroke="midnightblue" d="M615.5,-405.92C594.13,-415.69 567.42,-427.37 543,-436.5 534.69,-439.61 525.77,-442.64 517.06,-445.44"/>
<polygon fill="midnightblue" stroke="midnightblue" points="617,-409.08 624.62,-401.72 614.07,-402.73 617,-409.08"/>
</g>
<!-- Node14 -->
<g id="node14" class="node">
<title>Node14</title>
<g id="a_node14"><a xlink:href="class_perceptual_color_1_1_color_dialog.html#a9bb8f87d25714fc283fdda98424030fe" target="_top" xlink:title="Reads the decimal RGB numbers in the dialog and updates the dialog accordingly.">
<polygon fill="white" stroke="black" points="386,-396.5 386,-426.5 543,-426.5 543,-396.5 386,-396.5"/>
<text text-anchor="start" x="394" y="-414.5" font-family="Helvetica,sans-Serif" font-size="10.00">PerceptualColor::ColorDialog</text>
<text text-anchor="middle" x="464.5" y="-403.5" font-family="Helvetica,sans-Serif" font-size="10.00">::readRgbNumericValues</text>
</a>
</g>
</g>
<!-- Node11&#45;&gt;Node14 -->
<g id="edge19" class="edge">
<title>Node11&#45;&gt;Node14</title>
<path fill="none" stroke="midnightblue" d="M568.81,-397.98C560.24,-399.1 551.58,-400.23 543.12,-401.34"/>
<polygon fill="midnightblue" stroke="midnightblue" points="569.35,-401.44 578.81,-396.67 568.44,-394.5 569.35,-401.44"/>
</g>
<!-- Node12&#45;&gt;Node4 -->
<g id="edge16" class="edge">
<title>Node12&#45;&gt;Node4</title>
<path fill="none" stroke="midnightblue" d="M409.92,-343.98C380.3,-333.75 343.98,-321.2 316.12,-311.57"/>
<polygon fill="midnightblue" stroke="midnightblue" points="409.09,-347.4 419.68,-347.36 411.37,-340.78 409.09,-347.4"/>
</g>
<!-- Node13&#45;&gt;Node4 -->
<g id="edge18" class="edge">
<title>Node13&#45;&gt;Node4</title>
<path fill="none" stroke="midnightblue" d="M393.1,-440.83C390.65,-439.48 388.27,-438.04 386,-436.5 335.99,-402.65 296.87,-340.27 280.65,-311.61"/>
<polygon fill="midnightblue" stroke="midnightblue" points="391.73,-444.06 402.24,-445.35 394.83,-437.79 391.73,-444.06"/>
</g>
<!-- Node14&#45;&gt;Node4 -->
<g id="edge20" class="edge">
<title>Node14&#45;&gt;Node4</title>
<path fill="none" stroke="midnightblue" d="M396.82,-392.68C393.1,-391.07 389.47,-389.34 386,-387.5 346.96,-366.77 308.26,-331.86 287.67,-311.84"/>
<polygon fill="midnightblue" stroke="midnightblue" points="395.62,-395.97 406.21,-396.46 398.24,-389.48 395.62,-395.97"/>
</g>
<!-- Node16 -->
<g id="node16" class="node">
<title>Node16</title>
<g id="a_node16"><a xlink:href="class_perceptual_color_1_1_wheel_color_picker.html#a44595e05acd7bf6ad716242f987507da" target="_top" xlink:title="Constructor.">
<polygon fill="white" stroke="black" points="786.5,-196.5 786.5,-226.5 942.5,-226.5 942.5,-196.5 786.5,-196.5"/>
<text text-anchor="start" x="794.5" y="-214.5" font-family="Helvetica,sans-Serif" font-size="10.00">PerceptualColor::WheelColor</text>
<text text-anchor="middle" x="864.5" y="-203.5" font-family="Helvetica,sans-Serif" font-size="10.00">Picker::WheelColorPicker</text>
</a>
</g>
</g>
<!-- Node15&#45;&gt;Node16 -->
<g id="edge22" class="edge">
<title>Node15&#45;&gt;Node16</title>
<path fill="none" stroke="midnightblue" d="M982.62,-211.5C969.13,-211.5 955.49,-211.5 942.51,-211.5"/>
<polygon fill="midnightblue" stroke="midnightblue" points="982.89,-215 992.89,-211.5 982.89,-208 982.89,-215"/>
</g>
<!-- Node18 -->
<g id="node18" class="node">
<title>Node18</title>
<g id="a_node18"><a xlink:href="class_perceptual_color_1_1_chroma_lightness_diagram.html#abd23775803f181201fefbdcc08378ab8" target="_top" xlink:title="React on key press events.">
<polygon fill="white" stroke="black" points="772,-49.5 772,-79.5 957,-79.5 957,-49.5 772,-49.5"/>
<text text-anchor="start" x="780" y="-67.5" font-family="Helvetica,sans-Serif" font-size="10.00">PerceptualColor::ChromaLightness</text>
<text text-anchor="middle" x="864.5" y="-56.5" font-family="Helvetica,sans-Serif" font-size="10.00">Diagram::keyPressEvent</text>
</a>
</g>
</g>
<!-- Node17&#45;&gt;Node18 -->
<g id="edge24" class="edge">
<title>Node17&#45;&gt;Node18</title>
<path fill="none" stroke="midnightblue" d="M1007.37,-96.24C982.96,-90.78 956.21,-84.79 932.57,-79.51"/>
<polygon fill="midnightblue" stroke="midnightblue" points="1006.78,-99.7 1017.3,-98.47 1008.31,-92.87 1006.78,-99.7"/>
</g>
<!-- Node19 -->
<g id="node19" class="node">
<title>Node19</title>
<g id="a_node19"><a xlink:href="class_perceptual_color_1_1_chroma_lightness_diagram.html#a1697a065cdb13e6a5b8af378673c77f3" target="_top" xlink:title="React on a mouse move event.">
<polygon fill="white" stroke="black" points="772,-0.5 772,-30.5 957,-30.5 957,-0.5 772,-0.5"/>
<text text-anchor="start" x="780" y="-18.5" font-family="Helvetica,sans-Serif" font-size="10.00">PerceptualColor::ChromaLightness</text>
<text text-anchor="middle" x="864.5" y="-7.5" font-family="Helvetica,sans-Serif" font-size="10.00">Diagram::mouseMoveEvent</text>
</a>
</g>
</g>
<!-- Node17&#45;&gt;Node19 -->
<g id="edge25" class="edge">
<title>Node17&#45;&gt;Node19</title>
<path fill="none" stroke="midnightblue" d="M1054.52,-92.98C1029.41,-76.57 992.13,-53.99 957,-39.5 948.95,-36.18 940.32,-33.21 931.68,-30.58"/>
<polygon fill="midnightblue" stroke="midnightblue" points="1052.6,-95.9 1062.87,-98.5 1056.46,-90.06 1052.6,-95.9"/>
</g>
<!-- Node20 -->
<g id="node20" class="node">
<title>Node20</title>
<g id="a_node20"><a xlink:href="class_perceptual_color_1_1_chroma_lightness_diagram.html#aa0aa6d31cefd3b9dfbfe9acfcac18e3d" target="_top" xlink:title="React on a mouse press event.">
<polygon fill="white" stroke="black" points="772,-147.5 772,-177.5 957,-177.5 957,-147.5 772,-147.5"/>
<text text-anchor="start" x="780" y="-165.5" font-family="Helvetica,sans-Serif" font-size="10.00">PerceptualColor::ChromaLightness</text>
<text text-anchor="middle" x="864.5" y="-154.5" font-family="Helvetica,sans-Serif" font-size="10.00">Diagram::mousePressEvent</text>
</a>
</g>
</g>
<!-- Node17&#45;&gt;Node20 -->
<g id="edge26" class="edge">
<title>Node17&#45;&gt;Node20</title>
<path fill="none" stroke="midnightblue" d="M1007.37,-130.76C982.96,-136.22 956.21,-142.21 932.57,-147.49"/>
<polygon fill="midnightblue" stroke="midnightblue" points="1008.31,-134.13 1017.3,-128.53 1006.78,-127.3 1008.31,-134.13"/>
</g>
<!-- Node21 -->
<g id="node21" class="node">
<title>Node21</title>
<g id="a_node21"><a xlink:href="class_perceptual_color_1_1_chroma_lightness_diagram.html#a9bd534e0817d1afb0a3674f98919b8db" target="_top" xlink:title="React on a mouse release event.">
<polygon fill="white" stroke="black" points="772,-98.5 772,-128.5 957,-128.5 957,-98.5 772,-98.5"/>
<text text-anchor="start" x="780" y="-116.5" font-family="Helvetica,sans-Serif" font-size="10.00">PerceptualColor::ChromaLightness</text>
<text text-anchor="middle" x="864.5" y="-105.5" font-family="Helvetica,sans-Serif" font-size="10.00">Diagram::mouseReleaseEvent</text>
</a>
</g>
</g>
<!-- Node17&#45;&gt;Node21 -->
<g id="edge27" class="edge">
<title>Node17&#45;&gt;Node21</title>
<path fill="none" stroke="midnightblue" d="M982.85,-113.5C974.26,-113.5 965.6,-113.5 957.09,-113.5"/>
<polygon fill="midnightblue" stroke="midnightblue" points="982.89,-117 992.89,-113.5 982.89,-110 982.89,-117"/>
</g>
</g>
</svg>
