<?xml version="1.0" encoding="UTF-8" standalone="no"?>
<!DOCTYPE svg PUBLIC "-//W3C//DTD SVG 1.1//EN"
 "http://www.w3.org/Graphics/SVG/1.1/DTD/svg11.dtd">
<!-- Generated by graphviz version 2.43.0 (0)
 -->
<!-- Title: PerceptualColor::ChromaLightnessDiagram::mousePressEvent Pages: 1 -->
<svg width="1525pt" height="324pt"
 viewBox="0.00 0.00 1525.00 323.50" xmlns="http://www.w3.org/2000/svg" xmlns:xlink="http://www.w3.org/1999/xlink">
<g id="graph0" class="graph" transform="scale(1 1) rotate(0) translate(4 319.5)">
<title>PerceptualColor::ChromaLightnessDiagram::mousePressEvent</title>
<polygon fill="white" stroke="transparent" points="-4,4 -4,-319.5 1521,-319.5 1521,4 -4,4"/>
<!-- Node1 -->
<g id="node1" class="node">
<title>Node1</title>
<g id="a_node1"><a xlink:title="React on a mouse press event.">
<polygon fill="#bfbfbf" stroke="black" points="0,-224.5 0,-254.5 185,-254.5 185,-224.5 0,-224.5"/>
<text text-anchor="start" x="8" y="-242.5" font-family="Helvetica,sans-Serif" font-size="10.00">PerceptualColor::ChromaLightness</text>
<text text-anchor="middle" x="92.5" y="-231.5" font-family="Helvetica,sans-Serif" font-size="10.00">Diagram::mousePressEvent</text>
</a>
</g>
</g>
<!-- Node2 -->
<g id="node2" class="node">
<title>Node2</title>
<g id="a_node2"><a xlink:href="class_perceptual_color_1_1_chroma_lightness_diagram.html#a556ad2472fd43b7beb091986f9fcc7f5" target="_top" xlink:title="Transforms from widget to image coordinates.">
<polygon fill="white" stroke="black" points="221,-274 221,-315 443,-315 443,-274 221,-274"/>
<text text-anchor="start" x="229" y="-303" font-family="Helvetica,sans-Serif" font-size="10.00">PerceptualColor::ChromaLightness</text>
<text text-anchor="start" x="229" y="-292" font-family="Helvetica,sans-Serif" font-size="10.00">Diagram::fromWidgetCoordinatesToImage</text>
<text text-anchor="middle" x="332" y="-281" font-family="Helvetica,sans-Serif" font-size="10.00">Coordinates</text>
</a>
</g>
</g>
<!-- Node1&#45;&gt;Node2 -->
<g id="edge1" class="edge">
<title>Node1&#45;&gt;Node2</title>
<path fill="none" stroke="midnightblue" d="M158.4,-254.53C181.19,-259.81 207.35,-265.86 232.28,-271.64"/>
<polygon fill="midnightblue" stroke="midnightblue" points="231.61,-275.08 242.14,-273.92 233.19,-268.26 231.61,-275.08"/>
</g>
<!-- Node3 -->
<g id="node3" class="node">
<title>Node3</title>
<g id="a_node3"><a xlink:href="class_perceptual_color_1_1_chroma_lightness_diagram.html#a00a13ef1aa732e2f16d0d9f371aa4746" target="_top" xlink:title="Tests if image coordinates are in gamut.">
<polygon fill="white" stroke="black" points="234,-224.5 234,-254.5 430,-254.5 430,-224.5 234,-224.5"/>
<text text-anchor="start" x="242" y="-242.5" font-family="Helvetica,sans-Serif" font-size="10.00">PerceptualColor::ChromaLightness</text>
<text text-anchor="middle" x="332" y="-231.5" font-family="Helvetica,sans-Serif" font-size="10.00">Diagram::imageCoordinatesInGamut</text>
</a>
</g>
</g>
<!-- Node1&#45;&gt;Node3 -->
<g id="edge2" class="edge">
<title>Node1&#45;&gt;Node3</title>
<path fill="none" stroke="midnightblue" d="M185.32,-239.5C197.89,-239.5 210.88,-239.5 223.69,-239.5"/>
<polygon fill="midnightblue" stroke="midnightblue" points="223.92,-243 233.92,-239.5 223.92,-236 223.92,-243"/>
</g>
<!-- Node10 -->
<g id="node10" class="node">
<title>Node10</title>
<g id="a_node10"><a xlink:href="class_perceptual_color_1_1_chroma_lightness_diagram.html#ac9b6d25ecc2c6a954f1ba361960458b1" target="_top" xlink:title=" ">
<polygon fill="white" stroke="black" points="239.5,-129.5 239.5,-159.5 424.5,-159.5 424.5,-129.5 239.5,-129.5"/>
<text text-anchor="start" x="247.5" y="-147.5" font-family="Helvetica,sans-Serif" font-size="10.00">PerceptualColor::ChromaLightness</text>
<text text-anchor="middle" x="332" y="-136.5" font-family="Helvetica,sans-Serif" font-size="10.00">Diagram::setImageCoordinates</text>
</a>
</g>
</g>
<!-- Node1&#45;&gt;Node10 -->
<g id="edge9" class="edge">
<title>Node1&#45;&gt;Node10</title>
<path fill="none" stroke="midnightblue" d="M131.13,-224.45C172.44,-207.92 238.84,-181.36 283.65,-163.44"/>
<polygon fill="midnightblue" stroke="midnightblue" points="285.17,-166.6 293.15,-159.64 282.57,-160.1 285.17,-166.6"/>
</g>
<!-- Node4 -->
<g id="node4" class="node">
<title>Node4</title>
<g id="a_node4"><a xlink:href="class_perceptual_color_1_1_chroma_lightness_diagram.html#a7d48f62249ffee09f55edfd3c127eb84" target="_top" xlink:title="Refresh the diagram and associated data.">
<polygon fill="white" stroke="black" points="741,-176.5 741,-206.5 926,-206.5 926,-176.5 741,-176.5"/>
<text text-anchor="start" x="749" y="-194.5" font-family="Helvetica,sans-Serif" font-size="10.00">PerceptualColor::ChromaLightness</text>
<text text-anchor="middle" x="833.5" y="-183.5" font-family="Helvetica,sans-Serif" font-size="10.00">Diagram::updateDiagramCache</text>
</a>
</g>
</g>
<!-- Node3&#45;&gt;Node4 -->
<g id="edge3" class="edge">
<title>Node3&#45;&gt;Node4</title>
<path fill="none" stroke="midnightblue" d="M397.31,-254.56C422.61,-259.77 452.02,-264.94 479,-267.5 578.99,-277 608.16,-294.17 705,-267.5 743.45,-256.91 782,-231.35 806.49,-212.79"/>
<polygon fill="midnightblue" stroke="midnightblue" points="808.78,-215.44 814.54,-206.55 804.49,-209.91 808.78,-215.44"/>
</g>
<!-- Node5 -->
<g id="node5" class="node">
<title>Node5</title>
<g id="a_node5"><a xlink:href="class_perceptual_color_1_1_chroma_lightness_diagram.html#ae0395993434db2cd0d74b146fed6621c" target="_top" xlink:title="Generates an image of a chroma&#45;lightness diagram.">
<polygon fill="white" stroke="black" points="962,-176.5 962,-206.5 1147,-206.5 1147,-176.5 962,-176.5"/>
<text text-anchor="start" x="970" y="-194.5" font-family="Helvetica,sans-Serif" font-size="10.00">PerceptualColor::ChromaLightness</text>
<text text-anchor="middle" x="1054.5" y="-183.5" font-family="Helvetica,sans-Serif" font-size="10.00">Diagram::generateDiagramImage</text>
</a>
</g>
</g>
<!-- Node4&#45;&gt;Node5 -->
<g id="edge4" class="edge">
<title>Node4&#45;&gt;Node5</title>
<path fill="none" stroke="midnightblue" d="M926.11,-191.5C934.62,-191.5 943.27,-191.5 951.86,-191.5"/>
<polygon fill="midnightblue" stroke="midnightblue" points="951.91,-195 961.91,-191.5 951.91,-188 951.91,-195"/>
</g>
<!-- Node9 -->
<g id="node9" class="node">
<title>Node9</title>
<g id="a_node9"><a xlink:href="class_perceptual_color_1_1_full_color_description.html#acdbff4639f8a118f0d13a831a4b57ffe" target="_top" xlink:title=" ">
<polygon fill="white" stroke="black" points="983,-108.5 983,-138.5 1126,-138.5 1126,-108.5 983,-108.5"/>
<text text-anchor="start" x="991" y="-126.5" font-family="Helvetica,sans-Serif" font-size="10.00">PerceptualColor::FullColor</text>
<text text-anchor="middle" x="1054.5" y="-115.5" font-family="Helvetica,sans-Serif" font-size="10.00">Description::toLch</text>
</a>
</g>
</g>
<!-- Node4&#45;&gt;Node9 -->
<g id="edge8" class="edge">
<title>Node4&#45;&gt;Node9</title>
<path fill="none" stroke="midnightblue" d="M882.83,-176.49C915.99,-166.2 960.17,-152.48 995.27,-141.58"/>
<polygon fill="midnightblue" stroke="midnightblue" points="996.4,-144.89 1004.91,-138.59 994.33,-138.21 996.4,-144.89"/>
</g>
<!-- Node6 -->
<g id="node6" class="node">
<title>Node6</title>
<g id="a_node6"><a xlink:href="class_perceptual_color_1_1_rgb_color_space.html#ab494c2d0f561c49b8325688a8ddc0095" target="_top" xlink:title="Calculates the RGB value.">
<polygon fill="white" stroke="black" points="1185.5,-201.5 1185.5,-231.5 1329.5,-231.5 1329.5,-201.5 1185.5,-201.5"/>
<text text-anchor="start" x="1193.5" y="-219.5" font-family="Helvetica,sans-Serif" font-size="10.00">PerceptualColor::RgbColor</text>
<text text-anchor="middle" x="1257.5" y="-208.5" font-family="Helvetica,sans-Serif" font-size="10.00">Space::colorRgb</text>
</a>
</g>
</g>
<!-- Node5&#45;&gt;Node6 -->
<g id="edge5" class="edge">
<title>Node5&#45;&gt;Node6</title>
<path fill="none" stroke="midnightblue" d="M1147.18,-202.9C1156.61,-204.08 1166.14,-205.26 1175.44,-206.42"/>
<polygon fill="midnightblue" stroke="midnightblue" points="1175.07,-209.9 1185.43,-207.66 1175.94,-202.95 1175.07,-209.9"/>
</g>
<!-- Node7 -->
<g id="node7" class="node">
<title>Node7</title>
<g id="a_node7"><a xlink:href="class_perceptual_color_1_1_polar_point_f.html#a9eefd08d3a5ad536232292380f958804" target="_top" xlink:title="Normalizes an angle.">
<polygon fill="white" stroke="black" points="1183,-152.5 1183,-182.5 1332,-182.5 1332,-152.5 1183,-152.5"/>
<text text-anchor="start" x="1191" y="-170.5" font-family="Helvetica,sans-Serif" font-size="10.00">PerceptualColor::PolarPoint</text>
<text text-anchor="middle" x="1257.5" y="-159.5" font-family="Helvetica,sans-Serif" font-size="10.00">F::normalizedAngleDegree</text>
</a>
</g>
</g>
<!-- Node5&#45;&gt;Node7 -->
<g id="edge6" class="edge">
<title>Node5&#45;&gt;Node7</title>
<path fill="none" stroke="midnightblue" d="M1147.18,-180.55C1155.64,-179.54 1164.19,-178.52 1172.58,-177.52"/>
<polygon fill="midnightblue" stroke="midnightblue" points="1173.21,-180.97 1182.72,-176.31 1172.38,-174.02 1173.21,-180.97"/>
</g>
<!-- Node8 -->
<g id="node8" class="node">
<title>Node8</title>
<g id="a_node8"><a xlink:href="class_perceptual_color_1_1_polar_point_f.html#a882cd166affc603fc62241dcb3be4fd5" target="_top" xlink:title="Normalized angle.">
<polygon fill="white" stroke="black" points="1368,-152.5 1368,-182.5 1517,-182.5 1517,-152.5 1368,-152.5"/>
<text text-anchor="start" x="1376" y="-170.5" font-family="Helvetica,sans-Serif" font-size="10.00">PerceptualColor::PolarPoint</text>
<text text-anchor="middle" x="1442.5" y="-159.5" font-family="Helvetica,sans-Serif" font-size="10.00">F::angleDegree</text>
</a>
</g>
</g>
<!-- Node7&#45;&gt;Node8 -->
<g id="edge7" class="edge">
<title>Node7&#45;&gt;Node8</title>
<path fill="none" stroke="midnightblue" d="M1332.14,-167.5C1340.47,-167.5 1349.01,-167.5 1357.46,-167.5"/>
<polygon fill="midnightblue" stroke="midnightblue" points="1357.71,-171 1367.71,-167.5 1357.71,-164 1357.71,-171"/>
</g>
<!-- Node10&#45;&gt;Node4 -->
<g id="edge19" class="edge">
<title>Node10&#45;&gt;Node4</title>
<path fill="none" stroke="midnightblue" d="M411.58,-159.55C433.35,-163.28 457.03,-166.94 479,-169.5 563.41,-179.32 659.71,-184.95 730.46,-188.05"/>
<polygon fill="midnightblue" stroke="midnightblue" points="730.56,-191.56 740.71,-188.49 730.86,-184.57 730.56,-191.56"/>
</g>
<!-- Node10&#45;&gt;Node9 -->
<g id="edge18" class="edge">
<title>Node10&#45;&gt;Node9</title>
<path fill="none" stroke="midnightblue" d="M377.2,-129.42C405.89,-120.23 444.27,-109.03 479,-102.5 674.53,-65.76 729.9,-44.91 926,-78.5 955.41,-83.54 987.05,-94.67 1011.46,-104.6"/>
<polygon fill="midnightblue" stroke="midnightblue" points="1010.19,-107.86 1020.77,-108.47 1012.88,-101.4 1010.19,-107.86"/>
</g>
<!-- Node11 -->
<g id="node11" class="node">
<title>Node11</title>
<g id="a_node11"><a xlink:href="class_perceptual_color_1_1_chroma_lightness_diagram.html#a9f6471b44d4f4eba95914945bc53037a" target="_top" xlink:title=" ">
<polygon fill="white" stroke="black" points="498,-129.5 498,-159.5 686,-159.5 686,-129.5 498,-129.5"/>
<text text-anchor="start" x="506" y="-147.5" font-family="Helvetica,sans-Serif" font-size="10.00">PerceptualColor::ChromaLightness</text>
<text text-anchor="middle" x="592" y="-136.5" font-family="Helvetica,sans-Serif" font-size="10.00">Diagram::currentImageCoordinates</text>
</a>
</g>
</g>
<!-- Node10&#45;&gt;Node11 -->
<g id="edge10" class="edge">
<title>Node10&#45;&gt;Node11</title>
<path fill="none" stroke="midnightblue" d="M424.69,-144.5C445.1,-144.5 466.88,-144.5 487.72,-144.5"/>
<polygon fill="midnightblue" stroke="midnightblue" points="487.87,-148 497.87,-144.5 487.87,-141 487.87,-148"/>
</g>
<!-- Node12 -->
<g id="node12" class="node">
<title>Node12</title>
<g id="a_node12"><a xlink:href="class_perceptual_color_1_1_chroma_lightness_diagram.html#a9bfa53bcbfd4010c082294c9cfb5b2eb" target="_top" xlink:title=" ">
<polygon fill="white" stroke="black" points="479,-217 479,-258 705,-258 705,-217 479,-217"/>
<text text-anchor="start" x="487" y="-246" font-family="Helvetica,sans-Serif" font-size="10.00">PerceptualColor::ChromaLightness</text>
<text text-anchor="start" x="487" y="-235" font-family="Helvetica,sans-Serif" font-size="10.00">Diagram::fromImageCoordinatesToChroma</text>
<text text-anchor="middle" x="592" y="-224" font-family="Helvetica,sans-Serif" font-size="10.00">Lightness</text>
</a>
</g>
</g>
<!-- Node10&#45;&gt;Node12 -->
<g id="edge13" class="edge">
<title>Node10&#45;&gt;Node12</title>
<path fill="none" stroke="midnightblue" d="M368.71,-159.56C398.1,-171.74 440.95,-189.02 479,-202.5 489.77,-206.32 501.19,-210.14 512.47,-213.78"/>
<polygon fill="midnightblue" stroke="midnightblue" points="511.73,-217.22 522.32,-216.93 513.86,-210.55 511.73,-217.22"/>
</g>
<!-- Node13 -->
<g id="node13" class="node">
<title>Node13</title>
<g id="a_node13"><a xlink:href="class_perceptual_color_1_1_chroma_lightness_diagram.html#a5dfa80fbb52c1217a61fb9adb108bd14" target="_top" xlink:title="Search the nearest non&#45;transparent neighbor pixel.">
<polygon fill="white" stroke="black" points="499.5,-0.5 499.5,-30.5 684.5,-30.5 684.5,-0.5 499.5,-0.5"/>
<text text-anchor="start" x="507.5" y="-18.5" font-family="Helvetica,sans-Serif" font-size="10.00">PerceptualColor::ChromaLightness</text>
<text text-anchor="middle" x="592" y="-7.5" font-family="Helvetica,sans-Serif" font-size="10.00">Diagram::nearestNeighborSearch</text>
</a>
</g>
</g>
<!-- Node10&#45;&gt;Node13 -->
<g id="edge15" class="edge">
<title>Node10&#45;&gt;Node13</title>
<path fill="none" stroke="midnightblue" d="M351.15,-129.2C377.63,-107.61 429.14,-68.29 479,-45.5 489.05,-40.9 499.95,-36.9 510.86,-33.44"/>
<polygon fill="midnightblue" stroke="midnightblue" points="511.87,-36.79 520.43,-30.55 509.85,-30.09 511.87,-36.79"/>
</g>
<!-- Node14 -->
<g id="node14" class="node">
<title>Node14</title>
<g id="a_node14"><a xlink:href="class_perceptual_color_1_1_chroma_lightness_diagram.html#a27d7c972e420480674da1a0fae0b10b3" target="_top" xlink:title="Setter for the color() property.">
<polygon fill="white" stroke="black" points="741,-88.5 741,-118.5 926,-118.5 926,-88.5 741,-88.5"/>
<text text-anchor="start" x="749" y="-106.5" font-family="Helvetica,sans-Serif" font-size="10.00">PerceptualColor::ChromaLightness</text>
<text text-anchor="middle" x="833.5" y="-95.5" font-family="Helvetica,sans-Serif" font-size="10.00">Diagram::setColor</text>
</a>
</g>
</g>
<!-- Node10&#45;&gt;Node14 -->
<g id="edge16" class="edge">
<title>Node10&#45;&gt;Node14</title>
<path fill="none" stroke="midnightblue" d="M410.04,-129.47C432.22,-125.64 456.5,-121.93 479,-119.5 563.41,-110.4 659.71,-106.46 730.46,-104.76"/>
<polygon fill="midnightblue" stroke="midnightblue" points="730.79,-108.26 740.71,-104.53 730.63,-101.26 730.79,-108.26"/>
</g>
<!-- Node11&#45;&gt;Node4 -->
<g id="edge12" class="edge">
<title>Node11&#45;&gt;Node4</title>
<path fill="none" stroke="midnightblue" d="M669.44,-159.5C693.85,-164.29 721.04,-169.63 746.11,-174.55"/>
<polygon fill="midnightblue" stroke="midnightblue" points="745.48,-177.99 755.97,-176.48 746.83,-171.12 745.48,-177.99"/>
</g>
<!-- Node11&#45;&gt;Node9 -->
<g id="edge11" class="edge">
<title>Node11&#45;&gt;Node9</title>
<path fill="none" stroke="midnightblue" d="M686.19,-140.25C770.24,-136.42 892.61,-130.84 972.63,-127.19"/>
<polygon fill="midnightblue" stroke="midnightblue" points="972.82,-130.68 982.65,-126.73 972.51,-123.69 972.82,-130.68"/>
</g>
<!-- Node12&#45;&gt;Node4 -->
<g id="edge14" class="edge">
<title>Node12&#45;&gt;Node4</title>
<path fill="none" stroke="midnightblue" d="M699.79,-216.99C714.69,-214.13 729.86,-211.21 744.36,-208.43"/>
<polygon fill="midnightblue" stroke="midnightblue" points="745.12,-211.85 754.29,-206.52 743.8,-204.97 745.12,-211.85"/>
</g>
<!-- Node14&#45;&gt;Node9 -->
<g id="edge17" class="edge">
<title>Node14&#45;&gt;Node9</title>
<path fill="none" stroke="midnightblue" d="M926.11,-111.87C941.53,-113.27 957.45,-114.73 972.58,-116.11"/>
<polygon fill="midnightblue" stroke="midnightblue" points="972.64,-119.63 982.92,-117.05 973.28,-112.66 972.64,-119.63"/>
</g>
</g>
</svg>
