<?xml version="1.0" encoding="UTF-8" standalone="no"?>
<!DOCTYPE svg PUBLIC "-//W3C//DTD SVG 1.1//EN"
 "http://www.w3.org/Graphics/SVG/1.1/DTD/svg11.dtd">
<!-- Generated by graphviz version 2.43.0 (0)
 -->
<!-- Title: PerceptualColor::AlphaSelector Pages: 1 -->
<svg width="923pt" height="156pt"
 viewBox="0.00 0.00 923.00 155.50" xmlns="http://www.w3.org/2000/svg" xmlns:xlink="http://www.w3.org/1999/xlink">
<g id="graph0" class="graph" transform="scale(1 1) rotate(0) translate(4 151.5)">
<title>PerceptualColor::AlphaSelector</title>
<polygon fill="white" stroke="transparent" points="-4,4 -4,-151.5 919,-151.5 919,4 -4,4"/>
<!-- Node1 -->
<g id="node1" class="node">
<title>Node1</title>
<g id="a_node1"><a xlink:title="Combined widget with a gradient slider and a spin box; for selecting alpha channel.">
<polygon fill="#bfbfbf" stroke="black" points="748,-68 748,-87 915,-87 915,-68 748,-68"/>
<text text-anchor="middle" x="831.5" y="-75" font-family="Helvetica,sans-Serif" font-size="10.00">PerceptualColor::AlphaSelector</text>
</a>
</g>
</g>
<!-- Node2 -->
<g id="node2" class="node">
<title>Node2</title>
<g id="a_node2"><a xlink:title=" ">
<polygon fill="white" stroke="#bfbfbf" points="244.5,-128 244.5,-147 303.5,-147 303.5,-128 244.5,-128"/>
<text text-anchor="middle" x="274" y="-135" font-family="Helvetica,sans-Serif" font-size="10.00">QWidget</text>
</a>
</g>
</g>
<!-- Node2&#45;&gt;Node1 -->
<g id="edge1" class="edge">
<title>Node2&#45;&gt;Node1</title>
<path fill="none" stroke="midnightblue" d="M313.67,-138.95C392.88,-141.06 578.85,-141.52 730,-107.5 754.69,-101.94 782.2,-93.58 802.18,-87.09"/>
<polygon fill="midnightblue" stroke="midnightblue" points="313.75,-135.45 303.66,-138.66 313.55,-142.45 313.75,-135.45"/>
</g>
<!-- Node7 -->
<g id="node7" class="node">
<title>Node7</title>
<g id="a_node7"><a xlink:href="class_perceptual_color_1_1_gradient_selector.html" target="_top" xlink:title="A slider displaying a gradient.">
<polygon fill="white" stroke="black" points="471,-85.5 471,-115.5 613,-115.5 613,-85.5 471,-85.5"/>
<text text-anchor="start" x="479" y="-103.5" font-family="Helvetica,sans-Serif" font-size="10.00">PerceptualColor::Gradient</text>
<text text-anchor="middle" x="542" y="-92.5" font-family="Helvetica,sans-Serif" font-size="10.00">Selector</text>
</a>
</g>
</g>
<!-- Node2&#45;&gt;Node7 -->
<g id="edge7" class="edge">
<title>Node2&#45;&gt;Node7</title>
<path fill="none" stroke="midnightblue" d="M313.87,-132.09C354.98,-126.38 420.7,-117.23 470.89,-110.25"/>
<polygon fill="midnightblue" stroke="midnightblue" points="313.14,-128.66 303.72,-133.51 314.11,-135.59 313.14,-128.66"/>
</g>
<!-- Node3 -->
<g id="node3" class="node">
<title>Node3</title>
<g id="a_node3"><a xlink:href="class_perceptual_color_1_1_full_color_description.html" target="_top" xlink:title="A fully qualified color.">
<polygon fill="white" stroke="black" points="202.5,-54.5 202.5,-84.5 345.5,-84.5 345.5,-54.5 202.5,-54.5"/>
<text text-anchor="start" x="210.5" y="-72.5" font-family="Helvetica,sans-Serif" font-size="10.00">PerceptualColor::FullColor</text>
<text text-anchor="middle" x="274" y="-61.5" font-family="Helvetica,sans-Serif" font-size="10.00">Description</text>
</a>
</g>
</g>
<!-- Node3&#45;&gt;Node1 -->
<g id="edge2" class="edge">
<title>Node3&#45;&gt;Node1</title>
<path fill="none" stroke="#9a32cd" stroke-dasharray="5,2" d="M356.01,-67.48C391.33,-66.69 433.21,-65.89 471,-65.5 534.11,-64.86 549.91,-63.76 613,-65.5 657.61,-66.73 707.3,-69.38 747.92,-71.87"/>
<polygon fill="#9a32cd" stroke="#9a32cd" points="355.68,-63.98 345.76,-67.71 355.83,-70.98 355.68,-63.98"/>
<text text-anchor="middle" x="542" y="-68.5" font-family="Helvetica,sans-Serif" font-size="10.00"> m_color</text>
</g>
<!-- Node3&#45;&gt;Node7 -->
<g id="edge8" class="edge">
<title>Node3&#45;&gt;Node7</title>
<path fill="none" stroke="#9a32cd" stroke-dasharray="5,2" d="M355.77,-78.36C386.25,-81.76 421.23,-85.73 453,-89.5 458.81,-90.19 464.83,-90.92 470.88,-91.66"/>
<polygon fill="#9a32cd" stroke="#9a32cd" points="355.95,-74.86 345.62,-77.23 355.17,-81.82 355.95,-74.86"/>
<text text-anchor="middle" x="408.5" y="-103.5" font-family="Helvetica,sans-Serif" font-size="10.00"> m_secondColor</text>
<text text-anchor="middle" x="408.5" y="-92.5" font-family="Helvetica,sans-Serif" font-size="10.00">m_firstColor</text>
</g>
<!-- Node4 -->
<g id="node4" class="node">
<title>Node4</title>
<g id="a_node4"><a xlink:href="struct_perceptual_color_1_1_helper_1_1cms_r_g_b.html" target="_top" xlink:title="An RGB color.">
<polygon fill="white" stroke="black" points="0,-54.5 0,-84.5 132,-84.5 132,-54.5 0,-54.5"/>
<text text-anchor="start" x="8" y="-72.5" font-family="Helvetica,sans-Serif" font-size="10.00">PerceptualColor::Helper</text>
<text text-anchor="middle" x="66" y="-61.5" font-family="Helvetica,sans-Serif" font-size="10.00">::cmsRGB</text>
</a>
</g>
</g>
<!-- Node4&#45;&gt;Node3 -->
<g id="edge3" class="edge">
<title>Node4&#45;&gt;Node3</title>
<path fill="none" stroke="#9a32cd" stroke-dasharray="5,2" d="M142.27,-69.5C161.83,-69.5 182.85,-69.5 202.18,-69.5"/>
<polygon fill="#9a32cd" stroke="#9a32cd" points="142.18,-66 132.18,-69.5 142.18,-73 142.18,-66"/>
<text text-anchor="middle" x="167" y="-72.5" font-family="Helvetica,sans-Serif" font-size="10.00"> m_rgb</text>
</g>
<!-- Node5 -->
<g id="node5" class="node">
<title>Node5</title>
<g id="a_node5"><a xlink:href="class_perceptual_color_1_1_rgb_color_space.html" target="_top" xlink:title="Interface to LittleCMS for working with an RGB color space.">
<polygon fill="white" stroke="black" points="202,-0.5 202,-30.5 346,-30.5 346,-0.5 202,-0.5"/>
<text text-anchor="start" x="210" y="-18.5" font-family="Helvetica,sans-Serif" font-size="10.00">PerceptualColor::RgbColor</text>
<text text-anchor="middle" x="274" y="-7.5" font-family="Helvetica,sans-Serif" font-size="10.00">Space</text>
</a>
</g>
</g>
<!-- Node5&#45;&gt;Node1 -->
<g id="edge4" class="edge">
<title>Node5&#45;&gt;Node1</title>
<path fill="none" stroke="#9a32cd" stroke-dasharray="5,2" d="M356.07,-22.25C447.19,-30.18 599.49,-44.43 730,-61.5 744.37,-63.38 759.84,-65.7 774.24,-67.98"/>
<polygon fill="#9a32cd" stroke="#9a32cd" points="356.34,-18.76 346.08,-21.39 355.74,-25.74 356.34,-18.76"/>
<text text-anchor="middle" x="542" y="-50.5" font-family="Helvetica,sans-Serif" font-size="10.00"> m_rgbColorSpace</text>
</g>
<!-- Node5&#45;&gt;Node7 -->
<g id="edge9" class="edge">
<title>Node5&#45;&gt;Node7</title>
<path fill="none" stroke="#9a32cd" stroke-dasharray="5,2" d="M348.88,-33.05C381.15,-41.32 419.26,-51.92 453,-63.5 458.41,-65.36 483.56,-75.96 505.59,-85.35"/>
<polygon fill="#9a32cd" stroke="#9a32cd" points="349.62,-29.62 339.06,-30.55 347.89,-36.41 349.62,-29.62"/>
<text text-anchor="middle" x="408.5" y="-66.5" font-family="Helvetica,sans-Serif" font-size="10.00"> m_rgbColorSpace</text>
</g>
<!-- Node6 -->
<g id="node6" class="node">
<title>Node6</title>
<g id="a_node6"><a xlink:title=" ">
<polygon fill="white" stroke="#bfbfbf" points="38,-6 38,-25 94,-25 94,-6 38,-6"/>
<text text-anchor="middle" x="66" y="-13" font-family="Helvetica,sans-Serif" font-size="10.00">QObject</text>
</a>
</g>
</g>
<!-- Node6&#45;&gt;Node5 -->
<g id="edge5" class="edge">
<title>Node6&#45;&gt;Node5</title>
<path fill="none" stroke="midnightblue" d="M104.55,-15.5C131.6,-15.5 168.94,-15.5 201.59,-15.5"/>
<polygon fill="midnightblue" stroke="midnightblue" points="104.36,-12 94.36,-15.5 104.36,-19 104.36,-12"/>
</g>
<!-- Node7&#45;&gt;Node1 -->
<g id="edge6" class="edge">
<title>Node7&#45;&gt;Node1</title>
<path fill="none" stroke="#9a32cd" stroke-dasharray="5,2" d="M623.54,-94.06C662.34,-90.95 708.82,-87.23 747.89,-84.11"/>
<polygon fill="#9a32cd" stroke="#9a32cd" points="623.02,-90.59 613.33,-94.87 623.58,-97.56 623.02,-90.59"/>
<text text-anchor="middle" x="680.5" y="-95.5" font-family="Helvetica,sans-Serif" font-size="10.00"> m_gradientSelector</text>
</g>
</g>
</svg>
