<?xml version="1.0" encoding="UTF-8" standalone="no"?>
<!DOCTYPE svg PUBLIC "-//W3C//DTD SVG 1.1//EN"
 "http://www.w3.org/Graphics/SVG/1.1/DTD/svg11.dtd">
<!-- Generated by graphviz version 2.43.0 (0)
 -->
<!-- Title: PerceptualColor::FullColorDescription::FullColorDescription Pages: 1 -->
<svg width="601pt" height="284pt"
 viewBox="0.00 0.00 601.00 284.00" xmlns="http://www.w3.org/2000/svg" xmlns:xlink="http://www.w3.org/1999/xlink">
<g id="graph0" class="graph" transform="scale(1 1) rotate(0) translate(4 280)">
<title>PerceptualColor::FullColorDescription::FullColorDescription</title>
<polygon fill="white" stroke="transparent" points="-4,4 -4,-280 597,-280 597,4 -4,4"/>
<!-- Node1 -->
<g id="node1" class="node">
<title>Node1</title>
<g id="a_node1"><a xlink:title="Constructor.">
<polygon fill="#bfbfbf" stroke="black" points="0,-122.5 0,-152.5 176,-152.5 176,-122.5 0,-122.5"/>
<text text-anchor="start" x="8" y="-140.5" font-family="Helvetica,sans-Serif" font-size="10.00">PerceptualColor::FullColor</text>
<text text-anchor="middle" x="88" y="-129.5" font-family="Helvetica,sans-Serif" font-size="10.00">Description::FullColorDescription</text>
</a>
</g>
</g>
<!-- Node2 -->
<g id="node2" class="node">
<title>Node2</title>
<g id="a_node2"><a xlink:href="class_perceptual_color_1_1_full_color_description.html#aa4fabb35ce1684e4321ff58d008a2885" target="_top" xlink:title=" ">
<polygon fill="white" stroke="black" points="238.5,-245.5 238.5,-275.5 381.5,-275.5 381.5,-245.5 238.5,-245.5"/>
<text text-anchor="start" x="246.5" y="-263.5" font-family="Helvetica,sans-Serif" font-size="10.00">PerceptualColor::FullColor</text>
<text text-anchor="middle" x="310" y="-252.5" font-family="Helvetica,sans-Serif" font-size="10.00">Description::alpha</text>
</a>
</g>
</g>
<!-- Node1&#45;&gt;Node2 -->
<g id="edge1" class="edge">
<title>Node1&#45;&gt;Node2</title>
<path fill="none" stroke="midnightblue" d="M103.4,-152.7C124.94,-174.55 167.79,-214.59 212,-236.5 217.28,-239.12 222.86,-241.46 228.58,-243.56"/>
<polygon fill="midnightblue" stroke="midnightblue" points="227.7,-246.96 238.29,-246.86 229.95,-240.33 227.7,-246.96"/>
</g>
<!-- Node3 -->
<g id="node3" class="node">
<title>Node3</title>
<g id="a_node3"><a xlink:href="class_perceptual_color_1_1_rgb_color_space.html#aeb749cb42b24d3989be041a7d4096258" target="_top" xlink:title=" ">
<polygon fill="white" stroke="black" points="230.5,-196.5 230.5,-226.5 389.5,-226.5 389.5,-196.5 230.5,-196.5"/>
<text text-anchor="start" x="238.5" y="-214.5" font-family="Helvetica,sans-Serif" font-size="10.00">PerceptualColor::RgbColor</text>
<text text-anchor="middle" x="310" y="-203.5" font-family="Helvetica,sans-Serif" font-size="10.00">Space::colorRgbBoundSimple</text>
</a>
</g>
</g>
<!-- Node1&#45;&gt;Node3 -->
<g id="edge2" class="edge">
<title>Node1&#45;&gt;Node3</title>
<path fill="none" stroke="midnightblue" d="M122.19,-152.51C146.67,-163.2 180.98,-177.42 212,-187.5 218.81,-189.71 225.94,-191.84 233.11,-193.84"/>
<polygon fill="midnightblue" stroke="midnightblue" points="232.33,-197.25 242.9,-196.5 234.16,-190.5 232.33,-197.25"/>
</g>
<!-- Node4 -->
<g id="node4" class="node">
<title>Node4</title>
<g id="a_node4"><a xlink:href="class_perceptual_color_1_1_full_color_description.html#a5c7e9555e961f25f39c961b6aedda06a" target="_top" xlink:title=" ">
<polygon fill="white" stroke="black" points="212,-147.5 212,-177.5 408,-177.5 408,-147.5 212,-147.5"/>
<text text-anchor="start" x="220" y="-165.5" font-family="Helvetica,sans-Serif" font-size="10.00">PerceptualColor::FullColor</text>
<text text-anchor="middle" x="310" y="-154.5" font-family="Helvetica,sans-Serif" font-size="10.00">Description::moveChromaIntoGamut</text>
</a>
</g>
</g>
<!-- Node1&#45;&gt;Node4 -->
<g id="edge3" class="edge">
<title>Node1&#45;&gt;Node4</title>
<path fill="none" stroke="midnightblue" d="M176.27,-147.42C184.63,-148.37 193.18,-149.34 201.7,-150.31"/>
<polygon fill="midnightblue" stroke="midnightblue" points="201.36,-153.79 211.69,-151.44 202.15,-146.84 201.36,-153.79"/>
</g>
<!-- Node8 -->
<g id="node8" class="node">
<title>Node8</title>
<g id="a_node8"><a xlink:href="class_perceptual_color_1_1_full_color_description.html#aa9eb9b1edc15f59182dbad8add233291" target="_top" xlink:title=" ">
<polygon fill="white" stroke="black" points="238.5,-98.5 238.5,-128.5 381.5,-128.5 381.5,-98.5 238.5,-98.5"/>
<text text-anchor="start" x="246.5" y="-116.5" font-family="Helvetica,sans-Serif" font-size="10.00">PerceptualColor::FullColor</text>
<text text-anchor="middle" x="310" y="-105.5" font-family="Helvetica,sans-Serif" font-size="10.00">Description::normalizeLch</text>
</a>
</g>
</g>
<!-- Node1&#45;&gt;Node8 -->
<g id="edge7" class="edge">
<title>Node1&#45;&gt;Node8</title>
<path fill="none" stroke="midnightblue" d="M176.27,-127.98C193.35,-126.12 211.21,-124.17 228.08,-122.33"/>
<polygon fill="midnightblue" stroke="midnightblue" points="228.88,-125.76 238.44,-121.2 228.12,-118.8 228.88,-125.76"/>
</g>
<!-- Node11 -->
<g id="node11" class="node">
<title>Node11</title>
<g id="a_node11"><a xlink:href="class_perceptual_color_1_1_full_color_description.html#a26e4ea239adaeeb9237e9655b1cab9e5" target="_top" xlink:title=" ">
<polygon fill="white" stroke="black" points="238.5,-49.5 238.5,-79.5 381.5,-79.5 381.5,-49.5 238.5,-49.5"/>
<text text-anchor="start" x="246.5" y="-67.5" font-family="Helvetica,sans-Serif" font-size="10.00">PerceptualColor::FullColor</text>
<text text-anchor="middle" x="310" y="-56.5" font-family="Helvetica,sans-Serif" font-size="10.00">Description::toLab</text>
</a>
</g>
</g>
<!-- Node1&#45;&gt;Node11 -->
<g id="edge10" class="edge">
<title>Node1&#45;&gt;Node11</title>
<path fill="none" stroke="midnightblue" d="M124.12,-122.5C148.51,-112.4 181.9,-99.21 212,-89.5 219.85,-86.97 228.12,-84.51 236.39,-82.2"/>
<polygon fill="midnightblue" stroke="midnightblue" points="237.35,-85.56 246.07,-79.55 235.5,-78.81 237.35,-85.56"/>
</g>
<!-- Node12 -->
<g id="node12" class="node">
<title>Node12</title>
<g id="a_node12"><a xlink:href="class_perceptual_color_1_1_full_color_description.html#acdbff4639f8a118f0d13a831a4b57ffe" target="_top" xlink:title=" ">
<polygon fill="white" stroke="black" points="238.5,-0.5 238.5,-30.5 381.5,-30.5 381.5,-0.5 238.5,-0.5"/>
<text text-anchor="start" x="246.5" y="-18.5" font-family="Helvetica,sans-Serif" font-size="10.00">PerceptualColor::FullColor</text>
<text text-anchor="middle" x="310" y="-7.5" font-family="Helvetica,sans-Serif" font-size="10.00">Description::toLch</text>
</a>
</g>
</g>
<!-- Node1&#45;&gt;Node12 -->
<g id="edge11" class="edge">
<title>Node1&#45;&gt;Node12</title>
<path fill="none" stroke="midnightblue" d="M103.43,-122.46C125.01,-100.84 167.91,-61.21 212,-39.5 217.28,-36.9 222.87,-34.56 228.59,-32.47"/>
<polygon fill="midnightblue" stroke="midnightblue" points="229.96,-35.7 238.31,-29.18 227.72,-29.07 229.96,-35.7"/>
</g>
<!-- Node5 -->
<g id="node5" class="node">
<title>Node5</title>
<g id="a_node5"><a xlink:href="class_perceptual_color_1_1_rgb_color_space.html#a805768f351ccde875254755901d943fa" target="_top" xlink:title="The darkest in&#45;gamut point on the L* axis.">
<polygon fill="white" stroke="black" points="446.5,-245.5 446.5,-275.5 590.5,-275.5 590.5,-245.5 446.5,-245.5"/>
<text text-anchor="start" x="454.5" y="-263.5" font-family="Helvetica,sans-Serif" font-size="10.00">PerceptualColor::RgbColor</text>
<text text-anchor="middle" x="518.5" y="-252.5" font-family="Helvetica,sans-Serif" font-size="10.00">Space::blackpointL</text>
</a>
</g>
</g>
<!-- Node4&#45;&gt;Node5 -->
<g id="edge4" class="edge">
<title>Node4&#45;&gt;Node5</title>
<path fill="none" stroke="midnightblue" d="M389.33,-177.54C395.91,-180.31 402.24,-183.6 408,-187.5 430.38,-202.64 422.11,-220.66 444,-236.5 445.9,-237.87 447.88,-239.17 449.93,-240.4"/>
<polygon fill="midnightblue" stroke="midnightblue" points="448.76,-243.74 459.24,-245.33 452.04,-237.56 448.76,-243.74"/>
</g>
<!-- Node6 -->
<g id="node6" class="node">
<title>Node6</title>
<g id="a_node6"><a xlink:href="class_perceptual_color_1_1_rgb_color_space.html#a24382dbdad4c514bde0842b5a8313be0" target="_top" xlink:title="check if a Lab value is within a specific RGB gamut">
<polygon fill="white" stroke="black" points="446.5,-196.5 446.5,-226.5 590.5,-226.5 590.5,-196.5 446.5,-196.5"/>
<text text-anchor="start" x="454.5" y="-214.5" font-family="Helvetica,sans-Serif" font-size="10.00">PerceptualColor::RgbColor</text>
<text text-anchor="middle" x="518.5" y="-203.5" font-family="Helvetica,sans-Serif" font-size="10.00">Space::inGamut</text>
</a>
</g>
</g>
<!-- Node4&#45;&gt;Node6 -->
<g id="edge5" class="edge">
<title>Node4&#45;&gt;Node6</title>
<path fill="none" stroke="midnightblue" d="M374.36,-177.53C396.46,-182.78 421.44,-188.71 444.28,-194.13"/>
<polygon fill="midnightblue" stroke="midnightblue" points="443.72,-197.59 454.26,-196.49 445.34,-190.78 443.72,-197.59"/>
</g>
<!-- Node7 -->
<g id="node7" class="node">
<title>Node7</title>
<g id="a_node7"><a xlink:href="class_perceptual_color_1_1_rgb_color_space.html#a1e3cb8f4108729442a61b43df4664397" target="_top" xlink:title="The lightest in&#45;gamut point on the L* axis.">
<polygon fill="white" stroke="black" points="446.5,-147.5 446.5,-177.5 590.5,-177.5 590.5,-147.5 446.5,-147.5"/>
<text text-anchor="start" x="454.5" y="-165.5" font-family="Helvetica,sans-Serif" font-size="10.00">PerceptualColor::RgbColor</text>
<text text-anchor="middle" x="518.5" y="-154.5" font-family="Helvetica,sans-Serif" font-size="10.00">Space::whitepointL</text>
</a>
</g>
</g>
<!-- Node4&#45;&gt;Node7 -->
<g id="edge6" class="edge">
<title>Node4&#45;&gt;Node7</title>
<path fill="none" stroke="midnightblue" d="M408.2,-162.5C417.55,-162.5 426.97,-162.5 436.14,-162.5"/>
<polygon fill="midnightblue" stroke="midnightblue" points="436.38,-166 446.38,-162.5 436.38,-159 436.38,-166"/>
</g>
<!-- Node9 -->
<g id="node9" class="node">
<title>Node9</title>
<g id="a_node9"><a xlink:href="class_perceptual_color_1_1_polar_point_f.html#a882cd166affc603fc62241dcb3be4fd5" target="_top" xlink:title="Normalized angle.">
<polygon fill="white" stroke="black" points="444,-98.5 444,-128.5 593,-128.5 593,-98.5 444,-98.5"/>
<text text-anchor="start" x="452" y="-116.5" font-family="Helvetica,sans-Serif" font-size="10.00">PerceptualColor::PolarPoint</text>
<text text-anchor="middle" x="518.5" y="-105.5" font-family="Helvetica,sans-Serif" font-size="10.00">F::angleDegree</text>
</a>
</g>
</g>
<!-- Node8&#45;&gt;Node9 -->
<g id="edge8" class="edge">
<title>Node8&#45;&gt;Node9</title>
<path fill="none" stroke="midnightblue" d="M381.78,-113.5C398.47,-113.5 416.42,-113.5 433.62,-113.5"/>
<polygon fill="midnightblue" stroke="midnightblue" points="433.65,-117 443.65,-113.5 433.65,-110 433.65,-117"/>
</g>
<!-- Node10 -->
<g id="node10" class="node">
<title>Node10</title>
<g id="a_node10"><a xlink:href="class_perceptual_color_1_1_polar_point_f.html#ad9e45debe2dc38bbba834d791336f1fd" target="_top" xlink:title="Normalized radial.">
<polygon fill="white" stroke="black" points="444,-49.5 444,-79.5 593,-79.5 593,-49.5 444,-49.5"/>
<text text-anchor="start" x="452" y="-67.5" font-family="Helvetica,sans-Serif" font-size="10.00">PerceptualColor::PolarPoint</text>
<text text-anchor="middle" x="518.5" y="-56.5" font-family="Helvetica,sans-Serif" font-size="10.00">F::radial</text>
</a>
</g>
</g>
<!-- Node8&#45;&gt;Node10 -->
<g id="edge9" class="edge">
<title>Node8&#45;&gt;Node10</title>
<path fill="none" stroke="midnightblue" d="M374.36,-98.47C396.46,-93.22 421.44,-87.29 444.28,-81.87"/>
<polygon fill="midnightblue" stroke="midnightblue" points="445.34,-85.22 454.26,-79.51 443.72,-78.41 445.34,-85.22"/>
</g>
</g>
</svg>
