<?xml version="1.0" encoding="UTF-8" standalone="no"?>
<!DOCTYPE svg PUBLIC "-//W3C//DTD SVG 1.1//EN"
 "http://www.w3.org/Graphics/SVG/1.1/DTD/svg11.dtd">
<!-- Generated by graphviz version 2.43.0 (0)
 -->
<!-- Title: PerceptualColor::SimpleColorWheel::generateWheelImage Pages: 1 -->
<svg width="352pt" height="137pt"
 viewBox="0.00 0.00 352.00 137.00" xmlns="http://www.w3.org/2000/svg" xmlns:xlink="http://www.w3.org/1999/xlink">
<g id="graph0" class="graph" transform="scale(1 1) rotate(0) translate(4 133)">
<title>PerceptualColor::SimpleColorWheel::generateWheelImage</title>
<polygon fill="white" stroke="transparent" points="-4,4 -4,-133 348,-133 348,4 -4,4"/>
<!-- Node1 -->
<g id="node1" class="node">
<title>Node1</title>
<g id="a_node1"><a xlink:title="Generates an image of a color wheel.">
<polygon fill="#bfbfbf" stroke="black" points="0,-49.5 0,-79.5 159,-79.5 159,-49.5 0,-49.5"/>
<text text-anchor="start" x="8" y="-67.5" font-family="Helvetica,sans-Serif" font-size="10.00">PerceptualColor::SimpleColor</text>
<text text-anchor="middle" x="79.5" y="-56.5" font-family="Helvetica,sans-Serif" font-size="10.00">Wheel::generateWheelImage</text>
</a>
</g>
</g>
<!-- Node2 -->
<g id="node2" class="node">
<title>Node2</title>
<g id="a_node2"><a xlink:href="class_perceptual_color_1_1_polar_point_f.html#a882cd166affc603fc62241dcb3be4fd5" target="_top" xlink:title="Normalized angle.">
<polygon fill="white" stroke="black" points="195,-98.5 195,-128.5 344,-128.5 344,-98.5 195,-98.5"/>
<text text-anchor="start" x="203" y="-116.5" font-family="Helvetica,sans-Serif" font-size="10.00">PerceptualColor::PolarPoint</text>
<text text-anchor="middle" x="269.5" y="-105.5" font-family="Helvetica,sans-Serif" font-size="10.00">F::angleDegree</text>
</a>
</g>
</g>
<!-- Node1&#45;&gt;Node2 -->
<g id="edge1" class="edge">
<title>Node1&#45;&gt;Node2</title>
<path fill="none" stroke="midnightblue" d="M138.18,-79.53C158.03,-84.71 180.44,-90.55 201,-95.91"/>
<polygon fill="midnightblue" stroke="midnightblue" points="200.37,-99.36 210.93,-98.49 202.13,-92.58 200.37,-99.36"/>
</g>
<!-- Node3 -->
<g id="node3" class="node">
<title>Node3</title>
<g id="a_node3"><a xlink:href="class_perceptual_color_1_1_rgb_color_space.html#ab494c2d0f561c49b8325688a8ddc0095" target="_top" xlink:title="Calculates the RGB value.">
<polygon fill="white" stroke="black" points="197.5,-49.5 197.5,-79.5 341.5,-79.5 341.5,-49.5 197.5,-49.5"/>
<text text-anchor="start" x="205.5" y="-67.5" font-family="Helvetica,sans-Serif" font-size="10.00">PerceptualColor::RgbColor</text>
<text text-anchor="middle" x="269.5" y="-56.5" font-family="Helvetica,sans-Serif" font-size="10.00">Space::colorRgb</text>
</a>
</g>
</g>
<!-- Node1&#45;&gt;Node3 -->
<g id="edge2" class="edge">
<title>Node1&#45;&gt;Node3</title>
<path fill="none" stroke="midnightblue" d="M159.14,-64.5C168.45,-64.5 177.97,-64.5 187.31,-64.5"/>
<polygon fill="midnightblue" stroke="midnightblue" points="187.37,-68 197.37,-64.5 187.37,-61 187.37,-68"/>
</g>
<!-- Node4 -->
<g id="node4" class="node">
<title>Node4</title>
<g id="a_node4"><a xlink:href="class_perceptual_color_1_1_polar_point_f.html#ad9e45debe2dc38bbba834d791336f1fd" target="_top" xlink:title="Normalized radial.">
<polygon fill="white" stroke="black" points="195,-0.5 195,-30.5 344,-30.5 344,-0.5 195,-0.5"/>
<text text-anchor="start" x="203" y="-18.5" font-family="Helvetica,sans-Serif" font-size="10.00">PerceptualColor::PolarPoint</text>
<text text-anchor="middle" x="269.5" y="-7.5" font-family="Helvetica,sans-Serif" font-size="10.00">F::radial</text>
</a>
</g>
</g>
<!-- Node1&#45;&gt;Node4 -->
<g id="edge3" class="edge">
<title>Node1&#45;&gt;Node4</title>
<path fill="none" stroke="midnightblue" d="M138.18,-49.47C158.03,-44.29 180.44,-38.45 201,-33.09"/>
<polygon fill="midnightblue" stroke="midnightblue" points="202.13,-36.42 210.93,-30.51 200.37,-29.64 202.13,-36.42"/>
</g>
</g>
</svg>
