<?xml version="1.0" encoding="UTF-8" standalone="no"?>
<!DOCTYPE svg PUBLIC "-//W3C//DTD SVG 1.1//EN"
 "http://www.w3.org/Graphics/SVG/1.1/DTD/svg11.dtd">
<!-- Generated by graphviz version 2.43.0 (0)
 -->
<!-- Title: PerceptualColor::SimpleColorWheel::generateWheelImage Pages: 1 -->
<svg width="557pt" height="88pt"
 viewBox="0.00 0.00 557.00 88.00" xmlns="http://www.w3.org/2000/svg" xmlns:xlink="http://www.w3.org/1999/xlink">
<g id="graph0" class="graph" transform="scale(1 1) rotate(0) translate(4 84)">
<title>PerceptualColor::SimpleColorWheel::generateWheelImage</title>
<polygon fill="white" stroke="transparent" points="-4,4 -4,-84 553,-84 553,4 -4,4"/>
<!-- Node1 -->
<g id="node1" class="node">
<title>Node1</title>
<g id="a_node1"><a xlink:title="Generates an image of a color wheel.">
<polygon fill="#bfbfbf" stroke="black" points="390,-24.5 390,-54.5 549,-54.5 549,-24.5 390,-24.5"/>
<text text-anchor="start" x="398" y="-42.5" font-family="Helvetica,sans-Serif" font-size="10.00">PerceptualColor::SimpleColor</text>
<text text-anchor="middle" x="469.5" y="-31.5" font-family="Helvetica,sans-Serif" font-size="10.00">Wheel::generateWheelImage</text>
</a>
</g>
</g>
<!-- Node2 -->
<g id="node2" class="node">
<title>Node2</title>
<g id="a_node2"><a xlink:href="class_perceptual_color_1_1_chroma_hue_diagram.html#a7d8f858f515726d5e171b8e150c6ec2b" target="_top" xlink:title="Refresh the wheel and associated data.">
<polygon fill="white" stroke="black" points="195,-49.5 195,-79.5 354,-79.5 354,-49.5 195,-49.5"/>
<text text-anchor="start" x="203" y="-67.5" font-family="Helvetica,sans-Serif" font-size="10.00">PerceptualColor::ChromaHue</text>
<text text-anchor="middle" x="274.5" y="-56.5" font-family="Helvetica,sans-Serif" font-size="10.00">Diagram::updateWheelCache</text>
</a>
</g>
</g>
<!-- Node1&#45;&gt;Node2 -->
<g id="edge1" class="edge">
<title>Node1&#45;&gt;Node2</title>
<path fill="none" stroke="midnightblue" d="M379.98,-50.97C371.39,-52.08 362.72,-53.2 354.24,-54.3"/>
<polygon fill="midnightblue" stroke="midnightblue" points="380.53,-54.42 390,-49.67 379.63,-47.48 380.53,-54.42"/>
</g>
<!-- Node4 -->
<g id="node4" class="node">
<title>Node4</title>
<g id="a_node4"><a xlink:href="class_perceptual_color_1_1_simple_color_wheel.html#ac454a7cd994298cad632b343c2efe6ba" target="_top" xlink:title="Refresh the wheel ribbon pixmap.">
<polygon fill="white" stroke="black" points="195,-0.5 195,-30.5 354,-30.5 354,-0.5 195,-0.5"/>
<text text-anchor="start" x="203" y="-18.5" font-family="Helvetica,sans-Serif" font-size="10.00">PerceptualColor::SimpleColor</text>
<text text-anchor="middle" x="274.5" y="-7.5" font-family="Helvetica,sans-Serif" font-size="10.00">Wheel::updateWheelImage</text>
</a>
</g>
</g>
<!-- Node1&#45;&gt;Node4 -->
<g id="edge3" class="edge">
<title>Node1&#45;&gt;Node4</title>
<path fill="none" stroke="midnightblue" d="M379.98,-28.49C371.39,-27.42 362.72,-26.35 354.24,-25.29"/>
<polygon fill="midnightblue" stroke="midnightblue" points="379.64,-31.98 390,-29.74 380.51,-25.03 379.64,-31.98"/>
</g>
<!-- Node3 -->
<g id="node3" class="node">
<title>Node3</title>
<g id="a_node3"><a xlink:href="class_perceptual_color_1_1_chroma_hue_diagram.html#ad7709d55647d4a6842f34a5dd10cb2a9" target="_top" xlink:title="Paint the widget.">
<polygon fill="white" stroke="black" points="0.5,-49.5 0.5,-79.5 158.5,-79.5 158.5,-49.5 0.5,-49.5"/>
<text text-anchor="start" x="8.5" y="-67.5" font-family="Helvetica,sans-Serif" font-size="10.00">PerceptualColor::ChromaHue</text>
<text text-anchor="middle" x="79.5" y="-56.5" font-family="Helvetica,sans-Serif" font-size="10.00">Diagram::paintEvent</text>
</a>
</g>
</g>
<!-- Node2&#45;&gt;Node3 -->
<g id="edge2" class="edge">
<title>Node2&#45;&gt;Node3</title>
<path fill="none" stroke="midnightblue" d="M184.8,-64.5C176.06,-64.5 167.24,-64.5 158.62,-64.5"/>
<polygon fill="midnightblue" stroke="midnightblue" points="185,-68 195,-64.5 185,-61 185,-68"/>
</g>
<!-- Node5 -->
<g id="node5" class="node">
<title>Node5</title>
<g id="a_node5"><a xlink:href="class_perceptual_color_1_1_simple_color_wheel.html#acec7e14aa3949bb3a1afd03a9d9cc15b" target="_top" xlink:title="Paint the widget.">
<polygon fill="white" stroke="black" points="0,-0.5 0,-30.5 159,-30.5 159,-0.5 0,-0.5"/>
<text text-anchor="start" x="8" y="-18.5" font-family="Helvetica,sans-Serif" font-size="10.00">PerceptualColor::SimpleColor</text>
<text text-anchor="middle" x="79.5" y="-7.5" font-family="Helvetica,sans-Serif" font-size="10.00">Wheel::paintEvent</text>
</a>
</g>
</g>
<!-- Node4&#45;&gt;Node5 -->
<g id="edge4" class="edge">
<title>Node4&#45;&gt;Node5</title>
<path fill="none" stroke="midnightblue" d="M184.98,-15.5C176.39,-15.5 167.72,-15.5 159.24,-15.5"/>
<polygon fill="midnightblue" stroke="midnightblue" points="185,-19 195,-15.5 185,-12 185,-19"/>
</g>
</g>
</svg>
