<?xml version="1.0" encoding="UTF-8" standalone="no"?>
<!DOCTYPE svg PUBLIC "-//W3C//DTD SVG 1.1//EN"
 "http://www.w3.org/Graphics/SVG/1.1/DTD/svg11.dtd">
<!-- Generated by graphviz version 2.43.0 (0)
 -->
<!-- Title: PerceptualColor::ChromaHueDiagram Pages: 1 -->
<svg width="741pt" height="137pt"
 viewBox="0.00 0.00 741.00 137.00" xmlns="http://www.w3.org/2000/svg" xmlns:xlink="http://www.w3.org/1999/xlink">
<g id="graph0" class="graph" transform="scale(1 1) rotate(0) translate(4 133)">
<title>PerceptualColor::ChromaHueDiagram</title>
<polygon fill="white" stroke="transparent" points="-4,4 -4,-133 737,-133 737,4 -4,4"/>
<!-- Node1 -->
<g id="node1" class="node">
<title>Node1</title>
<g id="a_node1"><a xlink:title="A widget for selecting chroma and hue in LCh color space.">
<polygon fill="#bfbfbf" stroke="black" points="575,-49.5 575,-79.5 733,-79.5 733,-49.5 575,-49.5"/>
<text text-anchor="start" x="583" y="-67.5" font-family="Helvetica,sans-Serif" font-size="10.00">PerceptualColor::ChromaHue</text>
<text text-anchor="middle" x="654" y="-56.5" font-family="Helvetica,sans-Serif" font-size="10.00">Diagram</text>
</a>
</g>
</g>
<!-- Node2 -->
<g id="node2" class="node">
<title>Node2</title>
<g id="a_node2"><a xlink:href="class_perceptual_color_1_1_circular_diagram.html" target="_top" xlink:title="Base class for circular diagrams.">
<polygon fill="white" stroke="black" points="309.5,-98.5 309.5,-128.5 446.5,-128.5 446.5,-98.5 309.5,-98.5"/>
<text text-anchor="start" x="317.5" y="-116.5" font-family="Helvetica,sans-Serif" font-size="10.00">PerceptualColor::Circular</text>
<text text-anchor="middle" x="378" y="-105.5" font-family="Helvetica,sans-Serif" font-size="10.00">Diagram</text>
</a>
</g>
</g>
<!-- Node2&#45;&gt;Node1 -->
<g id="edge1" class="edge">
<title>Node2&#45;&gt;Node1</title>
<path fill="none" stroke="midnightblue" d="M456.95,-99.56C493.9,-92.95 537.93,-85.08 574.9,-78.47"/>
<polygon fill="midnightblue" stroke="midnightblue" points="455.96,-96.18 446.73,-101.39 457.19,-103.07 455.96,-96.18"/>
</g>
<!-- Node3 -->
<g id="node3" class="node">
<title>Node3</title>
<g id="a_node3"><a xlink:href="class_perceptual_color_1_1_abstract_diagram.html" target="_top" xlink:title="Base class for LCh diagrams.">
<polygon fill="white" stroke="black" points="96,-98.5 96,-128.5 236,-128.5 236,-98.5 96,-98.5"/>
<text text-anchor="start" x="104" y="-116.5" font-family="Helvetica,sans-Serif" font-size="10.00">PerceptualColor::Abstract</text>
<text text-anchor="middle" x="166" y="-105.5" font-family="Helvetica,sans-Serif" font-size="10.00">Diagram</text>
</a>
</g>
</g>
<!-- Node3&#45;&gt;Node2 -->
<g id="edge2" class="edge">
<title>Node3&#45;&gt;Node2</title>
<path fill="none" stroke="midnightblue" d="M246.14,-113.5C266.94,-113.5 289.19,-113.5 309.34,-113.5"/>
<polygon fill="midnightblue" stroke="midnightblue" points="246.05,-110 236.05,-113.5 246.05,-117 246.05,-110"/>
</g>
<!-- Node4 -->
<g id="node4" class="node">
<title>Node4</title>
<g id="a_node4"><a xlink:title=" ">
<polygon fill="white" stroke="#bfbfbf" points="0,-104 0,-123 59,-123 59,-104 0,-104"/>
<text text-anchor="middle" x="29.5" y="-111" font-family="Helvetica,sans-Serif" font-size="10.00">QWidget</text>
</a>
</g>
</g>
<!-- Node4&#45;&gt;Node3 -->
<g id="edge3" class="edge">
<title>Node4&#45;&gt;Node3</title>
<path fill="none" stroke="midnightblue" d="M69.2,-113.5C77.58,-113.5 86.68,-113.5 95.84,-113.5"/>
<polygon fill="midnightblue" stroke="midnightblue" points="69.02,-110 59.02,-113.5 69.02,-117 69.02,-110"/>
</g>
<!-- Node5 -->
<g id="node5" class="node">
<title>Node5</title>
<g id="a_node5"><a xlink:href="class_perceptual_color_1_1_full_color_description.html" target="_top" xlink:title="A fully qualified color.">
<polygon fill="white" stroke="black" points="306.5,-49.5 306.5,-79.5 449.5,-79.5 449.5,-49.5 306.5,-49.5"/>
<text text-anchor="start" x="314.5" y="-67.5" font-family="Helvetica,sans-Serif" font-size="10.00">PerceptualColor::FullColor</text>
<text text-anchor="middle" x="378" y="-56.5" font-family="Helvetica,sans-Serif" font-size="10.00">Description</text>
</a>
</g>
</g>
<!-- Node5&#45;&gt;Node1 -->
<g id="edge4" class="edge">
<title>Node5&#45;&gt;Node1</title>
<path fill="none" stroke="#9a32cd" stroke-dasharray="5,2" d="M459.65,-64.5C496.05,-64.5 538.87,-64.5 574.96,-64.5"/>
<polygon fill="#9a32cd" stroke="#9a32cd" points="459.56,-61 449.56,-64.5 459.56,-68 459.56,-61"/>
<text text-anchor="middle" x="512.5" y="-67.5" font-family="Helvetica,sans-Serif" font-size="10.00"> m_color</text>
</g>
<!-- Node6 -->
<g id="node6" class="node">
<title>Node6</title>
<g id="a_node6"><a xlink:href="struct_perceptual_color_1_1_helper_1_1cms_r_g_b.html" target="_top" xlink:title="An RGB color.">
<polygon fill="white" stroke="black" points="100,-49.5 100,-79.5 232,-79.5 232,-49.5 100,-49.5"/>
<text text-anchor="start" x="108" y="-67.5" font-family="Helvetica,sans-Serif" font-size="10.00">PerceptualColor::Helper</text>
<text text-anchor="middle" x="166" y="-56.5" font-family="Helvetica,sans-Serif" font-size="10.00">::cmsRGB</text>
</a>
</g>
</g>
<!-- Node6&#45;&gt;Node5 -->
<g id="edge5" class="edge">
<title>Node6&#45;&gt;Node5</title>
<path fill="none" stroke="#9a32cd" stroke-dasharray="5,2" d="M242.14,-64.5C263.1,-64.5 285.78,-64.5 306.46,-64.5"/>
<polygon fill="#9a32cd" stroke="#9a32cd" points="242.01,-61 232.01,-64.5 242.01,-68 242.01,-61"/>
<text text-anchor="middle" x="271" y="-67.5" font-family="Helvetica,sans-Serif" font-size="10.00"> m_rgb</text>
</g>
<!-- Node7 -->
<g id="node7" class="node">
<title>Node7</title>
<g id="a_node7"><a xlink:href="class_perceptual_color_1_1_rgb_color_space.html" target="_top" xlink:title="Interface to LittleCMS for working with an RGB color space.">
<polygon fill="white" stroke="black" points="306,-0.5 306,-30.5 450,-30.5 450,-0.5 306,-0.5"/>
<text text-anchor="start" x="314" y="-18.5" font-family="Helvetica,sans-Serif" font-size="10.00">PerceptualColor::RgbColor</text>
<text text-anchor="middle" x="378" y="-7.5" font-family="Helvetica,sans-Serif" font-size="10.00">Space</text>
</a>
</g>
</g>
<!-- Node7&#45;&gt;Node1 -->
<g id="edge6" class="edge">
<title>Node7&#45;&gt;Node1</title>
<path fill="none" stroke="#9a32cd" stroke-dasharray="5,2" d="M460.31,-30.04C496.54,-36.52 539.01,-44.12 574.86,-50.53"/>
<polygon fill="#9a32cd" stroke="#9a32cd" points="460.73,-26.56 450.28,-28.25 459.5,-33.45 460.73,-26.56"/>
<text text-anchor="middle" x="512.5" y="-50.5" font-family="Helvetica,sans-Serif" font-size="10.00"> m_rgbColorSpace</text>
</g>
<!-- Node8 -->
<g id="node8" class="node">
<title>Node8</title>
<g id="a_node8"><a xlink:title=" ">
<polygon fill="white" stroke="#bfbfbf" points="138,-6 138,-25 194,-25 194,-6 138,-6"/>
<text text-anchor="middle" x="166" y="-13" font-family="Helvetica,sans-Serif" font-size="10.00">QObject</text>
</a>
</g>
</g>
<!-- Node8&#45;&gt;Node7 -->
<g id="edge7" class="edge">
<title>Node8&#45;&gt;Node7</title>
<path fill="none" stroke="midnightblue" d="M204.21,-15.5C232.33,-15.5 271.77,-15.5 305.87,-15.5"/>
<polygon fill="midnightblue" stroke="midnightblue" points="204.02,-12 194.02,-15.5 204.02,-19 204.02,-12"/>
</g>
</g>
</svg>
