<?xml version="1.0" encoding="UTF-8" standalone="no"?>
<!DOCTYPE svg PUBLIC "-//W3C//DTD SVG 1.1//EN"
 "http://www.w3.org/Graphics/SVG/1.1/DTD/svg11.dtd">
<!-- Generated by graphviz version 2.43.0 (0)
 -->
<!-- Title: PerceptualColor::ChromaHueDiagram::mousePressEvent Pages: 1 -->
<svg width="840pt" height="209pt"
 viewBox="0.00 0.00 840.00 209.36" xmlns="http://www.w3.org/2000/svg" xmlns:xlink="http://www.w3.org/1999/xlink">
<g id="graph0" class="graph" transform="scale(1 1) rotate(0) translate(4 205.36)">
<title>PerceptualColor::ChromaHueDiagram::mousePressEvent</title>
<polygon fill="white" stroke="transparent" points="-4,4 -4,-205.36 836,-205.36 836,4 -4,4"/>
<!-- Node1 -->
<g id="node1" class="node">
<title>Node1</title>
<g id="a_node1"><a xlink:title="React on a mouse press event.">
<polygon fill="#bfbfbf" stroke="black" points="0,-99.86 0,-129.86 158,-129.86 158,-99.86 0,-99.86"/>
<text text-anchor="start" x="8" y="-117.86" font-family="Helvetica,sans-Serif" font-size="10.00">PerceptualColor::ChromaHue</text>
<text text-anchor="middle" x="79" y="-106.86" font-family="Helvetica,sans-Serif" font-size="10.00">Diagram::mousePressEvent</text>
</a>
</g>
</g>
<!-- Node2 -->
<g id="node2" class="node">
<title>Node2</title>
<g id="a_node2"><a xlink:href="class_perceptual_color_1_1_chroma_hue_diagram.html#aa447440e88450057faa8bfc5f31dfb46" target="_top" xlink:title="Tests if image coordinates are within the diagram surface.">
<polygon fill="white" stroke="black" points="203,-143.36 203,-184.36 404,-184.36 404,-143.36 203,-143.36"/>
<text text-anchor="start" x="211" y="-172.36" font-family="Helvetica,sans-Serif" font-size="10.00">PerceptualColor::ChromaHue</text>
<text text-anchor="start" x="211" y="-161.36" font-family="Helvetica,sans-Serif" font-size="10.00">Diagram::areImageCoordinatesWithin</text>
<text text-anchor="middle" x="303.5" y="-150.36" font-family="Helvetica,sans-Serif" font-size="10.00">DiagramSurface</text>
</a>
</g>
</g>
<!-- Node1&#45;&gt;Node2 -->
<g id="edge1" class="edge">
<title>Node1&#45;&gt;Node2</title>
<path fill="none" stroke="midnightblue" d="M148.27,-129.89C164.39,-133.44 181.94,-137.31 199.23,-141.11"/>
<polygon fill="midnightblue" stroke="midnightblue" points="198.85,-144.61 209.37,-143.35 200.36,-137.78 198.85,-144.61"/>
</g>
<!-- Node4 -->
<g id="node4" class="node">
<title>Node4</title>
<g id="a_node4"><a xlink:href="class_perceptual_color_1_1_chroma_hue_diagram.html#a65ff87dfbc2ffa5d71b5e58c30d3b39c" target="_top" xlink:title="Sets the color property corresponding to given widget coordinates.">
<polygon fill="white" stroke="black" points="194,-72.86 194,-102.86 413,-102.86 413,-72.86 194,-72.86"/>
<text text-anchor="start" x="202" y="-90.86" font-family="Helvetica,sans-Serif" font-size="10.00">PerceptualColor::ChromaHue</text>
<text text-anchor="middle" x="303.5" y="-79.86" font-family="Helvetica,sans-Serif" font-size="10.00">Diagram::setColorFromImageCoordinates</text>
</a>
</g>
</g>
<!-- Node1&#45;&gt;Node4 -->
<g id="edge3" class="edge">
<title>Node1&#45;&gt;Node4</title>
<path fill="none" stroke="midnightblue" d="M158.13,-105.38C166.41,-104.37 174.96,-103.33 183.57,-102.29"/>
<polygon fill="midnightblue" stroke="midnightblue" points="184.19,-105.74 193.7,-101.06 183.35,-98.79 184.19,-105.74"/>
</g>
<!-- Node3 -->
<g id="node3" class="node">
<title>Node3</title>
<g id="a_node3"><a xlink:href="class_perceptual_color_1_1_polar_point_f.html#ad9e45debe2dc38bbba834d791336f1fd" target="_top" xlink:title="Normalized radial.">
<polygon fill="white" stroke="black" points="476.5,-170.86 476.5,-200.86 625.5,-200.86 625.5,-170.86 476.5,-170.86"/>
<text text-anchor="start" x="484.5" y="-188.86" font-family="Helvetica,sans-Serif" font-size="10.00">PerceptualColor::PolarPoint</text>
<text text-anchor="middle" x="551" y="-177.86" font-family="Helvetica,sans-Serif" font-size="10.00">F::radial</text>
</a>
</g>
</g>
<!-- Node2&#45;&gt;Node3 -->
<g id="edge2" class="edge">
<title>Node2&#45;&gt;Node3</title>
<path fill="none" stroke="midnightblue" d="M404,-172.77C424.69,-174.63 446.3,-176.56 466.36,-178.36"/>
<polygon fill="midnightblue" stroke="midnightblue" points="466.1,-181.85 476.38,-179.26 466.73,-174.88 466.1,-181.85"/>
</g>
<!-- Node5 -->
<g id="node5" class="node">
<title>Node5</title>
<g id="a_node5"><a xlink:href="class_perceptual_color_1_1_chroma_hue_diagram.html#a82bab0738efff92bf357584527f85b65" target="_top" xlink:title=" ">
<polygon fill="white" stroke="black" points="450.5,-121.86 450.5,-151.86 651.5,-151.86 651.5,-121.86 450.5,-121.86"/>
<text text-anchor="start" x="458.5" y="-139.86" font-family="Helvetica,sans-Serif" font-size="10.00">PerceptualColor::ChromaHue</text>
<text text-anchor="middle" x="551" y="-128.86" font-family="Helvetica,sans-Serif" font-size="10.00">Diagram::fromImageCoordinatesToAB</text>
</a>
</g>
</g>
<!-- Node4&#45;&gt;Node5 -->
<g id="edge4" class="edge">
<title>Node4&#45;&gt;Node5</title>
<path fill="none" stroke="midnightblue" d="M379.83,-102.89C406.69,-108.25 437.14,-114.33 464.77,-119.85"/>
<polygon fill="midnightblue" stroke="midnightblue" points="464.32,-123.33 474.82,-121.85 465.69,-116.46 464.32,-123.33"/>
</g>
<!-- Node6 -->
<g id="node6" class="node">
<title>Node6</title>
<g id="a_node6"><a xlink:href="class_perceptual_color_1_1_chroma_hue_diagram.html#a3a62b8d0b33df74dacd6150865c57382" target="_top" xlink:title=" ">
<polygon fill="white" stroke="black" points="449,-72.86 449,-102.86 653,-102.86 653,-72.86 449,-72.86"/>
<text text-anchor="start" x="457" y="-90.86" font-family="Helvetica,sans-Serif" font-size="10.00">PerceptualColor::ChromaHue</text>
<text text-anchor="middle" x="551" y="-79.86" font-family="Helvetica,sans-Serif" font-size="10.00">Diagram::imageCoordinatesFromColor</text>
</a>
</g>
</g>
<!-- Node4&#45;&gt;Node6 -->
<g id="edge5" class="edge">
<title>Node4&#45;&gt;Node6</title>
<path fill="none" stroke="midnightblue" d="M413.25,-87.86C421.64,-87.86 430.12,-87.86 438.52,-87.86"/>
<polygon fill="midnightblue" stroke="midnightblue" points="438.73,-91.36 448.73,-87.86 438.73,-84.36 438.73,-91.36"/>
</g>
<!-- Node8 -->
<g id="node8" class="node">
<title>Node8</title>
<g id="a_node8"><a xlink:href="class_perceptual_color_1_1_chroma_hue_diagram.html#a443db20bc2c25119febcd61ca9299d21" target="_top" xlink:title="Setter for the color() property.">
<polygon fill="white" stroke="black" points="472,-23.86 472,-53.86 630,-53.86 630,-23.86 472,-23.86"/>
<text text-anchor="start" x="480" y="-41.86" font-family="Helvetica,sans-Serif" font-size="10.00">PerceptualColor::ChromaHue</text>
<text text-anchor="middle" x="551" y="-30.86" font-family="Helvetica,sans-Serif" font-size="10.00">Diagram::setColor</text>
</a>
</g>
</g>
<!-- Node4&#45;&gt;Node8 -->
<g id="edge7" class="edge">
<title>Node4&#45;&gt;Node8</title>
<path fill="none" stroke="midnightblue" d="M379.83,-72.82C406.69,-67.46 437.14,-61.38 464.77,-55.87"/>
<polygon fill="midnightblue" stroke="midnightblue" points="465.69,-59.25 474.82,-53.86 464.32,-52.39 465.69,-59.25"/>
</g>
<!-- Node9 -->
<g id="node9" class="node">
<title>Node9</title>
<g id="a_node9"><a xlink:href="class_perceptual_color_1_1_full_color_description.html#acdbff4639f8a118f0d13a831a4b57ffe" target="_top" xlink:title=" ">
<polygon fill="white" stroke="black" points="689,-1.86 689,-31.86 832,-31.86 832,-1.86 689,-1.86"/>
<text text-anchor="start" x="697" y="-19.86" font-family="Helvetica,sans-Serif" font-size="10.00">PerceptualColor::FullColor</text>
<text text-anchor="middle" x="760.5" y="-8.86" font-family="Helvetica,sans-Serif" font-size="10.00">Description::toLch</text>
</a>
</g>
</g>
<!-- Node4&#45;&gt;Node9 -->
<g id="edge9" class="edge">
<title>Node4&#45;&gt;Node9</title>
<path fill="none" stroke="midnightblue" d="M325.74,-72.85C352.84,-54.72 401.87,-25.22 449,-13.86 525.2,4.52 615.01,1.05 678.39,-5.37"/>
<polygon fill="midnightblue" stroke="midnightblue" points="678.4,-8.89 688.72,-6.47 679.14,-1.93 678.4,-8.89"/>
</g>
<!-- Node7 -->
<g id="node7" class="node">
<title>Node7</title>
<g id="a_node7"><a xlink:href="class_perceptual_color_1_1_full_color_description.html#a26e4ea239adaeeb9237e9655b1cab9e5" target="_top" xlink:title=" ">
<polygon fill="white" stroke="black" points="689,-72.86 689,-102.86 832,-102.86 832,-72.86 689,-72.86"/>
<text text-anchor="start" x="697" y="-90.86" font-family="Helvetica,sans-Serif" font-size="10.00">PerceptualColor::FullColor</text>
<text text-anchor="middle" x="760.5" y="-79.86" font-family="Helvetica,sans-Serif" font-size="10.00">Description::toLab</text>
</a>
</g>
</g>
<!-- Node6&#45;&gt;Node7 -->
<g id="edge6" class="edge">
<title>Node6&#45;&gt;Node7</title>
<path fill="none" stroke="midnightblue" d="M653.01,-87.86C661.66,-87.86 670.33,-87.86 678.79,-87.86"/>
<polygon fill="midnightblue" stroke="midnightblue" points="678.98,-91.36 688.98,-87.86 678.98,-84.36 678.98,-91.36"/>
</g>
<!-- Node8&#45;&gt;Node9 -->
<g id="edge8" class="edge">
<title>Node8&#45;&gt;Node9</title>
<path fill="none" stroke="midnightblue" d="M630.15,-30.57C645.98,-28.89 662.66,-27.12 678.59,-25.44"/>
<polygon fill="midnightblue" stroke="midnightblue" points="679.35,-28.87 688.93,-24.34 678.62,-21.91 679.35,-28.87"/>
</g>
</g>
</svg>
