<?xml version="1.0" encoding="UTF-8" standalone="no"?>
<!DOCTYPE svg PUBLIC "-//W3C//DTD SVG 1.1//EN"
 "http://www.w3.org/Graphics/SVG/1.1/DTD/svg11.dtd">
<!-- Generated by graphviz version 2.43.0 (0)
 -->
<!-- Title: PerceptualColor::FullColorDescription::alpha Pages: 1 -->
<svg width="746pt" height="176pt"
 viewBox="0.00 0.00 746.00 176.00" xmlns="http://www.w3.org/2000/svg" xmlns:xlink="http://www.w3.org/1999/xlink">
<g id="graph0" class="graph" transform="scale(1 1) rotate(0) translate(4 172)">
<title>PerceptualColor::FullColorDescription::alpha</title>
<polygon fill="white" stroke="transparent" points="-4,4 -4,-172 742,-172 742,4 -4,4"/>
<!-- Node1 -->
<g id="node1" class="node">
<title>Node1</title>
<g id="a_node1"><a xlink:title=" ">
<polygon fill="#bfbfbf" stroke="black" points="595,-66.5 595,-96.5 738,-96.5 738,-66.5 595,-66.5"/>
<text text-anchor="start" x="603" y="-84.5" font-family="Helvetica,sans-Serif" font-size="10.00">PerceptualColor::FullColor</text>
<text text-anchor="middle" x="666.5" y="-73.5" font-family="Helvetica,sans-Serif" font-size="10.00">Description::alpha</text>
</a>
</g>
</g>
<!-- Node2 -->
<g id="node2" class="node">
<title>Node2</title>
<g id="a_node2"><a xlink:href="class_perceptual_color_1_1_full_color_description.html#aa2dcf30047c54b1c4acb8a1da5dacabf" target="_top" xlink:title="Constructor.">
<polygon fill="white" stroke="black" points="383,-137.5 383,-167.5 559,-167.5 559,-137.5 383,-137.5"/>
<text text-anchor="start" x="391" y="-155.5" font-family="Helvetica,sans-Serif" font-size="10.00">PerceptualColor::FullColor</text>
<text text-anchor="middle" x="471" y="-144.5" font-family="Helvetica,sans-Serif" font-size="10.00">Description::FullColorDescription</text>
</a>
</g>
</g>
<!-- Node1&#45;&gt;Node2 -->
<g id="edge1" class="edge">
<title>Node1&#45;&gt;Node2</title>
<path fill="none" stroke="midnightblue" d="M625.04,-101.03C605.38,-110.08 581.25,-120.57 559,-128.5 550.14,-131.66 540.66,-134.65 531.33,-137.39"/>
<polygon fill="midnightblue" stroke="midnightblue" points="626.71,-104.11 634.3,-96.72 623.76,-97.76 626.71,-104.11"/>
</g>
<!-- Node3 -->
<g id="node3" class="node">
<title>Node3</title>
<g id="a_node3"><a xlink:href="class_perceptual_color_1_1_gradient_selector.html#a50318272b416bf157164a8c99daa79fc" target="_top" xlink:title=" ">
<polygon fill="white" stroke="black" points="395.5,-88.5 395.5,-118.5 546.5,-118.5 546.5,-88.5 395.5,-88.5"/>
<text text-anchor="start" x="403.5" y="-106.5" font-family="Helvetica,sans-Serif" font-size="10.00">PerceptualColor::Gradient</text>
<text text-anchor="middle" x="471" y="-95.5" font-family="Helvetica,sans-Serif" font-size="10.00">Selector::intermediateColor</text>
</a>
</g>
</g>
<!-- Node1&#45;&gt;Node3 -->
<g id="edge2" class="edge">
<title>Node1&#45;&gt;Node3</title>
<path fill="none" stroke="midnightblue" d="M584.8,-90.68C572.18,-92.11 559.19,-93.59 546.72,-95"/>
<polygon fill="midnightblue" stroke="midnightblue" points="585.28,-94.14 594.82,-89.54 584.49,-87.19 585.28,-94.14"/>
</g>
<!-- Node6 -->
<g id="node6" class="node">
<title>Node6</title>
<g id="a_node6"><a xlink:href="namespace_perceptual_color.html#a620b7112ca52bb01e49162724d26887f" target="_top" xlink:title="Adds QDebug() support for this data type.">
<polygon fill="white" stroke="black" points="392,-50 392,-69 550,-69 550,-50 392,-50"/>
<text text-anchor="middle" x="471" y="-57" font-family="Helvetica,sans-Serif" font-size="10.00">PerceptualColor::operator&lt;&lt;</text>
</a>
</g>
</g>
<!-- Node1&#45;&gt;Node6 -->
<g id="edge5" class="edge">
<title>Node1&#45;&gt;Node6</title>
<path fill="none" stroke="midnightblue" d="M584.8,-72.32C573.29,-71.02 561.46,-69.67 550,-68.37"/>
<polygon fill="midnightblue" stroke="midnightblue" points="584.49,-75.81 594.82,-73.46 585.28,-68.86 584.49,-75.81"/>
</g>
<!-- Node7 -->
<g id="node7" class="node">
<title>Node7</title>
<g id="a_node7"><a xlink:href="class_perceptual_color_1_1_full_color_description.html#aba8dbc8e5d45bf610d191157be0c309d" target="_top" xlink:title=" ">
<polygon fill="white" stroke="black" points="399.5,-0.5 399.5,-30.5 542.5,-30.5 542.5,-0.5 399.5,-0.5"/>
<text text-anchor="start" x="407.5" y="-18.5" font-family="Helvetica,sans-Serif" font-size="10.00">PerceptualColor::FullColor</text>
<text text-anchor="middle" x="471" y="-7.5" font-family="Helvetica,sans-Serif" font-size="10.00">Description::setAlpha</text>
</a>
</g>
</g>
<!-- Node1&#45;&gt;Node7 -->
<g id="edge6" class="edge">
<title>Node1&#45;&gt;Node7</title>
<path fill="none" stroke="midnightblue" d="M619.4,-62.74C600.77,-55.43 578.99,-47.21 559,-40.5 548.72,-37.05 537.66,-33.65 526.99,-30.51"/>
<polygon fill="midnightblue" stroke="midnightblue" points="618.24,-66.04 628.82,-66.47 620.81,-59.53 618.24,-66.04"/>
</g>
<!-- Node4 -->
<g id="node4" class="node">
<title>Node4</title>
<g id="a_node4"><a xlink:href="class_perceptual_color_1_1_gradient_selector.html#a82a87ec1701c4db18f821c3b35026e90" target="_top" xlink:title=" ">
<polygon fill="white" stroke="black" points="178,-88.5 178,-118.5 347,-118.5 347,-88.5 178,-88.5"/>
<text text-anchor="start" x="186" y="-106.5" font-family="Helvetica,sans-Serif" font-size="10.00">PerceptualColor::Gradient</text>
<text text-anchor="middle" x="262.5" y="-95.5" font-family="Helvetica,sans-Serif" font-size="10.00">Selector::updateGradientImage</text>
</a>
</g>
</g>
<!-- Node3&#45;&gt;Node4 -->
<g id="edge3" class="edge">
<title>Node3&#45;&gt;Node4</title>
<path fill="none" stroke="midnightblue" d="M385.39,-103.5C372.73,-103.5 359.68,-103.5 347.04,-103.5"/>
<polygon fill="midnightblue" stroke="midnightblue" points="385.45,-107 395.45,-103.5 385.45,-100 385.45,-107"/>
</g>
<!-- Node5 -->
<g id="node5" class="node">
<title>Node5</title>
<g id="a_node5"><a xlink:href="class_perceptual_color_1_1_gradient_selector.html#a749286260e19cc0c9ddd93c431c410da" target="_top" xlink:title=" ">
<polygon fill="white" stroke="black" points="0,-88.5 0,-118.5 142,-118.5 142,-88.5 0,-88.5"/>
<text text-anchor="start" x="8" y="-106.5" font-family="Helvetica,sans-Serif" font-size="10.00">PerceptualColor::Gradient</text>
<text text-anchor="middle" x="71" y="-95.5" font-family="Helvetica,sans-Serif" font-size="10.00">Selector::paintEvent</text>
</a>
</g>
</g>
<!-- Node4&#45;&gt;Node5 -->
<g id="edge4" class="edge">
<title>Node4&#45;&gt;Node5</title>
<path fill="none" stroke="midnightblue" d="M167.75,-103.5C159.15,-103.5 150.53,-103.5 142.19,-103.5"/>
<polygon fill="midnightblue" stroke="midnightblue" points="167.83,-107 177.83,-103.5 167.83,-100 167.83,-107"/>
</g>
</g>
</svg>
