<?xml version="1.0" encoding="UTF-8" standalone="no"?>
<!DOCTYPE svg PUBLIC "-//W3C//DTD SVG 1.1//EN"
 "http://www.w3.org/Graphics/SVG/1.1/DTD/svg11.dtd">
<!-- Generated by graphviz version 2.43.0 (0)
 -->
<!-- Title: PerceptualColor::ChromaHueDiagram::paintEvent Pages: 1 -->
<svg width="1003pt" height="367pt"
 viewBox="0.00 0.00 1003.00 366.61" xmlns="http://www.w3.org/2000/svg" xmlns:xlink="http://www.w3.org/1999/xlink">
<g id="graph0" class="graph" transform="scale(1 1) rotate(0) translate(4 362.61)">
<title>PerceptualColor::ChromaHueDiagram::paintEvent</title>
<polygon fill="white" stroke="transparent" points="-4,4 -4,-362.61 999,-362.61 999,4 -4,4"/>
<!-- Node1 -->
<g id="node1" class="node">
<title>Node1</title>
<g id="a_node1"><a xlink:title="Paint the widget.">
<polygon fill="#bfbfbf" stroke="black" points="0,-159.5 0,-189.5 158,-189.5 158,-159.5 0,-159.5"/>
<text text-anchor="start" x="8" y="-177.5" font-family="Helvetica,sans-Serif" font-size="10.00">PerceptualColor::ChromaHue</text>
<text text-anchor="middle" x="79" y="-166.5" font-family="Helvetica,sans-Serif" font-size="10.00">Diagram::paintEvent</text>
</a>
</g>
</g>
<!-- Node2 -->
<g id="node2" class="node">
<title>Node2</title>
<g id="a_node2"><a xlink:href="class_perceptual_color_1_1_polar_point_f.html#a882cd166affc603fc62241dcb3be4fd5" target="_top" xlink:title="Normalized angle.">
<polygon fill="white" stroke="black" points="651,-316.5 651,-346.5 800,-346.5 800,-316.5 651,-316.5"/>
<text text-anchor="start" x="659" y="-334.5" font-family="Helvetica,sans-Serif" font-size="10.00">PerceptualColor::PolarPoint</text>
<text text-anchor="middle" x="725.5" y="-323.5" font-family="Helvetica,sans-Serif" font-size="10.00">F::angleDegree</text>
</a>
</g>
</g>
<!-- Node1&#45;&gt;Node2 -->
<g id="edge1" class="edge">
<title>Node1&#45;&gt;Node2</title>
<path fill="none" stroke="midnightblue" d="M87.84,-189.66C103.54,-218.19 141.85,-279.26 194,-304.5 338.48,-374.45 531.75,-361.76 640.66,-346.47"/>
<polygon fill="midnightblue" stroke="midnightblue" points="641.21,-349.92 650.61,-345.03 640.21,-343 641.21,-349.92"/>
</g>
<!-- Node3 -->
<g id="node3" class="node">
<title>Node3</title>
<g id="a_node3"><a xlink:href="class_perceptual_color_1_1_rgb_color_space.html#a597d093bcc9c79444792359569e537b4" target="_top" xlink:title="Calculates the RGB value.">
<polygon fill="white" stroke="black" points="653.5,-169.5 653.5,-199.5 797.5,-199.5 797.5,-169.5 653.5,-169.5"/>
<text text-anchor="start" x="661.5" y="-187.5" font-family="Helvetica,sans-Serif" font-size="10.00">PerceptualColor::RgbColor</text>
<text text-anchor="middle" x="725.5" y="-176.5" font-family="Helvetica,sans-Serif" font-size="10.00">Space::colorRgbBound</text>
</a>
</g>
</g>
<!-- Node1&#45;&gt;Node3 -->
<g id="edge2" class="edge">
<title>Node1&#45;&gt;Node3</title>
<path fill="none" stroke="midnightblue" d="M158.19,-176.69C170.18,-176.99 182.42,-177.27 194,-177.5 353.08,-180.64 539.03,-182.73 643.15,-183.76"/>
<polygon fill="midnightblue" stroke="midnightblue" points="643.24,-187.26 653.28,-183.86 643.31,-180.26 643.24,-187.26"/>
</g>
<!-- Node5 -->
<g id="node5" class="node">
<title>Node5</title>
<g id="a_node5"><a xlink:href="class_perceptual_color_1_1_chroma_hue_diagram.html#a3a62b8d0b33df74dacd6150865c57382" target="_top" xlink:title=" ">
<polygon fill="white" stroke="black" points="194,-49.5 194,-79.5 398,-79.5 398,-49.5 194,-49.5"/>
<text text-anchor="start" x="202" y="-67.5" font-family="Helvetica,sans-Serif" font-size="10.00">PerceptualColor::ChromaHue</text>
<text text-anchor="middle" x="296" y="-56.5" font-family="Helvetica,sans-Serif" font-size="10.00">Diagram::imageCoordinatesFromColor</text>
</a>
</g>
</g>
<!-- Node1&#45;&gt;Node5 -->
<g id="edge4" class="edge">
<title>Node1&#45;&gt;Node5</title>
<path fill="none" stroke="midnightblue" d="M97.8,-159.22C119.31,-141.45 157.21,-112.29 194,-94.5 203.17,-90.07 213.14,-86.14 223.11,-82.71"/>
<polygon fill="midnightblue" stroke="midnightblue" points="224.24,-86.03 232.65,-79.58 222.06,-79.37 224.24,-86.03"/>
</g>
<!-- Node7 -->
<g id="node7" class="node">
<title>Node7</title>
<g id="a_node7"><a xlink:href="class_perceptual_color_1_1_polar_point_f.html#ad9e45debe2dc38bbba834d791336f1fd" target="_top" xlink:title="Normalized radial.">
<polygon fill="white" stroke="black" points="651,-218.5 651,-248.5 800,-248.5 800,-218.5 651,-218.5"/>
<text text-anchor="start" x="659" y="-236.5" font-family="Helvetica,sans-Serif" font-size="10.00">PerceptualColor::PolarPoint</text>
<text text-anchor="middle" x="725.5" y="-225.5" font-family="Helvetica,sans-Serif" font-size="10.00">F::radial</text>
</a>
</g>
</g>
<!-- Node1&#45;&gt;Node7 -->
<g id="edge6" class="edge">
<title>Node1&#45;&gt;Node7</title>
<path fill="none" stroke="midnightblue" d="M158.07,-187.67C170.08,-189.45 182.36,-191.13 194,-192.5 351.38,-210.98 536.04,-223.1 640.76,-229.09"/>
<polygon fill="midnightblue" stroke="midnightblue" points="640.77,-232.6 650.95,-229.67 641.16,-225.61 640.77,-232.6"/>
</g>
<!-- Node8 -->
<g id="node8" class="node">
<title>Node8</title>
<g id="a_node8"><a xlink:href="class_perceptual_color_1_1_polar_point_f.html#aed5188496a9aa06270e590f1f5d3202a" target="_top" xlink:title="Convert to cartesion coordinates.">
<polygon fill="white" stroke="black" points="221.5,-0.5 221.5,-30.5 370.5,-30.5 370.5,-0.5 221.5,-0.5"/>
<text text-anchor="start" x="229.5" y="-18.5" font-family="Helvetica,sans-Serif" font-size="10.00">PerceptualColor::PolarPoint</text>
<text text-anchor="middle" x="296" y="-7.5" font-family="Helvetica,sans-Serif" font-size="10.00">F::toCartesian</text>
</a>
</g>
</g>
<!-- Node1&#45;&gt;Node8 -->
<g id="edge7" class="edge">
<title>Node1&#45;&gt;Node8</title>
<path fill="none" stroke="midnightblue" d="M88.41,-159.19C104.79,-130.87 143.83,-70.36 194,-39.5 199.49,-36.12 205.42,-33.22 211.55,-30.73"/>
<polygon fill="midnightblue" stroke="midnightblue" points="213.15,-33.87 221.33,-27.14 210.74,-27.3 213.15,-33.87"/>
</g>
<!-- Node9 -->
<g id="node9" class="node">
<title>Node9</title>
<g id="a_node9"><a xlink:href="class_perceptual_color_1_1_full_color_description.html#acdbff4639f8a118f0d13a831a4b57ffe" target="_top" xlink:title=" ">
<polygon fill="white" stroke="black" points="453,-88.5 453,-118.5 596,-118.5 596,-88.5 453,-88.5"/>
<text text-anchor="start" x="461" y="-106.5" font-family="Helvetica,sans-Serif" font-size="10.00">PerceptualColor::FullColor</text>
<text text-anchor="middle" x="524.5" y="-95.5" font-family="Helvetica,sans-Serif" font-size="10.00">Description::toLch</text>
</a>
</g>
</g>
<!-- Node1&#45;&gt;Node9 -->
<g id="edge8" class="edge">
<title>Node1&#45;&gt;Node9</title>
<path fill="none" stroke="midnightblue" d="M110.13,-159.36C132.64,-148.8 164.49,-135.4 194,-128.5 277.29,-109.03 375.33,-103.76 442.68,-102.75"/>
<polygon fill="midnightblue" stroke="midnightblue" points="442.85,-106.25 452.81,-102.63 442.77,-99.25 442.85,-106.25"/>
</g>
<!-- Node10 -->
<g id="node10" class="node">
<title>Node10</title>
<g id="a_node10"><a xlink:href="class_perceptual_color_1_1_chroma_hue_diagram.html#a1ffe1f34cd9e77800b8836e9383e0fd6" target="_top" xlink:title="Refresh the diagram and associated data.">
<polygon fill="white" stroke="black" points="211,-137.5 211,-167.5 381,-167.5 381,-137.5 211,-137.5"/>
<text text-anchor="start" x="219" y="-155.5" font-family="Helvetica,sans-Serif" font-size="10.00">PerceptualColor::ChromaHue</text>
<text text-anchor="middle" x="296" y="-144.5" font-family="Helvetica,sans-Serif" font-size="10.00">Diagram::updateDiagramCache</text>
</a>
</g>
</g>
<!-- Node1&#45;&gt;Node10 -->
<g id="edge9" class="edge">
<title>Node1&#45;&gt;Node10</title>
<path fill="none" stroke="midnightblue" d="M158.23,-166.5C171.95,-165.09 186.36,-163.62 200.46,-162.17"/>
<polygon fill="midnightblue" stroke="midnightblue" points="201.07,-165.63 210.67,-161.13 200.36,-158.67 201.07,-165.63"/>
</g>
<!-- Node13 -->
<g id="node13" class="node">
<title>Node13</title>
<g id="a_node13"><a xlink:href="class_perceptual_color_1_1_chroma_hue_diagram.html#a7d8f858f515726d5e171b8e150c6ec2b" target="_top" xlink:title="Refresh the wheel and associated data.">
<polygon fill="white" stroke="black" points="216.5,-264.5 216.5,-294.5 375.5,-294.5 375.5,-264.5 216.5,-264.5"/>
<text text-anchor="start" x="224.5" y="-282.5" font-family="Helvetica,sans-Serif" font-size="10.00">PerceptualColor::ChromaHue</text>
<text text-anchor="middle" x="296" y="-271.5" font-family="Helvetica,sans-Serif" font-size="10.00">Diagram::updateWheelCache</text>
</a>
</g>
</g>
<!-- Node1&#45;&gt;Node13 -->
<g id="edge14" class="edge">
<title>Node1&#45;&gt;Node13</title>
<path fill="none" stroke="midnightblue" d="M99.6,-189.66C121.56,-206.05 158.72,-232.03 194,-248.5 204.28,-253.3 215.5,-257.59 226.59,-261.34"/>
<polygon fill="midnightblue" stroke="midnightblue" points="225.69,-264.73 236.28,-264.49 227.85,-258.07 225.69,-264.73"/>
</g>
<!-- Node4 -->
<g id="node4" class="node">
<title>Node4</title>
<g id="a_node4"><a xlink:href="class_perceptual_color_1_1_rgb_color_space.html#aeb749cb42b24d3989be041a7d4096258" target="_top" xlink:title=" ">
<polygon fill="white" stroke="black" points="836,-169.5 836,-199.5 995,-199.5 995,-169.5 836,-169.5"/>
<text text-anchor="start" x="844" y="-187.5" font-family="Helvetica,sans-Serif" font-size="10.00">PerceptualColor::RgbColor</text>
<text text-anchor="middle" x="915.5" y="-176.5" font-family="Helvetica,sans-Serif" font-size="10.00">Space::colorRgbBoundSimple</text>
</a>
</g>
</g>
<!-- Node3&#45;&gt;Node4 -->
<g id="edge3" class="edge">
<title>Node3&#45;&gt;Node4</title>
<path fill="none" stroke="midnightblue" d="M797.57,-184.5C806.74,-184.5 816.21,-184.5 825.62,-184.5"/>
<polygon fill="midnightblue" stroke="midnightblue" points="825.78,-188 835.78,-184.5 825.78,-181 825.78,-188"/>
</g>
<!-- Node6 -->
<g id="node6" class="node">
<title>Node6</title>
<g id="a_node6"><a xlink:href="class_perceptual_color_1_1_full_color_description.html#a26e4ea239adaeeb9237e9655b1cab9e5" target="_top" xlink:title=" ">
<polygon fill="white" stroke="black" points="453,-39.5 453,-69.5 596,-69.5 596,-39.5 453,-39.5"/>
<text text-anchor="start" x="461" y="-57.5" font-family="Helvetica,sans-Serif" font-size="10.00">PerceptualColor::FullColor</text>
<text text-anchor="middle" x="524.5" y="-46.5" font-family="Helvetica,sans-Serif" font-size="10.00">Description::toLab</text>
</a>
</g>
</g>
<!-- Node5&#45;&gt;Node6 -->
<g id="edge5" class="edge">
<title>Node5&#45;&gt;Node6</title>
<path fill="none" stroke="midnightblue" d="M398.33,-60.03C413.11,-59.37 428.17,-58.71 442.48,-58.08"/>
<polygon fill="midnightblue" stroke="midnightblue" points="442.92,-61.56 452.76,-57.62 442.61,-54.57 442.92,-61.56"/>
</g>
<!-- Node10&#45;&gt;Node9 -->
<g id="edge13" class="edge">
<title>Node10&#45;&gt;Node9</title>
<path fill="none" stroke="midnightblue" d="M366.5,-137.47C391.06,-132.15 418.88,-126.13 444.2,-120.66"/>
<polygon fill="midnightblue" stroke="midnightblue" points="445.1,-124.04 454.13,-118.51 443.62,-117.2 445.1,-124.04"/>
</g>
<!-- Node11 -->
<g id="node11" class="node">
<title>Node11</title>
<g id="a_node11"><a xlink:href="class_perceptual_color_1_1_chroma_hue_diagram.html#adc53e31427f7c15d0aedc521aea5edd7" target="_top" xlink:title="in image of a&#45;b plane of the color space at a given lightness">
<polygon fill="white" stroke="black" points="434,-137.5 434,-167.5 615,-167.5 615,-137.5 434,-137.5"/>
<text text-anchor="start" x="442" y="-155.5" font-family="Helvetica,sans-Serif" font-size="10.00">PerceptualColor::ChromaHue</text>
<text text-anchor="middle" x="524.5" y="-144.5" font-family="Helvetica,sans-Serif" font-size="10.00">Diagram::generateDiagramImage</text>
</a>
</g>
</g>
<!-- Node10&#45;&gt;Node11 -->
<g id="edge10" class="edge">
<title>Node10&#45;&gt;Node11</title>
<path fill="none" stroke="midnightblue" d="M381.02,-152.5C394.9,-152.5 409.41,-152.5 423.63,-152.5"/>
<polygon fill="midnightblue" stroke="midnightblue" points="423.92,-156 433.92,-152.5 423.92,-149 423.92,-156"/>
</g>
<!-- Node11&#45;&gt;Node3 -->
<g id="edge12" class="edge">
<title>Node11&#45;&gt;Node3</title>
<path fill="none" stroke="midnightblue" d="M615.1,-166.91C624.5,-168.42 634.01,-169.95 643.3,-171.44"/>
<polygon fill="midnightblue" stroke="midnightblue" points="642.86,-174.92 653.28,-173.05 643.97,-168 642.86,-174.92"/>
</g>
<!-- Node12 -->
<g id="node12" class="node">
<title>Node12</title>
<g id="a_node12"><a xlink:href="class_perceptual_color_1_1_rgb_color_space.html#a813721e6284e83c8493f1557eeeb4469" target="_top" xlink:title="Calculates the Lab value.">
<polygon fill="white" stroke="black" points="653.5,-120.5 653.5,-150.5 797.5,-150.5 797.5,-120.5 653.5,-120.5"/>
<text text-anchor="start" x="661.5" y="-138.5" font-family="Helvetica,sans-Serif" font-size="10.00">PerceptualColor::RgbColor</text>
<text text-anchor="middle" x="725.5" y="-127.5" font-family="Helvetica,sans-Serif" font-size="10.00">Space::colorLab</text>
</a>
</g>
</g>
<!-- Node11&#45;&gt;Node12 -->
<g id="edge11" class="edge">
<title>Node11&#45;&gt;Node12</title>
<path fill="none" stroke="midnightblue" d="M615.1,-144.85C624.5,-144.04 634.01,-143.23 643.3,-142.44"/>
<polygon fill="midnightblue" stroke="midnightblue" points="643.62,-145.92 653.28,-141.58 643.02,-138.95 643.62,-145.92"/>
</g>
<!-- Node14 -->
<g id="node14" class="node">
<title>Node14</title>
<g id="a_node14"><a xlink:href="class_perceptual_color_1_1_simple_color_wheel.html#acff6e0159f9cb6c41c0bbedb9f6da1c4" target="_top" xlink:title="Generates an image of a color wheel.">
<polygon fill="white" stroke="black" points="445,-266.5 445,-296.5 604,-296.5 604,-266.5 445,-266.5"/>
<text text-anchor="start" x="453" y="-284.5" font-family="Helvetica,sans-Serif" font-size="10.00">PerceptualColor::SimpleColor</text>
<text text-anchor="middle" x="524.5" y="-273.5" font-family="Helvetica,sans-Serif" font-size="10.00">Wheel::generateWheelImage</text>
</a>
</g>
</g>
<!-- Node13&#45;&gt;Node14 -->
<g id="edge15" class="edge">
<title>Node13&#45;&gt;Node14</title>
<path fill="none" stroke="midnightblue" d="M375.58,-280.19C394.62,-280.36 415.11,-280.54 434.59,-280.71"/>
<polygon fill="midnightblue" stroke="midnightblue" points="434.64,-284.22 444.67,-280.8 434.7,-277.22 434.64,-284.22"/>
</g>
<!-- Node14&#45;&gt;Node2 -->
<g id="edge16" class="edge">
<title>Node14&#45;&gt;Node2</title>
<path fill="none" stroke="midnightblue" d="M585.21,-296.5C607.05,-301.99 631.95,-308.25 654.6,-313.94"/>
<polygon fill="midnightblue" stroke="midnightblue" points="653.94,-317.38 664.49,-316.42 655.65,-310.59 653.94,-317.38"/>
</g>
<!-- Node14&#45;&gt;Node7 -->
<g id="edge18" class="edge">
<title>Node14&#45;&gt;Node7</title>
<path fill="none" stroke="midnightblue" d="M587.92,-266.44C608.39,-261.51 631.3,-255.98 652.42,-250.89"/>
<polygon fill="midnightblue" stroke="midnightblue" points="653.4,-254.25 662.3,-248.5 651.76,-247.44 653.4,-254.25"/>
</g>
<!-- Node15 -->
<g id="node15" class="node">
<title>Node15</title>
<g id="a_node15"><a xlink:href="class_perceptual_color_1_1_rgb_color_space.html#ab494c2d0f561c49b8325688a8ddc0095" target="_top" xlink:title="Calculates the RGB value.">
<polygon fill="white" stroke="black" points="653.5,-267.5 653.5,-297.5 797.5,-297.5 797.5,-267.5 653.5,-267.5"/>
<text text-anchor="start" x="661.5" y="-285.5" font-family="Helvetica,sans-Serif" font-size="10.00">PerceptualColor::RgbColor</text>
<text text-anchor="middle" x="725.5" y="-274.5" font-family="Helvetica,sans-Serif" font-size="10.00">Space::colorRgb</text>
</a>
</g>
</g>
<!-- Node14&#45;&gt;Node15 -->
<g id="edge17" class="edge">
<title>Node14&#45;&gt;Node15</title>
<path fill="none" stroke="midnightblue" d="M604.15,-281.9C616.92,-281.96 630.18,-282.03 643.01,-282.09"/>
<polygon fill="midnightblue" stroke="midnightblue" points="643.19,-285.59 653.21,-282.14 643.22,-278.59 643.19,-285.59"/>
</g>
</g>
</svg>
