<?xml version="1.0" encoding="UTF-8" standalone="no"?>
<!DOCTYPE svg PUBLIC "-//W3C//DTD SVG 1.1//EN"
 "http://www.w3.org/Graphics/SVG/1.1/DTD/svg11.dtd">
<!-- Generated by graphviz version 2.43.0 (0)
 -->
<!-- Title: include/PerceptualColor/colorpatch.h Pages: 1 -->
<svg width="293pt" height="162pt"
 viewBox="0.00 0.00 293.00 162.00" xmlns="http://www.w3.org/2000/svg" xmlns:xlink="http://www.w3.org/1999/xlink">
<g id="graph0" class="graph" transform="scale(1 1) rotate(0) translate(4 158)">
<title>include/PerceptualColor/colorpatch.h</title>
<polygon fill="white" stroke="transparent" points="-4,4 -4,-158 289,-158 289,4 -4,4"/>
<!-- Node1 -->
<g id="node1" class="node">
<title>Node1</title>
<g id="a_node1"><a xlink:title=" ">
<polygon fill="#bfbfbf" stroke="black" points="54.5,-123.5 54.5,-153.5 186.5,-153.5 186.5,-123.5 54.5,-123.5"/>
<text text-anchor="start" x="62.5" y="-141.5" font-family="Helvetica,sans-Serif" font-size="10.00">include/PerceptualColor</text>
<text text-anchor="middle" x="120.5" y="-130.5" font-family="Helvetica,sans-Serif" font-size="10.00">/colorpatch.h</text>
</a>
</g>
</g>
<!-- Node2 -->
<g id="node2" class="node">
<title>Node2</title>
<g id="a_node2"><a xlink:href="colorpatch_8cpp.html" target="_top" xlink:title=" ">
<polygon fill="white" stroke="black" points="0,-62 0,-81 105,-81 105,-62 0,-62"/>
<text text-anchor="middle" x="52.5" y="-69" font-family="Helvetica,sans-Serif" font-size="10.00">src/colorpatch.cpp</text>
</a>
</g>
</g>
<!-- Node1&#45;&gt;Node2 -->
<g id="edge1" class="edge">
<title>Node1&#45;&gt;Node2</title>
<path fill="none" stroke="midnightblue" d="M98.36,-116.34C85.87,-104.4 70.95,-90.14 61.6,-81.19"/>
<polygon fill="midnightblue" stroke="midnightblue" points="96.1,-119.02 105.75,-123.4 100.93,-113.96 96.1,-119.02"/>
</g>
<!-- Node3 -->
<g id="node3" class="node">
<title>Node3</title>
<g id="a_node3"><a xlink:href="colordialog_8h.html" target="_top" xlink:title=" ">
<polygon fill="white" stroke="black" points="123.5,-56.5 123.5,-86.5 255.5,-86.5 255.5,-56.5 123.5,-56.5"/>
<text text-anchor="start" x="131.5" y="-74.5" font-family="Helvetica,sans-Serif" font-size="10.00">include/PerceptualColor</text>
<text text-anchor="middle" x="189.5" y="-63.5" font-family="Helvetica,sans-Serif" font-size="10.00">/colordialog.h</text>
</a>
</g>
</g>
<!-- Node1&#45;&gt;Node3 -->
<g id="edge2" class="edge">
<title>Node1&#45;&gt;Node3</title>
<path fill="none" stroke="midnightblue" d="M142.99,-116.31C153.34,-106.56 165.34,-95.26 174.56,-86.58"/>
<polygon fill="midnightblue" stroke="midnightblue" points="140.35,-113.99 135.47,-123.4 145.15,-119.09 140.35,-113.99"/>
</g>
<!-- Node4 -->
<g id="node4" class="node">
<title>Node4</title>
<g id="a_node4"><a xlink:href="colordialog_8cpp.html" target="_top" xlink:title=" ">
<polygon fill="white" stroke="black" points="79.5,-0.5 79.5,-19.5 187.5,-19.5 187.5,-0.5 79.5,-0.5"/>
<text text-anchor="middle" x="133.5" y="-7.5" font-family="Helvetica,sans-Serif" font-size="10.00">src/colordialog.cpp</text>
</a>
</g>
</g>
<!-- Node3&#45;&gt;Node4 -->
<g id="edge3" class="edge">
<title>Node3&#45;&gt;Node4</title>
<path fill="none" stroke="midnightblue" d="M169.27,-49C159.72,-38.86 148.87,-27.33 141.65,-19.66"/>
<polygon fill="midnightblue" stroke="midnightblue" points="166.83,-51.52 176.23,-56.4 171.92,-46.72 166.83,-51.52"/>
</g>
<!-- Node5 -->
<g id="node5" class="node">
<title>Node5</title>
<g id="a_node5"><a xlink:href="main_8cpp.html" target="_top" xlink:title=" ">
<polygon fill="white" stroke="black" points="206,-0.5 206,-19.5 285,-19.5 285,-0.5 206,-0.5"/>
<text text-anchor="middle" x="245.5" y="-7.5" font-family="Helvetica,sans-Serif" font-size="10.00">src/main.cpp</text>
</a>
</g>
</g>
<!-- Node3&#45;&gt;Node5 -->
<g id="edge4" class="edge">
<title>Node3&#45;&gt;Node5</title>
<path fill="none" stroke="midnightblue" d="M209.73,-49C219.28,-38.86 230.13,-27.33 237.35,-19.66"/>
<polygon fill="midnightblue" stroke="midnightblue" points="207.08,-46.72 202.77,-56.4 212.17,-51.52 207.08,-46.72"/>
</g>
</g>
</svg>
