<?xml version="1.0" encoding="UTF-8" standalone="no"?>
<!DOCTYPE svg PUBLIC "-//W3C//DTD SVG 1.1//EN"
 "http://www.w3.org/Graphics/SVG/1.1/DTD/svg11.dtd">
<!-- Generated by graphviz version 2.43.0 (0)
 -->
<!-- Title: include/PerceptualColor/colordialog.h Pages: 1 -->
<svg width="2360pt" height="375pt"
 viewBox="0.00 0.00 2360.13 375.00" xmlns="http://www.w3.org/2000/svg" xmlns:xlink="http://www.w3.org/1999/xlink">
<g id="graph0" class="graph" transform="scale(1 1) rotate(0) translate(4 371)">
<title>include/PerceptualColor/colordialog.h</title>
<polygon fill="white" stroke="transparent" points="-4,4 -4,-371 2356.13,-371 2356.13,4 -4,4"/>
<!-- Node1 -->
<g id="node1" class="node">
<title>Node1</title>
<g id="a_node1"><a xlink:title=" ">
<polygon fill="#bfbfbf" stroke="black" points="1531.63,-336.5 1531.63,-366.5 1663.63,-366.5 1663.63,-336.5 1531.63,-336.5"/>
<text text-anchor="start" x="1539.63" y="-354.5" font-family="Helvetica,sans-Serif" font-size="10.00">include/PerceptualColor</text>
<text text-anchor="middle" x="1597.63" y="-343.5" font-family="Helvetica,sans-Serif" font-size="10.00">/colordialog.h</text>
</a>
</g>
</g>
<!-- Node2 -->
<g id="node2" class="node">
<title>Node2</title>
<g id="a_node2"><a xlink:href="alphaselector_8h.html" target="_top" xlink:title=" ">
<polygon fill="white" stroke="black" points="1028.13,-280.5 1028.13,-299.5 1199.13,-299.5 1199.13,-280.5 1028.13,-280.5"/>
<text text-anchor="middle" x="1113.63" y="-287.5" font-family="Helvetica,sans-Serif" font-size="10.00">PerceptualColor/alphaselector.h</text>
</a>
</g>
</g>
<!-- Node1&#45;&gt;Node2 -->
<g id="edge1" class="edge">
<title>Node1&#45;&gt;Node2</title>
<path fill="none" stroke="midnightblue" d="M1531.6,-342.38C1443.5,-331.55 1287.66,-312.39 1193.18,-300.78"/>
<polygon fill="midnightblue" stroke="midnightblue" points="1193.46,-297.29 1183.11,-299.54 1192.6,-304.23 1193.46,-297.29"/>
</g>
<!-- Node3 -->
<g id="node3" class="node">
<title>Node3</title>
<g id="a_node3"><a xlink:href="gradientselector_8h.html" target="_top" xlink:title=" ">
<polygon fill="white" stroke="black" points="1141.13,-224.5 1141.13,-243.5 1326.13,-243.5 1326.13,-224.5 1141.13,-224.5"/>
<text text-anchor="middle" x="1233.63" y="-231.5" font-family="Helvetica,sans-Serif" font-size="10.00">PerceptualColor/gradientselector.h</text>
</a>
</g>
</g>
<!-- Node1&#45;&gt;Node3 -->
<g id="edge30" class="edge">
<title>Node1&#45;&gt;Node3</title>
<path fill="none" stroke="midnightblue" d="M1531.27,-336.6C1491.04,-327.55 1438.92,-314.72 1393.63,-300 1346.55,-284.7 1293.64,-262.09 1262,-247.97"/>
<polygon fill="midnightblue" stroke="midnightblue" points="1263.07,-244.61 1252.52,-243.7 1260.2,-251 1263.07,-244.61"/>
</g>
<!-- Node4 -->
<g id="node4" class="node">
<title>Node4</title>
<g id="a_node4"><a xlink:href="fullcolordescription_8h.html" target="_top" xlink:title=" ">
<polygon fill="white" stroke="black" points="847.63,-168.5 847.63,-187.5 1047.63,-187.5 1047.63,-168.5 847.63,-168.5"/>
<text text-anchor="middle" x="947.63" y="-175.5" font-family="Helvetica,sans-Serif" font-size="10.00">PerceptualColor/fullcolordescription.h</text>
</a>
</g>
</g>
<!-- Node1&#45;&gt;Node4 -->
<g id="edge29" class="edge">
<title>Node1&#45;&gt;Node4</title>
<path fill="none" stroke="midnightblue" d="M1531.58,-351C1399.15,-351 1106.35,-345.64 1018.63,-300 978.96,-279.36 959.67,-226.07 951.94,-197.6"/>
<polygon fill="midnightblue" stroke="midnightblue" points="955.28,-196.54 949.45,-187.7 948.49,-198.25 955.28,-196.54"/>
</g>
<!-- Node10 -->
<g id="node10" class="node">
<title>Node10</title>
<g id="a_node10"><a xlink:title=" ">
<polygon fill="white" stroke="#bfbfbf" points="1221.63,-56.5 1221.63,-75.5 1277.63,-75.5 1277.63,-56.5 1221.63,-56.5"/>
<text text-anchor="middle" x="1249.63" y="-63.5" font-family="Helvetica,sans-Serif" font-size="10.00">QObject</text>
</a>
</g>
</g>
<!-- Node1&#45;&gt;Node10 -->
<g id="edge57" class="edge">
<title>Node1&#45;&gt;Node10</title>
<path fill="none" stroke="midnightblue" d="M1531.41,-346.06C1499.73,-340.21 1464.47,-327.43 1444.63,-300 1424.78,-272.54 1465.49,-254.45 1450.63,-224 1414.84,-150.62 1326.34,-101.5 1279.62,-79.76"/>
<polygon fill="midnightblue" stroke="midnightblue" points="1280.87,-76.48 1270.32,-75.54 1277.98,-82.86 1280.87,-76.48"/>
</g>
<!-- Node13 -->
<g id="node13" class="node">
<title>Node13</title>
<g id="a_node13"><a xlink:title=" ">
<polygon fill="white" stroke="#bfbfbf" points="1343.63,-224.5 1343.63,-243.5 1441.63,-243.5 1441.63,-224.5 1343.63,-224.5"/>
<text text-anchor="middle" x="1392.63" y="-231.5" font-family="Helvetica,sans-Serif" font-size="10.00">QDoubleSpinBox</text>
</a>
</g>
</g>
<!-- Node1&#45;&gt;Node13 -->
<g id="edge54" class="edge">
<title>Node1&#45;&gt;Node13</title>
<path fill="none" stroke="midnightblue" d="M1531.58,-348.56C1491.6,-343.92 1442.36,-331.52 1410.63,-300 1398.57,-288.02 1394.4,-268.72 1393.05,-254.26"/>
<polygon fill="midnightblue" stroke="midnightblue" points="1396.53,-253.72 1392.48,-243.93 1389.54,-254.11 1396.53,-253.72"/>
</g>
<!-- Node15 -->
<g id="node15" class="node">
<title>Node15</title>
<g id="a_node15"><a xlink:href="colorpatch_8h.html" target="_top" xlink:title=" ">
<polygon fill="white" stroke="black" points="1453.13,-280.5 1453.13,-299.5 1610.13,-299.5 1610.13,-280.5 1453.13,-280.5"/>
<text text-anchor="middle" x="1531.63" y="-287.5" font-family="Helvetica,sans-Serif" font-size="10.00">PerceptualColor/colorpatch.h</text>
</a>
</g>
</g>
<!-- Node1&#45;&gt;Node15 -->
<g id="edge20" class="edge">
<title>Node1&#45;&gt;Node15</title>
<path fill="none" stroke="midnightblue" d="M1581.99,-336.4C1572.01,-327.4 1559.06,-315.72 1548.79,-306.47"/>
<polygon fill="midnightblue" stroke="midnightblue" points="1551.01,-303.75 1541.24,-299.66 1546.32,-308.95 1551.01,-303.75"/>
</g>
<!-- Node17 -->
<g id="node17" class="node">
<title>Node17</title>
<g id="a_node17"><a xlink:href="chromahuediagram_8h.html" target="_top" xlink:title=" ">
<polygon fill="white" stroke="black" points="702.13,-224.5 702.13,-243.5 903.13,-243.5 903.13,-224.5 702.13,-224.5"/>
<text text-anchor="middle" x="802.63" y="-231.5" font-family="Helvetica,sans-Serif" font-size="10.00">PerceptualColor/chromahuediagram.h</text>
</a>
</g>
</g>
<!-- Node1&#45;&gt;Node17 -->
<g id="edge22" class="edge">
<title>Node1&#45;&gt;Node17</title>
<path fill="none" stroke="midnightblue" d="M1531.62,-349.26C1384,-345.9 1031.21,-334.42 917.63,-300 881.37,-289.01 844.01,-265.13 822.08,-249.57"/>
<polygon fill="midnightblue" stroke="midnightblue" points="824.08,-246.71 813.93,-243.67 819.98,-252.38 824.08,-246.71"/>
</g>
<!-- Node20 -->
<g id="node20" class="node">
<title>Node20</title>
<g id="a_node20"><a xlink:href="wheelcolorpicker_8h.html" target="_top" xlink:title=" ">
<polygon fill="white" stroke="black" points="349.63,-280.5 349.63,-299.5 537.63,-299.5 537.63,-280.5 349.63,-280.5"/>
<text text-anchor="middle" x="443.63" y="-287.5" font-family="Helvetica,sans-Serif" font-size="10.00">PerceptualColor/wheelcolorpicker.h</text>
</a>
</g>
</g>
<!-- Node1&#45;&gt;Node20 -->
<g id="edge31" class="edge">
<title>Node1&#45;&gt;Node20</title>
<path fill="none" stroke="midnightblue" d="M1531.45,-347.09C1339.5,-337.19 781.48,-308.42 548.13,-296.39"/>
<polygon fill="midnightblue" stroke="midnightblue" points="548.11,-292.88 537.94,-295.86 547.75,-299.87 548.11,-292.88"/>
</g>
<!-- Node26 -->
<g id="node26" class="node">
<title>Node26</title>
<g id="a_node26"><a xlink:title=" ">
<polygon fill="white" stroke="#bfbfbf" points="1628.13,-280.5 1628.13,-299.5 1701.13,-299.5 1701.13,-280.5 1628.13,-280.5"/>
<text text-anchor="middle" x="1664.63" y="-287.5" font-family="Helvetica,sans-Serif" font-size="10.00">QByteArray</text>
</a>
</g>
</g>
<!-- Node1&#45;&gt;Node26 -->
<g id="edge50" class="edge">
<title>Node1&#45;&gt;Node26</title>
<path fill="none" stroke="midnightblue" d="M1613.51,-336.4C1623.65,-327.4 1636.8,-315.72 1647.22,-306.47"/>
<polygon fill="midnightblue" stroke="midnightblue" points="1649.73,-308.92 1654.89,-299.66 1645.08,-303.68 1649.73,-308.92"/>
</g>
<!-- Node27 -->
<g id="node27" class="node">
<title>Node27</title>
<g id="a_node27"><a xlink:title=" ">
<polygon fill="white" stroke="#bfbfbf" points="1719.13,-280.5 1719.13,-299.5 1800.13,-299.5 1800.13,-280.5 1719.13,-280.5"/>
<text text-anchor="middle" x="1759.63" y="-287.5" font-family="Helvetica,sans-Serif" font-size="10.00">QColorDialog</text>
</a>
</g>
</g>
<!-- Node1&#45;&gt;Node27 -->
<g id="edge51" class="edge">
<title>Node1&#45;&gt;Node27</title>
<path fill="none" stroke="midnightblue" d="M1636.03,-336.4C1663.57,-326.28 1700.31,-312.79 1726.56,-303.15"/>
<polygon fill="midnightblue" stroke="midnightblue" points="1727.88,-306.39 1736.06,-299.66 1725.47,-299.82 1727.88,-306.39"/>
</g>
<!-- Node28 -->
<g id="node28" class="node">
<title>Node28</title>
<g id="a_node28"><a xlink:title=" ">
<polygon fill="white" stroke="#bfbfbf" points="1818.63,-280.5 1818.63,-299.5 1874.63,-299.5 1874.63,-280.5 1818.63,-280.5"/>
<text text-anchor="middle" x="1846.63" y="-287.5" font-family="Helvetica,sans-Serif" font-size="10.00">QDialog</text>
</a>
</g>
</g>
<!-- Node1&#45;&gt;Node28 -->
<g id="edge52" class="edge">
<title>Node1&#45;&gt;Node28</title>
<path fill="none" stroke="midnightblue" d="M1657.05,-336.43C1697.24,-326.89 1751.78,-313.91 1808.49,-300.27"/>
<polygon fill="midnightblue" stroke="midnightblue" points="1809.45,-303.64 1818.36,-297.89 1807.81,-296.83 1809.45,-303.64"/>
</g>
<!-- Node29 -->
<g id="node29" class="node">
<title>Node29</title>
<g id="a_node29"><a xlink:title=" ">
<polygon fill="white" stroke="#bfbfbf" points="1893.13,-280.5 1893.13,-299.5 2000.13,-299.5 2000.13,-280.5 1893.13,-280.5"/>
<text text-anchor="middle" x="1946.63" y="-287.5" font-family="Helvetica,sans-Serif" font-size="10.00">QDialogButtonBox</text>
</a>
</g>
</g>
<!-- Node1&#45;&gt;Node29 -->
<g id="edge53" class="edge">
<title>Node1&#45;&gt;Node29</title>
<path fill="none" stroke="midnightblue" d="M1663.69,-339.24C1727.9,-328.29 1824.56,-311.81 1886.63,-301.23"/>
<polygon fill="midnightblue" stroke="midnightblue" points="1887.39,-304.65 1896.66,-299.52 1886.21,-297.75 1887.39,-304.65"/>
</g>
<!-- Node30 -->
<g id="node30" class="node">
<title>Node30</title>
<g id="a_node30"><a xlink:title=" ">
<polygon fill="white" stroke="#bfbfbf" points="2018.13,-280.5 2018.13,-299.5 2101.13,-299.5 2101.13,-280.5 2018.13,-280.5"/>
<text text-anchor="middle" x="2059.63" y="-287.5" font-family="Helvetica,sans-Serif" font-size="10.00">QHBoxLayout</text>
</a>
</g>
</g>
<!-- Node1&#45;&gt;Node30 -->
<g id="edge55" class="edge">
<title>Node1&#45;&gt;Node30</title>
<path fill="none" stroke="midnightblue" d="M1663.79,-343.55C1743.24,-334.94 1880.76,-319.22 2008,-300.18"/>
<polygon fill="midnightblue" stroke="midnightblue" points="2008.55,-303.64 2017.92,-298.69 2007.51,-296.72 2008.55,-303.64"/>
</g>
<!-- Node31 -->
<g id="node31" class="node">
<title>Node31</title>
<g id="a_node31"><a xlink:title=" ">
<polygon fill="white" stroke="#bfbfbf" points="2119.13,-280.5 2119.13,-299.5 2182.13,-299.5 2182.13,-280.5 2119.13,-280.5"/>
<text text-anchor="middle" x="2150.63" y="-287.5" font-family="Helvetica,sans-Serif" font-size="10.00">QLineEdit</text>
</a>
</g>
</g>
<!-- Node1&#45;&gt;Node31 -->
<g id="edge56" class="edge">
<title>Node1&#45;&gt;Node31</title>
<path fill="none" stroke="midnightblue" d="M1663.97,-346.59C1760.05,-340.35 1943.65,-326.25 2108.5,-300.18"/>
<polygon fill="midnightblue" stroke="midnightblue" points="2109.51,-303.56 2118.83,-298.53 2108.4,-296.65 2109.51,-303.56"/>
</g>
<!-- Node32 -->
<g id="node32" class="node">
<title>Node32</title>
<g id="a_node32"><a xlink:title=" ">
<polygon fill="white" stroke="#bfbfbf" points="2200.13,-280.5 2200.13,-299.5 2259.13,-299.5 2259.13,-280.5 2200.13,-280.5"/>
<text text-anchor="middle" x="2229.63" y="-287.5" font-family="Helvetica,sans-Serif" font-size="10.00">QPointer</text>
</a>
</g>
</g>
<!-- Node1&#45;&gt;Node32 -->
<g id="edge58" class="edge">
<title>Node1&#45;&gt;Node32</title>
<path fill="none" stroke="midnightblue" d="M1663.95,-348.06C1772.28,-343.37 1994.03,-330.84 2189.95,-300.07"/>
<polygon fill="midnightblue" stroke="midnightblue" points="2190.52,-303.52 2199.85,-298.49 2189.42,-296.61 2190.52,-303.52"/>
</g>
<!-- Node33 -->
<g id="node33" class="node">
<title>Node33</title>
<g id="a_node33"><a xlink:title=" ">
<polygon fill="white" stroke="#bfbfbf" points="2277.13,-280.5 2277.13,-299.5 2352.13,-299.5 2352.13,-280.5 2277.13,-280.5"/>
<text text-anchor="middle" x="2314.63" y="-287.5" font-family="Helvetica,sans-Serif" font-size="10.00">QTabWidget</text>
</a>
</g>
</g>
<!-- Node1&#45;&gt;Node33 -->
<g id="edge59" class="edge">
<title>Node1&#45;&gt;Node33</title>
<path fill="none" stroke="midnightblue" d="M1664.1,-348.1C1783.14,-343.23 2040.69,-330.12 2266.97,-300.08"/>
<polygon fill="midnightblue" stroke="midnightblue" points="2267.59,-303.53 2277.04,-298.73 2266.66,-296.59 2267.59,-303.53"/>
</g>
<!-- Node2&#45;&gt;Node3 -->
<g id="edge2" class="edge">
<title>Node2&#45;&gt;Node3</title>
<path fill="none" stroke="midnightblue" d="M1132.65,-280.44C1152.22,-271.64 1182.94,-257.81 1205.36,-247.72"/>
<polygon fill="midnightblue" stroke="midnightblue" points="1207.03,-250.81 1214.71,-243.52 1204.15,-244.43 1207.03,-250.81"/>
</g>
<!-- Node2&#45;&gt;Node4 -->
<g id="edge16" class="edge">
<title>Node2&#45;&gt;Node4</title>
<path fill="none" stroke="midnightblue" d="M1073.94,-280.49C1049.02,-273.68 1017.25,-262.21 993.63,-244 977.27,-231.38 964.33,-211.33 956.4,-196.84"/>
<polygon fill="midnightblue" stroke="midnightblue" points="959.44,-195.11 951.72,-187.85 953.23,-198.33 959.44,-195.11"/>
</g>
<!-- Node9 -->
<g id="node9" class="node">
<title>Node9</title>
<g id="a_node9"><a xlink:href="rgbcolorspace_8h.html" target="_top" xlink:title=" ">
<polygon fill="white" stroke="black" points="828.63,-112.5 828.63,-131.5 1002.63,-131.5 1002.63,-112.5 828.63,-112.5"/>
<text text-anchor="middle" x="915.63" y="-119.5" font-family="Helvetica,sans-Serif" font-size="10.00">PerceptualColor/rgbcolorspace.h</text>
</a>
</g>
</g>
<!-- Node2&#45;&gt;Node9 -->
<g id="edge15" class="edge">
<title>Node2&#45;&gt;Node9</title>
<path fill="none" stroke="midnightblue" d="M1114.75,-280.31C1117.03,-258.31 1119.78,-199.92 1089.63,-168 1075.11,-152.62 1027.13,-140.9 985.23,-133.29"/>
<polygon fill="midnightblue" stroke="midnightblue" points="985.75,-129.82 975.29,-131.54 984.53,-136.72 985.75,-129.82"/>
</g>
<!-- Node12 -->
<g id="node12" class="node">
<title>Node12</title>
<g id="a_node12"><a xlink:title=" ">
<polygon fill="white" stroke="#bfbfbf" points="676.13,-56.5 676.13,-75.5 735.13,-75.5 735.13,-56.5 676.13,-56.5"/>
<text text-anchor="middle" x="705.63" y="-63.5" font-family="Helvetica,sans-Serif" font-size="10.00">QWidget</text>
</a>
</g>
</g>
<!-- Node2&#45;&gt;Node12 -->
<g id="edge19" class="edge">
<title>Node2&#45;&gt;Node12</title>
<path fill="none" stroke="midnightblue" d="M1078.62,-280.45C1059.7,-273.84 1037.95,-262.59 1026.63,-244 1007.76,-212.98 1080.31,-195.54 1056.63,-168 1021.91,-127.6 869.95,-149.49 819.63,-132 784.42,-119.76 747.65,-96.61 725.7,-81.5"/>
<polygon fill="midnightblue" stroke="midnightblue" points="727.44,-78.45 717.24,-75.57 723.42,-84.18 727.44,-78.45"/>
</g>
<!-- Node2&#45;&gt;Node13 -->
<g id="edge17" class="edge">
<title>Node2&#45;&gt;Node13</title>
<path fill="none" stroke="midnightblue" d="M1157.84,-280.44C1206.92,-270.94 1286.14,-255.61 1338.8,-245.42"/>
<polygon fill="midnightblue" stroke="midnightblue" points="1339.48,-248.85 1348.63,-243.52 1338.15,-241.98 1339.48,-248.85"/>
</g>
<!-- Node14 -->
<g id="node14" class="node">
<title>Node14</title>
<g id="a_node14"><a xlink:title=" ">
<polygon fill="white" stroke="#bfbfbf" points="1035.63,-224.5 1035.63,-243.5 1085.63,-243.5 1085.63,-224.5 1035.63,-224.5"/>
<text text-anchor="middle" x="1060.63" y="-231.5" font-family="Helvetica,sans-Serif" font-size="10.00">QLabel</text>
</a>
</g>
</g>
<!-- Node2&#45;&gt;Node14 -->
<g id="edge18" class="edge">
<title>Node2&#45;&gt;Node14</title>
<path fill="none" stroke="midnightblue" d="M1104.88,-280.08C1097.16,-272.22 1085.73,-260.57 1076.42,-251.08"/>
<polygon fill="midnightblue" stroke="midnightblue" points="1078.73,-248.44 1069.22,-243.75 1073.73,-253.34 1078.73,-248.44"/>
</g>
<!-- Node3&#45;&gt;Node4 -->
<g id="edge3" class="edge">
<title>Node3&#45;&gt;Node4</title>
<path fill="none" stroke="midnightblue" d="M1188.32,-224.44C1138.01,-214.94 1056.8,-199.61 1002.82,-189.42"/>
<polygon fill="midnightblue" stroke="midnightblue" points="1003.22,-185.93 992.74,-187.52 1001.92,-192.81 1003.22,-185.93"/>
</g>
<!-- Node3&#45;&gt;Node9 -->
<g id="edge13" class="edge">
<title>Node3&#45;&gt;Node9</title>
<path fill="none" stroke="midnightblue" d="M1222.56,-224.42C1203.99,-210.45 1164.93,-182.88 1127.63,-168 1085.18,-151.06 1035.28,-140.07 994.56,-133.19"/>
<polygon fill="midnightblue" stroke="midnightblue" points="995.12,-129.73 984.68,-131.57 993.98,-136.64 995.12,-129.73"/>
</g>
<!-- Node3&#45;&gt;Node12 -->
<g id="edge14" class="edge">
<title>Node3&#45;&gt;Node12</title>
<path fill="none" stroke="midnightblue" d="M1226.04,-224.28C1213.73,-210.63 1188.12,-184.09 1161.63,-168 1100.81,-131.06 1080.55,-129.72 1011.63,-112 917.69,-87.84 803.95,-75.37 745.14,-70.12"/>
<polygon fill="midnightblue" stroke="midnightblue" points="745.42,-66.63 735.16,-69.25 744.81,-73.61 745.42,-66.63"/>
</g>
<!-- Node5 -->
<g id="node5" class="node">
<title>Node5</title>
<g id="a_node5"><a xlink:href="helper_8h.html" target="_top" xlink:title=" ">
<polygon fill="white" stroke="black" points="847.63,-56.5 847.63,-75.5 983.63,-75.5 983.63,-56.5 847.63,-56.5"/>
<text text-anchor="middle" x="915.63" y="-63.5" font-family="Helvetica,sans-Serif" font-size="10.00">PerceptualColor/helper.h</text>
</a>
</g>
</g>
<!-- Node4&#45;&gt;Node5 -->
<g id="edge4" class="edge">
<title>Node4&#45;&gt;Node5</title>
<path fill="none" stroke="midnightblue" d="M967.68,-168.42C991.54,-156.93 1026.42,-135.26 1011.63,-112 1001.47,-96.01 983.96,-85.6 966.65,-78.87"/>
<polygon fill="midnightblue" stroke="midnightblue" points="967.7,-75.53 957.11,-75.5 965.37,-82.13 967.7,-75.53"/>
</g>
<!-- Node4&#45;&gt;Node9 -->
<g id="edge8" class="edge">
<title>Node4&#45;&gt;Node9</title>
<path fill="none" stroke="midnightblue" d="M942.35,-168.08C937.92,-160.61 931.47,-149.72 926.02,-140.52"/>
<polygon fill="midnightblue" stroke="midnightblue" points="928.93,-138.57 920.82,-131.75 922.91,-142.14 928.93,-138.57"/>
</g>
<!-- Node11 -->
<g id="node11" class="node">
<title>Node11</title>
<g id="a_node11"><a xlink:title=" ">
<polygon fill="white" stroke="#bfbfbf" points="269.63,-112.5 269.63,-131.5 325.63,-131.5 325.63,-112.5 269.63,-112.5"/>
<text text-anchor="middle" x="297.63" y="-119.5" font-family="Helvetica,sans-Serif" font-size="10.00">QDebug</text>
</a>
</g>
</g>
<!-- Node4&#45;&gt;Node11 -->
<g id="edge12" class="edge">
<title>Node4&#45;&gt;Node11</title>
<path fill="none" stroke="midnightblue" d="M847.5,-168.68C700.95,-156.51 434.78,-134.39 335.93,-126.18"/>
<polygon fill="midnightblue" stroke="midnightblue" points="336.06,-122.68 325.81,-125.34 335.48,-129.66 336.06,-122.68"/>
</g>
<!-- Node6 -->
<g id="node6" class="node">
<title>Node6</title>
<g id="a_node6"><a xlink:title=" ">
<polygon fill="white" stroke="#bfbfbf" points="396.13,-0.5 396.13,-19.5 451.13,-19.5 451.13,-0.5 396.13,-0.5"/>
<text text-anchor="middle" x="423.63" y="-7.5" font-family="Helvetica,sans-Serif" font-size="10.00">QImage</text>
</a>
</g>
</g>
<!-- Node5&#45;&gt;Node6 -->
<g id="edge5" class="edge">
<title>Node5&#45;&gt;Node6</title>
<path fill="none" stroke="midnightblue" d="M847.48,-57.52C742.23,-45.97 543.68,-24.18 461.11,-15.11"/>
<polygon fill="midnightblue" stroke="midnightblue" points="461.5,-11.63 451.17,-14.02 460.73,-18.59 461.5,-11.63"/>
</g>
<!-- Node7 -->
<g id="node7" class="node">
<title>Node7</title>
<g id="a_node7"><a xlink:title=" ">
<polygon fill="white" stroke="#bfbfbf" points="874.13,-0.5 874.13,-19.5 957.13,-19.5 957.13,-0.5 874.13,-0.5"/>
<text text-anchor="middle" x="915.63" y="-7.5" font-family="Helvetica,sans-Serif" font-size="10.00">QWheelEvent</text>
</a>
</g>
</g>
<!-- Node5&#45;&gt;Node7 -->
<g id="edge6" class="edge">
<title>Node5&#45;&gt;Node7</title>
<path fill="none" stroke="midnightblue" d="M915.63,-56.08C915.63,-49.01 915.63,-38.86 915.63,-29.99"/>
<polygon fill="midnightblue" stroke="midnightblue" points="919.13,-29.75 915.63,-19.75 912.13,-29.75 919.13,-29.75"/>
</g>
<!-- Node8 -->
<g id="node8" class="node">
<title>Node8</title>
<g id="a_node8"><a xlink:title=" ">
<polygon fill="white" stroke="#bfbfbf" points="684.13,-0.5 684.13,-19.5 739.13,-19.5 739.13,-0.5 684.13,-0.5"/>
<text text-anchor="middle" x="711.63" y="-7.5" font-family="Helvetica,sans-Serif" font-size="10.00">lcms2.h</text>
</a>
</g>
</g>
<!-- Node5&#45;&gt;Node8 -->
<g id="edge7" class="edge">
<title>Node5&#45;&gt;Node8</title>
<path fill="none" stroke="midnightblue" d="M883.31,-56.44C846.8,-46.78 787.48,-31.08 749.01,-20.89"/>
<polygon fill="midnightblue" stroke="midnightblue" points="749.79,-17.48 739.23,-18.3 748,-24.25 749.79,-17.48"/>
</g>
<!-- Node9&#45;&gt;Node5 -->
<g id="edge11" class="edge">
<title>Node9&#45;&gt;Node5</title>
<path fill="none" stroke="midnightblue" d="M915.63,-112.08C915.63,-105.01 915.63,-94.86 915.63,-85.99"/>
<polygon fill="midnightblue" stroke="midnightblue" points="919.13,-85.75 915.63,-75.75 912.13,-85.75 919.13,-85.75"/>
</g>
<!-- Node9&#45;&gt;Node8 -->
<g id="edge10" class="edge">
<title>Node9&#45;&gt;Node8</title>
<path fill="none" stroke="midnightblue" d="M899.73,-112.35C876.76,-99.88 832.97,-76.11 795.63,-56 775.91,-45.37 753.55,-33.4 736.86,-24.47"/>
<polygon fill="midnightblue" stroke="midnightblue" points="738.22,-21.23 727.75,-19.6 734.92,-27.41 738.22,-21.23"/>
</g>
<!-- Node9&#45;&gt;Node10 -->
<g id="edge9" class="edge">
<title>Node9&#45;&gt;Node10</title>
<path fill="none" stroke="midnightblue" d="M968.56,-112.44C1036.23,-101.5 1151.78,-82.82 1211.46,-73.17"/>
<polygon fill="midnightblue" stroke="midnightblue" points="1212.27,-76.59 1221.58,-71.54 1211.15,-69.68 1212.27,-76.59"/>
</g>
<!-- Node16 -->
<g id="node16" class="node">
<title>Node16</title>
<g id="a_node16"><a xlink:title=" ">
<polygon fill="white" stroke="#bfbfbf" points="1504.13,-224.5 1504.13,-243.5 1559.13,-243.5 1559.13,-224.5 1504.13,-224.5"/>
<text text-anchor="middle" x="1531.63" y="-231.5" font-family="Helvetica,sans-Serif" font-size="10.00">QFrame</text>
</a>
</g>
</g>
<!-- Node15&#45;&gt;Node16 -->
<g id="edge21" class="edge">
<title>Node15&#45;&gt;Node16</title>
<path fill="none" stroke="midnightblue" d="M1531.63,-280.08C1531.63,-273.01 1531.63,-262.86 1531.63,-253.99"/>
<polygon fill="midnightblue" stroke="midnightblue" points="1535.13,-253.75 1531.63,-243.75 1528.13,-253.75 1535.13,-253.75"/>
</g>
<!-- Node17&#45;&gt;Node4 -->
<g id="edge27" class="edge">
<title>Node17&#45;&gt;Node4</title>
<path fill="none" stroke="midnightblue" d="M825.61,-224.44C849.79,-215.44 888.05,-201.19 915.28,-191.05"/>
<polygon fill="midnightblue" stroke="midnightblue" points="916.62,-194.29 924.77,-187.52 914.17,-187.73 916.62,-194.29"/>
</g>
<!-- Node17&#45;&gt;Node6 -->
<g id="edge23" class="edge">
<title>Node17&#45;&gt;Node6</title>
<path fill="none" stroke="midnightblue" d="M802.7,-224.26C802.39,-195.12 797.15,-100.56 743.63,-56 701.46,-20.88 536.88,-13.16 461.59,-11.47"/>
<polygon fill="midnightblue" stroke="midnightblue" points="461.23,-7.96 451.16,-11.26 461.09,-14.96 461.23,-7.96"/>
</g>
<!-- Node17&#45;&gt;Node9 -->
<g id="edge28" class="edge">
<title>Node17&#45;&gt;Node9</title>
<path fill="none" stroke="midnightblue" d="M805.64,-224.5C810.71,-211.13 822.05,-184.98 838.63,-168 851.9,-154.43 870.11,-143.54 885.49,-135.87"/>
<polygon fill="midnightblue" stroke="midnightblue" points="887.11,-138.98 894.64,-131.52 884.1,-132.66 887.11,-138.98"/>
</g>
<!-- Node18 -->
<g id="node18" class="node">
<title>Node18</title>
<g id="a_node18"><a xlink:href="circulardiagram_8h.html" target="_top" xlink:title=" ">
<polygon fill="white" stroke="black" points="419.63,-168.5 419.63,-187.5 601.63,-187.5 601.63,-168.5 419.63,-168.5"/>
<text text-anchor="middle" x="510.63" y="-175.5" font-family="Helvetica,sans-Serif" font-size="10.00">PerceptualColor/circulardiagram.h</text>
</a>
</g>
</g>
<!-- Node17&#45;&gt;Node18 -->
<g id="edge24" class="edge">
<title>Node17&#45;&gt;Node18</title>
<path fill="none" stroke="midnightblue" d="M756.37,-224.44C704.89,-214.92 621.74,-199.55 566.64,-189.36"/>
<polygon fill="midnightblue" stroke="midnightblue" points="567.16,-185.89 556.69,-187.52 565.88,-192.78 567.16,-185.89"/>
</g>
<!-- Node19 -->
<g id="node19" class="node">
<title>Node19</title>
<g id="a_node19"><a xlink:href="abstractdiagram_8h.html" target="_top" xlink:title=" ">
<polygon fill="white" stroke="black" points="491.63,-112.5 491.63,-131.5 677.63,-131.5 677.63,-112.5 491.63,-112.5"/>
<text text-anchor="middle" x="584.63" y="-119.5" font-family="Helvetica,sans-Serif" font-size="10.00">PerceptualColor/abstractdiagram.h</text>
</a>
</g>
</g>
<!-- Node18&#45;&gt;Node19 -->
<g id="edge25" class="edge">
<title>Node18&#45;&gt;Node19</title>
<path fill="none" stroke="midnightblue" d="M522.52,-168.32C533.78,-160.11 550.92,-147.6 564.34,-137.81"/>
<polygon fill="midnightblue" stroke="midnightblue" points="566.51,-140.56 572.53,-131.83 562.39,-134.9 566.51,-140.56"/>
</g>
<!-- Node19&#45;&gt;Node12 -->
<g id="edge26" class="edge">
<title>Node19&#45;&gt;Node12</title>
<path fill="none" stroke="midnightblue" d="M603.81,-112.44C623.54,-103.64 654.52,-89.81 677.13,-79.72"/>
<polygon fill="midnightblue" stroke="midnightblue" points="678.85,-82.79 686.55,-75.52 675.99,-76.4 678.85,-82.79"/>
</g>
<!-- Node20&#45;&gt;Node11 -->
<g id="edge49" class="edge">
<title>Node20&#45;&gt;Node11</title>
<path fill="none" stroke="midnightblue" d="M433.44,-280.48C413.91,-263.89 370.44,-225.56 339.63,-188 327.29,-172.95 315.47,-154.12 307.53,-140.61"/>
<polygon fill="midnightblue" stroke="midnightblue" points="310.51,-138.76 302.49,-131.84 304.44,-142.25 310.51,-138.76"/>
</g>
<!-- Node21 -->
<g id="node21" class="node">
<title>Node21</title>
<g id="a_node21"><a xlink:href="chromalightnessdiagram_8h.html" target="_top" xlink:title=" ">
<polygon fill="white" stroke="black" points="457.13,-224.5 457.13,-243.5 684.13,-243.5 684.13,-224.5 457.13,-224.5"/>
<text text-anchor="middle" x="570.63" y="-231.5" font-family="Helvetica,sans-Serif" font-size="10.00">PerceptualColor/chromalightnessdiagram.h</text>
</a>
</g>
</g>
<!-- Node20&#45;&gt;Node21 -->
<g id="edge32" class="edge">
<title>Node20&#45;&gt;Node21</title>
<path fill="none" stroke="midnightblue" d="M463.76,-280.44C484.66,-271.56 517.57,-257.56 541.35,-247.45"/>
<polygon fill="midnightblue" stroke="midnightblue" points="542.77,-250.65 550.61,-243.52 540.03,-244.21 542.77,-250.65"/>
</g>
<!-- Node22 -->
<g id="node22" class="node">
<title>Node22</title>
<g id="a_node22"><a xlink:href="simplecolorwheel_8h.html" target="_top" xlink:title=" ">
<polygon fill="white" stroke="black" points="101.63,-224.5 101.63,-243.5 293.63,-243.5 293.63,-224.5 101.63,-224.5"/>
<text text-anchor="middle" x="197.63" y="-231.5" font-family="Helvetica,sans-Serif" font-size="10.00">PerceptualColor/simplecolorwheel.h</text>
</a>
</g>
</g>
<!-- Node20&#45;&gt;Node22 -->
<g id="edge39" class="edge">
<title>Node20&#45;&gt;Node22</title>
<path fill="none" stroke="midnightblue" d="M404.66,-280.44C361.74,-271.02 292.69,-255.87 246.27,-245.68"/>
<polygon fill="midnightblue" stroke="midnightblue" points="246.95,-242.24 236.43,-243.52 245.45,-249.08 246.95,-242.24"/>
</g>
<!-- Node21&#45;&gt;Node4 -->
<g id="edge37" class="edge">
<title>Node21&#45;&gt;Node4</title>
<path fill="none" stroke="midnightblue" d="M630.37,-224.44C697.65,-214.81 806.86,-199.16 877.97,-188.98"/>
<polygon fill="midnightblue" stroke="midnightblue" points="878.77,-192.4 888.18,-187.52 877.78,-185.47 878.77,-192.4"/>
</g>
<!-- Node21&#45;&gt;Node6 -->
<g id="edge33" class="edge">
<title>Node21&#45;&gt;Node6</title>
<path fill="none" stroke="midnightblue" d="M509.82,-224.47C467.62,-217.17 416.74,-205.1 403.63,-188 367.17,-140.41 397.4,-63.39 414.23,-28.81"/>
<polygon fill="midnightblue" stroke="midnightblue" points="417.35,-30.38 418.74,-19.88 411.11,-27.23 417.35,-30.38"/>
</g>
<!-- Node21&#45;&gt;Node8 -->
<g id="edge35" class="edge">
<title>Node21&#45;&gt;Node8</title>
<path fill="none" stroke="midnightblue" d="M467.98,-224.46C428.01,-216.14 395.06,-199.85 410.63,-168 460.39,-66.27 605.01,-28.81 674.07,-16.44"/>
<polygon fill="midnightblue" stroke="midnightblue" points="674.82,-19.87 684.09,-14.73 673.64,-12.97 674.82,-19.87"/>
</g>
<!-- Node21&#45;&gt;Node9 -->
<g id="edge38" class="edge">
<title>Node21&#45;&gt;Node9</title>
<path fill="none" stroke="midnightblue" d="M599.83,-224.44C629.92,-215.55 678.16,-201.14 719.63,-188 776.38,-170.02 841.97,-148.02 881.06,-134.78"/>
<polygon fill="midnightblue" stroke="midnightblue" points="882.3,-138.05 890.64,-131.53 880.05,-131.43 882.3,-138.05"/>
</g>
<!-- Node21&#45;&gt;Node12 -->
<g id="edge34" class="edge">
<title>Node21&#45;&gt;Node12</title>
<path fill="none" stroke="midnightblue" d="M585.27,-224.45C610.09,-209.18 660.3,-174.74 686.63,-132 695.4,-117.77 700.29,-99.29 702.91,-85.68"/>
<polygon fill="midnightblue" stroke="midnightblue" points="706.4,-86.03 704.6,-75.59 699.49,-84.87 706.4,-86.03"/>
</g>
<!-- Node21&#45;&gt;Node19 -->
<g id="edge36" class="edge">
<title>Node21&#45;&gt;Node19</title>
<path fill="none" stroke="midnightblue" d="M581.9,-224.43C591.6,-216.27 604.91,-203.05 610.63,-188 616.88,-171.57 607.77,-152.96 598.66,-139.87"/>
<polygon fill="midnightblue" stroke="midnightblue" points="601.37,-137.65 592.55,-131.79 595.79,-141.88 601.37,-137.65"/>
</g>
<!-- Node22&#45;&gt;Node6 -->
<g id="edge40" class="edge">
<title>Node22&#45;&gt;Node6</title>
<path fill="none" stroke="midnightblue" d="M121.35,-224.47C75.3,-217.57 22.85,-206 8.63,-188 -2.37,-174.07 -4.99,-135.22 15.63,-112 64.99,-56.44 294.09,-25.35 385.67,-14.97"/>
<polygon fill="midnightblue" stroke="midnightblue" points="386.33,-18.42 395.88,-13.83 385.55,-11.46 386.33,-18.42"/>
</g>
<!-- Node22&#45;&gt;Node8 -->
<g id="edge48" class="edge">
<title>Node22&#45;&gt;Node8</title>
<path fill="none" stroke="midnightblue" d="M198.08,-224.27C199.73,-201.65 207.49,-140.93 243.63,-112 310.71,-58.32 574.62,-25.48 673.74,-14.82"/>
<polygon fill="midnightblue" stroke="midnightblue" points="674.32,-18.28 683.9,-13.74 673.59,-11.32 674.32,-18.28"/>
</g>
<!-- Node22&#45;&gt;Node9 -->
<g id="edge47" class="edge">
<title>Node22&#45;&gt;Node9</title>
<path fill="none" stroke="midnightblue" d="M293.97,-225.29C377.91,-217.91 502.75,-205.33 610.63,-188 659.71,-180.12 795.29,-150.1 868.04,-133.76"/>
<polygon fill="midnightblue" stroke="midnightblue" points="868.88,-137.16 877.87,-131.55 867.35,-130.33 868.88,-137.16"/>
</g>
<!-- Node22&#45;&gt;Node12 -->
<g id="edge41" class="edge">
<title>Node22&#45;&gt;Node12</title>
<path fill="none" stroke="midnightblue" d="M201.66,-224.13C213.86,-197.4 250.24,-119.04 260.63,-112 326.15,-67.59 569.51,-65.37 665.93,-66.31"/>
<polygon fill="midnightblue" stroke="midnightblue" points="666.09,-69.81 676.13,-66.43 666.17,-62.81 666.09,-69.81"/>
</g>
<!-- Node22&#45;&gt;Node18 -->
<g id="edge42" class="edge">
<title>Node22&#45;&gt;Node18</title>
<path fill="none" stroke="midnightblue" d="M247.23,-224.44C302.63,-214.89 392.28,-199.42 451.34,-189.23"/>
<polygon fill="midnightblue" stroke="midnightblue" points="452.01,-192.67 461.27,-187.52 450.82,-185.77 452.01,-192.67"/>
</g>
<!-- Node23 -->
<g id="node23" class="node">
<title>Node23</title>
<g id="a_node23"><a xlink:href="polarpointf_8h.html" target="_top" xlink:title=" ">
<polygon fill="white" stroke="black" points="17.63,-168.5 17.63,-187.5 175.63,-187.5 175.63,-168.5 17.63,-168.5"/>
<text text-anchor="middle" x="96.63" y="-175.5" font-family="Helvetica,sans-Serif" font-size="10.00">PerceptualColor/polarpointf.h</text>
</a>
</g>
</g>
<!-- Node22&#45;&gt;Node23 -->
<g id="edge43" class="edge">
<title>Node22&#45;&gt;Node23</title>
<path fill="none" stroke="midnightblue" d="M181.41,-224.32C165.28,-215.7 140.33,-202.36 121.67,-192.39"/>
<polygon fill="midnightblue" stroke="midnightblue" points="123.29,-189.28 112.82,-187.65 119.99,-195.46 123.29,-189.28"/>
</g>
<!-- Node23&#45;&gt;Node11 -->
<g id="edge44" class="edge">
<title>Node23&#45;&gt;Node11</title>
<path fill="none" stroke="midnightblue" d="M128.48,-168.44C164.15,-158.86 221.92,-143.34 259.84,-133.15"/>
<polygon fill="midnightblue" stroke="midnightblue" points="260.75,-136.53 269.5,-130.56 258.94,-129.77 260.75,-136.53"/>
</g>
<!-- Node24 -->
<g id="node24" class="node">
<title>Node24</title>
<g id="a_node24"><a xlink:title=" ">
<polygon fill="white" stroke="#bfbfbf" points="25.13,-112.5 25.13,-131.5 80.13,-131.5 80.13,-112.5 25.13,-112.5"/>
<text text-anchor="middle" x="52.63" y="-119.5" font-family="Helvetica,sans-Serif" font-size="10.00">QPointF</text>
</a>
</g>
</g>
<!-- Node23&#45;&gt;Node24 -->
<g id="edge45" class="edge">
<title>Node23&#45;&gt;Node24</title>
<path fill="none" stroke="midnightblue" d="M89.37,-168.08C83.09,-160.38 73.85,-149.03 66.2,-139.65"/>
<polygon fill="midnightblue" stroke="midnightblue" points="68.8,-137.29 59.77,-131.75 63.37,-141.71 68.8,-137.29"/>
</g>
<!-- Node25 -->
<g id="node25" class="node">
<title>Node25</title>
<g id="a_node25"><a xlink:title=" ">
<polygon fill="white" stroke="#bfbfbf" points="98.13,-112.5 98.13,-131.5 169.13,-131.5 169.13,-112.5 98.13,-112.5"/>
<text text-anchor="middle" x="133.63" y="-119.5" font-family="Helvetica,sans-Serif" font-size="10.00">QMetaType</text>
</a>
</g>
</g>
<!-- Node23&#45;&gt;Node25 -->
<g id="edge46" class="edge">
<title>Node23&#45;&gt;Node25</title>
<path fill="none" stroke="midnightblue" d="M102.74,-168.08C107.92,-160.53 115.48,-149.49 121.83,-140.23"/>
<polygon fill="midnightblue" stroke="midnightblue" points="124.87,-141.98 127.64,-131.75 119.1,-138.02 124.87,-141.98"/>
</g>
</g>
</svg>
