<?xml version="1.0" encoding="UTF-8" standalone="no"?>
<!DOCTYPE svg PUBLIC "-//W3C//DTD SVG 1.1//EN"
 "http://www.w3.org/Graphics/SVG/1.1/DTD/svg11.dtd">
<!-- Generated by graphviz version 2.43.0 (0)
 -->
<!-- Title: include/PerceptualColor/fullcolordescription.h Pages: 1 -->
<svg width="387pt" height="207pt"
 viewBox="0.00 0.00 386.50 207.00" xmlns="http://www.w3.org/2000/svg" xmlns:xlink="http://www.w3.org/1999/xlink">
<g id="graph0" class="graph" transform="scale(1 1) rotate(0) translate(4 203)">
<title>include/PerceptualColor/fullcolordescription.h</title>
<polygon fill="white" stroke="transparent" points="-4,4 -4,-203 382.5,-203 382.5,4 -4,4"/>
<!-- Node1 -->
<g id="node1" class="node">
<title>Node1</title>
<g id="a_node1"><a xlink:title=" ">
<polygon fill="#bfbfbf" stroke="black" points="151.5,-168.5 151.5,-198.5 283.5,-198.5 283.5,-168.5 151.5,-168.5"/>
<text text-anchor="start" x="159.5" y="-186.5" font-family="Helvetica,sans-Serif" font-size="10.00">include/PerceptualColor</text>
<text text-anchor="middle" x="217.5" y="-175.5" font-family="Helvetica,sans-Serif" font-size="10.00">/fullcolordescription.h</text>
</a>
</g>
</g>
<!-- Node2 -->
<g id="node2" class="node">
<title>Node2</title>
<g id="a_node2"><a xlink:href="helper_8h.html" target="_top" xlink:title=" ">
<polygon fill="white" stroke="black" points="43.5,-56.5 43.5,-75.5 179.5,-75.5 179.5,-56.5 43.5,-56.5"/>
<text text-anchor="middle" x="111.5" y="-63.5" font-family="Helvetica,sans-Serif" font-size="10.00">PerceptualColor/helper.h</text>
</a>
</g>
</g>
<!-- Node1&#45;&gt;Node2 -->
<g id="edge1" class="edge">
<title>Node1&#45;&gt;Node2</title>
<path fill="none" stroke="midnightblue" d="M171.18,-168.41C152.95,-160.56 133.53,-148.86 121.5,-132 112.07,-118.78 110.03,-100.2 110.08,-86.28"/>
<polygon fill="midnightblue" stroke="midnightblue" points="113.59,-86.05 110.5,-75.91 106.6,-85.76 113.59,-86.05"/>
</g>
<!-- Node6 -->
<g id="node6" class="node">
<title>Node6</title>
<g id="a_node6"><a xlink:href="rgbcolorspace_8h.html" target="_top" xlink:title=" ">
<polygon fill="white" stroke="black" points="130.5,-112.5 130.5,-131.5 304.5,-131.5 304.5,-112.5 130.5,-112.5"/>
<text text-anchor="middle" x="217.5" y="-119.5" font-family="Helvetica,sans-Serif" font-size="10.00">PerceptualColor/rgbcolorspace.h</text>
</a>
</g>
</g>
<!-- Node1&#45;&gt;Node6 -->
<g id="edge5" class="edge">
<title>Node1&#45;&gt;Node6</title>
<path fill="none" stroke="midnightblue" d="M217.5,-168.4C217.5,-160.47 217.5,-150.46 217.5,-141.86"/>
<polygon fill="midnightblue" stroke="midnightblue" points="221,-141.66 217.5,-131.66 214,-141.66 221,-141.66"/>
</g>
<!-- Node8 -->
<g id="node8" class="node">
<title>Node8</title>
<g id="a_node8"><a xlink:title=" ">
<polygon fill="white" stroke="#bfbfbf" points="322.5,-112.5 322.5,-131.5 378.5,-131.5 378.5,-112.5 322.5,-112.5"/>
<text text-anchor="middle" x="350.5" y="-119.5" font-family="Helvetica,sans-Serif" font-size="10.00">QDebug</text>
</a>
</g>
</g>
<!-- Node1&#45;&gt;Node8 -->
<g id="edge9" class="edge">
<title>Node1&#45;&gt;Node8</title>
<path fill="none" stroke="midnightblue" d="M249.02,-168.4C271.14,-158.51 300.47,-145.38 321.91,-135.79"/>
<polygon fill="midnightblue" stroke="midnightblue" points="323.45,-138.94 331.15,-131.66 320.59,-132.55 323.45,-138.94"/>
</g>
<!-- Node3 -->
<g id="node3" class="node">
<title>Node3</title>
<g id="a_node3"><a xlink:title=" ">
<polygon fill="white" stroke="#bfbfbf" points="0,-0.5 0,-19.5 55,-19.5 55,-0.5 0,-0.5"/>
<text text-anchor="middle" x="27.5" y="-7.5" font-family="Helvetica,sans-Serif" font-size="10.00">QImage</text>
</a>
</g>
</g>
<!-- Node2&#45;&gt;Node3 -->
<g id="edge2" class="edge">
<title>Node2&#45;&gt;Node3</title>
<path fill="none" stroke="midnightblue" d="M98,-56.32C84.9,-47.9 64.79,-34.97 49.39,-25.07"/>
<polygon fill="midnightblue" stroke="midnightblue" points="51.27,-22.12 40.96,-19.65 47.48,-28.01 51.27,-22.12"/>
</g>
<!-- Node4 -->
<g id="node4" class="node">
<title>Node4</title>
<g id="a_node4"><a xlink:title=" ">
<polygon fill="white" stroke="#bfbfbf" points="73,-0.5 73,-19.5 156,-19.5 156,-0.5 73,-0.5"/>
<text text-anchor="middle" x="114.5" y="-7.5" font-family="Helvetica,sans-Serif" font-size="10.00">QWheelEvent</text>
</a>
</g>
</g>
<!-- Node2&#45;&gt;Node4 -->
<g id="edge3" class="edge">
<title>Node2&#45;&gt;Node4</title>
<path fill="none" stroke="midnightblue" d="M112,-56.08C112.39,-49.01 112.95,-38.86 113.45,-29.99"/>
<polygon fill="midnightblue" stroke="midnightblue" points="116.95,-29.93 114.01,-19.75 109.96,-29.54 116.95,-29.93"/>
</g>
<!-- Node5 -->
<g id="node5" class="node">
<title>Node5</title>
<g id="a_node5"><a xlink:title=" ">
<polygon fill="white" stroke="#bfbfbf" points="178,-0.5 178,-19.5 233,-19.5 233,-0.5 178,-0.5"/>
<text text-anchor="middle" x="205.5" y="-7.5" font-family="Helvetica,sans-Serif" font-size="10.00">lcms2.h</text>
</a>
</g>
</g>
<!-- Node2&#45;&gt;Node5 -->
<g id="edge4" class="edge">
<title>Node2&#45;&gt;Node5</title>
<path fill="none" stroke="midnightblue" d="M126.6,-56.32C141.4,-47.82 164.19,-34.73 181.48,-24.8"/>
<polygon fill="midnightblue" stroke="midnightblue" points="183.51,-27.67 190.43,-19.65 180.02,-21.6 183.51,-27.67"/>
</g>
<!-- Node6&#45;&gt;Node2 -->
<g id="edge8" class="edge">
<title>Node6&#45;&gt;Node2</title>
<path fill="none" stroke="midnightblue" d="M200.47,-112.32C183.47,-103.66 157.12,-90.24 137.51,-80.25"/>
<polygon fill="midnightblue" stroke="midnightblue" points="138.99,-77.08 128.49,-75.65 135.81,-83.31 138.99,-77.08"/>
</g>
<!-- Node6&#45;&gt;Node5 -->
<g id="edge7" class="edge">
<title>Node6&#45;&gt;Node5</title>
<path fill="none" stroke="midnightblue" d="M216.56,-112.37C214.62,-94.62 210.15,-53.67 207.53,-29.6"/>
<polygon fill="midnightblue" stroke="midnightblue" points="211,-29.15 206.44,-19.59 204.04,-29.91 211,-29.15"/>
</g>
<!-- Node7 -->
<g id="node7" class="node">
<title>Node7</title>
<g id="a_node7"><a xlink:title=" ">
<polygon fill="white" stroke="#bfbfbf" points="235.5,-56.5 235.5,-75.5 291.5,-75.5 291.5,-56.5 235.5,-56.5"/>
<text text-anchor="middle" x="263.5" y="-63.5" font-family="Helvetica,sans-Serif" font-size="10.00">QObject</text>
</a>
</g>
</g>
<!-- Node6&#45;&gt;Node7 -->
<g id="edge6" class="edge">
<title>Node6&#45;&gt;Node7</title>
<path fill="none" stroke="midnightblue" d="M225.1,-112.08C231.73,-104.3 241.52,-92.8 249.56,-83.37"/>
<polygon fill="midnightblue" stroke="midnightblue" points="252.23,-85.63 256.05,-75.75 246.9,-81.09 252.23,-85.63"/>
</g>
</g>
</svg>
