<?xml version="1.0" encoding="UTF-8" standalone="no"?>
<!DOCTYPE svg PUBLIC "-//W3C//DTD SVG 1.1//EN"
 "http://www.w3.org/Graphics/SVG/1.1/DTD/svg11.dtd">
<!-- Generated by graphviz version 2.43.0 (0)
 -->
<!-- Title: src/fullcolordescription.cpp Pages: 1 -->
<svg width="549pt" height="252pt"
 viewBox="0.00 0.00 549.00 252.00" xmlns="http://www.w3.org/2000/svg" xmlns:xlink="http://www.w3.org/1999/xlink">
<g id="graph0" class="graph" transform="scale(1 1) rotate(0) translate(4 248)">
<title>src/fullcolordescription.cpp</title>
<polygon fill="white" stroke="transparent" points="-4,4 -4,-248 545,-248 545,4 -4,4"/>
<!-- Node1 -->
<g id="node1" class="node">
<title>Node1</title>
<g id="a_node1"><a xlink:title=" ">
<polygon fill="#bfbfbf" stroke="black" points="246.5,-224.5 246.5,-243.5 394.5,-243.5 394.5,-224.5 246.5,-224.5"/>
<text text-anchor="middle" x="320.5" y="-231.5" font-family="Helvetica,sans-Serif" font-size="10.00">src/fullcolordescription.cpp</text>
</a>
</g>
</g>
<!-- Node2 -->
<g id="node2" class="node">
<title>Node2</title>
<g id="a_node2"><a xlink:href="fullcolordescription_8h.html" target="_top" xlink:title=" ">
<polygon fill="white" stroke="black" points="122.5,-168.5 122.5,-187.5 322.5,-187.5 322.5,-168.5 122.5,-168.5"/>
<text text-anchor="middle" x="222.5" y="-175.5" font-family="Helvetica,sans-Serif" font-size="10.00">PerceptualColor/fullcolordescription.h</text>
</a>
</g>
</g>
<!-- Node1&#45;&gt;Node2 -->
<g id="edge1" class="edge">
<title>Node1&#45;&gt;Node2</title>
<path fill="none" stroke="midnightblue" d="M304.75,-224.32C289.18,-215.74 265.12,-202.49 247.04,-192.52"/>
<polygon fill="midnightblue" stroke="midnightblue" points="248.65,-189.42 238.21,-187.65 245.28,-195.55 248.65,-189.42"/>
</g>
<!-- Node10 -->
<g id="node10" class="node">
<title>Node10</title>
<g id="a_node10"><a xlink:href="polarpointf_8h.html" target="_top" xlink:title=" ">
<polygon fill="white" stroke="black" points="342.5,-168.5 342.5,-187.5 500.5,-187.5 500.5,-168.5 342.5,-168.5"/>
<text text-anchor="middle" x="421.5" y="-175.5" font-family="Helvetica,sans-Serif" font-size="10.00">PerceptualColor/polarpointf.h</text>
</a>
</g>
</g>
<!-- Node1&#45;&gt;Node10 -->
<g id="edge11" class="edge">
<title>Node1&#45;&gt;Node10</title>
<path fill="none" stroke="midnightblue" d="M336.73,-224.32C352.85,-215.7 377.8,-202.36 396.46,-192.39"/>
<polygon fill="midnightblue" stroke="midnightblue" points="398.14,-195.46 405.31,-187.65 394.84,-189.28 398.14,-195.46"/>
</g>
<!-- Node3 -->
<g id="node3" class="node">
<title>Node3</title>
<g id="a_node3"><a xlink:href="helper_8h.html" target="_top" xlink:title=" ">
<polygon fill="white" stroke="black" points="43.5,-56.5 43.5,-75.5 179.5,-75.5 179.5,-56.5 43.5,-56.5"/>
<text text-anchor="middle" x="111.5" y="-63.5" font-family="Helvetica,sans-Serif" font-size="10.00">PerceptualColor/helper.h</text>
</a>
</g>
</g>
<!-- Node2&#45;&gt;Node3 -->
<g id="edge2" class="edge">
<title>Node2&#45;&gt;Node3</title>
<path fill="none" stroke="midnightblue" d="M180.9,-168.46C159.9,-161.98 135.89,-150.84 121.5,-132 111.44,-118.83 109.57,-99.69 109.84,-85.59"/>
<polygon fill="midnightblue" stroke="midnightblue" points="113.34,-85.75 110.4,-75.57 106.35,-85.36 113.34,-85.75"/>
</g>
<!-- Node7 -->
<g id="node7" class="node">
<title>Node7</title>
<g id="a_node7"><a xlink:href="rgbcolorspace_8h.html" target="_top" xlink:title=" ">
<polygon fill="white" stroke="black" points="130.5,-112.5 130.5,-131.5 304.5,-131.5 304.5,-112.5 130.5,-112.5"/>
<text text-anchor="middle" x="217.5" y="-119.5" font-family="Helvetica,sans-Serif" font-size="10.00">PerceptualColor/rgbcolorspace.h</text>
</a>
</g>
</g>
<!-- Node2&#45;&gt;Node7 -->
<g id="edge6" class="edge">
<title>Node2&#45;&gt;Node7</title>
<path fill="none" stroke="midnightblue" d="M221.67,-168.08C221.02,-161.01 220.08,-150.86 219.26,-141.99"/>
<polygon fill="midnightblue" stroke="midnightblue" points="222.72,-141.39 218.31,-131.75 215.75,-142.03 222.72,-141.39"/>
</g>
<!-- Node9 -->
<g id="node9" class="node">
<title>Node9</title>
<g id="a_node9"><a xlink:title=" ">
<polygon fill="white" stroke="#bfbfbf" points="322.5,-112.5 322.5,-131.5 378.5,-131.5 378.5,-112.5 322.5,-112.5"/>
<text text-anchor="middle" x="350.5" y="-119.5" font-family="Helvetica,sans-Serif" font-size="10.00">QDebug</text>
</a>
</g>
</g>
<!-- Node2&#45;&gt;Node9 -->
<g id="edge10" class="edge">
<title>Node2&#45;&gt;Node9</title>
<path fill="none" stroke="midnightblue" d="M242.78,-168.44C263.85,-159.56 297.02,-145.56 320.99,-135.45"/>
<polygon fill="midnightblue" stroke="midnightblue" points="322.46,-138.63 330.31,-131.52 319.74,-132.18 322.46,-138.63"/>
</g>
<!-- Node4 -->
<g id="node4" class="node">
<title>Node4</title>
<g id="a_node4"><a xlink:title=" ">
<polygon fill="white" stroke="#bfbfbf" points="0,-0.5 0,-19.5 55,-19.5 55,-0.5 0,-0.5"/>
<text text-anchor="middle" x="27.5" y="-7.5" font-family="Helvetica,sans-Serif" font-size="10.00">QImage</text>
</a>
</g>
</g>
<!-- Node3&#45;&gt;Node4 -->
<g id="edge3" class="edge">
<title>Node3&#45;&gt;Node4</title>
<path fill="none" stroke="midnightblue" d="M98,-56.32C84.9,-47.9 64.79,-34.97 49.39,-25.07"/>
<polygon fill="midnightblue" stroke="midnightblue" points="51.27,-22.12 40.96,-19.65 47.48,-28.01 51.27,-22.12"/>
</g>
<!-- Node5 -->
<g id="node5" class="node">
<title>Node5</title>
<g id="a_node5"><a xlink:title=" ">
<polygon fill="white" stroke="#bfbfbf" points="73,-0.5 73,-19.5 156,-19.5 156,-0.5 73,-0.5"/>
<text text-anchor="middle" x="114.5" y="-7.5" font-family="Helvetica,sans-Serif" font-size="10.00">QWheelEvent</text>
</a>
</g>
</g>
<!-- Node3&#45;&gt;Node5 -->
<g id="edge4" class="edge">
<title>Node3&#45;&gt;Node5</title>
<path fill="none" stroke="midnightblue" d="M112,-56.08C112.39,-49.01 112.95,-38.86 113.45,-29.99"/>
<polygon fill="midnightblue" stroke="midnightblue" points="116.95,-29.93 114.01,-19.75 109.96,-29.54 116.95,-29.93"/>
</g>
<!-- Node6 -->
<g id="node6" class="node">
<title>Node6</title>
<g id="a_node6"><a xlink:title=" ">
<polygon fill="white" stroke="#bfbfbf" points="178,-0.5 178,-19.5 233,-19.5 233,-0.5 178,-0.5"/>
<text text-anchor="middle" x="205.5" y="-7.5" font-family="Helvetica,sans-Serif" font-size="10.00">lcms2.h</text>
</a>
</g>
</g>
<!-- Node3&#45;&gt;Node6 -->
<g id="edge5" class="edge">
<title>Node3&#45;&gt;Node6</title>
<path fill="none" stroke="midnightblue" d="M126.6,-56.32C141.4,-47.82 164.19,-34.73 181.48,-24.8"/>
<polygon fill="midnightblue" stroke="midnightblue" points="183.51,-27.67 190.43,-19.65 180.02,-21.6 183.51,-27.67"/>
</g>
<!-- Node7&#45;&gt;Node3 -->
<g id="edge9" class="edge">
<title>Node7&#45;&gt;Node3</title>
<path fill="none" stroke="midnightblue" d="M200.47,-112.32C183.47,-103.66 157.12,-90.24 137.51,-80.25"/>
<polygon fill="midnightblue" stroke="midnightblue" points="138.99,-77.08 128.49,-75.65 135.81,-83.31 138.99,-77.08"/>
</g>
<!-- Node7&#45;&gt;Node6 -->
<g id="edge8" class="edge">
<title>Node7&#45;&gt;Node6</title>
<path fill="none" stroke="midnightblue" d="M216.56,-112.37C214.62,-94.62 210.15,-53.67 207.53,-29.6"/>
<polygon fill="midnightblue" stroke="midnightblue" points="211,-29.15 206.44,-19.59 204.04,-29.91 211,-29.15"/>
</g>
<!-- Node8 -->
<g id="node8" class="node">
<title>Node8</title>
<g id="a_node8"><a xlink:title=" ">
<polygon fill="white" stroke="#bfbfbf" points="235.5,-56.5 235.5,-75.5 291.5,-75.5 291.5,-56.5 235.5,-56.5"/>
<text text-anchor="middle" x="263.5" y="-63.5" font-family="Helvetica,sans-Serif" font-size="10.00">QObject</text>
</a>
</g>
</g>
<!-- Node7&#45;&gt;Node8 -->
<g id="edge7" class="edge">
<title>Node7&#45;&gt;Node8</title>
<path fill="none" stroke="midnightblue" d="M225.1,-112.08C231.73,-104.3 241.52,-92.8 249.56,-83.37"/>
<polygon fill="midnightblue" stroke="midnightblue" points="252.23,-85.63 256.05,-75.75 246.9,-81.09 252.23,-85.63"/>
</g>
<!-- Node10&#45;&gt;Node9 -->
<g id="edge12" class="edge">
<title>Node10&#45;&gt;Node9</title>
<path fill="none" stroke="midnightblue" d="M410.09,-168.32C399.39,-160.18 383.16,-147.84 370.34,-138.09"/>
<polygon fill="midnightblue" stroke="midnightblue" points="372.19,-135.1 362.11,-131.83 367.96,-140.67 372.19,-135.1"/>
</g>
<!-- Node11 -->
<g id="node11" class="node">
<title>Node11</title>
<g id="a_node11"><a xlink:title=" ">
<polygon fill="white" stroke="#bfbfbf" points="397,-112.5 397,-131.5 452,-131.5 452,-112.5 397,-112.5"/>
<text text-anchor="middle" x="424.5" y="-119.5" font-family="Helvetica,sans-Serif" font-size="10.00">QPointF</text>
</a>
</g>
</g>
<!-- Node10&#45;&gt;Node11 -->
<g id="edge13" class="edge">
<title>Node10&#45;&gt;Node11</title>
<path fill="none" stroke="midnightblue" d="M422,-168.08C422.39,-161.01 422.95,-150.86 423.45,-141.99"/>
<polygon fill="midnightblue" stroke="midnightblue" points="426.95,-141.93 424.01,-131.75 419.96,-141.54 426.95,-141.93"/>
</g>
<!-- Node12 -->
<g id="node12" class="node">
<title>Node12</title>
<g id="a_node12"><a xlink:title=" ">
<polygon fill="white" stroke="#bfbfbf" points="470,-112.5 470,-131.5 541,-131.5 541,-112.5 470,-112.5"/>
<text text-anchor="middle" x="505.5" y="-119.5" font-family="Helvetica,sans-Serif" font-size="10.00">QMetaType</text>
</a>
</g>
</g>
<!-- Node10&#45;&gt;Node12 -->
<g id="edge14" class="edge">
<title>Node10&#45;&gt;Node12</title>
<path fill="none" stroke="midnightblue" d="M435,-168.32C448.1,-159.9 468.21,-146.97 483.61,-137.07"/>
<polygon fill="midnightblue" stroke="midnightblue" points="485.52,-140.01 492.04,-131.65 481.73,-134.12 485.52,-140.01"/>
</g>
</g>
</svg>
