<?xml version="1.0" encoding="UTF-8" standalone="no"?>
<!DOCTYPE svg PUBLIC "-//W3C//DTD SVG 1.1//EN"
 "http://www.w3.org/Graphics/SVG/1.1/DTD/svg11.dtd">
<!-- Generated by graphviz version 2.43.0 (0)
 -->
<!-- Title: include/PerceptualColor/fullcolordescription.h Pages: 1 -->
<svg width="931pt" height="296pt"
 viewBox="0.00 0.00 931.00 296.00" xmlns="http://www.w3.org/2000/svg" xmlns:xlink="http://www.w3.org/1999/xlink">
<g id="graph0" class="graph" transform="scale(1 1) rotate(0) translate(4 292)">
<title>include/PerceptualColor/fullcolordescription.h</title>
<polygon fill="white" stroke="transparent" points="-4,4 -4,-292 927,-292 927,4 -4,4"/>
<!-- Node1 -->
<g id="node1" class="node">
<title>Node1</title>
<g id="a_node1"><a xlink:title=" ">
<polygon fill="#bfbfbf" stroke="black" points="251,-257.5 251,-287.5 383,-287.5 383,-257.5 251,-257.5"/>
<text text-anchor="start" x="259" y="-275.5" font-family="Helvetica,sans-Serif" font-size="10.00">include/PerceptualColor</text>
<text text-anchor="middle" x="317" y="-264.5" font-family="Helvetica,sans-Serif" font-size="10.00">/fullcolordescription.h</text>
</a>
</g>
</g>
<!-- Node2 -->
<g id="node2" class="node">
<title>Node2</title>
<g id="a_node2"><a xlink:href="fullcolordescription_8cpp.html" target="_top" xlink:title=" ">
<polygon fill="white" stroke="black" points="0,-196 0,-215 148,-215 148,-196 0,-196"/>
<text text-anchor="middle" x="74" y="-203" font-family="Helvetica,sans-Serif" font-size="10.00">src/fullcolordescription.cpp</text>
</a>
</g>
</g>
<!-- Node1&#45;&gt;Node2 -->
<g id="edge1" class="edge">
<title>Node1&#45;&gt;Node2</title>
<path fill="none" stroke="midnightblue" d="M254.68,-254.83C207.12,-242.11 143.56,-225.11 105.88,-215.03"/>
<polygon fill="midnightblue" stroke="midnightblue" points="254.01,-258.27 264.57,-257.48 255.82,-251.51 254.01,-258.27"/>
</g>
<!-- Node3 -->
<g id="node3" class="node">
<title>Node3</title>
<g id="a_node3"><a xlink:href="alphaselector_8h.html" target="_top" xlink:title=" ">
<polygon fill="white" stroke="black" points="14,-123.5 14,-153.5 146,-153.5 146,-123.5 14,-123.5"/>
<text text-anchor="start" x="22" y="-141.5" font-family="Helvetica,sans-Serif" font-size="10.00">include/PerceptualColor</text>
<text text-anchor="middle" x="80" y="-130.5" font-family="Helvetica,sans-Serif" font-size="10.00">/alphaselector.h</text>
</a>
</g>
</g>
<!-- Node1&#45;&gt;Node3 -->
<g id="edge2" class="edge">
<title>Node1&#45;&gt;Node3</title>
<path fill="none" stroke="midnightblue" d="M264.98,-253.82C242.71,-245.29 216.86,-234.05 195,-221 176.29,-209.82 174.58,-202.88 157,-190 139.33,-177.05 118.52,-163.5 102.99,-153.7"/>
<polygon fill="midnightblue" stroke="midnightblue" points="264.02,-257.2 274.61,-257.43 266.47,-250.64 264.02,-257.2"/>
</g>
<!-- Node5 -->
<g id="node5" class="node">
<title>Node5</title>
<g id="a_node5"><a xlink:href="colordialog_8h.html" target="_top" xlink:title=" ">
<polygon fill="white" stroke="black" points="298,-56.5 298,-86.5 430,-86.5 430,-56.5 298,-56.5"/>
<text text-anchor="start" x="306" y="-74.5" font-family="Helvetica,sans-Serif" font-size="10.00">include/PerceptualColor</text>
<text text-anchor="middle" x="364" y="-63.5" font-family="Helvetica,sans-Serif" font-size="10.00">/colordialog.h</text>
</a>
</g>
</g>
<!-- Node1&#45;&gt;Node5 -->
<g id="edge15" class="edge">
<title>Node1&#45;&gt;Node5</title>
<path fill="none" stroke="midnightblue" d="M332.22,-248.41C337.04,-240.08 341.91,-230.41 345,-221 360.54,-173.58 363.46,-113.76 363.95,-86.81"/>
<polygon fill="midnightblue" stroke="midnightblue" points="329.1,-246.79 326.89,-257.15 335.08,-250.43 329.1,-246.79"/>
</g>
<!-- Node8 -->
<g id="node8" class="node">
<title>Node8</title>
<g id="a_node8"><a xlink:href="chromahuediagram_8h.html" target="_top" xlink:title=" ">
<polygon fill="white" stroke="black" points="392,-190.5 392,-220.5 524,-220.5 524,-190.5 392,-190.5"/>
<text text-anchor="start" x="400" y="-208.5" font-family="Helvetica,sans-Serif" font-size="10.00">include/PerceptualColor</text>
<text text-anchor="middle" x="458" y="-197.5" font-family="Helvetica,sans-Serif" font-size="10.00">/chromahuediagram.h</text>
</a>
</g>
</g>
<!-- Node1&#45;&gt;Node8 -->
<g id="edge7" class="edge">
<title>Node1&#45;&gt;Node8</title>
<path fill="none" stroke="midnightblue" d="M356.85,-253.13C379.25,-242.8 406.78,-230.11 427.46,-220.58"/>
<polygon fill="midnightblue" stroke="midnightblue" points="355.21,-250.03 347.59,-257.4 358.14,-256.39 355.21,-250.03"/>
</g>
<!-- Node10 -->
<g id="node10" class="node">
<title>Node10</title>
<g id="a_node10"><a xlink:href="chromalightnessdiagram_8h.html" target="_top" xlink:title=" ">
<polygon fill="white" stroke="black" points="588,-190.5 588,-220.5 738,-220.5 738,-190.5 588,-190.5"/>
<text text-anchor="start" x="596" y="-208.5" font-family="Helvetica,sans-Serif" font-size="10.00">include/PerceptualColor</text>
<text text-anchor="middle" x="663" y="-197.5" font-family="Helvetica,sans-Serif" font-size="10.00">/chromalightnessdiagram.h</text>
</a>
</g>
</g>
<!-- Node1&#45;&gt;Node10 -->
<g id="edge10" class="edge">
<title>Node1&#45;&gt;Node10</title>
<path fill="none" stroke="midnightblue" d="M393.14,-257.2C451.14,-246.3 530.56,-231.38 588.21,-220.55"/>
<polygon fill="midnightblue" stroke="midnightblue" points="392.48,-253.76 383.3,-259.04 393.78,-260.64 392.48,-253.76"/>
</g>
<!-- Node14 -->
<g id="node14" class="node">
<title>Node14</title>
<g id="a_node14"><a xlink:href="gradientselector_8h.html" target="_top" xlink:title=" ">
<polygon fill="white" stroke="black" points="204,-190.5 204,-220.5 336,-220.5 336,-190.5 204,-190.5"/>
<text text-anchor="start" x="212" y="-208.5" font-family="Helvetica,sans-Serif" font-size="10.00">include/PerceptualColor</text>
<text text-anchor="middle" x="270" y="-197.5" font-family="Helvetica,sans-Serif" font-size="10.00">/gradientselector.h</text>
</a>
</g>
</g>
<!-- Node1&#45;&gt;Node14 -->
<g id="edge16" class="edge">
<title>Node1&#45;&gt;Node14</title>
<path fill="none" stroke="midnightblue" d="M300.84,-249.16C293.99,-239.68 286.21,-228.92 280.18,-220.58"/>
<polygon fill="midnightblue" stroke="midnightblue" points="298.11,-251.34 306.8,-257.4 303.78,-247.24 298.11,-251.34"/>
</g>
<!-- Node4 -->
<g id="node4" class="node">
<title>Node4</title>
<g id="a_node4"><a xlink:href="alphaselector_8cpp.html" target="_top" xlink:title=" ">
<polygon fill="white" stroke="black" points="20.5,-62 20.5,-81 139.5,-81 139.5,-62 20.5,-62"/>
<text text-anchor="middle" x="80" y="-69" font-family="Helvetica,sans-Serif" font-size="10.00">src/alphaselector.cpp</text>
</a>
</g>
</g>
<!-- Node3&#45;&gt;Node4 -->
<g id="edge3" class="edge">
<title>Node3&#45;&gt;Node4</title>
<path fill="none" stroke="midnightblue" d="M80,-113.25C80,-102.02 80,-89.38 80,-81.19"/>
<polygon fill="midnightblue" stroke="midnightblue" points="76.5,-113.4 80,-123.4 83.5,-113.4 76.5,-113.4"/>
</g>
<!-- Node3&#45;&gt;Node5 -->
<g id="edge4" class="edge">
<title>Node3&#45;&gt;Node5</title>
<path fill="none" stroke="midnightblue" d="M151.28,-121.19C197.79,-110.54 257.9,-96.78 302.35,-86.61"/>
<polygon fill="midnightblue" stroke="midnightblue" points="150.24,-117.83 141.27,-123.48 151.8,-124.66 150.24,-117.83"/>
</g>
<!-- Node6 -->
<g id="node6" class="node">
<title>Node6</title>
<g id="a_node6"><a xlink:href="colordialog_8cpp.html" target="_top" xlink:title=" ">
<polygon fill="white" stroke="black" points="254,-0.5 254,-19.5 362,-19.5 362,-0.5 254,-0.5"/>
<text text-anchor="middle" x="308" y="-7.5" font-family="Helvetica,sans-Serif" font-size="10.00">src/colordialog.cpp</text>
</a>
</g>
</g>
<!-- Node5&#45;&gt;Node6 -->
<g id="edge5" class="edge">
<title>Node5&#45;&gt;Node6</title>
<path fill="none" stroke="midnightblue" d="M343.77,-49C334.22,-38.86 323.37,-27.33 316.15,-19.66"/>
<polygon fill="midnightblue" stroke="midnightblue" points="341.33,-51.52 350.73,-56.4 346.42,-46.72 341.33,-51.52"/>
</g>
<!-- Node7 -->
<g id="node7" class="node">
<title>Node7</title>
<g id="a_node7"><a xlink:href="main_8cpp.html" target="_top" xlink:title=" ">
<polygon fill="white" stroke="black" points="380.5,-0.5 380.5,-19.5 459.5,-19.5 459.5,-0.5 380.5,-0.5"/>
<text text-anchor="middle" x="420" y="-7.5" font-family="Helvetica,sans-Serif" font-size="10.00">src/main.cpp</text>
</a>
</g>
</g>
<!-- Node5&#45;&gt;Node7 -->
<g id="edge6" class="edge">
<title>Node5&#45;&gt;Node7</title>
<path fill="none" stroke="midnightblue" d="M384.23,-49C393.78,-38.86 404.63,-27.33 411.85,-19.66"/>
<polygon fill="midnightblue" stroke="midnightblue" points="381.58,-46.72 377.27,-56.4 386.67,-51.52 381.58,-46.72"/>
</g>
<!-- Node8&#45;&gt;Node5 -->
<g id="edge9" class="edge">
<title>Node8&#45;&gt;Node5</title>
<path fill="none" stroke="midnightblue" d="M441.5,-182.2C435.06,-173.44 427.64,-163.28 421,-154 404.21,-130.55 385.07,-103.02 373.79,-86.7"/>
<polygon fill="midnightblue" stroke="midnightblue" points="438.8,-184.44 447.55,-190.41 444.44,-180.28 438.8,-184.44"/>
</g>
<!-- Node9 -->
<g id="node9" class="node">
<title>Node9</title>
<g id="a_node9"><a xlink:href="chromahuediagram_8cpp.html" target="_top" xlink:title=" ">
<polygon fill="white" stroke="black" points="429.5,-129 429.5,-148 578.5,-148 578.5,-129 429.5,-129"/>
<text text-anchor="middle" x="504" y="-136" font-family="Helvetica,sans-Serif" font-size="10.00">src/chromahuediagram.cpp</text>
</a>
</g>
</g>
<!-- Node8&#45;&gt;Node9 -->
<g id="edge8" class="edge">
<title>Node8&#45;&gt;Node9</title>
<path fill="none" stroke="midnightblue" d="M473.94,-181.97C482.18,-170.33 491.76,-156.8 497.85,-148.19"/>
<polygon fill="midnightblue" stroke="midnightblue" points="470.9,-180.21 467.98,-190.4 476.61,-184.26 470.9,-180.21"/>
</g>
<!-- Node11 -->
<g id="node11" class="node">
<title>Node11</title>
<g id="a_node11"><a xlink:href="chromalightnessdiagram_8cpp.html" target="_top" xlink:title=" ">
<polygon fill="white" stroke="black" points="747,-129 747,-148 923,-148 923,-129 747,-129"/>
<text text-anchor="middle" x="835" y="-136" font-family="Helvetica,sans-Serif" font-size="10.00">src/chromalightnessdiagram.cpp</text>
</a>
</g>
</g>
<!-- Node10&#45;&gt;Node11 -->
<g id="edge11" class="edge">
<title>Node10&#45;&gt;Node11</title>
<path fill="none" stroke="midnightblue" d="M709.88,-186.78C743.23,-174.18 786.55,-157.81 812.49,-148.01"/>
<polygon fill="midnightblue" stroke="midnightblue" points="708.44,-183.59 700.32,-190.4 710.91,-190.13 708.44,-183.59"/>
</g>
<!-- Node12 -->
<g id="node12" class="node">
<title>Node12</title>
<g id="a_node12"><a xlink:href="wheelcolorpicker_8h.html" target="_top" xlink:title=" ">
<polygon fill="white" stroke="black" points="597,-123.5 597,-153.5 729,-153.5 729,-123.5 597,-123.5"/>
<text text-anchor="start" x="605" y="-141.5" font-family="Helvetica,sans-Serif" font-size="10.00">include/PerceptualColor</text>
<text text-anchor="middle" x="663" y="-130.5" font-family="Helvetica,sans-Serif" font-size="10.00">/wheelcolorpicker.h</text>
</a>
</g>
</g>
<!-- Node10&#45;&gt;Node12 -->
<g id="edge12" class="edge">
<title>Node10&#45;&gt;Node12</title>
<path fill="none" stroke="midnightblue" d="M663,-180.11C663,-171.15 663,-161.32 663,-153.58"/>
<polygon fill="midnightblue" stroke="midnightblue" points="659.5,-180.4 663,-190.4 666.5,-180.4 659.5,-180.4"/>
</g>
<!-- Node12&#45;&gt;Node5 -->
<g id="edge14" class="edge">
<title>Node12&#45;&gt;Node5</title>
<path fill="none" stroke="midnightblue" d="M588.55,-121.32C539.41,-110.63 475.66,-96.77 428.65,-86.55"/>
<polygon fill="midnightblue" stroke="midnightblue" points="587.97,-124.77 598.49,-123.48 589.46,-117.93 587.97,-124.77"/>
</g>
<!-- Node13 -->
<g id="node13" class="node">
<title>Node13</title>
<g id="a_node13"><a xlink:href="wheelcolorpicker_8cpp.html" target="_top" xlink:title=" ">
<polygon fill="white" stroke="black" points="595,-62 595,-81 731,-81 731,-62 595,-62"/>
<text text-anchor="middle" x="663" y="-69" font-family="Helvetica,sans-Serif" font-size="10.00">src/wheelcolorpicker.cpp</text>
</a>
</g>
</g>
<!-- Node12&#45;&gt;Node13 -->
<g id="edge13" class="edge">
<title>Node12&#45;&gt;Node13</title>
<path fill="none" stroke="midnightblue" d="M663,-113.25C663,-102.02 663,-89.38 663,-81.19"/>
<polygon fill="midnightblue" stroke="midnightblue" points="659.5,-113.4 663,-123.4 666.5,-113.4 659.5,-113.4"/>
</g>
<!-- Node14&#45;&gt;Node3 -->
<g id="edge18" class="edge">
<title>Node14&#45;&gt;Node3</title>
<path fill="none" stroke="midnightblue" d="M219.11,-187.09C188.44,-176.6 149.89,-163.41 121.15,-153.58"/>
<polygon fill="midnightblue" stroke="midnightblue" points="218.18,-190.47 228.77,-190.4 220.44,-183.85 218.18,-190.47"/>
</g>
<!-- Node14&#45;&gt;Node5 -->
<g id="edge19" class="edge">
<title>Node14&#45;&gt;Node5</title>
<path fill="none" stroke="midnightblue" d="M286.5,-182.2C292.94,-173.44 300.36,-163.28 307,-154 323.79,-130.55 342.93,-103.02 354.21,-86.7"/>
<polygon fill="midnightblue" stroke="midnightblue" points="283.56,-180.28 280.45,-190.41 289.2,-184.44 283.56,-180.28"/>
</g>
<!-- Node15 -->
<g id="node15" class="node">
<title>Node15</title>
<g id="a_node15"><a xlink:href="gradientselector_8cpp.html" target="_top" xlink:title=" ">
<polygon fill="white" stroke="black" points="164.5,-129 164.5,-148 297.5,-148 297.5,-129 164.5,-129"/>
<text text-anchor="middle" x="231" y="-136" font-family="Helvetica,sans-Serif" font-size="10.00">src/gradientselector.cpp</text>
</a>
</g>
</g>
<!-- Node14&#45;&gt;Node15 -->
<g id="edge17" class="edge">
<title>Node14&#45;&gt;Node15</title>
<path fill="none" stroke="midnightblue" d="M256.28,-181.63C249.34,-170.07 241.33,-156.71 236.22,-148.19"/>
<polygon fill="midnightblue" stroke="midnightblue" points="253.39,-183.62 261.54,-190.4 259.39,-180.02 253.39,-183.62"/>
</g>
</g>
</svg>
