<?xml version="1.0" encoding="UTF-8" standalone="no"?>
<!DOCTYPE svg PUBLIC "-//W3C//DTD SVG 1.1//EN"
 "http://www.w3.org/Graphics/SVG/1.1/DTD/svg11.dtd">
<!-- Generated by graphviz version 2.43.0 (0)
 -->
<!-- Title: include/PerceptualColor/gradientselector.h Pages: 1 -->
<svg width="415pt" height="229pt"
 viewBox="0.00 0.00 415.00 229.00" xmlns="http://www.w3.org/2000/svg" xmlns:xlink="http://www.w3.org/1999/xlink">
<g id="graph0" class="graph" transform="scale(1 1) rotate(0) translate(4 225)">
<title>include/PerceptualColor/gradientselector.h</title>
<polygon fill="white" stroke="transparent" points="-4,4 -4,-225 411,-225 411,4 -4,4"/>
<!-- Node1 -->
<g id="node1" class="node">
<title>Node1</title>
<g id="a_node1"><a xlink:title=" ">
<polygon fill="#bfbfbf" stroke="black" points="151.5,-190.5 151.5,-220.5 283.5,-220.5 283.5,-190.5 151.5,-190.5"/>
<text text-anchor="start" x="159.5" y="-208.5" font-family="Helvetica,sans-Serif" font-size="10.00">include/PerceptualColor</text>
<text text-anchor="middle" x="217.5" y="-197.5" font-family="Helvetica,sans-Serif" font-size="10.00">/gradientselector.h</text>
</a>
</g>
</g>
<!-- Node2 -->
<g id="node2" class="node">
<title>Node2</title>
<g id="a_node2"><a xlink:href="gradientselector_8cpp.html" target="_top" xlink:title=" ">
<polygon fill="white" stroke="black" points="0,-129 0,-148 133,-148 133,-129 0,-129"/>
<text text-anchor="middle" x="66.5" y="-136" font-family="Helvetica,sans-Serif" font-size="10.00">src/gradientselector.cpp</text>
</a>
</g>
</g>
<!-- Node1&#45;&gt;Node2 -->
<g id="edge1" class="edge">
<title>Node1&#45;&gt;Node2</title>
<path fill="none" stroke="midnightblue" d="M175.21,-186.3C146.09,-173.76 108.74,-157.68 86.26,-148.01"/>
<polygon fill="midnightblue" stroke="midnightblue" points="174.17,-189.66 184.74,-190.4 176.93,-183.23 174.17,-189.66"/>
</g>
<!-- Node3 -->
<g id="node3" class="node">
<title>Node3</title>
<g id="a_node3"><a xlink:href="alphaselector_8h.html" target="_top" xlink:title=" ">
<polygon fill="white" stroke="black" points="151.5,-123.5 151.5,-153.5 283.5,-153.5 283.5,-123.5 151.5,-123.5"/>
<text text-anchor="start" x="159.5" y="-141.5" font-family="Helvetica,sans-Serif" font-size="10.00">include/PerceptualColor</text>
<text text-anchor="middle" x="217.5" y="-130.5" font-family="Helvetica,sans-Serif" font-size="10.00">/alphaselector.h</text>
</a>
</g>
</g>
<!-- Node1&#45;&gt;Node3 -->
<g id="edge2" class="edge">
<title>Node1&#45;&gt;Node3</title>
<path fill="none" stroke="midnightblue" d="M217.5,-180.11C217.5,-171.15 217.5,-161.32 217.5,-153.58"/>
<polygon fill="midnightblue" stroke="midnightblue" points="214,-180.4 217.5,-190.4 221,-180.4 214,-180.4"/>
</g>
<!-- Node5 -->
<g id="node5" class="node">
<title>Node5</title>
<g id="a_node5"><a xlink:href="colordialog_8h.html" target="_top" xlink:title=" ">
<polygon fill="white" stroke="black" points="245.5,-56.5 245.5,-86.5 377.5,-86.5 377.5,-56.5 245.5,-56.5"/>
<text text-anchor="start" x="253.5" y="-74.5" font-family="Helvetica,sans-Serif" font-size="10.00">include/PerceptualColor</text>
<text text-anchor="middle" x="311.5" y="-63.5" font-family="Helvetica,sans-Serif" font-size="10.00">/colordialog.h</text>
</a>
</g>
</g>
<!-- Node1&#45;&gt;Node5 -->
<g id="edge7" class="edge">
<title>Node1&#45;&gt;Node5</title>
<path fill="none" stroke="midnightblue" d="M257.52,-185.28C270.43,-177.27 283.67,-166.81 292.5,-154 306.6,-133.55 310.34,-104.05 311.27,-86.72"/>
<polygon fill="midnightblue" stroke="midnightblue" points="255.57,-182.37 248.7,-190.44 259.1,-188.42 255.57,-182.37"/>
</g>
<!-- Node4 -->
<g id="node4" class="node">
<title>Node4</title>
<g id="a_node4"><a xlink:href="alphaselector_8cpp.html" target="_top" xlink:title=" ">
<polygon fill="white" stroke="black" points="108,-62 108,-81 227,-81 227,-62 108,-62"/>
<text text-anchor="middle" x="167.5" y="-69" font-family="Helvetica,sans-Serif" font-size="10.00">src/alphaselector.cpp</text>
</a>
</g>
</g>
<!-- Node3&#45;&gt;Node4 -->
<g id="edge3" class="edge">
<title>Node3&#45;&gt;Node4</title>
<path fill="none" stroke="midnightblue" d="M200.44,-115.32C191.42,-103.6 180.87,-89.88 174.19,-81.19"/>
<polygon fill="midnightblue" stroke="midnightblue" points="197.78,-117.6 206.65,-123.4 203.33,-113.34 197.78,-117.6"/>
</g>
<!-- Node3&#45;&gt;Node5 -->
<g id="edge4" class="edge">
<title>Node3&#45;&gt;Node5</title>
<path fill="none" stroke="midnightblue" d="M246.49,-117.45C260.95,-107.45 278.09,-95.6 291.14,-86.58"/>
<polygon fill="midnightblue" stroke="midnightblue" points="244.13,-114.83 237.9,-123.4 248.11,-120.59 244.13,-114.83"/>
</g>
<!-- Node6 -->
<g id="node6" class="node">
<title>Node6</title>
<g id="a_node6"><a xlink:href="colordialog_8cpp.html" target="_top" xlink:title=" ">
<polygon fill="white" stroke="black" points="201.5,-0.5 201.5,-19.5 309.5,-19.5 309.5,-0.5 201.5,-0.5"/>
<text text-anchor="middle" x="255.5" y="-7.5" font-family="Helvetica,sans-Serif" font-size="10.00">src/colordialog.cpp</text>
</a>
</g>
</g>
<!-- Node5&#45;&gt;Node6 -->
<g id="edge5" class="edge">
<title>Node5&#45;&gt;Node6</title>
<path fill="none" stroke="midnightblue" d="M291.27,-49C281.72,-38.86 270.87,-27.33 263.65,-19.66"/>
<polygon fill="midnightblue" stroke="midnightblue" points="288.83,-51.52 298.23,-56.4 293.92,-46.72 288.83,-51.52"/>
</g>
<!-- Node7 -->
<g id="node7" class="node">
<title>Node7</title>
<g id="a_node7"><a xlink:href="main_8cpp.html" target="_top" xlink:title=" ">
<polygon fill="white" stroke="black" points="328,-0.5 328,-19.5 407,-19.5 407,-0.5 328,-0.5"/>
<text text-anchor="middle" x="367.5" y="-7.5" font-family="Helvetica,sans-Serif" font-size="10.00">src/main.cpp</text>
</a>
</g>
</g>
<!-- Node5&#45;&gt;Node7 -->
<g id="edge6" class="edge">
<title>Node5&#45;&gt;Node7</title>
<path fill="none" stroke="midnightblue" d="M331.73,-49C341.28,-38.86 352.13,-27.33 359.35,-19.66"/>
<polygon fill="midnightblue" stroke="midnightblue" points="329.08,-46.72 324.77,-56.4 334.17,-51.52 329.08,-46.72"/>
</g>
</g>
</svg>
