<?xml version="1.0" encoding="UTF-8" standalone="no"?>
<!DOCTYPE svg PUBLIC "-//W3C//DTD SVG 1.1//EN"
 "http://www.w3.org/Graphics/SVG/1.1/DTD/svg11.dtd">
<!-- Generated by graphviz version 2.43.0 (0)
 -->
<!-- Title: src/gradientselector.cpp Pages: 1 -->
<svg width="693pt" height="308pt"
 viewBox="0.00 0.00 693.00 308.00" xmlns="http://www.w3.org/2000/svg" xmlns:xlink="http://www.w3.org/1999/xlink">
<g id="graph0" class="graph" transform="scale(1 1) rotate(0) translate(4 304)">
<title>src/gradientselector.cpp</title>
<polygon fill="white" stroke="transparent" points="-4,4 -4,-304 689,-304 689,4 -4,4"/>
<!-- Node1 -->
<g id="node1" class="node">
<title>Node1</title>
<g id="a_node1"><a xlink:title=" ">
<polygon fill="#bfbfbf" stroke="black" points="356.5,-280.5 356.5,-299.5 489.5,-299.5 489.5,-280.5 356.5,-280.5"/>
<text text-anchor="middle" x="423" y="-287.5" font-family="Helvetica,sans-Serif" font-size="10.00">src/gradientselector.cpp</text>
</a>
</g>
</g>
<!-- Node2 -->
<g id="node2" class="node">
<title>Node2</title>
<g id="a_node2"><a xlink:href="gradientselector_8h.html" target="_top" xlink:title=" ">
<polygon fill="white" stroke="black" points="35.5,-224.5 35.5,-243.5 220.5,-243.5 220.5,-224.5 35.5,-224.5"/>
<text text-anchor="middle" x="128" y="-231.5" font-family="Helvetica,sans-Serif" font-size="10.00">PerceptualColor/gradientselector.h</text>
</a>
</g>
</g>
<!-- Node1&#45;&gt;Node2 -->
<g id="edge1" class="edge">
<title>Node1&#45;&gt;Node2</title>
<path fill="none" stroke="midnightblue" d="M376.26,-280.44C324.25,-270.92 240.25,-255.55 184.58,-245.36"/>
<polygon fill="midnightblue" stroke="midnightblue" points="184.99,-241.87 174.52,-243.52 183.73,-248.76 184.99,-241.87"/>
</g>
<!-- Node10 -->
<g id="node10" class="node">
<title>Node10</title>
<g id="a_node10"><a xlink:title=" ">
<polygon fill="white" stroke="#bfbfbf" points="266,-112.5 266,-131.5 322,-131.5 322,-112.5 266,-112.5"/>
<text text-anchor="middle" x="294" y="-119.5" font-family="Helvetica,sans-Serif" font-size="10.00">QDebug</text>
</a>
</g>
</g>
<!-- Node1&#45;&gt;Node10 -->
<g id="edge14" class="edge">
<title>Node1&#45;&gt;Node10</title>
<path fill="none" stroke="midnightblue" d="M402.15,-280.47C385.89,-272.92 363.67,-260.54 349,-244 334.68,-227.86 311.93,-170.72 300.71,-141.1"/>
<polygon fill="midnightblue" stroke="midnightblue" points="303.92,-139.7 297.13,-131.56 297.36,-142.15 303.92,-139.7"/>
</g>
<!-- Node12 -->
<g id="node12" class="node">
<title>Node12</title>
<g id="a_node12"><a xlink:title=" ">
<polygon fill="white" stroke="#bfbfbf" points="358,-224.5 358,-243.5 416,-243.5 416,-224.5 358,-224.5"/>
<text text-anchor="middle" x="387" y="-231.5" font-family="Helvetica,sans-Serif" font-size="10.00">QPainter</text>
</a>
</g>
</g>
<!-- Node1&#45;&gt;Node12 -->
<g id="edge15" class="edge">
<title>Node1&#45;&gt;Node12</title>
<path fill="none" stroke="midnightblue" d="M417.06,-280.08C412.02,-272.53 404.66,-261.49 398.49,-252.23"/>
<polygon fill="midnightblue" stroke="midnightblue" points="401.29,-250.13 392.83,-243.75 395.47,-254.01 401.29,-250.13"/>
</g>
<!-- Node13 -->
<g id="node13" class="node">
<title>Node13</title>
<g id="a_node13"><a xlink:title=" ">
<polygon fill="white" stroke="#bfbfbf" points="434.5,-224.5 434.5,-243.5 483.5,-243.5 483.5,-224.5 434.5,-224.5"/>
<text text-anchor="middle" x="459" y="-231.5" font-family="Helvetica,sans-Serif" font-size="10.00">QStyle</text>
</a>
</g>
</g>
<!-- Node1&#45;&gt;Node13 -->
<g id="edge16" class="edge">
<title>Node1&#45;&gt;Node13</title>
<path fill="none" stroke="midnightblue" d="M428.94,-280.08C433.98,-272.53 441.34,-261.49 447.51,-252.23"/>
<polygon fill="midnightblue" stroke="midnightblue" points="450.53,-254.01 453.17,-243.75 444.71,-250.13 450.53,-254.01"/>
</g>
<!-- Node14 -->
<g id="node14" class="node">
<title>Node14</title>
<g id="a_node14"><a xlink:title=" ">
<polygon fill="white" stroke="#bfbfbf" points="501.5,-224.5 501.5,-243.5 582.5,-243.5 582.5,-224.5 501.5,-224.5"/>
<text text-anchor="middle" x="542" y="-231.5" font-family="Helvetica,sans-Serif" font-size="10.00">QStyleOption</text>
</a>
</g>
</g>
<!-- Node1&#45;&gt;Node14 -->
<g id="edge17" class="edge">
<title>Node1&#45;&gt;Node14</title>
<path fill="none" stroke="midnightblue" d="M441.86,-280.44C461.27,-271.64 491.73,-257.81 513.96,-247.72"/>
<polygon fill="midnightblue" stroke="midnightblue" points="515.57,-250.84 523.23,-243.52 512.68,-244.46 515.57,-250.84"/>
</g>
<!-- Node15 -->
<g id="node15" class="node">
<title>Node15</title>
<g id="a_node15"><a xlink:title=" ">
<polygon fill="white" stroke="#bfbfbf" points="601,-224.5 601,-243.5 685,-243.5 685,-224.5 601,-224.5"/>
<text text-anchor="middle" x="643" y="-231.5" font-family="Helvetica,sans-Serif" font-size="10.00">QMouseEvent</text>
</a>
</g>
</g>
<!-- Node1&#45;&gt;Node15 -->
<g id="edge18" class="edge">
<title>Node1&#45;&gt;Node15</title>
<path fill="none" stroke="midnightblue" d="M457.86,-280.44C495.92,-271.1 556.96,-256.12 598.46,-245.93"/>
<polygon fill="midnightblue" stroke="midnightblue" points="599.43,-249.3 608.3,-243.52 597.76,-242.5 599.43,-249.3"/>
</g>
<!-- Node3 -->
<g id="node3" class="node">
<title>Node3</title>
<g id="a_node3"><a xlink:href="fullcolordescription_8h.html" target="_top" xlink:title=" ">
<polygon fill="white" stroke="black" points="102,-168.5 102,-187.5 302,-187.5 302,-168.5 102,-168.5"/>
<text text-anchor="middle" x="202" y="-175.5" font-family="Helvetica,sans-Serif" font-size="10.00">PerceptualColor/fullcolordescription.h</text>
</a>
</g>
</g>
<!-- Node2&#45;&gt;Node3 -->
<g id="edge2" class="edge">
<title>Node2&#45;&gt;Node3</title>
<path fill="none" stroke="midnightblue" d="M139.89,-224.32C151.15,-216.11 168.29,-203.6 181.71,-193.81"/>
<polygon fill="midnightblue" stroke="midnightblue" points="183.88,-196.56 189.89,-187.83 179.75,-190.9 183.88,-196.56"/>
</g>
<!-- Node8 -->
<g id="node8" class="node">
<title>Node8</title>
<g id="a_node8"><a xlink:href="rgbcolorspace_8h.html" target="_top" xlink:title=" ">
<polygon fill="white" stroke="black" points="0,-112.5 0,-131.5 174,-131.5 174,-112.5 0,-112.5"/>
<text text-anchor="middle" x="87" y="-119.5" font-family="Helvetica,sans-Serif" font-size="10.00">PerceptualColor/rgbcolorspace.h</text>
</a>
</g>
</g>
<!-- Node2&#45;&gt;Node8 -->
<g id="edge12" class="edge">
<title>Node2&#45;&gt;Node8</title>
<path fill="none" stroke="midnightblue" d="M72.09,-224.46C50.53,-218.14 27.98,-207.14 15,-188 0.58,-166.74 28.9,-147.74 54.15,-135.86"/>
<polygon fill="midnightblue" stroke="midnightblue" points="55.87,-138.92 63.58,-131.66 53.02,-132.53 55.87,-138.92"/>
</g>
<!-- Node11 -->
<g id="node11" class="node">
<title>Node11</title>
<g id="a_node11"><a xlink:title=" ">
<polygon fill="white" stroke="#bfbfbf" points="24.5,-168.5 24.5,-187.5 83.5,-187.5 83.5,-168.5 24.5,-168.5"/>
<text text-anchor="middle" x="54" y="-175.5" font-family="Helvetica,sans-Serif" font-size="10.00">QWidget</text>
</a>
</g>
</g>
<!-- Node2&#45;&gt;Node11 -->
<g id="edge13" class="edge">
<title>Node2&#45;&gt;Node11</title>
<path fill="none" stroke="midnightblue" d="M116.11,-224.32C104.85,-216.11 87.71,-203.6 74.29,-193.81"/>
<polygon fill="midnightblue" stroke="midnightblue" points="76.25,-190.9 66.11,-187.83 72.12,-196.56 76.25,-190.9"/>
</g>
<!-- Node4 -->
<g id="node4" class="node">
<title>Node4</title>
<g id="a_node4"><a xlink:href="helper_8h.html" target="_top" xlink:title=" ">
<polygon fill="white" stroke="black" points="134,-56.5 134,-75.5 270,-75.5 270,-56.5 134,-56.5"/>
<text text-anchor="middle" x="202" y="-63.5" font-family="Helvetica,sans-Serif" font-size="10.00">PerceptualColor/helper.h</text>
</a>
</g>
</g>
<!-- Node3&#45;&gt;Node4 -->
<g id="edge3" class="edge">
<title>Node3&#45;&gt;Node4</title>
<path fill="none" stroke="midnightblue" d="M202,-168.37C202,-150.62 202,-109.67 202,-85.6"/>
<polygon fill="midnightblue" stroke="midnightblue" points="205.5,-85.59 202,-75.59 198.5,-85.59 205.5,-85.59"/>
</g>
<!-- Node3&#45;&gt;Node8 -->
<g id="edge7" class="edge">
<title>Node3&#45;&gt;Node8</title>
<path fill="none" stroke="midnightblue" d="M183.78,-168.44C165.1,-159.68 135.84,-145.94 114.38,-135.86"/>
<polygon fill="midnightblue" stroke="midnightblue" points="115.68,-132.6 105.14,-131.52 112.7,-138.93 115.68,-132.6"/>
</g>
<!-- Node3&#45;&gt;Node10 -->
<g id="edge11" class="edge">
<title>Node3&#45;&gt;Node10</title>
<path fill="none" stroke="midnightblue" d="M216.78,-168.32C231.27,-159.82 253.57,-146.73 270.49,-136.8"/>
<polygon fill="midnightblue" stroke="midnightblue" points="272.4,-139.74 279.26,-131.65 268.86,-133.7 272.4,-139.74"/>
</g>
<!-- Node5 -->
<g id="node5" class="node">
<title>Node5</title>
<g id="a_node5"><a xlink:title=" ">
<polygon fill="white" stroke="#bfbfbf" points="240.5,-0.5 240.5,-19.5 295.5,-19.5 295.5,-0.5 240.5,-0.5"/>
<text text-anchor="middle" x="268" y="-7.5" font-family="Helvetica,sans-Serif" font-size="10.00">QImage</text>
</a>
</g>
</g>
<!-- Node4&#45;&gt;Node5 -->
<g id="edge4" class="edge">
<title>Node4&#45;&gt;Node5</title>
<path fill="none" stroke="midnightblue" d="M212.6,-56.32C222.46,-48.26 237.35,-36.08 249.22,-26.37"/>
<polygon fill="midnightblue" stroke="midnightblue" points="251.68,-28.88 257.2,-19.83 247.25,-23.46 251.68,-28.88"/>
</g>
<!-- Node6 -->
<g id="node6" class="node">
<title>Node6</title>
<g id="a_node6"><a xlink:title=" ">
<polygon fill="white" stroke="#bfbfbf" points="139.5,-0.5 139.5,-19.5 222.5,-19.5 222.5,-0.5 139.5,-0.5"/>
<text text-anchor="middle" x="181" y="-7.5" font-family="Helvetica,sans-Serif" font-size="10.00">QWheelEvent</text>
</a>
</g>
</g>
<!-- Node4&#45;&gt;Node6 -->
<g id="edge5" class="edge">
<title>Node4&#45;&gt;Node6</title>
<path fill="none" stroke="midnightblue" d="M198.53,-56.08C195.69,-48.77 191.57,-38.18 188.04,-29.1"/>
<polygon fill="midnightblue" stroke="midnightblue" points="191.29,-27.8 184.4,-19.75 184.77,-30.34 191.29,-27.8"/>
</g>
<!-- Node7 -->
<g id="node7" class="node">
<title>Node7</title>
<g id="a_node7"><a xlink:title=" ">
<polygon fill="white" stroke="#bfbfbf" points="45.5,-0.5 45.5,-19.5 100.5,-19.5 100.5,-0.5 45.5,-0.5"/>
<text text-anchor="middle" x="73" y="-7.5" font-family="Helvetica,sans-Serif" font-size="10.00">lcms2.h</text>
</a>
</g>
</g>
<!-- Node4&#45;&gt;Node7 -->
<g id="edge6" class="edge">
<title>Node4&#45;&gt;Node7</title>
<path fill="none" stroke="midnightblue" d="M181.56,-56.44C160.33,-47.56 126.9,-33.56 102.75,-23.45"/>
<polygon fill="midnightblue" stroke="midnightblue" points="103.92,-20.15 93.34,-19.52 101.22,-26.61 103.92,-20.15"/>
</g>
<!-- Node8&#45;&gt;Node4 -->
<g id="edge10" class="edge">
<title>Node8&#45;&gt;Node4</title>
<path fill="none" stroke="midnightblue" d="M105.22,-112.44C123.9,-103.68 153.16,-89.94 174.62,-79.86"/>
<polygon fill="midnightblue" stroke="midnightblue" points="176.3,-82.93 183.86,-75.52 173.32,-76.6 176.3,-82.93"/>
</g>
<!-- Node8&#45;&gt;Node7 -->
<g id="edge9" class="edge">
<title>Node8&#45;&gt;Node7</title>
<path fill="none" stroke="midnightblue" d="M76.84,-112.19C68.09,-103.87 56.1,-90.54 51,-76 45.35,-59.9 52.91,-41.47 60.67,-28.35"/>
<polygon fill="midnightblue" stroke="midnightblue" points="63.67,-30.15 66.16,-19.85 57.79,-26.35 63.67,-30.15"/>
</g>
<!-- Node9 -->
<g id="node9" class="node">
<title>Node9</title>
<g id="a_node9"><a xlink:title=" ">
<polygon fill="white" stroke="#bfbfbf" points="60,-56.5 60,-75.5 116,-75.5 116,-56.5 60,-56.5"/>
<text text-anchor="middle" x="88" y="-63.5" font-family="Helvetica,sans-Serif" font-size="10.00">QObject</text>
</a>
</g>
</g>
<!-- Node8&#45;&gt;Node9 -->
<g id="edge8" class="edge">
<title>Node8&#45;&gt;Node9</title>
<path fill="none" stroke="midnightblue" d="M87.17,-112.08C87.3,-105.01 87.48,-94.86 87.65,-85.99"/>
<polygon fill="midnightblue" stroke="midnightblue" points="91.15,-85.81 87.84,-75.75 84.15,-85.68 91.15,-85.81"/>
</g>
</g>
</svg>
