<?xml version="1.0" encoding="UTF-8" standalone="no"?>
<!DOCTYPE svg PUBLIC "-//W3C//DTD SVG 1.1//EN"
 "http://www.w3.org/Graphics/SVG/1.1/DTD/svg11.dtd">
<!-- Generated by graphviz version 2.43.0 (0)
 -->
<!-- Title: include/PerceptualColor/gradientselector.h Pages: 1 -->
<svg width="331pt" height="263pt"
 viewBox="0.00 0.00 330.50 263.00" xmlns="http://www.w3.org/2000/svg" xmlns:xlink="http://www.w3.org/1999/xlink">
<g id="graph0" class="graph" transform="scale(1 1) rotate(0) translate(4 259)">
<title>include/PerceptualColor/gradientselector.h</title>
<polygon fill="white" stroke="transparent" points="-4,4 -4,-259 326.5,-259 326.5,4 -4,4"/>
<!-- Node1 -->
<g id="node1" class="node">
<title>Node1</title>
<g id="a_node1"><a xlink:title=" ">
<polygon fill="#bfbfbf" stroke="black" points="167.5,-224.5 167.5,-254.5 299.5,-254.5 299.5,-224.5 167.5,-224.5"/>
<text text-anchor="start" x="175.5" y="-242.5" font-family="Helvetica,sans-Serif" font-size="10.00">include/PerceptualColor</text>
<text text-anchor="middle" x="233.5" y="-231.5" font-family="Helvetica,sans-Serif" font-size="10.00">/gradientselector.h</text>
</a>
</g>
</g>
<!-- Node2 -->
<g id="node2" class="node">
<title>Node2</title>
<g id="a_node2"><a xlink:href="fullcolordescription_8h.html" target="_top" xlink:title=" ">
<polygon fill="white" stroke="black" points="4.5,-168.5 4.5,-187.5 204.5,-187.5 204.5,-168.5 4.5,-168.5"/>
<text text-anchor="middle" x="104.5" y="-175.5" font-family="Helvetica,sans-Serif" font-size="10.00">PerceptualColor/fullcolordescription.h</text>
</a>
</g>
</g>
<!-- Node1&#45;&gt;Node2 -->
<g id="edge1" class="edge">
<title>Node1&#45;&gt;Node2</title>
<path fill="none" stroke="midnightblue" d="M202.93,-224.4C181.57,-214.55 153.28,-201.5 132.52,-191.92"/>
<polygon fill="midnightblue" stroke="midnightblue" points="133.82,-188.67 123.27,-187.66 130.89,-195.02 133.82,-188.67"/>
</g>
<!-- Node7 -->
<g id="node7" class="node">
<title>Node7</title>
<g id="a_node7"><a xlink:href="rgbcolorspace_8h.html" target="_top" xlink:title=" ">
<polygon fill="white" stroke="black" points="148.5,-112.5 148.5,-131.5 322.5,-131.5 322.5,-112.5 148.5,-112.5"/>
<text text-anchor="middle" x="235.5" y="-119.5" font-family="Helvetica,sans-Serif" font-size="10.00">PerceptualColor/rgbcolorspace.h</text>
</a>
</g>
</g>
<!-- Node1&#45;&gt;Node7 -->
<g id="edge11" class="edge">
<title>Node1&#45;&gt;Node7</title>
<path fill="none" stroke="midnightblue" d="M233.75,-224.34C234.1,-203.62 234.77,-165.02 235.17,-141.9"/>
<polygon fill="midnightblue" stroke="midnightblue" points="238.68,-141.73 235.35,-131.67 231.68,-141.61 238.68,-141.73"/>
</g>
<!-- Node10 -->
<g id="node10" class="node">
<title>Node10</title>
<g id="a_node10"><a xlink:title=" ">
<polygon fill="white" stroke="#bfbfbf" points="262,-168.5 262,-187.5 321,-187.5 321,-168.5 262,-168.5"/>
<text text-anchor="middle" x="291.5" y="-175.5" font-family="Helvetica,sans-Serif" font-size="10.00">QWidget</text>
</a>
</g>
</g>
<!-- Node1&#45;&gt;Node10 -->
<g id="edge12" class="edge">
<title>Node1&#45;&gt;Node10</title>
<path fill="none" stroke="midnightblue" d="M247.25,-224.4C255.85,-215.58 266.95,-204.18 275.89,-195.02"/>
<polygon fill="midnightblue" stroke="midnightblue" points="278.59,-197.26 283.06,-187.66 273.57,-192.38 278.59,-197.26"/>
</g>
<!-- Node3 -->
<g id="node3" class="node">
<title>Node3</title>
<g id="a_node3"><a xlink:href="helper_8h.html" target="_top" xlink:title=" ">
<polygon fill="white" stroke="black" points="43.5,-56.5 43.5,-75.5 179.5,-75.5 179.5,-56.5 43.5,-56.5"/>
<text text-anchor="middle" x="111.5" y="-63.5" font-family="Helvetica,sans-Serif" font-size="10.00">PerceptualColor/helper.h</text>
</a>
</g>
</g>
<!-- Node2&#45;&gt;Node3 -->
<g id="edge2" class="edge">
<title>Node2&#45;&gt;Node3</title>
<path fill="none" stroke="midnightblue" d="M92.82,-168.18C78.32,-156.07 56.52,-133.35 65.5,-112 70.53,-100.05 80.44,-89.69 89.79,-81.93"/>
<polygon fill="midnightblue" stroke="midnightblue" points="91.94,-84.69 97.71,-75.81 87.66,-79.15 91.94,-84.69"/>
</g>
<!-- Node2&#45;&gt;Node7 -->
<g id="edge6" class="edge">
<title>Node2&#45;&gt;Node7</title>
<path fill="none" stroke="midnightblue" d="M125.26,-168.44C146.82,-159.56 180.76,-145.56 205.29,-135.45"/>
<polygon fill="midnightblue" stroke="midnightblue" points="206.93,-138.56 214.84,-131.52 204.26,-132.09 206.93,-138.56"/>
</g>
<!-- Node9 -->
<g id="node9" class="node">
<title>Node9</title>
<g id="a_node9"><a xlink:title=" ">
<polygon fill="white" stroke="#bfbfbf" points="74.5,-112.5 74.5,-131.5 130.5,-131.5 130.5,-112.5 74.5,-112.5"/>
<text text-anchor="middle" x="102.5" y="-119.5" font-family="Helvetica,sans-Serif" font-size="10.00">QDebug</text>
</a>
</g>
</g>
<!-- Node2&#45;&gt;Node9 -->
<g id="edge10" class="edge">
<title>Node2&#45;&gt;Node9</title>
<path fill="none" stroke="midnightblue" d="M104.17,-168.08C103.91,-161.01 103.53,-150.86 103.2,-141.99"/>
<polygon fill="midnightblue" stroke="midnightblue" points="106.69,-141.61 102.82,-131.75 99.7,-141.87 106.69,-141.61"/>
</g>
<!-- Node4 -->
<g id="node4" class="node">
<title>Node4</title>
<g id="a_node4"><a xlink:title=" ">
<polygon fill="white" stroke="#bfbfbf" points="0,-0.5 0,-19.5 55,-19.5 55,-0.5 0,-0.5"/>
<text text-anchor="middle" x="27.5" y="-7.5" font-family="Helvetica,sans-Serif" font-size="10.00">QImage</text>
</a>
</g>
</g>
<!-- Node3&#45;&gt;Node4 -->
<g id="edge3" class="edge">
<title>Node3&#45;&gt;Node4</title>
<path fill="none" stroke="midnightblue" d="M98,-56.32C84.9,-47.9 64.79,-34.97 49.39,-25.07"/>
<polygon fill="midnightblue" stroke="midnightblue" points="51.27,-22.12 40.96,-19.65 47.48,-28.01 51.27,-22.12"/>
</g>
<!-- Node5 -->
<g id="node5" class="node">
<title>Node5</title>
<g id="a_node5"><a xlink:title=" ">
<polygon fill="white" stroke="#bfbfbf" points="73,-0.5 73,-19.5 156,-19.5 156,-0.5 73,-0.5"/>
<text text-anchor="middle" x="114.5" y="-7.5" font-family="Helvetica,sans-Serif" font-size="10.00">QWheelEvent</text>
</a>
</g>
</g>
<!-- Node3&#45;&gt;Node5 -->
<g id="edge4" class="edge">
<title>Node3&#45;&gt;Node5</title>
<path fill="none" stroke="midnightblue" d="M112,-56.08C112.39,-49.01 112.95,-38.86 113.45,-29.99"/>
<polygon fill="midnightblue" stroke="midnightblue" points="116.95,-29.93 114.01,-19.75 109.96,-29.54 116.95,-29.93"/>
</g>
<!-- Node6 -->
<g id="node6" class="node">
<title>Node6</title>
<g id="a_node6"><a xlink:title=" ">
<polygon fill="white" stroke="#bfbfbf" points="178,-0.5 178,-19.5 233,-19.5 233,-0.5 178,-0.5"/>
<text text-anchor="middle" x="205.5" y="-7.5" font-family="Helvetica,sans-Serif" font-size="10.00">lcms2.h</text>
</a>
</g>
</g>
<!-- Node3&#45;&gt;Node6 -->
<g id="edge5" class="edge">
<title>Node3&#45;&gt;Node6</title>
<path fill="none" stroke="midnightblue" d="M126.6,-56.32C141.4,-47.82 164.19,-34.73 181.48,-24.8"/>
<polygon fill="midnightblue" stroke="midnightblue" points="183.51,-27.67 190.43,-19.65 180.02,-21.6 183.51,-27.67"/>
</g>
<!-- Node7&#45;&gt;Node3 -->
<g id="edge9" class="edge">
<title>Node7&#45;&gt;Node3</title>
<path fill="none" stroke="midnightblue" d="M215.85,-112.44C195.54,-103.6 163.6,-89.69 140.4,-79.59"/>
<polygon fill="midnightblue" stroke="midnightblue" points="141.62,-76.3 131.06,-75.52 138.83,-82.72 141.62,-76.3"/>
</g>
<!-- Node7&#45;&gt;Node6 -->
<g id="edge8" class="edge">
<title>Node7&#45;&gt;Node6</title>
<path fill="none" stroke="midnightblue" d="M233.15,-112.37C228.28,-94.54 217.04,-53.3 210.48,-29.27"/>
<polygon fill="midnightblue" stroke="midnightblue" points="213.85,-28.32 207.84,-19.59 207.1,-30.16 213.85,-28.32"/>
</g>
<!-- Node8 -->
<g id="node8" class="node">
<title>Node8</title>
<g id="a_node8"><a xlink:title=" ">
<polygon fill="white" stroke="#bfbfbf" points="235.5,-56.5 235.5,-75.5 291.5,-75.5 291.5,-56.5 235.5,-56.5"/>
<text text-anchor="middle" x="263.5" y="-63.5" font-family="Helvetica,sans-Serif" font-size="10.00">QObject</text>
</a>
</g>
</g>
<!-- Node7&#45;&gt;Node8 -->
<g id="edge7" class="edge">
<title>Node7&#45;&gt;Node8</title>
<path fill="none" stroke="midnightblue" d="M240.12,-112.08C243.96,-104.69 249.52,-93.95 254.26,-84.81"/>
<polygon fill="midnightblue" stroke="midnightblue" points="257.47,-86.24 258.96,-75.75 251.25,-83.02 257.47,-86.24"/>
</g>
</g>
</svg>
