<?xml version="1.0" encoding="UTF-8" standalone="no"?>
<!DOCTYPE svg PUBLIC "-//W3C//DTD SVG 1.1//EN"
 "http://www.w3.org/Graphics/SVG/1.1/DTD/svg11.dtd">
<!-- Generated by graphviz version 2.43.0 (0)
 -->
<!-- Title: include/PerceptualColor/helper.h Pages: 1 -->
<svg width="1292pt" height="430pt"
 viewBox="0.00 0.00 1292.00 430.00" xmlns="http://www.w3.org/2000/svg" xmlns:xlink="http://www.w3.org/1999/xlink">
<g id="graph0" class="graph" transform="scale(1 1) rotate(0) translate(4 426)">
<title>include/PerceptualColor/helper.h</title>
<polygon fill="white" stroke="transparent" points="-4,4 -4,-426 1288,-426 1288,4 -4,4"/>
<!-- Node1 -->
<g id="node1" class="node">
<title>Node1</title>
<g id="a_node1"><a xlink:title=" ">
<polygon fill="#bfbfbf" stroke="black" points="925,-391.5 925,-421.5 1057,-421.5 1057,-391.5 925,-391.5"/>
<text text-anchor="start" x="933" y="-409.5" font-family="Helvetica,sans-Serif" font-size="10.00">include/PerceptualColor</text>
<text text-anchor="middle" x="991" y="-398.5" font-family="Helvetica,sans-Serif" font-size="10.00">/helper.h</text>
</a>
</g>
</g>
<!-- Node2 -->
<g id="node2" class="node">
<title>Node2</title>
<g id="a_node2"><a xlink:href="chromahuediagram_8cpp.html" target="_top" xlink:title=" ">
<polygon fill="white" stroke="black" points="748.5,-129 748.5,-148 897.5,-148 897.5,-129 748.5,-129"/>
<text text-anchor="middle" x="823" y="-136" font-family="Helvetica,sans-Serif" font-size="10.00">src/chromahuediagram.cpp</text>
</a>
</g>
</g>
<!-- Node1&#45;&gt;Node2 -->
<g id="edge1" class="edge">
<title>Node1&#45;&gt;Node2</title>
<path fill="none" stroke="midnightblue" d="M999.42,-381.72C1013.03,-338.61 1034.23,-246.79 991,-190 976.66,-171.16 917.75,-156.57 873.72,-148.03"/>
<polygon fill="midnightblue" stroke="midnightblue" points="996.05,-380.75 996.25,-391.34 1002.7,-382.94 996.05,-380.75"/>
</g>
<!-- Node3 -->
<g id="node3" class="node">
<title>Node3</title>
<g id="a_node3"><a xlink:href="chromalightnessdiagram_8cpp.html" target="_top" xlink:title=" ">
<polygon fill="white" stroke="black" points="942,-129 942,-148 1118,-148 1118,-129 942,-129"/>
<text text-anchor="middle" x="1030" y="-136" font-family="Helvetica,sans-Serif" font-size="10.00">src/chromalightnessdiagram.cpp</text>
</a>
</g>
</g>
<!-- Node1&#45;&gt;Node3 -->
<g id="edge2" class="edge">
<title>Node1&#45;&gt;Node3</title>
<path fill="none" stroke="midnightblue" d="M1009.44,-383.09C1015.21,-374.78 1020.89,-364.94 1024,-355 1048.04,-278.2 1035.93,-178.4 1031.44,-148.4"/>
<polygon fill="midnightblue" stroke="midnightblue" points="1006.61,-381.03 1003.48,-391.15 1012.24,-385.19 1006.61,-381.03"/>
</g>
<!-- Node4 -->
<g id="node4" class="node">
<title>Node4</title>
<g id="a_node4"><a xlink:href="colorpatch_8cpp.html" target="_top" xlink:title=" ">
<polygon fill="white" stroke="black" points="1076.5,-330 1076.5,-349 1181.5,-349 1181.5,-330 1076.5,-330"/>
<text text-anchor="middle" x="1129" y="-337" font-family="Helvetica,sans-Serif" font-size="10.00">src/colorpatch.cpp</text>
</a>
</g>
</g>
<!-- Node1&#45;&gt;Node4 -->
<g id="edge3" class="edge">
<title>Node1&#45;&gt;Node4</title>
<path fill="none" stroke="midnightblue" d="M1030,-387.13C1056.56,-374.62 1090.49,-358.64 1110.94,-349.01"/>
<polygon fill="midnightblue" stroke="midnightblue" points="1028.5,-383.97 1020.94,-391.4 1031.48,-390.3 1028.5,-383.97"/>
</g>
<!-- Node5 -->
<g id="node5" class="node">
<title>Node5</title>
<g id="a_node5"><a xlink:href="helper_8cpp.html" target="_top" xlink:title=" ">
<polygon fill="white" stroke="black" points="1200,-330 1200,-349 1284,-349 1284,-330 1200,-330"/>
<text text-anchor="middle" x="1242" y="-337" font-family="Helvetica,sans-Serif" font-size="10.00">src/helper.cpp</text>
</a>
</g>
</g>
<!-- Node1&#45;&gt;Node5 -->
<g id="edge4" class="edge">
<title>Node1&#45;&gt;Node5</title>
<path fill="none" stroke="midnightblue" d="M1058.58,-388.96C1097.4,-379.34 1147.02,-366.8 1191,-355 1198.02,-353.12 1205.57,-351.01 1212.65,-349.01"/>
<polygon fill="midnightblue" stroke="midnightblue" points="1057.31,-385.67 1048.45,-391.47 1059,-392.47 1057.31,-385.67"/>
</g>
<!-- Node6 -->
<g id="node6" class="node">
<title>Node6</title>
<g id="a_node6"><a xlink:href="rgbcolorspace_8cpp.html" target="_top" xlink:title=" ">
<polygon fill="white" stroke="black" points="822,-263 822,-282 944,-282 944,-263 822,-263"/>
<text text-anchor="middle" x="883" y="-270" font-family="Helvetica,sans-Serif" font-size="10.00">src/rgbcolorspace.cpp</text>
</a>
</g>
</g>
<!-- Node1&#45;&gt;Node6 -->
<g id="edge5" class="edge">
<title>Node1&#45;&gt;Node6</title>
<path fill="none" stroke="midnightblue" d="M972.8,-383.26C948.5,-353.56 906.6,-302.35 890.03,-282.1"/>
<polygon fill="midnightblue" stroke="midnightblue" points="970.4,-385.85 979.44,-391.37 975.82,-381.42 970.4,-385.85"/>
</g>
<!-- Node7 -->
<g id="node7" class="node">
<title>Node7</title>
<g id="a_node7"><a xlink:href="simplecolorwheel_8cpp.html" target="_top" xlink:title=" ">
<polygon fill="white" stroke="black" points="842,-196 842,-215 982,-215 982,-196 842,-196"/>
<text text-anchor="middle" x="912" y="-203" font-family="Helvetica,sans-Serif" font-size="10.00">src/simplecolorwheel.cpp</text>
</a>
</g>
</g>
<!-- Node1&#45;&gt;Node7 -->
<g id="edge6" class="edge">
<title>Node1&#45;&gt;Node7</title>
<path fill="none" stroke="midnightblue" d="M988.05,-381.18C983.64,-350.8 973.56,-297.86 953,-257 944.78,-240.66 930.54,-224.78 921.2,-215.32"/>
<polygon fill="midnightblue" stroke="midnightblue" points="984.61,-381.84 989.42,-391.28 991.54,-380.9 984.61,-381.84"/>
</g>
<!-- Node8 -->
<g id="node8" class="node">
<title>Node8</title>
<g id="a_node8"><a xlink:href="fullcolordescription_8h.html" target="_top" xlink:title=" ">
<polygon fill="white" stroke="black" points="354,-257.5 354,-287.5 486,-287.5 486,-257.5 354,-257.5"/>
<text text-anchor="start" x="362" y="-275.5" font-family="Helvetica,sans-Serif" font-size="10.00">include/PerceptualColor</text>
<text text-anchor="middle" x="420" y="-264.5" font-family="Helvetica,sans-Serif" font-size="10.00">/fullcolordescription.h</text>
</a>
</g>
</g>
<!-- Node1&#45;&gt;Node8 -->
<g id="edge7" class="edge">
<title>Node1&#45;&gt;Node8</title>
<path fill="none" stroke="midnightblue" d="M914.57,-402.51C800.12,-397.17 590.27,-383.71 521,-355 484.16,-339.73 449.98,-306.61 432.39,-287.63"/>
<polygon fill="midnightblue" stroke="midnightblue" points="914.51,-406.02 924.66,-402.98 914.83,-399.02 914.51,-406.02"/>
</g>
<!-- Node21 -->
<g id="node21" class="node">
<title>Node21</title>
<g id="a_node21"><a xlink:href="rgbcolorspace_8h.html" target="_top" xlink:title=" ">
<polygon fill="white" stroke="black" points="530,-324.5 530,-354.5 662,-354.5 662,-324.5 530,-324.5"/>
<text text-anchor="start" x="538" y="-342.5" font-family="Helvetica,sans-Serif" font-size="10.00">include/PerceptualColor</text>
<text text-anchor="middle" x="596" y="-331.5" font-family="Helvetica,sans-Serif" font-size="10.00">/rgbcolorspace.h</text>
</a>
</g>
</g>
<!-- Node1&#45;&gt;Node21 -->
<g id="edge27" class="edge">
<title>Node1&#45;&gt;Node21</title>
<path fill="none" stroke="midnightblue" d="M914.79,-392.96C841.45,-380.89 731.7,-362.83 662,-351.36"/>
<polygon fill="midnightblue" stroke="midnightblue" points="914.45,-396.45 924.89,-394.62 915.59,-389.54 914.45,-396.45"/>
</g>
<!-- Node9 -->
<g id="node9" class="node">
<title>Node9</title>
<g id="a_node9"><a xlink:href="fullcolordescription_8cpp.html" target="_top" xlink:title=" ">
<polygon fill="white" stroke="black" points="244,-196 244,-215 392,-215 392,-196 244,-196"/>
<text text-anchor="middle" x="318" y="-203" font-family="Helvetica,sans-Serif" font-size="10.00">src/fullcolordescription.cpp</text>
</a>
</g>
</g>
<!-- Node8&#45;&gt;Node9 -->
<g id="edge8" class="edge">
<title>Node8&#45;&gt;Node9</title>
<path fill="none" stroke="midnightblue" d="M389.36,-251.97C370.02,-239.65 346,-224.35 331.35,-215.01"/>
<polygon fill="midnightblue" stroke="midnightblue" points="387.55,-254.97 397.87,-257.4 391.32,-249.07 387.55,-254.97"/>
</g>
<!-- Node10 -->
<g id="node10" class="node">
<title>Node10</title>
<g id="a_node10"><a xlink:href="alphaselector_8h.html" target="_top" xlink:title=" ">
<polygon fill="white" stroke="black" points="0,-123.5 0,-153.5 132,-153.5 132,-123.5 0,-123.5"/>
<text text-anchor="start" x="8" y="-141.5" font-family="Helvetica,sans-Serif" font-size="10.00">include/PerceptualColor</text>
<text text-anchor="middle" x="66" y="-130.5" font-family="Helvetica,sans-Serif" font-size="10.00">/alphaselector.h</text>
</a>
</g>
</g>
<!-- Node8&#45;&gt;Node10 -->
<g id="edge9" class="edge">
<title>Node8&#45;&gt;Node10</title>
<path fill="none" stroke="midnightblue" d="M343.71,-269.69C256.67,-266 121.63,-254.83 85,-221 66.32,-203.75 64.3,-172 64.89,-153.63"/>
<polygon fill="midnightblue" stroke="midnightblue" points="343.68,-273.19 353.81,-270.09 343.96,-266.19 343.68,-273.19"/>
</g>
<!-- Node12 -->
<g id="node12" class="node">
<title>Node12</title>
<g id="a_node12"><a xlink:href="colordialog_8h.html" target="_top" xlink:title=" ">
<polygon fill="white" stroke="black" points="354,-56.5 354,-86.5 486,-86.5 486,-56.5 354,-56.5"/>
<text text-anchor="start" x="362" y="-74.5" font-family="Helvetica,sans-Serif" font-size="10.00">include/PerceptualColor</text>
<text text-anchor="middle" x="420" y="-63.5" font-family="Helvetica,sans-Serif" font-size="10.00">/colordialog.h</text>
</a>
</g>
</g>
<!-- Node8&#45;&gt;Node12 -->
<g id="edge22" class="edge">
<title>Node8&#45;&gt;Node12</title>
<path fill="none" stroke="midnightblue" d="M420,-247C420,-204.93 420,-120.26 420,-86.68"/>
<polygon fill="midnightblue" stroke="midnightblue" points="416.5,-247.19 420,-257.19 423.5,-247.19 416.5,-247.19"/>
</g>
<!-- Node15 -->
<g id="node15" class="node">
<title>Node15</title>
<g id="a_node15"><a xlink:href="chromahuediagram_8h.html" target="_top" xlink:title=" ">
<polygon fill="white" stroke="black" points="448,-190.5 448,-220.5 580,-220.5 580,-190.5 448,-190.5"/>
<text text-anchor="start" x="456" y="-208.5" font-family="Helvetica,sans-Serif" font-size="10.00">include/PerceptualColor</text>
<text text-anchor="middle" x="514" y="-197.5" font-family="Helvetica,sans-Serif" font-size="10.00">/chromahuediagram.h</text>
</a>
</g>
</g>
<!-- Node8&#45;&gt;Node15 -->
<g id="edge14" class="edge">
<title>Node8&#45;&gt;Node15</title>
<path fill="none" stroke="midnightblue" d="M448.99,-251.45C463.45,-241.45 480.59,-229.6 493.64,-220.58"/>
<polygon fill="midnightblue" stroke="midnightblue" points="446.63,-248.83 440.4,-257.4 450.61,-254.59 446.63,-248.83"/>
</g>
<!-- Node16 -->
<g id="node16" class="node">
<title>Node16</title>
<g id="a_node16"><a xlink:href="chromalightnessdiagram_8h.html" target="_top" xlink:title=" ">
<polygon fill="white" stroke="black" points="598,-190.5 598,-220.5 748,-220.5 748,-190.5 598,-190.5"/>
<text text-anchor="start" x="606" y="-208.5" font-family="Helvetica,sans-Serif" font-size="10.00">include/PerceptualColor</text>
<text text-anchor="middle" x="673" y="-197.5" font-family="Helvetica,sans-Serif" font-size="10.00">/chromalightnessdiagram.h</text>
</a>
</g>
</g>
<!-- Node8&#45;&gt;Node16 -->
<g id="edge17" class="edge">
<title>Node8&#45;&gt;Node16</title>
<path fill="none" stroke="midnightblue" d="M484.28,-254.98C525.61,-244.37 578.73,-230.72 618.08,-220.61"/>
<polygon fill="midnightblue" stroke="midnightblue" points="483.4,-251.6 474.59,-257.48 485.14,-258.38 483.4,-251.6"/>
</g>
<!-- Node19 -->
<g id="node19" class="node">
<title>Node19</title>
<g id="a_node19"><a xlink:href="gradientselector_8h.html" target="_top" xlink:title=" ">
<polygon fill="white" stroke="black" points="94,-190.5 94,-220.5 226,-220.5 226,-190.5 94,-190.5"/>
<text text-anchor="start" x="102" y="-208.5" font-family="Helvetica,sans-Serif" font-size="10.00">include/PerceptualColor</text>
<text text-anchor="middle" x="160" y="-197.5" font-family="Helvetica,sans-Serif" font-size="10.00">/gradientselector.h</text>
</a>
</g>
</g>
<!-- Node8&#45;&gt;Node19 -->
<g id="edge23" class="edge">
<title>Node8&#45;&gt;Node19</title>
<path fill="none" stroke="midnightblue" d="M353.94,-254.98C311.47,-244.37 256.88,-230.72 216.44,-220.61"/>
<polygon fill="midnightblue" stroke="midnightblue" points="353.35,-258.45 363.9,-257.48 355.05,-251.66 353.35,-258.45"/>
</g>
<!-- Node11 -->
<g id="node11" class="node">
<title>Node11</title>
<g id="a_node11"><a xlink:href="alphaselector_8cpp.html" target="_top" xlink:title=" ">
<polygon fill="white" stroke="black" points="6.5,-62 6.5,-81 125.5,-81 125.5,-62 6.5,-62"/>
<text text-anchor="middle" x="66" y="-69" font-family="Helvetica,sans-Serif" font-size="10.00">src/alphaselector.cpp</text>
</a>
</g>
</g>
<!-- Node10&#45;&gt;Node11 -->
<g id="edge10" class="edge">
<title>Node10&#45;&gt;Node11</title>
<path fill="none" stroke="midnightblue" d="M66,-113.25C66,-102.02 66,-89.38 66,-81.19"/>
<polygon fill="midnightblue" stroke="midnightblue" points="62.5,-113.4 66,-123.4 69.5,-113.4 62.5,-113.4"/>
</g>
<!-- Node10&#45;&gt;Node12 -->
<g id="edge11" class="edge">
<title>Node10&#45;&gt;Node12</title>
<path fill="none" stroke="midnightblue" d="M142.28,-122.77C220.5,-108.17 299.49,-93.95 353.72,-84.27"/>
<polygon fill="midnightblue" stroke="midnightblue" points="141.43,-119.37 132.25,-124.65 142.72,-126.25 141.43,-119.37"/>
</g>
<!-- Node13 -->
<g id="node13" class="node">
<title>Node13</title>
<g id="a_node13"><a xlink:href="colordialog_8cpp.html" target="_top" xlink:title=" ">
<polygon fill="white" stroke="black" points="310,-0.5 310,-19.5 418,-19.5 418,-0.5 310,-0.5"/>
<text text-anchor="middle" x="364" y="-7.5" font-family="Helvetica,sans-Serif" font-size="10.00">src/colordialog.cpp</text>
</a>
</g>
</g>
<!-- Node12&#45;&gt;Node13 -->
<g id="edge12" class="edge">
<title>Node12&#45;&gt;Node13</title>
<path fill="none" stroke="midnightblue" d="M399.77,-49C390.22,-38.86 379.37,-27.33 372.15,-19.66"/>
<polygon fill="midnightblue" stroke="midnightblue" points="397.33,-51.52 406.73,-56.4 402.42,-46.72 397.33,-51.52"/>
</g>
<!-- Node14 -->
<g id="node14" class="node">
<title>Node14</title>
<g id="a_node14"><a xlink:href="main_8cpp.html" target="_top" xlink:title=" ">
<polygon fill="white" stroke="black" points="436.5,-0.5 436.5,-19.5 515.5,-19.5 515.5,-0.5 436.5,-0.5"/>
<text text-anchor="middle" x="476" y="-7.5" font-family="Helvetica,sans-Serif" font-size="10.00">src/main.cpp</text>
</a>
</g>
</g>
<!-- Node12&#45;&gt;Node14 -->
<g id="edge13" class="edge">
<title>Node12&#45;&gt;Node14</title>
<path fill="none" stroke="midnightblue" d="M440.23,-49C449.78,-38.86 460.63,-27.33 467.85,-19.66"/>
<polygon fill="midnightblue" stroke="midnightblue" points="437.58,-46.72 433.27,-56.4 442.67,-51.52 437.58,-46.72"/>
</g>
<!-- Node15&#45;&gt;Node2 -->
<g id="edge15" class="edge">
<title>Node15&#45;&gt;Node2</title>
<path fill="none" stroke="midnightblue" d="M590.22,-188.47C650.96,-175.69 733.63,-158.3 782.35,-148.05"/>
<polygon fill="midnightblue" stroke="midnightblue" points="589.35,-185.07 580.29,-190.56 590.79,-191.92 589.35,-185.07"/>
</g>
<!-- Node15&#45;&gt;Node12 -->
<g id="edge16" class="edge">
<title>Node15&#45;&gt;Node12</title>
<path fill="none" stroke="midnightblue" d="M498.11,-182.19C478.65,-154.86 446.27,-109.38 429.99,-86.52"/>
<polygon fill="midnightblue" stroke="midnightblue" points="495.29,-184.26 503.94,-190.37 500.99,-180.2 495.29,-184.26"/>
</g>
<!-- Node16&#45;&gt;Node3 -->
<g id="edge18" class="edge">
<title>Node16&#45;&gt;Node3</title>
<path fill="none" stroke="midnightblue" d="M758.47,-188.94C828.93,-176.11 926.23,-158.39 983.2,-148.02"/>
<polygon fill="midnightblue" stroke="midnightblue" points="757.49,-185.56 748.27,-190.79 758.74,-192.45 757.49,-185.56"/>
</g>
<!-- Node17 -->
<g id="node17" class="node">
<title>Node17</title>
<g id="a_node17"><a xlink:href="wheelcolorpicker_8h.html" target="_top" xlink:title=" ">
<polygon fill="white" stroke="black" points="598,-123.5 598,-153.5 730,-153.5 730,-123.5 598,-123.5"/>
<text text-anchor="start" x="606" y="-141.5" font-family="Helvetica,sans-Serif" font-size="10.00">include/PerceptualColor</text>
<text text-anchor="middle" x="664" y="-130.5" font-family="Helvetica,sans-Serif" font-size="10.00">/wheelcolorpicker.h</text>
</a>
</g>
</g>
<!-- Node16&#45;&gt;Node17 -->
<g id="edge19" class="edge">
<title>Node16&#45;&gt;Node17</title>
<path fill="none" stroke="midnightblue" d="M669.66,-180.4C668.41,-171.37 667.03,-161.41 665.95,-153.58"/>
<polygon fill="midnightblue" stroke="midnightblue" points="666.21,-180.97 671.05,-190.4 673.14,-180.01 666.21,-180.97"/>
</g>
<!-- Node17&#45;&gt;Node12 -->
<g id="edge21" class="edge">
<title>Node17&#45;&gt;Node12</title>
<path fill="none" stroke="midnightblue" d="M601.5,-120.85C561.72,-110.25 510.76,-96.68 472.97,-86.61"/>
<polygon fill="midnightblue" stroke="midnightblue" points="600.79,-124.28 611.36,-123.48 602.59,-117.52 600.79,-124.28"/>
</g>
<!-- Node18 -->
<g id="node18" class="node">
<title>Node18</title>
<g id="a_node18"><a xlink:href="wheelcolorpicker_8cpp.html" target="_top" xlink:title=" ">
<polygon fill="white" stroke="black" points="596,-62 596,-81 732,-81 732,-62 596,-62"/>
<text text-anchor="middle" x="664" y="-69" font-family="Helvetica,sans-Serif" font-size="10.00">src/wheelcolorpicker.cpp</text>
</a>
</g>
</g>
<!-- Node17&#45;&gt;Node18 -->
<g id="edge20" class="edge">
<title>Node17&#45;&gt;Node18</title>
<path fill="none" stroke="midnightblue" d="M664,-113.25C664,-102.02 664,-89.38 664,-81.19"/>
<polygon fill="midnightblue" stroke="midnightblue" points="660.5,-113.4 664,-123.4 667.5,-113.4 660.5,-113.4"/>
</g>
<!-- Node19&#45;&gt;Node10 -->
<g id="edge25" class="edge">
<title>Node19&#45;&gt;Node10</title>
<path fill="none" stroke="midnightblue" d="M131.01,-184.45C116.55,-174.45 99.41,-162.6 86.36,-153.58"/>
<polygon fill="midnightblue" stroke="midnightblue" points="129.39,-187.59 139.6,-190.4 133.37,-181.83 129.39,-187.59"/>
</g>
<!-- Node19&#45;&gt;Node12 -->
<g id="edge26" class="edge">
<title>Node19&#45;&gt;Node12</title>
<path fill="none" stroke="midnightblue" d="M212.67,-187.11C237.27,-178.29 266.65,-166.75 292,-154 332.24,-133.75 375.83,-104.19 400.35,-86.79"/>
<polygon fill="midnightblue" stroke="midnightblue" points="211.41,-183.84 203.14,-190.47 213.74,-190.44 211.41,-183.84"/>
</g>
<!-- Node20 -->
<g id="node20" class="node">
<title>Node20</title>
<g id="a_node20"><a xlink:href="gradientselector_8cpp.html" target="_top" xlink:title=" ">
<polygon fill="white" stroke="black" points="150.5,-129 150.5,-148 283.5,-148 283.5,-129 150.5,-129"/>
<text text-anchor="middle" x="217" y="-136" font-family="Helvetica,sans-Serif" font-size="10.00">src/gradientselector.cpp</text>
</a>
</g>
</g>
<!-- Node19&#45;&gt;Node20 -->
<g id="edge24" class="edge">
<title>Node19&#45;&gt;Node20</title>
<path fill="none" stroke="midnightblue" d="M179.15,-182.66C189.5,-170.86 201.68,-156.97 209.38,-148.19"/>
<polygon fill="midnightblue" stroke="midnightblue" points="176.33,-180.57 172.37,-190.4 181.59,-185.18 176.33,-180.57"/>
</g>
<!-- Node21&#45;&gt;Node6 -->
<g id="edge28" class="edge">
<title>Node21&#45;&gt;Node6</title>
<path fill="none" stroke="midnightblue" d="M667.85,-322.23C724.2,-309.47 800.38,-292.21 845.34,-282.03"/>
<polygon fill="midnightblue" stroke="midnightblue" points="666.9,-318.85 657.92,-324.48 668.45,-325.68 666.9,-318.85"/>
</g>
<!-- Node21&#45;&gt;Node8 -->
<g id="edge32" class="edge">
<title>Node21&#45;&gt;Node8</title>
<path fill="none" stroke="midnightblue" d="M548.12,-320.82C519.83,-310.37 484.51,-297.32 458.11,-287.58"/>
<polygon fill="midnightblue" stroke="midnightblue" points="547.22,-324.21 557.81,-324.4 549.64,-317.65 547.22,-324.21"/>
</g>
<!-- Node21&#45;&gt;Node10 -->
<g id="edge29" class="edge">
<title>Node21&#45;&gt;Node10</title>
<path fill="none" stroke="midnightblue" d="M519.37,-333.67C385.31,-323.37 117.42,-293.96 65,-221 50.8,-201.23 56.13,-171.24 61.16,-153.68"/>
<polygon fill="midnightblue" stroke="midnightblue" points="519.34,-337.18 529.57,-334.44 519.86,-330.2 519.34,-337.18"/>
</g>
<!-- Node21&#45;&gt;Node15 -->
<g id="edge30" class="edge">
<title>Node21&#45;&gt;Node15</title>
<path fill="none" stroke="midnightblue" d="M581.92,-315.83C564.92,-288.47 536.85,-243.28 522.71,-220.52"/>
<polygon fill="midnightblue" stroke="midnightblue" points="578.97,-317.73 587.22,-324.37 584.92,-314.03 578.97,-317.73"/>
</g>
<!-- Node21&#45;&gt;Node16 -->
<g id="edge31" class="edge">
<title>Node21&#45;&gt;Node16</title>
<path fill="none" stroke="midnightblue" d="M609.43,-315.48C625.42,-288.07 651.6,-243.19 664.82,-220.52"/>
<polygon fill="midnightblue" stroke="midnightblue" points="606.26,-313.97 604.24,-324.37 612.3,-317.5 606.26,-313.97"/>
</g>
<!-- Node21&#45;&gt;Node19 -->
<g id="edge33" class="edge">
<title>Node21&#45;&gt;Node19</title>
<path fill="none" stroke="midnightblue" d="M519.59,-327.54C469.29,-319.25 402.38,-306.18 345,-288 286.78,-269.56 222.24,-238.54 186.86,-220.55"/>
<polygon fill="midnightblue" stroke="midnightblue" points="519.31,-331.04 529.74,-329.19 520.43,-324.13 519.31,-331.04"/>
</g>
<!-- Node22 -->
<g id="node22" class="node">
<title>Node22</title>
<g id="a_node22"><a xlink:href="simplecolorwheel_8h.html" target="_top" xlink:title=" ">
<polygon fill="white" stroke="black" points="672,-257.5 672,-287.5 804,-287.5 804,-257.5 672,-257.5"/>
<text text-anchor="start" x="680" y="-275.5" font-family="Helvetica,sans-Serif" font-size="10.00">include/PerceptualColor</text>
<text text-anchor="middle" x="738" y="-264.5" font-family="Helvetica,sans-Serif" font-size="10.00">/simplecolorwheel.h</text>
</a>
</g>
</g>
<!-- Node21&#45;&gt;Node22 -->
<g id="edge34" class="edge">
<title>Node21&#45;&gt;Node22</title>
<path fill="none" stroke="midnightblue" d="M636.13,-320.13C658.69,-309.8 686.42,-297.11 707.25,-287.58"/>
<polygon fill="midnightblue" stroke="midnightblue" points="634.45,-317.05 626.81,-324.4 637.36,-323.42 634.45,-317.05"/>
</g>
<!-- Node22&#45;&gt;Node2 -->
<g id="edge35" class="edge">
<title>Node22&#45;&gt;Node2</title>
<path fill="none" stroke="midnightblue" d="M753.78,-249.31C759.89,-240.56 766.88,-230.38 773,-221 790.05,-194.86 809.03,-163.16 817.9,-148.16"/>
<polygon fill="midnightblue" stroke="midnightblue" points="750.91,-247.3 748.02,-257.49 756.64,-251.33 750.91,-247.3"/>
</g>
<!-- Node22&#45;&gt;Node7 -->
<g id="edge36" class="edge">
<title>Node22&#45;&gt;Node7</title>
<path fill="none" stroke="midnightblue" d="M785.42,-253.78C819.16,-241.18 862.99,-224.81 889.23,-215.01"/>
<polygon fill="midnightblue" stroke="midnightblue" points="783.9,-250.62 775.76,-257.4 786.35,-257.18 783.9,-250.62"/>
</g>
<!-- Node22&#45;&gt;Node17 -->
<g id="edge37" class="edge">
<title>Node22&#45;&gt;Node17</title>
<path fill="none" stroke="midnightblue" d="M752.2,-248C760.54,-230.9 767.56,-207.74 757,-190 746.86,-172.95 728.72,-161.29 711.14,-153.52"/>
<polygon fill="midnightblue" stroke="midnightblue" points="748.87,-246.8 747.27,-257.27 755.05,-250.09 748.87,-246.8"/>
</g>
</g>
</svg>
