<?xml version="1.0" encoding="UTF-8" standalone="no"?>
<!DOCTYPE svg PUBLIC "-//W3C//DTD SVG 1.1//EN"
 "http://www.w3.org/Graphics/SVG/1.1/DTD/svg11.dtd">
<!-- Generated by graphviz version 2.43.0 (0)
 -->
<!-- Title: src/helper.cpp Pages: 1 -->
<svg width="336pt" height="140pt"
 viewBox="0.00 0.00 336.00 140.00" xmlns="http://www.w3.org/2000/svg" xmlns:xlink="http://www.w3.org/1999/xlink">
<g id="graph0" class="graph" transform="scale(1 1) rotate(0) translate(4 136)">
<title>src/helper.cpp</title>
<polygon fill="white" stroke="transparent" points="-4,4 -4,-136 332,-136 332,4 -4,4"/>
<!-- Node1 -->
<g id="node1" class="node">
<title>Node1</title>
<g id="a_node1"><a xlink:title=" ">
<polygon fill="#bfbfbf" stroke="black" points="187.5,-112.5 187.5,-131.5 271.5,-131.5 271.5,-112.5 187.5,-112.5"/>
<text text-anchor="middle" x="229.5" y="-119.5" font-family="Helvetica,sans-Serif" font-size="10.00">src/helper.cpp</text>
</a>
</g>
</g>
<!-- Node2 -->
<g id="node2" class="node">
<title>Node2</title>
<g id="a_node2"><a xlink:href="helper_8h.html" target="_top" xlink:title=" ">
<polygon fill="white" stroke="black" points="46.5,-56.5 46.5,-75.5 182.5,-75.5 182.5,-56.5 46.5,-56.5"/>
<text text-anchor="middle" x="114.5" y="-63.5" font-family="Helvetica,sans-Serif" font-size="10.00">PerceptualColor/helper.h</text>
</a>
</g>
</g>
<!-- Node1&#45;&gt;Node2 -->
<g id="edge1" class="edge">
<title>Node1&#45;&gt;Node2</title>
<path fill="none" stroke="midnightblue" d="M211.28,-112.44C192.6,-103.68 163.34,-89.94 141.88,-79.86"/>
<polygon fill="midnightblue" stroke="midnightblue" points="143.18,-76.6 132.64,-75.52 140.2,-82.93 143.18,-76.6"/>
</g>
<!-- Node6 -->
<g id="node6" class="node">
<title>Node6</title>
<g id="a_node6"><a xlink:title=" ">
<polygon fill="white" stroke="#bfbfbf" points="200.5,-56.5 200.5,-75.5 258.5,-75.5 258.5,-56.5 200.5,-56.5"/>
<text text-anchor="middle" x="229.5" y="-63.5" font-family="Helvetica,sans-Serif" font-size="10.00">QPainter</text>
</a>
</g>
</g>
<!-- Node1&#45;&gt;Node6 -->
<g id="edge5" class="edge">
<title>Node1&#45;&gt;Node6</title>
<path fill="none" stroke="midnightblue" d="M229.5,-112.08C229.5,-105.01 229.5,-94.86 229.5,-85.99"/>
<polygon fill="midnightblue" stroke="midnightblue" points="233,-85.75 229.5,-75.75 226,-85.75 233,-85.75"/>
</g>
<!-- Node7 -->
<g id="node7" class="node">
<title>Node7</title>
<g id="a_node7"><a xlink:title=" ">
<polygon fill="white" stroke="#bfbfbf" points="277,-56.5 277,-75.5 328,-75.5 328,-56.5 277,-56.5"/>
<text text-anchor="middle" x="302.5" y="-63.5" font-family="Helvetica,sans-Serif" font-size="10.00">math.h</text>
</a>
</g>
</g>
<!-- Node1&#45;&gt;Node7 -->
<g id="edge6" class="edge">
<title>Node1&#45;&gt;Node7</title>
<path fill="none" stroke="midnightblue" d="M241.23,-112.32C252.34,-104.11 269.24,-91.6 282.48,-81.81"/>
<polygon fill="midnightblue" stroke="midnightblue" points="284.6,-84.59 290.56,-75.83 280.44,-78.97 284.6,-84.59"/>
</g>
<!-- Node3 -->
<g id="node3" class="node">
<title>Node3</title>
<g id="a_node3"><a xlink:title=" ">
<polygon fill="white" stroke="#bfbfbf" points="0,-0.5 0,-19.5 55,-19.5 55,-0.5 0,-0.5"/>
<text text-anchor="middle" x="27.5" y="-7.5" font-family="Helvetica,sans-Serif" font-size="10.00">QImage</text>
</a>
</g>
</g>
<!-- Node2&#45;&gt;Node3 -->
<g id="edge2" class="edge">
<title>Node2&#45;&gt;Node3</title>
<path fill="none" stroke="midnightblue" d="M100.52,-56.32C86.95,-47.9 66.12,-34.97 50.18,-25.07"/>
<polygon fill="midnightblue" stroke="midnightblue" points="51.79,-21.95 41.44,-19.65 48.09,-27.9 51.79,-21.95"/>
</g>
<!-- Node4 -->
<g id="node4" class="node">
<title>Node4</title>
<g id="a_node4"><a xlink:title=" ">
<polygon fill="white" stroke="#bfbfbf" points="73,-0.5 73,-19.5 156,-19.5 156,-0.5 73,-0.5"/>
<text text-anchor="middle" x="114.5" y="-7.5" font-family="Helvetica,sans-Serif" font-size="10.00">QWheelEvent</text>
</a>
</g>
</g>
<!-- Node2&#45;&gt;Node4 -->
<g id="edge3" class="edge">
<title>Node2&#45;&gt;Node4</title>
<path fill="none" stroke="midnightblue" d="M114.5,-56.08C114.5,-49.01 114.5,-38.86 114.5,-29.99"/>
<polygon fill="midnightblue" stroke="midnightblue" points="118,-29.75 114.5,-19.75 111,-29.75 118,-29.75"/>
</g>
<!-- Node5 -->
<g id="node5" class="node">
<title>Node5</title>
<g id="a_node5"><a xlink:title=" ">
<polygon fill="white" stroke="#bfbfbf" points="174,-0.5 174,-19.5 229,-19.5 229,-0.5 174,-0.5"/>
<text text-anchor="middle" x="201.5" y="-7.5" font-family="Helvetica,sans-Serif" font-size="10.00">lcms2.h</text>
</a>
</g>
</g>
<!-- Node2&#45;&gt;Node5 -->
<g id="edge4" class="edge">
<title>Node2&#45;&gt;Node5</title>
<path fill="none" stroke="midnightblue" d="M128.48,-56.32C142.05,-47.9 162.88,-34.97 178.82,-25.07"/>
<polygon fill="midnightblue" stroke="midnightblue" points="180.91,-27.9 187.56,-19.65 177.21,-21.95 180.91,-27.9"/>
</g>
</g>
</svg>
