<?xml version="1.0" encoding="UTF-8" standalone="no"?>
<!DOCTYPE svg PUBLIC "-//W3C//DTD SVG 1.1//EN"
 "http://www.w3.org/Graphics/SVG/1.1/DTD/svg11.dtd">
<!-- Generated by graphviz version 2.43.0 (0)
 -->
<!-- Title: Graphical Class Hierarchy Pages: 1 -->
<svg width="956pt" height="152pt"
 viewBox="0.00 0.00 956.00 152.00" xmlns="http://www.w3.org/2000/svg" xmlns:xlink="http://www.w3.org/1999/xlink">
<g id="graph0" class="graph" transform="scale(1 1) rotate(0) translate(4 148)">
<title>Graphical Class Hierarchy</title>
<polygon fill="white" stroke="transparent" points="-4,4 -4,-148 952,-148 952,4 -4,4"/>
<!-- Node1 -->
<g id="node1" class="node">
<title>Node1</title>
<g id="a_node1"><a xlink:href="class_perceptual_color_1_1_chroma_lightness_diagram.html" target="_top" xlink:title="A widget that displays a chroma&#45;lightness diagram.">
<polygon fill="white" stroke="black" points="0,-66.5 0,-96.5 185,-96.5 185,-66.5 0,-66.5"/>
<text text-anchor="start" x="8" y="-84.5" font-family="Helvetica,sans-Serif" font-size="10.00">PerceptualColor::ChromaLightness</text>
<text text-anchor="middle" x="92.5" y="-73.5" font-family="Helvetica,sans-Serif" font-size="10.00">Diagram</text>
</a>
</g>
</g>
<!-- Node0 -->
<g id="node2" class="node">
<title>Node0</title>
<g id="a_node2"><a xlink:href="class_perceptual_color_1_1_abstract_diagram.html" target="_top" xlink:title="Base class for LCh diagrams.">
<polygon fill="white" stroke="black" points="234.5,-88.5 234.5,-118.5 374.5,-118.5 374.5,-88.5 234.5,-88.5"/>
<text text-anchor="start" x="242.5" y="-106.5" font-family="Helvetica,sans-Serif" font-size="10.00">PerceptualColor::Abstract</text>
<text text-anchor="middle" x="304.5" y="-95.5" font-family="Helvetica,sans-Serif" font-size="10.00">Diagram</text>
</a>
</g>
</g>
<!-- Node1&#45;&gt;Node0 -->
<g id="edge1" class="edge">
<title>Node1&#45;&gt;Node0</title>
<path fill="none" stroke="midnightblue" d="M195.37,-85.42C208.56,-86.78 221.82,-88.29 234.31,-89.86"/>
<polygon fill="midnightblue" stroke="midnightblue" points="195.6,-81.93 185.3,-84.42 194.9,-88.9 195.6,-81.93"/>
</g>
<!-- Node8 -->
<g id="node7" class="node">
<title>Node8</title>
<g id="a_node7"><a xlink:href="class_perceptual_color_1_1_alpha_selector.html" target="_top" xlink:title="Combined widget with a gradient slider and a spin box; for selecting alpha channel.">
<polygon fill="white" stroke="black" points="221,-50 221,-69 388,-69 388,-50 221,-50"/>
<text text-anchor="middle" x="304.5" y="-57" font-family="Helvetica,sans-Serif" font-size="10.00">PerceptualColor::AlphaSelector</text>
</a>
</g>
</g>
<!-- Node1&#45;&gt;Node8 -->
<g id="edge7" class="edge">
<title>Node1&#45;&gt;Node8</title>
<path fill="none" stroke="midnightblue" d="M195.31,-70.83C203.85,-69.94 212.43,-69.04 220.8,-68.16"/>
<polygon fill="midnightblue" stroke="midnightblue" points="194.88,-67.36 185.3,-71.88 195.61,-74.32 194.88,-67.36"/>
</g>
<!-- Node9 -->
<g id="node8" class="node">
<title>Node9</title>
<g id="a_node8"><a xlink:href="class_perceptual_color_1_1_gradient_selector.html" target="_top" xlink:title="A slider displaying a gradient.">
<polygon fill="white" stroke="black" points="233.5,-0.5 233.5,-30.5 375.5,-30.5 375.5,-0.5 233.5,-0.5"/>
<text text-anchor="start" x="241.5" y="-18.5" font-family="Helvetica,sans-Serif" font-size="10.00">PerceptualColor::Gradient</text>
<text text-anchor="middle" x="304.5" y="-7.5" font-family="Helvetica,sans-Serif" font-size="10.00">Selector</text>
</a>
</g>
</g>
<!-- Node1&#45;&gt;Node9 -->
<g id="edge8" class="edge">
<title>Node1&#45;&gt;Node9</title>
<path fill="none" stroke="midnightblue" d="M149.39,-63.3C171.65,-56.11 197.51,-47.84 221,-40.5 231.43,-37.24 242.62,-33.81 253.29,-30.57"/>
<polygon fill="midnightblue" stroke="midnightblue" points="148.21,-60.01 139.77,-66.41 150.36,-66.67 148.21,-60.01"/>
</g>
<!-- Node0&#45;&gt;Node1 -->
<g id="edge2" class="edge">
<title>Node0&#45;&gt;Node1</title>
<path fill="none" stroke="midnightblue" d="M224.32,-101.77C207.89,-100.29 190.57,-98.48 174.09,-96.53"/>
<polygon fill="midnightblue" stroke="midnightblue" points="224.15,-105.27 234.41,-102.65 224.75,-98.29 224.15,-105.27"/>
</g>
<!-- Node2 -->
<g id="node3" class="node">
<title>Node2</title>
<g id="a_node3"><a xlink:href="class_perceptual_color_1_1_circular_diagram.html" target="_top" xlink:title="Base class for circular diagrams.">
<polygon fill="white" stroke="black" points="424,-88.5 424,-118.5 561,-118.5 561,-88.5 424,-88.5"/>
<text text-anchor="start" x="432" y="-106.5" font-family="Helvetica,sans-Serif" font-size="10.00">PerceptualColor::Circular</text>
<text text-anchor="middle" x="492.5" y="-95.5" font-family="Helvetica,sans-Serif" font-size="10.00">Diagram</text>
</a>
</g>
</g>
<!-- Node0&#45;&gt;Node2 -->
<g id="edge3" class="edge">
<title>Node0&#45;&gt;Node2</title>
<path fill="none" stroke="midnightblue" d="M385.01,-103.5C397.9,-103.5 411.15,-103.5 423.73,-103.5"/>
<polygon fill="midnightblue" stroke="midnightblue" points="384.76,-100 374.76,-103.5 384.76,-107 384.76,-100"/>
</g>
<!-- Node3 -->
<g id="node4" class="node">
<title>Node3</title>
<g id="a_node4"><a xlink:href="class_perceptual_color_1_1_chroma_hue_diagram.html" target="_top" xlink:title="A widget for selecting chroma and hue in LCh color space.">
<polygon fill="white" stroke="black" points="597.5,-113.5 597.5,-143.5 755.5,-143.5 755.5,-113.5 597.5,-113.5"/>
<text text-anchor="start" x="605.5" y="-131.5" font-family="Helvetica,sans-Serif" font-size="10.00">PerceptualColor::ChromaHue</text>
<text text-anchor="middle" x="676.5" y="-120.5" font-family="Helvetica,sans-Serif" font-size="10.00">Diagram</text>
</a>
</g>
</g>
<!-- Node2&#45;&gt;Node3 -->
<g id="edge4" class="edge">
<title>Node2&#45;&gt;Node3</title>
<path fill="none" stroke="midnightblue" d="M571.11,-114.16C579.8,-115.35 588.65,-116.57 597.35,-117.76"/>
<polygon fill="midnightblue" stroke="midnightblue" points="571.39,-110.67 561.01,-112.77 570.44,-117.6 571.39,-110.67"/>
</g>
<!-- Node4 -->
<g id="node5" class="node">
<title>Node4</title>
<g id="a_node5"><a xlink:href="class_perceptual_color_1_1_simple_color_wheel.html" target="_top" xlink:title="Widget to choose the hue in a wheel.">
<polygon fill="white" stroke="black" points="597,-64.5 597,-94.5 756,-94.5 756,-64.5 597,-64.5"/>
<text text-anchor="start" x="605" y="-82.5" font-family="Helvetica,sans-Serif" font-size="10.00">PerceptualColor::SimpleColor</text>
<text text-anchor="middle" x="676.5" y="-71.5" font-family="Helvetica,sans-Serif" font-size="10.00">Wheel</text>
</a>
</g>
</g>
<!-- Node2&#45;&gt;Node4 -->
<g id="edge5" class="edge">
<title>Node2&#45;&gt;Node4</title>
<path fill="none" stroke="midnightblue" d="M570.94,-93.29C579.48,-92.16 588.18,-91.02 596.73,-89.89"/>
<polygon fill="midnightblue" stroke="midnightblue" points="570.47,-89.82 561.01,-94.6 571.38,-96.76 570.47,-89.82"/>
</g>
<!-- Node5 -->
<g id="node6" class="node">
<title>Node5</title>
<g id="a_node6"><a xlink:href="class_perceptual_color_1_1_wheel_color_picker.html" target="_top" xlink:title="Complete wheel&#45;based color picker widget.">
<polygon fill="white" stroke="black" points="792,-64.5 792,-94.5 948,-94.5 948,-64.5 792,-64.5"/>
<text text-anchor="start" x="800" y="-82.5" font-family="Helvetica,sans-Serif" font-size="10.00">PerceptualColor::WheelColor</text>
<text text-anchor="middle" x="870" y="-71.5" font-family="Helvetica,sans-Serif" font-size="10.00">Picker</text>
</a>
</g>
</g>
<!-- Node4&#45;&gt;Node5 -->
<g id="edge6" class="edge">
<title>Node4&#45;&gt;Node5</title>
<path fill="none" stroke="midnightblue" d="M766.49,-79.5C774.95,-79.5 783.48,-79.5 791.82,-79.5"/>
<polygon fill="midnightblue" stroke="midnightblue" points="766.22,-76 756.22,-79.5 766.22,-83 766.22,-76"/>
</g>
</g>
</svg>
