<?xml version="1.0" encoding="UTF-8" standalone="no"?>
<!DOCTYPE svg PUBLIC "-//W3C//DTD SVG 1.1//EN"
 "http://www.w3.org/Graphics/SVG/1.1/DTD/svg11.dtd">
<!-- Generated by graphviz version 2.43.0 (0)
 -->
<!-- Title: src/main.cpp Pages: 1 -->
<svg width="1699pt" height="420pt"
 viewBox="0.00 0.00 1698.50 420.00" xmlns="http://www.w3.org/2000/svg" xmlns:xlink="http://www.w3.org/1999/xlink">
<g id="graph0" class="graph" transform="scale(1 1) rotate(0) translate(4 416)">
<title>src/main.cpp</title>
<polygon fill="white" stroke="transparent" points="-4,4 -4,-416 1694.5,-416 1694.5,4 -4,4"/>
<!-- Node1 -->
<g id="node1" class="node">
<title>Node1</title>
<g id="a_node1"><a xlink:title=" ">
<polygon fill="#bfbfbf" stroke="black" points="956.5,-392.5 956.5,-411.5 1035.5,-411.5 1035.5,-392.5 956.5,-392.5"/>
<text text-anchor="middle" x="996" y="-399.5" font-family="Helvetica,sans-Serif" font-size="10.00">src/main.cpp</text>
</a>
</g>
</g>
<!-- Node2 -->
<g id="node2" class="node">
<title>Node2</title>
<g id="a_node2"><a xlink:href="colordialog_8h.html" target="_top" xlink:title=" ">
<polygon fill="white" stroke="black" points="808,-336.5 808,-355.5 968,-355.5 968,-336.5 808,-336.5"/>
<text text-anchor="middle" x="888" y="-343.5" font-family="Helvetica,sans-Serif" font-size="10.00">PerceptualColor/colordialog.h</text>
</a>
</g>
</g>
<!-- Node1&#45;&gt;Node2 -->
<g id="edge1" class="edge">
<title>Node1&#45;&gt;Node2</title>
<path fill="none" stroke="midnightblue" d="M978.65,-392.32C961.33,-383.66 934.48,-370.24 914.5,-360.25"/>
<polygon fill="midnightblue" stroke="midnightblue" points="915.82,-357 905.31,-355.65 912.69,-363.26 915.82,-357"/>
</g>
<!-- Node12 -->
<g id="node12" class="node">
<title>Node12</title>
<g id="a_node12"><a xlink:title=" ">
<polygon fill="white" stroke="#bfbfbf" points="5,-112.5 5,-131.5 61,-131.5 61,-112.5 5,-112.5"/>
<text text-anchor="middle" x="33" y="-119.5" font-family="Helvetica,sans-Serif" font-size="10.00">QDebug</text>
</a>
</g>
</g>
<!-- Node1&#45;&gt;Node12 -->
<g id="edge63" class="edge">
<title>Node1&#45;&gt;Node12</title>
<path fill="none" stroke="midnightblue" d="M956.34,-400.86C771.1,-399.7 0,-388.97 0,-291 0,-291 0,-291 0,-233 0,-199.25 14.43,-162.03 24.21,-140.69"/>
<polygon fill="midnightblue" stroke="midnightblue" points="27.41,-142.11 28.55,-131.58 21.09,-139.1 27.41,-142.11"/>
</g>
<!-- Node28 -->
<g id="node28" class="node">
<title>Node28</title>
<g id="a_node28"><a xlink:title=" ">
<polygon fill="white" stroke="#bfbfbf" points="1609.5,-280.5 1609.5,-299.5 1690.5,-299.5 1690.5,-280.5 1609.5,-280.5"/>
<text text-anchor="middle" x="1650" y="-287.5" font-family="Helvetica,sans-Serif" font-size="10.00">QColorDialog</text>
</a>
</g>
</g>
<!-- Node1&#45;&gt;Node28 -->
<g id="edge62" class="edge">
<title>Node1&#45;&gt;Node28</title>
<path fill="none" stroke="midnightblue" d="M995.65,-392.14C995.63,-377.78 997.91,-349.65 1015,-336 1063.95,-296.91 1500.19,-306.91 1599.26,-299.66"/>
<polygon fill="midnightblue" stroke="midnightblue" points="1599.77,-303.13 1609.4,-298.72 1599.12,-296.16 1599.77,-303.13"/>
</g>
<!-- Node35 -->
<g id="node35" class="node">
<title>Node35</title>
<g id="a_node35"><a xlink:title=" ">
<polygon fill="white" stroke="#bfbfbf" points="1024.5,-336.5 1024.5,-355.5 1103.5,-355.5 1103.5,-336.5 1024.5,-336.5"/>
<text text-anchor="middle" x="1064" y="-343.5" font-family="Helvetica,sans-Serif" font-size="10.00">QApplication</text>
</a>
</g>
</g>
<!-- Node1&#45;&gt;Node35 -->
<g id="edge61" class="edge">
<title>Node1&#45;&gt;Node35</title>
<path fill="none" stroke="midnightblue" d="M1006.93,-392.32C1017.17,-384.18 1032.72,-371.84 1045,-362.09"/>
<polygon fill="midnightblue" stroke="midnightblue" points="1047.22,-364.79 1052.88,-355.83 1042.87,-359.31 1047.22,-364.79"/>
</g>
<!-- Node36 -->
<g id="node36" class="node">
<title>Node36</title>
<g id="a_node36"><a xlink:title=" ">
<polygon fill="white" stroke="#bfbfbf" points="1121,-336.5 1121,-355.5 1179,-355.5 1179,-336.5 1121,-336.5"/>
<text text-anchor="middle" x="1150" y="-343.5" font-family="Helvetica,sans-Serif" font-size="10.00">QPainter</text>
</a>
</g>
</g>
<!-- Node1&#45;&gt;Node36 -->
<g id="edge64" class="edge">
<title>Node1&#45;&gt;Node36</title>
<path fill="none" stroke="midnightblue" d="M1020.4,-392.44C1046.2,-383.4 1087.08,-369.06 1116.02,-358.92"/>
<polygon fill="midnightblue" stroke="midnightblue" points="1117.43,-362.13 1125.71,-355.52 1115.12,-355.52 1117.43,-362.13"/>
</g>
<!-- Node3 -->
<g id="node3" class="node">
<title>Node3</title>
<g id="a_node3"><a xlink:href="alphaselector_8h.html" target="_top" xlink:title=" ">
<polygon fill="white" stroke="black" points="1068.5,-280.5 1068.5,-299.5 1239.5,-299.5 1239.5,-280.5 1068.5,-280.5"/>
<text text-anchor="middle" x="1154" y="-287.5" font-family="Helvetica,sans-Serif" font-size="10.00">PerceptualColor/alphaselector.h</text>
</a>
</g>
</g>
<!-- Node2&#45;&gt;Node3 -->
<g id="edge2" class="edge">
<title>Node2&#45;&gt;Node3</title>
<path fill="none" stroke="midnightblue" d="M930.15,-336.44C976.75,-326.98 1051.84,-311.74 1102.05,-301.55"/>
<polygon fill="midnightblue" stroke="midnightblue" points="1102.94,-304.94 1112.05,-299.52 1101.55,-298.08 1102.94,-304.94"/>
</g>
<!-- Node4 -->
<g id="node4" class="node">
<title>Node4</title>
<g id="a_node4"><a xlink:href="gradientselector_8h.html" target="_top" xlink:title=" ">
<polygon fill="white" stroke="black" points="1219.5,-224.5 1219.5,-243.5 1404.5,-243.5 1404.5,-224.5 1219.5,-224.5"/>
<text text-anchor="middle" x="1312" y="-231.5" font-family="Helvetica,sans-Serif" font-size="10.00">PerceptualColor/gradientselector.h</text>
</a>
</g>
</g>
<!-- Node2&#45;&gt;Node4 -->
<g id="edge31" class="edge">
<title>Node2&#45;&gt;Node4</title>
<path fill="none" stroke="midnightblue" d="M968.01,-336.85C1081.34,-325.17 1275.69,-304.56 1282,-300 1297.07,-289.1 1304.78,-268.73 1308.57,-253.68"/>
<polygon fill="midnightblue" stroke="midnightblue" points="1312,-254.4 1310.7,-243.88 1305.16,-252.91 1312,-254.4"/>
</g>
<!-- Node5 -->
<g id="node5" class="node">
<title>Node5</title>
<g id="a_node5"><a xlink:href="fullcolordescription_8h.html" target="_top" xlink:title=" ">
<polygon fill="white" stroke="black" points="926,-168.5 926,-187.5 1126,-187.5 1126,-168.5 926,-168.5"/>
<text text-anchor="middle" x="1026" y="-175.5" font-family="Helvetica,sans-Serif" font-size="10.00">PerceptualColor/fullcolordescription.h</text>
</a>
</g>
</g>
<!-- Node2&#45;&gt;Node5 -->
<g id="edge30" class="edge">
<title>Node2&#45;&gt;Node5</title>
<path fill="none" stroke="midnightblue" d="M968.37,-337.65C1071.64,-327.81 1238.82,-310.4 1248,-300 1253.88,-293.34 1252.69,-287.55 1248,-280 1227.48,-246.92 1121.92,-209.26 1064.06,-190.66"/>
<polygon fill="midnightblue" stroke="midnightblue" points="1065.11,-187.32 1054.52,-187.63 1062.99,-193.99 1065.11,-187.32"/>
</g>
<!-- Node11 -->
<g id="node11" class="node">
<title>Node11</title>
<g id="a_node11"><a xlink:title=" ">
<polygon fill="white" stroke="#bfbfbf" points="1210,-56.5 1210,-75.5 1266,-75.5 1266,-56.5 1210,-56.5"/>
<text text-anchor="middle" x="1238" y="-63.5" font-family="Helvetica,sans-Serif" font-size="10.00">QObject</text>
</a>
</g>
</g>
<!-- Node2&#45;&gt;Node11 -->
<g id="edge58" class="edge">
<title>Node2&#45;&gt;Node11</title>
<path fill="none" stroke="midnightblue" d="M968.14,-337.96C1080.21,-327.87 1273.63,-309.46 1305,-300 1356.77,-284.39 1384.91,-290.2 1413,-244 1457.11,-171.45 1330.41,-106 1269.13,-79.49"/>
<polygon fill="midnightblue" stroke="midnightblue" points="1270.46,-76.25 1259.89,-75.57 1267.73,-82.7 1270.46,-76.25"/>
</g>
<!-- Node14 -->
<g id="node14" class="node">
<title>Node14</title>
<g id="a_node14"><a xlink:title=" ">
<polygon fill="white" stroke="#bfbfbf" points="884,-224.5 884,-243.5 982,-243.5 982,-224.5 884,-224.5"/>
<text text-anchor="middle" x="933" y="-231.5" font-family="Helvetica,sans-Serif" font-size="10.00">QDoubleSpinBox</text>
</a>
</g>
</g>
<!-- Node2&#45;&gt;Node14 -->
<g id="edge55" class="edge">
<title>Node2&#45;&gt;Node14</title>
<path fill="none" stroke="midnightblue" d="M807.91,-345.78C659.52,-345.84 361.64,-338.8 416,-280 449.1,-244.2 790.49,-249.28 873.8,-243.65"/>
<polygon fill="midnightblue" stroke="midnightblue" points="874.12,-247.14 883.78,-242.78 873.51,-240.17 874.12,-247.14"/>
</g>
<!-- Node16 -->
<g id="node16" class="node">
<title>Node16</title>
<g id="a_node16"><a xlink:href="colorpatch_8h.html" target="_top" xlink:title=" ">
<polygon fill="white" stroke="black" points="1434.5,-280.5 1434.5,-299.5 1591.5,-299.5 1591.5,-280.5 1434.5,-280.5"/>
<text text-anchor="middle" x="1513" y="-287.5" font-family="Helvetica,sans-Serif" font-size="10.00">PerceptualColor/colorpatch.h</text>
</a>
</g>
</g>
<!-- Node2&#45;&gt;Node16 -->
<g id="edge21" class="edge">
<title>Node2&#45;&gt;Node16</title>
<path fill="none" stroke="midnightblue" d="M968.25,-337.24C972.9,-336.82 977.51,-336.4 982,-336 1176.55,-318.69 1225.45,-317.41 1420,-300 1421.32,-299.88 1422.65,-299.76 1423.98,-299.64"/>
<polygon fill="midnightblue" stroke="midnightblue" points="1424.72,-303.09 1434.36,-298.69 1424.08,-296.12 1424.72,-303.09"/>
</g>
<!-- Node18 -->
<g id="node18" class="node">
<title>Node18</title>
<g id="a_node18"><a xlink:href="chromahuediagram_8h.html" target="_top" xlink:title=" ">
<polygon fill="white" stroke="black" points="664.5,-224.5 664.5,-243.5 865.5,-243.5 865.5,-224.5 664.5,-224.5"/>
<text text-anchor="middle" x="765" y="-231.5" font-family="Helvetica,sans-Serif" font-size="10.00">PerceptualColor/chromahuediagram.h</text>
</a>
</g>
</g>
<!-- Node2&#45;&gt;Node18 -->
<g id="edge23" class="edge">
<title>Node2&#45;&gt;Node18</title>
<path fill="none" stroke="midnightblue" d="M807.86,-343.29C677.78,-339.68 432.48,-329.06 406,-300 400.01,-293.43 400.12,-286.66 406,-280 414.52,-270.34 559.52,-254.59 662.6,-244.51"/>
<polygon fill="midnightblue" stroke="midnightblue" points="663.14,-247.97 672.75,-243.52 662.46,-241.01 663.14,-247.97"/>
</g>
<!-- Node21 -->
<g id="node21" class="node">
<title>Node21</title>
<g id="a_node21"><a xlink:href="wheelcolorpicker_8h.html" target="_top" xlink:title=" ">
<polygon fill="white" stroke="black" points="143,-280.5 143,-299.5 331,-299.5 331,-280.5 143,-280.5"/>
<text text-anchor="middle" x="237" y="-287.5" font-family="Helvetica,sans-Serif" font-size="10.00">PerceptualColor/wheelcolorpicker.h</text>
</a>
</g>
</g>
<!-- Node2&#45;&gt;Node21 -->
<g id="edge32" class="edge">
<title>Node2&#45;&gt;Node21</title>
<path fill="none" stroke="midnightblue" d="M807.96,-338.38C702.04,-329.61 509.5,-313.67 345,-300 343.87,-299.91 342.74,-299.81 341.61,-299.72"/>
<polygon fill="midnightblue" stroke="midnightblue" points="341.5,-296.2 331.24,-298.86 340.92,-303.17 341.5,-296.2"/>
</g>
<!-- Node27 -->
<g id="node27" class="node">
<title>Node27</title>
<g id="a_node27"><a xlink:title=" ">
<polygon fill="white" stroke="#bfbfbf" points="425.5,-280.5 425.5,-299.5 498.5,-299.5 498.5,-280.5 425.5,-280.5"/>
<text text-anchor="middle" x="462" y="-287.5" font-family="Helvetica,sans-Serif" font-size="10.00">QByteArray</text>
</a>
</g>
</g>
<!-- Node2&#45;&gt;Node27 -->
<g id="edge51" class="edge">
<title>Node2&#45;&gt;Node27</title>
<path fill="none" stroke="midnightblue" d="M807.7,-337.26C732.88,-329.65 618.01,-316.93 508.51,-299.97"/>
<polygon fill="midnightblue" stroke="midnightblue" points="509.03,-296.51 498.61,-298.42 507.95,-303.42 509.03,-296.51"/>
</g>
<!-- Node2&#45;&gt;Node28 -->
<g id="edge52" class="edge">
<title>Node2&#45;&gt;Node28</title>
<path fill="none" stroke="midnightblue" d="M968.24,-337.12C972.89,-336.72 977.5,-336.35 982,-336 1252.97,-315.14 1325.03,-332.01 1599.15,-299.94"/>
<polygon fill="midnightblue" stroke="midnightblue" points="1599.88,-303.38 1609.4,-298.73 1599.06,-296.43 1599.88,-303.38"/>
</g>
<!-- Node29 -->
<g id="node29" class="node">
<title>Node29</title>
<g id="a_node29"><a xlink:title=" ">
<polygon fill="white" stroke="#bfbfbf" points="517,-280.5 517,-299.5 573,-299.5 573,-280.5 517,-280.5"/>
<text text-anchor="middle" x="545" y="-287.5" font-family="Helvetica,sans-Serif" font-size="10.00">QDialog</text>
</a>
</g>
</g>
<!-- Node2&#45;&gt;Node29 -->
<g id="edge53" class="edge">
<title>Node2&#45;&gt;Node29</title>
<path fill="none" stroke="midnightblue" d="M817.19,-336.48C757.28,-328.83 668.96,-316.55 583.13,-300.07"/>
<polygon fill="midnightblue" stroke="midnightblue" points="583.71,-296.62 573.22,-298.15 582.37,-303.49 583.71,-296.62"/>
</g>
<!-- Node30 -->
<g id="node30" class="node">
<title>Node30</title>
<g id="a_node30"><a xlink:title=" ">
<polygon fill="white" stroke="#bfbfbf" points="591.5,-280.5 591.5,-299.5 698.5,-299.5 698.5,-280.5 591.5,-280.5"/>
<text text-anchor="middle" x="645" y="-287.5" font-family="Helvetica,sans-Serif" font-size="10.00">QDialogButtonBox</text>
</a>
</g>
</g>
<!-- Node2&#45;&gt;Node30 -->
<g id="edge54" class="edge">
<title>Node2&#45;&gt;Node30</title>
<path fill="none" stroke="midnightblue" d="M849.5,-336.44C807.19,-327.04 739.18,-311.93 693.33,-301.74"/>
<polygon fill="midnightblue" stroke="midnightblue" points="693.85,-298.27 683.32,-299.52 692.33,-305.1 693.85,-298.27"/>
</g>
<!-- Node31 -->
<g id="node31" class="node">
<title>Node31</title>
<g id="a_node31"><a xlink:title=" ">
<polygon fill="white" stroke="#bfbfbf" points="716.5,-280.5 716.5,-299.5 799.5,-299.5 799.5,-280.5 716.5,-280.5"/>
<text text-anchor="middle" x="758" y="-287.5" font-family="Helvetica,sans-Serif" font-size="10.00">QHBoxLayout</text>
</a>
</g>
</g>
<!-- Node2&#45;&gt;Node31 -->
<g id="edge56" class="edge">
<title>Node2&#45;&gt;Node31</title>
<path fill="none" stroke="midnightblue" d="M867.4,-336.44C846.01,-327.56 812.32,-313.56 787.98,-303.45"/>
<polygon fill="midnightblue" stroke="midnightblue" points="789.08,-300.12 778.5,-299.52 786.39,-306.58 789.08,-300.12"/>
</g>
<!-- Node32 -->
<g id="node32" class="node">
<title>Node32</title>
<g id="a_node32"><a xlink:title=" ">
<polygon fill="white" stroke="#bfbfbf" points="817.5,-280.5 817.5,-299.5 880.5,-299.5 880.5,-280.5 817.5,-280.5"/>
<text text-anchor="middle" x="849" y="-287.5" font-family="Helvetica,sans-Serif" font-size="10.00">QLineEdit</text>
</a>
</g>
</g>
<!-- Node2&#45;&gt;Node32 -->
<g id="edge57" class="edge">
<title>Node2&#45;&gt;Node32</title>
<path fill="none" stroke="midnightblue" d="M881.56,-336.08C876.05,-328.46 867.97,-317.26 861.24,-307.94"/>
<polygon fill="midnightblue" stroke="midnightblue" points="864.01,-305.81 855.32,-299.75 858.34,-309.91 864.01,-305.81"/>
</g>
<!-- Node33 -->
<g id="node33" class="node">
<title>Node33</title>
<g id="a_node33"><a xlink:title=" ">
<polygon fill="white" stroke="#bfbfbf" points="898.5,-280.5 898.5,-299.5 957.5,-299.5 957.5,-280.5 898.5,-280.5"/>
<text text-anchor="middle" x="928" y="-287.5" font-family="Helvetica,sans-Serif" font-size="10.00">QPointer</text>
</a>
</g>
</g>
<!-- Node2&#45;&gt;Node33 -->
<g id="edge59" class="edge">
<title>Node2&#45;&gt;Node33</title>
<path fill="none" stroke="midnightblue" d="M894.61,-336.08C900.26,-328.46 908.54,-317.26 915.45,-307.94"/>
<polygon fill="midnightblue" stroke="midnightblue" points="918.38,-309.87 921.52,-299.75 912.75,-305.7 918.38,-309.87"/>
</g>
<!-- Node34 -->
<g id="node34" class="node">
<title>Node34</title>
<g id="a_node34"><a xlink:title=" ">
<polygon fill="white" stroke="#bfbfbf" points="975.5,-280.5 975.5,-299.5 1050.5,-299.5 1050.5,-280.5 975.5,-280.5"/>
<text text-anchor="middle" x="1013" y="-287.5" font-family="Helvetica,sans-Serif" font-size="10.00">QTabWidget</text>
</a>
</g>
</g>
<!-- Node2&#45;&gt;Node34 -->
<g id="edge60" class="edge">
<title>Node2&#45;&gt;Node34</title>
<path fill="none" stroke="midnightblue" d="M907.81,-336.44C928.29,-327.6 960.48,-313.69 983.86,-303.59"/>
<polygon fill="midnightblue" stroke="midnightblue" points="985.49,-306.7 993.29,-299.52 982.72,-300.27 985.49,-306.7"/>
</g>
<!-- Node3&#45;&gt;Node4 -->
<g id="edge3" class="edge">
<title>Node3&#45;&gt;Node4</title>
<path fill="none" stroke="midnightblue" d="M1179.04,-280.44C1205.62,-271.36 1247.81,-256.94 1277.52,-246.78"/>
<polygon fill="midnightblue" stroke="midnightblue" points="1278.75,-250.06 1287.08,-243.52 1276.49,-243.44 1278.75,-250.06"/>
</g>
<!-- Node3&#45;&gt;Node5 -->
<g id="edge17" class="edge">
<title>Node3&#45;&gt;Node5</title>
<path fill="none" stroke="midnightblue" d="M1129.36,-280.36C1110.66,-272.9 1085.16,-260.68 1067,-244 1052.45,-230.64 1041.01,-210.99 1033.96,-196.8"/>
<polygon fill="midnightblue" stroke="midnightblue" points="1037.05,-195.14 1029.61,-187.59 1030.72,-198.13 1037.05,-195.14"/>
</g>
<!-- Node10 -->
<g id="node10" class="node">
<title>Node10</title>
<g id="a_node10"><a xlink:href="rgbcolorspace_8h.html" target="_top" xlink:title=" ">
<polygon fill="white" stroke="black" points="824,-112.5 824,-131.5 998,-131.5 998,-112.5 824,-112.5"/>
<text text-anchor="middle" x="911" y="-119.5" font-family="Helvetica,sans-Serif" font-size="10.00">PerceptualColor/rgbcolorspace.h</text>
</a>
</g>
</g>
<!-- Node3&#45;&gt;Node10 -->
<g id="edge16" class="edge">
<title>Node3&#45;&gt;Node10</title>
<path fill="none" stroke="midnightblue" d="M1132.02,-280.34C1074.56,-257.62 923.8,-197.36 917,-188 907.33,-174.69 906.7,-155.57 907.97,-141.51"/>
<polygon fill="midnightblue" stroke="midnightblue" points="911.44,-141.89 909.25,-131.53 904.5,-141 911.44,-141.89"/>
</g>
<!-- Node13 -->
<g id="node13" class="node">
<title>Node13</title>
<g id="a_node13"><a xlink:title=" ">
<polygon fill="white" stroke="#bfbfbf" points="708.5,-56.5 708.5,-75.5 767.5,-75.5 767.5,-56.5 708.5,-56.5"/>
<text text-anchor="middle" x="738" y="-63.5" font-family="Helvetica,sans-Serif" font-size="10.00">QWidget</text>
</a>
</g>
</g>
<!-- Node3&#45;&gt;Node13 -->
<g id="edge20" class="edge">
<title>Node3&#45;&gt;Node13</title>
<path fill="none" stroke="midnightblue" d="M1155.25,-280.3C1157.83,-258.79 1161.5,-202.35 1135,-168 1091.13,-111.14 869.38,-81.13 777.73,-71"/>
<polygon fill="midnightblue" stroke="midnightblue" points="778.05,-67.51 767.73,-69.92 777.3,-74.47 778.05,-67.51"/>
</g>
<!-- Node3&#45;&gt;Node14 -->
<g id="edge18" class="edge">
<title>Node3&#45;&gt;Node14</title>
<path fill="none" stroke="midnightblue" d="M1118.98,-280.44C1080.75,-271.1 1019.43,-256.12 977.74,-245.93"/>
<polygon fill="midnightblue" stroke="midnightblue" points="978.4,-242.49 967.85,-243.52 976.74,-249.29 978.4,-242.49"/>
</g>
<!-- Node15 -->
<g id="node15" class="node">
<title>Node15</title>
<g id="a_node15"><a xlink:title=" ">
<polygon fill="white" stroke="#bfbfbf" points="1076,-224.5 1076,-243.5 1126,-243.5 1126,-224.5 1076,-224.5"/>
<text text-anchor="middle" x="1101" y="-231.5" font-family="Helvetica,sans-Serif" font-size="10.00">QLabel</text>
</a>
</g>
</g>
<!-- Node3&#45;&gt;Node15 -->
<g id="edge19" class="edge">
<title>Node3&#45;&gt;Node15</title>
<path fill="none" stroke="midnightblue" d="M1145.25,-280.08C1137.53,-272.22 1126.1,-260.57 1116.78,-251.08"/>
<polygon fill="midnightblue" stroke="midnightblue" points="1119.09,-248.44 1109.59,-243.75 1114.1,-253.34 1119.09,-248.44"/>
</g>
<!-- Node4&#45;&gt;Node5 -->
<g id="edge4" class="edge">
<title>Node4&#45;&gt;Node5</title>
<path fill="none" stroke="midnightblue" d="M1266.68,-224.44C1216.37,-214.94 1135.16,-199.61 1081.19,-189.42"/>
<polygon fill="midnightblue" stroke="midnightblue" points="1081.58,-185.93 1071.11,-187.52 1080.28,-192.81 1081.58,-185.93"/>
</g>
<!-- Node4&#45;&gt;Node10 -->
<g id="edge14" class="edge">
<title>Node4&#45;&gt;Node10</title>
<path fill="none" stroke="midnightblue" d="M1291.89,-224.46C1259.41,-210.93 1193.13,-184.41 1135,-168 1081.94,-153.02 1020.47,-141.05 975.36,-133.22"/>
<polygon fill="midnightblue" stroke="midnightblue" points="975.86,-129.76 965.42,-131.52 974.68,-136.66 975.86,-129.76"/>
</g>
<!-- Node4&#45;&gt;Node13 -->
<g id="edge15" class="edge">
<title>Node4&#45;&gt;Node13</title>
<path fill="none" stroke="midnightblue" d="M1305.03,-224.3C1285.97,-201.23 1230.22,-138.42 1168,-112 1150.15,-104.42 880.92,-79.75 777.78,-70.53"/>
<polygon fill="midnightblue" stroke="midnightblue" points="778.03,-67.04 767.76,-69.63 777.41,-74.01 778.03,-67.04"/>
</g>
<!-- Node6 -->
<g id="node6" class="node">
<title>Node6</title>
<g id="a_node6"><a xlink:href="helper_8h.html" target="_top" xlink:title=" ">
<polygon fill="white" stroke="black" points="862,-56.5 862,-75.5 998,-75.5 998,-56.5 862,-56.5"/>
<text text-anchor="middle" x="930" y="-63.5" font-family="Helvetica,sans-Serif" font-size="10.00">PerceptualColor/helper.h</text>
</a>
</g>
</g>
<!-- Node5&#45;&gt;Node6 -->
<g id="edge5" class="edge">
<title>Node5&#45;&gt;Node6</title>
<path fill="none" stroke="midnightblue" d="M1025.46,-168.07C1024.22,-154.6 1020.17,-128.86 1007,-112 995.79,-97.65 978.63,-86.99 963.36,-79.66"/>
<polygon fill="midnightblue" stroke="midnightblue" points="964.71,-76.43 954.16,-75.52 961.84,-82.81 964.71,-76.43"/>
</g>
<!-- Node5&#45;&gt;Node10 -->
<g id="edge9" class="edge">
<title>Node5&#45;&gt;Node10</title>
<path fill="none" stroke="midnightblue" d="M1007.78,-168.44C989.1,-159.68 959.84,-145.94 938.38,-135.86"/>
<polygon fill="midnightblue" stroke="midnightblue" points="939.68,-132.6 929.14,-131.52 936.7,-138.93 939.68,-132.6"/>
</g>
<!-- Node5&#45;&gt;Node12 -->
<g id="edge13" class="edge">
<title>Node5&#45;&gt;Node12</title>
<path fill="none" stroke="midnightblue" d="M925.69,-174.71C719.06,-169.61 250.99,-155.93 71.31,-131.86"/>
<polygon fill="midnightblue" stroke="midnightblue" points="71.56,-128.36 61.17,-130.44 70.59,-135.29 71.56,-128.36"/>
</g>
<!-- Node7 -->
<g id="node7" class="node">
<title>Node7</title>
<g id="a_node7"><a xlink:title=" ">
<polygon fill="white" stroke="#bfbfbf" points="673.5,-0.5 673.5,-19.5 728.5,-19.5 728.5,-0.5 673.5,-0.5"/>
<text text-anchor="middle" x="701" y="-7.5" font-family="Helvetica,sans-Serif" font-size="10.00">QImage</text>
</a>
</g>
</g>
<!-- Node6&#45;&gt;Node7 -->
<g id="edge6" class="edge">
<title>Node6&#45;&gt;Node7</title>
<path fill="none" stroke="midnightblue" d="M893.71,-56.44C851.33,-46.45 781.56,-30 738.62,-19.87"/>
<polygon fill="midnightblue" stroke="midnightblue" points="739.37,-16.45 728.83,-17.56 737.76,-23.26 739.37,-16.45"/>
</g>
<!-- Node8 -->
<g id="node8" class="node">
<title>Node8</title>
<g id="a_node8"><a xlink:title=" ">
<polygon fill="white" stroke="#bfbfbf" points="888.5,-0.5 888.5,-19.5 971.5,-19.5 971.5,-0.5 888.5,-0.5"/>
<text text-anchor="middle" x="930" y="-7.5" font-family="Helvetica,sans-Serif" font-size="10.00">QWheelEvent</text>
</a>
</g>
</g>
<!-- Node6&#45;&gt;Node8 -->
<g id="edge7" class="edge">
<title>Node6&#45;&gt;Node8</title>
<path fill="none" stroke="midnightblue" d="M930,-56.08C930,-49.01 930,-38.86 930,-29.99"/>
<polygon fill="midnightblue" stroke="midnightblue" points="933.5,-29.75 930,-19.75 926.5,-29.75 933.5,-29.75"/>
</g>
<!-- Node9 -->
<g id="node9" class="node">
<title>Node9</title>
<g id="a_node9"><a xlink:title=" ">
<polygon fill="white" stroke="#bfbfbf" points="766.5,-0.5 766.5,-19.5 821.5,-19.5 821.5,-0.5 766.5,-0.5"/>
<text text-anchor="middle" x="794" y="-7.5" font-family="Helvetica,sans-Serif" font-size="10.00">lcms2.h</text>
</a>
</g>
</g>
<!-- Node6&#45;&gt;Node9 -->
<g id="edge8" class="edge">
<title>Node6&#45;&gt;Node9</title>
<path fill="none" stroke="midnightblue" d="M908.45,-56.44C885.97,-47.52 850.51,-33.44 825.02,-23.32"/>
<polygon fill="midnightblue" stroke="midnightblue" points="826.03,-19.95 815.45,-19.52 823.45,-26.46 826.03,-19.95"/>
</g>
<!-- Node10&#45;&gt;Node6 -->
<g id="edge12" class="edge">
<title>Node10&#45;&gt;Node6</title>
<path fill="none" stroke="midnightblue" d="M914.14,-112.08C916.68,-104.85 920.36,-94.41 923.53,-85.4"/>
<polygon fill="midnightblue" stroke="midnightblue" points="926.9,-86.35 926.92,-75.75 920.3,-84.02 926.9,-86.35"/>
</g>
<!-- Node10&#45;&gt;Node9 -->
<g id="edge11" class="edge">
<title>Node10&#45;&gt;Node9</title>
<path fill="none" stroke="midnightblue" d="M898.51,-112.28C886.41,-103.61 867.78,-89.68 853,-76 836.49,-60.71 819.39,-41.44 807.88,-27.86"/>
<polygon fill="midnightblue" stroke="midnightblue" points="810.29,-25.28 801.19,-19.86 804.92,-29.77 810.29,-25.28"/>
</g>
<!-- Node10&#45;&gt;Node11 -->
<g id="edge10" class="edge">
<title>Node10&#45;&gt;Node11</title>
<path fill="none" stroke="midnightblue" d="M962.81,-112.44C1028.73,-101.56 1141.04,-83.01 1199.72,-73.32"/>
<polygon fill="midnightblue" stroke="midnightblue" points="1200.39,-76.76 1209.69,-71.67 1199.25,-69.85 1200.39,-76.76"/>
</g>
<!-- Node17 -->
<g id="node17" class="node">
<title>Node17</title>
<g id="a_node17"><a xlink:title=" ">
<polygon fill="white" stroke="#bfbfbf" points="1485.5,-224.5 1485.5,-243.5 1540.5,-243.5 1540.5,-224.5 1485.5,-224.5"/>
<text text-anchor="middle" x="1513" y="-231.5" font-family="Helvetica,sans-Serif" font-size="10.00">QFrame</text>
</a>
</g>
</g>
<!-- Node16&#45;&gt;Node17 -->
<g id="edge22" class="edge">
<title>Node16&#45;&gt;Node17</title>
<path fill="none" stroke="midnightblue" d="M1513,-280.08C1513,-273.01 1513,-262.86 1513,-253.99"/>
<polygon fill="midnightblue" stroke="midnightblue" points="1516.5,-253.75 1513,-243.75 1509.5,-253.75 1516.5,-253.75"/>
</g>
<!-- Node18&#45;&gt;Node5 -->
<g id="edge28" class="edge">
<title>Node18&#45;&gt;Node5</title>
<path fill="none" stroke="midnightblue" d="M806.36,-224.44C852.08,-214.98 925.76,-199.74 975.02,-189.55"/>
<polygon fill="midnightblue" stroke="midnightblue" points="975.75,-192.97 984.84,-187.52 974.34,-186.12 975.75,-192.97"/>
</g>
<!-- Node18&#45;&gt;Node7 -->
<g id="edge24" class="edge">
<title>Node18&#45;&gt;Node7</title>
<path fill="none" stroke="midnightblue" d="M768.71,-224.14C779.51,-196.91 808.16,-112.8 776,-56 767.65,-41.26 752.34,-30.82 737.71,-23.73"/>
<polygon fill="midnightblue" stroke="midnightblue" points="738.84,-20.4 728.28,-19.55 736,-26.8 738.84,-20.4"/>
</g>
<!-- Node18&#45;&gt;Node10 -->
<g id="edge29" class="edge">
<title>Node18&#45;&gt;Node10</title>
<path fill="none" stroke="midnightblue" d="M776.46,-224.37C801.3,-205.65 860.36,-161.15 891.31,-137.83"/>
<polygon fill="midnightblue" stroke="midnightblue" points="893.72,-140.4 899.6,-131.59 889.5,-134.81 893.72,-140.4"/>
</g>
<!-- Node19 -->
<g id="node19" class="node">
<title>Node19</title>
<g id="a_node19"><a xlink:href="circulardiagram_8h.html" target="_top" xlink:title=" ">
<polygon fill="white" stroke="black" points="394,-168.5 394,-187.5 576,-187.5 576,-168.5 394,-168.5"/>
<text text-anchor="middle" x="485" y="-175.5" font-family="Helvetica,sans-Serif" font-size="10.00">PerceptualColor/circulardiagram.h</text>
</a>
</g>
</g>
<!-- Node18&#45;&gt;Node19 -->
<g id="edge25" class="edge">
<title>Node18&#45;&gt;Node19</title>
<path fill="none" stroke="midnightblue" d="M720.63,-224.44C671.38,-214.94 591.87,-199.61 539.03,-189.42"/>
<polygon fill="midnightblue" stroke="midnightblue" points="539.64,-185.97 529.16,-187.52 538.32,-192.85 539.64,-185.97"/>
</g>
<!-- Node20 -->
<g id="node20" class="node">
<title>Node20</title>
<g id="a_node20"><a xlink:href="abstractdiagram_8h.html" target="_top" xlink:title=" ">
<polygon fill="white" stroke="black" points="428,-112.5 428,-131.5 614,-131.5 614,-112.5 428,-112.5"/>
<text text-anchor="middle" x="521" y="-119.5" font-family="Helvetica,sans-Serif" font-size="10.00">PerceptualColor/abstractdiagram.h</text>
</a>
</g>
</g>
<!-- Node19&#45;&gt;Node20 -->
<g id="edge26" class="edge">
<title>Node19&#45;&gt;Node20</title>
<path fill="none" stroke="midnightblue" d="M490.94,-168.08C495.98,-160.53 503.34,-149.49 509.51,-140.23"/>
<polygon fill="midnightblue" stroke="midnightblue" points="512.53,-142.01 515.17,-131.75 506.71,-138.13 512.53,-142.01"/>
</g>
<!-- Node20&#45;&gt;Node13 -->
<g id="edge27" class="edge">
<title>Node20&#45;&gt;Node13</title>
<path fill="none" stroke="midnightblue" d="M555.38,-112.44C594.27,-102.77 657.5,-87.03 698.42,-76.85"/>
<polygon fill="midnightblue" stroke="midnightblue" points="699.45,-80.2 708.31,-74.39 697.76,-73.41 699.45,-80.2"/>
</g>
<!-- Node21&#45;&gt;Node12 -->
<g id="edge50" class="edge">
<title>Node21&#45;&gt;Node12</title>
<path fill="none" stroke="midnightblue" d="M209.57,-280.44C170.45,-266.89 98.76,-236.92 57,-188 45.66,-174.72 39.46,-155.59 36.22,-141.53"/>
<polygon fill="midnightblue" stroke="midnightblue" points="39.62,-140.65 34.22,-131.54 32.76,-142.03 39.62,-140.65"/>
</g>
<!-- Node22 -->
<g id="node22" class="node">
<title>Node22</title>
<g id="a_node22"><a xlink:href="chromalightnessdiagram_8h.html" target="_top" xlink:title=" ">
<polygon fill="white" stroke="black" points="419.5,-224.5 419.5,-243.5 646.5,-243.5 646.5,-224.5 419.5,-224.5"/>
<text text-anchor="middle" x="533" y="-231.5" font-family="Helvetica,sans-Serif" font-size="10.00">PerceptualColor/chromalightnessdiagram.h</text>
</a>
</g>
</g>
<!-- Node21&#45;&gt;Node22 -->
<g id="edge33" class="edge">
<title>Node21&#45;&gt;Node22</title>
<path fill="none" stroke="midnightblue" d="M283.9,-280.44C336.08,-270.92 420.37,-255.55 476.23,-245.36"/>
<polygon fill="midnightblue" stroke="midnightblue" points="477.11,-248.75 486.32,-243.52 475.85,-241.87 477.11,-248.75"/>
</g>
<!-- Node23 -->
<g id="node23" class="node">
<title>Node23</title>
<g id="a_node23"><a xlink:href="simplecolorwheel_8h.html" target="_top" xlink:title=" ">
<polygon fill="white" stroke="black" points="194,-224.5 194,-243.5 386,-243.5 386,-224.5 194,-224.5"/>
<text text-anchor="middle" x="290" y="-231.5" font-family="Helvetica,sans-Serif" font-size="10.00">PerceptualColor/simplecolorwheel.h</text>
</a>
</g>
</g>
<!-- Node21&#45;&gt;Node23 -->
<g id="edge40" class="edge">
<title>Node21&#45;&gt;Node23</title>
<path fill="none" stroke="midnightblue" d="M245.75,-280.08C253.47,-272.22 264.9,-260.57 274.22,-251.08"/>
<polygon fill="midnightblue" stroke="midnightblue" points="276.9,-253.34 281.41,-243.75 271.91,-248.44 276.9,-253.34"/>
</g>
<!-- Node22&#45;&gt;Node5 -->
<g id="edge38" class="edge">
<title>Node22&#45;&gt;Node5</title>
<path fill="none" stroke="midnightblue" d="M610.85,-224.47C699.86,-214.72 845.23,-198.8 938.21,-188.62"/>
<polygon fill="midnightblue" stroke="midnightblue" points="938.6,-192.09 948.16,-187.53 937.84,-185.14 938.6,-192.09"/>
</g>
<!-- Node22&#45;&gt;Node7 -->
<g id="edge34" class="edge">
<title>Node22&#45;&gt;Node7</title>
<path fill="none" stroke="midnightblue" d="M588.83,-224.5C612.57,-218.17 638.7,-207.15 656,-188 677.17,-164.56 692.65,-70.37 698.47,-29.77"/>
<polygon fill="midnightblue" stroke="midnightblue" points="701.94,-30.23 699.85,-19.85 695.01,-29.27 701.94,-30.23"/>
</g>
<!-- Node22&#45;&gt;Node9 -->
<g id="edge36" class="edge">
<title>Node22&#45;&gt;Node9</title>
<path fill="none" stroke="midnightblue" d="M549.25,-224.4C563.78,-216.23 585.17,-202.99 601,-188 654.04,-137.75 642.52,-102.36 699,-56 716.42,-41.7 739.14,-30.73 757.99,-23.2"/>
<polygon fill="midnightblue" stroke="midnightblue" points="759.36,-26.42 767.44,-19.58 756.85,-19.88 759.36,-26.42"/>
</g>
<!-- Node22&#45;&gt;Node10 -->
<g id="edge39" class="edge">
<title>Node22&#45;&gt;Node10</title>
<path fill="none" stroke="midnightblue" d="M578.07,-224.5C618.67,-216.44 679.83,-203.31 732,-188 784.98,-172.46 845.02,-149.53 880.36,-135.47"/>
<polygon fill="midnightblue" stroke="midnightblue" points="882.09,-138.54 890.07,-131.58 879.48,-132.05 882.09,-138.54"/>
</g>
<!-- Node22&#45;&gt;Node13 -->
<g id="edge35" class="edge">
<title>Node22&#45;&gt;Node13</title>
<path fill="none" stroke="midnightblue" d="M619.11,-224.43C645.81,-218 673.56,-206.94 694,-188 723.28,-160.87 733.12,-112.71 736.4,-86.06"/>
<polygon fill="midnightblue" stroke="midnightblue" points="739.91,-86.09 737.46,-75.79 732.95,-85.37 739.91,-86.09"/>
</g>
<!-- Node22&#45;&gt;Node20 -->
<g id="edge37" class="edge">
<title>Node22&#45;&gt;Node20</title>
<path fill="none" stroke="midnightblue" d="M548.82,-224.34C568.08,-212.58 596.66,-190.44 585,-168 577.85,-154.23 564.33,-143.78 551.55,-136.44"/>
<polygon fill="midnightblue" stroke="midnightblue" points="552.96,-133.23 542.48,-131.64 549.68,-139.41 552.96,-133.23"/>
</g>
<!-- Node23&#45;&gt;Node7 -->
<g id="edge41" class="edge">
<title>Node23&#45;&gt;Node7</title>
<path fill="none" stroke="midnightblue" d="M285.43,-224.23C271.31,-195.78 231.88,-105.04 276,-56 301.68,-27.46 563.6,-15.66 663.01,-12.18"/>
<polygon fill="midnightblue" stroke="midnightblue" points="663.34,-15.67 673.21,-11.83 663.1,-8.67 663.34,-15.67"/>
</g>
<!-- Node23&#45;&gt;Node9 -->
<g id="edge49" class="edge">
<title>Node23&#45;&gt;Node9</title>
<path fill="none" stroke="midnightblue" d="M293.09,-224.48C298.03,-211.55 308.51,-186.49 322,-168 343.12,-139.05 348.62,-129.29 380,-112 445.76,-75.77 667.48,-33.5 756.52,-17.54"/>
<polygon fill="midnightblue" stroke="midnightblue" points="757.23,-20.97 766.46,-15.77 756,-14.08 757.23,-20.97"/>
</g>
<!-- Node23&#45;&gt;Node10 -->
<g id="edge48" class="edge">
<title>Node23&#45;&gt;Node10</title>
<path fill="none" stroke="midnightblue" d="M299.06,-224.35C314.97,-209.76 349.61,-180.62 385,-168 461.43,-140.73 683.8,-129.66 813.64,-125.42"/>
<polygon fill="midnightblue" stroke="midnightblue" points="814.1,-128.91 823.98,-125.09 813.88,-121.91 814.1,-128.91"/>
</g>
<!-- Node23&#45;&gt;Node13 -->
<g id="edge42" class="edge">
<title>Node23&#45;&gt;Node13</title>
<path fill="none" stroke="midnightblue" d="M295.66,-224.36C311.64,-200.86 359.79,-135.96 419,-112 513.84,-73.63 636.01,-67.12 698.04,-66.53"/>
<polygon fill="midnightblue" stroke="midnightblue" points="698.2,-70.03 708.18,-66.48 698.17,-63.03 698.2,-70.03"/>
</g>
<!-- Node23&#45;&gt;Node19 -->
<g id="edge43" class="edge">
<title>Node23&#45;&gt;Node19</title>
<path fill="none" stroke="midnightblue" d="M320.9,-224.44C354.27,-215.2 407.59,-200.44 444.35,-190.26"/>
<polygon fill="midnightblue" stroke="midnightblue" points="445.54,-193.56 454.25,-187.52 443.67,-186.81 445.54,-193.56"/>
</g>
<!-- Node24 -->
<g id="node24" class="node">
<title>Node24</title>
<g id="a_node24"><a xlink:href="polarpointf_8h.html" target="_top" xlink:title=" ">
<polygon fill="white" stroke="black" points="66,-168.5 66,-187.5 224,-187.5 224,-168.5 66,-168.5"/>
<text text-anchor="middle" x="145" y="-175.5" font-family="Helvetica,sans-Serif" font-size="10.00">PerceptualColor/polarpointf.h</text>
</a>
</g>
</g>
<!-- Node23&#45;&gt;Node24 -->
<g id="edge44" class="edge">
<title>Node23&#45;&gt;Node24</title>
<path fill="none" stroke="midnightblue" d="M267.02,-224.44C242.84,-215.44 204.58,-201.19 177.35,-191.05"/>
<polygon fill="midnightblue" stroke="midnightblue" points="178.46,-187.73 167.87,-187.52 176.02,-194.29 178.46,-187.73"/>
</g>
<!-- Node24&#45;&gt;Node12 -->
<g id="edge45" class="edge">
<title>Node24&#45;&gt;Node12</title>
<path fill="none" stroke="midnightblue" d="M127.01,-168.32C108.96,-159.62 80.95,-146.12 60.2,-136.11"/>
<polygon fill="midnightblue" stroke="midnightblue" points="61.48,-132.84 50.95,-131.65 58.44,-139.15 61.48,-132.84"/>
</g>
<!-- Node25 -->
<g id="node25" class="node">
<title>Node25</title>
<g id="a_node25"><a xlink:title=" ">
<polygon fill="white" stroke="#bfbfbf" points="79.5,-112.5 79.5,-131.5 134.5,-131.5 134.5,-112.5 79.5,-112.5"/>
<text text-anchor="middle" x="107" y="-119.5" font-family="Helvetica,sans-Serif" font-size="10.00">QPointF</text>
</a>
</g>
</g>
<!-- Node24&#45;&gt;Node25 -->
<g id="edge46" class="edge">
<title>Node24&#45;&gt;Node25</title>
<path fill="none" stroke="midnightblue" d="M138.73,-168.08C133.36,-160.46 125.48,-149.26 118.92,-139.94"/>
<polygon fill="midnightblue" stroke="midnightblue" points="121.78,-137.91 113.16,-131.75 116.05,-141.94 121.78,-137.91"/>
</g>
<!-- Node26 -->
<g id="node26" class="node">
<title>Node26</title>
<g id="a_node26"><a xlink:title=" ">
<polygon fill="white" stroke="#bfbfbf" points="152.5,-112.5 152.5,-131.5 223.5,-131.5 223.5,-112.5 152.5,-112.5"/>
<text text-anchor="middle" x="188" y="-119.5" font-family="Helvetica,sans-Serif" font-size="10.00">QMetaType</text>
</a>
</g>
</g>
<!-- Node24&#45;&gt;Node26 -->
<g id="edge47" class="edge">
<title>Node24&#45;&gt;Node26</title>
<path fill="none" stroke="midnightblue" d="M152.1,-168.08C158.24,-160.38 167.27,-149.03 174.74,-139.65"/>
<polygon fill="midnightblue" stroke="midnightblue" points="177.54,-141.75 181.03,-131.75 172.06,-137.39 177.54,-141.75"/>
</g>
</g>
</svg>
