<?xml version="1.0" encoding="UTF-8" standalone="no"?>
<!DOCTYPE svg PUBLIC "-//W3C//DTD SVG 1.1//EN"
 "http://www.w3.org/Graphics/SVG/1.1/DTD/svg11.dtd">
<!-- Generated by graphviz version 2.43.0 (0)
 -->
<!-- Title: PerceptualColor::Helper::transparencyBackground Pages: 1 -->
<svg width="520pt" height="88pt"
 viewBox="0.00 0.00 520.00 88.00" xmlns="http://www.w3.org/2000/svg" xmlns:xlink="http://www.w3.org/1999/xlink">
<g id="graph0" class="graph" transform="scale(1 1) rotate(0) translate(4 84)">
<title>PerceptualColor::Helper::transparencyBackground</title>
<polygon fill="white" stroke="transparent" points="-4,4 -4,-84 516,-84 516,4 -4,4"/>
<!-- Node1 -->
<g id="node1" class="node">
<title>Node1</title>
<g id="a_node1"><a xlink:title="Background for semi&#45;transparent colors.">
<polygon fill="#bfbfbf" stroke="black" points="368,-24.5 368,-54.5 512,-54.5 512,-24.5 368,-24.5"/>
<text text-anchor="start" x="376" y="-42.5" font-family="Helvetica,sans-Serif" font-size="10.00">PerceptualColor::Helper</text>
<text text-anchor="middle" x="440" y="-31.5" font-family="Helvetica,sans-Serif" font-size="10.00">::transparencyBackground</text>
</a>
</g>
</g>
<!-- Node2 -->
<g id="node2" class="node">
<title>Node2</title>
<g id="a_node2"><a xlink:href="class_perceptual_color_1_1_gradient_selector.html#a4a19e9fef9d31d5e028ff7eeb783d1be" target="_top" xlink:title=" ">
<polygon fill="white" stroke="black" points="185,-49.5 185,-79.5 327,-79.5 327,-49.5 185,-49.5"/>
<text text-anchor="start" x="193" y="-67.5" font-family="Helvetica,sans-Serif" font-size="10.00">PerceptualColor::Gradient</text>
<text text-anchor="middle" x="256" y="-56.5" font-family="Helvetica,sans-Serif" font-size="10.00">Selector::initialize</text>
</a>
</g>
</g>
<!-- Node1&#45;&gt;Node2 -->
<g id="edge1" class="edge">
<title>Node1&#45;&gt;Node2</title>
<path fill="none" stroke="midnightblue" d="M357.74,-50.66C347.55,-52.06 337.2,-53.48 327.2,-54.86"/>
<polygon fill="midnightblue" stroke="midnightblue" points="358.42,-54.1 367.85,-49.27 357.47,-47.17 358.42,-54.1"/>
</g>
<!-- Node4 -->
<g id="node4" class="node">
<title>Node4</title>
<g id="a_node4"><a xlink:href="class_perceptual_color_1_1_color_patch.html#aac1b80677833c04915faece6c67ce6d0" target="_top" xlink:title="Handle paint events.">
<polygon fill="white" stroke="black" points="180,-0.5 180,-30.5 332,-30.5 332,-0.5 180,-0.5"/>
<text text-anchor="start" x="188" y="-18.5" font-family="Helvetica,sans-Serif" font-size="10.00">PerceptualColor::ColorPatch</text>
<text text-anchor="middle" x="256" y="-7.5" font-family="Helvetica,sans-Serif" font-size="10.00">::paintEvent</text>
</a>
</g>
</g>
<!-- Node1&#45;&gt;Node4 -->
<g id="edge3" class="edge">
<title>Node1&#45;&gt;Node4</title>
<path fill="none" stroke="midnightblue" d="M357.83,-28.8C349.24,-27.66 340.52,-26.51 332,-25.39"/>
<polygon fill="midnightblue" stroke="midnightblue" points="357.48,-32.28 367.85,-30.12 358.4,-25.34 357.48,-32.28"/>
</g>
<!-- Node3 -->
<g id="node3" class="node">
<title>Node3</title>
<g id="a_node3"><a xlink:href="class_perceptual_color_1_1_gradient_selector.html#a9afd88c06d6ae19d85a0f91e4def1b01" target="_top" xlink:title=" ">
<polygon fill="white" stroke="black" points="0,-49.5 0,-79.5 144,-79.5 144,-49.5 0,-49.5"/>
<text text-anchor="start" x="8" y="-67.5" font-family="Helvetica,sans-Serif" font-size="10.00">PerceptualColor::Gradient</text>
<text text-anchor="middle" x="72" y="-56.5" font-family="Helvetica,sans-Serif" font-size="10.00">Selector::GradientSelector</text>
</a>
</g>
</g>
<!-- Node2&#45;&gt;Node3 -->
<g id="edge2" class="edge">
<title>Node2&#45;&gt;Node3</title>
<path fill="none" stroke="midnightblue" d="M174.81,-64.5C164.64,-64.5 154.29,-64.5 144.27,-64.5"/>
<polygon fill="midnightblue" stroke="midnightblue" points="174.89,-68 184.89,-64.5 174.89,-61 174.89,-68"/>
</g>
</g>
</svg>
