<?xml version="1.0" encoding="UTF-8" standalone="no"?>
<!DOCTYPE svg PUBLIC "-//W3C//DTD SVG 1.1//EN"
 "http://www.w3.org/Graphics/SVG/1.1/DTD/svg11.dtd">
<!-- Generated by graphviz version 2.43.0 (0)
 -->
<!-- Title: PerceptualColor::operator&lt;&lt; Pages: 1 -->
<svg width="345pt" height="284pt"
 viewBox="0.00 0.00 345.00 284.00" xmlns="http://www.w3.org/2000/svg" xmlns:xlink="http://www.w3.org/1999/xlink">
<g id="graph0" class="graph" transform="scale(1 1) rotate(0) translate(4 280)">
<title>PerceptualColor::operator&lt;&lt;</title>
<polygon fill="white" stroke="transparent" points="-4,4 -4,-280 341,-280 341,4 -4,4"/>
<!-- Node1 -->
<g id="node1" class="node">
<title>Node1</title>
<g id="a_node1"><a xlink:title="Adds QDebug() support for this data type.">
<polygon fill="#bfbfbf" stroke="black" points="0,-128 0,-147 158,-147 158,-128 0,-128"/>
<text text-anchor="middle" x="79" y="-135" font-family="Helvetica,sans-Serif" font-size="10.00">PerceptualColor::operator&lt;&lt;</text>
</a>
</g>
</g>
<!-- Node2 -->
<g id="node2" class="node">
<title>Node2</title>
<g id="a_node2"><a xlink:href="class_perceptual_color_1_1_full_color_description.html#aa4fabb35ce1684e4321ff58d008a2885" target="_top" xlink:title=" ">
<polygon fill="white" stroke="black" points="194,-245.5 194,-275.5 337,-275.5 337,-245.5 194,-245.5"/>
<text text-anchor="start" x="202" y="-263.5" font-family="Helvetica,sans-Serif" font-size="10.00">PerceptualColor::FullColor</text>
<text text-anchor="middle" x="265.5" y="-252.5" font-family="Helvetica,sans-Serif" font-size="10.00">Description::alpha</text>
</a>
</g>
</g>
<!-- Node1&#45;&gt;Node2 -->
<g id="edge1" class="edge">
<title>Node1&#45;&gt;Node2</title>
<path fill="none" stroke="midnightblue" d="M88.51,-147.05C106.29,-166.47 149.45,-210.9 194,-236.5 197.01,-238.23 200.16,-239.86 203.39,-241.39"/>
<polygon fill="midnightblue" stroke="midnightblue" points="202.09,-244.64 212.65,-245.45 204.9,-238.23 202.09,-244.64"/>
</g>
<!-- Node3 -->
<g id="node3" class="node">
<title>Node3</title>
<g id="a_node3"><a xlink:href="class_perceptual_color_1_1_full_color_description.html#aaa17133c6e1d040b2f088e79a42d3283" target="_top" xlink:title=" ">
<polygon fill="white" stroke="black" points="194,-196.5 194,-226.5 337,-226.5 337,-196.5 194,-196.5"/>
<text text-anchor="start" x="202" y="-214.5" font-family="Helvetica,sans-Serif" font-size="10.00">PerceptualColor::FullColor</text>
<text text-anchor="middle" x="265.5" y="-203.5" font-family="Helvetica,sans-Serif" font-size="10.00">Description::toHsvQColor</text>
</a>
</g>
</g>
<!-- Node1&#45;&gt;Node3 -->
<g id="edge2" class="edge">
<title>Node1&#45;&gt;Node3</title>
<path fill="none" stroke="midnightblue" d="M100.37,-147.06C123.01,-157.54 160.76,-174.58 194,-187.5 198.77,-189.36 203.76,-191.21 208.77,-193.02"/>
<polygon fill="midnightblue" stroke="midnightblue" points="207.81,-196.4 218.41,-196.44 210.15,-189.8 207.81,-196.4"/>
</g>
<!-- Node4 -->
<g id="node4" class="node">
<title>Node4</title>
<g id="a_node4"><a xlink:href="class_perceptual_color_1_1_full_color_description.html#a26e4ea239adaeeb9237e9655b1cab9e5" target="_top" xlink:title=" ">
<polygon fill="white" stroke="black" points="194,-147.5 194,-177.5 337,-177.5 337,-147.5 194,-147.5"/>
<text text-anchor="start" x="202" y="-165.5" font-family="Helvetica,sans-Serif" font-size="10.00">PerceptualColor::FullColor</text>
<text text-anchor="middle" x="265.5" y="-154.5" font-family="Helvetica,sans-Serif" font-size="10.00">Description::toLab</text>
</a>
</g>
</g>
<!-- Node1&#45;&gt;Node4 -->
<g id="edge3" class="edge">
<title>Node1&#45;&gt;Node4</title>
<path fill="none" stroke="midnightblue" d="M150.28,-147.02C161.19,-148.5 172.54,-150.04 183.67,-151.55"/>
<polygon fill="midnightblue" stroke="midnightblue" points="183.43,-155.05 193.81,-152.92 184.37,-148.11 183.43,-155.05"/>
</g>
<!-- Node5 -->
<g id="node5" class="node">
<title>Node5</title>
<g id="a_node5"><a xlink:href="class_perceptual_color_1_1_full_color_description.html#acdbff4639f8a118f0d13a831a4b57ffe" target="_top" xlink:title=" ">
<polygon fill="white" stroke="black" points="194,-98.5 194,-128.5 337,-128.5 337,-98.5 194,-98.5"/>
<text text-anchor="start" x="202" y="-116.5" font-family="Helvetica,sans-Serif" font-size="10.00">PerceptualColor::FullColor</text>
<text text-anchor="middle" x="265.5" y="-105.5" font-family="Helvetica,sans-Serif" font-size="10.00">Description::toLch</text>
</a>
</g>
</g>
<!-- Node1&#45;&gt;Node5 -->
<g id="edge4" class="edge">
<title>Node1&#45;&gt;Node5</title>
<path fill="none" stroke="midnightblue" d="M153.18,-127.98C163.22,-126.67 173.57,-125.33 183.73,-124.01"/>
<polygon fill="midnightblue" stroke="midnightblue" points="184.35,-127.46 193.81,-122.7 183.44,-120.51 184.35,-127.46"/>
</g>
<!-- Node6 -->
<g id="node6" class="node">
<title>Node6</title>
<g id="a_node6"><a xlink:href="class_perceptual_color_1_1_full_color_description.html#a4f716eee81c1d3b1fda841dff80f97f1" target="_top" xlink:title=" ">
<polygon fill="white" stroke="black" points="194,-49.5 194,-79.5 337,-79.5 337,-49.5 194,-49.5"/>
<text text-anchor="start" x="202" y="-67.5" font-family="Helvetica,sans-Serif" font-size="10.00">PerceptualColor::FullColor</text>
<text text-anchor="middle" x="265.5" y="-56.5" font-family="Helvetica,sans-Serif" font-size="10.00">Description::toRgb</text>
</a>
</g>
</g>
<!-- Node1&#45;&gt;Node6 -->
<g id="edge5" class="edge">
<title>Node1&#45;&gt;Node6</title>
<path fill="none" stroke="midnightblue" d="M101.7,-127.92C124.53,-117.95 161.56,-102.07 194,-89.5 199.51,-87.37 205.28,-85.2 211.06,-83.08"/>
<polygon fill="midnightblue" stroke="midnightblue" points="212.52,-86.28 220.73,-79.58 210.14,-79.7 212.52,-86.28"/>
</g>
<!-- Node7 -->
<g id="node7" class="node">
<title>Node7</title>
<g id="a_node7"><a xlink:href="class_perceptual_color_1_1_full_color_description.html#aad1d9cc70b7a9ae81c829c391334d768" target="_top" xlink:title=" ">
<polygon fill="white" stroke="black" points="194,-0.5 194,-30.5 337,-30.5 337,-0.5 194,-0.5"/>
<text text-anchor="start" x="202" y="-18.5" font-family="Helvetica,sans-Serif" font-size="10.00">PerceptualColor::FullColor</text>
<text text-anchor="middle" x="265.5" y="-7.5" font-family="Helvetica,sans-Serif" font-size="10.00">Description::toRgbQColor</text>
</a>
</g>
</g>
<!-- Node1&#45;&gt;Node7 -->
<g id="edge6" class="edge">
<title>Node1&#45;&gt;Node7</title>
<path fill="none" stroke="midnightblue" d="M88.86,-127.91C106.93,-108.84 150.1,-65.81 194,-40.5 197.61,-38.42 201.42,-36.47 205.32,-34.65"/>
<polygon fill="midnightblue" stroke="midnightblue" points="206.78,-37.83 214.55,-30.63 203.99,-31.41 206.78,-37.83"/>
</g>
</g>
</svg>
