<?xml version="1.0" encoding="UTF-8" standalone="no"?>
<!DOCTYPE svg PUBLIC "-//W3C//DTD SVG 1.1//EN"
 "http://www.w3.org/Graphics/SVG/1.1/DTD/svg11.dtd">
<!-- Generated by graphviz version 2.43.0 (0)
 -->
<!-- Title: PerceptualColor::Helper::standardWheelSteps Pages: 1 -->
<svg width="335pt" height="137pt"
 viewBox="0.00 0.00 335.00 137.00" xmlns="http://www.w3.org/2000/svg" xmlns:xlink="http://www.w3.org/1999/xlink">
<g id="graph0" class="graph" transform="scale(1 1) rotate(0) translate(4 133)">
<title>PerceptualColor::Helper::standardWheelSteps</title>
<polygon fill="white" stroke="transparent" points="-4,4 -4,-133 331,-133 331,4 -4,4"/>
<!-- Node1 -->
<g id="node1" class="node">
<title>Node1</title>
<g id="a_node1"><a xlink:title="Number of vertical standard wheel steps done by a wheel event.">
<polygon fill="#bfbfbf" stroke="black" points="195,-49.5 195,-79.5 327,-79.5 327,-49.5 195,-49.5"/>
<text text-anchor="start" x="203" y="-67.5" font-family="Helvetica,sans-Serif" font-size="10.00">PerceptualColor::Helper</text>
<text text-anchor="middle" x="261" y="-56.5" font-family="Helvetica,sans-Serif" font-size="10.00">::standardWheelSteps</text>
</a>
</g>
</g>
<!-- Node2 -->
<g id="node2" class="node">
<title>Node2</title>
<g id="a_node2"><a xlink:href="class_perceptual_color_1_1_gradient_selector.html#a2f1ad73ad864cffe3061133c3a048b0d" target="_top" xlink:title=" ">
<polygon fill="white" stroke="black" points="8.5,-98.5 8.5,-128.5 150.5,-128.5 150.5,-98.5 8.5,-98.5"/>
<text text-anchor="start" x="16.5" y="-116.5" font-family="Helvetica,sans-Serif" font-size="10.00">PerceptualColor::Gradient</text>
<text text-anchor="middle" x="79.5" y="-105.5" font-family="Helvetica,sans-Serif" font-size="10.00">Selector::wheelEvent</text>
</a>
</g>
</g>
<!-- Node1&#45;&gt;Node2 -->
<g id="edge1" class="edge">
<title>Node1&#45;&gt;Node2</title>
<path fill="none" stroke="midnightblue" d="M194.98,-82.25C175.53,-87.56 154.39,-93.33 135.64,-98.45"/>
<polygon fill="midnightblue" stroke="midnightblue" points="195.95,-85.61 204.68,-79.6 194.11,-78.86 195.95,-85.61"/>
</g>
<!-- Node3 -->
<g id="node3" class="node">
<title>Node3</title>
<g id="a_node3"><a xlink:href="class_perceptual_color_1_1_simple_color_wheel.html#a39f69259647eebe1e95ce3a1aa73bcd6" target="_top" xlink:title="React on a mouse wheel event.">
<polygon fill="white" stroke="black" points="0,-49.5 0,-79.5 159,-79.5 159,-49.5 0,-49.5"/>
<text text-anchor="start" x="8" y="-67.5" font-family="Helvetica,sans-Serif" font-size="10.00">PerceptualColor::SimpleColor</text>
<text text-anchor="middle" x="79.5" y="-56.5" font-family="Helvetica,sans-Serif" font-size="10.00">Wheel::wheelEvent</text>
</a>
</g>
</g>
<!-- Node1&#45;&gt;Node3 -->
<g id="edge2" class="edge">
<title>Node1&#45;&gt;Node3</title>
<path fill="none" stroke="midnightblue" d="M184.72,-64.5C176.25,-64.5 167.6,-64.5 159.09,-64.5"/>
<polygon fill="midnightblue" stroke="midnightblue" points="184.94,-68 194.94,-64.5 184.94,-61 184.94,-68"/>
</g>
<!-- Node4 -->
<g id="node4" class="node">
<title>Node4</title>
<g id="a_node4"><a xlink:href="class_perceptual_color_1_1_chroma_hue_diagram.html#a2b14fea4dd40197c7d37c88fb8be63e7" target="_top" xlink:title=" ">
<polygon fill="white" stroke="black" points="0.5,-0.5 0.5,-30.5 158.5,-30.5 158.5,-0.5 0.5,-0.5"/>
<text text-anchor="start" x="8.5" y="-18.5" font-family="Helvetica,sans-Serif" font-size="10.00">PerceptualColor::ChromaHue</text>
<text text-anchor="middle" x="79.5" y="-7.5" font-family="Helvetica,sans-Serif" font-size="10.00">Diagram::wheelEvent</text>
</a>
</g>
</g>
<!-- Node1&#45;&gt;Node4 -->
<g id="edge3" class="edge">
<title>Node1&#45;&gt;Node4</title>
<path fill="none" stroke="midnightblue" d="M194.98,-46.75C175.53,-41.44 154.39,-35.67 135.64,-30.55"/>
<polygon fill="midnightblue" stroke="midnightblue" points="194.11,-50.14 204.68,-49.4 195.95,-43.39 194.11,-50.14"/>
</g>
</g>
</svg>
