<?xml version="1.0" encoding="UTF-8" standalone="no"?>
<!DOCTYPE svg PUBLIC "-//W3C//DTD SVG 1.1//EN"
 "http://www.w3.org/Graphics/SVG/1.1/DTD/svg11.dtd">
<!-- Generated by graphviz version 2.43.0 (0)
 -->
<!-- Title: include/PerceptualColor/polarpointf.h Pages: 1 -->
<svg width="742pt" height="296pt"
 viewBox="0.00 0.00 741.83 296.00" xmlns="http://www.w3.org/2000/svg" xmlns:xlink="http://www.w3.org/1999/xlink">
<g id="graph0" class="graph" transform="scale(1 1) rotate(0) translate(4 292)">
<title>include/PerceptualColor/polarpointf.h</title>
<polygon fill="white" stroke="transparent" points="-4,4 -4,-292 737.83,-292 737.83,4 -4,4"/>
<!-- Node1 -->
<g id="node1" class="node">
<title>Node1</title>
<g id="a_node1"><a xlink:title=" ">
<polygon fill="#bfbfbf" stroke="black" points="292.83,-257.5 292.83,-287.5 424.83,-287.5 424.83,-257.5 292.83,-257.5"/>
<text text-anchor="start" x="300.83" y="-275.5" font-family="Helvetica,sans-Serif" font-size="10.00">include/PerceptualColor</text>
<text text-anchor="middle" x="358.83" y="-264.5" font-family="Helvetica,sans-Serif" font-size="10.00">/polarpointf.h</text>
</a>
</g>
</g>
<!-- Node2 -->
<g id="node2" class="node">
<title>Node2</title>
<g id="a_node2"><a xlink:href="chromahuediagram_8cpp.html" target="_top" xlink:title=" ">
<polygon fill="white" stroke="black" points="96.33,-129 96.33,-148 245.33,-148 245.33,-129 96.33,-129"/>
<text text-anchor="middle" x="170.83" y="-136" font-family="Helvetica,sans-Serif" font-size="10.00">src/chromahuediagram.cpp</text>
</a>
</g>
</g>
<!-- Node1&#45;&gt;Node2 -->
<g id="edge1" class="edge">
<title>Node1&#45;&gt;Node2</title>
<path fill="none" stroke="midnightblue" d="M282.53,-271.66C190.42,-270.04 43.5,-261.03 8.83,-221 -25.33,-181.55 52.65,-159.02 111.89,-148.04"/>
<polygon fill="midnightblue" stroke="midnightblue" points="282.6,-275.16 292.65,-271.82 282.7,-268.17 282.6,-275.16"/>
</g>
<!-- Node3 -->
<g id="node3" class="node">
<title>Node3</title>
<g id="a_node3"><a xlink:href="chromalightnessdiagram_8cpp.html" target="_top" xlink:title=" ">
<polygon fill="white" stroke="black" points="17.83,-196 17.83,-215 193.83,-215 193.83,-196 17.83,-196"/>
<text text-anchor="middle" x="105.83" y="-203" font-family="Helvetica,sans-Serif" font-size="10.00">src/chromalightnessdiagram.cpp</text>
</a>
</g>
</g>
<!-- Node1&#45;&gt;Node3 -->
<g id="edge2" class="edge">
<title>Node1&#45;&gt;Node3</title>
<path fill="none" stroke="midnightblue" d="M294.26,-254.91C244.71,-242.18 178.33,-225.13 139.03,-215.03"/>
<polygon fill="midnightblue" stroke="midnightblue" points="293.69,-258.38 304.25,-257.48 295.43,-251.6 293.69,-258.38"/>
</g>
<!-- Node4 -->
<g id="node4" class="node">
<title>Node4</title>
<g id="a_node4"><a xlink:href="fullcolordescription_8cpp.html" target="_top" xlink:title=" ">
<polygon fill="white" stroke="black" points="211.83,-196 211.83,-215 359.83,-215 359.83,-196 211.83,-196"/>
<text text-anchor="middle" x="285.83" y="-203" font-family="Helvetica,sans-Serif" font-size="10.00">src/fullcolordescription.cpp</text>
</a>
</g>
</g>
<!-- Node1&#45;&gt;Node4 -->
<g id="edge3" class="edge">
<title>Node1&#45;&gt;Node4</title>
<path fill="none" stroke="midnightblue" d="M335.44,-250.67C321.96,-238.67 305.73,-224.22 295.6,-215.19"/>
<polygon fill="midnightblue" stroke="midnightblue" points="333.2,-253.36 342.99,-257.4 337.85,-248.13 333.2,-253.36"/>
</g>
<!-- Node5 -->
<g id="node5" class="node">
<title>Node5</title>
<g id="a_node5"><a xlink:href="polarpointf_8cpp.html" target="_top" xlink:title=" ">
<polygon fill="white" stroke="black" points="378.33,-196 378.33,-215 485.33,-215 485.33,-196 378.33,-196"/>
<text text-anchor="middle" x="431.83" y="-203" font-family="Helvetica,sans-Serif" font-size="10.00">src/polarpointf.cpp</text>
</a>
</g>
</g>
<!-- Node1&#45;&gt;Node5 -->
<g id="edge4" class="edge">
<title>Node1&#45;&gt;Node5</title>
<path fill="none" stroke="midnightblue" d="M382.22,-250.67C395.7,-238.67 411.93,-224.22 422.07,-215.19"/>
<polygon fill="midnightblue" stroke="midnightblue" points="379.81,-248.13 374.67,-257.4 384.47,-253.36 379.81,-248.13"/>
</g>
<!-- Node6 -->
<g id="node6" class="node">
<title>Node6</title>
<g id="a_node6"><a xlink:href="simplecolorwheel_8cpp.html" target="_top" xlink:title=" ">
<polygon fill="white" stroke="black" points="593.83,-129 593.83,-148 733.83,-148 733.83,-129 593.83,-129"/>
<text text-anchor="middle" x="663.83" y="-136" font-family="Helvetica,sans-Serif" font-size="10.00">src/simplecolorwheel.cpp</text>
</a>
</g>
</g>
<!-- Node1&#45;&gt;Node6 -->
<g id="edge5" class="edge">
<title>Node1&#45;&gt;Node6</title>
<path fill="none" stroke="midnightblue" d="M435.35,-267.35C509.62,-261.72 615.33,-248.94 644.83,-221 665.3,-201.62 665.65,-164.81 664.63,-148.12"/>
<polygon fill="midnightblue" stroke="midnightblue" points="434.81,-263.88 425.09,-268.1 435.31,-270.86 434.81,-263.88"/>
</g>
<!-- Node7 -->
<g id="node7" class="node">
<title>Node7</title>
<g id="a_node7"><a xlink:href="simplecolorwheel_8h.html" target="_top" xlink:title=" ">
<polygon fill="white" stroke="black" points="503.83,-190.5 503.83,-220.5 635.83,-220.5 635.83,-190.5 503.83,-190.5"/>
<text text-anchor="start" x="511.83" y="-208.5" font-family="Helvetica,sans-Serif" font-size="10.00">include/PerceptualColor</text>
<text text-anchor="middle" x="569.83" y="-197.5" font-family="Helvetica,sans-Serif" font-size="10.00">/simplecolorwheel.h</text>
</a>
</g>
</g>
<!-- Node1&#45;&gt;Node7 -->
<g id="edge6" class="edge">
<title>Node1&#45;&gt;Node7</title>
<path fill="none" stroke="midnightblue" d="M414.2,-254.44C448.4,-243.91 491.76,-230.55 524.03,-220.61"/>
<polygon fill="midnightblue" stroke="midnightblue" points="412.88,-251.19 404.36,-257.48 414.94,-257.88 412.88,-251.19"/>
</g>
<!-- Node7&#45;&gt;Node2 -->
<g id="edge7" class="edge">
<title>Node7&#45;&gt;Node2</title>
<path fill="none" stroke="midnightblue" d="M493.66,-190.01C394.68,-172.94 291.96,-157.33 229.28,-148.04"/>
<polygon fill="midnightblue" stroke="midnightblue" points="493.09,-193.46 503.54,-191.72 494.28,-186.56 493.09,-193.46"/>
</g>
<!-- Node7&#45;&gt;Node6 -->
<g id="edge8" class="edge">
<title>Node7&#45;&gt;Node6</title>
<path fill="none" stroke="midnightblue" d="M598.55,-184.64C616.29,-172.37 638.15,-157.26 651.53,-148.01"/>
<polygon fill="midnightblue" stroke="midnightblue" points="596.46,-181.83 590.23,-190.4 600.44,-187.59 596.46,-181.83"/>
</g>
<!-- Node8 -->
<g id="node8" class="node">
<title>Node8</title>
<g id="a_node8"><a xlink:href="wheelcolorpicker_8h.html" target="_top" xlink:title=" ">
<polygon fill="white" stroke="black" points="443.83,-123.5 443.83,-153.5 575.83,-153.5 575.83,-123.5 443.83,-123.5"/>
<text text-anchor="start" x="451.83" y="-141.5" font-family="Helvetica,sans-Serif" font-size="10.00">include/PerceptualColor</text>
<text text-anchor="middle" x="509.83" y="-130.5" font-family="Helvetica,sans-Serif" font-size="10.00">/wheelcolorpicker.h</text>
</a>
</g>
</g>
<!-- Node7&#45;&gt;Node8 -->
<g id="edge9" class="edge">
<title>Node7&#45;&gt;Node8</title>
<path fill="none" stroke="midnightblue" d="M550.01,-183.02C541.07,-173.34 530.76,-162.17 522.83,-153.58"/>
<polygon fill="midnightblue" stroke="midnightblue" points="547.46,-185.42 556.81,-190.4 552.6,-180.67 547.46,-185.42"/>
</g>
<!-- Node9 -->
<g id="node9" class="node">
<title>Node9</title>
<g id="a_node9"><a xlink:href="wheelcolorpicker_8cpp.html" target="_top" xlink:title=" ">
<polygon fill="white" stroke="black" points="365.83,-62 365.83,-81 501.83,-81 501.83,-62 365.83,-62"/>
<text text-anchor="middle" x="433.83" y="-69" font-family="Helvetica,sans-Serif" font-size="10.00">src/wheelcolorpicker.cpp</text>
</a>
</g>
</g>
<!-- Node8&#45;&gt;Node9 -->
<g id="edge10" class="edge">
<title>Node8&#45;&gt;Node9</title>
<path fill="none" stroke="midnightblue" d="M485.48,-116.67C471.45,-104.67 454.55,-90.22 444,-81.19"/>
<polygon fill="midnightblue" stroke="midnightblue" points="483.47,-119.56 493.34,-123.4 488.02,-114.24 483.47,-119.56"/>
</g>
<!-- Node10 -->
<g id="node10" class="node">
<title>Node10</title>
<g id="a_node10"><a xlink:href="colordialog_8h.html" target="_top" xlink:title=" ">
<polygon fill="white" stroke="black" points="519.83,-56.5 519.83,-86.5 651.83,-86.5 651.83,-56.5 519.83,-56.5"/>
<text text-anchor="start" x="527.83" y="-74.5" font-family="Helvetica,sans-Serif" font-size="10.00">include/PerceptualColor</text>
<text text-anchor="middle" x="585.83" y="-63.5" font-family="Helvetica,sans-Serif" font-size="10.00">/colordialog.h</text>
</a>
</g>
</g>
<!-- Node8&#45;&gt;Node10 -->
<g id="edge11" class="edge">
<title>Node8&#45;&gt;Node10</title>
<path fill="none" stroke="midnightblue" d="M533.94,-116.88C545.49,-107.01 559.02,-95.43 569.37,-86.58"/>
<polygon fill="midnightblue" stroke="midnightblue" points="531.65,-114.24 526.32,-123.4 536.2,-119.56 531.65,-114.24"/>
</g>
<!-- Node11 -->
<g id="node11" class="node">
<title>Node11</title>
<g id="a_node11"><a xlink:href="colordialog_8cpp.html" target="_top" xlink:title=" ">
<polygon fill="white" stroke="black" points="475.83,-0.5 475.83,-19.5 583.83,-19.5 583.83,-0.5 475.83,-0.5"/>
<text text-anchor="middle" x="529.83" y="-7.5" font-family="Helvetica,sans-Serif" font-size="10.00">src/colordialog.cpp</text>
</a>
</g>
</g>
<!-- Node10&#45;&gt;Node11 -->
<g id="edge12" class="edge">
<title>Node10&#45;&gt;Node11</title>
<path fill="none" stroke="midnightblue" d="M565.6,-49C556.05,-38.86 545.2,-27.33 537.98,-19.66"/>
<polygon fill="midnightblue" stroke="midnightblue" points="563.16,-51.52 572.56,-56.4 568.26,-46.72 563.16,-51.52"/>
</g>
<!-- Node12 -->
<g id="node12" class="node">
<title>Node12</title>
<g id="a_node12"><a xlink:href="main_8cpp.html" target="_top" xlink:title=" ">
<polygon fill="white" stroke="black" points="602.33,-0.5 602.33,-19.5 681.33,-19.5 681.33,-0.5 602.33,-0.5"/>
<text text-anchor="middle" x="641.83" y="-7.5" font-family="Helvetica,sans-Serif" font-size="10.00">src/main.cpp</text>
</a>
</g>
</g>
<!-- Node10&#45;&gt;Node12 -->
<g id="edge13" class="edge">
<title>Node10&#45;&gt;Node12</title>
<path fill="none" stroke="midnightblue" d="M606.06,-49C615.61,-38.86 626.46,-27.33 633.68,-19.66"/>
<polygon fill="midnightblue" stroke="midnightblue" points="603.41,-46.72 599.1,-56.4 608.5,-51.52 603.41,-46.72"/>
</g>
</g>
</svg>
