<?xml version="1.0" encoding="UTF-8" standalone="no"?>
<!DOCTYPE svg PUBLIC "-//W3C//DTD SVG 1.1//EN"
 "http://www.w3.org/Graphics/SVG/1.1/DTD/svg11.dtd">
<!-- Generated by graphviz version 2.43.0 (0)
 -->
<!-- Title: src/rgbcolorspace.cpp Pages: 1 -->
<svg width="324pt" height="196pt"
 viewBox="0.00 0.00 323.50 196.00" xmlns="http://www.w3.org/2000/svg" xmlns:xlink="http://www.w3.org/1999/xlink">
<g id="graph0" class="graph" transform="scale(1 1) rotate(0) translate(4 192)">
<title>src/rgbcolorspace.cpp</title>
<polygon fill="white" stroke="transparent" points="-4,4 -4,-192 319.5,-192 319.5,4 -4,4"/>
<!-- Node1 -->
<g id="node1" class="node">
<title>Node1</title>
<g id="a_node1"><a xlink:title=" ">
<polygon fill="#bfbfbf" stroke="black" points="141,-168.5 141,-187.5 263,-187.5 263,-168.5 141,-168.5"/>
<text text-anchor="middle" x="202" y="-175.5" font-family="Helvetica,sans-Serif" font-size="10.00">src/rgbcolorspace.cpp</text>
</a>
</g>
</g>
<!-- Node2 -->
<g id="node2" class="node">
<title>Node2</title>
<g id="a_node2"><a xlink:href="rgbcolorspace_8h.html" target="_top" xlink:title=" ">
<polygon fill="white" stroke="black" points="0,-112.5 0,-131.5 174,-131.5 174,-112.5 0,-112.5"/>
<text text-anchor="middle" x="87" y="-119.5" font-family="Helvetica,sans-Serif" font-size="10.00">PerceptualColor/rgbcolorspace.h</text>
</a>
</g>
</g>
<!-- Node1&#45;&gt;Node2 -->
<g id="edge1" class="edge">
<title>Node1&#45;&gt;Node2</title>
<path fill="none" stroke="midnightblue" d="M183.78,-168.44C165.1,-159.68 135.84,-145.94 114.38,-135.86"/>
<polygon fill="midnightblue" stroke="midnightblue" points="115.68,-132.6 105.14,-131.52 112.7,-138.93 115.68,-132.6"/>
</g>
<!-- Node5 -->
<g id="node5" class="node">
<title>Node5</title>
<g id="a_node5"><a xlink:href="helper_8h.html" target="_top" xlink:title=" ">
<polygon fill="white" stroke="black" points="125,-56.5 125,-75.5 261,-75.5 261,-56.5 125,-56.5"/>
<text text-anchor="middle" x="193" y="-63.5" font-family="Helvetica,sans-Serif" font-size="10.00">PerceptualColor/helper.h</text>
</a>
</g>
</g>
<!-- Node1&#45;&gt;Node5 -->
<g id="edge8" class="edge">
<title>Node1&#45;&gt;Node5</title>
<path fill="none" stroke="midnightblue" d="M201.29,-168.37C199.84,-150.62 196.49,-109.67 194.52,-85.6"/>
<polygon fill="midnightblue" stroke="midnightblue" points="198.01,-85.27 193.7,-75.59 191.03,-85.84 198.01,-85.27"/>
</g>
<!-- Node8 -->
<g id="node8" class="node">
<title>Node8</title>
<g id="a_node8"><a xlink:title=" ">
<polygon fill="white" stroke="#bfbfbf" points="230,-112.5 230,-131.5 286,-131.5 286,-112.5 230,-112.5"/>
<text text-anchor="middle" x="258" y="-119.5" font-family="Helvetica,sans-Serif" font-size="10.00">QDebug</text>
</a>
</g>
</g>
<!-- Node1&#45;&gt;Node8 -->
<g id="edge9" class="edge">
<title>Node1&#45;&gt;Node8</title>
<path fill="none" stroke="midnightblue" d="M211,-168.32C219.19,-160.42 231.51,-148.55 241.47,-138.94"/>
<polygon fill="midnightblue" stroke="midnightblue" points="244.07,-141.29 248.84,-131.83 239.21,-136.26 244.07,-141.29"/>
</g>
<!-- Node3 -->
<g id="node3" class="node">
<title>Node3</title>
<g id="a_node3"><a xlink:title=" ">
<polygon fill="white" stroke="#bfbfbf" points="13,-56.5 13,-75.5 69,-75.5 69,-56.5 13,-56.5"/>
<text text-anchor="middle" x="41" y="-63.5" font-family="Helvetica,sans-Serif" font-size="10.00">QObject</text>
</a>
</g>
</g>
<!-- Node2&#45;&gt;Node3 -->
<g id="edge2" class="edge">
<title>Node2&#45;&gt;Node3</title>
<path fill="none" stroke="midnightblue" d="M79.4,-112.08C72.77,-104.3 62.98,-92.8 54.94,-83.37"/>
<polygon fill="midnightblue" stroke="midnightblue" points="57.6,-81.09 48.45,-75.75 52.27,-85.63 57.6,-81.09"/>
</g>
<!-- Node4 -->
<g id="node4" class="node">
<title>Node4</title>
<g id="a_node4"><a xlink:title=" ">
<polygon fill="white" stroke="#bfbfbf" points="75.5,-0.5 75.5,-19.5 130.5,-19.5 130.5,-0.5 75.5,-0.5"/>
<text text-anchor="middle" x="103" y="-7.5" font-family="Helvetica,sans-Serif" font-size="10.00">lcms2.h</text>
</a>
</g>
</g>
<!-- Node2&#45;&gt;Node4 -->
<g id="edge3" class="edge">
<title>Node2&#45;&gt;Node4</title>
<path fill="none" stroke="midnightblue" d="M88.26,-112.37C90.84,-94.62 96.79,-53.67 100.29,-29.6"/>
<polygon fill="midnightblue" stroke="midnightblue" points="103.77,-29.99 101.75,-19.59 96.85,-28.98 103.77,-29.99"/>
</g>
<!-- Node2&#45;&gt;Node5 -->
<g id="edge4" class="edge">
<title>Node2&#45;&gt;Node5</title>
<path fill="none" stroke="midnightblue" d="M104.03,-112.32C121.03,-103.66 147.38,-90.24 166.99,-80.25"/>
<polygon fill="midnightblue" stroke="midnightblue" points="168.69,-83.31 176.01,-75.65 165.51,-77.08 168.69,-83.31"/>
</g>
<!-- Node5&#45;&gt;Node4 -->
<g id="edge7" class="edge">
<title>Node5&#45;&gt;Node4</title>
<path fill="none" stroke="midnightblue" d="M178.54,-56.32C164.5,-47.9 142.95,-34.97 126.46,-25.07"/>
<polygon fill="midnightblue" stroke="midnightblue" points="127.8,-21.8 117.42,-19.65 124.2,-27.8 127.8,-21.8"/>
</g>
<!-- Node6 -->
<g id="node6" class="node">
<title>Node6</title>
<g id="a_node6"><a xlink:title=" ">
<polygon fill="white" stroke="#bfbfbf" points="159.5,-0.5 159.5,-19.5 214.5,-19.5 214.5,-0.5 159.5,-0.5"/>
<text text-anchor="middle" x="187" y="-7.5" font-family="Helvetica,sans-Serif" font-size="10.00">QImage</text>
</a>
</g>
</g>
<!-- Node5&#45;&gt;Node6 -->
<g id="edge5" class="edge">
<title>Node5&#45;&gt;Node6</title>
<path fill="none" stroke="midnightblue" d="M192.01,-56.08C191.21,-48.93 190.07,-38.64 189.08,-29.69"/>
<polygon fill="midnightblue" stroke="midnightblue" points="192.56,-29.3 187.97,-19.75 185.6,-30.08 192.56,-29.3"/>
</g>
<!-- Node7 -->
<g id="node7" class="node">
<title>Node7</title>
<g id="a_node7"><a xlink:title=" ">
<polygon fill="white" stroke="#bfbfbf" points="232.5,-0.5 232.5,-19.5 315.5,-19.5 315.5,-0.5 232.5,-0.5"/>
<text text-anchor="middle" x="274" y="-7.5" font-family="Helvetica,sans-Serif" font-size="10.00">QWheelEvent</text>
</a>
</g>
</g>
<!-- Node5&#45;&gt;Node7 -->
<g id="edge6" class="edge">
<title>Node5&#45;&gt;Node7</title>
<path fill="none" stroke="midnightblue" d="M206.01,-56.32C218.53,-47.98 237.68,-35.21 252.47,-25.35"/>
<polygon fill="midnightblue" stroke="midnightblue" points="254.64,-28.11 261.02,-19.65 250.76,-22.29 254.64,-28.11"/>
</g>
</g>
</svg>
