<?xml version="1.0" encoding="UTF-8" standalone="no"?>
<!DOCTYPE svg PUBLIC "-//W3C//DTD SVG 1.1//EN"
 "http://www.w3.org/Graphics/SVG/1.1/DTD/svg11.dtd">
<!-- Generated by graphviz version 2.43.0 (0)
 -->
<!-- Title: include/PerceptualColor/rgbcolorspace.h Pages: 1 -->
<svg width="1267pt" height="363pt"
 viewBox="0.00 0.00 1267.00 363.00" xmlns="http://www.w3.org/2000/svg" xmlns:xlink="http://www.w3.org/1999/xlink">
<g id="graph0" class="graph" transform="scale(1 1) rotate(0) translate(4 359)">
<title>include/PerceptualColor/rgbcolorspace.h</title>
<polygon fill="white" stroke="transparent" points="-4,4 -4,-359 1263,-359 1263,4 -4,4"/>
<!-- Node1 -->
<g id="node1" class="node">
<title>Node1</title>
<g id="a_node1"><a xlink:title=" ">
<polygon fill="#bfbfbf" stroke="black" points="399,-324.5 399,-354.5 531,-354.5 531,-324.5 399,-324.5"/>
<text text-anchor="start" x="407" y="-342.5" font-family="Helvetica,sans-Serif" font-size="10.00">include/PerceptualColor</text>
<text text-anchor="middle" x="465" y="-331.5" font-family="Helvetica,sans-Serif" font-size="10.00">/rgbcolorspace.h</text>
</a>
</g>
</g>
<!-- Node2 -->
<g id="node2" class="node">
<title>Node2</title>
<g id="a_node2"><a xlink:href="rgbcolorspace_8cpp.html" target="_top" xlink:title=" ">
<polygon fill="white" stroke="black" points="0,-263 0,-282 122,-282 122,-263 0,-263"/>
<text text-anchor="middle" x="61" y="-270" font-family="Helvetica,sans-Serif" font-size="10.00">src/rgbcolorspace.cpp</text>
</a>
</g>
</g>
<!-- Node1&#45;&gt;Node2 -->
<g id="edge1" class="edge">
<title>Node1&#45;&gt;Node2</title>
<path fill="none" stroke="midnightblue" d="M388.69,-327.64C321.93,-317.94 222.38,-302.97 136,-288 125.55,-286.19 114.3,-284.09 103.78,-282.07"/>
<polygon fill="midnightblue" stroke="midnightblue" points="388.31,-331.12 398.71,-329.09 389.32,-324.19 388.31,-331.12"/>
</g>
<!-- Node3 -->
<g id="node3" class="node">
<title>Node3</title>
<g id="a_node3"><a xlink:href="alphaselector_8h.html" target="_top" xlink:title=" ">
<polygon fill="white" stroke="black" points="122,-123.5 122,-153.5 254,-153.5 254,-123.5 122,-123.5"/>
<text text-anchor="start" x="130" y="-141.5" font-family="Helvetica,sans-Serif" font-size="10.00">include/PerceptualColor</text>
<text text-anchor="middle" x="188" y="-130.5" font-family="Helvetica,sans-Serif" font-size="10.00">/alphaselector.h</text>
</a>
</g>
</g>
<!-- Node1&#45;&gt;Node3 -->
<g id="edge2" class="edge">
<title>Node1&#45;&gt;Node3</title>
<path fill="none" stroke="midnightblue" d="M389.05,-329.34C323.4,-316.96 232.29,-288.06 188,-221 174.59,-200.69 179.2,-170.88 183.67,-153.51"/>
<polygon fill="midnightblue" stroke="midnightblue" points="388.48,-332.79 398.94,-331.12 389.72,-325.9 388.48,-332.79"/>
</g>
<!-- Node8 -->
<g id="node8" class="node">
<title>Node8</title>
<g id="a_node8"><a xlink:href="chromahuediagram_8h.html" target="_top" xlink:title=" ">
<polygon fill="white" stroke="black" points="570,-190.5 570,-220.5 702,-220.5 702,-190.5 570,-190.5"/>
<text text-anchor="start" x="578" y="-208.5" font-family="Helvetica,sans-Serif" font-size="10.00">include/PerceptualColor</text>
<text text-anchor="middle" x="636" y="-197.5" font-family="Helvetica,sans-Serif" font-size="10.00">/chromahuediagram.h</text>
</a>
</g>
</g>
<!-- Node1&#45;&gt;Node8 -->
<g id="edge7" class="edge">
<title>Node1&#45;&gt;Node8</title>
<path fill="none" stroke="midnightblue" d="M496.05,-318.71C509.77,-309.68 525.94,-298.65 540,-288 569.45,-265.69 601.86,-237.32 620.48,-220.61"/>
<polygon fill="midnightblue" stroke="midnightblue" points="493.9,-315.93 487.44,-324.33 497.73,-321.79 493.9,-315.93"/>
</g>
<!-- Node10 -->
<g id="node10" class="node">
<title>Node10</title>
<g id="a_node10"><a xlink:href="chromalightnessdiagram_8h.html" target="_top" xlink:title=" ">
<polygon fill="white" stroke="black" points="720,-190.5 720,-220.5 870,-220.5 870,-190.5 720,-190.5"/>
<text text-anchor="start" x="728" y="-208.5" font-family="Helvetica,sans-Serif" font-size="10.00">include/PerceptualColor</text>
<text text-anchor="middle" x="795" y="-197.5" font-family="Helvetica,sans-Serif" font-size="10.00">/chromalightnessdiagram.h</text>
</a>
</g>
</g>
<!-- Node1&#45;&gt;Node10 -->
<g id="edge10" class="edge">
<title>Node1&#45;&gt;Node10</title>
<path fill="none" stroke="midnightblue" d="M509.36,-320.76C575.69,-294.23 699.37,-244.75 759.86,-220.56"/>
<polygon fill="midnightblue" stroke="midnightblue" points="507.99,-317.54 500,-324.5 510.59,-324.03 507.99,-317.54"/>
</g>
<!-- Node14 -->
<g id="node14" class="node">
<title>Node14</title>
<g id="a_node14"><a xlink:href="fullcolordescription_8h.html" target="_top" xlink:title=" ">
<polygon fill="white" stroke="black" points="399,-257.5 399,-287.5 531,-287.5 531,-257.5 399,-257.5"/>
<text text-anchor="start" x="407" y="-275.5" font-family="Helvetica,sans-Serif" font-size="10.00">include/PerceptualColor</text>
<text text-anchor="middle" x="465" y="-264.5" font-family="Helvetica,sans-Serif" font-size="10.00">/fullcolordescription.h</text>
</a>
</g>
</g>
<!-- Node1&#45;&gt;Node14 -->
<g id="edge15" class="edge">
<title>Node1&#45;&gt;Node14</title>
<path fill="none" stroke="midnightblue" d="M465,-314.11C465,-305.15 465,-295.32 465,-287.58"/>
<polygon fill="midnightblue" stroke="midnightblue" points="461.5,-314.4 465,-324.4 468.5,-314.4 461.5,-314.4"/>
</g>
<!-- Node16 -->
<g id="node16" class="node">
<title>Node16</title>
<g id="a_node16"><a xlink:href="gradientselector_8h.html" target="_top" xlink:title=" ">
<polygon fill="white" stroke="black" points="216,-190.5 216,-220.5 348,-220.5 348,-190.5 216,-190.5"/>
<text text-anchor="start" x="224" y="-208.5" font-family="Helvetica,sans-Serif" font-size="10.00">include/PerceptualColor</text>
<text text-anchor="middle" x="282" y="-197.5" font-family="Helvetica,sans-Serif" font-size="10.00">/gradientselector.h</text>
</a>
</g>
</g>
<!-- Node1&#45;&gt;Node16 -->
<g id="edge25" class="edge">
<title>Node1&#45;&gt;Node16</title>
<path fill="none" stroke="midnightblue" d="M434.83,-318.72C421.04,-309.55 404.57,-298.39 390,-288 357.87,-265.09 321.4,-237.15 300.12,-220.65"/>
<polygon fill="midnightblue" stroke="midnightblue" points="433.18,-321.83 443.45,-324.44 437.05,-315.99 433.18,-321.83"/>
</g>
<!-- Node18 -->
<g id="node18" class="node">
<title>Node18</title>
<g id="a_node18"><a xlink:href="simplecolorwheel_8h.html" target="_top" xlink:title=" ">
<polygon fill="white" stroke="black" points="929,-190.5 929,-220.5 1061,-220.5 1061,-190.5 929,-190.5"/>
<text text-anchor="start" x="937" y="-208.5" font-family="Helvetica,sans-Serif" font-size="10.00">include/PerceptualColor</text>
<text text-anchor="middle" x="995" y="-197.5" font-family="Helvetica,sans-Serif" font-size="10.00">/simplecolorwheel.h</text>
</a>
</g>
</g>
<!-- Node1&#45;&gt;Node18 -->
<g id="edge26" class="edge">
<title>Node1&#45;&gt;Node18</title>
<path fill="none" stroke="midnightblue" d="M531.08,-322.04C636.23,-295.85 839.82,-245.15 938.56,-220.56"/>
<polygon fill="midnightblue" stroke="midnightblue" points="530.08,-318.69 521.22,-324.5 531.77,-325.48 530.08,-318.69"/>
</g>
<!-- Node4 -->
<g id="node4" class="node">
<title>Node4</title>
<g id="a_node4"><a xlink:href="alphaselector_8cpp.html" target="_top" xlink:title=" ">
<polygon fill="white" stroke="black" points="128.5,-62 128.5,-81 247.5,-81 247.5,-62 128.5,-62"/>
<text text-anchor="middle" x="188" y="-69" font-family="Helvetica,sans-Serif" font-size="10.00">src/alphaselector.cpp</text>
</a>
</g>
</g>
<!-- Node3&#45;&gt;Node4 -->
<g id="edge3" class="edge">
<title>Node3&#45;&gt;Node4</title>
<path fill="none" stroke="midnightblue" d="M188,-113.25C188,-102.02 188,-89.38 188,-81.19"/>
<polygon fill="midnightblue" stroke="midnightblue" points="184.5,-113.4 188,-123.4 191.5,-113.4 184.5,-113.4"/>
</g>
<!-- Node5 -->
<g id="node5" class="node">
<title>Node5</title>
<g id="a_node5"><a xlink:href="colordialog_8h.html" target="_top" xlink:title=" ">
<polygon fill="white" stroke="black" points="476,-56.5 476,-86.5 608,-86.5 608,-56.5 476,-56.5"/>
<text text-anchor="start" x="484" y="-74.5" font-family="Helvetica,sans-Serif" font-size="10.00">include/PerceptualColor</text>
<text text-anchor="middle" x="542" y="-63.5" font-family="Helvetica,sans-Serif" font-size="10.00">/colordialog.h</text>
</a>
</g>
</g>
<!-- Node3&#45;&gt;Node5 -->
<g id="edge4" class="edge">
<title>Node3&#45;&gt;Node5</title>
<path fill="none" stroke="midnightblue" d="M264.06,-123.54C327.08,-111.96 415.74,-95.68 475.86,-84.65"/>
<polygon fill="midnightblue" stroke="midnightblue" points="263.37,-120.1 254.17,-125.35 264.64,-126.99 263.37,-120.1"/>
</g>
<!-- Node6 -->
<g id="node6" class="node">
<title>Node6</title>
<g id="a_node6"><a xlink:href="colordialog_8cpp.html" target="_top" xlink:title=" ">
<polygon fill="white" stroke="black" points="432,-0.5 432,-19.5 540,-19.5 540,-0.5 432,-0.5"/>
<text text-anchor="middle" x="486" y="-7.5" font-family="Helvetica,sans-Serif" font-size="10.00">src/colordialog.cpp</text>
</a>
</g>
</g>
<!-- Node5&#45;&gt;Node6 -->
<g id="edge5" class="edge">
<title>Node5&#45;&gt;Node6</title>
<path fill="none" stroke="midnightblue" d="M521.77,-49C512.22,-38.86 501.37,-27.33 494.15,-19.66"/>
<polygon fill="midnightblue" stroke="midnightblue" points="519.33,-51.52 528.73,-56.4 524.42,-46.72 519.33,-51.52"/>
</g>
<!-- Node7 -->
<g id="node7" class="node">
<title>Node7</title>
<g id="a_node7"><a xlink:href="main_8cpp.html" target="_top" xlink:title=" ">
<polygon fill="white" stroke="black" points="558.5,-0.5 558.5,-19.5 637.5,-19.5 637.5,-0.5 558.5,-0.5"/>
<text text-anchor="middle" x="598" y="-7.5" font-family="Helvetica,sans-Serif" font-size="10.00">src/main.cpp</text>
</a>
</g>
</g>
<!-- Node5&#45;&gt;Node7 -->
<g id="edge6" class="edge">
<title>Node5&#45;&gt;Node7</title>
<path fill="none" stroke="midnightblue" d="M562.23,-49C571.78,-38.86 582.63,-27.33 589.85,-19.66"/>
<polygon fill="midnightblue" stroke="midnightblue" points="559.58,-46.72 555.27,-56.4 564.67,-51.52 559.58,-46.72"/>
</g>
<!-- Node8&#45;&gt;Node5 -->
<g id="edge9" class="edge">
<title>Node8&#45;&gt;Node5</title>
<path fill="none" stroke="midnightblue" d="M619.5,-182.2C613.06,-173.44 605.64,-163.28 599,-154 582.21,-130.55 563.07,-103.02 551.79,-86.7"/>
<polygon fill="midnightblue" stroke="midnightblue" points="616.8,-184.44 625.55,-190.41 622.44,-180.28 616.8,-184.44"/>
</g>
<!-- Node9 -->
<g id="node9" class="node">
<title>Node9</title>
<g id="a_node9"><a xlink:href="chromahuediagram_8cpp.html" target="_top" xlink:title=" ">
<polygon fill="white" stroke="black" points="801.5,-129 801.5,-148 950.5,-148 950.5,-129 801.5,-129"/>
<text text-anchor="middle" x="876" y="-136" font-family="Helvetica,sans-Serif" font-size="10.00">src/chromahuediagram.cpp</text>
</a>
</g>
</g>
<!-- Node8&#45;&gt;Node9 -->
<g id="edge8" class="edge">
<title>Node8&#45;&gt;Node9</title>
<path fill="none" stroke="midnightblue" d="M697.55,-187.83C744.52,-175.11 807.3,-158.11 844.51,-148.03"/>
<polygon fill="midnightblue" stroke="midnightblue" points="696.52,-184.48 687.78,-190.48 698.35,-191.24 696.52,-184.48"/>
</g>
<!-- Node11 -->
<g id="node11" class="node">
<title>Node11</title>
<g id="a_node11"><a xlink:href="chromalightnessdiagram_8cpp.html" target="_top" xlink:title=" ">
<polygon fill="white" stroke="black" points="608,-129 608,-148 784,-148 784,-129 608,-129"/>
<text text-anchor="middle" x="696" y="-136" font-family="Helvetica,sans-Serif" font-size="10.00">src/chromalightnessdiagram.cpp</text>
</a>
</g>
</g>
<!-- Node10&#45;&gt;Node11 -->
<g id="edge11" class="edge">
<title>Node10&#45;&gt;Node11</title>
<path fill="none" stroke="midnightblue" d="M765.01,-184.81C746.28,-172.51 723.12,-157.3 708.96,-148.01"/>
<polygon fill="midnightblue" stroke="midnightblue" points="763.24,-187.83 773.52,-190.4 767.08,-181.98 763.24,-187.83"/>
</g>
<!-- Node12 -->
<g id="node12" class="node">
<title>Node12</title>
<g id="a_node12"><a xlink:href="wheelcolorpicker_8h.html" target="_top" xlink:title=" ">
<polygon fill="white" stroke="black" points="969,-123.5 969,-153.5 1101,-153.5 1101,-123.5 969,-123.5"/>
<text text-anchor="start" x="977" y="-141.5" font-family="Helvetica,sans-Serif" font-size="10.00">include/PerceptualColor</text>
<text text-anchor="middle" x="1035" y="-130.5" font-family="Helvetica,sans-Serif" font-size="10.00">/wheelcolorpicker.h</text>
</a>
</g>
</g>
<!-- Node10&#45;&gt;Node12 -->
<g id="edge12" class="edge">
<title>Node10&#45;&gt;Node12</title>
<path fill="none" stroke="midnightblue" d="M856.48,-187.85C895.61,-177.25 945.73,-163.68 982.9,-153.61"/>
<polygon fill="midnightblue" stroke="midnightblue" points="855.52,-184.48 846.78,-190.48 857.35,-191.24 855.52,-184.48"/>
</g>
<!-- Node12&#45;&gt;Node5 -->
<g id="edge14" class="edge">
<title>Node12&#45;&gt;Node5</title>
<path fill="none" stroke="midnightblue" d="M958.66,-122.86C828.8,-102.76 688.55,-87.29 608.08,-79.02"/>
<polygon fill="midnightblue" stroke="midnightblue" points="958.37,-126.35 968.79,-124.44 959.45,-119.44 958.37,-126.35"/>
</g>
<!-- Node13 -->
<g id="node13" class="node">
<title>Node13</title>
<g id="a_node13"><a xlink:href="wheelcolorpicker_8cpp.html" target="_top" xlink:title=" ">
<polygon fill="white" stroke="black" points="967,-62 967,-81 1103,-81 1103,-62 967,-62"/>
<text text-anchor="middle" x="1035" y="-69" font-family="Helvetica,sans-Serif" font-size="10.00">src/wheelcolorpicker.cpp</text>
</a>
</g>
</g>
<!-- Node12&#45;&gt;Node13 -->
<g id="edge13" class="edge">
<title>Node12&#45;&gt;Node13</title>
<path fill="none" stroke="midnightblue" d="M1035,-113.25C1035,-102.02 1035,-89.38 1035,-81.19"/>
<polygon fill="midnightblue" stroke="midnightblue" points="1031.5,-113.4 1035,-123.4 1038.5,-113.4 1031.5,-113.4"/>
</g>
<!-- Node14&#45;&gt;Node3 -->
<g id="edge17" class="edge">
<title>Node14&#45;&gt;Node3</title>
<path fill="none" stroke="midnightblue" d="M388.76,-265.66C322.26,-258.98 232.54,-245.64 207,-221 188.7,-203.35 186.54,-171.74 187.01,-153.51"/>
<polygon fill="midnightblue" stroke="midnightblue" points="388.52,-269.15 398.81,-266.63 389.19,-262.18 388.52,-269.15"/>
</g>
<!-- Node14&#45;&gt;Node5 -->
<g id="edge20" class="edge">
<title>Node14&#45;&gt;Node5</title>
<path fill="none" stroke="midnightblue" d="M496.29,-251.27C506.44,-243.1 516.69,-232.8 523,-221 546.77,-176.53 545.42,-114.18 543.38,-86.59"/>
<polygon fill="midnightblue" stroke="midnightblue" points="494.12,-248.52 488.25,-257.35 498.34,-254.1 494.12,-248.52"/>
</g>
<!-- Node14&#45;&gt;Node8 -->
<g id="edge18" class="edge">
<title>Node14&#45;&gt;Node8</title>
<path fill="none" stroke="midnightblue" d="M511.52,-253.82C539,-243.37 573.33,-230.32 598.97,-220.58"/>
<polygon fill="midnightblue" stroke="midnightblue" points="510.21,-250.57 502.1,-257.4 512.7,-257.11 510.21,-250.57"/>
</g>
<!-- Node14&#45;&gt;Node10 -->
<g id="edge19" class="edge">
<title>Node14&#45;&gt;Node10</title>
<path fill="none" stroke="midnightblue" d="M541.43,-256.45C596.44,-245.61 670.11,-231.1 723.87,-220.51"/>
<polygon fill="midnightblue" stroke="midnightblue" points="540.52,-253.06 531.38,-258.42 541.87,-259.93 540.52,-253.06"/>
</g>
<!-- Node15 -->
<g id="node15" class="node">
<title>Node15</title>
<g id="a_node15"><a xlink:href="fullcolordescription_8cpp.html" target="_top" xlink:title=" ">
<polygon fill="white" stroke="black" points="366,-196 366,-215 514,-215 514,-196 366,-196"/>
<text text-anchor="middle" x="440" y="-203" font-family="Helvetica,sans-Serif" font-size="10.00">src/fullcolordescription.cpp</text>
</a>
</g>
</g>
<!-- Node14&#45;&gt;Node15 -->
<g id="edge16" class="edge">
<title>Node14&#45;&gt;Node15</title>
<path fill="none" stroke="midnightblue" d="M455.94,-247.94C451.55,-236.54 446.56,-223.55 443.34,-215.19"/>
<polygon fill="midnightblue" stroke="midnightblue" points="452.72,-249.32 459.58,-257.4 459.25,-246.81 452.72,-249.32"/>
</g>
<!-- Node14&#45;&gt;Node16 -->
<g id="edge21" class="edge">
<title>Node14&#45;&gt;Node16</title>
<path fill="none" stroke="midnightblue" d="M415.6,-253.96C386.13,-243.48 349.19,-230.37 321.63,-220.58"/>
<polygon fill="midnightblue" stroke="midnightblue" points="414.7,-257.35 425.29,-257.4 417.04,-250.75 414.7,-257.35"/>
</g>
<!-- Node16&#45;&gt;Node3 -->
<g id="edge23" class="edge">
<title>Node16&#45;&gt;Node3</title>
<path fill="none" stroke="midnightblue" d="M253.01,-184.45C238.55,-174.45 221.41,-162.6 208.36,-153.58"/>
<polygon fill="midnightblue" stroke="midnightblue" points="251.39,-187.59 261.6,-190.4 255.37,-181.83 251.39,-187.59"/>
</g>
<!-- Node16&#45;&gt;Node5 -->
<g id="edge24" class="edge">
<title>Node16&#45;&gt;Node5</title>
<path fill="none" stroke="midnightblue" d="M281.13,-180.04C281.85,-161.84 285.96,-137.7 301,-123 325.41,-99.13 413.21,-85.38 475.77,-78.42"/>
<polygon fill="midnightblue" stroke="midnightblue" points="277.63,-180.18 281.04,-190.21 284.62,-180.24 277.63,-180.18"/>
</g>
<!-- Node17 -->
<g id="node17" class="node">
<title>Node17</title>
<g id="a_node17"><a xlink:href="gradientselector_8cpp.html" target="_top" xlink:title=" ">
<polygon fill="white" stroke="black" points="310.5,-129 310.5,-148 443.5,-148 443.5,-129 310.5,-129"/>
<text text-anchor="middle" x="377" y="-136" font-family="Helvetica,sans-Serif" font-size="10.00">src/gradientselector.cpp</text>
</a>
</g>
</g>
<!-- Node16&#45;&gt;Node17 -->
<g id="edge22" class="edge">
<title>Node16&#45;&gt;Node17</title>
<path fill="none" stroke="midnightblue" d="M311.02,-184.64C328.95,-172.37 351.04,-157.26 364.57,-148.01"/>
<polygon fill="midnightblue" stroke="midnightblue" points="308.89,-181.86 302.61,-190.4 312.84,-187.64 308.89,-181.86"/>
</g>
<!-- Node18&#45;&gt;Node9 -->
<g id="edge27" class="edge">
<title>Node18&#45;&gt;Node9</title>
<path fill="none" stroke="midnightblue" d="M960.17,-185.47C937.45,-173.06 908.9,-157.47 891.57,-148.01"/>
<polygon fill="midnightblue" stroke="midnightblue" points="958.72,-188.67 969.18,-190.4 962.08,-182.53 958.72,-188.67"/>
</g>
<!-- Node18&#45;&gt;Node12 -->
<g id="edge29" class="edge">
<title>Node18&#45;&gt;Node12</title>
<path fill="none" stroke="midnightblue" d="M1008.93,-181.87C1014.72,-172.46 1021.26,-161.83 1026.34,-153.58"/>
<polygon fill="midnightblue" stroke="midnightblue" points="1005.94,-180.05 1003.68,-190.4 1011.9,-183.71 1005.94,-180.05"/>
</g>
<!-- Node19 -->
<g id="node19" class="node">
<title>Node19</title>
<g id="a_node19"><a xlink:href="simplecolorwheel_8cpp.html" target="_top" xlink:title=" ">
<polygon fill="white" stroke="black" points="1119,-129 1119,-148 1259,-148 1259,-129 1119,-129"/>
<text text-anchor="middle" x="1189" y="-136" font-family="Helvetica,sans-Serif" font-size="10.00">src/simplecolorwheel.cpp</text>
</a>
</g>
</g>
<!-- Node18&#45;&gt;Node19 -->
<g id="edge28" class="edge">
<title>Node18&#45;&gt;Node19</title>
<path fill="none" stroke="midnightblue" d="M1046.91,-187.11C1084.65,-174.46 1134.11,-157.89 1163.61,-148.01"/>
<polygon fill="midnightblue" stroke="midnightblue" points="1045.47,-183.9 1037.1,-190.4 1047.69,-190.54 1045.47,-183.9"/>
</g>
</g>
</svg>
