<?xml version="1.0" encoding="UTF-8" standalone="no"?>
<!DOCTYPE svg PUBLIC "-//W3C//DTD SVG 1.1//EN"
 "http://www.w3.org/Graphics/SVG/1.1/DTD/svg11.dtd">
<!-- Generated by graphviz version 2.43.0 (0)
 -->
<!-- Title: include/PerceptualColor/simplecolorwheel.h Pages: 1 -->
<svg width="824pt" height="207pt"
 viewBox="0.00 0.00 823.50 207.00" xmlns="http://www.w3.org/2000/svg" xmlns:xlink="http://www.w3.org/1999/xlink">
<g id="graph0" class="graph" transform="scale(1 1) rotate(0) translate(4 203)">
<title>include/PerceptualColor/simplecolorwheel.h</title>
<polygon fill="white" stroke="transparent" points="-4,4 -4,-203 819.5,-203 819.5,4 -4,4"/>
<!-- Node1 -->
<g id="node1" class="node">
<title>Node1</title>
<g id="a_node1"><a xlink:title=" ">
<polygon fill="#bfbfbf" stroke="black" points="279.5,-168.5 279.5,-198.5 411.5,-198.5 411.5,-168.5 279.5,-168.5"/>
<text text-anchor="start" x="287.5" y="-186.5" font-family="Helvetica,sans-Serif" font-size="10.00">include/PerceptualColor</text>
<text text-anchor="middle" x="345.5" y="-175.5" font-family="Helvetica,sans-Serif" font-size="10.00">/simplecolorwheel.h</text>
</a>
</g>
</g>
<!-- Node2 -->
<g id="node2" class="node">
<title>Node2</title>
<g id="a_node2"><a xlink:title=" ">
<polygon fill="white" stroke="#bfbfbf" points="0,-0.5 0,-19.5 55,-19.5 55,-0.5 0,-0.5"/>
<text text-anchor="middle" x="27.5" y="-7.5" font-family="Helvetica,sans-Serif" font-size="10.00">QImage</text>
</a>
</g>
</g>
<!-- Node1&#45;&gt;Node2 -->
<g id="edge1" class="edge">
<title>Node1&#45;&gt;Node2</title>
<path fill="none" stroke="midnightblue" d="M279.4,-175.66C232.08,-168.96 167.76,-156.09 115.5,-132 78.04,-114.73 63.67,-110.78 41.5,-76 32.68,-62.16 29.34,-43.64 28.11,-29.91"/>
<polygon fill="midnightblue" stroke="midnightblue" points="31.59,-29.49 27.5,-19.71 24.6,-29.9 31.59,-29.49"/>
</g>
<!-- Node3 -->
<g id="node3" class="node">
<title>Node3</title>
<g id="a_node3"><a xlink:title=" ">
<polygon fill="white" stroke="#bfbfbf" points="395,-0.5 395,-19.5 454,-19.5 454,-0.5 395,-0.5"/>
<text text-anchor="middle" x="424.5" y="-7.5" font-family="Helvetica,sans-Serif" font-size="10.00">QWidget</text>
</a>
</g>
</g>
<!-- Node1&#45;&gt;Node3 -->
<g id="edge2" class="edge">
<title>Node1&#45;&gt;Node3</title>
<path fill="none" stroke="midnightblue" d="M347.62,-168.41C351.72,-144.15 362.25,-93.51 383.5,-56 389.66,-45.13 398.87,-34.7 407.01,-26.63"/>
<polygon fill="midnightblue" stroke="midnightblue" points="409.49,-29.09 414.34,-19.67 404.68,-24.01 409.49,-29.09"/>
</g>
<!-- Node4 -->
<g id="node4" class="node">
<title>Node4</title>
<g id="a_node4"><a xlink:href="circulardiagram_8h.html" target="_top" xlink:title=" ">
<polygon fill="white" stroke="black" points="393.5,-112.5 393.5,-131.5 575.5,-131.5 575.5,-112.5 393.5,-112.5"/>
<text text-anchor="middle" x="484.5" y="-119.5" font-family="Helvetica,sans-Serif" font-size="10.00">PerceptualColor/circulardiagram.h</text>
</a>
</g>
</g>
<!-- Node1&#45;&gt;Node4 -->
<g id="edge3" class="edge">
<title>Node1&#45;&gt;Node4</title>
<path fill="none" stroke="midnightblue" d="M378.44,-168.4C401.66,-158.46 432.49,-145.26 454.92,-135.66"/>
<polygon fill="midnightblue" stroke="midnightblue" points="456.46,-138.81 464.27,-131.66 453.7,-132.38 456.46,-138.81"/>
</g>
<!-- Node6 -->
<g id="node6" class="node">
<title>Node6</title>
<g id="a_node6"><a xlink:href="polarpointf_8h.html" target="_top" xlink:title=" ">
<polygon fill="white" stroke="black" points="609.5,-112.5 609.5,-131.5 767.5,-131.5 767.5,-112.5 609.5,-112.5"/>
<text text-anchor="middle" x="688.5" y="-119.5" font-family="Helvetica,sans-Serif" font-size="10.00">PerceptualColor/polarpointf.h</text>
</a>
</g>
</g>
<!-- Node1&#45;&gt;Node6 -->
<g id="edge6" class="edge">
<title>Node1&#45;&gt;Node6</title>
<path fill="none" stroke="midnightblue" d="M411.63,-171.03C474.66,-160.09 568.69,-143.78 629.31,-133.27"/>
<polygon fill="midnightblue" stroke="midnightblue" points="630.23,-136.66 639.48,-131.5 629.03,-129.76 630.23,-136.66"/>
</g>
<!-- Node10 -->
<g id="node10" class="node">
<title>Node10</title>
<g id="a_node10"><a xlink:href="rgbcolorspace_8h.html" target="_top" xlink:title=" ">
<polygon fill="white" stroke="black" points="124.5,-112.5 124.5,-131.5 298.5,-131.5 298.5,-112.5 124.5,-112.5"/>
<text text-anchor="middle" x="211.5" y="-119.5" font-family="Helvetica,sans-Serif" font-size="10.00">PerceptualColor/rgbcolorspace.h</text>
</a>
</g>
</g>
<!-- Node1&#45;&gt;Node10 -->
<g id="edge10" class="edge">
<title>Node1&#45;&gt;Node10</title>
<path fill="none" stroke="midnightblue" d="M313.74,-168.4C291.46,-158.51 261.91,-145.38 240.31,-135.79"/>
<polygon fill="midnightblue" stroke="midnightblue" points="241.56,-132.52 231,-131.66 238.72,-138.91 241.56,-132.52"/>
</g>
<!-- Node12 -->
<g id="node12" class="node">
<title>Node12</title>
<g id="a_node12"><a xlink:title=" ">
<polygon fill="white" stroke="#bfbfbf" points="187,-0.5 187,-19.5 242,-19.5 242,-0.5 187,-0.5"/>
<text text-anchor="middle" x="214.5" y="-7.5" font-family="Helvetica,sans-Serif" font-size="10.00">lcms2.h</text>
</a>
</g>
</g>
<!-- Node1&#45;&gt;Node12 -->
<g id="edge17" class="edge">
<title>Node1&#45;&gt;Node12</title>
<path fill="none" stroke="midnightblue" d="M344.86,-168.22C343.01,-142.78 335.77,-89.16 307.5,-56 293.13,-39.15 270.99,-28.08 251.91,-21.14"/>
<polygon fill="midnightblue" stroke="midnightblue" points="252.87,-17.77 242.27,-17.88 250.62,-24.4 252.87,-17.77"/>
</g>
<!-- Node5 -->
<g id="node5" class="node">
<title>Node5</title>
<g id="a_node5"><a xlink:href="abstractdiagram_8h.html" target="_top" xlink:title=" ">
<polygon fill="white" stroke="black" points="392.5,-56.5 392.5,-75.5 578.5,-75.5 578.5,-56.5 392.5,-56.5"/>
<text text-anchor="middle" x="485.5" y="-63.5" font-family="Helvetica,sans-Serif" font-size="10.00">PerceptualColor/abstractdiagram.h</text>
</a>
</g>
</g>
<!-- Node4&#45;&gt;Node5 -->
<g id="edge4" class="edge">
<title>Node4&#45;&gt;Node5</title>
<path fill="none" stroke="midnightblue" d="M484.67,-112.08C484.8,-105.01 484.98,-94.86 485.15,-85.99"/>
<polygon fill="midnightblue" stroke="midnightblue" points="488.65,-85.81 485.34,-75.75 481.65,-85.68 488.65,-85.81"/>
</g>
<!-- Node5&#45;&gt;Node3 -->
<g id="edge5" class="edge">
<title>Node5&#45;&gt;Node3</title>
<path fill="none" stroke="midnightblue" d="M475.7,-56.32C466.68,-48.34 453.09,-36.31 442.18,-26.65"/>
<polygon fill="midnightblue" stroke="midnightblue" points="444.29,-23.84 434.48,-19.83 439.65,-29.08 444.29,-23.84"/>
</g>
<!-- Node7 -->
<g id="node7" class="node">
<title>Node7</title>
<g id="a_node7"><a xlink:title=" ">
<polygon fill="white" stroke="#bfbfbf" points="759.5,-56.5 759.5,-75.5 815.5,-75.5 815.5,-56.5 759.5,-56.5"/>
<text text-anchor="middle" x="787.5" y="-63.5" font-family="Helvetica,sans-Serif" font-size="10.00">QDebug</text>
</a>
</g>
</g>
<!-- Node6&#45;&gt;Node7 -->
<g id="edge7" class="edge">
<title>Node6&#45;&gt;Node7</title>
<path fill="none" stroke="midnightblue" d="M704.41,-112.32C720.14,-103.74 744.44,-90.49 762.71,-80.52"/>
<polygon fill="midnightblue" stroke="midnightblue" points="764.53,-83.52 771.63,-75.65 761.18,-77.37 764.53,-83.52"/>
</g>
<!-- Node8 -->
<g id="node8" class="node">
<title>Node8</title>
<g id="a_node8"><a xlink:title=" ">
<polygon fill="white" stroke="#bfbfbf" points="597,-56.5 597,-75.5 652,-75.5 652,-56.5 597,-56.5"/>
<text text-anchor="middle" x="624.5" y="-63.5" font-family="Helvetica,sans-Serif" font-size="10.00">QPointF</text>
</a>
</g>
</g>
<!-- Node6&#45;&gt;Node8 -->
<g id="edge8" class="edge">
<title>Node6&#45;&gt;Node8</title>
<path fill="none" stroke="midnightblue" d="M678.22,-112.32C668.66,-104.26 654.22,-92.08 642.72,-82.37"/>
<polygon fill="midnightblue" stroke="midnightblue" points="644.87,-79.61 634.97,-75.83 640.36,-84.96 644.87,-79.61"/>
</g>
<!-- Node9 -->
<g id="node9" class="node">
<title>Node9</title>
<g id="a_node9"><a xlink:title=" ">
<polygon fill="white" stroke="#bfbfbf" points="670,-56.5 670,-75.5 741,-75.5 741,-56.5 670,-56.5"/>
<text text-anchor="middle" x="705.5" y="-63.5" font-family="Helvetica,sans-Serif" font-size="10.00">QMetaType</text>
</a>
</g>
</g>
<!-- Node6&#45;&gt;Node9 -->
<g id="edge9" class="edge">
<title>Node6&#45;&gt;Node9</title>
<path fill="none" stroke="midnightblue" d="M691.31,-112.08C693.58,-104.85 696.87,-94.41 699.71,-85.4"/>
<polygon fill="midnightblue" stroke="midnightblue" points="703.08,-86.34 702.75,-75.75 696.4,-84.24 703.08,-86.34"/>
</g>
<!-- Node11 -->
<g id="node11" class="node">
<title>Node11</title>
<g id="a_node11"><a xlink:title=" ">
<polygon fill="white" stroke="#bfbfbf" points="242.5,-56.5 242.5,-75.5 298.5,-75.5 298.5,-56.5 242.5,-56.5"/>
<text text-anchor="middle" x="270.5" y="-63.5" font-family="Helvetica,sans-Serif" font-size="10.00">QObject</text>
</a>
</g>
</g>
<!-- Node10&#45;&gt;Node11 -->
<g id="edge11" class="edge">
<title>Node10&#45;&gt;Node11</title>
<path fill="none" stroke="midnightblue" d="M220.98,-112.32C229.7,-104.34 242.84,-92.31 253.4,-82.65"/>
<polygon fill="midnightblue" stroke="midnightblue" points="255.83,-85.17 260.85,-75.83 251.11,-80 255.83,-85.17"/>
</g>
<!-- Node10&#45;&gt;Node12 -->
<g id="edge12" class="edge">
<title>Node10&#45;&gt;Node12</title>
<path fill="none" stroke="midnightblue" d="M211.74,-112.37C212.22,-94.62 213.34,-53.67 213.99,-29.6"/>
<polygon fill="midnightblue" stroke="midnightblue" points="217.49,-29.68 214.27,-19.59 210.49,-29.49 217.49,-29.68"/>
</g>
<!-- Node13 -->
<g id="node13" class="node">
<title>Node13</title>
<g id="a_node13"><a xlink:href="helper_8h.html" target="_top" xlink:title=" ">
<polygon fill="white" stroke="black" points="50.5,-56.5 50.5,-75.5 186.5,-75.5 186.5,-56.5 50.5,-56.5"/>
<text text-anchor="middle" x="118.5" y="-63.5" font-family="Helvetica,sans-Serif" font-size="10.00">PerceptualColor/helper.h</text>
</a>
</g>
</g>
<!-- Node10&#45;&gt;Node13 -->
<g id="edge13" class="edge">
<title>Node10&#45;&gt;Node13</title>
<path fill="none" stroke="midnightblue" d="M196.56,-112.32C181.91,-103.82 159.37,-90.73 142.26,-80.8"/>
<polygon fill="midnightblue" stroke="midnightblue" points="143.81,-77.65 133.4,-75.65 140.3,-83.7 143.81,-77.65"/>
</g>
<!-- Node13&#45;&gt;Node2 -->
<g id="edge14" class="edge">
<title>Node13&#45;&gt;Node2</title>
<path fill="none" stroke="midnightblue" d="M103.88,-56.32C89.55,-47.82 67.49,-34.73 50.75,-24.8"/>
<polygon fill="midnightblue" stroke="midnightblue" points="52.47,-21.75 42.08,-19.65 48.9,-27.77 52.47,-21.75"/>
</g>
<!-- Node13&#45;&gt;Node12 -->
<g id="edge16" class="edge">
<title>Node13&#45;&gt;Node12</title>
<path fill="none" stroke="midnightblue" d="M133.92,-56.32C149.04,-47.82 172.32,-34.73 189.97,-24.8"/>
<polygon fill="midnightblue" stroke="midnightblue" points="192.11,-27.61 199.11,-19.65 188.68,-21.51 192.11,-27.61"/>
</g>
<!-- Node14 -->
<g id="node14" class="node">
<title>Node14</title>
<g id="a_node14"><a xlink:title=" ">
<polygon fill="white" stroke="#bfbfbf" points="77,-0.5 77,-19.5 160,-19.5 160,-0.5 77,-0.5"/>
<text text-anchor="middle" x="118.5" y="-7.5" font-family="Helvetica,sans-Serif" font-size="10.00">QWheelEvent</text>
</a>
</g>
</g>
<!-- Node13&#45;&gt;Node14 -->
<g id="edge15" class="edge">
<title>Node13&#45;&gt;Node14</title>
<path fill="none" stroke="midnightblue" d="M118.5,-56.08C118.5,-49.01 118.5,-38.86 118.5,-29.99"/>
<polygon fill="midnightblue" stroke="midnightblue" points="122,-29.75 118.5,-19.75 115,-29.75 122,-29.75"/>
</g>
</g>
</svg>
