<?xml version="1.0" encoding="UTF-8" standalone="no"?>
<!DOCTYPE svg PUBLIC "-//W3C//DTD SVG 1.1//EN"
 "http://www.w3.org/Graphics/SVG/1.1/DTD/svg11.dtd">
<!-- Generated by graphviz version 2.43.0 (0)
 -->
<!-- Title: src/simplecolorwheel.cpp Pages: 1 -->
<svg width="1303pt" height="252pt"
 viewBox="0.00 0.00 1303.00 252.00" xmlns="http://www.w3.org/2000/svg" xmlns:xlink="http://www.w3.org/1999/xlink">
<g id="graph0" class="graph" transform="scale(1 1) rotate(0) translate(4 248)">
<title>src/simplecolorwheel.cpp</title>
<polygon fill="white" stroke="transparent" points="-4,4 -4,-248 1299,-248 1299,4 -4,4"/>
<!-- Node1 -->
<g id="node1" class="node">
<title>Node1</title>
<g id="a_node1"><a xlink:title=" ">
<polygon fill="#bfbfbf" stroke="black" points="840.5,-224.5 840.5,-243.5 980.5,-243.5 980.5,-224.5 840.5,-224.5"/>
<text text-anchor="middle" x="910.5" y="-231.5" font-family="Helvetica,sans-Serif" font-size="10.00">src/simplecolorwheel.cpp</text>
</a>
</g>
</g>
<!-- Node2 -->
<g id="node2" class="node">
<title>Node2</title>
<g id="a_node2"><a xlink:href="simplecolorwheel_8h.html" target="_top" xlink:title=" ">
<polygon fill="white" stroke="black" points="346.5,-168.5 346.5,-187.5 538.5,-187.5 538.5,-168.5 346.5,-168.5"/>
<text text-anchor="middle" x="442.5" y="-175.5" font-family="Helvetica,sans-Serif" font-size="10.00">PerceptualColor/simplecolorwheel.h</text>
</a>
</g>
</g>
<!-- Node1&#45;&gt;Node2 -->
<g id="edge1" class="edge">
<title>Node1&#45;&gt;Node2</title>
<path fill="none" stroke="midnightblue" d="M840.44,-224.92C756.59,-215.24 616.3,-199.05 526.66,-188.71"/>
<polygon fill="midnightblue" stroke="midnightblue" points="526.86,-185.21 516.53,-187.54 526.06,-192.16 526.86,-185.21"/>
</g>
<!-- Node7 -->
<g id="node7" class="node">
<title>Node7</title>
<g id="a_node7"><a xlink:href="polarpointf_8h.html" target="_top" xlink:title=" ">
<polygon fill="white" stroke="black" points="670.5,-112.5 670.5,-131.5 828.5,-131.5 828.5,-112.5 670.5,-112.5"/>
<text text-anchor="middle" x="749.5" y="-119.5" font-family="Helvetica,sans-Serif" font-size="10.00">PerceptualColor/polarpointf.h</text>
</a>
</g>
</g>
<!-- Node1&#45;&gt;Node7 -->
<g id="edge20" class="edge">
<title>Node1&#45;&gt;Node7</title>
<path fill="none" stroke="midnightblue" d="M897.4,-224.47C883.66,-215.49 861.46,-200.9 842.5,-188 817.3,-170.86 788.6,-150.7 769.83,-137.43"/>
<polygon fill="midnightblue" stroke="midnightblue" points="771.65,-134.43 761.47,-131.51 767.61,-140.15 771.65,-134.43"/>
</g>
<!-- Node8 -->
<g id="node8" class="node">
<title>Node8</title>
<g id="a_node8"><a xlink:title=" ">
<polygon fill="white" stroke="#bfbfbf" points="837.5,-56.5 837.5,-75.5 893.5,-75.5 893.5,-56.5 837.5,-56.5"/>
<text text-anchor="middle" x="865.5" y="-63.5" font-family="Helvetica,sans-Serif" font-size="10.00">QDebug</text>
</a>
</g>
</g>
<!-- Node1&#45;&gt;Node8 -->
<g id="edge22" class="edge">
<title>Node1&#45;&gt;Node8</title>
<path fill="none" stroke="midnightblue" d="M901.51,-224.29C893.43,-215.84 882.01,-202.25 876.5,-188 863.24,-153.69 862.94,-109.98 864.1,-85.59"/>
<polygon fill="midnightblue" stroke="midnightblue" points="867.59,-85.77 864.71,-75.58 860.61,-85.34 867.59,-85.77"/>
</g>
<!-- Node14 -->
<g id="node14" class="node">
<title>Node14</title>
<g id="a_node14"><a xlink:href="helper_8h.html" target="_top" xlink:title=" ">
<polygon fill="white" stroke="black" points="50.5,-56.5 50.5,-75.5 186.5,-75.5 186.5,-56.5 50.5,-56.5"/>
<text text-anchor="middle" x="118.5" y="-63.5" font-family="Helvetica,sans-Serif" font-size="10.00">PerceptualColor/helper.h</text>
</a>
</g>
</g>
<!-- Node1&#45;&gt;Node14 -->
<g id="edge19" class="edge">
<title>Node1&#45;&gt;Node14</title>
<path fill="none" stroke="midnightblue" d="M840.41,-230.57C709.05,-225.5 430.69,-212.23 337.5,-188 256.89,-167.04 174.17,-109.59 137.73,-82.08"/>
<polygon fill="midnightblue" stroke="midnightblue" points="139.55,-79.07 129.49,-75.77 135.3,-84.63 139.55,-79.07"/>
</g>
<!-- Node16 -->
<g id="node16" class="node">
<title>Node16</title>
<g id="a_node16"><a xlink:title=" ">
<polygon fill="white" stroke="#bfbfbf" points="885,-168.5 885,-187.5 936,-187.5 936,-168.5 885,-168.5"/>
<text text-anchor="middle" x="910.5" y="-175.5" font-family="Helvetica,sans-Serif" font-size="10.00">math.h</text>
</a>
</g>
</g>
<!-- Node1&#45;&gt;Node16 -->
<g id="edge21" class="edge">
<title>Node1&#45;&gt;Node16</title>
<path fill="none" stroke="midnightblue" d="M910.5,-224.08C910.5,-217.01 910.5,-206.86 910.5,-197.99"/>
<polygon fill="midnightblue" stroke="midnightblue" points="914,-197.75 910.5,-187.75 907,-197.75 914,-197.75"/>
</g>
<!-- Node17 -->
<g id="node17" class="node">
<title>Node17</title>
<g id="a_node17"><a xlink:title=" ">
<polygon fill="white" stroke="#bfbfbf" points="954.5,-168.5 954.5,-187.5 1038.5,-187.5 1038.5,-168.5 954.5,-168.5"/>
<text text-anchor="middle" x="996.5" y="-175.5" font-family="Helvetica,sans-Serif" font-size="10.00">QMouseEvent</text>
</a>
</g>
</g>
<!-- Node1&#45;&gt;Node17 -->
<g id="edge23" class="edge">
<title>Node1&#45;&gt;Node17</title>
<path fill="none" stroke="midnightblue" d="M924.32,-224.32C937.73,-215.9 958.32,-202.97 974.09,-193.07"/>
<polygon fill="midnightblue" stroke="midnightblue" points="976.11,-195.94 982.72,-187.65 972.39,-190.01 976.11,-195.94"/>
</g>
<!-- Node18 -->
<g id="node18" class="node">
<title>Node18</title>
<g id="a_node18"><a xlink:title=" ">
<polygon fill="white" stroke="#bfbfbf" points="1056.5,-168.5 1056.5,-187.5 1114.5,-187.5 1114.5,-168.5 1056.5,-168.5"/>
<text text-anchor="middle" x="1085.5" y="-175.5" font-family="Helvetica,sans-Serif" font-size="10.00">QPainter</text>
</a>
</g>
</g>
<!-- Node1&#45;&gt;Node18 -->
<g id="edge24" class="edge">
<title>Node1&#45;&gt;Node18</title>
<path fill="none" stroke="midnightblue" d="M938.23,-224.44C967.93,-215.28 1015.22,-200.69 1048.17,-190.52"/>
<polygon fill="midnightblue" stroke="midnightblue" points="1049.38,-193.81 1057.9,-187.52 1047.31,-187.12 1049.38,-193.81"/>
</g>
<!-- Node19 -->
<g id="node19" class="node">
<title>Node19</title>
<g id="a_node19"><a xlink:title=" ">
<polygon fill="white" stroke="#bfbfbf" points="1133,-168.5 1133,-187.5 1186,-187.5 1186,-168.5 1133,-168.5"/>
<text text-anchor="middle" x="1159.5" y="-175.5" font-family="Helvetica,sans-Serif" font-size="10.00">QtMath</text>
</a>
</g>
</g>
<!-- Node1&#45;&gt;Node19 -->
<g id="edge25" class="edge">
<title>Node1&#45;&gt;Node19</title>
<path fill="none" stroke="midnightblue" d="M953.03,-224.49C994,-216.19 1057.95,-202.96 1122.8,-188.09"/>
<polygon fill="midnightblue" stroke="midnightblue" points="1123.83,-191.45 1132.79,-185.79 1122.26,-184.63 1123.83,-191.45"/>
</g>
<!-- Node20 -->
<g id="node20" class="node">
<title>Node20</title>
<g id="a_node20"><a xlink:title=" ">
<polygon fill="white" stroke="#bfbfbf" points="1204,-168.5 1204,-187.5 1295,-187.5 1295,-168.5 1204,-168.5"/>
<text text-anchor="middle" x="1249.5" y="-175.5" font-family="Helvetica,sans-Serif" font-size="10.00">QElapsedTimer</text>
</a>
</g>
</g>
<!-- Node1&#45;&gt;Node20 -->
<g id="edge26" class="edge">
<title>Node1&#45;&gt;Node20</title>
<path fill="none" stroke="midnightblue" d="M965.42,-224.47C1020.65,-215.86 1108.51,-202.08 1193.73,-188.28"/>
<polygon fill="midnightblue" stroke="midnightblue" points="1194.53,-191.69 1203.84,-186.64 1193.41,-184.78 1194.53,-191.69"/>
</g>
<!-- Node3 -->
<g id="node3" class="node">
<title>Node3</title>
<g id="a_node3"><a xlink:title=" ">
<polygon fill="white" stroke="#bfbfbf" points="0,-0.5 0,-19.5 55,-19.5 55,-0.5 0,-0.5"/>
<text text-anchor="middle" x="27.5" y="-7.5" font-family="Helvetica,sans-Serif" font-size="10.00">QImage</text>
</a>
</g>
</g>
<!-- Node2&#45;&gt;Node3 -->
<g id="edge2" class="edge">
<title>Node2&#45;&gt;Node3</title>
<path fill="none" stroke="midnightblue" d="M370.64,-168.47C267.51,-154.71 85.11,-124.16 41.5,-76 30.25,-63.58 27.26,-44.34 26.78,-30.01"/>
<polygon fill="midnightblue" stroke="midnightblue" points="30.28,-29.81 26.82,-19.8 23.28,-29.78 30.28,-29.81"/>
</g>
<!-- Node4 -->
<g id="node4" class="node">
<title>Node4</title>
<g id="a_node4"><a xlink:title=" ">
<polygon fill="white" stroke="#bfbfbf" points="473,-0.5 473,-19.5 532,-19.5 532,-0.5 473,-0.5"/>
<text text-anchor="middle" x="502.5" y="-7.5" font-family="Helvetica,sans-Serif" font-size="10.00">QWidget</text>
</a>
</g>
</g>
<!-- Node2&#45;&gt;Node4 -->
<g id="edge3" class="edge">
<title>Node2&#45;&gt;Node4</title>
<path fill="none" stroke="midnightblue" d="M442.2,-168.29C441.83,-147.68 442.92,-94.73 461.5,-56 466.84,-44.88 475.83,-34.55 484.03,-26.59"/>
<polygon fill="midnightblue" stroke="midnightblue" points="486.5,-29.08 491.51,-19.75 481.77,-23.92 486.5,-29.08"/>
</g>
<!-- Node5 -->
<g id="node5" class="node">
<title>Node5</title>
<g id="a_node5"><a xlink:href="circulardiagram_8h.html" target="_top" xlink:title=" ">
<polygon fill="white" stroke="black" points="470.5,-112.5 470.5,-131.5 652.5,-131.5 652.5,-112.5 470.5,-112.5"/>
<text text-anchor="middle" x="561.5" y="-119.5" font-family="Helvetica,sans-Serif" font-size="10.00">PerceptualColor/circulardiagram.h</text>
</a>
</g>
</g>
<!-- Node2&#45;&gt;Node5 -->
<g id="edge4" class="edge">
<title>Node2&#45;&gt;Node5</title>
<path fill="none" stroke="midnightblue" d="M461.36,-168.44C480.77,-159.64 511.23,-145.81 533.46,-135.72"/>
<polygon fill="midnightblue" stroke="midnightblue" points="535.07,-138.84 542.73,-131.52 532.18,-132.46 535.07,-138.84"/>
</g>
<!-- Node2&#45;&gt;Node7 -->
<g id="edge7" class="edge">
<title>Node2&#45;&gt;Node7</title>
<path fill="none" stroke="midnightblue" d="M491.15,-168.44C545.37,-158.9 633.05,-143.48 690.98,-133.29"/>
<polygon fill="midnightblue" stroke="midnightblue" points="691.84,-136.7 701.08,-131.52 690.63,-129.8 691.84,-136.7"/>
</g>
<!-- Node11 -->
<g id="node11" class="node">
<title>Node11</title>
<g id="a_node11"><a xlink:href="rgbcolorspace_8h.html" target="_top" xlink:title=" ">
<polygon fill="white" stroke="black" points="240.5,-112.5 240.5,-131.5 414.5,-131.5 414.5,-112.5 240.5,-112.5"/>
<text text-anchor="middle" x="327.5" y="-119.5" font-family="Helvetica,sans-Serif" font-size="10.00">PerceptualColor/rgbcolorspace.h</text>
</a>
</g>
</g>
<!-- Node2&#45;&gt;Node11 -->
<g id="edge11" class="edge">
<title>Node2&#45;&gt;Node11</title>
<path fill="none" stroke="midnightblue" d="M424.28,-168.44C405.6,-159.68 376.34,-145.94 354.88,-135.86"/>
<polygon fill="midnightblue" stroke="midnightblue" points="356.18,-132.6 345.64,-131.52 353.2,-138.93 356.18,-132.6"/>
</g>
<!-- Node13 -->
<g id="node13" class="node">
<title>Node13</title>
<g id="a_node13"><a xlink:title=" ">
<polygon fill="white" stroke="#bfbfbf" points="187,-0.5 187,-19.5 242,-19.5 242,-0.5 187,-0.5"/>
<text text-anchor="middle" x="214.5" y="-7.5" font-family="Helvetica,sans-Serif" font-size="10.00">lcms2.h</text>
</a>
</g>
</g>
<!-- Node2&#45;&gt;Node13 -->
<g id="edge18" class="edge">
<title>Node2&#45;&gt;Node13</title>
<path fill="none" stroke="midnightblue" d="M355.22,-168.48C304.98,-161.7 248.51,-150.26 231.5,-132 205.68,-104.29 207.61,-56.36 211.14,-29.9"/>
<polygon fill="midnightblue" stroke="midnightblue" points="214.65,-30.12 212.73,-19.71 207.73,-29.05 214.65,-30.12"/>
</g>
<!-- Node6 -->
<g id="node6" class="node">
<title>Node6</title>
<g id="a_node6"><a xlink:href="abstractdiagram_8h.html" target="_top" xlink:title=" ">
<polygon fill="white" stroke="black" points="470.5,-56.5 470.5,-75.5 656.5,-75.5 656.5,-56.5 470.5,-56.5"/>
<text text-anchor="middle" x="563.5" y="-63.5" font-family="Helvetica,sans-Serif" font-size="10.00">PerceptualColor/abstractdiagram.h</text>
</a>
</g>
</g>
<!-- Node5&#45;&gt;Node6 -->
<g id="edge5" class="edge">
<title>Node5&#45;&gt;Node6</title>
<path fill="none" stroke="midnightblue" d="M561.83,-112.08C562.09,-105.01 562.47,-94.86 562.8,-85.99"/>
<polygon fill="midnightblue" stroke="midnightblue" points="566.3,-85.87 563.18,-75.75 559.31,-85.61 566.3,-85.87"/>
</g>
<!-- Node6&#45;&gt;Node4 -->
<g id="edge6" class="edge">
<title>Node6&#45;&gt;Node4</title>
<path fill="none" stroke="midnightblue" d="M553.7,-56.32C544.68,-48.34 531.09,-36.31 520.18,-26.65"/>
<polygon fill="midnightblue" stroke="midnightblue" points="522.29,-23.84 512.48,-19.83 517.65,-29.08 522.29,-23.84"/>
</g>
<!-- Node7&#45;&gt;Node8 -->
<g id="edge8" class="edge">
<title>Node7&#45;&gt;Node8</title>
<path fill="none" stroke="midnightblue" d="M767.88,-112.44C786.72,-103.68 816.23,-89.94 837.88,-79.86"/>
<polygon fill="midnightblue" stroke="midnightblue" points="839.62,-82.91 847.21,-75.52 836.66,-76.56 839.62,-82.91"/>
</g>
<!-- Node9 -->
<g id="node9" class="node">
<title>Node9</title>
<g id="a_node9"><a xlink:title=" ">
<polygon fill="white" stroke="#bfbfbf" points="675,-56.5 675,-75.5 730,-75.5 730,-56.5 675,-56.5"/>
<text text-anchor="middle" x="702.5" y="-63.5" font-family="Helvetica,sans-Serif" font-size="10.00">QPointF</text>
</a>
</g>
</g>
<!-- Node7&#45;&gt;Node9 -->
<g id="edge9" class="edge">
<title>Node7&#45;&gt;Node9</title>
<path fill="none" stroke="midnightblue" d="M741.74,-112.08C734.96,-104.3 724.96,-92.8 716.74,-83.37"/>
<polygon fill="midnightblue" stroke="midnightblue" points="719.32,-81 710.12,-75.75 714.04,-85.59 719.32,-81"/>
</g>
<!-- Node10 -->
<g id="node10" class="node">
<title>Node10</title>
<g id="a_node10"><a xlink:title=" ">
<polygon fill="white" stroke="#bfbfbf" points="748,-56.5 748,-75.5 819,-75.5 819,-56.5 748,-56.5"/>
<text text-anchor="middle" x="783.5" y="-63.5" font-family="Helvetica,sans-Serif" font-size="10.00">QMetaType</text>
</a>
</g>
</g>
<!-- Node7&#45;&gt;Node10 -->
<g id="edge10" class="edge">
<title>Node7&#45;&gt;Node10</title>
<path fill="none" stroke="midnightblue" d="M755.11,-112.08C759.87,-104.53 766.82,-93.49 772.65,-84.23"/>
<polygon fill="midnightblue" stroke="midnightblue" points="775.62,-86.08 777.99,-75.75 769.7,-82.35 775.62,-86.08"/>
</g>
<!-- Node12 -->
<g id="node12" class="node">
<title>Node12</title>
<g id="a_node12"><a xlink:title=" ">
<polygon fill="white" stroke="#bfbfbf" points="243.5,-56.5 243.5,-75.5 299.5,-75.5 299.5,-56.5 243.5,-56.5"/>
<text text-anchor="middle" x="271.5" y="-63.5" font-family="Helvetica,sans-Serif" font-size="10.00">QObject</text>
</a>
</g>
</g>
<!-- Node11&#45;&gt;Node12 -->
<g id="edge12" class="edge">
<title>Node11&#45;&gt;Node12</title>
<path fill="none" stroke="midnightblue" d="M318.5,-112.32C310.31,-104.42 297.99,-92.55 288.03,-82.94"/>
<polygon fill="midnightblue" stroke="midnightblue" points="290.29,-80.26 280.66,-75.83 285.43,-85.29 290.29,-80.26"/>
</g>
<!-- Node11&#45;&gt;Node13 -->
<g id="edge13" class="edge">
<title>Node11&#45;&gt;Node13</title>
<path fill="none" stroke="midnightblue" d="M327.16,-112.38C326.19,-98.85 322.51,-72.48 308.5,-56 293.87,-38.78 271.14,-27.65 251.69,-20.77"/>
<polygon fill="midnightblue" stroke="midnightblue" points="252.77,-17.44 242.18,-17.64 250.58,-24.09 252.77,-17.44"/>
</g>
<!-- Node11&#45;&gt;Node14 -->
<g id="edge14" class="edge">
<title>Node11&#45;&gt;Node14</title>
<path fill="none" stroke="midnightblue" d="M294.38,-112.44C258.38,-103.14 200.73,-88.25 161.31,-78.06"/>
<polygon fill="midnightblue" stroke="midnightblue" points="162.02,-74.63 151.46,-75.52 160.27,-81.41 162.02,-74.63"/>
</g>
<!-- Node14&#45;&gt;Node3 -->
<g id="edge15" class="edge">
<title>Node14&#45;&gt;Node3</title>
<path fill="none" stroke="midnightblue" d="M103.88,-56.32C89.55,-47.82 67.49,-34.73 50.75,-24.8"/>
<polygon fill="midnightblue" stroke="midnightblue" points="52.47,-21.75 42.08,-19.65 48.9,-27.77 52.47,-21.75"/>
</g>
<!-- Node14&#45;&gt;Node13 -->
<g id="edge17" class="edge">
<title>Node14&#45;&gt;Node13</title>
<path fill="none" stroke="midnightblue" d="M133.92,-56.32C149.04,-47.82 172.32,-34.73 189.97,-24.8"/>
<polygon fill="midnightblue" stroke="midnightblue" points="192.11,-27.61 199.11,-19.65 188.68,-21.51 192.11,-27.61"/>
</g>
<!-- Node15 -->
<g id="node15" class="node">
<title>Node15</title>
<g id="a_node15"><a xlink:title=" ">
<polygon fill="white" stroke="#bfbfbf" points="77,-0.5 77,-19.5 160,-19.5 160,-0.5 77,-0.5"/>
<text text-anchor="middle" x="118.5" y="-7.5" font-family="Helvetica,sans-Serif" font-size="10.00">QWheelEvent</text>
</a>
</g>
</g>
<!-- Node14&#45;&gt;Node15 -->
<g id="edge16" class="edge">
<title>Node14&#45;&gt;Node15</title>
<path fill="none" stroke="midnightblue" d="M118.5,-56.08C118.5,-49.01 118.5,-38.86 118.5,-29.99"/>
<polygon fill="midnightblue" stroke="midnightblue" points="122,-29.75 118.5,-19.75 115,-29.75 122,-29.75"/>
</g>
</g>
</svg>
