<?xml version="1.0" encoding="UTF-8" standalone="no"?>
<!DOCTYPE svg PUBLIC "-//W3C//DTD SVG 1.1//EN"
 "http://www.w3.org/Graphics/SVG/1.1/DTD/svg11.dtd">
<!-- Generated by graphviz version 2.43.0 (0)
 -->
<!-- Title: include/PerceptualColor/simplecolorwheel.h Pages: 1 -->
<svg width="571pt" height="229pt"
 viewBox="0.00 0.00 571.00 229.00" xmlns="http://www.w3.org/2000/svg" xmlns:xlink="http://www.w3.org/1999/xlink">
<g id="graph0" class="graph" transform="scale(1 1) rotate(0) translate(4 225)">
<title>include/PerceptualColor/simplecolorwheel.h</title>
<polygon fill="white" stroke="transparent" points="-4,4 -4,-225 567,-225 567,4 -4,4"/>
<!-- Node1 -->
<g id="node1" class="node">
<title>Node1</title>
<g id="a_node1"><a xlink:title=" ">
<polygon fill="#bfbfbf" stroke="black" points="171.5,-190.5 171.5,-220.5 303.5,-220.5 303.5,-190.5 171.5,-190.5"/>
<text text-anchor="start" x="179.5" y="-208.5" font-family="Helvetica,sans-Serif" font-size="10.00">include/PerceptualColor</text>
<text text-anchor="middle" x="237.5" y="-197.5" font-family="Helvetica,sans-Serif" font-size="10.00">/simplecolorwheel.h</text>
</a>
</g>
</g>
<!-- Node2 -->
<g id="node2" class="node">
<title>Node2</title>
<g id="a_node2"><a xlink:href="chromahuediagram_8cpp.html" target="_top" xlink:title=" ">
<polygon fill="white" stroke="black" points="0,-129 0,-148 149,-148 149,-129 0,-129"/>
<text text-anchor="middle" x="74.5" y="-136" font-family="Helvetica,sans-Serif" font-size="10.00">src/chromahuediagram.cpp</text>
</a>
</g>
</g>
<!-- Node1&#45;&gt;Node2 -->
<g id="edge1" class="edge">
<title>Node1&#45;&gt;Node2</title>
<path fill="none" stroke="midnightblue" d="M192.67,-186.62C161.12,-174.04 120.31,-157.77 95.83,-148.01"/>
<polygon fill="midnightblue" stroke="midnightblue" points="191.55,-189.94 202.13,-190.4 194.14,-183.44 191.55,-189.94"/>
</g>
<!-- Node3 -->
<g id="node3" class="node">
<title>Node3</title>
<g id="a_node3"><a xlink:href="simplecolorwheel_8cpp.html" target="_top" xlink:title=" ">
<polygon fill="white" stroke="black" points="167.5,-129 167.5,-148 307.5,-148 307.5,-129 167.5,-129"/>
<text text-anchor="middle" x="237.5" y="-136" font-family="Helvetica,sans-Serif" font-size="10.00">src/simplecolorwheel.cpp</text>
</a>
</g>
</g>
<!-- Node1&#45;&gt;Node3 -->
<g id="edge2" class="edge">
<title>Node1&#45;&gt;Node3</title>
<path fill="none" stroke="midnightblue" d="M237.5,-180.25C237.5,-169.02 237.5,-156.38 237.5,-148.19"/>
<polygon fill="midnightblue" stroke="midnightblue" points="234,-180.4 237.5,-190.4 241,-180.4 234,-180.4"/>
</g>
<!-- Node4 -->
<g id="node4" class="node">
<title>Node4</title>
<g id="a_node4"><a xlink:href="wheelcolorpicker_8h.html" target="_top" xlink:title=" ">
<polygon fill="white" stroke="black" points="325.5,-123.5 325.5,-153.5 457.5,-153.5 457.5,-123.5 325.5,-123.5"/>
<text text-anchor="start" x="333.5" y="-141.5" font-family="Helvetica,sans-Serif" font-size="10.00">include/PerceptualColor</text>
<text text-anchor="middle" x="391.5" y="-130.5" font-family="Helvetica,sans-Serif" font-size="10.00">/wheelcolorpicker.h</text>
</a>
</g>
</g>
<!-- Node1&#45;&gt;Node4 -->
<g id="edge3" class="edge">
<title>Node1&#45;&gt;Node4</title>
<path fill="none" stroke="midnightblue" d="M280.37,-186.41C304.95,-176.03 335.36,-163.2 358.15,-153.58"/>
<polygon fill="midnightblue" stroke="midnightblue" points="278.77,-183.28 270.92,-190.4 281.49,-189.73 278.77,-183.28"/>
</g>
<!-- Node5 -->
<g id="node5" class="node">
<title>Node5</title>
<g id="a_node5"><a xlink:href="wheelcolorpicker_8cpp.html" target="_top" xlink:title=" ">
<polygon fill="white" stroke="black" points="247.5,-62 247.5,-81 383.5,-81 383.5,-62 247.5,-62"/>
<text text-anchor="middle" x="315.5" y="-69" font-family="Helvetica,sans-Serif" font-size="10.00">src/wheelcolorpicker.cpp</text>
</a>
</g>
</g>
<!-- Node4&#45;&gt;Node5 -->
<g id="edge4" class="edge">
<title>Node4&#45;&gt;Node5</title>
<path fill="none" stroke="midnightblue" d="M367.15,-116.67C353.11,-104.67 336.22,-90.22 325.67,-81.19"/>
<polygon fill="midnightblue" stroke="midnightblue" points="365.13,-119.56 375.01,-123.4 369.68,-114.24 365.13,-119.56"/>
</g>
<!-- Node6 -->
<g id="node6" class="node">
<title>Node6</title>
<g id="a_node6"><a xlink:href="colordialog_8h.html" target="_top" xlink:title=" ">
<polygon fill="white" stroke="black" points="401.5,-56.5 401.5,-86.5 533.5,-86.5 533.5,-56.5 401.5,-56.5"/>
<text text-anchor="start" x="409.5" y="-74.5" font-family="Helvetica,sans-Serif" font-size="10.00">include/PerceptualColor</text>
<text text-anchor="middle" x="467.5" y="-63.5" font-family="Helvetica,sans-Serif" font-size="10.00">/colordialog.h</text>
</a>
</g>
</g>
<!-- Node4&#45;&gt;Node6 -->
<g id="edge5" class="edge">
<title>Node4&#45;&gt;Node6</title>
<path fill="none" stroke="midnightblue" d="M415.61,-116.88C427.16,-107.01 440.69,-95.43 451.04,-86.58"/>
<polygon fill="midnightblue" stroke="midnightblue" points="413.32,-114.24 407.99,-123.4 417.87,-119.56 413.32,-114.24"/>
</g>
<!-- Node7 -->
<g id="node7" class="node">
<title>Node7</title>
<g id="a_node7"><a xlink:href="colordialog_8cpp.html" target="_top" xlink:title=" ">
<polygon fill="white" stroke="black" points="357.5,-0.5 357.5,-19.5 465.5,-19.5 465.5,-0.5 357.5,-0.5"/>
<text text-anchor="middle" x="411.5" y="-7.5" font-family="Helvetica,sans-Serif" font-size="10.00">src/colordialog.cpp</text>
</a>
</g>
</g>
<!-- Node6&#45;&gt;Node7 -->
<g id="edge6" class="edge">
<title>Node6&#45;&gt;Node7</title>
<path fill="none" stroke="midnightblue" d="M447.27,-49C437.72,-38.86 426.87,-27.33 419.65,-19.66"/>
<polygon fill="midnightblue" stroke="midnightblue" points="444.83,-51.52 454.23,-56.4 449.92,-46.72 444.83,-51.52"/>
</g>
<!-- Node8 -->
<g id="node8" class="node">
<title>Node8</title>
<g id="a_node8"><a xlink:href="main_8cpp.html" target="_top" xlink:title=" ">
<polygon fill="white" stroke="black" points="484,-0.5 484,-19.5 563,-19.5 563,-0.5 484,-0.5"/>
<text text-anchor="middle" x="523.5" y="-7.5" font-family="Helvetica,sans-Serif" font-size="10.00">src/main.cpp</text>
</a>
</g>
</g>
<!-- Node6&#45;&gt;Node8 -->
<g id="edge7" class="edge">
<title>Node6&#45;&gt;Node8</title>
<path fill="none" stroke="midnightblue" d="M487.73,-49C497.28,-38.86 508.13,-27.33 515.35,-19.66"/>
<polygon fill="midnightblue" stroke="midnightblue" points="485.08,-46.72 480.77,-56.4 490.17,-51.52 485.08,-46.72"/>
</g>
</g>
</svg>
