<?xml version="1.0" encoding="UTF-8" standalone="no"?>
<!DOCTYPE svg PUBLIC "-//W3C//DTD SVG 1.1//EN"
 "http://www.w3.org/Graphics/SVG/1.1/DTD/svg11.dtd">
<!-- Generated by graphviz version 2.43.0 (0)
 -->
<!-- Title: include/PerceptualColor/wheelcolorpicker.h Pages: 1 -->
<svg width="947pt" height="319pt"
 viewBox="0.00 0.00 947.34 319.00" xmlns="http://www.w3.org/2000/svg" xmlns:xlink="http://www.w3.org/1999/xlink">
<g id="graph0" class="graph" transform="scale(1 1) rotate(0) translate(4 315)">
<title>include/PerceptualColor/wheelcolorpicker.h</title>
<polygon fill="white" stroke="transparent" points="-4,4 -4,-315 943.34,-315 943.34,4 -4,4"/>
<!-- Node1 -->
<g id="node1" class="node">
<title>Node1</title>
<g id="a_node1"><a xlink:title=" ">
<polygon fill="#bfbfbf" stroke="black" points="542.31,-280.5 542.31,-310.5 674.31,-310.5 674.31,-280.5 542.31,-280.5"/>
<text text-anchor="start" x="550.31" y="-298.5" font-family="Helvetica,sans-Serif" font-size="10.00">include/PerceptualColor</text>
<text text-anchor="middle" x="608.31" y="-287.5" font-family="Helvetica,sans-Serif" font-size="10.00">/wheelcolorpicker.h</text>
</a>
</g>
</g>
<!-- Node2 -->
<g id="node2" class="node">
<title>Node2</title>
<g id="a_node2"><a xlink:href="chromalightnessdiagram_8h.html" target="_top" xlink:title=" ">
<polygon fill="white" stroke="black" points="202.81,-224.5 202.81,-243.5 429.81,-243.5 429.81,-224.5 202.81,-224.5"/>
<text text-anchor="middle" x="316.31" y="-231.5" font-family="Helvetica,sans-Serif" font-size="10.00">PerceptualColor/chromalightnessdiagram.h</text>
</a>
</g>
</g>
<!-- Node1&#45;&gt;Node2 -->
<g id="edge1" class="edge">
<title>Node1&#45;&gt;Node2</title>
<path fill="none" stroke="midnightblue" d="M542.05,-281C489.42,-270.28 416.86,-255.49 368.35,-245.6"/>
<polygon fill="midnightblue" stroke="midnightblue" points="368.88,-242.14 358.38,-243.57 367.48,-249 368.88,-242.14"/>
</g>
<!-- Node12 -->
<g id="node12" class="node">
<title>Node12</title>
<g id="a_node12"><a xlink:title=" ">
<polygon fill="white" stroke="#bfbfbf" points="696.31,-112.5 696.31,-131.5 752.31,-131.5 752.31,-112.5 696.31,-112.5"/>
<text text-anchor="middle" x="724.31" y="-119.5" font-family="Helvetica,sans-Serif" font-size="10.00">QDebug</text>
</a>
</g>
</g>
<!-- Node1&#45;&gt;Node12 -->
<g id="edge29" class="edge">
<title>Node1&#45;&gt;Node12</title>
<path fill="none" stroke="midnightblue" d="M674.49,-288.6C737.99,-279.02 830.65,-253.89 875.31,-188 880.3,-180.64 880.62,-175.13 875.31,-168 871.82,-163.32 805.84,-144.87 762.27,-133.1"/>
<polygon fill="midnightblue" stroke="midnightblue" points="763.1,-129.7 752.53,-130.48 761.28,-136.46 763.1,-129.7"/>
</g>
<!-- Node13 -->
<g id="node13" class="node">
<title>Node13</title>
<g id="a_node13"><a xlink:href="simplecolorwheel_8h.html" target="_top" xlink:title=" ">
<polygon fill="white" stroke="black" points="512.31,-224.5 512.31,-243.5 704.31,-243.5 704.31,-224.5 512.31,-224.5"/>
<text text-anchor="middle" x="608.31" y="-231.5" font-family="Helvetica,sans-Serif" font-size="10.00">PerceptualColor/simplecolorwheel.h</text>
</a>
</g>
</g>
<!-- Node1&#45;&gt;Node13 -->
<g id="edge18" class="edge">
<title>Node1&#45;&gt;Node13</title>
<path fill="none" stroke="midnightblue" d="M608.31,-280.4C608.31,-272.47 608.31,-262.46 608.31,-253.86"/>
<polygon fill="midnightblue" stroke="midnightblue" points="611.81,-253.66 608.31,-243.66 604.81,-253.66 611.81,-253.66"/>
</g>
<!-- Node3 -->
<g id="node3" class="node">
<title>Node3</title>
<g id="a_node3"><a xlink:title=" ">
<polygon fill="white" stroke="#bfbfbf" points="20.81,-0.5 20.81,-19.5 75.81,-19.5 75.81,-0.5 20.81,-0.5"/>
<text text-anchor="middle" x="48.31" y="-7.5" font-family="Helvetica,sans-Serif" font-size="10.00">QImage</text>
</a>
</g>
</g>
<!-- Node2&#45;&gt;Node3 -->
<g id="edge2" class="edge">
<title>Node2&#45;&gt;Node3</title>
<path fill="none" stroke="midnightblue" d="M202.44,-228.72C133.42,-223.62 54.2,-212.44 30.31,-188 -10.96,-145.77 -3.06,-112.11 15.31,-56 18.8,-45.34 25.88,-35.12 32.59,-27.12"/>
<polygon fill="midnightblue" stroke="midnightblue" points="35.21,-29.44 39.29,-19.66 30,-24.76 35.21,-29.44"/>
</g>
<!-- Node4 -->
<g id="node4" class="node">
<title>Node4</title>
<g id="a_node4"><a xlink:title=" ">
<polygon fill="white" stroke="#bfbfbf" points="517.81,-56.5 517.81,-75.5 576.81,-75.5 576.81,-56.5 517.81,-56.5"/>
<text text-anchor="middle" x="547.31" y="-63.5" font-family="Helvetica,sans-Serif" font-size="10.00">QWidget</text>
</a>
</g>
</g>
<!-- Node2&#45;&gt;Node4 -->
<g id="edge3" class="edge">
<title>Node2&#45;&gt;Node4</title>
<path fill="none" stroke="midnightblue" d="M323.65,-224.33C342.17,-202.88 393.07,-146.56 445.31,-112 466.12,-98.23 491.83,-86.92 512.24,-79.08"/>
<polygon fill="midnightblue" stroke="midnightblue" points="513.64,-82.29 521.78,-75.52 511.19,-75.74 513.64,-82.29"/>
</g>
<!-- Node5 -->
<g id="node5" class="node">
<title>Node5</title>
<g id="a_node5"><a xlink:title=" ">
<polygon fill="white" stroke="#bfbfbf" points="268.81,-0.5 268.81,-19.5 323.81,-19.5 323.81,-0.5 268.81,-0.5"/>
<text text-anchor="middle" x="296.31" y="-7.5" font-family="Helvetica,sans-Serif" font-size="10.00">lcms2.h</text>
</a>
</g>
</g>
<!-- Node2&#45;&gt;Node5 -->
<g id="edge4" class="edge">
<title>Node2&#45;&gt;Node5</title>
<path fill="none" stroke="midnightblue" d="M315.52,-224.3C312.58,-191.63 302.15,-75.87 298.02,-29.96"/>
<polygon fill="midnightblue" stroke="midnightblue" points="301.49,-29.53 297.11,-19.88 294.52,-30.16 301.49,-29.53"/>
</g>
<!-- Node6 -->
<g id="node6" class="node">
<title>Node6</title>
<g id="a_node6"><a xlink:href="abstractdiagram_8h.html" target="_top" xlink:title=" ">
<polygon fill="white" stroke="black" points="454.31,-112.5 454.31,-131.5 640.31,-131.5 640.31,-112.5 454.31,-112.5"/>
<text text-anchor="middle" x="547.31" y="-119.5" font-family="Helvetica,sans-Serif" font-size="10.00">PerceptualColor/abstractdiagram.h</text>
</a>
</g>
</g>
<!-- Node2&#45;&gt;Node6 -->
<g id="edge5" class="edge">
<title>Node2&#45;&gt;Node6</title>
<path fill="none" stroke="midnightblue" d="M333.46,-224.45C358.73,-211.9 407.5,-187.81 449.31,-168 472.61,-156.96 499.21,-144.77 518.81,-135.87"/>
<polygon fill="midnightblue" stroke="midnightblue" points="520.43,-138.98 528.09,-131.66 517.54,-132.6 520.43,-138.98"/>
</g>
<!-- Node7 -->
<g id="node7" class="node">
<title>Node7</title>
<g id="a_node7"><a xlink:href="fullcolordescription_8h.html" target="_top" xlink:title=" ">
<polygon fill="white" stroke="black" points="50.31,-168.5 50.31,-187.5 250.31,-187.5 250.31,-168.5 50.31,-168.5"/>
<text text-anchor="middle" x="150.31" y="-175.5" font-family="Helvetica,sans-Serif" font-size="10.00">PerceptualColor/fullcolordescription.h</text>
</a>
</g>
</g>
<!-- Node2&#45;&gt;Node7 -->
<g id="edge7" class="edge">
<title>Node2&#45;&gt;Node7</title>
<path fill="none" stroke="midnightblue" d="M290.01,-224.44C261.96,-215.32 217.36,-200.81 186.12,-190.65"/>
<polygon fill="midnightblue" stroke="midnightblue" points="187.08,-187.28 176.49,-187.52 184.92,-193.94 187.08,-187.28"/>
</g>
<!-- Node10 -->
<g id="node10" class="node">
<title>Node10</title>
<g id="a_node10"><a xlink:href="rgbcolorspace_8h.html" target="_top" xlink:title=" ">
<polygon fill="white" stroke="black" points="114.31,-112.5 114.31,-131.5 288.31,-131.5 288.31,-112.5 114.31,-112.5"/>
<text text-anchor="middle" x="201.31" y="-119.5" font-family="Helvetica,sans-Serif" font-size="10.00">PerceptualColor/rgbcolorspace.h</text>
</a>
</g>
</g>
<!-- Node2&#45;&gt;Node10 -->
<g id="edge17" class="edge">
<title>Node2&#45;&gt;Node10</title>
<path fill="none" stroke="midnightblue" d="M202.77,-228.91C136.66,-223.87 62.3,-212.7 41.31,-188 16.21,-158.46 57.28,-142.17 104.08,-133.29"/>
<polygon fill="midnightblue" stroke="midnightblue" points="104.9,-136.7 114.14,-131.51 103.68,-129.81 104.9,-136.7"/>
</g>
<!-- Node6&#45;&gt;Node4 -->
<g id="edge6" class="edge">
<title>Node6&#45;&gt;Node4</title>
<path fill="none" stroke="midnightblue" d="M547.31,-112.08C547.31,-105.01 547.31,-94.86 547.31,-85.99"/>
<polygon fill="midnightblue" stroke="midnightblue" points="550.81,-85.75 547.31,-75.75 543.81,-85.75 550.81,-85.75"/>
</g>
<!-- Node8 -->
<g id="node8" class="node">
<title>Node8</title>
<g id="a_node8"><a xlink:href="helper_8h.html" target="_top" xlink:title=" ">
<polygon fill="white" stroke="black" points="24.31,-56.5 24.31,-75.5 160.31,-75.5 160.31,-56.5 24.31,-56.5"/>
<text text-anchor="middle" x="92.31" y="-63.5" font-family="Helvetica,sans-Serif" font-size="10.00">PerceptualColor/helper.h</text>
</a>
</g>
</g>
<!-- Node7&#45;&gt;Node8 -->
<g id="edge8" class="edge">
<title>Node7&#45;&gt;Node8</title>
<path fill="none" stroke="midnightblue" d="M138.39,-168.41C127.99,-160.24 113.34,-147 105.31,-132 97.59,-117.57 94.43,-99.12 93.15,-85.56"/>
<polygon fill="midnightblue" stroke="midnightblue" points="96.64,-85.26 92.46,-75.52 89.66,-85.74 96.64,-85.26"/>
</g>
<!-- Node7&#45;&gt;Node10 -->
<g id="edge12" class="edge">
<title>Node7&#45;&gt;Node10</title>
<path fill="none" stroke="midnightblue" d="M158.73,-168.08C166.16,-160.22 177.16,-148.57 186.12,-139.08"/>
<polygon fill="midnightblue" stroke="midnightblue" points="188.72,-141.42 193.04,-131.75 183.63,-136.62 188.72,-141.42"/>
</g>
<!-- Node7&#45;&gt;Node12 -->
<g id="edge16" class="edge">
<title>Node7&#45;&gt;Node12</title>
<path fill="none" stroke="midnightblue" d="M250.75,-168.82C351.58,-160.4 511.33,-146.5 649.31,-132 661.31,-130.74 674.38,-129.22 686.19,-127.79"/>
<polygon fill="midnightblue" stroke="midnightblue" points="686.69,-131.26 696.19,-126.57 685.84,-124.31 686.69,-131.26"/>
</g>
<!-- Node8&#45;&gt;Node3 -->
<g id="edge9" class="edge">
<title>Node8&#45;&gt;Node3</title>
<path fill="none" stroke="midnightblue" d="M85.04,-56.08C78.76,-48.38 69.52,-37.03 61.88,-27.65"/>
<polygon fill="midnightblue" stroke="midnightblue" points="64.47,-25.29 55.44,-19.75 59.04,-29.71 64.47,-25.29"/>
</g>
<!-- Node8&#45;&gt;Node5 -->
<g id="edge11" class="edge">
<title>Node8&#45;&gt;Node5</title>
<path fill="none" stroke="midnightblue" d="M124.63,-56.44C161.14,-46.78 220.46,-31.08 258.93,-20.89"/>
<polygon fill="midnightblue" stroke="midnightblue" points="259.94,-24.25 268.71,-18.3 258.15,-17.48 259.94,-24.25"/>
</g>
<!-- Node9 -->
<g id="node9" class="node">
<title>Node9</title>
<g id="a_node9"><a xlink:title=" ">
<polygon fill="white" stroke="#bfbfbf" points="93.81,-0.5 93.81,-19.5 176.81,-19.5 176.81,-0.5 93.81,-0.5"/>
<text text-anchor="middle" x="135.31" y="-7.5" font-family="Helvetica,sans-Serif" font-size="10.00">QWheelEvent</text>
</a>
</g>
</g>
<!-- Node8&#45;&gt;Node9 -->
<g id="edge10" class="edge">
<title>Node8&#45;&gt;Node9</title>
<path fill="none" stroke="midnightblue" d="M99.41,-56.08C105.55,-48.38 114.58,-37.03 122.05,-27.65"/>
<polygon fill="midnightblue" stroke="midnightblue" points="124.85,-29.75 128.34,-19.75 119.37,-25.39 124.85,-29.75"/>
</g>
<!-- Node10&#45;&gt;Node5 -->
<g id="edge14" class="edge">
<title>Node10&#45;&gt;Node5</title>
<path fill="none" stroke="midnightblue" d="M209.85,-112.2C218.47,-103.24 232.07,-88.88 243.31,-76 257.31,-59.96 272.61,-41.03 283.16,-27.75"/>
<polygon fill="midnightblue" stroke="midnightblue" points="286.17,-29.58 289.62,-19.56 280.68,-25.24 286.17,-29.58"/>
</g>
<!-- Node10&#45;&gt;Node8 -->
<g id="edge15" class="edge">
<title>Node10&#45;&gt;Node8</title>
<path fill="none" stroke="midnightblue" d="M183.8,-112.32C166.24,-103.62 138.98,-90.12 118.78,-80.11"/>
<polygon fill="midnightblue" stroke="midnightblue" points="120.29,-76.96 109.78,-75.65 117.18,-83.23 120.29,-76.96"/>
</g>
<!-- Node11 -->
<g id="node11" class="node">
<title>Node11</title>
<g id="a_node11"><a xlink:title=" ">
<polygon fill="white" stroke="#bfbfbf" points="178.31,-56.5 178.31,-75.5 234.31,-75.5 234.31,-56.5 178.31,-56.5"/>
<text text-anchor="middle" x="206.31" y="-63.5" font-family="Helvetica,sans-Serif" font-size="10.00">QObject</text>
</a>
</g>
</g>
<!-- Node10&#45;&gt;Node11 -->
<g id="edge13" class="edge">
<title>Node10&#45;&gt;Node11</title>
<path fill="none" stroke="midnightblue" d="M202.13,-112.08C202.79,-105.01 203.73,-94.86 204.55,-85.99"/>
<polygon fill="midnightblue" stroke="midnightblue" points="208.06,-86.03 205.5,-75.75 201.09,-85.39 208.06,-86.03"/>
</g>
<!-- Node13&#45;&gt;Node3 -->
<g id="edge19" class="edge">
<title>Node13&#45;&gt;Node3</title>
<path fill="none" stroke="midnightblue" d="M565.27,-224.43C532.58,-217.07 486.98,-204.95 449.31,-188 350.15,-143.38 343.62,-97.97 243.31,-56 179.34,-29.24 156.74,-36.1 85.68,-20.22"/>
<polygon fill="midnightblue" stroke="midnightblue" points="86.34,-16.78 75.81,-17.94 84.77,-23.6 86.34,-16.78"/>
</g>
<!-- Node13&#45;&gt;Node4 -->
<g id="edge20" class="edge">
<title>Node13&#45;&gt;Node4</title>
<path fill="none" stroke="midnightblue" d="M619.85,-224.49C629.79,-216.38 643.43,-203.18 649.31,-188 661.51,-156.5 667.75,-140.3 649.31,-112 635.56,-90.91 609.45,-79.63 587.09,-73.64"/>
<polygon fill="midnightblue" stroke="midnightblue" points="587.68,-70.18 577.14,-71.25 586.04,-76.99 587.68,-70.18"/>
</g>
<!-- Node13&#45;&gt;Node5 -->
<g id="edge28" class="edge">
<title>Node13&#45;&gt;Node5</title>
<path fill="none" stroke="midnightblue" d="M704.65,-227.75C820.19,-217.92 990.51,-190.07 924.31,-112 847.63,-21.57 457.7,-11.78 334.01,-10.98"/>
<polygon fill="midnightblue" stroke="midnightblue" points="333.91,-7.48 323.89,-10.93 333.87,-14.48 333.91,-7.48"/>
</g>
<!-- Node13&#45;&gt;Node10 -->
<g id="edge27" class="edge">
<title>Node13&#45;&gt;Node10</title>
<path fill="none" stroke="midnightblue" d="M568.41,-224.42C529.45,-215.86 468.56,-202.01 416.31,-188 352.85,-170.99 279.79,-148.21 237.25,-134.63"/>
<polygon fill="midnightblue" stroke="midnightblue" points="238.22,-131.27 227.63,-131.55 236.09,-137.93 238.22,-131.27"/>
</g>
<!-- Node14 -->
<g id="node14" class="node">
<title>Node14</title>
<g id="a_node14"><a xlink:href="circulardiagram_8h.html" target="_top" xlink:title=" ">
<polygon fill="white" stroke="black" points="458.31,-168.5 458.31,-187.5 640.31,-187.5 640.31,-168.5 458.31,-168.5"/>
<text text-anchor="middle" x="549.31" y="-175.5" font-family="Helvetica,sans-Serif" font-size="10.00">PerceptualColor/circulardiagram.h</text>
</a>
</g>
</g>
<!-- Node13&#45;&gt;Node14 -->
<g id="edge21" class="edge">
<title>Node13&#45;&gt;Node14</title>
<path fill="none" stroke="midnightblue" d="M598.83,-224.32C590.11,-216.34 576.97,-204.31 566.41,-194.65"/>
<polygon fill="midnightblue" stroke="midnightblue" points="568.7,-192 558.96,-187.83 563.97,-197.17 568.7,-192"/>
</g>
<!-- Node15 -->
<g id="node15" class="node">
<title>Node15</title>
<g id="a_node15"><a xlink:href="polarpointf_8h.html" target="_top" xlink:title=" ">
<polygon fill="white" stroke="black" points="708.31,-168.5 708.31,-187.5 866.31,-187.5 866.31,-168.5 708.31,-168.5"/>
<text text-anchor="middle" x="787.31" y="-175.5" font-family="Helvetica,sans-Serif" font-size="10.00">PerceptualColor/polarpointf.h</text>
</a>
</g>
</g>
<!-- Node13&#45;&gt;Node15 -->
<g id="edge23" class="edge">
<title>Node13&#45;&gt;Node15</title>
<path fill="none" stroke="midnightblue" d="M636.67,-224.44C667.05,-215.28 715.42,-200.69 749.12,-190.52"/>
<polygon fill="midnightblue" stroke="midnightblue" points="750.52,-193.76 759.08,-187.52 748.49,-187.05 750.52,-193.76"/>
</g>
<!-- Node14&#45;&gt;Node6 -->
<g id="edge22" class="edge">
<title>Node14&#45;&gt;Node6</title>
<path fill="none" stroke="midnightblue" d="M548.98,-168.08C548.72,-161.01 548.34,-150.86 548.01,-141.99"/>
<polygon fill="midnightblue" stroke="midnightblue" points="551.5,-141.61 547.63,-131.75 544.51,-141.87 551.5,-141.61"/>
</g>
<!-- Node15&#45;&gt;Node12 -->
<g id="edge24" class="edge">
<title>Node15&#45;&gt;Node12</title>
<path fill="none" stroke="midnightblue" d="M777.19,-168.32C767.78,-160.26 753.56,-148.08 742.24,-138.37"/>
<polygon fill="midnightblue" stroke="midnightblue" points="744.49,-135.68 734.61,-131.83 739.93,-141 744.49,-135.68"/>
</g>
<!-- Node16 -->
<g id="node16" class="node">
<title>Node16</title>
<g id="a_node16"><a xlink:title=" ">
<polygon fill="white" stroke="#bfbfbf" points="770.81,-112.5 770.81,-131.5 825.81,-131.5 825.81,-112.5 770.81,-112.5"/>
<text text-anchor="middle" x="798.31" y="-119.5" font-family="Helvetica,sans-Serif" font-size="10.00">QPointF</text>
</a>
</g>
</g>
<!-- Node15&#45;&gt;Node16 -->
<g id="edge25" class="edge">
<title>Node15&#45;&gt;Node16</title>
<path fill="none" stroke="midnightblue" d="M789.12,-168.08C790.58,-160.93 792.68,-150.64 794.5,-141.69"/>
<polygon fill="midnightblue" stroke="midnightblue" points="797.96,-142.25 796.53,-131.75 791.1,-140.85 797.96,-142.25"/>
</g>
<!-- Node17 -->
<g id="node17" class="node">
<title>Node17</title>
<g id="a_node17"><a xlink:title=" ">
<polygon fill="white" stroke="#bfbfbf" points="843.81,-112.5 843.81,-131.5 914.81,-131.5 914.81,-112.5 843.81,-112.5"/>
<text text-anchor="middle" x="879.31" y="-119.5" font-family="Helvetica,sans-Serif" font-size="10.00">QMetaType</text>
</a>
</g>
</g>
<!-- Node15&#45;&gt;Node17 -->
<g id="edge26" class="edge">
<title>Node15&#45;&gt;Node17</title>
<path fill="none" stroke="midnightblue" d="M802.09,-168.32C816.58,-159.82 838.88,-146.73 855.8,-136.8"/>
<polygon fill="midnightblue" stroke="midnightblue" points="857.71,-139.74 864.56,-131.65 854.17,-133.7 857.71,-139.74"/>
</g>
</g>
</svg>
