<?xml version="1.0" encoding="UTF-8" standalone="no"?>
<!DOCTYPE svg PUBLIC "-//W3C//DTD SVG 1.1//EN"
 "http://www.w3.org/Graphics/SVG/1.1/DTD/svg11.dtd">
<!-- Generated by graphviz version 2.43.0 (0)
 -->
<!-- Title: src/wheelcolorpicker.cpp Pages: 1 -->
<svg width="1335pt" height="364pt"
 viewBox="0.00 0.00 1334.64 364.00" xmlns="http://www.w3.org/2000/svg" xmlns:xlink="http://www.w3.org/1999/xlink">
<g id="graph0" class="graph" transform="scale(1 1) rotate(0) translate(4 360)">
<title>src/wheelcolorpicker.cpp</title>
<polygon fill="white" stroke="transparent" points="-4,4 -4,-360 1330.64,-360 1330.64,4 -4,4"/>
<!-- Node1 -->
<g id="node1" class="node">
<title>Node1</title>
<g id="a_node1"><a xlink:title=" ">
<polygon fill="#bfbfbf" stroke="black" points="996.64,-336.5 996.64,-355.5 1132.64,-355.5 1132.64,-336.5 996.64,-336.5"/>
<text text-anchor="middle" x="1064.64" y="-343.5" font-family="Helvetica,sans-Serif" font-size="10.00">src/wheelcolorpicker.cpp</text>
</a>
</g>
</g>
<!-- Node2 -->
<g id="node2" class="node">
<title>Node2</title>
<g id="a_node2"><a xlink:href="wheelcolorpicker_8h.html" target="_top" xlink:title=" ">
<polygon fill="white" stroke="black" points="642.64,-280.5 642.64,-299.5 830.64,-299.5 830.64,-280.5 642.64,-280.5"/>
<text text-anchor="middle" x="736.64" y="-287.5" font-family="Helvetica,sans-Serif" font-size="10.00">PerceptualColor/wheelcolorpicker.h</text>
</a>
</g>
</g>
<!-- Node1&#45;&gt;Node2 -->
<g id="edge1" class="edge">
<title>Node1&#45;&gt;Node2</title>
<path fill="none" stroke="midnightblue" d="M1012.67,-336.44C954.49,-326.87 860.28,-311.36 798.39,-301.17"/>
<polygon fill="midnightblue" stroke="midnightblue" points="798.8,-297.69 788.37,-299.52 797.67,-304.59 798.8,-297.69"/>
</g>
<!-- Node13 -->
<g id="node13" class="node">
<title>Node13</title>
<g id="a_node13"><a xlink:title=" ">
<polygon fill="white" stroke="#bfbfbf" points="893.64,-112.5 893.64,-131.5 949.64,-131.5 949.64,-112.5 893.64,-112.5"/>
<text text-anchor="middle" x="921.64" y="-119.5" font-family="Helvetica,sans-Serif" font-size="10.00">QDebug</text>
</a>
</g>
</g>
<!-- Node1&#45;&gt;Node13 -->
<g id="edge33" class="edge">
<title>Node1&#45;&gt;Node13</title>
<path fill="none" stroke="midnightblue" d="M1039.14,-336.42C1021.34,-329.23 998.26,-317.34 983.64,-300 943.48,-252.36 928.72,-177.04 923.82,-142.04"/>
<polygon fill="midnightblue" stroke="midnightblue" points="927.25,-141.29 922.52,-131.82 920.31,-142.18 927.25,-141.29"/>
</g>
<!-- Node19 -->
<g id="node19" class="node">
<title>Node19</title>
<g id="a_node19"><a xlink:title=" ">
<polygon fill="white" stroke="#bfbfbf" points="992.14,-280.5 992.14,-299.5 1043.14,-299.5 1043.14,-280.5 992.14,-280.5"/>
<text text-anchor="middle" x="1017.64" y="-287.5" font-family="Helvetica,sans-Serif" font-size="10.00">math.h</text>
</a>
</g>
</g>
<!-- Node1&#45;&gt;Node19 -->
<g id="edge31" class="edge">
<title>Node1&#45;&gt;Node19</title>
<path fill="none" stroke="midnightblue" d="M1056.88,-336.08C1050.1,-328.3 1040.1,-316.8 1031.88,-307.37"/>
<polygon fill="midnightblue" stroke="midnightblue" points="1034.46,-305 1025.25,-299.75 1029.18,-309.59 1034.46,-305"/>
</g>
<!-- Node20 -->
<g id="node20" class="node">
<title>Node20</title>
<g id="a_node20"><a xlink:title=" ">
<polygon fill="white" stroke="#bfbfbf" points="1061.14,-280.5 1061.14,-299.5 1162.14,-299.5 1162.14,-280.5 1061.14,-280.5"/>
<text text-anchor="middle" x="1111.64" y="-287.5" font-family="Helvetica,sans-Serif" font-size="10.00">QCoreApplication</text>
</a>
</g>
</g>
<!-- Node1&#45;&gt;Node20 -->
<g id="edge32" class="edge">
<title>Node1&#45;&gt;Node20</title>
<path fill="none" stroke="midnightblue" d="M1072.4,-336.08C1079.18,-328.3 1089.18,-316.8 1097.39,-307.37"/>
<polygon fill="midnightblue" stroke="midnightblue" points="1100.1,-309.59 1104.02,-299.75 1094.82,-305 1100.1,-309.59"/>
</g>
<!-- Node21 -->
<g id="node21" class="node">
<title>Node21</title>
<g id="a_node21"><a xlink:title=" ">
<polygon fill="white" stroke="#bfbfbf" points="1180.64,-280.5 1180.64,-299.5 1250.64,-299.5 1250.64,-280.5 1180.64,-280.5"/>
<text text-anchor="middle" x="1215.64" y="-287.5" font-family="Helvetica,sans-Serif" font-size="10.00">QKeyEvent</text>
</a>
</g>
</g>
<!-- Node1&#45;&gt;Node21 -->
<g id="edge34" class="edge">
<title>Node1&#45;&gt;Node21</title>
<path fill="none" stroke="midnightblue" d="M1088.56,-336.44C1113.86,-327.4 1153.94,-313.06 1182.32,-302.92"/>
<polygon fill="midnightblue" stroke="midnightblue" points="1183.59,-306.18 1191.82,-299.52 1181.23,-299.59 1183.59,-306.18"/>
</g>
<!-- Node22 -->
<g id="node22" class="node">
<title>Node22</title>
<g id="a_node22"><a xlink:title=" ">
<polygon fill="white" stroke="#bfbfbf" points="1268.64,-280.5 1268.64,-299.5 1326.64,-299.5 1326.64,-280.5 1268.64,-280.5"/>
<text text-anchor="middle" x="1297.64" y="-287.5" font-family="Helvetica,sans-Serif" font-size="10.00">QPainter</text>
</a>
</g>
</g>
<!-- Node1&#45;&gt;Node22 -->
<g id="edge35" class="edge">
<title>Node1&#45;&gt;Node22</title>
<path fill="none" stroke="midnightblue" d="M1102.04,-336.44C1139.23,-327.91 1198.2,-314.34 1258.51,-300.25"/>
<polygon fill="midnightblue" stroke="midnightblue" points="1259.66,-303.58 1268.6,-297.9 1258.06,-296.76 1259.66,-303.58"/>
</g>
<!-- Node3 -->
<g id="node3" class="node">
<title>Node3</title>
<g id="a_node3"><a xlink:href="chromalightnessdiagram_8h.html" target="_top" xlink:title=" ">
<polygon fill="white" stroke="black" points="518.14,-224.5 518.14,-243.5 745.14,-243.5 745.14,-224.5 518.14,-224.5"/>
<text text-anchor="middle" x="631.64" y="-231.5" font-family="Helvetica,sans-Serif" font-size="10.00">PerceptualColor/chromalightnessdiagram.h</text>
</a>
</g>
</g>
<!-- Node2&#45;&gt;Node3 -->
<g id="edge2" class="edge">
<title>Node2&#45;&gt;Node3</title>
<path fill="none" stroke="midnightblue" d="M719.77,-280.32C702.93,-271.66 676.83,-258.24 657.4,-248.25"/>
<polygon fill="midnightblue" stroke="midnightblue" points="658.96,-245.12 648.47,-243.65 655.76,-251.34 658.96,-245.12"/>
</g>
<!-- Node2&#45;&gt;Node13 -->
<g id="edge30" class="edge">
<title>Node2&#45;&gt;Node13</title>
<path fill="none" stroke="midnightblue" d="M764.01,-280.44C802.11,-267.07 870.5,-237.49 906.64,-188 916.35,-174.7 919.9,-156.12 921.14,-142.23"/>
<polygon fill="midnightblue" stroke="midnightblue" points="924.65,-142.07 921.72,-131.89 917.66,-141.68 924.65,-142.07"/>
</g>
<!-- Node14 -->
<g id="node14" class="node">
<title>Node14</title>
<g id="a_node14"><a xlink:href="simplecolorwheel_8h.html" target="_top" xlink:title=" ">
<polygon fill="white" stroke="black" points="145.64,-224.5 145.64,-243.5 337.64,-243.5 337.64,-224.5 145.64,-224.5"/>
<text text-anchor="middle" x="241.64" y="-231.5" font-family="Helvetica,sans-Serif" font-size="10.00">PerceptualColor/simplecolorwheel.h</text>
</a>
</g>
</g>
<!-- Node2&#45;&gt;Node14 -->
<g id="edge19" class="edge">
<title>Node2&#45;&gt;Node14</title>
<path fill="none" stroke="midnightblue" d="M658.48,-280.47C569.1,-270.72 423.14,-254.8 329.79,-244.62"/>
<polygon fill="midnightblue" stroke="midnightblue" points="330.12,-241.13 319.8,-243.53 329.36,-248.09 330.12,-241.13"/>
</g>
<!-- Node4 -->
<g id="node4" class="node">
<title>Node4</title>
<g id="a_node4"><a xlink:title=" ">
<polygon fill="white" stroke="#bfbfbf" points="566.14,-0.5 566.14,-19.5 621.14,-19.5 621.14,-0.5 566.14,-0.5"/>
<text text-anchor="middle" x="593.64" y="-7.5" font-family="Helvetica,sans-Serif" font-size="10.00">QImage</text>
</a>
</g>
</g>
<!-- Node3&#45;&gt;Node4 -->
<g id="edge3" class="edge">
<title>Node3&#45;&gt;Node4</title>
<path fill="none" stroke="midnightblue" d="M630.15,-224.3C624.56,-191.63 604.74,-75.87 596.88,-29.96"/>
<polygon fill="midnightblue" stroke="midnightblue" points="600.3,-29.15 595.16,-19.88 593.4,-30.33 600.3,-29.15"/>
</g>
<!-- Node5 -->
<g id="node5" class="node">
<title>Node5</title>
<g id="a_node5"><a xlink:title=" ">
<polygon fill="white" stroke="#bfbfbf" points="250.14,-56.5 250.14,-75.5 309.14,-75.5 309.14,-56.5 250.14,-56.5"/>
<text text-anchor="middle" x="279.64" y="-63.5" font-family="Helvetica,sans-Serif" font-size="10.00">QWidget</text>
</a>
</g>
</g>
<!-- Node3&#45;&gt;Node5 -->
<g id="edge4" class="edge">
<title>Node3&#45;&gt;Node5</title>
<path fill="none" stroke="midnightblue" d="M517.75,-231.75C433.82,-228.31 329.18,-217.89 298.64,-188 271.25,-161.19 273.01,-112.15 276.45,-85.47"/>
<polygon fill="midnightblue" stroke="midnightblue" points="279.92,-85.95 277.95,-75.54 273,-84.9 279.92,-85.95"/>
</g>
<!-- Node6 -->
<g id="node6" class="node">
<title>Node6</title>
<g id="a_node6"><a xlink:title=" ">
<polygon fill="white" stroke="#bfbfbf" points="641.14,-0.5 641.14,-19.5 696.14,-19.5 696.14,-0.5 641.14,-0.5"/>
<text text-anchor="middle" x="668.64" y="-7.5" font-family="Helvetica,sans-Serif" font-size="10.00">lcms2.h</text>
</a>
</g>
</g>
<!-- Node3&#45;&gt;Node6 -->
<g id="edge5" class="edge">
<title>Node3&#45;&gt;Node6</title>
<path fill="none" stroke="midnightblue" d="M632.91,-224.48C635.89,-204.71 643.57,-154.15 650.64,-112 655.46,-83.23 661.48,-49.94 665.19,-29.68"/>
<polygon fill="midnightblue" stroke="midnightblue" points="668.67,-30.1 667.04,-19.64 661.79,-28.84 668.67,-30.1"/>
</g>
<!-- Node7 -->
<g id="node7" class="node">
<title>Node7</title>
<g id="a_node7"><a xlink:href="abstractdiagram_8h.html" target="_top" xlink:title=" ">
<polygon fill="white" stroke="black" points="307.64,-112.5 307.64,-131.5 493.64,-131.5 493.64,-112.5 307.64,-112.5"/>
<text text-anchor="middle" x="400.64" y="-119.5" font-family="Helvetica,sans-Serif" font-size="10.00">PerceptualColor/abstractdiagram.h</text>
</a>
</g>
</g>
<!-- Node3&#45;&gt;Node7 -->
<g id="edge6" class="edge">
<title>Node3&#45;&gt;Node7</title>
<path fill="none" stroke="midnightblue" d="M614.49,-224.45C589.21,-211.9 540.44,-187.81 498.64,-168 475.34,-156.96 448.74,-144.77 429.14,-135.87"/>
<polygon fill="midnightblue" stroke="midnightblue" points="430.41,-132.6 419.86,-131.66 427.52,-138.98 430.41,-132.6"/>
</g>
<!-- Node8 -->
<g id="node8" class="node">
<title>Node8</title>
<g id="a_node8"><a xlink:href="fullcolordescription_8h.html" target="_top" xlink:title=" ">
<polygon fill="white" stroke="black" points="697.64,-168.5 697.64,-187.5 897.64,-187.5 897.64,-168.5 697.64,-168.5"/>
<text text-anchor="middle" x="797.64" y="-175.5" font-family="Helvetica,sans-Serif" font-size="10.00">PerceptualColor/fullcolordescription.h</text>
</a>
</g>
</g>
<!-- Node3&#45;&gt;Node8 -->
<g id="edge8" class="edge">
<title>Node3&#45;&gt;Node8</title>
<path fill="none" stroke="midnightblue" d="M657.94,-224.44C685.99,-215.32 730.58,-200.81 761.82,-190.65"/>
<polygon fill="midnightblue" stroke="midnightblue" points="763.03,-193.94 771.46,-187.52 760.87,-187.28 763.03,-193.94"/>
</g>
<!-- Node11 -->
<g id="node11" class="node">
<title>Node11</title>
<g id="a_node11"><a xlink:href="rgbcolorspace_8h.html" target="_top" xlink:title=" ">
<polygon fill="white" stroke="black" points="659.64,-112.5 659.64,-131.5 833.64,-131.5 833.64,-112.5 659.64,-112.5"/>
<text text-anchor="middle" x="746.64" y="-119.5" font-family="Helvetica,sans-Serif" font-size="10.00">PerceptualColor/rgbcolorspace.h</text>
</a>
</g>
</g>
<!-- Node3&#45;&gt;Node11 -->
<g id="edge18" class="edge">
<title>Node3&#45;&gt;Node11</title>
<path fill="none" stroke="midnightblue" d="M638.53,-224.11C648.78,-211.13 668.97,-186.52 688.64,-168 700.32,-157 714.54,-145.93 725.98,-137.53"/>
<polygon fill="midnightblue" stroke="midnightblue" points="728.04,-140.36 734.09,-131.67 723.94,-134.69 728.04,-140.36"/>
</g>
<!-- Node7&#45;&gt;Node5 -->
<g id="edge7" class="edge">
<title>Node7&#45;&gt;Node5</title>
<path fill="none" stroke="midnightblue" d="M381.47,-112.44C361.73,-103.64 330.75,-89.81 308.14,-79.72"/>
<polygon fill="midnightblue" stroke="midnightblue" points="309.28,-76.4 298.72,-75.52 306.43,-82.79 309.28,-76.4"/>
</g>
<!-- Node9 -->
<g id="node9" class="node">
<title>Node9</title>
<g id="a_node9"><a xlink:href="helper_8h.html" target="_top" xlink:title=" ">
<polygon fill="white" stroke="black" points="771.64,-56.5 771.64,-75.5 907.64,-75.5 907.64,-56.5 771.64,-56.5"/>
<text text-anchor="middle" x="839.64" y="-63.5" font-family="Helvetica,sans-Serif" font-size="10.00">PerceptualColor/helper.h</text>
</a>
</g>
</g>
<!-- Node8&#45;&gt;Node9 -->
<g id="edge9" class="edge">
<title>Node8&#45;&gt;Node9</title>
<path fill="none" stroke="midnightblue" d="M810.7,-168.44C821.55,-160.47 836.21,-147.52 842.64,-132 848.72,-117.32 847.21,-99.16 844.62,-85.76"/>
<polygon fill="midnightblue" stroke="midnightblue" points="847.99,-84.78 842.33,-75.82 841.16,-86.35 847.99,-84.78"/>
</g>
<!-- Node8&#45;&gt;Node11 -->
<g id="edge13" class="edge">
<title>Node8&#45;&gt;Node11</title>
<path fill="none" stroke="midnightblue" d="M789.22,-168.08C781.79,-160.22 770.79,-148.57 761.83,-139.08"/>
<polygon fill="midnightblue" stroke="midnightblue" points="764.31,-136.62 754.9,-131.75 759.22,-141.42 764.31,-136.62"/>
</g>
<!-- Node8&#45;&gt;Node13 -->
<g id="edge17" class="edge">
<title>Node8&#45;&gt;Node13</title>
<path fill="none" stroke="midnightblue" d="M817.29,-168.44C837.6,-159.6 869.54,-145.69 892.74,-135.59"/>
<polygon fill="midnightblue" stroke="midnightblue" points="894.31,-138.72 902.08,-131.52 891.52,-132.3 894.31,-138.72"/>
</g>
<!-- Node9&#45;&gt;Node4 -->
<g id="edge10" class="edge">
<title>Node9&#45;&gt;Node4</title>
<path fill="none" stroke="midnightblue" d="M799.54,-56.44C757.81,-47.5 690.6,-32.99 632.64,-20 632.18,-19.9 631.72,-19.79 631.26,-19.69"/>
<polygon fill="midnightblue" stroke="midnightblue" points="631.85,-16.24 621.33,-17.44 630.3,-23.06 631.85,-16.24"/>
</g>
<!-- Node9&#45;&gt;Node6 -->
<g id="edge12" class="edge">
<title>Node9&#45;&gt;Node6</title>
<path fill="none" stroke="midnightblue" d="M812.54,-56.44C783.65,-47.32 737.71,-32.81 705.53,-22.65"/>
<polygon fill="midnightblue" stroke="midnightblue" points="706.2,-19.19 695.61,-19.52 704.09,-25.87 706.2,-19.19"/>
</g>
<!-- Node10 -->
<g id="node10" class="node">
<title>Node10</title>
<g id="a_node10"><a xlink:title=" ">
<polygon fill="white" stroke="#bfbfbf" points="798.14,-0.5 798.14,-19.5 881.14,-19.5 881.14,-0.5 798.14,-0.5"/>
<text text-anchor="middle" x="839.64" y="-7.5" font-family="Helvetica,sans-Serif" font-size="10.00">QWheelEvent</text>
</a>
</g>
</g>
<!-- Node9&#45;&gt;Node10 -->
<g id="edge11" class="edge">
<title>Node9&#45;&gt;Node10</title>
<path fill="none" stroke="midnightblue" d="M839.64,-56.08C839.64,-49.01 839.64,-38.86 839.64,-29.99"/>
<polygon fill="midnightblue" stroke="midnightblue" points="843.14,-29.75 839.64,-19.75 836.14,-29.75 843.14,-29.75"/>
</g>
<!-- Node11&#45;&gt;Node6 -->
<g id="edge15" class="edge">
<title>Node11&#45;&gt;Node6</title>
<path fill="none" stroke="midnightblue" d="M730.89,-112.49C717.79,-104.64 699.58,-91.83 688.64,-76 679.09,-62.19 673.98,-43.67 671.32,-29.93"/>
<polygon fill="midnightblue" stroke="midnightblue" points="674.72,-29.01 669.62,-19.72 667.81,-30.16 674.72,-29.01"/>
</g>
<!-- Node11&#45;&gt;Node9 -->
<g id="edge16" class="edge">
<title>Node11&#45;&gt;Node9</title>
<path fill="none" stroke="midnightblue" d="M761.58,-112.32C776.22,-103.82 798.77,-90.73 815.88,-80.8"/>
<polygon fill="midnightblue" stroke="midnightblue" points="817.84,-83.7 824.73,-75.65 814.33,-77.65 817.84,-83.7"/>
</g>
<!-- Node12 -->
<g id="node12" class="node">
<title>Node12</title>
<g id="a_node12"><a xlink:title=" ">
<polygon fill="white" stroke="#bfbfbf" points="697.64,-56.5 697.64,-75.5 753.64,-75.5 753.64,-56.5 697.64,-56.5"/>
<text text-anchor="middle" x="725.64" y="-63.5" font-family="Helvetica,sans-Serif" font-size="10.00">QObject</text>
</a>
</g>
</g>
<!-- Node11&#45;&gt;Node12 -->
<g id="edge14" class="edge">
<title>Node11&#45;&gt;Node12</title>
<path fill="none" stroke="midnightblue" d="M743.17,-112.08C740.33,-104.77 736.21,-94.18 732.68,-85.1"/>
<polygon fill="midnightblue" stroke="midnightblue" points="735.93,-83.8 729.04,-75.75 729.4,-86.34 735.93,-83.8"/>
</g>
<!-- Node14&#45;&gt;Node4 -->
<g id="edge20" class="edge">
<title>Node14&#45;&gt;Node4</title>
<path fill="none" stroke="midnightblue" d="M145.61,-226.62C89.46,-220.66 26.24,-209.33 8.64,-188 -2.37,-174.66 -4.99,-136.9 15.64,-112 84.81,-28.52 438.54,-14.04 555.81,-11.53"/>
<polygon fill="midnightblue" stroke="midnightblue" points="556.16,-15.02 566.09,-11.32 556.02,-8.02 556.16,-15.02"/>
</g>
<!-- Node14&#45;&gt;Node5 -->
<g id="edge21" class="edge">
<title>Node14&#45;&gt;Node5</title>
<path fill="none" stroke="midnightblue" d="M243.02,-224.42C246.29,-204.52 255.04,-153.72 265.64,-112 267.91,-103.07 270.89,-93.28 273.52,-85.13"/>
<polygon fill="midnightblue" stroke="midnightblue" points="276.87,-86.14 276.68,-75.55 270.22,-83.95 276.87,-86.14"/>
</g>
<!-- Node14&#45;&gt;Node6 -->
<g id="edge29" class="edge">
<title>Node14&#45;&gt;Node6</title>
<path fill="none" stroke="midnightblue" d="M238.06,-224.19C227.1,-195.63 197.33,-104.59 241.64,-56 270.88,-23.92 587.8,-27.02 630.64,-20 630.74,-19.98 630.85,-19.97 630.95,-19.95"/>
<polygon fill="midnightblue" stroke="midnightblue" points="631.76,-23.36 640.92,-18.04 630.44,-16.48 631.76,-23.36"/>
</g>
<!-- Node14&#45;&gt;Node11 -->
<g id="edge28" class="edge">
<title>Node14&#45;&gt;Node11</title>
<path fill="none" stroke="midnightblue" d="M298.3,-224.46C350.55,-216.26 430.15,-202.94 498.64,-188 572.93,-171.79 658.52,-148.27 707.24,-134.41"/>
<polygon fill="midnightblue" stroke="midnightblue" points="708.4,-137.72 717.05,-131.61 706.48,-130.99 708.4,-137.72"/>
</g>
<!-- Node15 -->
<g id="node15" class="node">
<title>Node15</title>
<g id="a_node15"><a xlink:href="circulardiagram_8h.html" target="_top" xlink:title=" ">
<polygon fill="white" stroke="black" points="307.64,-168.5 307.64,-187.5 489.64,-187.5 489.64,-168.5 307.64,-168.5"/>
<text text-anchor="middle" x="398.64" y="-175.5" font-family="Helvetica,sans-Serif" font-size="10.00">PerceptualColor/circulardiagram.h</text>
</a>
</g>
</g>
<!-- Node14&#45;&gt;Node15 -->
<g id="edge22" class="edge">
<title>Node14&#45;&gt;Node15</title>
<path fill="none" stroke="midnightblue" d="M266.52,-224.44C292.93,-215.36 334.85,-200.94 364.38,-190.78"/>
<polygon fill="midnightblue" stroke="midnightblue" points="365.56,-194.08 373.88,-187.52 363.28,-187.46 365.56,-194.08"/>
</g>
<!-- Node16 -->
<g id="node16" class="node">
<title>Node16</title>
<g id="a_node16"><a xlink:href="polarpointf_8h.html" target="_top" xlink:title=" ">
<polygon fill="white" stroke="black" points="17.64,-168.5 17.64,-187.5 175.64,-187.5 175.64,-168.5 17.64,-168.5"/>
<text text-anchor="middle" x="96.64" y="-175.5" font-family="Helvetica,sans-Serif" font-size="10.00">PerceptualColor/polarpointf.h</text>
</a>
</g>
</g>
<!-- Node14&#45;&gt;Node16 -->
<g id="edge24" class="edge">
<title>Node14&#45;&gt;Node16</title>
<path fill="none" stroke="midnightblue" d="M218.66,-224.44C194.48,-215.44 156.22,-201.19 128.99,-191.05"/>
<polygon fill="midnightblue" stroke="midnightblue" points="130.1,-187.73 119.51,-187.52 127.66,-194.29 130.1,-187.73"/>
</g>
<!-- Node15&#45;&gt;Node7 -->
<g id="edge23" class="edge">
<title>Node15&#45;&gt;Node7</title>
<path fill="none" stroke="midnightblue" d="M398.97,-168.08C399.23,-161.01 399.61,-150.86 399.94,-141.99"/>
<polygon fill="midnightblue" stroke="midnightblue" points="403.44,-141.87 400.31,-131.75 396.45,-141.61 403.44,-141.87"/>
</g>
<!-- Node16&#45;&gt;Node13 -->
<g id="edge25" class="edge">
<title>Node16&#45;&gt;Node13</title>
<path fill="none" stroke="midnightblue" d="M175.69,-173.62C311.98,-167.47 599.95,-153.13 842.64,-132 855.99,-130.84 870.57,-129.26 883.53,-127.76"/>
<polygon fill="midnightblue" stroke="midnightblue" points="884,-131.22 893.52,-126.57 883.18,-124.27 884,-131.22"/>
</g>
<!-- Node17 -->
<g id="node17" class="node">
<title>Node17</title>
<g id="a_node17"><a xlink:title=" ">
<polygon fill="white" stroke="#bfbfbf" points="25.14,-112.5 25.14,-131.5 80.14,-131.5 80.14,-112.5 25.14,-112.5"/>
<text text-anchor="middle" x="52.64" y="-119.5" font-family="Helvetica,sans-Serif" font-size="10.00">QPointF</text>
</a>
</g>
</g>
<!-- Node16&#45;&gt;Node17 -->
<g id="edge26" class="edge">
<title>Node16&#45;&gt;Node17</title>
<path fill="none" stroke="midnightblue" d="M89.37,-168.08C83.09,-160.38 73.85,-149.03 66.21,-139.65"/>
<polygon fill="midnightblue" stroke="midnightblue" points="68.8,-137.29 59.77,-131.75 63.37,-141.71 68.8,-137.29"/>
</g>
<!-- Node18 -->
<g id="node18" class="node">
<title>Node18</title>
<g id="a_node18"><a xlink:title=" ">
<polygon fill="white" stroke="#bfbfbf" points="98.14,-112.5 98.14,-131.5 169.14,-131.5 169.14,-112.5 98.14,-112.5"/>
<text text-anchor="middle" x="133.64" y="-119.5" font-family="Helvetica,sans-Serif" font-size="10.00">QMetaType</text>
</a>
</g>
</g>
<!-- Node16&#45;&gt;Node18 -->
<g id="edge27" class="edge">
<title>Node16&#45;&gt;Node18</title>
<path fill="none" stroke="midnightblue" d="M102.75,-168.08C107.92,-160.53 115.48,-149.49 121.83,-140.23"/>
<polygon fill="midnightblue" stroke="midnightblue" points="124.88,-141.98 127.64,-131.75 119.1,-138.02 124.88,-141.98"/>
</g>
</g>
</svg>
