<?xml version="1.0" encoding="UTF-8" standalone="no"?>
<!DOCTYPE svg PUBLIC "-//W3C//DTD SVG 1.1//EN"
 "http://www.w3.org/Graphics/SVG/1.1/DTD/svg11.dtd">
<!-- Generated by graphviz version 2.43.0 (0)
 -->
<!-- Title: include/PerceptualColor/abstractdiagram.h Pages: 1 -->
<svg width="1239pt" height="218pt"
 viewBox="0.00 0.00 1239.00 218.00" xmlns="http://www.w3.org/2000/svg" xmlns:xlink="http://www.w3.org/1999/xlink">
<g id="graph0" class="graph" transform="scale(1 1) rotate(0) translate(4 214)">
<title>include/PerceptualColor/abstractdiagram.h</title>
<polygon fill="white" stroke="transparent" points="-4,4 -4,-214 1235,-214 1235,4 -4,4"/>
<!-- Node1 -->
<g id="node1" class="node">
<title>Node1</title>
<g id="a_node1"><a xlink:title=" ">
<polygon fill="#bfbfbf" stroke="black" points="504,-179.5 504,-209.5 636,-209.5 636,-179.5 504,-179.5"/>
<text text-anchor="start" x="512" y="-197.5" font-family="Helvetica,sans-Serif" font-size="10.00">include/PerceptualColor</text>
<text text-anchor="middle" x="570" y="-186.5" font-family="Helvetica,sans-Serif" font-size="10.00">/abstractdiagram.h</text>
</a>
</g>
</g>
<!-- Node2 -->
<g id="node2" class="node">
<title>Node2</title>
<g id="a_node2"><a xlink:href="abstractdiagram_8cpp.html" target="_top" xlink:title=" ">
<polygon fill="white" stroke="black" points="0,-56.5 0,-75.5 134,-75.5 134,-56.5 0,-56.5"/>
<text text-anchor="middle" x="67" y="-63.5" font-family="Helvetica,sans-Serif" font-size="10.00">src/abstractdiagram.cpp</text>
</a>
</g>
</g>
<!-- Node1&#45;&gt;Node2 -->
<g id="edge1" class="edge">
<title>Node1&#45;&gt;Node2</title>
<path fill="none" stroke="midnightblue" d="M493.36,-190.28C364.64,-184.17 116.09,-169.12 86,-143 66.28,-125.88 65.45,-91.69 66.27,-75.67"/>
<polygon fill="midnightblue" stroke="midnightblue" points="493.39,-193.78 503.54,-190.75 493.72,-186.79 493.39,-193.78"/>
</g>
<!-- Node3 -->
<g id="node3" class="node">
<title>Node3</title>
<g id="a_node3"><a xlink:href="abstractdiagram__p_8h.html" target="_top" xlink:title=" ">
<polygon fill="white" stroke="black" points="95,-118 95,-137 229,-137 229,-118 95,-118"/>
<text text-anchor="middle" x="162" y="-125" font-family="Helvetica,sans-Serif" font-size="10.00">src/abstractdiagram_p.h</text>
</a>
</g>
</g>
<!-- Node1&#45;&gt;Node3 -->
<g id="edge2" class="edge">
<title>Node1&#45;&gt;Node3</title>
<path fill="none" stroke="midnightblue" d="M493.64,-182.72C426.26,-173 325.45,-157.99 238,-143 227.41,-141.18 216.01,-139.09 205.35,-137.06"/>
<polygon fill="midnightblue" stroke="midnightblue" points="493.34,-186.21 503.74,-184.17 494.34,-179.28 493.34,-186.21"/>
</g>
<!-- Node4 -->
<g id="node4" class="node">
<title>Node4</title>
<g id="a_node4"><a xlink:href="chromalightnessdiagram_8h.html" target="_top" xlink:title=" ">
<polygon fill="white" stroke="black" points="247,-118 247,-137 411,-137 411,-118 247,-118"/>
<text text-anchor="middle" x="329" y="-125" font-family="Helvetica,sans-Serif" font-size="10.00">src/chromalightnessdiagram.h</text>
</a>
</g>
</g>
<!-- Node1&#45;&gt;Node4 -->
<g id="edge4" class="edge">
<title>Node1&#45;&gt;Node4</title>
<path fill="none" stroke="midnightblue" d="M508.19,-176.83C461.03,-164.11 397.99,-147.11 360.62,-137.03"/>
<polygon fill="midnightblue" stroke="midnightblue" points="507.44,-180.25 518,-179.48 509.26,-173.49 507.44,-180.25"/>
</g>
<!-- Node9 -->
<g id="node9" class="node">
<title>Node9</title>
<g id="a_node9"><a xlink:href="colorpatch_8cpp.html" target="_top" xlink:title=" ">
<polygon fill="white" stroke="black" points="1029.5,-118 1029.5,-137 1134.5,-137 1134.5,-118 1029.5,-118"/>
<text text-anchor="middle" x="1082" y="-125" font-family="Helvetica,sans-Serif" font-size="10.00">src/colorpatch.cpp</text>
</a>
</g>
</g>
<!-- Node1&#45;&gt;Node9 -->
<g id="edge11" class="edge">
<title>Node1&#45;&gt;Node9</title>
<path fill="none" stroke="midnightblue" d="M646.4,-187.69C736.24,-180.22 889.64,-165.48 1020,-143 1029.37,-141.38 1039.44,-139.22 1048.68,-137.05"/>
<polygon fill="midnightblue" stroke="midnightblue" points="645.98,-184.21 636.3,-188.52 646.56,-191.19 645.98,-184.21"/>
</g>
<!-- Node10 -->
<g id="node10" class="node">
<title>Node10</title>
<g id="a_node10"><a xlink:href="chromahuediagram_8h.html" target="_top" xlink:title=" ">
<polygon fill="white" stroke="black" points="729,-112.5 729,-142.5 861,-142.5 861,-112.5 729,-112.5"/>
<text text-anchor="start" x="737" y="-130.5" font-family="Helvetica,sans-Serif" font-size="10.00">include/PerceptualColor</text>
<text text-anchor="middle" x="795" y="-119.5" font-family="Helvetica,sans-Serif" font-size="10.00">/chromahuediagram.h</text>
</a>
</g>
</g>
<!-- Node1&#45;&gt;Node10 -->
<g id="edge12" class="edge">
<title>Node1&#45;&gt;Node10</title>
<path fill="none" stroke="midnightblue" d="M628.57,-176.58C665.11,-166.02 711.6,-152.59 746.15,-142.61"/>
<polygon fill="midnightblue" stroke="midnightblue" points="627.18,-173.34 618.54,-179.48 629.12,-180.06 627.18,-173.34"/>
</g>
<!-- Node15 -->
<g id="node15" class="node">
<title>Node15</title>
<g id="a_node15"><a xlink:href="colorwheel_8h.html" target="_top" xlink:title=" ">
<polygon fill="white" stroke="black" points="429,-112.5 429,-142.5 561,-142.5 561,-112.5 429,-112.5"/>
<text text-anchor="start" x="437" y="-130.5" font-family="Helvetica,sans-Serif" font-size="10.00">include/PerceptualColor</text>
<text text-anchor="middle" x="495" y="-119.5" font-family="Helvetica,sans-Serif" font-size="10.00">/colorwheel.h</text>
</a>
</g>
</g>
<!-- Node1&#45;&gt;Node15 -->
<g id="edge18" class="edge">
<title>Node1&#45;&gt;Node15</title>
<path fill="none" stroke="midnightblue" d="M545.88,-172.6C534.56,-162.78 521.36,-151.34 511.24,-142.58"/>
<polygon fill="midnightblue" stroke="midnightblue" points="543.88,-175.49 553.73,-179.4 548.46,-170.2 543.88,-175.49"/>
</g>
<!-- Node18 -->
<g id="node18" class="node">
<title>Node18</title>
<g id="a_node18"><a xlink:href="gradientslider_8h.html" target="_top" xlink:title=" ">
<polygon fill="white" stroke="black" points="879,-112.5 879,-142.5 1011,-142.5 1011,-112.5 879,-112.5"/>
<text text-anchor="start" x="887" y="-130.5" font-family="Helvetica,sans-Serif" font-size="10.00">include/PerceptualColor</text>
<text text-anchor="middle" x="945" y="-119.5" font-family="Helvetica,sans-Serif" font-size="10.00">/gradientslider.h</text>
</a>
</g>
</g>
<!-- Node1&#45;&gt;Node18 -->
<g id="edge24" class="edge">
<title>Node1&#45;&gt;Node18</title>
<path fill="none" stroke="midnightblue" d="M646.1,-181.21C706.79,-171.29 793.94,-156.75 870,-143 872.87,-142.48 875.8,-141.94 878.76,-141.4"/>
<polygon fill="midnightblue" stroke="midnightblue" points="645.52,-177.76 636.21,-182.83 646.65,-184.67 645.52,-177.76"/>
</g>
<!-- Node21 -->
<g id="node21" class="node">
<title>Node21</title>
<g id="a_node21"><a xlink:href="wheelcolorpicker_8h.html" target="_top" xlink:title=" ">
<polygon fill="white" stroke="black" points="579,-112.5 579,-142.5 711,-142.5 711,-112.5 579,-112.5"/>
<text text-anchor="start" x="587" y="-130.5" font-family="Helvetica,sans-Serif" font-size="10.00">include/PerceptualColor</text>
<text text-anchor="middle" x="645" y="-119.5" font-family="Helvetica,sans-Serif" font-size="10.00">/wheelcolorpicker.h</text>
</a>
</g>
</g>
<!-- Node1&#45;&gt;Node21 -->
<g id="edge29" class="edge">
<title>Node1&#45;&gt;Node21</title>
<path fill="none" stroke="midnightblue" d="M594.12,-172.6C605.44,-162.78 618.64,-151.34 628.76,-142.58"/>
<polygon fill="midnightblue" stroke="midnightblue" points="591.54,-170.2 586.27,-179.4 596.12,-175.49 591.54,-170.2"/>
</g>
<!-- Node3&#45;&gt;Node2 -->
<g id="edge3" class="edge">
<title>Node3&#45;&gt;Node2</title>
<path fill="none" stroke="midnightblue" d="M139.79,-112.59C121.45,-101.1 96.02,-85.18 80.59,-75.51"/>
<polygon fill="midnightblue" stroke="midnightblue" points="138.06,-115.63 148.39,-117.98 141.77,-109.7 138.06,-115.63"/>
</g>
<!-- Node5 -->
<g id="node5" class="node">
<title>Node5</title>
<g id="a_node5"><a xlink:href="chromalightnessdiagram_8cpp.html" target="_top" xlink:title=" ">
<polygon fill="white" stroke="black" points="150,-0.5 150,-19.5 326,-19.5 326,-0.5 150,-0.5"/>
<text text-anchor="middle" x="238" y="-7.5" font-family="Helvetica,sans-Serif" font-size="10.00">src/chromalightnessdiagram.cpp</text>
</a>
</g>
</g>
<!-- Node4&#45;&gt;Node5 -->
<g id="edge5" class="edge">
<title>Node4&#45;&gt;Node5</title>
<path fill="none" stroke="midnightblue" d="M277.57,-115.63C239.61,-106.45 192.6,-92.22 181,-76 165.54,-54.39 198.71,-31.59 220.65,-19.58"/>
<polygon fill="midnightblue" stroke="midnightblue" points="276.97,-119.09 287.5,-117.97 278.57,-112.27 276.97,-119.09"/>
</g>
<!-- Node6 -->
<g id="node6" class="node">
<title>Node6</title>
<g id="a_node6"><a xlink:href="chromalightnessdiagram__p_8h.html" target="_top" xlink:title=" ">
<polygon fill="white" stroke="black" points="190,-56.5 190,-75.5 366,-75.5 366,-56.5 190,-56.5"/>
<text text-anchor="middle" x="278" y="-63.5" font-family="Helvetica,sans-Serif" font-size="10.00">src/chromalightnessdiagram_p.h</text>
</a>
</g>
</g>
<!-- Node4&#45;&gt;Node6 -->
<g id="edge6" class="edge">
<title>Node4&#45;&gt;Node6</title>
<path fill="none" stroke="midnightblue" d="M315,-110.17C305.39,-98.95 293.01,-84.52 285.29,-75.51"/>
<polygon fill="midnightblue" stroke="midnightblue" points="312.53,-112.66 321.69,-117.98 317.84,-108.1 312.53,-112.66"/>
</g>
<!-- Node8 -->
<g id="node8" class="node">
<title>Node8</title>
<g id="a_node8"><a xlink:href="wheelcolorpicker__p_8h.html" target="_top" xlink:title=" ">
<polygon fill="white" stroke="black" points="547.5,-56.5 547.5,-75.5 684.5,-75.5 684.5,-56.5 547.5,-56.5"/>
<text text-anchor="middle" x="616" y="-63.5" font-family="Helvetica,sans-Serif" font-size="10.00">src/wheelcolorpicker_p.h</text>
</a>
</g>
</g>
<!-- Node4&#45;&gt;Node8 -->
<g id="edge9" class="edge">
<title>Node4&#45;&gt;Node8</title>
<path fill="none" stroke="midnightblue" d="M380.12,-115.9C435.76,-104.37 523.63,-86.15 574.96,-75.51"/>
<polygon fill="midnightblue" stroke="midnightblue" points="379.2,-112.52 370.12,-117.98 380.62,-119.37 379.2,-112.52"/>
</g>
<!-- Node6&#45;&gt;Node5 -->
<g id="edge7" class="edge">
<title>Node6&#45;&gt;Node5</title>
<path fill="none" stroke="midnightblue" d="M265.3,-47.86C258.37,-38.5 250.09,-27.33 244.48,-19.75"/>
<polygon fill="midnightblue" stroke="midnightblue" points="262.63,-50.13 271.39,-56.08 268.25,-45.96 262.63,-50.13"/>
</g>
<!-- Node7 -->
<g id="node7" class="node">
<title>Node7</title>
<g id="a_node7"><a xlink:href="wheelcolorpicker_8cpp.html" target="_top" xlink:title=" ">
<polygon fill="white" stroke="black" points="527,-0.5 527,-19.5 663,-19.5 663,-0.5 527,-0.5"/>
<text text-anchor="middle" x="595" y="-7.5" font-family="Helvetica,sans-Serif" font-size="10.00">src/wheelcolorpicker.cpp</text>
</a>
</g>
</g>
<!-- Node6&#45;&gt;Node7 -->
<g id="edge8" class="edge">
<title>Node6&#45;&gt;Node7</title>
<path fill="none" stroke="midnightblue" d="M338.3,-54.73C398.21,-44.52 488.99,-29.06 545.01,-19.52"/>
<polygon fill="midnightblue" stroke="midnightblue" points="337.5,-51.31 328.23,-56.44 338.68,-58.21 337.5,-51.31"/>
</g>
<!-- Node8&#45;&gt;Node7 -->
<g id="edge10" class="edge">
<title>Node8&#45;&gt;Node7</title>
<path fill="none" stroke="midnightblue" d="M608.88,-46.69C605.34,-37.59 601.23,-27.01 598.4,-19.75"/>
<polygon fill="midnightblue" stroke="midnightblue" points="605.65,-48.03 612.53,-56.08 612.17,-45.49 605.65,-48.03"/>
</g>
<!-- Node11 -->
<g id="node11" class="node">
<title>Node11</title>
<g id="a_node11"><a xlink:href="chromahuediagram_8cpp.html" target="_top" xlink:title=" ">
<polygon fill="white" stroke="black" points="885.5,-0.5 885.5,-19.5 1034.5,-19.5 1034.5,-0.5 885.5,-0.5"/>
<text text-anchor="middle" x="960" y="-7.5" font-family="Helvetica,sans-Serif" font-size="10.00">src/chromahuediagram.cpp</text>
</a>
</g>
</g>
<!-- Node10&#45;&gt;Node11 -->
<g id="edge13" class="edge">
<title>Node10&#45;&gt;Node11</title>
<path fill="none" stroke="midnightblue" d="M823.24,-106.49C843.25,-92.35 870.73,-72.96 895,-56 913.23,-43.27 934.41,-28.63 947.52,-19.6"/>
<polygon fill="midnightblue" stroke="midnightblue" points="821.03,-103.77 814.89,-112.41 825.07,-109.49 821.03,-103.77"/>
</g>
<!-- Node12 -->
<g id="node12" class="node">
<title>Node12</title>
<g id="a_node12"><a xlink:href="chromahuediagram__p_8h.html" target="_top" xlink:title=" ">
<polygon fill="white" stroke="black" points="904.5,-56.5 904.5,-75.5 1053.5,-75.5 1053.5,-56.5 904.5,-56.5"/>
<text text-anchor="middle" x="979" y="-63.5" font-family="Helvetica,sans-Serif" font-size="10.00">src/chromahuediagram_p.h</text>
</a>
</g>
</g>
<!-- Node10&#45;&gt;Node12 -->
<g id="edge14" class="edge">
<title>Node10&#45;&gt;Node12</title>
<path fill="none" stroke="midnightblue" d="M848.44,-109.22C882.6,-98.17 925.41,-84.33 952.49,-75.57"/>
<polygon fill="midnightblue" stroke="midnightblue" points="847.04,-105.99 838.61,-112.4 849.2,-112.65 847.04,-105.99"/>
</g>
<!-- Node13 -->
<g id="node13" class="node">
<title>Node13</title>
<g id="a_node13"><a xlink:href="colordialog__p_8h.html" target="_top" xlink:title=" ">
<polygon fill="white" stroke="black" points="741,-56.5 741,-75.5 849,-75.5 849,-56.5 741,-56.5"/>
<text text-anchor="middle" x="795" y="-63.5" font-family="Helvetica,sans-Serif" font-size="10.00">src/colordialog_p.h</text>
</a>
</g>
</g>
<!-- Node10&#45;&gt;Node13 -->
<g id="edge16" class="edge">
<title>Node10&#45;&gt;Node13</title>
<path fill="none" stroke="midnightblue" d="M795,-102.29C795,-92.86 795,-82.65 795,-75.66"/>
<polygon fill="midnightblue" stroke="midnightblue" points="791.5,-102.4 795,-112.4 798.5,-102.4 791.5,-102.4"/>
</g>
<!-- Node12&#45;&gt;Node11 -->
<g id="edge15" class="edge">
<title>Node12&#45;&gt;Node11</title>
<path fill="none" stroke="midnightblue" d="M972.45,-46.4C969.28,-37.36 965.61,-26.94 963.08,-19.75"/>
<polygon fill="midnightblue" stroke="midnightblue" points="969.24,-47.81 975.86,-56.08 975.85,-45.49 969.24,-47.81"/>
</g>
<!-- Node14 -->
<g id="node14" class="node">
<title>Node14</title>
<g id="a_node14"><a xlink:href="colordialog_8cpp.html" target="_top" xlink:title=" ">
<polygon fill="white" stroke="black" points="741,-0.5 741,-19.5 849,-19.5 849,-0.5 741,-0.5"/>
<text text-anchor="middle" x="795" y="-7.5" font-family="Helvetica,sans-Serif" font-size="10.00">src/colordialog.cpp</text>
</a>
</g>
</g>
<!-- Node13&#45;&gt;Node14 -->
<g id="edge17" class="edge">
<title>Node13&#45;&gt;Node14</title>
<path fill="none" stroke="midnightblue" d="M795,-45.8C795,-36.91 795,-26.78 795,-19.75"/>
<polygon fill="midnightblue" stroke="midnightblue" points="791.5,-46.08 795,-56.08 798.5,-46.08 791.5,-46.08"/>
</g>
<!-- Node15&#45;&gt;Node8 -->
<g id="edge23" class="edge">
<title>Node15&#45;&gt;Node8</title>
<path fill="none" stroke="midnightblue" d="M532.74,-107.94C554.67,-97.16 581.26,-84.08 598.39,-75.66"/>
<polygon fill="midnightblue" stroke="midnightblue" points="531.1,-104.85 523.68,-112.4 534.19,-111.13 531.1,-104.85"/>
</g>
<!-- Node16 -->
<g id="node16" class="node">
<title>Node16</title>
<g id="a_node16"><a xlink:href="colorwheel_8cpp.html" target="_top" xlink:title=" ">
<polygon fill="white" stroke="black" points="379.5,-0.5 379.5,-19.5 486.5,-19.5 486.5,-0.5 379.5,-0.5"/>
<text text-anchor="middle" x="433" y="-7.5" font-family="Helvetica,sans-Serif" font-size="10.00">src/colorwheel.cpp</text>
</a>
</g>
</g>
<!-- Node15&#45;&gt;Node16 -->
<g id="edge19" class="edge">
<title>Node15&#45;&gt;Node16</title>
<path fill="none" stroke="midnightblue" d="M447.05,-107.79C433.62,-100.07 420.62,-89.65 413,-76 402.64,-57.45 416.73,-32.85 426.02,-19.88"/>
<polygon fill="midnightblue" stroke="midnightblue" points="445.41,-110.88 455.88,-112.48 448.69,-104.7 445.41,-110.88"/>
</g>
<!-- Node17 -->
<g id="node17" class="node">
<title>Node17</title>
<g id="a_node17"><a xlink:href="colorwheel__p_8h.html" target="_top" xlink:title=" ">
<polygon fill="white" stroke="black" points="422.5,-56.5 422.5,-75.5 529.5,-75.5 529.5,-56.5 422.5,-56.5"/>
<text text-anchor="middle" x="476" y="-63.5" font-family="Helvetica,sans-Serif" font-size="10.00">src/colorwheel_p.h</text>
</a>
</g>
</g>
<!-- Node15&#45;&gt;Node17 -->
<g id="edge20" class="edge">
<title>Node15&#45;&gt;Node17</title>
<path fill="none" stroke="midnightblue" d="M487.37,-102.59C484.33,-93.08 481.02,-82.73 478.76,-75.66"/>
<polygon fill="midnightblue" stroke="midnightblue" points="484.12,-103.94 490.5,-112.4 490.79,-101.81 484.12,-103.94"/>
</g>
<!-- Node17&#45;&gt;Node7 -->
<g id="edge22" class="edge">
<title>Node17&#45;&gt;Node7</title>
<path fill="none" stroke="midnightblue" d="M504.14,-52.23C526.4,-42.13 556.86,-28.31 576.23,-19.52"/>
<polygon fill="midnightblue" stroke="midnightblue" points="502.52,-49.12 494.86,-56.44 505.41,-55.5 502.52,-49.12"/>
</g>
<!-- Node17&#45;&gt;Node16 -->
<g id="edge21" class="edge">
<title>Node17&#45;&gt;Node16</title>
<path fill="none" stroke="midnightblue" d="M462.58,-48.14C455.09,-38.74 446.06,-27.4 439.97,-19.75"/>
<polygon fill="midnightblue" stroke="midnightblue" points="459.93,-50.44 468.9,-56.08 465.41,-46.08 459.93,-50.44"/>
</g>
<!-- Node18&#45;&gt;Node13 -->
<g id="edge25" class="edge">
<title>Node18&#45;&gt;Node13</title>
<path fill="none" stroke="midnightblue" d="M900.02,-108.66C872.51,-97.75 838.54,-84.27 816.83,-75.66"/>
<polygon fill="midnightblue" stroke="midnightblue" points="898.87,-111.97 909.45,-112.4 901.45,-105.46 898.87,-111.97"/>
</g>
<!-- Node19 -->
<g id="node19" class="node">
<title>Node19</title>
<g id="a_node19"><a xlink:href="gradientslider_8cpp.html" target="_top" xlink:title=" ">
<polygon fill="white" stroke="black" points="1080.5,-0.5 1080.5,-19.5 1201.5,-19.5 1201.5,-0.5 1080.5,-0.5"/>
<text text-anchor="middle" x="1141" y="-7.5" font-family="Helvetica,sans-Serif" font-size="10.00">src/gradientslider.cpp</text>
</a>
</g>
</g>
<!-- Node18&#45;&gt;Node19 -->
<g id="edge26" class="edge">
<title>Node18&#45;&gt;Node19</title>
<path fill="none" stroke="midnightblue" d="M994.66,-108.66C1016.06,-100.07 1040.96,-88.84 1062,-76 1089.59,-59.16 1117.88,-33.41 1131.93,-19.93"/>
<polygon fill="midnightblue" stroke="midnightblue" points="993.13,-105.5 985.1,-112.42 995.69,-112.02 993.13,-105.5"/>
</g>
<!-- Node20 -->
<g id="node20" class="node">
<title>Node20</title>
<g id="a_node20"><a xlink:href="gradientslider__p_8h.html" target="_top" xlink:title=" ">
<polygon fill="white" stroke="black" points="1109,-56.5 1109,-75.5 1231,-75.5 1231,-56.5 1109,-56.5"/>
<text text-anchor="middle" x="1170" y="-63.5" font-family="Helvetica,sans-Serif" font-size="10.00">src/gradientslider_p.h</text>
</a>
</g>
</g>
<!-- Node18&#45;&gt;Node20 -->
<g id="edge27" class="edge">
<title>Node18&#45;&gt;Node20</title>
<path fill="none" stroke="midnightblue" d="M1007.96,-109.85C1050.2,-98.68 1104.09,-84.43 1137.83,-75.51"/>
<polygon fill="midnightblue" stroke="midnightblue" points="1006.81,-106.53 998.04,-112.47 1008.6,-113.3 1006.81,-106.53"/>
</g>
<!-- Node20&#45;&gt;Node19 -->
<g id="edge28" class="edge">
<title>Node20&#45;&gt;Node19</title>
<path fill="none" stroke="midnightblue" d="M1160.32,-46.98C1155.4,-37.82 1149.64,-27.09 1145.7,-19.75"/>
<polygon fill="midnightblue" stroke="midnightblue" points="1157.4,-48.93 1165.21,-56.08 1163.56,-45.62 1157.4,-48.93"/>
</g>
<!-- Node21&#45;&gt;Node7 -->
<g id="edge31" class="edge">
<title>Node21&#45;&gt;Node7</title>
<path fill="none" stroke="midnightblue" d="M673.7,-105.92C689.51,-91.97 703.92,-73.03 693,-56 680.82,-37.01 658.4,-25.93 638.07,-19.51"/>
<polygon fill="midnightblue" stroke="midnightblue" points="671.41,-103.27 665.93,-112.34 675.86,-108.67 671.41,-103.27"/>
</g>
<!-- Node21&#45;&gt;Node8 -->
<g id="edge32" class="edge">
<title>Node21&#45;&gt;Node8</title>
<path fill="none" stroke="midnightblue" d="M633.64,-103.2C628.93,-93.52 623.74,-82.88 620.22,-75.66"/>
<polygon fill="midnightblue" stroke="midnightblue" points="630.6,-104.94 638.13,-112.4 636.89,-101.88 630.6,-104.94"/>
</g>
<!-- Node21&#45;&gt;Node13 -->
<g id="edge30" class="edge">
<title>Node21&#45;&gt;Node13</title>
<path fill="none" stroke="midnightblue" d="M689.98,-108.66C717.49,-97.75 751.46,-84.27 773.17,-75.66"/>
<polygon fill="midnightblue" stroke="midnightblue" points="688.55,-105.46 680.55,-112.4 691.13,-111.97 688.55,-105.46"/>
</g>
</g>
</svg>
