<?xml version="1.0" encoding="UTF-8" standalone="no"?>
<!DOCTYPE svg PUBLIC "-//W3C//DTD SVG 1.1//EN"
 "http://www.w3.org/Graphics/SVG/1.1/DTD/svg11.dtd">
<!-- Generated by graphviz version 2.43.0 (0)
 -->
<!-- Title: src/abstractdiagram_p.h Pages: 1 -->
<svg width="496pt" height="252pt"
 viewBox="0.00 0.00 495.50 252.00" xmlns="http://www.w3.org/2000/svg" xmlns:xlink="http://www.w3.org/1999/xlink">
<g id="graph0" class="graph" transform="scale(1 1) rotate(0) translate(4 248)">
<title>src/abstractdiagram_p.h</title>
<polygon fill="white" stroke="transparent" points="-4,4 -4,-248 491.5,-248 491.5,4 -4,4"/>
<!-- Node1 -->
<g id="node1" class="node">
<title>Node1</title>
<g id="a_node1"><a xlink:title=" ">
<polygon fill="#bfbfbf" stroke="black" points="20,-224.5 20,-243.5 154,-243.5 154,-224.5 20,-224.5"/>
<text text-anchor="middle" x="87" y="-231.5" font-family="Helvetica,sans-Serif" font-size="10.00">src/abstractdiagram_p.h</text>
</a>
</g>
</g>
<!-- Node2 -->
<g id="node2" class="node">
<title>Node2</title>
<g id="a_node2"><a xlink:href="perceptualcolorglobal_8h.html" target="_top" xlink:title=" ">
<polygon fill="white" stroke="black" points="0,-56.5 0,-75.5 212,-75.5 212,-56.5 0,-56.5"/>
<text text-anchor="middle" x="106" y="-63.5" font-family="Helvetica,sans-Serif" font-size="10.00">PerceptualColor/perceptualcolorglobal.h</text>
</a>
</g>
</g>
<!-- Node1&#45;&gt;Node2 -->
<g id="edge1" class="edge">
<title>Node1&#45;&gt;Node2</title>
<path fill="none" stroke="midnightblue" d="M57.12,-224.39C39.46,-217.59 18.55,-206.15 8,-188 3.53,-180.31 4.66,-176.24 8,-168 23.3,-130.25 60.23,-98.84 84.13,-81.52"/>
<polygon fill="midnightblue" stroke="midnightblue" points="86.41,-84.19 92.58,-75.58 82.39,-78.46 86.41,-84.19"/>
</g>
<!-- Node4 -->
<g id="node4" class="node">
<title>Node4</title>
<g id="a_node4"><a xlink:href="perceptualcolorinternal_8h.html" target="_top" xlink:title=" ">
<polygon fill="white" stroke="black" points="17.5,-168.5 17.5,-187.5 156.5,-187.5 156.5,-168.5 17.5,-168.5"/>
<text text-anchor="middle" x="87" y="-175.5" font-family="Helvetica,sans-Serif" font-size="10.00">perceptualcolorinternal.h</text>
</a>
</g>
</g>
<!-- Node1&#45;&gt;Node4 -->
<g id="edge3" class="edge">
<title>Node1&#45;&gt;Node4</title>
<path fill="none" stroke="midnightblue" d="M87,-224.08C87,-217.01 87,-206.86 87,-197.99"/>
<polygon fill="midnightblue" stroke="midnightblue" points="90.5,-197.75 87,-187.75 83.5,-197.75 90.5,-197.75"/>
</g>
<!-- Node5 -->
<g id="node5" class="node">
<title>Node5</title>
<g id="a_node5"><a xlink:href="abstractdiagram_8h.html" target="_top" xlink:title=" ">
<polygon fill="white" stroke="black" points="175,-168.5 175,-187.5 361,-187.5 361,-168.5 175,-168.5"/>
<text text-anchor="middle" x="268" y="-175.5" font-family="Helvetica,sans-Serif" font-size="10.00">PerceptualColor/abstractdiagram.h</text>
</a>
</g>
</g>
<!-- Node1&#45;&gt;Node5 -->
<g id="edge5" class="edge">
<title>Node1&#45;&gt;Node5</title>
<path fill="none" stroke="midnightblue" d="M115.68,-224.44C146.53,-215.24 195.73,-200.56 229.83,-190.39"/>
<polygon fill="midnightblue" stroke="midnightblue" points="230.87,-193.73 239.45,-187.52 228.87,-187.02 230.87,-193.73"/>
</g>
<!-- Node3 -->
<g id="node3" class="node">
<title>Node3</title>
<g id="a_node3"><a xlink:title=" ">
<polygon fill="white" stroke="#bfbfbf" points="76.5,-0.5 76.5,-19.5 135.5,-19.5 135.5,-0.5 76.5,-0.5"/>
<text text-anchor="middle" x="106" y="-7.5" font-family="Helvetica,sans-Serif" font-size="10.00">QtGlobal</text>
</a>
</g>
</g>
<!-- Node2&#45;&gt;Node3 -->
<g id="edge2" class="edge">
<title>Node2&#45;&gt;Node3</title>
<path fill="none" stroke="midnightblue" d="M106,-56.08C106,-49.01 106,-38.86 106,-29.99"/>
<polygon fill="midnightblue" stroke="midnightblue" points="109.5,-29.75 106,-19.75 102.5,-29.75 109.5,-29.75"/>
</g>
<!-- Node4&#45;&gt;Node2 -->
<g id="edge4" class="edge">
<title>Node4&#45;&gt;Node2</title>
<path fill="none" stroke="midnightblue" d="M88.49,-168.37C91.56,-150.62 98.63,-109.67 102.79,-85.6"/>
<polygon fill="midnightblue" stroke="midnightblue" points="106.26,-86.04 104.52,-75.59 99.36,-84.85 106.26,-86.04"/>
</g>
<!-- Node5&#45;&gt;Node2 -->
<g id="edge6" class="edge">
<title>Node5&#45;&gt;Node2</title>
<path fill="none" stroke="midnightblue" d="M222.29,-168.42C197.03,-161.84 166.34,-150.62 144,-132 129.13,-119.61 118.75,-99.81 112.64,-85.31"/>
<polygon fill="midnightblue" stroke="midnightblue" points="115.85,-83.91 108.94,-75.88 109.33,-86.47 115.85,-83.91"/>
</g>
<!-- Node6 -->
<g id="node6" class="node">
<title>Node6</title>
<g id="a_node6"><a xlink:title=" ">
<polygon fill="white" stroke="#bfbfbf" points="153.5,-112.5 153.5,-131.5 212.5,-131.5 212.5,-112.5 153.5,-112.5"/>
<text text-anchor="middle" x="183" y="-119.5" font-family="Helvetica,sans-Serif" font-size="10.00">QWidget</text>
</a>
</g>
</g>
<!-- Node5&#45;&gt;Node6 -->
<g id="edge7" class="edge">
<title>Node5&#45;&gt;Node6</title>
<path fill="none" stroke="midnightblue" d="M254.34,-168.32C241.08,-159.9 220.73,-146.97 205.15,-137.07"/>
<polygon fill="midnightblue" stroke="midnightblue" points="206.94,-134.06 196.62,-131.65 203.19,-139.97 206.94,-134.06"/>
</g>
<!-- Node7 -->
<g id="node7" class="node">
<title>Node7</title>
<g id="a_node7"><a xlink:href="constpropagatinguniquepointer_8h.html" target="_top" xlink:title=" ">
<polygon fill="white" stroke="black" points="230.5,-112.5 230.5,-131.5 487.5,-131.5 487.5,-112.5 230.5,-112.5"/>
<text text-anchor="middle" x="359" y="-119.5" font-family="Helvetica,sans-Serif" font-size="10.00">PerceptualColor/constpropagatinguniquepointer.h</text>
</a>
</g>
</g>
<!-- Node5&#45;&gt;Node7 -->
<g id="edge8" class="edge">
<title>Node5&#45;&gt;Node7</title>
<path fill="none" stroke="midnightblue" d="M282.62,-168.32C296.95,-159.82 319.01,-146.73 335.75,-136.8"/>
<polygon fill="midnightblue" stroke="midnightblue" points="337.6,-139.77 344.42,-131.65 334.03,-133.75 337.6,-139.77"/>
</g>
<!-- Node7&#45;&gt;Node2 -->
<g id="edge9" class="edge">
<title>Node7&#45;&gt;Node2</title>
<path fill="none" stroke="midnightblue" d="M318.91,-112.44C274.68,-103 203.46,-87.8 155.72,-77.61"/>
<polygon fill="midnightblue" stroke="midnightblue" points="156.41,-74.18 145.9,-75.52 154.95,-81.03 156.41,-74.18"/>
</g>
<!-- Node8 -->
<g id="node8" class="node">
<title>Node8</title>
<g id="a_node8"><a xlink:title=" ">
<polygon fill="white" stroke="#bfbfbf" points="330,-56.5 330,-75.5 388,-75.5 388,-56.5 330,-56.5"/>
<text text-anchor="middle" x="359" y="-63.5" font-family="Helvetica,sans-Serif" font-size="10.00">memory</text>
</a>
</g>
</g>
<!-- Node7&#45;&gt;Node8 -->
<g id="edge10" class="edge">
<title>Node7&#45;&gt;Node8</title>
<path fill="none" stroke="midnightblue" d="M359,-112.08C359,-105.01 359,-94.86 359,-85.99"/>
<polygon fill="midnightblue" stroke="midnightblue" points="362.5,-85.75 359,-75.75 355.5,-85.75 362.5,-85.75"/>
</g>
</g>
</svg>
