<?xml version="1.0" encoding="UTF-8" standalone="no"?>
<!DOCTYPE svg PUBLIC "-//W3C//DTD SVG 1.1//EN"
 "http://www.w3.org/Graphics/SVG/1.1/DTD/svg11.dtd">
<!-- Generated by graphviz version 2.43.0 (0)
 -->
<!-- Title: src/abstractdiagram.cpp Pages: 1 -->
<svg width="1085pt" height="308pt"
 viewBox="0.00 0.00 1084.80 308.00" xmlns="http://www.w3.org/2000/svg" xmlns:xlink="http://www.w3.org/1999/xlink">
<g id="graph0" class="graph" transform="scale(1 1) rotate(0) translate(4 304)">
<title>src/abstractdiagram.cpp</title>
<polygon fill="white" stroke="transparent" points="-4,4 -4,-304 1080.8,-304 1080.8,4 -4,4"/>
<!-- Node1 -->
<g id="node1" class="node">
<title>Node1</title>
<g id="a_node1"><a xlink:title=" ">
<polygon fill="#bfbfbf" stroke="black" points="559.3,-280.5 559.3,-299.5 693.3,-299.5 693.3,-280.5 559.3,-280.5"/>
<text text-anchor="middle" x="626.3" y="-287.5" font-family="Helvetica,sans-Serif" font-size="10.00">src/abstractdiagram.cpp</text>
</a>
</g>
</g>
<!-- Node2 -->
<g id="node2" class="node">
<title>Node2</title>
<g id="a_node2"><a xlink:href="perceptualcolorglobal_8h.html" target="_top" xlink:title=" ">
<polygon fill="white" stroke="black" points="388.3,-56.5 388.3,-75.5 600.3,-75.5 600.3,-56.5 388.3,-56.5"/>
<text text-anchor="middle" x="494.3" y="-63.5" font-family="Helvetica,sans-Serif" font-size="10.00">PerceptualColor/perceptualcolorglobal.h</text>
</a>
</g>
</g>
<!-- Node1&#45;&gt;Node2 -->
<g id="edge1" class="edge">
<title>Node1&#45;&gt;Node2</title>
<path fill="none" stroke="midnightblue" d="M559.14,-282.66C412.12,-267.21 69.66,-222.09 4.3,-132 -0.92,-124.8 -1.69,-118.57 4.3,-112 29.02,-84.91 241.01,-73.92 377.94,-69.61"/>
<polygon fill="midnightblue" stroke="midnightblue" points="378.19,-73.11 388.08,-69.3 377.97,-66.11 378.19,-73.11"/>
</g>
<!-- Node4 -->
<g id="node4" class="node">
<title>Node4</title>
<g id="a_node4"><a xlink:href="perceptualcolorinternal_8h.html" target="_top" xlink:title=" ">
<polygon fill="white" stroke="black" points="404.8,-112.5 404.8,-131.5 543.8,-131.5 543.8,-112.5 404.8,-112.5"/>
<text text-anchor="middle" x="474.3" y="-119.5" font-family="Helvetica,sans-Serif" font-size="10.00">perceptualcolorinternal.h</text>
</a>
</g>
</g>
<!-- Node1&#45;&gt;Node4 -->
<g id="edge3" class="edge">
<title>Node1&#45;&gt;Node4</title>
<path fill="none" stroke="midnightblue" d="M559.14,-283.49C505.26,-277.5 435.84,-265.75 418.3,-244 391.68,-211 431.82,-163.28 456.82,-138.79"/>
<polygon fill="midnightblue" stroke="midnightblue" points="459.45,-141.13 464.3,-131.71 454.63,-136.04 459.45,-141.13"/>
</g>
<!-- Node5 -->
<g id="node5" class="node">
<title>Node5</title>
<g id="a_node5"><a xlink:href="abstractdiagram_8h.html" target="_top" xlink:title=" ">
<polygon fill="white" stroke="black" points="201.3,-168.5 201.3,-187.5 387.3,-187.5 387.3,-168.5 201.3,-168.5"/>
<text text-anchor="middle" x="294.3" y="-175.5" font-family="Helvetica,sans-Serif" font-size="10.00">PerceptualColor/abstractdiagram.h</text>
</a>
</g>
</g>
<!-- Node1&#45;&gt;Node5 -->
<g id="edge5" class="edge">
<title>Node1&#45;&gt;Node5</title>
<path fill="none" stroke="midnightblue" d="M559.1,-284.32C509.46,-279.01 441.11,-267.75 385.3,-244 356.75,-231.85 328.37,-209.53 311.09,-194.48"/>
<polygon fill="midnightblue" stroke="midnightblue" points="313.33,-191.79 303.54,-187.75 308.67,-197.02 313.33,-191.79"/>
</g>
<!-- Node9 -->
<g id="node9" class="node">
<title>Node9</title>
<g id="a_node9"><a xlink:href="abstractdiagram__p_8h.html" target="_top" xlink:title=" ">
<polygon fill="white" stroke="black" points="427.8,-224.5 427.8,-243.5 544.8,-243.5 544.8,-224.5 427.8,-224.5"/>
<text text-anchor="middle" x="486.3" y="-231.5" font-family="Helvetica,sans-Serif" font-size="10.00">abstractdiagram_p.h</text>
</a>
</g>
</g>
<!-- Node1&#45;&gt;Node9 -->
<g id="edge11" class="edge">
<title>Node1&#45;&gt;Node9</title>
<path fill="none" stroke="midnightblue" d="M604.12,-280.44C580.87,-271.48 544.15,-257.31 517.89,-247.18"/>
<polygon fill="midnightblue" stroke="midnightblue" points="518.97,-243.85 508.38,-243.52 516.45,-250.38 518.97,-243.85"/>
</g>
<!-- Node10 -->
<g id="node10" class="node">
<title>Node10</title>
<g id="a_node10"><a xlink:title=" ">
<polygon fill="white" stroke="#bfbfbf" points="562.8,-224.5 562.8,-243.5 609.8,-243.5 609.8,-224.5 562.8,-224.5"/>
<text text-anchor="middle" x="586.3" y="-231.5" font-family="Helvetica,sans-Serif" font-size="10.00">cmath</text>
</a>
</g>
</g>
<!-- Node1&#45;&gt;Node10 -->
<g id="edge15" class="edge">
<title>Node1&#45;&gt;Node10</title>
<path fill="none" stroke="midnightblue" d="M619.7,-280.08C614.05,-272.46 605.76,-261.26 598.85,-251.94"/>
<polygon fill="midnightblue" stroke="midnightblue" points="601.55,-249.7 592.78,-243.75 595.92,-253.87 601.55,-249.7"/>
</g>
<!-- Node11 -->
<g id="node11" class="node">
<title>Node11</title>
<g id="a_node11"><a xlink:title=" ">
<polygon fill="white" stroke="#bfbfbf" points="627.8,-224.5 627.8,-243.5 706.8,-243.5 706.8,-224.5 627.8,-224.5"/>
<text text-anchor="middle" x="667.3" y="-231.5" font-family="Helvetica,sans-Serif" font-size="10.00">QApplication</text>
</a>
</g>
</g>
<!-- Node1&#45;&gt;Node11 -->
<g id="edge16" class="edge">
<title>Node1&#45;&gt;Node11</title>
<path fill="none" stroke="midnightblue" d="M633.07,-280.08C638.86,-272.46 647.36,-261.26 654.44,-251.94"/>
<polygon fill="midnightblue" stroke="midnightblue" points="657.4,-253.83 660.66,-243.75 651.82,-249.6 657.4,-253.83"/>
</g>
<!-- Node12 -->
<g id="node12" class="node">
<title>Node12</title>
<g id="a_node12"><a xlink:title=" ">
<polygon fill="white" stroke="#bfbfbf" points="724.3,-224.5 724.3,-243.5 782.3,-243.5 782.3,-224.5 724.3,-224.5"/>
<text text-anchor="middle" x="753.3" y="-231.5" font-family="Helvetica,sans-Serif" font-size="10.00">QPainter</text>
</a>
</g>
</g>
<!-- Node1&#45;&gt;Node12 -->
<g id="edge17" class="edge">
<title>Node1&#45;&gt;Node12</title>
<path fill="none" stroke="midnightblue" d="M646.42,-280.44C667.32,-271.56 700.24,-257.56 724.02,-247.45"/>
<polygon fill="midnightblue" stroke="midnightblue" points="725.44,-250.65 733.27,-243.52 722.7,-244.21 725.44,-250.65"/>
</g>
<!-- Node13 -->
<g id="node13" class="node">
<title>Node13</title>
<g id="a_node13"><a xlink:title=" ">
<polygon fill="white" stroke="#bfbfbf" points="800.8,-224.5 800.8,-243.5 849.8,-243.5 849.8,-224.5 800.8,-224.5"/>
<text text-anchor="middle" x="825.3" y="-231.5" font-family="Helvetica,sans-Serif" font-size="10.00">QStyle</text>
</a>
</g>
</g>
<!-- Node1&#45;&gt;Node13 -->
<g id="edge18" class="edge">
<title>Node1&#45;&gt;Node13</title>
<path fill="none" stroke="midnightblue" d="M657.83,-280.44C694,-270.63 753.11,-254.59 790.56,-244.43"/>
<polygon fill="midnightblue" stroke="midnightblue" points="791.78,-247.72 800.52,-241.73 789.95,-240.97 791.78,-247.72"/>
</g>
<!-- Node14 -->
<g id="node14" class="node">
<title>Node14</title>
<g id="a_node14"><a xlink:title=" ">
<polygon fill="white" stroke="#bfbfbf" points="867.8,-224.5 867.8,-243.5 948.8,-243.5 948.8,-224.5 867.8,-224.5"/>
<text text-anchor="middle" x="908.3" y="-231.5" font-family="Helvetica,sans-Serif" font-size="10.00">QStyleOption</text>
</a>
</g>
</g>
<!-- Node1&#45;&gt;Node14 -->
<g id="edge19" class="edge">
<title>Node1&#45;&gt;Node14</title>
<path fill="none" stroke="midnightblue" d="M670.98,-280.44C721.76,-270.72 804.45,-254.89 857.6,-244.71"/>
<polygon fill="midnightblue" stroke="midnightblue" points="858.32,-248.13 867.49,-242.82 857.01,-241.26 858.32,-248.13"/>
</g>
<!-- Node15 -->
<g id="node15" class="node">
<title>Node15</title>
<g id="a_node15"><a xlink:href="helper_8h.html" target="_top" xlink:title="Various smaller help elements.">
<polygon fill="white" stroke="black" points="719.3,-168.5 719.3,-187.5 775.3,-187.5 775.3,-168.5 719.3,-168.5"/>
<text text-anchor="middle" x="747.3" y="-175.5" font-family="Helvetica,sans-Serif" font-size="10.00">helper.h</text>
</a>
</g>
</g>
<!-- Node1&#45;&gt;Node15 -->
<g id="edge20" class="edge">
<title>Node1&#45;&gt;Node15</title>
<path fill="none" stroke="midnightblue" d="M693.44,-289.86C780.33,-289.36 924.62,-282.55 958.3,-244 1007.51,-187.67 859.08,-179.45 785.74,-178.72"/>
<polygon fill="midnightblue" stroke="midnightblue" points="785.51,-175.22 775.49,-178.67 785.47,-182.22 785.51,-175.22"/>
</g>
<!-- Node3 -->
<g id="node3" class="node">
<title>Node3</title>
<g id="a_node3"><a xlink:title=" ">
<polygon fill="white" stroke="#bfbfbf" points="551.8,-0.5 551.8,-19.5 610.8,-19.5 610.8,-0.5 551.8,-0.5"/>
<text text-anchor="middle" x="581.3" y="-7.5" font-family="Helvetica,sans-Serif" font-size="10.00">QtGlobal</text>
</a>
</g>
</g>
<!-- Node2&#45;&gt;Node3 -->
<g id="edge2" class="edge">
<title>Node2&#45;&gt;Node3</title>
<path fill="none" stroke="midnightblue" d="M508.28,-56.32C521.85,-47.9 542.68,-34.97 558.63,-25.07"/>
<polygon fill="midnightblue" stroke="midnightblue" points="560.71,-27.9 567.36,-19.65 557.01,-21.95 560.71,-27.9"/>
</g>
<!-- Node4&#45;&gt;Node2 -->
<g id="edge4" class="edge">
<title>Node4&#45;&gt;Node2</title>
<path fill="none" stroke="midnightblue" d="M477.6,-112.08C480.28,-104.85 484.15,-94.41 487.49,-85.4"/>
<polygon fill="midnightblue" stroke="midnightblue" points="490.87,-86.34 491.06,-75.75 484.3,-83.91 490.87,-86.34"/>
</g>
<!-- Node5&#45;&gt;Node2 -->
<g id="edge6" class="edge">
<title>Node5&#45;&gt;Node2</title>
<path fill="none" stroke="midnightblue" d="M294.98,-168.44C296.54,-154.51 301.68,-126.98 318.3,-112 336.52,-95.57 359.92,-84.97 383.66,-78.18"/>
<polygon fill="midnightblue" stroke="midnightblue" points="384.71,-81.52 393.48,-75.58 382.92,-74.75 384.71,-81.52"/>
</g>
<!-- Node6 -->
<g id="node6" class="node">
<title>Node6</title>
<g id="a_node6"><a xlink:title=" ">
<polygon fill="white" stroke="#bfbfbf" points="327.8,-112.5 327.8,-131.5 386.8,-131.5 386.8,-112.5 327.8,-112.5"/>
<text text-anchor="middle" x="357.3" y="-119.5" font-family="Helvetica,sans-Serif" font-size="10.00">QWidget</text>
</a>
</g>
</g>
<!-- Node5&#45;&gt;Node6 -->
<g id="edge7" class="edge">
<title>Node5&#45;&gt;Node6</title>
<path fill="none" stroke="midnightblue" d="M304.42,-168.32C313.83,-160.26 328.04,-148.08 339.37,-138.37"/>
<polygon fill="midnightblue" stroke="midnightblue" points="341.68,-141 346.99,-131.83 337.12,-135.68 341.68,-141"/>
</g>
<!-- Node7 -->
<g id="node7" class="node">
<title>Node7</title>
<g id="a_node7"><a xlink:href="constpropagatinguniquepointer_8h.html" target="_top" xlink:title=" ">
<polygon fill="white" stroke="black" points="13.8,-112.5 13.8,-131.5 270.8,-131.5 270.8,-112.5 13.8,-112.5"/>
<text text-anchor="middle" x="142.3" y="-119.5" font-family="Helvetica,sans-Serif" font-size="10.00">PerceptualColor/constpropagatinguniquepointer.h</text>
</a>
</g>
</g>
<!-- Node5&#45;&gt;Node7 -->
<g id="edge8" class="edge">
<title>Node5&#45;&gt;Node7</title>
<path fill="none" stroke="midnightblue" d="M270.22,-168.44C244.76,-159.4 204.41,-145.06 175.84,-134.92"/>
<polygon fill="midnightblue" stroke="midnightblue" points="176.87,-131.57 166.27,-131.52 174.52,-138.16 176.87,-131.57"/>
</g>
<!-- Node7&#45;&gt;Node2 -->
<g id="edge9" class="edge">
<title>Node7&#45;&gt;Node2</title>
<path fill="none" stroke="midnightblue" d="M198.08,-112.44C260.77,-102.83 362.45,-87.23 428.85,-77.04"/>
<polygon fill="midnightblue" stroke="midnightblue" points="429.43,-80.49 438.79,-75.52 428.37,-73.57 429.43,-80.49"/>
</g>
<!-- Node8 -->
<g id="node8" class="node">
<title>Node8</title>
<g id="a_node8"><a xlink:title=" ">
<polygon fill="white" stroke="#bfbfbf" points="113.3,-56.5 113.3,-75.5 171.3,-75.5 171.3,-56.5 113.3,-56.5"/>
<text text-anchor="middle" x="142.3" y="-63.5" font-family="Helvetica,sans-Serif" font-size="10.00">memory</text>
</a>
</g>
</g>
<!-- Node7&#45;&gt;Node8 -->
<g id="edge10" class="edge">
<title>Node7&#45;&gt;Node8</title>
<path fill="none" stroke="midnightblue" d="M142.3,-112.08C142.3,-105.01 142.3,-94.86 142.3,-85.99"/>
<polygon fill="midnightblue" stroke="midnightblue" points="145.8,-85.75 142.3,-75.75 138.8,-85.75 145.8,-85.75"/>
</g>
<!-- Node9&#45;&gt;Node2 -->
<g id="edge12" class="edge">
<title>Node9&#45;&gt;Node2</title>
<path fill="none" stroke="midnightblue" d="M494.46,-224.45C509.44,-208.08 540.82,-170.54 552.3,-132 554.84,-123.48 556.21,-119.98 552.3,-112 545.78,-98.68 533.2,-88.18 521.43,-80.68"/>
<polygon fill="midnightblue" stroke="midnightblue" points="523.08,-77.59 512.69,-75.53 519.53,-83.62 523.08,-77.59"/>
</g>
<!-- Node9&#45;&gt;Node4 -->
<g id="edge13" class="edge">
<title>Node9&#45;&gt;Node4</title>
<path fill="none" stroke="midnightblue" d="M485.36,-224.37C483.42,-206.62 478.95,-165.67 476.33,-141.6"/>
<polygon fill="midnightblue" stroke="midnightblue" points="479.8,-141.15 475.24,-131.59 472.84,-141.91 479.8,-141.15"/>
</g>
<!-- Node9&#45;&gt;Node5 -->
<g id="edge14" class="edge">
<title>Node9&#45;&gt;Node5</title>
<path fill="none" stroke="midnightblue" d="M455.88,-224.44C423.02,-215.2 370.52,-200.44 334.33,-190.26"/>
<polygon fill="midnightblue" stroke="midnightblue" points="335.16,-186.85 324.58,-187.52 333.26,-193.59 335.16,-186.85"/>
</g>
<!-- Node15&#45;&gt;Node2 -->
<g id="edge21" class="edge">
<title>Node15&#45;&gt;Node2</title>
<path fill="none" stroke="midnightblue" d="M724.64,-168.4C701.71,-159.6 665.33,-145.37 634.3,-132 594.45,-114.83 549.01,-93.38 520.99,-79.93"/>
<polygon fill="midnightblue" stroke="midnightblue" points="522.37,-76.71 511.84,-75.53 519.33,-83.02 522.37,-76.71"/>
</g>
<!-- Node15&#45;&gt;Node3 -->
<g id="edge25" class="edge">
<title>Node15&#45;&gt;Node3</title>
<path fill="none" stroke="midnightblue" d="M726.65,-168.47C709.48,-160.69 685.07,-147.99 667.3,-132 649.23,-115.74 611.08,-57.72 592.27,-28.33"/>
<polygon fill="midnightblue" stroke="midnightblue" points="595.01,-26.12 586.68,-19.56 589.1,-29.88 595.01,-26.12"/>
</g>
<!-- Node15&#45;&gt;Node4 -->
<g id="edge22" class="edge">
<title>Node15&#45;&gt;Node4</title>
<path fill="none" stroke="midnightblue" d="M719.11,-171.42C674,-162.5 584.85,-144.87 527.49,-133.52"/>
<polygon fill="midnightblue" stroke="midnightblue" points="528,-130.05 517.51,-131.55 526.64,-136.92 528,-130.05"/>
</g>
<!-- Node16 -->
<g id="node16" class="node">
<title>Node16</title>
<g id="a_node16"><a xlink:title=" ">
<polygon fill="white" stroke="#bfbfbf" points="676.8,-112.5 676.8,-131.5 731.8,-131.5 731.8,-112.5 676.8,-112.5"/>
<text text-anchor="middle" x="704.3" y="-119.5" font-family="Helvetica,sans-Serif" font-size="10.00">QImage</text>
</a>
</g>
</g>
<!-- Node15&#45;&gt;Node16 -->
<g id="edge23" class="edge">
<title>Node15&#45;&gt;Node16</title>
<path fill="none" stroke="midnightblue" d="M740.2,-168.08C734.06,-160.38 725.03,-149.03 717.56,-139.65"/>
<polygon fill="midnightblue" stroke="midnightblue" points="720.24,-137.39 711.27,-131.75 714.76,-141.75 720.24,-137.39"/>
</g>
<!-- Node17 -->
<g id="node17" class="node">
<title>Node17</title>
<g id="a_node17"><a xlink:title=" ">
<polygon fill="white" stroke="#bfbfbf" points="749.8,-112.5 749.8,-131.5 832.8,-131.5 832.8,-112.5 749.8,-112.5"/>
<text text-anchor="middle" x="791.3" y="-119.5" font-family="Helvetica,sans-Serif" font-size="10.00">QWheelEvent</text>
</a>
</g>
</g>
<!-- Node15&#45;&gt;Node17 -->
<g id="edge24" class="edge">
<title>Node15&#45;&gt;Node17</title>
<path fill="none" stroke="midnightblue" d="M754.57,-168.08C760.85,-160.38 770.09,-149.03 777.73,-139.65"/>
<polygon fill="midnightblue" stroke="midnightblue" points="780.57,-141.71 784.17,-131.75 775.14,-137.29 780.57,-141.71"/>
</g>
<!-- Node18 -->
<g id="node18" class="node">
<title>Node18</title>
<g id="a_node18"><a xlink:href="lchdouble_8h.html" target="_top" xlink:title=" ">
<polygon fill="white" stroke="black" points="850.8,-112.5 850.8,-131.5 1003.8,-131.5 1003.8,-112.5 850.8,-112.5"/>
<text text-anchor="middle" x="927.3" y="-119.5" font-family="Helvetica,sans-Serif" font-size="10.00">PerceptualColor/lchdouble.h</text>
</a>
</g>
</g>
<!-- Node15&#45;&gt;Node18 -->
<g id="edge26" class="edge">
<title>Node15&#45;&gt;Node18</title>
<path fill="none" stroke="midnightblue" d="M775.43,-168.56C806.02,-159.38 855.11,-144.66 889.17,-134.44"/>
<polygon fill="midnightblue" stroke="midnightblue" points="890.21,-137.78 898.78,-131.56 888.19,-131.08 890.21,-137.78"/>
</g>
<!-- Node20 -->
<g id="node20" class="node">
<title>Node20</title>
<g id="a_node20"><a xlink:title=" ">
<polygon fill="white" stroke="#bfbfbf" points="1021.8,-112.5 1021.8,-131.5 1076.8,-131.5 1076.8,-112.5 1021.8,-112.5"/>
<text text-anchor="middle" x="1049.3" y="-119.5" font-family="Helvetica,sans-Serif" font-size="10.00">lcms2.h</text>
</a>
</g>
</g>
<!-- Node15&#45;&gt;Node20 -->
<g id="edge29" class="edge">
<title>Node15&#45;&gt;Node20</title>
<path fill="none" stroke="midnightblue" d="M775.39,-172.98C822.35,-166.1 919.94,-151.14 1011.46,-132.27"/>
<polygon fill="midnightblue" stroke="midnightblue" points="1012.37,-135.66 1021.44,-130.19 1010.94,-128.8 1012.37,-135.66"/>
</g>
<!-- Node18&#45;&gt;Node2 -->
<g id="edge27" class="edge">
<title>Node18&#45;&gt;Node2</title>
<path fill="none" stroke="midnightblue" d="M858.69,-112.44C780.94,-102.75 654.44,-86.97 572.81,-76.79"/>
<polygon fill="midnightblue" stroke="midnightblue" points="572.95,-73.28 562.59,-75.52 572.08,-80.23 572.95,-73.28"/>
</g>
<!-- Node19 -->
<g id="node19" class="node">
<title>Node19</title>
<g id="a_node19"><a xlink:title=" ">
<polygon fill="white" stroke="#bfbfbf" points="899.3,-56.5 899.3,-75.5 955.3,-75.5 955.3,-56.5 899.3,-56.5"/>
<text text-anchor="middle" x="927.3" y="-63.5" font-family="Helvetica,sans-Serif" font-size="10.00">QDebug</text>
</a>
</g>
</g>
<!-- Node18&#45;&gt;Node19 -->
<g id="edge28" class="edge">
<title>Node18&#45;&gt;Node19</title>
<path fill="none" stroke="midnightblue" d="M927.3,-112.08C927.3,-105.01 927.3,-94.86 927.3,-85.99"/>
<polygon fill="midnightblue" stroke="midnightblue" points="930.8,-85.75 927.3,-75.75 923.8,-85.75 930.8,-85.75"/>
</g>
</g>
</svg>
