<?xml version="1.0" encoding="UTF-8" standalone="no"?>
<!DOCTYPE svg PUBLIC "-//W3C//DTD SVG 1.1//EN"
 "http://www.w3.org/Graphics/SVG/1.1/DTD/svg11.dtd">
<!-- Generated by graphviz version 2.43.0 (0)
 -->
<!-- Title: src/chromalightnessdiagram.h Pages: 1 -->
<svg width="686pt" height="252pt"
 viewBox="0.00 0.00 685.96 252.00" xmlns="http://www.w3.org/2000/svg" xmlns:xlink="http://www.w3.org/1999/xlink">
<g id="graph0" class="graph" transform="scale(1 1) rotate(0) translate(4 248)">
<title>src/chromalightnessdiagram.h</title>
<polygon fill="white" stroke="transparent" points="-4,4 -4,-248 681.96,-248 681.96,4 -4,4"/>
<!-- Node1 -->
<g id="node1" class="node">
<title>Node1</title>
<g id="a_node1"><a xlink:title=" ">
<polygon fill="#bfbfbf" stroke="black" points="180.46,-224.5 180.46,-243.5 344.46,-243.5 344.46,-224.5 180.46,-224.5"/>
<text text-anchor="middle" x="262.46" y="-231.5" font-family="Helvetica,sans-Serif" font-size="10.00">src/chromalightnessdiagram.h</text>
</a>
</g>
</g>
<!-- Node2 -->
<g id="node2" class="node">
<title>Node2</title>
<g id="a_node2"><a xlink:href="perceptualcolorglobal_8h.html" target="_top" xlink:title=" ">
<polygon fill="white" stroke="black" points="156.46,-56.5 156.46,-75.5 368.46,-75.5 368.46,-56.5 156.46,-56.5"/>
<text text-anchor="middle" x="262.46" y="-63.5" font-family="Helvetica,sans-Serif" font-size="10.00">PerceptualColor/perceptualcolorglobal.h</text>
</a>
</g>
</g>
<!-- Node1&#45;&gt;Node2 -->
<g id="edge1" class="edge">
<title>Node1&#45;&gt;Node2</title>
<path fill="none" stroke="midnightblue" d="M180.28,-229.3C115.86,-224.46 33.68,-213.37 12.46,-188 -40.6,-124.53 89.75,-91.79 181.5,-77.09"/>
<polygon fill="midnightblue" stroke="midnightblue" points="182.3,-80.51 191.65,-75.51 181.23,-73.59 182.3,-80.51"/>
</g>
<!-- Node4 -->
<g id="node4" class="node">
<title>Node4</title>
<g id="a_node4"><a xlink:href="perceptualcolorinternal_8h.html" target="_top" xlink:title=" ">
<polygon fill="white" stroke="black" points="192.96,-168.5 192.96,-187.5 331.96,-187.5 331.96,-168.5 192.96,-168.5"/>
<text text-anchor="middle" x="262.46" y="-175.5" font-family="Helvetica,sans-Serif" font-size="10.00">perceptualcolorinternal.h</text>
</a>
</g>
</g>
<!-- Node1&#45;&gt;Node4 -->
<g id="edge3" class="edge">
<title>Node1&#45;&gt;Node4</title>
<path fill="none" stroke="midnightblue" d="M262.46,-224.08C262.46,-217.01 262.46,-206.86 262.46,-197.99"/>
<polygon fill="midnightblue" stroke="midnightblue" points="265.96,-197.75 262.46,-187.75 258.96,-197.75 265.96,-197.75"/>
</g>
<!-- Node5 -->
<g id="node5" class="node">
<title>Node5</title>
<g id="a_node5"><a xlink:href="abstractdiagram_8h.html" target="_top" xlink:title=" ">
<polygon fill="white" stroke="black" points="350.46,-168.5 350.46,-187.5 536.46,-187.5 536.46,-168.5 350.46,-168.5"/>
<text text-anchor="middle" x="443.46" y="-175.5" font-family="Helvetica,sans-Serif" font-size="10.00">PerceptualColor/abstractdiagram.h</text>
</a>
</g>
</g>
<!-- Node1&#45;&gt;Node5 -->
<g id="edge5" class="edge">
<title>Node1&#45;&gt;Node5</title>
<path fill="none" stroke="midnightblue" d="M291.14,-224.44C321.99,-215.24 371.19,-200.56 405.29,-190.39"/>
<polygon fill="midnightblue" stroke="midnightblue" points="406.33,-193.73 414.92,-187.52 404.33,-187.02 406.33,-193.73"/>
</g>
<!-- Node7 -->
<g id="node7" class="node">
<title>Node7</title>
<g id="a_node7"><a xlink:href="constpropagatinguniquepointer_8h.html" target="_top" xlink:title=" ">
<polygon fill="white" stroke="black" points="420.96,-112.5 420.96,-131.5 677.96,-131.5 677.96,-112.5 420.96,-112.5"/>
<text text-anchor="middle" x="549.46" y="-119.5" font-family="Helvetica,sans-Serif" font-size="10.00">PerceptualColor/constpropagatinguniquepointer.h</text>
</a>
</g>
</g>
<!-- Node1&#45;&gt;Node7 -->
<g id="edge11" class="edge">
<title>Node1&#45;&gt;Node7</title>
<path fill="none" stroke="midnightblue" d="M344.57,-231C418.4,-227.32 519.17,-216.96 545.46,-188 556.61,-175.73 556.3,-156.19 554,-141.74"/>
<polygon fill="midnightblue" stroke="midnightblue" points="557.42,-140.99 552.01,-131.88 550.56,-142.37 557.42,-140.99"/>
</g>
<!-- Node9 -->
<g id="node9" class="node">
<title>Node9</title>
<g id="a_node9"><a xlink:href="lchdouble_8h.html" target="_top" xlink:title=" ">
<polygon fill="white" stroke="black" points="21.96,-168.5 21.96,-187.5 174.96,-187.5 174.96,-168.5 21.96,-168.5"/>
<text text-anchor="middle" x="98.46" y="-175.5" font-family="Helvetica,sans-Serif" font-size="10.00">PerceptualColor/lchdouble.h</text>
</a>
</g>
</g>
<!-- Node1&#45;&gt;Node9 -->
<g id="edge12" class="edge">
<title>Node1&#45;&gt;Node9</title>
<path fill="none" stroke="midnightblue" d="M236.48,-224.44C208.77,-215.32 164.71,-200.81 133.85,-190.65"/>
<polygon fill="midnightblue" stroke="midnightblue" points="134.92,-187.32 124.33,-187.52 132.73,-193.97 134.92,-187.32"/>
</g>
<!-- Node3 -->
<g id="node3" class="node">
<title>Node3</title>
<g id="a_node3"><a xlink:title=" ">
<polygon fill="white" stroke="#bfbfbf" points="232.96,-0.5 232.96,-19.5 291.96,-19.5 291.96,-0.5 232.96,-0.5"/>
<text text-anchor="middle" x="262.46" y="-7.5" font-family="Helvetica,sans-Serif" font-size="10.00">QtGlobal</text>
</a>
</g>
</g>
<!-- Node2&#45;&gt;Node3 -->
<g id="edge2" class="edge">
<title>Node2&#45;&gt;Node3</title>
<path fill="none" stroke="midnightblue" d="M262.46,-56.08C262.46,-49.01 262.46,-38.86 262.46,-29.99"/>
<polygon fill="midnightblue" stroke="midnightblue" points="265.96,-29.75 262.46,-19.75 258.96,-29.75 265.96,-29.75"/>
</g>
<!-- Node4&#45;&gt;Node2 -->
<g id="edge4" class="edge">
<title>Node4&#45;&gt;Node2</title>
<path fill="none" stroke="midnightblue" d="M262.46,-168.37C262.46,-150.62 262.46,-109.67 262.46,-85.6"/>
<polygon fill="midnightblue" stroke="midnightblue" points="265.96,-85.59 262.46,-75.59 258.96,-85.59 265.96,-85.59"/>
</g>
<!-- Node5&#45;&gt;Node2 -->
<g id="edge6" class="edge">
<title>Node5&#45;&gt;Node2</title>
<path fill="none" stroke="midnightblue" d="M436.07,-168.36C424.1,-154.79 399.21,-128.38 373.46,-112 351.1,-97.77 323.48,-86.55 301.39,-78.88"/>
<polygon fill="midnightblue" stroke="midnightblue" points="302.26,-75.48 291.67,-75.6 300.03,-82.11 302.26,-75.48"/>
</g>
<!-- Node6 -->
<g id="node6" class="node">
<title>Node6</title>
<g id="a_node6"><a xlink:title=" ">
<polygon fill="white" stroke="#bfbfbf" points="304.96,-112.5 304.96,-131.5 363.96,-131.5 363.96,-112.5 304.96,-112.5"/>
<text text-anchor="middle" x="334.46" y="-119.5" font-family="Helvetica,sans-Serif" font-size="10.00">QWidget</text>
</a>
</g>
</g>
<!-- Node5&#45;&gt;Node6 -->
<g id="edge7" class="edge">
<title>Node5&#45;&gt;Node6</title>
<path fill="none" stroke="midnightblue" d="M425.95,-168.32C408.39,-159.62 381.13,-146.12 360.93,-136.11"/>
<polygon fill="midnightblue" stroke="midnightblue" points="362.45,-132.96 351.93,-131.65 359.34,-139.23 362.45,-132.96"/>
</g>
<!-- Node5&#45;&gt;Node7 -->
<g id="edge8" class="edge">
<title>Node5&#45;&gt;Node7</title>
<path fill="none" stroke="midnightblue" d="M460.49,-168.32C477.49,-159.66 503.84,-146.24 523.45,-136.25"/>
<polygon fill="midnightblue" stroke="midnightblue" points="525.15,-139.31 532.47,-131.65 521.97,-133.08 525.15,-139.31"/>
</g>
<!-- Node7&#45;&gt;Node2 -->
<g id="edge9" class="edge">
<title>Node7&#45;&gt;Node2</title>
<path fill="none" stroke="midnightblue" d="M503.99,-112.44C453.5,-102.94 372.01,-87.61 317.84,-77.42"/>
<polygon fill="midnightblue" stroke="midnightblue" points="318.2,-73.93 307.73,-75.52 316.91,-80.81 318.2,-73.93"/>
</g>
<!-- Node8 -->
<g id="node8" class="node">
<title>Node8</title>
<g id="a_node8"><a xlink:title=" ">
<polygon fill="white" stroke="#bfbfbf" points="520.46,-56.5 520.46,-75.5 578.46,-75.5 578.46,-56.5 520.46,-56.5"/>
<text text-anchor="middle" x="549.46" y="-63.5" font-family="Helvetica,sans-Serif" font-size="10.00">memory</text>
</a>
</g>
</g>
<!-- Node7&#45;&gt;Node8 -->
<g id="edge10" class="edge">
<title>Node7&#45;&gt;Node8</title>
<path fill="none" stroke="midnightblue" d="M549.46,-112.08C549.46,-105.01 549.46,-94.86 549.46,-85.99"/>
<polygon fill="midnightblue" stroke="midnightblue" points="552.96,-85.75 549.46,-75.75 545.96,-85.75 552.96,-85.75"/>
</g>
<!-- Node9&#45;&gt;Node2 -->
<g id="edge13" class="edge">
<title>Node9&#45;&gt;Node2</title>
<path fill="none" stroke="midnightblue" d="M98.53,-168.13C99.11,-154.25 102.29,-127.42 117.46,-112 133.8,-95.39 156.15,-84.88 178.41,-78.24"/>
<polygon fill="midnightblue" stroke="midnightblue" points="179.55,-81.56 188.27,-75.55 177.7,-74.81 179.55,-81.56"/>
</g>
<!-- Node10 -->
<g id="node10" class="node">
<title>Node10</title>
<g id="a_node10"><a xlink:title=" ">
<polygon fill="white" stroke="#bfbfbf" points="126.46,-112.5 126.46,-131.5 182.46,-131.5 182.46,-112.5 126.46,-112.5"/>
<text text-anchor="middle" x="154.46" y="-119.5" font-family="Helvetica,sans-Serif" font-size="10.00">QDebug</text>
</a>
</g>
</g>
<!-- Node9&#45;&gt;Node10 -->
<g id="edge14" class="edge">
<title>Node9&#45;&gt;Node10</title>
<path fill="none" stroke="midnightblue" d="M107.46,-168.32C115.66,-160.42 127.97,-148.55 137.93,-138.94"/>
<polygon fill="midnightblue" stroke="midnightblue" points="140.53,-141.29 145.3,-131.83 135.67,-136.26 140.53,-141.29"/>
</g>
</g>
</svg>
