<?xml version="1.0" encoding="UTF-8" standalone="no"?>
<!DOCTYPE svg PUBLIC "-//W3C//DTD SVG 1.1//EN"
 "http://www.w3.org/Graphics/SVG/1.1/DTD/svg11.dtd">
<!-- Generated by graphviz version 2.43.0 (0)
 -->
<!-- Title: src/chromahueimage.cpp Pages: 1 -->
<svg width="1308pt" height="308pt"
 viewBox="0.00 0.00 1308.22 308.00" xmlns="http://www.w3.org/2000/svg" xmlns:xlink="http://www.w3.org/1999/xlink">
<g id="graph0" class="graph" transform="scale(1 1) rotate(0) translate(4 304)">
<title>src/chromahueimage.cpp</title>
<polygon fill="white" stroke="transparent" points="-4,4 -4,-304 1304.22,-304 1304.22,4 -4,4"/>
<!-- Node1 -->
<g id="node1" class="node">
<title>Node1</title>
<g id="a_node1"><a xlink:title=" ">
<polygon fill="#bfbfbf" stroke="black" points="192.72,-280.5 192.72,-299.5 332.72,-299.5 332.72,-280.5 192.72,-280.5"/>
<text text-anchor="middle" x="262.72" y="-287.5" font-family="Helvetica,sans-Serif" font-size="10.00">src/chromahueimage.cpp</text>
</a>
</g>
</g>
<!-- Node2 -->
<g id="node2" class="node">
<title>Node2</title>
<g id="a_node2"><a xlink:href="perceptualcolorglobal_8h.html" target="_top" xlink:title=" ">
<polygon fill="white" stroke="black" points="163.72,-56.5 163.72,-75.5 375.72,-75.5 375.72,-56.5 163.72,-56.5"/>
<text text-anchor="middle" x="269.72" y="-63.5" font-family="Helvetica,sans-Serif" font-size="10.00">PerceptualColor/perceptualcolorglobal.h</text>
</a>
</g>
</g>
<!-- Node1&#45;&gt;Node2 -->
<g id="edge1" class="edge">
<title>Node1&#45;&gt;Node2</title>
<path fill="none" stroke="midnightblue" d="M228.2,-280.45C145,-258.29 -54.81,-194.87 14.72,-112 32.95,-90.27 95.17,-79.03 153.59,-73.21"/>
<polygon fill="midnightblue" stroke="midnightblue" points="154.05,-76.69 163.68,-72.26 153.39,-69.72 154.05,-76.69"/>
</g>
<!-- Node4 -->
<g id="node4" class="node">
<title>Node4</title>
<g id="a_node4"><a xlink:href="perceptualcolorinternal_8h.html" target="_top" xlink:title=" ">
<polygon fill="white" stroke="black" points="24.22,-112.5 24.22,-131.5 163.22,-131.5 163.22,-112.5 24.22,-112.5"/>
<text text-anchor="middle" x="93.72" y="-119.5" font-family="Helvetica,sans-Serif" font-size="10.00">perceptualcolorinternal.h</text>
</a>
</g>
</g>
<!-- Node1&#45;&gt;Node4 -->
<g id="edge3" class="edge">
<title>Node1&#45;&gt;Node4</title>
<path fill="none" stroke="midnightblue" d="M240.37,-280.43C207.01,-266.43 144.68,-235.36 112.72,-188 103.36,-174.14 98.54,-155.63 96.1,-141.9"/>
<polygon fill="midnightblue" stroke="midnightblue" points="99.51,-141.07 94.56,-131.71 92.59,-142.12 99.51,-141.07"/>
</g>
<!-- Node5 -->
<g id="node5" class="node">
<title>Node5</title>
<g id="a_node5"><a xlink:href="chromahueimage_8h.html" target="_top" xlink:title=" ">
<polygon fill="white" stroke="black" points="207.22,-224.5 207.22,-243.5 318.22,-243.5 318.22,-224.5 207.22,-224.5"/>
<text text-anchor="middle" x="262.72" y="-231.5" font-family="Helvetica,sans-Serif" font-size="10.00">chromahueimage.h</text>
</a>
</g>
</g>
<!-- Node1&#45;&gt;Node5 -->
<g id="edge5" class="edge">
<title>Node1&#45;&gt;Node5</title>
<path fill="none" stroke="midnightblue" d="M262.72,-280.08C262.72,-273.01 262.72,-262.86 262.72,-253.99"/>
<polygon fill="midnightblue" stroke="midnightblue" points="266.22,-253.75 262.72,-243.75 259.22,-253.75 266.22,-253.75"/>
</g>
<!-- Node16 -->
<g id="node16" class="node">
<title>Node16</title>
<g id="a_node16"><a xlink:href="helper_8h.html" target="_top" xlink:title="Various smaller help elements.">
<polygon fill="white" stroke="black" points="993.72,-168.5 993.72,-187.5 1049.72,-187.5 1049.72,-168.5 993.72,-168.5"/>
<text text-anchor="middle" x="1021.72" y="-175.5" font-family="Helvetica,sans-Serif" font-size="10.00">helper.h</text>
</a>
</g>
</g>
<!-- Node1&#45;&gt;Node16 -->
<g id="edge24" class="edge">
<title>Node1&#45;&gt;Node16</title>
<path fill="none" stroke="midnightblue" d="M274.83,-280.28C297.63,-264.06 346.32,-230.34 365.72,-224 481.7,-186.11 861.4,-180.12 983.52,-179.18"/>
<polygon fill="midnightblue" stroke="midnightblue" points="983.55,-182.68 993.53,-179.11 983.5,-175.68 983.55,-182.68"/>
</g>
<!-- Node18 -->
<g id="node18" class="node">
<title>Node18</title>
<g id="a_node18"><a xlink:href="lchvalues_8h.html" target="_top" xlink:title=" ">
<polygon fill="white" stroke="black" points="142.72,-168.5 142.72,-187.5 214.72,-187.5 214.72,-168.5 142.72,-168.5"/>
<text text-anchor="middle" x="178.72" y="-175.5" font-family="Helvetica,sans-Serif" font-size="10.00">lchvalues.h</text>
</a>
</g>
</g>
<!-- Node1&#45;&gt;Node18 -->
<g id="edge32" class="edge">
<title>Node1&#45;&gt;Node18</title>
<path fill="none" stroke="midnightblue" d="M244.46,-280.41C230.07,-272.76 210.53,-260.26 198.72,-244 188.85,-230.42 183.77,-211.87 181.21,-198.06"/>
<polygon fill="midnightblue" stroke="midnightblue" points="184.61,-197.13 179.6,-187.8 177.69,-198.22 184.61,-197.13"/>
</g>
<!-- Node19 -->
<g id="node19" class="node">
<title>Node19</title>
<g id="a_node19"><a xlink:title=" ">
<polygon fill="white" stroke="#bfbfbf" points="374.72,-224.5 374.72,-243.5 432.72,-243.5 432.72,-224.5 374.72,-224.5"/>
<text text-anchor="middle" x="403.72" y="-231.5" font-family="Helvetica,sans-Serif" font-size="10.00">QPainter</text>
</a>
</g>
</g>
<!-- Node1&#45;&gt;Node19 -->
<g id="edge36" class="edge">
<title>Node1&#45;&gt;Node19</title>
<path fill="none" stroke="midnightblue" d="M285.06,-280.44C308.47,-271.48 345.45,-257.31 371.9,-247.18"/>
<polygon fill="midnightblue" stroke="midnightblue" points="373.39,-250.36 381.48,-243.52 370.89,-243.82 373.39,-250.36"/>
</g>
<!-- Node20 -->
<g id="node20" class="node">
<title>Node20</title>
<g id="a_node20"><a xlink:title=" ">
<polygon fill="white" stroke="#bfbfbf" points="451.22,-224.5 451.22,-243.5 504.22,-243.5 504.22,-224.5 451.22,-224.5"/>
<text text-anchor="middle" x="477.72" y="-231.5" font-family="Helvetica,sans-Serif" font-size="10.00">QtMath</text>
</a>
</g>
</g>
<!-- Node1&#45;&gt;Node20 -->
<g id="edge37" class="edge">
<title>Node1&#45;&gt;Node20</title>
<path fill="none" stroke="midnightblue" d="M296.78,-280.44C336.19,-270.55 400.81,-254.32 441.22,-244.17"/>
<polygon fill="midnightblue" stroke="midnightblue" points="442.09,-247.56 450.94,-241.73 440.39,-240.77 442.09,-247.56"/>
</g>
<!-- Node3 -->
<g id="node3" class="node">
<title>Node3</title>
<g id="a_node3"><a xlink:title=" ">
<polygon fill="white" stroke="#bfbfbf" points="662.22,-0.5 662.22,-19.5 721.22,-19.5 721.22,-0.5 662.22,-0.5"/>
<text text-anchor="middle" x="691.72" y="-7.5" font-family="Helvetica,sans-Serif" font-size="10.00">QtGlobal</text>
</a>
</g>
</g>
<!-- Node2&#45;&gt;Node3 -->
<g id="edge2" class="edge">
<title>Node2&#45;&gt;Node3</title>
<path fill="none" stroke="midnightblue" d="M336.58,-56.44C425.41,-45.08 579.52,-25.36 651.94,-16.09"/>
<polygon fill="midnightblue" stroke="midnightblue" points="652.54,-19.54 662.02,-14.8 651.66,-12.6 652.54,-19.54"/>
</g>
<!-- Node4&#45;&gt;Node2 -->
<g id="edge4" class="edge">
<title>Node4&#45;&gt;Node2</title>
<path fill="none" stroke="midnightblue" d="M121.6,-112.44C151.47,-103.28 199.03,-88.69 232.17,-78.52"/>
<polygon fill="midnightblue" stroke="midnightblue" points="233.42,-81.8 241.96,-75.52 231.37,-75.1 233.42,-81.8"/>
</g>
<!-- Node5&#45;&gt;Node2 -->
<g id="edge6" class="edge">
<title>Node5&#45;&gt;Node2</title>
<path fill="none" stroke="midnightblue" d="M263.09,-224.08C264.19,-197.95 267.43,-121.21 268.93,-85.58"/>
<polygon fill="midnightblue" stroke="midnightblue" points="272.43,-85.71 269.35,-75.57 265.44,-85.41 272.43,-85.71"/>
</g>
<!-- Node5&#45;&gt;Node4 -->
<g id="edge7" class="edge">
<title>Node5&#45;&gt;Node4</title>
<path fill="none" stroke="midnightblue" d="M214.72,-224.46C188.62,-217.93 157,-206.73 133.72,-188 118.43,-175.7 107.44,-155.89 100.9,-141.36"/>
<polygon fill="midnightblue" stroke="midnightblue" points="104.02,-139.77 96.92,-131.91 97.57,-142.48 104.02,-139.77"/>
</g>
<!-- Node6 -->
<g id="node6" class="node">
<title>Node6</title>
<g id="a_node6"><a xlink:title=" ">
<polygon fill="white" stroke="#bfbfbf" points="1245.22,-112.5 1245.22,-131.5 1300.22,-131.5 1300.22,-112.5 1245.22,-112.5"/>
<text text-anchor="middle" x="1272.72" y="-119.5" font-family="Helvetica,sans-Serif" font-size="10.00">QImage</text>
</a>
</g>
</g>
<!-- Node5&#45;&gt;Node6 -->
<g id="edge8" class="edge">
<title>Node5&#45;&gt;Node6</title>
<path fill="none" stroke="midnightblue" d="M318.28,-227.78C333.64,-226.44 350.32,-225.07 365.72,-224 519.55,-213.29 910.02,-228.86 1058.72,-188 1077.12,-182.94 1078.9,-174.86 1096.72,-168 1100,-166.73 1184.45,-145.31 1235.16,-132.49"/>
<polygon fill="midnightblue" stroke="midnightblue" points="1236.28,-135.81 1245.12,-129.97 1234.56,-129.03 1236.28,-135.81"/>
</g>
<!-- Node7 -->
<g id="node7" class="node">
<title>Node7</title>
<g id="a_node7"><a xlink:title=" ">
<polygon fill="white" stroke="#bfbfbf" points="1105.72,-168.5 1105.72,-187.5 1197.72,-187.5 1197.72,-168.5 1105.72,-168.5"/>
<text text-anchor="middle" x="1151.72" y="-175.5" font-family="Helvetica,sans-Serif" font-size="10.00">QSharedPointer</text>
</a>
</g>
</g>
<!-- Node5&#45;&gt;Node7 -->
<g id="edge9" class="edge">
<title>Node5&#45;&gt;Node7</title>
<path fill="none" stroke="midnightblue" d="M318.28,-227.76C333.64,-226.42 350.31,-225.05 365.72,-224 688.02,-201.94 770.24,-220 1091.72,-188 1092.98,-187.87 1094.26,-187.74 1095.56,-187.6"/>
<polygon fill="midnightblue" stroke="midnightblue" points="1096.07,-191.06 1105.59,-186.39 1095.24,-184.11 1096.07,-191.06"/>
</g>
<!-- Node8 -->
<g id="node8" class="node">
<title>Node8</title>
<g id="a_node8"><a xlink:href="rgbcolorspace_8h.html" target="_top" xlink:title=" ">
<polygon fill="white" stroke="black" points="490.72,-168.5 490.72,-187.5 584.72,-187.5 584.72,-168.5 490.72,-168.5"/>
<text text-anchor="middle" x="537.72" y="-175.5" font-family="Helvetica,sans-Serif" font-size="10.00">rgbcolorspace.h</text>
</a>
</g>
</g>
<!-- Node5&#45;&gt;Node8 -->
<g id="edge10" class="edge">
<title>Node5&#45;&gt;Node8</title>
<path fill="none" stroke="midnightblue" d="M306.29,-224.44C354.56,-214.96 432.43,-199.67 484.33,-189.48"/>
<polygon fill="midnightblue" stroke="midnightblue" points="485.21,-192.88 494.34,-187.52 483.86,-186.01 485.21,-192.88"/>
</g>
<!-- Node8&#45;&gt;Node2 -->
<g id="edge11" class="edge">
<title>Node8&#45;&gt;Node2</title>
<path fill="none" stroke="midnightblue" d="M490.58,-174.4C426.56,-169.9 316.76,-158.48 287.72,-132 274.89,-120.31 270.88,-100.36 269.78,-85.64"/>
<polygon fill="midnightblue" stroke="midnightblue" points="273.28,-85.49 269.41,-75.63 266.28,-85.75 273.28,-85.49"/>
</g>
<!-- Node8&#45;&gt;Node4 -->
<g id="edge12" class="edge">
<title>Node8&#45;&gt;Node4</title>
<path fill="none" stroke="midnightblue" d="M490.62,-171.27C415.11,-162.09 266.09,-143.97 173.68,-132.73"/>
<polygon fill="midnightblue" stroke="midnightblue" points="173.88,-129.22 163.53,-131.49 173.04,-136.17 173.88,-129.22"/>
</g>
<!-- Node9 -->
<g id="node9" class="node">
<title>Node9</title>
<g id="a_node9"><a xlink:title=" ">
<polygon fill="white" stroke="#bfbfbf" points="919.72,-112.5 919.72,-131.5 975.72,-131.5 975.72,-112.5 919.72,-112.5"/>
<text text-anchor="middle" x="947.72" y="-119.5" font-family="Helvetica,sans-Serif" font-size="10.00">QObject</text>
</a>
</g>
</g>
<!-- Node8&#45;&gt;Node9 -->
<g id="edge13" class="edge">
<title>Node8&#45;&gt;Node9</title>
<path fill="none" stroke="midnightblue" d="M584.79,-173.12C653.93,-167.04 787.13,-153.81 909.58,-132.02"/>
<polygon fill="midnightblue" stroke="midnightblue" points="910.29,-135.45 919.51,-130.23 909.04,-128.56 910.29,-135.45"/>
</g>
<!-- Node10 -->
<g id="node10" class="node">
<title>Node10</title>
<g id="a_node10"><a xlink:href="constpropagatinguniquepointer_8h.html" target="_top" xlink:title=" ">
<polygon fill="white" stroke="black" points="296.22,-112.5 296.22,-131.5 553.22,-131.5 553.22,-112.5 296.22,-112.5"/>
<text text-anchor="middle" x="424.72" y="-119.5" font-family="Helvetica,sans-Serif" font-size="10.00">PerceptualColor/constpropagatinguniquepointer.h</text>
</a>
</g>
</g>
<!-- Node8&#45;&gt;Node10 -->
<g id="edge14" class="edge">
<title>Node8&#45;&gt;Node10</title>
<path fill="none" stroke="midnightblue" d="M519.81,-168.44C501.46,-159.68 472.71,-145.94 451.62,-135.86"/>
<polygon fill="midnightblue" stroke="midnightblue" points="453.07,-132.67 442.54,-131.52 450.05,-138.99 453.07,-132.67"/>
</g>
<!-- Node12 -->
<g id="node12" class="node">
<title>Node12</title>
<g id="a_node12"><a xlink:href="lchadouble_8h.html" target="_top" xlink:title=" ">
<polygon fill="white" stroke="black" points="571.22,-112.5 571.22,-131.5 730.22,-131.5 730.22,-112.5 571.22,-112.5"/>
<text text-anchor="middle" x="650.72" y="-119.5" font-family="Helvetica,sans-Serif" font-size="10.00">PerceptualColor/lchadouble.h</text>
</a>
</g>
</g>
<!-- Node8&#45;&gt;Node12 -->
<g id="edge17" class="edge">
<title>Node8&#45;&gt;Node12</title>
<path fill="none" stroke="midnightblue" d="M555.62,-168.44C573.97,-159.68 602.72,-145.94 623.81,-135.86"/>
<polygon fill="midnightblue" stroke="midnightblue" points="625.38,-138.99 632.89,-131.52 622.36,-132.67 625.38,-138.99"/>
</g>
<!-- Node14 -->
<g id="node14" class="node">
<title>Node14</title>
<g id="a_node14"><a xlink:href="lchdouble_8h.html" target="_top" xlink:title=" ">
<polygon fill="white" stroke="black" points="748.22,-112.5 748.22,-131.5 901.22,-131.5 901.22,-112.5 748.22,-112.5"/>
<text text-anchor="middle" x="824.72" y="-119.5" font-family="Helvetica,sans-Serif" font-size="10.00">PerceptualColor/lchdouble.h</text>
</a>
</g>
</g>
<!-- Node8&#45;&gt;Node14 -->
<g id="edge20" class="edge">
<title>Node8&#45;&gt;Node14</title>
<path fill="none" stroke="midnightblue" d="M583.19,-168.44C633.68,-158.94 715.17,-143.61 769.34,-133.42"/>
<polygon fill="midnightblue" stroke="midnightblue" points="770.27,-136.81 779.45,-131.52 768.98,-129.93 770.27,-136.81"/>
</g>
<!-- Node15 -->
<g id="node15" class="node">
<title>Node15</title>
<g id="a_node15"><a xlink:title=" ">
<polygon fill="white" stroke="#bfbfbf" points="994.22,-112.5 994.22,-131.5 1049.22,-131.5 1049.22,-112.5 994.22,-112.5"/>
<text text-anchor="middle" x="1021.72" y="-119.5" font-family="Helvetica,sans-Serif" font-size="10.00">lcms2.h</text>
</a>
</g>
</g>
<!-- Node8&#45;&gt;Node15 -->
<g id="edge23" class="edge">
<title>Node8&#45;&gt;Node15</title>
<path fill="none" stroke="midnightblue" d="M584.98,-174.4C665.1,-169.51 832.78,-157.27 983.99,-131.89"/>
<polygon fill="midnightblue" stroke="midnightblue" points="984.65,-135.33 993.92,-130.2 983.48,-128.42 984.65,-135.33"/>
</g>
<!-- Node10&#45;&gt;Node2 -->
<g id="edge15" class="edge">
<title>Node10&#45;&gt;Node2</title>
<path fill="none" stroke="midnightblue" d="M400.16,-112.44C374.19,-103.4 333.05,-89.06 303.92,-78.92"/>
<polygon fill="midnightblue" stroke="midnightblue" points="304.76,-75.5 294.16,-75.52 302.45,-82.11 304.76,-75.5"/>
</g>
<!-- Node11 -->
<g id="node11" class="node">
<title>Node11</title>
<g id="a_node11"><a xlink:title=" ">
<polygon fill="white" stroke="#bfbfbf" points="395.72,-56.5 395.72,-75.5 453.72,-75.5 453.72,-56.5 395.72,-56.5"/>
<text text-anchor="middle" x="424.72" y="-63.5" font-family="Helvetica,sans-Serif" font-size="10.00">memory</text>
</a>
</g>
</g>
<!-- Node10&#45;&gt;Node11 -->
<g id="edge16" class="edge">
<title>Node10&#45;&gt;Node11</title>
<path fill="none" stroke="midnightblue" d="M424.72,-112.08C424.72,-105.01 424.72,-94.86 424.72,-85.99"/>
<polygon fill="midnightblue" stroke="midnightblue" points="428.22,-85.75 424.72,-75.75 421.22,-85.75 428.22,-85.75"/>
</g>
<!-- Node12&#45;&gt;Node2 -->
<g id="edge18" class="edge">
<title>Node12&#45;&gt;Node2</title>
<path fill="none" stroke="midnightblue" d="M590.34,-112.44C522.35,-102.81 411.98,-87.16 340.12,-76.98"/>
<polygon fill="midnightblue" stroke="midnightblue" points="340.2,-73.45 329.8,-75.52 339.21,-80.39 340.2,-73.45"/>
</g>
<!-- Node13 -->
<g id="node13" class="node">
<title>Node13</title>
<g id="a_node13"><a xlink:title=" ">
<polygon fill="white" stroke="#bfbfbf" points="709.72,-56.5 709.72,-75.5 765.72,-75.5 765.72,-56.5 709.72,-56.5"/>
<text text-anchor="middle" x="737.72" y="-63.5" font-family="Helvetica,sans-Serif" font-size="10.00">QDebug</text>
</a>
</g>
</g>
<!-- Node12&#45;&gt;Node13 -->
<g id="edge19" class="edge">
<title>Node12&#45;&gt;Node13</title>
<path fill="none" stroke="midnightblue" d="M664.69,-112.32C678.26,-103.9 699.1,-90.97 715.04,-81.07"/>
<polygon fill="midnightblue" stroke="midnightblue" points="717.12,-83.9 723.77,-75.65 713.43,-77.95 717.12,-83.9"/>
</g>
<!-- Node14&#45;&gt;Node2 -->
<g id="edge21" class="edge">
<title>Node14&#45;&gt;Node2</title>
<path fill="none" stroke="midnightblue" d="M747.81,-112.82C745.08,-112.54 742.37,-112.27 739.72,-112 613.02,-99.23 467.03,-85.39 371.81,-76.48"/>
<polygon fill="midnightblue" stroke="midnightblue" points="371.89,-72.97 361.6,-75.52 371.23,-79.94 371.89,-72.97"/>
</g>
<!-- Node14&#45;&gt;Node13 -->
<g id="edge22" class="edge">
<title>Node14&#45;&gt;Node13</title>
<path fill="none" stroke="midnightblue" d="M810.74,-112.32C797.17,-103.9 776.34,-90.97 760.39,-81.07"/>
<polygon fill="midnightblue" stroke="midnightblue" points="762,-77.95 751.66,-75.65 758.31,-83.9 762,-77.95"/>
</g>
<!-- Node16&#45;&gt;Node2 -->
<g id="edge25" class="edge">
<title>Node16&#45;&gt;Node2</title>
<path fill="none" stroke="midnightblue" d="M1033.01,-168.37C1049.13,-155.05 1075.06,-129.25 1058.72,-112 1033,-84.87 424.02,-78.43 386.72,-76 386.49,-75.99 386.27,-75.97 386.05,-75.96"/>
<polygon fill="midnightblue" stroke="midnightblue" points="386.1,-72.45 375.89,-75.28 385.63,-79.44 386.1,-72.45"/>
</g>
<!-- Node16&#45;&gt;Node3 -->
<g id="edge29" class="edge">
<title>Node16&#45;&gt;Node3</title>
<path fill="none" stroke="midnightblue" d="M1037.53,-168.5C1058.37,-156.2 1090.62,-132.65 1074.72,-112 1032.53,-57.24 820.4,-26.2 731.26,-15.4"/>
<polygon fill="midnightblue" stroke="midnightblue" points="731.61,-11.91 721.27,-14.21 730.79,-18.86 731.61,-11.91"/>
</g>
<!-- Node16&#45;&gt;Node4 -->
<g id="edge26" class="edge">
<title>Node16&#45;&gt;Node4</title>
<path fill="none" stroke="midnightblue" d="M993.69,-175.37C869.99,-168.17 370.35,-139.1 173.75,-127.66"/>
<polygon fill="midnightblue" stroke="midnightblue" points="173.68,-124.15 163.49,-127.06 173.27,-131.14 173.68,-124.15"/>
</g>
<!-- Node16&#45;&gt;Node6 -->
<g id="edge27" class="edge">
<title>Node16&#45;&gt;Node6</title>
<path fill="none" stroke="midnightblue" d="M1049.72,-170.97C1054.4,-169.98 1059.19,-168.96 1063.72,-168 1137.4,-152.44 1158.46,-149.74 1234.73,-132.39"/>
<polygon fill="midnightblue" stroke="midnightblue" points="1235.86,-135.73 1244.83,-130.09 1234.31,-128.9 1235.86,-135.73"/>
</g>
<!-- Node16&#45;&gt;Node14 -->
<g id="edge30" class="edge">
<title>Node16&#45;&gt;Node14</title>
<path fill="none" stroke="midnightblue" d="M993.49,-169.26C959.99,-160.08 903.87,-144.7 865.61,-134.21"/>
<polygon fill="midnightblue" stroke="midnightblue" points="866.38,-130.79 855.81,-131.52 864.53,-137.54 866.38,-130.79"/>
</g>
<!-- Node16&#45;&gt;Node15 -->
<g id="edge31" class="edge">
<title>Node16&#45;&gt;Node15</title>
<path fill="none" stroke="midnightblue" d="M1021.72,-168.08C1021.72,-161.01 1021.72,-150.86 1021.72,-141.99"/>
<polygon fill="midnightblue" stroke="midnightblue" points="1025.22,-141.75 1021.72,-131.75 1018.22,-141.75 1025.22,-141.75"/>
</g>
<!-- Node17 -->
<g id="node17" class="node">
<title>Node17</title>
<g id="a_node17"><a xlink:title=" ">
<polygon fill="white" stroke="#bfbfbf" points="1144.22,-112.5 1144.22,-131.5 1227.22,-131.5 1227.22,-112.5 1144.22,-112.5"/>
<text text-anchor="middle" x="1185.72" y="-119.5" font-family="Helvetica,sans-Serif" font-size="10.00">QWheelEvent</text>
</a>
</g>
</g>
<!-- Node16&#45;&gt;Node17 -->
<g id="edge28" class="edge">
<title>Node16&#45;&gt;Node17</title>
<path fill="none" stroke="midnightblue" d="M1047.7,-168.44C1075.41,-159.32 1119.47,-144.81 1150.33,-134.65"/>
<polygon fill="midnightblue" stroke="midnightblue" points="1151.45,-137.97 1159.85,-131.52 1149.26,-131.32 1151.45,-137.97"/>
</g>
<!-- Node18&#45;&gt;Node2 -->
<g id="edge33" class="edge">
<title>Node18&#45;&gt;Node2</title>
<path fill="none" stroke="midnightblue" d="M182.4,-168.39C188.25,-155.33 200.55,-130.12 215.72,-112 225.36,-100.48 238.21,-89.63 248.96,-81.48"/>
<polygon fill="midnightblue" stroke="midnightblue" points="251.04,-84.29 257.03,-75.55 246.89,-78.65 251.04,-84.29"/>
</g>
<!-- Node18&#45;&gt;Node4 -->
<g id="edge34" class="edge">
<title>Node18&#45;&gt;Node4</title>
<path fill="none" stroke="midnightblue" d="M165.06,-168.32C151.8,-159.9 131.45,-146.97 115.87,-137.07"/>
<polygon fill="midnightblue" stroke="midnightblue" points="117.66,-134.06 107.34,-131.65 113.9,-139.97 117.66,-134.06"/>
</g>
<!-- Node18&#45;&gt;Node14 -->
<g id="edge35" class="edge">
<title>Node18&#45;&gt;Node14</title>
<path fill="none" stroke="midnightblue" d="M214.84,-174.42C302.58,-168.09 534.11,-150.98 737.83,-132.16"/>
<polygon fill="midnightblue" stroke="midnightblue" points="738.18,-135.64 747.81,-131.23 737.53,-128.67 738.18,-135.64"/>
</g>
</g>
</svg>
