<?xml version="1.0" encoding="UTF-8" standalone="no"?>
<!DOCTYPE svg PUBLIC "-//W3C//DTD SVG 1.1//EN"
 "http://www.w3.org/Graphics/SVG/1.1/DTD/svg11.dtd">
<!-- Generated by graphviz version 2.43.0 (0)
 -->
<!-- Title: src/chromalightnessdiagram.cpp Pages: 1 -->
<svg width="1826pt" height="364pt"
 viewBox="0.00 0.00 1825.55 364.00" xmlns="http://www.w3.org/2000/svg" xmlns:xlink="http://www.w3.org/1999/xlink">
<g id="graph0" class="graph" transform="scale(1 1) rotate(0) translate(4 360)">
<title>src/chromalightnessdiagram.cpp</title>
<polygon fill="white" stroke="transparent" points="-4,4 -4,-360 1821.55,-360 1821.55,4 -4,4"/>
<!-- Node1 -->
<g id="node1" class="node">
<title>Node1</title>
<g id="a_node1"><a xlink:title=" ">
<polygon fill="#bfbfbf" stroke="black" points="1253.05,-336.5 1253.05,-355.5 1429.05,-355.5 1429.05,-336.5 1253.05,-336.5"/>
<text text-anchor="middle" x="1341.05" y="-343.5" font-family="Helvetica,sans-Serif" font-size="10.00">src/chromalightnessdiagram.cpp</text>
</a>
</g>
</g>
<!-- Node2 -->
<g id="node2" class="node">
<title>Node2</title>
<g id="a_node2"><a xlink:href="perceptualcolorglobal_8h.html" target="_top" xlink:title=" ">
<polygon fill="white" stroke="black" points="842.05,-56.5 842.05,-75.5 1054.05,-75.5 1054.05,-56.5 842.05,-56.5"/>
<text text-anchor="middle" x="948.05" y="-63.5" font-family="Helvetica,sans-Serif" font-size="10.00">PerceptualColor/perceptualcolorglobal.h</text>
</a>
</g>
</g>
<!-- Node1&#45;&gt;Node2 -->
<g id="edge1" class="edge">
<title>Node1&#45;&gt;Node2</title>
<path fill="none" stroke="midnightblue" d="M1427.84,-336.49C1490.1,-325.02 1563.05,-298.12 1563.05,-235 1563.05,-235 1563.05,-235 1563.05,-177 1563.05,-126.57 1517.46,-129.2 1470.05,-112 1398.07,-85.89 1194.99,-74.66 1064.38,-70.03"/>
<polygon fill="midnightblue" stroke="midnightblue" points="1064.44,-66.53 1054.33,-69.68 1064.2,-73.53 1064.44,-66.53"/>
</g>
<!-- Node4 -->
<g id="node4" class="node">
<title>Node4</title>
<g id="a_node4"><a xlink:href="perceptualcolorinternal_8h.html" target="_top" xlink:title=" ">
<polygon fill="white" stroke="black" points="995.55,-112.5 995.55,-131.5 1134.55,-131.5 1134.55,-112.5 995.55,-112.5"/>
<text text-anchor="middle" x="1065.05" y="-119.5" font-family="Helvetica,sans-Serif" font-size="10.00">perceptualcolorinternal.h</text>
</a>
</g>
</g>
<!-- Node1&#45;&gt;Node4 -->
<g id="edge3" class="edge">
<title>Node1&#45;&gt;Node4</title>
<path fill="none" stroke="midnightblue" d="M1330.23,-336.3C1288.41,-302.66 1137.01,-180.88 1083.75,-138.03"/>
<polygon fill="midnightblue" stroke="midnightblue" points="1085.78,-135.18 1075.8,-131.64 1081.4,-140.64 1085.78,-135.18"/>
</g>
<!-- Node5 -->
<g id="node5" class="node">
<title>Node5</title>
<g id="a_node5"><a xlink:href="chromalightnessdiagram_8h.html" target="_top" xlink:title=" ">
<polygon fill="white" stroke="black" points="693.55,-224.5 693.55,-243.5 840.55,-243.5 840.55,-224.5 693.55,-224.5"/>
<text text-anchor="middle" x="767.05" y="-231.5" font-family="Helvetica,sans-Serif" font-size="10.00">chromalightnessdiagram.h</text>
</a>
</g>
</g>
<!-- Node1&#45;&gt;Node5 -->
<g id="edge5" class="edge">
<title>Node1&#45;&gt;Node5</title>
<path fill="none" stroke="midnightblue" d="M1253.05,-341.4C1137.01,-335.82 939.56,-323.24 871.05,-300 838.03,-288.8 804.7,-265.33 784.97,-249.87"/>
<polygon fill="midnightblue" stroke="midnightblue" points="787.14,-247.12 777.15,-243.6 782.76,-252.59 787.14,-247.12"/>
</g>
<!-- Node11 -->
<g id="node11" class="node">
<title>Node11</title>
<g id="a_node11"><a xlink:title=" ">
<polygon fill="white" stroke="#bfbfbf" points="472.05,-56.5 472.05,-75.5 528.05,-75.5 528.05,-56.5 472.05,-56.5"/>
<text text-anchor="middle" x="500.05" y="-63.5" font-family="Helvetica,sans-Serif" font-size="10.00">QDebug</text>
</a>
</g>
</g>
<!-- Node1&#45;&gt;Node11 -->
<g id="edge53" class="edge">
<title>Node1&#45;&gt;Node11</title>
<path fill="none" stroke="midnightblue" d="M1252.87,-342.39C954.47,-332.99 1.05,-298.01 1.05,-235 1.05,-235 1.05,-235 1.05,-177 1.05,-146.9 -3.16,-131.16 20.05,-112 37.06,-97.97 351.23,-76.55 461.88,-69.41"/>
<polygon fill="midnightblue" stroke="midnightblue" points="462.19,-72.9 471.94,-68.76 461.74,-65.91 462.19,-72.9"/>
</g>
<!-- Node12 -->
<g id="node12" class="node">
<title>Node12</title>
<g id="a_node12"><a xlink:href="chromalightnessdiagram__p_8h.html" target="_top" xlink:title=" ">
<polygon fill="white" stroke="black" points="971.05,-280.5 971.05,-299.5 1129.05,-299.5 1129.05,-280.5 971.05,-280.5"/>
<text text-anchor="middle" x="1050.05" y="-287.5" font-family="Helvetica,sans-Serif" font-size="10.00">chromalightnessdiagram_p.h</text>
</a>
</g>
</g>
<!-- Node1&#45;&gt;Node12 -->
<g id="edge18" class="edge">
<title>Node1&#45;&gt;Node12</title>
<path fill="none" stroke="midnightblue" d="M1294.94,-336.44C1243.65,-326.92 1160.78,-311.55 1105.86,-301.36"/>
<polygon fill="midnightblue" stroke="midnightblue" points="1106.42,-297.9 1095.95,-299.52 1105.14,-304.78 1106.42,-297.9"/>
</g>
<!-- Node21 -->
<g id="node21" class="node">
<title>Node21</title>
<g id="a_node21"><a xlink:href="helper_8h.html" target="_top" xlink:title="Various smaller help elements.">
<polygon fill="white" stroke="black" points="1403.05,-168.5 1403.05,-187.5 1459.05,-187.5 1459.05,-168.5 1403.05,-168.5"/>
<text text-anchor="middle" x="1431.05" y="-175.5" font-family="Helvetica,sans-Serif" font-size="10.00">helper.h</text>
</a>
</g>
</g>
<!-- Node1&#45;&gt;Node21 -->
<g id="edge40" class="edge">
<title>Node1&#45;&gt;Node21</title>
<path fill="none" stroke="midnightblue" d="M1345.89,-336.08C1360.18,-309.72 1402.38,-231.88 1421.48,-196.66"/>
<polygon fill="midnightblue" stroke="midnightblue" points="1424.72,-198.03 1426.41,-187.57 1418.56,-194.69 1424.72,-198.03"/>
</g>
<!-- Node23 -->
<g id="node23" class="node">
<title>Node23</title>
<g id="a_node23"><a xlink:href="lchvalues_8h.html" target="_top" xlink:title=" ">
<polygon fill="white" stroke="black" points="795.05,-168.5 795.05,-187.5 867.05,-187.5 867.05,-168.5 795.05,-168.5"/>
<text text-anchor="middle" x="831.05" y="-175.5" font-family="Helvetica,sans-Serif" font-size="10.00">lchvalues.h</text>
</a>
</g>
</g>
<!-- Node1&#45;&gt;Node23 -->
<g id="edge48" class="edge">
<title>Node1&#45;&gt;Node23</title>
<path fill="none" stroke="midnightblue" d="M1252.84,-340.81C1157.4,-335.18 1012.15,-323.09 962.05,-300 909.76,-275.89 864.31,-222.95 843.36,-195.8"/>
<polygon fill="midnightblue" stroke="midnightblue" points="846.03,-193.53 837.22,-187.65 840.44,-197.74 846.03,-193.53"/>
</g>
<!-- Node24 -->
<g id="node24" class="node">
<title>Node24</title>
<g id="a_node24"><a xlink:title=" ">
<polygon fill="white" stroke="#bfbfbf" points="1591.55,-280.5 1591.55,-299.5 1670.55,-299.5 1670.55,-280.5 1591.55,-280.5"/>
<text text-anchor="middle" x="1631.05" y="-287.5" font-family="Helvetica,sans-Serif" font-size="10.00">QApplication</text>
</a>
</g>
</g>
<!-- Node1&#45;&gt;Node24 -->
<g id="edge52" class="edge">
<title>Node1&#45;&gt;Node24</title>
<path fill="none" stroke="midnightblue" d="M1387,-336.44C1439.97,-326.58 1526.71,-310.43 1581.25,-300.27"/>
<polygon fill="midnightblue" stroke="midnightblue" points="1582.18,-303.66 1591.37,-298.39 1580.9,-296.78 1582.18,-303.66"/>
</g>
<!-- Node25 -->
<g id="node25" class="node">
<title>Node25</title>
<g id="a_node25"><a xlink:title=" ">
<polygon fill="white" stroke="#bfbfbf" points="1688.05,-280.5 1688.05,-299.5 1746.05,-299.5 1746.05,-280.5 1688.05,-280.5"/>
<text text-anchor="middle" x="1717.05" y="-287.5" font-family="Helvetica,sans-Serif" font-size="10.00">QPainter</text>
</a>
</g>
</g>
<!-- Node1&#45;&gt;Node25 -->
<g id="edge54" class="edge">
<title>Node1&#45;&gt;Node25</title>
<path fill="none" stroke="midnightblue" d="M1422.34,-336.49C1488.68,-329.01 1585.02,-316.95 1677.82,-300.08"/>
<polygon fill="midnightblue" stroke="midnightblue" points="1678.45,-303.52 1687.66,-298.27 1677.19,-296.64 1678.45,-303.52"/>
</g>
<!-- Node26 -->
<g id="node26" class="node">
<title>Node26</title>
<g id="a_node26"><a xlink:title=" ">
<polygon fill="white" stroke="#bfbfbf" points="1764.55,-280.5 1764.55,-299.5 1817.55,-299.5 1817.55,-280.5 1764.55,-280.5"/>
<text text-anchor="middle" x="1791.05" y="-287.5" font-family="Helvetica,sans-Serif" font-size="10.00">QtMath</text>
</a>
</g>
</g>
<!-- Node1&#45;&gt;Node26 -->
<g id="edge55" class="edge">
<title>Node1&#45;&gt;Node26</title>
<path fill="none" stroke="midnightblue" d="M1429.18,-338.93C1511.03,-332.49 1636.41,-320.59 1754.47,-299.86"/>
<polygon fill="midnightblue" stroke="midnightblue" points="1755.17,-303.29 1764.4,-298.09 1753.95,-296.4 1755.17,-303.29"/>
</g>
<!-- Node3 -->
<g id="node3" class="node">
<title>Node3</title>
<g id="a_node3"><a xlink:title=" ">
<polygon fill="white" stroke="#bfbfbf" points="1216.55,-0.5 1216.55,-19.5 1275.55,-19.5 1275.55,-0.5 1216.55,-0.5"/>
<text text-anchor="middle" x="1246.05" y="-7.5" font-family="Helvetica,sans-Serif" font-size="10.00">QtGlobal</text>
</a>
</g>
</g>
<!-- Node2&#45;&gt;Node3 -->
<g id="edge2" class="edge">
<title>Node2&#45;&gt;Node3</title>
<path fill="none" stroke="midnightblue" d="M995.27,-56.44C1053.55,-45.88 1151.63,-28.11 1206.26,-18.21"/>
<polygon fill="midnightblue" stroke="midnightblue" points="1207.04,-21.63 1216.26,-16.4 1205.8,-14.74 1207.04,-21.63"/>
</g>
<!-- Node4&#45;&gt;Node2 -->
<g id="edge4" class="edge">
<title>Node4&#45;&gt;Node2</title>
<path fill="none" stroke="midnightblue" d="M1046.51,-112.44C1027.43,-103.64 997.48,-89.81 975.62,-79.72"/>
<polygon fill="midnightblue" stroke="midnightblue" points="977.05,-76.53 966.51,-75.52 974.12,-82.88 977.05,-76.53"/>
</g>
<!-- Node5&#45;&gt;Node2 -->
<g id="edge6" class="edge">
<title>Node5&#45;&gt;Node2</title>
<path fill="none" stroke="midnightblue" d="M700.89,-224.43C677.23,-218.09 652.4,-207.08 636.05,-188 613.89,-162.13 603.69,-137.7 626.05,-112 652.66,-81.42 750.74,-70.99 831.74,-67.72"/>
<polygon fill="midnightblue" stroke="midnightblue" points="832.17,-71.21 842.03,-67.34 831.91,-64.21 832.17,-71.21"/>
</g>
<!-- Node5&#45;&gt;Node4 -->
<g id="edge7" class="edge">
<title>Node5&#45;&gt;Node4</title>
<path fill="none" stroke="midnightblue" d="M790.44,-224.37C843.21,-204.89 971.65,-157.48 1032.3,-135.09"/>
<polygon fill="midnightblue" stroke="midnightblue" points="1033.61,-138.34 1041.78,-131.59 1031.19,-131.77 1033.61,-138.34"/>
</g>
<!-- Node6 -->
<g id="node6" class="node">
<title>Node6</title>
<g id="a_node6"><a xlink:href="abstractdiagram_8h.html" target="_top" xlink:title=" ">
<polygon fill="white" stroke="black" points="105.05,-168.5 105.05,-187.5 291.05,-187.5 291.05,-168.5 105.05,-168.5"/>
<text text-anchor="middle" x="198.05" y="-175.5" font-family="Helvetica,sans-Serif" font-size="10.00">PerceptualColor/abstractdiagram.h</text>
</a>
</g>
</g>
<!-- Node5&#45;&gt;Node6 -->
<g id="edge8" class="edge">
<title>Node5&#45;&gt;Node6</title>
<path fill="none" stroke="midnightblue" d="M693.54,-226.02C592.64,-216.45 410.9,-199.2 297.8,-188.47"/>
<polygon fill="midnightblue" stroke="midnightblue" points="298.04,-184.97 287.75,-187.51 297.38,-191.94 298.04,-184.97"/>
</g>
<!-- Node8 -->
<g id="node8" class="node">
<title>Node8</title>
<g id="a_node8"><a xlink:href="constpropagatinguniquepointer_8h.html" target="_top" xlink:title=" ">
<polygon fill="white" stroke="black" points="145.55,-112.5 145.55,-131.5 402.55,-131.5 402.55,-112.5 145.55,-112.5"/>
<text text-anchor="middle" x="274.05" y="-119.5" font-family="Helvetica,sans-Serif" font-size="10.00">PerceptualColor/constpropagatinguniquepointer.h</text>
</a>
</g>
</g>
<!-- Node5&#45;&gt;Node8 -->
<g id="edge14" class="edge">
<title>Node5&#45;&gt;Node8</title>
<path fill="none" stroke="midnightblue" d="M728.78,-224.46C639.96,-204.64 419.98,-155.56 322.21,-133.75"/>
<polygon fill="midnightblue" stroke="midnightblue" points="322.83,-130.3 312.3,-131.53 321.3,-137.13 322.83,-130.3"/>
</g>
<!-- Node10 -->
<g id="node10" class="node">
<title>Node10</title>
<g id="a_node10"><a xlink:href="lchdouble_8h.html" target="_top" xlink:title=" ">
<polygon fill="white" stroke="black" points="747.55,-112.5 747.55,-131.5 900.55,-131.5 900.55,-112.5 747.55,-112.5"/>
<text text-anchor="middle" x="824.05" y="-119.5" font-family="Helvetica,sans-Serif" font-size="10.00">PerceptualColor/lchdouble.h</text>
</a>
</g>
</g>
<!-- Node5&#45;&gt;Node10 -->
<g id="edge15" class="edge">
<title>Node5&#45;&gt;Node10</title>
<path fill="none" stroke="midnightblue" d="M768.44,-224.14C770.72,-211.2 776.04,-186.64 786.05,-168 791.71,-157.46 800.14,-147.15 807.62,-139.07"/>
<polygon fill="midnightblue" stroke="midnightblue" points="810.21,-141.42 814.64,-131.8 805.18,-136.56 810.21,-141.42"/>
</g>
<!-- Node6&#45;&gt;Node2 -->
<g id="edge9" class="edge">
<title>Node6&#45;&gt;Node2</title>
<path fill="none" stroke="midnightblue" d="M179.39,-168.4C154.82,-155.98 116.87,-132.28 136.05,-112 159.56,-87.15 612.82,-74.14 831.7,-69.28"/>
<polygon fill="midnightblue" stroke="midnightblue" points="832.02,-72.77 841.94,-69.05 831.87,-65.77 832.02,-72.77"/>
</g>
<!-- Node7 -->
<g id="node7" class="node">
<title>Node7</title>
<g id="a_node7"><a xlink:title=" ">
<polygon fill="white" stroke="#bfbfbf" points="29.55,-112.5 29.55,-131.5 88.55,-131.5 88.55,-112.5 29.55,-112.5"/>
<text text-anchor="middle" x="59.05" y="-119.5" font-family="Helvetica,sans-Serif" font-size="10.00">QWidget</text>
</a>
</g>
</g>
<!-- Node6&#45;&gt;Node7 -->
<g id="edge10" class="edge">
<title>Node6&#45;&gt;Node7</title>
<path fill="none" stroke="midnightblue" d="M176.03,-168.44C152.95,-159.48 116.49,-145.31 90.41,-135.18"/>
<polygon fill="midnightblue" stroke="midnightblue" points="91.56,-131.88 80.98,-131.52 89.03,-138.4 91.56,-131.88"/>
</g>
<!-- Node6&#45;&gt;Node8 -->
<g id="edge11" class="edge">
<title>Node6&#45;&gt;Node8</title>
<path fill="none" stroke="midnightblue" d="M210.26,-168.32C221.83,-160.11 239.43,-147.6 253.21,-137.81"/>
<polygon fill="midnightblue" stroke="midnightblue" points="255.5,-140.48 261.62,-131.83 251.44,-134.77 255.5,-140.48"/>
</g>
<!-- Node8&#45;&gt;Node2 -->
<g id="edge12" class="edge">
<title>Node8&#45;&gt;Node2</title>
<path fill="none" stroke="midnightblue" d="M380.48,-112.47C503.37,-102.63 704.84,-86.49 831.76,-76.32"/>
<polygon fill="midnightblue" stroke="midnightblue" points="832.22,-79.79 841.91,-75.5 831.66,-72.81 832.22,-79.79"/>
</g>
<!-- Node9 -->
<g id="node9" class="node">
<title>Node9</title>
<g id="a_node9"><a xlink:title=" ">
<polygon fill="white" stroke="#bfbfbf" points="245.05,-56.5 245.05,-75.5 303.05,-75.5 303.05,-56.5 245.05,-56.5"/>
<text text-anchor="middle" x="274.05" y="-63.5" font-family="Helvetica,sans-Serif" font-size="10.00">memory</text>
</a>
</g>
</g>
<!-- Node8&#45;&gt;Node9 -->
<g id="edge13" class="edge">
<title>Node8&#45;&gt;Node9</title>
<path fill="none" stroke="midnightblue" d="M274.05,-112.08C274.05,-105.01 274.05,-94.86 274.05,-85.99"/>
<polygon fill="midnightblue" stroke="midnightblue" points="277.55,-85.75 274.05,-75.75 270.55,-85.75 277.55,-85.75"/>
</g>
<!-- Node10&#45;&gt;Node2 -->
<g id="edge16" class="edge">
<title>Node10&#45;&gt;Node2</title>
<path fill="none" stroke="midnightblue" d="M843.7,-112.44C864.02,-103.6 895.96,-89.69 919.15,-79.59"/>
<polygon fill="midnightblue" stroke="midnightblue" points="920.73,-82.72 928.5,-75.52 917.93,-76.3 920.73,-82.72"/>
</g>
<!-- Node10&#45;&gt;Node11 -->
<g id="edge17" class="edge">
<title>Node10&#45;&gt;Node11</title>
<path fill="none" stroke="midnightblue" d="M772.71,-112.44C707.4,-101.56 596.12,-83.01 537.98,-73.32"/>
<polygon fill="midnightblue" stroke="midnightblue" points="538.54,-69.87 528.1,-71.67 537.39,-76.77 538.54,-69.87"/>
</g>
<!-- Node12&#45;&gt;Node2 -->
<g id="edge19" class="edge">
<title>Node12&#45;&gt;Node2</title>
<path fill="none" stroke="midnightblue" d="M1129.08,-281.39C1238.3,-269.04 1426.67,-240.58 1468.05,-188 1473.55,-181.02 1469.57,-176.76 1468.05,-168 1463.54,-141.96 1468.95,-128.18 1448.05,-112 1418.41,-89.05 1202.72,-76.62 1064.49,-70.94"/>
<polygon fill="midnightblue" stroke="midnightblue" points="1064.39,-67.43 1054.26,-70.52 1064.11,-74.43 1064.39,-67.43"/>
</g>
<!-- Node12&#45;&gt;Node4 -->
<g id="edge20" class="edge">
<title>Node12&#45;&gt;Node4</title>
<path fill="none" stroke="midnightblue" d="M1056.17,-280.36C1067.63,-263.55 1091.91,-224.87 1100.05,-188 1101.97,-179.32 1102.94,-176.41 1100.05,-168 1096.33,-157.16 1088.82,-146.92 1081.7,-138.96"/>
<polygon fill="midnightblue" stroke="midnightblue" points="1084.05,-136.35 1074.61,-131.55 1079,-141.19 1084.05,-136.35"/>
</g>
<!-- Node12&#45;&gt;Node5 -->
<g id="edge21" class="edge">
<title>Node12&#45;&gt;Node5</title>
<path fill="none" stroke="midnightblue" d="M1005.21,-280.44C955.43,-270.94 875.07,-255.61 821.66,-245.42"/>
<polygon fill="midnightblue" stroke="midnightblue" points="822.16,-241.95 811.69,-243.52 820.85,-248.83 822.16,-241.95"/>
</g>
<!-- Node13 -->
<g id="node13" class="node">
<title>Node13</title>
<g id="a_node13"><a xlink:href="chromalightnessimage_8h.html" target="_top" xlink:title=" ">
<polygon fill="white" stroke="black" points="928.55,-224.5 928.55,-243.5 1065.55,-243.5 1065.55,-224.5 928.55,-224.5"/>
<text text-anchor="middle" x="997.05" y="-231.5" font-family="Helvetica,sans-Serif" font-size="10.00">chromalightnessimage.h</text>
</a>
</g>
</g>
<!-- Node12&#45;&gt;Node13 -->
<g id="edge22" class="edge">
<title>Node12&#45;&gt;Node13</title>
<path fill="none" stroke="midnightblue" d="M1041.3,-280.08C1033.58,-272.22 1022.15,-260.57 1012.84,-251.08"/>
<polygon fill="midnightblue" stroke="midnightblue" points="1015.15,-248.44 1005.64,-243.75 1010.15,-253.34 1015.15,-248.44"/>
</g>
<!-- Node20 -->
<g id="node20" class="node">
<title>Node20</title>
<g id="a_node20"><a xlink:href="constpropagatingrawpointer_8h.html" target="_top" xlink:title=" ">
<polygon fill="white" stroke="black" points="1185.05,-168.5 1185.05,-187.5 1347.05,-187.5 1347.05,-168.5 1185.05,-168.5"/>
<text text-anchor="middle" x="1266.05" y="-175.5" font-family="Helvetica,sans-Serif" font-size="10.00">constpropagatingrawpointer.h</text>
</a>
</g>
</g>
<!-- Node12&#45;&gt;Node20 -->
<g id="edge37" class="edge">
<title>Node12&#45;&gt;Node20</title>
<path fill="none" stroke="midnightblue" d="M1067,-280.37C1104.62,-261.21 1195.29,-215.04 1240.1,-192.22"/>
<polygon fill="midnightblue" stroke="midnightblue" points="1241.86,-195.25 1249.18,-187.59 1238.68,-189.01 1241.86,-195.25"/>
</g>
<!-- Node13&#45;&gt;Node2 -->
<g id="edge23" class="edge">
<title>Node13&#45;&gt;Node2</title>
<path fill="none" stroke="midnightblue" d="M994.05,-224.41C990.94,-215.39 985.97,-200.75 982.05,-188 970.94,-151.8 959.27,-109.09 952.91,-85.32"/>
<polygon fill="midnightblue" stroke="midnightblue" points="956.26,-84.31 950.3,-75.55 949.5,-86.11 956.26,-84.31"/>
</g>
<!-- Node13&#45;&gt;Node4 -->
<g id="edge24" class="edge">
<title>Node13&#45;&gt;Node4</title>
<path fill="none" stroke="midnightblue" d="M993.09,-224.35C987.71,-211.25 979.88,-185.98 990.05,-168 998.4,-153.26 1013.72,-142.82 1028.34,-135.73"/>
<polygon fill="midnightblue" stroke="midnightblue" points="1030.05,-138.8 1037.77,-131.55 1027.21,-132.4 1030.05,-138.8"/>
</g>
<!-- Node14 -->
<g id="node14" class="node">
<title>Node14</title>
<g id="a_node14"><a xlink:title=" ">
<polygon fill="white" stroke="#bfbfbf" points="1264.55,-112.5 1264.55,-131.5 1319.55,-131.5 1319.55,-112.5 1264.55,-112.5"/>
<text text-anchor="middle" x="1292.05" y="-119.5" font-family="Helvetica,sans-Serif" font-size="10.00">QImage</text>
</a>
</g>
</g>
<!-- Node13&#45;&gt;Node14 -->
<g id="edge25" class="edge">
<title>Node13&#45;&gt;Node14</title>
<path fill="none" stroke="midnightblue" d="M1065.78,-229.21C1164.62,-223.06 1337.19,-209.37 1356.05,-188 1372.52,-169.34 1344.66,-149.1 1320.68,-136.25"/>
<polygon fill="midnightblue" stroke="midnightblue" points="1321.95,-132.96 1311.45,-131.54 1318.77,-139.2 1321.95,-132.96"/>
</g>
<!-- Node15 -->
<g id="node15" class="node">
<title>Node15</title>
<g id="a_node15"><a xlink:title=" ">
<polygon fill="white" stroke="#bfbfbf" points="999.05,-168.5 999.05,-187.5 1091.05,-187.5 1091.05,-168.5 999.05,-168.5"/>
<text text-anchor="middle" x="1045.05" y="-175.5" font-family="Helvetica,sans-Serif" font-size="10.00">QSharedPointer</text>
</a>
</g>
</g>
<!-- Node13&#45;&gt;Node15 -->
<g id="edge26" class="edge">
<title>Node13&#45;&gt;Node15</title>
<path fill="none" stroke="midnightblue" d="M1004.98,-224.08C1011.9,-216.3 1022.12,-204.8 1030.51,-195.37"/>
<polygon fill="midnightblue" stroke="midnightblue" points="1033.25,-197.55 1037.27,-187.75 1028.02,-192.9 1033.25,-197.55"/>
</g>
<!-- Node16 -->
<g id="node16" class="node">
<title>Node16</title>
<g id="a_node16"><a xlink:href="rgbcolorspace_8h.html" target="_top" xlink:title=" ">
<polygon fill="white" stroke="black" points="645.05,-168.5 645.05,-187.5 739.05,-187.5 739.05,-168.5 645.05,-168.5"/>
<text text-anchor="middle" x="692.05" y="-175.5" font-family="Helvetica,sans-Serif" font-size="10.00">rgbcolorspace.h</text>
</a>
</g>
</g>
<!-- Node13&#45;&gt;Node16 -->
<g id="edge27" class="edge">
<title>Node13&#45;&gt;Node16</title>
<path fill="none" stroke="midnightblue" d="M948.73,-224.44C894.53,-214.85 806.72,-199.3 749.18,-189.11"/>
<polygon fill="midnightblue" stroke="midnightblue" points="749.61,-185.64 739.15,-187.34 748.39,-192.53 749.61,-185.64"/>
</g>
<!-- Node16&#45;&gt;Node2 -->
<g id="edge28" class="edge">
<title>Node16&#45;&gt;Node2</title>
<path fill="none" stroke="midnightblue" d="M695.68,-168.25C702.03,-154.05 716.59,-126.16 738.05,-112 765.77,-93.72 799.61,-82.72 831.96,-76.13"/>
<polygon fill="midnightblue" stroke="midnightblue" points="832.78,-79.54 841.94,-74.23 831.46,-72.66 832.78,-79.54"/>
</g>
<!-- Node16&#45;&gt;Node4 -->
<g id="edge29" class="edge">
<title>Node16&#45;&gt;Node4</title>
<path fill="none" stroke="midnightblue" d="M739.29,-170.16C804.17,-160.77 921.27,-143.82 995.99,-133"/>
<polygon fill="midnightblue" stroke="midnightblue" points="996.84,-136.41 1006.24,-131.51 995.84,-129.48 996.84,-136.41"/>
</g>
<!-- Node16&#45;&gt;Node8 -->
<g id="edge31" class="edge">
<title>Node16&#45;&gt;Node8</title>
<path fill="none" stroke="midnightblue" d="M644.92,-170.91C573.14,-161.64 435.72,-143.89 349.82,-132.79"/>
<polygon fill="midnightblue" stroke="midnightblue" points="350.23,-129.31 339.86,-131.5 349.33,-136.25 350.23,-129.31"/>
</g>
<!-- Node16&#45;&gt;Node10 -->
<g id="edge35" class="edge">
<title>Node16&#45;&gt;Node10</title>
<path fill="none" stroke="midnightblue" d="M712.97,-168.44C734.79,-159.52 769.2,-145.44 793.95,-135.32"/>
<polygon fill="midnightblue" stroke="midnightblue" points="795.31,-138.54 803.24,-131.52 792.65,-132.06 795.31,-138.54"/>
</g>
<!-- Node17 -->
<g id="node17" class="node">
<title>Node17</title>
<g id="a_node17"><a xlink:title=" ">
<polygon fill="white" stroke="#bfbfbf" points="635.05,-112.5 635.05,-131.5 691.05,-131.5 691.05,-112.5 635.05,-112.5"/>
<text text-anchor="middle" x="663.05" y="-119.5" font-family="Helvetica,sans-Serif" font-size="10.00">QObject</text>
</a>
</g>
</g>
<!-- Node16&#45;&gt;Node17 -->
<g id="edge30" class="edge">
<title>Node16&#45;&gt;Node17</title>
<path fill="none" stroke="midnightblue" d="M687.26,-168.08C683.3,-160.69 677.53,-149.95 672.62,-140.81"/>
<polygon fill="midnightblue" stroke="midnightblue" points="675.57,-138.91 667.75,-131.75 669.4,-142.22 675.57,-138.91"/>
</g>
<!-- Node18 -->
<g id="node18" class="node">
<title>Node18</title>
<g id="a_node18"><a xlink:href="lchadouble_8h.html" target="_top" xlink:title=" ">
<polygon fill="white" stroke="black" points="420.55,-112.5 420.55,-131.5 579.55,-131.5 579.55,-112.5 420.55,-112.5"/>
<text text-anchor="middle" x="500.05" y="-119.5" font-family="Helvetica,sans-Serif" font-size="10.00">PerceptualColor/lchadouble.h</text>
</a>
</g>
</g>
<!-- Node16&#45;&gt;Node18 -->
<g id="edge32" class="edge">
<title>Node16&#45;&gt;Node18</title>
<path fill="none" stroke="midnightblue" d="M661.63,-168.44C628.77,-159.2 576.27,-144.44 540.08,-134.26"/>
<polygon fill="midnightblue" stroke="midnightblue" points="540.91,-130.85 530.33,-131.52 539.01,-137.59 540.91,-130.85"/>
</g>
<!-- Node19 -->
<g id="node19" class="node">
<title>Node19</title>
<g id="a_node19"><a xlink:title=" ">
<polygon fill="white" stroke="#bfbfbf" points="1152.55,-112.5 1152.55,-131.5 1207.55,-131.5 1207.55,-112.5 1152.55,-112.5"/>
<text text-anchor="middle" x="1180.05" y="-119.5" font-family="Helvetica,sans-Serif" font-size="10.00">lcms2.h</text>
</a>
</g>
</g>
<!-- Node16&#45;&gt;Node19 -->
<g id="edge36" class="edge">
<title>Node16&#45;&gt;Node19</title>
<path fill="none" stroke="midnightblue" d="M739.1,-172.48C842.58,-162.53 1084.77,-139.1 1142.32,-131.64"/>
<polygon fill="midnightblue" stroke="midnightblue" points="1142.86,-135.1 1152.26,-130.2 1141.86,-128.17 1142.86,-135.1"/>
</g>
<!-- Node18&#45;&gt;Node2 -->
<g id="edge33" class="edge">
<title>Node18&#45;&gt;Node2</title>
<path fill="none" stroke="midnightblue" d="M571.04,-112.44C651.65,-102.73 782.9,-86.91 867.34,-76.73"/>
<polygon fill="midnightblue" stroke="midnightblue" points="867.89,-80.19 877.4,-75.52 867.05,-73.24 867.89,-80.19"/>
</g>
<!-- Node18&#45;&gt;Node11 -->
<g id="edge34" class="edge">
<title>Node18&#45;&gt;Node11</title>
<path fill="none" stroke="midnightblue" d="M500.05,-112.08C500.05,-105.01 500.05,-94.86 500.05,-85.99"/>
<polygon fill="midnightblue" stroke="midnightblue" points="503.55,-85.75 500.05,-75.75 496.55,-85.75 503.55,-85.75"/>
</g>
<!-- Node20&#45;&gt;Node2 -->
<g id="edge38" class="edge">
<title>Node20&#45;&gt;Node2</title>
<path fill="none" stroke="midnightblue" d="M1261.98,-168.14C1254.86,-153.77 1238.76,-125.63 1216.05,-112 1188.75,-95.6 1115.69,-83.98 1052.74,-76.67"/>
<polygon fill="midnightblue" stroke="midnightblue" points="1053.06,-73.18 1042.73,-75.53 1052.27,-80.13 1053.06,-73.18"/>
</g>
<!-- Node20&#45;&gt;Node4 -->
<g id="edge39" class="edge">
<title>Node20&#45;&gt;Node4</title>
<path fill="none" stroke="midnightblue" d="M1234.2,-168.44C1199.66,-159.16 1144.37,-144.31 1106.47,-134.13"/>
<polygon fill="midnightblue" stroke="midnightblue" points="1107.32,-130.73 1096.75,-131.52 1105.5,-137.49 1107.32,-130.73"/>
</g>
<!-- Node21&#45;&gt;Node2 -->
<g id="edge41" class="edge">
<title>Node21&#45;&gt;Node2</title>
<path fill="none" stroke="midnightblue" d="M1434.04,-168.06C1438.09,-154.1 1443.28,-127.14 1429.05,-112 1404.55,-85.92 1198.91,-74.61 1064.56,-69.97"/>
<polygon fill="midnightblue" stroke="midnightblue" points="1064.32,-66.46 1054.21,-69.62 1064.09,-73.46 1064.32,-66.46"/>
</g>
<!-- Node21&#45;&gt;Node3 -->
<g id="edge45" class="edge">
<title>Node21&#45;&gt;Node3</title>
<path fill="none" stroke="midnightblue" d="M1437.29,-168.37C1445.91,-155.29 1459.21,-130.06 1448.05,-112 1412.62,-54.67 1333.7,-28.79 1285.67,-17.98"/>
<polygon fill="midnightblue" stroke="midnightblue" points="1286.13,-14.5 1275.62,-15.83 1284.67,-21.34 1286.13,-14.5"/>
</g>
<!-- Node21&#45;&gt;Node4 -->
<g id="edge42" class="edge">
<title>Node21&#45;&gt;Node4</title>
<path fill="none" stroke="midnightblue" d="M1402.94,-172.85C1345.63,-164.4 1213.89,-144.96 1132.88,-133.01"/>
<polygon fill="midnightblue" stroke="midnightblue" points="1133.18,-129.51 1122.77,-131.52 1132.16,-136.44 1133.18,-129.51"/>
</g>
<!-- Node21&#45;&gt;Node10 -->
<g id="edge46" class="edge">
<title>Node21&#45;&gt;Node10</title>
<path fill="none" stroke="midnightblue" d="M1402.94,-173.39C1388.88,-171.64 1371.58,-169.59 1356.05,-168 1199.44,-151.98 1016.47,-137.41 911.05,-129.42"/>
<polygon fill="midnightblue" stroke="midnightblue" points="911.01,-125.91 900.78,-128.64 910.49,-132.89 911.01,-125.91"/>
</g>
<!-- Node21&#45;&gt;Node14 -->
<g id="edge43" class="edge">
<title>Node21&#45;&gt;Node14</title>
<path fill="none" stroke="midnightblue" d="M1409.03,-168.44C1385.95,-159.48 1349.49,-145.31 1323.41,-135.18"/>
<polygon fill="midnightblue" stroke="midnightblue" points="1324.56,-131.88 1313.98,-131.52 1322.03,-138.4 1324.56,-131.88"/>
</g>
<!-- Node21&#45;&gt;Node19 -->
<g id="edge47" class="edge">
<title>Node21&#45;&gt;Node19</title>
<path fill="none" stroke="midnightblue" d="M1402.75,-170.91C1357.41,-161.16 1268.46,-142.02 1217.78,-131.12"/>
<polygon fill="midnightblue" stroke="midnightblue" points="1218.38,-127.67 1207.87,-128.98 1216.91,-134.51 1218.38,-127.67"/>
</g>
<!-- Node22 -->
<g id="node22" class="node">
<title>Node22</title>
<g id="a_node22"><a xlink:title=" ">
<polygon fill="white" stroke="#bfbfbf" points="1337.55,-112.5 1337.55,-131.5 1420.55,-131.5 1420.55,-112.5 1337.55,-112.5"/>
<text text-anchor="middle" x="1379.05" y="-119.5" font-family="Helvetica,sans-Serif" font-size="10.00">QWheelEvent</text>
</a>
</g>
</g>
<!-- Node21&#45;&gt;Node22 -->
<g id="edge44" class="edge">
<title>Node21&#45;&gt;Node22</title>
<path fill="none" stroke="midnightblue" d="M1422.47,-168.08C1414.89,-160.22 1403.68,-148.57 1394.54,-139.08"/>
<polygon fill="midnightblue" stroke="midnightblue" points="1396.94,-136.53 1387.48,-131.75 1391.9,-141.38 1396.94,-136.53"/>
</g>
<!-- Node23&#45;&gt;Node2 -->
<g id="edge49" class="edge">
<title>Node23&#45;&gt;Node2</title>
<path fill="none" stroke="midnightblue" d="M852.18,-168.39C869.06,-160.73 892.55,-148.22 909.05,-132 922.95,-118.34 933.82,-98.74 940.51,-84.64"/>
<polygon fill="midnightblue" stroke="midnightblue" points="943.71,-86.06 944.63,-75.5 937.33,-83.18 943.71,-86.06"/>
</g>
<!-- Node23&#45;&gt;Node4 -->
<g id="edge50" class="edge">
<title>Node23&#45;&gt;Node4</title>
<path fill="none" stroke="midnightblue" d="M867.1,-168.68C907.66,-159.32 973.67,-144.09 1018.2,-133.81"/>
<polygon fill="midnightblue" stroke="midnightblue" points="1019.23,-137.17 1028.19,-131.51 1017.66,-130.35 1019.23,-137.17"/>
</g>
<!-- Node23&#45;&gt;Node10 -->
<g id="edge51" class="edge">
<title>Node23&#45;&gt;Node10</title>
<path fill="none" stroke="midnightblue" d="M829.9,-168.08C828.97,-160.93 827.64,-150.64 826.48,-141.69"/>
<polygon fill="midnightblue" stroke="midnightblue" points="829.94,-141.22 825.19,-131.75 823,-142.12 829.94,-141.22"/>
</g>
</g>
</svg>
