<?xml version="1.0" encoding="UTF-8" standalone="no"?>
<!DOCTYPE svg PUBLIC "-//W3C//DTD SVG 1.1//EN"
 "http://www.w3.org/Graphics/SVG/1.1/DTD/svg11.dtd">
<!-- Generated by graphviz version 2.43.0 (0)
 -->
<!-- Title: src/chromalightnessimage.h Pages: 1 -->
<svg width="595pt" height="140pt"
 viewBox="0.00 0.00 595.00 140.00" xmlns="http://www.w3.org/2000/svg" xmlns:xlink="http://www.w3.org/1999/xlink">
<g id="graph0" class="graph" transform="scale(1 1) rotate(0) translate(4 136)">
<title>src/chromalightnessimage.h</title>
<polygon fill="white" stroke="transparent" points="-4,4 -4,-136 591,-136 591,4 -4,4"/>
<!-- Node1 -->
<g id="node1" class="node">
<title>Node1</title>
<g id="a_node1"><a xlink:title=" ">
<polygon fill="#bfbfbf" stroke="black" points="286.5,-112.5 286.5,-131.5 441.5,-131.5 441.5,-112.5 286.5,-112.5"/>
<text text-anchor="middle" x="364" y="-119.5" font-family="Helvetica,sans-Serif" font-size="10.00">src/chromalightnessimage.h</text>
</a>
</g>
</g>
<!-- Node2 -->
<g id="node2" class="node">
<title>Node2</title>
<g id="a_node2"><a xlink:href="chromalightnessdiagram__p_8h.html" target="_top" xlink:title=" ">
<polygon fill="white" stroke="black" points="87,-56.5 87,-75.5 263,-75.5 263,-56.5 87,-56.5"/>
<text text-anchor="middle" x="175" y="-63.5" font-family="Helvetica,sans-Serif" font-size="10.00">src/chromalightnessdiagram_p.h</text>
</a>
</g>
</g>
<!-- Node1&#45;&gt;Node2 -->
<g id="edge1" class="edge">
<title>Node1&#45;&gt;Node2</title>
<path fill="none" stroke="midnightblue" d="M323.99,-109.57C288.33,-99.38 236.96,-84.7 204.81,-75.52"/>
<polygon fill="midnightblue" stroke="midnightblue" points="323.48,-113.06 334.05,-112.44 325.4,-106.33 323.48,-113.06"/>
</g>
<!-- Node5 -->
<g id="node5" class="node">
<title>Node5</title>
<g id="a_node5"><a xlink:href="chromalightnessimage_8cpp.html" target="_top" xlink:title=" ">
<polygon fill="white" stroke="black" points="281,-56.5 281,-75.5 447,-75.5 447,-56.5 281,-56.5"/>
<text text-anchor="middle" x="364" y="-63.5" font-family="Helvetica,sans-Serif" font-size="10.00">src/chromalightnessimage.cpp</text>
</a>
</g>
</g>
<!-- Node1&#45;&gt;Node5 -->
<g id="edge4" class="edge">
<title>Node1&#45;&gt;Node5</title>
<path fill="none" stroke="midnightblue" d="M364,-101.8C364,-92.91 364,-82.78 364,-75.75"/>
<polygon fill="midnightblue" stroke="midnightblue" points="360.5,-102.08 364,-112.08 367.5,-102.08 360.5,-102.08"/>
</g>
<!-- Node6 -->
<g id="node6" class="node">
<title>Node6</title>
<g id="a_node6"><a xlink:href="rgbcolorspace__p_8h.html" target="_top" xlink:title=" ">
<polygon fill="white" stroke="black" points="465,-56.5 465,-75.5 587,-75.5 587,-56.5 465,-56.5"/>
<text text-anchor="middle" x="526" y="-63.5" font-family="Helvetica,sans-Serif" font-size="10.00">src/rgbcolorspace_p.h</text>
</a>
</g>
</g>
<!-- Node1&#45;&gt;Node6 -->
<g id="edge5" class="edge">
<title>Node1&#45;&gt;Node6</title>
<path fill="none" stroke="midnightblue" d="M399.48,-109.17C429.99,-99 473.24,-84.59 500.45,-75.52"/>
<polygon fill="midnightblue" stroke="midnightblue" points="398.05,-105.96 389.67,-112.44 400.26,-112.6 398.05,-105.96"/>
</g>
<!-- Node3 -->
<g id="node3" class="node">
<title>Node3</title>
<g id="a_node3"><a xlink:href="chromalightnessdiagram_8cpp.html" target="_top" xlink:title=" ">
<polygon fill="white" stroke="black" points="0,-0.5 0,-19.5 176,-19.5 176,-0.5 0,-0.5"/>
<text text-anchor="middle" x="88" y="-7.5" font-family="Helvetica,sans-Serif" font-size="10.00">src/chromalightnessdiagram.cpp</text>
</a>
</g>
</g>
<!-- Node2&#45;&gt;Node3 -->
<g id="edge2" class="edge">
<title>Node2&#45;&gt;Node3</title>
<path fill="none" stroke="midnightblue" d="M152.28,-50.9C136.33,-41 115.5,-28.07 101.94,-19.65"/>
<polygon fill="midnightblue" stroke="midnightblue" points="150.68,-54.02 161.02,-56.32 154.37,-48.08 150.68,-54.02"/>
</g>
<!-- Node4 -->
<g id="node4" class="node">
<title>Node4</title>
<g id="a_node4"><a xlink:href="wheelcolorpicker_8cpp.html" target="_top" xlink:title=" ">
<polygon fill="white" stroke="black" points="194,-0.5 194,-19.5 330,-19.5 330,-0.5 194,-0.5"/>
<text text-anchor="middle" x="262" y="-7.5" font-family="Helvetica,sans-Serif" font-size="10.00">src/wheelcolorpicker.cpp</text>
</a>
</g>
</g>
<!-- Node2&#45;&gt;Node4 -->
<g id="edge3" class="edge">
<title>Node2&#45;&gt;Node4</title>
<path fill="none" stroke="midnightblue" d="M197.72,-50.9C213.67,-41 234.5,-28.07 248.06,-19.65"/>
<polygon fill="midnightblue" stroke="midnightblue" points="195.63,-48.08 188.98,-56.32 199.32,-54.02 195.63,-48.08"/>
</g>
<!-- Node7 -->
<g id="node7" class="node">
<title>Node7</title>
<g id="a_node7"><a xlink:href="rgbcolorspace_8cpp.html" target="_top" xlink:title=" ">
<polygon fill="white" stroke="black" points="465,-0.5 465,-19.5 587,-19.5 587,-0.5 465,-0.5"/>
<text text-anchor="middle" x="526" y="-7.5" font-family="Helvetica,sans-Serif" font-size="10.00">src/rgbcolorspace.cpp</text>
</a>
</g>
</g>
<!-- Node6&#45;&gt;Node7 -->
<g id="edge6" class="edge">
<title>Node6&#45;&gt;Node7</title>
<path fill="none" stroke="midnightblue" d="M526,-45.8C526,-36.91 526,-26.78 526,-19.75"/>
<polygon fill="midnightblue" stroke="midnightblue" points="522.5,-46.08 526,-56.08 529.5,-46.08 522.5,-46.08"/>
</g>
</g>
</svg>
