<?xml version="1.0" encoding="UTF-8" standalone="no"?>
<!DOCTYPE svg PUBLIC "-//W3C//DTD SVG 1.1//EN"
 "http://www.w3.org/Graphics/SVG/1.1/DTD/svg11.dtd">
<!-- Generated by graphviz version 2.43.0 (0)
 -->
<!-- Title: src/chromalightnessdiagram_p.h Pages: 1 -->
<svg width="1223pt" height="308pt"
 viewBox="0.00 0.00 1223.32 308.00" xmlns="http://www.w3.org/2000/svg" xmlns:xlink="http://www.w3.org/1999/xlink">
<g id="graph0" class="graph" transform="scale(1 1) rotate(0) translate(4 304)">
<title>src/chromalightnessdiagram_p.h</title>
<polygon fill="white" stroke="transparent" points="-4,4 -4,-304 1219.32,-304 1219.32,4 -4,4"/>
<!-- Node1 -->
<g id="node1" class="node">
<title>Node1</title>
<g id="a_node1"><a xlink:title=" ">
<polygon fill="#bfbfbf" stroke="black" points="770.5,-280.5 770.5,-299.5 946.5,-299.5 946.5,-280.5 770.5,-280.5"/>
<text text-anchor="middle" x="858.5" y="-287.5" font-family="Helvetica,sans-Serif" font-size="10.00">src/chromalightnessdiagram_p.h</text>
</a>
</g>
</g>
<!-- Node2 -->
<g id="node2" class="node">
<title>Node2</title>
<g id="a_node2"><a xlink:href="perceptualcolorglobal_8h.html" target="_top" xlink:title=" ">
<polygon fill="white" stroke="black" points="597.5,-56.5 597.5,-75.5 809.5,-75.5 809.5,-56.5 597.5,-56.5"/>
<text text-anchor="middle" x="703.5" y="-63.5" font-family="Helvetica,sans-Serif" font-size="10.00">PerceptualColor/perceptualcolorglobal.h</text>
</a>
</g>
</g>
<!-- Node1&#45;&gt;Node2 -->
<g id="edge1" class="edge">
<title>Node1&#45;&gt;Node2</title>
<path fill="none" stroke="midnightblue" d="M827.31,-280.43C784.01,-267.12 705.49,-237.7 656.5,-188 631.34,-162.47 611.93,-143.25 629.5,-112 637.72,-97.38 652.83,-86.95 667.26,-79.85"/>
<polygon fill="midnightblue" stroke="midnightblue" points="668.9,-82.95 676.57,-75.64 666.02,-76.57 668.9,-82.95"/>
</g>
<!-- Node4 -->
<g id="node4" class="node">
<title>Node4</title>
<g id="a_node4"><a xlink:href="perceptualcolorinternal_8h.html" target="_top" xlink:title=" ">
<polygon fill="white" stroke="black" points="1040,-112.5 1040,-131.5 1179,-131.5 1179,-112.5 1040,-112.5"/>
<text text-anchor="middle" x="1109.5" y="-119.5" font-family="Helvetica,sans-Serif" font-size="10.00">perceptualcolorinternal.h</text>
</a>
</g>
</g>
<!-- Node1&#45;&gt;Node4 -->
<g id="edge3" class="edge">
<title>Node1&#45;&gt;Node4</title>
<path fill="none" stroke="midnightblue" d="M946.85,-282.12C1021.25,-275.16 1121.05,-262.73 1156.5,-244 1192.69,-224.88 1230.66,-202.41 1208.5,-168 1198.19,-151.99 1180.65,-141.62 1163.17,-134.92"/>
<polygon fill="midnightblue" stroke="midnightblue" points="1164.1,-131.54 1153.51,-131.56 1161.8,-138.15 1164.1,-131.54"/>
</g>
<!-- Node5 -->
<g id="node5" class="node">
<title>Node5</title>
<g id="a_node5"><a xlink:href="chromalightnessdiagram_8h.html" target="_top" xlink:title=" ">
<polygon fill="white" stroke="black" points="364,-224.5 364,-243.5 511,-243.5 511,-224.5 364,-224.5"/>
<text text-anchor="middle" x="437.5" y="-231.5" font-family="Helvetica,sans-Serif" font-size="10.00">chromalightnessdiagram.h</text>
</a>
</g>
</g>
<!-- Node1&#45;&gt;Node5 -->
<g id="edge5" class="edge">
<title>Node1&#45;&gt;Node5</title>
<path fill="none" stroke="midnightblue" d="M791.79,-280.44C716.19,-270.75 593.2,-254.97 513.83,-244.79"/>
<polygon fill="midnightblue" stroke="midnightblue" points="514.26,-241.32 503.9,-243.52 513.37,-248.26 514.26,-241.32"/>
</g>
<!-- Node12 -->
<g id="node12" class="node">
<title>Node12</title>
<g id="a_node12"><a xlink:href="chromalightnessimage_8h.html" target="_top" xlink:title=" ">
<polygon fill="white" stroke="black" points="1010,-224.5 1010,-243.5 1147,-243.5 1147,-224.5 1010,-224.5"/>
<text text-anchor="middle" x="1078.5" y="-231.5" font-family="Helvetica,sans-Serif" font-size="10.00">chromalightnessimage.h</text>
</a>
</g>
</g>
<!-- Node1&#45;&gt;Node12 -->
<g id="edge18" class="edge">
<title>Node1&#45;&gt;Node12</title>
<path fill="none" stroke="midnightblue" d="M893.36,-280.44C931.42,-271.1 992.46,-256.12 1033.96,-245.93"/>
<polygon fill="midnightblue" stroke="midnightblue" points="1034.93,-249.3 1043.8,-243.52 1033.26,-242.5 1034.93,-249.3"/>
</g>
<!-- Node19 -->
<g id="node19" class="node">
<title>Node19</title>
<g id="a_node19"><a xlink:href="constpropagatingrawpointer_8h.html" target="_top" xlink:title=" ">
<polygon fill="white" stroke="black" points="777.5,-168.5 777.5,-187.5 939.5,-187.5 939.5,-168.5 777.5,-168.5"/>
<text text-anchor="middle" x="858.5" y="-175.5" font-family="Helvetica,sans-Serif" font-size="10.00">constpropagatingrawpointer.h</text>
</a>
</g>
</g>
<!-- Node1&#45;&gt;Node19 -->
<g id="edge33" class="edge">
<title>Node1&#45;&gt;Node19</title>
<path fill="none" stroke="midnightblue" d="M858.5,-280.37C858.5,-262.62 858.5,-221.67 858.5,-197.6"/>
<polygon fill="midnightblue" stroke="midnightblue" points="862,-197.59 858.5,-187.59 855,-197.59 862,-197.59"/>
</g>
<!-- Node3 -->
<g id="node3" class="node">
<title>Node3</title>
<g id="a_node3"><a xlink:title=" ">
<polygon fill="white" stroke="#bfbfbf" points="674,-0.5 674,-19.5 733,-19.5 733,-0.5 674,-0.5"/>
<text text-anchor="middle" x="703.5" y="-7.5" font-family="Helvetica,sans-Serif" font-size="10.00">QtGlobal</text>
</a>
</g>
</g>
<!-- Node2&#45;&gt;Node3 -->
<g id="edge2" class="edge">
<title>Node2&#45;&gt;Node3</title>
<path fill="none" stroke="midnightblue" d="M703.5,-56.08C703.5,-49.01 703.5,-38.86 703.5,-29.99"/>
<polygon fill="midnightblue" stroke="midnightblue" points="707,-29.75 703.5,-19.75 700,-29.75 707,-29.75"/>
</g>
<!-- Node4&#45;&gt;Node2 -->
<g id="edge4" class="edge">
<title>Node4&#45;&gt;Node2</title>
<path fill="none" stroke="midnightblue" d="M1045.17,-112.44C972.41,-102.77 854.13,-87.04 777.58,-76.85"/>
<polygon fill="midnightblue" stroke="midnightblue" points="777.91,-73.37 767.53,-75.52 776.98,-80.3 777.91,-73.37"/>
</g>
<!-- Node5&#45;&gt;Node2 -->
<g id="edge6" class="edge">
<title>Node5&#45;&gt;Node2</title>
<path fill="none" stroke="midnightblue" d="M432.38,-224.44C420.15,-202.77 392.27,-145.08 420.5,-112 432.54,-97.9 526.5,-84.96 602.9,-76.62"/>
<polygon fill="midnightblue" stroke="midnightblue" points="603.51,-80.07 613.08,-75.52 602.76,-73.11 603.51,-80.07"/>
</g>
<!-- Node5&#45;&gt;Node4 -->
<g id="edge7" class="edge">
<title>Node5&#45;&gt;Node4</title>
<path fill="none" stroke="midnightblue" d="M511.45,-230.08C632.78,-224.68 868.62,-211.5 948.5,-188 966.81,-182.61 969.05,-175.74 986.5,-168 1015,-155.36 1048.25,-143.35 1072.99,-134.92"/>
<polygon fill="midnightblue" stroke="midnightblue" points="1074.34,-138.16 1082.7,-131.65 1072.11,-131.53 1074.34,-138.16"/>
</g>
<!-- Node6 -->
<g id="node6" class="node">
<title>Node6</title>
<g id="a_node6"><a xlink:href="abstractdiagram_8h.html" target="_top" xlink:title=" ">
<polygon fill="white" stroke="black" points="33.5,-168.5 33.5,-187.5 219.5,-187.5 219.5,-168.5 33.5,-168.5"/>
<text text-anchor="middle" x="126.5" y="-175.5" font-family="Helvetica,sans-Serif" font-size="10.00">PerceptualColor/abstractdiagram.h</text>
</a>
</g>
</g>
<!-- Node5&#45;&gt;Node6 -->
<g id="edge8" class="edge">
<title>Node5&#45;&gt;Node6</title>
<path fill="none" stroke="midnightblue" d="M388.22,-224.44C333.17,-214.89 244.1,-199.42 185.42,-189.23"/>
<polygon fill="midnightblue" stroke="midnightblue" points="186,-185.78 175.55,-187.52 184.8,-192.68 186,-185.78"/>
</g>
<!-- Node8 -->
<g id="node8" class="node">
<title>Node8</title>
<g id="a_node8"><a xlink:href="constpropagatinguniquepointer_8h.html" target="_top" xlink:title=" ">
<polygon fill="white" stroke="black" points="116,-112.5 116,-131.5 373,-131.5 373,-112.5 116,-112.5"/>
<text text-anchor="middle" x="244.5" y="-119.5" font-family="Helvetica,sans-Serif" font-size="10.00">PerceptualColor/constpropagatinguniquepointer.h</text>
</a>
</g>
</g>
<!-- Node5&#45;&gt;Node8 -->
<g id="edge14" class="edge">
<title>Node5&#45;&gt;Node8</title>
<path fill="none" stroke="midnightblue" d="M422.36,-224.37C388.95,-205.33 308.74,-159.62 268.45,-136.65"/>
<polygon fill="midnightblue" stroke="midnightblue" points="270,-133.5 259.57,-131.59 266.53,-139.58 270,-133.5"/>
</g>
<!-- Node10 -->
<g id="node10" class="node">
<title>Node10</title>
<g id="a_node10"><a xlink:href="lchdouble_8h.html" target="_top" xlink:title=" ">
<polygon fill="white" stroke="black" points="430,-112.5 430,-131.5 583,-131.5 583,-112.5 430,-112.5"/>
<text text-anchor="middle" x="506.5" y="-119.5" font-family="Helvetica,sans-Serif" font-size="10.00">PerceptualColor/lchdouble.h</text>
</a>
</g>
</g>
<!-- Node5&#45;&gt;Node10 -->
<g id="edge15" class="edge">
<title>Node5&#45;&gt;Node10</title>
<path fill="none" stroke="midnightblue" d="M442.91,-224.37C454.25,-206.3 480.67,-164.18 495.64,-140.31"/>
<polygon fill="midnightblue" stroke="midnightblue" points="498.76,-141.92 501.11,-131.59 492.83,-138.2 498.76,-141.92"/>
</g>
<!-- Node6&#45;&gt;Node2 -->
<g id="edge9" class="edge">
<title>Node6&#45;&gt;Node2</title>
<path fill="none" stroke="midnightblue" d="M119.14,-168.25C108.52,-154.54 91.73,-127.93 106.5,-112 110.55,-107.64 414.62,-86.47 587.17,-74.78"/>
<polygon fill="midnightblue" stroke="midnightblue" points="587.59,-78.26 597.33,-74.1 587.11,-71.28 587.59,-78.26"/>
</g>
<!-- Node7 -->
<g id="node7" class="node">
<title>Node7</title>
<g id="a_node7"><a xlink:title=" ">
<polygon fill="white" stroke="#bfbfbf" points="0,-112.5 0,-131.5 59,-131.5 59,-112.5 0,-112.5"/>
<text text-anchor="middle" x="29.5" y="-119.5" font-family="Helvetica,sans-Serif" font-size="10.00">QWidget</text>
</a>
</g>
</g>
<!-- Node6&#45;&gt;Node7 -->
<g id="edge10" class="edge">
<title>Node6&#45;&gt;Node7</title>
<path fill="none" stroke="midnightblue" d="M110.92,-168.32C95.5,-159.74 71.69,-146.49 53.79,-136.52"/>
<polygon fill="midnightblue" stroke="midnightblue" points="55.49,-133.46 45.05,-131.65 52.08,-139.58 55.49,-133.46"/>
</g>
<!-- Node6&#45;&gt;Node8 -->
<g id="edge11" class="edge">
<title>Node6&#45;&gt;Node8</title>
<path fill="none" stroke="midnightblue" d="M145.2,-168.44C164.44,-159.64 194.65,-145.81 216.7,-135.72"/>
<polygon fill="midnightblue" stroke="midnightblue" points="218.25,-138.86 225.89,-131.52 215.34,-132.5 218.25,-138.86"/>
</g>
<!-- Node8&#45;&gt;Node2 -->
<g id="edge12" class="edge">
<title>Node8&#45;&gt;Node2</title>
<path fill="none" stroke="midnightblue" d="M316.98,-112.47C399.6,-102.75 534.38,-86.9 620.97,-76.71"/>
<polygon fill="midnightblue" stroke="midnightblue" points="621.5,-80.17 631.03,-75.53 620.68,-73.22 621.5,-80.17"/>
</g>
<!-- Node9 -->
<g id="node9" class="node">
<title>Node9</title>
<g id="a_node9"><a xlink:title=" ">
<polygon fill="white" stroke="#bfbfbf" points="215.5,-56.5 215.5,-75.5 273.5,-75.5 273.5,-56.5 215.5,-56.5"/>
<text text-anchor="middle" x="244.5" y="-63.5" font-family="Helvetica,sans-Serif" font-size="10.00">memory</text>
</a>
</g>
</g>
<!-- Node8&#45;&gt;Node9 -->
<g id="edge13" class="edge">
<title>Node8&#45;&gt;Node9</title>
<path fill="none" stroke="midnightblue" d="M244.5,-112.08C244.5,-105.01 244.5,-94.86 244.5,-85.99"/>
<polygon fill="midnightblue" stroke="midnightblue" points="248,-85.75 244.5,-75.75 241,-85.75 248,-85.75"/>
</g>
<!-- Node10&#45;&gt;Node2 -->
<g id="edge16" class="edge">
<title>Node10&#45;&gt;Node2</title>
<path fill="none" stroke="midnightblue" d="M537.72,-112.44C571.43,-103.2 625.3,-88.44 662.43,-78.26"/>
<polygon fill="midnightblue" stroke="midnightblue" points="663.71,-81.54 672.43,-75.52 661.86,-74.78 663.71,-81.54"/>
</g>
<!-- Node11 -->
<g id="node11" class="node">
<title>Node11</title>
<g id="a_node11"><a xlink:title=" ">
<polygon fill="white" stroke="#bfbfbf" points="493.5,-56.5 493.5,-75.5 549.5,-75.5 549.5,-56.5 493.5,-56.5"/>
<text text-anchor="middle" x="521.5" y="-63.5" font-family="Helvetica,sans-Serif" font-size="10.00">QDebug</text>
</a>
</g>
</g>
<!-- Node10&#45;&gt;Node11 -->
<g id="edge17" class="edge">
<title>Node10&#45;&gt;Node11</title>
<path fill="none" stroke="midnightblue" d="M508.98,-112.08C510.99,-104.85 513.89,-94.41 516.39,-85.4"/>
<polygon fill="midnightblue" stroke="midnightblue" points="519.76,-86.32 519.07,-75.75 513.02,-84.45 519.76,-86.32"/>
</g>
<!-- Node12&#45;&gt;Node2 -->
<g id="edge19" class="edge">
<title>Node12&#45;&gt;Node2</title>
<path fill="none" stroke="midnightblue" d="M1147.01,-225.47C1170.4,-219.24 1194.23,-208.04 1208.5,-188 1223.59,-166.81 1203.71,-123.81 1188.5,-112 1160.02,-89.89 954.21,-77.27 820,-71.3"/>
<polygon fill="midnightblue" stroke="midnightblue" points="819.8,-67.79 809.66,-70.85 819.5,-74.78 819.8,-67.79"/>
</g>
<!-- Node12&#45;&gt;Node4 -->
<g id="edge20" class="edge">
<title>Node12&#45;&gt;Node4</title>
<path fill="none" stroke="midnightblue" d="M1082.58,-224.21C1086.59,-215.26 1092.66,-200.9 1096.5,-188 1101.07,-172.64 1104.51,-154.77 1106.7,-141.65"/>
<polygon fill="midnightblue" stroke="midnightblue" points="1110.2,-141.96 1108.3,-131.53 1103.28,-140.86 1110.2,-141.96"/>
</g>
<!-- Node13 -->
<g id="node13" class="node">
<title>Node13</title>
<g id="a_node13"><a xlink:title=" ">
<polygon fill="white" stroke="#bfbfbf" points="1144,-168.5 1144,-187.5 1199,-187.5 1199,-168.5 1144,-168.5"/>
<text text-anchor="middle" x="1171.5" y="-175.5" font-family="Helvetica,sans-Serif" font-size="10.00">QImage</text>
</a>
</g>
</g>
<!-- Node12&#45;&gt;Node13 -->
<g id="edge21" class="edge">
<title>Node12&#45;&gt;Node13</title>
<path fill="none" stroke="midnightblue" d="M1093.44,-224.32C1108.09,-215.82 1130.63,-202.73 1147.74,-192.8"/>
<polygon fill="midnightblue" stroke="midnightblue" points="1149.7,-195.7 1156.6,-187.65 1146.19,-189.65 1149.7,-195.7"/>
</g>
<!-- Node14 -->
<g id="node14" class="node">
<title>Node14</title>
<g id="a_node14"><a xlink:title=" ">
<polygon fill="white" stroke="#bfbfbf" points="995.5,-168.5 995.5,-187.5 1087.5,-187.5 1087.5,-168.5 995.5,-168.5"/>
<text text-anchor="middle" x="1041.5" y="-175.5" font-family="Helvetica,sans-Serif" font-size="10.00">QSharedPointer</text>
</a>
</g>
</g>
<!-- Node12&#45;&gt;Node14 -->
<g id="edge22" class="edge">
<title>Node12&#45;&gt;Node14</title>
<path fill="none" stroke="midnightblue" d="M1072.39,-224.08C1067.22,-216.53 1059.65,-205.49 1053.31,-196.23"/>
<polygon fill="midnightblue" stroke="midnightblue" points="1056.04,-194.02 1047.5,-187.75 1050.26,-197.98 1056.04,-194.02"/>
</g>
<!-- Node15 -->
<g id="node15" class="node">
<title>Node15</title>
<g id="a_node15"><a xlink:href="rgbcolorspace_8h.html" target="_top" xlink:title=" ">
<polygon fill="white" stroke="black" points="665.5,-168.5 665.5,-187.5 759.5,-187.5 759.5,-168.5 665.5,-168.5"/>
<text text-anchor="middle" x="712.5" y="-175.5" font-family="Helvetica,sans-Serif" font-size="10.00">rgbcolorspace.h</text>
</a>
</g>
</g>
<!-- Node12&#45;&gt;Node15 -->
<g id="edge23" class="edge">
<title>Node12&#45;&gt;Node15</title>
<path fill="none" stroke="midnightblue" d="M1017.87,-224.48C957.55,-215.93 862.06,-202.24 769.63,-188.16"/>
<polygon fill="midnightblue" stroke="midnightblue" points="769.96,-184.66 759.55,-186.61 768.9,-191.58 769.96,-184.66"/>
</g>
<!-- Node15&#45;&gt;Node2 -->
<g id="edge24" class="edge">
<title>Node15&#45;&gt;Node2</title>
<path fill="none" stroke="midnightblue" d="M759.64,-168.97C828.91,-157.07 950.39,-135.74 953.5,-132 959.18,-125.16 959.2,-118.82 953.5,-112 935.89,-90.93 876.26,-79.72 819.66,-73.75"/>
<polygon fill="midnightblue" stroke="midnightblue" points="819.8,-70.24 809.5,-72.73 819.1,-77.21 819.8,-70.24"/>
</g>
<!-- Node15&#45;&gt;Node4 -->
<g id="edge25" class="edge">
<title>Node15&#45;&gt;Node4</title>
<path fill="none" stroke="midnightblue" d="M759.54,-169.34C762.57,-168.88 765.58,-168.43 768.5,-168 858.18,-154.88 961.39,-141.5 1030.56,-132.78"/>
<polygon fill="midnightblue" stroke="midnightblue" points="1031.03,-136.25 1040.52,-131.52 1030.16,-129.3 1031.03,-136.25"/>
</g>
<!-- Node15&#45;&gt;Node8 -->
<g id="edge27" class="edge">
<title>Node15&#45;&gt;Node8</title>
<path fill="none" stroke="midnightblue" d="M665.48,-171.58C586.68,-162.48 426.92,-144.05 328.45,-132.69"/>
<polygon fill="midnightblue" stroke="midnightblue" points="328.57,-129.18 318.24,-131.51 327.77,-136.13 328.57,-129.18"/>
</g>
<!-- Node15&#45;&gt;Node10 -->
<g id="edge31" class="edge">
<title>Node15&#45;&gt;Node10</title>
<path fill="none" stroke="midnightblue" d="M679.86,-168.44C644.45,-159.16 587.79,-144.31 548.95,-134.13"/>
<polygon fill="midnightblue" stroke="midnightblue" points="549.55,-130.67 538.99,-131.52 547.77,-137.44 549.55,-130.67"/>
</g>
<!-- Node16 -->
<g id="node16" class="node">
<title>Node16</title>
<g id="a_node16"><a xlink:title=" ">
<polygon fill="white" stroke="#bfbfbf" points="815.5,-112.5 815.5,-131.5 871.5,-131.5 871.5,-112.5 815.5,-112.5"/>
<text text-anchor="middle" x="843.5" y="-119.5" font-family="Helvetica,sans-Serif" font-size="10.00">QObject</text>
</a>
</g>
</g>
<!-- Node15&#45;&gt;Node16 -->
<g id="edge26" class="edge">
<title>Node15&#45;&gt;Node16</title>
<path fill="none" stroke="midnightblue" d="M733.26,-168.44C754.82,-159.56 788.76,-145.56 813.29,-135.45"/>
<polygon fill="midnightblue" stroke="midnightblue" points="814.93,-138.56 822.84,-131.52 812.26,-132.09 814.93,-138.56"/>
</g>
<!-- Node17 -->
<g id="node17" class="node">
<title>Node17</title>
<g id="a_node17"><a xlink:href="lchadouble_8h.html" target="_top" xlink:title=" ">
<polygon fill="white" stroke="black" points="639,-112.5 639,-131.5 798,-131.5 798,-112.5 639,-112.5"/>
<text text-anchor="middle" x="718.5" y="-119.5" font-family="Helvetica,sans-Serif" font-size="10.00">PerceptualColor/lchadouble.h</text>
</a>
</g>
</g>
<!-- Node15&#45;&gt;Node17 -->
<g id="edge28" class="edge">
<title>Node15&#45;&gt;Node17</title>
<path fill="none" stroke="midnightblue" d="M713.49,-168.08C714.29,-160.93 715.43,-150.64 716.42,-141.69"/>
<polygon fill="midnightblue" stroke="midnightblue" points="719.9,-142.08 717.53,-131.75 712.94,-141.3 719.9,-142.08"/>
</g>
<!-- Node18 -->
<g id="node18" class="node">
<title>Node18</title>
<g id="a_node18"><a xlink:title=" ">
<polygon fill="white" stroke="#bfbfbf" points="890,-112.5 890,-131.5 945,-131.5 945,-112.5 890,-112.5"/>
<text text-anchor="middle" x="917.5" y="-119.5" font-family="Helvetica,sans-Serif" font-size="10.00">lcms2.h</text>
</a>
</g>
</g>
<!-- Node15&#45;&gt;Node18 -->
<g id="edge32" class="edge">
<title>Node15&#45;&gt;Node18</title>
<path fill="none" stroke="midnightblue" d="M744.98,-168.44C781.67,-158.78 841.28,-143.08 879.94,-132.89"/>
<polygon fill="midnightblue" stroke="midnightblue" points="880.99,-136.24 889.77,-130.3 879.21,-129.47 880.99,-136.24"/>
</g>
<!-- Node17&#45;&gt;Node2 -->
<g id="edge29" class="edge">
<title>Node17&#45;&gt;Node2</title>
<path fill="none" stroke="midnightblue" d="M716.02,-112.08C714.01,-104.85 711.11,-94.41 708.61,-85.4"/>
<polygon fill="midnightblue" stroke="midnightblue" points="711.98,-84.45 705.93,-75.75 705.24,-86.32 711.98,-84.45"/>
</g>
<!-- Node17&#45;&gt;Node11 -->
<g id="edge30" class="edge">
<title>Node17&#45;&gt;Node11</title>
<path fill="none" stroke="midnightblue" d="M687.28,-112.44C652.67,-102.96 596.83,-87.65 559.66,-77.46"/>
<polygon fill="midnightblue" stroke="midnightblue" points="560.27,-74 549.7,-74.73 558.42,-80.75 560.27,-74"/>
</g>
<!-- Node19&#45;&gt;Node2 -->
<g id="edge34" class="edge">
<title>Node19&#45;&gt;Node2</title>
<path fill="none" stroke="midnightblue" d="M901.85,-168.49C942.6,-158.57 994.09,-139.9 970.5,-112 950.8,-88.7 882.43,-77.46 819.81,-72.04"/>
<polygon fill="midnightblue" stroke="midnightblue" points="820.08,-68.55 809.82,-71.22 819.5,-75.53 820.08,-68.55"/>
</g>
<!-- Node19&#45;&gt;Node4 -->
<g id="edge35" class="edge">
<title>Node19&#45;&gt;Node4</title>
<path fill="none" stroke="midnightblue" d="M898.27,-168.44C942.06,-159.02 1012.51,-143.87 1059.88,-133.68"/>
<polygon fill="midnightblue" stroke="midnightblue" points="1060.87,-137.04 1069.91,-131.52 1059.4,-130.2 1060.87,-137.04"/>
</g>
</g>
</svg>
