<?xml version="1.0" encoding="UTF-8" standalone="no"?>
<!DOCTYPE svg PUBLIC "-//W3C//DTD SVG 1.1//EN"
 "http://www.w3.org/Graphics/SVG/1.1/DTD/svg11.dtd">
<!-- Generated by graphviz version 2.43.0 (0)
 -->
<!-- Title: src/chromalightnessimage.cpp Pages: 1 -->
<svg width="1357pt" height="308pt"
 viewBox="0.00 0.00 1357.34 308.00" xmlns="http://www.w3.org/2000/svg" xmlns:xlink="http://www.w3.org/1999/xlink">
<g id="graph0" class="graph" transform="scale(1 1) rotate(0) translate(4 304)">
<title>src/chromalightnessimage.cpp</title>
<polygon fill="white" stroke="transparent" points="-4,4 -4,-304 1353.34,-304 1353.34,4 -4,4"/>
<!-- Node1 -->
<g id="node1" class="node">
<title>Node1</title>
<g id="a_node1"><a xlink:title=" ">
<polygon fill="#bfbfbf" stroke="black" points="873.84,-280.5 873.84,-299.5 1039.84,-299.5 1039.84,-280.5 873.84,-280.5"/>
<text text-anchor="middle" x="956.84" y="-287.5" font-family="Helvetica,sans-Serif" font-size="10.00">src/chromalightnessimage.cpp</text>
</a>
</g>
</g>
<!-- Node2 -->
<g id="node2" class="node">
<title>Node2</title>
<g id="a_node2"><a xlink:href="perceptualcolorglobal_8h.html" target="_top" xlink:title=" ">
<polygon fill="white" stroke="black" points="409.84,-56.5 409.84,-75.5 621.84,-75.5 621.84,-56.5 409.84,-56.5"/>
<text text-anchor="middle" x="515.84" y="-63.5" font-family="Helvetica,sans-Serif" font-size="10.00">PerceptualColor/perceptualcolorglobal.h</text>
</a>
</g>
</g>
<!-- Node1&#45;&gt;Node2 -->
<g id="edge1" class="edge">
<title>Node1&#45;&gt;Node2</title>
<path fill="none" stroke="midnightblue" d="M873.69,-286.25C655.14,-278.16 77.38,-250.97 20.84,-188 -23.14,-139.02 2.78,-149.14 105.84,-112 158.15,-93.14 297.92,-80.6 399.76,-73.66"/>
<polygon fill="midnightblue" stroke="midnightblue" points="400.06,-77.14 409.8,-72.98 399.59,-70.16 400.06,-77.14"/>
</g>
<!-- Node4 -->
<g id="node4" class="node">
<title>Node4</title>
<g id="a_node4"><a xlink:href="perceptualcolorinternal_8h.html" target="_top" xlink:title=" ">
<polygon fill="white" stroke="black" points="932.34,-112.5 932.34,-131.5 1071.34,-131.5 1071.34,-112.5 932.34,-112.5"/>
<text text-anchor="middle" x="1001.84" y="-119.5" font-family="Helvetica,sans-Serif" font-size="10.00">perceptualcolorinternal.h</text>
</a>
</g>
</g>
<!-- Node1&#45;&gt;Node4 -->
<g id="edge3" class="edge">
<title>Node1&#45;&gt;Node4</title>
<path fill="none" stroke="midnightblue" d="M954.67,-280.35C949.98,-259.88 940.6,-207.2 956.84,-168 961.76,-156.12 971.5,-145.74 980.67,-137.96"/>
<polygon fill="midnightblue" stroke="midnightblue" points="983.09,-140.51 988.77,-131.56 978.75,-135.01 983.09,-140.51"/>
</g>
<!-- Node5 -->
<g id="node5" class="node">
<title>Node5</title>
<g id="a_node5"><a xlink:href="chromalightnessimage_8h.html" target="_top" xlink:title=" ">
<polygon fill="white" stroke="black" points="610.34,-224.5 610.34,-243.5 747.34,-243.5 747.34,-224.5 610.34,-224.5"/>
<text text-anchor="middle" x="678.84" y="-231.5" font-family="Helvetica,sans-Serif" font-size="10.00">chromalightnessimage.h</text>
</a>
</g>
</g>
<!-- Node1&#45;&gt;Node5 -->
<g id="edge5" class="edge">
<title>Node1&#45;&gt;Node5</title>
<path fill="none" stroke="midnightblue" d="M912.79,-280.44C863.98,-270.96 785.27,-255.67 732.81,-245.48"/>
<polygon fill="midnightblue" stroke="midnightblue" points="733.16,-241.99 722.68,-243.52 731.83,-248.86 733.16,-241.99"/>
</g>
<!-- Node16 -->
<g id="node16" class="node">
<title>Node16</title>
<g id="a_node16"><a xlink:href="lchvalues_8h.html" target="_top" xlink:title=" ">
<polygon fill="white" stroke="black" points="965.84,-168.5 965.84,-187.5 1037.84,-187.5 1037.84,-168.5 965.84,-168.5"/>
<text text-anchor="middle" x="1001.84" y="-175.5" font-family="Helvetica,sans-Serif" font-size="10.00">lchvalues.h</text>
</a>
</g>
</g>
<!-- Node1&#45;&gt;Node16 -->
<g id="edge24" class="edge">
<title>Node1&#45;&gt;Node16</title>
<path fill="none" stroke="midnightblue" d="M960.37,-280.37C967.69,-262.46 984.68,-220.92 994.49,-196.95"/>
<polygon fill="midnightblue" stroke="midnightblue" points="997.77,-198.17 998.32,-187.59 991.29,-195.52 997.77,-198.17"/>
</g>
<!-- Node17 -->
<g id="node17" class="node">
<title>Node17</title>
<g id="a_node17"><a xlink:href="polarpointf_8h.html" target="_top" xlink:title=" ">
<polygon fill="white" stroke="black" points="1144.84,-168.5 1144.84,-187.5 1222.84,-187.5 1222.84,-168.5 1144.84,-168.5"/>
<text text-anchor="middle" x="1183.84" y="-175.5" font-family="Helvetica,sans-Serif" font-size="10.00">polarpointf.h</text>
</a>
</g>
</g>
<!-- Node1&#45;&gt;Node17 -->
<g id="edge28" class="edge">
<title>Node1&#45;&gt;Node17</title>
<path fill="none" stroke="midnightblue" d="M964.83,-280.09C977.79,-266.17 1004.78,-239.28 1032.84,-224 1064.67,-206.67 1104.01,-195.22 1134.55,-188.21"/>
<polygon fill="midnightblue" stroke="midnightblue" points="1135.54,-191.58 1144.55,-186 1134.03,-184.74 1135.54,-191.58"/>
</g>
<!-- Node20 -->
<g id="node20" class="node">
<title>Node20</title>
<g id="a_node20"><a xlink:title=" ">
<polygon fill="white" stroke="#bfbfbf" points="1041.84,-224.5 1041.84,-243.5 1099.84,-243.5 1099.84,-224.5 1041.84,-224.5"/>
<text text-anchor="middle" x="1070.84" y="-231.5" font-family="Helvetica,sans-Serif" font-size="10.00">QPainter</text>
</a>
</g>
</g>
<!-- Node1&#45;&gt;Node20 -->
<g id="edge34" class="edge">
<title>Node1&#45;&gt;Node20</title>
<path fill="none" stroke="midnightblue" d="M974.9,-280.44C993.41,-271.68 1022.42,-257.94 1043.69,-247.86"/>
<polygon fill="midnightblue" stroke="midnightblue" points="1045.32,-250.96 1052.86,-243.52 1042.32,-244.63 1045.32,-250.96"/>
</g>
<!-- Node3 -->
<g id="node3" class="node">
<title>Node3</title>
<g id="a_node3"><a xlink:title=" ">
<polygon fill="white" stroke="#bfbfbf" points="486.34,-0.5 486.34,-19.5 545.34,-19.5 545.34,-0.5 486.34,-0.5"/>
<text text-anchor="middle" x="515.84" y="-7.5" font-family="Helvetica,sans-Serif" font-size="10.00">QtGlobal</text>
</a>
</g>
</g>
<!-- Node2&#45;&gt;Node3 -->
<g id="edge2" class="edge">
<title>Node2&#45;&gt;Node3</title>
<path fill="none" stroke="midnightblue" d="M515.84,-56.08C515.84,-49.01 515.84,-38.86 515.84,-29.99"/>
<polygon fill="midnightblue" stroke="midnightblue" points="519.34,-29.75 515.84,-19.75 512.34,-29.75 519.34,-29.75"/>
</g>
<!-- Node4&#45;&gt;Node2 -->
<g id="edge4" class="edge">
<title>Node4&#45;&gt;Node2</title>
<path fill="none" stroke="midnightblue" d="M932.1,-112.94C929.31,-112.62 926.54,-112.31 923.84,-112 813.71,-99.57 686.82,-85.64 604.17,-76.61"/>
<polygon fill="midnightblue" stroke="midnightblue" points="604.39,-73.12 594.06,-75.51 603.63,-80.07 604.39,-73.12"/>
</g>
<!-- Node5&#45;&gt;Node2 -->
<g id="edge6" class="edge">
<title>Node5&#45;&gt;Node2</title>
<path fill="none" stroke="midnightblue" d="M610.08,-231.28C473.65,-226.25 176.44,-206.78 113.84,-132 108.13,-125.18 107.91,-118.63 113.84,-112 132.74,-90.86 287.78,-78.49 399.67,-72.23"/>
<polygon fill="midnightblue" stroke="midnightblue" points="399.89,-75.72 409.68,-71.68 399.5,-68.73 399.89,-75.72"/>
</g>
<!-- Node5&#45;&gt;Node4 -->
<g id="edge7" class="edge">
<title>Node5&#45;&gt;Node4</title>
<path fill="none" stroke="midnightblue" d="M683.69,-224.13C692.07,-209.75 710.7,-181.6 734.84,-168 751.46,-158.63 854.4,-143.04 927.47,-132.9"/>
<polygon fill="midnightblue" stroke="midnightblue" points="928.15,-136.34 937.58,-131.5 927.19,-129.4 928.15,-136.34"/>
</g>
<!-- Node6 -->
<g id="node6" class="node">
<title>Node6</title>
<g id="a_node6"><a xlink:title=" ">
<polygon fill="white" stroke="#bfbfbf" points="744.34,-168.5 744.34,-187.5 799.34,-187.5 799.34,-168.5 744.34,-168.5"/>
<text text-anchor="middle" x="771.84" y="-175.5" font-family="Helvetica,sans-Serif" font-size="10.00">QImage</text>
</a>
</g>
</g>
<!-- Node5&#45;&gt;Node6 -->
<g id="edge8" class="edge">
<title>Node5&#45;&gt;Node6</title>
<path fill="none" stroke="midnightblue" d="M693.78,-224.32C708.42,-215.82 730.97,-202.73 748.07,-192.8"/>
<polygon fill="midnightblue" stroke="midnightblue" points="750.04,-195.7 756.93,-187.65 746.52,-189.65 750.04,-195.7"/>
</g>
<!-- Node7 -->
<g id="node7" class="node">
<title>Node7</title>
<g id="a_node7"><a xlink:title=" ">
<polygon fill="white" stroke="#bfbfbf" points="29.84,-168.5 29.84,-187.5 121.84,-187.5 121.84,-168.5 29.84,-168.5"/>
<text text-anchor="middle" x="75.84" y="-175.5" font-family="Helvetica,sans-Serif" font-size="10.00">QSharedPointer</text>
</a>
</g>
</g>
<!-- Node5&#45;&gt;Node7 -->
<g id="edge9" class="edge">
<title>Node5&#45;&gt;Node7</title>
<path fill="none" stroke="midnightblue" d="M610.12,-228.77C506.93,-222.09 305.9,-207.78 135.84,-188 134.57,-187.85 133.29,-187.7 132,-187.54"/>
<polygon fill="midnightblue" stroke="midnightblue" points="132.35,-184.06 121.98,-186.24 131.45,-191 132.35,-184.06"/>
</g>
<!-- Node8 -->
<g id="node8" class="node">
<title>Node8</title>
<g id="a_node8"><a xlink:href="rgbcolorspace_8h.html" target="_top" xlink:title=" ">
<polygon fill="white" stroke="black" points="593.84,-168.5 593.84,-187.5 687.84,-187.5 687.84,-168.5 593.84,-168.5"/>
<text text-anchor="middle" x="640.84" y="-175.5" font-family="Helvetica,sans-Serif" font-size="10.00">rgbcolorspace.h</text>
</a>
</g>
</g>
<!-- Node5&#45;&gt;Node8 -->
<g id="edge10" class="edge">
<title>Node5&#45;&gt;Node8</title>
<path fill="none" stroke="midnightblue" d="M672.56,-224.08C667.19,-216.46 659.32,-205.26 652.76,-195.94"/>
<polygon fill="midnightblue" stroke="midnightblue" points="655.61,-193.91 646.99,-187.75 649.89,-197.94 655.61,-193.91"/>
</g>
<!-- Node8&#45;&gt;Node2 -->
<g id="edge11" class="edge">
<title>Node8&#45;&gt;Node2</title>
<path fill="none" stroke="midnightblue" d="M593.48,-173.83C536.94,-168.95 447.41,-157.35 426.84,-132 408.26,-109.11 444.27,-90.23 475.9,-78.82"/>
<polygon fill="midnightblue" stroke="midnightblue" points="477.19,-82.08 485.51,-75.53 474.92,-75.46 477.19,-82.08"/>
</g>
<!-- Node8&#45;&gt;Node4 -->
<g id="edge12" class="edge">
<title>Node8&#45;&gt;Node4</title>
<path fill="none" stroke="midnightblue" d="M688.03,-169.94C750.97,-160.53 862.76,-143.8 934.52,-133.07"/>
<polygon fill="midnightblue" stroke="midnightblue" points="935.44,-136.47 944.81,-131.53 934.4,-129.55 935.44,-136.47"/>
</g>
<!-- Node9 -->
<g id="node9" class="node">
<title>Node9</title>
<g id="a_node9"><a xlink:title=" ">
<polygon fill="white" stroke="#bfbfbf" points="686.84,-112.5 686.84,-131.5 742.84,-131.5 742.84,-112.5 686.84,-112.5"/>
<text text-anchor="middle" x="714.84" y="-119.5" font-family="Helvetica,sans-Serif" font-size="10.00">QObject</text>
</a>
</g>
</g>
<!-- Node8&#45;&gt;Node9 -->
<g id="edge13" class="edge">
<title>Node8&#45;&gt;Node9</title>
<path fill="none" stroke="midnightblue" d="M652.72,-168.32C663.99,-160.11 681.12,-147.6 694.54,-137.81"/>
<polygon fill="midnightblue" stroke="midnightblue" points="696.71,-140.56 702.73,-131.83 692.59,-134.9 696.71,-140.56"/>
</g>
<!-- Node10 -->
<g id="node10" class="node">
<title>Node10</title>
<g id="a_node10"><a xlink:href="constpropagatinguniquepointer_8h.html" target="_top" xlink:title=" ">
<polygon fill="white" stroke="black" points="123.34,-112.5 123.34,-131.5 380.34,-131.5 380.34,-112.5 123.34,-112.5"/>
<text text-anchor="middle" x="251.84" y="-119.5" font-family="Helvetica,sans-Serif" font-size="10.00">PerceptualColor/constpropagatinguniquepointer.h</text>
</a>
</g>
</g>
<!-- Node8&#45;&gt;Node10 -->
<g id="edge14" class="edge">
<title>Node8&#45;&gt;Node10</title>
<path fill="none" stroke="midnightblue" d="M593.52,-170.43C526.19,-161.08 402.16,-143.87 323.51,-132.95"/>
<polygon fill="midnightblue" stroke="midnightblue" points="323.58,-129.43 313.2,-131.52 322.62,-136.36 323.58,-129.43"/>
</g>
<!-- Node12 -->
<g id="node12" class="node">
<title>Node12</title>
<g id="a_node12"><a xlink:href="lchadouble_8h.html" target="_top" xlink:title=" ">
<polygon fill="white" stroke="black" points="436.34,-112.5 436.34,-131.5 595.34,-131.5 595.34,-112.5 436.34,-112.5"/>
<text text-anchor="middle" x="515.84" y="-119.5" font-family="Helvetica,sans-Serif" font-size="10.00">PerceptualColor/lchadouble.h</text>
</a>
</g>
</g>
<!-- Node8&#45;&gt;Node12 -->
<g id="edge17" class="edge">
<title>Node8&#45;&gt;Node12</title>
<path fill="none" stroke="midnightblue" d="M621.03,-168.44C600.55,-159.6 568.35,-145.69 544.97,-135.59"/>
<polygon fill="midnightblue" stroke="midnightblue" points="546.12,-132.27 535.55,-131.52 543.34,-138.7 546.12,-132.27"/>
</g>
<!-- Node14 -->
<g id="node14" class="node">
<title>Node14</title>
<g id="a_node14"><a xlink:href="lchdouble_8h.html" target="_top" xlink:title=" ">
<polygon fill="white" stroke="black" points="761.34,-112.5 761.34,-131.5 914.34,-131.5 914.34,-112.5 761.34,-112.5"/>
<text text-anchor="middle" x="837.84" y="-119.5" font-family="Helvetica,sans-Serif" font-size="10.00">PerceptualColor/lchdouble.h</text>
</a>
</g>
</g>
<!-- Node8&#45;&gt;Node14 -->
<g id="edge20" class="edge">
<title>Node8&#45;&gt;Node14</title>
<path fill="none" stroke="midnightblue" d="M672.05,-168.44C705.77,-159.2 759.64,-144.44 796.77,-134.26"/>
<polygon fill="midnightblue" stroke="midnightblue" points="798.05,-137.54 806.77,-131.52 796.2,-130.78 798.05,-137.54"/>
</g>
<!-- Node15 -->
<g id="node15" class="node">
<title>Node15</title>
<g id="a_node15"><a xlink:title=" ">
<polygon fill="white" stroke="#bfbfbf" points="613.34,-112.5 613.34,-131.5 668.34,-131.5 668.34,-112.5 613.34,-112.5"/>
<text text-anchor="middle" x="640.84" y="-119.5" font-family="Helvetica,sans-Serif" font-size="10.00">lcms2.h</text>
</a>
</g>
</g>
<!-- Node8&#45;&gt;Node15 -->
<g id="edge23" class="edge">
<title>Node8&#45;&gt;Node15</title>
<path fill="none" stroke="midnightblue" d="M640.84,-168.08C640.84,-161.01 640.84,-150.86 640.84,-141.99"/>
<polygon fill="midnightblue" stroke="midnightblue" points="644.34,-141.75 640.84,-131.75 637.34,-141.75 644.34,-141.75"/>
</g>
<!-- Node10&#45;&gt;Node2 -->
<g id="edge15" class="edge">
<title>Node10&#45;&gt;Node2</title>
<path fill="none" stroke="midnightblue" d="M293.67,-112.44C339.91,-102.98 414.45,-87.74 464.27,-77.55"/>
<polygon fill="midnightblue" stroke="midnightblue" points="465.1,-80.95 474.2,-75.52 463.7,-74.09 465.1,-80.95"/>
</g>
<!-- Node11 -->
<g id="node11" class="node">
<title>Node11</title>
<g id="a_node11"><a xlink:title=" ">
<polygon fill="white" stroke="#bfbfbf" points="222.84,-56.5 222.84,-75.5 280.84,-75.5 280.84,-56.5 222.84,-56.5"/>
<text text-anchor="middle" x="251.84" y="-63.5" font-family="Helvetica,sans-Serif" font-size="10.00">memory</text>
</a>
</g>
</g>
<!-- Node10&#45;&gt;Node11 -->
<g id="edge16" class="edge">
<title>Node10&#45;&gt;Node11</title>
<path fill="none" stroke="midnightblue" d="M251.84,-112.08C251.84,-105.01 251.84,-94.86 251.84,-85.99"/>
<polygon fill="midnightblue" stroke="midnightblue" points="255.34,-85.75 251.84,-75.75 248.34,-85.75 255.34,-85.75"/>
</g>
<!-- Node12&#45;&gt;Node2 -->
<g id="edge18" class="edge">
<title>Node12&#45;&gt;Node2</title>
<path fill="none" stroke="midnightblue" d="M515.84,-112.08C515.84,-105.01 515.84,-94.86 515.84,-85.99"/>
<polygon fill="midnightblue" stroke="midnightblue" points="519.34,-85.75 515.84,-75.75 512.34,-85.75 519.34,-85.75"/>
</g>
<!-- Node13 -->
<g id="node13" class="node">
<title>Node13</title>
<g id="a_node13"><a xlink:title=" ">
<polygon fill="white" stroke="#bfbfbf" points="809.84,-56.5 809.84,-75.5 865.84,-75.5 865.84,-56.5 809.84,-56.5"/>
<text text-anchor="middle" x="837.84" y="-63.5" font-family="Helvetica,sans-Serif" font-size="10.00">QDebug</text>
</a>
</g>
</g>
<!-- Node12&#45;&gt;Node13 -->
<g id="edge19" class="edge">
<title>Node12&#45;&gt;Node13</title>
<path fill="none" stroke="midnightblue" d="M566.86,-112.44C631.46,-101.61 741.33,-83.18 799.33,-73.46"/>
<polygon fill="midnightblue" stroke="midnightblue" points="800.26,-76.85 809.54,-71.75 799.1,-69.95 800.26,-76.85"/>
</g>
<!-- Node14&#45;&gt;Node2 -->
<g id="edge21" class="edge">
<title>Node14&#45;&gt;Node2</title>
<path fill="none" stroke="midnightblue" d="M786.81,-112.44C729.82,-102.89 637.6,-87.42 576.83,-77.23"/>
<polygon fill="midnightblue" stroke="midnightblue" points="577.06,-73.72 566.62,-75.52 575.9,-80.62 577.06,-73.72"/>
</g>
<!-- Node14&#45;&gt;Node13 -->
<g id="edge22" class="edge">
<title>Node14&#45;&gt;Node13</title>
<path fill="none" stroke="midnightblue" d="M837.84,-112.08C837.84,-105.01 837.84,-94.86 837.84,-85.99"/>
<polygon fill="midnightblue" stroke="midnightblue" points="841.34,-85.75 837.84,-75.75 834.34,-85.75 841.34,-85.75"/>
</g>
<!-- Node16&#45;&gt;Node2 -->
<g id="edge25" class="edge">
<title>Node16&#45;&gt;Node2</title>
<path fill="none" stroke="midnightblue" d="M1026.89,-168.45C1057.26,-156.82 1101.92,-134.83 1080.84,-112 1065.84,-95.76 793.56,-80.15 632.54,-72.28"/>
<polygon fill="midnightblue" stroke="midnightblue" points="632.26,-68.77 622.1,-71.78 631.92,-75.76 632.26,-68.77"/>
</g>
<!-- Node16&#45;&gt;Node4 -->
<g id="edge26" class="edge">
<title>Node16&#45;&gt;Node4</title>
<path fill="none" stroke="midnightblue" d="M1001.84,-168.08C1001.84,-161.01 1001.84,-150.86 1001.84,-141.99"/>
<polygon fill="midnightblue" stroke="midnightblue" points="1005.34,-141.75 1001.84,-131.75 998.34,-141.75 1005.34,-141.75"/>
</g>
<!-- Node16&#45;&gt;Node14 -->
<g id="edge27" class="edge">
<title>Node16&#45;&gt;Node14</title>
<path fill="none" stroke="midnightblue" d="M975.85,-168.44C948.14,-159.32 904.08,-144.81 873.22,-134.65"/>
<polygon fill="midnightblue" stroke="midnightblue" points="874.29,-131.32 863.7,-131.52 872.1,-137.97 874.29,-131.32"/>
</g>
<!-- Node17&#45;&gt;Node2 -->
<g id="edge29" class="edge">
<title>Node17&#45;&gt;Node2</title>
<path fill="none" stroke="midnightblue" d="M1188.97,-168.1C1196.24,-154.19 1207.16,-127.31 1192.84,-112 1174,-91.88 820.77,-77.12 632.22,-70.64"/>
<polygon fill="midnightblue" stroke="midnightblue" points="632.1,-67.14 621.98,-70.3 631.86,-74.13 632.1,-67.14"/>
</g>
<!-- Node17&#45;&gt;Node4 -->
<g id="edge30" class="edge">
<title>Node17&#45;&gt;Node4</title>
<path fill="none" stroke="midnightblue" d="M1155,-168.44C1123.98,-159.24 1074.51,-144.56 1040.22,-134.39"/>
<polygon fill="midnightblue" stroke="midnightblue" points="1041.12,-131.01 1030.54,-131.52 1039.13,-137.72 1041.12,-131.01"/>
</g>
<!-- Node17&#45;&gt;Node13 -->
<g id="edge31" class="edge">
<title>Node17&#45;&gt;Node13</title>
<path fill="none" stroke="midnightblue" d="M1196.41,-168.42C1214.01,-155.41 1242.1,-130.26 1225.84,-112 1202.79,-86.13 969.25,-72.88 876,-68.6"/>
<polygon fill="midnightblue" stroke="midnightblue" points="876.01,-65.09 865.86,-68.14 875.69,-72.09 876.01,-65.09"/>
</g>
<!-- Node18 -->
<g id="node18" class="node">
<title>Node18</title>
<g id="a_node18"><a xlink:title=" ">
<polygon fill="white" stroke="#bfbfbf" points="1278.34,-112.5 1278.34,-131.5 1349.34,-131.5 1349.34,-112.5 1278.34,-112.5"/>
<text text-anchor="middle" x="1313.84" y="-119.5" font-family="Helvetica,sans-Serif" font-size="10.00">QMetaType</text>
</a>
</g>
</g>
<!-- Node17&#45;&gt;Node18 -->
<g id="edge32" class="edge">
<title>Node17&#45;&gt;Node18</title>
<path fill="none" stroke="midnightblue" d="M1204.43,-168.44C1225.83,-159.56 1259.52,-145.56 1283.86,-135.45"/>
<polygon fill="midnightblue" stroke="midnightblue" points="1285.44,-138.58 1293.33,-131.52 1282.75,-132.12 1285.44,-138.58"/>
</g>
<!-- Node19 -->
<g id="node19" class="node">
<title>Node19</title>
<g id="a_node19"><a xlink:title=" ">
<polygon fill="white" stroke="#bfbfbf" points="1128.34,-112.5 1128.34,-131.5 1183.34,-131.5 1183.34,-112.5 1128.34,-112.5"/>
<text text-anchor="middle" x="1155.84" y="-119.5" font-family="Helvetica,sans-Serif" font-size="10.00">QPointF</text>
</a>
</g>
</g>
<!-- Node17&#45;&gt;Node19 -->
<g id="edge33" class="edge">
<title>Node17&#45;&gt;Node19</title>
<path fill="none" stroke="midnightblue" d="M1179.21,-168.08C1175.38,-160.69 1169.81,-149.95 1165.07,-140.81"/>
<polygon fill="midnightblue" stroke="midnightblue" points="1168.08,-139.02 1160.37,-131.75 1161.87,-142.24 1168.08,-139.02"/>
</g>
</g>
</svg>
