<?xml version="1.0" encoding="UTF-8" standalone="no"?>
<!DOCTYPE svg PUBLIC "-//W3C//DTD SVG 1.1//EN"
 "http://www.w3.org/Graphics/SVG/1.1/DTD/svg11.dtd">
<!-- Generated by graphviz version 2.43.0 (0)
 -->
<!-- Title: include/PerceptualColor/chromahuediagram.h Pages: 1 -->
<svg width="672pt" height="263pt"
 viewBox="0.00 0.00 672.00 263.00" xmlns="http://www.w3.org/2000/svg" xmlns:xlink="http://www.w3.org/1999/xlink">
<g id="graph0" class="graph" transform="scale(1 1) rotate(0) translate(4 259)">
<title>include/PerceptualColor/chromahuediagram.h</title>
<polygon fill="white" stroke="transparent" points="-4,4 -4,-259 668,-259 668,4 -4,4"/>
<!-- Node1 -->
<g id="node1" class="node">
<title>Node1</title>
<g id="a_node1"><a xlink:title=" ">
<polygon fill="#bfbfbf" stroke="black" points="272.5,-224.5 272.5,-254.5 404.5,-254.5 404.5,-224.5 272.5,-224.5"/>
<text text-anchor="start" x="280.5" y="-242.5" font-family="Helvetica,sans-Serif" font-size="10.00">include/PerceptualColor</text>
<text text-anchor="middle" x="338.5" y="-231.5" font-family="Helvetica,sans-Serif" font-size="10.00">/chromahuediagram.h</text>
</a>
</g>
</g>
<!-- Node2 -->
<g id="node2" class="node">
<title>Node2</title>
<g id="a_node2"><a xlink:href="perceptualcolorglobal_8h.html" target="_top" xlink:title=" ">
<polygon fill="white" stroke="black" points="204.5,-56.5 204.5,-75.5 416.5,-75.5 416.5,-56.5 204.5,-56.5"/>
<text text-anchor="middle" x="310.5" y="-63.5" font-family="Helvetica,sans-Serif" font-size="10.00">PerceptualColor/perceptualcolorglobal.h</text>
</a>
</g>
</g>
<!-- Node1&#45;&gt;Node2 -->
<g id="edge1" class="edge">
<title>Node1&#45;&gt;Node2</title>
<path fill="none" stroke="midnightblue" d="M322.47,-224.32C313.23,-215.04 302.48,-202.05 297.5,-188 285.12,-153.12 295.77,-109.32 303.73,-85.14"/>
<polygon fill="midnightblue" stroke="midnightblue" points="307.1,-86.11 307.1,-75.51 300.49,-83.79 307.1,-86.11"/>
</g>
<!-- Node4 -->
<g id="node4" class="node">
<title>Node4</title>
<g id="a_node4"><a xlink:href="constpropagatinguniquepointer_8h.html" target="_top" xlink:title=" ">
<polygon fill="white" stroke="black" points="0,-112.5 0,-131.5 257,-131.5 257,-112.5 0,-112.5"/>
<text text-anchor="middle" x="128.5" y="-119.5" font-family="Helvetica,sans-Serif" font-size="10.00">PerceptualColor/constpropagatinguniquepointer.h</text>
</a>
</g>
</g>
<!-- Node1&#45;&gt;Node4 -->
<g id="edge3" class="edge">
<title>Node1&#45;&gt;Node4</title>
<path fill="none" stroke="midnightblue" d="M312.75,-224.34C271.89,-201.86 192.74,-158.33 152.8,-136.37"/>
<polygon fill="midnightblue" stroke="midnightblue" points="154.44,-133.27 144,-131.52 151.07,-139.41 154.44,-133.27"/>
</g>
<!-- Node6 -->
<g id="node6" class="node">
<title>Node6</title>
<g id="a_node6"><a xlink:href="abstractdiagram_8h.html" target="_top" xlink:title=" ">
<polygon fill="white" stroke="black" points="306.5,-168.5 306.5,-187.5 492.5,-187.5 492.5,-168.5 306.5,-168.5"/>
<text text-anchor="middle" x="399.5" y="-175.5" font-family="Helvetica,sans-Serif" font-size="10.00">PerceptualColor/abstractdiagram.h</text>
</a>
</g>
</g>
<!-- Node1&#45;&gt;Node6 -->
<g id="edge6" class="edge">
<title>Node1&#45;&gt;Node6</title>
<path fill="none" stroke="midnightblue" d="M352.96,-224.4C362.09,-215.49 373.92,-203.95 383.36,-194.74"/>
<polygon fill="midnightblue" stroke="midnightblue" points="385.91,-197.15 390.62,-187.66 381.02,-192.13 385.91,-197.15"/>
</g>
<!-- Node8 -->
<g id="node8" class="node">
<title>Node8</title>
<g id="a_node8"><a xlink:href="lchdouble_8h.html" target="_top" xlink:title=" ">
<polygon fill="white" stroke="black" points="511,-168.5 511,-187.5 664,-187.5 664,-168.5 511,-168.5"/>
<text text-anchor="middle" x="587.5" y="-175.5" font-family="Helvetica,sans-Serif" font-size="10.00">PerceptualColor/lchdouble.h</text>
</a>
</g>
</g>
<!-- Node1&#45;&gt;Node8 -->
<g id="edge10" class="edge">
<title>Node1&#45;&gt;Node8</title>
<path fill="none" stroke="midnightblue" d="M397.19,-224.47C441.46,-213.9 501.31,-199.59 541.99,-189.87"/>
<polygon fill="midnightblue" stroke="midnightblue" points="542.99,-193.23 551.9,-187.51 541.36,-186.43 542.99,-193.23"/>
</g>
<!-- Node3 -->
<g id="node3" class="node">
<title>Node3</title>
<g id="a_node3"><a xlink:title=" ">
<polygon fill="white" stroke="#bfbfbf" points="281,-0.5 281,-19.5 340,-19.5 340,-0.5 281,-0.5"/>
<text text-anchor="middle" x="310.5" y="-7.5" font-family="Helvetica,sans-Serif" font-size="10.00">QtGlobal</text>
</a>
</g>
</g>
<!-- Node2&#45;&gt;Node3 -->
<g id="edge2" class="edge">
<title>Node2&#45;&gt;Node3</title>
<path fill="none" stroke="midnightblue" d="M310.5,-56.08C310.5,-49.01 310.5,-38.86 310.5,-29.99"/>
<polygon fill="midnightblue" stroke="midnightblue" points="314,-29.75 310.5,-19.75 307,-29.75 314,-29.75"/>
</g>
<!-- Node4&#45;&gt;Node2 -->
<g id="edge4" class="edge">
<title>Node4&#45;&gt;Node2</title>
<path fill="none" stroke="midnightblue" d="M157.34,-112.44C188.36,-103.24 237.83,-88.56 272.12,-78.39"/>
<polygon fill="midnightblue" stroke="midnightblue" points="273.21,-81.72 281.8,-75.52 271.21,-75.01 273.21,-81.72"/>
</g>
<!-- Node5 -->
<g id="node5" class="node">
<title>Node5</title>
<g id="a_node5"><a xlink:title=" ">
<polygon fill="white" stroke="#bfbfbf" points="99.5,-56.5 99.5,-75.5 157.5,-75.5 157.5,-56.5 99.5,-56.5"/>
<text text-anchor="middle" x="128.5" y="-63.5" font-family="Helvetica,sans-Serif" font-size="10.00">memory</text>
</a>
</g>
</g>
<!-- Node4&#45;&gt;Node5 -->
<g id="edge5" class="edge">
<title>Node4&#45;&gt;Node5</title>
<path fill="none" stroke="midnightblue" d="M128.5,-112.08C128.5,-105.01 128.5,-94.86 128.5,-85.99"/>
<polygon fill="midnightblue" stroke="midnightblue" points="132,-85.75 128.5,-75.75 125,-85.75 132,-85.75"/>
</g>
<!-- Node6&#45;&gt;Node2 -->
<g id="edge7" class="edge">
<title>Node6&#45;&gt;Node2</title>
<path fill="none" stroke="midnightblue" d="M391.57,-168.17C383.58,-159.19 370.96,-144.81 360.5,-132 347.33,-115.87 332.89,-96.96 322.93,-83.7"/>
<polygon fill="midnightblue" stroke="midnightblue" points="325.61,-81.45 316.82,-75.54 320,-85.64 325.61,-81.45"/>
</g>
<!-- Node6&#45;&gt;Node4 -->
<g id="edge9" class="edge">
<title>Node6&#45;&gt;Node4</title>
<path fill="none" stroke="midnightblue" d="M356.56,-168.44C308.99,-158.96 232.26,-143.67 181.11,-133.48"/>
<polygon fill="midnightblue" stroke="midnightblue" points="181.73,-130.04 171.24,-131.52 180.36,-136.9 181.73,-130.04"/>
</g>
<!-- Node7 -->
<g id="node7" class="node">
<title>Node7</title>
<g id="a_node7"><a xlink:title=" ">
<polygon fill="white" stroke="#bfbfbf" points="370,-112.5 370,-131.5 429,-131.5 429,-112.5 370,-112.5"/>
<text text-anchor="middle" x="399.5" y="-119.5" font-family="Helvetica,sans-Serif" font-size="10.00">QWidget</text>
</a>
</g>
</g>
<!-- Node6&#45;&gt;Node7 -->
<g id="edge8" class="edge">
<title>Node6&#45;&gt;Node7</title>
<path fill="none" stroke="midnightblue" d="M399.5,-168.08C399.5,-161.01 399.5,-150.86 399.5,-141.99"/>
<polygon fill="midnightblue" stroke="midnightblue" points="403,-141.75 399.5,-131.75 396,-141.75 403,-141.75"/>
</g>
<!-- Node8&#45;&gt;Node2 -->
<g id="edge11" class="edge">
<title>Node8&#45;&gt;Node2</title>
<path fill="none" stroke="midnightblue" d="M568.73,-168.37C540.5,-155.51 485.31,-130.8 437.5,-112 406.94,-99.98 371.71,-87.61 346.12,-78.89"/>
<polygon fill="midnightblue" stroke="midnightblue" points="347.07,-75.52 336.47,-75.62 344.82,-82.15 347.07,-75.52"/>
</g>
<!-- Node9 -->
<g id="node9" class="node">
<title>Node9</title>
<g id="a_node9"><a xlink:title=" ">
<polygon fill="white" stroke="#bfbfbf" points="559.5,-112.5 559.5,-131.5 615.5,-131.5 615.5,-112.5 559.5,-112.5"/>
<text text-anchor="middle" x="587.5" y="-119.5" font-family="Helvetica,sans-Serif" font-size="10.00">QDebug</text>
</a>
</g>
</g>
<!-- Node8&#45;&gt;Node9 -->
<g id="edge12" class="edge">
<title>Node8&#45;&gt;Node9</title>
<path fill="none" stroke="midnightblue" d="M587.5,-168.08C587.5,-161.01 587.5,-150.86 587.5,-141.99"/>
<polygon fill="midnightblue" stroke="midnightblue" points="591,-141.75 587.5,-131.75 584,-141.75 591,-141.75"/>
</g>
</g>
</svg>
