<?xml version="1.0" encoding="UTF-8" standalone="no"?>
<!DOCTYPE svg PUBLIC "-//W3C//DTD SVG 1.1//EN"
 "http://www.w3.org/Graphics/SVG/1.1/DTD/svg11.dtd">
<!-- Generated by graphviz version 2.43.0 (0)
 -->
<!-- Title: src/chromahuediagram.cpp Pages: 1 -->
<svg width="1821pt" height="364pt"
 viewBox="0.00 0.00 1820.64 364.00" xmlns="http://www.w3.org/2000/svg" xmlns:xlink="http://www.w3.org/1999/xlink">
<g id="graph0" class="graph" transform="scale(1 1) rotate(0) translate(4 360)">
<title>src/chromahuediagram.cpp</title>
<polygon fill="white" stroke="transparent" points="-4,4 -4,-360 1816.64,-360 1816.64,4 -4,4"/>
<!-- Node1 -->
<g id="node1" class="node">
<title>Node1</title>
<g id="a_node1"><a xlink:title=" ">
<polygon fill="#bfbfbf" stroke="black" points="1252.64,-336.5 1252.64,-355.5 1401.64,-355.5 1401.64,-336.5 1252.64,-336.5"/>
<text text-anchor="middle" x="1327.14" y="-343.5" font-family="Helvetica,sans-Serif" font-size="10.00">src/chromahuediagram.cpp</text>
</a>
</g>
</g>
<!-- Node2 -->
<g id="node2" class="node">
<title>Node2</title>
<g id="a_node2"><a xlink:href="perceptualcolorglobal_8h.html" target="_top" xlink:title=" ">
<polygon fill="white" stroke="black" points="678.14,-56.5 678.14,-75.5 890.14,-75.5 890.14,-56.5 678.14,-56.5"/>
<text text-anchor="middle" x="784.14" y="-63.5" font-family="Helvetica,sans-Serif" font-size="10.00">PerceptualColor/perceptualcolorglobal.h</text>
</a>
</g>
</g>
<!-- Node1&#45;&gt;Node2 -->
<g id="edge1" class="edge">
<title>Node1&#45;&gt;Node2</title>
<path fill="none" stroke="midnightblue" d="M1252.52,-342.75C972.65,-333.82 1.14,-298.27 1.14,-235 1.14,-235 1.14,-235 1.14,-177 1.14,-146.9 -3.41,-130.75 20.14,-112 45.01,-92.19 460.14,-76.84 667.78,-70.36"/>
<polygon fill="midnightblue" stroke="midnightblue" points="667.92,-73.85 677.81,-70.05 667.71,-66.86 667.92,-73.85"/>
</g>
<!-- Node4 -->
<g id="node4" class="node">
<title>Node4</title>
<g id="a_node4"><a xlink:href="perceptualcolorinternal_8h.html" target="_top" xlink:title=" ">
<polygon fill="white" stroke="black" points="1047.64,-112.5 1047.64,-131.5 1186.64,-131.5 1186.64,-112.5 1047.64,-112.5"/>
<text text-anchor="middle" x="1117.14" y="-119.5" font-family="Helvetica,sans-Serif" font-size="10.00">perceptualcolorinternal.h</text>
</a>
</g>
</g>
<!-- Node1&#45;&gt;Node4 -->
<g id="edge3" class="edge">
<title>Node1&#45;&gt;Node4</title>
<path fill="none" stroke="midnightblue" d="M1318.9,-336.3C1287.41,-303.01 1174.29,-183.42 1132.66,-139.41"/>
<polygon fill="midnightblue" stroke="midnightblue" points="1134.95,-136.74 1125.54,-131.88 1129.87,-141.55 1134.95,-136.74"/>
</g>
<!-- Node5 -->
<g id="node5" class="node">
<title>Node5</title>
<g id="a_node5"><a xlink:href="chromahuediagram_8h.html" target="_top" xlink:title=" ">
<polygon fill="white" stroke="black" points="239.64,-224.5 239.64,-243.5 440.64,-243.5 440.64,-224.5 239.64,-224.5"/>
<text text-anchor="middle" x="340.14" y="-231.5" font-family="Helvetica,sans-Serif" font-size="10.00">PerceptualColor/chromahuediagram.h</text>
</a>
</g>
</g>
<!-- Node1&#45;&gt;Node5 -->
<g id="edge5" class="edge">
<title>Node1&#45;&gt;Node5</title>
<path fill="none" stroke="midnightblue" d="M1252.2,-340.6C1145.09,-333.94 942.16,-319.93 770.14,-300 636.94,-284.57 481.61,-259.27 398.95,-245.22"/>
<polygon fill="midnightblue" stroke="midnightblue" points="399.44,-241.75 389,-243.52 398.27,-248.65 399.44,-241.75"/>
</g>
<!-- Node12 -->
<g id="node12" class="node">
<title>Node12</title>
<g id="a_node12"><a xlink:href="chromahuediagram__p_8h.html" target="_top" xlink:title=" ">
<polygon fill="white" stroke="black" points="779.14,-280.5 779.14,-299.5 911.14,-299.5 911.14,-280.5 779.14,-280.5"/>
<text text-anchor="middle" x="845.14" y="-287.5" font-family="Helvetica,sans-Serif" font-size="10.00">chromahuediagram_p.h</text>
</a>
</g>
</g>
<!-- Node1&#45;&gt;Node12 -->
<g id="edge17" class="edge">
<title>Node1&#45;&gt;Node12</title>
<path fill="none" stroke="midnightblue" d="M1252.62,-336.65C1162.58,-326.56 1011.92,-309.69 921.2,-299.52"/>
<polygon fill="midnightblue" stroke="midnightblue" points="921.58,-296.04 911.25,-298.41 920.8,-303 921.58,-296.04"/>
</g>
<!-- Node22 -->
<g id="node22" class="node">
<title>Node22</title>
<g id="a_node22"><a xlink:href="lchvalues_8h.html" target="_top" xlink:title=" ">
<polygon fill="white" stroke="black" points="1353.14,-168.5 1353.14,-187.5 1425.14,-187.5 1425.14,-168.5 1353.14,-168.5"/>
<text text-anchor="middle" x="1389.14" y="-175.5" font-family="Helvetica,sans-Serif" font-size="10.00">lchvalues.h</text>
</a>
</g>
</g>
<!-- Node1&#45;&gt;Node22 -->
<g id="edge58" class="edge">
<title>Node1&#45;&gt;Node22</title>
<path fill="none" stroke="midnightblue" d="M1327.38,-336.32C1328.28,-315.78 1332.38,-262.98 1351.14,-224 1356.32,-213.22 1364.71,-202.89 1372.28,-194.86"/>
<polygon fill="midnightblue" stroke="midnightblue" points="1374.87,-197.22 1379.44,-187.66 1369.91,-192.28 1374.87,-197.22"/>
</g>
<!-- Node23 -->
<g id="node23" class="node">
<title>Node23</title>
<g id="a_node23"><a xlink:href="helper_8h.html" target="_top" xlink:title="Various smaller help elements.">
<polygon fill="white" stroke="black" points="1241.14,-168.5 1241.14,-187.5 1297.14,-187.5 1297.14,-168.5 1241.14,-168.5"/>
<text text-anchor="middle" x="1269.14" y="-175.5" font-family="Helvetica,sans-Serif" font-size="10.00">helper.h</text>
</a>
</g>
</g>
<!-- Node1&#45;&gt;Node23 -->
<g id="edge50" class="edge">
<title>Node1&#45;&gt;Node23</title>
<path fill="none" stroke="midnightblue" d="M1324.02,-336.08C1314.85,-309.83 1287.84,-232.55 1275.47,-197.12"/>
<polygon fill="midnightblue" stroke="midnightblue" points="1278.73,-195.85 1272.13,-187.57 1272.12,-198.16 1278.73,-195.85"/>
</g>
<!-- Node25 -->
<g id="node25" class="node">
<title>Node25</title>
<g id="a_node25"><a xlink:href="polarpointf_8h.html" target="_top" xlink:title=" ">
<polygon fill="white" stroke="black" points="1582.14,-168.5 1582.14,-187.5 1660.14,-187.5 1660.14,-168.5 1582.14,-168.5"/>
<text text-anchor="middle" x="1621.14" y="-175.5" font-family="Helvetica,sans-Serif" font-size="10.00">polarpointf.h</text>
</a>
</g>
</g>
<!-- Node1&#45;&gt;Node25 -->
<g id="edge59" class="edge">
<title>Node1&#45;&gt;Node25</title>
<path fill="none" stroke="midnightblue" d="M1332.82,-336.31C1342.11,-322.69 1361.77,-296.2 1384.14,-280 1445.64,-235.45 1529.82,-205.56 1579.54,-190.49"/>
<polygon fill="midnightblue" stroke="midnightblue" points="1580.72,-193.79 1589.31,-187.58 1578.72,-187.08 1580.72,-193.79"/>
</g>
<!-- Node28 -->
<g id="node28" class="node">
<title>Node28</title>
<g id="a_node28"><a xlink:title=" ">
<polygon fill="white" stroke="#bfbfbf" points="1393.64,-280.5 1393.64,-299.5 1472.64,-299.5 1472.64,-280.5 1393.64,-280.5"/>
<text text-anchor="middle" x="1433.14" y="-287.5" font-family="Helvetica,sans-Serif" font-size="10.00">QApplication</text>
</a>
</g>
</g>
<!-- Node1&#45;&gt;Node28 -->
<g id="edge65" class="edge">
<title>Node1&#45;&gt;Node28</title>
<path fill="none" stroke="midnightblue" d="M1344.17,-336.32C1361.17,-327.66 1387.51,-314.24 1407.13,-304.25"/>
<polygon fill="midnightblue" stroke="midnightblue" points="1408.83,-307.31 1416.15,-299.65 1405.65,-301.08 1408.83,-307.31"/>
</g>
<!-- Node29 -->
<g id="node29" class="node">
<title>Node29</title>
<g id="a_node29"><a xlink:title=" ">
<polygon fill="white" stroke="#bfbfbf" points="1490.14,-280.5 1490.14,-299.5 1574.14,-299.5 1574.14,-280.5 1490.14,-280.5"/>
<text text-anchor="middle" x="1532.14" y="-287.5" font-family="Helvetica,sans-Serif" font-size="10.00">QMouseEvent</text>
</a>
</g>
</g>
<!-- Node1&#45;&gt;Node29 -->
<g id="edge66" class="edge">
<title>Node1&#45;&gt;Node29</title>
<path fill="none" stroke="midnightblue" d="M1359.62,-336.44C1394.86,-327.16 1451.24,-312.31 1489.89,-302.13"/>
<polygon fill="midnightblue" stroke="midnightblue" points="1491.03,-305.45 1499.8,-299.52 1489.24,-298.68 1491.03,-305.45"/>
</g>
<!-- Node30 -->
<g id="node30" class="node">
<title>Node30</title>
<g id="a_node30"><a xlink:title=" ">
<polygon fill="white" stroke="#bfbfbf" points="1592.14,-280.5 1592.14,-299.5 1650.14,-299.5 1650.14,-280.5 1592.14,-280.5"/>
<text text-anchor="middle" x="1621.14" y="-287.5" font-family="Helvetica,sans-Serif" font-size="10.00">QPainter</text>
</a>
</g>
</g>
<!-- Node1&#45;&gt;Node30 -->
<g id="edge67" class="edge">
<title>Node1&#45;&gt;Node30</title>
<path fill="none" stroke="midnightblue" d="M1381.25,-336.43C1430.95,-328.35 1506.88,-315.47 1582.01,-300.13"/>
<polygon fill="midnightblue" stroke="midnightblue" points="1583.04,-303.5 1592.13,-298.05 1581.63,-296.64 1583.04,-303.5"/>
</g>
<!-- Node31 -->
<g id="node31" class="node">
<title>Node31</title>
<g id="a_node31"><a xlink:title=" ">
<polygon fill="white" stroke="#bfbfbf" points="1668.64,-280.5 1668.64,-299.5 1717.64,-299.5 1717.64,-280.5 1668.64,-280.5"/>
<text text-anchor="middle" x="1693.14" y="-287.5" font-family="Helvetica,sans-Serif" font-size="10.00">QStyle</text>
</a>
</g>
</g>
<!-- Node1&#45;&gt;Node31 -->
<g id="edge68" class="edge">
<title>Node1&#45;&gt;Node31</title>
<path fill="none" stroke="midnightblue" d="M1401.74,-337.56C1467.01,-330.45 1564.49,-318.34 1658.38,-299.92"/>
<polygon fill="midnightblue" stroke="midnightblue" points="1659.21,-303.33 1668.34,-297.94 1657.85,-296.46 1659.21,-303.33"/>
</g>
<!-- Node3 -->
<g id="node3" class="node">
<title>Node3</title>
<g id="a_node3"><a xlink:title=" ">
<polygon fill="white" stroke="#bfbfbf" points="1151.64,-0.5 1151.64,-19.5 1210.64,-19.5 1210.64,-0.5 1151.64,-0.5"/>
<text text-anchor="middle" x="1181.14" y="-7.5" font-family="Helvetica,sans-Serif" font-size="10.00">QtGlobal</text>
</a>
</g>
</g>
<!-- Node2&#45;&gt;Node3 -->
<g id="edge2" class="edge">
<title>Node2&#45;&gt;Node3</title>
<path fill="none" stroke="midnightblue" d="M847.04,-56.44C929.6,-45.21 1072.11,-25.83 1141.23,-16.43"/>
<polygon fill="midnightblue" stroke="midnightblue" points="1141.84,-19.88 1151.28,-15.06 1140.9,-12.94 1141.84,-19.88"/>
</g>
<!-- Node4&#45;&gt;Node2 -->
<g id="edge4" class="edge">
<title>Node4&#45;&gt;Node2</title>
<path fill="none" stroke="midnightblue" d="M1064.37,-112.44C1005.31,-102.87 909.66,-87.36 846.83,-77.17"/>
<polygon fill="midnightblue" stroke="midnightblue" points="847.08,-73.66 836.65,-75.52 845.96,-80.57 847.08,-73.66"/>
</g>
<!-- Node5&#45;&gt;Node2 -->
<g id="edge6" class="edge">
<title>Node5&#45;&gt;Node2</title>
<path fill="none" stroke="midnightblue" d="M345.29,-224.4C359.51,-201.58 401.74,-139.35 455.14,-112 491.49,-93.38 588.38,-81.59 667.67,-74.77"/>
<polygon fill="midnightblue" stroke="midnightblue" points="668.07,-78.25 677.74,-73.92 667.48,-71.27 668.07,-78.25"/>
</g>
<!-- Node6 -->
<g id="node6" class="node">
<title>Node6</title>
<g id="a_node6"><a xlink:href="constpropagatinguniquepointer_8h.html" target="_top" xlink:title=" ">
<polygon fill="white" stroke="black" points="145.64,-112.5 145.64,-131.5 402.64,-131.5 402.64,-112.5 145.64,-112.5"/>
<text text-anchor="middle" x="274.14" y="-119.5" font-family="Helvetica,sans-Serif" font-size="10.00">PerceptualColor/constpropagatinguniquepointer.h</text>
</a>
</g>
</g>
<!-- Node5&#45;&gt;Node6 -->
<g id="edge7" class="edge">
<title>Node5&#45;&gt;Node6</title>
<path fill="none" stroke="midnightblue" d="M334.96,-224.37C324.11,-206.3 298.84,-164.18 284.52,-140.31"/>
<polygon fill="midnightblue" stroke="midnightblue" points="287.44,-138.37 279.29,-131.59 281.43,-141.97 287.44,-138.37"/>
</g>
<!-- Node8 -->
<g id="node8" class="node">
<title>Node8</title>
<g id="a_node8"><a xlink:href="abstractdiagram_8h.html" target="_top" xlink:title=" ">
<polygon fill="white" stroke="black" points="78.14,-168.5 78.14,-187.5 264.14,-187.5 264.14,-168.5 78.14,-168.5"/>
<text text-anchor="middle" x="171.14" y="-175.5" font-family="Helvetica,sans-Serif" font-size="10.00">PerceptualColor/abstractdiagram.h</text>
</a>
</g>
</g>
<!-- Node5&#45;&gt;Node8 -->
<g id="edge10" class="edge">
<title>Node5&#45;&gt;Node8</title>
<path fill="none" stroke="midnightblue" d="M313.36,-224.44C284.8,-215.32 239.4,-200.81 207.6,-190.65"/>
<polygon fill="midnightblue" stroke="midnightblue" points="208.38,-187.23 197.79,-187.52 206.25,-193.89 208.38,-187.23"/>
</g>
<!-- Node10 -->
<g id="node10" class="node">
<title>Node10</title>
<g id="a_node10"><a xlink:href="lchdouble_8h.html" target="_top" xlink:title=" ">
<polygon fill="white" stroke="black" points="1344.64,-112.5 1344.64,-131.5 1497.64,-131.5 1497.64,-112.5 1344.64,-112.5"/>
<text text-anchor="middle" x="1421.14" y="-119.5" font-family="Helvetica,sans-Serif" font-size="10.00">PerceptualColor/lchdouble.h</text>
</a>
</g>
</g>
<!-- Node5&#45;&gt;Node10 -->
<g id="edge14" class="edge">
<title>Node5&#45;&gt;Node10</title>
<path fill="none" stroke="midnightblue" d="M440.97,-228.92C684.36,-218.98 1285.57,-193.93 1306.14,-188 1311.07,-186.58 1365.51,-155.26 1397.68,-136.62"/>
<polygon fill="midnightblue" stroke="midnightblue" points="1399.6,-139.56 1406.49,-131.52 1396.08,-133.51 1399.6,-139.56"/>
</g>
<!-- Node6&#45;&gt;Node2 -->
<g id="edge8" class="edge">
<title>Node6&#45;&gt;Node2</title>
<path fill="none" stroke="midnightblue" d="M354.67,-112.47C446.84,-102.71 597.44,-86.77 693.61,-76.59"/>
<polygon fill="midnightblue" stroke="midnightblue" points="694.03,-80.06 703.61,-75.53 693.3,-73.1 694.03,-80.06"/>
</g>
<!-- Node7 -->
<g id="node7" class="node">
<title>Node7</title>
<g id="a_node7"><a xlink:title=" ">
<polygon fill="white" stroke="#bfbfbf" points="245.14,-56.5 245.14,-75.5 303.14,-75.5 303.14,-56.5 245.14,-56.5"/>
<text text-anchor="middle" x="274.14" y="-63.5" font-family="Helvetica,sans-Serif" font-size="10.00">memory</text>
</a>
</g>
</g>
<!-- Node6&#45;&gt;Node7 -->
<g id="edge9" class="edge">
<title>Node6&#45;&gt;Node7</title>
<path fill="none" stroke="midnightblue" d="M274.14,-112.08C274.14,-105.01 274.14,-94.86 274.14,-85.99"/>
<polygon fill="midnightblue" stroke="midnightblue" points="277.64,-85.75 274.14,-75.75 270.64,-85.75 277.64,-85.75"/>
</g>
<!-- Node8&#45;&gt;Node2 -->
<g id="edge11" class="edge">
<title>Node8&#45;&gt;Node2</title>
<path fill="none" stroke="midnightblue" d="M160.32,-168.34C144.9,-155 120.14,-129.15 136.14,-112 171.53,-74.06 490.98,-67.41 667.74,-66.67"/>
<polygon fill="midnightblue" stroke="midnightblue" points="667.88,-70.17 677.87,-66.64 667.86,-63.17 667.88,-70.17"/>
</g>
<!-- Node8&#45;&gt;Node6 -->
<g id="edge13" class="edge">
<title>Node8&#45;&gt;Node6</title>
<path fill="none" stroke="midnightblue" d="M187.68,-168.32C204.13,-159.7 229.57,-146.36 248.6,-136.39"/>
<polygon fill="midnightblue" stroke="midnightblue" points="250.4,-139.4 257.63,-131.65 247.15,-133.2 250.4,-139.4"/>
</g>
<!-- Node9 -->
<g id="node9" class="node">
<title>Node9</title>
<g id="a_node9"><a xlink:title=" ">
<polygon fill="white" stroke="#bfbfbf" points="29.64,-112.5 29.64,-131.5 88.64,-131.5 88.64,-112.5 29.64,-112.5"/>
<text text-anchor="middle" x="59.14" y="-119.5" font-family="Helvetica,sans-Serif" font-size="10.00">QWidget</text>
</a>
</g>
</g>
<!-- Node8&#45;&gt;Node9 -->
<g id="edge12" class="edge">
<title>Node8&#45;&gt;Node9</title>
<path fill="none" stroke="midnightblue" d="M153.14,-168.32C135.1,-159.62 107.09,-146.12 86.33,-136.11"/>
<polygon fill="midnightblue" stroke="midnightblue" points="87.61,-132.84 77.09,-131.65 84.57,-139.15 87.61,-132.84"/>
</g>
<!-- Node10&#45;&gt;Node2 -->
<g id="edge15" class="edge">
<title>Node10&#45;&gt;Node2</title>
<path fill="none" stroke="midnightblue" d="M1344.25,-112.87C1341.17,-112.57 1338.13,-112.28 1335.14,-112 1185.24,-98.04 1012.18,-84.29 900.61,-75.74"/>
<polygon fill="midnightblue" stroke="midnightblue" points="900.58,-72.23 890.34,-74.95 900.05,-79.21 900.58,-72.23"/>
</g>
<!-- Node11 -->
<g id="node11" class="node">
<title>Node11</title>
<g id="a_node11"><a xlink:title=" ">
<polygon fill="white" stroke="#bfbfbf" points="1393.14,-56.5 1393.14,-75.5 1449.14,-75.5 1449.14,-56.5 1393.14,-56.5"/>
<text text-anchor="middle" x="1421.14" y="-63.5" font-family="Helvetica,sans-Serif" font-size="10.00">QDebug</text>
</a>
</g>
</g>
<!-- Node10&#45;&gt;Node11 -->
<g id="edge16" class="edge">
<title>Node10&#45;&gt;Node11</title>
<path fill="none" stroke="midnightblue" d="M1421.14,-112.08C1421.14,-105.01 1421.14,-94.86 1421.14,-85.99"/>
<polygon fill="midnightblue" stroke="midnightblue" points="1424.64,-85.75 1421.14,-75.75 1417.64,-85.75 1424.64,-85.75"/>
</g>
<!-- Node12&#45;&gt;Node2 -->
<g id="edge18" class="edge">
<title>Node12&#45;&gt;Node2</title>
<path fill="none" stroke="midnightblue" d="M778.83,-281.95C701,-273.13 580.43,-257.54 564.14,-244 543.81,-227.11 549.8,-213.81 544.14,-188 536.88,-154.94 517.47,-138.01 539.14,-112 556.11,-91.63 613.03,-80.45 667.73,-74.33"/>
<polygon fill="midnightblue" stroke="midnightblue" points="668.34,-77.78 677.91,-73.24 667.6,-70.82 668.34,-77.78"/>
</g>
<!-- Node12&#45;&gt;Node4 -->
<g id="edge19" class="edge">
<title>Node12&#45;&gt;Node4</title>
<path fill="none" stroke="midnightblue" d="M911.23,-286.55C979.31,-280.06 1082.3,-258.37 1132.14,-188 1141.94,-174.16 1135.62,-154.88 1128.41,-140.92"/>
<polygon fill="midnightblue" stroke="midnightblue" points="1131.22,-138.79 1123.22,-131.84 1125.15,-142.26 1131.22,-138.79"/>
</g>
<!-- Node12&#45;&gt;Node5 -->
<g id="edge20" class="edge">
<title>Node12&#45;&gt;Node5</title>
<path fill="none" stroke="midnightblue" d="M779.12,-281.94C689.81,-272.39 530.19,-255.32 430.01,-244.61"/>
<polygon fill="midnightblue" stroke="midnightblue" points="430.22,-241.11 419.91,-243.53 429.48,-248.07 430.22,-241.11"/>
</g>
<!-- Node13 -->
<g id="node13" class="node">
<title>Node13</title>
<g id="a_node13"><a xlink:href="chromahueimage_8h.html" target="_top" xlink:title=" ">
<polygon fill="white" stroke="black" points="573.64,-224.5 573.64,-243.5 684.64,-243.5 684.64,-224.5 573.64,-224.5"/>
<text text-anchor="middle" x="629.14" y="-231.5" font-family="Helvetica,sans-Serif" font-size="10.00">chromahueimage.h</text>
</a>
</g>
</g>
<!-- Node12&#45;&gt;Node13 -->
<g id="edge21" class="edge">
<title>Node12&#45;&gt;Node13</title>
<path fill="none" stroke="midnightblue" d="M810.91,-280.44C773.62,-271.12 713.87,-256.18 673.12,-246"/>
<polygon fill="midnightblue" stroke="midnightblue" points="673.75,-242.55 663.2,-243.52 672.05,-249.34 673.75,-242.55"/>
</g>
<!-- Node20 -->
<g id="node20" class="node">
<title>Node20</title>
<g id="a_node20"><a xlink:href="colorwheelimage_8h.html" target="_top" xlink:title=" ">
<polygon fill="white" stroke="black" points="714.14,-224.5 714.14,-243.5 824.14,-243.5 824.14,-224.5 714.14,-224.5"/>
<text text-anchor="middle" x="769.14" y="-231.5" font-family="Helvetica,sans-Serif" font-size="10.00">colorwheelimage.h</text>
</a>
</g>
</g>
<!-- Node12&#45;&gt;Node20 -->
<g id="edge36" class="edge">
<title>Node12&#45;&gt;Node20</title>
<path fill="none" stroke="midnightblue" d="M832.92,-280.32C821.36,-272.11 803.76,-259.6 789.97,-249.81"/>
<polygon fill="midnightblue" stroke="midnightblue" points="791.75,-246.77 781.57,-243.83 787.69,-252.48 791.75,-246.77"/>
</g>
<!-- Node21 -->
<g id="node21" class="node">
<title>Node21</title>
<g id="a_node21"><a xlink:href="constpropagatingrawpointer_8h.html" target="_top" xlink:title=" ">
<polygon fill="white" stroke="black" points="909.14,-168.5 909.14,-187.5 1071.14,-187.5 1071.14,-168.5 909.14,-168.5"/>
<text text-anchor="middle" x="990.14" y="-175.5" font-family="Helvetica,sans-Serif" font-size="10.00">constpropagatingrawpointer.h</text>
</a>
</g>
</g>
<!-- Node12&#45;&gt;Node21 -->
<g id="edge43" class="edge">
<title>Node12&#45;&gt;Node21</title>
<path fill="none" stroke="midnightblue" d="M856.51,-280.37C881.18,-261.65 939.85,-217.15 970.58,-193.83"/>
<polygon fill="midnightblue" stroke="midnightblue" points="972.96,-196.42 978.81,-187.59 968.73,-190.85 972.96,-196.42"/>
</g>
<!-- Node12&#45;&gt;Node22 -->
<g id="edge46" class="edge">
<title>Node12&#45;&gt;Node22</title>
<path fill="none" stroke="midnightblue" d="M911.4,-283.98C981.14,-277.85 1093.81,-265.53 1189.14,-244 1249.94,-230.27 1318.6,-205.94 1357.6,-191.26"/>
<polygon fill="midnightblue" stroke="midnightblue" points="1359.2,-194.39 1367.31,-187.57 1356.72,-187.84 1359.2,-194.39"/>
</g>
<!-- Node13&#45;&gt;Node2 -->
<g id="edge22" class="edge">
<title>Node13&#45;&gt;Node2</title>
<path fill="none" stroke="midnightblue" d="M605.16,-224.4C589.01,-217.27 568.77,-205.44 558.14,-188 540.52,-159.1 531.61,-138.12 553.14,-112 568.39,-93.49 618.24,-82.49 667.75,-76.01"/>
<polygon fill="midnightblue" stroke="midnightblue" points="668.47,-79.45 677.96,-74.73 667.61,-72.5 668.47,-79.45"/>
</g>
<!-- Node13&#45;&gt;Node4 -->
<g id="edge23" class="edge">
<title>Node13&#45;&gt;Node4</title>
<path fill="none" stroke="midnightblue" d="M684.74,-226.27C691.61,-225.48 698.53,-224.71 705.14,-224 788.38,-215.08 1009.86,-233.49 1080.14,-188 1096.63,-177.33 1106.55,-156.57 1111.9,-141.37"/>
<polygon fill="midnightblue" stroke="midnightblue" points="1115.34,-142.1 1115.03,-131.51 1108.67,-139.99 1115.34,-142.1"/>
</g>
<!-- Node14 -->
<g id="node14" class="node">
<title>Node14</title>
<g id="a_node14"><a xlink:title=" ">
<polygon fill="white" stroke="#bfbfbf" points="573.64,-112.5 573.64,-131.5 628.64,-131.5 628.64,-112.5 573.64,-112.5"/>
<text text-anchor="middle" x="601.14" y="-119.5" font-family="Helvetica,sans-Serif" font-size="10.00">QImage</text>
</a>
</g>
</g>
<!-- Node13&#45;&gt;Node14 -->
<g id="edge24" class="edge">
<title>Node13&#45;&gt;Node14</title>
<path fill="none" stroke="midnightblue" d="M607.33,-224.45C592.19,-217.22 573.18,-205.26 564.14,-188 555.17,-170.89 569.13,-151.71 582.39,-138.65"/>
<polygon fill="midnightblue" stroke="midnightblue" points="584.93,-141.06 589.94,-131.72 580.2,-135.9 584.93,-141.06"/>
</g>
<!-- Node15 -->
<g id="node15" class="node">
<title>Node15</title>
<g id="a_node15"><a xlink:title=" ">
<polygon fill="white" stroke="#bfbfbf" points="573.14,-168.5 573.14,-187.5 665.14,-187.5 665.14,-168.5 573.14,-168.5"/>
<text text-anchor="middle" x="619.14" y="-175.5" font-family="Helvetica,sans-Serif" font-size="10.00">QSharedPointer</text>
</a>
</g>
</g>
<!-- Node13&#45;&gt;Node15 -->
<g id="edge25" class="edge">
<title>Node13&#45;&gt;Node15</title>
<path fill="none" stroke="midnightblue" d="M627.48,-224.08C626.16,-216.93 624.25,-206.64 622.6,-197.69"/>
<polygon fill="midnightblue" stroke="midnightblue" points="626.02,-196.95 620.76,-187.75 619.14,-198.22 626.02,-196.95"/>
</g>
<!-- Node16 -->
<g id="node16" class="node">
<title>Node16</title>
<g id="a_node16"><a xlink:href="rgbcolorspace_8h.html" target="_top" xlink:title=" ">
<polygon fill="white" stroke="black" points="797.14,-168.5 797.14,-187.5 891.14,-187.5 891.14,-168.5 797.14,-168.5"/>
<text text-anchor="middle" x="844.14" y="-175.5" font-family="Helvetica,sans-Serif" font-size="10.00">rgbcolorspace.h</text>
</a>
</g>
</g>
<!-- Node13&#45;&gt;Node16 -->
<g id="edge26" class="edge">
<title>Node13&#45;&gt;Node16</title>
<path fill="none" stroke="midnightblue" d="M663.2,-224.44C700.32,-215.12 759.8,-200.18 800.35,-190"/>
<polygon fill="midnightblue" stroke="midnightblue" points="801.38,-193.35 810.23,-187.52 799.68,-186.56 801.38,-193.35"/>
</g>
<!-- Node16&#45;&gt;Node2 -->
<g id="edge27" class="edge">
<title>Node16&#45;&gt;Node2</title>
<path fill="none" stroke="midnightblue" d="M803.08,-168.38C783.18,-161.92 761.04,-150.81 749.14,-132 738.82,-115.7 752.72,-96.11 765.94,-82.72"/>
<polygon fill="midnightblue" stroke="midnightblue" points="768.58,-85.04 773.45,-75.63 763.78,-79.95 768.58,-85.04"/>
</g>
<!-- Node16&#45;&gt;Node4 -->
<g id="edge28" class="edge">
<title>Node16&#45;&gt;Node4</title>
<path fill="none" stroke="midnightblue" d="M887.39,-168.44C935.32,-158.96 1012.61,-143.67 1064.14,-133.48"/>
<polygon fill="midnightblue" stroke="midnightblue" points="1064.95,-136.89 1074.08,-131.52 1063.59,-130.02 1064.95,-136.89"/>
</g>
<!-- Node16&#45;&gt;Node6 -->
<g id="edge30" class="edge">
<title>Node16&#45;&gt;Node6</title>
<path fill="none" stroke="midnightblue" d="M797.01,-172.54C704.71,-163.79 498.35,-144.24 374.26,-132.49"/>
<polygon fill="midnightblue" stroke="midnightblue" points="374.28,-128.97 363.99,-131.51 373.62,-135.94 374.28,-128.97"/>
</g>
<!-- Node16&#45;&gt;Node10 -->
<g id="edge34" class="edge">
<title>Node16&#45;&gt;Node10</title>
<path fill="none" stroke="midnightblue" d="M891.15,-169.18C894.19,-168.75 897.2,-168.36 900.14,-168 1089.42,-144.99 1140.26,-149.92 1334.01,-132.08"/>
<polygon fill="midnightblue" stroke="midnightblue" points="1334.62,-135.54 1344.25,-131.13 1333.97,-128.57 1334.62,-135.54"/>
</g>
<!-- Node17 -->
<g id="node17" class="node">
<title>Node17</title>
<g id="a_node17"><a xlink:title=" ">
<polygon fill="white" stroke="#bfbfbf" points="647.14,-112.5 647.14,-131.5 703.14,-131.5 703.14,-112.5 647.14,-112.5"/>
<text text-anchor="middle" x="675.14" y="-119.5" font-family="Helvetica,sans-Serif" font-size="10.00">QObject</text>
</a>
</g>
</g>
<!-- Node16&#45;&gt;Node17 -->
<g id="edge29" class="edge">
<title>Node16&#45;&gt;Node17</title>
<path fill="none" stroke="midnightblue" d="M817.36,-168.44C788.8,-159.32 743.4,-144.81 711.6,-134.65"/>
<polygon fill="midnightblue" stroke="midnightblue" points="712.38,-131.23 701.79,-131.52 710.25,-137.89 712.38,-131.23"/>
</g>
<!-- Node18 -->
<g id="node18" class="node">
<title>Node18</title>
<g id="a_node18"><a xlink:href="lchadouble_8h.html" target="_top" xlink:title=" ">
<polygon fill="white" stroke="black" points="758.64,-112.5 758.64,-131.5 917.64,-131.5 917.64,-112.5 758.64,-112.5"/>
<text text-anchor="middle" x="838.14" y="-119.5" font-family="Helvetica,sans-Serif" font-size="10.00">PerceptualColor/lchadouble.h</text>
</a>
</g>
</g>
<!-- Node16&#45;&gt;Node18 -->
<g id="edge31" class="edge">
<title>Node16&#45;&gt;Node18</title>
<path fill="none" stroke="midnightblue" d="M843.14,-168.08C842.35,-160.93 841.21,-150.64 840.21,-141.69"/>
<polygon fill="midnightblue" stroke="midnightblue" points="843.69,-141.3 839.11,-131.75 836.73,-142.08 843.69,-141.3"/>
</g>
<!-- Node19 -->
<g id="node19" class="node">
<title>Node19</title>
<g id="a_node19"><a xlink:title=" ">
<polygon fill="white" stroke="#bfbfbf" points="935.64,-112.5 935.64,-131.5 990.64,-131.5 990.64,-112.5 935.64,-112.5"/>
<text text-anchor="middle" x="963.14" y="-119.5" font-family="Helvetica,sans-Serif" font-size="10.00">lcms2.h</text>
</a>
</g>
</g>
<!-- Node16&#45;&gt;Node19 -->
<g id="edge35" class="edge">
<title>Node16&#45;&gt;Node19</title>
<path fill="none" stroke="midnightblue" d="M862.99,-168.44C882.4,-159.64 912.87,-145.81 935.1,-135.72"/>
<polygon fill="midnightblue" stroke="midnightblue" points="936.71,-138.84 944.37,-131.52 933.82,-132.46 936.71,-138.84"/>
</g>
<!-- Node18&#45;&gt;Node2 -->
<g id="edge32" class="edge">
<title>Node18&#45;&gt;Node2</title>
<path fill="none" stroke="midnightblue" d="M829.22,-112.08C821.36,-104.22 809.7,-92.57 800.22,-83.08"/>
<polygon fill="midnightblue" stroke="midnightblue" points="802.43,-80.35 792.89,-75.75 797.48,-85.3 802.43,-80.35"/>
</g>
<!-- Node18&#45;&gt;Node11 -->
<g id="edge33" class="edge">
<title>Node18&#45;&gt;Node11</title>
<path fill="none" stroke="midnightblue" d="M917.76,-112.82C920.58,-112.54 923.38,-112.27 926.14,-112 1096.43,-95.55 1299.86,-77.59 1382.95,-70.32"/>
<polygon fill="midnightblue" stroke="midnightblue" points="1383.28,-73.81 1392.94,-69.45 1382.67,-66.83 1383.28,-73.81"/>
</g>
<!-- Node20&#45;&gt;Node2 -->
<g id="edge37" class="edge">
<title>Node20&#45;&gt;Node2</title>
<path fill="none" stroke="midnightblue" d="M757.52,-224.43C736.18,-208.81 691.34,-176.49 674.14,-168 624.93,-143.74 529.45,-154.5 564.14,-112 578.49,-94.41 625.32,-83.51 672.1,-76.86"/>
<polygon fill="midnightblue" stroke="midnightblue" points="672.64,-80.32 682.07,-75.5 671.69,-73.38 672.64,-80.32"/>
</g>
<!-- Node20&#45;&gt;Node4 -->
<g id="edge38" class="edge">
<title>Node20&#45;&gt;Node4</title>
<path fill="none" stroke="midnightblue" d="M824.36,-233.93C911.52,-234.12 1075.01,-228.83 1113.14,-188 1124.45,-175.88 1124.11,-156.32 1121.76,-141.82"/>
<polygon fill="midnightblue" stroke="midnightblue" points="1125.17,-141.02 1119.73,-131.92 1118.32,-142.42 1125.17,-141.02"/>
</g>
<!-- Node20&#45;&gt;Node14 -->
<g id="edge39" class="edge">
<title>Node20&#45;&gt;Node14</title>
<path fill="none" stroke="midnightblue" d="M762.78,-224.34C752.44,-210.76 730.73,-184.33 707.14,-168 686.13,-153.47 659.69,-142.23 638.47,-134.62"/>
<polygon fill="midnightblue" stroke="midnightblue" points="639.42,-131.25 628.82,-131.28 637.13,-137.86 639.42,-131.25"/>
</g>
<!-- Node20&#45;&gt;Node15 -->
<g id="edge41" class="edge">
<title>Node20&#45;&gt;Node15</title>
<path fill="none" stroke="midnightblue" d="M745.37,-224.44C720.24,-215.4 680.42,-201.06 652.24,-190.92"/>
<polygon fill="midnightblue" stroke="midnightblue" points="653.39,-187.61 642.79,-187.52 651.02,-194.2 653.39,-187.61"/>
</g>
<!-- Node20&#45;&gt;Node16 -->
<g id="edge42" class="edge">
<title>Node20&#45;&gt;Node16</title>
<path fill="none" stroke="midnightblue" d="M781.19,-224.32C792.6,-216.11 809.97,-203.6 823.57,-193.81"/>
<polygon fill="midnightblue" stroke="midnightblue" points="825.8,-196.52 831.87,-187.83 821.71,-190.84 825.8,-196.52"/>
</g>
<!-- Node20&#45;&gt;Node17 -->
<g id="edge40" class="edge">
<title>Node20&#45;&gt;Node17</title>
<path fill="none" stroke="midnightblue" d="M767.72,-224.13C765.19,-210.72 758.84,-185.07 745.14,-168 734.33,-154.55 718.37,-143.85 704.42,-136.27"/>
<polygon fill="midnightblue" stroke="midnightblue" points="705.66,-132.97 695.17,-131.52 702.47,-139.2 705.66,-132.97"/>
</g>
<!-- Node21&#45;&gt;Node2 -->
<g id="edge44" class="edge">
<title>Node21&#45;&gt;Node2</title>
<path fill="none" stroke="midnightblue" d="M995.01,-168.33C1001.92,-154.73 1012.35,-128.27 999.14,-112 984.97,-94.56 938.28,-83.64 892.01,-76.93"/>
<polygon fill="midnightblue" stroke="midnightblue" points="892.24,-73.43 881.85,-75.52 891.27,-80.36 892.24,-73.43"/>
</g>
<!-- Node21&#45;&gt;Node4 -->
<g id="edge45" class="edge">
<title>Node21&#45;&gt;Node4</title>
<path fill="none" stroke="midnightblue" d="M1010.26,-168.44C1031.16,-159.56 1064.07,-145.56 1087.85,-135.45"/>
<polygon fill="midnightblue" stroke="midnightblue" points="1089.27,-138.65 1097.11,-131.52 1086.53,-132.21 1089.27,-138.65"/>
</g>
<!-- Node22&#45;&gt;Node2 -->
<g id="edge47" class="edge">
<title>Node22&#45;&gt;Node2</title>
<path fill="none" stroke="midnightblue" d="M1425.23,-170.5C1469.08,-161.13 1533.98,-141.63 1506.14,-112 1485.76,-90.31 1099.61,-76.07 900.61,-70.14"/>
<polygon fill="midnightblue" stroke="midnightblue" points="900.5,-66.63 890.4,-69.83 900.29,-73.63 900.5,-66.63"/>
</g>
<!-- Node22&#45;&gt;Node4 -->
<g id="edge48" class="edge">
<title>Node22&#45;&gt;Node4</title>
<path fill="none" stroke="midnightblue" d="M1353.02,-169.83C1306.18,-160.53 1224.12,-144.24 1170.2,-133.53"/>
<polygon fill="midnightblue" stroke="midnightblue" points="1170.63,-130.05 1160.14,-131.54 1169.26,-136.92 1170.63,-130.05"/>
</g>
<!-- Node22&#45;&gt;Node10 -->
<g id="edge49" class="edge">
<title>Node22&#45;&gt;Node10</title>
<path fill="none" stroke="midnightblue" d="M1394.42,-168.08C1398.85,-160.61 1405.3,-149.72 1410.75,-140.52"/>
<polygon fill="midnightblue" stroke="midnightblue" points="1413.86,-142.14 1415.95,-131.75 1407.84,-138.57 1413.86,-142.14"/>
</g>
<!-- Node23&#45;&gt;Node2 -->
<g id="edge51" class="edge">
<title>Node23&#45;&gt;Node2</title>
<path fill="none" stroke="midnightblue" d="M1262.47,-168.42C1250.67,-153.94 1224.56,-124.96 1195.14,-112 1144.04,-89.49 1003.27,-77.72 900.68,-71.95"/>
<polygon fill="midnightblue" stroke="midnightblue" points="900.74,-68.45 890.56,-71.39 900.35,-75.44 900.74,-68.45"/>
</g>
<!-- Node23&#45;&gt;Node3 -->
<g id="edge55" class="edge">
<title>Node23&#45;&gt;Node3</title>
<path fill="none" stroke="midnightblue" d="M1297.18,-173.69C1357.01,-166.34 1492.85,-148.05 1506.14,-132 1511.8,-125.15 1509.22,-120.34 1506.14,-112 1494.76,-81.26 1486.72,-72.05 1458.14,-56 1418.21,-33.58 1287.61,-19.83 1220.99,-14.1"/>
<polygon fill="midnightblue" stroke="midnightblue" points="1221.13,-10.6 1210.87,-13.25 1220.54,-17.57 1221.13,-10.6"/>
</g>
<!-- Node23&#45;&gt;Node4 -->
<g id="edge52" class="edge">
<title>Node23&#45;&gt;Node4</title>
<path fill="none" stroke="midnightblue" d="M1245.05,-168.44C1219.59,-159.4 1179.24,-145.06 1150.68,-134.92"/>
<polygon fill="midnightblue" stroke="midnightblue" points="1151.7,-131.57 1141.11,-131.52 1149.36,-138.16 1151.7,-131.57"/>
</g>
<!-- Node23&#45;&gt;Node10 -->
<g id="edge56" class="edge">
<title>Node23&#45;&gt;Node10</title>
<path fill="none" stroke="midnightblue" d="M1293.22,-168.44C1318.68,-159.4 1359.03,-145.06 1387.59,-134.92"/>
<polygon fill="midnightblue" stroke="midnightblue" points="1388.91,-138.16 1397.16,-131.52 1386.57,-131.57 1388.91,-138.16"/>
</g>
<!-- Node23&#45;&gt;Node14 -->
<g id="edge53" class="edge">
<title>Node23&#45;&gt;Node14</title>
<path fill="none" stroke="midnightblue" d="M1240.85,-175.61C1136.97,-170.43 775.94,-151.55 639.14,-131.83"/>
<polygon fill="midnightblue" stroke="midnightblue" points="639.33,-128.32 628.92,-130.29 638.28,-135.24 639.33,-128.32"/>
</g>
<!-- Node23&#45;&gt;Node19 -->
<g id="edge57" class="edge">
<title>Node23&#45;&gt;Node19</title>
<path fill="none" stroke="midnightblue" d="M1240.9,-172.02C1185.65,-162.27 1063.25,-140.67 1001.03,-129.69"/>
<polygon fill="midnightblue" stroke="midnightblue" points="1001.32,-126.18 990.86,-127.89 1000.1,-133.08 1001.32,-126.18"/>
</g>
<!-- Node24 -->
<g id="node24" class="node">
<title>Node24</title>
<g id="a_node24"><a xlink:title=" ">
<polygon fill="white" stroke="#bfbfbf" points="1243.64,-112.5 1243.64,-131.5 1326.64,-131.5 1326.64,-112.5 1243.64,-112.5"/>
<text text-anchor="middle" x="1285.14" y="-119.5" font-family="Helvetica,sans-Serif" font-size="10.00">QWheelEvent</text>
</a>
</g>
</g>
<!-- Node23&#45;&gt;Node24 -->
<g id="edge54" class="edge">
<title>Node23&#45;&gt;Node24</title>
<path fill="none" stroke="midnightblue" d="M1271.78,-168.08C1273.92,-160.85 1277.01,-150.41 1279.68,-141.4"/>
<polygon fill="midnightblue" stroke="midnightblue" points="1283.06,-142.33 1282.54,-131.75 1276.35,-140.34 1283.06,-142.33"/>
</g>
<!-- Node25&#45;&gt;Node2 -->
<g id="edge60" class="edge">
<title>Node25&#45;&gt;Node2</title>
<path fill="none" stroke="midnightblue" d="M1612.14,-168.49C1596.01,-153.84 1560.44,-124.25 1524.14,-112 1411.99,-74.14 1079,-67.45 900.4,-66.69"/>
<polygon fill="midnightblue" stroke="midnightblue" points="900.19,-63.19 890.17,-66.65 900.16,-70.19 900.19,-63.19"/>
</g>
<!-- Node25&#45;&gt;Node4 -->
<g id="edge61" class="edge">
<title>Node25&#45;&gt;Node4</title>
<path fill="none" stroke="midnightblue" d="M1582.01,-172.81C1499.58,-163.98 1306.68,-143.31 1197.03,-131.56"/>
<polygon fill="midnightblue" stroke="midnightblue" points="1197.32,-128.07 1187.01,-130.49 1196.58,-135.03 1197.32,-128.07"/>
</g>
<!-- Node25&#45;&gt;Node11 -->
<g id="edge62" class="edge">
<title>Node25&#45;&gt;Node11</title>
<path fill="none" stroke="midnightblue" d="M1623.39,-168.21C1626.36,-154.46 1629.72,-127.79 1616.14,-112 1596.05,-88.65 1510.26,-76.06 1459.41,-70.52"/>
<polygon fill="midnightblue" stroke="midnightblue" points="1459.74,-67.04 1449.43,-69.48 1459.01,-74 1459.74,-67.04"/>
</g>
<!-- Node26 -->
<g id="node26" class="node">
<title>Node26</title>
<g id="a_node26"><a xlink:title=" ">
<polygon fill="white" stroke="#bfbfbf" points="1668.64,-112.5 1668.64,-131.5 1739.64,-131.5 1739.64,-112.5 1668.64,-112.5"/>
<text text-anchor="middle" x="1704.14" y="-119.5" font-family="Helvetica,sans-Serif" font-size="10.00">QMetaType</text>
</a>
</g>
</g>
<!-- Node25&#45;&gt;Node26 -->
<g id="edge63" class="edge">
<title>Node25&#45;&gt;Node26</title>
<path fill="none" stroke="midnightblue" d="M1634.47,-168.32C1647.3,-159.98 1666.92,-147.21 1682.08,-137.35"/>
<polygon fill="midnightblue" stroke="midnightblue" points="1684.36,-140.04 1690.83,-131.65 1680.54,-134.17 1684.36,-140.04"/>
</g>
<!-- Node27 -->
<g id="node27" class="node">
<title>Node27</title>
<g id="a_node27"><a xlink:title=" ">
<polygon fill="white" stroke="#bfbfbf" points="1757.64,-112.5 1757.64,-131.5 1812.64,-131.5 1812.64,-112.5 1757.64,-112.5"/>
<text text-anchor="middle" x="1785.14" y="-119.5" font-family="Helvetica,sans-Serif" font-size="10.00">QPointF</text>
</a>
</g>
</g>
<!-- Node25&#45;&gt;Node27 -->
<g id="edge64" class="edge">
<title>Node25&#45;&gt;Node27</title>
<path fill="none" stroke="midnightblue" d="M1647.12,-168.44C1674.83,-159.32 1718.89,-144.81 1749.75,-134.65"/>
<polygon fill="midnightblue" stroke="midnightblue" points="1750.87,-137.97 1759.27,-131.52 1748.68,-131.32 1750.87,-137.97"/>
</g>
</g>
</svg>
