<?xml version="1.0" encoding="UTF-8" standalone="no"?>
<!DOCTYPE svg PUBLIC "-//W3C//DTD SVG 1.1//EN"
 "http://www.w3.org/Graphics/SVG/1.1/DTD/svg11.dtd">
<!-- Generated by graphviz version 2.43.0 (0)
 -->
<!-- Title: src/chromahuediagram_p.h Pages: 1 -->
<svg width="1236pt" height="308pt"
 viewBox="0.00 0.00 1236.36 308.00" xmlns="http://www.w3.org/2000/svg" xmlns:xlink="http://www.w3.org/1999/xlink">
<g id="graph0" class="graph" transform="scale(1 1) rotate(0) translate(4 304)">
<title>src/chromahuediagram_p.h</title>
<polygon fill="white" stroke="transparent" points="-4,4 -4,-304 1232.36,-304 1232.36,4 -4,4"/>
<!-- Node1 -->
<g id="node1" class="node">
<title>Node1</title>
<g id="a_node1"><a xlink:title=" ">
<polygon fill="#bfbfbf" stroke="black" points="510.49,-280.5 510.49,-299.5 659.49,-299.5 659.49,-280.5 510.49,-280.5"/>
<text text-anchor="middle" x="584.99" y="-287.5" font-family="Helvetica,sans-Serif" font-size="10.00">src/chromahuediagram_p.h</text>
</a>
</g>
</g>
<!-- Node2 -->
<g id="node2" class="node">
<title>Node2</title>
<g id="a_node2"><a xlink:href="perceptualcolorglobal_8h.html" target="_top" xlink:title=" ">
<polygon fill="white" stroke="black" points="412.99,-56.5 412.99,-75.5 624.99,-75.5 624.99,-56.5 412.99,-56.5"/>
<text text-anchor="middle" x="518.99" y="-63.5" font-family="Helvetica,sans-Serif" font-size="10.00">PerceptualColor/perceptualcolorglobal.h</text>
</a>
</g>
</g>
<!-- Node1&#45;&gt;Node2 -->
<g id="edge1" class="edge">
<title>Node1&#45;&gt;Node2</title>
<path fill="none" stroke="midnightblue" d="M510.29,-286.76C425.01,-282.9 281.81,-272.4 161.99,-244 93.15,-227.68 58.24,-242.38 12.99,-188 -3.18,-168.57 5.22,-157.18 2.99,-132 2.2,-123.15 -3.02,-118.55 2.99,-112 16.34,-97.43 254.78,-81.65 402.81,-73.19"/>
<polygon fill="midnightblue" stroke="midnightblue" points="403.08,-76.68 412.87,-72.62 402.68,-69.69 403.08,-76.68"/>
</g>
<!-- Node4 -->
<g id="node4" class="node">
<title>Node4</title>
<g id="a_node4"><a xlink:href="perceptualcolorinternal_8h.html" target="_top" xlink:title=" ">
<polygon fill="white" stroke="black" points="666.49,-112.5 666.49,-131.5 805.49,-131.5 805.49,-112.5 666.49,-112.5"/>
<text text-anchor="middle" x="735.99" y="-119.5" font-family="Helvetica,sans-Serif" font-size="10.00">perceptualcolorinternal.h</text>
</a>
</g>
</g>
<!-- Node1&#45;&gt;Node4 -->
<g id="edge3" class="edge">
<title>Node1&#45;&gt;Node4</title>
<path fill="none" stroke="midnightblue" d="M593.11,-280.08C617.39,-253.38 689.72,-173.87 721.14,-139.32"/>
<polygon fill="midnightblue" stroke="midnightblue" points="724.05,-141.32 728.19,-131.57 718.88,-136.61 724.05,-141.32"/>
</g>
<!-- Node5 -->
<g id="node5" class="node">
<title>Node5</title>
<g id="a_node5"><a xlink:href="chromahuediagram_8h.html" target="_top" xlink:title=" ">
<polygon fill="white" stroke="black" points="171.49,-224.5 171.49,-243.5 372.49,-243.5 372.49,-224.5 171.49,-224.5"/>
<text text-anchor="middle" x="271.99" y="-231.5" font-family="Helvetica,sans-Serif" font-size="10.00">PerceptualColor/chromahuediagram.h</text>
</a>
</g>
</g>
<!-- Node1&#45;&gt;Node5 -->
<g id="edge5" class="edge">
<title>Node1&#45;&gt;Node5</title>
<path fill="none" stroke="midnightblue" d="M535.39,-280.44C479.99,-270.89 390.34,-255.42 331.28,-245.23"/>
<polygon fill="midnightblue" stroke="midnightblue" points="331.8,-241.77 321.35,-243.52 330.61,-248.67 331.8,-241.77"/>
</g>
<!-- Node12 -->
<g id="node12" class="node">
<title>Node12</title>
<g id="a_node12"><a xlink:href="chromahueimage_8h.html" target="_top" xlink:title=" ">
<polygon fill="white" stroke="black" points="737.49,-224.5 737.49,-243.5 848.49,-243.5 848.49,-224.5 737.49,-224.5"/>
<text text-anchor="middle" x="792.99" y="-231.5" font-family="Helvetica,sans-Serif" font-size="10.00">chromahueimage.h</text>
</a>
</g>
</g>
<!-- Node1&#45;&gt;Node12 -->
<g id="edge17" class="edge">
<title>Node1&#45;&gt;Node12</title>
<path fill="none" stroke="midnightblue" d="M617.95,-280.44C653.77,-271.14 711.15,-256.25 750.38,-246.06"/>
<polygon fill="midnightblue" stroke="midnightblue" points="751.38,-249.42 760.18,-243.52 749.62,-242.64 751.38,-249.42"/>
</g>
<!-- Node19 -->
<g id="node19" class="node">
<title>Node19</title>
<g id="a_node19"><a xlink:href="colorwheelimage_8h.html" target="_top" xlink:title=" ">
<polygon fill="white" stroke="black" points="922.99,-224.5 922.99,-243.5 1032.99,-243.5 1032.99,-224.5 922.99,-224.5"/>
<text text-anchor="middle" x="977.99" y="-231.5" font-family="Helvetica,sans-Serif" font-size="10.00">colorwheelimage.h</text>
</a>
</g>
</g>
<!-- Node1&#45;&gt;Node19 -->
<g id="edge32" class="edge">
<title>Node1&#45;&gt;Node19</title>
<path fill="none" stroke="midnightblue" d="M647.26,-280.44C719.82,-270.47 839.14,-254.08 912.89,-243.94"/>
<polygon fill="midnightblue" stroke="midnightblue" points="913.55,-247.39 922.98,-242.56 912.6,-240.45 913.55,-247.39"/>
</g>
<!-- Node20 -->
<g id="node20" class="node">
<title>Node20</title>
<g id="a_node20"><a xlink:href="constpropagatingrawpointer_8h.html" target="_top" xlink:title=" ">
<polygon fill="white" stroke="black" points="368.99,-168.5 368.99,-187.5 530.99,-187.5 530.99,-168.5 368.99,-168.5"/>
<text text-anchor="middle" x="449.99" y="-175.5" font-family="Helvetica,sans-Serif" font-size="10.00">constpropagatingrawpointer.h</text>
</a>
</g>
</g>
<!-- Node1&#45;&gt;Node20 -->
<g id="edge39" class="edge">
<title>Node1&#45;&gt;Node20</title>
<path fill="none" stroke="midnightblue" d="M574.39,-280.37C551.52,-261.73 497.28,-217.53 468.56,-194.13"/>
<polygon fill="midnightblue" stroke="midnightblue" points="470.49,-191.19 460.53,-187.59 466.07,-196.62 470.49,-191.19"/>
</g>
<!-- Node21 -->
<g id="node21" class="node">
<title>Node21</title>
<g id="a_node21"><a xlink:href="lchvalues_8h.html" target="_top" xlink:title=" ">
<polygon fill="white" stroke="black" points="548.99,-168.5 548.99,-187.5 620.99,-187.5 620.99,-168.5 548.99,-168.5"/>
<text text-anchor="middle" x="584.99" y="-175.5" font-family="Helvetica,sans-Serif" font-size="10.00">lchvalues.h</text>
</a>
</g>
</g>
<!-- Node1&#45;&gt;Node21 -->
<g id="edge42" class="edge">
<title>Node1&#45;&gt;Node21</title>
<path fill="none" stroke="midnightblue" d="M584.99,-280.37C584.99,-262.62 584.99,-221.67 584.99,-197.6"/>
<polygon fill="midnightblue" stroke="midnightblue" points="588.49,-197.59 584.99,-187.59 581.49,-197.59 588.49,-197.59"/>
</g>
<!-- Node3 -->
<g id="node3" class="node">
<title>Node3</title>
<g id="a_node3"><a xlink:title=" ">
<polygon fill="white" stroke="#bfbfbf" points="489.49,-0.5 489.49,-19.5 548.49,-19.5 548.49,-0.5 489.49,-0.5"/>
<text text-anchor="middle" x="518.99" y="-7.5" font-family="Helvetica,sans-Serif" font-size="10.00">QtGlobal</text>
</a>
</g>
</g>
<!-- Node2&#45;&gt;Node3 -->
<g id="edge2" class="edge">
<title>Node2&#45;&gt;Node3</title>
<path fill="none" stroke="midnightblue" d="M518.99,-56.08C518.99,-49.01 518.99,-38.86 518.99,-29.99"/>
<polygon fill="midnightblue" stroke="midnightblue" points="522.49,-29.75 518.99,-19.75 515.49,-29.75 522.49,-29.75"/>
</g>
<!-- Node4&#45;&gt;Node2 -->
<g id="edge4" class="edge">
<title>Node4&#45;&gt;Node2</title>
<path fill="none" stroke="midnightblue" d="M701.6,-112.44C664.07,-103.1 603.86,-88.12 562.92,-77.93"/>
<polygon fill="midnightblue" stroke="midnightblue" points="563.76,-74.53 553.21,-75.52 562.07,-81.33 563.76,-74.53"/>
</g>
<!-- Node5&#45;&gt;Node2 -->
<g id="edge6" class="edge">
<title>Node5&#45;&gt;Node2</title>
<path fill="none" stroke="midnightblue" d="M171.4,-224.53C115.94,-217.87 54.29,-206.53 33.99,-188 8.49,-164.73 -5.3,-137.48 17.99,-112 30.84,-97.95 258.79,-82.15 402.74,-73.51"/>
<polygon fill="midnightblue" stroke="midnightblue" points="403.18,-76.99 412.96,-72.9 402.77,-70.01 403.18,-76.99"/>
</g>
<!-- Node6 -->
<g id="node6" class="node">
<title>Node6</title>
<g id="a_node6"><a xlink:href="constpropagatinguniquepointer_8h.html" target="_top" xlink:title=" ">
<polygon fill="white" stroke="black" points="143.49,-112.5 143.49,-131.5 400.49,-131.5 400.49,-112.5 143.49,-112.5"/>
<text text-anchor="middle" x="271.99" y="-119.5" font-family="Helvetica,sans-Serif" font-size="10.00">PerceptualColor/constpropagatinguniquepointer.h</text>
</a>
</g>
</g>
<!-- Node5&#45;&gt;Node6 -->
<g id="edge7" class="edge">
<title>Node5&#45;&gt;Node6</title>
<path fill="none" stroke="midnightblue" d="M271.99,-224.37C271.99,-206.62 271.99,-165.67 271.99,-141.6"/>
<polygon fill="midnightblue" stroke="midnightblue" points="275.49,-141.59 271.99,-131.59 268.49,-141.59 275.49,-141.59"/>
</g>
<!-- Node8 -->
<g id="node8" class="node">
<title>Node8</title>
<g id="a_node8"><a xlink:href="abstractdiagram_8h.html" target="_top" xlink:title=" ">
<polygon fill="white" stroke="black" points="42.99,-168.5 42.99,-187.5 228.99,-187.5 228.99,-168.5 42.99,-168.5"/>
<text text-anchor="middle" x="135.99" y="-175.5" font-family="Helvetica,sans-Serif" font-size="10.00">PerceptualColor/abstractdiagram.h</text>
</a>
</g>
</g>
<!-- Node5&#45;&gt;Node8 -->
<g id="edge10" class="edge">
<title>Node5&#45;&gt;Node8</title>
<path fill="none" stroke="midnightblue" d="M250.44,-224.44C227.96,-215.52 192.5,-201.44 167.01,-191.32"/>
<polygon fill="midnightblue" stroke="midnightblue" points="168.02,-187.95 157.44,-187.52 165.44,-194.46 168.02,-187.95"/>
</g>
<!-- Node10 -->
<g id="node10" class="node">
<title>Node10</title>
<g id="a_node10"><a xlink:href="lchdouble_8h.html" target="_top" xlink:title=" ">
<polygon fill="white" stroke="black" points="495.49,-112.5 495.49,-131.5 648.49,-131.5 648.49,-112.5 495.49,-112.5"/>
<text text-anchor="middle" x="571.99" y="-119.5" font-family="Helvetica,sans-Serif" font-size="10.00">PerceptualColor/lchdouble.h</text>
</a>
</g>
</g>
<!-- Node5&#45;&gt;Node10 -->
<g id="edge14" class="edge">
<title>Node5&#45;&gt;Node10</title>
<path fill="none" stroke="midnightblue" d="M280.9,-224.33C295.91,-210.24 327.77,-182.49 359.99,-168 399.37,-150.29 446.05,-139.41 485.57,-132.8"/>
<polygon fill="midnightblue" stroke="midnightblue" points="486.14,-136.26 495.46,-131.21 485.03,-129.34 486.14,-136.26"/>
</g>
<!-- Node6&#45;&gt;Node2 -->
<g id="edge8" class="edge">
<title>Node6&#45;&gt;Node2</title>
<path fill="none" stroke="midnightblue" d="M311.12,-112.44C354.21,-103.02 423.55,-87.87 470.16,-77.68"/>
<polygon fill="midnightblue" stroke="midnightblue" points="471.01,-81.07 480.03,-75.52 469.52,-74.23 471.01,-81.07"/>
</g>
<!-- Node7 -->
<g id="node7" class="node">
<title>Node7</title>
<g id="a_node7"><a xlink:title=" ">
<polygon fill="white" stroke="#bfbfbf" points="242.99,-56.5 242.99,-75.5 300.99,-75.5 300.99,-56.5 242.99,-56.5"/>
<text text-anchor="middle" x="271.99" y="-63.5" font-family="Helvetica,sans-Serif" font-size="10.00">memory</text>
</a>
</g>
</g>
<!-- Node6&#45;&gt;Node7 -->
<g id="edge9" class="edge">
<title>Node6&#45;&gt;Node7</title>
<path fill="none" stroke="midnightblue" d="M271.99,-112.08C271.99,-105.01 271.99,-94.86 271.99,-85.99"/>
<polygon fill="midnightblue" stroke="midnightblue" points="275.49,-85.75 271.99,-75.75 268.49,-85.75 275.49,-85.75"/>
</g>
<!-- Node8&#45;&gt;Node2 -->
<g id="edge11" class="edge">
<title>Node8&#45;&gt;Node2</title>
<path fill="none" stroke="midnightblue" d="M132.32,-168.15C127.25,-154.31 120.18,-127.52 133.99,-112 151.76,-92.03 295.75,-79.52 402.46,-72.89"/>
<polygon fill="midnightblue" stroke="midnightblue" points="402.9,-76.37 412.66,-72.27 402.47,-69.39 402.9,-76.37"/>
</g>
<!-- Node8&#45;&gt;Node6 -->
<g id="edge13" class="edge">
<title>Node8&#45;&gt;Node6</title>
<path fill="none" stroke="midnightblue" d="M157.54,-168.44C180.02,-159.52 215.47,-145.44 240.97,-135.32"/>
<polygon fill="midnightblue" stroke="midnightblue" points="242.54,-138.46 250.54,-131.52 239.95,-131.95 242.54,-138.46"/>
</g>
<!-- Node9 -->
<g id="node9" class="node">
<title>Node9</title>
<g id="a_node9"><a xlink:title=" ">
<polygon fill="white" stroke="#bfbfbf" points="27.49,-112.5 27.49,-131.5 86.49,-131.5 86.49,-112.5 27.49,-112.5"/>
<text text-anchor="middle" x="56.99" y="-119.5" font-family="Helvetica,sans-Serif" font-size="10.00">QWidget</text>
</a>
</g>
</g>
<!-- Node8&#45;&gt;Node9 -->
<g id="edge12" class="edge">
<title>Node8&#45;&gt;Node9</title>
<path fill="none" stroke="midnightblue" d="M123.29,-168.32C111.09,-159.98 92.41,-147.21 77.98,-137.35"/>
<polygon fill="midnightblue" stroke="midnightblue" points="79.88,-134.41 69.65,-131.65 75.93,-140.19 79.88,-134.41"/>
</g>
<!-- Node10&#45;&gt;Node2 -->
<g id="edge15" class="edge">
<title>Node10&#45;&gt;Node2</title>
<path fill="none" stroke="midnightblue" d="M563.24,-112.08C555.52,-104.22 544.08,-92.57 534.77,-83.08"/>
<polygon fill="midnightblue" stroke="midnightblue" points="537.08,-80.44 527.58,-75.75 532.08,-85.34 537.08,-80.44"/>
</g>
<!-- Node11 -->
<g id="node11" class="node">
<title>Node11</title>
<g id="a_node11"><a xlink:title=" ">
<polygon fill="white" stroke="#bfbfbf" points="859.99,-56.5 859.99,-75.5 915.99,-75.5 915.99,-56.5 859.99,-56.5"/>
<text text-anchor="middle" x="887.99" y="-63.5" font-family="Helvetica,sans-Serif" font-size="10.00">QDebug</text>
</a>
</g>
</g>
<!-- Node10&#45;&gt;Node11 -->
<g id="edge16" class="edge">
<title>Node10&#45;&gt;Node11</title>
<path fill="none" stroke="midnightblue" d="M622.06,-112.44C685.3,-101.64 792.72,-83.28 849.76,-73.53"/>
<polygon fill="midnightblue" stroke="midnightblue" points="850.54,-76.95 859.8,-71.82 849.36,-70.05 850.54,-76.95"/>
</g>
<!-- Node12&#45;&gt;Node2 -->
<g id="edge18" class="edge">
<title>Node12&#45;&gt;Node2</title>
<path fill="none" stroke="midnightblue" d="M786.9,-224.31C778.79,-211.57 766.41,-187.25 774.99,-168 784.72,-146.15 805.26,-153.85 814.99,-132 818.6,-123.88 820.78,-118.74 814.99,-112 791.69,-84.89 707.99,-73.92 635.52,-69.58"/>
<polygon fill="midnightblue" stroke="midnightblue" points="635.55,-66.07 625.37,-69.01 635.16,-73.06 635.55,-66.07"/>
</g>
<!-- Node12&#45;&gt;Node4 -->
<g id="edge19" class="edge">
<title>Node12&#45;&gt;Node4</title>
<path fill="none" stroke="midnightblue" d="M778.12,-224.37C766.14,-216.53 750.01,-203.79 741.99,-188 734.69,-173.63 733.65,-155.17 734.16,-141.6"/>
<polygon fill="midnightblue" stroke="midnightblue" points="737.66,-141.76 734.86,-131.54 730.68,-141.28 737.66,-141.76"/>
</g>
<!-- Node13 -->
<g id="node13" class="node">
<title>Node13</title>
<g id="a_node13"><a xlink:title=" ">
<polygon fill="white" stroke="#bfbfbf" points="894.49,-168.5 894.49,-187.5 949.49,-187.5 949.49,-168.5 894.49,-168.5"/>
<text text-anchor="middle" x="921.99" y="-175.5" font-family="Helvetica,sans-Serif" font-size="10.00">QImage</text>
</a>
</g>
</g>
<!-- Node12&#45;&gt;Node13 -->
<g id="edge20" class="edge">
<title>Node12&#45;&gt;Node13</title>
<path fill="none" stroke="midnightblue" d="M813.43,-224.44C834.66,-215.56 868.09,-201.56 892.24,-191.45"/>
<polygon fill="midnightblue" stroke="midnightblue" points="893.77,-194.61 901.64,-187.52 891.07,-188.15 893.77,-194.61"/>
</g>
<!-- Node14 -->
<g id="node14" class="node">
<title>Node14</title>
<g id="a_node14"><a xlink:title=" ">
<polygon fill="white" stroke="#bfbfbf" points="783.99,-168.5 783.99,-187.5 875.99,-187.5 875.99,-168.5 783.99,-168.5"/>
<text text-anchor="middle" x="829.99" y="-175.5" font-family="Helvetica,sans-Serif" font-size="10.00">QSharedPointer</text>
</a>
</g>
</g>
<!-- Node12&#45;&gt;Node14 -->
<g id="edge21" class="edge">
<title>Node12&#45;&gt;Node14</title>
<path fill="none" stroke="midnightblue" d="M799.1,-224.08C804.27,-216.53 811.83,-205.49 818.18,-196.23"/>
<polygon fill="midnightblue" stroke="midnightblue" points="821.23,-197.98 823.99,-187.75 815.45,-194.02 821.23,-197.98"/>
</g>
<!-- Node15 -->
<g id="node15" class="node">
<title>Node15</title>
<g id="a_node15"><a xlink:href="rgbcolorspace_8h.html" target="_top" xlink:title=" ">
<polygon fill="white" stroke="black" points="1005.99,-168.5 1005.99,-187.5 1099.99,-187.5 1099.99,-168.5 1005.99,-168.5"/>
<text text-anchor="middle" x="1052.99" y="-175.5" font-family="Helvetica,sans-Serif" font-size="10.00">rgbcolorspace.h</text>
</a>
</g>
</g>
<!-- Node12&#45;&gt;Node15 -->
<g id="edge22" class="edge">
<title>Node12&#45;&gt;Node15</title>
<path fill="none" stroke="midnightblue" d="M834.18,-224.44C879.64,-215 952.83,-199.8 1001.9,-189.61"/>
<polygon fill="midnightblue" stroke="midnightblue" points="1002.9,-192.98 1011.98,-187.52 1001.48,-186.12 1002.9,-192.98"/>
</g>
<!-- Node15&#45;&gt;Node2 -->
<g id="edge23" class="edge">
<title>Node15&#45;&gt;Node2</title>
<path fill="none" stroke="midnightblue" d="M1016.35,-168.47C983.39,-160.4 933.84,-147.26 891.99,-132 871.81,-124.64 868.62,-117.96 847.99,-112 778.86,-92.02 698.92,-80.83 635.16,-74.6"/>
<polygon fill="midnightblue" stroke="midnightblue" points="635.35,-71.11 625.07,-73.65 634.69,-78.07 635.35,-71.11"/>
</g>
<!-- Node15&#45;&gt;Node4 -->
<g id="edge24" class="edge">
<title>Node15&#45;&gt;Node4</title>
<path fill="none" stroke="midnightblue" d="M1005.87,-168.97C950,-159.46 856.78,-143.58 795.84,-133.2"/>
<polygon fill="midnightblue" stroke="midnightblue" points="796.43,-129.75 785.98,-131.52 795.25,-136.65 796.43,-129.75"/>
</g>
<!-- Node15&#45;&gt;Node6 -->
<g id="edge26" class="edge">
<title>Node15&#45;&gt;Node6</title>
<path fill="none" stroke="midnightblue" d="M1005.67,-172.19C990.75,-170.75 974.18,-169.22 958.99,-168 769.24,-152.71 549.69,-139.02 410.86,-130.87"/>
<polygon fill="midnightblue" stroke="midnightblue" points="410.78,-127.36 400.59,-130.27 410.37,-134.35 410.78,-127.36"/>
</g>
<!-- Node15&#45;&gt;Node10 -->
<g id="edge30" class="edge">
<title>Node15&#45;&gt;Node10</title>
<path fill="none" stroke="midnightblue" d="M1005.55,-171.67C924.89,-162.62 759.91,-144.1 658.34,-132.69"/>
<polygon fill="midnightblue" stroke="midnightblue" points="658.43,-129.18 648.1,-131.55 657.65,-136.14 658.43,-129.18"/>
</g>
<!-- Node16 -->
<g id="node16" class="node">
<title>Node16</title>
<g id="a_node16"><a xlink:title=" ">
<polygon fill="white" stroke="#bfbfbf" points="1149.99,-112.5 1149.99,-131.5 1205.99,-131.5 1205.99,-112.5 1149.99,-112.5"/>
<text text-anchor="middle" x="1177.99" y="-119.5" font-family="Helvetica,sans-Serif" font-size="10.00">QObject</text>
</a>
</g>
</g>
<!-- Node15&#45;&gt;Node16 -->
<g id="edge25" class="edge">
<title>Node15&#45;&gt;Node16</title>
<path fill="none" stroke="midnightblue" d="M1072.79,-168.44C1093.27,-159.6 1125.47,-145.69 1148.85,-135.59"/>
<polygon fill="midnightblue" stroke="midnightblue" points="1150.48,-138.7 1158.27,-131.52 1147.7,-132.27 1150.48,-138.7"/>
</g>
<!-- Node17 -->
<g id="node17" class="node">
<title>Node17</title>
<g id="a_node17"><a xlink:href="lchadouble_8h.html" target="_top" xlink:title=" ">
<polygon fill="white" stroke="black" points="973.49,-112.5 973.49,-131.5 1132.49,-131.5 1132.49,-112.5 973.49,-112.5"/>
<text text-anchor="middle" x="1052.99" y="-119.5" font-family="Helvetica,sans-Serif" font-size="10.00">PerceptualColor/lchadouble.h</text>
</a>
</g>
</g>
<!-- Node15&#45;&gt;Node17 -->
<g id="edge27" class="edge">
<title>Node15&#45;&gt;Node17</title>
<path fill="none" stroke="midnightblue" d="M1052.99,-168.08C1052.99,-161.01 1052.99,-150.86 1052.99,-141.99"/>
<polygon fill="midnightblue" stroke="midnightblue" points="1056.49,-141.75 1052.99,-131.75 1049.49,-141.75 1056.49,-141.75"/>
</g>
<!-- Node18 -->
<g id="node18" class="node">
<title>Node18</title>
<g id="a_node18"><a xlink:title=" ">
<polygon fill="white" stroke="#bfbfbf" points="900.49,-112.5 900.49,-131.5 955.49,-131.5 955.49,-112.5 900.49,-112.5"/>
<text text-anchor="middle" x="927.99" y="-119.5" font-family="Helvetica,sans-Serif" font-size="10.00">lcms2.h</text>
</a>
</g>
</g>
<!-- Node15&#45;&gt;Node18 -->
<g id="edge31" class="edge">
<title>Node15&#45;&gt;Node18</title>
<path fill="none" stroke="midnightblue" d="M1033.18,-168.44C1012.7,-159.6 980.5,-145.69 957.12,-135.59"/>
<polygon fill="midnightblue" stroke="midnightblue" points="958.27,-132.27 947.7,-131.52 955.49,-138.7 958.27,-132.27"/>
</g>
<!-- Node17&#45;&gt;Node2 -->
<g id="edge28" class="edge">
<title>Node17&#45;&gt;Node2</title>
<path fill="none" stroke="midnightblue" d="M973.36,-112.85C970.54,-112.56 967.74,-112.28 964.99,-112 843.84,-99.69 704.17,-85.62 613.88,-76.54"/>
<polygon fill="midnightblue" stroke="midnightblue" points="613.96,-73.03 603.66,-75.51 613.26,-79.99 613.96,-73.03"/>
</g>
<!-- Node17&#45;&gt;Node11 -->
<g id="edge29" class="edge">
<title>Node17&#45;&gt;Node11</title>
<path fill="none" stroke="midnightblue" d="M1026.84,-112.44C998.96,-103.32 954.64,-88.81 923.59,-78.65"/>
<polygon fill="midnightblue" stroke="midnightblue" points="924.6,-75.3 914.01,-75.52 922.42,-81.95 924.6,-75.3"/>
</g>
<!-- Node19&#45;&gt;Node2 -->
<g id="edge33" class="edge">
<title>Node19&#45;&gt;Node2</title>
<path fill="none" stroke="midnightblue" d="M1033.23,-225.1C1120.38,-210.54 1274.07,-175.03 1214.99,-112 1195.5,-91.21 828.29,-76.66 635.31,-70.42"/>
<polygon fill="midnightblue" stroke="midnightblue" points="635.23,-66.91 625.12,-70.09 635.01,-73.91 635.23,-66.91"/>
</g>
<!-- Node19&#45;&gt;Node4 -->
<g id="edge34" class="edge">
<title>Node19&#45;&gt;Node4</title>
<path fill="none" stroke="midnightblue" d="M978.12,-224.4C977.83,-210.4 975.09,-182.79 958.99,-168 938.17,-148.89 870.95,-137.08 815.71,-130.39"/>
<polygon fill="midnightblue" stroke="midnightblue" points="815.89,-126.88 805.55,-129.19 815.07,-133.84 815.89,-126.88"/>
</g>
<!-- Node19&#45;&gt;Node13 -->
<g id="edge35" class="edge">
<title>Node19&#45;&gt;Node13</title>
<path fill="none" stroke="midnightblue" d="M968.99,-224.32C960.79,-216.42 948.48,-204.55 938.51,-194.94"/>
<polygon fill="midnightblue" stroke="midnightblue" points="940.78,-192.26 931.15,-187.83 935.92,-197.29 940.78,-192.26"/>
</g>
<!-- Node19&#45;&gt;Node14 -->
<g id="edge37" class="edge">
<title>Node19&#45;&gt;Node14</title>
<path fill="none" stroke="midnightblue" d="M954.54,-224.44C929.85,-215.44 890.8,-201.19 863.01,-191.05"/>
<polygon fill="midnightblue" stroke="midnightblue" points="863.92,-187.66 853.33,-187.52 861.52,-194.23 863.92,-187.66"/>
</g>
<!-- Node19&#45;&gt;Node15 -->
<g id="edge38" class="edge">
<title>Node19&#45;&gt;Node15</title>
<path fill="none" stroke="midnightblue" d="M990.04,-224.32C1001.45,-216.11 1018.82,-203.6 1032.42,-193.81"/>
<polygon fill="midnightblue" stroke="midnightblue" points="1034.65,-196.52 1040.72,-187.83 1030.56,-190.84 1034.65,-196.52"/>
</g>
<!-- Node19&#45;&gt;Node16 -->
<g id="edge36" class="edge">
<title>Node19&#45;&gt;Node16</title>
<path fill="none" stroke="midnightblue" d="M1016.26,-224.45C1043.43,-217.31 1080.06,-205.46 1108.99,-188 1130.66,-174.92 1151.2,-154.09 1164.14,-139.55"/>
<polygon fill="midnightblue" stroke="midnightblue" points="1166.93,-141.67 1170.83,-131.82 1161.64,-137.09 1166.93,-141.67"/>
</g>
<!-- Node20&#45;&gt;Node2 -->
<g id="edge40" class="edge">
<title>Node20&#45;&gt;Node2</title>
<path fill="none" stroke="midnightblue" d="M452.95,-168.16C457.49,-155.23 466.93,-130.69 478.99,-112 485.7,-101.59 494.77,-91.18 502.58,-82.99"/>
<polygon fill="midnightblue" stroke="midnightblue" points="505.3,-85.21 509.83,-75.63 500.32,-80.3 505.3,-85.21"/>
</g>
<!-- Node20&#45;&gt;Node4 -->
<g id="edge41" class="edge">
<title>Node20&#45;&gt;Node4</title>
<path fill="none" stroke="midnightblue" d="M495.3,-168.44C545.61,-158.94 626.83,-143.61 680.8,-133.42"/>
<polygon fill="midnightblue" stroke="midnightblue" points="681.7,-136.81 690.88,-131.52 680.41,-129.93 681.7,-136.81"/>
</g>
<!-- Node21&#45;&gt;Node2 -->
<g id="edge43" class="edge">
<title>Node21&#45;&gt;Node2</title>
<path fill="none" stroke="midnightblue" d="M558.09,-168.45C531.71,-159.46 494.27,-144.86 485.99,-132 475.68,-115.99 488.89,-96.34 501.53,-82.87"/>
<polygon fill="midnightblue" stroke="midnightblue" points="504.1,-85.25 508.73,-75.72 499.17,-80.28 504.1,-85.25"/>
</g>
<!-- Node21&#45;&gt;Node4 -->
<g id="edge44" class="edge">
<title>Node21&#45;&gt;Node4</title>
<path fill="none" stroke="midnightblue" d="M608.91,-168.44C634.21,-159.4 674.29,-145.06 702.67,-134.92"/>
<polygon fill="midnightblue" stroke="midnightblue" points="703.94,-138.18 712.17,-131.52 701.58,-131.59 703.94,-138.18"/>
</g>
<!-- Node21&#45;&gt;Node10 -->
<g id="edge45" class="edge">
<title>Node21&#45;&gt;Node10</title>
<path fill="none" stroke="midnightblue" d="M582.84,-168.08C581.12,-160.93 578.64,-150.64 576.49,-141.69"/>
<polygon fill="midnightblue" stroke="midnightblue" points="579.84,-140.65 574.09,-131.75 573.03,-142.29 579.84,-140.65"/>
</g>
</g>
</svg>
