<?xml version="1.0" encoding="UTF-8" standalone="no"?>
<!DOCTYPE svg PUBLIC "-//W3C//DTD SVG 1.1//EN"
 "http://www.w3.org/Graphics/SVG/1.1/DTD/svg11.dtd">
<!-- Generated by graphviz version 2.43.0 (0)
 -->
<!-- Title: PerceptualColor::ChromaLightnessDiagram::ChromaLightnessDiagramPrivate Pages: 1 -->
<svg width="1512pt" height="157pt"
 viewBox="0.00 0.00 1512.00 156.50" xmlns="http://www.w3.org/2000/svg" xmlns:xlink="http://www.w3.org/1999/xlink">
<g id="graph0" class="graph" transform="scale(1 1) rotate(0) translate(4 152.5)">
<title>PerceptualColor::ChromaLightnessDiagram::ChromaLightnessDiagramPrivate</title>
<polygon fill="white" stroke="transparent" points="-4,4 -4,-152.5 1508,-152.5 1508,4 -4,4"/>
<!-- Node1 -->
<g id="node1" class="node">
<title>Node1</title>
<g id="a_node1"><a xlink:title="Private implementation within the Pointer to implementation idiom.">
<polygon fill="#bfbfbf" stroke="black" points="1278,-79.5 1278,-109.5 1504,-109.5 1504,-79.5 1278,-79.5"/>
<text text-anchor="start" x="1286" y="-97.5" font-family="Helvetica,sans-Serif" font-size="10.00">PerceptualColor::ChromaLightness</text>
<text text-anchor="middle" x="1391" y="-86.5" font-family="Helvetica,sans-Serif" font-size="10.00">Diagram::ChromaLightnessDiagramPrivate</text>
</a>
</g>
</g>
<!-- Node2 -->
<g id="node2" class="node">
<title>Node2</title>
<g id="a_node2"><a xlink:href="struct_perceptual_color_1_1_lch_double.html" target="_top" xlink:title="A LCH color.">
<polygon fill="white" stroke="black" points="940.5,-129 940.5,-148 1091.5,-148 1091.5,-129 940.5,-129"/>
<text text-anchor="middle" x="1016" y="-136" font-family="Helvetica,sans-Serif" font-size="10.00">PerceptualColor::LchDouble</text>
</a>
</g>
</g>
<!-- Node2&#45;&gt;Node1 -->
<g id="edge1" class="edge">
<title>Node2&#45;&gt;Node1</title>
<path fill="none" stroke="#9a32cd" stroke-dasharray="5,2" d="M1101.79,-128.5C1153.87,-122.35 1221.18,-114.41 1277.66,-107.75"/>
<polygon fill="#9a32cd" stroke="#9a32cd" points="1101.11,-125.05 1091.59,-129.7 1101.93,-132.01 1101.11,-125.05"/>
<text text-anchor="middle" x="1193.5" y="-127.5" font-family="Helvetica,sans-Serif" font-size="10.00"> m_currentColor</text>
</g>
<!-- Node3 -->
<g id="node3" class="node">
<title>Node3</title>
<g id="a_node3"><a xlink:href="class_perceptual_color_1_1_chroma_lightness_image.html" target="_top" xlink:title="An image of a chroma&#45;lightness plane.">
<polygon fill="white" stroke="black" points="923.5,-79.5 923.5,-109.5 1108.5,-109.5 1108.5,-79.5 923.5,-79.5"/>
<text text-anchor="start" x="931.5" y="-97.5" font-family="Helvetica,sans-Serif" font-size="10.00">PerceptualColor::ChromaLightness</text>
<text text-anchor="middle" x="1016" y="-86.5" font-family="Helvetica,sans-Serif" font-size="10.00">Image</text>
</a>
</g>
</g>
<!-- Node3&#45;&gt;Node1 -->
<g id="edge2" class="edge">
<title>Node3&#45;&gt;Node1</title>
<path fill="none" stroke="#9a32cd" stroke-dasharray="5,2" d="M1118.76,-94.5C1168.06,-94.5 1227.39,-94.5 1277.98,-94.5"/>
<polygon fill="#9a32cd" stroke="#9a32cd" points="1118.72,-91 1108.72,-94.5 1118.72,-98 1118.72,-91"/>
<text text-anchor="middle" x="1193.5" y="-97.5" font-family="Helvetica,sans-Serif" font-size="10.00"> m_chromaLightnessImage</text>
</g>
<!-- Node4 -->
<g id="node4" class="node">
<title>Node4</title>
<g id="a_node4"><a xlink:href="class_perceptual_color_1_1_const_propagating_raw_pointer.html" target="_top" xlink:title=" ">
<polygon fill="white" stroke="black" points="923,-19 923,-60 1109,-60 1109,-19 923,-19"/>
<text text-anchor="start" x="931" y="-48" font-family="Helvetica,sans-Serif" font-size="10.00">PerceptualColor::ConstPropagating</text>
<text text-anchor="start" x="931" y="-37" font-family="Helvetica,sans-Serif" font-size="10.00">RawPointer&lt; PerceptualColor</text>
<text text-anchor="middle" x="1016" y="-26" font-family="Helvetica,sans-Serif" font-size="10.00">::ChromaLightnessDiagram &gt;</text>
</a>
</g>
</g>
<!-- Node4&#45;&gt;Node1 -->
<g id="edge3" class="edge">
<title>Node4&#45;&gt;Node1</title>
<path fill="none" stroke="#9a32cd" stroke-dasharray="5,2" d="M1119.21,-54.57C1171.73,-62.32 1235.55,-71.73 1288.04,-79.47"/>
<polygon fill="#9a32cd" stroke="#9a32cd" points="1119.61,-51.09 1109.2,-53.1 1118.58,-58.02 1119.61,-51.09"/>
<text text-anchor="middle" x="1193.5" y="-78.5" font-family="Helvetica,sans-Serif" font-size="10.00"> q_pointer</text>
</g>
<!-- Node5 -->
<g id="node5" class="node">
<title>Node5</title>
<g id="a_node5"><a xlink:href="class_perceptual_color_1_1_chroma_lightness_diagram.html" target="_top" xlink:title="A widget that displays a chroma&#45;lightness diagram.">
<polygon fill="white" stroke="black" points="649,-24.5 649,-54.5 834,-54.5 834,-24.5 649,-24.5"/>
<text text-anchor="start" x="657" y="-42.5" font-family="Helvetica,sans-Serif" font-size="10.00">PerceptualColor::ChromaLightness</text>
<text text-anchor="middle" x="741.5" y="-31.5" font-family="Helvetica,sans-Serif" font-size="10.00">Diagram</text>
</a>
</g>
</g>
<!-- Node5&#45;&gt;Node4 -->
<g id="edge4" class="edge">
<title>Node5&#45;&gt;Node4</title>
<path fill="none" stroke="#9a32cd" stroke-dasharray="5,2" d="M844.48,-39.5C870.11,-39.5 897.47,-39.5 922.6,-39.5"/>
<polygon fill="#9a32cd" stroke="#9a32cd" points="844.38,-36 834.38,-39.5 844.38,-43 844.38,-36"/>
<text text-anchor="middle" x="878.5" y="-42.5" font-family="Helvetica,sans-Serif" font-size="10.00"> m_pointer</text>
</g>
<!-- Node6 -->
<g id="node6" class="node">
<title>Node6</title>
<g id="a_node6"><a xlink:href="class_perceptual_color_1_1_abstract_diagram.html" target="_top" xlink:title="Base class for LCh diagrams.">
<polygon fill="white" stroke="black" points="374,-71.5 374,-101.5 514,-101.5 514,-71.5 374,-71.5"/>
<text text-anchor="start" x="382" y="-89.5" font-family="Helvetica,sans-Serif" font-size="10.00">PerceptualColor::Abstract</text>
<text text-anchor="middle" x="444" y="-78.5" font-family="Helvetica,sans-Serif" font-size="10.00">Diagram</text>
</a>
</g>
</g>
<!-- Node6&#45;&gt;Node5 -->
<g id="edge5" class="edge">
<title>Node6&#45;&gt;Node5</title>
<path fill="none" stroke="midnightblue" d="M524.38,-73.87C562.78,-67.77 609.1,-60.4 648.98,-54.06"/>
<polygon fill="midnightblue" stroke="midnightblue" points="523.61,-70.45 514.28,-75.48 524.71,-77.37 523.61,-70.45"/>
</g>
<!-- Node7 -->
<g id="node7" class="node">
<title>Node7</title>
<g id="a_node7"><a xlink:href="class_perceptual_color_1_1_const_propagating_unique_pointer.html" target="_top" xlink:title=" ">
<polygon fill="white" stroke="black" points="0,-66 0,-107 239,-107 239,-66 0,-66"/>
<text text-anchor="start" x="8" y="-95" font-family="Helvetica,sans-Serif" font-size="10.00">PerceptualColor::ConstPropagating</text>
<text text-anchor="start" x="8" y="-84" font-family="Helvetica,sans-Serif" font-size="10.00">UniquePointer&lt; PerceptualColor</text>
<text text-anchor="middle" x="119.5" y="-73" font-family="Helvetica,sans-Serif" font-size="10.00">::AbstractDiagram::AbstractDiagramPrivate &gt;</text>
</a>
</g>
</g>
<!-- Node7&#45;&gt;Node6 -->
<g id="edge6" class="edge">
<title>Node7&#45;&gt;Node6</title>
<path fill="none" stroke="#9a32cd" stroke-dasharray="5,2" d="M249.36,-86.5C291.85,-86.5 337.45,-86.5 373.73,-86.5"/>
<polygon fill="#9a32cd" stroke="#9a32cd" points="249.21,-83 239.21,-86.5 249.21,-90 249.21,-83"/>
<text text-anchor="middle" x="281.5" y="-89.5" font-family="Helvetica,sans-Serif" font-size="10.00"> d_pointer</text>
</g>
<!-- Node8 -->
<g id="node8" class="node">
<title>Node8</title>
<g id="a_node8"><a xlink:href="class_perceptual_color_1_1_const_propagating_unique_pointer.html" target="_top" xlink:title=" ">
<polygon fill="white" stroke="black" points="324,-0.5 324,-52.5 564,-52.5 564,-0.5 324,-0.5"/>
<text text-anchor="start" x="332" y="-40.5" font-family="Helvetica,sans-Serif" font-size="10.00">PerceptualColor::ConstPropagating</text>
<text text-anchor="start" x="332" y="-29.5" font-family="Helvetica,sans-Serif" font-size="10.00">UniquePointer&lt; PerceptualColor</text>
<text text-anchor="start" x="332" y="-18.5" font-family="Helvetica,sans-Serif" font-size="10.00">::ChromaLightnessDiagram::ChromaLightness</text>
<text text-anchor="middle" x="444" y="-7.5" font-family="Helvetica,sans-Serif" font-size="10.00">DiagramPrivate &gt;</text>
</a>
</g>
</g>
<!-- Node8&#45;&gt;Node5 -->
<g id="edge7" class="edge">
<title>Node8&#45;&gt;Node5</title>
<path fill="none" stroke="#9a32cd" stroke-dasharray="5,2" d="M574.64,-32.2C599.66,-33.3 625.4,-34.44 648.9,-35.47"/>
<polygon fill="#9a32cd" stroke="#9a32cd" points="574.48,-28.69 564.34,-31.75 574.18,-35.69 574.48,-28.69"/>
<text text-anchor="middle" x="606.5" y="-38.5" font-family="Helvetica,sans-Serif" font-size="10.00"> d_pointer</text>
</g>
</g>
</svg>
