<?xml version="1.0" encoding="UTF-8" standalone="no"?>
<!DOCTYPE svg PUBLIC "-//W3C//DTD SVG 1.1//EN"
 "http://www.w3.org/Graphics/SVG/1.1/DTD/svg11.dtd">
<!-- Generated by graphviz version 2.43.0 (0)
 -->
<!-- Title: PerceptualColor::RgbColorSpace::RgbColorSpacePrivate Pages: 1 -->
<svg width="1092pt" height="100pt"
 viewBox="0.00 0.00 1092.00 99.50" xmlns="http://www.w3.org/2000/svg" xmlns:xlink="http://www.w3.org/1999/xlink">
<g id="graph0" class="graph" transform="scale(1 1) rotate(0) translate(4 95.5)">
<title>PerceptualColor::RgbColorSpace::RgbColorSpacePrivate</title>
<polygon fill="white" stroke="transparent" points="-4,4 -4,-95.5 1088,-95.5 1088,4 -4,4"/>
<!-- Node1 -->
<g id="node1" class="node">
<title>Node1</title>
<g id="a_node1"><a xlink:title="Private implementation within the Pointer to implementation idiom.">
<polygon fill="#bfbfbf" stroke="black" points="924,-34 924,-64 1084,-64 1084,-34 924,-34"/>
<text text-anchor="start" x="932" y="-52" font-family="Helvetica,sans-Serif" font-size="10.00">PerceptualColor::RgbColor</text>
<text text-anchor="middle" x="1004" y="-41" font-family="Helvetica,sans-Serif" font-size="10.00">Space::RgbColorSpacePrivate</text>
</a>
</g>
</g>
<!-- Node2 -->
<g id="node2" class="node">
<title>Node2</title>
<g id="a_node2"><a xlink:href="class_perceptual_color_1_1_chroma_lightness_image.html" target="_top" xlink:title="An image of a chroma&#45;lightness plane.">
<polygon fill="white" stroke="black" points="539.5,-61 539.5,-91 724.5,-91 724.5,-61 539.5,-61"/>
<text text-anchor="start" x="547.5" y="-79" font-family="Helvetica,sans-Serif" font-size="10.00">PerceptualColor::ChromaLightness</text>
<text text-anchor="middle" x="632" y="-68" font-family="Helvetica,sans-Serif" font-size="10.00">Image</text>
</a>
</g>
</g>
<!-- Node2&#45;&gt;Node1 -->
<g id="edge1" class="edge">
<title>Node2&#45;&gt;Node1</title>
<path fill="none" stroke="#9a32cd" stroke-dasharray="5,2" d="M735.12,-68.55C794.66,-64.2 868.65,-58.8 923.77,-54.78"/>
<polygon fill="#9a32cd" stroke="#9a32cd" points="734.65,-65.07 724.94,-69.29 735.16,-72.05 734.65,-65.07"/>
<text text-anchor="middle" x="824.5" y="-70" font-family="Helvetica,sans-Serif" font-size="10.00"> m_nearestNeighborSearchImage</text>
</g>
<!-- Node3 -->
<g id="node3" class="node">
<title>Node3</title>
<g id="a_node3"><a xlink:href="class_perceptual_color_1_1_const_propagating_raw_pointer.html" target="_top" xlink:title=" ">
<polygon fill="white" stroke="black" points="539,-0.5 539,-41.5 725,-41.5 725,-0.5 539,-0.5"/>
<text text-anchor="start" x="547" y="-29.5" font-family="Helvetica,sans-Serif" font-size="10.00">PerceptualColor::ConstPropagating</text>
<text text-anchor="start" x="547" y="-18.5" font-family="Helvetica,sans-Serif" font-size="10.00">RawPointer&lt; PerceptualColor</text>
<text text-anchor="middle" x="632" y="-7.5" font-family="Helvetica,sans-Serif" font-size="10.00">::RgbColorSpace &gt;</text>
</a>
</g>
</g>
<!-- Node3&#45;&gt;Node1 -->
<g id="edge2" class="edge">
<title>Node3&#45;&gt;Node1</title>
<path fill="none" stroke="#9a32cd" stroke-dasharray="5,2" d="M735.35,-28.28C786.6,-31.97 849.59,-36.61 906,-41 911.81,-41.45 917.82,-41.93 923.86,-42.41"/>
<polygon fill="#9a32cd" stroke="#9a32cd" points="735.49,-24.78 725.26,-27.55 734.99,-31.76 735.49,-24.78"/>
<text text-anchor="middle" x="824.5" y="-44" font-family="Helvetica,sans-Serif" font-size="10.00"> q_pointer</text>
</g>
<!-- Node4 -->
<g id="node4" class="node">
<title>Node4</title>
<g id="a_node4"><a xlink:href="class_perceptual_color_1_1_rgb_color_space.html" target="_top" xlink:title="Provides access to LittleCMS color management library.">
<polygon fill="white" stroke="black" points="306,-6 306,-36 450,-36 450,-6 306,-6"/>
<text text-anchor="start" x="314" y="-24" font-family="Helvetica,sans-Serif" font-size="10.00">PerceptualColor::RgbColor</text>
<text text-anchor="middle" x="378" y="-13" font-family="Helvetica,sans-Serif" font-size="10.00">Space</text>
</a>
</g>
</g>
<!-- Node4&#45;&gt;Node3 -->
<g id="edge3" class="edge">
<title>Node4&#45;&gt;Node3</title>
<path fill="none" stroke="#9a32cd" stroke-dasharray="5,2" d="M460.37,-21C485.38,-21 513.08,-21 538.77,-21"/>
<polygon fill="#9a32cd" stroke="#9a32cd" points="460.2,-17.5 450.2,-21 460.2,-24.5 460.2,-17.5"/>
<text text-anchor="middle" x="494.5" y="-24" font-family="Helvetica,sans-Serif" font-size="10.00"> m_pointer</text>
</g>
<!-- Node5 -->
<g id="node5" class="node">
<title>Node5</title>
<g id="a_node5"><a xlink:href="class_perceptual_color_1_1_const_propagating_unique_pointer.html" target="_top" xlink:title=" ">
<polygon fill="white" stroke="black" points="0,-0.5 0,-41.5 221,-41.5 221,-0.5 0,-0.5"/>
<text text-anchor="start" x="8" y="-29.5" font-family="Helvetica,sans-Serif" font-size="10.00">PerceptualColor::ConstPropagating</text>
<text text-anchor="start" x="8" y="-18.5" font-family="Helvetica,sans-Serif" font-size="10.00">UniquePointer&lt; PerceptualColor</text>
<text text-anchor="middle" x="110.5" y="-7.5" font-family="Helvetica,sans-Serif" font-size="10.00">::RgbColorSpace::RgbColorSpacePrivate &gt;</text>
</a>
</g>
</g>
<!-- Node5&#45;&gt;Node4 -->
<g id="edge4" class="edge">
<title>Node5&#45;&gt;Node4</title>
<path fill="none" stroke="#9a32cd" stroke-dasharray="5,2" d="M231.12,-21C256.58,-21 282.69,-21 305.65,-21"/>
<polygon fill="#9a32cd" stroke="#9a32cd" points="231.02,-17.5 221.02,-21 231.02,-24.5 231.02,-17.5"/>
<text text-anchor="middle" x="263.5" y="-24" font-family="Helvetica,sans-Serif" font-size="10.00"> d_pointer</text>
</g>
</g>
</svg>
