<?xml version="1.0" encoding="UTF-8" standalone="no"?>
<!DOCTYPE svg PUBLIC "-//W3C//DTD SVG 1.1//EN"
 "http://www.w3.org/Graphics/SVG/1.1/DTD/svg11.dtd">
<!-- Generated by graphviz version 2.43.0 (0)
 -->
<!-- Title: PerceptualColor::GradientSlider Pages: 1 -->
<svg width="773pt" height="105pt"
 viewBox="0.00 0.00 773.00 105.00" xmlns="http://www.w3.org/2000/svg" xmlns:xlink="http://www.w3.org/1999/xlink">
<g id="graph0" class="graph" transform="scale(1 1) rotate(0) translate(4 101)">
<title>PerceptualColor::GradientSlider</title>
<polygon fill="white" stroke="transparent" points="-4,4 -4,-101 769,-101 769,4 -4,4"/>
<!-- Node1 -->
<g id="node1" class="node">
<title>Node1</title>
<g id="a_node1"><a xlink:title="A slider who’s groove displays an LCh color gradient.">
<polygon fill="#bfbfbf" stroke="black" points="623,-19 623,-49 765,-49 765,-19 623,-19"/>
<text text-anchor="start" x="631" y="-37" font-family="Helvetica,sans-Serif" font-size="10.00">PerceptualColor::Gradient</text>
<text text-anchor="middle" x="694" y="-26" font-family="Helvetica,sans-Serif" font-size="10.00">Slider</text>
</a>
</g>
</g>
<!-- Node2 -->
<g id="node2" class="node">
<title>Node2</title>
<g id="a_node2"><a xlink:href="class_perceptual_color_1_1_abstract_diagram.html" target="_top" xlink:title="Base class for LCh diagrams.">
<polygon fill="white" stroke="black" points="361,-61 361,-91 501,-91 501,-61 361,-61"/>
<text text-anchor="start" x="369" y="-79" font-family="Helvetica,sans-Serif" font-size="10.00">PerceptualColor::Abstract</text>
<text text-anchor="middle" x="431" y="-68" font-family="Helvetica,sans-Serif" font-size="10.00">Diagram</text>
</a>
</g>
</g>
<!-- Node2&#45;&gt;Node1 -->
<g id="edge1" class="edge">
<title>Node2&#45;&gt;Node1</title>
<path fill="none" stroke="midnightblue" d="M511.14,-63.27C546.77,-57.53 588.48,-50.82 622.96,-45.27"/>
<polygon fill="midnightblue" stroke="midnightblue" points="510.57,-59.81 501.26,-64.86 511.69,-66.72 510.57,-59.81"/>
</g>
<!-- Node3 -->
<g id="node3" class="node">
<title>Node3</title>
<g id="a_node3"><a xlink:href="class_perceptual_color_1_1_const_propagating_unique_pointer.html" target="_top" xlink:title=" ">
<polygon fill="white" stroke="black" points="0,-55.5 0,-96.5 239,-96.5 239,-55.5 0,-55.5"/>
<text text-anchor="start" x="8" y="-84.5" font-family="Helvetica,sans-Serif" font-size="10.00">PerceptualColor::ConstPropagating</text>
<text text-anchor="start" x="8" y="-73.5" font-family="Helvetica,sans-Serif" font-size="10.00">UniquePointer&lt; PerceptualColor</text>
<text text-anchor="middle" x="119.5" y="-62.5" font-family="Helvetica,sans-Serif" font-size="10.00">::AbstractDiagram::AbstractDiagramPrivate &gt;</text>
</a>
</g>
</g>
<!-- Node3&#45;&gt;Node2 -->
<g id="edge2" class="edge">
<title>Node3&#45;&gt;Node2</title>
<path fill="none" stroke="#9a32cd" stroke-dasharray="5,2" d="M249.45,-76C287.63,-76 327.96,-76 360.8,-76"/>
<polygon fill="#9a32cd" stroke="#9a32cd" points="249.28,-72.5 239.28,-76 249.28,-79.5 249.28,-72.5"/>
<text text-anchor="middle" x="281.5" y="-79" font-family="Helvetica,sans-Serif" font-size="10.00"> d_pointer</text>
</g>
<!-- Node4 -->
<g id="node4" class="node">
<title>Node4</title>
<g id="a_node4"><a xlink:href="class_perceptual_color_1_1_const_propagating_unique_pointer.html" target="_top" xlink:title=" ">
<polygon fill="white" stroke="black" points="324,-0.5 324,-41.5 538,-41.5 538,-0.5 324,-0.5"/>
<text text-anchor="start" x="332" y="-29.5" font-family="Helvetica,sans-Serif" font-size="10.00">PerceptualColor::ConstPropagating</text>
<text text-anchor="start" x="332" y="-18.5" font-family="Helvetica,sans-Serif" font-size="10.00">UniquePointer&lt; PerceptualColor</text>
<text text-anchor="middle" x="431" y="-7.5" font-family="Helvetica,sans-Serif" font-size="10.00">::GradientSlider::GradientSliderPrivate &gt;</text>
</a>
</g>
</g>
<!-- Node4&#45;&gt;Node1 -->
<g id="edge3" class="edge">
<title>Node4&#45;&gt;Node1</title>
<path fill="none" stroke="#9a32cd" stroke-dasharray="5,2" d="M548.24,-26.79C573.67,-28.06 599.83,-29.36 622.8,-30.5"/>
<polygon fill="#9a32cd" stroke="#9a32cd" points="548.32,-23.29 538.16,-26.29 547.97,-30.28 548.32,-23.29"/>
<text text-anchor="middle" x="580.5" y="-33" font-family="Helvetica,sans-Serif" font-size="10.00"> d_pointer</text>
</g>
</g>
</svg>
