<?xml version="1.0" encoding="UTF-8" standalone="no"?>
<!DOCTYPE svg PUBLIC "-//W3C//DTD SVG 1.1//EN"
 "http://www.w3.org/Graphics/SVG/1.1/DTD/svg11.dtd">
<!-- Generated by graphviz version 2.43.0 (0)
 -->
<!-- Title: PerceptualColor::GradientImage Pages: 1 -->
<svg width="229pt" height="128pt"
 viewBox="0.00 0.00 228.50 128.00" xmlns="http://www.w3.org/2000/svg" xmlns:xlink="http://www.w3.org/1999/xlink">
<g id="graph0" class="graph" transform="scale(1 1) rotate(0) translate(4 124)">
<title>PerceptualColor::GradientImage</title>
<polygon fill="white" stroke="transparent" points="-4,4 -4,-124 224.5,-124 224.5,4 -4,4"/>
<!-- Node1 -->
<g id="node1" class="node">
<title>Node1</title>
<g id="a_node1"><a xlink:title="An image of a gradient.">
<polygon fill="#bfbfbf" stroke="black" points="7.5,-0.5 7.5,-30.5 149.5,-30.5 149.5,-0.5 7.5,-0.5"/>
<text text-anchor="start" x="15.5" y="-18.5" font-family="Helvetica,sans-Serif" font-size="10.00">PerceptualColor::Gradient</text>
<text text-anchor="middle" x="78.5" y="-7.5" font-family="Helvetica,sans-Serif" font-size="10.00">Image</text>
</a>
</g>
</g>
<!-- Node2 -->
<g id="node2" class="node">
<title>Node2</title>
<g id="a_node2"><a xlink:href="struct_perceptual_color_1_1_lcha_double.html" target="_top" xlink:title="A LCH color with alpha channel.">
<polygon fill="white" stroke="black" points="0,-100.5 0,-119.5 157,-119.5 157,-100.5 0,-100.5"/>
<text text-anchor="middle" x="78.5" y="-107.5" font-family="Helvetica,sans-Serif" font-size="10.00">PerceptualColor::LchaDouble</text>
</a>
</g>
</g>
<!-- Node2&#45;&gt;Node1 -->
<g id="edge1" class="edge">
<title>Node2&#45;&gt;Node1</title>
<path fill="none" stroke="#9a32cd" stroke-dasharray="5,2" d="M78.5,-90.29C78.5,-72.67 78.5,-46.67 78.5,-30.7"/>
<polygon fill="#9a32cd" stroke="#9a32cd" points="75,-90.46 78.5,-100.46 82,-90.46 75,-90.46"/>
<text text-anchor="middle" x="149.5" y="-74" font-family="Helvetica,sans-Serif" font-size="10.00"> m_firstColorCorrected</text>
<text text-anchor="start" x="78.5" y="-63" font-family="Helvetica,sans-Serif" font-size="10.00">m_secondColorCorrectedAnd</text>
<text text-anchor="middle" x="149.5" y="-52" font-family="Helvetica,sans-Serif" font-size="10.00">Altered</text>
</g>
</g>
</svg>
