<?xml version="1.0" encoding="UTF-8" standalone="no"?>
<!DOCTYPE svg PUBLIC "-//W3C//DTD SVG 1.1//EN"
 "http://www.w3.org/Graphics/SVG/1.1/DTD/svg11.dtd">
<!-- Generated by graphviz version 2.43.0 (0)
 -->
<!-- Title: PerceptualColor::ColorWheel::ColorWheelPrivate Pages: 1 -->
<svg width="1306pt" height="113pt"
 viewBox="0.00 0.00 1306.00 112.50" xmlns="http://www.w3.org/2000/svg" xmlns:xlink="http://www.w3.org/1999/xlink">
<g id="graph0" class="graph" transform="scale(1 1) rotate(0) translate(4 108.5)">
<title>PerceptualColor::ColorWheel::ColorWheelPrivate</title>
<polygon fill="white" stroke="transparent" points="-4,4 -4,-108.5 1302,-108.5 1302,4 -4,4"/>
<!-- Node1 -->
<g id="node1" class="node">
<title>Node1</title>
<g id="a_node1"><a xlink:title="Private implementation within the Pointer to implementation idiom.">
<polygon fill="#bfbfbf" stroke="black" points="1142,-47 1142,-77 1298,-77 1298,-47 1142,-47"/>
<text text-anchor="start" x="1150" y="-65" font-family="Helvetica,sans-Serif" font-size="10.00">PerceptualColor::ColorWheel</text>
<text text-anchor="middle" x="1220" y="-54" font-family="Helvetica,sans-Serif" font-size="10.00">::ColorWheelPrivate</text>
</a>
</g>
</g>
<!-- Node2 -->
<g id="node2" class="node">
<title>Node2</title>
<g id="a_node2"><a xlink:href="class_perceptual_color_1_1_color_wheel_image.html" target="_top" xlink:title="An image of a color wheel.">
<polygon fill="white" stroke="black" points="856,-74 856,-104 1012,-104 1012,-74 856,-74"/>
<text text-anchor="start" x="864" y="-92" font-family="Helvetica,sans-Serif" font-size="10.00">PerceptualColor::ColorWheel</text>
<text text-anchor="middle" x="934" y="-81" font-family="Helvetica,sans-Serif" font-size="10.00">Image</text>
</a>
</g>
</g>
<!-- Node2&#45;&gt;Node1 -->
<g id="edge1" class="edge">
<title>Node2&#45;&gt;Node1</title>
<path fill="none" stroke="#9a32cd" stroke-dasharray="5,2" d="M1022.3,-80.7C1060.46,-77.07 1104.85,-72.85 1141.79,-69.34"/>
<polygon fill="#9a32cd" stroke="#9a32cd" points="1021.85,-77.23 1012.23,-81.66 1022.52,-84.2 1021.85,-77.23"/>
<text text-anchor="middle" x="1084.5" y="-80" font-family="Helvetica,sans-Serif" font-size="10.00"> m_wheelImage</text>
</g>
<!-- Node3 -->
<g id="node3" class="node">
<title>Node3</title>
<g id="a_node3"><a xlink:href="class_perceptual_color_1_1_const_propagating_raw_pointer.html" target="_top" xlink:title=" ">
<polygon fill="white" stroke="black" points="841,-13.5 841,-54.5 1027,-54.5 1027,-13.5 841,-13.5"/>
<text text-anchor="start" x="849" y="-42.5" font-family="Helvetica,sans-Serif" font-size="10.00">PerceptualColor::ConstPropagating</text>
<text text-anchor="start" x="849" y="-31.5" font-family="Helvetica,sans-Serif" font-size="10.00">RawPointer&lt; PerceptualColor</text>
<text text-anchor="middle" x="934" y="-20.5" font-family="Helvetica,sans-Serif" font-size="10.00">::ColorWheel &gt;</text>
</a>
</g>
</g>
<!-- Node3&#45;&gt;Node1 -->
<g id="edge2" class="edge">
<title>Node3&#45;&gt;Node1</title>
<path fill="none" stroke="#9a32cd" stroke-dasharray="5,2" d="M1037.32,-44.09C1071.84,-47.49 1109.76,-51.23 1141.98,-54.41"/>
<polygon fill="#9a32cd" stroke="#9a32cd" points="1037.5,-40.59 1027.21,-43.09 1036.81,-47.56 1037.5,-40.59"/>
<text text-anchor="middle" x="1084.5" y="-56" font-family="Helvetica,sans-Serif" font-size="10.00"> q_pointer</text>
</g>
<!-- Node4 -->
<g id="node4" class="node">
<title>Node4</title>
<g id="a_node4"><a xlink:href="class_perceptual_color_1_1_color_wheel.html" target="_top" xlink:title="A color wheel widget.">
<polygon fill="white" stroke="black" points="596,-24.5 596,-43.5 752,-43.5 752,-24.5 596,-24.5"/>
<text text-anchor="middle" x="674" y="-31.5" font-family="Helvetica,sans-Serif" font-size="10.00">PerceptualColor::ColorWheel</text>
</a>
</g>
</g>
<!-- Node4&#45;&gt;Node3 -->
<g id="edge3" class="edge">
<title>Node4&#45;&gt;Node3</title>
<path fill="none" stroke="#9a32cd" stroke-dasharray="5,2" d="M762.36,-34C787.64,-34 815.31,-34 840.87,-34"/>
<polygon fill="#9a32cd" stroke="#9a32cd" points="762.06,-30.5 752.06,-34 762.06,-37.5 762.06,-30.5"/>
<text text-anchor="middle" x="796.5" y="-37" font-family="Helvetica,sans-Serif" font-size="10.00"> m_pointer</text>
</g>
<!-- Node5 -->
<g id="node5" class="node">
<title>Node5</title>
<g id="a_node5"><a xlink:href="class_perceptual_color_1_1_abstract_diagram.html" target="_top" xlink:title="Base class for LCh diagrams.">
<polygon fill="white" stroke="black" points="347.5,-61 347.5,-91 487.5,-91 487.5,-61 347.5,-61"/>
<text text-anchor="start" x="355.5" y="-79" font-family="Helvetica,sans-Serif" font-size="10.00">PerceptualColor::Abstract</text>
<text text-anchor="middle" x="417.5" y="-68" font-family="Helvetica,sans-Serif" font-size="10.00">Diagram</text>
</a>
</g>
</g>
<!-- Node5&#45;&gt;Node4 -->
<g id="edge4" class="edge">
<title>Node5&#45;&gt;Node4</title>
<path fill="none" stroke="midnightblue" d="M497.74,-62.92C535.83,-56.64 580.64,-49.24 615.42,-43.5"/>
<polygon fill="midnightblue" stroke="midnightblue" points="497,-59.5 487.71,-64.58 498.14,-66.4 497,-59.5"/>
</g>
<!-- Node6 -->
<g id="node6" class="node">
<title>Node6</title>
<g id="a_node6"><a xlink:href="class_perceptual_color_1_1_const_propagating_unique_pointer.html" target="_top" xlink:title=" ">
<polygon fill="white" stroke="black" points="0,-55.5 0,-96.5 239,-96.5 239,-55.5 0,-55.5"/>
<text text-anchor="start" x="8" y="-84.5" font-family="Helvetica,sans-Serif" font-size="10.00">PerceptualColor::ConstPropagating</text>
<text text-anchor="start" x="8" y="-73.5" font-family="Helvetica,sans-Serif" font-size="10.00">UniquePointer&lt; PerceptualColor</text>
<text text-anchor="middle" x="119.5" y="-62.5" font-family="Helvetica,sans-Serif" font-size="10.00">::AbstractDiagram::AbstractDiagramPrivate &gt;</text>
</a>
</g>
</g>
<!-- Node6&#45;&gt;Node5 -->
<g id="edge5" class="edge">
<title>Node6&#45;&gt;Node5</title>
<path fill="none" stroke="#9a32cd" stroke-dasharray="5,2" d="M249.56,-76C283.14,-76 318.05,-76 347.21,-76"/>
<polygon fill="#9a32cd" stroke="#9a32cd" points="249.19,-72.5 239.19,-76 249.19,-79.5 249.19,-72.5"/>
<text text-anchor="middle" x="281.5" y="-79" font-family="Helvetica,sans-Serif" font-size="10.00"> d_pointer</text>
</g>
<!-- Node7 -->
<g id="node7" class="node">
<title>Node7</title>
<g id="a_node7"><a xlink:href="class_perceptual_color_1_1_const_propagating_unique_pointer.html" target="_top" xlink:title=" ">
<polygon fill="white" stroke="black" points="324,-0.5 324,-41.5 511,-41.5 511,-0.5 324,-0.5"/>
<text text-anchor="start" x="332" y="-29.5" font-family="Helvetica,sans-Serif" font-size="10.00">PerceptualColor::ConstPropagating</text>
<text text-anchor="start" x="332" y="-18.5" font-family="Helvetica,sans-Serif" font-size="10.00">UniquePointer&lt; PerceptualColor</text>
<text text-anchor="middle" x="417.5" y="-7.5" font-family="Helvetica,sans-Serif" font-size="10.00">::ColorWheel::ColorWheelPrivate &gt;</text>
</a>
</g>
</g>
<!-- Node7&#45;&gt;Node4 -->
<g id="edge6" class="edge">
<title>Node7&#45;&gt;Node4</title>
<path fill="none" stroke="#9a32cd" stroke-dasharray="5,2" d="M521.31,-26.25C546.23,-27.52 572.45,-28.86 595.95,-30.06"/>
<polygon fill="#9a32cd" stroke="#9a32cd" points="521.27,-22.74 511.1,-25.73 520.91,-29.74 521.27,-22.74"/>
<text text-anchor="middle" x="553.5" y="-33" font-family="Helvetica,sans-Serif" font-size="10.00"> d_pointer</text>
</g>
</g>
</svg>
