<?xml version="1.0" encoding="UTF-8" standalone="no"?>
<!DOCTYPE svg PUBLIC "-//W3C//DTD SVG 1.1//EN"
 "http://www.w3.org/Graphics/SVG/1.1/DTD/svg11.dtd">
<!-- Generated by graphviz version 2.43.0 (0)
 -->
<!-- Title: PerceptualColor::ColorDialog::ColorDialogPrivate Pages: 1 -->
<svg width="1022pt" height="89pt"
 viewBox="0.00 0.00 1022.00 89.00" xmlns="http://www.w3.org/2000/svg" xmlns:xlink="http://www.w3.org/1999/xlink">
<g id="graph0" class="graph" transform="scale(1 1) rotate(0) translate(4 85)">
<title>PerceptualColor::ColorDialog::ColorDialogPrivate</title>
<polygon fill="white" stroke="transparent" points="-4,4 -4,-85 1018,-85 1018,4 -4,4"/>
<!-- Node1 -->
<g id="node1" class="node">
<title>Node1</title>
<g id="a_node1"><a xlink:title="Private implementation within the Pointer to implementation idiom.">
<polygon fill="#bfbfbf" stroke="black" points="857,-30 857,-60 1014,-60 1014,-30 857,-30"/>
<text text-anchor="start" x="865" y="-48" font-family="Helvetica,sans-Serif" font-size="10.00">PerceptualColor::ColorDialog</text>
<text text-anchor="middle" x="935.5" y="-37" font-family="Helvetica,sans-Serif" font-size="10.00">::ColorDialogPrivate</text>
</a>
</g>
</g>
<!-- Node2 -->
<g id="node2" class="node">
<title>Node2</title>
<g id="a_node2"><a xlink:href="class_perceptual_color_1_1_multi_color.html" target="_top" xlink:title="A color stored in multiple color models simultaneously.">
<polygon fill="white" stroke="black" points="537,-60.5 537,-79.5 687,-79.5 687,-60.5 537,-60.5"/>
<text text-anchor="middle" x="612" y="-67.5" font-family="Helvetica,sans-Serif" font-size="10.00">PerceptualColor::MultiColor</text>
</a>
</g>
</g>
<!-- Node2&#45;&gt;Node1 -->
<g id="edge1" class="edge">
<title>Node2&#45;&gt;Node1</title>
<path fill="none" stroke="#9a32cd" stroke-dasharray="5,2" d="M697.18,-63.45C746.58,-59.61 808.56,-54.79 856.79,-51.04"/>
<polygon fill="#9a32cd" stroke="#9a32cd" points="696.86,-59.97 687.16,-64.23 697.4,-66.95 696.86,-59.97"/>
<text text-anchor="middle" x="781" y="-64" font-family="Helvetica,sans-Serif" font-size="10.00"> m_currentOpaqueColor</text>
</g>
<!-- Node3 -->
<g id="node3" class="node">
<title>Node3</title>
<g id="a_node3"><a xlink:href="struct_perceptual_color_1_1_lch_double.html" target="_top" xlink:title="A LCH color.">
<polygon fill="white" stroke="black" points="276,-60.5 276,-79.5 427,-79.5 427,-60.5 276,-60.5"/>
<text text-anchor="middle" x="351.5" y="-67.5" font-family="Helvetica,sans-Serif" font-size="10.00">PerceptualColor::LchDouble</text>
</a>
</g>
</g>
<!-- Node3&#45;&gt;Node2 -->
<g id="edge2" class="edge">
<title>Node3&#45;&gt;Node2</title>
<path fill="none" stroke="#9a32cd" stroke-dasharray="5,2" d="M437.53,-70C469.61,-70 505.83,-70 536.85,-70"/>
<polygon fill="#9a32cd" stroke="#9a32cd" points="437.27,-66.5 427.27,-70 437.27,-73.5 437.27,-66.5"/>
<text text-anchor="middle" x="474.5" y="-73" font-family="Helvetica,sans-Serif" font-size="10.00"> m_lch</text>
</g>
<!-- Node4 -->
<g id="node4" class="node">
<title>Node4</title>
<g id="a_node4"><a xlink:href="class_perceptual_color_1_1_const_propagating_raw_pointer.html" target="_top" xlink:title=" ">
<polygon fill="white" stroke="black" points="519,-0.5 519,-41.5 705,-41.5 705,-0.5 519,-0.5"/>
<text text-anchor="start" x="527" y="-29.5" font-family="Helvetica,sans-Serif" font-size="10.00">PerceptualColor::ConstPropagating</text>
<text text-anchor="start" x="527" y="-18.5" font-family="Helvetica,sans-Serif" font-size="10.00">RawPointer&lt; PerceptualColor</text>
<text text-anchor="middle" x="612" y="-7.5" font-family="Helvetica,sans-Serif" font-size="10.00">::ColorDialog &gt;</text>
</a>
</g>
</g>
<!-- Node4&#45;&gt;Node1 -->
<g id="edge3" class="edge">
<title>Node4&#45;&gt;Node1</title>
<path fill="none" stroke="#9a32cd" stroke-dasharray="5,2" d="M715.44,-24.88C754.2,-26.75 798.67,-29.4 839,-33 844.83,-33.52 850.84,-34.12 856.89,-34.77"/>
<polygon fill="#9a32cd" stroke="#9a32cd" points="715.35,-21.37 705.2,-24.39 715.02,-28.36 715.35,-21.37"/>
<text text-anchor="middle" x="781" y="-36" font-family="Helvetica,sans-Serif" font-size="10.00"> q_pointer</text>
</g>
<!-- Node5 -->
<g id="node5" class="node">
<title>Node5</title>
<g id="a_node5"><a xlink:href="class_perceptual_color_1_1_color_dialog.html" target="_top" xlink:title="A perceptually uniform color picker dialog.">
<polygon fill="white" stroke="black" points="273,-11.5 273,-30.5 430,-30.5 430,-11.5 273,-11.5"/>
<text text-anchor="middle" x="351.5" y="-18.5" font-family="Helvetica,sans-Serif" font-size="10.00">PerceptualColor::ColorDialog</text>
</a>
</g>
</g>
<!-- Node5&#45;&gt;Node4 -->
<g id="edge4" class="edge">
<title>Node5&#45;&gt;Node4</title>
<path fill="none" stroke="#9a32cd" stroke-dasharray="5,2" d="M440.37,-21C465.68,-21 493.36,-21 518.92,-21"/>
<polygon fill="#9a32cd" stroke="#9a32cd" points="440.06,-17.5 430.06,-21 440.06,-24.5 440.06,-17.5"/>
<text text-anchor="middle" x="474.5" y="-24" font-family="Helvetica,sans-Serif" font-size="10.00"> m_pointer</text>
</g>
<!-- Node6 -->
<g id="node6" class="node">
<title>Node6</title>
<g id="a_node6"><a xlink:href="class_perceptual_color_1_1_const_propagating_unique_pointer.html" target="_top" xlink:title=" ">
<polygon fill="white" stroke="black" points="0,-0.5 0,-41.5 188,-41.5 188,-0.5 0,-0.5"/>
<text text-anchor="start" x="8" y="-29.5" font-family="Helvetica,sans-Serif" font-size="10.00">PerceptualColor::ConstPropagating</text>
<text text-anchor="start" x="8" y="-18.5" font-family="Helvetica,sans-Serif" font-size="10.00">UniquePointer&lt; PerceptualColor</text>
<text text-anchor="middle" x="94" y="-7.5" font-family="Helvetica,sans-Serif" font-size="10.00">::ColorDialog::ColorDialogPrivate &gt;</text>
</a>
</g>
</g>
<!-- Node6&#45;&gt;Node5 -->
<g id="edge5" class="edge">
<title>Node6&#45;&gt;Node5</title>
<path fill="none" stroke="#9a32cd" stroke-dasharray="5,2" d="M198.52,-21C223.37,-21 249.5,-21 272.95,-21"/>
<polygon fill="#9a32cd" stroke="#9a32cd" points="198.33,-17.5 188.33,-21 198.33,-24.5 198.33,-17.5"/>
<text text-anchor="middle" x="230.5" y="-24" font-family="Helvetica,sans-Serif" font-size="10.00"> d_pointer</text>
</g>
</g>
</svg>
