<?xml version="1.0" encoding="UTF-8" standalone="no"?>
<!DOCTYPE svg PUBLIC "-//W3C//DTD SVG 1.1//EN"
 "http://www.w3.org/Graphics/SVG/1.1/DTD/svg11.dtd">
<!-- Generated by graphviz version 2.43.0 (0)
 -->
<!-- Title: PerceptualColor::AbstractDiagram Pages: 1 -->
<svg width="369pt" height="225pt"
 viewBox="0.00 0.00 369.00 225.00" xmlns="http://www.w3.org/2000/svg" xmlns:xlink="http://www.w3.org/1999/xlink">
<g id="graph0" class="graph" transform="scale(1 1) rotate(0) translate(4 221)">
<title>PerceptualColor::AbstractDiagram</title>
<polygon fill="white" stroke="transparent" points="-4,4 -4,-221 365,-221 365,4 -4,4"/>
<!-- Node1 -->
<g id="node1" class="node">
<title>Node1</title>
<g id="a_node1"><a xlink:title="Base class for LCh diagrams.">
<polygon fill="#bfbfbf" stroke="black" points="0,-93.5 0,-123.5 140,-123.5 140,-93.5 0,-93.5"/>
<text text-anchor="start" x="8" y="-111.5" font-family="Helvetica,sans-Serif" font-size="10.00">PerceptualColor::Abstract</text>
<text text-anchor="middle" x="70" y="-100.5" font-family="Helvetica,sans-Serif" font-size="10.00">Diagram</text>
</a>
</g>
</g>
<!-- Node2 -->
<g id="node2" class="node">
<title>Node2</title>
<g id="a_node2"><a xlink:href="class_perceptual_color_1_1_chroma_hue_diagram.html" target="_top" xlink:title="A widget for selecting chroma and hue in LCh color space.">
<polygon fill="white" stroke="black" points="189.5,-186.5 189.5,-216.5 347.5,-216.5 347.5,-186.5 189.5,-186.5"/>
<text text-anchor="start" x="197.5" y="-204.5" font-family="Helvetica,sans-Serif" font-size="10.00">PerceptualColor::ChromaHue</text>
<text text-anchor="middle" x="268.5" y="-193.5" font-family="Helvetica,sans-Serif" font-size="10.00">Diagram</text>
</a>
</g>
</g>
<!-- Node1&#45;&gt;Node2 -->
<g id="edge1" class="edge">
<title>Node1&#45;&gt;Node2</title>
<path fill="none" stroke="midnightblue" d="M98.2,-129.95C118.6,-145.12 147.75,-164.92 176,-177.5 183.5,-180.84 191.56,-183.79 199.68,-186.38"/>
<polygon fill="midnightblue" stroke="midnightblue" points="100.1,-127 90.02,-123.76 95.88,-132.59 100.1,-127"/>
</g>
<!-- Node3 -->
<g id="node3" class="node">
<title>Node3</title>
<g id="a_node3"><a xlink:href="class_perceptual_color_1_1_chroma_lightness_diagram.html" target="_top" xlink:title="A widget that displays a chroma&#45;lightness diagram.">
<polygon fill="white" stroke="black" points="176,-137.5 176,-167.5 361,-167.5 361,-137.5 176,-137.5"/>
<text text-anchor="start" x="184" y="-155.5" font-family="Helvetica,sans-Serif" font-size="10.00">PerceptualColor::ChromaLightness</text>
<text text-anchor="middle" x="268.5" y="-144.5" font-family="Helvetica,sans-Serif" font-size="10.00">Diagram</text>
</a>
</g>
</g>
<!-- Node1&#45;&gt;Node3 -->
<g id="edge2" class="edge">
<title>Node1&#45;&gt;Node3</title>
<path fill="none" stroke="midnightblue" d="M148.12,-125.77C165.39,-129.64 183.57,-133.71 200.39,-137.47"/>
<polygon fill="midnightblue" stroke="midnightblue" points="148.6,-122.29 138.07,-123.52 147.07,-129.12 148.6,-122.29"/>
</g>
<!-- Node4 -->
<g id="node4" class="node">
<title>Node4</title>
<g id="a_node4"><a xlink:href="class_perceptual_color_1_1_color_wheel.html" target="_top" xlink:title="A color wheel widget.">
<polygon fill="white" stroke="black" points="190.5,-99 190.5,-118 346.5,-118 346.5,-99 190.5,-99"/>
<text text-anchor="middle" x="268.5" y="-106" font-family="Helvetica,sans-Serif" font-size="10.00">PerceptualColor::ColorWheel</text>
</a>
</g>
</g>
<!-- Node1&#45;&gt;Node4 -->
<g id="edge3" class="edge">
<title>Node1&#45;&gt;Node4</title>
<path fill="none" stroke="midnightblue" d="M150.04,-108.5C163.31,-108.5 177.06,-108.5 190.28,-108.5"/>
<polygon fill="midnightblue" stroke="midnightblue" points="150,-105 140,-108.5 150,-112 150,-105"/>
</g>
<!-- Node5 -->
<g id="node5" class="node">
<title>Node5</title>
<g id="a_node5"><a xlink:href="class_perceptual_color_1_1_gradient_slider.html" target="_top" xlink:title="A slider who’s groove displays an LCh color gradient.">
<polygon fill="white" stroke="black" points="197.5,-49.5 197.5,-79.5 339.5,-79.5 339.5,-49.5 197.5,-49.5"/>
<text text-anchor="start" x="205.5" y="-67.5" font-family="Helvetica,sans-Serif" font-size="10.00">PerceptualColor::Gradient</text>
<text text-anchor="middle" x="268.5" y="-56.5" font-family="Helvetica,sans-Serif" font-size="10.00">Slider</text>
</a>
</g>
</g>
<!-- Node1&#45;&gt;Node5 -->
<g id="edge4" class="edge">
<title>Node1&#45;&gt;Node5</title>
<path fill="none" stroke="midnightblue" d="M148.12,-91.23C165.39,-87.36 183.57,-83.29 200.39,-79.53"/>
<polygon fill="midnightblue" stroke="midnightblue" points="147.07,-87.88 138.07,-93.48 148.6,-94.71 147.07,-87.88"/>
</g>
<!-- Node6 -->
<g id="node6" class="node">
<title>Node6</title>
<g id="a_node6"><a xlink:href="class_perceptual_color_1_1_wheel_color_picker.html" target="_top" xlink:title="Complete wheel&#45;based color picker widget.">
<polygon fill="white" stroke="black" points="190.5,-0.5 190.5,-30.5 346.5,-30.5 346.5,-0.5 190.5,-0.5"/>
<text text-anchor="start" x="198.5" y="-18.5" font-family="Helvetica,sans-Serif" font-size="10.00">PerceptualColor::WheelColor</text>
<text text-anchor="middle" x="268.5" y="-7.5" font-family="Helvetica,sans-Serif" font-size="10.00">Picker</text>
</a>
</g>
</g>
<!-- Node1&#45;&gt;Node6 -->
<g id="edge5" class="edge">
<title>Node1&#45;&gt;Node6</title>
<path fill="none" stroke="midnightblue" d="M98.66,-87.19C119.09,-72.33 148.07,-53 176,-40.5 184.42,-36.73 193.53,-33.42 202.63,-30.54"/>
<polygon fill="midnightblue" stroke="midnightblue" points="96.42,-84.5 90.46,-93.26 100.58,-90.13 96.42,-84.5"/>
</g>
</g>
</svg>
