<?xml version="1.0" encoding="UTF-8" standalone="no"?>
<!DOCTYPE svg PUBLIC "-//W3C//DTD SVG 1.1//EN"
 "http://www.w3.org/Graphics/SVG/1.1/DTD/svg11.dtd">
<!-- Generated by graphviz version 2.43.0 (0)
 -->
<!-- Title: PerceptualColor::MultiSpinBoxSectionConfiguration Pages: 1 -->
<svg width="473pt" height="61pt"
 viewBox="0.00 0.00 473.00 61.00" xmlns="http://www.w3.org/2000/svg" xmlns:xlink="http://www.w3.org/1999/xlink">
<g id="graph0" class="graph" transform="scale(1 1) rotate(0) translate(4 57)">
<title>PerceptualColor::MultiSpinBoxSectionConfiguration</title>
<polygon fill="white" stroke="transparent" points="-4,4 -4,-57 469,-57 469,4 -4,4"/>
<!-- Node1 -->
<g id="node1" class="node">
<title>Node1</title>
<g id="a_node1"><a xlink:title="The configuration of a single section within a MultiSpinBox.">
<polygon fill="#bfbfbf" stroke="black" points="319,-11.5 319,-41.5 465,-41.5 465,-11.5 319,-11.5"/>
<text text-anchor="start" x="327" y="-29.5" font-family="Helvetica,sans-Serif" font-size="10.00">PerceptualColor::MultiSpin</text>
<text text-anchor="middle" x="392" y="-18.5" font-family="Helvetica,sans-Serif" font-size="10.00">BoxSectionConfiguration</text>
</a>
</g>
</g>
<!-- Node2 -->
<g id="node2" class="node">
<title>Node2</title>
<g id="a_node2"><a xlink:href="class_perceptual_color_1_1_const_propagating_unique_pointer.html" target="_top" xlink:title=" ">
<polygon fill="white" stroke="black" points="0,-0.5 0,-52.5 234,-52.5 234,-0.5 0,-0.5"/>
<text text-anchor="start" x="8" y="-40.5" font-family="Helvetica,sans-Serif" font-size="10.00">PerceptualColor::ConstPropagating</text>
<text text-anchor="start" x="8" y="-29.5" font-family="Helvetica,sans-Serif" font-size="10.00">UniquePointer&lt; PerceptualColor</text>
<text text-anchor="start" x="8" y="-18.5" font-family="Helvetica,sans-Serif" font-size="10.00">::MultiSpinBoxSectionConfiguration</text>
<text text-anchor="middle" x="117" y="-7.5" font-family="Helvetica,sans-Serif" font-size="10.00">::MultiSpinBoxSectionConfigurationPrivate &gt;</text>
</a>
</g>
</g>
<!-- Node2&#45;&gt;Node1 -->
<g id="edge1" class="edge">
<title>Node2&#45;&gt;Node1</title>
<path fill="none" stroke="#9a32cd" stroke-dasharray="5,2" d="M244.32,-26.5C269.87,-26.5 295.91,-26.5 318.82,-26.5"/>
<polygon fill="#9a32cd" stroke="#9a32cd" points="244.17,-23 234.17,-26.5 244.17,-30 244.17,-23"/>
<text text-anchor="middle" x="276.5" y="-29.5" font-family="Helvetica,sans-Serif" font-size="10.00"> d_pointer</text>
</g>
</g>
</svg>
