<?xml version="1.0" encoding="UTF-8" standalone="no"?>
<!DOCTYPE svg PUBLIC "-//W3C//DTD SVG 1.1//EN"
 "http://www.w3.org/Graphics/SVG/1.1/DTD/svg11.dtd">
<!-- Generated by graphviz version 2.43.0 (0)
 -->
<!-- Title: PerceptualColor::GradientSlider::GradientSliderPrivate Pages: 1 -->
<svg width="1463pt" height="161pt"
 viewBox="0.00 0.00 1463.00 161.00" xmlns="http://www.w3.org/2000/svg" xmlns:xlink="http://www.w3.org/1999/xlink">
<g id="graph0" class="graph" transform="scale(1 1) rotate(0) translate(4 157)">
<title>PerceptualColor::GradientSlider::GradientSliderPrivate</title>
<polygon fill="white" stroke="transparent" points="-4,4 -4,-157 1459,-157 1459,4 -4,4"/>
<!-- Node1 -->
<g id="node1" class="node">
<title>Node1</title>
<g id="a_node1"><a xlink:title="Private implementation within the Pointer to implementation idiom.">
<polygon fill="#bfbfbf" stroke="black" points="1300,-74 1300,-104 1455,-104 1455,-74 1300,-74"/>
<text text-anchor="start" x="1308" y="-92" font-family="Helvetica,sans-Serif" font-size="10.00">PerceptualColor::Gradient</text>
<text text-anchor="middle" x="1377.5" y="-81" font-family="Helvetica,sans-Serif" font-size="10.00">Slider::GradientSliderPrivate</text>
</a>
</g>
</g>
<!-- Node2 -->
<g id="node2" class="node">
<title>Node2</title>
<g id="a_node2"><a xlink:href="class_perceptual_color_1_1_gradient_image.html" target="_top" xlink:title="An image of a gradient.">
<polygon fill="white" stroke="black" points="980,-74 980,-104 1122,-104 1122,-74 980,-74"/>
<text text-anchor="start" x="988" y="-92" font-family="Helvetica,sans-Serif" font-size="10.00">PerceptualColor::Gradient</text>
<text text-anchor="middle" x="1051" y="-81" font-family="Helvetica,sans-Serif" font-size="10.00">Image</text>
</a>
</g>
</g>
<!-- Node2&#45;&gt;Node1 -->
<g id="edge1" class="edge">
<title>Node2&#45;&gt;Node1</title>
<path fill="none" stroke="#9a32cd" stroke-dasharray="5,2" d="M1132.04,-89C1183.24,-89 1249.28,-89 1299.81,-89"/>
<polygon fill="#9a32cd" stroke="#9a32cd" points="1132.01,-85.5 1122.01,-89 1132.01,-92.5 1132.01,-85.5"/>
<text text-anchor="middle" x="1222" y="-92" font-family="Helvetica,sans-Serif" font-size="10.00"> m_gradientImageCache</text>
</g>
<!-- Node3 -->
<g id="node3" class="node">
<title>Node3</title>
<g id="a_node3"><a xlink:href="struct_perceptual_color_1_1_lcha_double.html" target="_top" xlink:title="A LCH color with alpha channel.">
<polygon fill="white" stroke="black" points="623,-107.5 623,-126.5 780,-126.5 780,-107.5 623,-107.5"/>
<text text-anchor="middle" x="701.5" y="-114.5" font-family="Helvetica,sans-Serif" font-size="10.00">PerceptualColor::LchaDouble</text>
</a>
</g>
</g>
<!-- Node3&#45;&gt;Node1 -->
<g id="edge3" class="edge">
<title>Node3&#45;&gt;Node1</title>
<path fill="none" stroke="#9a32cd" stroke-dasharray="5,2" d="M790.26,-126.54C792.86,-126.71 795.45,-126.87 798,-127 1013.06,-138.23 1068.07,-128.68 1282,-104 1287.86,-103.32 1293.91,-102.55 1299.99,-101.71"/>
<polygon fill="#9a32cd" stroke="#9a32cd" points="790.33,-123.04 780.11,-125.81 789.83,-130.02 790.33,-123.04"/>
<text text-anchor="middle" x="1051" y="-145" font-family="Helvetica,sans-Serif" font-size="10.00"> m_secondColor</text>
<text text-anchor="middle" x="1051" y="-134" font-family="Helvetica,sans-Serif" font-size="10.00">m_firstColor</text>
</g>
<!-- Node3&#45;&gt;Node2 -->
<g id="edge2" class="edge">
<title>Node3&#45;&gt;Node2</title>
<path fill="none" stroke="#9a32cd" stroke-dasharray="5,2" d="M744.36,-104.84C760.92,-100.58 780.21,-96.29 798,-94 859.09,-86.13 929.18,-85.4 979.91,-86.34"/>
<polygon fill="#9a32cd" stroke="#9a32cd" points="743.21,-101.53 734.45,-107.47 745.01,-108.29 743.21,-101.53"/>
<text text-anchor="middle" x="869" y="-119" font-family="Helvetica,sans-Serif" font-size="10.00"> m_firstColorCorrected</text>
<text text-anchor="start" x="798" y="-108" font-family="Helvetica,sans-Serif" font-size="10.00">m_secondColorCorrectedAnd</text>
<text text-anchor="middle" x="869" y="-97" font-family="Helvetica,sans-Serif" font-size="10.00">Altered</text>
</g>
<!-- Node4 -->
<g id="node4" class="node">
<title>Node4</title>
<g id="a_node4"><a xlink:href="class_perceptual_color_1_1_const_propagating_raw_pointer.html" target="_top" xlink:title=" ">
<polygon fill="white" stroke="black" points="958,-13.5 958,-54.5 1144,-54.5 1144,-13.5 958,-13.5"/>
<text text-anchor="start" x="966" y="-42.5" font-family="Helvetica,sans-Serif" font-size="10.00">PerceptualColor::ConstPropagating</text>
<text text-anchor="start" x="966" y="-31.5" font-family="Helvetica,sans-Serif" font-size="10.00">RawPointer&lt; PerceptualColor</text>
<text text-anchor="middle" x="1051" y="-20.5" font-family="Helvetica,sans-Serif" font-size="10.00">::GradientSlider &gt;</text>
</a>
</g>
</g>
<!-- Node4&#45;&gt;Node1 -->
<g id="edge4" class="edge">
<title>Node4&#45;&gt;Node1</title>
<path fill="none" stroke="#9a32cd" stroke-dasharray="5,2" d="M1154.05,-51.3C1201.2,-59.29 1256.24,-68.62 1299.77,-76"/>
<polygon fill="#9a32cd" stroke="#9a32cd" points="1154.56,-47.83 1144.12,-49.61 1153.4,-54.74 1154.56,-47.83"/>
<text text-anchor="middle" x="1222" y="-76" font-family="Helvetica,sans-Serif" font-size="10.00"> q_pointer</text>
</g>
<!-- Node5 -->
<g id="node5" class="node">
<title>Node5</title>
<g id="a_node5"><a xlink:href="class_perceptual_color_1_1_gradient_slider.html" target="_top" xlink:title="A slider who’s groove displays an LCh color gradient.">
<polygon fill="white" stroke="black" points="630.5,-19 630.5,-49 772.5,-49 772.5,-19 630.5,-19"/>
<text text-anchor="start" x="638.5" y="-37" font-family="Helvetica,sans-Serif" font-size="10.00">PerceptualColor::Gradient</text>
<text text-anchor="middle" x="701.5" y="-26" font-family="Helvetica,sans-Serif" font-size="10.00">Slider</text>
</a>
</g>
</g>
<!-- Node5&#45;&gt;Node4 -->
<g id="edge5" class="edge">
<title>Node5&#45;&gt;Node4</title>
<path fill="none" stroke="#9a32cd" stroke-dasharray="5,2" d="M783.04,-34C835.21,-34 903.32,-34 957.69,-34"/>
<polygon fill="#9a32cd" stroke="#9a32cd" points="782.82,-30.5 772.82,-34 782.82,-37.5 782.82,-30.5"/>
<text text-anchor="middle" x="869" y="-37" font-family="Helvetica,sans-Serif" font-size="10.00"> m_pointer</text>
</g>
<!-- Node6 -->
<g id="node6" class="node">
<title>Node6</title>
<g id="a_node6"><a xlink:href="class_perceptual_color_1_1_abstract_diagram.html" target="_top" xlink:title="Base class for LCh diagrams.">
<polygon fill="white" stroke="black" points="361,-61 361,-91 501,-91 501,-61 361,-61"/>
<text text-anchor="start" x="369" y="-79" font-family="Helvetica,sans-Serif" font-size="10.00">PerceptualColor::Abstract</text>
<text text-anchor="middle" x="431" y="-68" font-family="Helvetica,sans-Serif" font-size="10.00">Diagram</text>
</a>
</g>
</g>
<!-- Node6&#45;&gt;Node5 -->
<g id="edge6" class="edge">
<title>Node6&#45;&gt;Node5</title>
<path fill="none" stroke="midnightblue" d="M511.09,-63.63C548.84,-57.72 593.64,-50.72 630.19,-45"/>
<polygon fill="midnightblue" stroke="midnightblue" points="510.48,-60.18 501.15,-65.18 511.57,-67.1 510.48,-60.18"/>
</g>
<!-- Node7 -->
<g id="node7" class="node">
<title>Node7</title>
<g id="a_node7"><a xlink:href="class_perceptual_color_1_1_const_propagating_unique_pointer.html" target="_top" xlink:title=" ">
<polygon fill="white" stroke="black" points="0,-55.5 0,-96.5 239,-96.5 239,-55.5 0,-55.5"/>
<text text-anchor="start" x="8" y="-84.5" font-family="Helvetica,sans-Serif" font-size="10.00">PerceptualColor::ConstPropagating</text>
<text text-anchor="start" x="8" y="-73.5" font-family="Helvetica,sans-Serif" font-size="10.00">UniquePointer&lt; PerceptualColor</text>
<text text-anchor="middle" x="119.5" y="-62.5" font-family="Helvetica,sans-Serif" font-size="10.00">::AbstractDiagram::AbstractDiagramPrivate &gt;</text>
</a>
</g>
</g>
<!-- Node7&#45;&gt;Node6 -->
<g id="edge7" class="edge">
<title>Node7&#45;&gt;Node6</title>
<path fill="none" stroke="#9a32cd" stroke-dasharray="5,2" d="M249.45,-76C287.63,-76 327.96,-76 360.8,-76"/>
<polygon fill="#9a32cd" stroke="#9a32cd" points="249.28,-72.5 239.28,-76 249.28,-79.5 249.28,-72.5"/>
<text text-anchor="middle" x="281.5" y="-79" font-family="Helvetica,sans-Serif" font-size="10.00"> d_pointer</text>
</g>
<!-- Node8 -->
<g id="node8" class="node">
<title>Node8</title>
<g id="a_node8"><a xlink:href="class_perceptual_color_1_1_const_propagating_unique_pointer.html" target="_top" xlink:title=" ">
<polygon fill="white" stroke="black" points="324,-0.5 324,-41.5 538,-41.5 538,-0.5 324,-0.5"/>
<text text-anchor="start" x="332" y="-29.5" font-family="Helvetica,sans-Serif" font-size="10.00">PerceptualColor::ConstPropagating</text>
<text text-anchor="start" x="332" y="-18.5" font-family="Helvetica,sans-Serif" font-size="10.00">UniquePointer&lt; PerceptualColor</text>
<text text-anchor="middle" x="431" y="-7.5" font-family="Helvetica,sans-Serif" font-size="10.00">::GradientSlider::GradientSliderPrivate &gt;</text>
</a>
</g>
</g>
<!-- Node8&#45;&gt;Node5 -->
<g id="edge8" class="edge">
<title>Node8&#45;&gt;Node5</title>
<path fill="none" stroke="#9a32cd" stroke-dasharray="5,2" d="M548.33,-26.63C576.21,-27.98 605.14,-29.38 630.19,-30.6"/>
<polygon fill="#9a32cd" stroke="#9a32cd" points="548.28,-23.13 538.12,-26.14 547.94,-30.12 548.28,-23.13"/>
<text text-anchor="middle" x="580.5" y="-33" font-family="Helvetica,sans-Serif" font-size="10.00"> d_pointer</text>
</g>
</g>
</svg>
