<?xml version="1.0" encoding="UTF-8" standalone="no"?>
<!DOCTYPE svg PUBLIC "-//W3C//DTD SVG 1.1//EN"
 "http://www.w3.org/Graphics/SVG/1.1/DTD/svg11.dtd">
<!-- Generated by graphviz version 2.43.0 (0)
 -->
<!-- Title: PerceptualColor::ExtendedDoubleValidator Pages: 1 -->
<svg width="472pt" height="61pt"
 viewBox="0.00 0.00 472.00 61.00" xmlns="http://www.w3.org/2000/svg" xmlns:xlink="http://www.w3.org/1999/xlink">
<g id="graph0" class="graph" transform="scale(1 1) rotate(0) translate(4 57)">
<title>PerceptualColor::ExtendedDoubleValidator</title>
<polygon fill="white" stroke="transparent" points="-4,4 -4,-57 468,-57 468,4 -4,4"/>
<!-- Node1 -->
<g id="node1" class="node">
<title>Node1</title>
<g id="a_node1"><a xlink:title="The ExtendedDoubleValidator class provides range checking of floating&#45;point numbers with support for ...">
<polygon fill="#bfbfbf" stroke="black" points="318,-11.5 318,-41.5 464,-41.5 464,-11.5 318,-11.5"/>
<text text-anchor="start" x="326" y="-29.5" font-family="Helvetica,sans-Serif" font-size="10.00">PerceptualColor::Extended</text>
<text text-anchor="middle" x="391" y="-18.5" font-family="Helvetica,sans-Serif" font-size="10.00">DoubleValidator</text>
</a>
</g>
</g>
<!-- Node2 -->
<g id="node2" class="node">
<title>Node2</title>
<g id="a_node2"><a xlink:href="class_perceptual_color_1_1_const_propagating_unique_pointer.html" target="_top" xlink:title=" ">
<polygon fill="white" stroke="black" points="0,-0.5 0,-52.5 233,-52.5 233,-0.5 0,-0.5"/>
<text text-anchor="start" x="8" y="-40.5" font-family="Helvetica,sans-Serif" font-size="10.00">PerceptualColor::ConstPropagating</text>
<text text-anchor="start" x="8" y="-29.5" font-family="Helvetica,sans-Serif" font-size="10.00">UniquePointer&lt; PerceptualColor</text>
<text text-anchor="start" x="8" y="-18.5" font-family="Helvetica,sans-Serif" font-size="10.00">::ExtendedDoubleValidator::ExtendedDouble</text>
<text text-anchor="middle" x="116.5" y="-7.5" font-family="Helvetica,sans-Serif" font-size="10.00">ValidatorPrivate &gt;</text>
</a>
</g>
</g>
<!-- Node2&#45;&gt;Node1 -->
<g id="edge1" class="edge">
<title>Node2&#45;&gt;Node1</title>
<path fill="none" stroke="#9a32cd" stroke-dasharray="5,2" d="M243.21,-26.5C268.76,-26.5 294.81,-26.5 317.73,-26.5"/>
<polygon fill="#9a32cd" stroke="#9a32cd" points="243.06,-23 233.06,-26.5 243.06,-30 243.06,-23"/>
<text text-anchor="middle" x="275.5" y="-29.5" font-family="Helvetica,sans-Serif" font-size="10.00"> d_pointer</text>
</g>
</g>
</svg>
