<?xml version="1.0" encoding="UTF-8" standalone="no"?>
<!DOCTYPE svg PUBLIC "-//W3C//DTD SVG 1.1//EN"
 "http://www.w3.org/Graphics/SVG/1.1/DTD/svg11.dtd">
<!-- Generated by graphviz version 2.43.0 (0)
 -->
<!-- Title: PerceptualColor::ChromaLightnessDiagram Pages: 1 -->
<svg width="842pt" height="116pt"
 viewBox="0.00 0.00 842.00 115.50" xmlns="http://www.w3.org/2000/svg" xmlns:xlink="http://www.w3.org/1999/xlink">
<g id="graph0" class="graph" transform="scale(1 1) rotate(0) translate(4 111.5)">
<title>PerceptualColor::ChromaLightnessDiagram</title>
<polygon fill="white" stroke="transparent" points="-4,4 -4,-111.5 838,-111.5 838,4 -4,4"/>
<!-- Node1 -->
<g id="node1" class="node">
<title>Node1</title>
<g id="a_node1"><a xlink:title="A widget that displays a chroma&#45;lightness diagram.">
<polygon fill="#bfbfbf" stroke="black" points="649,-24.5 649,-54.5 834,-54.5 834,-24.5 649,-24.5"/>
<text text-anchor="start" x="657" y="-42.5" font-family="Helvetica,sans-Serif" font-size="10.00">PerceptualColor::ChromaLightness</text>
<text text-anchor="middle" x="741.5" y="-31.5" font-family="Helvetica,sans-Serif" font-size="10.00">Diagram</text>
</a>
</g>
</g>
<!-- Node2 -->
<g id="node2" class="node">
<title>Node2</title>
<g id="a_node2"><a xlink:href="class_perceptual_color_1_1_abstract_diagram.html" target="_top" xlink:title="Base class for LCh diagrams.">
<polygon fill="white" stroke="black" points="374,-71.5 374,-101.5 514,-101.5 514,-71.5 374,-71.5"/>
<text text-anchor="start" x="382" y="-89.5" font-family="Helvetica,sans-Serif" font-size="10.00">PerceptualColor::Abstract</text>
<text text-anchor="middle" x="444" y="-78.5" font-family="Helvetica,sans-Serif" font-size="10.00">Diagram</text>
</a>
</g>
</g>
<!-- Node2&#45;&gt;Node1 -->
<g id="edge1" class="edge">
<title>Node2&#45;&gt;Node1</title>
<path fill="none" stroke="midnightblue" d="M524.38,-73.87C562.78,-67.77 609.1,-60.4 648.98,-54.06"/>
<polygon fill="midnightblue" stroke="midnightblue" points="523.61,-70.45 514.28,-75.48 524.71,-77.37 523.61,-70.45"/>
</g>
<!-- Node3 -->
<g id="node3" class="node">
<title>Node3</title>
<g id="a_node3"><a xlink:href="class_perceptual_color_1_1_const_propagating_unique_pointer.html" target="_top" xlink:title=" ">
<polygon fill="white" stroke="black" points="0,-66 0,-107 239,-107 239,-66 0,-66"/>
<text text-anchor="start" x="8" y="-95" font-family="Helvetica,sans-Serif" font-size="10.00">PerceptualColor::ConstPropagating</text>
<text text-anchor="start" x="8" y="-84" font-family="Helvetica,sans-Serif" font-size="10.00">UniquePointer&lt; PerceptualColor</text>
<text text-anchor="middle" x="119.5" y="-73" font-family="Helvetica,sans-Serif" font-size="10.00">::AbstractDiagram::AbstractDiagramPrivate &gt;</text>
</a>
</g>
</g>
<!-- Node3&#45;&gt;Node2 -->
<g id="edge2" class="edge">
<title>Node3&#45;&gt;Node2</title>
<path fill="none" stroke="#9a32cd" stroke-dasharray="5,2" d="M249.36,-86.5C291.85,-86.5 337.45,-86.5 373.73,-86.5"/>
<polygon fill="#9a32cd" stroke="#9a32cd" points="249.21,-83 239.21,-86.5 249.21,-90 249.21,-83"/>
<text text-anchor="middle" x="281.5" y="-89.5" font-family="Helvetica,sans-Serif" font-size="10.00"> d_pointer</text>
</g>
<!-- Node4 -->
<g id="node4" class="node">
<title>Node4</title>
<g id="a_node4"><a xlink:href="class_perceptual_color_1_1_const_propagating_unique_pointer.html" target="_top" xlink:title=" ">
<polygon fill="white" stroke="black" points="324,-0.5 324,-52.5 564,-52.5 564,-0.5 324,-0.5"/>
<text text-anchor="start" x="332" y="-40.5" font-family="Helvetica,sans-Serif" font-size="10.00">PerceptualColor::ConstPropagating</text>
<text text-anchor="start" x="332" y="-29.5" font-family="Helvetica,sans-Serif" font-size="10.00">UniquePointer&lt; PerceptualColor</text>
<text text-anchor="start" x="332" y="-18.5" font-family="Helvetica,sans-Serif" font-size="10.00">::ChromaLightnessDiagram::ChromaLightness</text>
<text text-anchor="middle" x="444" y="-7.5" font-family="Helvetica,sans-Serif" font-size="10.00">DiagramPrivate &gt;</text>
</a>
</g>
</g>
<!-- Node4&#45;&gt;Node1 -->
<g id="edge3" class="edge">
<title>Node4&#45;&gt;Node1</title>
<path fill="none" stroke="#9a32cd" stroke-dasharray="5,2" d="M574.64,-32.2C599.66,-33.3 625.4,-34.44 648.9,-35.47"/>
<polygon fill="#9a32cd" stroke="#9a32cd" points="574.48,-28.69 564.34,-31.75 574.18,-35.69 574.48,-28.69"/>
<text text-anchor="middle" x="606.5" y="-38.5" font-family="Helvetica,sans-Serif" font-size="10.00"> d_pointer</text>
</g>
</g>
</svg>
