<?xml version="1.0" encoding="UTF-8" standalone="no"?>
<!DOCTYPE svg PUBLIC "-//W3C//DTD SVG 1.1//EN"
 "http://www.w3.org/Graphics/SVG/1.1/DTD/svg11.dtd">
<!-- Generated by graphviz version 2.43.0 (0)
 -->
<!-- Title: PerceptualColor::MultiSpinBox Pages: 1 -->
<svg width="460pt" height="50pt"
 viewBox="0.00 0.00 460.00 50.00" xmlns="http://www.w3.org/2000/svg" xmlns:xlink="http://www.w3.org/1999/xlink">
<g id="graph0" class="graph" transform="scale(1 1) rotate(0) translate(4 46)">
<title>PerceptualColor::MultiSpinBox</title>
<polygon fill="white" stroke="transparent" points="-4,4 -4,-46 456,-46 456,4 -4,4"/>
<!-- Node1 -->
<g id="node1" class="node">
<title>Node1</title>
<g id="a_node1"><a xlink:title="A spin box that can hold multiple sections (each with its own value) at the same time.">
<polygon fill="#bfbfbf" stroke="black" points="288,-11.5 288,-30.5 452,-30.5 452,-11.5 288,-11.5"/>
<text text-anchor="middle" x="370" y="-18.5" font-family="Helvetica,sans-Serif" font-size="10.00">PerceptualColor::MultiSpinBox</text>
</a>
</g>
</g>
<!-- Node2 -->
<g id="node2" class="node">
<title>Node2</title>
<g id="a_node2"><a xlink:href="class_perceptual_color_1_1_const_propagating_unique_pointer.html" target="_top" xlink:title=" ">
<polygon fill="white" stroke="black" points="0,-0.5 0,-41.5 203,-41.5 203,-0.5 0,-0.5"/>
<text text-anchor="start" x="8" y="-29.5" font-family="Helvetica,sans-Serif" font-size="10.00">PerceptualColor::ConstPropagating</text>
<text text-anchor="start" x="8" y="-18.5" font-family="Helvetica,sans-Serif" font-size="10.00">UniquePointer&lt; PerceptualColor</text>
<text text-anchor="middle" x="101.5" y="-7.5" font-family="Helvetica,sans-Serif" font-size="10.00">::MultiSpinBox::MultiSpinBoxPrivate &gt;</text>
</a>
</g>
</g>
<!-- Node2&#45;&gt;Node1 -->
<g id="edge1" class="edge">
<title>Node2&#45;&gt;Node1</title>
<path fill="none" stroke="#9a32cd" stroke-dasharray="5,2" d="M213.45,-21C238.3,-21 264.21,-21 287.6,-21"/>
<polygon fill="#9a32cd" stroke="#9a32cd" points="213.25,-17.5 203.25,-21 213.25,-24.5 213.25,-17.5"/>
<text text-anchor="middle" x="245.5" y="-24" font-family="Helvetica,sans-Serif" font-size="10.00"> d_pointer</text>
</g>
</g>
</svg>
