<?xml version="1.0" encoding="UTF-8" standalone="no"?>
<!DOCTYPE svg PUBLIC "-//W3C//DTD SVG 1.1//EN"
 "http://www.w3.org/Graphics/SVG/1.1/DTD/svg11.dtd">
<!-- Generated by graphviz version 2.43.0 (0)
 -->
<!-- Title: PerceptualColor::ChromaHueDiagram::ChromaHueDiagramPrivate Pages: 1 -->
<svg width="1465pt" height="188pt"
 viewBox="0.00 0.00 1465.00 187.50" xmlns="http://www.w3.org/2000/svg" xmlns:xlink="http://www.w3.org/1999/xlink">
<g id="graph0" class="graph" transform="scale(1 1) rotate(0) translate(4 183.5)">
<title>PerceptualColor::ChromaHueDiagram::ChromaHueDiagramPrivate</title>
<polygon fill="white" stroke="transparent" points="-4,4 -4,-183.5 1461,-183.5 1461,4 -4,4"/>
<!-- Node1 -->
<g id="node1" class="node">
<title>Node1</title>
<g id="a_node1"><a xlink:title="Private implementation within the Pointer to implementation idiom.">
<polygon fill="#bfbfbf" stroke="black" points="1258,-92.5 1258,-122.5 1457,-122.5 1457,-92.5 1258,-92.5"/>
<text text-anchor="start" x="1266" y="-110.5" font-family="Helvetica,sans-Serif" font-size="10.00">PerceptualColor::ChromaHue</text>
<text text-anchor="middle" x="1357.5" y="-99.5" font-family="Helvetica,sans-Serif" font-size="10.00">Diagram::ChromaHueDiagramPrivate</text>
</a>
</g>
</g>
<!-- Node2 -->
<g id="node2" class="node">
<title>Node2</title>
<g id="a_node2"><a xlink:href="struct_perceptual_color_1_1_lch_double.html" target="_top" xlink:title="A LCH color.">
<polygon fill="white" stroke="black" points="947.5,-160 947.5,-179 1098.5,-179 1098.5,-160 947.5,-160"/>
<text text-anchor="middle" x="1023" y="-167" font-family="Helvetica,sans-Serif" font-size="10.00">PerceptualColor::LchDouble</text>
</a>
</g>
</g>
<!-- Node2&#45;&gt;Node1 -->
<g id="edge1" class="edge">
<title>Node2&#45;&gt;Node1</title>
<path fill="none" stroke="#9a32cd" stroke-dasharray="5,2" d="M1096.68,-158.4C1138.67,-151.73 1192.43,-142.77 1240,-133.5 1256.98,-130.19 1275.28,-126.28 1292.23,-122.5"/>
<polygon fill="#9a32cd" stroke="#9a32cd" points="1095.88,-154.98 1086.55,-160 1096.97,-161.89 1095.88,-154.98"/>
<text text-anchor="middle" x="1187" y="-153.5" font-family="Helvetica,sans-Serif" font-size="10.00"> m_currentColor</text>
</g>
<!-- Node3 -->
<g id="node3" class="node">
<title>Node3</title>
<g id="a_node3"><a xlink:href="class_perceptual_color_1_1_color_wheel_image.html" target="_top" xlink:title="An image of a color wheel.">
<polygon fill="white" stroke="black" points="945,-110.5 945,-140.5 1101,-140.5 1101,-110.5 945,-110.5"/>
<text text-anchor="start" x="953" y="-128.5" font-family="Helvetica,sans-Serif" font-size="10.00">PerceptualColor::ColorWheel</text>
<text text-anchor="middle" x="1023" y="-117.5" font-family="Helvetica,sans-Serif" font-size="10.00">Image</text>
</a>
</g>
</g>
<!-- Node3&#45;&gt;Node1 -->
<g id="edge2" class="edge">
<title>Node3&#45;&gt;Node1</title>
<path fill="none" stroke="#9a32cd" stroke-dasharray="5,2" d="M1111.14,-120.78C1156.11,-118.35 1211.15,-115.37 1257.7,-112.85"/>
<polygon fill="#9a32cd" stroke="#9a32cd" points="1110.91,-117.29 1101.12,-121.33 1111.29,-124.28 1110.91,-117.29"/>
<text text-anchor="middle" x="1187" y="-121.5" font-family="Helvetica,sans-Serif" font-size="10.00"> m_wheelImage</text>
</g>
<!-- Node4 -->
<g id="node4" class="node">
<title>Node4</title>
<g id="a_node4"><a xlink:href="class_perceptual_color_1_1_const_propagating_raw_pointer.html" target="_top" xlink:title=" ">
<polygon fill="white" stroke="black" points="930,-50 930,-91 1116,-91 1116,-50 930,-50"/>
<text text-anchor="start" x="938" y="-79" font-family="Helvetica,sans-Serif" font-size="10.00">PerceptualColor::ConstPropagating</text>
<text text-anchor="start" x="938" y="-68" font-family="Helvetica,sans-Serif" font-size="10.00">RawPointer&lt; PerceptualColor</text>
<text text-anchor="middle" x="1023" y="-57" font-family="Helvetica,sans-Serif" font-size="10.00">::ChromaHueDiagram &gt;</text>
</a>
</g>
</g>
<!-- Node4&#45;&gt;Node1 -->
<g id="edge3" class="edge">
<title>Node4&#45;&gt;Node1</title>
<path fill="none" stroke="#9a32cd" stroke-dasharray="5,2" d="M1126.38,-81.89C1168.18,-86.54 1216.32,-91.9 1257.74,-96.51"/>
<polygon fill="#9a32cd" stroke="#9a32cd" points="1126.5,-78.38 1116.18,-80.76 1125.73,-85.34 1126.5,-78.38"/>
<text text-anchor="middle" x="1187" y="-96.5" font-family="Helvetica,sans-Serif" font-size="10.00"> q_pointer</text>
</g>
<!-- Node5 -->
<g id="node5" class="node">
<title>Node5</title>
<g id="a_node5"><a xlink:href="class_perceptual_color_1_1_chroma_hue_diagram.html" target="_top" xlink:title="A widget for selecting chroma and hue in LCh color space.">
<polygon fill="white" stroke="black" points="683,-55.5 683,-85.5 841,-85.5 841,-55.5 683,-55.5"/>
<text text-anchor="start" x="691" y="-73.5" font-family="Helvetica,sans-Serif" font-size="10.00">PerceptualColor::ChromaHue</text>
<text text-anchor="middle" x="762" y="-62.5" font-family="Helvetica,sans-Serif" font-size="10.00">Diagram</text>
</a>
</g>
</g>
<!-- Node5&#45;&gt;Node4 -->
<g id="edge4" class="edge">
<title>Node5&#45;&gt;Node4</title>
<path fill="none" stroke="#9a32cd" stroke-dasharray="5,2" d="M851.39,-70.5C876.73,-70.5 904.42,-70.5 929.97,-70.5"/>
<polygon fill="#9a32cd" stroke="#9a32cd" points="851.06,-67 841.06,-70.5 851.06,-74 851.06,-67"/>
<text text-anchor="middle" x="885.5" y="-73.5" font-family="Helvetica,sans-Serif" font-size="10.00"> m_pointer</text>
</g>
<!-- Node6 -->
<g id="node6" class="node">
<title>Node6</title>
<g id="a_node6"><a xlink:href="class_perceptual_color_1_1_abstract_diagram.html" target="_top" xlink:title="Base class for LCh diagrams.">
<polygon fill="white" stroke="black" points="391,-97.5 391,-127.5 531,-127.5 531,-97.5 391,-97.5"/>
<text text-anchor="start" x="399" y="-115.5" font-family="Helvetica,sans-Serif" font-size="10.00">PerceptualColor::Abstract</text>
<text text-anchor="middle" x="461" y="-104.5" font-family="Helvetica,sans-Serif" font-size="10.00">Diagram</text>
</a>
</g>
</g>
<!-- Node6&#45;&gt;Node5 -->
<g id="edge5" class="edge">
<title>Node6&#45;&gt;Node5</title>
<path fill="none" stroke="midnightblue" d="M541.37,-101.35C585.13,-95.2 639.24,-87.6 682.81,-81.48"/>
<polygon fill="midnightblue" stroke="midnightblue" points="540.76,-97.9 531.35,-102.76 541.74,-104.83 540.76,-97.9"/>
</g>
<!-- Node7 -->
<g id="node7" class="node">
<title>Node7</title>
<g id="a_node7"><a xlink:href="class_perceptual_color_1_1_const_propagating_unique_pointer.html" target="_top" xlink:title=" ">
<polygon fill="white" stroke="black" points="0,-92 0,-133 239,-133 239,-92 0,-92"/>
<text text-anchor="start" x="8" y="-121" font-family="Helvetica,sans-Serif" font-size="10.00">PerceptualColor::ConstPropagating</text>
<text text-anchor="start" x="8" y="-110" font-family="Helvetica,sans-Serif" font-size="10.00">UniquePointer&lt; PerceptualColor</text>
<text text-anchor="middle" x="119.5" y="-99" font-family="Helvetica,sans-Serif" font-size="10.00">::AbstractDiagram::AbstractDiagramPrivate &gt;</text>
</a>
</g>
</g>
<!-- Node7&#45;&gt;Node6 -->
<g id="edge6" class="edge">
<title>Node7&#45;&gt;Node6</title>
<path fill="none" stroke="#9a32cd" stroke-dasharray="5,2" d="M249.42,-112.5C297.47,-112.5 350.16,-112.5 390.82,-112.5"/>
<polygon fill="#9a32cd" stroke="#9a32cd" points="249.24,-109 239.24,-112.5 249.24,-116 249.24,-109"/>
<text text-anchor="middle" x="281.5" y="-115.5" font-family="Helvetica,sans-Serif" font-size="10.00"> d_pointer</text>
</g>
<!-- Node8 -->
<g id="node8" class="node">
<title>Node8</title>
<g id="a_node8"><a xlink:href="class_perceptual_color_1_1_const_propagating_unique_pointer.html" target="_top" xlink:title=" ">
<polygon fill="white" stroke="black" points="324,-37 324,-78 598,-78 598,-37 324,-37"/>
<text text-anchor="start" x="332" y="-66" font-family="Helvetica,sans-Serif" font-size="10.00">PerceptualColor::ConstPropagating</text>
<text text-anchor="start" x="332" y="-55" font-family="Helvetica,sans-Serif" font-size="10.00">UniquePointer&lt; PerceptualColor</text>
<text text-anchor="middle" x="461" y="-44" font-family="Helvetica,sans-Serif" font-size="10.00">::ChromaHueDiagram::ChromaHueDiagramPrivate &gt;</text>
</a>
</g>
</g>
<!-- Node8&#45;&gt;Node5 -->
<g id="edge7" class="edge">
<title>Node8&#45;&gt;Node5</title>
<path fill="none" stroke="#9a32cd" stroke-dasharray="5,2" d="M608.58,-63.87C634.22,-64.99 659.98,-66.11 682.84,-67.1"/>
<polygon fill="#9a32cd" stroke="#9a32cd" points="608.52,-60.37 598.38,-63.43 608.21,-67.36 608.52,-60.37"/>
<text text-anchor="middle" x="640.5" y="-69.5" font-family="Helvetica,sans-Serif" font-size="10.00"> d_pointer</text>
</g>
<!-- Node9 -->
<g id="node9" class="node">
<title>Node9</title>
<g id="a_node9"><a xlink:href="class_perceptual_color_1_1_chroma_hue_image.html" target="_top" xlink:title="An image of a chroma hue plane.">
<polygon fill="white" stroke="black" points="944,-0.5 944,-30.5 1102,-30.5 1102,-0.5 944,-0.5"/>
<text text-anchor="start" x="952" y="-18.5" font-family="Helvetica,sans-Serif" font-size="10.00">PerceptualColor::ChromaHue</text>
<text text-anchor="middle" x="1023" y="-7.5" font-family="Helvetica,sans-Serif" font-size="10.00">Image</text>
</a>
</g>
</g>
<!-- Node9&#45;&gt;Node1 -->
<g id="edge8" class="edge">
<title>Node9&#45;&gt;Node1</title>
<path fill="none" stroke="#9a32cd" stroke-dasharray="5,2" d="M1101.26,-32.83C1142.63,-42.51 1194.33,-55.28 1240,-68.5 1264.89,-75.71 1292.4,-84.86 1314.43,-92.48"/>
<polygon fill="#9a32cd" stroke="#9a32cd" points="1102.05,-29.42 1091.51,-30.56 1100.46,-36.23 1102.05,-29.42"/>
<text text-anchor="middle" x="1187" y="-71.5" font-family="Helvetica,sans-Serif" font-size="10.00"> m_chromaHueImage</text>
</g>
</g>
</svg>
