<?xml version="1.0" encoding="UTF-8" standalone="no"?>
<!DOCTYPE svg PUBLIC "-//W3C//DTD SVG 1.1//EN"
 "http://www.w3.org/Graphics/SVG/1.1/DTD/svg11.dtd">
<!-- Generated by graphviz version 2.43.0 (0)
 -->
<!-- Title: src/colorpatch_p.h Pages: 1 -->
<svg width="625pt" height="252pt"
 viewBox="0.00 0.00 625.30 252.00" xmlns="http://www.w3.org/2000/svg" xmlns:xlink="http://www.w3.org/1999/xlink">
<g id="graph0" class="graph" transform="scale(1 1) rotate(0) translate(4 248)">
<title>src/colorpatch_p.h</title>
<polygon fill="white" stroke="transparent" points="-4,4 -4,-248 621.3,-248 621.3,4 -4,4"/>
<!-- Node1 -->
<g id="node1" class="node">
<title>Node1</title>
<g id="a_node1"><a xlink:title=" ">
<polygon fill="#bfbfbf" stroke="black" points="411,-224.5 411,-243.5 516,-243.5 516,-224.5 411,-224.5"/>
<text text-anchor="middle" x="463.5" y="-231.5" font-family="Helvetica,sans-Serif" font-size="10.00">src/colorpatch_p.h</text>
</a>
</g>
</g>
<!-- Node2 -->
<g id="node2" class="node">
<title>Node2</title>
<g id="a_node2"><a xlink:href="perceptualcolorglobal_8h.html" target="_top" xlink:title=" ">
<polygon fill="white" stroke="black" points="350.5,-56.5 350.5,-75.5 562.5,-75.5 562.5,-56.5 350.5,-56.5"/>
<text text-anchor="middle" x="456.5" y="-63.5" font-family="Helvetica,sans-Serif" font-size="10.00">PerceptualColor/perceptualcolorglobal.h</text>
</a>
</g>
</g>
<!-- Node1&#45;&gt;Node2 -->
<g id="edge1" class="edge">
<title>Node1&#45;&gt;Node2</title>
<path fill="none" stroke="midnightblue" d="M516.27,-231.5C548.52,-227.51 587.47,-216.54 608.5,-188 645.11,-138.3 551.7,-97.82 495.45,-78.78"/>
<polygon fill="midnightblue" stroke="midnightblue" points="496.35,-75.39 485.76,-75.58 494.16,-82.04 496.35,-75.39"/>
</g>
<!-- Node4 -->
<g id="node4" class="node">
<title>Node4</title>
<g id="a_node4"><a xlink:href="perceptualcolorinternal_8h.html" target="_top" xlink:title=" ">
<polygon fill="white" stroke="black" points="387,-112.5 387,-131.5 526,-131.5 526,-112.5 387,-112.5"/>
<text text-anchor="middle" x="456.5" y="-119.5" font-family="Helvetica,sans-Serif" font-size="10.00">perceptualcolorinternal.h</text>
</a>
</g>
</g>
<!-- Node1&#45;&gt;Node4 -->
<g id="edge3" class="edge">
<title>Node1&#45;&gt;Node4</title>
<path fill="none" stroke="midnightblue" d="M453.94,-224.45C445.41,-216.12 433.51,-202.6 428.5,-188 422.73,-171.19 432.42,-152.63 441.94,-139.66"/>
<polygon fill="midnightblue" stroke="midnightblue" points="444.81,-141.67 448.31,-131.66 439.34,-137.3 444.81,-141.67"/>
</g>
<!-- Node5 -->
<g id="node5" class="node">
<title>Node5</title>
<g id="a_node5"><a xlink:href="colorpatch_8h.html" target="_top" xlink:title=" ">
<polygon fill="white" stroke="black" points="224,-168.5 224,-187.5 381,-187.5 381,-168.5 224,-168.5"/>
<text text-anchor="middle" x="302.5" y="-175.5" font-family="Helvetica,sans-Serif" font-size="10.00">PerceptualColor/colorpatch.h</text>
</a>
</g>
</g>
<!-- Node1&#45;&gt;Node5 -->
<g id="edge5" class="edge">
<title>Node1&#45;&gt;Node5</title>
<path fill="none" stroke="midnightblue" d="M437.99,-224.44C410.9,-215.36 367.91,-200.94 337.63,-190.78"/>
<polygon fill="midnightblue" stroke="midnightblue" points="338.49,-187.38 327.89,-187.52 336.26,-194.01 338.49,-187.38"/>
</g>
<!-- Node9 -->
<g id="node9" class="node">
<title>Node9</title>
<g id="a_node9"><a xlink:href="constpropagatingrawpointer_8h.html" target="_top" xlink:title=" ">
<polygon fill="white" stroke="black" points="437.5,-168.5 437.5,-187.5 599.5,-187.5 599.5,-168.5 437.5,-168.5"/>
<text text-anchor="middle" x="518.5" y="-175.5" font-family="Helvetica,sans-Serif" font-size="10.00">constpropagatingrawpointer.h</text>
</a>
</g>
</g>
<!-- Node1&#45;&gt;Node9 -->
<g id="edge11" class="edge">
<title>Node1&#45;&gt;Node9</title>
<path fill="none" stroke="midnightblue" d="M472.58,-224.08C480.67,-216.14 492.7,-204.34 502.41,-194.8"/>
<polygon fill="midnightblue" stroke="midnightblue" points="504.9,-197.25 509.59,-187.75 500,-192.26 504.9,-197.25"/>
</g>
<!-- Node3 -->
<g id="node3" class="node">
<title>Node3</title>
<g id="a_node3"><a xlink:title=" ">
<polygon fill="white" stroke="#bfbfbf" points="427,-0.5 427,-19.5 486,-19.5 486,-0.5 427,-0.5"/>
<text text-anchor="middle" x="456.5" y="-7.5" font-family="Helvetica,sans-Serif" font-size="10.00">QtGlobal</text>
</a>
</g>
</g>
<!-- Node2&#45;&gt;Node3 -->
<g id="edge2" class="edge">
<title>Node2&#45;&gt;Node3</title>
<path fill="none" stroke="midnightblue" d="M456.5,-56.08C456.5,-49.01 456.5,-38.86 456.5,-29.99"/>
<polygon fill="midnightblue" stroke="midnightblue" points="460,-29.75 456.5,-19.75 453,-29.75 460,-29.75"/>
</g>
<!-- Node4&#45;&gt;Node2 -->
<g id="edge4" class="edge">
<title>Node4&#45;&gt;Node2</title>
<path fill="none" stroke="midnightblue" d="M456.5,-112.08C456.5,-105.01 456.5,-94.86 456.5,-85.99"/>
<polygon fill="midnightblue" stroke="midnightblue" points="460,-85.75 456.5,-75.75 453,-85.75 460,-85.75"/>
</g>
<!-- Node5&#45;&gt;Node2 -->
<g id="edge6" class="edge">
<title>Node5&#45;&gt;Node2</title>
<path fill="none" stroke="midnightblue" d="M311.41,-168.42C325.17,-155.4 352.7,-130.24 378.5,-112 395.1,-100.27 414.95,-88.84 430.48,-80.44"/>
<polygon fill="midnightblue" stroke="midnightblue" points="432.34,-83.42 439.52,-75.63 429.05,-77.24 432.34,-83.42"/>
</g>
<!-- Node6 -->
<g id="node6" class="node">
<title>Node6</title>
<g id="a_node6"><a xlink:title=" ">
<polygon fill="white" stroke="#bfbfbf" points="275,-112.5 275,-131.5 330,-131.5 330,-112.5 275,-112.5"/>
<text text-anchor="middle" x="302.5" y="-119.5" font-family="Helvetica,sans-Serif" font-size="10.00">QFrame</text>
</a>
</g>
</g>
<!-- Node5&#45;&gt;Node6 -->
<g id="edge7" class="edge">
<title>Node5&#45;&gt;Node6</title>
<path fill="none" stroke="midnightblue" d="M302.5,-168.08C302.5,-161.01 302.5,-150.86 302.5,-141.99"/>
<polygon fill="midnightblue" stroke="midnightblue" points="306,-141.75 302.5,-131.75 299,-141.75 306,-141.75"/>
</g>
<!-- Node7 -->
<g id="node7" class="node">
<title>Node7</title>
<g id="a_node7"><a xlink:href="constpropagatinguniquepointer_8h.html" target="_top" xlink:title=" ">
<polygon fill="white" stroke="black" points="0,-112.5 0,-131.5 257,-131.5 257,-112.5 0,-112.5"/>
<text text-anchor="middle" x="128.5" y="-119.5" font-family="Helvetica,sans-Serif" font-size="10.00">PerceptualColor/constpropagatinguniquepointer.h</text>
</a>
</g>
</g>
<!-- Node5&#45;&gt;Node7 -->
<g id="edge8" class="edge">
<title>Node5&#45;&gt;Node7</title>
<path fill="none" stroke="midnightblue" d="M274.93,-168.44C245.4,-159.28 198.38,-144.69 165.62,-134.52"/>
<polygon fill="midnightblue" stroke="midnightblue" points="166.53,-131.14 155.94,-131.52 164.46,-137.82 166.53,-131.14"/>
</g>
<!-- Node7&#45;&gt;Node2 -->
<g id="edge9" class="edge">
<title>Node7&#45;&gt;Node2</title>
<path fill="none" stroke="midnightblue" d="M180.47,-112.44C238.65,-102.87 332.86,-87.36 394.75,-77.17"/>
<polygon fill="midnightblue" stroke="midnightblue" points="395.47,-80.59 404.77,-75.52 394.33,-73.69 395.47,-80.59"/>
</g>
<!-- Node8 -->
<g id="node8" class="node">
<title>Node8</title>
<g id="a_node8"><a xlink:title=" ">
<polygon fill="white" stroke="#bfbfbf" points="99.5,-56.5 99.5,-75.5 157.5,-75.5 157.5,-56.5 99.5,-56.5"/>
<text text-anchor="middle" x="128.5" y="-63.5" font-family="Helvetica,sans-Serif" font-size="10.00">memory</text>
</a>
</g>
</g>
<!-- Node7&#45;&gt;Node8 -->
<g id="edge10" class="edge">
<title>Node7&#45;&gt;Node8</title>
<path fill="none" stroke="midnightblue" d="M128.5,-112.08C128.5,-105.01 128.5,-94.86 128.5,-85.99"/>
<polygon fill="midnightblue" stroke="midnightblue" points="132,-85.75 128.5,-75.75 125,-85.75 132,-85.75"/>
</g>
<!-- Node9&#45;&gt;Node2 -->
<g id="edge12" class="edge">
<title>Node9&#45;&gt;Node2</title>
<path fill="none" stroke="midnightblue" d="M524.61,-168.45C533.08,-155.46 546.17,-130.35 535.5,-112 526.76,-96.97 510.92,-86.54 495.71,-79.54"/>
<polygon fill="midnightblue" stroke="midnightblue" points="496.96,-76.27 486.38,-75.61 494.24,-82.72 496.96,-76.27"/>
</g>
<!-- Node9&#45;&gt;Node4 -->
<g id="edge13" class="edge">
<title>Node9&#45;&gt;Node4</title>
<path fill="none" stroke="midnightblue" d="M508.54,-168.32C499.37,-160.34 485.56,-148.31 474.47,-138.65"/>
<polygon fill="midnightblue" stroke="midnightblue" points="476.48,-135.76 466.64,-131.83 471.88,-141.04 476.48,-135.76"/>
</g>
</g>
</svg>
