<?xml version="1.0" encoding="UTF-8" standalone="no"?>
<!DOCTYPE svg PUBLIC "-//W3C//DTD SVG 1.1//EN"
 "http://www.w3.org/Graphics/SVG/1.1/DTD/svg11.dtd">
<!-- Generated by graphviz version 2.43.0 (0)
 -->
<!-- Title: include/PerceptualColor/colordialog.h Pages: 1 -->
<svg width="169pt" height="151pt"
 viewBox="0.00 0.00 169.00 151.00" xmlns="http://www.w3.org/2000/svg" xmlns:xlink="http://www.w3.org/1999/xlink">
<g id="graph0" class="graph" transform="scale(1 1) rotate(0) translate(4 147)">
<title>include/PerceptualColor/colordialog.h</title>
<polygon fill="white" stroke="transparent" points="-4,4 -4,-147 165,-147 165,4 -4,4"/>
<!-- Node1 -->
<g id="node1" class="node">
<title>Node1</title>
<g id="a_node1"><a xlink:title=" ">
<polygon fill="#bfbfbf" stroke="black" points="0,-112.5 0,-142.5 132,-142.5 132,-112.5 0,-112.5"/>
<text text-anchor="start" x="8" y="-130.5" font-family="Helvetica,sans-Serif" font-size="10.00">include/PerceptualColor</text>
<text text-anchor="middle" x="66" y="-119.5" font-family="Helvetica,sans-Serif" font-size="10.00">/colordialog.h</text>
</a>
</g>
</g>
<!-- Node2 -->
<g id="node2" class="node">
<title>Node2</title>
<g id="a_node2"><a xlink:href="colordialog_8cpp.html" target="_top" xlink:title=" ">
<polygon fill="white" stroke="black" points="12,-0.5 12,-19.5 120,-19.5 120,-0.5 12,-0.5"/>
<text text-anchor="middle" x="66" y="-7.5" font-family="Helvetica,sans-Serif" font-size="10.00">src/colordialog.cpp</text>
</a>
</g>
</g>
<!-- Node1&#45;&gt;Node2 -->
<g id="edge1" class="edge">
<title>Node1&#45;&gt;Node2</title>
<path fill="none" stroke="midnightblue" d="M52.22,-103.22C45.8,-89.6 40.3,-71.98 44,-56 47.14,-42.44 54.95,-28.26 60.36,-19.52"/>
<polygon fill="midnightblue" stroke="midnightblue" points="49.24,-105.08 56.94,-112.36 55.46,-101.87 49.24,-105.08"/>
</g>
<!-- Node3 -->
<g id="node3" class="node">
<title>Node3</title>
<g id="a_node3"><a xlink:href="colordialog__p_8h.html" target="_top" xlink:title=" ">
<polygon fill="white" stroke="black" points="53,-56.5 53,-75.5 161,-75.5 161,-56.5 53,-56.5"/>
<text text-anchor="middle" x="107" y="-63.5" font-family="Helvetica,sans-Serif" font-size="10.00">src/colordialog_p.h</text>
</a>
</g>
</g>
<!-- Node1&#45;&gt;Node3 -->
<g id="edge2" class="edge">
<title>Node1&#45;&gt;Node3</title>
<path fill="none" stroke="midnightblue" d="M81.43,-104.1C88.27,-94.19 95.9,-83.11 101.03,-75.66"/>
<polygon fill="midnightblue" stroke="midnightblue" points="78.51,-102.18 75.72,-112.4 84.27,-106.15 78.51,-102.18"/>
</g>
<!-- Node3&#45;&gt;Node2 -->
<g id="edge3" class="edge">
<title>Node3&#45;&gt;Node2</title>
<path fill="none" stroke="midnightblue" d="M93.98,-47.86C86.88,-38.5 78.4,-27.33 72.64,-19.75"/>
<polygon fill="midnightblue" stroke="midnightblue" points="91.39,-50.24 100.23,-56.08 96.97,-46 91.39,-50.24"/>
</g>
</g>
</svg>
