<?xml version="1.0" encoding="UTF-8" standalone="no"?>
<!DOCTYPE svg PUBLIC "-//W3C//DTD SVG 1.1//EN"
 "http://www.w3.org/Graphics/SVG/1.1/DTD/svg11.dtd">
<!-- Generated by graphviz version 2.43.0 (0)
 -->
<!-- Title: src/colorwheel.cpp Pages: 1 -->
<svg width="1824pt" height="364pt"
 viewBox="0.00 0.00 1824.44 364.00" xmlns="http://www.w3.org/2000/svg" xmlns:xlink="http://www.w3.org/1999/xlink">
<g id="graph0" class="graph" transform="scale(1 1) rotate(0) translate(4 360)">
<title>src/colorwheel.cpp</title>
<polygon fill="white" stroke="transparent" points="-4,4 -4,-360 1820.44,-360 1820.44,4 -4,4"/>
<!-- Node1 -->
<g id="node1" class="node">
<title>Node1</title>
<g id="a_node1"><a xlink:title=" ">
<polygon fill="#bfbfbf" stroke="black" points="1333,-336.5 1333,-355.5 1440,-355.5 1440,-336.5 1333,-336.5"/>
<text text-anchor="middle" x="1386.5" y="-343.5" font-family="Helvetica,sans-Serif" font-size="10.00">src/colorwheel.cpp</text>
</a>
</g>
</g>
<!-- Node2 -->
<g id="node2" class="node">
<title>Node2</title>
<g id="a_node2"><a xlink:href="perceptualcolorglobal_8h.html" target="_top" xlink:title=" ">
<polygon fill="white" stroke="black" points="559.5,-56.5 559.5,-75.5 771.5,-75.5 771.5,-56.5 559.5,-56.5"/>
<text text-anchor="middle" x="665.5" y="-63.5" font-family="Helvetica,sans-Serif" font-size="10.00">PerceptualColor/perceptualcolorglobal.h</text>
</a>
</g>
</g>
<!-- Node1&#45;&gt;Node2 -->
<g id="edge1" class="edge">
<title>Node1&#45;&gt;Node2</title>
<path fill="none" stroke="midnightblue" d="M1332.87,-344.45C1132.54,-341.7 439.5,-325.62 439.5,-235 439.5,-235 439.5,-235 439.5,-177 439.5,-117.27 504.11,-89.97 564.24,-77.49"/>
<polygon fill="midnightblue" stroke="midnightblue" points="565.08,-80.89 574.23,-75.54 563.74,-74.02 565.08,-80.89"/>
</g>
<!-- Node4 -->
<g id="node4" class="node">
<title>Node4</title>
<g id="a_node4"><a xlink:href="perceptualcolorinternal_8h.html" target="_top" xlink:title=" ">
<polygon fill="white" stroke="black" points="870,-112.5 870,-131.5 1009,-131.5 1009,-112.5 870,-112.5"/>
<text text-anchor="middle" x="939.5" y="-119.5" font-family="Helvetica,sans-Serif" font-size="10.00">perceptualcolorinternal.h</text>
</a>
</g>
</g>
<!-- Node1&#45;&gt;Node4 -->
<g id="edge3" class="edge">
<title>Node1&#45;&gt;Node4</title>
<path fill="none" stroke="midnightblue" d="M1369.25,-336.43C1300.95,-302.51 1049.14,-177.45 966.19,-136.26"/>
<polygon fill="midnightblue" stroke="midnightblue" points="967.45,-132.97 956.94,-131.66 964.34,-139.24 967.45,-132.97"/>
</g>
<!-- Node5 -->
<g id="node5" class="node">
<title>Node5</title>
<g id="a_node5"><a xlink:href="colorwheel_8h.html" target="_top" xlink:title=" ">
<polygon fill="white" stroke="black" points="249,-224.5 249,-243.5 408,-243.5 408,-224.5 249,-224.5"/>
<text text-anchor="middle" x="328.5" y="-231.5" font-family="Helvetica,sans-Serif" font-size="10.00">PerceptualColor/colorwheel.h</text>
</a>
</g>
</g>
<!-- Node1&#45;&gt;Node5 -->
<g id="edge5" class="edge">
<title>Node1&#45;&gt;Node5</title>
<path fill="none" stroke="midnightblue" d="M1332.7,-344.17C1142.94,-341 511.6,-328.4 425.5,-300 394.23,-289.69 363.59,-266.3 345.37,-250.57"/>
<polygon fill="midnightblue" stroke="midnightblue" points="347.28,-247.58 337.48,-243.56 342.63,-252.82 347.28,-247.58"/>
</g>
<!-- Node10 -->
<g id="node10" class="node">
<title>Node10</title>
<g id="a_node10"><a xlink:href="colorwheel__p_8h.html" target="_top" xlink:title=" ">
<polygon fill="white" stroke="black" points="819.5,-280.5 819.5,-299.5 909.5,-299.5 909.5,-280.5 819.5,-280.5"/>
<text text-anchor="middle" x="864.5" y="-287.5" font-family="Helvetica,sans-Serif" font-size="10.00">colorwheel_p.h</text>
</a>
</g>
</g>
<!-- Node1&#45;&gt;Node10 -->
<g id="edge15" class="edge">
<title>Node1&#45;&gt;Node10</title>
<path fill="none" stroke="midnightblue" d="M1332.6,-339.42C1232.87,-329.11 1020.56,-307.14 919.79,-296.72"/>
<polygon fill="midnightblue" stroke="midnightblue" points="920.12,-293.24 909.81,-295.69 919.4,-300.2 920.12,-293.24"/>
</g>
<!-- Node17 -->
<g id="node17" class="node">
<title>Node17</title>
<g id="a_node17"><a xlink:title=" ">
<polygon fill="white" stroke="#bfbfbf" points="1378.5,-56.5 1378.5,-75.5 1434.5,-75.5 1434.5,-56.5 1378.5,-56.5"/>
<text text-anchor="middle" x="1406.5" y="-63.5" font-family="Helvetica,sans-Serif" font-size="10.00">QDebug</text>
</a>
</g>
</g>
<!-- Node1&#45;&gt;Node17 -->
<g id="edge60" class="edge">
<title>Node1&#45;&gt;Node17</title>
<path fill="none" stroke="midnightblue" d="M1395.19,-336.08C1408.65,-322.63 1435.8,-296.91 1462.5,-280 1601.54,-191.94 1901.93,-234.93 1792.5,-112 1769.61,-86.28 1537.79,-72.97 1444.8,-68.63"/>
<polygon fill="midnightblue" stroke="midnightblue" points="1444.83,-65.12 1434.68,-68.16 1444.51,-72.12 1444.83,-65.12"/>
</g>
<!-- Node21 -->
<g id="node21" class="node">
<title>Node21</title>
<g id="a_node21"><a xlink:href="polarpointf_8h.html" target="_top" xlink:title=" ">
<polygon fill="white" stroke="black" points="1328.5,-168.5 1328.5,-187.5 1406.5,-187.5 1406.5,-168.5 1328.5,-168.5"/>
<text text-anchor="middle" x="1367.5" y="-175.5" font-family="Helvetica,sans-Serif" font-size="10.00">polarpointf.h</text>
</a>
</g>
</g>
<!-- Node1&#45;&gt;Node21 -->
<g id="edge58" class="edge">
<title>Node1&#45;&gt;Node21</title>
<path fill="none" stroke="midnightblue" d="M1385.48,-336.08C1382.49,-309.95 1373.7,-233.21 1369.63,-197.58"/>
<polygon fill="midnightblue" stroke="midnightblue" points="1373.1,-197.11 1368.48,-187.57 1366.14,-197.9 1373.1,-197.11"/>
</g>
<!-- Node24 -->
<g id="node24" class="node">
<title>Node24</title>
<g id="a_node24"><a xlink:href="helper_8h.html" target="_top" xlink:title="Various smaller help elements.">
<polygon fill="white" stroke="black" points="1472.5,-168.5 1472.5,-187.5 1528.5,-187.5 1528.5,-168.5 1472.5,-168.5"/>
<text text-anchor="middle" x="1500.5" y="-175.5" font-family="Helvetica,sans-Serif" font-size="10.00">helper.h</text>
</a>
</g>
</g>
<!-- Node1&#45;&gt;Node24 -->
<g id="edge46" class="edge">
<title>Node1&#45;&gt;Node24</title>
<path fill="none" stroke="midnightblue" d="M1392.26,-336.12C1400.44,-323.55 1415.93,-299.9 1429.5,-280 1449.83,-250.19 1474.12,-215.91 1488.38,-195.93"/>
<polygon fill="midnightblue" stroke="midnightblue" points="1491.37,-197.76 1494.34,-187.59 1485.68,-193.69 1491.37,-197.76"/>
</g>
<!-- Node26 -->
<g id="node26" class="node">
<title>Node26</title>
<g id="a_node26"><a xlink:href="lchvalues_8h.html" target="_top" xlink:title=" ">
<polygon fill="white" stroke="black" points="1203.5,-168.5 1203.5,-187.5 1275.5,-187.5 1275.5,-168.5 1203.5,-168.5"/>
<text text-anchor="middle" x="1239.5" y="-175.5" font-family="Helvetica,sans-Serif" font-size="10.00">lchvalues.h</text>
</a>
</g>
</g>
<!-- Node1&#45;&gt;Node26 -->
<g id="edge54" class="edge">
<title>Node1&#45;&gt;Node26</title>
<path fill="none" stroke="midnightblue" d="M1378.6,-336.08C1354.96,-309.38 1284.54,-229.87 1253.95,-195.32"/>
<polygon fill="midnightblue" stroke="midnightblue" points="1256.34,-192.73 1247.09,-187.57 1251.1,-197.38 1256.34,-192.73"/>
</g>
<!-- Node27 -->
<g id="node27" class="node">
<title>Node27</title>
<g id="a_node27"><a xlink:title=" ">
<polygon fill="white" stroke="#bfbfbf" points="1472,-280.5 1472,-299.5 1551,-299.5 1551,-280.5 1472,-280.5"/>
<text text-anchor="middle" x="1511.5" y="-287.5" font-family="Helvetica,sans-Serif" font-size="10.00">QApplication</text>
</a>
</g>
</g>
<!-- Node1&#45;&gt;Node27 -->
<g id="edge59" class="edge">
<title>Node1&#45;&gt;Node27</title>
<path fill="none" stroke="midnightblue" d="M1406.31,-336.44C1426.79,-327.6 1458.98,-313.69 1482.36,-303.59"/>
<polygon fill="midnightblue" stroke="midnightblue" points="1483.99,-306.7 1491.79,-299.52 1481.22,-300.27 1483.99,-306.7"/>
</g>
<!-- Node28 -->
<g id="node28" class="node">
<title>Node28</title>
<g id="a_node28"><a xlink:title=" ">
<polygon fill="white" stroke="#bfbfbf" points="1568.5,-280.5 1568.5,-299.5 1652.5,-299.5 1652.5,-280.5 1568.5,-280.5"/>
<text text-anchor="middle" x="1610.5" y="-287.5" font-family="Helvetica,sans-Serif" font-size="10.00">QMouseEvent</text>
</a>
</g>
</g>
<!-- Node1&#45;&gt;Node28 -->
<g id="edge61" class="edge">
<title>Node1&#45;&gt;Node28</title>
<path fill="none" stroke="midnightblue" d="M1421.99,-336.44C1460.82,-327.08 1523.16,-312.06 1565.42,-301.87"/>
<polygon fill="midnightblue" stroke="midnightblue" points="1566.27,-305.26 1575.17,-299.52 1564.63,-298.46 1566.27,-305.26"/>
</g>
<!-- Node29 -->
<g id="node29" class="node">
<title>Node29</title>
<g id="a_node29"><a xlink:title=" ">
<polygon fill="white" stroke="#bfbfbf" points="1670.5,-280.5 1670.5,-299.5 1728.5,-299.5 1728.5,-280.5 1670.5,-280.5"/>
<text text-anchor="middle" x="1699.5" y="-287.5" font-family="Helvetica,sans-Serif" font-size="10.00">QPainter</text>
</a>
</g>
</g>
<!-- Node1&#45;&gt;Node29 -->
<g id="edge62" class="edge">
<title>Node1&#45;&gt;Node29</title>
<path fill="none" stroke="midnightblue" d="M1440.19,-337.36C1493.6,-329.5 1578.08,-316.37 1660.47,-300.09"/>
<polygon fill="midnightblue" stroke="midnightblue" points="1661.38,-303.48 1670.5,-298.09 1660.01,-296.61 1661.38,-303.48"/>
</g>
<!-- Node30 -->
<g id="node30" class="node">
<title>Node30</title>
<g id="a_node30"><a xlink:title=" ">
<polygon fill="white" stroke="#bfbfbf" points="1747,-280.5 1747,-299.5 1800,-299.5 1800,-280.5 1747,-280.5"/>
<text text-anchor="middle" x="1773.5" y="-287.5" font-family="Helvetica,sans-Serif" font-size="10.00">QtMath</text>
</a>
</g>
</g>
<!-- Node1&#45;&gt;Node30 -->
<g id="edge63" class="edge">
<title>Node1&#45;&gt;Node30</title>
<path fill="none" stroke="midnightblue" d="M1440.03,-340.11C1507.1,-333.55 1625.7,-320.5 1736.8,-299.92"/>
<polygon fill="midnightblue" stroke="midnightblue" points="1737.66,-303.32 1746.84,-298.04 1736.37,-296.44 1737.66,-303.32"/>
</g>
<!-- Node3 -->
<g id="node3" class="node">
<title>Node3</title>
<g id="a_node3"><a xlink:title=" ">
<polygon fill="white" stroke="#bfbfbf" points="1153,-0.5 1153,-19.5 1212,-19.5 1212,-0.5 1153,-0.5"/>
<text text-anchor="middle" x="1182.5" y="-7.5" font-family="Helvetica,sans-Serif" font-size="10.00">QtGlobal</text>
</a>
</g>
</g>
<!-- Node2&#45;&gt;Node3 -->
<g id="edge2" class="edge">
<title>Node2&#45;&gt;Node3</title>
<path fill="none" stroke="midnightblue" d="M747.13,-56.47C859.7,-44.72 1058.21,-23.98 1142.67,-15.16"/>
<polygon fill="midnightblue" stroke="midnightblue" points="1143.28,-18.62 1152.86,-14.1 1142.55,-11.65 1143.28,-18.62"/>
</g>
<!-- Node4&#45;&gt;Node2 -->
<g id="edge4" class="edge">
<title>Node4&#45;&gt;Node2</title>
<path fill="none" stroke="midnightblue" d="M896.08,-112.44C847.98,-102.96 770.41,-87.67 718.69,-77.48"/>
<polygon fill="midnightblue" stroke="midnightblue" points="719.2,-74.02 708.71,-75.52 717.85,-80.88 719.2,-74.02"/>
</g>
<!-- Node5&#45;&gt;Node2 -->
<g id="edge6" class="edge">
<title>Node5&#45;&gt;Node2</title>
<path fill="none" stroke="midnightblue" d="M332.71,-224.22C344.11,-201.49 377.93,-140.52 425.5,-112 462.45,-89.84 507.88,-78.19 549.24,-72.18"/>
<polygon fill="midnightblue" stroke="midnightblue" points="549.94,-75.62 559.38,-70.81 549,-68.69 549.94,-75.62"/>
</g>
<!-- Node6 -->
<g id="node6" class="node">
<title>Node6</title>
<g id="a_node6"><a xlink:title=" ">
<polygon fill="white" stroke="#bfbfbf" points="0,-112.5 0,-131.5 59,-131.5 59,-112.5 0,-112.5"/>
<text text-anchor="middle" x="29.5" y="-119.5" font-family="Helvetica,sans-Serif" font-size="10.00">QWidget</text>
</a>
</g>
</g>
<!-- Node5&#45;&gt;Node6 -->
<g id="edge7" class="edge">
<title>Node5&#45;&gt;Node6</title>
<path fill="none" stroke="midnightblue" d="M248.83,-232.29C198.12,-228.63 132.77,-217.71 82.5,-188 63.37,-176.7 48.22,-155.78 39.1,-140.72"/>
<polygon fill="midnightblue" stroke="midnightblue" points="42.01,-138.76 33.99,-131.83 35.94,-142.25 42.01,-138.76"/>
</g>
<!-- Node7 -->
<g id="node7" class="node">
<title>Node7</title>
<g id="a_node7"><a xlink:href="abstractdiagram_8h.html" target="_top" xlink:title=" ">
<polygon fill="white" stroke="black" points="91.5,-168.5 91.5,-187.5 277.5,-187.5 277.5,-168.5 91.5,-168.5"/>
<text text-anchor="middle" x="184.5" y="-175.5" font-family="Helvetica,sans-Serif" font-size="10.00">PerceptualColor/abstractdiagram.h</text>
</a>
</g>
</g>
<!-- Node5&#45;&gt;Node7 -->
<g id="edge8" class="edge">
<title>Node5&#45;&gt;Node7</title>
<path fill="none" stroke="midnightblue" d="M305.68,-224.44C281.67,-215.44 243.67,-201.19 216.63,-191.05"/>
<polygon fill="midnightblue" stroke="midnightblue" points="217.8,-187.75 207.21,-187.52 215.34,-194.3 217.8,-187.75"/>
</g>
<!-- Node8 -->
<g id="node8" class="node">
<title>Node8</title>
<g id="a_node8"><a xlink:href="constpropagatinguniquepointer_8h.html" target="_top" xlink:title=" ">
<polygon fill="white" stroke="black" points="116,-112.5 116,-131.5 373,-131.5 373,-112.5 116,-112.5"/>
<text text-anchor="middle" x="244.5" y="-119.5" font-family="Helvetica,sans-Serif" font-size="10.00">PerceptualColor/constpropagatinguniquepointer.h</text>
</a>
</g>
</g>
<!-- Node5&#45;&gt;Node8 -->
<g id="edge14" class="edge">
<title>Node5&#45;&gt;Node8</title>
<path fill="none" stroke="midnightblue" d="M323.52,-224.26C316.09,-211.46 301.37,-187.07 286.5,-168 278.53,-157.78 268.69,-147.15 260.54,-138.79"/>
<polygon fill="midnightblue" stroke="midnightblue" points="262.88,-136.18 253.35,-131.55 257.92,-141.11 262.88,-136.18"/>
</g>
<!-- Node7&#45;&gt;Node2 -->
<g id="edge9" class="edge">
<title>Node7&#45;&gt;Node2</title>
<path fill="none" stroke="midnightblue" d="M159.73,-168.4C129.71,-156.72 85.58,-134.67 106.5,-112 135.86,-80.19 394.21,-70.86 549.22,-68.13"/>
<polygon fill="midnightblue" stroke="midnightblue" points="549.34,-71.62 559.28,-67.96 549.22,-64.63 549.34,-71.62"/>
</g>
<!-- Node7&#45;&gt;Node6 -->
<g id="edge10" class="edge">
<title>Node7&#45;&gt;Node6</title>
<path fill="none" stroke="midnightblue" d="M159.94,-168.44C133.98,-159.4 92.83,-145.06 63.7,-134.92"/>
<polygon fill="midnightblue" stroke="midnightblue" points="64.54,-131.5 53.95,-131.52 62.24,-138.11 64.54,-131.5"/>
</g>
<!-- Node7&#45;&gt;Node8 -->
<g id="edge11" class="edge">
<title>Node7&#45;&gt;Node8</title>
<path fill="none" stroke="midnightblue" d="M194.14,-168.32C203.01,-160.34 216.37,-148.31 227.11,-138.65"/>
<polygon fill="midnightblue" stroke="midnightblue" points="229.59,-141.13 234.68,-131.83 224.91,-135.92 229.59,-141.13"/>
</g>
<!-- Node8&#45;&gt;Node2 -->
<g id="edge12" class="edge">
<title>Node8&#45;&gt;Node2</title>
<path fill="none" stroke="midnightblue" d="M311.21,-112.44C386.81,-102.75 509.8,-86.97 589.17,-76.79"/>
<polygon fill="midnightblue" stroke="midnightblue" points="589.63,-80.26 599.1,-75.52 588.74,-73.32 589.63,-80.26"/>
</g>
<!-- Node9 -->
<g id="node9" class="node">
<title>Node9</title>
<g id="a_node9"><a xlink:title=" ">
<polygon fill="white" stroke="#bfbfbf" points="215.5,-56.5 215.5,-75.5 273.5,-75.5 273.5,-56.5 215.5,-56.5"/>
<text text-anchor="middle" x="244.5" y="-63.5" font-family="Helvetica,sans-Serif" font-size="10.00">memory</text>
</a>
</g>
</g>
<!-- Node8&#45;&gt;Node9 -->
<g id="edge13" class="edge">
<title>Node8&#45;&gt;Node9</title>
<path fill="none" stroke="midnightblue" d="M244.5,-112.08C244.5,-105.01 244.5,-94.86 244.5,-85.99"/>
<polygon fill="midnightblue" stroke="midnightblue" points="248,-85.75 244.5,-75.75 241,-85.75 248,-85.75"/>
</g>
<!-- Node10&#45;&gt;Node2 -->
<g id="edge16" class="edge">
<title>Node10&#45;&gt;Node2</title>
<path fill="none" stroke="midnightblue" d="M819.46,-283.43C730.13,-271.36 535.72,-239.64 496.5,-188 475.54,-160.4 515.54,-125.24 532.5,-112 553.61,-95.52 581.1,-84.9 605.6,-78.14"/>
<polygon fill="midnightblue" stroke="midnightblue" points="606.73,-81.46 615.53,-75.56 604.97,-74.69 606.73,-81.46"/>
</g>
<!-- Node10&#45;&gt;Node4 -->
<g id="edge17" class="edge">
<title>Node10&#45;&gt;Node4</title>
<path fill="none" stroke="midnightblue" d="M884.31,-280.48C914.23,-266.35 969.67,-234.89 990.5,-188 999.18,-168.47 980.47,-149.65 963.32,-137.33"/>
<polygon fill="midnightblue" stroke="midnightblue" points="964.9,-134.18 954.65,-131.51 961,-139.99 964.9,-134.18"/>
</g>
<!-- Node10&#45;&gt;Node5 -->
<g id="edge18" class="edge">
<title>Node10&#45;&gt;Node5</title>
<path fill="none" stroke="midnightblue" d="M819.26,-284.44C730.94,-275.54 534.1,-255.71 418.33,-244.05"/>
<polygon fill="midnightblue" stroke="midnightblue" points="418.38,-240.54 408.08,-243.02 417.68,-247.5 418.38,-240.54"/>
</g>
<!-- Node11 -->
<g id="node11" class="node">
<title>Node11</title>
<g id="a_node11"><a xlink:href="colorwheelimage_8h.html" target="_top" xlink:title=" ">
<polygon fill="white" stroke="black" points="809.5,-224.5 809.5,-243.5 919.5,-243.5 919.5,-224.5 809.5,-224.5"/>
<text text-anchor="middle" x="864.5" y="-231.5" font-family="Helvetica,sans-Serif" font-size="10.00">colorwheelimage.h</text>
</a>
</g>
</g>
<!-- Node10&#45;&gt;Node11 -->
<g id="edge19" class="edge">
<title>Node10&#45;&gt;Node11</title>
<path fill="none" stroke="midnightblue" d="M864.5,-280.08C864.5,-273.01 864.5,-262.86 864.5,-253.99"/>
<polygon fill="midnightblue" stroke="midnightblue" points="868,-253.75 864.5,-243.75 861,-253.75 868,-253.75"/>
</g>
<!-- Node20 -->
<g id="node20" class="node">
<title>Node20</title>
<g id="a_node20"><a xlink:href="constpropagatingrawpointer_8h.html" target="_top" xlink:title=" ">
<polygon fill="white" stroke="black" points="505.5,-168.5 505.5,-187.5 667.5,-187.5 667.5,-168.5 505.5,-168.5"/>
<text text-anchor="middle" x="586.5" y="-175.5" font-family="Helvetica,sans-Serif" font-size="10.00">constpropagatingrawpointer.h</text>
</a>
</g>
</g>
<!-- Node10&#45;&gt;Node20 -->
<g id="edge37" class="edge">
<title>Node10&#45;&gt;Node20</title>
<path fill="none" stroke="midnightblue" d="M842.69,-280.37C793.66,-260.97 674.62,-213.87 617.76,-191.37"/>
<polygon fill="midnightblue" stroke="midnightblue" points="618.8,-188.02 608.21,-187.59 616.22,-194.53 618.8,-188.02"/>
</g>
<!-- Node10&#45;&gt;Node21 -->
<g id="edge40" class="edge">
<title>Node10&#45;&gt;Node21</title>
<path fill="none" stroke="midnightblue" d="M903.55,-280.46C994.27,-260.62 1219.07,-211.46 1318.67,-189.68"/>
<polygon fill="midnightblue" stroke="midnightblue" points="1319.45,-193.09 1328.47,-187.53 1317.96,-186.25 1319.45,-193.09"/>
</g>
<!-- Node11&#45;&gt;Node2 -->
<g id="edge20" class="edge">
<title>Node11&#45;&gt;Node2</title>
<path fill="none" stroke="midnightblue" d="M824.64,-224.48C792.72,-216.94 747.22,-204.56 709.5,-188 693.8,-181.11 692.02,-175.29 676.5,-168 632.23,-147.21 600.87,-171.84 572.5,-132 555.31,-107.86 590.44,-89.65 622.33,-78.73"/>
<polygon fill="midnightblue" stroke="midnightblue" points="623.63,-81.99 632.07,-75.58 621.47,-75.33 623.63,-81.99"/>
</g>
<!-- Node11&#45;&gt;Node4 -->
<g id="edge21" class="edge">
<title>Node11&#45;&gt;Node4</title>
<path fill="none" stroke="midnightblue" d="M917.82,-224.43C939.16,-218.1 961.68,-207.1 974.5,-188 985.25,-171.99 971.27,-152.34 957.92,-138.87"/>
<polygon fill="midnightblue" stroke="midnightblue" points="960,-136.02 950.32,-131.72 955.21,-141.12 960,-136.02"/>
</g>
<!-- Node12 -->
<g id="node12" class="node">
<title>Node12</title>
<g id="a_node12"><a xlink:title=" ">
<polygon fill="white" stroke="#bfbfbf" points="1728,-112.5 1728,-131.5 1783,-131.5 1783,-112.5 1728,-112.5"/>
<text text-anchor="middle" x="1755.5" y="-119.5" font-family="Helvetica,sans-Serif" font-size="10.00">QImage</text>
</a>
</g>
</g>
<!-- Node11&#45;&gt;Node12 -->
<g id="edge22" class="edge">
<title>Node11&#45;&gt;Node12</title>
<path fill="none" stroke="midnightblue" d="M919.53,-233.45C1035.02,-233.49 1310.75,-228.86 1537.5,-188 1605.15,-175.81 1681.58,-150.15 1723.58,-134.97"/>
<polygon fill="midnightblue" stroke="midnightblue" points="1724.8,-138.25 1732.99,-131.54 1722.4,-131.68 1724.8,-138.25"/>
</g>
<!-- Node13 -->
<g id="node13" class="node">
<title>Node13</title>
<g id="a_node13"><a xlink:title=" ">
<polygon fill="white" stroke="#bfbfbf" points="581.5,-112.5 581.5,-131.5 637.5,-131.5 637.5,-112.5 581.5,-112.5"/>
<text text-anchor="middle" x="609.5" y="-119.5" font-family="Helvetica,sans-Serif" font-size="10.00">QObject</text>
</a>
</g>
</g>
<!-- Node11&#45;&gt;Node13 -->
<g id="edge23" class="edge">
<title>Node11&#45;&gt;Node13</title>
<path fill="none" stroke="midnightblue" d="M842.04,-224.38C819.33,-215.57 783.27,-201.32 752.5,-188 733.16,-179.62 728.67,-176.77 709.5,-168 685.4,-156.97 657.94,-144.63 637.9,-135.67"/>
<polygon fill="midnightblue" stroke="midnightblue" points="639.26,-132.44 628.7,-131.56 636.4,-138.83 639.26,-132.44"/>
</g>
<!-- Node14 -->
<g id="node14" class="node">
<title>Node14</title>
<g id="a_node14"><a xlink:title=" ">
<polygon fill="white" stroke="#bfbfbf" points="873.5,-168.5 873.5,-187.5 965.5,-187.5 965.5,-168.5 873.5,-168.5"/>
<text text-anchor="middle" x="919.5" y="-175.5" font-family="Helvetica,sans-Serif" font-size="10.00">QSharedPointer</text>
</a>
</g>
</g>
<!-- Node11&#45;&gt;Node14 -->
<g id="edge24" class="edge">
<title>Node11&#45;&gt;Node14</title>
<path fill="none" stroke="midnightblue" d="M873.58,-224.08C881.67,-216.14 893.7,-204.34 903.41,-194.8"/>
<polygon fill="midnightblue" stroke="midnightblue" points="905.9,-197.25 910.59,-187.75 901,-192.26 905.9,-197.25"/>
</g>
<!-- Node15 -->
<g id="node15" class="node">
<title>Node15</title>
<g id="a_node15"><a xlink:href="rgbcolorspace_8h.html" target="_top" xlink:title=" ">
<polygon fill="white" stroke="black" points="761.5,-168.5 761.5,-187.5 855.5,-187.5 855.5,-168.5 761.5,-168.5"/>
<text text-anchor="middle" x="808.5" y="-175.5" font-family="Helvetica,sans-Serif" font-size="10.00">rgbcolorspace.h</text>
</a>
</g>
</g>
<!-- Node11&#45;&gt;Node15 -->
<g id="edge25" class="edge">
<title>Node11&#45;&gt;Node15</title>
<path fill="none" stroke="midnightblue" d="M855.5,-224.32C847.31,-216.42 834.99,-204.55 825.03,-194.94"/>
<polygon fill="midnightblue" stroke="midnightblue" points="827.29,-192.26 817.66,-187.83 822.43,-197.29 827.29,-192.26"/>
</g>
<!-- Node15&#45;&gt;Node2 -->
<g id="edge26" class="edge">
<title>Node15&#45;&gt;Node2</title>
<path fill="none" stroke="midnightblue" d="M761.36,-170.8C735.07,-164.99 703.65,-153.73 683.5,-132 671.94,-119.53 667.7,-100.3 666.2,-85.99"/>
<polygon fill="midnightblue" stroke="midnightblue" points="669.68,-85.52 665.49,-75.78 662.69,-86 669.68,-85.52"/>
</g>
<!-- Node15&#45;&gt;Node4 -->
<g id="edge27" class="edge">
<title>Node15&#45;&gt;Node4</title>
<path fill="none" stroke="midnightblue" d="M829.26,-168.44C850.82,-159.56 884.76,-145.56 909.29,-135.45"/>
<polygon fill="midnightblue" stroke="midnightblue" points="910.93,-138.56 918.84,-131.52 908.26,-132.09 910.93,-138.56"/>
</g>
<!-- Node15&#45;&gt;Node8 -->
<g id="edge29" class="edge">
<title>Node15&#45;&gt;Node8</title>
<path fill="none" stroke="midnightblue" d="M761.38,-172.49C669.84,-163.72 466.19,-144.23 343.62,-132.49"/>
<polygon fill="midnightblue" stroke="midnightblue" points="343.76,-128.99 333.47,-131.52 343.1,-135.96 343.76,-128.99"/>
</g>
<!-- Node15&#45;&gt;Node13 -->
<g id="edge28" class="edge">
<title>Node15&#45;&gt;Node13</title>
<path fill="none" stroke="midnightblue" d="M776.97,-168.44C741.91,-158.93 685.28,-143.56 647.72,-133.37"/>
<polygon fill="midnightblue" stroke="midnightblue" points="648.23,-129.88 637.67,-130.64 646.4,-136.64 648.23,-129.88"/>
</g>
<!-- Node16 -->
<g id="node16" class="node">
<title>Node16</title>
<g id="a_node16"><a xlink:href="lchadouble_8h.html" target="_top" xlink:title=" ">
<polygon fill="white" stroke="black" points="693,-112.5 693,-131.5 852,-131.5 852,-112.5 693,-112.5"/>
<text text-anchor="middle" x="772.5" y="-119.5" font-family="Helvetica,sans-Serif" font-size="10.00">PerceptualColor/lchadouble.h</text>
</a>
</g>
</g>
<!-- Node15&#45;&gt;Node16 -->
<g id="edge30" class="edge">
<title>Node15&#45;&gt;Node16</title>
<path fill="none" stroke="midnightblue" d="M802.56,-168.08C797.52,-160.53 790.16,-149.49 783.99,-140.23"/>
<polygon fill="midnightblue" stroke="midnightblue" points="786.79,-138.13 778.33,-131.75 780.97,-142.01 786.79,-138.13"/>
</g>
<!-- Node18 -->
<g id="node18" class="node">
<title>Node18</title>
<g id="a_node18"><a xlink:href="lchdouble_8h.html" target="_top" xlink:title=" ">
<polygon fill="white" stroke="black" points="1178,-112.5 1178,-131.5 1331,-131.5 1331,-112.5 1178,-112.5"/>
<text text-anchor="middle" x="1254.5" y="-119.5" font-family="Helvetica,sans-Serif" font-size="10.00">PerceptualColor/lchdouble.h</text>
</a>
</g>
</g>
<!-- Node15&#45;&gt;Node18 -->
<g id="edge33" class="edge">
<title>Node15&#45;&gt;Node18</title>
<path fill="none" stroke="midnightblue" d="M855.53,-169.29C858.56,-168.84 861.57,-168.4 864.5,-168 968.37,-153.67 1088.24,-140.31 1167.37,-131.93"/>
<polygon fill="midnightblue" stroke="midnightblue" points="1168.2,-135.36 1177.78,-130.83 1167.47,-128.4 1168.2,-135.36"/>
</g>
<!-- Node19 -->
<g id="node19" class="node">
<title>Node19</title>
<g id="a_node19"><a xlink:title=" ">
<polygon fill="white" stroke="#bfbfbf" points="1066,-112.5 1066,-131.5 1121,-131.5 1121,-112.5 1066,-112.5"/>
<text text-anchor="middle" x="1093.5" y="-119.5" font-family="Helvetica,sans-Serif" font-size="10.00">lcms2.h</text>
</a>
</g>
</g>
<!-- Node15&#45;&gt;Node19 -->
<g id="edge36" class="edge">
<title>Node15&#45;&gt;Node19</title>
<path fill="none" stroke="midnightblue" d="M853.66,-168.44C909.58,-157.85 1003.79,-140 1055.94,-130.12"/>
<polygon fill="midnightblue" stroke="midnightblue" points="1056.61,-133.55 1065.79,-128.25 1055.31,-126.67 1056.61,-133.55"/>
</g>
<!-- Node16&#45;&gt;Node2 -->
<g id="edge31" class="edge">
<title>Node16&#45;&gt;Node2</title>
<path fill="none" stroke="midnightblue" d="M755.31,-112.32C738.15,-103.66 711.55,-90.24 691.75,-80.25"/>
<polygon fill="midnightblue" stroke="midnightblue" points="693.15,-77.04 682.65,-75.65 690,-83.28 693.15,-77.04"/>
</g>
<!-- Node16&#45;&gt;Node17 -->
<g id="edge32" class="edge">
<title>Node16&#45;&gt;Node17</title>
<path fill="none" stroke="midnightblue" d="M852.12,-112.79C854.95,-112.52 857.75,-112.25 860.5,-112 1050.94,-94.42 1279.06,-76.69 1368.18,-69.9"/>
<polygon fill="midnightblue" stroke="midnightblue" points="1368.65,-73.37 1378.35,-69.12 1368.12,-66.39 1368.65,-73.37"/>
</g>
<!-- Node18&#45;&gt;Node2 -->
<g id="edge34" class="edge">
<title>Node18&#45;&gt;Node2</title>
<path fill="none" stroke="midnightblue" d="M1177.55,-113.34C1172.8,-112.88 1168.08,-112.43 1163.5,-112 1028.77,-99.25 873.45,-85.34 772.59,-76.41"/>
<polygon fill="midnightblue" stroke="midnightblue" points="772.66,-72.91 762.39,-75.51 772.04,-79.88 772.66,-72.91"/>
</g>
<!-- Node18&#45;&gt;Node17 -->
<g id="edge35" class="edge">
<title>Node18&#45;&gt;Node17</title>
<path fill="none" stroke="midnightblue" d="M1278.58,-112.44C1304.04,-103.4 1344.39,-89.06 1372.96,-78.92"/>
<polygon fill="midnightblue" stroke="midnightblue" points="1374.28,-82.16 1382.53,-75.52 1371.93,-75.57 1374.28,-82.16"/>
</g>
<!-- Node20&#45;&gt;Node2 -->
<g id="edge38" class="edge">
<title>Node20&#45;&gt;Node2</title>
<path fill="none" stroke="midnightblue" d="M572.4,-168.43C553.84,-156.04 525.14,-132.38 539.5,-112 551,-95.68 568.99,-85.24 587.81,-78.58"/>
<polygon fill="midnightblue" stroke="midnightblue" points="588.93,-81.9 597.39,-75.52 586.8,-75.23 588.93,-81.9"/>
</g>
<!-- Node20&#45;&gt;Node4 -->
<g id="edge39" class="edge">
<title>Node20&#45;&gt;Node4</title>
<path fill="none" stroke="midnightblue" d="M642.43,-168.44C705.3,-158.83 807.27,-143.23 873.86,-133.04"/>
<polygon fill="midnightblue" stroke="midnightblue" points="874.47,-136.49 883.83,-131.52 873.41,-129.57 874.47,-136.49"/>
</g>
<!-- Node21&#45;&gt;Node2 -->
<g id="edge41" class="edge">
<title>Node21&#45;&gt;Node2</title>
<path fill="none" stroke="midnightblue" d="M1328.15,-171.11C1287.4,-164.32 1222.27,-151.51 1168.5,-132 1150.19,-125.35 1148.19,-117.48 1129.5,-112 1066.65,-93.57 897.78,-80.45 782.08,-73.3"/>
<polygon fill="midnightblue" stroke="midnightblue" points="781.95,-69.79 771.76,-72.67 781.52,-76.77 781.95,-69.79"/>
</g>
<!-- Node21&#45;&gt;Node4 -->
<g id="edge42" class="edge">
<title>Node21&#45;&gt;Node4</title>
<path fill="none" stroke="midnightblue" d="M1328.38,-172.06C1257.97,-163.18 1108.7,-144.35 1016.94,-132.77"/>
<polygon fill="midnightblue" stroke="midnightblue" points="1017.23,-129.28 1006.87,-131.5 1016.36,-136.22 1017.23,-129.28"/>
</g>
<!-- Node21&#45;&gt;Node17 -->
<g id="edge43" class="edge">
<title>Node21&#45;&gt;Node17</title>
<path fill="none" stroke="midnightblue" d="M1406.66,-175.58C1437.98,-172.13 1480.08,-161.79 1501.5,-132 1520.19,-106.01 1478.29,-87.1 1444.31,-76.58"/>
<polygon fill="midnightblue" stroke="midnightblue" points="1445.13,-73.17 1434.55,-73.71 1443.16,-79.89 1445.13,-73.17"/>
</g>
<!-- Node22 -->
<g id="node22" class="node">
<title>Node22</title>
<g id="a_node22"><a xlink:title=" ">
<polygon fill="white" stroke="#bfbfbf" points="1422,-112.5 1422,-131.5 1493,-131.5 1493,-112.5 1422,-112.5"/>
<text text-anchor="middle" x="1457.5" y="-119.5" font-family="Helvetica,sans-Serif" font-size="10.00">QMetaType</text>
</a>
</g>
</g>
<!-- Node21&#45;&gt;Node22 -->
<g id="edge44" class="edge">
<title>Node21&#45;&gt;Node22</title>
<path fill="none" stroke="midnightblue" d="M1381.96,-168.32C1396,-159.9 1417.55,-146.97 1434.04,-137.07"/>
<polygon fill="midnightblue" stroke="midnightblue" points="1436.3,-139.8 1443.08,-131.65 1432.7,-133.8 1436.3,-139.8"/>
</g>
<!-- Node23 -->
<g id="node23" class="node">
<title>Node23</title>
<g id="a_node23"><a xlink:title=" ">
<polygon fill="white" stroke="#bfbfbf" points="1349,-112.5 1349,-131.5 1404,-131.5 1404,-112.5 1349,-112.5"/>
<text text-anchor="middle" x="1376.5" y="-119.5" font-family="Helvetica,sans-Serif" font-size="10.00">QPointF</text>
</a>
</g>
</g>
<!-- Node21&#45;&gt;Node23 -->
<g id="edge45" class="edge">
<title>Node21&#45;&gt;Node23</title>
<path fill="none" stroke="midnightblue" d="M1368.99,-168.08C1370.18,-160.93 1371.89,-150.64 1373.38,-141.69"/>
<polygon fill="midnightblue" stroke="midnightblue" points="1376.85,-142.19 1375.04,-131.75 1369.95,-141.04 1376.85,-142.19"/>
</g>
<!-- Node24&#45;&gt;Node2 -->
<g id="edge47" class="edge">
<title>Node24&#45;&gt;Node2</title>
<path fill="none" stroke="midnightblue" d="M1503.92,-168.5C1508.87,-154.65 1515.94,-127.24 1501.5,-112 1477.16,-86.32 1006,-73.67 781.97,-69.08"/>
<polygon fill="midnightblue" stroke="midnightblue" points="781.88,-65.58 771.81,-68.88 781.74,-72.58 781.88,-65.58"/>
</g>
<!-- Node24&#45;&gt;Node3 -->
<g id="edge51" class="edge">
<title>Node24&#45;&gt;Node3</title>
<path fill="none" stroke="midnightblue" d="M1528.57,-169.29C1530.24,-168.85 1531.89,-168.42 1533.5,-168 1601.18,-150.49 1723.88,-166.83 1680.5,-112 1623.55,-40.03 1330.19,-18.33 1222.34,-12.73"/>
<polygon fill="midnightblue" stroke="midnightblue" points="1222.36,-9.22 1212.2,-12.22 1222.01,-16.21 1222.36,-9.22"/>
</g>
<!-- Node24&#45;&gt;Node4 -->
<g id="edge48" class="edge">
<title>Node24&#45;&gt;Node4</title>
<path fill="none" stroke="midnightblue" d="M1472.17,-173.92C1455.65,-172.14 1434.4,-169.89 1415.5,-168 1276.24,-154.05 1113.94,-138.95 1019.36,-130.27"/>
<polygon fill="midnightblue" stroke="midnightblue" points="1019.57,-126.78 1009.29,-129.35 1018.93,-133.75 1019.57,-126.78"/>
</g>
<!-- Node24&#45;&gt;Node12 -->
<g id="edge49" class="edge">
<title>Node24&#45;&gt;Node12</title>
<path fill="none" stroke="midnightblue" d="M1528.76,-171.06C1569.56,-162.47 1647.33,-146.08 1713.5,-132 1714.96,-131.69 1716.45,-131.37 1717.95,-131.05"/>
<polygon fill="midnightblue" stroke="midnightblue" points="1718.89,-134.43 1727.94,-128.92 1717.43,-127.58 1718.89,-134.43"/>
</g>
<!-- Node24&#45;&gt;Node18 -->
<g id="edge52" class="edge">
<title>Node24&#45;&gt;Node18</title>
<path fill="none" stroke="midnightblue" d="M1472.28,-170.81C1431.07,-161.76 1353.86,-144.81 1303.32,-133.72"/>
<polygon fill="midnightblue" stroke="midnightblue" points="1303.79,-130.24 1293.27,-131.51 1302.29,-137.07 1303.79,-130.24"/>
</g>
<!-- Node24&#45;&gt;Node19 -->
<g id="edge53" class="edge">
<title>Node24&#45;&gt;Node19</title>
<path fill="none" stroke="midnightblue" d="M1472.2,-173.25C1400.61,-163.75 1212.21,-138.75 1131.3,-128.02"/>
<polygon fill="midnightblue" stroke="midnightblue" points="1131.45,-124.5 1121.07,-126.66 1130.52,-131.44 1131.45,-124.5"/>
</g>
<!-- Node25 -->
<g id="node25" class="node">
<title>Node25</title>
<g id="a_node25"><a xlink:title=" ">
<polygon fill="white" stroke="#bfbfbf" points="1588,-112.5 1588,-131.5 1671,-131.5 1671,-112.5 1588,-112.5"/>
<text text-anchor="middle" x="1629.5" y="-119.5" font-family="Helvetica,sans-Serif" font-size="10.00">QWheelEvent</text>
</a>
</g>
</g>
<!-- Node24&#45;&gt;Node25 -->
<g id="edge50" class="edge">
<title>Node24&#45;&gt;Node25</title>
<path fill="none" stroke="midnightblue" d="M1520.94,-168.44C1542.17,-159.56 1575.6,-145.56 1599.75,-135.45"/>
<polygon fill="midnightblue" stroke="midnightblue" points="1601.28,-138.61 1609.16,-131.52 1598.58,-132.15 1601.28,-138.61"/>
</g>
<!-- Node26&#45;&gt;Node2 -->
<g id="edge55" class="edge">
<title>Node26&#45;&gt;Node2</title>
<path fill="none" stroke="midnightblue" d="M1203.34,-170.69C1165.87,-163.56 1106,-150.49 1056.5,-132 1038.25,-125.18 1036.11,-117.77 1017.5,-112 941.08,-88.32 851.61,-77.08 782,-71.76"/>
<polygon fill="midnightblue" stroke="midnightblue" points="782.1,-68.26 771.87,-71.02 781.59,-75.24 782.1,-68.26"/>
</g>
<!-- Node26&#45;&gt;Node4 -->
<g id="edge56" class="edge">
<title>Node26&#45;&gt;Node4</title>
<path fill="none" stroke="midnightblue" d="M1203.31,-170.49C1152.12,-161.27 1058.02,-144.33 997.14,-133.38"/>
<polygon fill="midnightblue" stroke="midnightblue" points="997.39,-129.86 986.93,-131.54 996.15,-136.75 997.39,-129.86"/>
</g>
<!-- Node26&#45;&gt;Node18 -->
<g id="edge57" class="edge">
<title>Node26&#45;&gt;Node18</title>
<path fill="none" stroke="midnightblue" d="M1241.98,-168.08C1243.99,-160.85 1246.89,-150.41 1249.39,-141.4"/>
<polygon fill="midnightblue" stroke="midnightblue" points="1252.76,-142.32 1252.07,-131.75 1246.02,-140.45 1252.76,-142.32"/>
</g>
</g>
</svg>
