<?xml version="1.0" encoding="UTF-8" standalone="no"?>
<!DOCTYPE svg PUBLIC "-//W3C//DTD SVG 1.1//EN"
 "http://www.w3.org/Graphics/SVG/1.1/DTD/svg11.dtd">
<!-- Generated by graphviz version 2.43.0 (0)
 -->
<!-- Title: src/colorwheelimage.h Pages: 1 -->
<svg width="969pt" height="252pt"
 viewBox="0.00 0.00 969.37 252.00" xmlns="http://www.w3.org/2000/svg" xmlns:xlink="http://www.w3.org/1999/xlink">
<g id="graph0" class="graph" transform="scale(1 1) rotate(0) translate(4 248)">
<title>src/colorwheelimage.h</title>
<polygon fill="white" stroke="transparent" points="-4,4 -4,-248 965.37,-248 965.37,4 -4,4"/>
<!-- Node1 -->
<g id="node1" class="node">
<title>Node1</title>
<g id="a_node1"><a xlink:title=" ">
<polygon fill="#bfbfbf" stroke="black" points="457.87,-224.5 457.87,-243.5 584.87,-243.5 584.87,-224.5 457.87,-224.5"/>
<text text-anchor="middle" x="521.37" y="-231.5" font-family="Helvetica,sans-Serif" font-size="10.00">src/colorwheelimage.h</text>
</a>
</g>
</g>
<!-- Node2 -->
<g id="node2" class="node">
<title>Node2</title>
<g id="a_node2"><a xlink:href="perceptualcolorglobal_8h.html" target="_top" xlink:title=" ">
<polygon fill="white" stroke="black" points="348.37,-56.5 348.37,-75.5 560.37,-75.5 560.37,-56.5 348.37,-56.5"/>
<text text-anchor="middle" x="454.37" y="-63.5" font-family="Helvetica,sans-Serif" font-size="10.00">PerceptualColor/perceptualcolorglobal.h</text>
</a>
</g>
</g>
<!-- Node1&#45;&gt;Node2 -->
<g id="edge1" class="edge">
<title>Node1&#45;&gt;Node2</title>
<path fill="none" stroke="midnightblue" d="M457.79,-230.42C332.37,-223.83 60.4,-201.66 4.37,-132 -1.2,-125.07 -1.59,-118.59 4.37,-112 10.03,-105.75 210.7,-87.63 342.13,-76.38"/>
<polygon fill="midnightblue" stroke="midnightblue" points="342.59,-79.85 352.26,-75.51 342,-72.88 342.59,-79.85"/>
</g>
<!-- Node4 -->
<g id="node4" class="node">
<title>Node4</title>
<g id="a_node4"><a xlink:href="perceptualcolorinternal_8h.html" target="_top" xlink:title=" ">
<polygon fill="white" stroke="black" points="13.87,-112.5 13.87,-131.5 152.87,-131.5 152.87,-112.5 13.87,-112.5"/>
<text text-anchor="middle" x="83.37" y="-119.5" font-family="Helvetica,sans-Serif" font-size="10.00">perceptualcolorinternal.h</text>
</a>
</g>
</g>
<!-- Node1&#45;&gt;Node4 -->
<g id="edge3" class="edge">
<title>Node1&#45;&gt;Node4</title>
<path fill="none" stroke="midnightblue" d="M487.37,-224.46C408.78,-204.72 214.6,-155.96 127.22,-134.01"/>
<polygon fill="midnightblue" stroke="midnightblue" points="127.91,-130.58 117.36,-131.53 126.2,-137.36 127.91,-130.58"/>
</g>
<!-- Node5 -->
<g id="node5" class="node">
<title>Node5</title>
<g id="a_node5"><a xlink:title=" ">
<polygon fill="white" stroke="#bfbfbf" points="587.87,-168.5 587.87,-187.5 642.87,-187.5 642.87,-168.5 587.87,-168.5"/>
<text text-anchor="middle" x="615.37" y="-175.5" font-family="Helvetica,sans-Serif" font-size="10.00">QImage</text>
</a>
</g>
</g>
<!-- Node1&#45;&gt;Node5 -->
<g id="edge5" class="edge">
<title>Node1&#45;&gt;Node5</title>
<path fill="none" stroke="midnightblue" d="M536.48,-224.32C551.28,-215.82 574.07,-202.73 591.36,-192.8"/>
<polygon fill="midnightblue" stroke="midnightblue" points="593.38,-195.67 600.31,-187.65 589.9,-189.6 593.38,-195.67"/>
</g>
<!-- Node6 -->
<g id="node6" class="node">
<title>Node6</title>
<g id="a_node6"><a xlink:title=" ">
<polygon fill="white" stroke="#bfbfbf" points="905.37,-112.5 905.37,-131.5 961.37,-131.5 961.37,-112.5 905.37,-112.5"/>
<text text-anchor="middle" x="933.37" y="-119.5" font-family="Helvetica,sans-Serif" font-size="10.00">QObject</text>
</a>
</g>
</g>
<!-- Node1&#45;&gt;Node6 -->
<g id="edge6" class="edge">
<title>Node1&#45;&gt;Node6</title>
<path fill="none" stroke="midnightblue" d="M526.13,-224.44C534.68,-210 554.12,-181.07 579.37,-168 702.74,-104.17 754.94,-154.81 894.92,-132.19"/>
<polygon fill="midnightblue" stroke="midnightblue" points="895.89,-135.57 905.15,-130.43 894.7,-128.67 895.89,-135.57"/>
</g>
<!-- Node7 -->
<g id="node7" class="node">
<title>Node7</title>
<g id="a_node7"><a xlink:title=" ">
<polygon fill="white" stroke="#bfbfbf" points="661.37,-168.5 661.37,-187.5 753.37,-187.5 753.37,-168.5 661.37,-168.5"/>
<text text-anchor="middle" x="707.37" y="-175.5" font-family="Helvetica,sans-Serif" font-size="10.00">QSharedPointer</text>
</a>
</g>
</g>
<!-- Node1&#45;&gt;Node7 -->
<g id="edge7" class="edge">
<title>Node1&#45;&gt;Node7</title>
<path fill="none" stroke="midnightblue" d="M550.85,-224.44C582.55,-215.24 633.11,-200.56 668.15,-190.39"/>
<polygon fill="midnightblue" stroke="midnightblue" points="669.41,-193.67 678.04,-187.52 667.46,-186.94 669.41,-193.67"/>
</g>
<!-- Node8 -->
<g id="node8" class="node">
<title>Node8</title>
<g id="a_node8"><a xlink:href="rgbcolorspace_8h.html" target="_top" xlink:title=" ">
<polygon fill="white" stroke="black" points="437.37,-168.5 437.37,-187.5 531.37,-187.5 531.37,-168.5 437.37,-168.5"/>
<text text-anchor="middle" x="484.37" y="-175.5" font-family="Helvetica,sans-Serif" font-size="10.00">rgbcolorspace.h</text>
</a>
</g>
</g>
<!-- Node1&#45;&gt;Node8 -->
<g id="edge8" class="edge">
<title>Node1&#45;&gt;Node8</title>
<path fill="none" stroke="midnightblue" d="M515.27,-224.08C510.09,-216.53 502.53,-205.49 496.18,-196.23"/>
<polygon fill="midnightblue" stroke="midnightblue" points="498.91,-194.02 490.37,-187.75 493.14,-197.98 498.91,-194.02"/>
</g>
<!-- Node3 -->
<g id="node3" class="node">
<title>Node3</title>
<g id="a_node3"><a xlink:title=" ">
<polygon fill="white" stroke="#bfbfbf" points="424.87,-0.5 424.87,-19.5 483.87,-19.5 483.87,-0.5 424.87,-0.5"/>
<text text-anchor="middle" x="454.37" y="-7.5" font-family="Helvetica,sans-Serif" font-size="10.00">QtGlobal</text>
</a>
</g>
</g>
<!-- Node2&#45;&gt;Node3 -->
<g id="edge2" class="edge">
<title>Node2&#45;&gt;Node3</title>
<path fill="none" stroke="midnightblue" d="M454.37,-56.08C454.37,-49.01 454.37,-38.86 454.37,-29.99"/>
<polygon fill="midnightblue" stroke="midnightblue" points="457.88,-29.75 454.37,-19.75 450.88,-29.75 457.88,-29.75"/>
</g>
<!-- Node4&#45;&gt;Node2 -->
<g id="edge4" class="edge">
<title>Node4&#45;&gt;Node2</title>
<path fill="none" stroke="midnightblue" d="M142.16,-112.44C208.37,-102.81 315.84,-87.16 385.82,-76.98"/>
<polygon fill="midnightblue" stroke="midnightblue" points="386.47,-80.42 395.86,-75.52 385.46,-73.49 386.47,-80.42"/>
</g>
<!-- Node8&#45;&gt;Node2 -->
<g id="edge9" class="edge">
<title>Node8&#45;&gt;Node2</title>
<path fill="none" stroke="midnightblue" d="M482.02,-168.37C477.16,-150.54 465.91,-109.3 459.36,-85.27"/>
<polygon fill="midnightblue" stroke="midnightblue" points="462.73,-84.32 456.72,-75.59 455.97,-86.16 462.73,-84.32"/>
</g>
<!-- Node8&#45;&gt;Node4 -->
<g id="edge10" class="edge">
<title>Node8&#45;&gt;Node4</title>
<path fill="none" stroke="midnightblue" d="M437.2,-170.65C368,-161.33 238.39,-143.87 156.71,-132.88"/>
<polygon fill="midnightblue" stroke="midnightblue" points="156.88,-129.37 146.5,-131.5 155.94,-136.3 156.88,-129.37"/>
</g>
<!-- Node8&#45;&gt;Node6 -->
<g id="edge11" class="edge">
<title>Node8&#45;&gt;Node6</title>
<path fill="none" stroke="midnightblue" d="M531.64,-169.81C536.27,-169.17 540.91,-168.56 545.37,-168 698.22,-148.92 740.74,-158.72 895.3,-132.18"/>
<polygon fill="midnightblue" stroke="midnightblue" points="895.91,-135.62 905.16,-130.46 894.71,-128.73 895.91,-135.62"/>
</g>
<!-- Node9 -->
<g id="node9" class="node">
<title>Node9</title>
<g id="a_node9"><a xlink:href="constpropagatinguniquepointer_8h.html" target="_top" xlink:title=" ">
<polygon fill="white" stroke="black" points="170.87,-112.5 170.87,-131.5 427.87,-131.5 427.87,-112.5 170.87,-112.5"/>
<text text-anchor="middle" x="299.37" y="-119.5" font-family="Helvetica,sans-Serif" font-size="10.00">PerceptualColor/constpropagatinguniquepointer.h</text>
</a>
</g>
</g>
<!-- Node8&#45;&gt;Node9 -->
<g id="edge12" class="edge">
<title>Node8&#45;&gt;Node9</title>
<path fill="none" stroke="midnightblue" d="M455.06,-168.44C423.53,-159.24 373.24,-144.56 338.39,-134.39"/>
<polygon fill="midnightblue" stroke="midnightblue" points="339.13,-130.96 328.55,-131.52 337.17,-137.68 339.13,-130.96"/>
</g>
<!-- Node11 -->
<g id="node11" class="node">
<title>Node11</title>
<g id="a_node11"><a xlink:href="lchadouble_8h.html" target="_top" xlink:title=" ">
<polygon fill="white" stroke="black" points="728.87,-112.5 728.87,-131.5 887.87,-131.5 887.87,-112.5 728.87,-112.5"/>
<text text-anchor="middle" x="808.37" y="-119.5" font-family="Helvetica,sans-Serif" font-size="10.00">PerceptualColor/lchadouble.h</text>
</a>
</g>
</g>
<!-- Node8&#45;&gt;Node11 -->
<g id="edge15" class="edge">
<title>Node8&#45;&gt;Node11</title>
<path fill="none" stroke="midnightblue" d="M531.49,-169.15C588.43,-159.66 684.39,-143.66 747.05,-133.22"/>
<polygon fill="midnightblue" stroke="midnightblue" points="747.9,-136.63 757.19,-131.53 746.75,-129.72 747.9,-136.63"/>
</g>
<!-- Node13 -->
<g id="node13" class="node">
<title>Node13</title>
<g id="a_node13"><a xlink:href="lchdouble_8h.html" target="_top" xlink:title=" ">
<polygon fill="white" stroke="black" points="557.87,-112.5 557.87,-131.5 710.87,-131.5 710.87,-112.5 557.87,-112.5"/>
<text text-anchor="middle" x="634.37" y="-119.5" font-family="Helvetica,sans-Serif" font-size="10.00">PerceptualColor/lchdouble.h</text>
</a>
</g>
</g>
<!-- Node8&#45;&gt;Node13 -->
<g id="edge18" class="edge">
<title>Node8&#45;&gt;Node13</title>
<path fill="none" stroke="midnightblue" d="M508.14,-168.44C533.27,-159.4 573.09,-145.06 601.28,-134.92"/>
<polygon fill="midnightblue" stroke="midnightblue" points="602.49,-138.2 610.72,-131.52 600.12,-131.61 602.49,-138.2"/>
</g>
<!-- Node14 -->
<g id="node14" class="node">
<title>Node14</title>
<g id="a_node14"><a xlink:title=" ">
<polygon fill="white" stroke="#bfbfbf" points="484.87,-112.5 484.87,-131.5 539.87,-131.5 539.87,-112.5 484.87,-112.5"/>
<text text-anchor="middle" x="512.37" y="-119.5" font-family="Helvetica,sans-Serif" font-size="10.00">lcms2.h</text>
</a>
</g>
</g>
<!-- Node8&#45;&gt;Node14 -->
<g id="edge21" class="edge">
<title>Node8&#45;&gt;Node14</title>
<path fill="none" stroke="midnightblue" d="M489,-168.08C492.83,-160.69 498.4,-149.95 503.14,-140.81"/>
<polygon fill="midnightblue" stroke="midnightblue" points="506.34,-142.24 507.84,-131.75 500.13,-139.02 506.34,-142.24"/>
</g>
<!-- Node9&#45;&gt;Node2 -->
<g id="edge13" class="edge">
<title>Node9&#45;&gt;Node2</title>
<path fill="none" stroke="midnightblue" d="M323.94,-112.44C349.9,-103.4 391.04,-89.06 420.17,-78.92"/>
<polygon fill="midnightblue" stroke="midnightblue" points="421.64,-82.11 429.93,-75.52 419.33,-75.5 421.64,-82.11"/>
</g>
<!-- Node10 -->
<g id="node10" class="node">
<title>Node10</title>
<g id="a_node10"><a xlink:title=" ">
<polygon fill="white" stroke="#bfbfbf" points="270.37,-56.5 270.37,-75.5 328.37,-75.5 328.37,-56.5 270.37,-56.5"/>
<text text-anchor="middle" x="299.37" y="-63.5" font-family="Helvetica,sans-Serif" font-size="10.00">memory</text>
</a>
</g>
</g>
<!-- Node9&#45;&gt;Node10 -->
<g id="edge14" class="edge">
<title>Node9&#45;&gt;Node10</title>
<path fill="none" stroke="midnightblue" d="M299.37,-112.08C299.37,-105.01 299.37,-94.86 299.37,-85.99"/>
<polygon fill="midnightblue" stroke="midnightblue" points="302.88,-85.75 299.37,-75.75 295.88,-85.75 302.88,-85.75"/>
</g>
<!-- Node11&#45;&gt;Node2 -->
<g id="edge16" class="edge">
<title>Node11&#45;&gt;Node2</title>
<path fill="none" stroke="midnightblue" d="M752.28,-112.44C689.23,-102.83 586.98,-87.23 520.2,-77.04"/>
<polygon fill="midnightblue" stroke="midnightblue" points="520.62,-73.56 510.2,-75.52 519.56,-80.48 520.62,-73.56"/>
</g>
<!-- Node12 -->
<g id="node12" class="node">
<title>Node12</title>
<g id="a_node12"><a xlink:title=" ">
<polygon fill="white" stroke="#bfbfbf" points="693.37,-56.5 693.37,-75.5 749.37,-75.5 749.37,-56.5 693.37,-56.5"/>
<text text-anchor="middle" x="721.37" y="-63.5" font-family="Helvetica,sans-Serif" font-size="10.00">QDebug</text>
</a>
</g>
</g>
<!-- Node11&#45;&gt;Node12 -->
<g id="edge17" class="edge">
<title>Node11&#45;&gt;Node12</title>
<path fill="none" stroke="midnightblue" d="M794.4,-112.32C780.83,-103.9 759.99,-90.97 744.05,-81.07"/>
<polygon fill="midnightblue" stroke="midnightblue" points="745.66,-77.95 735.32,-75.65 741.97,-83.9 745.66,-77.95"/>
</g>
<!-- Node13&#45;&gt;Node2 -->
<g id="edge19" class="edge">
<title>Node13&#45;&gt;Node2</title>
<path fill="none" stroke="midnightblue" d="M605.85,-112.44C575.31,-103.28 526.67,-88.69 492.77,-78.52"/>
<polygon fill="midnightblue" stroke="midnightblue" points="493.35,-75.04 482.76,-75.52 491.34,-81.74 493.35,-75.04"/>
</g>
<!-- Node13&#45;&gt;Node12 -->
<g id="edge20" class="edge">
<title>Node13&#45;&gt;Node12</title>
<path fill="none" stroke="midnightblue" d="M648.35,-112.32C661.92,-103.9 682.76,-90.97 698.7,-81.07"/>
<polygon fill="midnightblue" stroke="midnightblue" points="700.78,-83.9 707.43,-75.65 697.09,-77.95 700.78,-83.9"/>
</g>
</g>
</svg>
