<?xml version="1.0" encoding="UTF-8" standalone="no"?>
<!DOCTYPE svg PUBLIC "-//W3C//DTD SVG 1.1//EN"
 "http://www.w3.org/Graphics/SVG/1.1/DTD/svg11.dtd">
<!-- Generated by graphviz version 2.43.0 (0)
 -->
<!-- Title: src/colorpatch.cpp Pages: 1 -->
<svg width="1210pt" height="308pt"
 viewBox="0.00 0.00 1210.04 308.00" xmlns="http://www.w3.org/2000/svg" xmlns:xlink="http://www.w3.org/1999/xlink">
<g id="graph0" class="graph" transform="scale(1 1) rotate(0) translate(4 304)">
<title>src/colorpatch.cpp</title>
<polygon fill="white" stroke="transparent" points="-4,4 -4,-304 1206.04,-304 1206.04,4 -4,4"/>
<!-- Node1 -->
<g id="node1" class="node">
<title>Node1</title>
<g id="a_node1"><a xlink:title=" ">
<polygon fill="#bfbfbf" stroke="black" points="274.04,-280.5 274.04,-299.5 379.04,-299.5 379.04,-280.5 274.04,-280.5"/>
<text text-anchor="middle" x="326.54" y="-287.5" font-family="Helvetica,sans-Serif" font-size="10.00">src/colorpatch.cpp</text>
</a>
</g>
</g>
<!-- Node2 -->
<g id="node2" class="node">
<title>Node2</title>
<g id="a_node2"><a xlink:href="perceptualcolorglobal_8h.html" target="_top" xlink:title=" ">
<polygon fill="white" stroke="black" points="164.54,-56.5 164.54,-75.5 376.54,-75.5 376.54,-56.5 164.54,-56.5"/>
<text text-anchor="middle" x="270.54" y="-63.5" font-family="Helvetica,sans-Serif" font-size="10.00">PerceptualColor/perceptualcolorglobal.h</text>
</a>
</g>
</g>
<!-- Node1&#45;&gt;Node2 -->
<g id="edge1" class="edge">
<title>Node1&#45;&gt;Node2</title>
<path fill="none" stroke="midnightblue" d="M274,-284.06C211.78,-277.41 112.67,-264.05 81.54,-244 30.53,-211.16 21.7,-189.88 3.54,-132 0.87,-123.52 -2.2,-118.79 3.54,-112 23.23,-88.7 91.6,-77.46 154.22,-72.04"/>
<polygon fill="midnightblue" stroke="midnightblue" points="154.53,-75.53 164.21,-71.22 153.96,-68.55 154.53,-75.53"/>
</g>
<!-- Node4 -->
<g id="node4" class="node">
<title>Node4</title>
<g id="a_node4"><a xlink:href="perceptualcolorinternal_8h.html" target="_top" xlink:title=" ">
<polygon fill="white" stroke="black" points="26.04,-112.5 26.04,-131.5 165.04,-131.5 165.04,-112.5 26.04,-112.5"/>
<text text-anchor="middle" x="95.54" y="-119.5" font-family="Helvetica,sans-Serif" font-size="10.00">perceptualcolorinternal.h</text>
</a>
</g>
</g>
<!-- Node1&#45;&gt;Node4 -->
<g id="edge3" class="edge">
<title>Node1&#45;&gt;Node4</title>
<path fill="none" stroke="midnightblue" d="M273.96,-288.01C227.77,-284.93 160.34,-274.89 110.54,-244 83.64,-227.32 76.88,-217.91 66.54,-188 60.69,-171.11 70.71,-152.56 80.53,-139.61"/>
<polygon fill="midnightblue" stroke="midnightblue" points="83.44,-141.58 87.1,-131.64 78.04,-137.13 83.44,-141.58"/>
</g>
<!-- Node5 -->
<g id="node5" class="node">
<title>Node5</title>
<g id="a_node5"><a xlink:href="colorpatch_8h.html" target="_top" xlink:title=" ">
<polygon fill="white" stroke="black" points="263.04,-168.5 263.04,-187.5 420.04,-187.5 420.04,-168.5 263.04,-168.5"/>
<text text-anchor="middle" x="341.54" y="-175.5" font-family="Helvetica,sans-Serif" font-size="10.00">PerceptualColor/colorpatch.h</text>
</a>
</g>
</g>
<!-- Node1&#45;&gt;Node5 -->
<g id="edge5" class="edge">
<title>Node1&#45;&gt;Node5</title>
<path fill="none" stroke="midnightblue" d="M322.02,-280.49C315.97,-267.97 306.67,-243.93 312.54,-224 315.55,-213.76 321.69,-203.66 327.55,-195.63"/>
<polygon fill="midnightblue" stroke="midnightblue" points="330.47,-197.58 333.86,-187.54 324.95,-193.27 330.47,-197.58"/>
</g>
<!-- Node9 -->
<g id="node9" class="node">
<title>Node9</title>
<g id="a_node9"><a xlink:href="colorpatch__p_8h.html" target="_top" xlink:title=" ">
<polygon fill="white" stroke="black" points="119.54,-224.5 119.54,-243.5 207.54,-243.5 207.54,-224.5 119.54,-224.5"/>
<text text-anchor="middle" x="163.54" y="-231.5" font-family="Helvetica,sans-Serif" font-size="10.00">colorpatch_p.h</text>
</a>
</g>
</g>
<!-- Node1&#45;&gt;Node9 -->
<g id="edge11" class="edge">
<title>Node1&#45;&gt;Node9</title>
<path fill="none" stroke="midnightblue" d="M300.71,-280.44C273.29,-271.36 229.76,-256.94 199.1,-246.78"/>
<polygon fill="midnightblue" stroke="midnightblue" points="199.84,-243.34 189.24,-243.52 197.63,-249.98 199.84,-243.34"/>
</g>
<!-- Node11 -->
<g id="node11" class="node">
<title>Node11</title>
<g id="a_node11"><a xlink:title=" ">
<polygon fill="white" stroke="#bfbfbf" points="393.04,-224.5 393.04,-243.5 472.04,-243.5 472.04,-224.5 393.04,-224.5"/>
<text text-anchor="middle" x="432.54" y="-231.5" font-family="Helvetica,sans-Serif" font-size="10.00">QApplication</text>
</a>
</g>
</g>
<!-- Node1&#45;&gt;Node11 -->
<g id="edge18" class="edge">
<title>Node1&#45;&gt;Node11</title>
<path fill="none" stroke="midnightblue" d="M343.57,-280.32C360.57,-271.66 386.91,-258.24 406.53,-248.25"/>
<polygon fill="midnightblue" stroke="midnightblue" points="408.23,-251.31 415.55,-243.65 405.05,-245.08 408.23,-251.31"/>
</g>
<!-- Node12 -->
<g id="node12" class="node">
<title>Node12</title>
<g id="a_node12"><a xlink:title=" ">
<polygon fill="white" stroke="#bfbfbf" points="489.54,-224.5 489.54,-243.5 547.54,-243.5 547.54,-224.5 489.54,-224.5"/>
<text text-anchor="middle" x="518.54" y="-231.5" font-family="Helvetica,sans-Serif" font-size="10.00">QPainter</text>
</a>
</g>
</g>
<!-- Node1&#45;&gt;Node12 -->
<g id="edge19" class="edge">
<title>Node1&#45;&gt;Node12</title>
<path fill="none" stroke="midnightblue" d="M356.96,-280.44C390.21,-271.09 443.56,-256.09 479.78,-245.9"/>
<polygon fill="midnightblue" stroke="midnightblue" points="480.83,-249.24 489.51,-243.16 478.94,-242.5 480.83,-249.24"/>
</g>
<!-- Node13 -->
<g id="node13" class="node">
<title>Node13</title>
<g id="a_node13"><a xlink:title=" ">
<polygon fill="white" stroke="#bfbfbf" points="566.04,-224.5 566.04,-243.5 647.04,-243.5 647.04,-224.5 566.04,-224.5"/>
<text text-anchor="middle" x="606.54" y="-231.5" font-family="Helvetica,sans-Serif" font-size="10.00">QStyleOption</text>
</a>
</g>
</g>
<!-- Node1&#45;&gt;Node13 -->
<g id="edge20" class="edge">
<title>Node1&#45;&gt;Node13</title>
<path fill="none" stroke="midnightblue" d="M370.9,-280.44C421.32,-270.72 503.42,-254.89 556.19,-244.71"/>
<polygon fill="midnightblue" stroke="midnightblue" points="556.86,-248.15 566.01,-242.82 555.53,-241.27 556.86,-248.15"/>
</g>
<!-- Node14 -->
<g id="node14" class="node">
<title>Node14</title>
<g id="a_node14"><a xlink:href="abstractdiagram_8h.html" target="_top" xlink:title=" ">
<polygon fill="white" stroke="black" points="482.54,-168.5 482.54,-187.5 668.54,-187.5 668.54,-168.5 482.54,-168.5"/>
<text text-anchor="middle" x="575.54" y="-175.5" font-family="Helvetica,sans-Serif" font-size="10.00">PerceptualColor/abstractdiagram.h</text>
</a>
</g>
</g>
<!-- Node1&#45;&gt;Node14 -->
<g id="edge21" class="edge">
<title>Node1&#45;&gt;Node14</title>
<path fill="none" stroke="midnightblue" d="M327.12,-280.34C328.56,-266.26 333.53,-238.54 350.54,-224 370.13,-207.25 427.41,-195.94 479.27,-188.84"/>
<polygon fill="midnightblue" stroke="midnightblue" points="479.76,-192.31 489.21,-187.52 478.84,-185.37 479.76,-192.31"/>
</g>
<!-- Node16 -->
<g id="node16" class="node">
<title>Node16</title>
<g id="a_node16"><a xlink:href="helper_8h.html" target="_top" xlink:title="Various smaller help elements.">
<polygon fill="white" stroke="black" points="863.54,-168.5 863.54,-187.5 919.54,-187.5 919.54,-168.5 863.54,-168.5"/>
<text text-anchor="middle" x="891.54" y="-175.5" font-family="Helvetica,sans-Serif" font-size="10.00">helper.h</text>
</a>
</g>
</g>
<!-- Node1&#45;&gt;Node16 -->
<g id="edge25" class="edge">
<title>Node1&#45;&gt;Node16</title>
<path fill="none" stroke="midnightblue" d="M331.26,-280.38C339.76,-265.83 359.13,-236.76 384.54,-224 426.13,-203.11 742.71,-186.12 853.44,-180.77"/>
<polygon fill="midnightblue" stroke="midnightblue" points="853.68,-184.26 863.5,-180.28 853.34,-177.27 853.68,-184.26"/>
</g>
<!-- Node3 -->
<g id="node3" class="node">
<title>Node3</title>
<g id="a_node3"><a xlink:title=" ">
<polygon fill="white" stroke="#bfbfbf" points="559.04,-0.5 559.04,-19.5 618.04,-19.5 618.04,-0.5 559.04,-0.5"/>
<text text-anchor="middle" x="588.54" y="-7.5" font-family="Helvetica,sans-Serif" font-size="10.00">QtGlobal</text>
</a>
</g>
</g>
<!-- Node2&#45;&gt;Node3 -->
<g id="edge2" class="edge">
<title>Node2&#45;&gt;Node3</title>
<path fill="none" stroke="midnightblue" d="M320.92,-56.44C384.07,-45.72 490.99,-27.56 548.72,-17.76"/>
<polygon fill="midnightblue" stroke="midnightblue" points="549.63,-21.16 558.91,-16.03 548.46,-14.26 549.63,-21.16"/>
</g>
<!-- Node4&#45;&gt;Node2 -->
<g id="edge4" class="edge">
<title>Node4&#45;&gt;Node2</title>
<path fill="none" stroke="midnightblue" d="M123.26,-112.44C152.96,-103.28 200.25,-88.69 233.2,-78.52"/>
<polygon fill="midnightblue" stroke="midnightblue" points="234.41,-81.81 242.94,-75.52 232.35,-75.12 234.41,-81.81"/>
</g>
<!-- Node5&#45;&gt;Node2 -->
<g id="edge6" class="edge">
<title>Node5&#45;&gt;Node2</title>
<path fill="none" stroke="midnightblue" d="M303.57,-168.41C284.13,-161.88 262.16,-150.72 250.54,-132 241.32,-117.17 249.43,-97.78 257.92,-84.05"/>
<polygon fill="midnightblue" stroke="midnightblue" points="260.94,-85.82 263.65,-75.58 255.15,-81.9 260.94,-85.82"/>
</g>
<!-- Node6 -->
<g id="node6" class="node">
<title>Node6</title>
<g id="a_node6"><a xlink:title=" ">
<polygon fill="white" stroke="#bfbfbf" points="260.04,-112.5 260.04,-131.5 315.04,-131.5 315.04,-112.5 260.04,-112.5"/>
<text text-anchor="middle" x="287.54" y="-119.5" font-family="Helvetica,sans-Serif" font-size="10.00">QFrame</text>
</a>
</g>
</g>
<!-- Node5&#45;&gt;Node6 -->
<g id="edge7" class="edge">
<title>Node5&#45;&gt;Node6</title>
<path fill="none" stroke="midnightblue" d="M332.62,-168.08C324.75,-160.22 313.1,-148.57 303.62,-139.08"/>
<polygon fill="midnightblue" stroke="midnightblue" points="305.83,-136.35 296.29,-131.75 300.88,-141.3 305.83,-136.35"/>
</g>
<!-- Node7 -->
<g id="node7" class="node">
<title>Node7</title>
<g id="a_node7"><a xlink:href="constpropagatinguniquepointer_8h.html" target="_top" xlink:title=" ">
<polygon fill="white" stroke="black" points="333.04,-112.5 333.04,-131.5 590.04,-131.5 590.04,-112.5 333.04,-112.5"/>
<text text-anchor="middle" x="461.54" y="-119.5" font-family="Helvetica,sans-Serif" font-size="10.00">PerceptualColor/constpropagatinguniquepointer.h</text>
</a>
</g>
</g>
<!-- Node5&#45;&gt;Node7 -->
<g id="edge8" class="edge">
<title>Node5&#45;&gt;Node7</title>
<path fill="none" stroke="midnightblue" d="M360.55,-168.44C380.12,-159.64 410.84,-145.81 433.26,-135.72"/>
<polygon fill="midnightblue" stroke="midnightblue" points="434.93,-138.81 442.61,-131.52 432.05,-132.43 434.93,-138.81"/>
</g>
<!-- Node7&#45;&gt;Node2 -->
<g id="edge9" class="edge">
<title>Node7&#45;&gt;Node2</title>
<path fill="none" stroke="midnightblue" d="M431.27,-112.44C398.58,-103.2 346.35,-88.44 310.35,-78.26"/>
<polygon fill="midnightblue" stroke="midnightblue" points="311.23,-74.87 300.66,-75.52 309.33,-81.61 311.23,-74.87"/>
</g>
<!-- Node8 -->
<g id="node8" class="node">
<title>Node8</title>
<g id="a_node8"><a xlink:title=" ">
<polygon fill="white" stroke="#bfbfbf" points="432.54,-56.5 432.54,-75.5 490.54,-75.5 490.54,-56.5 432.54,-56.5"/>
<text text-anchor="middle" x="461.54" y="-63.5" font-family="Helvetica,sans-Serif" font-size="10.00">memory</text>
</a>
</g>
</g>
<!-- Node7&#45;&gt;Node8 -->
<g id="edge10" class="edge">
<title>Node7&#45;&gt;Node8</title>
<path fill="none" stroke="midnightblue" d="M461.54,-112.08C461.54,-105.01 461.54,-94.86 461.54,-85.99"/>
<polygon fill="midnightblue" stroke="midnightblue" points="465.04,-85.75 461.54,-75.75 458.04,-85.75 465.04,-85.75"/>
</g>
<!-- Node9&#45;&gt;Node2 -->
<g id="edge12" class="edge">
<title>Node9&#45;&gt;Node2</title>
<path fill="none" stroke="midnightblue" d="M136.64,-224.5C83.75,-206.43 -25.2,-161.77 16.54,-112 34.62,-90.43 96.21,-79.19 154.2,-73.34"/>
<polygon fill="midnightblue" stroke="midnightblue" points="154.6,-76.82 164.22,-72.38 153.94,-69.85 154.6,-76.82"/>
</g>
<!-- Node9&#45;&gt;Node4 -->
<g id="edge13" class="edge">
<title>Node9&#45;&gt;Node4</title>
<path fill="none" stroke="midnightblue" d="M126.43,-224.46C107.09,-217.92 85.11,-206.72 73.54,-188 64.27,-173.01 73.05,-153.65 82.12,-139.97"/>
<polygon fill="midnightblue" stroke="midnightblue" points="85.2,-141.68 88.23,-131.53 79.53,-137.58 85.2,-141.68"/>
</g>
<!-- Node9&#45;&gt;Node5 -->
<g id="edge14" class="edge">
<title>Node9&#45;&gt;Node5</title>
<path fill="none" stroke="midnightblue" d="M191.74,-224.44C221.95,-215.28 270.05,-200.69 303.56,-190.52"/>
<polygon fill="midnightblue" stroke="midnightblue" points="304.91,-193.77 313.46,-187.52 302.88,-187.07 304.91,-193.77"/>
</g>
<!-- Node10 -->
<g id="node10" class="node">
<title>Node10</title>
<g id="a_node10"><a xlink:href="constpropagatingrawpointer_8h.html" target="_top" xlink:title=" ">
<polygon fill="white" stroke="black" points="82.54,-168.5 82.54,-187.5 244.54,-187.5 244.54,-168.5 82.54,-168.5"/>
<text text-anchor="middle" x="163.54" y="-175.5" font-family="Helvetica,sans-Serif" font-size="10.00">constpropagatingrawpointer.h</text>
</a>
</g>
</g>
<!-- Node9&#45;&gt;Node10 -->
<g id="edge15" class="edge">
<title>Node9&#45;&gt;Node10</title>
<path fill="none" stroke="midnightblue" d="M163.54,-224.08C163.54,-217.01 163.54,-206.86 163.54,-197.99"/>
<polygon fill="midnightblue" stroke="midnightblue" points="167.04,-197.75 163.54,-187.75 160.04,-197.75 167.04,-197.75"/>
</g>
<!-- Node10&#45;&gt;Node2 -->
<g id="edge16" class="edge">
<title>Node10&#45;&gt;Node2</title>
<path fill="none" stroke="midnightblue" d="M171.93,-168.37C189.82,-149.97 231.95,-106.67 254.92,-83.05"/>
<polygon fill="midnightblue" stroke="midnightblue" points="257.71,-85.2 262.18,-75.59 252.7,-80.32 257.71,-85.2"/>
</g>
<!-- Node10&#45;&gt;Node4 -->
<g id="edge17" class="edge">
<title>Node10&#45;&gt;Node4</title>
<path fill="none" stroke="midnightblue" d="M152.61,-168.32C142.36,-160.18 126.81,-147.84 114.53,-138.09"/>
<polygon fill="midnightblue" stroke="midnightblue" points="116.67,-135.31 106.66,-131.83 112.31,-140.79 116.67,-135.31"/>
</g>
<!-- Node14&#45;&gt;Node2 -->
<g id="edge22" class="edge">
<title>Node14&#45;&gt;Node2</title>
<path fill="none" stroke="midnightblue" d="M583.62,-168.43C595.32,-154.96 614.09,-128.68 599.54,-112 585.39,-95.79 475.92,-83.19 387.07,-75.49"/>
<polygon fill="midnightblue" stroke="midnightblue" points="387.16,-71.99 376.9,-74.63 386.57,-78.96 387.16,-71.99"/>
</g>
<!-- Node14&#45;&gt;Node7 -->
<g id="edge24" class="edge">
<title>Node14&#45;&gt;Node7</title>
<path fill="none" stroke="midnightblue" d="M557.47,-168.44C538.96,-159.68 509.95,-145.94 488.68,-135.86"/>
<polygon fill="midnightblue" stroke="midnightblue" points="490.05,-132.63 479.51,-131.52 487.05,-138.96 490.05,-132.63"/>
</g>
<!-- Node15 -->
<g id="node15" class="node">
<title>Node15</title>
<g id="a_node15"><a xlink:title=" ">
<polygon fill="white" stroke="#bfbfbf" points="647.04,-112.5 647.04,-131.5 706.04,-131.5 706.04,-112.5 647.04,-112.5"/>
<text text-anchor="middle" x="676.54" y="-119.5" font-family="Helvetica,sans-Serif" font-size="10.00">QWidget</text>
</a>
</g>
</g>
<!-- Node14&#45;&gt;Node15 -->
<g id="edge23" class="edge">
<title>Node14&#45;&gt;Node15</title>
<path fill="none" stroke="midnightblue" d="M591.76,-168.32C607.89,-159.7 632.84,-146.36 651.5,-136.39"/>
<polygon fill="midnightblue" stroke="midnightblue" points="653.18,-139.46 660.35,-131.65 649.88,-133.28 653.18,-139.46"/>
</g>
<!-- Node16&#45;&gt;Node2 -->
<g id="edge26" class="edge">
<title>Node16&#45;&gt;Node2</title>
<path fill="none" stroke="midnightblue" d="M863.52,-169.2C835.5,-161.07 791.38,-147.39 754.54,-132 736.56,-124.49 734.22,-117.52 715.54,-112 656.09,-94.44 497.74,-81.28 386.95,-73.86"/>
<polygon fill="midnightblue" stroke="midnightblue" points="386.93,-70.35 376.72,-73.18 386.46,-77.34 386.93,-70.35"/>
</g>
<!-- Node16&#45;&gt;Node3 -->
<g id="edge30" class="edge">
<title>Node16&#45;&gt;Node3</title>
<path fill="none" stroke="midnightblue" d="M901.3,-168.48C913.96,-156.36 933.51,-133.22 925.54,-112 913.9,-81.04 905.5,-71.96 876.54,-56 834.58,-32.89 697.22,-19.35 628.47,-13.87"/>
<polygon fill="midnightblue" stroke="midnightblue" points="628.69,-10.37 618.45,-13.09 628.15,-17.35 628.69,-10.37"/>
</g>
<!-- Node16&#45;&gt;Node4 -->
<g id="edge27" class="edge">
<title>Node16&#45;&gt;Node4</title>
<path fill="none" stroke="midnightblue" d="M863.21,-175.08C752.76,-167.59 348.61,-140.17 175.31,-128.41"/>
<polygon fill="midnightblue" stroke="midnightblue" points="175.45,-124.91 165.24,-127.73 174.98,-131.9 175.45,-124.91"/>
</g>
<!-- Node17 -->
<g id="node17" class="node">
<title>Node17</title>
<g id="a_node17"><a xlink:title=" ">
<polygon fill="white" stroke="#bfbfbf" points="973.04,-112.5 973.04,-131.5 1028.04,-131.5 1028.04,-112.5 973.04,-112.5"/>
<text text-anchor="middle" x="1000.54" y="-119.5" font-family="Helvetica,sans-Serif" font-size="10.00">QImage</text>
</a>
</g>
</g>
<!-- Node16&#45;&gt;Node17 -->
<g id="edge28" class="edge">
<title>Node16&#45;&gt;Node17</title>
<path fill="none" stroke="midnightblue" d="M909.05,-168.32C926.61,-159.62 953.87,-146.12 974.07,-136.11"/>
<polygon fill="midnightblue" stroke="midnightblue" points="975.66,-139.23 983.07,-131.65 972.55,-132.96 975.66,-139.23"/>
</g>
<!-- Node18 -->
<g id="node18" class="node">
<title>Node18</title>
<g id="a_node18"><a xlink:title=" ">
<polygon fill="white" stroke="#bfbfbf" points="1046.04,-112.5 1046.04,-131.5 1129.04,-131.5 1129.04,-112.5 1046.04,-112.5"/>
<text text-anchor="middle" x="1087.54" y="-119.5" font-family="Helvetica,sans-Serif" font-size="10.00">QWheelEvent</text>
</a>
</g>
</g>
<!-- Node16&#45;&gt;Node18 -->
<g id="edge29" class="edge">
<title>Node16&#45;&gt;Node18</title>
<path fill="none" stroke="midnightblue" d="M919.62,-169.26C952.95,-160.08 1008.79,-144.7 1046.85,-134.21"/>
<polygon fill="midnightblue" stroke="midnightblue" points="1047.88,-137.55 1056.6,-131.52 1046.02,-130.81 1047.88,-137.55"/>
</g>
<!-- Node19 -->
<g id="node19" class="node">
<title>Node19</title>
<g id="a_node19"><a xlink:href="lchdouble_8h.html" target="_top" xlink:title=" ">
<polygon fill="white" stroke="black" points="763.04,-112.5 763.04,-131.5 916.04,-131.5 916.04,-112.5 763.04,-112.5"/>
<text text-anchor="middle" x="839.54" y="-119.5" font-family="Helvetica,sans-Serif" font-size="10.00">PerceptualColor/lchdouble.h</text>
</a>
</g>
</g>
<!-- Node16&#45;&gt;Node19 -->
<g id="edge31" class="edge">
<title>Node16&#45;&gt;Node19</title>
<path fill="none" stroke="midnightblue" d="M882.95,-168.08C875.38,-160.22 864.16,-148.57 855.02,-139.08"/>
<polygon fill="midnightblue" stroke="midnightblue" points="857.42,-136.53 847.96,-131.75 852.38,-141.38 857.42,-136.53"/>
</g>
<!-- Node21 -->
<g id="node21" class="node">
<title>Node21</title>
<g id="a_node21"><a xlink:title=" ">
<polygon fill="white" stroke="#bfbfbf" points="1147.04,-112.5 1147.04,-131.5 1202.04,-131.5 1202.04,-112.5 1147.04,-112.5"/>
<text text-anchor="middle" x="1174.54" y="-119.5" font-family="Helvetica,sans-Serif" font-size="10.00">lcms2.h</text>
</a>
</g>
</g>
<!-- Node16&#45;&gt;Node21 -->
<g id="edge34" class="edge">
<title>Node16&#45;&gt;Node21</title>
<path fill="none" stroke="midnightblue" d="M919.81,-172.46C964.07,-165.22 1052.63,-150.21 1136.71,-132.3"/>
<polygon fill="midnightblue" stroke="midnightblue" points="1137.63,-135.68 1146.67,-130.16 1136.16,-128.84 1137.63,-135.68"/>
</g>
<!-- Node19&#45;&gt;Node2 -->
<g id="edge32" class="edge">
<title>Node19&#45;&gt;Node2</title>
<path fill="none" stroke="midnightblue" d="M762.58,-113.36C757.83,-112.9 753.12,-112.44 748.54,-112 618.92,-99.49 469.5,-85.49 372.7,-76.48"/>
<polygon fill="midnightblue" stroke="midnightblue" points="372.91,-72.98 362.63,-75.54 372.26,-79.95 372.91,-72.98"/>
</g>
<!-- Node20 -->
<g id="node20" class="node">
<title>Node20</title>
<g id="a_node20"><a xlink:title=" ">
<polygon fill="white" stroke="#bfbfbf" points="811.54,-56.5 811.54,-75.5 867.54,-75.5 867.54,-56.5 811.54,-56.5"/>
<text text-anchor="middle" x="839.54" y="-63.5" font-family="Helvetica,sans-Serif" font-size="10.00">QDebug</text>
</a>
</g>
</g>
<!-- Node19&#45;&gt;Node20 -->
<g id="edge33" class="edge">
<title>Node19&#45;&gt;Node20</title>
<path fill="none" stroke="midnightblue" d="M839.54,-112.08C839.54,-105.01 839.54,-94.86 839.54,-85.99"/>
<polygon fill="midnightblue" stroke="midnightblue" points="843.04,-85.75 839.54,-75.75 836.04,-85.75 843.04,-85.75"/>
</g>
</g>
</svg>
