<?xml version="1.0" encoding="UTF-8" standalone="no"?>
<!DOCTYPE svg PUBLIC "-//W3C//DTD SVG 1.1//EN"
 "http://www.w3.org/Graphics/SVG/1.1/DTD/svg11.dtd">
<!-- Generated by graphviz version 2.43.0 (0)
 -->
<!-- Title: src/colorwheelimage.cpp Pages: 1 -->
<svg width="1707pt" height="308pt"
 viewBox="0.00 0.00 1707.00 308.00" xmlns="http://www.w3.org/2000/svg" xmlns:xlink="http://www.w3.org/1999/xlink">
<g id="graph0" class="graph" transform="scale(1 1) rotate(0) translate(4 304)">
<title>src/colorwheelimage.cpp</title>
<polygon fill="white" stroke="transparent" points="-4,4 -4,-304 1703,-304 1703,4 -4,4"/>
<!-- Node1 -->
<g id="node1" class="node">
<title>Node1</title>
<g id="a_node1"><a xlink:title=" ">
<polygon fill="#bfbfbf" stroke="black" points="816.5,-280.5 816.5,-299.5 954.5,-299.5 954.5,-280.5 816.5,-280.5"/>
<text text-anchor="middle" x="885.5" y="-287.5" font-family="Helvetica,sans-Serif" font-size="10.00">src/colorwheelimage.cpp</text>
</a>
</g>
</g>
<!-- Node2 -->
<g id="node2" class="node">
<title>Node2</title>
<g id="a_node2"><a xlink:href="perceptualcolorglobal_8h.html" target="_top" xlink:title=" ">
<polygon fill="white" stroke="black" points="671.5,-56.5 671.5,-75.5 883.5,-75.5 883.5,-56.5 671.5,-56.5"/>
<text text-anchor="middle" x="777.5" y="-63.5" font-family="Helvetica,sans-Serif" font-size="10.00">PerceptualColor/perceptualcolorglobal.h</text>
</a>
</g>
</g>
<!-- Node1&#45;&gt;Node2 -->
<g id="edge1" class="edge">
<title>Node1&#45;&gt;Node2</title>
<path fill="none" stroke="midnightblue" d="M954.51,-281.1C1131.11,-259.54 1580.18,-195.72 1501.5,-112 1481.05,-90.24 1093.35,-76.02 893.91,-70.11"/>
<polygon fill="midnightblue" stroke="midnightblue" points="893.78,-66.61 883.68,-69.81 893.57,-73.6 893.78,-66.61"/>
</g>
<!-- Node4 -->
<g id="node4" class="node">
<title>Node4</title>
<g id="a_node4"><a xlink:href="perceptualcolorinternal_8h.html" target="_top" xlink:title=" ">
<polygon fill="white" stroke="black" points="315,-112.5 315,-131.5 454,-131.5 454,-112.5 315,-112.5"/>
<text text-anchor="middle" x="384.5" y="-119.5" font-family="Helvetica,sans-Serif" font-size="10.00">perceptualcolorinternal.h</text>
</a>
</g>
</g>
<!-- Node1&#45;&gt;Node4 -->
<g id="edge3" class="edge">
<title>Node1&#45;&gt;Node4</title>
<path fill="none" stroke="midnightblue" d="M859.62,-280.42C776.39,-252.85 515.51,-166.41 419.99,-134.76"/>
<polygon fill="midnightblue" stroke="midnightblue" points="420.82,-131.35 410.23,-131.52 418.62,-137.99 420.82,-131.35"/>
</g>
<!-- Node5 -->
<g id="node5" class="node">
<title>Node5</title>
<g id="a_node5"><a xlink:href="colorwheelimage_8h.html" target="_top" xlink:title=" ">
<polygon fill="white" stroke="black" points="892.5,-224.5 892.5,-243.5 1002.5,-243.5 1002.5,-224.5 892.5,-224.5"/>
<text text-anchor="middle" x="947.5" y="-231.5" font-family="Helvetica,sans-Serif" font-size="10.00">colorwheelimage.h</text>
</a>
</g>
</g>
<!-- Node1&#45;&gt;Node5 -->
<g id="edge5" class="edge">
<title>Node1&#45;&gt;Node5</title>
<path fill="none" stroke="midnightblue" d="M895.46,-280.32C904.63,-272.34 918.44,-260.31 929.53,-250.65"/>
<polygon fill="midnightblue" stroke="midnightblue" points="932.12,-253.04 937.36,-243.83 927.52,-247.76 932.12,-253.04"/>
</g>
<!-- Node16 -->
<g id="node16" class="node">
<title>Node16</title>
<g id="a_node16"><a xlink:href="helper_8h.html" target="_top" xlink:title="Various smaller help elements.">
<polygon fill="white" stroke="black" points="697.5,-168.5 697.5,-187.5 753.5,-187.5 753.5,-168.5 697.5,-168.5"/>
<text text-anchor="middle" x="725.5" y="-175.5" font-family="Helvetica,sans-Serif" font-size="10.00">helper.h</text>
</a>
</g>
</g>
<!-- Node1&#45;&gt;Node16 -->
<g id="edge25" class="edge">
<title>Node1&#45;&gt;Node16</title>
<path fill="none" stroke="midnightblue" d="M872.95,-280.37C845.61,-261.57 780.44,-216.77 746.64,-193.53"/>
<polygon fill="midnightblue" stroke="midnightblue" points="748.22,-190.37 738,-187.59 744.25,-196.14 748.22,-190.37"/>
</g>
<!-- Node18 -->
<g id="node18" class="node">
<title>Node18</title>
<g id="a_node18"><a xlink:href="lchvalues_8h.html" target="_top" xlink:title=" ">
<polygon fill="white" stroke="black" points="379.5,-168.5 379.5,-187.5 451.5,-187.5 451.5,-168.5 379.5,-168.5"/>
<text text-anchor="middle" x="415.5" y="-175.5" font-family="Helvetica,sans-Serif" font-size="10.00">lchvalues.h</text>
</a>
</g>
</g>
<!-- Node1&#45;&gt;Node18 -->
<g id="edge33" class="edge">
<title>Node1&#45;&gt;Node18</title>
<path fill="none" stroke="midnightblue" d="M816.41,-285.68C748.55,-281.02 642.68,-269.96 554.5,-244 511.94,-231.47 465.92,-207.73 438.96,-192.67"/>
<polygon fill="midnightblue" stroke="midnightblue" points="440.36,-189.44 429.94,-187.55 436.91,-195.53 440.36,-189.44"/>
</g>
<!-- Node19 -->
<g id="node19" class="node">
<title>Node19</title>
<g id="a_node19"><a xlink:href="polarpointf_8h.html" target="_top" xlink:title=" ">
<polygon fill="white" stroke="black" points="171.5,-168.5 171.5,-187.5 249.5,-187.5 249.5,-168.5 171.5,-168.5"/>
<text text-anchor="middle" x="210.5" y="-175.5" font-family="Helvetica,sans-Serif" font-size="10.00">polarpointf.h</text>
</a>
</g>
</g>
<!-- Node1&#45;&gt;Node19 -->
<g id="edge37" class="edge">
<title>Node1&#45;&gt;Node19</title>
<path fill="none" stroke="midnightblue" d="M816.16,-283.13C738.65,-276.06 609.58,-262.74 499.5,-244 411.21,-228.97 309.29,-204.3 253.15,-190.07"/>
<polygon fill="midnightblue" stroke="midnightblue" points="253.77,-186.62 243.22,-187.54 252.04,-193.4 253.77,-186.62"/>
</g>
<!-- Node22 -->
<g id="node22" class="node">
<title>Node22</title>
<g id="a_node22"><a xlink:title=" ">
<polygon fill="white" stroke="#bfbfbf" points="1569.5,-224.5 1569.5,-243.5 1627.5,-243.5 1627.5,-224.5 1569.5,-224.5"/>
<text text-anchor="middle" x="1598.5" y="-231.5" font-family="Helvetica,sans-Serif" font-size="10.00">QPainter</text>
</a>
</g>
</g>
<!-- Node1&#45;&gt;Node22 -->
<g id="edge43" class="edge">
<title>Node1&#45;&gt;Node22</title>
<path fill="none" stroke="midnightblue" d="M954.79,-287.52C1076.74,-284.22 1337.51,-273.99 1555.5,-244 1556.78,-243.82 1558.07,-243.63 1559.37,-243.43"/>
<polygon fill="midnightblue" stroke="midnightblue" points="1560.21,-246.84 1569.45,-241.65 1559,-239.94 1560.21,-246.84"/>
</g>
<!-- Node23 -->
<g id="node23" class="node">
<title>Node23</title>
<g id="a_node23"><a xlink:title=" ">
<polygon fill="white" stroke="#bfbfbf" points="1646,-224.5 1646,-243.5 1699,-243.5 1699,-224.5 1646,-224.5"/>
<text text-anchor="middle" x="1672.5" y="-231.5" font-family="Helvetica,sans-Serif" font-size="10.00">QtMath</text>
</a>
</g>
</g>
<!-- Node1&#45;&gt;Node23 -->
<g id="edge44" class="edge">
<title>Node1&#45;&gt;Node23</title>
<path fill="none" stroke="midnightblue" d="M954.55,-289.12C1085.65,-288.42 1379.61,-282.41 1635.64,-243.8"/>
<polygon fill="midnightblue" stroke="midnightblue" points="1636.52,-247.21 1645.88,-242.24 1635.46,-240.29 1636.52,-247.21"/>
</g>
<!-- Node3 -->
<g id="node3" class="node">
<title>Node3</title>
<g id="a_node3"><a xlink:title=" ">
<polygon fill="white" stroke="#bfbfbf" points="453,-0.5 453,-19.5 512,-19.5 512,-0.5 453,-0.5"/>
<text text-anchor="middle" x="482.5" y="-7.5" font-family="Helvetica,sans-Serif" font-size="10.00">QtGlobal</text>
</a>
</g>
</g>
<!-- Node2&#45;&gt;Node3 -->
<g id="edge2" class="edge">
<title>Node2&#45;&gt;Node3</title>
<path fill="none" stroke="midnightblue" d="M730.76,-56.44C673.22,-45.91 576.49,-28.2 522.32,-18.29"/>
<polygon fill="midnightblue" stroke="midnightblue" points="522.87,-14.83 512.4,-16.47 521.61,-21.72 522.87,-14.83"/>
</g>
<!-- Node4&#45;&gt;Node2 -->
<g id="edge4" class="edge">
<title>Node4&#45;&gt;Node2</title>
<path fill="none" stroke="midnightblue" d="M446.77,-112.44C517.05,-102.79 631.22,-87.1 705.34,-76.92"/>
<polygon fill="midnightblue" stroke="midnightblue" points="706.09,-80.35 715.52,-75.52 705.14,-73.41 706.09,-80.35"/>
</g>
<!-- Node5&#45;&gt;Node2 -->
<g id="edge6" class="edge">
<title>Node5&#45;&gt;Node2</title>
<path fill="none" stroke="midnightblue" d="M1002.6,-229.59C1152.63,-219.31 1552.76,-184.74 1484.5,-112 1464.63,-90.83 1089.37,-76.41 893.84,-70.29"/>
<polygon fill="midnightblue" stroke="midnightblue" points="893.91,-66.8 883.81,-69.98 893.69,-73.79 893.91,-66.8"/>
</g>
<!-- Node5&#45;&gt;Node4 -->
<g id="edge7" class="edge">
<title>Node5&#45;&gt;Node4</title>
<path fill="none" stroke="midnightblue" d="M894.81,-224.46C842.4,-215.82 759.74,-201.8 688.5,-188 597.59,-170.39 491.99,-147.19 432.22,-133.8"/>
<polygon fill="midnightblue" stroke="midnightblue" points="432.84,-130.35 422.32,-131.58 431.31,-137.18 432.84,-130.35"/>
</g>
<!-- Node6 -->
<g id="node6" class="node">
<title>Node6</title>
<g id="a_node6"><a xlink:title=" ">
<polygon fill="white" stroke="#bfbfbf" points="783,-112.5 783,-131.5 838,-131.5 838,-112.5 783,-112.5"/>
<text text-anchor="middle" x="810.5" y="-119.5" font-family="Helvetica,sans-Serif" font-size="10.00">QImage</text>
</a>
</g>
</g>
<!-- Node5&#45;&gt;Node6 -->
<g id="edge8" class="edge">
<title>Node5&#45;&gt;Node6</title>
<path fill="none" stroke="midnightblue" d="M936.75,-224.37C913.54,-205.73 858.49,-161.53 829.35,-138.13"/>
<polygon fill="midnightblue" stroke="midnightblue" points="831.19,-135.12 821.2,-131.59 826.81,-140.58 831.19,-135.12"/>
</g>
<!-- Node7 -->
<g id="node7" class="node">
<title>Node7</title>
<g id="a_node7"><a xlink:title=" ">
<polygon fill="white" stroke="#bfbfbf" points="1419.5,-112.5 1419.5,-131.5 1475.5,-131.5 1475.5,-112.5 1419.5,-112.5"/>
<text text-anchor="middle" x="1447.5" y="-119.5" font-family="Helvetica,sans-Serif" font-size="10.00">QObject</text>
</a>
</g>
</g>
<!-- Node5&#45;&gt;Node7 -->
<g id="edge9" class="edge">
<title>Node5&#45;&gt;Node7</title>
<path fill="none" stroke="midnightblue" d="M988.14,-224.48C1067.14,-207.83 1247.19,-169.53 1409.09,-132.29"/>
<polygon fill="midnightblue" stroke="midnightblue" points="1410.28,-135.61 1419.23,-129.95 1408.7,-128.78 1410.28,-135.61"/>
</g>
<!-- Node8 -->
<g id="node8" class="node">
<title>Node8</title>
<g id="a_node8"><a xlink:title=" ">
<polygon fill="white" stroke="#bfbfbf" points="1012.5,-168.5 1012.5,-187.5 1104.5,-187.5 1104.5,-168.5 1012.5,-168.5"/>
<text text-anchor="middle" x="1058.5" y="-175.5" font-family="Helvetica,sans-Serif" font-size="10.00">QSharedPointer</text>
</a>
</g>
</g>
<!-- Node5&#45;&gt;Node8 -->
<g id="edge10" class="edge">
<title>Node5&#45;&gt;Node8</title>
<path fill="none" stroke="midnightblue" d="M965.33,-224.32C983.22,-215.62 1010.98,-202.12 1031.55,-192.11"/>
<polygon fill="midnightblue" stroke="midnightblue" points="1033.25,-195.18 1040.71,-187.65 1030.19,-188.88 1033.25,-195.18"/>
</g>
<!-- Node9 -->
<g id="node9" class="node">
<title>Node9</title>
<g id="a_node9"><a xlink:href="rgbcolorspace_8h.html" target="_top" xlink:title=" ">
<polygon fill="white" stroke="black" points="900.5,-168.5 900.5,-187.5 994.5,-187.5 994.5,-168.5 900.5,-168.5"/>
<text text-anchor="middle" x="947.5" y="-175.5" font-family="Helvetica,sans-Serif" font-size="10.00">rgbcolorspace.h</text>
</a>
</g>
</g>
<!-- Node5&#45;&gt;Node9 -->
<g id="edge11" class="edge">
<title>Node5&#45;&gt;Node9</title>
<path fill="none" stroke="midnightblue" d="M947.5,-224.08C947.5,-217.01 947.5,-206.86 947.5,-197.99"/>
<polygon fill="midnightblue" stroke="midnightblue" points="951,-197.75 947.5,-187.75 944,-197.75 951,-197.75"/>
</g>
<!-- Node9&#45;&gt;Node2 -->
<g id="edge12" class="edge">
<title>Node9&#45;&gt;Node2</title>
<path fill="none" stroke="midnightblue" d="M994.78,-169.11C1033.93,-161.5 1085.08,-148.69 1097.5,-132 1102.81,-124.87 1103.33,-118.71 1097.5,-112 1071.16,-81.7 974.25,-71.21 893.91,-67.86"/>
<polygon fill="midnightblue" stroke="midnightblue" points="893.82,-64.35 883.7,-67.47 893.55,-71.35 893.82,-64.35"/>
</g>
<!-- Node9&#45;&gt;Node4 -->
<g id="edge13" class="edge">
<title>Node9&#45;&gt;Node4</title>
<path fill="none" stroke="midnightblue" d="M900.31,-172.97C815.34,-165.65 630.71,-149.38 464.64,-132.2"/>
<polygon fill="midnightblue" stroke="midnightblue" points="464.54,-128.68 454.23,-131.12 463.82,-135.64 464.54,-128.68"/>
</g>
<!-- Node9&#45;&gt;Node7 -->
<g id="edge14" class="edge">
<title>Node9&#45;&gt;Node7</title>
<path fill="none" stroke="midnightblue" d="M994.52,-169.19C997.56,-168.77 1000.57,-168.36 1003.5,-168 1180.45,-145.98 1229.56,-160.98 1409.26,-131.97"/>
<polygon fill="midnightblue" stroke="midnightblue" points="1410.01,-135.39 1419.31,-130.32 1408.87,-128.48 1410.01,-135.39"/>
</g>
<!-- Node10 -->
<g id="node10" class="node">
<title>Node10</title>
<g id="a_node10"><a xlink:href="constpropagatinguniquepointer_8h.html" target="_top" xlink:title=" ">
<polygon fill="white" stroke="black" points="1144,-112.5 1144,-131.5 1401,-131.5 1401,-112.5 1144,-112.5"/>
<text text-anchor="middle" x="1272.5" y="-119.5" font-family="Helvetica,sans-Serif" font-size="10.00">PerceptualColor/constpropagatinguniquepointer.h</text>
</a>
</g>
</g>
<!-- Node9&#45;&gt;Node10 -->
<g id="edge15" class="edge">
<title>Node9&#45;&gt;Node10</title>
<path fill="none" stroke="midnightblue" d="M994.76,-169.15C1051.88,-159.66 1148.13,-143.66 1210.99,-133.22"/>
<polygon fill="midnightblue" stroke="midnightblue" points="1211.87,-136.62 1221.16,-131.53 1210.72,-129.72 1211.87,-136.62"/>
</g>
<!-- Node12 -->
<g id="node12" class="node">
<title>Node12</title>
<g id="a_node12"><a xlink:href="lchadouble_8h.html" target="_top" xlink:title=" ">
<polygon fill="white" stroke="black" points="929,-112.5 929,-131.5 1088,-131.5 1088,-112.5 929,-112.5"/>
<text text-anchor="middle" x="1008.5" y="-119.5" font-family="Helvetica,sans-Serif" font-size="10.00">PerceptualColor/lchadouble.h</text>
</a>
</g>
</g>
<!-- Node9&#45;&gt;Node12 -->
<g id="edge18" class="edge">
<title>Node9&#45;&gt;Node12</title>
<path fill="none" stroke="midnightblue" d="M957.3,-168.32C966.32,-160.34 979.91,-148.31 990.82,-138.65"/>
<polygon fill="midnightblue" stroke="midnightblue" points="993.35,-141.08 998.52,-131.83 988.71,-135.84 993.35,-141.08"/>
</g>
<!-- Node14 -->
<g id="node14" class="node">
<title>Node14</title>
<g id="a_node14"><a xlink:href="lchdouble_8h.html" target="_top" xlink:title=" ">
<polygon fill="white" stroke="black" points="573,-112.5 573,-131.5 726,-131.5 726,-112.5 573,-112.5"/>
<text text-anchor="middle" x="649.5" y="-119.5" font-family="Helvetica,sans-Serif" font-size="10.00">PerceptualColor/lchdouble.h</text>
</a>
</g>
</g>
<!-- Node9&#45;&gt;Node14 -->
<g id="edge21" class="edge">
<title>Node9&#45;&gt;Node14</title>
<path fill="none" stroke="midnightblue" d="M900.28,-168.44C847.75,-158.92 762.89,-143.55 706.65,-133.36"/>
<polygon fill="midnightblue" stroke="midnightblue" points="706.96,-129.86 696.5,-131.52 705.71,-136.74 706.96,-129.86"/>
</g>
<!-- Node15 -->
<g id="node15" class="node">
<title>Node15</title>
<g id="a_node15"><a xlink:title=" ">
<polygon fill="white" stroke="#bfbfbf" points="856,-112.5 856,-131.5 911,-131.5 911,-112.5 856,-112.5"/>
<text text-anchor="middle" x="883.5" y="-119.5" font-family="Helvetica,sans-Serif" font-size="10.00">lcms2.h</text>
</a>
</g>
</g>
<!-- Node9&#45;&gt;Node15 -->
<g id="edge24" class="edge">
<title>Node9&#45;&gt;Node15</title>
<path fill="none" stroke="midnightblue" d="M937.22,-168.32C927.66,-160.26 913.22,-148.08 901.72,-138.37"/>
<polygon fill="midnightblue" stroke="midnightblue" points="903.87,-135.61 893.97,-131.83 899.36,-140.96 903.87,-135.61"/>
</g>
<!-- Node10&#45;&gt;Node2 -->
<g id="edge16" class="edge">
<title>Node10&#45;&gt;Node2</title>
<path fill="none" stroke="midnightblue" d="M1194.34,-112.47C1104.97,-102.72 959,-86.8 865.65,-76.62"/>
<polygon fill="midnightblue" stroke="midnightblue" points="865.98,-73.13 855.66,-75.53 865.22,-80.09 865.98,-73.13"/>
</g>
<!-- Node11 -->
<g id="node11" class="node">
<title>Node11</title>
<g id="a_node11"><a xlink:title=" ">
<polygon fill="white" stroke="#bfbfbf" points="1243.5,-56.5 1243.5,-75.5 1301.5,-75.5 1301.5,-56.5 1243.5,-56.5"/>
<text text-anchor="middle" x="1272.5" y="-63.5" font-family="Helvetica,sans-Serif" font-size="10.00">memory</text>
</a>
</g>
</g>
<!-- Node10&#45;&gt;Node11 -->
<g id="edge17" class="edge">
<title>Node10&#45;&gt;Node11</title>
<path fill="none" stroke="midnightblue" d="M1272.5,-112.08C1272.5,-105.01 1272.5,-94.86 1272.5,-85.99"/>
<polygon fill="midnightblue" stroke="midnightblue" points="1276,-85.75 1272.5,-75.75 1269,-85.75 1276,-85.75"/>
</g>
<!-- Node12&#45;&gt;Node2 -->
<g id="edge19" class="edge">
<title>Node12&#45;&gt;Node2</title>
<path fill="none" stroke="midnightblue" d="M971.9,-112.44C931.77,-103.06 867.3,-87.99 823.72,-77.8"/>
<polygon fill="midnightblue" stroke="midnightblue" points="824.47,-74.38 813.93,-75.52 822.87,-81.2 824.47,-74.38"/>
</g>
<!-- Node13 -->
<g id="node13" class="node">
<title>Node13</title>
<g id="a_node13"><a xlink:title=" ">
<polygon fill="white" stroke="#bfbfbf" points="597.5,-56.5 597.5,-75.5 653.5,-75.5 653.5,-56.5 597.5,-56.5"/>
<text text-anchor="middle" x="625.5" y="-63.5" font-family="Helvetica,sans-Serif" font-size="10.00">QDebug</text>
</a>
</g>
</g>
<!-- Node12&#45;&gt;Node13 -->
<g id="edge20" class="edge">
<title>Node12&#45;&gt;Node13</title>
<path fill="none" stroke="midnightblue" d="M935.48,-112.46C854.4,-102.81 727.54,-87.2 663.76,-76.02"/>
<polygon fill="midnightblue" stroke="midnightblue" points="664.18,-72.54 653.71,-74.2 662.93,-79.43 664.18,-72.54"/>
</g>
<!-- Node14&#45;&gt;Node2 -->
<g id="edge22" class="edge">
<title>Node14&#45;&gt;Node2</title>
<path fill="none" stroke="midnightblue" d="M669.78,-112.44C690.85,-103.56 724.02,-89.56 747.99,-79.45"/>
<polygon fill="midnightblue" stroke="midnightblue" points="749.46,-82.63 757.31,-75.52 746.74,-76.18 749.46,-82.63"/>
</g>
<!-- Node14&#45;&gt;Node13 -->
<g id="edge23" class="edge">
<title>Node14&#45;&gt;Node13</title>
<path fill="none" stroke="midnightblue" d="M645.54,-112.08C642.29,-104.77 637.58,-94.18 633.55,-85.1"/>
<polygon fill="midnightblue" stroke="midnightblue" points="636.65,-83.47 629.39,-75.75 630.25,-86.31 636.65,-83.47"/>
</g>
<!-- Node16&#45;&gt;Node2 -->
<g id="edge26" class="edge">
<title>Node16&#45;&gt;Node2</title>
<path fill="none" stroke="midnightblue" d="M729.58,-168.37C738.05,-150.46 757.68,-108.92 769.02,-84.95"/>
<polygon fill="midnightblue" stroke="midnightblue" points="772.33,-86.13 773.44,-75.59 766,-83.14 772.33,-86.13"/>
</g>
<!-- Node16&#45;&gt;Node3 -->
<g id="edge30" class="edge">
<title>Node16&#45;&gt;Node3</title>
<path fill="none" stroke="midnightblue" d="M697.41,-176.12C607.6,-173.02 331.72,-161.18 305.5,-132 258.5,-79.7 377.23,-38.7 442.7,-20.8"/>
<polygon fill="midnightblue" stroke="midnightblue" points="443.96,-24.09 452.72,-18.13 442.16,-17.33 443.96,-24.09"/>
</g>
<!-- Node16&#45;&gt;Node4 -->
<g id="edge27" class="edge">
<title>Node16&#45;&gt;Node4</title>
<path fill="none" stroke="midnightblue" d="M697.3,-172.54C643.13,-163.96 523.24,-144.97 448.63,-133.16"/>
<polygon fill="midnightblue" stroke="midnightblue" points="448.83,-129.64 438.41,-131.54 447.74,-136.56 448.83,-129.64"/>
</g>
<!-- Node16&#45;&gt;Node6 -->
<g id="edge28" class="edge">
<title>Node16&#45;&gt;Node6</title>
<path fill="none" stroke="midnightblue" d="M739.16,-168.32C752.42,-159.9 772.77,-146.97 788.35,-137.07"/>
<polygon fill="midnightblue" stroke="midnightblue" points="790.31,-139.97 796.88,-131.65 786.56,-134.06 790.31,-139.97"/>
</g>
<!-- Node16&#45;&gt;Node14 -->
<g id="edge31" class="edge">
<title>Node16&#45;&gt;Node14</title>
<path fill="none" stroke="midnightblue" d="M713.29,-168.32C701.72,-160.11 684.12,-147.6 670.34,-137.81"/>
<polygon fill="midnightblue" stroke="midnightblue" points="672.11,-134.77 661.93,-131.83 668.06,-140.48 672.11,-134.77"/>
</g>
<!-- Node16&#45;&gt;Node15 -->
<g id="edge32" class="edge">
<title>Node16&#45;&gt;Node15</title>
<path fill="none" stroke="midnightblue" d="M750.54,-168.44C777.12,-159.36 819.31,-144.94 849.02,-134.78"/>
<polygon fill="midnightblue" stroke="midnightblue" points="850.25,-138.06 858.58,-131.52 847.99,-131.44 850.25,-138.06"/>
</g>
<!-- Node17 -->
<g id="node17" class="node">
<title>Node17</title>
<g id="a_node17"><a xlink:title=" ">
<polygon fill="white" stroke="#bfbfbf" points="472,-112.5 472,-131.5 555,-131.5 555,-112.5 472,-112.5"/>
<text text-anchor="middle" x="513.5" y="-119.5" font-family="Helvetica,sans-Serif" font-size="10.00">QWheelEvent</text>
</a>
</g>
</g>
<!-- Node16&#45;&gt;Node17 -->
<g id="edge29" class="edge">
<title>Node16&#45;&gt;Node17</title>
<path fill="none" stroke="midnightblue" d="M697.35,-169.83C661.45,-160.69 599,-144.78 556.97,-134.07"/>
<polygon fill="midnightblue" stroke="midnightblue" points="557.57,-130.61 547.02,-131.54 555.84,-137.4 557.57,-130.61"/>
</g>
<!-- Node18&#45;&gt;Node2 -->
<g id="edge34" class="edge">
<title>Node18&#45;&gt;Node2</title>
<path fill="none" stroke="midnightblue" d="M379.45,-169.72C338.31,-159.87 279.83,-140.23 305.5,-112 311.46,-105.44 523.24,-87.32 661.07,-76.18"/>
<polygon fill="midnightblue" stroke="midnightblue" points="661.59,-79.65 671.27,-75.36 661.02,-72.67 661.59,-79.65"/>
</g>
<!-- Node18&#45;&gt;Node4 -->
<g id="edge35" class="edge">
<title>Node18&#45;&gt;Node4</title>
<path fill="none" stroke="midnightblue" d="M410.38,-168.08C406.09,-160.61 399.84,-149.72 394.56,-140.52"/>
<polygon fill="midnightblue" stroke="midnightblue" points="397.54,-138.68 389.52,-131.75 391.47,-142.17 397.54,-138.68"/>
</g>
<!-- Node18&#45;&gt;Node14 -->
<g id="edge36" class="edge">
<title>Node18&#45;&gt;Node14</title>
<path fill="none" stroke="midnightblue" d="M451.55,-168.68C492.11,-159.32 558.12,-144.09 602.64,-133.81"/>
<polygon fill="midnightblue" stroke="midnightblue" points="603.68,-137.17 612.64,-131.51 602.11,-130.35 603.68,-137.17"/>
</g>
<!-- Node19&#45;&gt;Node2 -->
<g id="edge38" class="edge">
<title>Node19&#45;&gt;Node2</title>
<path fill="none" stroke="midnightblue" d="M218.42,-168.37C232.38,-153.82 262.98,-124.73 295.5,-112 312.32,-105.42 523.99,-87.38 661.18,-76.24"/>
<polygon fill="midnightblue" stroke="midnightblue" points="661.65,-79.71 671.33,-75.42 661.08,-72.74 661.65,-79.71"/>
</g>
<!-- Node19&#45;&gt;Node4 -->
<g id="edge39" class="edge">
<title>Node19&#45;&gt;Node4</title>
<path fill="none" stroke="midnightblue" d="M238.07,-168.44C267.6,-159.28 314.62,-144.69 347.38,-134.52"/>
<polygon fill="midnightblue" stroke="midnightblue" points="348.54,-137.82 357.06,-131.52 346.47,-131.14 348.54,-137.82"/>
</g>
<!-- Node19&#45;&gt;Node13 -->
<g id="edge40" class="edge">
<title>Node19&#45;&gt;Node13</title>
<path fill="none" stroke="midnightblue" d="M210.96,-168.18C212.21,-153.87 216.9,-125.82 234.5,-112 288.65,-69.46 499.91,-66.01 587.32,-66.47"/>
<polygon fill="midnightblue" stroke="midnightblue" points="587.32,-69.97 597.34,-66.54 587.37,-62.97 587.32,-69.97"/>
</g>
<!-- Node20 -->
<g id="node20" class="node">
<title>Node20</title>
<g id="a_node20"><a xlink:title=" ">
<polygon fill="white" stroke="#bfbfbf" points="73,-112.5 73,-131.5 144,-131.5 144,-112.5 73,-112.5"/>
<text text-anchor="middle" x="108.5" y="-119.5" font-family="Helvetica,sans-Serif" font-size="10.00">QMetaType</text>
</a>
</g>
</g>
<!-- Node19&#45;&gt;Node20 -->
<g id="edge41" class="edge">
<title>Node19&#45;&gt;Node20</title>
<path fill="none" stroke="midnightblue" d="M194.11,-168.32C177.83,-159.7 152.63,-146.36 133.78,-136.39"/>
<polygon fill="midnightblue" stroke="midnightblue" points="135.32,-133.24 124.85,-131.65 132.05,-139.43 135.32,-133.24"/>
</g>
<!-- Node21 -->
<g id="node21" class="node">
<title>Node21</title>
<g id="a_node21"><a xlink:title=" ">
<polygon fill="white" stroke="#bfbfbf" points="0,-112.5 0,-131.5 55,-131.5 55,-112.5 0,-112.5"/>
<text text-anchor="middle" x="27.5" y="-119.5" font-family="Helvetica,sans-Serif" font-size="10.00">QPointF</text>
</a>
</g>
</g>
<!-- Node19&#45;&gt;Node21 -->
<g id="edge42" class="edge">
<title>Node19&#45;&gt;Node21</title>
<path fill="none" stroke="midnightblue" d="M181.5,-168.44C149.95,-159.13 99.4,-144.22 64.88,-134.03"/>
<polygon fill="midnightblue" stroke="midnightblue" points="65.75,-130.64 55.16,-131.16 63.76,-137.35 65.75,-130.64"/>
</g>
</g>
</svg>
