<?xml version="1.0" encoding="UTF-8" standalone="no"?>
<!DOCTYPE svg PUBLIC "-//W3C//DTD SVG 1.1//EN"
 "http://www.w3.org/Graphics/SVG/1.1/DTD/svg11.dtd">
<!-- Generated by graphviz version 2.43.0 (0)
 -->
<!-- Title: src/colorwheel_p.h Pages: 1 -->
<svg width="1418pt" height="308pt"
 viewBox="0.00 0.00 1417.88 308.00" xmlns="http://www.w3.org/2000/svg" xmlns:xlink="http://www.w3.org/1999/xlink">
<g id="graph0" class="graph" transform="scale(1 1) rotate(0) translate(4 304)">
<title>src/colorwheel_p.h</title>
<polygon fill="white" stroke="transparent" points="-4,4 -4,-304 1413.88,-304 1413.88,4 -4,4"/>
<!-- Node1 -->
<g id="node1" class="node">
<title>Node1</title>
<g id="a_node1"><a xlink:title=" ">
<polygon fill="#bfbfbf" stroke="black" points="972.53,-280.5 972.53,-299.5 1079.53,-299.5 1079.53,-280.5 972.53,-280.5"/>
<text text-anchor="middle" x="1026.03" y="-287.5" font-family="Helvetica,sans-Serif" font-size="10.00">src/colorwheel_p.h</text>
</a>
</g>
</g>
<!-- Node2 -->
<g id="node2" class="node">
<title>Node2</title>
<g id="a_node2"><a xlink:href="perceptualcolorglobal_8h.html" target="_top" xlink:title=" ">
<polygon fill="white" stroke="black" points="592.03,-56.5 592.03,-75.5 804.03,-75.5 804.03,-56.5 592.03,-56.5"/>
<text text-anchor="middle" x="698.03" y="-63.5" font-family="Helvetica,sans-Serif" font-size="10.00">PerceptualColor/perceptualcolorglobal.h</text>
</a>
</g>
</g>
<!-- Node1&#45;&gt;Node2 -->
<g id="edge1" class="edge">
<title>Node1&#45;&gt;Node2</title>
<path fill="none" stroke="midnightblue" d="M1025.6,-280.33C1023.6,-250.56 1012.55,-152.15 953.03,-112 928.37,-95.36 861.05,-83.9 801.78,-76.71"/>
<polygon fill="midnightblue" stroke="midnightblue" points="801.92,-73.2 791.58,-75.51 801.1,-80.16 801.92,-73.2"/>
</g>
<!-- Node4 -->
<g id="node4" class="node">
<title>Node4</title>
<g id="a_node4"><a xlink:href="perceptualcolorinternal_8h.html" target="_top" xlink:title=" ">
<polygon fill="white" stroke="black" points="1021.53,-112.5 1021.53,-131.5 1160.53,-131.5 1160.53,-112.5 1021.53,-112.5"/>
<text text-anchor="middle" x="1091.03" y="-119.5" font-family="Helvetica,sans-Serif" font-size="10.00">perceptualcolorinternal.h</text>
</a>
</g>
</g>
<!-- Node1&#45;&gt;Node4 -->
<g id="edge3" class="edge">
<title>Node1&#45;&gt;Node4</title>
<path fill="none" stroke="midnightblue" d="M1028.02,-280.23C1032.81,-259.94 1045.89,-208.37 1064.03,-168 1068.32,-158.44 1074.21,-148.39 1079.39,-140.22"/>
<polygon fill="midnightblue" stroke="midnightblue" points="1082.46,-141.91 1085.01,-131.63 1076.6,-138.08 1082.46,-141.91"/>
</g>
<!-- Node5 -->
<g id="node5" class="node">
<title>Node5</title>
<g id="a_node5"><a xlink:href="colorwheel_8h.html" target="_top" xlink:title=" ">
<polygon fill="white" stroke="black" points="70.53,-224.5 70.53,-243.5 229.53,-243.5 229.53,-224.5 70.53,-224.5"/>
<text text-anchor="middle" x="150.03" y="-231.5" font-family="Helvetica,sans-Serif" font-size="10.00">PerceptualColor/colorwheel.h</text>
</a>
</g>
</g>
<!-- Node1&#45;&gt;Node5 -->
<g id="edge5" class="edge">
<title>Node1&#45;&gt;Node5</title>
<path fill="none" stroke="midnightblue" d="M972.22,-285.68C826.18,-276.68 421.18,-251.71 239.84,-240.54"/>
<polygon fill="midnightblue" stroke="midnightblue" points="240,-237.04 229.8,-239.92 239.57,-244.03 240,-237.04"/>
</g>
<!-- Node10 -->
<g id="node10" class="node">
<title>Node10</title>
<g id="a_node10"><a xlink:href="colorwheelimage_8h.html" target="_top" xlink:title=" ">
<polygon fill="white" stroke="black" points="766.03,-224.5 766.03,-243.5 876.03,-243.5 876.03,-224.5 766.03,-224.5"/>
<text text-anchor="middle" x="821.03" y="-231.5" font-family="Helvetica,sans-Serif" font-size="10.00">colorwheelimage.h</text>
</a>
</g>
</g>
<!-- Node1&#45;&gt;Node10 -->
<g id="edge15" class="edge">
<title>Node1&#45;&gt;Node10</title>
<path fill="none" stroke="midnightblue" d="M993.54,-280.44C958.31,-271.16 901.92,-256.31 863.27,-246.13"/>
<polygon fill="midnightblue" stroke="midnightblue" points="863.92,-242.68 853.36,-243.52 862.14,-249.45 863.92,-242.68"/>
</g>
<!-- Node19 -->
<g id="node19" class="node">
<title>Node19</title>
<g id="a_node19"><a xlink:href="constpropagatingrawpointer_8h.html" target="_top" xlink:title=" ">
<polygon fill="white" stroke="black" points="1073.03,-168.5 1073.03,-187.5 1235.03,-187.5 1235.03,-168.5 1073.03,-168.5"/>
<text text-anchor="middle" x="1154.03" y="-175.5" font-family="Helvetica,sans-Serif" font-size="10.00">constpropagatingrawpointer.h</text>
</a>
</g>
</g>
<!-- Node1&#45;&gt;Node19 -->
<g id="edge33" class="edge">
<title>Node1&#45;&gt;Node19</title>
<path fill="none" stroke="midnightblue" d="M1036.07,-280.37C1057.76,-261.73 1109.19,-217.53 1136.42,-194.13"/>
<polygon fill="midnightblue" stroke="midnightblue" points="1138.73,-196.76 1144.03,-187.59 1134.17,-191.45 1138.73,-196.76"/>
</g>
<!-- Node20 -->
<g id="node20" class="node">
<title>Node20</title>
<g id="a_node20"><a xlink:href="polarpointf_8h.html" target="_top" xlink:title=" ">
<polygon fill="white" stroke="black" points="1281.03,-168.5 1281.03,-187.5 1359.03,-187.5 1359.03,-168.5 1281.03,-168.5"/>
<text text-anchor="middle" x="1320.03" y="-175.5" font-family="Helvetica,sans-Serif" font-size="10.00">polarpointf.h</text>
</a>
</g>
</g>
<!-- Node1&#45;&gt;Node20 -->
<g id="edge36" class="edge">
<title>Node1&#45;&gt;Node20</title>
<path fill="none" stroke="midnightblue" d="M1049.1,-280.37C1101.05,-260.93 1227.35,-213.67 1287.35,-191.23"/>
<polygon fill="midnightblue" stroke="midnightblue" points="1288.93,-194.37 1297.07,-187.59 1286.47,-187.82 1288.93,-194.37"/>
</g>
<!-- Node3 -->
<g id="node3" class="node">
<title>Node3</title>
<g id="a_node3"><a xlink:title=" ">
<polygon fill="white" stroke="#bfbfbf" points="668.53,-0.5 668.53,-19.5 727.53,-19.5 727.53,-0.5 668.53,-0.5"/>
<text text-anchor="middle" x="698.03" y="-7.5" font-family="Helvetica,sans-Serif" font-size="10.00">QtGlobal</text>
</a>
</g>
</g>
<!-- Node2&#45;&gt;Node3 -->
<g id="edge2" class="edge">
<title>Node2&#45;&gt;Node3</title>
<path fill="none" stroke="midnightblue" d="M698.03,-56.08C698.03,-49.01 698.03,-38.86 698.03,-29.99"/>
<polygon fill="midnightblue" stroke="midnightblue" points="701.53,-29.75 698.03,-19.75 694.53,-29.75 701.53,-29.75"/>
</g>
<!-- Node4&#45;&gt;Node2 -->
<g id="edge4" class="edge">
<title>Node4&#45;&gt;Node2</title>
<path fill="none" stroke="midnightblue" d="M1028.76,-112.44C958.47,-102.79 844.31,-87.1 770.19,-76.92"/>
<polygon fill="midnightblue" stroke="midnightblue" points="770.39,-73.41 760.01,-75.52 769.44,-80.35 770.39,-73.41"/>
</g>
<!-- Node5&#45;&gt;Node2 -->
<g id="edge6" class="edge">
<title>Node5&#45;&gt;Node2</title>
<path fill="none" stroke="midnightblue" d="M109.9,-224.44C86.63,-217.78 58.06,-206.46 38.03,-188 11.56,-163.61 -14.58,-138.27 10.03,-112 29.25,-91.48 390.86,-76.84 581.92,-70.5"/>
<polygon fill="midnightblue" stroke="midnightblue" points="582.13,-74 592.01,-70.17 581.9,-67 582.13,-74"/>
</g>
<!-- Node6 -->
<g id="node6" class="node">
<title>Node6</title>
<g id="a_node6"><a xlink:title=" ">
<polygon fill="white" stroke="#bfbfbf" points="19.53,-112.5 19.53,-131.5 78.53,-131.5 78.53,-112.5 19.53,-112.5"/>
<text text-anchor="middle" x="49.03" y="-119.5" font-family="Helvetica,sans-Serif" font-size="10.00">QWidget</text>
</a>
</g>
</g>
<!-- Node5&#45;&gt;Node6 -->
<g id="edge7" class="edge">
<title>Node5&#45;&gt;Node6</title>
<path fill="none" stroke="midnightblue" d="M103.67,-224.47C82.95,-218.1 60.45,-207.05 48.03,-188 39.18,-174.42 40.57,-155.62 43.5,-141.73"/>
<polygon fill="midnightblue" stroke="midnightblue" points="46.94,-142.39 46.01,-131.84 40.16,-140.67 46.94,-142.39"/>
</g>
<!-- Node7 -->
<g id="node7" class="node">
<title>Node7</title>
<g id="a_node7"><a xlink:href="abstractdiagram_8h.html" target="_top" xlink:title=" ">
<polygon fill="white" stroke="black" points="57.03,-168.5 57.03,-187.5 243.03,-187.5 243.03,-168.5 57.03,-168.5"/>
<text text-anchor="middle" x="150.03" y="-175.5" font-family="Helvetica,sans-Serif" font-size="10.00">PerceptualColor/abstractdiagram.h</text>
</a>
</g>
</g>
<!-- Node5&#45;&gt;Node7 -->
<g id="edge8" class="edge">
<title>Node5&#45;&gt;Node7</title>
<path fill="none" stroke="midnightblue" d="M150.03,-224.08C150.03,-217.01 150.03,-206.86 150.03,-197.99"/>
<polygon fill="midnightblue" stroke="midnightblue" points="153.53,-197.75 150.03,-187.75 146.53,-197.75 153.53,-197.75"/>
</g>
<!-- Node8 -->
<g id="node8" class="node">
<title>Node8</title>
<g id="a_node8"><a xlink:href="constpropagatinguniquepointer_8h.html" target="_top" xlink:title=" ">
<polygon fill="white" stroke="black" points="135.53,-112.5 135.53,-131.5 392.53,-131.5 392.53,-112.5 135.53,-112.5"/>
<text text-anchor="middle" x="264.03" y="-119.5" font-family="Helvetica,sans-Serif" font-size="10.00">PerceptualColor/constpropagatinguniquepointer.h</text>
</a>
</g>
</g>
<!-- Node5&#45;&gt;Node8 -->
<g id="edge14" class="edge">
<title>Node5&#45;&gt;Node8</title>
<path fill="none" stroke="midnightblue" d="M191.55,-224.46C212.75,-217.97 237.14,-206.83 252.03,-188 262.36,-174.93 264.83,-155.78 265.04,-141.65"/>
<polygon fill="midnightblue" stroke="midnightblue" points="268.54,-141.52 264.82,-131.6 261.54,-141.67 268.54,-141.52"/>
</g>
<!-- Node7&#45;&gt;Node2 -->
<g id="edge9" class="edge">
<title>Node7&#45;&gt;Node2</title>
<path fill="none" stroke="midnightblue" d="M141.83,-168.32C129.97,-154.72 111,-128.25 126.03,-112 156.26,-79.3 423.36,-70.33 581.66,-67.89"/>
<polygon fill="midnightblue" stroke="midnightblue" points="581.98,-71.38 591.92,-67.74 581.87,-64.38 581.98,-71.38"/>
</g>
<!-- Node7&#45;&gt;Node6 -->
<g id="edge10" class="edge">
<title>Node7&#45;&gt;Node6</title>
<path fill="none" stroke="midnightblue" d="M133.8,-168.32C117.68,-159.7 92.73,-146.36 74.06,-136.39"/>
<polygon fill="midnightblue" stroke="midnightblue" points="75.68,-133.28 65.21,-131.65 72.38,-139.46 75.68,-133.28"/>
</g>
<!-- Node7&#45;&gt;Node8 -->
<g id="edge11" class="edge">
<title>Node7&#45;&gt;Node8</title>
<path fill="none" stroke="midnightblue" d="M168.09,-168.44C186.6,-159.68 215.61,-145.94 236.88,-135.86"/>
<polygon fill="midnightblue" stroke="midnightblue" points="238.51,-138.96 246.05,-131.52 235.51,-132.63 238.51,-138.96"/>
</g>
<!-- Node8&#45;&gt;Node2 -->
<g id="edge12" class="edge">
<title>Node8&#45;&gt;Node2</title>
<path fill="none" stroke="midnightblue" d="M332.8,-112.44C410.81,-102.74 537.78,-86.94 619.59,-76.76"/>
<polygon fill="midnightblue" stroke="midnightblue" points="620.09,-80.22 629.58,-75.52 619.23,-73.28 620.09,-80.22"/>
</g>
<!-- Node9 -->
<g id="node9" class="node">
<title>Node9</title>
<g id="a_node9"><a xlink:title=" ">
<polygon fill="white" stroke="#bfbfbf" points="235.03,-56.5 235.03,-75.5 293.03,-75.5 293.03,-56.5 235.03,-56.5"/>
<text text-anchor="middle" x="264.03" y="-63.5" font-family="Helvetica,sans-Serif" font-size="10.00">memory</text>
</a>
</g>
</g>
<!-- Node8&#45;&gt;Node9 -->
<g id="edge13" class="edge">
<title>Node8&#45;&gt;Node9</title>
<path fill="none" stroke="midnightblue" d="M264.03,-112.08C264.03,-105.01 264.03,-94.86 264.03,-85.99"/>
<polygon fill="midnightblue" stroke="midnightblue" points="267.53,-85.75 264.03,-75.75 260.53,-85.75 267.53,-85.75"/>
</g>
<!-- Node10&#45;&gt;Node2 -->
<g id="edge16" class="edge">
<title>Node10&#45;&gt;Node2</title>
<path fill="none" stroke="midnightblue" d="M822.92,-224.25C826.31,-210.55 834.64,-183.95 851.03,-168 883.19,-136.71 963.64,-146.56 935.03,-112 924.78,-99.62 841.57,-85.9 776.61,-76.91"/>
<polygon fill="midnightblue" stroke="midnightblue" points="776.74,-73.39 766.35,-75.5 775.79,-80.33 776.74,-73.39"/>
</g>
<!-- Node10&#45;&gt;Node4 -->
<g id="edge17" class="edge">
<title>Node10&#45;&gt;Node4</title>
<path fill="none" stroke="midnightblue" d="M826.08,-224.24C834.76,-210.03 853.93,-182.1 878.03,-168 918.26,-144.45 969.16,-133.15 1011.12,-127.76"/>
<polygon fill="midnightblue" stroke="midnightblue" points="1011.79,-131.2 1021.3,-126.54 1010.96,-124.25 1011.79,-131.2"/>
</g>
<!-- Node11 -->
<g id="node11" class="node">
<title>Node11</title>
<g id="a_node11"><a xlink:title=" ">
<polygon fill="white" stroke="#bfbfbf" points="737.53,-168.5 737.53,-187.5 792.53,-187.5 792.53,-168.5 737.53,-168.5"/>
<text text-anchor="middle" x="765.03" y="-175.5" font-family="Helvetica,sans-Serif" font-size="10.00">QImage</text>
</a>
</g>
</g>
<!-- Node10&#45;&gt;Node11 -->
<g id="edge18" class="edge">
<title>Node10&#45;&gt;Node11</title>
<path fill="none" stroke="midnightblue" d="M812.03,-224.32C803.83,-216.42 791.52,-204.55 781.56,-194.94"/>
<polygon fill="midnightblue" stroke="midnightblue" points="783.82,-192.26 774.19,-187.83 778.96,-197.29 783.82,-192.26"/>
</g>
<!-- Node12 -->
<g id="node12" class="node">
<title>Node12</title>
<g id="a_node12"><a xlink:title=" ">
<polygon fill="white" stroke="#bfbfbf" points="411.03,-112.5 411.03,-131.5 467.03,-131.5 467.03,-112.5 411.03,-112.5"/>
<text text-anchor="middle" x="439.03" y="-119.5" font-family="Helvetica,sans-Serif" font-size="10.00">QObject</text>
</a>
</g>
</g>
<!-- Node10&#45;&gt;Node12 -->
<g id="edge19" class="edge">
<title>Node10&#45;&gt;Node12</title>
<path fill="none" stroke="midnightblue" d="M765.8,-225.94C717.83,-218.97 646.87,-206.64 587.03,-188 542.49,-174.13 493.4,-150.87 464.44,-136.26"/>
<polygon fill="midnightblue" stroke="midnightblue" points="465.93,-133.09 455.43,-131.66 462.75,-139.33 465.93,-133.09"/>
</g>
<!-- Node13 -->
<g id="node13" class="node">
<title>Node13</title>
<g id="a_node13"><a xlink:title=" ">
<polygon fill="white" stroke="#bfbfbf" points="887.03,-168.5 887.03,-187.5 979.03,-187.5 979.03,-168.5 887.03,-168.5"/>
<text text-anchor="middle" x="933.03" y="-175.5" font-family="Helvetica,sans-Serif" font-size="10.00">QSharedPointer</text>
</a>
</g>
</g>
<!-- Node10&#45;&gt;Node13 -->
<g id="edge20" class="edge">
<title>Node10&#45;&gt;Node13</title>
<path fill="none" stroke="midnightblue" d="M839.02,-224.32C857.07,-215.62 885.07,-202.12 905.83,-192.11"/>
<polygon fill="midnightblue" stroke="midnightblue" points="907.59,-195.15 915.08,-187.65 904.55,-188.84 907.59,-195.15"/>
</g>
<!-- Node14 -->
<g id="node14" class="node">
<title>Node14</title>
<g id="a_node14"><a xlink:href="rgbcolorspace_8h.html" target="_top" xlink:title=" ">
<polygon fill="white" stroke="black" points="596.03,-168.5 596.03,-187.5 690.03,-187.5 690.03,-168.5 596.03,-168.5"/>
<text text-anchor="middle" x="643.03" y="-175.5" font-family="Helvetica,sans-Serif" font-size="10.00">rgbcolorspace.h</text>
</a>
</g>
</g>
<!-- Node10&#45;&gt;Node14 -->
<g id="edge21" class="edge">
<title>Node10&#45;&gt;Node14</title>
<path fill="none" stroke="midnightblue" d="M792.82,-224.44C762.62,-215.28 714.52,-200.69 681,-190.52"/>
<polygon fill="midnightblue" stroke="midnightblue" points="681.69,-187.07 671.1,-187.52 679.65,-193.77 681.69,-187.07"/>
</g>
<!-- Node14&#45;&gt;Node2 -->
<g id="edge22" class="edge">
<title>Node14&#45;&gt;Node2</title>
<path fill="none" stroke="midnightblue" d="M595.61,-170.46C549.08,-162.04 488.56,-144.45 514.03,-112 526.98,-95.5 572.71,-84.27 615.34,-77.16"/>
<polygon fill="midnightblue" stroke="midnightblue" points="615.91,-80.61 625.22,-75.57 614.8,-73.7 615.91,-80.61"/>
</g>
<!-- Node14&#45;&gt;Node4 -->
<g id="edge23" class="edge">
<title>Node14&#45;&gt;Node4</title>
<path fill="none" stroke="midnightblue" d="M690.12,-171.32C766.42,-162.13 917.9,-143.87 1011.25,-132.62"/>
<polygon fill="midnightblue" stroke="midnightblue" points="1011.7,-136.09 1021.21,-131.42 1010.87,-129.14 1011.7,-136.09"/>
</g>
<!-- Node14&#45;&gt;Node8 -->
<g id="edge25" class="edge">
<title>Node14&#45;&gt;Node8</title>
<path fill="none" stroke="midnightblue" d="M595.79,-170.27C529.9,-160.88 409.91,-143.79 333.72,-132.93"/>
<polygon fill="midnightblue" stroke="midnightblue" points="334.13,-129.45 323.73,-131.51 333.14,-136.38 334.13,-129.45"/>
</g>
<!-- Node14&#45;&gt;Node12 -->
<g id="edge24" class="edge">
<title>Node14&#45;&gt;Node12</title>
<path fill="none" stroke="midnightblue" d="M610.7,-168.44C574.4,-158.83 515.54,-143.25 477.06,-133.07"/>
<polygon fill="midnightblue" stroke="midnightblue" points="477.82,-129.65 467.26,-130.47 476.03,-136.42 477.82,-129.65"/>
</g>
<!-- Node15 -->
<g id="node15" class="node">
<title>Node15</title>
<g id="a_node15"><a xlink:href="lchadouble_8h.html" target="_top" xlink:title=" ">
<polygon fill="white" stroke="black" points="694.53,-112.5 694.53,-131.5 853.53,-131.5 853.53,-112.5 694.53,-112.5"/>
<text text-anchor="middle" x="774.03" y="-119.5" font-family="Helvetica,sans-Serif" font-size="10.00">PerceptualColor/lchadouble.h</text>
</a>
</g>
</g>
<!-- Node14&#45;&gt;Node15 -->
<g id="edge26" class="edge">
<title>Node14&#45;&gt;Node15</title>
<path fill="none" stroke="midnightblue" d="M663.79,-168.44C685.34,-159.56 719.29,-145.56 743.82,-135.45"/>
<polygon fill="midnightblue" stroke="midnightblue" points="745.46,-138.56 753.37,-131.52 742.79,-132.09 745.46,-138.56"/>
</g>
<!-- Node17 -->
<g id="node17" class="node">
<title>Node17</title>
<g id="a_node17"><a xlink:href="lchdouble_8h.html" target="_top" xlink:title=" ">
<polygon fill="white" stroke="black" points="523.53,-112.5 523.53,-131.5 676.53,-131.5 676.53,-112.5 523.53,-112.5"/>
<text text-anchor="middle" x="600.03" y="-119.5" font-family="Helvetica,sans-Serif" font-size="10.00">PerceptualColor/lchdouble.h</text>
</a>
</g>
</g>
<!-- Node14&#45;&gt;Node17 -->
<g id="edge29" class="edge">
<title>Node14&#45;&gt;Node17</title>
<path fill="none" stroke="midnightblue" d="M635.93,-168.08C629.79,-160.38 620.76,-149.03 613.29,-139.65"/>
<polygon fill="midnightblue" stroke="midnightblue" points="615.96,-137.39 607,-131.75 610.49,-141.75 615.96,-137.39"/>
</g>
<!-- Node18 -->
<g id="node18" class="node">
<title>Node18</title>
<g id="a_node18"><a xlink:title=" ">
<polygon fill="white" stroke="#bfbfbf" points="871.53,-112.5 871.53,-131.5 926.53,-131.5 926.53,-112.5 871.53,-112.5"/>
<text text-anchor="middle" x="899.03" y="-119.5" font-family="Helvetica,sans-Serif" font-size="10.00">lcms2.h</text>
</a>
</g>
</g>
<!-- Node14&#45;&gt;Node18 -->
<g id="edge32" class="edge">
<title>Node14&#45;&gt;Node18</title>
<path fill="none" stroke="midnightblue" d="M686.76,-168.5C728.96,-160.18 794.89,-146.91 861.36,-132.09"/>
<polygon fill="midnightblue" stroke="midnightblue" points="862.18,-135.49 871.17,-129.89 860.65,-128.66 862.18,-135.49"/>
</g>
<!-- Node15&#45;&gt;Node2 -->
<g id="edge27" class="edge">
<title>Node15&#45;&gt;Node2</title>
<path fill="none" stroke="midnightblue" d="M761.82,-112.32C750.25,-104.11 732.65,-91.6 718.87,-81.81"/>
<polygon fill="midnightblue" stroke="midnightblue" points="720.64,-78.77 710.46,-75.83 716.59,-84.48 720.64,-78.77"/>
</g>
<!-- Node16 -->
<g id="node16" class="node">
<title>Node16</title>
<g id="a_node16"><a xlink:title=" ">
<polygon fill="white" stroke="#bfbfbf" points="822.03,-56.5 822.03,-75.5 878.03,-75.5 878.03,-56.5 822.03,-56.5"/>
<text text-anchor="middle" x="850.03" y="-63.5" font-family="Helvetica,sans-Serif" font-size="10.00">QDebug</text>
</a>
</g>
</g>
<!-- Node15&#45;&gt;Node16 -->
<g id="edge28" class="edge">
<title>Node15&#45;&gt;Node16</title>
<path fill="none" stroke="midnightblue" d="M786.24,-112.32C797.8,-104.11 815.4,-91.6 829.19,-81.81"/>
<polygon fill="midnightblue" stroke="midnightblue" points="831.47,-84.48 837.59,-75.83 827.42,-78.77 831.47,-84.48"/>
</g>
<!-- Node17&#45;&gt;Node2 -->
<g id="edge30" class="edge">
<title>Node17&#45;&gt;Node2</title>
<path fill="none" stroke="midnightblue" d="M615.77,-112.32C631.35,-103.74 655.41,-90.49 673.49,-80.52"/>
<polygon fill="midnightblue" stroke="midnightblue" points="675.25,-83.55 682.32,-75.65 671.87,-77.42 675.25,-83.55"/>
</g>
<!-- Node17&#45;&gt;Node16 -->
<g id="edge31" class="edge">
<title>Node17&#45;&gt;Node16</title>
<path fill="none" stroke="midnightblue" d="M642.14,-112.5C683.07,-104.14 747.23,-90.82 811.82,-76.23"/>
<polygon fill="midnightblue" stroke="midnightblue" points="812.79,-79.59 821.77,-73.97 811.24,-72.77 812.79,-79.59"/>
</g>
<!-- Node19&#45;&gt;Node2 -->
<g id="edge34" class="edge">
<title>Node19&#45;&gt;Node2</title>
<path fill="none" stroke="midnightblue" d="M1160.53,-168.22C1169.85,-154.48 1184.41,-127.82 1170.03,-112 1164.06,-105.44 952.28,-87.32 814.46,-76.18"/>
<polygon fill="midnightblue" stroke="midnightblue" points="814.5,-72.67 804.26,-75.36 813.94,-79.65 814.5,-72.67"/>
</g>
<!-- Node19&#45;&gt;Node4 -->
<g id="edge35" class="edge">
<title>Node19&#45;&gt;Node4</title>
<path fill="none" stroke="midnightblue" d="M1143.91,-168.32C1134.5,-160.26 1120.28,-148.08 1108.96,-138.37"/>
<polygon fill="midnightblue" stroke="midnightblue" points="1111.2,-135.68 1101.33,-131.83 1106.65,-141 1111.2,-135.68"/>
</g>
<!-- Node20&#45;&gt;Node2 -->
<g id="edge37" class="edge">
<title>Node20&#45;&gt;Node2</title>
<path fill="none" stroke="midnightblue" d="M1335.17,-168.41C1355.94,-155.59 1388.78,-130.94 1371.03,-112 1330.19,-68.45 909.8,-79.44 814.23,-75.88"/>
<polygon fill="midnightblue" stroke="midnightblue" points="814.4,-72.38 804.23,-75.36 814.04,-79.37 814.4,-72.38"/>
</g>
<!-- Node20&#45;&gt;Node4 -->
<g id="edge38" class="edge">
<title>Node20&#45;&gt;Node4</title>
<path fill="none" stroke="midnightblue" d="M1283.74,-168.44C1244.04,-159.08 1180.32,-144.06 1137.12,-133.87"/>
<polygon fill="midnightblue" stroke="midnightblue" points="1137.68,-130.41 1127.14,-131.52 1136.07,-137.22 1137.68,-130.41"/>
</g>
<!-- Node20&#45;&gt;Node16 -->
<g id="edge39" class="edge">
<title>Node20&#45;&gt;Node16</title>
<path fill="none" stroke="midnightblue" d="M1347.33,-168.43C1379.42,-157.02 1425.71,-135.52 1404.03,-112 1369.14,-74.17 1007.75,-68.14 888.19,-67.18"/>
<polygon fill="midnightblue" stroke="midnightblue" points="888.07,-63.68 878.04,-67.11 888.02,-70.68 888.07,-63.68"/>
</g>
<!-- Node21 -->
<g id="node21" class="node">
<title>Node21</title>
<g id="a_node21"><a xlink:title=" ">
<polygon fill="white" stroke="#bfbfbf" points="1217.53,-112.5 1217.53,-131.5 1288.53,-131.5 1288.53,-112.5 1217.53,-112.5"/>
<text text-anchor="middle" x="1253.03" y="-119.5" font-family="Helvetica,sans-Serif" font-size="10.00">QMetaType</text>
</a>
</g>
</g>
<!-- Node20&#45;&gt;Node21 -->
<g id="edge40" class="edge">
<title>Node20&#45;&gt;Node21</title>
<path fill="none" stroke="midnightblue" d="M1309.26,-168.32C1299.26,-160.26 1284.14,-148.08 1272.1,-138.37"/>
<polygon fill="midnightblue" stroke="midnightblue" points="1273.97,-135.38 1263.99,-131.83 1269.58,-140.83 1273.97,-135.38"/>
</g>
<!-- Node22 -->
<g id="node22" class="node">
<title>Node22</title>
<g id="a_node22"><a xlink:title=" ">
<polygon fill="white" stroke="#bfbfbf" points="1306.53,-112.5 1306.53,-131.5 1361.53,-131.5 1361.53,-112.5 1306.53,-112.5"/>
<text text-anchor="middle" x="1334.03" y="-119.5" font-family="Helvetica,sans-Serif" font-size="10.00">QPointF</text>
</a>
</g>
</g>
<!-- Node20&#45;&gt;Node22 -->
<g id="edge41" class="edge">
<title>Node20&#45;&gt;Node22</title>
<path fill="none" stroke="midnightblue" d="M1322.34,-168.08C1324.19,-160.93 1326.86,-150.64 1329.18,-141.69"/>
<polygon fill="midnightblue" stroke="midnightblue" points="1332.64,-142.31 1331.76,-131.75 1325.86,-140.55 1332.64,-142.31"/>
</g>
</g>
</svg>
