<?xml version="1.0" encoding="UTF-8" standalone="no"?>
<!DOCTYPE svg PUBLIC "-//W3C//DTD SVG 1.1//EN"
 "http://www.w3.org/Graphics/SVG/1.1/DTD/svg11.dtd">
<!-- Generated by graphviz version 2.43.0 (0)
 -->
<!-- Title: include/PerceptualColor/colorwheel.h Pages: 1 -->
<svg width="400pt" height="263pt"
 viewBox="0.00 0.00 399.72 263.00" xmlns="http://www.w3.org/2000/svg" xmlns:xlink="http://www.w3.org/1999/xlink">
<g id="graph0" class="graph" transform="scale(1 1) rotate(0) translate(4 259)">
<title>include/PerceptualColor/colorwheel.h</title>
<polygon fill="white" stroke="transparent" points="-4,4 -4,-259 395.72,-259 395.72,4 -4,4"/>
<!-- Node1 -->
<g id="node1" class="node">
<title>Node1</title>
<g id="a_node1"><a xlink:title=" ">
<polygon fill="#bfbfbf" stroke="black" points="17.22,-224.5 17.22,-254.5 149.22,-254.5 149.22,-224.5 17.22,-224.5"/>
<text text-anchor="start" x="25.22" y="-242.5" font-family="Helvetica,sans-Serif" font-size="10.00">include/PerceptualColor</text>
<text text-anchor="middle" x="83.22" y="-231.5" font-family="Helvetica,sans-Serif" font-size="10.00">/colorwheel.h</text>
</a>
</g>
</g>
<!-- Node2 -->
<g id="node2" class="node">
<title>Node2</title>
<g id="a_node2"><a xlink:href="perceptualcolorglobal_8h.html" target="_top" xlink:title=" ">
<polygon fill="white" stroke="black" points="0.22,-56.5 0.22,-75.5 212.22,-75.5 212.22,-56.5 0.22,-56.5"/>
<text text-anchor="middle" x="106.22" y="-63.5" font-family="Helvetica,sans-Serif" font-size="10.00">PerceptualColor/perceptualcolorglobal.h</text>
</a>
</g>
</g>
<!-- Node1&#45;&gt;Node2 -->
<g id="edge1" class="edge">
<title>Node1&#45;&gt;Node2</title>
<path fill="none" stroke="midnightblue" d="M63.5,-224.29C33.23,-200.69 -18.58,-152.07 7.22,-112 17.53,-95.99 35.07,-85.62 52.56,-78.92"/>
<polygon fill="midnightblue" stroke="midnightblue" points="53.92,-82.15 62.22,-75.56 51.62,-75.54 53.92,-82.15"/>
</g>
<!-- Node4 -->
<g id="node4" class="node">
<title>Node4</title>
<g id="a_node4"><a xlink:title=" ">
<polygon fill="white" stroke="#bfbfbf" points="16.72,-112.5 16.72,-131.5 75.72,-131.5 75.72,-112.5 16.72,-112.5"/>
<text text-anchor="middle" x="46.22" y="-119.5" font-family="Helvetica,sans-Serif" font-size="10.00">QWidget</text>
</a>
</g>
</g>
<!-- Node1&#45;&gt;Node4 -->
<g id="edge3" class="edge">
<title>Node1&#45;&gt;Node4</title>
<path fill="none" stroke="midnightblue" d="M67.19,-224.32C57.95,-215.04 47.21,-202.05 42.22,-188 36.91,-173.02 38.64,-154.88 41.28,-141.58"/>
<polygon fill="midnightblue" stroke="midnightblue" points="44.72,-142.25 43.58,-131.71 37.9,-140.66 44.72,-142.25"/>
</g>
<!-- Node5 -->
<g id="node5" class="node">
<title>Node5</title>
<g id="a_node5"><a xlink:href="abstractdiagram_8h.html" target="_top" xlink:title=" ">
<polygon fill="white" stroke="black" points="51.22,-168.5 51.22,-187.5 237.22,-187.5 237.22,-168.5 51.22,-168.5"/>
<text text-anchor="middle" x="144.22" y="-175.5" font-family="Helvetica,sans-Serif" font-size="10.00">PerceptualColor/abstractdiagram.h</text>
</a>
</g>
</g>
<!-- Node1&#45;&gt;Node5 -->
<g id="edge4" class="edge">
<title>Node1&#45;&gt;Node5</title>
<path fill="none" stroke="midnightblue" d="M97.68,-224.4C106.82,-215.49 118.64,-203.95 128.09,-194.74"/>
<polygon fill="midnightblue" stroke="midnightblue" points="130.63,-197.15 135.35,-187.66 125.75,-192.13 130.63,-197.15"/>
</g>
<!-- Node6 -->
<g id="node6" class="node">
<title>Node6</title>
<g id="a_node6"><a xlink:href="constpropagatinguniquepointer_8h.html" target="_top" xlink:title=" ">
<polygon fill="white" stroke="black" points="134.72,-112.5 134.72,-131.5 391.72,-131.5 391.72,-112.5 134.72,-112.5"/>
<text text-anchor="middle" x="263.22" y="-119.5" font-family="Helvetica,sans-Serif" font-size="10.00">PerceptualColor/constpropagatinguniquepointer.h</text>
</a>
</g>
</g>
<!-- Node1&#45;&gt;Node6 -->
<g id="edge10" class="edge">
<title>Node1&#45;&gt;Node6</title>
<path fill="none" stroke="midnightblue" d="M149.51,-233.02C182.74,-226.92 221.14,-214.23 246.22,-188 257.93,-175.76 261.82,-156.5 263,-142.11"/>
<polygon fill="midnightblue" stroke="midnightblue" points="266.51,-142 263.47,-131.85 259.52,-141.68 266.51,-142"/>
</g>
<!-- Node3 -->
<g id="node3" class="node">
<title>Node3</title>
<g id="a_node3"><a xlink:title=" ">
<polygon fill="white" stroke="#bfbfbf" points="76.72,-0.5 76.72,-19.5 135.72,-19.5 135.72,-0.5 76.72,-0.5"/>
<text text-anchor="middle" x="106.22" y="-7.5" font-family="Helvetica,sans-Serif" font-size="10.00">QtGlobal</text>
</a>
</g>
</g>
<!-- Node2&#45;&gt;Node3 -->
<g id="edge2" class="edge">
<title>Node2&#45;&gt;Node3</title>
<path fill="none" stroke="midnightblue" d="M106.22,-56.08C106.22,-49.01 106.22,-38.86 106.22,-29.99"/>
<polygon fill="midnightblue" stroke="midnightblue" points="109.72,-29.75 106.22,-19.75 102.72,-29.75 109.72,-29.75"/>
</g>
<!-- Node5&#45;&gt;Node2 -->
<g id="edge5" class="edge">
<title>Node5&#45;&gt;Node2</title>
<path fill="none" stroke="midnightblue" d="M140.28,-168.49C136.22,-159.53 129.83,-144.94 125.22,-132 119.68,-116.42 114.49,-98.35 110.94,-85.22"/>
<polygon fill="midnightblue" stroke="midnightblue" points="114.32,-84.29 108.38,-75.51 107.55,-86.08 114.32,-84.29"/>
</g>
<!-- Node5&#45;&gt;Node4 -->
<g id="edge6" class="edge">
<title>Node5&#45;&gt;Node4</title>
<path fill="none" stroke="midnightblue" d="M128.48,-168.32C112.91,-159.74 88.85,-146.49 70.76,-136.52"/>
<polygon fill="midnightblue" stroke="midnightblue" points="72.38,-133.42 61.93,-131.65 69,-139.55 72.38,-133.42"/>
</g>
<!-- Node5&#45;&gt;Node6 -->
<g id="edge7" class="edge">
<title>Node5&#45;&gt;Node6</title>
<path fill="none" stroke="midnightblue" d="M163.08,-168.44C182.49,-159.64 212.95,-145.81 235.19,-135.72"/>
<polygon fill="midnightblue" stroke="midnightblue" points="236.8,-138.84 244.46,-131.52 233.9,-132.46 236.8,-138.84"/>
</g>
<!-- Node6&#45;&gt;Node2 -->
<g id="edge8" class="edge">
<title>Node6&#45;&gt;Node2</title>
<path fill="none" stroke="midnightblue" d="M238.35,-112.44C211.93,-103.36 170.01,-88.94 140.48,-78.78"/>
<polygon fill="midnightblue" stroke="midnightblue" points="141.58,-75.46 130.98,-75.52 139.3,-82.08 141.58,-75.46"/>
</g>
<!-- Node7 -->
<g id="node7" class="node">
<title>Node7</title>
<g id="a_node7"><a xlink:title=" ">
<polygon fill="white" stroke="#bfbfbf" points="234.22,-56.5 234.22,-75.5 292.22,-75.5 292.22,-56.5 234.22,-56.5"/>
<text text-anchor="middle" x="263.22" y="-63.5" font-family="Helvetica,sans-Serif" font-size="10.00">memory</text>
</a>
</g>
</g>
<!-- Node6&#45;&gt;Node7 -->
<g id="edge9" class="edge">
<title>Node6&#45;&gt;Node7</title>
<path fill="none" stroke="midnightblue" d="M263.22,-112.08C263.22,-105.01 263.22,-94.86 263.22,-85.99"/>
<polygon fill="midnightblue" stroke="midnightblue" points="266.72,-85.75 263.22,-75.75 259.72,-85.75 266.72,-85.75"/>
</g>
</g>
</svg>
