<?xml version="1.0" encoding="UTF-8" standalone="no"?>
<!DOCTYPE svg PUBLIC "-//W3C//DTD SVG 1.1//EN"
 "http://www.w3.org/Graphics/SVG/1.1/DTD/svg11.dtd">
<!-- Generated by graphviz version 2.43.0 (0)
 -->
<!-- Title: src/colordialog_p.h Pages: 1 -->
<svg width="2626pt" height="308pt"
 viewBox="0.00 0.00 2625.50 308.00" xmlns="http://www.w3.org/2000/svg" xmlns:xlink="http://www.w3.org/1999/xlink">
<g id="graph0" class="graph" transform="scale(1 1) rotate(0) translate(4 304)">
<title>src/colordialog_p.h</title>
<polygon fill="white" stroke="transparent" points="-4,4 -4,-304 2621.5,-304 2621.5,4 -4,4"/>
<!-- Node1 -->
<g id="node1" class="node">
<title>Node1</title>
<g id="a_node1"><a xlink:title=" ">
<polygon fill="#bfbfbf" stroke="black" points="1634,-280.5 1634,-299.5 1742,-299.5 1742,-280.5 1634,-280.5"/>
<text text-anchor="middle" x="1688" y="-287.5" font-family="Helvetica,sans-Serif" font-size="10.00">src/colordialog_p.h</text>
</a>
</g>
</g>
<!-- Node2 -->
<g id="node2" class="node">
<title>Node2</title>
<g id="a_node2"><a xlink:href="perceptualcolorglobal_8h.html" target="_top" xlink:title=" ">
<polygon fill="white" stroke="black" points="890,-56.5 890,-75.5 1102,-75.5 1102,-56.5 890,-56.5"/>
<text text-anchor="middle" x="996" y="-63.5" font-family="Helvetica,sans-Serif" font-size="10.00">PerceptualColor/perceptualcolorglobal.h</text>
</a>
</g>
</g>
<!-- Node1&#45;&gt;Node2 -->
<g id="edge1" class="edge">
<title>Node1&#45;&gt;Node2</title>
<path fill="none" stroke="midnightblue" d="M1633.94,-289.29C1420.66,-290.08 637.43,-289.74 394,-244 319.95,-230.09 277.6,-249.45 234,-188 222.13,-171.27 225.14,-128.77 244,-112 267.34,-91.25 674.56,-76.41 879.77,-70.21"/>
<polygon fill="midnightblue" stroke="midnightblue" points="880.1,-73.71 889.99,-69.91 879.89,-66.71 880.1,-73.71"/>
</g>
<!-- Node4 -->
<g id="node4" class="node">
<title>Node4</title>
<g id="a_node4"><a xlink:href="perceptualcolorinternal_8h.html" target="_top" xlink:title=" ">
<polygon fill="white" stroke="black" points="1715.5,-112.5 1715.5,-131.5 1854.5,-131.5 1854.5,-112.5 1715.5,-112.5"/>
<text text-anchor="middle" x="1785" y="-119.5" font-family="Helvetica,sans-Serif" font-size="10.00">perceptualcolorinternal.h</text>
</a>
</g>
</g>
<!-- Node1&#45;&gt;Node4 -->
<g id="edge3" class="edge">
<title>Node1&#45;&gt;Node4</title>
<path fill="none" stroke="midnightblue" d="M1693.05,-280.1C1700.23,-267.52 1713.86,-243.85 1726,-224 1735.9,-207.8 1739.28,-204.31 1749,-188 1758.47,-172.1 1768.63,-153.61 1775.73,-140.43"/>
<polygon fill="midnightblue" stroke="midnightblue" points="1778.87,-141.98 1780.51,-131.51 1772.7,-138.67 1778.87,-141.98"/>
</g>
<!-- Node5 -->
<g id="node5" class="node">
<title>Node5</title>
<g id="a_node5"><a xlink:href="colordialog_8h.html" target="_top" xlink:title=" ">
<polygon fill="white" stroke="black" points="0,-168.5 0,-187.5 160,-187.5 160,-168.5 0,-168.5"/>
<text text-anchor="middle" x="80" y="-175.5" font-family="Helvetica,sans-Serif" font-size="10.00">PerceptualColor/colordialog.h</text>
</a>
</g>
</g>
<!-- Node1&#45;&gt;Node5 -->
<g id="edge5" class="edge">
<title>Node1&#45;&gt;Node5</title>
<path fill="none" stroke="midnightblue" d="M1633.8,-289.21C1379.93,-289.94 314.69,-290.21 174,-244 143.54,-234 114.09,-210.73 96.5,-194.93"/>
<polygon fill="midnightblue" stroke="midnightblue" points="98.59,-192.09 88.87,-187.86 93.83,-197.22 98.59,-192.09"/>
</g>
<!-- Node9 -->
<g id="node9" class="node">
<title>Node9</title>
<g id="a_node9"><a xlink:href="constpropagatingrawpointer_8h.html" target="_top" xlink:title=" ">
<polygon fill="white" stroke="black" points="938,-168.5 938,-187.5 1100,-187.5 1100,-168.5 938,-168.5"/>
<text text-anchor="middle" x="1019" y="-175.5" font-family="Helvetica,sans-Serif" font-size="10.00">constpropagatingrawpointer.h</text>
</a>
</g>
</g>
<!-- Node1&#45;&gt;Node9 -->
<g id="edge11" class="edge">
<title>Node1&#45;&gt;Node9</title>
<path fill="none" stroke="midnightblue" d="M1636.06,-280.46C1514.56,-260.48 1212.18,-210.76 1081.17,-189.22"/>
<polygon fill="midnightblue" stroke="midnightblue" points="1081.34,-185.7 1070.91,-187.53 1080.21,-192.61 1081.34,-185.7"/>
</g>
<!-- Node10 -->
<g id="node10" class="node">
<title>Node10</title>
<g id="a_node10"><a xlink:href="chromahuediagram_8h.html" target="_top" xlink:title=" ">
<polygon fill="white" stroke="black" points="657.5,-224.5 657.5,-243.5 858.5,-243.5 858.5,-224.5 657.5,-224.5"/>
<text text-anchor="middle" x="758" y="-231.5" font-family="Helvetica,sans-Serif" font-size="10.00">PerceptualColor/chromahuediagram.h</text>
</a>
</g>
</g>
<!-- Node1&#45;&gt;Node10 -->
<g id="edge14" class="edge">
<title>Node1&#45;&gt;Node10</title>
<path fill="none" stroke="midnightblue" d="M1633.69,-286.54C1503.57,-280.54 1163.5,-264.2 868.68,-244.1"/>
<polygon fill="midnightblue" stroke="midnightblue" points="868.87,-240.6 858.66,-243.41 868.39,-247.59 868.87,-240.6"/>
</g>
<!-- Node15 -->
<g id="node15" class="node">
<title>Node15</title>
<g id="a_node15"><a xlink:href="colorpatch_8h.html" target="_top" xlink:title=" ">
<polygon fill="white" stroke="black" points="254.5,-168.5 254.5,-187.5 411.5,-187.5 411.5,-168.5 254.5,-168.5"/>
<text text-anchor="middle" x="333" y="-175.5" font-family="Helvetica,sans-Serif" font-size="10.00">PerceptualColor/colorpatch.h</text>
</a>
</g>
</g>
<!-- Node1&#45;&gt;Node15 -->
<g id="edge24" class="edge">
<title>Node1&#45;&gt;Node15</title>
<path fill="none" stroke="midnightblue" d="M1633.62,-288.63C1408.66,-286.86 557.16,-277.98 442,-244 407.05,-233.69 371.77,-209.57 351.17,-193.79"/>
<polygon fill="midnightblue" stroke="midnightblue" points="353.31,-191.02 343.28,-187.6 348.99,-196.53 353.31,-191.02"/>
</g>
<!-- Node17 -->
<g id="node17" class="node">
<title>Node17</title>
<g id="a_node17"><a xlink:href="gradientslider_8h.html" target="_top" xlink:title=" ">
<polygon fill="white" stroke="black" points="876.5,-224.5 876.5,-243.5 1049.5,-243.5 1049.5,-224.5 876.5,-224.5"/>
<text text-anchor="middle" x="963" y="-231.5" font-family="Helvetica,sans-Serif" font-size="10.00">PerceptualColor/gradientslider.h</text>
</a>
</g>
</g>
<!-- Node1&#45;&gt;Node17 -->
<g id="edge28" class="edge">
<title>Node1&#45;&gt;Node17</title>
<path fill="none" stroke="midnightblue" d="M1633.8,-284.96C1511.93,-275.89 1214.85,-253.76 1060.19,-242.24"/>
<polygon fill="midnightblue" stroke="midnightblue" points="1059.99,-238.71 1049.76,-241.46 1059.47,-245.7 1059.99,-238.71"/>
</g>
<!-- Node19 -->
<g id="node19" class="node">
<title>Node19</title>
<g id="a_node19"><a xlink:href="multispinbox_8h.html" target="_top" xlink:title=" ">
<polygon fill="white" stroke="black" points="1471,-224.5 1471,-243.5 1641,-243.5 1641,-224.5 1471,-224.5"/>
<text text-anchor="middle" x="1556" y="-231.5" font-family="Helvetica,sans-Serif" font-size="10.00">PerceptualColor/multispinbox.h</text>
</a>
</g>
</g>
<!-- Node1&#45;&gt;Node19 -->
<g id="edge35" class="edge">
<title>Node1&#45;&gt;Node19</title>
<path fill="none" stroke="midnightblue" d="M1667.08,-280.44C1645.26,-271.52 1610.85,-257.44 1586.11,-247.32"/>
<polygon fill="midnightblue" stroke="midnightblue" points="1587.4,-244.06 1576.82,-243.52 1584.75,-250.54 1587.4,-244.06"/>
</g>
<!-- Node22 -->
<g id="node22" class="node">
<title>Node22</title>
<g id="a_node22"><a xlink:title=" ">
<polygon fill="white" stroke="#bfbfbf" points="1677.5,-168.5 1677.5,-187.5 1740.5,-187.5 1740.5,-168.5 1677.5,-168.5"/>
<text text-anchor="middle" x="1709" y="-175.5" font-family="Helvetica,sans-Serif" font-size="10.00">QLineEdit</text>
</a>
</g>
</g>
<!-- Node1&#45;&gt;Node22 -->
<g id="edge72" class="edge">
<title>Node1&#45;&gt;Node22</title>
<path fill="none" stroke="midnightblue" d="M1687.94,-280.48C1688.02,-267.97 1688.77,-243.93 1693,-224 1694.92,-214.98 1698.19,-205.3 1701.28,-197.24"/>
<polygon fill="midnightblue" stroke="midnightblue" points="1704.6,-198.35 1705.1,-187.76 1698.11,-195.73 1704.6,-198.35"/>
</g>
<!-- Node26 -->
<g id="node26" class="node">
<title>Node26</title>
<g id="a_node26"><a xlink:href="rgbcolorspacefactory_8h.html" target="_top" xlink:title=" ">
<polygon fill="white" stroke="black" points="1735.5,-224.5 1735.5,-243.5 1942.5,-243.5 1942.5,-224.5 1735.5,-224.5"/>
<text text-anchor="middle" x="1839" y="-231.5" font-family="Helvetica,sans-Serif" font-size="10.00">PerceptualColor/rgbcolorspacefactory.h</text>
</a>
</g>
</g>
<!-- Node1&#45;&gt;Node26 -->
<g id="edge46" class="edge">
<title>Node1&#45;&gt;Node26</title>
<path fill="none" stroke="midnightblue" d="M1711.93,-280.44C1737.22,-271.4 1777.3,-257.06 1805.68,-246.92"/>
<polygon fill="midnightblue" stroke="midnightblue" points="1806.95,-250.18 1815.19,-243.52 1804.59,-243.59 1806.95,-250.18"/>
</g>
<!-- Node28 -->
<g id="node28" class="node">
<title>Node28</title>
<g id="a_node28"><a xlink:href="wheelcolorpicker_8h.html" target="_top" xlink:title=" ">
<polygon fill="white" stroke="black" points="451,-224.5 451,-243.5 639,-243.5 639,-224.5 451,-224.5"/>
<text text-anchor="middle" x="545" y="-231.5" font-family="Helvetica,sans-Serif" font-size="10.00">PerceptualColor/wheelcolorpicker.h</text>
</a>
</g>
</g>
<!-- Node1&#45;&gt;Node28 -->
<g id="edge50" class="edge">
<title>Node1&#45;&gt;Node28</title>
<path fill="none" stroke="midnightblue" d="M1633.82,-287.5C1480.93,-283.07 1032.88,-268.86 649.2,-244.05"/>
<polygon fill="midnightblue" stroke="midnightblue" points="649.22,-240.54 639.01,-243.39 648.76,-247.53 649.22,-240.54"/>
</g>
<!-- Node29 -->
<g id="node29" class="node">
<title>Node29</title>
<g id="a_node29"><a xlink:href="multicolor_8h.html" target="_top" xlink:title=" ">
<polygon fill="white" stroke="black" points="1961,-224.5 1961,-243.5 2035,-243.5 2035,-224.5 1961,-224.5"/>
<text text-anchor="middle" x="1998" y="-231.5" font-family="Helvetica,sans-Serif" font-size="10.00">multicolor.h</text>
</a>
</g>
</g>
<!-- Node1&#45;&gt;Node29 -->
<g id="edge55" class="edge">
<title>Node1&#45;&gt;Node29</title>
<path fill="none" stroke="midnightblue" d="M1740.16,-280.49C1791.28,-272.07 1871.67,-258.6 1950.72,-244.2"/>
<polygon fill="midnightblue" stroke="midnightblue" points="1951.65,-247.59 1960.86,-242.35 1950.39,-240.7 1951.65,-247.59"/>
</g>
<!-- Node34 -->
<g id="node34" class="node">
<title>Node34</title>
<g id="a_node34"><a xlink:title=" ">
<polygon fill="white" stroke="#bfbfbf" points="2053.5,-224.5 2053.5,-243.5 2160.5,-243.5 2160.5,-224.5 2053.5,-224.5"/>
<text text-anchor="middle" x="2107" y="-231.5" font-family="Helvetica,sans-Serif" font-size="10.00">QDialogButtonBox</text>
</a>
</g>
</g>
<!-- Node1&#45;&gt;Node34 -->
<g id="edge68" class="edge">
<title>Node1&#45;&gt;Node34</title>
<path fill="none" stroke="midnightblue" d="M1742.01,-282.45C1809.76,-274.17 1929.74,-259.3 2043.14,-244.1"/>
<polygon fill="midnightblue" stroke="midnightblue" points="2043.95,-247.52 2053.39,-242.72 2043.01,-240.58 2043.95,-247.52"/>
</g>
<!-- Node35 -->
<g id="node35" class="node">
<title>Node35</title>
<g id="a_node35"><a xlink:title=" ">
<polygon fill="white" stroke="#bfbfbf" points="2179,-224.5 2179,-243.5 2277,-243.5 2277,-224.5 2179,-224.5"/>
<text text-anchor="middle" x="2228" y="-231.5" font-family="Helvetica,sans-Serif" font-size="10.00">QDoubleSpinBox</text>
</a>
</g>
</g>
<!-- Node1&#45;&gt;Node35 -->
<g id="edge69" class="edge">
<title>Node1&#45;&gt;Node35</title>
<path fill="none" stroke="midnightblue" d="M1742.33,-285.01C1829.87,-278.35 2007.8,-263.82 2168.89,-244.07"/>
<polygon fill="midnightblue" stroke="midnightblue" points="2169.49,-247.52 2178.98,-242.82 2168.63,-240.57 2169.49,-247.52"/>
</g>
<!-- Node36 -->
<g id="node36" class="node">
<title>Node36</title>
<g id="a_node36"><a xlink:title=" ">
<polygon fill="white" stroke="#bfbfbf" points="2295.5,-224.5 2295.5,-243.5 2378.5,-243.5 2378.5,-224.5 2295.5,-224.5"/>
<text text-anchor="middle" x="2337" y="-231.5" font-family="Helvetica,sans-Serif" font-size="10.00">QHBoxLayout</text>
</a>
</g>
</g>
<!-- Node1&#45;&gt;Node36 -->
<g id="edge70" class="edge">
<title>Node1&#45;&gt;Node36</title>
<path fill="none" stroke="midnightblue" d="M1742.19,-286.73C1845.67,-282.01 2078.7,-269.48 2285.18,-243.97"/>
<polygon fill="midnightblue" stroke="midnightblue" points="2285.81,-247.42 2295.3,-242.71 2284.95,-240.47 2285.81,-247.42"/>
</g>
<!-- Node37 -->
<g id="node37" class="node">
<title>Node37</title>
<g id="a_node37"><a xlink:title=" ">
<polygon fill="white" stroke="#bfbfbf" points="2397,-224.5 2397,-243.5 2447,-243.5 2447,-224.5 2397,-224.5"/>
<text text-anchor="middle" x="2422" y="-231.5" font-family="Helvetica,sans-Serif" font-size="10.00">QLabel</text>
</a>
</g>
</g>
<!-- Node1&#45;&gt;Node37 -->
<g id="edge71" class="edge">
<title>Node1&#45;&gt;Node37</title>
<path fill="none" stroke="midnightblue" d="M1742.42,-289.09C1859.07,-288.51 2141.84,-282.97 2386.71,-243.88"/>
<polygon fill="midnightblue" stroke="midnightblue" points="2387.55,-247.29 2396.87,-242.24 2386.44,-240.38 2387.55,-247.29"/>
</g>
<!-- Node38 -->
<g id="node38" class="node">
<title>Node38</title>
<g id="a_node38"><a xlink:title=" ">
<polygon fill="white" stroke="#bfbfbf" points="2465.5,-224.5 2465.5,-243.5 2524.5,-243.5 2524.5,-224.5 2465.5,-224.5"/>
<text text-anchor="middle" x="2495" y="-231.5" font-family="Helvetica,sans-Serif" font-size="10.00">QPointer</text>
</a>
</g>
</g>
<!-- Node1&#45;&gt;Node38 -->
<g id="edge73" class="edge">
<title>Node1&#45;&gt;Node38</title>
<path fill="none" stroke="midnightblue" d="M1742.32,-288.95C1866.83,-288.15 2182.44,-282.31 2455.19,-243.84"/>
<polygon fill="midnightblue" stroke="midnightblue" points="2455.88,-247.28 2465.29,-242.4 2454.89,-240.35 2455.88,-247.28"/>
</g>
<!-- Node39 -->
<g id="node39" class="node">
<title>Node39</title>
<g id="a_node39"><a xlink:title=" ">
<polygon fill="white" stroke="#bfbfbf" points="2542.5,-224.5 2542.5,-243.5 2617.5,-243.5 2617.5,-224.5 2542.5,-224.5"/>
<text text-anchor="middle" x="2580" y="-231.5" font-family="Helvetica,sans-Serif" font-size="10.00">QTabWidget</text>
</a>
</g>
</g>
<!-- Node1&#45;&gt;Node39 -->
<g id="edge74" class="edge">
<title>Node1&#45;&gt;Node39</title>
<path fill="none" stroke="midnightblue" d="M1742.17,-288.74C1875.18,-287.55 2228.53,-280.97 2532.09,-244.07"/>
<polygon fill="midnightblue" stroke="midnightblue" points="2532.92,-247.49 2542.41,-242.8 2532.06,-240.55 2532.92,-247.49"/>
</g>
<!-- Node3 -->
<g id="node3" class="node">
<title>Node3</title>
<g id="a_node3"><a xlink:title=" ">
<polygon fill="white" stroke="#bfbfbf" points="966.5,-0.5 966.5,-19.5 1025.5,-19.5 1025.5,-0.5 966.5,-0.5"/>
<text text-anchor="middle" x="996" y="-7.5" font-family="Helvetica,sans-Serif" font-size="10.00">QtGlobal</text>
</a>
</g>
</g>
<!-- Node2&#45;&gt;Node3 -->
<g id="edge2" class="edge">
<title>Node2&#45;&gt;Node3</title>
<path fill="none" stroke="midnightblue" d="M996,-56.08C996,-49.01 996,-38.86 996,-29.99"/>
<polygon fill="midnightblue" stroke="midnightblue" points="999.5,-29.75 996,-19.75 992.5,-29.75 999.5,-29.75"/>
</g>
<!-- Node4&#45;&gt;Node2 -->
<g id="edge4" class="edge">
<title>Node4&#45;&gt;Node2</title>
<path fill="none" stroke="midnightblue" d="M1715.35,-113.3C1710.5,-112.84 1705.68,-112.4 1701,-112 1494.01,-94.31 1252.29,-80.33 1112.41,-72.89"/>
<polygon fill="midnightblue" stroke="midnightblue" points="1112.28,-69.38 1102.11,-72.35 1111.91,-76.37 1112.28,-69.38"/>
</g>
<!-- Node5&#45;&gt;Node2 -->
<g id="edge6" class="edge">
<title>Node5&#45;&gt;Node2</title>
<path fill="none" stroke="midnightblue" d="M88.9,-168.24C104.56,-153.47 138.71,-124.08 174,-112 238.9,-89.78 668.74,-75.58 879.67,-69.87"/>
<polygon fill="midnightblue" stroke="midnightblue" points="879.95,-73.36 889.85,-69.59 879.76,-66.36 879.95,-73.36"/>
</g>
<!-- Node6 -->
<g id="node6" class="node">
<title>Node6</title>
<g id="a_node6"><a xlink:title=" ">
<polygon fill="white" stroke="#bfbfbf" points="39.5,-112.5 39.5,-131.5 120.5,-131.5 120.5,-112.5 39.5,-112.5"/>
<text text-anchor="middle" x="80" y="-119.5" font-family="Helvetica,sans-Serif" font-size="10.00">QColorDialog</text>
</a>
</g>
</g>
<!-- Node5&#45;&gt;Node6 -->
<g id="edge7" class="edge">
<title>Node5&#45;&gt;Node6</title>
<path fill="none" stroke="midnightblue" d="M80,-168.08C80,-161.01 80,-150.86 80,-141.99"/>
<polygon fill="midnightblue" stroke="midnightblue" points="83.5,-141.75 80,-131.75 76.5,-141.75 83.5,-141.75"/>
</g>
<!-- Node7 -->
<g id="node7" class="node">
<title>Node7</title>
<g id="a_node7"><a xlink:href="constpropagatinguniquepointer_8h.html" target="_top" xlink:title=" ">
<polygon fill="white" stroke="black" points="500.5,-112.5 500.5,-131.5 757.5,-131.5 757.5,-112.5 500.5,-112.5"/>
<text text-anchor="middle" x="629" y="-119.5" font-family="Helvetica,sans-Serif" font-size="10.00">PerceptualColor/constpropagatinguniquepointer.h</text>
</a>
</g>
</g>
<!-- Node5&#45;&gt;Node7 -->
<g id="edge8" class="edge">
<title>Node5&#45;&gt;Node7</title>
<path fill="none" stroke="midnightblue" d="M160.12,-169.12C258.87,-159.41 426.54,-142.91 532.34,-132.51"/>
<polygon fill="midnightblue" stroke="midnightblue" points="532.77,-135.98 542.38,-131.52 532.08,-129.02 532.77,-135.98"/>
</g>
<!-- Node7&#45;&gt;Node2 -->
<g id="edge9" class="edge">
<title>Node7&#45;&gt;Node2</title>
<path fill="none" stroke="midnightblue" d="M687.15,-112.44C752.65,-102.81 858.96,-87.16 928.19,-76.98"/>
<polygon fill="midnightblue" stroke="midnightblue" points="928.74,-80.43 938.12,-75.52 927.72,-73.51 928.74,-80.43"/>
</g>
<!-- Node8 -->
<g id="node8" class="node">
<title>Node8</title>
<g id="a_node8"><a xlink:title=" ">
<polygon fill="white" stroke="#bfbfbf" points="600,-56.5 600,-75.5 658,-75.5 658,-56.5 600,-56.5"/>
<text text-anchor="middle" x="629" y="-63.5" font-family="Helvetica,sans-Serif" font-size="10.00">memory</text>
</a>
</g>
</g>
<!-- Node7&#45;&gt;Node8 -->
<g id="edge10" class="edge">
<title>Node7&#45;&gt;Node8</title>
<path fill="none" stroke="midnightblue" d="M629,-112.08C629,-105.01 629,-94.86 629,-85.99"/>
<polygon fill="midnightblue" stroke="midnightblue" points="632.5,-85.75 629,-75.75 625.5,-85.75 632.5,-85.75"/>
</g>
<!-- Node9&#45;&gt;Node2 -->
<g id="edge12" class="edge">
<title>Node9&#45;&gt;Node2</title>
<path fill="none" stroke="midnightblue" d="M1018.23,-168.09C1017.04,-155.49 1014.42,-131.79 1010,-112 1007.99,-103.01 1005.04,-93.21 1002.37,-85.07"/>
<polygon fill="midnightblue" stroke="midnightblue" points="1005.65,-83.85 999.11,-75.51 999.02,-86.11 1005.65,-83.85"/>
</g>
<!-- Node9&#45;&gt;Node4 -->
<g id="edge13" class="edge">
<title>Node9&#45;&gt;Node4</title>
<path fill="none" stroke="midnightblue" d="M1100.09,-169.17C1104.8,-168.76 1109.46,-168.37 1114,-168 1327.37,-150.74 1579.29,-135.12 1705.1,-127.65"/>
<polygon fill="midnightblue" stroke="midnightblue" points="1705.63,-131.12 1715.4,-127.04 1705.21,-124.13 1705.63,-131.12"/>
</g>
<!-- Node10&#45;&gt;Node2 -->
<g id="edge15" class="edge">
<title>Node10&#45;&gt;Node2</title>
<path fill="none" stroke="midnightblue" d="M758.67,-224.44C760.88,-202.25 769.97,-142.47 805,-112 822.66,-96.64 876.4,-84.8 922.39,-77.13"/>
<polygon fill="midnightblue" stroke="midnightblue" points="923.06,-80.57 932.37,-75.51 921.94,-73.66 923.06,-80.57"/>
</g>
<!-- Node10&#45;&gt;Node7 -->
<g id="edge16" class="edge">
<title>Node10&#45;&gt;Node7</title>
<path fill="none" stroke="midnightblue" d="M747.88,-224.37C726.02,-205.73 674.19,-161.53 646.75,-138.13"/>
<polygon fill="midnightblue" stroke="midnightblue" points="648.96,-135.42 639.08,-131.59 644.41,-140.74 648.96,-135.42"/>
</g>
<!-- Node11 -->
<g id="node11" class="node">
<title>Node11</title>
<g id="a_node11"><a xlink:href="abstractdiagram_8h.html" target="_top" xlink:title=" ">
<polygon fill="white" stroke="black" points="430,-168.5 430,-187.5 616,-187.5 616,-168.5 430,-168.5"/>
<text text-anchor="middle" x="523" y="-175.5" font-family="Helvetica,sans-Serif" font-size="10.00">PerceptualColor/abstractdiagram.h</text>
</a>
</g>
</g>
<!-- Node10&#45;&gt;Node11 -->
<g id="edge17" class="edge">
<title>Node10&#45;&gt;Node11</title>
<path fill="none" stroke="midnightblue" d="M720.76,-224.44C679.94,-215.06 614.36,-199.99 570.02,-189.8"/>
<polygon fill="midnightblue" stroke="midnightblue" points="570.59,-186.34 560.06,-187.52 569.02,-193.17 570.59,-186.34"/>
</g>
<!-- Node13 -->
<g id="node13" class="node">
<title>Node13</title>
<g id="a_node13"><a xlink:href="lchdouble_8h.html" target="_top" xlink:title=" ">
<polygon fill="white" stroke="black" points="814.5,-112.5 814.5,-131.5 967.5,-131.5 967.5,-112.5 814.5,-112.5"/>
<text text-anchor="middle" x="891" y="-119.5" font-family="Helvetica,sans-Serif" font-size="10.00">PerceptualColor/lchdouble.h</text>
</a>
</g>
</g>
<!-- Node10&#45;&gt;Node13 -->
<g id="edge21" class="edge">
<title>Node10&#45;&gt;Node13</title>
<path fill="none" stroke="midnightblue" d="M768.44,-224.37C790.97,-205.73 844.41,-161.53 872.7,-138.13"/>
<polygon fill="midnightblue" stroke="midnightblue" points="875.14,-140.66 880.61,-131.59 870.68,-135.27 875.14,-140.66"/>
</g>
<!-- Node11&#45;&gt;Node2 -->
<g id="edge18" class="edge">
<title>Node11&#45;&gt;Node2</title>
<path fill="none" stroke="midnightblue" d="M512.65,-168.08C498.24,-154.62 475.55,-128.89 491,-112 516.73,-83.88 738.84,-73.21 879.8,-69.25"/>
<polygon fill="midnightblue" stroke="midnightblue" points="879.91,-72.75 889.81,-68.98 879.72,-65.75 879.91,-72.75"/>
</g>
<!-- Node11&#45;&gt;Node7 -->
<g id="edge20" class="edge">
<title>Node11&#45;&gt;Node7</title>
<path fill="none" stroke="midnightblue" d="M540.03,-168.32C557.03,-159.66 583.38,-146.24 602.99,-136.25"/>
<polygon fill="midnightblue" stroke="midnightblue" points="604.69,-139.31 612.01,-131.65 601.51,-133.08 604.69,-139.31"/>
</g>
<!-- Node12 -->
<g id="node12" class="node">
<title>Node12</title>
<g id="a_node12"><a xlink:title=" ">
<polygon fill="white" stroke="#bfbfbf" points="384.5,-112.5 384.5,-131.5 443.5,-131.5 443.5,-112.5 384.5,-112.5"/>
<text text-anchor="middle" x="414" y="-119.5" font-family="Helvetica,sans-Serif" font-size="10.00">QWidget</text>
</a>
</g>
</g>
<!-- Node11&#45;&gt;Node12 -->
<g id="edge19" class="edge">
<title>Node11&#45;&gt;Node12</title>
<path fill="none" stroke="midnightblue" d="M505.49,-168.32C487.93,-159.62 460.67,-146.12 440.47,-136.11"/>
<polygon fill="midnightblue" stroke="midnightblue" points="441.98,-132.96 431.47,-131.65 438.88,-139.23 441.98,-132.96"/>
</g>
<!-- Node13&#45;&gt;Node2 -->
<g id="edge22" class="edge">
<title>Node13&#45;&gt;Node2</title>
<path fill="none" stroke="midnightblue" d="M907.87,-112.32C924.71,-103.66 950.81,-90.24 970.24,-80.25"/>
<polygon fill="midnightblue" stroke="midnightblue" points="971.88,-83.34 979.17,-75.65 968.68,-77.12 971.88,-83.34"/>
</g>
<!-- Node14 -->
<g id="node14" class="node">
<title>Node14</title>
<g id="a_node14"><a xlink:title=" ">
<polygon fill="white" stroke="#bfbfbf" points="1529,-56.5 1529,-75.5 1585,-75.5 1585,-56.5 1529,-56.5"/>
<text text-anchor="middle" x="1557" y="-63.5" font-family="Helvetica,sans-Serif" font-size="10.00">QDebug</text>
</a>
</g>
</g>
<!-- Node13&#45;&gt;Node14 -->
<g id="edge23" class="edge">
<title>Node13&#45;&gt;Node14</title>
<path fill="none" stroke="midnightblue" d="M967.72,-114.78C1110.56,-103.2 1412.4,-78.72 1518.85,-70.09"/>
<polygon fill="midnightblue" stroke="midnightblue" points="1519.14,-73.58 1528.82,-69.28 1518.57,-66.6 1519.14,-73.58"/>
</g>
<!-- Node15&#45;&gt;Node2 -->
<g id="edge25" class="edge">
<title>Node15&#45;&gt;Node2</title>
<path fill="none" stroke="midnightblue" d="M335.72,-168.4C340.8,-153.89 353.27,-124.87 375,-112 417.21,-87 711.85,-74.83 879.67,-69.86"/>
<polygon fill="midnightblue" stroke="midnightblue" points="879.9,-73.36 889.79,-69.57 879.69,-66.36 879.9,-73.36"/>
</g>
<!-- Node15&#45;&gt;Node7 -->
<g id="edge27" class="edge">
<title>Node15&#45;&gt;Node7</title>
<path fill="none" stroke="midnightblue" d="M379.9,-168.44C432.08,-158.92 516.37,-143.55 572.23,-133.36"/>
<polygon fill="midnightblue" stroke="midnightblue" points="573.11,-136.75 582.32,-131.52 571.85,-129.87 573.11,-136.75"/>
</g>
<!-- Node16 -->
<g id="node16" class="node">
<title>Node16</title>
<g id="a_node16"><a xlink:title=" ">
<polygon fill="white" stroke="#bfbfbf" points="272.5,-112.5 272.5,-131.5 327.5,-131.5 327.5,-112.5 272.5,-112.5"/>
<text text-anchor="middle" x="300" y="-119.5" font-family="Helvetica,sans-Serif" font-size="10.00">QFrame</text>
</a>
</g>
</g>
<!-- Node15&#45;&gt;Node16 -->
<g id="edge26" class="edge">
<title>Node15&#45;&gt;Node16</title>
<path fill="none" stroke="midnightblue" d="M327.55,-168.08C322.99,-160.61 316.33,-149.72 310.71,-140.52"/>
<polygon fill="midnightblue" stroke="midnightblue" points="313.55,-138.46 305.35,-131.75 307.58,-142.11 313.55,-138.46"/>
</g>
<!-- Node17&#45;&gt;Node2 -->
<g id="edge29" class="edge">
<title>Node17&#45;&gt;Node2</title>
<path fill="none" stroke="midnightblue" d="M952.66,-224.24C939.32,-211.81 918.97,-188.33 929,-168 940.65,-144.41 960.97,-153.6 976,-132 985.59,-118.22 990.69,-99.69 993.34,-85.95"/>
<polygon fill="midnightblue" stroke="midnightblue" points="996.85,-86.17 995.03,-75.73 989.95,-85.03 996.85,-86.17"/>
</g>
<!-- Node17&#45;&gt;Node7 -->
<g id="edge30" class="edge">
<title>Node17&#45;&gt;Node7</title>
<path fill="none" stroke="midnightblue" d="M937.07,-224.46C877.88,-204.97 732.72,-157.16 664.95,-134.84"/>
<polygon fill="midnightblue" stroke="midnightblue" points="665.74,-131.41 655.14,-131.61 663.55,-138.06 665.74,-131.41"/>
</g>
<!-- Node17&#45;&gt;Node11 -->
<g id="edge31" class="edge">
<title>Node17&#45;&gt;Node11</title>
<path fill="none" stroke="midnightblue" d="M893.28,-224.44C814.19,-214.74 685.46,-198.94 602.53,-188.76"/>
<polygon fill="midnightblue" stroke="midnightblue" points="602.75,-185.26 592.39,-187.52 601.89,-192.21 602.75,-185.26"/>
</g>
<!-- Node18 -->
<g id="node18" class="node">
<title>Node18</title>
<g id="a_node18"><a xlink:href="lchadouble_8h.html" target="_top" xlink:title=" ">
<polygon fill="white" stroke="black" points="1872.5,-112.5 1872.5,-131.5 2031.5,-131.5 2031.5,-112.5 1872.5,-112.5"/>
<text text-anchor="middle" x="1952" y="-119.5" font-family="Helvetica,sans-Serif" font-size="10.00">PerceptualColor/lchadouble.h</text>
</a>
</g>
</g>
<!-- Node17&#45;&gt;Node18 -->
<g id="edge32" class="edge">
<title>Node17&#45;&gt;Node18</title>
<path fill="none" stroke="midnightblue" d="M996.96,-224.45C1026.96,-216.46 1071.62,-203.44 1109,-188 1126.64,-180.71 1128.59,-173.04 1147,-168 1297.65,-126.73 1688.48,-143.33 1862.31,-131.96"/>
<polygon fill="midnightblue" stroke="midnightblue" points="1862.71,-135.44 1872.44,-131.25 1862.22,-128.46 1862.71,-135.44"/>
</g>
<!-- Node18&#45;&gt;Node2 -->
<g id="edge33" class="edge">
<title>Node18&#45;&gt;Node2</title>
<path fill="none" stroke="midnightblue" d="M1872.44,-112.76C1869.25,-112.49 1866.1,-112.24 1863,-112 1594.72,-91.49 1279.02,-77.7 1112.48,-71.23"/>
<polygon fill="midnightblue" stroke="midnightblue" points="1112.34,-67.73 1102.21,-70.84 1112.07,-74.72 1112.34,-67.73"/>
</g>
<!-- Node18&#45;&gt;Node14 -->
<g id="edge34" class="edge">
<title>Node18&#45;&gt;Node14</title>
<path fill="none" stroke="midnightblue" d="M1889.41,-112.44C1806.81,-101.15 1663.92,-81.62 1595.58,-72.27"/>
<polygon fill="midnightblue" stroke="midnightblue" points="1595.65,-68.75 1585.27,-70.86 1594.7,-75.69 1595.65,-68.75"/>
</g>
<!-- Node19&#45;&gt;Node2 -->
<g id="edge36" class="edge">
<title>Node19&#45;&gt;Node2</title>
<path fill="none" stroke="midnightblue" d="M1579.59,-224.45C1607.63,-212.98 1648.45,-191.34 1630,-168 1567.59,-89.05 1277.72,-71.22 1112.37,-67.58"/>
<polygon fill="midnightblue" stroke="midnightblue" points="1112.22,-64.07 1102.15,-67.36 1112.08,-71.07 1112.22,-64.07"/>
</g>
<!-- Node19&#45;&gt;Node7 -->
<g id="edge40" class="edge">
<title>Node19&#45;&gt;Node7</title>
<path fill="none" stroke="midnightblue" d="M1470.91,-230.71C1349.95,-226.6 1121.56,-215.63 929,-188 835.94,-174.65 728.68,-148.83 670.98,-134.07"/>
<polygon fill="midnightblue" stroke="midnightblue" points="671.69,-130.64 661.14,-131.54 669.95,-137.42 671.69,-130.64"/>
</g>
<!-- Node20 -->
<g id="node20" class="node">
<title>Node20</title>
<g id="a_node20"><a xlink:title=" ">
<polygon fill="white" stroke="#bfbfbf" points="1517,-168.5 1517,-187.5 1621,-187.5 1621,-168.5 1517,-168.5"/>
<text text-anchor="middle" x="1569" y="-175.5" font-family="Helvetica,sans-Serif" font-size="10.00">QAbstractSpinBox</text>
</a>
</g>
</g>
<!-- Node19&#45;&gt;Node20 -->
<g id="edge37" class="edge">
<title>Node19&#45;&gt;Node20</title>
<path fill="none" stroke="midnightblue" d="M1558.15,-224.08C1559.87,-216.93 1562.35,-206.64 1564.5,-197.69"/>
<polygon fill="midnightblue" stroke="midnightblue" points="1567.96,-198.29 1566.89,-187.75 1561.15,-196.65 1567.96,-198.29"/>
</g>
<!-- Node21 -->
<g id="node21" class="node">
<title>Node21</title>
<g id="a_node21"><a xlink:title=" ">
<polygon fill="white" stroke="#bfbfbf" points="1156.5,-168.5 1156.5,-187.5 1211.5,-187.5 1211.5,-168.5 1156.5,-168.5"/>
<text text-anchor="middle" x="1184" y="-175.5" font-family="Helvetica,sans-Serif" font-size="10.00">QAction</text>
</a>
</g>
</g>
<!-- Node19&#45;&gt;Node21 -->
<g id="edge38" class="edge">
<title>Node19&#45;&gt;Node21</title>
<path fill="none" stroke="midnightblue" d="M1472.73,-224.47C1406.88,-217.12 1312.47,-205.24 1221.74,-188.17"/>
<polygon fill="midnightblue" stroke="midnightblue" points="1222.32,-184.72 1211.84,-186.29 1221.01,-191.6 1222.32,-184.72"/>
</g>
<!-- Node19&#45;&gt;Node22 -->
<g id="edge39" class="edge">
<title>Node19&#45;&gt;Node22</title>
<path fill="none" stroke="midnightblue" d="M1580.24,-224.44C1605.87,-215.4 1646.49,-201.06 1675.24,-190.92"/>
<polygon fill="midnightblue" stroke="midnightblue" points="1676.61,-194.15 1684.87,-187.52 1674.28,-187.54 1676.61,-194.15"/>
</g>
<!-- Node23 -->
<g id="node23" class="node">
<title>Node23</title>
<g id="a_node23"><a xlink:href="multispinboxsectionconfiguration_8h.html" target="_top" xlink:title=" ">
<polygon fill="white" stroke="black" points="1229.5,-168.5 1229.5,-187.5 1498.5,-187.5 1498.5,-168.5 1229.5,-168.5"/>
<text text-anchor="middle" x="1364" y="-175.5" font-family="Helvetica,sans-Serif" font-size="10.00">PerceptualColor/multispinboxsectionconfiguration.h</text>
</a>
</g>
</g>
<!-- Node19&#45;&gt;Node23 -->
<g id="edge41" class="edge">
<title>Node19&#45;&gt;Node23</title>
<path fill="none" stroke="midnightblue" d="M1525.58,-224.44C1492.72,-215.2 1440.22,-200.44 1404.03,-190.26"/>
<polygon fill="midnightblue" stroke="midnightblue" points="1404.85,-186.85 1394.28,-187.52 1402.96,-193.59 1404.85,-186.85"/>
</g>
<!-- Node23&#45;&gt;Node2 -->
<g id="edge42" class="edge">
<title>Node23&#45;&gt;Node2</title>
<path fill="none" stroke="midnightblue" d="M1369.64,-168.21C1377.69,-154.46 1390.03,-127.78 1376,-112 1358.55,-92.37 1217.64,-79.82 1112.47,-73.09"/>
<polygon fill="midnightblue" stroke="midnightblue" points="1112.61,-69.59 1102.41,-72.46 1112.17,-76.58 1112.61,-69.59"/>
</g>
<!-- Node23&#45;&gt;Node7 -->
<g id="edge45" class="edge">
<title>Node23&#45;&gt;Node7</title>
<path fill="none" stroke="midnightblue" d="M1247.94,-168.47C1113.66,-158.61 893.34,-142.42 754.98,-132.26"/>
<polygon fill="midnightblue" stroke="midnightblue" points="754.98,-128.75 744.75,-131.5 754.47,-135.73 754.98,-128.75"/>
</g>
<!-- Node24 -->
<g id="node24" class="node">
<title>Node24</title>
<g id="a_node24"><a xlink:title=" ">
<polygon fill="white" stroke="#bfbfbf" points="1296.5,-112.5 1296.5,-131.5 1367.5,-131.5 1367.5,-112.5 1296.5,-112.5"/>
<text text-anchor="middle" x="1332" y="-119.5" font-family="Helvetica,sans-Serif" font-size="10.00">QMetaType</text>
</a>
</g>
</g>
<!-- Node23&#45;&gt;Node24 -->
<g id="edge43" class="edge">
<title>Node23&#45;&gt;Node24</title>
<path fill="none" stroke="midnightblue" d="M1358.72,-168.08C1354.29,-160.61 1347.84,-149.72 1342.38,-140.52"/>
<polygon fill="midnightblue" stroke="midnightblue" points="1345.29,-138.57 1337.19,-131.75 1339.27,-142.14 1345.29,-138.57"/>
</g>
<!-- Node25 -->
<g id="node25" class="node">
<title>Node25</title>
<g id="a_node25"><a xlink:title=" ">
<polygon fill="white" stroke="#bfbfbf" points="1225.5,-112.5 1225.5,-131.5 1278.5,-131.5 1278.5,-112.5 1225.5,-112.5"/>
<text text-anchor="middle" x="1252" y="-119.5" font-family="Helvetica,sans-Serif" font-size="10.00">QString</text>
</a>
</g>
</g>
<!-- Node23&#45;&gt;Node25 -->
<g id="edge44" class="edge">
<title>Node23&#45;&gt;Node25</title>
<path fill="none" stroke="midnightblue" d="M1346.01,-168.32C1327.96,-159.62 1299.95,-146.12 1279.2,-136.11"/>
<polygon fill="midnightblue" stroke="midnightblue" points="1280.48,-132.84 1269.95,-131.65 1277.44,-139.15 1280.48,-132.84"/>
</g>
<!-- Node26&#45;&gt;Node2 -->
<g id="edge47" class="edge">
<title>Node26&#45;&gt;Node2</title>
<path fill="none" stroke="midnightblue" d="M1829.18,-224.22C1813.35,-210.47 1780.75,-183.81 1749,-168 1673.24,-130.28 1650.13,-127.86 1567,-112 1411.5,-82.33 1228.59,-72.16 1112.49,-68.71"/>
<polygon fill="midnightblue" stroke="midnightblue" points="1112.26,-65.2 1102.16,-68.41 1112.06,-72.2 1112.26,-65.2"/>
</g>
<!-- Node26&#45;&gt;Node4 -->
<g id="edge48" class="edge">
<title>Node26&#45;&gt;Node4</title>
<path fill="none" stroke="midnightblue" d="M1837.72,-224.18C1835.59,-211.28 1830.59,-186.77 1821,-168 1815.66,-157.55 1807.66,-147.23 1800.55,-139.12"/>
<polygon fill="midnightblue" stroke="midnightblue" points="1802.96,-136.56 1793.63,-131.55 1797.79,-141.29 1802.96,-136.56"/>
</g>
<!-- Node27 -->
<g id="node27" class="node">
<title>Node27</title>
<g id="a_node27"><a xlink:title=" ">
<polygon fill="white" stroke="#bfbfbf" points="1873,-168.5 1873,-187.5 1965,-187.5 1965,-168.5 1873,-168.5"/>
<text text-anchor="middle" x="1919" y="-175.5" font-family="Helvetica,sans-Serif" font-size="10.00">QSharedPointer</text>
</a>
</g>
</g>
<!-- Node26&#45;&gt;Node27 -->
<g id="edge49" class="edge">
<title>Node26&#45;&gt;Node27</title>
<path fill="none" stroke="midnightblue" d="M1851.85,-224.32C1864.22,-215.98 1883.13,-203.21 1897.74,-193.35"/>
<polygon fill="midnightblue" stroke="midnightblue" points="1899.85,-196.15 1906.18,-187.65 1895.93,-190.35 1899.85,-196.15"/>
</g>
<!-- Node28&#45;&gt;Node2 -->
<g id="edge51" class="edge">
<title>Node28&#45;&gt;Node2</title>
<path fill="none" stroke="midnightblue" d="M450.77,-231.82C372.98,-228.61 271.25,-218.48 245,-188 228.69,-169.07 241.76,-128.5 263,-112 286.9,-93.43 678.88,-77.64 879.56,-70.73"/>
<polygon fill="midnightblue" stroke="midnightblue" points="879.98,-74.22 889.85,-70.38 879.74,-67.22 879.98,-74.22"/>
</g>
<!-- Node28&#45;&gt;Node7 -->
<g id="edge52" class="edge">
<title>Node28&#45;&gt;Node7</title>
<path fill="none" stroke="midnightblue" d="M574.46,-224.41C592.27,-217.57 613.66,-206.09 625,-188 633.54,-174.38 633.83,-155.84 632.39,-142.04"/>
<polygon fill="midnightblue" stroke="midnightblue" points="635.81,-141.19 630.93,-131.78 628.88,-142.18 635.81,-141.19"/>
</g>
<!-- Node28&#45;&gt;Node11 -->
<g id="edge53" class="edge">
<title>Node28&#45;&gt;Node11</title>
<path fill="none" stroke="midnightblue" d="M541.37,-224.08C538.39,-216.77 534.07,-206.18 530.38,-197.1"/>
<polygon fill="midnightblue" stroke="midnightblue" points="533.58,-195.69 526.57,-187.75 527.1,-198.33 533.58,-195.69"/>
</g>
<!-- Node28&#45;&gt;Node13 -->
<g id="edge54" class="edge">
<title>Node28&#45;&gt;Node13</title>
<path fill="none" stroke="midnightblue" d="M571.86,-224.46C633.3,-204.93 784.17,-156.96 854.19,-134.7"/>
<polygon fill="midnightblue" stroke="midnightblue" points="855.45,-137.98 863.92,-131.61 853.33,-131.3 855.45,-137.98"/>
</g>
<!-- Node29&#45;&gt;Node2 -->
<g id="edge56" class="edge">
<title>Node29&#45;&gt;Node2</title>
<path fill="none" stroke="midnightblue" d="M2027.88,-224.46C2084.7,-207.51 2204.61,-168.14 2226,-132 2230.53,-124.35 2232.17,-118.4 2226,-112 2206.82,-92.11 1415.22,-74.98 1112.27,-69.14"/>
<polygon fill="midnightblue" stroke="midnightblue" points="1112.2,-65.63 1102.14,-68.94 1112.07,-72.63 1112.2,-65.63"/>
</g>
<!-- Node29&#45;&gt;Node4 -->
<g id="edge57" class="edge">
<title>Node29&#45;&gt;Node4</title>
<path fill="none" stroke="midnightblue" d="M1997.35,-224.41C1995.82,-210.43 1990.74,-182.84 1974,-168 1956.66,-152.62 1903.48,-140.79 1857.93,-133.12"/>
<polygon fill="midnightblue" stroke="midnightblue" points="1858.48,-129.67 1848.04,-131.5 1857.34,-136.58 1858.48,-129.67"/>
</g>
<!-- Node29&#45;&gt;Node27 -->
<g id="edge67" class="edge">
<title>Node29&#45;&gt;Node27</title>
<path fill="none" stroke="midnightblue" d="M1985.31,-224.32C1973.1,-215.98 1954.42,-203.21 1940,-193.35"/>
<polygon fill="midnightblue" stroke="midnightblue" points="1941.89,-190.41 1931.66,-187.65 1937.94,-196.19 1941.89,-190.41"/>
</g>
<!-- Node30 -->
<g id="node30" class="node">
<title>Node30</title>
<g id="a_node30"><a xlink:href="rgbcolorspace_8h.html" target="_top" xlink:title=" ">
<polygon fill="white" stroke="black" points="2021,-168.5 2021,-187.5 2115,-187.5 2115,-168.5 2021,-168.5"/>
<text text-anchor="middle" x="2068" y="-175.5" font-family="Helvetica,sans-Serif" font-size="10.00">rgbcolorspace.h</text>
</a>
</g>
</g>
<!-- Node29&#45;&gt;Node30 -->
<g id="edge58" class="edge">
<title>Node29&#45;&gt;Node30</title>
<path fill="none" stroke="midnightblue" d="M2009.25,-224.32C2019.8,-216.18 2035.8,-203.84 2048.44,-194.09"/>
<polygon fill="midnightblue" stroke="midnightblue" points="2050.77,-196.71 2056.55,-187.83 2046.49,-191.17 2050.77,-196.71"/>
</g>
<!-- Node33 -->
<g id="node33" class="node">
<title>Node33</title>
<g id="a_node33"><a xlink:title=" ">
<polygon fill="white" stroke="#bfbfbf" points="2273,-168.5 2273,-187.5 2323,-187.5 2323,-168.5 2273,-168.5"/>
<text text-anchor="middle" x="2298" y="-175.5" font-family="Helvetica,sans-Serif" font-size="10.00">QColor</text>
</a>
</g>
</g>
<!-- Node29&#45;&gt;Node33 -->
<g id="edge66" class="edge">
<title>Node29&#45;&gt;Node33</title>
<path fill="none" stroke="midnightblue" d="M2035.19,-225.8C2038.5,-225.18 2041.81,-224.57 2045,-224 2139.92,-206.93 2164.41,-206.85 2259,-188 2260.26,-187.75 2261.55,-187.48 2262.85,-187.21"/>
<polygon fill="midnightblue" stroke="midnightblue" points="2263.85,-190.58 2272.87,-185.03 2262.36,-183.74 2263.85,-190.58"/>
</g>
<!-- Node30&#45;&gt;Node2 -->
<g id="edge59" class="edge">
<title>Node30&#45;&gt;Node2</title>
<path fill="none" stroke="midnightblue" d="M2067.28,-168.46C2065.56,-154.05 2059.83,-125.16 2041,-112 2003.48,-85.78 1376.64,-72.94 1112.2,-68.68"/>
<polygon fill="midnightblue" stroke="midnightblue" points="1112.24,-65.18 1102.19,-68.52 1112.13,-72.18 1112.24,-65.18"/>
</g>
<!-- Node30&#45;&gt;Node4 -->
<g id="edge60" class="edge">
<title>Node30&#45;&gt;Node4</title>
<path fill="none" stroke="midnightblue" d="M2023.16,-168.44C1973.38,-158.94 1893.02,-143.61 1839.61,-133.42"/>
<polygon fill="midnightblue" stroke="midnightblue" points="1840.11,-129.95 1829.63,-131.52 1838.8,-136.83 1840.11,-129.95"/>
</g>
<!-- Node30&#45;&gt;Node7 -->
<g id="edge62" class="edge">
<title>Node30&#45;&gt;Node7</title>
<path fill="none" stroke="midnightblue" d="M2020.71,-171.87C2005.78,-170.41 1989.22,-168.96 1974,-168 1455.23,-135.21 1324.37,-153.27 805,-132 792.94,-131.51 780.42,-130.95 767.86,-130.36"/>
<polygon fill="midnightblue" stroke="midnightblue" points="767.94,-126.86 757.79,-129.89 767.61,-133.86 767.94,-126.86"/>
</g>
<!-- Node30&#45;&gt;Node13 -->
<g id="edge64" class="edge">
<title>Node30&#45;&gt;Node13</title>
<path fill="none" stroke="midnightblue" d="M2020.7,-171.97C2005.78,-170.52 1989.21,-169.04 1974,-168 1780.99,-154.76 1199.4,-133.76 977.92,-126.01"/>
<polygon fill="midnightblue" stroke="midnightblue" points="977.77,-122.5 967.65,-125.65 977.52,-129.49 977.77,-122.5"/>
</g>
<!-- Node30&#45;&gt;Node18 -->
<g id="edge63" class="edge">
<title>Node30&#45;&gt;Node18</title>
<path fill="none" stroke="midnightblue" d="M2049.62,-168.44C2030.78,-159.68 2001.27,-145.94 1979.62,-135.86"/>
<polygon fill="midnightblue" stroke="midnightblue" points="1980.84,-132.56 1970.29,-131.52 1977.88,-138.91 1980.84,-132.56"/>
</g>
<!-- Node31 -->
<g id="node31" class="node">
<title>Node31</title>
<g id="a_node31"><a xlink:title=" ">
<polygon fill="white" stroke="#bfbfbf" points="2087,-112.5 2087,-131.5 2143,-131.5 2143,-112.5 2087,-112.5"/>
<text text-anchor="middle" x="2115" y="-119.5" font-family="Helvetica,sans-Serif" font-size="10.00">QObject</text>
</a>
</g>
</g>
<!-- Node30&#45;&gt;Node31 -->
<g id="edge61" class="edge">
<title>Node30&#45;&gt;Node31</title>
<path fill="none" stroke="midnightblue" d="M2075.76,-168.08C2082.54,-160.3 2092.54,-148.8 2100.76,-139.37"/>
<polygon fill="midnightblue" stroke="midnightblue" points="2103.46,-141.59 2107.38,-131.75 2098.18,-137 2103.46,-141.59"/>
</g>
<!-- Node32 -->
<g id="node32" class="node">
<title>Node32</title>
<g id="a_node32"><a xlink:title=" ">
<polygon fill="white" stroke="#bfbfbf" points="2161.5,-112.5 2161.5,-131.5 2216.5,-131.5 2216.5,-112.5 2161.5,-112.5"/>
<text text-anchor="middle" x="2189" y="-119.5" font-family="Helvetica,sans-Serif" font-size="10.00">lcms2.h</text>
</a>
</g>
</g>
<!-- Node30&#45;&gt;Node32 -->
<g id="edge65" class="edge">
<title>Node30&#45;&gt;Node32</title>
<path fill="none" stroke="midnightblue" d="M2087.17,-168.44C2106.91,-159.64 2137.89,-145.81 2160.49,-135.72"/>
<polygon fill="midnightblue" stroke="midnightblue" points="2162.21,-138.79 2169.92,-131.52 2159.36,-132.4 2162.21,-138.79"/>
</g>
</g>
</svg>
