<?xml version="1.0" encoding="UTF-8" standalone="no"?>
<!DOCTYPE svg PUBLIC "-//W3C//DTD SVG 1.1//EN"
 "http://www.w3.org/Graphics/SVG/1.1/DTD/svg11.dtd">
<!-- Generated by graphviz version 2.43.0 (0)
 -->
<!-- Title: include/PerceptualColor/colorwheel.h Pages: 1 -->
<svg width="311pt" height="151pt"
 viewBox="0.00 0.00 311.00 151.00" xmlns="http://www.w3.org/2000/svg" xmlns:xlink="http://www.w3.org/1999/xlink">
<g id="graph0" class="graph" transform="scale(1 1) rotate(0) translate(4 147)">
<title>include/PerceptualColor/colorwheel.h</title>
<polygon fill="white" stroke="transparent" points="-4,4 -4,-147 307,-147 307,4 -4,4"/>
<!-- Node1 -->
<g id="node1" class="node">
<title>Node1</title>
<g id="a_node1"><a xlink:title=" ">
<polygon fill="#bfbfbf" stroke="black" points="28.5,-112.5 28.5,-142.5 160.5,-142.5 160.5,-112.5 28.5,-112.5"/>
<text text-anchor="start" x="36.5" y="-130.5" font-family="Helvetica,sans-Serif" font-size="10.00">include/PerceptualColor</text>
<text text-anchor="middle" x="94.5" y="-119.5" font-family="Helvetica,sans-Serif" font-size="10.00">/colorwheel.h</text>
</a>
</g>
</g>
<!-- Node2 -->
<g id="node2" class="node">
<title>Node2</title>
<g id="a_node2"><a xlink:href="colorwheel_8cpp.html" target="_top" xlink:title=" ">
<polygon fill="white" stroke="black" points="0,-0.5 0,-19.5 107,-19.5 107,-0.5 0,-0.5"/>
<text text-anchor="middle" x="53.5" y="-7.5" font-family="Helvetica,sans-Serif" font-size="10.00">src/colorwheel.cpp</text>
</a>
</g>
</g>
<!-- Node1&#45;&gt;Node2 -->
<g id="edge1" class="edge">
<title>Node1&#45;&gt;Node2</title>
<path fill="none" stroke="midnightblue" d="M58.93,-106.69C48.07,-98.69 37.45,-88.39 31.5,-76 22.22,-56.67 36.87,-32.39 46.38,-19.67"/>
<polygon fill="midnightblue" stroke="midnightblue" points="56.97,-109.59 67.2,-112.36 60.93,-103.82 56.97,-109.59"/>
</g>
<!-- Node3 -->
<g id="node3" class="node">
<title>Node3</title>
<g id="a_node3"><a xlink:href="colorwheel__p_8h.html" target="_top" xlink:title=" ">
<polygon fill="white" stroke="black" points="41,-56.5 41,-75.5 148,-75.5 148,-56.5 41,-56.5"/>
<text text-anchor="middle" x="94.5" y="-63.5" font-family="Helvetica,sans-Serif" font-size="10.00">src/colorwheel_p.h</text>
</a>
</g>
</g>
<!-- Node1&#45;&gt;Node3 -->
<g id="edge2" class="edge">
<title>Node1&#45;&gt;Node3</title>
<path fill="none" stroke="midnightblue" d="M94.5,-102.29C94.5,-92.86 94.5,-82.65 94.5,-75.66"/>
<polygon fill="midnightblue" stroke="midnightblue" points="91,-102.4 94.5,-112.4 98,-102.4 91,-102.4"/>
</g>
<!-- Node5 -->
<g id="node5" class="node">
<title>Node5</title>
<g id="a_node5"><a xlink:href="wheelcolorpicker__p_8h.html" target="_top" xlink:title=" ">
<polygon fill="white" stroke="black" points="166,-56.5 166,-75.5 303,-75.5 303,-56.5 166,-56.5"/>
<text text-anchor="middle" x="234.5" y="-63.5" font-family="Helvetica,sans-Serif" font-size="10.00">src/wheelcolorpicker_p.h</text>
</a>
</g>
</g>
<!-- Node1&#45;&gt;Node5 -->
<g id="edge5" class="edge">
<title>Node1&#45;&gt;Node5</title>
<path fill="none" stroke="midnightblue" d="M137.15,-108.37C162.71,-97.51 194.04,-84.2 214.13,-75.66"/>
<polygon fill="midnightblue" stroke="midnightblue" points="135.51,-105.27 127.68,-112.4 138.25,-111.71 135.51,-105.27"/>
</g>
<!-- Node3&#45;&gt;Node2 -->
<g id="edge3" class="edge">
<title>Node3&#45;&gt;Node2</title>
<path fill="none" stroke="midnightblue" d="M81.48,-47.86C74.38,-38.5 65.9,-27.33 60.14,-19.75"/>
<polygon fill="midnightblue" stroke="midnightblue" points="78.89,-50.24 87.73,-56.08 84.47,-46 78.89,-50.24"/>
</g>
<!-- Node4 -->
<g id="node4" class="node">
<title>Node4</title>
<g id="a_node4"><a xlink:href="wheelcolorpicker_8cpp.html" target="_top" xlink:title=" ">
<polygon fill="white" stroke="black" points="145.5,-0.5 145.5,-19.5 281.5,-19.5 281.5,-0.5 145.5,-0.5"/>
<text text-anchor="middle" x="213.5" y="-7.5" font-family="Helvetica,sans-Serif" font-size="10.00">src/wheelcolorpicker.cpp</text>
</a>
</g>
</g>
<!-- Node3&#45;&gt;Node4 -->
<g id="edge4" class="edge">
<title>Node3&#45;&gt;Node4</title>
<path fill="none" stroke="midnightblue" d="M122.64,-52.23C144.9,-42.13 175.36,-28.31 194.73,-19.52"/>
<polygon fill="midnightblue" stroke="midnightblue" points="121.02,-49.12 113.36,-56.44 123.91,-55.5 121.02,-49.12"/>
</g>
<!-- Node5&#45;&gt;Node4 -->
<g id="edge6" class="edge">
<title>Node5&#45;&gt;Node4</title>
<path fill="none" stroke="midnightblue" d="M227.38,-46.69C223.84,-37.59 219.73,-27.01 216.9,-19.75"/>
<polygon fill="midnightblue" stroke="midnightblue" points="224.15,-48.03 231.03,-56.08 230.67,-45.49 224.15,-48.03"/>
</g>
</g>
</svg>
