<?xml version="1.0" encoding="UTF-8" standalone="no"?>
<!DOCTYPE svg PUBLIC "-//W3C//DTD SVG 1.1//EN"
 "http://www.w3.org/Graphics/SVG/1.1/DTD/svg11.dtd">
<!-- Generated by graphviz version 2.43.0 (0)
 -->
<!-- Title: src/constpropagatingrawpointer.h Pages: 1 -->
<svg width="1493pt" height="140pt"
 viewBox="0.00 0.00 1492.50 140.00" xmlns="http://www.w3.org/2000/svg" xmlns:xlink="http://www.w3.org/1999/xlink">
<g id="graph0" class="graph" transform="scale(1 1) rotate(0) translate(4 136)">
<title>src/constpropagatingrawpointer.h</title>
<polygon fill="white" stroke="transparent" points="-4,4 -4,-136 1488.5,-136 1488.5,4 -4,4"/>
<!-- Node1 -->
<g id="node1" class="node">
<title>Node1</title>
<g id="a_node1"><a xlink:title=" ">
<polygon fill="#bfbfbf" stroke="black" points="661,-112.5 661,-131.5 840,-131.5 840,-112.5 661,-112.5"/>
<text text-anchor="middle" x="750.5" y="-119.5" font-family="Helvetica,sans-Serif" font-size="10.00">src/constpropagatingrawpointer.h</text>
</a>
</g>
</g>
<!-- Node2 -->
<g id="node2" class="node">
<title>Node2</title>
<g id="a_node2"><a xlink:href="chromahuediagram__p_8h.html" target="_top" xlink:title=" ">
<polygon fill="white" stroke="black" points="0,-56.5 0,-75.5 149,-75.5 149,-56.5 0,-56.5"/>
<text text-anchor="middle" x="74.5" y="-63.5" font-family="Helvetica,sans-Serif" font-size="10.00">src/chromahuediagram_p.h</text>
</a>
</g>
</g>
<!-- Node1&#45;&gt;Node2 -->
<g id="edge1" class="edge">
<title>Node1&#45;&gt;Node2</title>
<path fill="none" stroke="midnightblue" d="M650.84,-114.37C533.12,-106.31 331.42,-91.83 158.5,-76 155.43,-75.72 152.3,-75.42 149.14,-75.12"/>
<polygon fill="midnightblue" stroke="midnightblue" points="650.7,-117.87 660.92,-115.05 651.18,-110.88 650.7,-117.87"/>
</g>
<!-- Node4 -->
<g id="node4" class="node">
<title>Node4</title>
<g id="a_node4"><a xlink:href="chromalightnessdiagram__p_8h.html" target="_top" xlink:title=" ">
<polygon fill="white" stroke="black" points="417.5,-56.5 417.5,-75.5 593.5,-75.5 593.5,-56.5 417.5,-56.5"/>
<text text-anchor="middle" x="505.5" y="-63.5" font-family="Helvetica,sans-Serif" font-size="10.00">src/chromalightnessdiagram_p.h</text>
</a>
</g>
</g>
<!-- Node1&#45;&gt;Node4 -->
<g id="edge3" class="edge">
<title>Node1&#45;&gt;Node4</title>
<path fill="none" stroke="midnightblue" d="M701.87,-110.28C655.57,-100.08 586.81,-84.92 544.14,-75.52"/>
<polygon fill="midnightblue" stroke="midnightblue" points="701.16,-113.71 711.68,-112.44 702.67,-106.87 701.16,-113.71"/>
</g>
<!-- Node7 -->
<g id="node7" class="node">
<title>Node7</title>
<g id="a_node7"><a xlink:href="colordialog__p_8h.html" target="_top" xlink:title=" ">
<polygon fill="white" stroke="black" points="167.5,-56.5 167.5,-75.5 275.5,-75.5 275.5,-56.5 167.5,-56.5"/>
<text text-anchor="middle" x="221.5" y="-63.5" font-family="Helvetica,sans-Serif" font-size="10.00">src/colordialog_p.h</text>
</a>
</g>
</g>
<!-- Node1&#45;&gt;Node7 -->
<g id="edge6" class="edge">
<title>Node1&#45;&gt;Node7</title>
<path fill="none" stroke="midnightblue" d="M650.48,-112.67C556.02,-104.49 410.45,-91.07 284.5,-76 281.65,-75.66 278.72,-75.29 275.78,-74.91"/>
<polygon fill="midnightblue" stroke="midnightblue" points="650.33,-116.17 660.6,-113.54 650.94,-109.2 650.33,-116.17"/>
</g>
<!-- Node9 -->
<g id="node9" class="node">
<title>Node9</title>
<g id="a_node9"><a xlink:href="colorpatch__p_8h.html" target="_top" xlink:title=" ">
<polygon fill="white" stroke="black" points="294,-56.5 294,-75.5 399,-75.5 399,-56.5 294,-56.5"/>
<text text-anchor="middle" x="346.5" y="-63.5" font-family="Helvetica,sans-Serif" font-size="10.00">src/colorpatch_p.h</text>
</a>
</g>
</g>
<!-- Node1&#45;&gt;Node9 -->
<g id="edge8" class="edge">
<title>Node1&#45;&gt;Node9</title>
<path fill="none" stroke="midnightblue" d="M673.65,-111.19C604.31,-102.26 499.53,-88.6 408.5,-76 405.48,-75.58 402.38,-75.15 399.26,-74.71"/>
<polygon fill="midnightblue" stroke="midnightblue" points="673.26,-114.66 683.62,-112.47 674.15,-107.72 673.26,-114.66"/>
</g>
<!-- Node11 -->
<g id="node11" class="node">
<title>Node11</title>
<g id="a_node11"><a xlink:href="colorwheel__p_8h.html" target="_top" xlink:title=" ">
<polygon fill="white" stroke="black" points="767,-56.5 767,-75.5 874,-75.5 874,-56.5 767,-56.5"/>
<text text-anchor="middle" x="820.5" y="-63.5" font-family="Helvetica,sans-Serif" font-size="10.00">src/colorwheel_p.h</text>
</a>
</g>
</g>
<!-- Node1&#45;&gt;Node11 -->
<g id="edge10" class="edge">
<title>Node1&#45;&gt;Node11</title>
<path fill="none" stroke="midnightblue" d="M769.81,-106.1C782.41,-96.38 798.43,-84.03 809.05,-75.83"/>
<polygon fill="midnightblue" stroke="midnightblue" points="767.53,-103.44 761.75,-112.32 771.8,-108.99 767.53,-103.44"/>
</g>
<!-- Node13 -->
<g id="node13" class="node">
<title>Node13</title>
<g id="a_node13"><a xlink:href="extendeddoublevalidator__p_8h.html" target="_top" xlink:title=" ">
<polygon fill="white" stroke="black" points="892.5,-56.5 892.5,-75.5 1068.5,-75.5 1068.5,-56.5 892.5,-56.5"/>
<text text-anchor="middle" x="980.5" y="-63.5" font-family="Helvetica,sans-Serif" font-size="10.00">src/extendeddoublevalidator_p.h</text>
</a>
</g>
</g>
<!-- Node1&#45;&gt;Node13 -->
<g id="edge13" class="edge">
<title>Node1&#45;&gt;Node13</title>
<path fill="none" stroke="midnightblue" d="M796.7,-110.15C840.16,-99.95 904.34,-84.88 944.23,-75.52"/>
<polygon fill="midnightblue" stroke="midnightblue" points="795.88,-106.75 786.94,-112.44 797.48,-113.57 795.88,-106.75"/>
</g>
<!-- Node15 -->
<g id="node15" class="node">
<title>Node15</title>
<g id="a_node15"><a xlink:href="gradientslider__p_8h.html" target="_top" xlink:title=" ">
<polygon fill="white" stroke="black" points="1086.5,-56.5 1086.5,-75.5 1208.5,-75.5 1208.5,-56.5 1086.5,-56.5"/>
<text text-anchor="middle" x="1147.5" y="-63.5" font-family="Helvetica,sans-Serif" font-size="10.00">src/gradientslider_p.h</text>
</a>
</g>
</g>
<!-- Node1&#45;&gt;Node15 -->
<g id="edge15" class="edge">
<title>Node1&#45;&gt;Node15</title>
<path fill="none" stroke="midnightblue" d="M823.77,-111.03C899.22,-100.77 1015.45,-84.96 1086.19,-75.34"/>
<polygon fill="midnightblue" stroke="midnightblue" points="822.84,-107.63 813.41,-112.44 823.79,-114.56 822.84,-107.63"/>
</g>
<!-- Node17 -->
<g id="node17" class="node">
<title>Node17</title>
<g id="a_node17"><a xlink:href="multispinbox__p_8h.html" target="_top" xlink:title=" ">
<polygon fill="white" stroke="black" points="1226.5,-56.5 1226.5,-75.5 1344.5,-75.5 1344.5,-56.5 1226.5,-56.5"/>
<text text-anchor="middle" x="1285.5" y="-63.5" font-family="Helvetica,sans-Serif" font-size="10.00">src/multispinbox_p.h</text>
</a>
</g>
</g>
<!-- Node1&#45;&gt;Node17 -->
<g id="edge17" class="edge">
<title>Node1&#45;&gt;Node17</title>
<path fill="none" stroke="midnightblue" d="M850.26,-112.42C944.89,-104.04 1091.01,-90.46 1217.5,-76 1220.34,-75.68 1223.24,-75.33 1226.18,-74.98"/>
<polygon fill="midnightblue" stroke="midnightblue" points="849.78,-108.95 840.13,-113.32 850.4,-115.92 849.78,-108.95"/>
</g>
<!-- Node19 -->
<g id="node19" class="node">
<title>Node19</title>
<g id="a_node19"><a xlink:href="rgbcolorspace__p_8h.html" target="_top" xlink:title=" ">
<polygon fill="white" stroke="black" points="1362.5,-56.5 1362.5,-75.5 1484.5,-75.5 1484.5,-56.5 1362.5,-56.5"/>
<text text-anchor="middle" x="1423.5" y="-63.5" font-family="Helvetica,sans-Serif" font-size="10.00">src/rgbcolorspace_p.h</text>
</a>
</g>
</g>
<!-- Node1&#45;&gt;Node19 -->
<g id="edge19" class="edge">
<title>Node1&#45;&gt;Node19</title>
<path fill="none" stroke="midnightblue" d="M850.27,-115.19C969.97,-107.84 1176.66,-93.95 1353.5,-76 1356.43,-75.7 1359.42,-75.38 1362.44,-75.05"/>
<polygon fill="midnightblue" stroke="midnightblue" points="849.79,-111.71 840.03,-115.82 850.22,-118.7 849.79,-111.71"/>
</g>
<!-- Node21 -->
<g id="node21" class="node">
<title>Node21</title>
<g id="a_node21"><a xlink:href="wheelcolorpicker__p_8h.html" target="_top" xlink:title=" ">
<polygon fill="white" stroke="black" points="612,-56.5 612,-75.5 749,-75.5 749,-56.5 612,-56.5"/>
<text text-anchor="middle" x="680.5" y="-63.5" font-family="Helvetica,sans-Serif" font-size="10.00">src/wheelcolorpicker_p.h</text>
</a>
</g>
</g>
<!-- Node1&#45;&gt;Node21 -->
<g id="edge21" class="edge">
<title>Node1&#45;&gt;Node21</title>
<path fill="none" stroke="midnightblue" d="M731.19,-106.1C718.59,-96.38 702.57,-84.03 691.95,-75.83"/>
<polygon fill="midnightblue" stroke="midnightblue" points="729.2,-108.99 739.25,-112.32 733.47,-103.44 729.2,-108.99"/>
</g>
<!-- Node3 -->
<g id="node3" class="node">
<title>Node3</title>
<g id="a_node3"><a xlink:href="chromahuediagram_8cpp.html" target="_top" xlink:title=" ">
<polygon fill="white" stroke="black" points="0,-0.5 0,-19.5 149,-19.5 149,-0.5 0,-0.5"/>
<text text-anchor="middle" x="74.5" y="-7.5" font-family="Helvetica,sans-Serif" font-size="10.00">src/chromahuediagram.cpp</text>
</a>
</g>
</g>
<!-- Node2&#45;&gt;Node3 -->
<g id="edge2" class="edge">
<title>Node2&#45;&gt;Node3</title>
<path fill="none" stroke="midnightblue" d="M74.5,-45.8C74.5,-36.91 74.5,-26.78 74.5,-19.75"/>
<polygon fill="midnightblue" stroke="midnightblue" points="71,-46.08 74.5,-56.08 78,-46.08 71,-46.08"/>
</g>
<!-- Node5 -->
<g id="node5" class="node">
<title>Node5</title>
<g id="a_node5"><a xlink:href="chromalightnessdiagram_8cpp.html" target="_top" xlink:title=" ">
<polygon fill="white" stroke="black" points="417.5,-0.5 417.5,-19.5 593.5,-19.5 593.5,-0.5 417.5,-0.5"/>
<text text-anchor="middle" x="505.5" y="-7.5" font-family="Helvetica,sans-Serif" font-size="10.00">src/chromalightnessdiagram.cpp</text>
</a>
</g>
</g>
<!-- Node4&#45;&gt;Node5 -->
<g id="edge4" class="edge">
<title>Node4&#45;&gt;Node5</title>
<path fill="none" stroke="midnightblue" d="M505.5,-45.8C505.5,-36.91 505.5,-26.78 505.5,-19.75"/>
<polygon fill="midnightblue" stroke="midnightblue" points="502,-46.08 505.5,-56.08 509,-46.08 502,-46.08"/>
</g>
<!-- Node6 -->
<g id="node6" class="node">
<title>Node6</title>
<g id="a_node6"><a xlink:href="wheelcolorpicker_8cpp.html" target="_top" xlink:title=" ">
<polygon fill="white" stroke="black" points="612.5,-0.5 612.5,-19.5 748.5,-19.5 748.5,-0.5 612.5,-0.5"/>
<text text-anchor="middle" x="680.5" y="-7.5" font-family="Helvetica,sans-Serif" font-size="10.00">src/wheelcolorpicker.cpp</text>
</a>
</g>
</g>
<!-- Node4&#45;&gt;Node6 -->
<g id="edge5" class="edge">
<title>Node4&#45;&gt;Node6</title>
<path fill="none" stroke="midnightblue" d="M542.97,-53.44C575.97,-43.26 623.26,-28.66 652.9,-19.52"/>
<polygon fill="midnightblue" stroke="midnightblue" points="541.75,-50.15 533.23,-56.44 543.82,-56.84 541.75,-50.15"/>
</g>
<!-- Node8 -->
<g id="node8" class="node">
<title>Node8</title>
<g id="a_node8"><a xlink:href="colordialog_8cpp.html" target="_top" xlink:title=" ">
<polygon fill="white" stroke="black" points="167.5,-0.5 167.5,-19.5 275.5,-19.5 275.5,-0.5 167.5,-0.5"/>
<text text-anchor="middle" x="221.5" y="-7.5" font-family="Helvetica,sans-Serif" font-size="10.00">src/colordialog.cpp</text>
</a>
</g>
</g>
<!-- Node7&#45;&gt;Node8 -->
<g id="edge7" class="edge">
<title>Node7&#45;&gt;Node8</title>
<path fill="none" stroke="midnightblue" d="M221.5,-45.8C221.5,-36.91 221.5,-26.78 221.5,-19.75"/>
<polygon fill="midnightblue" stroke="midnightblue" points="218,-46.08 221.5,-56.08 225,-46.08 218,-46.08"/>
</g>
<!-- Node10 -->
<g id="node10" class="node">
<title>Node10</title>
<g id="a_node10"><a xlink:href="colorpatch_8cpp.html" target="_top" xlink:title=" ">
<polygon fill="white" stroke="black" points="294,-0.5 294,-19.5 399,-19.5 399,-0.5 294,-0.5"/>
<text text-anchor="middle" x="346.5" y="-7.5" font-family="Helvetica,sans-Serif" font-size="10.00">src/colorpatch.cpp</text>
</a>
</g>
</g>
<!-- Node9&#45;&gt;Node10 -->
<g id="edge9" class="edge">
<title>Node9&#45;&gt;Node10</title>
<path fill="none" stroke="midnightblue" d="M346.5,-45.8C346.5,-36.91 346.5,-26.78 346.5,-19.75"/>
<polygon fill="midnightblue" stroke="midnightblue" points="343,-46.08 346.5,-56.08 350,-46.08 343,-46.08"/>
</g>
<!-- Node11&#45;&gt;Node6 -->
<g id="edge12" class="edge">
<title>Node11&#45;&gt;Node6</title>
<path fill="none" stroke="midnightblue" d="M788.8,-52.77C762.5,-42.63 725.78,-28.47 702.58,-19.52"/>
<polygon fill="midnightblue" stroke="midnightblue" points="787.73,-56.11 798.32,-56.44 790.25,-49.58 787.73,-56.11"/>
</g>
<!-- Node12 -->
<g id="node12" class="node">
<title>Node12</title>
<g id="a_node12"><a xlink:href="colorwheel_8cpp.html" target="_top" xlink:title=" ">
<polygon fill="white" stroke="black" points="767,-0.5 767,-19.5 874,-19.5 874,-0.5 767,-0.5"/>
<text text-anchor="middle" x="820.5" y="-7.5" font-family="Helvetica,sans-Serif" font-size="10.00">src/colorwheel.cpp</text>
</a>
</g>
</g>
<!-- Node11&#45;&gt;Node12 -->
<g id="edge11" class="edge">
<title>Node11&#45;&gt;Node12</title>
<path fill="none" stroke="midnightblue" d="M820.5,-45.8C820.5,-36.91 820.5,-26.78 820.5,-19.75"/>
<polygon fill="midnightblue" stroke="midnightblue" points="817,-46.08 820.5,-56.08 824,-46.08 817,-46.08"/>
</g>
<!-- Node14 -->
<g id="node14" class="node">
<title>Node14</title>
<g id="a_node14"><a xlink:href="extendeddoublevalidator_8cpp.html" target="_top" xlink:title=" ">
<polygon fill="white" stroke="black" points="892.5,-0.5 892.5,-19.5 1068.5,-19.5 1068.5,-0.5 892.5,-0.5"/>
<text text-anchor="middle" x="980.5" y="-7.5" font-family="Helvetica,sans-Serif" font-size="10.00">src/extendeddoublevalidator.cpp</text>
</a>
</g>
</g>
<!-- Node13&#45;&gt;Node14 -->
<g id="edge14" class="edge">
<title>Node13&#45;&gt;Node14</title>
<path fill="none" stroke="midnightblue" d="M980.5,-45.8C980.5,-36.91 980.5,-26.78 980.5,-19.75"/>
<polygon fill="midnightblue" stroke="midnightblue" points="977,-46.08 980.5,-56.08 984,-46.08 977,-46.08"/>
</g>
<!-- Node16 -->
<g id="node16" class="node">
<title>Node16</title>
<g id="a_node16"><a xlink:href="gradientslider_8cpp.html" target="_top" xlink:title=" ">
<polygon fill="white" stroke="black" points="1087,-0.5 1087,-19.5 1208,-19.5 1208,-0.5 1087,-0.5"/>
<text text-anchor="middle" x="1147.5" y="-7.5" font-family="Helvetica,sans-Serif" font-size="10.00">src/gradientslider.cpp</text>
</a>
</g>
</g>
<!-- Node15&#45;&gt;Node16 -->
<g id="edge16" class="edge">
<title>Node15&#45;&gt;Node16</title>
<path fill="none" stroke="midnightblue" d="M1147.5,-45.8C1147.5,-36.91 1147.5,-26.78 1147.5,-19.75"/>
<polygon fill="midnightblue" stroke="midnightblue" points="1144,-46.08 1147.5,-56.08 1151,-46.08 1144,-46.08"/>
</g>
<!-- Node18 -->
<g id="node18" class="node">
<title>Node18</title>
<g id="a_node18"><a xlink:href="multispinbox_8cpp.html" target="_top" xlink:title=" ">
<polygon fill="white" stroke="black" points="1226.5,-0.5 1226.5,-19.5 1344.5,-19.5 1344.5,-0.5 1226.5,-0.5"/>
<text text-anchor="middle" x="1285.5" y="-7.5" font-family="Helvetica,sans-Serif" font-size="10.00">src/multispinbox.cpp</text>
</a>
</g>
</g>
<!-- Node17&#45;&gt;Node18 -->
<g id="edge18" class="edge">
<title>Node17&#45;&gt;Node18</title>
<path fill="none" stroke="midnightblue" d="M1285.5,-45.8C1285.5,-36.91 1285.5,-26.78 1285.5,-19.75"/>
<polygon fill="midnightblue" stroke="midnightblue" points="1282,-46.08 1285.5,-56.08 1289,-46.08 1282,-46.08"/>
</g>
<!-- Node20 -->
<g id="node20" class="node">
<title>Node20</title>
<g id="a_node20"><a xlink:href="rgbcolorspace_8cpp.html" target="_top" xlink:title=" ">
<polygon fill="white" stroke="black" points="1362.5,-0.5 1362.5,-19.5 1484.5,-19.5 1484.5,-0.5 1362.5,-0.5"/>
<text text-anchor="middle" x="1423.5" y="-7.5" font-family="Helvetica,sans-Serif" font-size="10.00">src/rgbcolorspace.cpp</text>
</a>
</g>
</g>
<!-- Node19&#45;&gt;Node20 -->
<g id="edge20" class="edge">
<title>Node19&#45;&gt;Node20</title>
<path fill="none" stroke="midnightblue" d="M1423.5,-45.8C1423.5,-36.91 1423.5,-26.78 1423.5,-19.75"/>
<polygon fill="midnightblue" stroke="midnightblue" points="1420,-46.08 1423.5,-56.08 1427,-46.08 1420,-46.08"/>
</g>
<!-- Node21&#45;&gt;Node6 -->
<g id="edge22" class="edge">
<title>Node21&#45;&gt;Node6</title>
<path fill="none" stroke="midnightblue" d="M680.5,-45.8C680.5,-36.91 680.5,-26.78 680.5,-19.75"/>
<polygon fill="midnightblue" stroke="midnightblue" points="677,-46.08 680.5,-56.08 684,-46.08 677,-46.08"/>
</g>
</g>
</svg>
