<?xml version="1.0" encoding="UTF-8" standalone="no"?>
<!DOCTYPE svg PUBLIC "-//W3C//DTD SVG 1.1//EN"
 "http://www.w3.org/Graphics/SVG/1.1/DTD/svg11.dtd">
<!-- Generated by graphviz version 2.43.0 (0)
 -->
<!-- Title: include/PerceptualColor Pages: 1 -->
<svg width="134pt" height="151pt"
 viewBox="0.00 0.00 134.00 151.00" xmlns="http://www.w3.org/2000/svg" xmlns:xlink="http://www.w3.org/1999/xlink">
<g id="graph0" class="graph" transform="scale(1 1) rotate(0) translate(4 147)">
<title>include/PerceptualColor</title>
<polygon fill="white" stroke="transparent" points="-4,4 -4,-147 130,-147 130,4 -4,4"/>
<g id="clust1" class="cluster">
<title>clusterdir_d44c64559bbebec7f509842c48db8b23</title>
<g id="a_clust1"><a xlink:href="dir_d44c64559bbebec7f509842c48db8b23.html" target="_top" xlink:title="include">
<polygon fill="#ddddee" stroke="black" points="8,-64 8,-135 118,-135 118,-64 8,-64"/>
<text text-anchor="middle" x="63" y="-123" font-family="Helvetica,sans-Serif" font-size="10.00">include</text>
</a>
</g>
</g>
<!-- dir_77b61bbae316d4c5f9bd38c2f07697be -->
<g id="node1" class="node">
<title>dir_77b61bbae316d4c5f9bd38c2f07697be</title>
<g id="a_node1"><a xlink:href="dir_77b61bbae316d4c5f9bd38c2f07697be.html" target="_top" xlink:title="PerceptualColor">
<polygon fill="#eeeeff" stroke="black" points="110,-108 16,-108 16,-72 110,-72 110,-108"/>
<text text-anchor="middle" x="63" y="-87.5" font-family="Helvetica,sans-Serif" font-size="10.00">PerceptualColor</text>
</a>
</g>
</g>
<!-- dir_68267d1309a1af8e8297ef4c3efbcdba -->
<g id="node2" class="node">
<title>dir_68267d1309a1af8e8297ef4c3efbcdba</title>
<g id="a_node2"><a xlink:href="dir_68267d1309a1af8e8297ef4c3efbcdba.html" target="_top" xlink:title="src">
<polygon fill="none" stroke="black" points="90,-36 36,-36 36,0 90,0 90,-36"/>
<text text-anchor="middle" x="63" y="-15.5" font-family="Helvetica,sans-Serif" font-size="10.00">src</text>
</a>
</g>
</g>
<!-- dir_77b61bbae316d4c5f9bd38c2f07697be&#45;&gt;dir_68267d1309a1af8e8297ef4c3efbcdba -->
<g id="edge2" class="edge">
<title>dir_77b61bbae316d4c5f9bd38c2f07697be&#45;&gt;dir_68267d1309a1af8e8297ef4c3efbcdba</title>
<path fill="none" stroke="black" d="M57.08,-71.7C56.29,-63.98 56.06,-54.71 56.4,-46.11"/>
<polygon fill="black" stroke="black" points="59.9,-46.32 57.1,-36.1 52.92,-45.84 59.9,-46.32"/>
<g id="a_edge2&#45;headlabel"><a xlink:href="dir_000001_000002.html" target="_top" xlink:title="1">
<text text-anchor="middle" x="62.48" y="-47.61" font-family="Helvetica,sans-Serif" font-size="10.00">1</text>
</a>
</g>
</g>
<!-- dir_68267d1309a1af8e8297ef4c3efbcdba&#45;&gt;dir_77b61bbae316d4c5f9bd38c2f07697be -->
<g id="edge1" class="edge">
<title>dir_68267d1309a1af8e8297ef4c3efbcdba&#45;&gt;dir_77b61bbae316d4c5f9bd38c2f07697be</title>
<path fill="none" stroke="black" d="M68.9,-36.1C69.7,-43.79 69.94,-53.05 69.6,-61.67"/>
<polygon fill="black" stroke="black" points="66.11,-61.48 68.92,-71.7 73.09,-61.96 66.11,-61.48"/>
<g id="a_edge1&#45;headlabel"><a xlink:href="dir_000002_000001.html" target="_top" xlink:title="96">
<text text-anchor="middle" x="63.52" y="-55.2" font-family="Helvetica,sans-Serif" font-size="10.00">96</text>
</a>
</g>
</g>
</g>
</svg>
