<?xml version="1.0" encoding="UTF-8" standalone="no"?>
<!DOCTYPE svg PUBLIC "-//W3C//DTD SVG 1.1//EN"
 "http://www.w3.org/Graphics/SVG/1.1/DTD/svg11.dtd">
<!-- Generated by graphviz version 2.43.0 (0)
 -->
<!-- Title: include Pages: 1 -->
<svg width="206pt" height="132pt"
 viewBox="0.00 0.00 206.00 132.00" xmlns="http://www.w3.org/2000/svg" xmlns:xlink="http://www.w3.org/1999/xlink">
<g id="graph0" class="graph" transform="scale(1 1) rotate(0) translate(4 128)">
<title>include</title>
<polygon fill="white" stroke="transparent" points="-4,4 -4,-128 202,-128 202,4 -4,4"/>
<g id="clust1" class="cluster">
<title>clusterdir_d44c64559bbebec7f509842c48db8b23</title>
<g id="a_clust1"><a xlink:href="dir_d44c64559bbebec7f509842c48db8b23.html" target="_top">
<polygon fill="#eeeeff" stroke="black" points="8,-8 8,-60 190,-60 190,-8 8,-8"/>
</a>
</g>
</g>
<!-- dir_d44c64559bbebec7f509842c48db8b23 -->
<g id="node1" class="node">
<title>dir_d44c64559bbebec7f509842c48db8b23</title>
<text text-anchor="middle" x="155" y="-31.5" font-family="Helvetica,sans-Serif" font-size="10.00">include</text>
</g>
<!-- dir_77b61bbae316d4c5f9bd38c2f07697be -->
<g id="node2" class="node">
<title>dir_77b61bbae316d4c5f9bd38c2f07697be</title>
<g id="a_node2"><a xlink:href="dir_77b61bbae316d4c5f9bd38c2f07697be.html" target="_top" xlink:title="PerceptualColor">
<polygon fill="white" stroke="black" points="110,-52 16,-52 16,-16 110,-16 110,-52"/>
<text text-anchor="middle" x="63" y="-31.5" font-family="Helvetica,sans-Serif" font-size="10.00">PerceptualColor</text>
</a>
</g>
</g>
<!-- dir_68267d1309a1af8e8297ef4c3efbcdba -->
<g id="node3" class="node">
<title>dir_68267d1309a1af8e8297ef4c3efbcdba</title>
<g id="a_node3"><a xlink:href="dir_68267d1309a1af8e8297ef4c3efbcdba.html" target="_top" xlink:title="src">
<polygon fill="none" stroke="black" points="136,-124 82,-124 82,-88 136,-88 136,-124"/>
<text text-anchor="middle" x="109" y="-103.5" font-family="Helvetica,sans-Serif" font-size="10.00">src</text>
</a>
</g>
</g>
<!-- dir_77b61bbae316d4c5f9bd38c2f07697be&#45;&gt;dir_68267d1309a1af8e8297ef4c3efbcdba -->
<g id="edge3" class="edge">
<title>dir_77b61bbae316d4c5f9bd38c2f07697be&#45;&gt;dir_68267d1309a1af8e8297ef4c3efbcdba</title>
<path fill="none" stroke="black" d="M68.34,-52.1C72.87,-60.3 79.22,-70.28 85.62,-79.36"/>
<polygon fill="black" stroke="black" points="82.99,-81.69 91.71,-87.7 88.64,-77.56 82.99,-81.69"/>
<g id="a_edge3&#45;headlabel"><a xlink:href="dir_000001_000002.html" target="_top" xlink:title="1">
<text text-anchor="middle" x="78.57" y="-77.96" font-family="Helvetica,sans-Serif" font-size="10.00">1</text>
</a>
</g>
</g>
<!-- dir_68267d1309a1af8e8297ef4c3efbcdba&#45;&gt;dir_d44c64559bbebec7f509842c48db8b23 -->
<g id="edge1" class="edge">
<title>dir_68267d1309a1af8e8297ef4c3efbcdba&#45;&gt;dir_d44c64559bbebec7f509842c48db8b23</title>
<path fill="none" stroke="black" d="M120.37,-87.7C125.72,-79.56 132.2,-69.69 138.11,-60.7"/>
<polygon fill="black" stroke="black" points="141.19,-62.38 143.76,-52.1 135.34,-58.54 141.19,-62.38"/>
<g id="a_edge1&#45;headlabel"><a xlink:href="dir_000002_000000.html" target="_top" xlink:title="96">
<text text-anchor="middle" x="141.59" y="-64.45" font-family="Helvetica,sans-Serif" font-size="10.00">96</text>
</a>
</g>
</g>
<!-- dir_68267d1309a1af8e8297ef4c3efbcdba&#45;&gt;dir_77b61bbae316d4c5f9bd38c2f07697be -->
<g id="edge2" class="edge">
<title>dir_68267d1309a1af8e8297ef4c3efbcdba&#45;&gt;dir_77b61bbae316d4c5f9bd38c2f07697be</title>
<path fill="none" stroke="black" d="M103.54,-87.7C98.99,-79.47 92.63,-69.48 86.23,-60.42"/>
<polygon fill="black" stroke="black" points="88.87,-58.1 80.14,-52.1 83.22,-62.24 88.87,-58.1"/>
<g id="a_edge2&#45;headlabel"><a xlink:href="dir_000002_000001.html" target="_top" xlink:title="96">
<text text-anchor="middle" x="93.28" y="-56.83" font-family="Helvetica,sans-Serif" font-size="10.00">96</text>
</a>
</g>
</g>
</g>
</svg>
