<?xml version="1.0" encoding="UTF-8" standalone="no"?>
<!DOCTYPE svg PUBLIC "-//W3C//DTD SVG 1.1//EN"
 "http://www.w3.org/Graphics/SVG/1.1/DTD/svg11.dtd">
<!-- Generated by graphviz version 2.43.0 (0)
 -->
<!-- Title: src/extendeddoublevalidator.h Pages: 1 -->
<svg width="421pt" height="140pt"
 viewBox="0.00 0.00 421.00 140.00" xmlns="http://www.w3.org/2000/svg" xmlns:xlink="http://www.w3.org/1999/xlink">
<g id="graph0" class="graph" transform="scale(1 1) rotate(0) translate(4 136)">
<title>src/extendeddoublevalidator.h</title>
<polygon fill="white" stroke="transparent" points="-4,4 -4,-136 417,-136 417,4 -4,4"/>
<!-- Node1 -->
<g id="node1" class="node">
<title>Node1</title>
<g id="a_node1"><a xlink:title=" ">
<polygon fill="#bfbfbf" stroke="black" points="146,-112.5 146,-131.5 310,-131.5 310,-112.5 146,-112.5"/>
<text text-anchor="middle" x="228" y="-119.5" font-family="Helvetica,sans-Serif" font-size="10.00">src/extendeddoublevalidator.h</text>
</a>
</g>
</g>
<!-- Node2 -->
<g id="node2" class="node">
<title>Node2</title>
<g id="a_node2"><a xlink:href="extendeddoublevalidator_8cpp.html" target="_top" xlink:title=" ">
<polygon fill="white" stroke="black" points="0,-0.5 0,-19.5 176,-19.5 176,-0.5 0,-0.5"/>
<text text-anchor="middle" x="88" y="-7.5" font-family="Helvetica,sans-Serif" font-size="10.00">src/extendeddoublevalidator.cpp</text>
</a>
</g>
</g>
<!-- Node1&#45;&gt;Node2 -->
<g id="edge1" class="edge">
<title>Node1&#45;&gt;Node2</title>
<path fill="none" stroke="midnightblue" d="M149.07,-110.82C107.16,-103.62 61.72,-92.32 49,-76 34.35,-57.22 59.91,-32.5 76.15,-19.63"/>
<polygon fill="midnightblue" stroke="midnightblue" points="148.63,-114.3 159.07,-112.47 149.77,-107.39 148.63,-114.3"/>
</g>
<!-- Node3 -->
<g id="node3" class="node">
<title>Node3</title>
<g id="a_node3"><a xlink:href="extendeddoublevalidator__p_8h.html" target="_top" xlink:title=" ">
<polygon fill="white" stroke="black" points="58,-56.5 58,-75.5 234,-75.5 234,-56.5 58,-56.5"/>
<text text-anchor="middle" x="146" y="-63.5" font-family="Helvetica,sans-Serif" font-size="10.00">src/extendeddoublevalidator_p.h</text>
</a>
</g>
</g>
<!-- Node1&#45;&gt;Node3 -->
<g id="edge2" class="edge">
<title>Node1&#45;&gt;Node3</title>
<path fill="none" stroke="midnightblue" d="M206.17,-106.62C191.19,-96.76 171.8,-83.99 159.14,-75.65"/>
<polygon fill="midnightblue" stroke="midnightblue" points="204.55,-109.75 214.83,-112.32 208.4,-103.9 204.55,-109.75"/>
</g>
<!-- Node4 -->
<g id="node4" class="node">
<title>Node4</title>
<g id="a_node4"><a xlink:href="multispinbox__p_8h.html" target="_top" xlink:title=" ">
<polygon fill="white" stroke="black" points="252,-56.5 252,-75.5 370,-75.5 370,-56.5 252,-56.5"/>
<text text-anchor="middle" x="311" y="-63.5" font-family="Helvetica,sans-Serif" font-size="10.00">src/multispinbox_p.h</text>
</a>
</g>
</g>
<!-- Node1&#45;&gt;Node4 -->
<g id="edge4" class="edge">
<title>Node1&#45;&gt;Node4</title>
<path fill="none" stroke="midnightblue" d="M250.1,-106.62C265.26,-96.76 284.88,-83.99 297.7,-75.65"/>
<polygon fill="midnightblue" stroke="midnightblue" points="247.81,-103.94 241.34,-112.32 251.63,-109.8 247.81,-103.94"/>
</g>
<!-- Node5 -->
<g id="node5" class="node">
<title>Node5</title>
<g id="a_node5"><a xlink:href="multispinbox_8cpp.html" target="_top" xlink:title=" ">
<polygon fill="white" stroke="black" points="295,-0.5 295,-19.5 413,-19.5 413,-0.5 295,-0.5"/>
<text text-anchor="middle" x="354" y="-7.5" font-family="Helvetica,sans-Serif" font-size="10.00">src/multispinbox.cpp</text>
</a>
</g>
</g>
<!-- Node1&#45;&gt;Node5 -->
<g id="edge6" class="edge">
<title>Node1&#45;&gt;Node5</title>
<path fill="none" stroke="midnightblue" d="M319.89,-113.02C342.75,-106.41 364.77,-95.09 379,-76 392.15,-58.36 373.97,-32.95 362.36,-19.73"/>
<polygon fill="midnightblue" stroke="midnightblue" points="318.86,-109.67 310.06,-115.58 320.62,-116.45 318.86,-109.67"/>
</g>
<!-- Node3&#45;&gt;Node2 -->
<g id="edge3" class="edge">
<title>Node3&#45;&gt;Node2</title>
<path fill="none" stroke="midnightblue" d="M129.09,-49.25C118.8,-39.67 106.03,-27.79 97.49,-19.83"/>
<polygon fill="midnightblue" stroke="midnightblue" points="126.98,-52.07 136.68,-56.32 131.75,-46.95 126.98,-52.07"/>
</g>
<!-- Node4&#45;&gt;Node5 -->
<g id="edge5" class="edge">
<title>Node4&#45;&gt;Node5</title>
<path fill="none" stroke="midnightblue" d="M324.42,-48.14C331.91,-38.74 340.94,-27.4 347.03,-19.75"/>
<polygon fill="midnightblue" stroke="midnightblue" points="321.59,-46.08 318.1,-56.08 327.07,-50.44 321.59,-46.08"/>
</g>
</g>
</svg>
