<?xml version="1.0" encoding="UTF-8" standalone="no"?>
<!DOCTYPE svg PUBLIC "-//W3C//DTD SVG 1.1//EN"
 "http://www.w3.org/Graphics/SVG/1.1/DTD/svg11.dtd">
<!-- Generated by graphviz version 2.43.0 (0)
 -->
<!-- Title: src/extendeddoublevalidator.h Pages: 1 -->
<svg width="580pt" height="196pt"
 viewBox="0.00 0.00 579.50 196.00" xmlns="http://www.w3.org/2000/svg" xmlns:xlink="http://www.w3.org/1999/xlink">
<g id="graph0" class="graph" transform="scale(1 1) rotate(0) translate(4 192)">
<title>src/extendeddoublevalidator.h</title>
<polygon fill="white" stroke="transparent" points="-4,4 -4,-192 575.5,-192 575.5,4 -4,4"/>
<!-- Node1 -->
<g id="node1" class="node">
<title>Node1</title>
<g id="a_node1"><a xlink:title=" ">
<polygon fill="#bfbfbf" stroke="black" points="93,-168.5 93,-187.5 257,-187.5 257,-168.5 93,-168.5"/>
<text text-anchor="middle" x="175" y="-175.5" font-family="Helvetica,sans-Serif" font-size="10.00">src/extendeddoublevalidator.h</text>
</a>
</g>
</g>
<!-- Node2 -->
<g id="node2" class="node">
<title>Node2</title>
<g id="a_node2"><a xlink:href="perceptualcolorglobal_8h.html" target="_top" xlink:title=" ">
<polygon fill="white" stroke="black" points="0,-56.5 0,-75.5 212,-75.5 212,-56.5 0,-56.5"/>
<text text-anchor="middle" x="106" y="-63.5" font-family="Helvetica,sans-Serif" font-size="10.00">PerceptualColor/perceptualcolorglobal.h</text>
</a>
</g>
</g>
<!-- Node1&#45;&gt;Node2 -->
<g id="edge1" class="edge">
<title>Node1&#45;&gt;Node2</title>
<path fill="none" stroke="midnightblue" d="M92.98,-170.8C67.77,-164.58 42.59,-153.04 27,-132 10.78,-110.11 42.37,-91.11 70.29,-79.4"/>
<polygon fill="midnightblue" stroke="midnightblue" points="71.93,-82.52 79.93,-75.57 69.35,-76.01 71.93,-82.52"/>
</g>
<!-- Node4 -->
<g id="node4" class="node">
<title>Node4</title>
<g id="a_node4"><a xlink:href="perceptualcolorinternal_8h.html" target="_top" xlink:title=" ">
<polygon fill="white" stroke="black" points="36.5,-112.5 36.5,-131.5 175.5,-131.5 175.5,-112.5 36.5,-112.5"/>
<text text-anchor="middle" x="106" y="-119.5" font-family="Helvetica,sans-Serif" font-size="10.00">perceptualcolorinternal.h</text>
</a>
</g>
</g>
<!-- Node1&#45;&gt;Node4 -->
<g id="edge3" class="edge">
<title>Node1&#45;&gt;Node4</title>
<path fill="none" stroke="midnightblue" d="M163.91,-168.32C153.51,-160.18 137.74,-147.84 125.28,-138.09"/>
<polygon fill="midnightblue" stroke="midnightblue" points="127.32,-135.24 117.29,-131.83 123.01,-140.75 127.32,-135.24"/>
</g>
<!-- Node5 -->
<g id="node5" class="node">
<title>Node5</title>
<g id="a_node5"><a xlink:title=" ">
<polygon fill="white" stroke="#bfbfbf" points="194,-112.5 194,-131.5 296,-131.5 296,-112.5 194,-112.5"/>
<text text-anchor="middle" x="245" y="-119.5" font-family="Helvetica,sans-Serif" font-size="10.00">QDoubleValidator</text>
</a>
</g>
</g>
<!-- Node1&#45;&gt;Node5 -->
<g id="edge5" class="edge">
<title>Node1&#45;&gt;Node5</title>
<path fill="none" stroke="midnightblue" d="M186.25,-168.32C196.8,-160.18 212.8,-147.84 225.44,-138.09"/>
<polygon fill="midnightblue" stroke="midnightblue" points="227.77,-140.71 233.55,-131.83 223.49,-135.17 227.77,-140.71"/>
</g>
<!-- Node6 -->
<g id="node6" class="node">
<title>Node6</title>
<g id="a_node6"><a xlink:href="constpropagatinguniquepointer_8h.html" target="_top" xlink:title=" ">
<polygon fill="white" stroke="black" points="314.5,-112.5 314.5,-131.5 571.5,-131.5 571.5,-112.5 314.5,-112.5"/>
<text text-anchor="middle" x="443" y="-119.5" font-family="Helvetica,sans-Serif" font-size="10.00">PerceptualColor/constpropagatinguniquepointer.h</text>
</a>
</g>
</g>
<!-- Node1&#45;&gt;Node6 -->
<g id="edge6" class="edge">
<title>Node1&#45;&gt;Node6</title>
<path fill="none" stroke="midnightblue" d="M217.47,-168.44C264.41,-158.98 340.08,-143.74 390.65,-133.55"/>
<polygon fill="midnightblue" stroke="midnightblue" points="391.62,-136.92 400.73,-131.52 390.24,-130.06 391.62,-136.92"/>
</g>
<!-- Node3 -->
<g id="node3" class="node">
<title>Node3</title>
<g id="a_node3"><a xlink:title=" ">
<polygon fill="white" stroke="#bfbfbf" points="76.5,-0.5 76.5,-19.5 135.5,-19.5 135.5,-0.5 76.5,-0.5"/>
<text text-anchor="middle" x="106" y="-7.5" font-family="Helvetica,sans-Serif" font-size="10.00">QtGlobal</text>
</a>
</g>
</g>
<!-- Node2&#45;&gt;Node3 -->
<g id="edge2" class="edge">
<title>Node2&#45;&gt;Node3</title>
<path fill="none" stroke="midnightblue" d="M106,-56.08C106,-49.01 106,-38.86 106,-29.99"/>
<polygon fill="midnightblue" stroke="midnightblue" points="109.5,-29.75 106,-19.75 102.5,-29.75 109.5,-29.75"/>
</g>
<!-- Node4&#45;&gt;Node2 -->
<g id="edge4" class="edge">
<title>Node4&#45;&gt;Node2</title>
<path fill="none" stroke="midnightblue" d="M106,-112.08C106,-105.01 106,-94.86 106,-85.99"/>
<polygon fill="midnightblue" stroke="midnightblue" points="109.5,-85.75 106,-75.75 102.5,-85.75 109.5,-85.75"/>
</g>
<!-- Node6&#45;&gt;Node2 -->
<g id="edge7" class="edge">
<title>Node6&#45;&gt;Node2</title>
<path fill="none" stroke="midnightblue" d="M389.6,-112.44C329.7,-102.85 232.63,-87.29 169.05,-77.1"/>
<polygon fill="midnightblue" stroke="midnightblue" points="169.58,-73.64 159.15,-75.52 168.47,-80.55 169.58,-73.64"/>
</g>
<!-- Node7 -->
<g id="node7" class="node">
<title>Node7</title>
<g id="a_node7"><a xlink:title=" ">
<polygon fill="white" stroke="#bfbfbf" points="414,-56.5 414,-75.5 472,-75.5 472,-56.5 414,-56.5"/>
<text text-anchor="middle" x="443" y="-63.5" font-family="Helvetica,sans-Serif" font-size="10.00">memory</text>
</a>
</g>
</g>
<!-- Node6&#45;&gt;Node7 -->
<g id="edge8" class="edge">
<title>Node6&#45;&gt;Node7</title>
<path fill="none" stroke="midnightblue" d="M443,-112.08C443,-105.01 443,-94.86 443,-85.99"/>
<polygon fill="midnightblue" stroke="midnightblue" points="446.5,-85.75 443,-75.75 439.5,-85.75 446.5,-85.75"/>
</g>
</g>
</svg>
