<?xml version="1.0" encoding="UTF-8" standalone="no"?>
<!DOCTYPE svg PUBLIC "-//W3C//DTD SVG 1.1//EN"
 "http://www.w3.org/Graphics/SVG/1.1/DTD/svg11.dtd">
<!-- Generated by graphviz version 2.43.0 (0)
 -->
<!-- Title: src/extendeddoublevalidator_p.h Pages: 1 -->
<svg width="671pt" height="252pt"
 viewBox="0.00 0.00 670.85 252.00" xmlns="http://www.w3.org/2000/svg" xmlns:xlink="http://www.w3.org/1999/xlink">
<g id="graph0" class="graph" transform="scale(1 1) rotate(0) translate(4 248)">
<title>src/extendeddoublevalidator_p.h</title>
<polygon fill="white" stroke="transparent" points="-4,4 -4,-248 666.85,-248 666.85,4 -4,4"/>
<!-- Node1 -->
<g id="node1" class="node">
<title>Node1</title>
<g id="a_node1"><a xlink:title=" ">
<polygon fill="#bfbfbf" stroke="black" points="426.5,-224.5 426.5,-243.5 602.5,-243.5 602.5,-224.5 426.5,-224.5"/>
<text text-anchor="middle" x="514.5" y="-231.5" font-family="Helvetica,sans-Serif" font-size="10.00">src/extendeddoublevalidator_p.h</text>
</a>
</g>
</g>
<!-- Node2 -->
<g id="node2" class="node">
<title>Node2</title>
<g id="a_node2"><a xlink:href="perceptualcolorglobal_8h.html" target="_top" xlink:title=" ">
<polygon fill="white" stroke="black" points="397.5,-56.5 397.5,-75.5 609.5,-75.5 609.5,-56.5 397.5,-56.5"/>
<text text-anchor="middle" x="503.5" y="-63.5" font-family="Helvetica,sans-Serif" font-size="10.00">PerceptualColor/perceptualcolorglobal.h</text>
</a>
</g>
</g>
<!-- Node1&#45;&gt;Node2 -->
<g id="edge1" class="edge">
<title>Node1&#45;&gt;Node2</title>
<path fill="none" stroke="midnightblue" d="M599.05,-224.46C638.3,-216.19 673.54,-199.95 659.5,-168 638.62,-120.48 582.38,-92.8 543.47,-78.79"/>
<polygon fill="midnightblue" stroke="midnightblue" points="544.57,-75.47 533.98,-75.52 542.29,-82.09 544.57,-75.47"/>
</g>
<!-- Node4 -->
<g id="node4" class="node">
<title>Node4</title>
<g id="a_node4"><a xlink:href="perceptualcolorinternal_8h.html" target="_top" xlink:title=" ">
<polygon fill="white" stroke="black" points="434,-112.5 434,-131.5 573,-131.5 573,-112.5 434,-112.5"/>
<text text-anchor="middle" x="503.5" y="-119.5" font-family="Helvetica,sans-Serif" font-size="10.00">perceptualcolorinternal.h</text>
</a>
</g>
</g>
<!-- Node1&#45;&gt;Node4 -->
<g id="edge3" class="edge">
<title>Node1&#45;&gt;Node4</title>
<path fill="none" stroke="midnightblue" d="M504.94,-224.45C496.41,-216.12 484.51,-202.6 479.5,-188 473.91,-171.7 482.09,-153.29 490.38,-140.24"/>
<polygon fill="midnightblue" stroke="midnightblue" points="493.42,-142 496.24,-131.78 487.66,-138.01 493.42,-142"/>
</g>
<!-- Node5 -->
<g id="node5" class="node">
<title>Node5</title>
<g id="a_node5"><a xlink:href="extendeddoublevalidator_8h.html" target="_top" xlink:title=" ">
<polygon fill="white" stroke="black" points="285,-168.5 285,-187.5 432,-187.5 432,-168.5 285,-168.5"/>
<text text-anchor="middle" x="358.5" y="-175.5" font-family="Helvetica,sans-Serif" font-size="10.00">extendeddoublevalidator.h</text>
</a>
</g>
</g>
<!-- Node1&#45;&gt;Node5 -->
<g id="edge5" class="edge">
<title>Node1&#45;&gt;Node5</title>
<path fill="none" stroke="midnightblue" d="M489.78,-224.44C463.65,-215.4 422.24,-201.06 392.92,-190.92"/>
<polygon fill="midnightblue" stroke="midnightblue" points="393.7,-187.48 383.1,-187.52 391.41,-194.1 393.7,-187.48"/>
</g>
<!-- Node9 -->
<g id="node9" class="node">
<title>Node9</title>
<g id="a_node9"><a xlink:href="constpropagatingrawpointer_8h.html" target="_top" xlink:title=" ">
<polygon fill="white" stroke="black" points="488.5,-168.5 488.5,-187.5 650.5,-187.5 650.5,-168.5 488.5,-168.5"/>
<text text-anchor="middle" x="569.5" y="-175.5" font-family="Helvetica,sans-Serif" font-size="10.00">constpropagatingrawpointer.h</text>
</a>
</g>
</g>
<!-- Node1&#45;&gt;Node9 -->
<g id="edge12" class="edge">
<title>Node1&#45;&gt;Node9</title>
<path fill="none" stroke="midnightblue" d="M523.58,-224.08C531.67,-216.14 543.7,-204.34 553.41,-194.8"/>
<polygon fill="midnightblue" stroke="midnightblue" points="555.9,-197.25 560.59,-187.75 551,-192.26 555.9,-197.25"/>
</g>
<!-- Node3 -->
<g id="node3" class="node">
<title>Node3</title>
<g id="a_node3"><a xlink:title=" ">
<polygon fill="white" stroke="#bfbfbf" points="474,-0.5 474,-19.5 533,-19.5 533,-0.5 474,-0.5"/>
<text text-anchor="middle" x="503.5" y="-7.5" font-family="Helvetica,sans-Serif" font-size="10.00">QtGlobal</text>
</a>
</g>
</g>
<!-- Node2&#45;&gt;Node3 -->
<g id="edge2" class="edge">
<title>Node2&#45;&gt;Node3</title>
<path fill="none" stroke="midnightblue" d="M503.5,-56.08C503.5,-49.01 503.5,-38.86 503.5,-29.99"/>
<polygon fill="midnightblue" stroke="midnightblue" points="507,-29.75 503.5,-19.75 500,-29.75 507,-29.75"/>
</g>
<!-- Node4&#45;&gt;Node2 -->
<g id="edge4" class="edge">
<title>Node4&#45;&gt;Node2</title>
<path fill="none" stroke="midnightblue" d="M503.5,-112.08C503.5,-105.01 503.5,-94.86 503.5,-85.99"/>
<polygon fill="midnightblue" stroke="midnightblue" points="507,-85.75 503.5,-75.75 500,-85.75 507,-85.75"/>
</g>
<!-- Node5&#45;&gt;Node2 -->
<g id="edge6" class="edge">
<title>Node5&#45;&gt;Node2</title>
<path fill="none" stroke="midnightblue" d="M366.01,-168.27C377.65,-155.06 401.16,-129.66 424.5,-112 440.66,-99.77 460.47,-88.5 476.22,-80.29"/>
<polygon fill="midnightblue" stroke="midnightblue" points="478.1,-83.25 485.42,-75.59 474.92,-77.02 478.1,-83.25"/>
</g>
<!-- Node5&#45;&gt;Node4 -->
<g id="edge7" class="edge">
<title>Node5&#45;&gt;Node4</title>
<path fill="none" stroke="midnightblue" d="M381.48,-168.44C405.66,-159.44 443.92,-145.19 471.15,-135.05"/>
<polygon fill="midnightblue" stroke="midnightblue" points="472.48,-138.29 480.63,-131.52 470.04,-131.73 472.48,-138.29"/>
</g>
<!-- Node6 -->
<g id="node6" class="node">
<title>Node6</title>
<g id="a_node6"><a xlink:title=" ">
<polygon fill="white" stroke="#bfbfbf" points="275.5,-112.5 275.5,-131.5 377.5,-131.5 377.5,-112.5 275.5,-112.5"/>
<text text-anchor="middle" x="326.5" y="-119.5" font-family="Helvetica,sans-Serif" font-size="10.00">QDoubleValidator</text>
</a>
</g>
</g>
<!-- Node5&#45;&gt;Node6 -->
<g id="edge8" class="edge">
<title>Node5&#45;&gt;Node6</title>
<path fill="none" stroke="midnightblue" d="M353.22,-168.08C348.79,-160.61 342.34,-149.72 336.88,-140.52"/>
<polygon fill="midnightblue" stroke="midnightblue" points="339.79,-138.57 331.69,-131.75 333.77,-142.14 339.79,-138.57"/>
</g>
<!-- Node7 -->
<g id="node7" class="node">
<title>Node7</title>
<g id="a_node7"><a xlink:href="constpropagatinguniquepointer_8h.html" target="_top" xlink:title=" ">
<polygon fill="white" stroke="black" points="0,-112.5 0,-131.5 257,-131.5 257,-112.5 0,-112.5"/>
<text text-anchor="middle" x="128.5" y="-119.5" font-family="Helvetica,sans-Serif" font-size="10.00">PerceptualColor/constpropagatinguniquepointer.h</text>
</a>
</g>
</g>
<!-- Node5&#45;&gt;Node7 -->
<g id="edge9" class="edge">
<title>Node5&#45;&gt;Node7</title>
<path fill="none" stroke="midnightblue" d="M322.06,-168.44C282.1,-159.06 217.91,-143.99 174.52,-133.8"/>
<polygon fill="midnightblue" stroke="midnightblue" points="175.31,-130.39 164.77,-131.52 173.71,-137.21 175.31,-130.39"/>
</g>
<!-- Node7&#45;&gt;Node2 -->
<g id="edge10" class="edge">
<title>Node7&#45;&gt;Node2</title>
<path fill="none" stroke="midnightblue" d="M187.92,-112.44C254.85,-102.81 363.48,-87.16 434.21,-76.98"/>
<polygon fill="midnightblue" stroke="midnightblue" points="434.96,-80.41 444.36,-75.52 433.96,-73.48 434.96,-80.41"/>
</g>
<!-- Node8 -->
<g id="node8" class="node">
<title>Node8</title>
<g id="a_node8"><a xlink:title=" ">
<polygon fill="white" stroke="#bfbfbf" points="99.5,-56.5 99.5,-75.5 157.5,-75.5 157.5,-56.5 99.5,-56.5"/>
<text text-anchor="middle" x="128.5" y="-63.5" font-family="Helvetica,sans-Serif" font-size="10.00">memory</text>
</a>
</g>
</g>
<!-- Node7&#45;&gt;Node8 -->
<g id="edge11" class="edge">
<title>Node7&#45;&gt;Node8</title>
<path fill="none" stroke="midnightblue" d="M128.5,-112.08C128.5,-105.01 128.5,-94.86 128.5,-85.99"/>
<polygon fill="midnightblue" stroke="midnightblue" points="132,-85.75 128.5,-75.75 125,-85.75 132,-85.75"/>
</g>
<!-- Node9&#45;&gt;Node2 -->
<g id="edge13" class="edge">
<title>Node9&#45;&gt;Node2</title>
<path fill="none" stroke="midnightblue" d="M574.77,-168.39C582.01,-155.32 593.03,-130.11 582.5,-112 573.76,-96.97 557.92,-86.54 542.71,-79.54"/>
<polygon fill="midnightblue" stroke="midnightblue" points="543.96,-76.27 533.38,-75.61 541.24,-82.72 543.96,-76.27"/>
</g>
<!-- Node9&#45;&gt;Node4 -->
<g id="edge14" class="edge">
<title>Node9&#45;&gt;Node4</title>
<path fill="none" stroke="midnightblue" d="M558.9,-168.32C549.04,-160.26 534.15,-148.08 522.28,-138.37"/>
<polygon fill="midnightblue" stroke="midnightblue" points="524.25,-135.46 514.3,-131.83 519.82,-140.88 524.25,-135.46"/>
</g>
</g>
</svg>
