<?xml version="1.0" encoding="UTF-8" standalone="no"?>
<!DOCTYPE svg PUBLIC "-//W3C//DTD SVG 1.1//EN"
 "http://www.w3.org/Graphics/SVG/1.1/DTD/svg11.dtd">
<!-- Generated by graphviz version 2.43.0 (0)
 -->
<!-- Title: src/extendeddoublevalidator.cpp Pages: 1 -->
<svg width="683pt" height="308pt"
 viewBox="0.00 0.00 683.41 308.00" xmlns="http://www.w3.org/2000/svg" xmlns:xlink="http://www.w3.org/1999/xlink">
<g id="graph0" class="graph" transform="scale(1 1) rotate(0) translate(4 304)">
<title>src/extendeddoublevalidator.cpp</title>
<polygon fill="white" stroke="transparent" points="-4,4 -4,-304 679.41,-304 679.41,4 -4,4"/>
<!-- Node1 -->
<g id="node1" class="node">
<title>Node1</title>
<g id="a_node1"><a xlink:title=" ">
<polygon fill="#bfbfbf" stroke="black" points="384,-280.5 384,-299.5 560,-299.5 560,-280.5 384,-280.5"/>
<text text-anchor="middle" x="472" y="-287.5" font-family="Helvetica,sans-Serif" font-size="10.00">src/extendeddoublevalidator.cpp</text>
</a>
</g>
</g>
<!-- Node2 -->
<g id="node2" class="node">
<title>Node2</title>
<g id="a_node2"><a xlink:href="perceptualcolorglobal_8h.html" target="_top" xlink:title=" ">
<polygon fill="white" stroke="black" points="447,-56.5 447,-75.5 659,-75.5 659,-56.5 447,-56.5"/>
<text text-anchor="middle" x="553" y="-63.5" font-family="Helvetica,sans-Serif" font-size="10.00">PerceptualColor/perceptualcolorglobal.h</text>
</a>
</g>
</g>
<!-- Node1&#45;&gt;Node2 -->
<g id="edge1" class="edge">
<title>Node1&#45;&gt;Node2</title>
<path fill="none" stroke="midnightblue" d="M529.04,-280.43C579.57,-269.24 648.95,-243.98 673,-188 684.02,-162.36 651.55,-112.59 651,-112 636.43,-96.59 615.57,-86.01 596.84,-79"/>
<polygon fill="midnightblue" stroke="midnightblue" points="597.88,-75.65 587.28,-75.65 595.56,-82.26 597.88,-75.65"/>
</g>
<!-- Node4 -->
<g id="node4" class="node">
<title>Node4</title>
<g id="a_node4"><a xlink:href="perceptualcolorinternal_8h.html" target="_top" xlink:title=" ">
<polygon fill="white" stroke="black" points="434.5,-112.5 434.5,-131.5 573.5,-131.5 573.5,-112.5 434.5,-112.5"/>
<text text-anchor="middle" x="504" y="-119.5" font-family="Helvetica,sans-Serif" font-size="10.00">perceptualcolorinternal.h</text>
</a>
</g>
</g>
<!-- Node1&#45;&gt;Node4 -->
<g id="edge3" class="edge">
<title>Node1&#45;&gt;Node4</title>
<path fill="none" stroke="midnightblue" d="M462.44,-280.45C453.91,-272.12 442.01,-258.6 437,-244 434.12,-235.59 434.66,-232.58 437,-224 446.17,-190.38 471.52,-157.98 488.28,-139.3"/>
<polygon fill="midnightblue" stroke="midnightblue" points="491.06,-141.45 495.28,-131.73 485.92,-136.69 491.06,-141.45"/>
</g>
<!-- Node5 -->
<g id="node5" class="node">
<title>Node5</title>
<g id="a_node5"><a xlink:href="extendeddoublevalidator_8h.html" target="_top" xlink:title=" ">
<polygon fill="white" stroke="black" points="243.5,-168.5 243.5,-187.5 390.5,-187.5 390.5,-168.5 243.5,-168.5"/>
<text text-anchor="middle" x="317" y="-175.5" font-family="Helvetica,sans-Serif" font-size="10.00">extendeddoublevalidator.h</text>
</a>
</g>
</g>
<!-- Node1&#45;&gt;Node5 -->
<g id="edge5" class="edge">
<title>Node1&#45;&gt;Node5</title>
<path fill="none" stroke="midnightblue" d="M458.53,-280.21C444.92,-271.26 423.33,-256.91 405,-244 381.2,-227.23 354.35,-207.24 336.64,-193.9"/>
<polygon fill="midnightblue" stroke="midnightblue" points="338.36,-190.81 328.27,-187.58 334.14,-196.4 338.36,-190.81"/>
</g>
<!-- Node9 -->
<g id="node9" class="node">
<title>Node9</title>
<g id="a_node9"><a xlink:href="extendeddoublevalidator__p_8h.html" target="_top" xlink:title=" ">
<polygon fill="white" stroke="black" points="446.5,-224.5 446.5,-243.5 605.5,-243.5 605.5,-224.5 446.5,-224.5"/>
<text text-anchor="middle" x="526" y="-231.5" font-family="Helvetica,sans-Serif" font-size="10.00">extendeddoublevalidator_p.h</text>
</a>
</g>
</g>
<!-- Node1&#45;&gt;Node9 -->
<g id="edge12" class="edge">
<title>Node1&#45;&gt;Node9</title>
<path fill="none" stroke="midnightblue" d="M480.92,-280.08C488.78,-272.22 500.43,-260.57 509.92,-251.08"/>
<polygon fill="midnightblue" stroke="midnightblue" points="512.65,-253.3 517.25,-243.75 507.7,-248.35 512.65,-253.3"/>
</g>
<!-- Node3 -->
<g id="node3" class="node">
<title>Node3</title>
<g id="a_node3"><a xlink:title=" ">
<polygon fill="white" stroke="#bfbfbf" points="523.5,-0.5 523.5,-19.5 582.5,-19.5 582.5,-0.5 523.5,-0.5"/>
<text text-anchor="middle" x="553" y="-7.5" font-family="Helvetica,sans-Serif" font-size="10.00">QtGlobal</text>
</a>
</g>
</g>
<!-- Node2&#45;&gt;Node3 -->
<g id="edge2" class="edge">
<title>Node2&#45;&gt;Node3</title>
<path fill="none" stroke="midnightblue" d="M553,-56.08C553,-49.01 553,-38.86 553,-29.99"/>
<polygon fill="midnightblue" stroke="midnightblue" points="556.5,-29.75 553,-19.75 549.5,-29.75 556.5,-29.75"/>
</g>
<!-- Node4&#45;&gt;Node2 -->
<g id="edge4" class="edge">
<title>Node4&#45;&gt;Node2</title>
<path fill="none" stroke="midnightblue" d="M512.09,-112.08C519.16,-104.3 529.59,-92.8 538.15,-83.37"/>
<polygon fill="midnightblue" stroke="midnightblue" points="540.93,-85.51 545.06,-75.75 535.75,-80.8 540.93,-85.51"/>
</g>
<!-- Node5&#45;&gt;Node2 -->
<g id="edge6" class="edge">
<title>Node5&#45;&gt;Node2</title>
<path fill="none" stroke="midnightblue" d="M329.5,-168.32C349.15,-154.94 388.77,-129.06 425,-112 453.79,-98.45 487.83,-86.67 513.57,-78.57"/>
<polygon fill="midnightblue" stroke="midnightblue" points="514.83,-81.84 523.35,-75.54 512.76,-75.15 514.83,-81.84"/>
</g>
<!-- Node5&#45;&gt;Node4 -->
<g id="edge7" class="edge">
<title>Node5&#45;&gt;Node4</title>
<path fill="none" stroke="midnightblue" d="M346.63,-168.44C378.5,-159.24 429.33,-144.56 464.56,-134.39"/>
<polygon fill="midnightblue" stroke="midnightblue" points="465.87,-137.65 474.51,-131.52 463.93,-130.93 465.87,-137.65"/>
</g>
<!-- Node6 -->
<g id="node6" class="node">
<title>Node6</title>
<g id="a_node6"><a xlink:title=" ">
<polygon fill="white" stroke="#bfbfbf" points="0,-112.5 0,-131.5 102,-131.5 102,-112.5 0,-112.5"/>
<text text-anchor="middle" x="51" y="-119.5" font-family="Helvetica,sans-Serif" font-size="10.00">QDoubleValidator</text>
</a>
</g>
</g>
<!-- Node5&#45;&gt;Node6 -->
<g id="edge8" class="edge">
<title>Node5&#45;&gt;Node6</title>
<path fill="none" stroke="midnightblue" d="M274.85,-168.44C228.25,-158.98 153.16,-143.74 102.95,-133.55"/>
<polygon fill="midnightblue" stroke="midnightblue" points="103.45,-130.08 92.95,-131.52 102.06,-136.94 103.45,-130.08"/>
</g>
<!-- Node7 -->
<g id="node7" class="node">
<title>Node7</title>
<g id="a_node7"><a xlink:href="constpropagatinguniquepointer_8h.html" target="_top" xlink:title=" ">
<polygon fill="white" stroke="black" points="120.5,-112.5 120.5,-131.5 377.5,-131.5 377.5,-112.5 120.5,-112.5"/>
<text text-anchor="middle" x="249" y="-119.5" font-family="Helvetica,sans-Serif" font-size="10.00">PerceptualColor/constpropagatinguniquepointer.h</text>
</a>
</g>
</g>
<!-- Node5&#45;&gt;Node7 -->
<g id="edge9" class="edge">
<title>Node5&#45;&gt;Node7</title>
<path fill="none" stroke="midnightblue" d="M306.07,-168.32C295.83,-160.18 280.28,-147.84 268,-138.09"/>
<polygon fill="midnightblue" stroke="midnightblue" points="270.13,-135.31 260.12,-131.83 265.78,-140.79 270.13,-135.31"/>
</g>
<!-- Node7&#45;&gt;Node2 -->
<g id="edge10" class="edge">
<title>Node7&#45;&gt;Node2</title>
<path fill="none" stroke="midnightblue" d="M297.17,-112.44C350.87,-102.9 437.69,-87.48 495.05,-77.29"/>
<polygon fill="midnightblue" stroke="midnightblue" points="495.82,-80.71 505.06,-75.52 494.6,-73.82 495.82,-80.71"/>
</g>
<!-- Node8 -->
<g id="node8" class="node">
<title>Node8</title>
<g id="a_node8"><a xlink:title=" ">
<polygon fill="white" stroke="#bfbfbf" points="220,-56.5 220,-75.5 278,-75.5 278,-56.5 220,-56.5"/>
<text text-anchor="middle" x="249" y="-63.5" font-family="Helvetica,sans-Serif" font-size="10.00">memory</text>
</a>
</g>
</g>
<!-- Node7&#45;&gt;Node8 -->
<g id="edge11" class="edge">
<title>Node7&#45;&gt;Node8</title>
<path fill="none" stroke="midnightblue" d="M249,-112.08C249,-105.01 249,-94.86 249,-85.99"/>
<polygon fill="midnightblue" stroke="midnightblue" points="252.5,-85.75 249,-75.75 245.5,-85.75 252.5,-85.75"/>
</g>
<!-- Node9&#45;&gt;Node2 -->
<g id="edge13" class="edge">
<title>Node9&#45;&gt;Node2</title>
<path fill="none" stroke="midnightblue" d="M598.26,-224.42C620.42,-218.02 642.49,-206.97 656,-188 685.55,-146.5 618.85,-101.9 579.4,-80.27"/>
<polygon fill="midnightblue" stroke="midnightblue" points="580.97,-77.14 570.5,-75.53 577.68,-83.32 580.97,-77.14"/>
</g>
<!-- Node9&#45;&gt;Node4 -->
<g id="edge14" class="edge">
<title>Node9&#45;&gt;Node4</title>
<path fill="none" stroke="midnightblue" d="M511.05,-224.47C499.07,-216.7 483.13,-204 476,-188 468.7,-171.61 478.84,-152.77 488.89,-139.61"/>
<polygon fill="midnightblue" stroke="midnightblue" points="491.63,-141.8 495.31,-131.86 486.23,-137.33 491.63,-141.8"/>
</g>
<!-- Node9&#45;&gt;Node5 -->
<g id="edge15" class="edge">
<title>Node9&#45;&gt;Node5</title>
<path fill="none" stroke="midnightblue" d="M492.88,-224.44C456.88,-215.14 399.23,-200.25 359.81,-190.06"/>
<polygon fill="midnightblue" stroke="midnightblue" points="360.52,-186.63 349.96,-187.52 358.77,-193.41 360.52,-186.63"/>
</g>
<!-- Node10 -->
<g id="node10" class="node">
<title>Node10</title>
<g id="a_node10"><a xlink:href="constpropagatingrawpointer_8h.html" target="_top" xlink:title=" ">
<polygon fill="white" stroke="black" points="485,-168.5 485,-187.5 647,-187.5 647,-168.5 485,-168.5"/>
<text text-anchor="middle" x="566" y="-175.5" font-family="Helvetica,sans-Serif" font-size="10.00">constpropagatingrawpointer.h</text>
</a>
</g>
</g>
<!-- Node9&#45;&gt;Node10 -->
<g id="edge16" class="edge">
<title>Node9&#45;&gt;Node10</title>
<path fill="none" stroke="midnightblue" d="M532.61,-224.08C538.26,-216.46 546.54,-205.26 553.45,-195.94"/>
<polygon fill="midnightblue" stroke="midnightblue" points="556.38,-197.87 559.52,-187.75 550.75,-193.7 556.38,-197.87"/>
</g>
<!-- Node10&#45;&gt;Node2 -->
<g id="edge17" class="edge">
<title>Node10&#45;&gt;Node2</title>
<path fill="none" stroke="midnightblue" d="M571.18,-168.1C577.82,-155.52 587.84,-131.84 582,-112 578.99,-101.76 572.85,-91.66 566.99,-83.63"/>
<polygon fill="midnightblue" stroke="midnightblue" points="569.59,-81.27 560.67,-75.54 564.07,-85.58 569.59,-81.27"/>
</g>
<!-- Node10&#45;&gt;Node4 -->
<g id="edge18" class="edge">
<title>Node10&#45;&gt;Node4</title>
<path fill="none" stroke="midnightblue" d="M556.04,-168.32C546.87,-160.34 533.06,-148.31 521.97,-138.65"/>
<polygon fill="midnightblue" stroke="midnightblue" points="523.98,-135.76 514.14,-131.83 519.38,-141.04 523.98,-135.76"/>
</g>
</g>
</svg>
