<?xml version="1.0" encoding="UTF-8" standalone="no"?>
<!DOCTYPE svg PUBLIC "-//W3C//DTD SVG 1.1//EN"
 "http://www.w3.org/Graphics/SVG/1.1/DTD/svg11.dtd">
<!-- Generated by graphviz version 2.43.0 (0)
 -->
<!-- Title: src/gradientslider_p.h Pages: 1 -->
<svg width="1410pt" height="308pt"
 viewBox="0.00 0.00 1409.50 308.00" xmlns="http://www.w3.org/2000/svg" xmlns:xlink="http://www.w3.org/1999/xlink">
<g id="graph0" class="graph" transform="scale(1 1) rotate(0) translate(4 304)">
<title>src/gradientslider_p.h</title>
<polygon fill="white" stroke="transparent" points="-4,4 -4,-304 1405.5,-304 1405.5,4 -4,4"/>
<!-- Node1 -->
<g id="node1" class="node">
<title>Node1</title>
<g id="a_node1"><a xlink:title=" ">
<polygon fill="#bfbfbf" stroke="black" points="487.5,-280.5 487.5,-299.5 609.5,-299.5 609.5,-280.5 487.5,-280.5"/>
<text text-anchor="middle" x="548.5" y="-287.5" font-family="Helvetica,sans-Serif" font-size="10.00">src/gradientslider_p.h</text>
</a>
</g>
</g>
<!-- Node2 -->
<g id="node2" class="node">
<title>Node2</title>
<g id="a_node2"><a xlink:href="perceptualcolorglobal_8h.html" target="_top" xlink:title=" ">
<polygon fill="white" stroke="black" points="420.5,-56.5 420.5,-75.5 632.5,-75.5 632.5,-56.5 420.5,-56.5"/>
<text text-anchor="middle" x="526.5" y="-63.5" font-family="Helvetica,sans-Serif" font-size="10.00">PerceptualColor/perceptualcolorglobal.h</text>
</a>
</g>
</g>
<!-- Node1&#45;&gt;Node2 -->
<g id="edge1" class="edge">
<title>Node1&#45;&gt;Node2</title>
<path fill="none" stroke="midnightblue" d="M548.77,-280.3C549.07,-259.72 547.84,-206.84 529.5,-168 520.36,-148.64 505.11,-152.01 497.5,-132 491.15,-115.3 501.23,-96.72 511.2,-83.72"/>
<polygon fill="midnightblue" stroke="midnightblue" points="514.17,-85.62 517.89,-75.7 508.8,-81.14 514.17,-85.62"/>
</g>
<!-- Node4 -->
<g id="node4" class="node">
<title>Node4</title>
<g id="a_node4"><a xlink:href="perceptualcolorinternal_8h.html" target="_top" xlink:title=" ">
<polygon fill="white" stroke="black" points="506,-112.5 506,-131.5 645,-131.5 645,-112.5 506,-112.5"/>
<text text-anchor="middle" x="575.5" y="-119.5" font-family="Helvetica,sans-Serif" font-size="10.00">perceptualcolorinternal.h</text>
</a>
</g>
</g>
<!-- Node1&#45;&gt;Node4 -->
<g id="edge3" class="edge">
<title>Node1&#45;&gt;Node4</title>
<path fill="none" stroke="midnightblue" d="M551.81,-280.17C555.04,-271.19 559.84,-256.82 562.5,-244 569.91,-208.26 573.24,-165.66 574.62,-141.73"/>
<polygon fill="midnightblue" stroke="midnightblue" points="578.12,-141.77 575.15,-131.6 571.13,-141.4 578.12,-141.77"/>
</g>
<!-- Node5 -->
<g id="node5" class="node">
<title>Node5</title>
<g id="a_node5"><a xlink:href="gradientslider_8h.html" target="_top" xlink:title=" ">
<polygon fill="white" stroke="black" points="244,-224.5 244,-243.5 417,-243.5 417,-224.5 244,-224.5"/>
<text text-anchor="middle" x="330.5" y="-231.5" font-family="Helvetica,sans-Serif" font-size="10.00">PerceptualColor/gradientslider.h</text>
</a>
</g>
</g>
<!-- Node1&#45;&gt;Node5 -->
<g id="edge5" class="edge">
<title>Node1&#45;&gt;Node5</title>
<path fill="none" stroke="midnightblue" d="M513.96,-280.44C476.25,-271.1 415.76,-256.12 374.64,-245.93"/>
<polygon fill="midnightblue" stroke="midnightblue" points="375.43,-242.52 364.88,-243.52 373.75,-249.32 375.43,-242.52"/>
</g>
<!-- Node12 -->
<g id="node12" class="node">
<title>Node12</title>
<g id="a_node12"><a xlink:href="constpropagatingrawpointer_8h.html" target="_top" xlink:title=" ">
<polygon fill="white" stroke="black" points="358.5,-168.5 358.5,-187.5 520.5,-187.5 520.5,-168.5 358.5,-168.5"/>
<text text-anchor="middle" x="439.5" y="-175.5" font-family="Helvetica,sans-Serif" font-size="10.00">constpropagatingrawpointer.h</text>
</a>
</g>
</g>
<!-- Node1&#45;&gt;Node12 -->
<g id="edge17" class="edge">
<title>Node1&#45;&gt;Node12</title>
<path fill="none" stroke="midnightblue" d="M539.95,-280.37C521.64,-261.89 478.44,-218.29 455.1,-194.74"/>
<polygon fill="midnightblue" stroke="midnightblue" points="457.54,-192.23 448.01,-187.59 452.57,-197.16 457.54,-192.23"/>
</g>
<!-- Node13 -->
<g id="node13" class="node">
<title>Node13</title>
<g id="a_node13"><a xlink:href="gradientimage_8h.html" target="_top" xlink:title=" ">
<polygon fill="white" stroke="black" points="1052,-224.5 1052,-243.5 1149,-243.5 1149,-224.5 1052,-224.5"/>
<text text-anchor="middle" x="1100.5" y="-231.5" font-family="Helvetica,sans-Serif" font-size="10.00">gradientimage.h</text>
</a>
</g>
</g>
<!-- Node1&#45;&gt;Node13 -->
<g id="edge20" class="edge">
<title>Node1&#45;&gt;Node13</title>
<path fill="none" stroke="midnightblue" d="M609.68,-283.01C716.72,-272.54 936.55,-251.04 1041.8,-240.74"/>
<polygon fill="midnightblue" stroke="midnightblue" points="1042.32,-244.21 1051.93,-239.75 1041.64,-237.24 1042.32,-244.21"/>
</g>
<!-- Node3 -->
<g id="node3" class="node">
<title>Node3</title>
<g id="a_node3"><a xlink:title=" ">
<polygon fill="white" stroke="#bfbfbf" points="497,-0.5 497,-19.5 556,-19.5 556,-0.5 497,-0.5"/>
<text text-anchor="middle" x="526.5" y="-7.5" font-family="Helvetica,sans-Serif" font-size="10.00">QtGlobal</text>
</a>
</g>
</g>
<!-- Node2&#45;&gt;Node3 -->
<g id="edge2" class="edge">
<title>Node2&#45;&gt;Node3</title>
<path fill="none" stroke="midnightblue" d="M526.5,-56.08C526.5,-49.01 526.5,-38.86 526.5,-29.99"/>
<polygon fill="midnightblue" stroke="midnightblue" points="530,-29.75 526.5,-19.75 523,-29.75 530,-29.75"/>
</g>
<!-- Node4&#45;&gt;Node2 -->
<g id="edge4" class="edge">
<title>Node4&#45;&gt;Node2</title>
<path fill="none" stroke="midnightblue" d="M567.41,-112.08C560.34,-104.3 549.91,-92.8 541.35,-83.37"/>
<polygon fill="midnightblue" stroke="midnightblue" points="543.75,-80.8 534.44,-75.75 538.57,-85.51 543.75,-80.8"/>
</g>
<!-- Node5&#45;&gt;Node2 -->
<g id="edge6" class="edge">
<title>Node5&#45;&gt;Node2</title>
<path fill="none" stroke="midnightblue" d="M330.98,-224.5C332.15,-211.13 336.1,-184.98 349.5,-168 385.64,-122.2 448.66,-93.49 488.94,-78.87"/>
<polygon fill="midnightblue" stroke="midnightblue" points="490.14,-82.15 498.41,-75.53 487.82,-75.55 490.14,-82.15"/>
</g>
<!-- Node6 -->
<g id="node6" class="node">
<title>Node6</title>
<g id="a_node6"><a xlink:href="constpropagatinguniquepointer_8h.html" target="_top" xlink:title=" ">
<polygon fill="white" stroke="black" points="116,-112.5 116,-131.5 373,-131.5 373,-112.5 116,-112.5"/>
<text text-anchor="middle" x="244.5" y="-119.5" font-family="Helvetica,sans-Serif" font-size="10.00">PerceptualColor/constpropagatinguniquepointer.h</text>
</a>
</g>
</g>
<!-- Node5&#45;&gt;Node6 -->
<g id="edge7" class="edge">
<title>Node5&#45;&gt;Node6</title>
<path fill="none" stroke="midnightblue" d="M323.75,-224.37C309.5,-206.14 276.11,-163.43 257.54,-139.68"/>
<polygon fill="midnightblue" stroke="midnightblue" points="260.13,-137.31 251.22,-131.59 254.62,-141.63 260.13,-137.31"/>
</g>
<!-- Node8 -->
<g id="node8" class="node">
<title>Node8</title>
<g id="a_node8"><a xlink:href="abstractdiagram_8h.html" target="_top" xlink:title=" ">
<polygon fill="white" stroke="black" points="36.5,-168.5 36.5,-187.5 222.5,-187.5 222.5,-168.5 36.5,-168.5"/>
<text text-anchor="middle" x="129.5" y="-175.5" font-family="Helvetica,sans-Serif" font-size="10.00">PerceptualColor/abstractdiagram.h</text>
</a>
</g>
</g>
<!-- Node5&#45;&gt;Node8 -->
<g id="edge10" class="edge">
<title>Node5&#45;&gt;Node8</title>
<path fill="none" stroke="midnightblue" d="M298.65,-224.44C264.1,-215.16 208.82,-200.31 170.92,-190.13"/>
<polygon fill="midnightblue" stroke="midnightblue" points="171.77,-186.73 161.2,-187.52 169.95,-193.49 171.77,-186.73"/>
</g>
<!-- Node10 -->
<g id="node10" class="node">
<title>Node10</title>
<g id="a_node10"><a xlink:href="lchadouble_8h.html" target="_top" xlink:title=" ">
<polygon fill="white" stroke="black" points="1021,-112.5 1021,-131.5 1180,-131.5 1180,-112.5 1021,-112.5"/>
<text text-anchor="middle" x="1100.5" y="-119.5" font-family="Helvetica,sans-Serif" font-size="10.00">PerceptualColor/lchadouble.h</text>
</a>
</g>
</g>
<!-- Node5&#45;&gt;Node10 -->
<g id="edge14" class="edge">
<title>Node5&#45;&gt;Node10</title>
<path fill="none" stroke="midnightblue" d="M417.33,-229.18C517.99,-223.84 688.61,-211.98 833.5,-188 915.8,-174.38 1010.22,-149.04 1061.82,-134.35"/>
<polygon fill="midnightblue" stroke="midnightblue" points="1062.91,-137.68 1071.56,-131.56 1060.98,-130.95 1062.91,-137.68"/>
</g>
<!-- Node6&#45;&gt;Node2 -->
<g id="edge8" class="edge">
<title>Node6&#45;&gt;Node2</title>
<path fill="none" stroke="midnightblue" d="M289.18,-112.44C338.79,-102.94 418.86,-87.61 472.09,-77.42"/>
<polygon fill="midnightblue" stroke="midnightblue" points="472.86,-80.83 482.03,-75.52 471.55,-73.96 472.86,-80.83"/>
</g>
<!-- Node7 -->
<g id="node7" class="node">
<title>Node7</title>
<g id="a_node7"><a xlink:title=" ">
<polygon fill="white" stroke="#bfbfbf" points="215.5,-56.5 215.5,-75.5 273.5,-75.5 273.5,-56.5 215.5,-56.5"/>
<text text-anchor="middle" x="244.5" y="-63.5" font-family="Helvetica,sans-Serif" font-size="10.00">memory</text>
</a>
</g>
</g>
<!-- Node6&#45;&gt;Node7 -->
<g id="edge9" class="edge">
<title>Node6&#45;&gt;Node7</title>
<path fill="none" stroke="midnightblue" d="M244.5,-112.08C244.5,-105.01 244.5,-94.86 244.5,-85.99"/>
<polygon fill="midnightblue" stroke="midnightblue" points="248,-85.75 244.5,-75.75 241,-85.75 248,-85.75"/>
</g>
<!-- Node8&#45;&gt;Node2 -->
<g id="edge11" class="edge">
<title>Node8&#45;&gt;Node2</title>
<path fill="none" stroke="midnightblue" d="M121.57,-168.36C110.1,-154.79 91.78,-128.38 106.5,-112 126.58,-89.66 293.01,-77.48 410.22,-71.61"/>
<polygon fill="midnightblue" stroke="midnightblue" points="410.52,-75.1 420.34,-71.11 410.18,-68.11 410.52,-75.1"/>
</g>
<!-- Node8&#45;&gt;Node6 -->
<g id="edge13" class="edge">
<title>Node8&#45;&gt;Node6</title>
<path fill="none" stroke="midnightblue" d="M147.72,-168.44C166.4,-159.68 195.66,-145.94 217.12,-135.86"/>
<polygon fill="midnightblue" stroke="midnightblue" points="218.8,-138.93 226.36,-131.52 215.82,-132.6 218.8,-138.93"/>
</g>
<!-- Node9 -->
<g id="node9" class="node">
<title>Node9</title>
<g id="a_node9"><a xlink:title=" ">
<polygon fill="white" stroke="#bfbfbf" points="0,-112.5 0,-131.5 59,-131.5 59,-112.5 0,-112.5"/>
<text text-anchor="middle" x="29.5" y="-119.5" font-family="Helvetica,sans-Serif" font-size="10.00">QWidget</text>
</a>
</g>
</g>
<!-- Node8&#45;&gt;Node9 -->
<g id="edge12" class="edge">
<title>Node8&#45;&gt;Node9</title>
<path fill="none" stroke="midnightblue" d="M113.43,-168.32C97.54,-159.74 72.99,-146.49 54.54,-136.52"/>
<polygon fill="midnightblue" stroke="midnightblue" points="55.99,-133.33 45.53,-131.65 52.66,-139.49 55.99,-133.33"/>
</g>
<!-- Node10&#45;&gt;Node2 -->
<g id="edge15" class="edge">
<title>Node10&#45;&gt;Node2</title>
<path fill="none" stroke="midnightblue" d="M1020.88,-112.82C1018.05,-112.54 1015.25,-112.27 1012.5,-112 881.36,-99.22 730.22,-85.37 631.77,-76.45"/>
<polygon fill="midnightblue" stroke="midnightblue" points="631.79,-72.94 621.51,-75.53 631.16,-79.91 631.79,-72.94"/>
</g>
<!-- Node11 -->
<g id="node11" class="node">
<title>Node11</title>
<g id="a_node11"><a xlink:title=" ">
<polygon fill="white" stroke="#bfbfbf" points="985.5,-56.5 985.5,-75.5 1041.5,-75.5 1041.5,-56.5 985.5,-56.5"/>
<text text-anchor="middle" x="1013.5" y="-63.5" font-family="Helvetica,sans-Serif" font-size="10.00">QDebug</text>
</a>
</g>
</g>
<!-- Node10&#45;&gt;Node11 -->
<g id="edge16" class="edge">
<title>Node10&#45;&gt;Node11</title>
<path fill="none" stroke="midnightblue" d="M1086.52,-112.32C1072.95,-103.9 1052.12,-90.97 1036.18,-81.07"/>
<polygon fill="midnightblue" stroke="midnightblue" points="1037.79,-77.95 1027.44,-75.65 1034.09,-83.9 1037.79,-77.95"/>
</g>
<!-- Node12&#45;&gt;Node2 -->
<g id="edge18" class="edge">
<title>Node12&#45;&gt;Node2</title>
<path fill="none" stroke="midnightblue" d="M441.03,-168.21C443.69,-154.91 450.21,-129.4 463.5,-112 473.35,-99.11 487.91,-88.37 500.56,-80.62"/>
<polygon fill="midnightblue" stroke="midnightblue" points="502.45,-83.57 509.33,-75.51 498.93,-77.52 502.45,-83.57"/>
</g>
<!-- Node12&#45;&gt;Node4 -->
<g id="edge19" class="edge">
<title>Node12&#45;&gt;Node4</title>
<path fill="none" stroke="midnightblue" d="M461.05,-168.44C483.53,-159.52 518.99,-145.44 544.48,-135.32"/>
<polygon fill="midnightblue" stroke="midnightblue" points="546.05,-138.46 554.05,-131.52 543.47,-131.95 546.05,-138.46"/>
</g>
<!-- Node13&#45;&gt;Node2 -->
<g id="edge21" class="edge">
<title>Node13&#45;&gt;Node2</title>
<path fill="none" stroke="midnightblue" d="M1115.51,-224.26C1149.26,-203.57 1225.46,-150.49 1189.5,-112 1171.14,-92.35 827.86,-77.46 642.67,-70.81"/>
<polygon fill="midnightblue" stroke="midnightblue" points="642.73,-67.31 632.61,-70.45 642.48,-74.31 642.73,-67.31"/>
</g>
<!-- Node13&#45;&gt;Node4 -->
<g id="edge22" class="edge">
<title>Node13&#45;&gt;Node4</title>
<path fill="none" stroke="midnightblue" d="M1051.75,-231.87C978.71,-229.14 837.13,-219.82 721.5,-188 676.75,-175.69 628.15,-151.71 599.83,-136.57"/>
<polygon fill="midnightblue" stroke="midnightblue" points="601.16,-133.31 590.7,-131.62 597.82,-139.47 601.16,-133.31"/>
</g>
<!-- Node13&#45;&gt;Node10 -->
<g id="edge25" class="edge">
<title>Node13&#45;&gt;Node10</title>
<path fill="none" stroke="midnightblue" d="M1100.5,-224.37C1100.5,-206.62 1100.5,-165.67 1100.5,-141.6"/>
<polygon fill="midnightblue" stroke="midnightblue" points="1104,-141.59 1100.5,-131.59 1097,-141.59 1104,-141.59"/>
</g>
<!-- Node14 -->
<g id="node14" class="node">
<title>Node14</title>
<g id="a_node14"><a xlink:title=" ">
<polygon fill="white" stroke="#bfbfbf" points="1236,-168.5 1236,-187.5 1291,-187.5 1291,-168.5 1236,-168.5"/>
<text text-anchor="middle" x="1263.5" y="-175.5" font-family="Helvetica,sans-Serif" font-size="10.00">QImage</text>
</a>
</g>
</g>
<!-- Node13&#45;&gt;Node14 -->
<g id="edge23" class="edge">
<title>Node13&#45;&gt;Node14</title>
<path fill="none" stroke="midnightblue" d="M1126.33,-224.44C1153.75,-215.36 1197.28,-200.94 1227.93,-190.78"/>
<polygon fill="midnightblue" stroke="midnightblue" points="1229.4,-193.98 1237.79,-187.52 1227.2,-187.34 1229.4,-193.98"/>
</g>
<!-- Node15 -->
<g id="node15" class="node">
<title>Node15</title>
<g id="a_node15"><a xlink:title=" ">
<polygon fill="white" stroke="#bfbfbf" points="1309.5,-168.5 1309.5,-187.5 1401.5,-187.5 1401.5,-168.5 1309.5,-168.5"/>
<text text-anchor="middle" x="1355.5" y="-175.5" font-family="Helvetica,sans-Serif" font-size="10.00">QSharedPointer</text>
</a>
</g>
</g>
<!-- Node13&#45;&gt;Node15 -->
<g id="edge24" class="edge">
<title>Node13&#45;&gt;Node15</title>
<path fill="none" stroke="midnightblue" d="M1140.91,-224.44C1185.48,-215 1257.27,-199.8 1305.39,-189.61"/>
<polygon fill="midnightblue" stroke="midnightblue" points="1306.23,-193.01 1315.28,-187.52 1304.78,-186.16 1306.23,-193.01"/>
</g>
<!-- Node16 -->
<g id="node16" class="node">
<title>Node16</title>
<g id="a_node16"><a xlink:href="rgbcolorspace_8h.html" target="_top" xlink:title=" ">
<polygon fill="white" stroke="black" points="730.5,-168.5 730.5,-187.5 824.5,-187.5 824.5,-168.5 730.5,-168.5"/>
<text text-anchor="middle" x="777.5" y="-175.5" font-family="Helvetica,sans-Serif" font-size="10.00">rgbcolorspace.h</text>
</a>
</g>
</g>
<!-- Node13&#45;&gt;Node16 -->
<g id="edge26" class="edge">
<title>Node13&#45;&gt;Node16</title>
<path fill="none" stroke="midnightblue" d="M1051.79,-224.86C993.61,-215.13 896.43,-198.88 834.72,-188.57"/>
<polygon fill="midnightblue" stroke="midnightblue" points="835.2,-185.1 824.76,-186.9 834.05,-192 835.2,-185.1"/>
</g>
<!-- Node16&#45;&gt;Node2 -->
<g id="edge27" class="edge">
<title>Node16&#45;&gt;Node2</title>
<path fill="none" stroke="midnightblue" d="M761.71,-168.49C731.01,-151.96 665.29,-116.72 654.5,-112 624.87,-99.05 590.21,-87.05 564.44,-78.7"/>
<polygon fill="midnightblue" stroke="midnightblue" points="565.27,-75.29 554.67,-75.58 563.13,-81.96 565.27,-75.29"/>
</g>
<!-- Node16&#45;&gt;Node4 -->
<g id="edge28" class="edge">
<title>Node16&#45;&gt;Node4</title>
<path fill="none" stroke="midnightblue" d="M745.49,-168.44C710.77,-159.16 655.21,-144.31 617.12,-134.13"/>
<polygon fill="midnightblue" stroke="midnightblue" points="617.92,-130.72 607.36,-131.52 616.11,-137.48 617.92,-130.72"/>
</g>
<!-- Node16&#45;&gt;Node6 -->
<g id="edge30" class="edge">
<title>Node16&#45;&gt;Node6</title>
<path fill="none" stroke="midnightblue" d="M730.2,-172.21C642.53,-163.33 453.31,-144.15 338.64,-132.54"/>
<polygon fill="midnightblue" stroke="midnightblue" points="338.77,-129.03 328.47,-131.51 338.06,-136 338.77,-129.03"/>
</g>
<!-- Node16&#45;&gt;Node10 -->
<g id="edge31" class="edge">
<title>Node16&#45;&gt;Node10</title>
<path fill="none" stroke="midnightblue" d="M824.81,-169.09C881.66,-159.59 977.16,-143.62 1039.5,-133.2"/>
<polygon fill="midnightblue" stroke="midnightblue" points="1040.31,-136.61 1049.59,-131.51 1039.15,-129.71 1040.31,-136.61"/>
</g>
<!-- Node17 -->
<g id="node17" class="node">
<title>Node17</title>
<g id="a_node17"><a xlink:title=" ">
<polygon fill="white" stroke="#bfbfbf" points="775.5,-112.5 775.5,-131.5 831.5,-131.5 831.5,-112.5 775.5,-112.5"/>
<text text-anchor="middle" x="803.5" y="-119.5" font-family="Helvetica,sans-Serif" font-size="10.00">QObject</text>
</a>
</g>
</g>
<!-- Node16&#45;&gt;Node17 -->
<g id="edge29" class="edge">
<title>Node16&#45;&gt;Node17</title>
<path fill="none" stroke="midnightblue" d="M781.79,-168.08C785.35,-160.69 790.52,-149.95 794.92,-140.81"/>
<polygon fill="midnightblue" stroke="midnightblue" points="798.1,-142.28 799.29,-131.75 791.79,-139.24 798.1,-142.28"/>
</g>
<!-- Node18 -->
<g id="node18" class="node">
<title>Node18</title>
<g id="a_node18"><a xlink:href="lchdouble_8h.html" target="_top" xlink:title=" ">
<polygon fill="white" stroke="black" points="850,-112.5 850,-131.5 1003,-131.5 1003,-112.5 850,-112.5"/>
<text text-anchor="middle" x="926.5" y="-119.5" font-family="Helvetica,sans-Serif" font-size="10.00">PerceptualColor/lchdouble.h</text>
</a>
</g>
</g>
<!-- Node16&#45;&gt;Node18 -->
<g id="edge32" class="edge">
<title>Node16&#45;&gt;Node18</title>
<path fill="none" stroke="midnightblue" d="M801.11,-168.44C825.96,-159.44 865.27,-145.19 893.25,-135.05"/>
<polygon fill="midnightblue" stroke="midnightblue" points="894.79,-138.21 903,-131.52 892.41,-131.63 894.79,-138.21"/>
</g>
<!-- Node19 -->
<g id="node19" class="node">
<title>Node19</title>
<g id="a_node19"><a xlink:title=" ">
<polygon fill="white" stroke="#bfbfbf" points="702,-112.5 702,-131.5 757,-131.5 757,-112.5 702,-112.5"/>
<text text-anchor="middle" x="729.5" y="-119.5" font-family="Helvetica,sans-Serif" font-size="10.00">lcms2.h</text>
</a>
</g>
</g>
<!-- Node16&#45;&gt;Node19 -->
<g id="edge35" class="edge">
<title>Node16&#45;&gt;Node19</title>
<path fill="none" stroke="midnightblue" d="M769.57,-168.08C762.65,-160.3 752.43,-148.8 744.05,-139.37"/>
<polygon fill="midnightblue" stroke="midnightblue" points="746.54,-136.9 737.28,-131.75 741.31,-141.55 746.54,-136.9"/>
</g>
<!-- Node18&#45;&gt;Node2 -->
<g id="edge33" class="edge">
<title>Node18&#45;&gt;Node2</title>
<path fill="none" stroke="midnightblue" d="M863.12,-112.44C791.58,-102.79 675.38,-87.1 599.95,-76.92"/>
<polygon fill="midnightblue" stroke="midnightblue" points="599.96,-73.39 589.58,-75.52 599.03,-80.32 599.96,-73.39"/>
</g>
<!-- Node18&#45;&gt;Node11 -->
<g id="edge34" class="edge">
<title>Node18&#45;&gt;Node11</title>
<path fill="none" stroke="midnightblue" d="M940.48,-112.32C954.05,-103.9 974.88,-90.97 990.82,-81.07"/>
<polygon fill="midnightblue" stroke="midnightblue" points="992.91,-83.9 999.56,-75.65 989.21,-77.95 992.91,-83.9"/>
</g>
</g>
</svg>
