<?xml version="1.0" encoding="UTF-8" standalone="no"?>
<!DOCTYPE svg PUBLIC "-//W3C//DTD SVG 1.1//EN"
 "http://www.w3.org/Graphics/SVG/1.1/DTD/svg11.dtd">
<!-- Generated by graphviz version 2.43.0 (0)
 -->
<!-- Title: src/gradientslider.cpp Pages: 1 -->
<svg width="1571pt" height="364pt"
 viewBox="0.00 0.00 1570.50 364.00" xmlns="http://www.w3.org/2000/svg" xmlns:xlink="http://www.w3.org/1999/xlink">
<g id="graph0" class="graph" transform="scale(1 1) rotate(0) translate(4 360)">
<title>src/gradientslider.cpp</title>
<polygon fill="white" stroke="transparent" points="-4,4 -4,-360 1566.5,-360 1566.5,4 -4,4"/>
<!-- Node1 -->
<g id="node1" class="node">
<title>Node1</title>
<g id="a_node1"><a xlink:title=" ">
<polygon fill="#bfbfbf" stroke="black" points="861,-336.5 861,-355.5 982,-355.5 982,-336.5 861,-336.5"/>
<text text-anchor="middle" x="921.5" y="-343.5" font-family="Helvetica,sans-Serif" font-size="10.00">src/gradientslider.cpp</text>
</a>
</g>
</g>
<!-- Node2 -->
<g id="node2" class="node">
<title>Node2</title>
<g id="a_node2"><a xlink:href="perceptualcolorglobal_8h.html" target="_top" xlink:title=" ">
<polygon fill="white" stroke="black" points="536.5,-56.5 536.5,-75.5 748.5,-75.5 748.5,-56.5 536.5,-56.5"/>
<text text-anchor="middle" x="642.5" y="-63.5" font-family="Helvetica,sans-Serif" font-size="10.00">PerceptualColor/perceptualcolorglobal.h</text>
</a>
</g>
</g>
<!-- Node1&#45;&gt;Node2 -->
<g id="edge1" class="edge">
<title>Node1&#45;&gt;Node2</title>
<path fill="none" stroke="midnightblue" d="M860.94,-343.79C731.49,-339.55 439.5,-320.51 439.5,-235 439.5,-235 439.5,-235 439.5,-177 439.5,-117.7 507.29,-90.2 564.53,-77.55"/>
<polygon fill="midnightblue" stroke="midnightblue" points="565.27,-80.97 574.34,-75.5 563.83,-74.12 565.27,-80.97"/>
</g>
<!-- Node4 -->
<g id="node4" class="node">
<title>Node4</title>
<g id="a_node4"><a xlink:href="perceptualcolorinternal_8h.html" target="_top" xlink:title=" ">
<polygon fill="white" stroke="black" points="573,-112.5 573,-131.5 712,-131.5 712,-112.5 573,-112.5"/>
<text text-anchor="middle" x="642.5" y="-119.5" font-family="Helvetica,sans-Serif" font-size="10.00">perceptualcolorinternal.h</text>
</a>
</g>
</g>
<!-- Node1&#45;&gt;Node4 -->
<g id="edge3" class="edge">
<title>Node1&#45;&gt;Node4</title>
<path fill="none" stroke="midnightblue" d="M902.58,-336.46C869.75,-321.08 801.08,-286.32 752.5,-244 719.84,-215.55 721.09,-199.63 691.5,-168 681.73,-157.56 669.96,-146.7 660.4,-138.26"/>
<polygon fill="midnightblue" stroke="midnightblue" points="662.52,-135.47 652.68,-131.55 657.93,-140.75 662.52,-135.47"/>
</g>
<!-- Node5 -->
<g id="node5" class="node">
<title>Node5</title>
<g id="a_node5"><a xlink:href="gradientslider_8h.html" target="_top" xlink:title=" ">
<polygon fill="white" stroke="black" points="238,-224.5 238,-243.5 411,-243.5 411,-224.5 238,-224.5"/>
<text text-anchor="middle" x="324.5" y="-231.5" font-family="Helvetica,sans-Serif" font-size="10.00">PerceptualColor/gradientslider.h</text>
</a>
</g>
</g>
<!-- Node1&#45;&gt;Node5 -->
<g id="edge5" class="edge">
<title>Node1&#45;&gt;Node5</title>
<path fill="none" stroke="midnightblue" d="M860.95,-343.11C746.88,-338.96 504.51,-327.16 425.5,-300 393.35,-288.95 361.19,-265.61 342.07,-250.12"/>
<polygon fill="midnightblue" stroke="midnightblue" points="344.18,-247.32 334.25,-243.62 339.7,-252.71 344.18,-247.32"/>
</g>
<!-- Node11 -->
<g id="node11" class="node">
<title>Node11</title>
<g id="a_node11"><a xlink:title=" ">
<polygon fill="white" stroke="#bfbfbf" points="1105.5,-56.5 1105.5,-75.5 1161.5,-75.5 1161.5,-56.5 1105.5,-56.5"/>
<text text-anchor="middle" x="1133.5" y="-63.5" font-family="Helvetica,sans-Serif" font-size="10.00">QDebug</text>
</a>
</g>
</g>
<!-- Node1&#45;&gt;Node11 -->
<g id="edge41" class="edge">
<title>Node1&#45;&gt;Node11</title>
<path fill="none" stroke="midnightblue" d="M982.09,-340.94C1141.88,-329.42 1562.5,-293.54 1562.5,-235 1562.5,-235 1562.5,-235 1562.5,-177 1562.5,-138.58 1539.48,-129.93 1505.5,-112 1448.12,-81.72 1254.31,-71.3 1171.51,-68.18"/>
<polygon fill="midnightblue" stroke="midnightblue" points="1171.64,-64.69 1161.52,-67.82 1171.39,-71.68 1171.64,-64.69"/>
</g>
<!-- Node12 -->
<g id="node12" class="node">
<title>Node12</title>
<g id="a_node12"><a xlink:href="gradientslider__p_8h.html" target="_top" xlink:title=" ">
<polygon fill="white" stroke="black" points="568.5,-280.5 568.5,-299.5 672.5,-299.5 672.5,-280.5 568.5,-280.5"/>
<text text-anchor="middle" x="620.5" y="-287.5" font-family="Helvetica,sans-Serif" font-size="10.00">gradientslider_p.h</text>
</a>
</g>
</g>
<!-- Node1&#45;&gt;Node12 -->
<g id="edge17" class="edge">
<title>Node1&#45;&gt;Node12</title>
<path fill="none" stroke="midnightblue" d="M873.81,-336.44C820.64,-326.9 734.68,-311.48 677.87,-301.29"/>
<polygon fill="midnightblue" stroke="midnightblue" points="678.43,-297.84 667.97,-299.52 677.2,-304.73 678.43,-297.84"/>
</g>
<!-- Node21 -->
<g id="node21" class="node">
<title>Node21</title>
<g id="a_node21"><a xlink:title=" ">
<polygon fill="white" stroke="#bfbfbf" points="916,-280.5 916,-299.5 995,-299.5 995,-280.5 916,-280.5"/>
<text text-anchor="middle" x="955.5" y="-287.5" font-family="Helvetica,sans-Serif" font-size="10.00">QApplication</text>
</a>
</g>
</g>
<!-- Node1&#45;&gt;Node21 -->
<g id="edge40" class="edge">
<title>Node1&#45;&gt;Node21</title>
<path fill="none" stroke="midnightblue" d="M927.11,-336.08C931.87,-328.53 938.82,-317.49 944.65,-308.23"/>
<polygon fill="midnightblue" stroke="midnightblue" points="947.62,-310.08 949.99,-299.75 941.7,-306.35 947.62,-310.08"/>
</g>
<!-- Node22 -->
<g id="node22" class="node">
<title>Node22</title>
<g id="a_node22"><a xlink:title=" ">
<polygon fill="white" stroke="#bfbfbf" points="1013,-280.5 1013,-299.5 1108,-299.5 1108,-280.5 1013,-280.5"/>
<text text-anchor="middle" x="1060.5" y="-287.5" font-family="Helvetica,sans-Serif" font-size="10.00">QGuiApplication</text>
</a>
</g>
</g>
<!-- Node1&#45;&gt;Node22 -->
<g id="edge42" class="edge">
<title>Node1&#45;&gt;Node22</title>
<path fill="none" stroke="midnightblue" d="M943.52,-336.44C966.6,-327.48 1003.06,-313.31 1029.14,-303.18"/>
<polygon fill="midnightblue" stroke="midnightblue" points="1030.52,-306.4 1038.58,-299.52 1027.99,-299.88 1030.52,-306.4"/>
</g>
<!-- Node23 -->
<g id="node23" class="node">
<title>Node23</title>
<g id="a_node23"><a xlink:title=" ">
<polygon fill="white" stroke="#bfbfbf" points="1126.5,-280.5 1126.5,-299.5 1210.5,-299.5 1210.5,-280.5 1126.5,-280.5"/>
<text text-anchor="middle" x="1168.5" y="-287.5" font-family="Helvetica,sans-Serif" font-size="10.00">QMouseEvent</text>
</a>
</g>
</g>
<!-- Node1&#45;&gt;Node23 -->
<g id="edge43" class="edge">
<title>Node1&#45;&gt;Node23</title>
<path fill="none" stroke="midnightblue" d="M960.64,-336.44C1003.73,-327.02 1073.06,-311.87 1119.67,-301.68"/>
<polygon fill="midnightblue" stroke="midnightblue" points="1120.52,-305.07 1129.55,-299.52 1119.03,-298.23 1120.52,-305.07"/>
</g>
<!-- Node24 -->
<g id="node24" class="node">
<title>Node24</title>
<g id="a_node24"><a xlink:title=" ">
<polygon fill="white" stroke="#bfbfbf" points="1228.5,-280.5 1228.5,-299.5 1286.5,-299.5 1286.5,-280.5 1228.5,-280.5"/>
<text text-anchor="middle" x="1257.5" y="-287.5" font-family="Helvetica,sans-Serif" font-size="10.00">QPainter</text>
</a>
</g>
</g>
<!-- Node1&#45;&gt;Node24 -->
<g id="edge44" class="edge">
<title>Node1&#45;&gt;Node24</title>
<path fill="none" stroke="midnightblue" d="M982.25,-337.32C1040.41,-329.64 1130.81,-316.81 1218.03,-300.16"/>
<polygon fill="midnightblue" stroke="midnightblue" points="1218.94,-303.55 1228.09,-298.22 1217.61,-296.68 1218.94,-303.55"/>
</g>
<!-- Node25 -->
<g id="node25" class="node">
<title>Node25</title>
<g id="a_node25"><a xlink:href="helper_8h.html" target="_top" xlink:title="Various smaller help elements.">
<polygon fill="white" stroke="black" points="1268.5,-168.5 1268.5,-187.5 1324.5,-187.5 1324.5,-168.5 1268.5,-168.5"/>
<text text-anchor="middle" x="1296.5" y="-175.5" font-family="Helvetica,sans-Serif" font-size="10.00">helper.h</text>
</a>
</g>
</g>
<!-- Node1&#45;&gt;Node25 -->
<g id="edge45" class="edge">
<title>Node1&#45;&gt;Node25</title>
<path fill="none" stroke="midnightblue" d="M915.51,-336.47C906.91,-323.06 893.46,-296.85 906.5,-280 949.89,-223.94 1169.13,-193.33 1258.5,-183.02"/>
<polygon fill="midnightblue" stroke="midnightblue" points="1258.94,-186.49 1268.48,-181.89 1258.15,-179.53 1258.94,-186.49"/>
</g>
<!-- Node3 -->
<g id="node3" class="node">
<title>Node3</title>
<g id="a_node3"><a xlink:title=" ">
<polygon fill="white" stroke="#bfbfbf" points="1054,-0.5 1054,-19.5 1113,-19.5 1113,-0.5 1054,-0.5"/>
<text text-anchor="middle" x="1083.5" y="-7.5" font-family="Helvetica,sans-Serif" font-size="10.00">QtGlobal</text>
</a>
</g>
</g>
<!-- Node2&#45;&gt;Node3 -->
<g id="edge2" class="edge">
<title>Node2&#45;&gt;Node3</title>
<path fill="none" stroke="midnightblue" d="M712.38,-56.44C805.97,-44.98 968.93,-25.03 1043.8,-15.86"/>
<polygon fill="midnightblue" stroke="midnightblue" points="1044.27,-19.33 1053.77,-14.64 1043.42,-12.38 1044.27,-19.33"/>
</g>
<!-- Node4&#45;&gt;Node2 -->
<g id="edge4" class="edge">
<title>Node4&#45;&gt;Node2</title>
<path fill="none" stroke="midnightblue" d="M642.5,-112.08C642.5,-105.01 642.5,-94.86 642.5,-85.99"/>
<polygon fill="midnightblue" stroke="midnightblue" points="646,-85.75 642.5,-75.75 639,-85.75 646,-85.75"/>
</g>
<!-- Node5&#45;&gt;Node2 -->
<g id="edge6" class="edge">
<title>Node5&#45;&gt;Node2</title>
<path fill="none" stroke="midnightblue" d="M329.02,-224.27C341.21,-201.67 377.15,-140.97 425.5,-112 455.69,-93.91 492.01,-83 526.22,-76.45"/>
<polygon fill="midnightblue" stroke="midnightblue" points="527.07,-79.86 536.29,-74.64 525.82,-72.97 527.07,-79.86"/>
</g>
<!-- Node6 -->
<g id="node6" class="node">
<title>Node6</title>
<g id="a_node6"><a xlink:href="constpropagatinguniquepointer_8h.html" target="_top" xlink:title=" ">
<polygon fill="white" stroke="black" points="116,-112.5 116,-131.5 373,-131.5 373,-112.5 116,-112.5"/>
<text text-anchor="middle" x="244.5" y="-119.5" font-family="Helvetica,sans-Serif" font-size="10.00">PerceptualColor/constpropagatinguniquepointer.h</text>
</a>
</g>
</g>
<!-- Node5&#45;&gt;Node6 -->
<g id="edge7" class="edge">
<title>Node5&#45;&gt;Node6</title>
<path fill="none" stroke="midnightblue" d="M318.22,-224.37C305.02,-206.22 274.17,-163.8 256.86,-139.99"/>
<polygon fill="midnightblue" stroke="midnightblue" points="259.46,-137.62 250.75,-131.59 253.8,-141.74 259.46,-137.62"/>
</g>
<!-- Node8 -->
<g id="node8" class="node">
<title>Node8</title>
<g id="a_node8"><a xlink:href="abstractdiagram_8h.html" target="_top" xlink:title=" ">
<polygon fill="white" stroke="black" points="32.5,-168.5 32.5,-187.5 218.5,-187.5 218.5,-168.5 32.5,-168.5"/>
<text text-anchor="middle" x="125.5" y="-175.5" font-family="Helvetica,sans-Serif" font-size="10.00">PerceptualColor/abstractdiagram.h</text>
</a>
</g>
</g>
<!-- Node5&#45;&gt;Node8 -->
<g id="edge10" class="edge">
<title>Node5&#45;&gt;Node8</title>
<path fill="none" stroke="midnightblue" d="M292.97,-224.44C258.91,-215.2 204.49,-200.44 166.98,-190.26"/>
<polygon fill="midnightblue" stroke="midnightblue" points="167.45,-186.76 156.88,-187.52 165.62,-193.51 167.45,-186.76"/>
</g>
<!-- Node10 -->
<g id="node10" class="node">
<title>Node10</title>
<g id="a_node10"><a xlink:href="lchadouble_8h.html" target="_top" xlink:title=" ">
<polygon fill="white" stroke="black" points="880,-112.5 880,-131.5 1039,-131.5 1039,-112.5 880,-112.5"/>
<text text-anchor="middle" x="959.5" y="-119.5" font-family="Helvetica,sans-Serif" font-size="10.00">PerceptualColor/lchadouble.h</text>
</a>
</g>
</g>
<!-- Node5&#45;&gt;Node10 -->
<g id="edge14" class="edge">
<title>Node5&#45;&gt;Node10</title>
<path fill="none" stroke="midnightblue" d="M411.06,-232.07C571,-229.57 900.29,-220.5 940.5,-188 954.05,-177.05 958.28,-156.99 959.44,-142.04"/>
<polygon fill="midnightblue" stroke="midnightblue" points="962.94,-141.97 959.83,-131.84 955.95,-141.7 962.94,-141.97"/>
</g>
<!-- Node6&#45;&gt;Node2 -->
<g id="edge8" class="edge">
<title>Node6&#45;&gt;Node2</title>
<path fill="none" stroke="midnightblue" d="M307.56,-112.44C378.74,-102.79 494.36,-87.1 569.42,-76.92"/>
<polygon fill="midnightblue" stroke="midnightblue" points="570.29,-80.33 579.73,-75.52 569.35,-73.39 570.29,-80.33"/>
</g>
<!-- Node7 -->
<g id="node7" class="node">
<title>Node7</title>
<g id="a_node7"><a xlink:title=" ">
<polygon fill="white" stroke="#bfbfbf" points="215.5,-56.5 215.5,-75.5 273.5,-75.5 273.5,-56.5 215.5,-56.5"/>
<text text-anchor="middle" x="244.5" y="-63.5" font-family="Helvetica,sans-Serif" font-size="10.00">memory</text>
</a>
</g>
</g>
<!-- Node6&#45;&gt;Node7 -->
<g id="edge9" class="edge">
<title>Node6&#45;&gt;Node7</title>
<path fill="none" stroke="midnightblue" d="M244.5,-112.08C244.5,-105.01 244.5,-94.86 244.5,-85.99"/>
<polygon fill="midnightblue" stroke="midnightblue" points="248,-85.75 244.5,-75.75 241,-85.75 248,-85.75"/>
</g>
<!-- Node8&#45;&gt;Node2 -->
<g id="edge11" class="edge">
<title>Node8&#45;&gt;Node2</title>
<path fill="none" stroke="midnightblue" d="M118.36,-168.25C108.08,-154.54 91.86,-127.92 106.5,-112 134.31,-81.76 377.11,-71.83 526.22,-68.58"/>
<polygon fill="midnightblue" stroke="midnightblue" points="526.43,-72.08 536.35,-68.36 526.28,-65.08 526.43,-72.08"/>
</g>
<!-- Node8&#45;&gt;Node6 -->
<g id="edge13" class="edge">
<title>Node8&#45;&gt;Node6</title>
<path fill="none" stroke="midnightblue" d="M144.36,-168.44C163.77,-159.64 194.23,-145.81 216.46,-135.72"/>
<polygon fill="midnightblue" stroke="midnightblue" points="218.07,-138.84 225.73,-131.52 215.18,-132.46 218.07,-138.84"/>
</g>
<!-- Node9 -->
<g id="node9" class="node">
<title>Node9</title>
<g id="a_node9"><a xlink:title=" ">
<polygon fill="white" stroke="#bfbfbf" points="0,-112.5 0,-131.5 59,-131.5 59,-112.5 0,-112.5"/>
<text text-anchor="middle" x="29.5" y="-119.5" font-family="Helvetica,sans-Serif" font-size="10.00">QWidget</text>
</a>
</g>
</g>
<!-- Node8&#45;&gt;Node9 -->
<g id="edge12" class="edge">
<title>Node8&#45;&gt;Node9</title>
<path fill="none" stroke="midnightblue" d="M110.08,-168.32C94.96,-159.82 71.68,-146.73 54.03,-136.8"/>
<polygon fill="midnightblue" stroke="midnightblue" points="55.32,-133.51 44.89,-131.65 51.89,-139.61 55.32,-133.51"/>
</g>
<!-- Node10&#45;&gt;Node2 -->
<g id="edge15" class="edge">
<title>Node10&#45;&gt;Node2</title>
<path fill="none" stroke="midnightblue" d="M909.27,-112.44C853.16,-102.89 762.37,-87.42 702.55,-77.23"/>
<polygon fill="midnightblue" stroke="midnightblue" points="702.94,-73.75 692.49,-75.52 701.76,-80.65 702.94,-73.75"/>
</g>
<!-- Node10&#45;&gt;Node11 -->
<g id="edge16" class="edge">
<title>Node10&#45;&gt;Node11</title>
<path fill="none" stroke="midnightblue" d="M987.07,-112.44C1016.6,-103.28 1063.62,-88.69 1096.38,-78.52"/>
<polygon fill="midnightblue" stroke="midnightblue" points="1097.54,-81.82 1106.06,-75.52 1095.47,-75.14 1097.54,-81.82"/>
</g>
<!-- Node12&#45;&gt;Node2 -->
<g id="edge18" class="edge">
<title>Node12&#45;&gt;Node2</title>
<path fill="none" stroke="midnightblue" d="M597.79,-280.43C556.02,-263.19 473.3,-221.38 496.5,-168 516.43,-122.14 569.74,-93.84 606.12,-79.26"/>
<polygon fill="midnightblue" stroke="midnightblue" points="607.8,-82.36 615.89,-75.51 605.3,-75.83 607.8,-82.36"/>
</g>
<!-- Node12&#45;&gt;Node4 -->
<g id="edge19" class="edge">
<title>Node12&#45;&gt;Node4</title>
<path fill="none" stroke="midnightblue" d="M627.24,-280.47C639.9,-263.84 666.81,-225.46 676.5,-188 678.73,-179.39 679.33,-176.43 676.5,-168 672.9,-157.25 665.6,-147.02 658.68,-139.04"/>
<polygon fill="midnightblue" stroke="midnightblue" points="661.15,-136.56 651.79,-131.61 656.02,-141.32 661.15,-136.56"/>
</g>
<!-- Node12&#45;&gt;Node5 -->
<g id="edge20" class="edge">
<title>Node12&#45;&gt;Node5</title>
<path fill="none" stroke="midnightblue" d="M573.6,-280.44C521.42,-270.92 437.13,-255.55 381.27,-245.36"/>
<polygon fill="midnightblue" stroke="midnightblue" points="381.65,-241.87 371.18,-243.52 380.39,-248.75 381.65,-241.87"/>
</g>
<!-- Node13 -->
<g id="node13" class="node">
<title>Node13</title>
<g id="a_node13"><a xlink:href="constpropagatingrawpointer_8h.html" target="_top" xlink:title=" ">
<polygon fill="white" stroke="black" points="505.5,-168.5 505.5,-187.5 667.5,-187.5 667.5,-168.5 505.5,-168.5"/>
<text text-anchor="middle" x="586.5" y="-175.5" font-family="Helvetica,sans-Serif" font-size="10.00">constpropagatingrawpointer.h</text>
</a>
</g>
</g>
<!-- Node12&#45;&gt;Node13 -->
<g id="edge21" class="edge">
<title>Node12&#45;&gt;Node13</title>
<path fill="none" stroke="midnightblue" d="M617.83,-280.37C612.32,-262.54 599.57,-221.3 592.15,-197.27"/>
<polygon fill="midnightblue" stroke="midnightblue" points="595.45,-196.11 589.16,-187.59 588.76,-198.18 595.45,-196.11"/>
</g>
<!-- Node14 -->
<g id="node14" class="node">
<title>Node14</title>
<g id="a_node14"><a xlink:href="gradientimage_8h.html" target="_top" xlink:title=" ">
<polygon fill="white" stroke="black" points="762,-224.5 762,-243.5 859,-243.5 859,-224.5 762,-224.5"/>
<text text-anchor="middle" x="810.5" y="-231.5" font-family="Helvetica,sans-Serif" font-size="10.00">gradientimage.h</text>
</a>
</g>
</g>
<!-- Node12&#45;&gt;Node14 -->
<g id="edge24" class="edge">
<title>Node12&#45;&gt;Node14</title>
<path fill="none" stroke="midnightblue" d="M650.61,-280.44C683.13,-271.2 735.08,-256.44 770.89,-246.26"/>
<polygon fill="midnightblue" stroke="midnightblue" points="771.87,-249.62 780.53,-243.52 769.96,-242.88 771.87,-249.62"/>
</g>
<!-- Node13&#45;&gt;Node2 -->
<g id="edge22" class="edge">
<title>Node13&#45;&gt;Node2</title>
<path fill="none" stroke="midnightblue" d="M578.76,-168.14C568.44,-155.2 552.67,-130.63 563.5,-112 572.24,-96.97 588.08,-86.54 603.29,-79.54"/>
<polygon fill="midnightblue" stroke="midnightblue" points="604.76,-82.72 612.62,-75.61 602.04,-76.27 604.76,-82.72"/>
</g>
<!-- Node13&#45;&gt;Node4 -->
<g id="edge23" class="edge">
<title>Node13&#45;&gt;Node4</title>
<path fill="none" stroke="midnightblue" d="M595.5,-168.32C603.69,-160.42 616.01,-148.55 625.97,-138.94"/>
<polygon fill="midnightblue" stroke="midnightblue" points="628.57,-141.29 633.34,-131.83 623.71,-136.26 628.57,-141.29"/>
</g>
<!-- Node14&#45;&gt;Node2 -->
<g id="edge25" class="edge">
<title>Node14&#45;&gt;Node2</title>
<path fill="none" stroke="midnightblue" d="M806.33,-224.18C800.05,-211.29 787.41,-186.78 773.5,-168 753.1,-140.47 747.4,-133.23 720.5,-112 704.85,-99.65 685.43,-88.44 669.89,-80.29"/>
<polygon fill="midnightblue" stroke="midnightblue" points="671.28,-77.07 660.78,-75.64 668.09,-83.3 671.28,-77.07"/>
</g>
<!-- Node14&#45;&gt;Node4 -->
<g id="edge26" class="edge">
<title>Node14&#45;&gt;Node4</title>
<path fill="none" stroke="midnightblue" d="M804,-224.36C793.44,-210.8 771.32,-184.4 747.5,-168 726.77,-153.73 700.79,-142.55 679.86,-134.9"/>
<polygon fill="midnightblue" stroke="midnightblue" points="680.93,-131.57 670.34,-131.54 678.6,-138.17 680.93,-131.57"/>
</g>
<!-- Node14&#45;&gt;Node10 -->
<g id="edge29" class="edge">
<title>Node14&#45;&gt;Node10</title>
<path fill="none" stroke="midnightblue" d="M859.08,-225.95C937.77,-214.42 1084.79,-192.36 1088.5,-188 1111.87,-160.54 1068.29,-143.42 1025.59,-133.69"/>
<polygon fill="midnightblue" stroke="midnightblue" points="1026.17,-130.23 1015.66,-131.55 1024.7,-137.08 1026.17,-130.23"/>
</g>
<!-- Node15 -->
<g id="node15" class="node">
<title>Node15</title>
<g id="a_node15"><a xlink:title=" ">
<polygon fill="white" stroke="#bfbfbf" points="1301,-112.5 1301,-131.5 1356,-131.5 1356,-112.5 1301,-112.5"/>
<text text-anchor="middle" x="1328.5" y="-119.5" font-family="Helvetica,sans-Serif" font-size="10.00">QImage</text>
</a>
</g>
</g>
<!-- Node14&#45;&gt;Node15 -->
<g id="edge27" class="edge">
<title>Node14&#45;&gt;Node15</title>
<path fill="none" stroke="midnightblue" d="M859.02,-225.96C936.52,-214.66 1081.95,-193.21 1105.5,-188 1173.08,-173.06 1250.28,-148.94 1293.82,-134.66"/>
<polygon fill="midnightblue" stroke="midnightblue" points="1294.97,-137.97 1303.37,-131.51 1292.77,-131.32 1294.97,-137.97"/>
</g>
<!-- Node16 -->
<g id="node16" class="node">
<title>Node16</title>
<g id="a_node16"><a xlink:title=" ">
<polygon fill="white" stroke="#bfbfbf" points="987.5,-168.5 987.5,-187.5 1079.5,-187.5 1079.5,-168.5 987.5,-168.5"/>
<text text-anchor="middle" x="1033.5" y="-175.5" font-family="Helvetica,sans-Serif" font-size="10.00">QSharedPointer</text>
</a>
</g>
</g>
<!-- Node14&#45;&gt;Node16 -->
<g id="edge28" class="edge">
<title>Node14&#45;&gt;Node16</title>
<path fill="none" stroke="midnightblue" d="M845.84,-224.44C884.41,-215.1 946.28,-200.12 988.35,-189.93"/>
<polygon fill="midnightblue" stroke="midnightblue" points="989.43,-193.27 998.33,-187.52 987.79,-186.47 989.43,-193.27"/>
</g>
<!-- Node17 -->
<g id="node17" class="node">
<title>Node17</title>
<g id="a_node17"><a xlink:href="rgbcolorspace_8h.html" target="_top" xlink:title=" ">
<polygon fill="white" stroke="black" points="837.5,-168.5 837.5,-187.5 931.5,-187.5 931.5,-168.5 837.5,-168.5"/>
<text text-anchor="middle" x="884.5" y="-175.5" font-family="Helvetica,sans-Serif" font-size="10.00">rgbcolorspace.h</text>
</a>
</g>
</g>
<!-- Node14&#45;&gt;Node17 -->
<g id="edge30" class="edge">
<title>Node14&#45;&gt;Node17</title>
<path fill="none" stroke="midnightblue" d="M822.39,-224.32C833.65,-216.11 850.79,-203.6 864.21,-193.81"/>
<polygon fill="midnightblue" stroke="midnightblue" points="866.38,-196.56 872.39,-187.83 862.25,-190.9 866.38,-196.56"/>
</g>
<!-- Node17&#45;&gt;Node2 -->
<g id="edge31" class="edge">
<title>Node17&#45;&gt;Node2</title>
<path fill="none" stroke="midnightblue" d="M868.29,-168.36C843.89,-155.47 796.15,-130.74 754.5,-112 728.03,-100.09 697.42,-87.9 674.9,-79.21"/>
<polygon fill="midnightblue" stroke="midnightblue" points="676.06,-75.91 665.47,-75.6 673.55,-82.44 676.06,-75.91"/>
</g>
<!-- Node17&#45;&gt;Node4 -->
<g id="edge32" class="edge">
<title>Node17&#45;&gt;Node4</title>
<path fill="none" stroke="midnightblue" d="M846.15,-168.44C804.03,-159.04 736.29,-143.93 690.63,-133.74"/>
<polygon fill="midnightblue" stroke="midnightblue" points="691.19,-130.28 680.67,-131.52 689.66,-137.11 691.19,-130.28"/>
</g>
<!-- Node17&#45;&gt;Node6 -->
<g id="edge34" class="edge">
<title>Node17&#45;&gt;Node6</title>
<path fill="none" stroke="midnightblue" d="M837.44,-173.03C736.59,-164.52 497.29,-144.33 355.45,-132.36"/>
<polygon fill="midnightblue" stroke="midnightblue" points="355.66,-128.87 345.4,-131.51 355.07,-135.84 355.66,-128.87"/>
</g>
<!-- Node17&#45;&gt;Node10 -->
<g id="edge35" class="edge">
<title>Node17&#45;&gt;Node10</title>
<path fill="none" stroke="midnightblue" d="M896.55,-168.32C907.96,-160.11 925.33,-147.6 938.93,-137.81"/>
<polygon fill="midnightblue" stroke="midnightblue" points="941.16,-140.52 947.23,-131.83 937.07,-134.84 941.16,-140.52"/>
</g>
<!-- Node18 -->
<g id="node18" class="node">
<title>Node18</title>
<g id="a_node18"><a xlink:title=" ">
<polygon fill="white" stroke="#bfbfbf" points="806.5,-112.5 806.5,-131.5 862.5,-131.5 862.5,-112.5 806.5,-112.5"/>
<text text-anchor="middle" x="834.5" y="-119.5" font-family="Helvetica,sans-Serif" font-size="10.00">QObject</text>
</a>
</g>
</g>
<!-- Node17&#45;&gt;Node18 -->
<g id="edge33" class="edge">
<title>Node17&#45;&gt;Node18</title>
<path fill="none" stroke="midnightblue" d="M876.24,-168.08C869.04,-160.3 858.39,-148.8 849.65,-139.37"/>
<polygon fill="midnightblue" stroke="midnightblue" points="851.97,-136.71 842.6,-131.75 846.83,-141.47 851.97,-136.71"/>
</g>
<!-- Node19 -->
<g id="node19" class="node">
<title>Node19</title>
<g id="a_node19"><a xlink:href="lchdouble_8h.html" target="_top" xlink:title=" ">
<polygon fill="white" stroke="black" points="1057,-112.5 1057,-131.5 1210,-131.5 1210,-112.5 1057,-112.5"/>
<text text-anchor="middle" x="1133.5" y="-119.5" font-family="Helvetica,sans-Serif" font-size="10.00">PerceptualColor/lchdouble.h</text>
</a>
</g>
</g>
<!-- Node17&#45;&gt;Node19 -->
<g id="edge36" class="edge">
<title>Node17&#45;&gt;Node19</title>
<path fill="none" stroke="midnightblue" d="M923.95,-168.44C967.39,-159.02 1037.29,-143.87 1084.28,-133.68"/>
<polygon fill="midnightblue" stroke="midnightblue" points="1085.2,-137.06 1094.23,-131.52 1083.72,-130.22 1085.2,-137.06"/>
</g>
<!-- Node20 -->
<g id="node20" class="node">
<title>Node20</title>
<g id="a_node20"><a xlink:title=" ">
<polygon fill="white" stroke="#bfbfbf" points="1228,-112.5 1228,-131.5 1283,-131.5 1283,-112.5 1228,-112.5"/>
<text text-anchor="middle" x="1255.5" y="-119.5" font-family="Helvetica,sans-Serif" font-size="10.00">lcms2.h</text>
</a>
</g>
</g>
<!-- Node17&#45;&gt;Node20 -->
<g id="edge39" class="edge">
<title>Node17&#45;&gt;Node20</title>
<path fill="none" stroke="midnightblue" d="M931.65,-172.34C994.77,-165.74 1110.36,-152.35 1217.64,-132.19"/>
<polygon fill="midnightblue" stroke="midnightblue" points="1218.49,-135.59 1227.66,-130.29 1217.18,-128.72 1218.49,-135.59"/>
</g>
<!-- Node19&#45;&gt;Node2 -->
<g id="edge37" class="edge">
<title>Node19&#45;&gt;Node2</title>
<path fill="none" stroke="midnightblue" d="M1056.78,-112.56C968.26,-102.83 823,-86.85 730.11,-76.64"/>
<polygon fill="midnightblue" stroke="midnightblue" points="730.22,-73.13 719.89,-75.51 729.45,-80.08 730.22,-73.13"/>
</g>
<!-- Node19&#45;&gt;Node11 -->
<g id="edge38" class="edge">
<title>Node19&#45;&gt;Node11</title>
<path fill="none" stroke="midnightblue" d="M1133.5,-112.08C1133.5,-105.01 1133.5,-94.86 1133.5,-85.99"/>
<polygon fill="midnightblue" stroke="midnightblue" points="1137,-85.75 1133.5,-75.75 1130,-85.75 1137,-85.75"/>
</g>
<!-- Node25&#45;&gt;Node2 -->
<g id="edge46" class="edge">
<title>Node25&#45;&gt;Node2</title>
<path fill="none" stroke="midnightblue" d="M1317.86,-168.32C1344.83,-156.17 1385.45,-133.23 1365.5,-112 1345.08,-90.27 957.91,-76.03 758.75,-70.12"/>
<polygon fill="midnightblue" stroke="midnightblue" points="758.63,-66.61 748.53,-69.82 758.43,-73.61 758.63,-66.61"/>
</g>
<!-- Node25&#45;&gt;Node3 -->
<g id="edge50" class="edge">
<title>Node25&#45;&gt;Node3</title>
<path fill="none" stroke="midnightblue" d="M1324.81,-177.58C1392.29,-178 1553.51,-172.86 1505.5,-112 1458,-51.79 1219.09,-23.46 1123.31,-14.39"/>
<polygon fill="midnightblue" stroke="midnightblue" points="1123.44,-10.89 1113.16,-13.45 1122.79,-17.86 1123.44,-10.89"/>
</g>
<!-- Node25&#45;&gt;Node4 -->
<g id="edge47" class="edge">
<title>Node25&#45;&gt;Node4</title>
<path fill="none" stroke="midnightblue" d="M1268.4,-174.68C1174.45,-166.92 868.95,-141.7 722.38,-129.6"/>
<polygon fill="midnightblue" stroke="midnightblue" points="722.36,-126.08 712.1,-128.75 721.78,-133.06 722.36,-126.08"/>
</g>
<!-- Node25&#45;&gt;Node15 -->
<g id="edge48" class="edge">
<title>Node25&#45;&gt;Node15</title>
<path fill="none" stroke="midnightblue" d="M1301.78,-168.08C1306.21,-160.61 1312.66,-149.72 1318.12,-140.52"/>
<polygon fill="midnightblue" stroke="midnightblue" points="1321.23,-142.14 1323.31,-131.75 1315.21,-138.57 1321.23,-142.14"/>
</g>
<!-- Node25&#45;&gt;Node19 -->
<g id="edge51" class="edge">
<title>Node25&#45;&gt;Node19</title>
<path fill="none" stroke="midnightblue" d="M1270.67,-168.44C1243.25,-159.36 1199.72,-144.94 1169.07,-134.78"/>
<polygon fill="midnightblue" stroke="midnightblue" points="1169.8,-131.34 1159.21,-131.52 1167.6,-137.98 1169.8,-131.34"/>
</g>
<!-- Node25&#45;&gt;Node20 -->
<g id="edge52" class="edge">
<title>Node25&#45;&gt;Node20</title>
<path fill="none" stroke="midnightblue" d="M1289.73,-168.08C1283.94,-160.46 1275.44,-149.26 1268.36,-139.94"/>
<polygon fill="midnightblue" stroke="midnightblue" points="1270.98,-137.6 1262.14,-131.75 1265.4,-141.83 1270.98,-137.6"/>
</g>
<!-- Node26 -->
<g id="node26" class="node">
<title>Node26</title>
<g id="a_node26"><a xlink:title=" ">
<polygon fill="white" stroke="#bfbfbf" points="1413,-112.5 1413,-131.5 1496,-131.5 1496,-112.5 1413,-112.5"/>
<text text-anchor="middle" x="1454.5" y="-119.5" font-family="Helvetica,sans-Serif" font-size="10.00">QWheelEvent</text>
</a>
</g>
</g>
<!-- Node25&#45;&gt;Node26 -->
<g id="edge49" class="edge">
<title>Node25&#45;&gt;Node26</title>
<path fill="none" stroke="midnightblue" d="M1321.54,-168.44C1348.12,-159.36 1390.31,-144.94 1420.02,-134.78"/>
<polygon fill="midnightblue" stroke="midnightblue" points="1421.25,-138.06 1429.58,-131.52 1418.99,-131.44 1421.25,-138.06"/>
</g>
</g>
</svg>
