<?xml version="1.0" encoding="UTF-8" standalone="no"?>
<!DOCTYPE svg PUBLIC "-//W3C//DTD SVG 1.1//EN"
 "http://www.w3.org/Graphics/SVG/1.1/DTD/svg11.dtd">
<!-- Generated by graphviz version 2.43.0 (0)
 -->
<!-- Title: src/gradientimage.cpp Pages: 1 -->
<svg width="1229pt" height="308pt"
 viewBox="0.00 0.00 1228.78 308.00" xmlns="http://www.w3.org/2000/svg" xmlns:xlink="http://www.w3.org/1999/xlink">
<g id="graph0" class="graph" transform="scale(1 1) rotate(0) translate(4 304)">
<title>src/gradientimage.cpp</title>
<polygon fill="white" stroke="transparent" points="-4,4 -4,-304 1224.78,-304 1224.78,4 -4,4"/>
<!-- Node1 -->
<g id="node1" class="node">
<title>Node1</title>
<g id="a_node1"><a xlink:title=" ">
<polygon fill="#bfbfbf" stroke="black" points="257.55,-280.5 257.55,-299.5 382.55,-299.5 382.55,-280.5 257.55,-280.5"/>
<text text-anchor="middle" x="320.05" y="-287.5" font-family="Helvetica,sans-Serif" font-size="10.00">src/gradientimage.cpp</text>
</a>
</g>
</g>
<!-- Node2 -->
<g id="node2" class="node">
<title>Node2</title>
<g id="a_node2"><a xlink:href="perceptualcolorglobal_8h.html" target="_top" xlink:title=" ">
<polygon fill="white" stroke="black" points="257.05,-56.5 257.05,-75.5 469.05,-75.5 469.05,-56.5 257.05,-56.5"/>
<text text-anchor="middle" x="363.05" y="-63.5" font-family="Helvetica,sans-Serif" font-size="10.00">PerceptualColor/perceptualcolorglobal.h</text>
</a>
</g>
</g>
<!-- Node1&#45;&gt;Node2 -->
<g id="edge1" class="edge">
<title>Node1&#45;&gt;Node2</title>
<path fill="none" stroke="midnightblue" d="M271.35,-280.44C166.8,-260.08 -63.36,-203.54 17.05,-112 32.28,-94.65 152.07,-82.01 246.48,-74.62"/>
<polygon fill="midnightblue" stroke="midnightblue" points="246.99,-78.09 256.69,-73.83 246.46,-71.11 246.99,-78.09"/>
</g>
<!-- Node4 -->
<g id="node4" class="node">
<title>Node4</title>
<g id="a_node4"><a xlink:href="perceptualcolorinternal_8h.html" target="_top" xlink:title=" ">
<polygon fill="white" stroke="black" points="41.55,-112.5 41.55,-131.5 180.55,-131.5 180.55,-112.5 41.55,-112.5"/>
<text text-anchor="middle" x="111.05" y="-119.5" font-family="Helvetica,sans-Serif" font-size="10.00">perceptualcolorinternal.h</text>
</a>
</g>
</g>
<!-- Node1&#45;&gt;Node4 -->
<g id="edge3" class="edge">
<title>Node1&#45;&gt;Node4</title>
<path fill="none" stroke="midnightblue" d="M297.96,-280.35C278.01,-272.15 248.17,-258.89 224.05,-244 189.85,-222.89 180.1,-217.72 153.05,-188 139.8,-173.45 127.97,-154.27 120.26,-140.53"/>
<polygon fill="midnightblue" stroke="midnightblue" points="123.27,-138.73 115.42,-131.62 117.12,-142.08 123.27,-138.73"/>
</g>
<!-- Node5 -->
<g id="node5" class="node">
<title>Node5</title>
<g id="a_node5"><a xlink:href="gradientimage_8h.html" target="_top" xlink:title=" ">
<polygon fill="white" stroke="black" points="233.55,-224.5 233.55,-243.5 330.55,-243.5 330.55,-224.5 233.55,-224.5"/>
<text text-anchor="middle" x="282.05" y="-231.5" font-family="Helvetica,sans-Serif" font-size="10.00">gradientimage.h</text>
</a>
</g>
</g>
<!-- Node1&#45;&gt;Node5 -->
<g id="edge5" class="edge">
<title>Node1&#45;&gt;Node5</title>
<path fill="none" stroke="midnightblue" d="M313.77,-280.08C308.4,-272.46 300.53,-261.26 293.97,-251.94"/>
<polygon fill="midnightblue" stroke="midnightblue" points="296.82,-249.91 288.2,-243.75 291.1,-253.94 296.82,-249.91"/>
</g>
<!-- Node16 -->
<g id="node16" class="node">
<title>Node16</title>
<g id="a_node16"><a xlink:title=" ">
<polygon fill="white" stroke="#bfbfbf" points="387.55,-224.5 387.55,-243.5 438.55,-243.5 438.55,-224.5 387.55,-224.5"/>
<text text-anchor="middle" x="413.05" y="-231.5" font-family="Helvetica,sans-Serif" font-size="10.00">math.h</text>
</a>
</g>
</g>
<!-- Node1&#45;&gt;Node16 -->
<g id="edge25" class="edge">
<title>Node1&#45;&gt;Node16</title>
<path fill="none" stroke="midnightblue" d="M334.99,-280.32C349.63,-271.82 372.18,-258.73 389.28,-248.8"/>
<polygon fill="midnightblue" stroke="midnightblue" points="391.25,-251.7 398.14,-243.65 387.74,-245.65 391.25,-251.7"/>
</g>
<!-- Node17 -->
<g id="node17" class="node">
<title>Node17</title>
<g id="a_node17"><a xlink:href="helper_8h.html" target="_top" xlink:title="Various smaller help elements.">
<polygon fill="white" stroke="black" points="970.05,-168.5 970.05,-187.5 1026.05,-187.5 1026.05,-168.5 970.05,-168.5"/>
<text text-anchor="middle" x="998.05" y="-175.5" font-family="Helvetica,sans-Serif" font-size="10.00">helper.h</text>
</a>
</g>
</g>
<!-- Node1&#45;&gt;Node17 -->
<g id="edge26" class="edge">
<title>Node1&#45;&gt;Node17</title>
<path fill="none" stroke="midnightblue" d="M324.87,-280.33C333.54,-265.72 353.29,-236.54 379.05,-224 405.22,-211.25 828.57,-187.95 959.66,-181"/>
<polygon fill="midnightblue" stroke="midnightblue" points="960.21,-184.48 970.01,-180.46 959.84,-177.49 960.21,-184.48"/>
</g>
<!-- Node19 -->
<g id="node19" class="node">
<title>Node19</title>
<g id="a_node19"><a xlink:title=" ">
<polygon fill="white" stroke="#bfbfbf" points="457.05,-224.5 457.05,-243.5 515.05,-243.5 515.05,-224.5 457.05,-224.5"/>
<text text-anchor="middle" x="486.05" y="-231.5" font-family="Helvetica,sans-Serif" font-size="10.00">QPainter</text>
</a>
</g>
</g>
<!-- Node1&#45;&gt;Node19 -->
<g id="edge34" class="edge">
<title>Node1&#45;&gt;Node19</title>
<path fill="none" stroke="midnightblue" d="M346.35,-280.44C374.4,-271.32 418.99,-256.81 450.23,-246.65"/>
<polygon fill="midnightblue" stroke="midnightblue" points="451.44,-249.94 459.87,-243.52 449.27,-243.28 451.44,-249.94"/>
</g>
<!-- Node3 -->
<g id="node3" class="node">
<title>Node3</title>
<g id="a_node3"><a xlink:title=" ">
<polygon fill="white" stroke="#bfbfbf" points="805.55,-0.5 805.55,-19.5 864.55,-19.5 864.55,-0.5 805.55,-0.5"/>
<text text-anchor="middle" x="835.05" y="-7.5" font-family="Helvetica,sans-Serif" font-size="10.00">QtGlobal</text>
</a>
</g>
</g>
<!-- Node2&#45;&gt;Node3 -->
<g id="edge2" class="edge">
<title>Node2&#45;&gt;Node3</title>
<path fill="none" stroke="midnightblue" d="M437.58,-56.47C538.89,-44.88 716.47,-24.57 795.35,-15.54"/>
<polygon fill="midnightblue" stroke="midnightblue" points="795.82,-19.01 805.36,-14.4 795.03,-12.06 795.82,-19.01"/>
</g>
<!-- Node4&#45;&gt;Node2 -->
<g id="edge4" class="edge">
<title>Node4&#45;&gt;Node2</title>
<path fill="none" stroke="midnightblue" d="M150.98,-112.44C194.94,-103.02 265.67,-87.87 313.23,-77.68"/>
<polygon fill="midnightblue" stroke="midnightblue" points="314.26,-81.03 323.3,-75.52 312.79,-74.19 314.26,-81.03"/>
</g>
<!-- Node5&#45;&gt;Node2 -->
<g id="edge6" class="edge">
<title>Node5&#45;&gt;Node2</title>
<path fill="none" stroke="midnightblue" d="M233.3,-227.41C144.46,-215.36 -29.25,-182.19 32.05,-112 59.77,-80.26 162.7,-70.05 246.51,-67.16"/>
<polygon fill="midnightblue" stroke="midnightblue" points="246.75,-70.66 256.63,-66.84 246.53,-63.66 246.75,-70.66"/>
</g>
<!-- Node5&#45;&gt;Node4 -->
<g id="edge7" class="edge">
<title>Node5&#45;&gt;Node4</title>
<path fill="none" stroke="midnightblue" d="M282.01,-224.1C281.45,-210.2 278.32,-183.32 263.05,-168 243.75,-148.64 216.55,-137.53 190.49,-131.18"/>
<polygon fill="midnightblue" stroke="midnightblue" points="191.09,-127.73 180.57,-128.97 189.57,-134.56 191.09,-127.73"/>
</g>
<!-- Node6 -->
<g id="node6" class="node">
<title>Node6</title>
<g id="a_node6"><a xlink:title=" ">
<polygon fill="white" stroke="#bfbfbf" points="1007.55,-112.5 1007.55,-131.5 1062.55,-131.5 1062.55,-112.5 1007.55,-112.5"/>
<text text-anchor="middle" x="1035.05" y="-119.5" font-family="Helvetica,sans-Serif" font-size="10.00">QImage</text>
</a>
</g>
</g>
<!-- Node5&#45;&gt;Node6 -->
<g id="edge8" class="edge">
<title>Node5&#45;&gt;Node6</title>
<path fill="none" stroke="midnightblue" d="M330.67,-226.29C478.4,-205.9 916.36,-145.31 997.14,-132.03"/>
<polygon fill="midnightblue" stroke="midnightblue" points="997.96,-135.44 1007.2,-130.27 996.75,-128.55 997.96,-135.44"/>
</g>
<!-- Node7 -->
<g id="node7" class="node">
<title>Node7</title>
<g id="a_node7"><a xlink:title=" ">
<polygon fill="white" stroke="#bfbfbf" points="162.05,-168.5 162.05,-187.5 254.05,-187.5 254.05,-168.5 162.05,-168.5"/>
<text text-anchor="middle" x="208.05" y="-175.5" font-family="Helvetica,sans-Serif" font-size="10.00">QSharedPointer</text>
</a>
</g>
</g>
<!-- Node5&#45;&gt;Node7 -->
<g id="edge9" class="edge">
<title>Node5&#45;&gt;Node7</title>
<path fill="none" stroke="midnightblue" d="M270.16,-224.32C258.9,-216.11 241.76,-203.6 228.34,-193.81"/>
<polygon fill="midnightblue" stroke="midnightblue" points="230.29,-190.9 220.15,-187.83 226.17,-196.56 230.29,-190.9"/>
</g>
<!-- Node8 -->
<g id="node8" class="node">
<title>Node8</title>
<g id="a_node8"><a xlink:href="lchadouble_8h.html" target="_top" xlink:title=" ">
<polygon fill="white" stroke="black" points="586.55,-112.5 586.55,-131.5 745.55,-131.5 745.55,-112.5 586.55,-112.5"/>
<text text-anchor="middle" x="666.05" y="-119.5" font-family="Helvetica,sans-Serif" font-size="10.00">PerceptualColor/lchadouble.h</text>
</a>
</g>
</g>
<!-- Node5&#45;&gt;Node8 -->
<g id="edge10" class="edge">
<title>Node5&#45;&gt;Node8</title>
<path fill="none" stroke="midnightblue" d="M316.63,-224.48C351.64,-215.75 407.28,-201.56 455.05,-188 516.7,-170.49 587.83,-148.13 629.76,-134.72"/>
<polygon fill="midnightblue" stroke="midnightblue" points="631.06,-137.97 639.51,-131.59 628.92,-131.31 631.06,-137.97"/>
</g>
<!-- Node10 -->
<g id="node10" class="node">
<title>Node10</title>
<g id="a_node10"><a xlink:href="rgbcolorspace_8h.html" target="_top" xlink:title=" ">
<polygon fill="white" stroke="black" points="352.05,-168.5 352.05,-187.5 446.05,-187.5 446.05,-168.5 352.05,-168.5"/>
<text text-anchor="middle" x="399.05" y="-175.5" font-family="Helvetica,sans-Serif" font-size="10.00">rgbcolorspace.h</text>
</a>
</g>
</g>
<!-- Node5&#45;&gt;Node10 -->
<g id="edge13" class="edge">
<title>Node5&#45;&gt;Node10</title>
<path fill="none" stroke="midnightblue" d="M300.58,-224.44C319.67,-215.64 349.62,-201.81 371.48,-191.72"/>
<polygon fill="midnightblue" stroke="midnightblue" points="372.98,-194.88 380.59,-187.52 370.05,-188.53 372.98,-194.88"/>
</g>
<!-- Node8&#45;&gt;Node2 -->
<g id="edge11" class="edge">
<title>Node8&#45;&gt;Node2</title>
<path fill="none" stroke="midnightblue" d="M618.03,-112.44C564.51,-102.9 477.98,-87.48 420.8,-77.29"/>
<polygon fill="midnightblue" stroke="midnightblue" points="421.29,-73.83 410.83,-75.52 420.06,-80.72 421.29,-73.83"/>
</g>
<!-- Node9 -->
<g id="node9" class="node">
<title>Node9</title>
<g id="a_node9"><a xlink:title=" ">
<polygon fill="white" stroke="#bfbfbf" points="725.05,-56.5 725.05,-75.5 781.05,-75.5 781.05,-56.5 725.05,-56.5"/>
<text text-anchor="middle" x="753.05" y="-63.5" font-family="Helvetica,sans-Serif" font-size="10.00">QDebug</text>
</a>
</g>
</g>
<!-- Node8&#45;&gt;Node9 -->
<g id="edge12" class="edge">
<title>Node8&#45;&gt;Node9</title>
<path fill="none" stroke="midnightblue" d="M680.02,-112.32C693.6,-103.9 714.43,-90.97 730.37,-81.07"/>
<polygon fill="midnightblue" stroke="midnightblue" points="732.45,-83.9 739.1,-75.65 728.76,-77.95 732.45,-83.9"/>
</g>
<!-- Node10&#45;&gt;Node2 -->
<g id="edge14" class="edge">
<title>Node10&#45;&gt;Node2</title>
<path fill="none" stroke="midnightblue" d="M351.69,-171.03C306.48,-164.25 243.09,-151.51 228.05,-132 206.17,-103.62 246.93,-86.96 289.26,-77.62"/>
<polygon fill="midnightblue" stroke="midnightblue" points="290.07,-81.03 299.15,-75.58 288.64,-74.18 290.07,-81.03"/>
</g>
<!-- Node10&#45;&gt;Node4 -->
<g id="edge15" class="edge">
<title>Node10&#45;&gt;Node4</title>
<path fill="none" stroke="midnightblue" d="M353.41,-168.44C302.75,-158.94 220.97,-143.61 166.62,-133.42"/>
<polygon fill="midnightblue" stroke="midnightblue" points="166.94,-129.92 156.47,-131.52 165.65,-136.8 166.94,-129.92"/>
</g>
<!-- Node10&#45;&gt;Node8 -->
<g id="edge20" class="edge">
<title>Node10&#45;&gt;Node8</title>
<path fill="none" stroke="midnightblue" d="M441.35,-168.44C488.13,-158.98 563.51,-143.74 613.9,-133.55"/>
<polygon fill="midnightblue" stroke="midnightblue" points="614.83,-136.93 623.94,-131.52 613.44,-130.07 614.83,-136.93"/>
</g>
<!-- Node11 -->
<g id="node11" class="node">
<title>Node11</title>
<g id="a_node11"><a xlink:title=" ">
<polygon fill="white" stroke="#bfbfbf" points="237.05,-112.5 237.05,-131.5 293.05,-131.5 293.05,-112.5 237.05,-112.5"/>
<text text-anchor="middle" x="265.05" y="-119.5" font-family="Helvetica,sans-Serif" font-size="10.00">QObject</text>
</a>
</g>
</g>
<!-- Node10&#45;&gt;Node11 -->
<g id="edge16" class="edge">
<title>Node10&#45;&gt;Node11</title>
<path fill="none" stroke="midnightblue" d="M377.81,-168.44C355.66,-159.52 320.73,-145.44 295.61,-135.32"/>
<polygon fill="midnightblue" stroke="midnightblue" points="296.76,-132.01 286.18,-131.52 294.15,-138.5 296.76,-132.01"/>
</g>
<!-- Node12 -->
<g id="node12" class="node">
<title>Node12</title>
<g id="a_node12"><a xlink:href="constpropagatinguniquepointer_8h.html" target="_top" xlink:title=" ">
<polygon fill="white" stroke="black" points="311.55,-112.5 311.55,-131.5 568.55,-131.5 568.55,-112.5 311.55,-112.5"/>
<text text-anchor="middle" x="440.05" y="-119.5" font-family="Helvetica,sans-Serif" font-size="10.00">PerceptualColor/constpropagatinguniquepointer.h</text>
</a>
</g>
</g>
<!-- Node10&#45;&gt;Node12 -->
<g id="edge17" class="edge">
<title>Node10&#45;&gt;Node12</title>
<path fill="none" stroke="midnightblue" d="M405.82,-168.08C411.61,-160.46 420.1,-149.26 427.18,-139.94"/>
<polygon fill="midnightblue" stroke="midnightblue" points="430.14,-141.83 433.4,-131.75 424.57,-137.6 430.14,-141.83"/>
</g>
<!-- Node14 -->
<g id="node14" class="node">
<title>Node14</title>
<g id="a_node14"><a xlink:href="lchdouble_8h.html" target="_top" xlink:title=" ">
<polygon fill="white" stroke="black" points="763.55,-112.5 763.55,-131.5 916.55,-131.5 916.55,-112.5 763.55,-112.5"/>
<text text-anchor="middle" x="840.05" y="-119.5" font-family="Helvetica,sans-Serif" font-size="10.00">PerceptualColor/lchdouble.h</text>
</a>
</g>
</g>
<!-- Node10&#45;&gt;Node14 -->
<g id="edge21" class="edge">
<title>Node10&#45;&gt;Node14</title>
<path fill="none" stroke="midnightblue" d="M446.24,-171.22C521.31,-162.03 668.77,-143.97 760.4,-132.75"/>
<polygon fill="midnightblue" stroke="midnightblue" points="760.96,-136.21 770.46,-131.52 760.11,-129.26 760.96,-136.21"/>
</g>
<!-- Node15 -->
<g id="node15" class="node">
<title>Node15</title>
<g id="a_node15"><a xlink:title=" ">
<polygon fill="white" stroke="#bfbfbf" points="934.55,-112.5 934.55,-131.5 989.55,-131.5 989.55,-112.5 934.55,-112.5"/>
<text text-anchor="middle" x="962.05" y="-119.5" font-family="Helvetica,sans-Serif" font-size="10.00">lcms2.h</text>
</a>
</g>
</g>
<!-- Node10&#45;&gt;Node15 -->
<g id="edge24" class="edge">
<title>Node10&#45;&gt;Node15</title>
<path fill="none" stroke="midnightblue" d="M446.24,-175.5C537.16,-172.06 742.94,-161.62 924.25,-132.07"/>
<polygon fill="midnightblue" stroke="midnightblue" points="924.94,-135.51 934.23,-130.42 923.79,-128.6 924.94,-135.51"/>
</g>
<!-- Node12&#45;&gt;Node2 -->
<g id="edge18" class="edge">
<title>Node12&#45;&gt;Node2</title>
<path fill="none" stroke="midnightblue" d="M427.67,-112.32C415.89,-104.06 397.91,-91.45 383.91,-81.63"/>
<polygon fill="midnightblue" stroke="midnightblue" points="385.58,-78.53 375.39,-75.65 381.56,-84.26 385.58,-78.53"/>
</g>
<!-- Node13 -->
<g id="node13" class="node">
<title>Node13</title>
<g id="a_node13"><a xlink:title=" ">
<polygon fill="white" stroke="#bfbfbf" points="487.05,-56.5 487.05,-75.5 545.05,-75.5 545.05,-56.5 487.05,-56.5"/>
<text text-anchor="middle" x="516.05" y="-63.5" font-family="Helvetica,sans-Serif" font-size="10.00">memory</text>
</a>
</g>
</g>
<!-- Node12&#45;&gt;Node13 -->
<g id="edge19" class="edge">
<title>Node12&#45;&gt;Node13</title>
<path fill="none" stroke="midnightblue" d="M452.26,-112.32C463.82,-104.11 481.42,-91.6 495.21,-81.81"/>
<polygon fill="midnightblue" stroke="midnightblue" points="497.49,-84.48 503.61,-75.83 493.43,-78.77 497.49,-84.48"/>
</g>
<!-- Node14&#45;&gt;Node2 -->
<g id="edge22" class="edge">
<title>Node14&#45;&gt;Node2</title>
<path fill="none" stroke="midnightblue" d="M764.73,-112.47C678.78,-102.74 538.51,-86.86 448.54,-76.68"/>
<polygon fill="midnightblue" stroke="midnightblue" points="448.69,-73.17 438.36,-75.53 447.91,-80.13 448.69,-73.17"/>
</g>
<!-- Node14&#45;&gt;Node9 -->
<g id="edge23" class="edge">
<title>Node14&#45;&gt;Node9</title>
<path fill="none" stroke="midnightblue" d="M826.07,-112.32C812.5,-103.9 791.67,-90.97 775.72,-81.07"/>
<polygon fill="midnightblue" stroke="midnightblue" points="777.33,-77.95 766.99,-75.65 773.64,-83.9 777.33,-77.95"/>
</g>
<!-- Node17&#45;&gt;Node2 -->
<g id="edge27" class="edge">
<title>Node17&#45;&gt;Node2</title>
<path fill="none" stroke="midnightblue" d="M1021.25,-168.34C1049.96,-156.42 1092.67,-133.91 1072.05,-112 1028.45,-65.69 580.14,-79.4 479.52,-75.88"/>
<polygon fill="midnightblue" stroke="midnightblue" points="479.41,-72.37 469.25,-75.38 479.06,-79.37 479.41,-72.37"/>
</g>
<!-- Node17&#45;&gt;Node3 -->
<g id="edge31" class="edge">
<title>Node17&#45;&gt;Node3</title>
<path fill="none" stroke="midnightblue" d="M1026.16,-177.81C1094.53,-178.83 1260.44,-175.07 1212.05,-112 1170.72,-58.15 963.16,-26.72 874.88,-15.61"/>
<polygon fill="midnightblue" stroke="midnightblue" points="875.08,-12.11 864.73,-14.35 874.22,-19.05 875.08,-12.11"/>
</g>
<!-- Node17&#45;&gt;Node4 -->
<g id="edge28" class="edge">
<title>Node17&#45;&gt;Node4</title>
<path fill="none" stroke="midnightblue" d="M969.72,-175.53C868.83,-170.27 517.63,-151.6 228.05,-132 216.06,-131.19 203.38,-130.27 190.97,-129.35"/>
<polygon fill="midnightblue" stroke="midnightblue" points="190.87,-125.83 180.63,-128.56 190.34,-132.81 190.87,-125.83"/>
</g>
<!-- Node17&#45;&gt;Node6 -->
<g id="edge29" class="edge">
<title>Node17&#45;&gt;Node6</title>
<path fill="none" stroke="midnightblue" d="M1004.16,-168.08C1009.33,-160.53 1016.89,-149.49 1023.24,-140.23"/>
<polygon fill="midnightblue" stroke="midnightblue" points="1026.28,-141.98 1029.05,-131.75 1020.51,-138.02 1026.28,-141.98"/>
</g>
<!-- Node17&#45;&gt;Node14 -->
<g id="edge32" class="edge">
<title>Node17&#45;&gt;Node14</title>
<path fill="none" stroke="midnightblue" d="M973.01,-168.44C946.43,-159.36 904.24,-144.94 874.52,-134.78"/>
<polygon fill="midnightblue" stroke="midnightblue" points="875.56,-131.44 864.96,-131.52 873.29,-138.06 875.56,-131.44"/>
</g>
<!-- Node17&#45;&gt;Node15 -->
<g id="edge33" class="edge">
<title>Node17&#45;&gt;Node15</title>
<path fill="none" stroke="midnightblue" d="M992.1,-168.08C987.07,-160.53 979.71,-149.49 973.53,-140.23"/>
<polygon fill="midnightblue" stroke="midnightblue" points="976.34,-138.13 967.88,-131.75 970.51,-142.01 976.34,-138.13"/>
</g>
<!-- Node18 -->
<g id="node18" class="node">
<title>Node18</title>
<g id="a_node18"><a xlink:title=" ">
<polygon fill="white" stroke="#bfbfbf" points="1119.55,-112.5 1119.55,-131.5 1202.55,-131.5 1202.55,-112.5 1119.55,-112.5"/>
<text text-anchor="middle" x="1161.05" y="-119.5" font-family="Helvetica,sans-Serif" font-size="10.00">QWheelEvent</text>
</a>
</g>
</g>
<!-- Node17&#45;&gt;Node18 -->
<g id="edge30" class="edge">
<title>Node17&#45;&gt;Node18</title>
<path fill="none" stroke="midnightblue" d="M1023.87,-168.44C1051.3,-159.36 1094.82,-144.94 1125.48,-134.78"/>
<polygon fill="midnightblue" stroke="midnightblue" points="1126.95,-137.98 1135.34,-131.52 1124.75,-131.34 1126.95,-137.98"/>
</g>
</g>
</svg>
