<?xml version="1.0" encoding="UTF-8" standalone="no"?>
<!DOCTYPE svg PUBLIC "-//W3C//DTD SVG 1.1//EN"
 "http://www.w3.org/Graphics/SVG/1.1/DTD/svg11.dtd">
<!-- Generated by graphviz version 2.43.0 (0)
 -->
<!-- Title: src/gradientimage.h Pages: 1 -->
<svg width="981pt" height="252pt"
 viewBox="0.00 0.00 980.59 252.00" xmlns="http://www.w3.org/2000/svg" xmlns:xlink="http://www.w3.org/1999/xlink">
<g id="graph0" class="graph" transform="scale(1 1) rotate(0) translate(4 248)">
<title>src/gradientimage.h</title>
<polygon fill="white" stroke="transparent" points="-4,4 -4,-248 976.59,-248 976.59,4 -4,4"/>
<!-- Node1 -->
<g id="node1" class="node">
<title>Node1</title>
<g id="a_node1"><a xlink:title=" ">
<polygon fill="#bfbfbf" stroke="black" points="223.09,-224.5 223.09,-243.5 337.09,-243.5 337.09,-224.5 223.09,-224.5"/>
<text text-anchor="middle" x="280.09" y="-231.5" font-family="Helvetica,sans-Serif" font-size="10.00">src/gradientimage.h</text>
</a>
</g>
</g>
<!-- Node2 -->
<g id="node2" class="node">
<title>Node2</title>
<g id="a_node2"><a xlink:href="perceptualcolorglobal_8h.html" target="_top" xlink:title=" ">
<polygon fill="white" stroke="black" points="358.09,-56.5 358.09,-75.5 570.09,-75.5 570.09,-56.5 358.09,-56.5"/>
<text text-anchor="middle" x="464.09" y="-63.5" font-family="Helvetica,sans-Serif" font-size="10.00">PerceptualColor/perceptualcolorglobal.h</text>
</a>
</g>
</g>
<!-- Node1&#45;&gt;Node2 -->
<g id="edge1" class="edge">
<title>Node1&#45;&gt;Node2</title>
<path fill="none" stroke="midnightblue" d="M222.89,-227.22C126.79,-215.42 -50.51,-183.38 14.09,-112 19.74,-105.75 220.42,-87.63 351.85,-76.38"/>
<polygon fill="midnightblue" stroke="midnightblue" points="352.31,-79.85 361.97,-75.51 351.71,-72.88 352.31,-79.85"/>
</g>
<!-- Node4 -->
<g id="node4" class="node">
<title>Node4</title>
<g id="a_node4"><a xlink:href="perceptualcolorinternal_8h.html" target="_top" xlink:title=" ">
<polygon fill="white" stroke="black" points="23.59,-112.5 23.59,-131.5 162.59,-131.5 162.59,-112.5 23.59,-112.5"/>
<text text-anchor="middle" x="93.09" y="-119.5" font-family="Helvetica,sans-Serif" font-size="10.00">perceptualcolorinternal.h</text>
</a>
</g>
</g>
<!-- Node1&#45;&gt;Node4 -->
<g id="edge3" class="edge">
<title>Node1&#45;&gt;Node4</title>
<path fill="none" stroke="midnightblue" d="M263.7,-224.5C246.84,-215.66 219.89,-201.29 197.09,-188 168.25,-171.19 135.72,-150.59 114.84,-137.14"/>
<polygon fill="midnightblue" stroke="midnightblue" points="116.69,-134.17 106.39,-131.68 112.89,-140.05 116.69,-134.17"/>
</g>
<!-- Node5 -->
<g id="node5" class="node">
<title>Node5</title>
<g id="a_node5"><a xlink:title=" ">
<polygon fill="white" stroke="#bfbfbf" points="206.59,-168.5 206.59,-187.5 261.59,-187.5 261.59,-168.5 206.59,-168.5"/>
<text text-anchor="middle" x="234.09" y="-175.5" font-family="Helvetica,sans-Serif" font-size="10.00">QImage</text>
</a>
</g>
</g>
<!-- Node1&#45;&gt;Node5 -->
<g id="edge5" class="edge">
<title>Node1&#45;&gt;Node5</title>
<path fill="none" stroke="midnightblue" d="M272.49,-224.08C265.86,-216.3 256.07,-204.8 248.03,-195.37"/>
<polygon fill="midnightblue" stroke="midnightblue" points="250.69,-193.09 241.54,-187.75 245.36,-197.63 250.69,-193.09"/>
</g>
<!-- Node6 -->
<g id="node6" class="node">
<title>Node6</title>
<g id="a_node6"><a xlink:title=" ">
<polygon fill="white" stroke="#bfbfbf" points="280.09,-168.5 280.09,-187.5 372.09,-187.5 372.09,-168.5 280.09,-168.5"/>
<text text-anchor="middle" x="326.09" y="-175.5" font-family="Helvetica,sans-Serif" font-size="10.00">QSharedPointer</text>
</a>
</g>
</g>
<!-- Node1&#45;&gt;Node6 -->
<g id="edge6" class="edge">
<title>Node1&#45;&gt;Node6</title>
<path fill="none" stroke="midnightblue" d="M287.68,-224.08C294.32,-216.3 304.11,-204.8 312.15,-195.37"/>
<polygon fill="midnightblue" stroke="midnightblue" points="314.81,-197.63 318.63,-187.75 309.49,-193.09 314.81,-197.63"/>
</g>
<!-- Node7 -->
<g id="node7" class="node">
<title>Node7</title>
<g id="a_node7"><a xlink:href="lchadouble_8h.html" target="_top" xlink:title=" ">
<polygon fill="white" stroke="black" points="813.59,-112.5 813.59,-131.5 972.59,-131.5 972.59,-112.5 813.59,-112.5"/>
<text text-anchor="middle" x="893.09" y="-119.5" font-family="Helvetica,sans-Serif" font-size="10.00">PerceptualColor/lchadouble.h</text>
</a>
</g>
</g>
<!-- Node1&#45;&gt;Node7 -->
<g id="edge7" class="edge">
<title>Node1&#45;&gt;Node7</title>
<path fill="none" stroke="midnightblue" d="M333.43,-224.47C387.93,-215.66 475,-201.37 550.09,-188 652.82,-169.71 772.5,-146.62 839.88,-133.46"/>
<polygon fill="midnightblue" stroke="midnightblue" points="840.69,-136.87 849.83,-131.52 839.34,-130 840.69,-136.87"/>
</g>
<!-- Node9 -->
<g id="node9" class="node">
<title>Node9</title>
<g id="a_node9"><a xlink:href="rgbcolorspace_8h.html" target="_top" xlink:title=" ">
<polygon fill="white" stroke="black" points="447.09,-168.5 447.09,-187.5 541.09,-187.5 541.09,-168.5 447.09,-168.5"/>
<text text-anchor="middle" x="494.09" y="-175.5" font-family="Helvetica,sans-Serif" font-size="10.00">rgbcolorspace.h</text>
</a>
</g>
</g>
<!-- Node1&#45;&gt;Node9 -->
<g id="edge10" class="edge">
<title>Node1&#45;&gt;Node9</title>
<path fill="none" stroke="midnightblue" d="M314,-224.44C350.94,-215.12 410.14,-200.18 450.51,-190"/>
<polygon fill="midnightblue" stroke="midnightblue" points="451.5,-193.36 460.34,-187.52 449.79,-186.57 451.5,-193.36"/>
</g>
<!-- Node3 -->
<g id="node3" class="node">
<title>Node3</title>
<g id="a_node3"><a xlink:title=" ">
<polygon fill="white" stroke="#bfbfbf" points="434.59,-0.5 434.59,-19.5 493.59,-19.5 493.59,-0.5 434.59,-0.5"/>
<text text-anchor="middle" x="464.09" y="-7.5" font-family="Helvetica,sans-Serif" font-size="10.00">QtGlobal</text>
</a>
</g>
</g>
<!-- Node2&#45;&gt;Node3 -->
<g id="edge2" class="edge">
<title>Node2&#45;&gt;Node3</title>
<path fill="none" stroke="midnightblue" d="M464.09,-56.08C464.09,-49.01 464.09,-38.86 464.09,-29.99"/>
<polygon fill="midnightblue" stroke="midnightblue" points="467.59,-29.75 464.09,-19.75 460.59,-29.75 467.59,-29.75"/>
</g>
<!-- Node4&#45;&gt;Node2 -->
<g id="edge4" class="edge">
<title>Node4&#45;&gt;Node2</title>
<path fill="none" stroke="midnightblue" d="M151.87,-112.44C218.09,-102.81 325.56,-87.16 395.53,-76.98"/>
<polygon fill="midnightblue" stroke="midnightblue" points="396.19,-80.42 405.58,-75.52 395.18,-73.49 396.19,-80.42"/>
</g>
<!-- Node7&#45;&gt;Node2 -->
<g id="edge8" class="edge">
<title>Node7&#45;&gt;Node2</title>
<path fill="none" stroke="midnightblue" d="M825.11,-112.44C748.08,-102.75 622.75,-86.97 541.87,-76.79"/>
<polygon fill="midnightblue" stroke="midnightblue" points="542.11,-73.29 531.75,-75.52 541.23,-80.24 542.11,-73.29"/>
</g>
<!-- Node8 -->
<g id="node8" class="node">
<title>Node8</title>
<g id="a_node8"><a xlink:title=" ">
<polygon fill="white" stroke="#bfbfbf" points="778.09,-56.5 778.09,-75.5 834.09,-75.5 834.09,-56.5 778.09,-56.5"/>
<text text-anchor="middle" x="806.09" y="-63.5" font-family="Helvetica,sans-Serif" font-size="10.00">QDebug</text>
</a>
</g>
</g>
<!-- Node7&#45;&gt;Node8 -->
<g id="edge9" class="edge">
<title>Node7&#45;&gt;Node8</title>
<path fill="none" stroke="midnightblue" d="M879.11,-112.32C865.54,-103.9 844.71,-90.97 828.76,-81.07"/>
<polygon fill="midnightblue" stroke="midnightblue" points="830.37,-77.95 820.03,-75.65 826.68,-83.9 830.37,-77.95"/>
</g>
<!-- Node9&#45;&gt;Node2 -->
<g id="edge11" class="edge">
<title>Node9&#45;&gt;Node2</title>
<path fill="none" stroke="midnightblue" d="M491.73,-168.37C486.87,-150.54 475.62,-109.3 469.07,-85.27"/>
<polygon fill="midnightblue" stroke="midnightblue" points="472.44,-84.32 466.43,-75.59 465.69,-86.16 472.44,-84.32"/>
</g>
<!-- Node9&#45;&gt;Node4 -->
<g id="edge12" class="edge">
<title>Node9&#45;&gt;Node4</title>
<path fill="none" stroke="midnightblue" d="M446.91,-170.65C377.72,-161.33 248.1,-143.87 166.42,-132.88"/>
<polygon fill="midnightblue" stroke="midnightblue" points="166.59,-129.37 156.22,-131.5 165.66,-136.3 166.59,-129.37"/>
</g>
<!-- Node9&#45;&gt;Node7 -->
<g id="edge17" class="edge">
<title>Node9&#45;&gt;Node7</title>
<path fill="none" stroke="midnightblue" d="M541.43,-170.59C610.32,-161.27 738.81,-143.88 819.93,-132.9"/>
<polygon fill="midnightblue" stroke="midnightblue" points="820.63,-136.34 830.07,-131.53 819.69,-129.4 820.63,-136.34"/>
</g>
<!-- Node10 -->
<g id="node10" class="node">
<title>Node10</title>
<g id="a_node10"><a xlink:title=" ">
<polygon fill="white" stroke="#bfbfbf" points="568.09,-112.5 568.09,-131.5 624.09,-131.5 624.09,-112.5 568.09,-112.5"/>
<text text-anchor="middle" x="596.09" y="-119.5" font-family="Helvetica,sans-Serif" font-size="10.00">QObject</text>
</a>
</g>
</g>
<!-- Node9&#45;&gt;Node10 -->
<g id="edge13" class="edge">
<title>Node9&#45;&gt;Node10</title>
<path fill="none" stroke="midnightblue" d="M510.48,-168.32C526.76,-159.7 551.96,-146.36 570.81,-136.39"/>
<polygon fill="midnightblue" stroke="midnightblue" points="572.54,-139.43 579.74,-131.65 569.27,-133.24 572.54,-139.43"/>
</g>
<!-- Node11 -->
<g id="node11" class="node">
<title>Node11</title>
<g id="a_node11"><a xlink:href="constpropagatinguniquepointer_8h.html" target="_top" xlink:title=" ">
<polygon fill="white" stroke="black" points="180.59,-112.5 180.59,-131.5 437.59,-131.5 437.59,-112.5 180.59,-112.5"/>
<text text-anchor="middle" x="309.09" y="-119.5" font-family="Helvetica,sans-Serif" font-size="10.00">PerceptualColor/constpropagatinguniquepointer.h</text>
</a>
</g>
</g>
<!-- Node9&#45;&gt;Node11 -->
<g id="edge14" class="edge">
<title>Node9&#45;&gt;Node11</title>
<path fill="none" stroke="midnightblue" d="M464.78,-168.44C433.25,-159.24 382.96,-144.56 348.1,-134.39"/>
<polygon fill="midnightblue" stroke="midnightblue" points="348.85,-130.96 338.27,-131.52 346.88,-137.68 348.85,-130.96"/>
</g>
<!-- Node13 -->
<g id="node13" class="node">
<title>Node13</title>
<g id="a_node13"><a xlink:href="lchdouble_8h.html" target="_top" xlink:title=" ">
<polygon fill="white" stroke="black" points="642.59,-112.5 642.59,-131.5 795.59,-131.5 795.59,-112.5 642.59,-112.5"/>
<text text-anchor="middle" x="719.09" y="-119.5" font-family="Helvetica,sans-Serif" font-size="10.00">PerceptualColor/lchdouble.h</text>
</a>
</g>
</g>
<!-- Node9&#45;&gt;Node13 -->
<g id="edge18" class="edge">
<title>Node9&#45;&gt;Node13</title>
<path fill="none" stroke="midnightblue" d="M529.74,-168.44C568.74,-159.08 631.36,-144.06 673.81,-133.87"/>
<polygon fill="midnightblue" stroke="midnightblue" points="674.7,-137.25 683.6,-131.52 673.06,-130.45 674.7,-137.25"/>
</g>
<!-- Node14 -->
<g id="node14" class="node">
<title>Node14</title>
<g id="a_node14"><a xlink:title=" ">
<polygon fill="white" stroke="#bfbfbf" points="494.59,-112.5 494.59,-131.5 549.59,-131.5 549.59,-112.5 494.59,-112.5"/>
<text text-anchor="middle" x="522.09" y="-119.5" font-family="Helvetica,sans-Serif" font-size="10.00">lcms2.h</text>
</a>
</g>
</g>
<!-- Node9&#45;&gt;Node14 -->
<g id="edge21" class="edge">
<title>Node9&#45;&gt;Node14</title>
<path fill="none" stroke="midnightblue" d="M498.71,-168.08C502.55,-160.69 508.11,-149.95 512.85,-140.81"/>
<polygon fill="midnightblue" stroke="midnightblue" points="516.06,-142.24 517.55,-131.75 509.84,-139.02 516.06,-142.24"/>
</g>
<!-- Node11&#45;&gt;Node2 -->
<g id="edge15" class="edge">
<title>Node11&#45;&gt;Node2</title>
<path fill="none" stroke="midnightblue" d="M333.65,-112.44C359.61,-103.4 400.76,-89.06 429.89,-78.92"/>
<polygon fill="midnightblue" stroke="midnightblue" points="431.35,-82.11 439.64,-75.52 429.05,-75.5 431.35,-82.11"/>
</g>
<!-- Node12 -->
<g id="node12" class="node">
<title>Node12</title>
<g id="a_node12"><a xlink:title=" ">
<polygon fill="white" stroke="#bfbfbf" points="280.09,-56.5 280.09,-75.5 338.09,-75.5 338.09,-56.5 280.09,-56.5"/>
<text text-anchor="middle" x="309.09" y="-63.5" font-family="Helvetica,sans-Serif" font-size="10.00">memory</text>
</a>
</g>
</g>
<!-- Node11&#45;&gt;Node12 -->
<g id="edge16" class="edge">
<title>Node11&#45;&gt;Node12</title>
<path fill="none" stroke="midnightblue" d="M309.09,-112.08C309.09,-105.01 309.09,-94.86 309.09,-85.99"/>
<polygon fill="midnightblue" stroke="midnightblue" points="312.59,-85.75 309.09,-75.75 305.59,-85.75 312.59,-85.75"/>
</g>
<!-- Node13&#45;&gt;Node2 -->
<g id="edge19" class="edge">
<title>Node13&#45;&gt;Node2</title>
<path fill="none" stroke="midnightblue" d="M678.68,-112.44C634.11,-103 562.32,-87.8 514.2,-77.61"/>
<polygon fill="midnightblue" stroke="midnightblue" points="514.81,-74.16 504.31,-75.52 513.36,-81.01 514.81,-74.16"/>
</g>
<!-- Node13&#45;&gt;Node8 -->
<g id="edge20" class="edge">
<title>Node13&#45;&gt;Node8</title>
<path fill="none" stroke="midnightblue" d="M733.07,-112.32C746.64,-103.9 767.47,-90.97 783.41,-81.07"/>
<polygon fill="midnightblue" stroke="midnightblue" points="785.49,-83.9 792.15,-75.65 781.8,-77.95 785.49,-83.9"/>
</g>
</g>
</svg>
