<?xml version="1.0" encoding="UTF-8" standalone="no"?>
<!DOCTYPE svg PUBLIC "-//W3C//DTD SVG 1.1//EN"
 "http://www.w3.org/Graphics/SVG/1.1/DTD/svg11.dtd">
<!-- Generated by graphviz version 2.43.0 (0)
 -->
<!-- Title: src/helper.h Pages: 1 -->
<svg width="622pt" height="196pt"
 viewBox="0.00 0.00 622.30 196.00" xmlns="http://www.w3.org/2000/svg" xmlns:xlink="http://www.w3.org/1999/xlink">
<g id="graph0" class="graph" transform="scale(1 1) rotate(0) translate(4 192)">
<title>src/helper.h</title>
<polygon fill="white" stroke="transparent" points="-4,4 -4,-192 618.3,-192 618.3,4 -4,4"/>
<!-- Node1 -->
<g id="node1" class="node">
<title>Node1</title>
<g id="a_node1"><a xlink:title="Various smaller help elements.">
<polygon fill="#bfbfbf" stroke="black" points="205.3,-168.5 205.3,-187.5 278.3,-187.5 278.3,-168.5 205.3,-168.5"/>
<text text-anchor="middle" x="241.8" y="-175.5" font-family="Helvetica,sans-Serif" font-size="10.00">src/helper.h</text>
</a>
</g>
</g>
<!-- Node2 -->
<g id="node2" class="node">
<title>Node2</title>
<g id="a_node2"><a xlink:href="perceptualcolorglobal_8h.html" target="_top" xlink:title=" ">
<polygon fill="white" stroke="black" points="48.8,-56.5 48.8,-75.5 260.8,-75.5 260.8,-56.5 48.8,-56.5"/>
<text text-anchor="middle" x="154.8" y="-63.5" font-family="Helvetica,sans-Serif" font-size="10.00">PerceptualColor/perceptualcolorglobal.h</text>
</a>
</g>
</g>
<!-- Node1&#45;&gt;Node2 -->
<g id="edge1" class="edge">
<title>Node1&#45;&gt;Node2</title>
<path fill="none" stroke="midnightblue" d="M234.62,-168.44C227.1,-159.44 215,-144.82 204.8,-132 191.98,-115.89 177.69,-97.23 167.68,-84.05"/>
<polygon fill="midnightblue" stroke="midnightblue" points="170.33,-81.76 161.5,-75.9 164.75,-85.99 170.33,-81.76"/>
</g>
<!-- Node3 -->
<g id="node3" class="node">
<title>Node3</title>
<g id="a_node3"><a xlink:title=" ">
<polygon fill="white" stroke="#bfbfbf" points="58.3,-0.5 58.3,-19.5 117.3,-19.5 117.3,-0.5 58.3,-0.5"/>
<text text-anchor="middle" x="87.8" y="-7.5" font-family="Helvetica,sans-Serif" font-size="10.00">QtGlobal</text>
</a>
</g>
</g>
<!-- Node1&#45;&gt;Node3 -->
<g id="edge7" class="edge">
<title>Node1&#45;&gt;Node3</title>
<path fill="none" stroke="midnightblue" d="M205.01,-175.4C145.74,-171.97 33.25,-161.63 8.8,-132 -20.69,-96.27 33.46,-49.14 65.93,-25.64"/>
<polygon fill="midnightblue" stroke="midnightblue" points="68.26,-28.28 74.43,-19.66 64.24,-22.55 68.26,-28.28"/>
</g>
<!-- Node4 -->
<g id="node4" class="node">
<title>Node4</title>
<g id="a_node4"><a xlink:href="perceptualcolorinternal_8h.html" target="_top" xlink:title=" ">
<polygon fill="white" stroke="black" points="18.3,-112.5 18.3,-131.5 157.3,-131.5 157.3,-112.5 18.3,-112.5"/>
<text text-anchor="middle" x="87.8" y="-119.5" font-family="Helvetica,sans-Serif" font-size="10.00">perceptualcolorinternal.h</text>
</a>
</g>
</g>
<!-- Node1&#45;&gt;Node4 -->
<g id="edge3" class="edge">
<title>Node1&#45;&gt;Node4</title>
<path fill="none" stroke="midnightblue" d="M217.4,-168.44C191.6,-159.4 150.72,-145.06 121.78,-134.92"/>
<polygon fill="midnightblue" stroke="midnightblue" points="122.68,-131.52 112.09,-131.52 120.36,-138.13 122.68,-131.52"/>
</g>
<!-- Node5 -->
<g id="node5" class="node">
<title>Node5</title>
<g id="a_node5"><a xlink:title=" ">
<polygon fill="white" stroke="#bfbfbf" points="214.3,-112.5 214.3,-131.5 269.3,-131.5 269.3,-112.5 214.3,-112.5"/>
<text text-anchor="middle" x="241.8" y="-119.5" font-family="Helvetica,sans-Serif" font-size="10.00">QImage</text>
</a>
</g>
</g>
<!-- Node1&#45;&gt;Node5 -->
<g id="edge5" class="edge">
<title>Node1&#45;&gt;Node5</title>
<path fill="none" stroke="midnightblue" d="M241.8,-168.08C241.8,-161.01 241.8,-150.86 241.8,-141.99"/>
<polygon fill="midnightblue" stroke="midnightblue" points="245.3,-141.75 241.8,-131.75 238.3,-141.75 245.3,-141.75"/>
</g>
<!-- Node6 -->
<g id="node6" class="node">
<title>Node6</title>
<g id="a_node6"><a xlink:title=" ">
<polygon fill="white" stroke="#bfbfbf" points="287.3,-112.5 287.3,-131.5 370.3,-131.5 370.3,-112.5 287.3,-112.5"/>
<text text-anchor="middle" x="328.8" y="-119.5" font-family="Helvetica,sans-Serif" font-size="10.00">QWheelEvent</text>
</a>
</g>
</g>
<!-- Node1&#45;&gt;Node6 -->
<g id="edge6" class="edge">
<title>Node1&#45;&gt;Node6</title>
<path fill="none" stroke="midnightblue" d="M255.78,-168.32C269.35,-159.9 290.18,-146.97 306.12,-137.07"/>
<polygon fill="midnightblue" stroke="midnightblue" points="308.2,-139.9 314.85,-131.65 304.51,-133.95 308.2,-139.9"/>
</g>
<!-- Node7 -->
<g id="node7" class="node">
<title>Node7</title>
<g id="a_node7"><a xlink:href="lchdouble_8h.html" target="_top" xlink:title=" ">
<polygon fill="white" stroke="black" points="388.3,-112.5 388.3,-131.5 541.3,-131.5 541.3,-112.5 388.3,-112.5"/>
<text text-anchor="middle" x="464.8" y="-119.5" font-family="Helvetica,sans-Serif" font-size="10.00">PerceptualColor/lchdouble.h</text>
</a>
</g>
</g>
<!-- Node1&#45;&gt;Node7 -->
<g id="edge8" class="edge">
<title>Node1&#45;&gt;Node7</title>
<path fill="none" stroke="midnightblue" d="M277.13,-168.44C315.71,-159.1 377.58,-144.12 419.65,-133.93"/>
<polygon fill="midnightblue" stroke="midnightblue" points="420.73,-137.27 429.63,-131.52 419.09,-130.47 420.73,-137.27"/>
</g>
<!-- Node9 -->
<g id="node9" class="node">
<title>Node9</title>
<g id="a_node9"><a xlink:title=" ">
<polygon fill="white" stroke="#bfbfbf" points="559.3,-112.5 559.3,-131.5 614.3,-131.5 614.3,-112.5 559.3,-112.5"/>
<text text-anchor="middle" x="586.8" y="-119.5" font-family="Helvetica,sans-Serif" font-size="10.00">lcms2.h</text>
</a>
</g>
</g>
<!-- Node1&#45;&gt;Node9 -->
<g id="edge11" class="edge">
<title>Node1&#45;&gt;Node9</title>
<path fill="none" stroke="midnightblue" d="M278.63,-172.85C334.94,-166.24 445.98,-152.17 549.01,-132.21"/>
<polygon fill="midnightblue" stroke="midnightblue" points="549.81,-135.61 558.95,-130.25 548.47,-128.75 549.81,-135.61"/>
</g>
<!-- Node2&#45;&gt;Node3 -->
<g id="edge2" class="edge">
<title>Node2&#45;&gt;Node3</title>
<path fill="none" stroke="midnightblue" d="M144.03,-56.32C134.03,-48.26 118.91,-36.08 106.87,-26.37"/>
<polygon fill="midnightblue" stroke="midnightblue" points="108.74,-23.38 98.76,-19.83 104.35,-28.83 108.74,-23.38"/>
</g>
<!-- Node4&#45;&gt;Node2 -->
<g id="edge4" class="edge">
<title>Node4&#45;&gt;Node2</title>
<path fill="none" stroke="midnightblue" d="M98.56,-112.32C108.56,-104.26 123.68,-92.08 135.73,-82.37"/>
<polygon fill="midnightblue" stroke="midnightblue" points="138.25,-84.83 143.84,-75.83 133.85,-79.38 138.25,-84.83"/>
</g>
<!-- Node7&#45;&gt;Node2 -->
<g id="edge9" class="edge">
<title>Node7&#45;&gt;Node2</title>
<path fill="none" stroke="midnightblue" d="M415.68,-112.44C360.92,-102.9 272.39,-87.48 213.89,-77.29"/>
<polygon fill="midnightblue" stroke="midnightblue" points="214.14,-73.78 203.69,-75.52 212.94,-80.68 214.14,-73.78"/>
</g>
<!-- Node8 -->
<g id="node8" class="node">
<title>Node8</title>
<g id="a_node8"><a xlink:title=" ">
<polygon fill="white" stroke="#bfbfbf" points="436.8,-56.5 436.8,-75.5 492.8,-75.5 492.8,-56.5 436.8,-56.5"/>
<text text-anchor="middle" x="464.8" y="-63.5" font-family="Helvetica,sans-Serif" font-size="10.00">QDebug</text>
</a>
</g>
</g>
<!-- Node7&#45;&gt;Node8 -->
<g id="edge10" class="edge">
<title>Node7&#45;&gt;Node8</title>
<path fill="none" stroke="midnightblue" d="M464.8,-112.08C464.8,-105.01 464.8,-94.86 464.8,-85.99"/>
<polygon fill="midnightblue" stroke="midnightblue" points="468.3,-85.75 464.8,-75.75 461.3,-85.75 468.3,-85.75"/>
</g>
</g>
</svg>
