<?xml version="1.0" encoding="UTF-8" standalone="no"?>
<!DOCTYPE svg PUBLIC "-//W3C//DTD SVG 1.1//EN"
 "http://www.w3.org/Graphics/SVG/1.1/DTD/svg11.dtd">
<!-- Generated by graphviz version 2.43.0 (0)
 -->
<!-- Title: src/helper.cpp Pages: 1 -->
<svg width="808pt" height="252pt"
 viewBox="0.00 0.00 808.49 252.00" xmlns="http://www.w3.org/2000/svg" xmlns:xlink="http://www.w3.org/1999/xlink">
<g id="graph0" class="graph" transform="scale(1 1) rotate(0) translate(4 248)">
<title>src/helper.cpp</title>
<polygon fill="white" stroke="transparent" points="-4,4 -4,-248 804.49,-248 804.49,4 -4,4"/>
<!-- Node1 -->
<g id="node1" class="node">
<title>Node1</title>
<g id="a_node1"><a xlink:title=" ">
<polygon fill="#bfbfbf" stroke="black" points="602.99,-224.5 602.99,-243.5 686.99,-243.5 686.99,-224.5 602.99,-224.5"/>
<text text-anchor="middle" x="644.99" y="-231.5" font-family="Helvetica,sans-Serif" font-size="10.00">src/helper.cpp</text>
</a>
</g>
</g>
<!-- Node2 -->
<g id="node2" class="node">
<title>Node2</title>
<g id="a_node2"><a xlink:href="perceptualcolorglobal_8h.html" target="_top" xlink:title=" ">
<polygon fill="white" stroke="black" points="269.99,-56.5 269.99,-75.5 481.99,-75.5 481.99,-56.5 269.99,-56.5"/>
<text text-anchor="middle" x="375.99" y="-63.5" font-family="Helvetica,sans-Serif" font-size="10.00">PerceptualColor/perceptualcolorglobal.h</text>
</a>
</g>
</g>
<!-- Node1&#45;&gt;Node2 -->
<g id="edge1" class="edge">
<title>Node1&#45;&gt;Node2</title>
<path fill="none" stroke="midnightblue" d="M646.66,-224.22C650.32,-202.01 656.47,-143.17 625.99,-112 606.94,-92.52 548.02,-81.36 492.17,-75.03"/>
<polygon fill="midnightblue" stroke="midnightblue" points="492.47,-71.54 482.15,-73.94 491.71,-78.5 492.47,-71.54"/>
</g>
<!-- Node4 -->
<g id="node4" class="node">
<title>Node4</title>
<g id="a_node4"><a xlink:href="perceptualcolorinternal_8h.html" target="_top" xlink:title=" ">
<polygon fill="white" stroke="black" points="477.49,-112.5 477.49,-131.5 616.49,-131.5 616.49,-112.5 477.49,-112.5"/>
<text text-anchor="middle" x="546.99" y="-119.5" font-family="Helvetica,sans-Serif" font-size="10.00">perceptualcolorinternal.h</text>
</a>
</g>
</g>
<!-- Node1&#45;&gt;Node4 -->
<g id="edge3" class="edge">
<title>Node1&#45;&gt;Node4</title>
<path fill="none" stroke="midnightblue" d="M637.3,-224.37C620.98,-206.05 582.67,-163.05 561.57,-139.36"/>
<polygon fill="midnightblue" stroke="midnightblue" points="563.91,-136.73 554.64,-131.59 558.68,-141.39 563.91,-136.73"/>
</g>
<!-- Node5 -->
<g id="node5" class="node">
<title>Node5</title>
<g id="a_node5"><a xlink:href="helper_8h.html" target="_top" xlink:title="Various smaller help elements.">
<polygon fill="white" stroke="black" points="312.99,-168.5 312.99,-187.5 368.99,-187.5 368.99,-168.5 312.99,-168.5"/>
<text text-anchor="middle" x="340.99" y="-175.5" font-family="Helvetica,sans-Serif" font-size="10.00">helper.h</text>
</a>
</g>
</g>
<!-- Node1&#45;&gt;Node5 -->
<g id="edge5" class="edge">
<title>Node1&#45;&gt;Node5</title>
<path fill="none" stroke="midnightblue" d="M602.72,-225.49C543.44,-214.96 436.46,-195.96 379.36,-185.82"/>
<polygon fill="midnightblue" stroke="midnightblue" points="379.76,-182.33 369.3,-184.03 378.53,-189.22 379.76,-182.33"/>
</g>
<!-- Node11 -->
<g id="node11" class="node">
<title>Node11</title>
<g id="a_node11"><a xlink:title=" ">
<polygon fill="white" stroke="#bfbfbf" points="672.99,-168.5 672.99,-187.5 730.99,-187.5 730.99,-168.5 672.99,-168.5"/>
<text text-anchor="middle" x="701.99" y="-175.5" font-family="Helvetica,sans-Serif" font-size="10.00">QPainter</text>
</a>
</g>
</g>
<!-- Node1&#45;&gt;Node11 -->
<g id="edge15" class="edge">
<title>Node1&#45;&gt;Node11</title>
<path fill="none" stroke="midnightblue" d="M654.15,-224.32C662.49,-216.42 675.02,-204.55 685.17,-194.94"/>
<polygon fill="midnightblue" stroke="midnightblue" points="687.81,-197.25 692.67,-187.83 683,-192.17 687.81,-197.25"/>
</g>
<!-- Node12 -->
<g id="node12" class="node">
<title>Node12</title>
<g id="a_node12"><a xlink:title=" ">
<polygon fill="white" stroke="#bfbfbf" points="749.49,-168.5 749.49,-187.5 800.49,-187.5 800.49,-168.5 749.49,-168.5"/>
<text text-anchor="middle" x="774.99" y="-175.5" font-family="Helvetica,sans-Serif" font-size="10.00">math.h</text>
</a>
</g>
</g>
<!-- Node1&#45;&gt;Node12 -->
<g id="edge16" class="edge">
<title>Node1&#45;&gt;Node12</title>
<path fill="none" stroke="midnightblue" d="M665.59,-224.44C686.98,-215.56 720.67,-201.56 745.01,-191.45"/>
<polygon fill="midnightblue" stroke="midnightblue" points="746.59,-194.58 754.49,-187.52 743.91,-188.12 746.59,-194.58"/>
</g>
<!-- Node3 -->
<g id="node3" class="node">
<title>Node3</title>
<g id="a_node3"><a xlink:title=" ">
<polygon fill="white" stroke="#bfbfbf" points="154.49,-0.5 154.49,-19.5 213.49,-19.5 213.49,-0.5 154.49,-0.5"/>
<text text-anchor="middle" x="183.99" y="-7.5" font-family="Helvetica,sans-Serif" font-size="10.00">QtGlobal</text>
</a>
</g>
</g>
<!-- Node2&#45;&gt;Node3 -->
<g id="edge2" class="edge">
<title>Node2&#45;&gt;Node3</title>
<path fill="none" stroke="midnightblue" d="M345.57,-56.44C312.51,-47.15 259.59,-32.26 223.38,-22.08"/>
<polygon fill="midnightblue" stroke="midnightblue" points="224.21,-18.68 213.64,-19.34 222.32,-25.42 224.21,-18.68"/>
</g>
<!-- Node4&#45;&gt;Node2 -->
<g id="edge4" class="edge">
<title>Node4&#45;&gt;Node2</title>
<path fill="none" stroke="midnightblue" d="M519.89,-112.44C491,-103.32 445.07,-88.81 412.88,-78.65"/>
<polygon fill="midnightblue" stroke="midnightblue" points="413.55,-75.19 402.96,-75.52 411.44,-81.87 413.55,-75.19"/>
</g>
<!-- Node5&#45;&gt;Node2 -->
<g id="edge6" class="edge">
<title>Node5&#45;&gt;Node2</title>
<path fill="none" stroke="midnightblue" d="M344.2,-168.42C347.55,-159.41 352.85,-144.78 356.99,-132 362.02,-116.44 367.2,-98.61 370.87,-85.56"/>
<polygon fill="midnightblue" stroke="midnightblue" points="374.25,-86.45 373.57,-75.88 367.51,-84.57 374.25,-86.45"/>
</g>
<!-- Node5&#45;&gt;Node3 -->
<g id="edge10" class="edge">
<title>Node5&#45;&gt;Node3</title>
<path fill="none" stroke="midnightblue" d="M312.89,-177.65C240.43,-178.67 50.2,-176.92 10.99,-132 -34.42,-79.97 80.73,-38.98 144.69,-20.97"/>
<polygon fill="midnightblue" stroke="midnightblue" points="145.77,-24.3 154.49,-18.28 143.92,-17.55 145.77,-24.3"/>
</g>
<!-- Node5&#45;&gt;Node4 -->
<g id="edge7" class="edge">
<title>Node5&#45;&gt;Node4</title>
<path fill="none" stroke="midnightblue" d="M369.2,-169.6C404.15,-160.44 464.01,-144.75 504.52,-134.13"/>
<polygon fill="midnightblue" stroke="midnightblue" points="505.58,-137.47 514.37,-131.55 503.81,-130.7 505.58,-137.47"/>
</g>
<!-- Node6 -->
<g id="node6" class="node">
<title>Node6</title>
<g id="a_node6"><a xlink:title=" ">
<polygon fill="white" stroke="#bfbfbf" points="191.49,-112.5 191.49,-131.5 246.49,-131.5 246.49,-112.5 191.49,-112.5"/>
<text text-anchor="middle" x="218.99" y="-119.5" font-family="Helvetica,sans-Serif" font-size="10.00">QImage</text>
</a>
</g>
</g>
<!-- Node5&#45;&gt;Node6 -->
<g id="edge8" class="edge">
<title>Node5&#45;&gt;Node6</title>
<path fill="none" stroke="midnightblue" d="M321.66,-168.44C301.67,-159.6 270.25,-145.69 247.43,-135.59"/>
<polygon fill="midnightblue" stroke="midnightblue" points="248.79,-132.36 238.23,-131.52 245.96,-138.76 248.79,-132.36"/>
</g>
<!-- Node7 -->
<g id="node7" class="node">
<title>Node7</title>
<g id="a_node7"><a xlink:title=" ">
<polygon fill="white" stroke="#bfbfbf" points="264.49,-112.5 264.49,-131.5 347.49,-131.5 347.49,-112.5 264.49,-112.5"/>
<text text-anchor="middle" x="305.99" y="-119.5" font-family="Helvetica,sans-Serif" font-size="10.00">QWheelEvent</text>
</a>
</g>
</g>
<!-- Node5&#45;&gt;Node7 -->
<g id="edge9" class="edge">
<title>Node5&#45;&gt;Node7</title>
<path fill="none" stroke="midnightblue" d="M335.21,-168.08C330.32,-160.53 323.16,-149.49 317.16,-140.23"/>
<polygon fill="midnightblue" stroke="midnightblue" points="320.04,-138.24 311.66,-131.75 314.16,-142.05 320.04,-138.24"/>
</g>
<!-- Node8 -->
<g id="node8" class="node">
<title>Node8</title>
<g id="a_node8"><a xlink:href="lchdouble_8h.html" target="_top" xlink:title=" ">
<polygon fill="white" stroke="black" points="20.49,-112.5 20.49,-131.5 173.49,-131.5 173.49,-112.5 20.49,-112.5"/>
<text text-anchor="middle" x="96.99" y="-119.5" font-family="Helvetica,sans-Serif" font-size="10.00">PerceptualColor/lchdouble.h</text>
</a>
</g>
</g>
<!-- Node5&#45;&gt;Node8 -->
<g id="edge11" class="edge">
<title>Node5&#45;&gt;Node8</title>
<path fill="none" stroke="midnightblue" d="M312.52,-170.7C271.59,-161.64 195.57,-144.82 145.63,-133.76"/>
<polygon fill="midnightblue" stroke="midnightblue" points="146.22,-130.31 135.7,-131.57 144.71,-137.14 146.22,-130.31"/>
</g>
<!-- Node10 -->
<g id="node10" class="node">
<title>Node10</title>
<g id="a_node10"><a xlink:title=" ">
<polygon fill="white" stroke="#bfbfbf" points="404.49,-112.5 404.49,-131.5 459.49,-131.5 459.49,-112.5 404.49,-112.5"/>
<text text-anchor="middle" x="431.99" y="-119.5" font-family="Helvetica,sans-Serif" font-size="10.00">lcms2.h</text>
</a>
</g>
</g>
<!-- Node5&#45;&gt;Node10 -->
<g id="edge14" class="edge">
<title>Node5&#45;&gt;Node10</title>
<path fill="none" stroke="midnightblue" d="M355.61,-168.32C369.94,-159.82 392,-146.73 408.74,-136.8"/>
<polygon fill="midnightblue" stroke="midnightblue" points="410.59,-139.77 417.41,-131.65 407.02,-133.75 410.59,-139.77"/>
</g>
<!-- Node8&#45;&gt;Node2 -->
<g id="edge12" class="edge">
<title>Node8&#45;&gt;Node2</title>
<path fill="none" stroke="midnightblue" d="M141.2,-112.44C190.28,-102.94 269.5,-87.61 322.15,-77.42"/>
<polygon fill="midnightblue" stroke="midnightblue" points="322.84,-80.85 331.99,-75.52 321.51,-73.98 322.84,-80.85"/>
</g>
<!-- Node9 -->
<g id="node9" class="node">
<title>Node9</title>
<g id="a_node9"><a xlink:title=" ">
<polygon fill="white" stroke="#bfbfbf" points="68.99,-56.5 68.99,-75.5 124.99,-75.5 124.99,-56.5 68.99,-56.5"/>
<text text-anchor="middle" x="96.99" y="-63.5" font-family="Helvetica,sans-Serif" font-size="10.00">QDebug</text>
</a>
</g>
</g>
<!-- Node8&#45;&gt;Node9 -->
<g id="edge13" class="edge">
<title>Node8&#45;&gt;Node9</title>
<path fill="none" stroke="midnightblue" d="M96.99,-112.08C96.99,-105.01 96.99,-94.86 96.99,-85.99"/>
<polygon fill="midnightblue" stroke="midnightblue" points="100.49,-85.75 96.99,-75.75 93.49,-85.75 100.49,-85.75"/>
</g>
</g>
</svg>
