<?xml version="1.0" encoding="UTF-8" standalone="no"?>
<!DOCTYPE svg PUBLIC "-//W3C//DTD SVG 1.1//EN"
 "http://www.w3.org/Graphics/SVG/1.1/DTD/svg11.dtd">
<!-- Generated by graphviz version 2.43.0 (0)
 -->
<!-- Title: src/helper.h Pages: 1 -->
<svg width="2396pt" height="84pt"
 viewBox="0.00 0.00 2396.00 84.00" xmlns="http://www.w3.org/2000/svg" xmlns:xlink="http://www.w3.org/1999/xlink">
<g id="graph0" class="graph" transform="scale(1 1) rotate(0) translate(4 80)">
<title>src/helper.h</title>
<polygon fill="white" stroke="transparent" points="-4,4 -4,-80 2392,-80 2392,4 -4,4"/>
<!-- Node1 -->
<g id="node1" class="node">
<title>Node1</title>
<g id="a_node1"><a xlink:title="Various smaller help elements.">
<polygon fill="#bfbfbf" stroke="black" points="1154.5,-56.5 1154.5,-75.5 1227.5,-75.5 1227.5,-56.5 1154.5,-56.5"/>
<text text-anchor="middle" x="1191" y="-63.5" font-family="Helvetica,sans-Serif" font-size="10.00">src/helper.h</text>
</a>
</g>
</g>
<!-- Node2 -->
<g id="node2" class="node">
<title>Node2</title>
<g id="a_node2"><a xlink:href="abstractdiagram_8cpp.html" target="_top" xlink:title=" ">
<polygon fill="white" stroke="black" points="0,-0.5 0,-19.5 134,-19.5 134,-0.5 0,-0.5"/>
<text text-anchor="middle" x="67" y="-7.5" font-family="Helvetica,sans-Serif" font-size="10.00">src/abstractdiagram.cpp</text>
</a>
</g>
</g>
<!-- Node1&#45;&gt;Node2 -->
<g id="edge1" class="edge">
<title>Node1&#45;&gt;Node2</title>
<path fill="none" stroke="midnightblue" d="M1144.22,-64.24C996.84,-61.58 529,-51.1 143,-20 140.09,-19.77 137.11,-19.5 134.11,-19.22"/>
<polygon fill="midnightblue" stroke="midnightblue" points="1144.22,-67.74 1154.28,-64.42 1144.34,-60.74 1144.22,-67.74"/>
</g>
<!-- Node3 -->
<g id="node3" class="node">
<title>Node3</title>
<g id="a_node3"><a xlink:href="chromahuediagram_8cpp.html" target="_top" xlink:title=" ">
<polygon fill="white" stroke="black" points="152.5,-0.5 152.5,-19.5 301.5,-19.5 301.5,-0.5 152.5,-0.5"/>
<text text-anchor="middle" x="227" y="-7.5" font-family="Helvetica,sans-Serif" font-size="10.00">src/chromahuediagram.cpp</text>
</a>
</g>
</g>
<!-- Node1&#45;&gt;Node3 -->
<g id="edge2" class="edge">
<title>Node1&#45;&gt;Node3</title>
<path fill="none" stroke="midnightblue" d="M1144.38,-63.53C1013.1,-59.19 629.12,-45.16 311,-20 307.93,-19.76 304.8,-19.49 301.63,-19.21"/>
<polygon fill="midnightblue" stroke="midnightblue" points="1144.38,-67.03 1154.49,-63.86 1144.61,-60.04 1144.38,-67.03"/>
</g>
<!-- Node4 -->
<g id="node4" class="node">
<title>Node4</title>
<g id="a_node4"><a xlink:href="chromahueimage_8cpp.html" target="_top" xlink:title=" ">
<polygon fill="white" stroke="black" points="320,-0.5 320,-19.5 460,-19.5 460,-0.5 320,-0.5"/>
<text text-anchor="middle" x="390" y="-7.5" font-family="Helvetica,sans-Serif" font-size="10.00">src/chromahueimage.cpp</text>
</a>
</g>
</g>
<!-- Node1&#45;&gt;Node4 -->
<g id="edge3" class="edge">
<title>Node1&#45;&gt;Node4</title>
<path fill="none" stroke="midnightblue" d="M1143.9,-62.9C1028.63,-57.58 723.16,-42.38 469,-20 466.11,-19.75 463.17,-19.47 460.19,-19.19"/>
<polygon fill="midnightblue" stroke="midnightblue" points="1143.98,-66.41 1154.13,-63.37 1144.3,-59.42 1143.98,-66.41"/>
</g>
<!-- Node5 -->
<g id="node5" class="node">
<title>Node5</title>
<g id="a_node5"><a xlink:href="chromalightnessdiagram_8cpp.html" target="_top" xlink:title=" ">
<polygon fill="white" stroke="black" points="478,-0.5 478,-19.5 654,-19.5 654,-0.5 478,-0.5"/>
<text text-anchor="middle" x="566" y="-7.5" font-family="Helvetica,sans-Serif" font-size="10.00">src/chromalightnessdiagram.cpp</text>
</a>
</g>
</g>
<!-- Node1&#45;&gt;Node5 -->
<g id="edge4" class="edge">
<title>Node1&#45;&gt;Node5</title>
<path fill="none" stroke="midnightblue" d="M1144.06,-61.12C1051.85,-53.47 840.58,-35.8 663,-20 660.05,-19.74 657.05,-19.47 654.03,-19.2"/>
<polygon fill="midnightblue" stroke="midnightblue" points="1143.93,-64.62 1154.18,-61.96 1144.51,-57.64 1143.93,-64.62"/>
</g>
<!-- Node6 -->
<g id="node6" class="node">
<title>Node6</title>
<g id="a_node6"><a xlink:href="colordialog_8cpp.html" target="_top" xlink:title=" ">
<polygon fill="white" stroke="black" points="672,-0.5 672,-19.5 780,-19.5 780,-0.5 672,-0.5"/>
<text text-anchor="middle" x="726" y="-7.5" font-family="Helvetica,sans-Serif" font-size="10.00">src/colordialog.cpp</text>
</a>
</g>
</g>
<!-- Node1&#45;&gt;Node6 -->
<g id="edge5" class="edge">
<title>Node1&#45;&gt;Node6</title>
<path fill="none" stroke="midnightblue" d="M1144.31,-60.24C1069.32,-52.49 917.41,-36.36 789,-20 786.15,-19.64 783.23,-19.25 780.28,-18.86"/>
<polygon fill="midnightblue" stroke="midnightblue" points="1144.07,-63.73 1154.37,-61.28 1144.78,-56.77 1144.07,-63.73"/>
</g>
<!-- Node7 -->
<g id="node7" class="node">
<title>Node7</title>
<g id="a_node7"><a xlink:href="colorpatch_8cpp.html" target="_top" xlink:title=" ">
<polygon fill="white" stroke="black" points="798.5,-0.5 798.5,-19.5 903.5,-19.5 903.5,-0.5 798.5,-0.5"/>
<text text-anchor="middle" x="851" y="-7.5" font-family="Helvetica,sans-Serif" font-size="10.00">src/colorpatch.cpp</text>
</a>
</g>
</g>
<!-- Node1&#45;&gt;Node7 -->
<g id="edge6" class="edge">
<title>Node1&#45;&gt;Node7</title>
<path fill="none" stroke="midnightblue" d="M1144.24,-57.57C1081.26,-47.57 969.5,-29.82 903.64,-19.36"/>
<polygon fill="midnightblue" stroke="midnightblue" points="1143.87,-61.06 1154.29,-59.17 1144.96,-54.14 1143.87,-61.06"/>
</g>
<!-- Node8 -->
<g id="node8" class="node">
<title>Node8</title>
<g id="a_node8"><a xlink:href="colorwheel_8cpp.html" target="_top" xlink:title=" ">
<polygon fill="white" stroke="black" points="921.5,-0.5 921.5,-19.5 1028.5,-19.5 1028.5,-0.5 921.5,-0.5"/>
<text text-anchor="middle" x="975" y="-7.5" font-family="Helvetica,sans-Serif" font-size="10.00">src/colorwheel.cpp</text>
</a>
</g>
</g>
<!-- Node1&#45;&gt;Node8 -->
<g id="edge7" class="edge">
<title>Node1&#45;&gt;Node8</title>
<path fill="none" stroke="midnightblue" d="M1146.84,-53.96C1106.04,-43.76 1046.29,-28.82 1009.07,-19.52"/>
<polygon fill="midnightblue" stroke="midnightblue" points="1146.22,-57.41 1156.77,-56.44 1147.92,-50.62 1146.22,-57.41"/>
</g>
<!-- Node9 -->
<g id="node9" class="node">
<title>Node9</title>
<g id="a_node9"><a xlink:href="colorwheelimage_8cpp.html" target="_top" xlink:title=" ">
<polygon fill="white" stroke="black" points="1047,-0.5 1047,-19.5 1185,-19.5 1185,-0.5 1047,-0.5"/>
<text text-anchor="middle" x="1116" y="-7.5" font-family="Helvetica,sans-Serif" font-size="10.00">src/colorwheelimage.cpp</text>
</a>
</g>
</g>
<!-- Node1&#45;&gt;Node9 -->
<g id="edge8" class="edge">
<title>Node1&#45;&gt;Node9</title>
<path fill="none" stroke="midnightblue" d="M1170.69,-50.38C1157.14,-40.62 1139.76,-28.11 1128.27,-19.83"/>
<polygon fill="midnightblue" stroke="midnightblue" points="1168.79,-53.32 1178.95,-56.32 1172.88,-47.64 1168.79,-53.32"/>
</g>
<!-- Node10 -->
<g id="node10" class="node">
<title>Node10</title>
<g id="a_node10"><a xlink:href="gradientimage_8cpp.html" target="_top" xlink:title=" ">
<polygon fill="white" stroke="black" points="1203.5,-0.5 1203.5,-19.5 1328.5,-19.5 1328.5,-0.5 1203.5,-0.5"/>
<text text-anchor="middle" x="1266" y="-7.5" font-family="Helvetica,sans-Serif" font-size="10.00">src/gradientimage.cpp</text>
</a>
</g>
</g>
<!-- Node1&#45;&gt;Node10 -->
<g id="edge9" class="edge">
<title>Node1&#45;&gt;Node10</title>
<path fill="none" stroke="midnightblue" d="M1211.31,-50.38C1224.86,-40.62 1242.24,-28.11 1253.73,-19.83"/>
<polygon fill="midnightblue" stroke="midnightblue" points="1209.12,-47.64 1203.05,-56.32 1213.21,-53.32 1209.12,-47.64"/>
</g>
<!-- Node11 -->
<g id="node11" class="node">
<title>Node11</title>
<g id="a_node11"><a xlink:href="gradientslider_8cpp.html" target="_top" xlink:title=" ">
<polygon fill="white" stroke="black" points="1346.5,-0.5 1346.5,-19.5 1467.5,-19.5 1467.5,-0.5 1346.5,-0.5"/>
<text text-anchor="middle" x="1407" y="-7.5" font-family="Helvetica,sans-Serif" font-size="10.00">src/gradientslider.cpp</text>
</a>
</g>
</g>
<!-- Node1&#45;&gt;Node11 -->
<g id="edge10" class="edge">
<title>Node1&#45;&gt;Node11</title>
<path fill="none" stroke="midnightblue" d="M1235.16,-53.96C1275.96,-43.76 1335.71,-28.82 1372.93,-19.52"/>
<polygon fill="midnightblue" stroke="midnightblue" points="1234.08,-50.62 1225.23,-56.44 1235.78,-57.41 1234.08,-50.62"/>
</g>
<!-- Node12 -->
<g id="node12" class="node">
<title>Node12</title>
<g id="a_node12"><a xlink:href="helper_8cpp.html" target="_top" xlink:title=" ">
<polygon fill="white" stroke="black" points="1486,-0.5 1486,-19.5 1570,-19.5 1570,-0.5 1486,-0.5"/>
<text text-anchor="middle" x="1528" y="-7.5" font-family="Helvetica,sans-Serif" font-size="10.00">src/helper.cpp</text>
</a>
</g>
</g>
<!-- Node1&#45;&gt;Node12 -->
<g id="edge11" class="edge">
<title>Node1&#45;&gt;Node12</title>
<path fill="none" stroke="midnightblue" d="M1237.68,-57.93C1294.34,-49.28 1392.76,-34.06 1477,-20 1479.93,-19.51 1482.95,-19 1485.99,-18.48"/>
<polygon fill="midnightblue" stroke="midnightblue" points="1236.96,-54.5 1227.6,-59.46 1238.02,-61.42 1236.96,-54.5"/>
</g>
<!-- Node13 -->
<g id="node13" class="node">
<title>Node13</title>
<g id="a_node13"><a xlink:href="iohandlerfactory_8cpp.html" target="_top" xlink:title=" ">
<polygon fill="white" stroke="black" points="1588.5,-0.5 1588.5,-19.5 1721.5,-19.5 1721.5,-0.5 1588.5,-0.5"/>
<text text-anchor="middle" x="1655" y="-7.5" font-family="Helvetica,sans-Serif" font-size="10.00">src/iohandlerfactory.cpp</text>
</a>
</g>
</g>
<!-- Node1&#45;&gt;Node13 -->
<g id="edge12" class="edge">
<title>Node1&#45;&gt;Node13</title>
<path fill="none" stroke="midnightblue" d="M1237.87,-59.6C1310.82,-51.19 1455.91,-34.43 1579,-20 1582.04,-19.64 1585.14,-19.28 1588.27,-18.91"/>
<polygon fill="midnightblue" stroke="midnightblue" points="1237.18,-56.16 1227.65,-60.78 1237.98,-63.11 1237.18,-56.16"/>
</g>
<!-- Node14 -->
<g id="node14" class="node">
<title>Node14</title>
<g id="a_node14"><a xlink:href="multispinbox_8cpp.html" target="_top" xlink:title=" ">
<polygon fill="white" stroke="black" points="1740,-0.5 1740,-19.5 1858,-19.5 1858,-0.5 1740,-0.5"/>
<text text-anchor="middle" x="1799" y="-7.5" font-family="Helvetica,sans-Serif" font-size="10.00">src/multispinbox.cpp</text>
</a>
</g>
</g>
<!-- Node1&#45;&gt;Node14 -->
<g id="edge13" class="edge">
<title>Node1&#45;&gt;Node14</title>
<path fill="none" stroke="midnightblue" d="M1237.73,-61.87C1331.43,-55.43 1548.89,-39.63 1731,-20 1733.84,-19.69 1736.75,-19.37 1739.68,-19.02"/>
<polygon fill="midnightblue" stroke="midnightblue" points="1237.46,-58.38 1227.72,-62.56 1237.94,-65.37 1237.46,-58.38"/>
</g>
<!-- Node15 -->
<g id="node15" class="node">
<title>Node15</title>
<g id="a_node15"><a xlink:href="multispinboxsectionconfiguration_8cpp.html" target="_top" xlink:title=" ">
<polygon fill="white" stroke="black" points="1876.5,-0.5 1876.5,-19.5 2093.5,-19.5 2093.5,-0.5 1876.5,-0.5"/>
<text text-anchor="middle" x="1985" y="-7.5" font-family="Helvetica,sans-Serif" font-size="10.00">src/multispinboxsectionconfiguration.cpp</text>
</a>
</g>
</g>
<!-- Node1&#45;&gt;Node15 -->
<g id="edge14" class="edge">
<title>Node1&#45;&gt;Node15</title>
<path fill="none" stroke="midnightblue" d="M1237.73,-62.05C1347.53,-55.07 1630.6,-36.88 1867,-20 1870.07,-19.78 1873.19,-19.56 1876.34,-19.33"/>
<polygon fill="midnightblue" stroke="midnightblue" points="1237.41,-58.56 1227.65,-62.69 1237.85,-65.54 1237.41,-58.56"/>
</g>
<!-- Node16 -->
<g id="node16" class="node">
<title>Node16</title>
<g id="a_node16"><a xlink:href="rgbcolorspace_8cpp.html" target="_top" xlink:title=" ">
<polygon fill="white" stroke="black" points="2112,-0.5 2112,-19.5 2234,-19.5 2234,-0.5 2112,-0.5"/>
<text text-anchor="middle" x="2173" y="-7.5" font-family="Helvetica,sans-Serif" font-size="10.00">src/rgbcolorspace.cpp</text>
</a>
</g>
</g>
<!-- Node1&#45;&gt;Node16 -->
<g id="edge15" class="edge">
<title>Node1&#45;&gt;Node16</title>
<path fill="none" stroke="midnightblue" d="M1237.92,-63.99C1372.69,-60.79 1772.46,-49.36 2103,-20 2105.93,-19.74 2108.92,-19.45 2111.95,-19.14"/>
<polygon fill="midnightblue" stroke="midnightblue" points="1237.48,-60.5 1227.56,-64.23 1237.64,-67.49 1237.48,-60.5"/>
</g>
<!-- Node17 -->
<g id="node17" class="node">
<title>Node17</title>
<g id="a_node17"><a xlink:href="wheelcolorpicker_8cpp.html" target="_top" xlink:title=" ">
<polygon fill="white" stroke="black" points="2252,-0.5 2252,-19.5 2388,-19.5 2388,-0.5 2252,-0.5"/>
<text text-anchor="middle" x="2320" y="-7.5" font-family="Helvetica,sans-Serif" font-size="10.00">src/wheelcolorpicker.cpp</text>
</a>
</g>
</g>
<!-- Node1&#45;&gt;Node17 -->
<g id="edge16" class="edge">
<title>Node1&#45;&gt;Node17</title>
<path fill="none" stroke="midnightblue" d="M1237.95,-64.22C1385.89,-61.51 1855.5,-50.89 2243,-20 2245.82,-19.78 2248.69,-19.53 2251.59,-19.26"/>
<polygon fill="midnightblue" stroke="midnightblue" points="1237.8,-60.73 1227.86,-64.4 1237.92,-67.72 1237.8,-60.73"/>
</g>
</g>
</svg>
