<?xml version="1.0" encoding="UTF-8" standalone="no"?>
<!DOCTYPE svg PUBLIC "-//W3C//DTD SVG 1.1//EN"
 "http://www.w3.org/Graphics/SVG/1.1/DTD/svg11.dtd">
<!-- Generated by graphviz version 2.43.0 (0)
 -->
<!-- Title: Graphical Class Hierarchy Pages: 1 -->
<svg width="464pt" height="225pt"
 viewBox="0.00 0.00 464.00 225.00" xmlns="http://www.w3.org/2000/svg" xmlns:xlink="http://www.w3.org/1999/xlink">
<g id="graph0" class="graph" transform="scale(1 1) rotate(0) translate(4 221)">
<title>Graphical Class Hierarchy</title>
<polygon fill="white" stroke="transparent" points="-4,4 -4,-221 460,-221 460,4 -4,4"/>
<!-- Node18 -->
<g id="node1" class="node">
<title>Node18</title>
<g id="a_node1"><a xlink:title=" ">
<polygon fill="white" stroke="#bfbfbf" points="0,-99 0,-118 59,-118 59,-99 0,-99"/>
<text text-anchor="middle" x="29.5" y="-106" font-family="Helvetica,sans-Serif" font-size="10.00">QWidget</text>
</a>
</g>
</g>
<!-- Node0 -->
<g id="node2" class="node">
<title>Node0</title>
<g id="a_node2"><a xlink:href="class_perceptual_color_1_1_abstract_diagram.html" target="_top" xlink:title="Base class for LCh diagrams.">
<polygon fill="white" stroke="black" points="95,-93.5 95,-123.5 235,-123.5 235,-93.5 95,-93.5"/>
<text text-anchor="start" x="103" y="-111.5" font-family="Helvetica,sans-Serif" font-size="10.00">PerceptualColor::Abstract</text>
<text text-anchor="middle" x="165" y="-100.5" font-family="Helvetica,sans-Serif" font-size="10.00">Diagram</text>
</a>
</g>
</g>
<!-- Node18&#45;&gt;Node0 -->
<g id="edge1" class="edge">
<title>Node18&#45;&gt;Node0</title>
<path fill="none" stroke="midnightblue" d="M69.29,-108.5C77.33,-108.5 86.04,-108.5 94.81,-108.5"/>
<polygon fill="midnightblue" stroke="midnightblue" points="69.14,-105 59.14,-108.5 69.14,-112 69.14,-105"/>
</g>
<!-- Node1 -->
<g id="node3" class="node">
<title>Node1</title>
<g id="a_node3"><a xlink:href="class_perceptual_color_1_1_chroma_hue_diagram.html" target="_top" xlink:title="A widget for selecting chroma and hue in LCh color space.">
<polygon fill="white" stroke="black" points="284.5,-186.5 284.5,-216.5 442.5,-216.5 442.5,-186.5 284.5,-186.5"/>
<text text-anchor="start" x="292.5" y="-204.5" font-family="Helvetica,sans-Serif" font-size="10.00">PerceptualColor::ChromaHue</text>
<text text-anchor="middle" x="363.5" y="-193.5" font-family="Helvetica,sans-Serif" font-size="10.00">Diagram</text>
</a>
</g>
</g>
<!-- Node0&#45;&gt;Node1 -->
<g id="edge2" class="edge">
<title>Node0&#45;&gt;Node1</title>
<path fill="none" stroke="midnightblue" d="M193.2,-129.95C213.6,-145.12 242.75,-164.92 271,-177.5 278.5,-180.84 286.56,-183.79 294.68,-186.38"/>
<polygon fill="midnightblue" stroke="midnightblue" points="195.1,-127 185.02,-123.76 190.88,-132.59 195.1,-127"/>
</g>
<!-- Node2 -->
<g id="node4" class="node">
<title>Node2</title>
<g id="a_node4"><a xlink:href="class_perceptual_color_1_1_chroma_lightness_diagram.html" target="_top" xlink:title="A widget that displays a chroma&#45;lightness diagram.">
<polygon fill="white" stroke="black" points="271,-137.5 271,-167.5 456,-167.5 456,-137.5 271,-137.5"/>
<text text-anchor="start" x="279" y="-155.5" font-family="Helvetica,sans-Serif" font-size="10.00">PerceptualColor::ChromaLightness</text>
<text text-anchor="middle" x="363.5" y="-144.5" font-family="Helvetica,sans-Serif" font-size="10.00">Diagram</text>
</a>
</g>
</g>
<!-- Node0&#45;&gt;Node2 -->
<g id="edge3" class="edge">
<title>Node0&#45;&gt;Node2</title>
<path fill="none" stroke="midnightblue" d="M243.12,-125.77C260.39,-129.64 278.57,-133.71 295.39,-137.47"/>
<polygon fill="midnightblue" stroke="midnightblue" points="243.6,-122.29 233.07,-123.52 242.07,-129.12 243.6,-122.29"/>
</g>
<!-- Node3 -->
<g id="node5" class="node">
<title>Node3</title>
<g id="a_node5"><a xlink:href="class_perceptual_color_1_1_color_wheel.html" target="_top" xlink:title="A color wheel widget.">
<polygon fill="white" stroke="black" points="285.5,-99 285.5,-118 441.5,-118 441.5,-99 285.5,-99"/>
<text text-anchor="middle" x="363.5" y="-106" font-family="Helvetica,sans-Serif" font-size="10.00">PerceptualColor::ColorWheel</text>
</a>
</g>
</g>
<!-- Node0&#45;&gt;Node3 -->
<g id="edge4" class="edge">
<title>Node0&#45;&gt;Node3</title>
<path fill="none" stroke="midnightblue" d="M245.04,-108.5C258.31,-108.5 272.06,-108.5 285.28,-108.5"/>
<polygon fill="midnightblue" stroke="midnightblue" points="245,-105 235,-108.5 245,-112 245,-105"/>
</g>
<!-- Node4 -->
<g id="node6" class="node">
<title>Node4</title>
<g id="a_node6"><a xlink:href="class_perceptual_color_1_1_gradient_slider.html" target="_top" xlink:title="A slider who’s groove displays an LCh color gradient.">
<polygon fill="white" stroke="black" points="292.5,-49.5 292.5,-79.5 434.5,-79.5 434.5,-49.5 292.5,-49.5"/>
<text text-anchor="start" x="300.5" y="-67.5" font-family="Helvetica,sans-Serif" font-size="10.00">PerceptualColor::Gradient</text>
<text text-anchor="middle" x="363.5" y="-56.5" font-family="Helvetica,sans-Serif" font-size="10.00">Slider</text>
</a>
</g>
</g>
<!-- Node0&#45;&gt;Node4 -->
<g id="edge5" class="edge">
<title>Node0&#45;&gt;Node4</title>
<path fill="none" stroke="midnightblue" d="M243.12,-91.23C260.39,-87.36 278.57,-83.29 295.39,-79.53"/>
<polygon fill="midnightblue" stroke="midnightblue" points="242.07,-87.88 233.07,-93.48 243.6,-94.71 242.07,-87.88"/>
</g>
<!-- Node5 -->
<g id="node7" class="node">
<title>Node5</title>
<g id="a_node7"><a xlink:href="class_perceptual_color_1_1_wheel_color_picker.html" target="_top" xlink:title="Complete wheel&#45;based color picker widget.">
<polygon fill="white" stroke="black" points="285.5,-0.5 285.5,-30.5 441.5,-30.5 441.5,-0.5 285.5,-0.5"/>
<text text-anchor="start" x="293.5" y="-18.5" font-family="Helvetica,sans-Serif" font-size="10.00">PerceptualColor::WheelColor</text>
<text text-anchor="middle" x="363.5" y="-7.5" font-family="Helvetica,sans-Serif" font-size="10.00">Picker</text>
</a>
</g>
</g>
<!-- Node0&#45;&gt;Node5 -->
<g id="edge6" class="edge">
<title>Node0&#45;&gt;Node5</title>
<path fill="none" stroke="midnightblue" d="M193.66,-87.19C214.09,-72.33 243.07,-53 271,-40.5 279.42,-36.73 288.53,-33.42 297.63,-30.54"/>
<polygon fill="midnightblue" stroke="midnightblue" points="191.42,-84.5 185.46,-93.26 195.58,-90.13 191.42,-84.5"/>
</g>
</g>
</svg>
