<?xml version="1.0" encoding="UTF-8" standalone="no"?>
<!DOCTYPE svg PUBLIC "-//W3C//DTD SVG 1.1//EN"
 "http://www.w3.org/Graphics/SVG/1.1/DTD/svg11.dtd">
<!-- Generated by graphviz version 2.43.0 (0)
 -->
<!-- Title: Graphical Class Hierarchy Pages: 1 -->
<svg width="272pt" height="186pt"
 viewBox="0.00 0.00 272.00 186.00" xmlns="http://www.w3.org/2000/svg" xmlns:xlink="http://www.w3.org/1999/xlink">
<g id="graph0" class="graph" transform="scale(1 1) rotate(0) translate(4 182)">
<title>Graphical Class Hierarchy</title>
<polygon fill="white" stroke="transparent" points="-4,4 -4,-182 268,-182 268,4 -4,4"/>
<!-- Node25 -->
<g id="node1" class="node">
<title>Node25</title>
<g id="a_node1"><a xlink:title=" ">
<polygon fill="white" stroke="#bfbfbf" points="0,-79 0,-98 56,-98 56,-79 0,-79"/>
<text text-anchor="middle" x="28" y="-86" font-family="Helvetica,sans-Serif" font-size="10.00">QObject</text>
</a>
</g>
</g>
<!-- Node0 -->
<g id="node2" class="node">
<title>Node0</title>
<g id="a_node2"><a xlink:href="class_perceptual_color_1_1_color_dialog_1_1_color_dialog_private.html" target="_top" xlink:title="Private implementation within the Pointer to implementation idiom.">
<polygon fill="white" stroke="black" points="99.5,-147.5 99.5,-177.5 256.5,-177.5 256.5,-147.5 99.5,-147.5"/>
<text text-anchor="start" x="107.5" y="-165.5" font-family="Helvetica,sans-Serif" font-size="10.00">PerceptualColor::ColorDialog</text>
<text text-anchor="middle" x="178" y="-154.5" font-family="Helvetica,sans-Serif" font-size="10.00">::ColorDialogPrivate</text>
</a>
</g>
</g>
<!-- Node25&#45;&gt;Node0 -->
<g id="edge1" class="edge">
<title>Node25&#45;&gt;Node0</title>
<path fill="none" stroke="midnightblue" d="M46.28,-105.34C58.25,-116.18 75.03,-129.82 92,-138.5 98.55,-141.85 105.64,-144.79 112.82,-147.36"/>
<polygon fill="midnightblue" stroke="midnightblue" points="48.51,-102.64 38.81,-98.37 43.74,-107.76 48.51,-102.64"/>
</g>
<!-- Node27 -->
<g id="node3" class="node">
<title>Node27</title>
<g id="a_node3"><a xlink:href="class_perceptual_color_1_1_multi_spin_box_1_1_multi_spin_box_private.html" target="_top" xlink:title="Private implementation within the Pointer to implementation idiom.">
<polygon fill="white" stroke="black" points="105,-98.5 105,-128.5 251,-128.5 251,-98.5 105,-98.5"/>
<text text-anchor="start" x="113" y="-116.5" font-family="Helvetica,sans-Serif" font-size="10.00">PerceptualColor::MultiSpin</text>
<text text-anchor="middle" x="178" y="-105.5" font-family="Helvetica,sans-Serif" font-size="10.00">Box::MultiSpinBoxPrivate</text>
</a>
</g>
</g>
<!-- Node25&#45;&gt;Node27 -->
<g id="edge2" class="edge">
<title>Node25&#45;&gt;Node27</title>
<path fill="none" stroke="midnightblue" d="M66.09,-94.77C77.95,-96.77 91.52,-99.06 105,-101.34"/>
<polygon fill="midnightblue" stroke="midnightblue" points="66.59,-91.3 56.15,-93.09 65.42,-98.2 66.59,-91.3"/>
</g>
<!-- Node28 -->
<g id="node4" class="node">
<title>Node28</title>
<g id="a_node4"><a xlink:href="class_perceptual_color_1_1_rgb_color_space.html" target="_top" xlink:title="Provides access to LittleCMS color management library.">
<polygon fill="white" stroke="black" points="106,-49.5 106,-79.5 250,-79.5 250,-49.5 106,-49.5"/>
<text text-anchor="start" x="114" y="-67.5" font-family="Helvetica,sans-Serif" font-size="10.00">PerceptualColor::RgbColor</text>
<text text-anchor="middle" x="178" y="-56.5" font-family="Helvetica,sans-Serif" font-size="10.00">Space</text>
</a>
</g>
</g>
<!-- Node25&#45;&gt;Node28 -->
<g id="edge3" class="edge">
<title>Node25&#45;&gt;Node28</title>
<path fill="none" stroke="midnightblue" d="M66.28,-82.45C78.38,-80.49 92.23,-78.25 105.94,-76.02"/>
<polygon fill="midnightblue" stroke="midnightblue" points="65.46,-79.04 56.15,-84.1 66.58,-85.95 65.46,-79.04"/>
</g>
<!-- Node29 -->
<g id="node5" class="node">
<title>Node29</title>
<g id="a_node5"><a xlink:href="class_perceptual_color_1_1_wheel_color_picker_1_1_wheel_color_picker_private.html" target="_top" xlink:title="Private implementation within the Pointer to implementation idiom.">
<polygon fill="white" stroke="black" points="92,-0.5 92,-30.5 264,-30.5 264,-0.5 92,-0.5"/>
<text text-anchor="start" x="100" y="-18.5" font-family="Helvetica,sans-Serif" font-size="10.00">PerceptualColor::WheelColor</text>
<text text-anchor="middle" x="178" y="-7.5" font-family="Helvetica,sans-Serif" font-size="10.00">Picker::WheelColorPickerPrivate</text>
</a>
</g>
</g>
<!-- Node25&#45;&gt;Node29 -->
<g id="edge4" class="edge">
<title>Node25&#45;&gt;Node29</title>
<path fill="none" stroke="midnightblue" d="M46.85,-72.06C58.85,-61.75 75.45,-48.88 92,-40.5 99.41,-36.75 107.48,-33.47 115.59,-30.63"/>
<polygon fill="midnightblue" stroke="midnightblue" points="44.51,-69.45 39.33,-78.7 49.15,-74.7 44.51,-69.45"/>
</g>
</g>
</svg>
