<?xml version="1.0" encoding="UTF-8" standalone="no"?>
<!DOCTYPE svg PUBLIC "-//W3C//DTD SVG 1.1//EN"
 "http://www.w3.org/Graphics/SVG/1.1/DTD/svg11.dtd">
<!-- Generated by graphviz version 2.43.0 (0)
 -->
<!-- Title: Graphical Class Hierarchy Pages: 1 -->
<svg width="386pt" height="796pt"
 viewBox="0.00 0.00 386.00 795.50" xmlns="http://www.w3.org/2000/svg" xmlns:xlink="http://www.w3.org/1999/xlink">
<g id="graph0" class="graph" transform="scale(1 1) rotate(0) translate(4 791.5)">
<title>Graphical Class Hierarchy</title>
<polygon fill="white" stroke="transparent" points="-4,4 -4,-791.5 382,-791.5 382,4 -4,4"/>
<!-- Node1 -->
<g id="node1" class="node">
<title>Node1</title>
<g id="a_node1"><a xlink:title=" ">
<polygon fill="white" stroke="#bfbfbf" points="0,-379 0,-398 68,-398 68,-379 0,-379"/>
<text text-anchor="middle" x="34" y="-386" font-family="Helvetica,sans-Serif" font-size="10.00">unique_ptr</text>
</a>
</g>
</g>
<!-- Node0 -->
<g id="node2" class="node">
<title>Node0</title>
<g id="a_node2"><a xlink:href="class_perceptual_color_1_1_const_propagating_unique_pointer.html" target="_top" xlink:title=" ">
<polygon fill="white" stroke="black" points="121.5,-746 121.5,-787 360.5,-787 360.5,-746 121.5,-746"/>
<text text-anchor="start" x="129.5" y="-775" font-family="Helvetica,sans-Serif" font-size="10.00">PerceptualColor::ConstPropagating</text>
<text text-anchor="start" x="129.5" y="-764" font-family="Helvetica,sans-Serif" font-size="10.00">UniquePointer&lt; PerceptualColor</text>
<text text-anchor="middle" x="241" y="-753" font-family="Helvetica,sans-Serif" font-size="10.00">::AbstractDiagram::AbstractDiagramPrivate &gt;</text>
</a>
</g>
</g>
<!-- Node1&#45;&gt;Node0 -->
<g id="edge1" class="edge">
<title>Node1&#45;&gt;Node0</title>
<path fill="none" stroke="midnightblue" d="M36.15,-408.28C40.41,-474.83 57.57,-689.07 104,-736.5 109.16,-741.77 115.02,-746.21 121.34,-749.94"/>
<polygon fill="midnightblue" stroke="midnightblue" points="39.64,-408.04 35.53,-398.28 32.65,-408.47 39.64,-408.04"/>
</g>
<!-- Node3 -->
<g id="node3" class="node">
<title>Node3</title>
<g id="a_node3"><a xlink:href="class_perceptual_color_1_1_const_propagating_unique_pointer.html" target="_top" xlink:title=" ">
<polygon fill="white" stroke="black" points="104,-686 104,-727 378,-727 378,-686 104,-686"/>
<text text-anchor="start" x="112" y="-715" font-family="Helvetica,sans-Serif" font-size="10.00">PerceptualColor::ConstPropagating</text>
<text text-anchor="start" x="112" y="-704" font-family="Helvetica,sans-Serif" font-size="10.00">UniquePointer&lt; PerceptualColor</text>
<text text-anchor="middle" x="241" y="-693" font-family="Helvetica,sans-Serif" font-size="10.00">::ChromaHueDiagram::ChromaHueDiagramPrivate &gt;</text>
</a>
</g>
</g>
<!-- Node1&#45;&gt;Node3 -->
<g id="edge2" class="edge">
<title>Node1&#45;&gt;Node3</title>
<path fill="none" stroke="midnightblue" d="M37.02,-408.21C43.44,-466.83 65.23,-638.42 104,-676.5 107.54,-679.97 111.38,-683.08 115.45,-685.86"/>
<polygon fill="midnightblue" stroke="midnightblue" points="40.48,-407.63 35.94,-398.06 33.52,-408.37 40.48,-407.63"/>
</g>
<!-- Node4 -->
<g id="node4" class="node">
<title>Node4</title>
<g id="a_node4"><a xlink:href="class_perceptual_color_1_1_const_propagating_unique_pointer.html" target="_top" xlink:title=" ">
<polygon fill="white" stroke="black" points="121,-614.5 121,-666.5 361,-666.5 361,-614.5 121,-614.5"/>
<text text-anchor="start" x="129" y="-654.5" font-family="Helvetica,sans-Serif" font-size="10.00">PerceptualColor::ConstPropagating</text>
<text text-anchor="start" x="129" y="-643.5" font-family="Helvetica,sans-Serif" font-size="10.00">UniquePointer&lt; PerceptualColor</text>
<text text-anchor="start" x="129" y="-632.5" font-family="Helvetica,sans-Serif" font-size="10.00">::ChromaLightnessDiagram::ChromaLightness</text>
<text text-anchor="middle" x="241" y="-621.5" font-family="Helvetica,sans-Serif" font-size="10.00">DiagramPrivate &gt;</text>
</a>
</g>
</g>
<!-- Node1&#45;&gt;Node4 -->
<g id="edge3" class="edge">
<title>Node1&#45;&gt;Node4</title>
<path fill="none" stroke="midnightblue" d="M35.33,-408.56C37.14,-451.09 47.55,-550.83 104,-604.5 109.13,-609.38 114.85,-613.62 120.95,-617.29"/>
<polygon fill="midnightblue" stroke="midnightblue" points="38.82,-408.27 35.01,-398.38 31.82,-408.48 38.82,-408.27"/>
</g>
<!-- Node5 -->
<g id="node5" class="node">
<title>Node5</title>
<g id="a_node5"><a xlink:href="class_perceptual_color_1_1_const_propagating_unique_pointer.html" target="_top" xlink:title=" ">
<polygon fill="white" stroke="black" points="147,-554 147,-595 335,-595 335,-554 147,-554"/>
<text text-anchor="start" x="155" y="-583" font-family="Helvetica,sans-Serif" font-size="10.00">PerceptualColor::ConstPropagating</text>
<text text-anchor="start" x="155" y="-572" font-family="Helvetica,sans-Serif" font-size="10.00">UniquePointer&lt; PerceptualColor</text>
<text text-anchor="middle" x="241" y="-561" font-family="Helvetica,sans-Serif" font-size="10.00">::ColorDialog::ColorDialogPrivate &gt;</text>
</a>
</g>
</g>
<!-- Node1&#45;&gt;Node5 -->
<g id="edge4" class="edge">
<title>Node1&#45;&gt;Node5</title>
<path fill="none" stroke="midnightblue" d="M37.92,-408.33C43.94,-441.8 60.96,-509.29 104,-544.5 116.35,-554.61 131.37,-561.49 146.87,-566.15"/>
<polygon fill="midnightblue" stroke="midnightblue" points="41.36,-407.68 36.28,-398.38 34.45,-408.82 41.36,-407.68"/>
</g>
<!-- Node6 -->
<g id="node6" class="node">
<title>Node6</title>
<g id="a_node6"><a xlink:href="class_perceptual_color_1_1_const_propagating_unique_pointer.html" target="_top" xlink:title=" ">
<polygon fill="white" stroke="black" points="148,-494 148,-535 334,-535 334,-494 148,-494"/>
<text text-anchor="start" x="156" y="-523" font-family="Helvetica,sans-Serif" font-size="10.00">PerceptualColor::ConstPropagating</text>
<text text-anchor="start" x="156" y="-512" font-family="Helvetica,sans-Serif" font-size="10.00">UniquePointer&lt; PerceptualColor</text>
<text text-anchor="middle" x="241" y="-501" font-family="Helvetica,sans-Serif" font-size="10.00">::ColorPatch::ColorPatchPrivate &gt;</text>
</a>
</g>
</g>
<!-- Node1&#45;&gt;Node6 -->
<g id="edge5" class="edge">
<title>Node1&#45;&gt;Node6</title>
<path fill="none" stroke="midnightblue" d="M43.41,-407.54C54.19,-429.61 75,-465.4 104,-484.5 117.13,-493.14 132.35,-499.33 147.77,-503.75"/>
<polygon fill="midnightblue" stroke="midnightblue" points="46.46,-405.78 39.06,-398.2 40.12,-408.74 46.46,-405.78"/>
</g>
<!-- Node7 -->
<g id="node7" class="node">
<title>Node7</title>
<g id="a_node7"><a xlink:href="class_perceptual_color_1_1_const_propagating_unique_pointer.html" target="_top" xlink:title=" ">
<polygon fill="white" stroke="black" points="147.5,-434 147.5,-475 334.5,-475 334.5,-434 147.5,-434"/>
<text text-anchor="start" x="155.5" y="-463" font-family="Helvetica,sans-Serif" font-size="10.00">PerceptualColor::ConstPropagating</text>
<text text-anchor="start" x="155.5" y="-452" font-family="Helvetica,sans-Serif" font-size="10.00">UniquePointer&lt; PerceptualColor</text>
<text text-anchor="middle" x="241" y="-441" font-family="Helvetica,sans-Serif" font-size="10.00">::ColorWheel::ColorWheelPrivate &gt;</text>
</a>
</g>
</g>
<!-- Node1&#45;&gt;Node7 -->
<g id="edge6" class="edge">
<title>Node1&#45;&gt;Node7</title>
<path fill="none" stroke="midnightblue" d="M59.09,-403.08C72.03,-410.38 88.47,-418.85 104,-424.5 117.75,-429.5 132.59,-433.82 147.25,-437.49"/>
<polygon fill="midnightblue" stroke="midnightblue" points="60.76,-400 50.36,-398.02 57.26,-406.06 60.76,-400"/>
</g>
<!-- Node8 -->
<g id="node8" class="node">
<title>Node8</title>
<g id="a_node8"><a xlink:href="class_perceptual_color_1_1_const_propagating_unique_pointer.html" target="_top" xlink:title=" ">
<polygon fill="white" stroke="black" points="124.5,-362.5 124.5,-414.5 357.5,-414.5 357.5,-362.5 124.5,-362.5"/>
<text text-anchor="start" x="132.5" y="-402.5" font-family="Helvetica,sans-Serif" font-size="10.00">PerceptualColor::ConstPropagating</text>
<text text-anchor="start" x="132.5" y="-391.5" font-family="Helvetica,sans-Serif" font-size="10.00">UniquePointer&lt; PerceptualColor</text>
<text text-anchor="start" x="132.5" y="-380.5" font-family="Helvetica,sans-Serif" font-size="10.00">::ExtendedDoubleValidator::ExtendedDouble</text>
<text text-anchor="middle" x="241" y="-369.5" font-family="Helvetica,sans-Serif" font-size="10.00">ValidatorPrivate &gt;</text>
</a>
</g>
</g>
<!-- Node1&#45;&gt;Node8 -->
<g id="edge7" class="edge">
<title>Node1&#45;&gt;Node8</title>
<path fill="none" stroke="midnightblue" d="M78.4,-388.5C92.08,-388.5 107.88,-388.5 124.14,-388.5"/>
<polygon fill="midnightblue" stroke="midnightblue" points="78.39,-385 68.39,-388.5 78.39,-392 78.39,-385"/>
</g>
<!-- Node9 -->
<g id="node9" class="node">
<title>Node9</title>
<g id="a_node9"><a xlink:href="class_perceptual_color_1_1_const_propagating_unique_pointer.html" target="_top" xlink:title=" ">
<polygon fill="white" stroke="black" points="134,-302 134,-343 348,-343 348,-302 134,-302"/>
<text text-anchor="start" x="142" y="-331" font-family="Helvetica,sans-Serif" font-size="10.00">PerceptualColor::ConstPropagating</text>
<text text-anchor="start" x="142" y="-320" font-family="Helvetica,sans-Serif" font-size="10.00">UniquePointer&lt; PerceptualColor</text>
<text text-anchor="middle" x="241" y="-309" font-family="Helvetica,sans-Serif" font-size="10.00">::GradientSlider::GradientSliderPrivate &gt;</text>
</a>
</g>
</g>
<!-- Node1&#45;&gt;Node9 -->
<g id="edge8" class="edge">
<title>Node1&#45;&gt;Node9</title>
<path fill="none" stroke="midnightblue" d="M60.05,-373.92C72.86,-366.95 88.9,-358.96 104,-353.5 114.7,-349.63 126.06,-346.14 137.47,-343.01"/>
<polygon fill="midnightblue" stroke="midnightblue" points="57.98,-371.06 50.95,-378.99 61.39,-377.18 57.98,-371.06"/>
</g>
<!-- Node10 -->
<g id="node10" class="node">
<title>Node10</title>
<g id="a_node10"><a xlink:href="class_perceptual_color_1_1_const_propagating_unique_pointer.html" target="_top" xlink:title=" ">
<polygon fill="white" stroke="black" points="139.5,-242 139.5,-283 342.5,-283 342.5,-242 139.5,-242"/>
<text text-anchor="start" x="147.5" y="-271" font-family="Helvetica,sans-Serif" font-size="10.00">PerceptualColor::ConstPropagating</text>
<text text-anchor="start" x="147.5" y="-260" font-family="Helvetica,sans-Serif" font-size="10.00">UniquePointer&lt; PerceptualColor</text>
<text text-anchor="middle" x="241" y="-249" font-family="Helvetica,sans-Serif" font-size="10.00">::MultiSpinBox::MultiSpinBoxPrivate &gt;</text>
</a>
</g>
</g>
<!-- Node1&#45;&gt;Node10 -->
<g id="edge9" class="edge">
<title>Node1&#45;&gt;Node10</title>
<path fill="none" stroke="midnightblue" d="M43.41,-369.46C54.19,-347.39 75,-311.6 104,-292.5 114.7,-285.45 126.8,-280.04 139.26,-275.88"/>
<polygon fill="midnightblue" stroke="midnightblue" points="40.12,-368.26 39.06,-378.8 46.46,-371.22 40.12,-368.26"/>
</g>
<!-- Node11 -->
<g id="node11" class="node">
<title>Node11</title>
<g id="a_node11"><a xlink:href="class_perceptual_color_1_1_const_propagating_unique_pointer.html" target="_top" xlink:title=" ">
<polygon fill="white" stroke="black" points="124,-170.5 124,-222.5 358,-222.5 358,-170.5 124,-170.5"/>
<text text-anchor="start" x="132" y="-210.5" font-family="Helvetica,sans-Serif" font-size="10.00">PerceptualColor::ConstPropagating</text>
<text text-anchor="start" x="132" y="-199.5" font-family="Helvetica,sans-Serif" font-size="10.00">UniquePointer&lt; PerceptualColor</text>
<text text-anchor="start" x="132" y="-188.5" font-family="Helvetica,sans-Serif" font-size="10.00">::MultiSpinBoxSectionConfiguration</text>
<text text-anchor="middle" x="241" y="-177.5" font-family="Helvetica,sans-Serif" font-size="10.00">::MultiSpinBoxSectionConfigurationPrivate &gt;</text>
</a>
</g>
</g>
<!-- Node1&#45;&gt;Node11 -->
<g id="edge10" class="edge">
<title>Node1&#45;&gt;Node11</title>
<path fill="none" stroke="midnightblue" d="M38.08,-368.86C44.33,-335.67 61.7,-268.6 104,-232.5 110.04,-227.35 116.73,-222.92 123.82,-219.12"/>
<polygon fill="midnightblue" stroke="midnightblue" points="34.63,-368.27 36.36,-378.72 41.52,-369.47 34.63,-368.27"/>
</g>
<!-- Node12 -->
<g id="node12" class="node">
<title>Node12</title>
<g id="a_node12"><a xlink:href="class_perceptual_color_1_1_const_propagating_unique_pointer.html" target="_top" xlink:title=" ">
<polygon fill="white" stroke="black" points="130.5,-110 130.5,-151 351.5,-151 351.5,-110 130.5,-110"/>
<text text-anchor="start" x="138.5" y="-139" font-family="Helvetica,sans-Serif" font-size="10.00">PerceptualColor::ConstPropagating</text>
<text text-anchor="start" x="138.5" y="-128" font-family="Helvetica,sans-Serif" font-size="10.00">UniquePointer&lt; PerceptualColor</text>
<text text-anchor="middle" x="241" y="-117" font-family="Helvetica,sans-Serif" font-size="10.00">::RgbColorSpace::RgbColorSpacePrivate &gt;</text>
</a>
</g>
</g>
<!-- Node1&#45;&gt;Node12 -->
<g id="edge11" class="edge">
<title>Node1&#45;&gt;Node12</title>
<path fill="none" stroke="midnightblue" d="M34.81,-368.48C35.54,-324.21 43.83,-217.54 104,-161.5 111.71,-154.32 120.72,-148.69 130.38,-144.28"/>
<polygon fill="midnightblue" stroke="midnightblue" points="31.31,-368.52 34.76,-378.54 38.31,-368.56 31.31,-368.52"/>
</g>
<!-- Node13 -->
<g id="node13" class="node">
<title>Node13</title>
<g id="a_node13"><a xlink:href="class_perceptual_color_1_1_const_propagating_unique_pointer.html" target="_top" xlink:title=" ">
<polygon fill="white" stroke="black" points="118.5,-50 118.5,-91 363.5,-91 363.5,-50 118.5,-50"/>
<text text-anchor="start" x="126.5" y="-79" font-family="Helvetica,sans-Serif" font-size="10.00">PerceptualColor::ConstPropagating</text>
<text text-anchor="start" x="126.5" y="-68" font-family="Helvetica,sans-Serif" font-size="10.00">UniquePointer&lt; PerceptualColor</text>
<text text-anchor="middle" x="241" y="-57" font-family="Helvetica,sans-Serif" font-size="10.00">::WheelColorPicker::WheelColorPickerPrivate &gt;</text>
</a>
</g>
</g>
<!-- Node1&#45;&gt;Node13 -->
<g id="edge12" class="edge">
<title>Node1&#45;&gt;Node13</title>
<path fill="none" stroke="midnightblue" d="M37.02,-368.79C43.44,-310.17 65.23,-138.58 104,-100.5 108.4,-96.18 113.27,-92.42 118.48,-89.16"/>
<polygon fill="midnightblue" stroke="midnightblue" points="33.52,-368.63 35.94,-378.94 40.48,-369.37 33.52,-368.63"/>
</g>
<!-- Node14 -->
<g id="node14" class="node">
<title>Node14</title>
<g id="a_node14"><a xlink:href="class_perceptual_color_1_1_const_propagating_unique_pointer.html" target="_top" xlink:title="A const propagating std::unique_ptr">
<polygon fill="white" stroke="black" points="148,-0.5 148,-30.5 334,-30.5 334,-0.5 148,-0.5"/>
<text text-anchor="start" x="156" y="-18.5" font-family="Helvetica,sans-Serif" font-size="10.00">PerceptualColor::ConstPropagating</text>
<text text-anchor="middle" x="241" y="-7.5" font-family="Helvetica,sans-Serif" font-size="10.00">UniquePointer&lt; T &gt;</text>
</a>
</g>
</g>
<!-- Node1&#45;&gt;Node14 -->
<g id="edge13" class="edge">
<title>Node1&#45;&gt;Node14</title>
<path fill="none" stroke="midnightblue" d="M36.08,-368.65C40.15,-301.91 56.74,-87.11 104,-40.5 115.97,-28.7 131.56,-21.48 147.89,-17.23"/>
<polygon fill="midnightblue" stroke="midnightblue" points="32.59,-368.5 35.5,-378.69 39.58,-368.91 32.59,-368.5"/>
</g>
</g>
</svg>
