<?xml version="1.0" encoding="UTF-8" standalone="no"?>
<!DOCTYPE svg PUBLIC "-//W3C//DTD SVG 1.1//EN"
 "http://www.w3.org/Graphics/SVG/1.1/DTD/svg11.dtd">
<!-- Generated by graphviz version 2.43.0 (0)
 -->
<!-- Title: src/iohandlerfactory.cpp Pages: 1 -->
<svg width="1000pt" height="252pt"
 viewBox="0.00 0.00 1000.00 252.00" xmlns="http://www.w3.org/2000/svg" xmlns:xlink="http://www.w3.org/1999/xlink">
<g id="graph0" class="graph" transform="scale(1 1) rotate(0) translate(4 248)">
<title>src/iohandlerfactory.cpp</title>
<polygon fill="white" stroke="transparent" points="-4,4 -4,-248 996,-248 996,4 -4,4"/>
<!-- Node1 -->
<g id="node1" class="node">
<title>Node1</title>
<g id="a_node1"><a xlink:title=" ">
<polygon fill="#bfbfbf" stroke="black" points="684.5,-224.5 684.5,-243.5 817.5,-243.5 817.5,-224.5 684.5,-224.5"/>
<text text-anchor="middle" x="751" y="-231.5" font-family="Helvetica,sans-Serif" font-size="10.00">src/iohandlerfactory.cpp</text>
</a>
</g>
</g>
<!-- Node2 -->
<g id="node2" class="node">
<title>Node2</title>
<g id="a_node2"><a xlink:href="perceptualcolorglobal_8h.html" target="_top" xlink:title=" ">
<polygon fill="white" stroke="black" points="474,-56.5 474,-75.5 686,-75.5 686,-56.5 474,-56.5"/>
<text text-anchor="middle" x="580" y="-63.5" font-family="Helvetica,sans-Serif" font-size="10.00">PerceptualColor/perceptualcolorglobal.h</text>
</a>
</g>
</g>
<!-- Node1&#45;&gt;Node2 -->
<g id="edge1" class="edge">
<title>Node1&#45;&gt;Node2</title>
<path fill="none" stroke="midnightblue" d="M754.9,-224.24C763.89,-202.6 783.34,-145.87 757,-112 744.39,-95.78 699.18,-84.45 657.61,-77.21"/>
<polygon fill="midnightblue" stroke="midnightblue" points="658.14,-73.75 647.7,-75.55 656.98,-80.66 658.14,-73.75"/>
</g>
<!-- Node3 -->
<g id="node3" class="node">
<title>Node3</title>
<g id="a_node3"><a xlink:title=" ">
<polygon fill="white" stroke="#bfbfbf" points="550.5,-0.5 550.5,-19.5 609.5,-19.5 609.5,-0.5 550.5,-0.5"/>
<text text-anchor="middle" x="580" y="-7.5" font-family="Helvetica,sans-Serif" font-size="10.00">QtGlobal</text>
</a>
</g>
</g>
<!-- Node1&#45;&gt;Node3 -->
<g id="edge11" class="edge">
<title>Node1&#45;&gt;Node3</title>
<path fill="none" stroke="midnightblue" d="M759.48,-224.23C767.05,-215.75 777.6,-202.13 782,-188 787.81,-169.34 780.95,-121.87 775,-112 741.46,-56.32 666.1,-30.01 619.51,-18.64"/>
<polygon fill="midnightblue" stroke="midnightblue" points="620.28,-15.23 609.74,-16.38 618.69,-22.05 620.28,-15.23"/>
</g>
<!-- Node4 -->
<g id="node4" class="node">
<title>Node4</title>
<g id="a_node4"><a xlink:href="perceptualcolorinternal_8h.html" target="_top" xlink:title=" ">
<polygon fill="white" stroke="black" points="608.5,-112.5 608.5,-131.5 747.5,-131.5 747.5,-112.5 608.5,-112.5"/>
<text text-anchor="middle" x="678" y="-119.5" font-family="Helvetica,sans-Serif" font-size="10.00">perceptualcolorinternal.h</text>
</a>
</g>
</g>
<!-- Node1&#45;&gt;Node4 -->
<g id="edge3" class="edge">
<title>Node1&#45;&gt;Node4</title>
<path fill="none" stroke="midnightblue" d="M745.27,-224.37C733.22,-206.22 705.08,-163.8 689.28,-139.99"/>
<polygon fill="midnightblue" stroke="midnightblue" points="692.15,-137.99 683.7,-131.59 686.31,-141.86 692.15,-137.99"/>
</g>
<!-- Node5 -->
<g id="node5" class="node">
<title>Node5</title>
<g id="a_node5"><a xlink:href="iohandlerfactory_8h.html" target="_top" xlink:title=" ">
<polygon fill="white" stroke="black" points="561,-168.5 561,-187.5 665,-187.5 665,-168.5 561,-168.5"/>
<text text-anchor="middle" x="613" y="-175.5" font-family="Helvetica,sans-Serif" font-size="10.00">iohandlerfactory.h</text>
</a>
</g>
</g>
<!-- Node1&#45;&gt;Node5 -->
<g id="edge5" class="edge">
<title>Node1&#45;&gt;Node5</title>
<path fill="none" stroke="midnightblue" d="M729.13,-224.44C706.22,-215.48 670.02,-201.31 644.13,-191.18"/>
<polygon fill="midnightblue" stroke="midnightblue" points="645.35,-187.9 634.76,-187.52 642.8,-194.42 645.35,-187.9"/>
</g>
<!-- Node7 -->
<g id="node7" class="node">
<title>Node7</title>
<g id="a_node7"><a xlink:title=" ">
<polygon fill="white" stroke="#bfbfbf" points="0,-56.5 0,-75.5 56,-75.5 56,-56.5 0,-56.5"/>
<text text-anchor="middle" x="28" y="-63.5" font-family="Helvetica,sans-Serif" font-size="10.00">QDebug</text>
</a>
</g>
</g>
<!-- Node1&#45;&gt;Node7 -->
<g id="edge9" class="edge">
<title>Node1&#45;&gt;Node7</title>
<path fill="none" stroke="midnightblue" d="M684.44,-228.15C538.89,-216.68 197.17,-184.81 95,-132 72.62,-120.43 52.71,-98.94 40.52,-83.84"/>
<polygon fill="midnightblue" stroke="midnightblue" points="43.18,-81.56 34.28,-75.82 37.66,-85.86 43.18,-81.56"/>
</g>
<!-- Node8 -->
<g id="node8" class="node">
<title>Node8</title>
<g id="a_node8"><a xlink:title=" ">
<polygon fill="white" stroke="#bfbfbf" points="842.5,-168.5 842.5,-187.5 883.5,-187.5 883.5,-168.5 842.5,-168.5"/>
<text text-anchor="middle" x="863" y="-175.5" font-family="Helvetica,sans-Serif" font-size="10.00">QFile</text>
</a>
</g>
</g>
<!-- Node1&#45;&gt;Node8 -->
<g id="edge10" class="edge">
<title>Node1&#45;&gt;Node8</title>
<path fill="none" stroke="midnightblue" d="M768.99,-224.32C787.04,-215.62 815.05,-202.12 835.8,-192.11"/>
<polygon fill="midnightblue" stroke="midnightblue" points="837.56,-195.15 845.05,-187.65 834.52,-188.84 837.56,-195.15"/>
</g>
<!-- Node9 -->
<g id="node9" class="node">
<title>Node9</title>
<g id="a_node9"><a xlink:title=" ">
<polygon fill="white" stroke="#bfbfbf" points="902,-168.5 902,-187.5 992,-187.5 992,-168.5 902,-168.5"/>
<text text-anchor="middle" x="947" y="-175.5" font-family="Helvetica,sans-Serif" font-size="10.00">lcms2_plugin.h</text>
</a>
</g>
</g>
<!-- Node1&#45;&gt;Node9 -->
<g id="edge12" class="edge">
<title>Node1&#45;&gt;Node9</title>
<path fill="none" stroke="midnightblue" d="M782.06,-224.44C815.6,-215.2 869.2,-200.44 906.14,-190.26"/>
<polygon fill="midnightblue" stroke="midnightblue" points="907.38,-193.55 916.09,-187.52 905.52,-186.8 907.38,-193.55"/>
</g>
<!-- Node10 -->
<g id="node10" class="node">
<title>Node10</title>
<g id="a_node10"><a xlink:href="helper_8h.html" target="_top" xlink:title="Various smaller help elements.">
<polygon fill="white" stroke="black" points="405,-168.5 405,-187.5 461,-187.5 461,-168.5 405,-168.5"/>
<text text-anchor="middle" x="433" y="-175.5" font-family="Helvetica,sans-Serif" font-size="10.00">helper.h</text>
</a>
</g>
</g>
<!-- Node1&#45;&gt;Node10 -->
<g id="edge13" class="edge">
<title>Node1&#45;&gt;Node10</title>
<path fill="none" stroke="midnightblue" d="M700.61,-224.44C636.97,-213.64 528.87,-195.28 471.47,-185.53"/>
<polygon fill="midnightblue" stroke="midnightblue" points="471.81,-182.04 461.36,-183.82 470.64,-188.94 471.81,-182.04"/>
</g>
<!-- Node2&#45;&gt;Node3 -->
<g id="edge2" class="edge">
<title>Node2&#45;&gt;Node3</title>
<path fill="none" stroke="midnightblue" d="M580,-56.08C580,-49.01 580,-38.86 580,-29.99"/>
<polygon fill="midnightblue" stroke="midnightblue" points="583.5,-29.75 580,-19.75 576.5,-29.75 583.5,-29.75"/>
</g>
<!-- Node4&#45;&gt;Node2 -->
<g id="edge4" class="edge">
<title>Node4&#45;&gt;Node2</title>
<path fill="none" stroke="midnightblue" d="M662.25,-112.32C646.68,-103.74 622.62,-90.49 604.54,-80.52"/>
<polygon fill="midnightblue" stroke="midnightblue" points="606.15,-77.42 595.71,-75.65 602.78,-83.55 606.15,-77.42"/>
</g>
<!-- Node5&#45;&gt;Node2 -->
<g id="edge6" class="edge">
<title>Node5&#45;&gt;Node2</title>
<path fill="none" stroke="midnightblue" d="M610.41,-168.37C605.06,-150.54 592.69,-109.3 585.48,-85.27"/>
<polygon fill="midnightblue" stroke="midnightblue" points="588.8,-84.16 582.58,-75.59 582.1,-86.18 588.8,-84.16"/>
</g>
<!-- Node5&#45;&gt;Node4 -->
<g id="edge7" class="edge">
<title>Node5&#45;&gt;Node4</title>
<path fill="none" stroke="midnightblue" d="M623.44,-168.32C633.15,-160.26 647.82,-148.08 659.5,-138.37"/>
<polygon fill="midnightblue" stroke="midnightblue" points="661.91,-140.92 667.37,-131.83 657.44,-135.53 661.91,-140.92"/>
</g>
<!-- Node6 -->
<g id="node6" class="node">
<title>Node6</title>
<g id="a_node6"><a xlink:title=" ">
<polygon fill="white" stroke="#bfbfbf" points="496.5,-112.5 496.5,-131.5 551.5,-131.5 551.5,-112.5 496.5,-112.5"/>
<text text-anchor="middle" x="524" y="-119.5" font-family="Helvetica,sans-Serif" font-size="10.00">lcms2.h</text>
</a>
</g>
</g>
<!-- Node5&#45;&gt;Node6 -->
<g id="edge8" class="edge">
<title>Node5&#45;&gt;Node6</title>
<path fill="none" stroke="midnightblue" d="M598.7,-168.32C584.82,-159.9 563.51,-146.97 547.2,-137.07"/>
<polygon fill="midnightblue" stroke="midnightblue" points="548.63,-133.85 538.26,-131.65 545,-139.83 548.63,-133.85"/>
</g>
<!-- Node10&#45;&gt;Node2 -->
<g id="edge14" class="edge">
<title>Node10&#45;&gt;Node2</title>
<path fill="none" stroke="midnightblue" d="M438.51,-168.43C447.52,-154.98 466.54,-128.71 488,-112 505.6,-98.29 528.04,-87.21 546.36,-79.48"/>
<polygon fill="midnightblue" stroke="midnightblue" points="547.84,-82.65 555.78,-75.64 545.2,-76.17 547.84,-82.65"/>
</g>
<!-- Node10&#45;&gt;Node3 -->
<g id="edge18" class="edge">
<title>Node10&#45;&gt;Node3</title>
<path fill="none" stroke="midnightblue" d="M404.9,-177.65C332.44,-178.67 142.21,-176.92 103,-132 97.15,-125.3 97.4,-118.91 103,-112 158.13,-43.97 435.71,-19.93 540.17,-13.21"/>
<polygon fill="midnightblue" stroke="midnightblue" points="540.54,-16.7 550.3,-12.58 540.1,-9.71 540.54,-16.7"/>
</g>
<!-- Node10&#45;&gt;Node4 -->
<g id="edge15" class="edge">
<title>Node10&#45;&gt;Node4</title>
<path fill="none" stroke="midnightblue" d="M461.1,-170.81C502.14,-161.76 579.05,-144.81 629.38,-133.72"/>
<polygon fill="midnightblue" stroke="midnightblue" points="630.37,-137.08 639.39,-131.51 628.87,-130.25 630.37,-137.08"/>
</g>
<!-- Node10&#45;&gt;Node6 -->
<g id="edge22" class="edge">
<title>Node10&#45;&gt;Node6</title>
<path fill="none" stroke="midnightblue" d="M447.62,-168.32C461.95,-159.82 484.01,-146.73 500.75,-136.8"/>
<polygon fill="midnightblue" stroke="midnightblue" points="502.6,-139.77 509.42,-131.65 499.03,-133.75 502.6,-139.77"/>
</g>
<!-- Node11 -->
<g id="node11" class="node">
<title>Node11</title>
<g id="a_node11"><a xlink:title=" ">
<polygon fill="white" stroke="#bfbfbf" points="283.5,-112.5 283.5,-131.5 338.5,-131.5 338.5,-112.5 283.5,-112.5"/>
<text text-anchor="middle" x="311" y="-119.5" font-family="Helvetica,sans-Serif" font-size="10.00">QImage</text>
</a>
</g>
</g>
<!-- Node10&#45;&gt;Node11 -->
<g id="edge16" class="edge">
<title>Node10&#45;&gt;Node11</title>
<path fill="none" stroke="midnightblue" d="M413.67,-168.44C393.68,-159.6 362.26,-145.69 339.44,-135.59"/>
<polygon fill="midnightblue" stroke="midnightblue" points="340.8,-132.36 330.24,-131.52 337.97,-138.76 340.8,-132.36"/>
</g>
<!-- Node12 -->
<g id="node12" class="node">
<title>Node12</title>
<g id="a_node12"><a xlink:title=" ">
<polygon fill="white" stroke="#bfbfbf" points="356.5,-112.5 356.5,-131.5 439.5,-131.5 439.5,-112.5 356.5,-112.5"/>
<text text-anchor="middle" x="398" y="-119.5" font-family="Helvetica,sans-Serif" font-size="10.00">QWheelEvent</text>
</a>
</g>
</g>
<!-- Node10&#45;&gt;Node12 -->
<g id="edge17" class="edge">
<title>Node10&#45;&gt;Node12</title>
<path fill="none" stroke="midnightblue" d="M427.22,-168.08C422.33,-160.53 415.17,-149.49 409.17,-140.23"/>
<polygon fill="midnightblue" stroke="midnightblue" points="412.05,-138.24 403.67,-131.75 406.17,-142.05 412.05,-138.24"/>
</g>
<!-- Node13 -->
<g id="node13" class="node">
<title>Node13</title>
<g id="a_node13"><a xlink:href="lchdouble_8h.html" target="_top" xlink:title=" ">
<polygon fill="white" stroke="black" points="112.5,-112.5 112.5,-131.5 265.5,-131.5 265.5,-112.5 112.5,-112.5"/>
<text text-anchor="middle" x="189" y="-119.5" font-family="Helvetica,sans-Serif" font-size="10.00">PerceptualColor/lchdouble.h</text>
</a>
</g>
</g>
<!-- Node10&#45;&gt;Node13 -->
<g id="edge19" class="edge">
<title>Node10&#45;&gt;Node13</title>
<path fill="none" stroke="midnightblue" d="M404.53,-170.7C363.6,-161.64 287.58,-144.82 237.64,-133.76"/>
<polygon fill="midnightblue" stroke="midnightblue" points="238.23,-130.31 227.71,-131.57 236.72,-137.14 238.23,-130.31"/>
</g>
<!-- Node13&#45;&gt;Node2 -->
<g id="edge20" class="edge">
<title>Node13&#45;&gt;Node2</title>
<path fill="none" stroke="midnightblue" d="M250.96,-112.44C320.88,-102.79 434.47,-87.1 508.2,-76.92"/>
<polygon fill="midnightblue" stroke="midnightblue" points="508.91,-80.35 518.33,-75.52 507.95,-73.42 508.91,-80.35"/>
</g>
<!-- Node13&#45;&gt;Node7 -->
<g id="edge21" class="edge">
<title>Node13&#45;&gt;Node7</title>
<path fill="none" stroke="midnightblue" d="M163.49,-112.44C136.4,-103.36 93.41,-88.94 63.13,-78.78"/>
<polygon fill="midnightblue" stroke="midnightblue" points="63.99,-75.38 53.39,-75.52 61.76,-82.01 63.99,-75.38"/>
</g>
</g>
</svg>
