<?xml version="1.0" encoding="UTF-8" standalone="no"?>
<!DOCTYPE svg PUBLIC "-//W3C//DTD SVG 1.1//EN"
 "http://www.w3.org/Graphics/SVG/1.1/DTD/svg11.dtd">
<!-- Generated by graphviz version 2.43.0 (0)
 -->
<!-- Title: include/PerceptualColor/lchadouble.h Pages: 1 -->
<svg width="1783pt" height="274pt"
 viewBox="0.00 0.00 1782.50 274.00" xmlns="http://www.w3.org/2000/svg" xmlns:xlink="http://www.w3.org/1999/xlink">
<g id="graph0" class="graph" transform="scale(1 1) rotate(0) translate(4 270)">
<title>include/PerceptualColor/lchadouble.h</title>
<polygon fill="white" stroke="transparent" points="-4,4 -4,-270 1778.5,-270 1778.5,4 -4,4"/>
<!-- Node1 -->
<g id="node1" class="node">
<title>Node1</title>
<g id="a_node1"><a xlink:title=" ">
<polygon fill="#bfbfbf" stroke="black" points="1497,-235.5 1497,-265.5 1629,-265.5 1629,-235.5 1497,-235.5"/>
<text text-anchor="start" x="1505" y="-253.5" font-family="Helvetica,sans-Serif" font-size="10.00">include/PerceptualColor</text>
<text text-anchor="middle" x="1563" y="-242.5" font-family="Helvetica,sans-Serif" font-size="10.00">/lchadouble.h</text>
</a>
</g>
</g>
<!-- Node2 -->
<g id="node2" class="node">
<title>Node2</title>
<g id="a_node2"><a xlink:href="rgbcolorspace_8h.html" target="_top" xlink:title=" ">
<polygon fill="white" stroke="black" points="1119.5,-179.5 1119.5,-198.5 1230.5,-198.5 1230.5,-179.5 1119.5,-179.5"/>
<text text-anchor="middle" x="1175" y="-186.5" font-family="Helvetica,sans-Serif" font-size="10.00">src/rgbcolorspace.h</text>
</a>
</g>
</g>
<!-- Node1&#45;&gt;Node2 -->
<g id="edge1" class="edge">
<title>Node1&#45;&gt;Node2</title>
<path fill="none" stroke="midnightblue" d="M1486.83,-237.82C1411.45,-226.26 1297.88,-208.84 1230.61,-198.53"/>
<polygon fill="midnightblue" stroke="midnightblue" points="1486.33,-241.28 1496.74,-239.34 1487.39,-234.36 1486.33,-241.28"/>
</g>
<!-- Node22 -->
<g id="node22" class="node">
<title>Node22</title>
<g id="a_node22"><a xlink:href="gradientimage_8h.html" target="_top" xlink:title=" ">
<polygon fill="white" stroke="black" points="1488,-118 1488,-137 1602,-137 1602,-118 1488,-118"/>
<text text-anchor="middle" x="1545" y="-125" font-family="Helvetica,sans-Serif" font-size="10.00">src/gradientimage.h</text>
</a>
</g>
</g>
<!-- Node1&#45;&gt;Node22 -->
<g id="edge31" class="edge">
<title>Node1&#45;&gt;Node22</title>
<path fill="none" stroke="midnightblue" d="M1551.09,-226.26C1547.41,-217.9 1543.84,-208.24 1542,-199 1537.64,-177.14 1540.99,-150.73 1543.3,-137.29"/>
<polygon fill="midnightblue" stroke="midnightblue" points="1547.95,-227.82 1555.36,-235.39 1554.29,-224.85 1547.95,-227.82"/>
</g>
<!-- Node27 -->
<g id="node27" class="node">
<title>Node27</title>
<g id="a_node27"><a xlink:href="lchadouble_8cpp.html" target="_top" xlink:title=" ">
<polygon fill="white" stroke="black" points="1550.5,-179.5 1550.5,-198.5 1657.5,-198.5 1657.5,-179.5 1550.5,-179.5"/>
<text text-anchor="middle" x="1604" y="-186.5" font-family="Helvetica,sans-Serif" font-size="10.00">src/lchadouble.cpp</text>
</a>
</g>
</g>
<!-- Node1&#45;&gt;Node27 -->
<g id="edge32" class="edge">
<title>Node1&#45;&gt;Node27</title>
<path fill="none" stroke="midnightblue" d="M1578.43,-227.1C1585.27,-217.19 1592.9,-206.11 1598.03,-198.66"/>
<polygon fill="midnightblue" stroke="midnightblue" points="1575.51,-225.18 1572.72,-235.4 1581.27,-229.15 1575.51,-225.18"/>
</g>
<!-- Node28 -->
<g id="node28" class="node">
<title>Node28</title>
<g id="a_node28"><a xlink:href="gradientslider_8h.html" target="_top" xlink:title=" ">
<polygon fill="white" stroke="black" points="1620,-112.5 1620,-142.5 1752,-142.5 1752,-112.5 1620,-112.5"/>
<text text-anchor="start" x="1628" y="-130.5" font-family="Helvetica,sans-Serif" font-size="10.00">include/PerceptualColor</text>
<text text-anchor="middle" x="1686" y="-119.5" font-family="Helvetica,sans-Serif" font-size="10.00">/gradientslider.h</text>
</a>
</g>
</g>
<!-- Node1&#45;&gt;Node28 -->
<g id="edge33" class="edge">
<title>Node1&#45;&gt;Node28</title>
<path fill="none" stroke="midnightblue" d="M1621.66,-231.5C1638.35,-223.84 1655.18,-213.29 1667,-199 1680.41,-182.78 1684.42,-157.96 1685.58,-142.5"/>
<polygon fill="midnightblue" stroke="midnightblue" points="1620.24,-228.29 1612.43,-235.45 1623,-234.73 1620.24,-228.29"/>
</g>
<!-- Node3 -->
<g id="node3" class="node">
<title>Node3</title>
<g id="a_node3"><a xlink:href="chromahueimage_8h.html" target="_top" xlink:title=" ">
<polygon fill="white" stroke="black" points="169,-118 169,-137 297,-137 297,-118 169,-118"/>
<text text-anchor="middle" x="233" y="-125" font-family="Helvetica,sans-Serif" font-size="10.00">src/chromahueimage.h</text>
</a>
</g>
</g>
<!-- Node2&#45;&gt;Node3 -->
<g id="edge2" class="edge">
<title>Node2&#45;&gt;Node3</title>
<path fill="none" stroke="midnightblue" d="M1109.02,-185.26C972.33,-179.38 648.33,-164.3 377,-143 350.82,-140.95 322.02,-138.15 297.1,-135.57"/>
<polygon fill="midnightblue" stroke="midnightblue" points="1109.17,-188.77 1119.31,-185.7 1109.47,-181.78 1109.17,-188.77"/>
</g>
<!-- Node7 -->
<g id="node7" class="node">
<title>Node7</title>
<g id="a_node7"><a xlink:href="colorwheelimage_8h.html" target="_top" xlink:title=" ">
<polygon fill="white" stroke="black" points="386.5,-118 386.5,-137 513.5,-137 513.5,-118 386.5,-118"/>
<text text-anchor="middle" x="450" y="-125" font-family="Helvetica,sans-Serif" font-size="10.00">src/colorwheelimage.h</text>
</a>
</g>
</g>
<!-- Node2&#45;&gt;Node7 -->
<g id="edge6" class="edge">
<title>Node2&#45;&gt;Node7</title>
<path fill="none" stroke="midnightblue" d="M1109.26,-182.6C970.69,-171.23 650.19,-144.93 513.56,-133.72"/>
<polygon fill="midnightblue" stroke="midnightblue" points="1109.06,-186.1 1119.31,-183.43 1109.63,-179.12 1109.06,-186.1"/>
</g>
<!-- Node12 -->
<g id="node12" class="node">
<title>Node12</title>
<g id="a_node12"><a xlink:href="chromalightnessimage_8h.html" target="_top" xlink:title=" ">
<polygon fill="white" stroke="black" points="859.5,-118 859.5,-137 1014.5,-137 1014.5,-118 859.5,-118"/>
<text text-anchor="middle" x="937" y="-125" font-family="Helvetica,sans-Serif" font-size="10.00">src/chromalightnessimage.h</text>
</a>
</g>
</g>
<!-- Node2&#45;&gt;Node12 -->
<g id="edge12" class="edge">
<title>Node2&#45;&gt;Node12</title>
<path fill="none" stroke="midnightblue" d="M1131.16,-177.04C1084.96,-165.49 1013.16,-147.54 971.04,-137.01"/>
<polygon fill="midnightblue" stroke="midnightblue" points="1130.35,-180.45 1140.9,-179.48 1132.05,-173.65 1130.35,-180.45"/>
</g>
<!-- Node16 -->
<g id="node16" class="node">
<title>Node16</title>
<g id="a_node16"><a xlink:href="rgbcolorspace__p_8h.html" target="_top" xlink:title=" ">
<polygon fill="white" stroke="black" points="985,-56.5 985,-75.5 1107,-75.5 1107,-56.5 985,-56.5"/>
<text text-anchor="middle" x="1046" y="-63.5" font-family="Helvetica,sans-Serif" font-size="10.00">src/rgbcolorspace_p.h</text>
</a>
</g>
</g>
<!-- Node2&#45;&gt;Node16 -->
<g id="edge29" class="edge">
<title>Node2&#45;&gt;Node16</title>
<path fill="none" stroke="midnightblue" d="M1155.87,-172.82C1145.37,-164.29 1132.23,-153.32 1121,-143 1095.62,-119.66 1067.53,-90.12 1054.06,-75.71"/>
<polygon fill="midnightblue" stroke="midnightblue" points="1153.99,-175.8 1163.98,-179.34 1158.38,-170.34 1153.99,-175.8"/>
</g>
<!-- Node17 -->
<g id="node17" class="node">
<title>Node17</title>
<g id="a_node17"><a xlink:href="rgbcolorspace_8cpp.html" target="_top" xlink:title=" ">
<polygon fill="white" stroke="black" points="1029,-0.5 1029,-19.5 1151,-19.5 1151,-0.5 1029,-0.5"/>
<text text-anchor="middle" x="1090" y="-7.5" font-family="Helvetica,sans-Serif" font-size="10.00">src/rgbcolorspace.cpp</text>
</a>
</g>
</g>
<!-- Node2&#45;&gt;Node17 -->
<g id="edge28" class="edge">
<title>Node2&#45;&gt;Node17</title>
<path fill="none" stroke="midnightblue" d="M1167.5,-169.62C1156.82,-143.86 1136.28,-95.71 1116,-56 1109.43,-43.14 1100.92,-28.78 1095.46,-19.81"/>
<polygon fill="midnightblue" stroke="midnightblue" points="1164.4,-171.29 1171.44,-179.2 1170.87,-168.63 1164.4,-171.29"/>
</g>
<!-- Node18 -->
<g id="node18" class="node">
<title>Node18</title>
<g id="a_node18"><a xlink:href="multicolor_8h.html" target="_top" xlink:title=" ">
<polygon fill="white" stroke="black" points="1166,-118 1166,-137 1258,-137 1258,-118 1166,-118"/>
<text text-anchor="middle" x="1212" y="-125" font-family="Helvetica,sans-Serif" font-size="10.00">src/multicolor.h</text>
</a>
</g>
</g>
<!-- Node2&#45;&gt;Node18 -->
<g id="edge19" class="edge">
<title>Node2&#45;&gt;Node18</title>
<path fill="none" stroke="midnightblue" d="M1185.78,-170.67C1192.66,-159.61 1201.27,-145.75 1206.71,-137.01"/>
<polygon fill="midnightblue" stroke="midnightblue" points="1182.61,-169.13 1180.3,-179.48 1188.55,-172.83 1182.61,-169.13"/>
</g>
<!-- Node20 -->
<g id="node20" class="node">
<title>Node20</title>
<g id="a_node20"><a xlink:href="colordialog_8cpp.html" target="_top" xlink:title=" ">
<polygon fill="white" stroke="black" points="1326,-0.5 1326,-19.5 1434,-19.5 1434,-0.5 1326,-0.5"/>
<text text-anchor="middle" x="1380" y="-7.5" font-family="Helvetica,sans-Serif" font-size="10.00">src/colordialog.cpp</text>
</a>
</g>
</g>
<!-- Node2&#45;&gt;Node20 -->
<g id="edge23" class="edge">
<title>Node2&#45;&gt;Node20</title>
<path fill="none" stroke="midnightblue" d="M1205.19,-175.35C1223.61,-167.12 1247.33,-155.6 1267,-143 1285.35,-131.25 1286.08,-122.83 1305,-112 1344.91,-89.16 1375.74,-113.75 1402,-76 1414.38,-58.2 1398.04,-32.86 1387.56,-19.69"/>
<polygon fill="midnightblue" stroke="midnightblue" points="1203.58,-172.23 1195.82,-179.45 1206.39,-178.65 1203.58,-172.23"/>
</g>
<!-- Node2&#45;&gt;Node22 -->
<g id="edge24" class="edge">
<title>Node2&#45;&gt;Node22</title>
<path fill="none" stroke="midnightblue" d="M1240.71,-179.51C1302.22,-171.26 1396.6,-157.84 1478,-143 1487.6,-141.25 1497.93,-139.13 1507.52,-137.06"/>
<polygon fill="midnightblue" stroke="midnightblue" points="1240.2,-176.05 1230.75,-180.84 1241.12,-182.98 1240.2,-176.05"/>
</g>
<!-- Node26 -->
<g id="node26" class="node">
<title>Node26</title>
<g id="a_node26"><a xlink:href="rgbcolorspacefactory_8cpp.html" target="_top" xlink:title=" ">
<polygon fill="white" stroke="black" points="1314.5,-118 1314.5,-137 1469.5,-137 1469.5,-118 1314.5,-118"/>
<text text-anchor="middle" x="1392" y="-125" font-family="Helvetica,sans-Serif" font-size="10.00">src/rgbcolorspacefactory.cpp</text>
</a>
</g>
</g>
<!-- Node2&#45;&gt;Node26 -->
<g id="edge30" class="edge">
<title>Node2&#45;&gt;Node26</title>
<path fill="none" stroke="midnightblue" d="M1215.77,-176.82C1257.92,-165.26 1322.8,-147.47 1360.97,-137.01"/>
<polygon fill="midnightblue" stroke="midnightblue" points="1214.81,-173.46 1206.09,-179.48 1216.66,-180.21 1214.81,-173.46"/>
</g>
<!-- Node4 -->
<g id="node4" class="node">
<title>Node4</title>
<g id="a_node4"><a xlink:href="chromahuediagram__p_8h.html" target="_top" xlink:title=" ">
<polygon fill="white" stroke="black" points="158.5,-56.5 158.5,-75.5 307.5,-75.5 307.5,-56.5 158.5,-56.5"/>
<text text-anchor="middle" x="233" y="-63.5" font-family="Helvetica,sans-Serif" font-size="10.00">src/chromahuediagram_p.h</text>
</a>
</g>
</g>
<!-- Node3&#45;&gt;Node4 -->
<g id="edge3" class="edge">
<title>Node3&#45;&gt;Node4</title>
<path fill="none" stroke="midnightblue" d="M233,-107.82C233,-97 233,-83.9 233,-75.51"/>
<polygon fill="midnightblue" stroke="midnightblue" points="229.5,-107.98 233,-117.98 236.5,-107.98 229.5,-107.98"/>
</g>
<!-- Node6 -->
<g id="node6" class="node">
<title>Node6</title>
<g id="a_node6"><a xlink:href="chromahueimage_8cpp.html" target="_top" xlink:title=" ">
<polygon fill="white" stroke="black" points="0,-56.5 0,-75.5 140,-75.5 140,-56.5 0,-56.5"/>
<text text-anchor="middle" x="70" y="-63.5" font-family="Helvetica,sans-Serif" font-size="10.00">src/chromahueimage.cpp</text>
</a>
</g>
</g>
<!-- Node3&#45;&gt;Node6 -->
<g id="edge5" class="edge">
<title>Node3&#45;&gt;Node6</title>
<path fill="none" stroke="midnightblue" d="M199.94,-114.43C168.26,-102.87 121.25,-85.71 93.31,-75.51"/>
<polygon fill="midnightblue" stroke="midnightblue" points="199.05,-117.83 209.65,-117.98 201.45,-111.26 199.05,-117.83"/>
</g>
<!-- Node5 -->
<g id="node5" class="node">
<title>Node5</title>
<g id="a_node5"><a xlink:href="chromahuediagram_8cpp.html" target="_top" xlink:title=" ">
<polygon fill="white" stroke="black" points="158.5,-0.5 158.5,-19.5 307.5,-19.5 307.5,-0.5 158.5,-0.5"/>
<text text-anchor="middle" x="233" y="-7.5" font-family="Helvetica,sans-Serif" font-size="10.00">src/chromahuediagram.cpp</text>
</a>
</g>
</g>
<!-- Node4&#45;&gt;Node5 -->
<g id="edge4" class="edge">
<title>Node4&#45;&gt;Node5</title>
<path fill="none" stroke="midnightblue" d="M233,-45.8C233,-36.91 233,-26.78 233,-19.75"/>
<polygon fill="midnightblue" stroke="midnightblue" points="229.5,-46.08 233,-56.08 236.5,-46.08 229.5,-46.08"/>
</g>
<!-- Node7&#45;&gt;Node4 -->
<g id="edge7" class="edge">
<title>Node7&#45;&gt;Node4</title>
<path fill="none" stroke="midnightblue" d="M409.23,-115.32C367.08,-103.76 302.2,-85.97 264.03,-75.51"/>
<polygon fill="midnightblue" stroke="midnightblue" points="408.34,-118.71 418.91,-117.98 410.19,-111.96 408.34,-118.71"/>
</g>
<!-- Node8 -->
<g id="node8" class="node">
<title>Node8</title>
<g id="a_node8"><a xlink:href="colorwheel__p_8h.html" target="_top" xlink:title=" ">
<polygon fill="white" stroke="black" points="325.5,-56.5 325.5,-75.5 432.5,-75.5 432.5,-56.5 325.5,-56.5"/>
<text text-anchor="middle" x="379" y="-63.5" font-family="Helvetica,sans-Serif" font-size="10.00">src/colorwheel_p.h</text>
</a>
</g>
</g>
<!-- Node7&#45;&gt;Node8 -->
<g id="edge8" class="edge">
<title>Node7&#45;&gt;Node8</title>
<path fill="none" stroke="midnightblue" d="M432.07,-111.47C418.49,-100.09 400.32,-84.87 389.15,-75.51"/>
<polygon fill="midnightblue" stroke="midnightblue" points="429.91,-114.23 439.83,-117.98 434.41,-108.87 429.91,-114.23"/>
</g>
<!-- Node11 -->
<g id="node11" class="node">
<title>Node11</title>
<g id="a_node11"><a xlink:href="colorwheelimage_8cpp.html" target="_top" xlink:title=" ">
<polygon fill="white" stroke="black" points="451,-56.5 451,-75.5 589,-75.5 589,-56.5 451,-56.5"/>
<text text-anchor="middle" x="520" y="-63.5" font-family="Helvetica,sans-Serif" font-size="10.00">src/colorwheelimage.cpp</text>
</a>
</g>
</g>
<!-- Node7&#45;&gt;Node11 -->
<g id="edge11" class="edge">
<title>Node7&#45;&gt;Node11</title>
<path fill="none" stroke="midnightblue" d="M467.68,-111.47C481.07,-100.09 498.98,-84.87 509.99,-75.51"/>
<polygon fill="midnightblue" stroke="midnightblue" points="465.38,-108.83 460.03,-117.98 469.92,-114.17 465.38,-108.83"/>
</g>
<!-- Node9 -->
<g id="node9" class="node">
<title>Node9</title>
<g id="a_node9"><a xlink:href="colorwheel_8cpp.html" target="_top" xlink:title=" ">
<polygon fill="white" stroke="black" points="325.5,-0.5 325.5,-19.5 432.5,-19.5 432.5,-0.5 325.5,-0.5"/>
<text text-anchor="middle" x="379" y="-7.5" font-family="Helvetica,sans-Serif" font-size="10.00">src/colorwheel.cpp</text>
</a>
</g>
</g>
<!-- Node8&#45;&gt;Node9 -->
<g id="edge9" class="edge">
<title>Node8&#45;&gt;Node9</title>
<path fill="none" stroke="midnightblue" d="M379,-45.8C379,-36.91 379,-26.78 379,-19.75"/>
<polygon fill="midnightblue" stroke="midnightblue" points="375.5,-46.08 379,-56.08 382.5,-46.08 375.5,-46.08"/>
</g>
<!-- Node10 -->
<g id="node10" class="node">
<title>Node10</title>
<g id="a_node10"><a xlink:href="wheelcolorpicker_8cpp.html" target="_top" xlink:title=" ">
<polygon fill="white" stroke="black" points="452,-0.5 452,-19.5 588,-19.5 588,-0.5 452,-0.5"/>
<text text-anchor="middle" x="520" y="-7.5" font-family="Helvetica,sans-Serif" font-size="10.00">src/wheelcolorpicker.cpp</text>
</a>
</g>
</g>
<!-- Node8&#45;&gt;Node10 -->
<g id="edge10" class="edge">
<title>Node8&#45;&gt;Node10</title>
<path fill="none" stroke="midnightblue" d="M410.93,-52.77C437.41,-42.63 474.39,-28.47 497.76,-19.52"/>
<polygon fill="midnightblue" stroke="midnightblue" points="409.43,-49.6 401.34,-56.44 411.93,-56.14 409.43,-49.6"/>
</g>
<!-- Node13 -->
<g id="node13" class="node">
<title>Node13</title>
<g id="a_node13"><a xlink:href="chromalightnessdiagram__p_8h.html" target="_top" xlink:title=" ">
<polygon fill="white" stroke="black" points="607,-56.5 607,-75.5 783,-75.5 783,-56.5 607,-56.5"/>
<text text-anchor="middle" x="695" y="-63.5" font-family="Helvetica,sans-Serif" font-size="10.00">src/chromalightnessdiagram_p.h</text>
</a>
</g>
</g>
<!-- Node12&#45;&gt;Node13 -->
<g id="edge13" class="edge">
<title>Node12&#45;&gt;Node13</title>
<path fill="none" stroke="midnightblue" d="M892.43,-115.54C845.45,-103.99 772.44,-86.04 729.61,-75.51"/>
<polygon fill="midnightblue" stroke="midnightblue" points="891.78,-118.99 902.33,-117.98 893.45,-112.19 891.78,-118.99"/>
</g>
<!-- Node15 -->
<g id="node15" class="node">
<title>Node15</title>
<g id="a_node15"><a xlink:href="chromalightnessimage_8cpp.html" target="_top" xlink:title=" ">
<polygon fill="white" stroke="black" points="801,-56.5 801,-75.5 967,-75.5 967,-56.5 801,-56.5"/>
<text text-anchor="middle" x="884" y="-63.5" font-family="Helvetica,sans-Serif" font-size="10.00">src/chromalightnessimage.cpp</text>
</a>
</g>
</g>
<!-- Node12&#45;&gt;Node15 -->
<g id="edge16" class="edge">
<title>Node12&#45;&gt;Node15</title>
<path fill="none" stroke="midnightblue" d="M922.75,-110.5C912.71,-99.24 899.68,-84.6 891.58,-75.51"/>
<polygon fill="midnightblue" stroke="midnightblue" points="920.14,-112.84 929.41,-117.98 925.37,-108.18 920.14,-112.84"/>
</g>
<!-- Node12&#45;&gt;Node16 -->
<g id="edge17" class="edge">
<title>Node12&#45;&gt;Node16</title>
<path fill="none" stroke="midnightblue" d="M961.63,-113.06C982.72,-101.54 1012.46,-85.31 1030.41,-75.51"/>
<polygon fill="midnightblue" stroke="midnightblue" points="959.72,-110.11 952.62,-117.98 963.07,-116.26 959.72,-110.11"/>
</g>
<!-- Node13&#45;&gt;Node10 -->
<g id="edge15" class="edge">
<title>Node13&#45;&gt;Node10</title>
<path fill="none" stroke="midnightblue" d="M657.53,-53.44C624.53,-43.26 577.24,-28.66 547.6,-19.52"/>
<polygon fill="midnightblue" stroke="midnightblue" points="656.68,-56.84 667.27,-56.44 658.75,-50.15 656.68,-56.84"/>
</g>
<!-- Node14 -->
<g id="node14" class="node">
<title>Node14</title>
<g id="a_node14"><a xlink:href="chromalightnessdiagram_8cpp.html" target="_top" xlink:title=" ">
<polygon fill="white" stroke="black" points="607,-0.5 607,-19.5 783,-19.5 783,-0.5 607,-0.5"/>
<text text-anchor="middle" x="695" y="-7.5" font-family="Helvetica,sans-Serif" font-size="10.00">src/chromalightnessdiagram.cpp</text>
</a>
</g>
</g>
<!-- Node13&#45;&gt;Node14 -->
<g id="edge14" class="edge">
<title>Node13&#45;&gt;Node14</title>
<path fill="none" stroke="midnightblue" d="M695,-45.8C695,-36.91 695,-26.78 695,-19.75"/>
<polygon fill="midnightblue" stroke="midnightblue" points="691.5,-46.08 695,-56.08 698.5,-46.08 691.5,-46.08"/>
</g>
<!-- Node16&#45;&gt;Node17 -->
<g id="edge18" class="edge">
<title>Node16&#45;&gt;Node17</title>
<path fill="none" stroke="midnightblue" d="M1059.73,-48.14C1067.4,-38.74 1076.63,-27.4 1082.87,-19.75"/>
<polygon fill="midnightblue" stroke="midnightblue" points="1056.87,-46.12 1053.27,-56.08 1062.3,-50.54 1056.87,-46.12"/>
</g>
<!-- Node19 -->
<g id="node19" class="node">
<title>Node19</title>
<g id="a_node19"><a xlink:href="colordialog__p_8h.html" target="_top" xlink:title=" ">
<polygon fill="white" stroke="black" points="1285,-56.5 1285,-75.5 1393,-75.5 1393,-56.5 1285,-56.5"/>
<text text-anchor="middle" x="1339" y="-63.5" font-family="Helvetica,sans-Serif" font-size="10.00">src/colordialog_p.h</text>
</a>
</g>
</g>
<!-- Node18&#45;&gt;Node19 -->
<g id="edge20" class="edge">
<title>Node18&#45;&gt;Node19</title>
<path fill="none" stroke="midnightblue" d="M1239.38,-113.67C1264.02,-102.13 1299.54,-85.49 1320.84,-75.51"/>
<polygon fill="midnightblue" stroke="midnightblue" points="1237.77,-110.56 1230.2,-117.98 1240.74,-116.9 1237.77,-110.56"/>
</g>
<!-- Node21 -->
<g id="node21" class="node">
<title>Node21</title>
<g id="a_node21"><a xlink:href="multicolor_8cpp.html" target="_top" xlink:title=" ">
<polygon fill="white" stroke="black" points="1163.5,-56.5 1163.5,-75.5 1266.5,-75.5 1266.5,-56.5 1163.5,-56.5"/>
<text text-anchor="middle" x="1215" y="-63.5" font-family="Helvetica,sans-Serif" font-size="10.00">src/multicolor.cpp</text>
</a>
</g>
</g>
<!-- Node18&#45;&gt;Node21 -->
<g id="edge22" class="edge">
<title>Node18&#45;&gt;Node21</title>
<path fill="none" stroke="midnightblue" d="M1212.94,-107.82C1213.49,-97 1214.15,-83.9 1214.57,-75.51"/>
<polygon fill="midnightblue" stroke="midnightblue" points="1209.44,-107.81 1212.43,-117.98 1216.43,-108.16 1209.44,-107.81"/>
</g>
<!-- Node19&#45;&gt;Node20 -->
<g id="edge21" class="edge">
<title>Node19&#45;&gt;Node20</title>
<path fill="none" stroke="midnightblue" d="M1352.02,-47.86C1359.12,-38.5 1367.6,-27.33 1373.36,-19.75"/>
<polygon fill="midnightblue" stroke="midnightblue" points="1349.03,-46 1345.77,-56.08 1354.61,-50.24 1349.03,-46"/>
</g>
<!-- Node23 -->
<g id="node23" class="node">
<title>Node23</title>
<g id="a_node23"><a xlink:href="gradientimage_8cpp.html" target="_top" xlink:title=" ">
<polygon fill="white" stroke="black" points="1465.5,-56.5 1465.5,-75.5 1590.5,-75.5 1590.5,-56.5 1465.5,-56.5"/>
<text text-anchor="middle" x="1528" y="-63.5" font-family="Helvetica,sans-Serif" font-size="10.00">src/gradientimage.cpp</text>
</a>
</g>
</g>
<!-- Node22&#45;&gt;Node23 -->
<g id="edge25" class="edge">
<title>Node22&#45;&gt;Node23</title>
<path fill="none" stroke="midnightblue" d="M1539.76,-108.16C1536.65,-97.27 1532.85,-83.99 1530.43,-75.51"/>
<polygon fill="midnightblue" stroke="midnightblue" points="1536.45,-109.32 1542.56,-117.98 1543.18,-107.4 1536.45,-109.32"/>
</g>
<!-- Node24 -->
<g id="node24" class="node">
<title>Node24</title>
<g id="a_node24"><a xlink:href="gradientslider__p_8h.html" target="_top" xlink:title=" ">
<polygon fill="white" stroke="black" points="1609,-56.5 1609,-75.5 1731,-75.5 1731,-56.5 1609,-56.5"/>
<text text-anchor="middle" x="1670" y="-63.5" font-family="Helvetica,sans-Serif" font-size="10.00">src/gradientslider_p.h</text>
</a>
</g>
</g>
<!-- Node22&#45;&gt;Node24 -->
<g id="edge26" class="edge">
<title>Node22&#45;&gt;Node24</title>
<path fill="none" stroke="midnightblue" d="M1571.94,-113.67C1596.2,-102.13 1631.16,-85.49 1652.12,-75.51"/>
<polygon fill="midnightblue" stroke="midnightblue" points="1570.43,-110.52 1562.91,-117.98 1573.44,-116.84 1570.43,-110.52"/>
</g>
<!-- Node25 -->
<g id="node25" class="node">
<title>Node25</title>
<g id="a_node25"><a xlink:href="gradientslider_8cpp.html" target="_top" xlink:title=" ">
<polygon fill="white" stroke="black" points="1653.5,-0.5 1653.5,-19.5 1774.5,-19.5 1774.5,-0.5 1653.5,-0.5"/>
<text text-anchor="middle" x="1714" y="-7.5" font-family="Helvetica,sans-Serif" font-size="10.00">src/gradientslider.cpp</text>
</a>
</g>
</g>
<!-- Node24&#45;&gt;Node25 -->
<g id="edge27" class="edge">
<title>Node24&#45;&gt;Node25</title>
<path fill="none" stroke="midnightblue" d="M1683.73,-48.14C1691.4,-38.74 1700.63,-27.4 1706.87,-19.75"/>
<polygon fill="midnightblue" stroke="midnightblue" points="1680.87,-46.12 1677.27,-56.08 1686.3,-50.54 1680.87,-46.12"/>
</g>
<!-- Node28&#45;&gt;Node19 -->
<g id="edge34" class="edge">
<title>Node28&#45;&gt;Node19</title>
<path fill="none" stroke="midnightblue" d="M1609.88,-111.82C1528.71,-97.36 1445.8,-83.9 1393,-75.49"/>
<polygon fill="midnightblue" stroke="midnightblue" points="1609.3,-115.28 1619.76,-113.59 1610.54,-108.39 1609.3,-115.28"/>
</g>
<!-- Node28&#45;&gt;Node24 -->
<g id="edge36" class="edge">
<title>Node28&#45;&gt;Node24</title>
<path fill="none" stroke="midnightblue" d="M1679.57,-102.59C1677.01,-93.08 1674.23,-82.73 1672.33,-75.66"/>
<polygon fill="midnightblue" stroke="midnightblue" points="1676.23,-103.65 1682.21,-112.4 1682.99,-101.83 1676.23,-103.65"/>
</g>
<!-- Node28&#45;&gt;Node25 -->
<g id="edge35" class="edge">
<title>Node28&#45;&gt;Node25</title>
<path fill="none" stroke="midnightblue" d="M1716.25,-106.02C1725.68,-97.9 1734.93,-87.68 1740,-76 1748.61,-56.15 1732.68,-32.48 1722.17,-19.9"/>
<polygon fill="midnightblue" stroke="midnightblue" points="1713.98,-103.36 1708.37,-112.35 1718.36,-108.81 1713.98,-103.36"/>
</g>
</g>
</svg>
