<?xml version="1.0" encoding="UTF-8" standalone="no"?>
<!DOCTYPE svg PUBLIC "-//W3C//DTD SVG 1.1//EN"
 "http://www.w3.org/Graphics/SVG/1.1/DTD/svg11.dtd">
<!-- Generated by graphviz version 2.43.0 (0)
 -->
<!-- Title: src/lchdouble.cpp Pages: 1 -->
<svg width="515pt" height="196pt"
 viewBox="0.00 0.00 514.50 196.00" xmlns="http://www.w3.org/2000/svg" xmlns:xlink="http://www.w3.org/1999/xlink">
<g id="graph0" class="graph" transform="scale(1 1) rotate(0) translate(4 192)">
<title>src/lchdouble.cpp</title>
<polygon fill="white" stroke="transparent" points="-4,4 -4,-192 510.5,-192 510.5,4 -4,4"/>
<!-- Node1 -->
<g id="node1" class="node">
<title>Node1</title>
<g id="a_node1"><a xlink:title=" ">
<polygon fill="#bfbfbf" stroke="black" points="219.5,-168.5 219.5,-187.5 320.5,-187.5 320.5,-168.5 219.5,-168.5"/>
<text text-anchor="middle" x="270" y="-175.5" font-family="Helvetica,sans-Serif" font-size="10.00">src/lchdouble.cpp</text>
</a>
</g>
</g>
<!-- Node2 -->
<g id="node2" class="node">
<title>Node2</title>
<g id="a_node2"><a xlink:href="perceptualcolorglobal_8h.html" target="_top" xlink:title=" ">
<polygon fill="white" stroke="black" points="0,-56.5 0,-75.5 212,-75.5 212,-56.5 0,-56.5"/>
<text text-anchor="middle" x="106" y="-63.5" font-family="Helvetica,sans-Serif" font-size="10.00">PerceptualColor/perceptualcolorglobal.h</text>
</a>
</g>
</g>
<!-- Node1&#45;&gt;Node2 -->
<g id="edge1" class="edge">
<title>Node1&#45;&gt;Node2</title>
<path fill="none" stroke="midnightblue" d="M219.35,-174.99C155.45,-171.26 50.97,-160.82 27,-132 9.3,-110.72 42.44,-91.25 71.08,-79.28"/>
<polygon fill="midnightblue" stroke="midnightblue" points="72.54,-82.47 80.53,-75.52 69.95,-75.96 72.54,-82.47"/>
</g>
<!-- Node4 -->
<g id="node4" class="node">
<title>Node4</title>
<g id="a_node4"><a xlink:href="perceptualcolorinternal_8h.html" target="_top" xlink:title=" ">
<polygon fill="white" stroke="black" points="36.5,-112.5 36.5,-131.5 175.5,-131.5 175.5,-112.5 36.5,-112.5"/>
<text text-anchor="middle" x="106" y="-119.5" font-family="Helvetica,sans-Serif" font-size="10.00">perceptualcolorinternal.h</text>
</a>
</g>
</g>
<!-- Node1&#45;&gt;Node4 -->
<g id="edge3" class="edge">
<title>Node1&#45;&gt;Node4</title>
<path fill="none" stroke="midnightblue" d="M244.01,-168.44C216.3,-159.32 172.25,-144.81 141.38,-134.65"/>
<polygon fill="midnightblue" stroke="midnightblue" points="142.46,-131.32 131.86,-131.52 140.27,-137.97 142.46,-131.32"/>
</g>
<!-- Node5 -->
<g id="node5" class="node">
<title>Node5</title>
<g id="a_node5"><a xlink:href="lchdouble_8h.html" target="_top" xlink:title=" ">
<polygon fill="white" stroke="black" points="193.5,-112.5 193.5,-131.5 346.5,-131.5 346.5,-112.5 193.5,-112.5"/>
<text text-anchor="middle" x="270" y="-119.5" font-family="Helvetica,sans-Serif" font-size="10.00">PerceptualColor/lchdouble.h</text>
</a>
</g>
</g>
<!-- Node1&#45;&gt;Node5 -->
<g id="edge5" class="edge">
<title>Node1&#45;&gt;Node5</title>
<path fill="none" stroke="midnightblue" d="M270,-168.08C270,-161.01 270,-150.86 270,-141.99"/>
<polygon fill="midnightblue" stroke="midnightblue" points="273.5,-141.75 270,-131.75 266.5,-141.75 273.5,-141.75"/>
</g>
<!-- Node7 -->
<g id="node7" class="node">
<title>Node7</title>
<g id="a_node7"><a xlink:title=" ">
<polygon fill="white" stroke="#bfbfbf" points="364.5,-112.5 364.5,-131.5 433.5,-131.5 433.5,-112.5 364.5,-112.5"/>
<text text-anchor="middle" x="399" y="-119.5" font-family="Helvetica,sans-Serif" font-size="10.00">type_traits</text>
</a>
</g>
</g>
<!-- Node1&#45;&gt;Node7 -->
<g id="edge8" class="edge">
<title>Node1&#45;&gt;Node7</title>
<path fill="none" stroke="midnightblue" d="M290.44,-168.44C311.67,-159.56 345.1,-145.56 369.25,-135.45"/>
<polygon fill="midnightblue" stroke="midnightblue" points="370.78,-138.61 378.66,-131.52 368.08,-132.15 370.78,-138.61"/>
</g>
<!-- Node8 -->
<g id="node8" class="node">
<title>Node8</title>
<g id="a_node8"><a xlink:title=" ">
<polygon fill="white" stroke="#bfbfbf" points="451.5,-112.5 451.5,-131.5 506.5,-131.5 506.5,-112.5 451.5,-112.5"/>
<text text-anchor="middle" x="479" y="-119.5" font-family="Helvetica,sans-Serif" font-size="10.00">lcms2.h</text>
</a>
</g>
</g>
<!-- Node1&#45;&gt;Node8 -->
<g id="edge9" class="edge">
<title>Node1&#45;&gt;Node8</title>
<path fill="none" stroke="midnightblue" d="M303.12,-168.44C340.81,-158.7 402.24,-142.83 441.63,-132.66"/>
<polygon fill="midnightblue" stroke="midnightblue" points="442.57,-136.03 451.38,-130.14 440.82,-129.25 442.57,-136.03"/>
</g>
<!-- Node3 -->
<g id="node3" class="node">
<title>Node3</title>
<g id="a_node3"><a xlink:title=" ">
<polygon fill="white" stroke="#bfbfbf" points="76.5,-0.5 76.5,-19.5 135.5,-19.5 135.5,-0.5 76.5,-0.5"/>
<text text-anchor="middle" x="106" y="-7.5" font-family="Helvetica,sans-Serif" font-size="10.00">QtGlobal</text>
</a>
</g>
</g>
<!-- Node2&#45;&gt;Node3 -->
<g id="edge2" class="edge">
<title>Node2&#45;&gt;Node3</title>
<path fill="none" stroke="midnightblue" d="M106,-56.08C106,-49.01 106,-38.86 106,-29.99"/>
<polygon fill="midnightblue" stroke="midnightblue" points="109.5,-29.75 106,-19.75 102.5,-29.75 109.5,-29.75"/>
</g>
<!-- Node4&#45;&gt;Node2 -->
<g id="edge4" class="edge">
<title>Node4&#45;&gt;Node2</title>
<path fill="none" stroke="midnightblue" d="M106,-112.08C106,-105.01 106,-94.86 106,-85.99"/>
<polygon fill="midnightblue" stroke="midnightblue" points="109.5,-85.75 106,-75.75 102.5,-85.75 109.5,-85.75"/>
</g>
<!-- Node5&#45;&gt;Node2 -->
<g id="edge6" class="edge">
<title>Node5&#45;&gt;Node2</title>
<path fill="none" stroke="midnightblue" d="M244.01,-112.44C216.3,-103.32 172.25,-88.81 141.38,-78.65"/>
<polygon fill="midnightblue" stroke="midnightblue" points="142.46,-75.32 131.86,-75.52 140.27,-81.97 142.46,-75.32"/>
</g>
<!-- Node6 -->
<g id="node6" class="node">
<title>Node6</title>
<g id="a_node6"><a xlink:title=" ">
<polygon fill="white" stroke="#bfbfbf" points="242,-56.5 242,-75.5 298,-75.5 298,-56.5 242,-56.5"/>
<text text-anchor="middle" x="270" y="-63.5" font-family="Helvetica,sans-Serif" font-size="10.00">QDebug</text>
</a>
</g>
</g>
<!-- Node5&#45;&gt;Node6 -->
<g id="edge7" class="edge">
<title>Node5&#45;&gt;Node6</title>
<path fill="none" stroke="midnightblue" d="M270,-112.08C270,-105.01 270,-94.86 270,-85.99"/>
<polygon fill="midnightblue" stroke="midnightblue" points="273.5,-85.75 270,-75.75 266.5,-85.75 273.5,-85.75"/>
</g>
</g>
</svg>
