<?xml version="1.0" encoding="UTF-8" standalone="no"?>
<!DOCTYPE svg PUBLIC "-//W3C//DTD SVG 1.1//EN"
 "http://www.w3.org/Graphics/SVG/1.1/DTD/svg11.dtd">
<!-- Generated by graphviz version 2.43.0 (0)
 -->
<!-- Title: include/PerceptualColor/lchdouble.h Pages: 1 -->
<svg width="2815pt" height="274pt"
 viewBox="0.00 0.00 2814.55 274.00" xmlns="http://www.w3.org/2000/svg" xmlns:xlink="http://www.w3.org/1999/xlink">
<g id="graph0" class="graph" transform="scale(1 1) rotate(0) translate(4 270)">
<title>include/PerceptualColor/lchdouble.h</title>
<polygon fill="white" stroke="transparent" points="-4,4 -4,-270 2810.55,-270 2810.55,4 -4,4"/>
<!-- Node1 -->
<g id="node1" class="node">
<title>Node1</title>
<g id="a_node1"><a xlink:title=" ">
<polygon fill="#bfbfbf" stroke="black" points="1876.5,-235.5 1876.5,-265.5 2008.5,-265.5 2008.5,-235.5 1876.5,-235.5"/>
<text text-anchor="start" x="1884.5" y="-253.5" font-family="Helvetica,sans-Serif" font-size="10.00">include/PerceptualColor</text>
<text text-anchor="middle" x="1942.5" y="-242.5" font-family="Helvetica,sans-Serif" font-size="10.00">/lchdouble.h</text>
</a>
</g>
</g>
<!-- Node2 -->
<g id="node2" class="node">
<title>Node2</title>
<g id="a_node2"><a xlink:href="helper_8h.html" target="_top" xlink:title="Various smaller help elements.">
<polygon fill="white" stroke="black" points="893,-56.5 893,-75.5 966,-75.5 966,-56.5 893,-56.5"/>
<text text-anchor="middle" x="929.5" y="-63.5" font-family="Helvetica,sans-Serif" font-size="10.00">src/helper.h</text>
</a>
</g>
</g>
<!-- Node1&#45;&gt;Node2 -->
<g id="edge1" class="edge">
<title>Node1&#45;&gt;Node2</title>
<path fill="none" stroke="midnightblue" d="M1866.22,-245.69C1676.47,-235.39 1187.68,-203.6 1037.5,-143 996.47,-126.44 955.92,-91.65 938.45,-75.53"/>
<polygon fill="midnightblue" stroke="midnightblue" points="1866.21,-249.19 1876.39,-246.24 1866.59,-242.2 1866.21,-249.19"/>
</g>
<!-- Node19 -->
<g id="node19" class="node">
<title>Node19</title>
<g id="a_node19"><a xlink:href="rgbcolorspace_8h.html" target="_top" xlink:title=" ">
<polygon fill="white" stroke="black" points="1408,-179.5 1408,-198.5 1519,-198.5 1519,-179.5 1408,-179.5"/>
<text text-anchor="middle" x="1463.5" y="-186.5" font-family="Helvetica,sans-Serif" font-size="10.00">src/rgbcolorspace.h</text>
</a>
</g>
</g>
<!-- Node1&#45;&gt;Node19 -->
<g id="edge18" class="edge">
<title>Node1&#45;&gt;Node19</title>
<path fill="none" stroke="midnightblue" d="M1866.39,-240.05C1769.69,-228.03 1605.06,-207.58 1519.25,-196.93"/>
<polygon fill="midnightblue" stroke="midnightblue" points="1866.04,-243.53 1876.4,-241.29 1866.91,-236.58 1866.04,-243.53"/>
</g>
<!-- Node34 -->
<g id="node34" class="node">
<title>Node34</title>
<g id="a_node34"><a xlink:href="lchvalues_8h.html" target="_top" xlink:title=" ">
<polygon fill="white" stroke="black" points="1794,-118 1794,-137 1883,-137 1883,-118 1794,-118"/>
<text text-anchor="middle" x="1838.5" y="-125" font-family="Helvetica,sans-Serif" font-size="10.00">src/lchvalues.h</text>
</a>
</g>
</g>
<!-- Node1&#45;&gt;Node34 -->
<g id="edge48" class="edge">
<title>Node1&#45;&gt;Node34</title>
<path fill="none" stroke="midnightblue" d="M1923.45,-227.34C1900.15,-200.23 1861.83,-155.64 1845.85,-137.05"/>
<polygon fill="midnightblue" stroke="midnightblue" points="1920.99,-229.84 1930.16,-235.14 1926.3,-225.28 1920.99,-229.84"/>
</g>
<!-- Node37 -->
<g id="node37" class="node">
<title>Node37</title>
<g id="a_node37"><a xlink:href="chromalightnessdiagram_8h.html" target="_top" xlink:title=" ">
<polygon fill="white" stroke="black" points="2097.5,-118 2097.5,-137 2261.5,-137 2261.5,-118 2097.5,-118"/>
<text text-anchor="middle" x="2179.5" y="-125" font-family="Helvetica,sans-Serif" font-size="10.00">src/chromalightnessdiagram.h</text>
</a>
</g>
</g>
<!-- Node1&#45;&gt;Node37 -->
<g id="edge62" class="edge">
<title>Node1&#45;&gt;Node37</title>
<path fill="none" stroke="midnightblue" d="M2000.29,-232.21C2025.58,-223.67 2055.19,-212.33 2080.5,-199 2115.41,-180.61 2152.14,-151.47 2169.41,-137.1"/>
<polygon fill="midnightblue" stroke="midnightblue" points="1998.87,-228.99 1990.47,-235.46 2001.06,-235.64 1998.87,-228.99"/>
</g>
<!-- Node38 -->
<g id="node38" class="node">
<title>Node38</title>
<g id="a_node38"><a xlink:href="lchdouble_8cpp.html" target="_top" xlink:title=" ">
<polygon fill="white" stroke="black" points="1971,-179.5 1971,-198.5 2072,-198.5 2072,-179.5 1971,-179.5"/>
<text text-anchor="middle" x="2021.5" y="-186.5" font-family="Helvetica,sans-Serif" font-size="10.00">src/lchdouble.cpp</text>
</a>
</g>
</g>
<!-- Node1&#45;&gt;Node38 -->
<g id="edge66" class="edge">
<title>Node1&#45;&gt;Node38</title>
<path fill="none" stroke="midnightblue" d="M1969.47,-229.19C1983.3,-218.77 1999.42,-206.63 2010,-198.66"/>
<polygon fill="midnightblue" stroke="midnightblue" points="1967.1,-226.59 1961.22,-235.4 1971.32,-232.18 1967.1,-226.59"/>
</g>
<!-- Node39 -->
<g id="node39" class="node">
<title>Node39</title>
<g id="a_node39"><a xlink:href="chromahuediagram_8h.html" target="_top" xlink:title=" ">
<polygon fill="white" stroke="black" points="1939.5,-112.5 1939.5,-142.5 2071.5,-142.5 2071.5,-112.5 1939.5,-112.5"/>
<text text-anchor="start" x="1947.5" y="-130.5" font-family="Helvetica,sans-Serif" font-size="10.00">include/PerceptualColor</text>
<text text-anchor="middle" x="2005.5" y="-119.5" font-family="Helvetica,sans-Serif" font-size="10.00">/chromahuediagram.h</text>
</a>
</g>
</g>
<!-- Node1&#45;&gt;Node39 -->
<g id="edge67" class="edge">
<title>Node1&#45;&gt;Node39</title>
<path fill="none" stroke="midnightblue" d="M1946.2,-225.35C1949.03,-211.24 1953.8,-193.44 1961.5,-179 1968.83,-165.25 1980.54,-152.06 1990.04,-142.61"/>
<polygon fill="midnightblue" stroke="midnightblue" points="1942.74,-224.83 1944.39,-235.29 1949.62,-226.08 1942.74,-224.83"/>
</g>
<!-- Node40 -->
<g id="node40" class="node">
<title>Node40</title>
<g id="a_node40"><a xlink:href="wheelcolorpicker_8h.html" target="_top" xlink:title=" ">
<polygon fill="white" stroke="black" points="2397.5,-112.5 2397.5,-142.5 2529.5,-142.5 2529.5,-112.5 2397.5,-112.5"/>
<text text-anchor="start" x="2405.5" y="-130.5" font-family="Helvetica,sans-Serif" font-size="10.00">include/PerceptualColor</text>
<text text-anchor="middle" x="2463.5" y="-119.5" font-family="Helvetica,sans-Serif" font-size="10.00">/wheelcolorpicker.h</text>
</a>
</g>
</g>
<!-- Node1&#45;&gt;Node40 -->
<g id="edge71" class="edge">
<title>Node1&#45;&gt;Node40</title>
<path fill="none" stroke="midnightblue" d="M2013.03,-233.12C2116.07,-209.19 2306.02,-165.07 2403.03,-142.54"/>
<polygon fill="midnightblue" stroke="midnightblue" points="2011.98,-229.77 2003.03,-235.44 2013.56,-236.59 2011.98,-229.77"/>
</g>
<!-- Node3 -->
<g id="node3" class="node">
<title>Node3</title>
<g id="a_node3"><a xlink:href="abstractdiagram_8cpp.html" target="_top" xlink:title=" ">
<polygon fill="white" stroke="black" points="282.5,-0.5 282.5,-19.5 416.5,-19.5 416.5,-0.5 282.5,-0.5"/>
<text text-anchor="middle" x="349.5" y="-7.5" font-family="Helvetica,sans-Serif" font-size="10.00">src/abstractdiagram.cpp</text>
</a>
</g>
</g>
<!-- Node2&#45;&gt;Node3 -->
<g id="edge2" class="edge">
<title>Node2&#45;&gt;Node3</title>
<path fill="none" stroke="midnightblue" d="M882.74,-61.28C793.68,-54.09 593.6,-37.45 425.5,-20 422.59,-19.7 419.62,-19.38 416.63,-19.06"/>
<polygon fill="midnightblue" stroke="midnightblue" points="882.54,-64.77 892.79,-62.09 883.1,-57.8 882.54,-64.77"/>
</g>
<!-- Node4 -->
<g id="node4" class="node">
<title>Node4</title>
<g id="a_node4"><a xlink:href="chromahuediagram_8cpp.html" target="_top" xlink:title=" ">
<polygon fill="white" stroke="black" points="1764,-0.5 1764,-19.5 1913,-19.5 1913,-0.5 1764,-0.5"/>
<text text-anchor="middle" x="1838.5" y="-7.5" font-family="Helvetica,sans-Serif" font-size="10.00">src/chromahuediagram.cpp</text>
</a>
</g>
</g>
<!-- Node2&#45;&gt;Node4 -->
<g id="edge3" class="edge">
<title>Node2&#45;&gt;Node4</title>
<path fill="none" stroke="midnightblue" d="M976.55,-59.47C988.59,-58.19 1001.51,-56.93 1013.5,-56 1342.23,-30.43 1425.77,-45.57 1754.5,-20 1757.57,-19.76 1760.7,-19.5 1763.87,-19.22"/>
<polygon fill="midnightblue" stroke="midnightblue" points="975.82,-56.03 966.26,-60.59 976.58,-62.99 975.82,-56.03"/>
</g>
<!-- Node5 -->
<g id="node5" class="node">
<title>Node5</title>
<g id="a_node5"><a xlink:href="chromahueimage_8cpp.html" target="_top" xlink:title=" ">
<polygon fill="white" stroke="black" points="1324.5,-0.5 1324.5,-19.5 1464.5,-19.5 1464.5,-0.5 1324.5,-0.5"/>
<text text-anchor="middle" x="1394.5" y="-7.5" font-family="Helvetica,sans-Serif" font-size="10.00">src/chromahueimage.cpp</text>
</a>
</g>
</g>
<!-- Node2&#45;&gt;Node5 -->
<g id="edge4" class="edge">
<title>Node2&#45;&gt;Node5</title>
<path fill="none" stroke="midnightblue" d="M976.4,-59.55C1058.36,-50.04 1228.06,-30.33 1324.15,-19.17"/>
<polygon fill="midnightblue" stroke="midnightblue" points="975.91,-56.09 966.38,-60.72 976.71,-63.04 975.91,-56.09"/>
</g>
<!-- Node6 -->
<g id="node6" class="node">
<title>Node6</title>
<g id="a_node6"><a xlink:href="chromalightnessdiagram_8cpp.html" target="_top" xlink:title=" ">
<polygon fill="white" stroke="black" points="1949.5,-0.5 1949.5,-19.5 2125.5,-19.5 2125.5,-0.5 1949.5,-0.5"/>
<text text-anchor="middle" x="2037.5" y="-7.5" font-family="Helvetica,sans-Serif" font-size="10.00">src/chromalightnessdiagram.cpp</text>
</a>
</g>
</g>
<!-- Node2&#45;&gt;Node6 -->
<g id="edge5" class="edge">
<title>Node2&#45;&gt;Node6</title>
<path fill="none" stroke="midnightblue" d="M976.55,-59.4C988.58,-58.12 1001.51,-56.88 1013.5,-56 1416.29,-26.47 1518.32,-43.62 1921.5,-20 1930.57,-19.47 1940.04,-18.85 1949.49,-18.18"/>
<polygon fill="midnightblue" stroke="midnightblue" points="975.81,-55.96 966.25,-60.52 976.57,-62.91 975.81,-55.96"/>
</g>
<!-- Node7 -->
<g id="node7" class="node">
<title>Node7</title>
<g id="a_node7"><a xlink:href="colordialog_8cpp.html" target="_top" xlink:title=" ">
<polygon fill="white" stroke="black" points="2458.5,-0.5 2458.5,-19.5 2566.5,-19.5 2566.5,-0.5 2458.5,-0.5"/>
<text text-anchor="middle" x="2512.5" y="-7.5" font-family="Helvetica,sans-Serif" font-size="10.00">src/colordialog.cpp</text>
</a>
</g>
</g>
<!-- Node2&#45;&gt;Node7 -->
<g id="edge6" class="edge">
<title>Node2&#45;&gt;Node7</title>
<path fill="none" stroke="midnightblue" d="M976.54,-59.3C988.57,-58.02 1001.5,-56.81 1013.5,-56 1595.52,-16.9 1742.59,-42.02 2325.5,-20 2370.16,-18.31 2420.79,-15.84 2458.1,-13.92"/>
<polygon fill="midnightblue" stroke="midnightblue" points="975.8,-55.86 966.24,-60.42 976.57,-62.81 975.8,-55.86"/>
</g>
<!-- Node8 -->
<g id="node8" class="node">
<title>Node8</title>
<g id="a_node8"><a xlink:href="colorpatch_8cpp.html" target="_top" xlink:title=" ">
<polygon fill="white" stroke="black" points="435,-0.5 435,-19.5 540,-19.5 540,-0.5 435,-0.5"/>
<text text-anchor="middle" x="487.5" y="-7.5" font-family="Helvetica,sans-Serif" font-size="10.00">src/colorpatch.cpp</text>
</a>
</g>
</g>
<!-- Node2&#45;&gt;Node8 -->
<g id="edge7" class="edge">
<title>Node2&#45;&gt;Node8</title>
<path fill="none" stroke="midnightblue" d="M882.71,-59.86C810.94,-51.88 669.4,-35.8 549.5,-20 546.48,-19.6 543.38,-19.18 540.25,-18.75"/>
<polygon fill="midnightblue" stroke="midnightblue" points="882.45,-63.35 892.78,-60.98 883.22,-56.4 882.45,-63.35"/>
</g>
<!-- Node9 -->
<g id="node9" class="node">
<title>Node9</title>
<g id="a_node9"><a xlink:href="colorwheel_8cpp.html" target="_top" xlink:title=" ">
<polygon fill="white" stroke="black" points="1639,-0.5 1639,-19.5 1746,-19.5 1746,-0.5 1639,-0.5"/>
<text text-anchor="middle" x="1692.5" y="-7.5" font-family="Helvetica,sans-Serif" font-size="10.00">src/colorwheel.cpp</text>
</a>
</g>
</g>
<!-- Node2&#45;&gt;Node9 -->
<g id="edge8" class="edge">
<title>Node2&#45;&gt;Node9</title>
<path fill="none" stroke="midnightblue" d="M976.56,-59.55C988.59,-58.27 1001.52,-56.99 1013.5,-56 1286.81,-33.39 1356.63,-47.42 1629.5,-20 1632.58,-19.69 1635.74,-19.34 1638.92,-18.96"/>
<polygon fill="midnightblue" stroke="midnightblue" points="975.83,-56.11 966.26,-60.67 976.58,-63.07 975.83,-56.11"/>
</g>
<!-- Node10 -->
<g id="node10" class="node">
<title>Node10</title>
<g id="a_node10"><a xlink:href="colorwheelimage_8cpp.html" target="_top" xlink:title=" ">
<polygon fill="white" stroke="black" points="1482.5,-0.5 1482.5,-19.5 1620.5,-19.5 1620.5,-0.5 1482.5,-0.5"/>
<text text-anchor="middle" x="1551.5" y="-7.5" font-family="Helvetica,sans-Serif" font-size="10.00">src/colorwheelimage.cpp</text>
</a>
</g>
</g>
<!-- Node2&#45;&gt;Node10 -->
<g id="edge9" class="edge">
<title>Node2&#45;&gt;Node10</title>
<path fill="none" stroke="midnightblue" d="M976.58,-59.72C988.61,-58.43 1001.53,-57.11 1013.5,-56 1217.69,-37.07 1269.38,-39.76 1473.5,-20 1476.35,-19.72 1479.26,-19.43 1482.19,-19.13"/>
<polygon fill="midnightblue" stroke="midnightblue" points="975.84,-56.27 966.28,-60.83 976.6,-63.23 975.84,-56.27"/>
</g>
<!-- Node11 -->
<g id="node11" class="node">
<title>Node11</title>
<g id="a_node11"><a xlink:href="gradientimage_8cpp.html" target="_top" xlink:title=" ">
<polygon fill="white" stroke="black" points="0,-0.5 0,-19.5 125,-19.5 125,-0.5 0,-0.5"/>
<text text-anchor="middle" x="62.5" y="-7.5" font-family="Helvetica,sans-Serif" font-size="10.00">src/gradientimage.cpp</text>
</a>
</g>
</g>
<!-- Node2&#45;&gt;Node11 -->
<g id="edge10" class="edge">
<title>Node2&#45;&gt;Node11</title>
<path fill="none" stroke="midnightblue" d="M882.75,-63.49C759.83,-59.29 417.44,-45.99 133.5,-20 130.78,-19.75 128,-19.48 125.19,-19.19"/>
<polygon fill="midnightblue" stroke="midnightblue" points="882.82,-67 892.94,-63.84 883.06,-60 882.82,-67"/>
</g>
<!-- Node12 -->
<g id="node12" class="node">
<title>Node12</title>
<g id="a_node12"><a xlink:href="gradientslider_8cpp.html" target="_top" xlink:title=" ">
<polygon fill="white" stroke="black" points="143,-0.5 143,-19.5 264,-19.5 264,-0.5 143,-0.5"/>
<text text-anchor="middle" x="203.5" y="-7.5" font-family="Helvetica,sans-Serif" font-size="10.00">src/gradientslider.cpp</text>
</a>
</g>
</g>
<!-- Node2&#45;&gt;Node12 -->
<g id="edge11" class="edge">
<title>Node2&#45;&gt;Node12</title>
<path fill="none" stroke="midnightblue" d="M882.6,-62.74C774.85,-57.34 501.36,-42.44 273.5,-20 270.45,-19.7 267.33,-19.37 264.18,-19.03"/>
<polygon fill="midnightblue" stroke="midnightblue" points="882.65,-66.25 892.81,-63.25 882.99,-59.26 882.65,-66.25"/>
</g>
<!-- Node13 -->
<g id="node13" class="node">
<title>Node13</title>
<g id="a_node13"><a xlink:href="helper_8cpp.html" target="_top" xlink:title=" ">
<polygon fill="white" stroke="black" points="558.5,-0.5 558.5,-19.5 642.5,-19.5 642.5,-0.5 558.5,-0.5"/>
<text text-anchor="middle" x="600.5" y="-7.5" font-family="Helvetica,sans-Serif" font-size="10.00">src/helper.cpp</text>
</a>
</g>
</g>
<!-- Node2&#45;&gt;Node13 -->
<g id="edge12" class="edge">
<title>Node2&#45;&gt;Node13</title>
<path fill="none" stroke="midnightblue" d="M882.41,-57.59C827.09,-48.83 732.57,-33.71 651.5,-20 648.57,-19.51 645.56,-18.99 642.52,-18.46"/>
<polygon fill="midnightblue" stroke="midnightblue" points="882.17,-61.09 892.6,-59.2 883.27,-54.18 882.17,-61.09"/>
</g>
<!-- Node14 -->
<g id="node14" class="node">
<title>Node14</title>
<g id="a_node14"><a xlink:href="iohandlerfactory_8cpp.html" target="_top" xlink:title=" ">
<polygon fill="white" stroke="black" points="661,-0.5 661,-19.5 794,-19.5 794,-0.5 661,-0.5"/>
<text text-anchor="middle" x="727.5" y="-7.5" font-family="Helvetica,sans-Serif" font-size="10.00">src/iohandlerfactory.cpp</text>
</a>
</g>
</g>
<!-- Node2&#45;&gt;Node14 -->
<g id="edge13" class="edge">
<title>Node2&#45;&gt;Node14</title>
<path fill="none" stroke="midnightblue" d="M887.71,-53.83C849.57,-43.63 794.02,-28.78 759.36,-19.52"/>
<polygon fill="midnightblue" stroke="midnightblue" points="886.93,-57.24 897.49,-56.44 888.74,-50.48 886.93,-57.24"/>
</g>
<!-- Node15 -->
<g id="node15" class="node">
<title>Node15</title>
<g id="a_node15"><a xlink:href="multispinbox_8cpp.html" target="_top" xlink:title=" ">
<polygon fill="white" stroke="black" points="812.5,-0.5 812.5,-19.5 930.5,-19.5 930.5,-0.5 812.5,-0.5"/>
<text text-anchor="middle" x="871.5" y="-7.5" font-family="Helvetica,sans-Serif" font-size="10.00">src/multispinbox.cpp</text>
</a>
</g>
</g>
<!-- Node2&#45;&gt;Node15 -->
<g id="edge14" class="edge">
<title>Node2&#45;&gt;Node15</title>
<path fill="none" stroke="midnightblue" d="M912.59,-49.25C902.3,-39.67 889.53,-27.79 880.99,-19.83"/>
<polygon fill="midnightblue" stroke="midnightblue" points="910.48,-52.07 920.18,-56.32 915.25,-46.95 910.48,-52.07"/>
</g>
<!-- Node16 -->
<g id="node16" class="node">
<title>Node16</title>
<g id="a_node16"><a xlink:href="multispinboxsectionconfiguration_8cpp.html" target="_top" xlink:title=" ">
<polygon fill="white" stroke="black" points="949,-0.5 949,-19.5 1166,-19.5 1166,-0.5 949,-0.5"/>
<text text-anchor="middle" x="1057.5" y="-7.5" font-family="Helvetica,sans-Serif" font-size="10.00">src/multispinboxsectionconfiguration.cpp</text>
</a>
</g>
</g>
<!-- Node2&#45;&gt;Node16 -->
<g id="edge15" class="edge">
<title>Node2&#45;&gt;Node16</title>
<path fill="none" stroke="midnightblue" d="M959.12,-52.5C983.12,-42.38 1016.28,-28.39 1037.31,-19.52"/>
<polygon fill="midnightblue" stroke="midnightblue" points="957.64,-49.33 949.78,-56.44 960.36,-55.78 957.64,-49.33"/>
</g>
<!-- Node17 -->
<g id="node17" class="node">
<title>Node17</title>
<g id="a_node17"><a xlink:href="rgbcolorspace_8cpp.html" target="_top" xlink:title=" ">
<polygon fill="white" stroke="black" points="1184.5,-0.5 1184.5,-19.5 1306.5,-19.5 1306.5,-0.5 1184.5,-0.5"/>
<text text-anchor="middle" x="1245.5" y="-7.5" font-family="Helvetica,sans-Serif" font-size="10.00">src/rgbcolorspace.cpp</text>
</a>
</g>
</g>
<!-- Node2&#45;&gt;Node17 -->
<g id="edge16" class="edge">
<title>Node2&#45;&gt;Node17</title>
<path fill="none" stroke="midnightblue" d="M976.12,-56.76C977.6,-56.5 979.06,-56.25 980.5,-56 1054.99,-43.1 1141.32,-28.51 1194.68,-19.53"/>
<polygon fill="midnightblue" stroke="midnightblue" points="975.51,-53.31 966.27,-58.48 976.72,-60.21 975.51,-53.31"/>
</g>
<!-- Node18 -->
<g id="node18" class="node">
<title>Node18</title>
<g id="a_node18"><a xlink:href="wheelcolorpicker_8cpp.html" target="_top" xlink:title=" ">
<polygon fill="white" stroke="black" points="2180.5,-0.5 2180.5,-19.5 2316.5,-19.5 2316.5,-0.5 2180.5,-0.5"/>
<text text-anchor="middle" x="2248.5" y="-7.5" font-family="Helvetica,sans-Serif" font-size="10.00">src/wheelcolorpicker.cpp</text>
</a>
</g>
</g>
<!-- Node2&#45;&gt;Node18 -->
<g id="edge17" class="edge">
<title>Node2&#45;&gt;Node18</title>
<path fill="none" stroke="midnightblue" d="M976.54,-59.33C988.58,-58.06 1001.5,-56.83 1013.5,-56 1510.78,-21.42 1636.79,-47.62 2134.5,-20 2149.37,-19.17 2165.31,-18.06 2180.42,-16.9"/>
<polygon fill="midnightblue" stroke="midnightblue" points="975.81,-55.89 966.25,-60.46 976.57,-62.85 975.81,-55.89"/>
</g>
<!-- Node19&#45;&gt;Node7 -->
<g id="edge40" class="edge">
<title>Node19&#45;&gt;Node7</title>
<path fill="none" stroke="midnightblue" d="M1529.43,-186.35C1773.97,-180.12 2617.93,-157.67 2673.5,-143 2735.97,-126.51 2768.96,-131.22 2802.5,-76 2807.11,-68.4 2808.28,-62.75 2802.5,-56 2772.75,-21.28 2642.14,-13.12 2566.74,-11.35"/>
<polygon fill="midnightblue" stroke="midnightblue" points="1529.17,-182.85 1519.26,-186.61 1529.35,-189.85 1529.17,-182.85"/>
</g>
<!-- Node19&#45;&gt;Node17 -->
<g id="edge45" class="edge">
<title>Node19&#45;&gt;Node17</title>
<path fill="none" stroke="midnightblue" d="M1397.74,-183.55C1309.77,-176.93 1158.92,-163.09 1107.5,-143 1059.71,-124.33 1037,-121.61 1013.5,-76 1009.43,-68.1 1007.84,-62.86 1013.5,-56 1024.37,-42.82 1119.24,-27.75 1184.24,-18.82"/>
<polygon fill="midnightblue" stroke="midnightblue" points="1397.65,-187.05 1407.88,-184.3 1398.16,-180.07 1397.65,-187.05"/>
</g>
<!-- Node20 -->
<g id="node20" class="node">
<title>Node20</title>
<g id="a_node20"><a xlink:href="chromahueimage_8h.html" target="_top" xlink:title=" ">
<polygon fill="white" stroke="black" points="1326.5,-118 1326.5,-137 1454.5,-137 1454.5,-118 1326.5,-118"/>
<text text-anchor="middle" x="1390.5" y="-125" font-family="Helvetica,sans-Serif" font-size="10.00">src/chromahueimage.h</text>
</a>
</g>
</g>
<!-- Node19&#45;&gt;Node20 -->
<g id="edge19" class="edge">
<title>Node19&#45;&gt;Node20</title>
<path fill="none" stroke="midnightblue" d="M1445.06,-172.97C1431.1,-161.59 1412.42,-146.37 1400.94,-137.01"/>
<polygon fill="midnightblue" stroke="midnightblue" points="1443.08,-175.87 1453.04,-179.48 1447.5,-170.44 1443.08,-175.87"/>
</g>
<!-- Node22 -->
<g id="node22" class="node">
<title>Node22</title>
<g id="a_node22"><a xlink:href="colorwheelimage_8h.html" target="_top" xlink:title=" ">
<polygon fill="white" stroke="black" points="1473,-118 1473,-137 1600,-137 1600,-118 1473,-118"/>
<text text-anchor="middle" x="1536.5" y="-125" font-family="Helvetica,sans-Serif" font-size="10.00">src/colorwheelimage.h</text>
</a>
</g>
</g>
<!-- Node19&#45;&gt;Node22 -->
<g id="edge23" class="edge">
<title>Node19&#45;&gt;Node22</title>
<path fill="none" stroke="midnightblue" d="M1481.94,-172.97C1495.9,-161.59 1514.58,-146.37 1526.06,-137.01"/>
<polygon fill="midnightblue" stroke="midnightblue" points="1479.5,-170.44 1473.96,-179.48 1483.92,-175.87 1479.5,-170.44"/>
</g>
<!-- Node24 -->
<g id="node24" class="node">
<title>Node24</title>
<g id="a_node24"><a xlink:href="chromalightnessimage_8h.html" target="_top" xlink:title=" ">
<polygon fill="white" stroke="black" points="1153,-118 1153,-137 1308,-137 1308,-118 1153,-118"/>
<text text-anchor="middle" x="1230.5" y="-125" font-family="Helvetica,sans-Serif" font-size="10.00">src/chromalightnessimage.h</text>
</a>
</g>
</g>
<!-- Node19&#45;&gt;Node24 -->
<g id="edge29" class="edge">
<title>Node19&#45;&gt;Node24</title>
<path fill="none" stroke="midnightblue" d="M1420.3,-176.97C1375.06,-165.41 1304.97,-147.52 1263.82,-137.01"/>
<polygon fill="midnightblue" stroke="midnightblue" points="1419.56,-180.39 1430.12,-179.48 1421.29,-173.61 1419.56,-180.39"/>
</g>
<!-- Node27 -->
<g id="node27" class="node">
<title>Node27</title>
<g id="a_node27"><a xlink:href="rgbcolorspace__p_8h.html" target="_top" xlink:title=" ">
<polygon fill="white" stroke="black" points="1022.5,-56.5 1022.5,-75.5 1144.5,-75.5 1144.5,-56.5 1022.5,-56.5"/>
<text text-anchor="middle" x="1083.5" y="-63.5" font-family="Helvetica,sans-Serif" font-size="10.00">src/rgbcolorspace_p.h</text>
</a>
</g>
</g>
<!-- Node19&#45;&gt;Node27 -->
<g id="edge46" class="edge">
<title>Node19&#45;&gt;Node27</title>
<path fill="none" stroke="midnightblue" d="M1397.81,-184.5C1317.08,-179.23 1185.61,-167.17 1143.5,-143 1115.51,-126.93 1095.75,-92.22 1087.63,-75.86"/>
<polygon fill="midnightblue" stroke="midnightblue" points="1397.67,-188 1407.88,-185.14 1398.12,-181.02 1397.67,-188"/>
</g>
<!-- Node28 -->
<g id="node28" class="node">
<title>Node28</title>
<g id="a_node28"><a xlink:href="multicolor_8h.html" target="_top" xlink:title=" ">
<polygon fill="white" stroke="black" points="2572.5,-118 2572.5,-137 2664.5,-137 2664.5,-118 2572.5,-118"/>
<text text-anchor="middle" x="2618.5" y="-125" font-family="Helvetica,sans-Serif" font-size="10.00">src/multicolor.h</text>
</a>
</g>
</g>
<!-- Node19&#45;&gt;Node28 -->
<g id="edge36" class="edge">
<title>Node19&#45;&gt;Node28</title>
<path fill="none" stroke="midnightblue" d="M1529.18,-186.44C1731.15,-181.44 2341.31,-164.89 2538.5,-143 2551.27,-141.58 2565.07,-139.34 2577.55,-137.04"/>
<polygon fill="midnightblue" stroke="midnightblue" points="1528.93,-182.94 1519.02,-186.69 1529.1,-189.94 1528.93,-182.94"/>
</g>
<!-- Node31 -->
<g id="node31" class="node">
<title>Node31</title>
<g id="a_node31"><a xlink:href="gradientimage_8h.html" target="_top" xlink:title=" ">
<polygon fill="white" stroke="black" points="146.5,-118 146.5,-137 260.5,-137 260.5,-118 146.5,-118"/>
<text text-anchor="middle" x="203.5" y="-125" font-family="Helvetica,sans-Serif" font-size="10.00">src/gradientimage.h</text>
</a>
</g>
</g>
<!-- Node19&#45;&gt;Node31 -->
<g id="edge41" class="edge">
<title>Node19&#45;&gt;Node31</title>
<path fill="none" stroke="midnightblue" d="M1397.61,-184.89C1177.2,-174.48 467.87,-140.98 260.77,-131.2"/>
<polygon fill="midnightblue" stroke="midnightblue" points="1397.58,-188.39 1407.73,-185.37 1397.91,-181.4 1397.58,-188.39"/>
</g>
<!-- Node33 -->
<g id="node33" class="node">
<title>Node33</title>
<g id="a_node33"><a xlink:href="rgbcolorspacefactory_8cpp.html" target="_top" xlink:title=" ">
<polygon fill="white" stroke="black" points="1618,-118 1618,-137 1773,-137 1773,-118 1618,-118"/>
<text text-anchor="middle" x="1695.5" y="-125" font-family="Helvetica,sans-Serif" font-size="10.00">src/rgbcolorspacefactory.cpp</text>
</a>
</g>
</g>
<!-- Node19&#45;&gt;Node33 -->
<g id="edge47" class="edge">
<title>Node19&#45;&gt;Node33</title>
<path fill="none" stroke="midnightblue" d="M1506.51,-176.97C1551.56,-165.41 1621.35,-147.52 1662.32,-137.01"/>
<polygon fill="midnightblue" stroke="midnightblue" points="1505.56,-173.6 1496.74,-179.48 1507.3,-180.38 1505.56,-173.6"/>
</g>
<!-- Node20&#45;&gt;Node5 -->
<g id="edge22" class="edge">
<title>Node20&#45;&gt;Node5</title>
<path fill="none" stroke="midnightblue" d="M1336.53,-115.96C1282.21,-104.8 1205.22,-87.28 1196.5,-76 1191.06,-68.97 1190.95,-62.95 1196.5,-56 1205.63,-44.57 1286.17,-29.04 1341.67,-19.54"/>
<polygon fill="midnightblue" stroke="midnightblue" points="1335.89,-119.4 1346.39,-117.96 1337.29,-112.54 1335.89,-119.4"/>
</g>
<!-- Node21 -->
<g id="node21" class="node">
<title>Node21</title>
<g id="a_node21"><a xlink:href="chromahuediagram__p_8h.html" target="_top" xlink:title=" ">
<polygon fill="white" stroke="black" points="1460,-56.5 1460,-75.5 1609,-75.5 1609,-56.5 1460,-56.5"/>
<text text-anchor="middle" x="1534.5" y="-63.5" font-family="Helvetica,sans-Serif" font-size="10.00">src/chromahuediagram_p.h</text>
</a>
</g>
</g>
<!-- Node20&#45;&gt;Node21 -->
<g id="edge20" class="edge">
<title>Node20&#45;&gt;Node21</title>
<path fill="none" stroke="midnightblue" d="M1420.43,-114.13C1448.41,-102.57 1489.44,-85.62 1513.91,-75.51"/>
<polygon fill="midnightblue" stroke="midnightblue" points="1419.04,-110.92 1411.13,-117.98 1421.71,-117.39 1419.04,-110.92"/>
</g>
<!-- Node21&#45;&gt;Node4 -->
<g id="edge21" class="edge">
<title>Node21&#45;&gt;Node4</title>
<path fill="none" stroke="midnightblue" d="M1592.69,-54.66C1650.14,-44.46 1736.95,-29.04 1790.56,-19.52"/>
<polygon fill="midnightblue" stroke="midnightblue" points="1591.9,-51.25 1582.67,-56.44 1593.13,-58.14 1591.9,-51.25"/>
</g>
<!-- Node22&#45;&gt;Node10 -->
<g id="edge28" class="edge">
<title>Node22&#45;&gt;Node10</title>
<path fill="none" stroke="midnightblue" d="M1485.38,-116.05C1478.04,-114.64 1470.59,-113.25 1463.5,-112 1358.18,-93.45 1159.31,-136.68 1229.5,-56 1233.64,-51.24 1388.99,-31.19 1482.36,-19.52"/>
<polygon fill="midnightblue" stroke="midnightblue" points="1484.76,-119.5 1495.25,-117.98 1486.11,-112.63 1484.76,-119.5"/>
</g>
<!-- Node22&#45;&gt;Node21 -->
<g id="edge24" class="edge">
<title>Node22&#45;&gt;Node21</title>
<path fill="none" stroke="midnightblue" d="M1535.87,-107.82C1535.51,-97 1535.07,-83.9 1534.79,-75.51"/>
<polygon fill="midnightblue" stroke="midnightblue" points="1532.38,-108.1 1536.21,-117.98 1539.38,-107.86 1532.38,-108.1"/>
</g>
<!-- Node23 -->
<g id="node23" class="node">
<title>Node23</title>
<g id="a_node23"><a xlink:href="colorwheel__p_8h.html" target="_top" xlink:title=" ">
<polygon fill="white" stroke="black" points="1703,-56.5 1703,-75.5 1810,-75.5 1810,-56.5 1703,-56.5"/>
<text text-anchor="middle" x="1756.5" y="-63.5" font-family="Helvetica,sans-Serif" font-size="10.00">src/colorwheel_p.h</text>
</a>
</g>
</g>
<!-- Node22&#45;&gt;Node23 -->
<g id="edge25" class="edge">
<title>Node22&#45;&gt;Node23</title>
<path fill="none" stroke="midnightblue" d="M1577.83,-115.32C1620.56,-103.76 1686.35,-85.97 1725.04,-75.51"/>
<polygon fill="midnightblue" stroke="midnightblue" points="1576.76,-111.99 1568.02,-117.98 1578.59,-118.74 1576.76,-111.99"/>
</g>
<!-- Node23&#45;&gt;Node9 -->
<g id="edge26" class="edge">
<title>Node23&#45;&gt;Node9</title>
<path fill="none" stroke="midnightblue" d="M1738.51,-49.82C1727.04,-40.15 1712.59,-27.95 1702.97,-19.83"/>
<polygon fill="midnightblue" stroke="midnightblue" points="1736.32,-52.55 1746.22,-56.32 1740.83,-47.2 1736.32,-52.55"/>
</g>
<!-- Node23&#45;&gt;Node18 -->
<g id="edge27" class="edge">
<title>Node23&#45;&gt;Node18</title>
<path fill="none" stroke="midnightblue" d="M1820.2,-58.01C1913.13,-47.81 2085.15,-28.93 2180.47,-18.47"/>
<polygon fill="midnightblue" stroke="midnightblue" points="1819.65,-54.55 1810.09,-59.12 1820.41,-61.51 1819.65,-54.55"/>
</g>
<!-- Node25 -->
<g id="node25" class="node">
<title>Node25</title>
<g id="a_node25"><a xlink:href="chromalightnessdiagram__p_8h.html" target="_top" xlink:title=" ">
<polygon fill="white" stroke="black" points="2062.5,-56.5 2062.5,-75.5 2238.5,-75.5 2238.5,-56.5 2062.5,-56.5"/>
<text text-anchor="middle" x="2150.5" y="-63.5" font-family="Helvetica,sans-Serif" font-size="10.00">src/chromalightnessdiagram_p.h</text>
</a>
</g>
</g>
<!-- Node24&#45;&gt;Node25 -->
<g id="edge30" class="edge">
<title>Node24&#45;&gt;Node25</title>
<path fill="none" stroke="midnightblue" d="M1285.86,-116.33C1296.34,-114.67 1307.23,-113.13 1317.5,-112 1335.82,-109.98 1852.02,-82.7 2062.47,-71.63"/>
<polygon fill="midnightblue" stroke="midnightblue" points="1285.28,-112.88 1275.97,-117.94 1286.4,-119.78 1285.28,-112.88"/>
</g>
<!-- Node26 -->
<g id="node26" class="node">
<title>Node26</title>
<g id="a_node26"><a xlink:href="chromalightnessimage_8cpp.html" target="_top" xlink:title=" ">
<polygon fill="white" stroke="black" points="1238.5,-56.5 1238.5,-75.5 1404.5,-75.5 1404.5,-56.5 1238.5,-56.5"/>
<text text-anchor="middle" x="1321.5" y="-63.5" font-family="Helvetica,sans-Serif" font-size="10.00">src/chromalightnessimage.cpp</text>
</a>
</g>
</g>
<!-- Node24&#45;&gt;Node26 -->
<g id="edge33" class="edge">
<title>Node24&#45;&gt;Node26</title>
<path fill="none" stroke="midnightblue" d="M1252.02,-112.43C1269.56,-100.96 1293.77,-85.13 1308.49,-75.51"/>
<polygon fill="midnightblue" stroke="midnightblue" points="1249.99,-109.57 1243.54,-117.98 1253.82,-115.43 1249.99,-109.57"/>
</g>
<!-- Node24&#45;&gt;Node27 -->
<g id="edge34" class="edge">
<title>Node24&#45;&gt;Node27</title>
<path fill="none" stroke="midnightblue" d="M1199.94,-114.13C1171.38,-102.57 1129.5,-85.62 1104.52,-75.51"/>
<polygon fill="midnightblue" stroke="midnightblue" points="1198.86,-117.47 1209.44,-117.98 1201.48,-110.98 1198.86,-117.47"/>
</g>
<!-- Node25&#45;&gt;Node6 -->
<g id="edge31" class="edge">
<title>Node25&#45;&gt;Node6</title>
<path fill="none" stroke="midnightblue" d="M2123.5,-52.1C2102.39,-42.01 2073.64,-28.27 2055.32,-19.52"/>
<polygon fill="midnightblue" stroke="midnightblue" points="2122.06,-55.29 2132.59,-56.44 2125.08,-48.97 2122.06,-55.29"/>
</g>
<!-- Node25&#45;&gt;Node18 -->
<g id="edge32" class="edge">
<title>Node25&#45;&gt;Node18</title>
<path fill="none" stroke="midnightblue" d="M2175.09,-51.45C2193.18,-41.48 2217.23,-28.23 2232.79,-19.65"/>
<polygon fill="midnightblue" stroke="midnightblue" points="2173.31,-48.43 2166.25,-56.32 2176.69,-54.56 2173.31,-48.43"/>
</g>
<!-- Node27&#45;&gt;Node17 -->
<g id="edge35" class="edge">
<title>Node27&#45;&gt;Node17</title>
<path fill="none" stroke="midnightblue" d="M1118.98,-53.17C1149.49,-43 1192.74,-28.59 1219.95,-19.52"/>
<polygon fill="midnightblue" stroke="midnightblue" points="1117.55,-49.96 1109.17,-56.44 1119.76,-56.6 1117.55,-49.96"/>
</g>
<!-- Node29 -->
<g id="node29" class="node">
<title>Node29</title>
<g id="a_node29"><a xlink:href="colordialog__p_8h.html" target="_top" xlink:title=" ">
<polygon fill="white" stroke="black" points="2564.5,-56.5 2564.5,-75.5 2672.5,-75.5 2672.5,-56.5 2564.5,-56.5"/>
<text text-anchor="middle" x="2618.5" y="-63.5" font-family="Helvetica,sans-Serif" font-size="10.00">src/colordialog_p.h</text>
</a>
</g>
</g>
<!-- Node28&#45;&gt;Node29 -->
<g id="edge37" class="edge">
<title>Node28&#45;&gt;Node29</title>
<path fill="none" stroke="midnightblue" d="M2618.5,-107.82C2618.5,-97 2618.5,-83.9 2618.5,-75.51"/>
<polygon fill="midnightblue" stroke="midnightblue" points="2615,-107.98 2618.5,-117.98 2622,-107.98 2615,-107.98"/>
</g>
<!-- Node30 -->
<g id="node30" class="node">
<title>Node30</title>
<g id="a_node30"><a xlink:href="multicolor_8cpp.html" target="_top" xlink:title=" ">
<polygon fill="white" stroke="black" points="2691,-56.5 2691,-75.5 2794,-75.5 2794,-56.5 2691,-56.5"/>
<text text-anchor="middle" x="2742.5" y="-63.5" font-family="Helvetica,sans-Serif" font-size="10.00">src/multicolor.cpp</text>
</a>
</g>
</g>
<!-- Node28&#45;&gt;Node30 -->
<g id="edge39" class="edge">
<title>Node28&#45;&gt;Node30</title>
<path fill="none" stroke="midnightblue" d="M2645.55,-113.52C2669.6,-101.98 2704.06,-85.44 2724.77,-75.51"/>
<polygon fill="midnightblue" stroke="midnightblue" points="2643.77,-110.49 2636.27,-117.98 2646.8,-116.8 2643.77,-110.49"/>
</g>
<!-- Node29&#45;&gt;Node7 -->
<g id="edge38" class="edge">
<title>Node29&#45;&gt;Node7</title>
<path fill="none" stroke="midnightblue" d="M2592.44,-51.73C2572.82,-41.73 2546.47,-28.31 2529.49,-19.65"/>
<polygon fill="midnightblue" stroke="midnightblue" points="2590.97,-54.9 2601.47,-56.32 2594.15,-48.67 2590.97,-54.9"/>
</g>
<!-- Node31&#45;&gt;Node11 -->
<g id="edge42" class="edge">
<title>Node31&#45;&gt;Node11</title>
<path fill="none" stroke="midnightblue" d="M182.25,-112.13C168.12,-102.35 149.33,-88.88 133.5,-76 110.17,-57.01 84.55,-32.59 71.39,-19.76"/>
<polygon fill="midnightblue" stroke="midnightblue" points="180.56,-115.21 190.78,-117.99 184.52,-109.44 180.56,-115.21"/>
</g>
<!-- Node32 -->
<g id="node32" class="node">
<title>Node32</title>
<g id="a_node32"><a xlink:href="gradientslider__p_8h.html" target="_top" xlink:title=" ">
<polygon fill="white" stroke="black" points="142.5,-56.5 142.5,-75.5 264.5,-75.5 264.5,-56.5 142.5,-56.5"/>
<text text-anchor="middle" x="203.5" y="-63.5" font-family="Helvetica,sans-Serif" font-size="10.00">src/gradientslider_p.h</text>
</a>
</g>
</g>
<!-- Node31&#45;&gt;Node32 -->
<g id="edge43" class="edge">
<title>Node31&#45;&gt;Node32</title>
<path fill="none" stroke="midnightblue" d="M203.5,-107.82C203.5,-97 203.5,-83.9 203.5,-75.51"/>
<polygon fill="midnightblue" stroke="midnightblue" points="200,-107.98 203.5,-117.98 207,-107.98 200,-107.98"/>
</g>
<!-- Node32&#45;&gt;Node12 -->
<g id="edge44" class="edge">
<title>Node32&#45;&gt;Node12</title>
<path fill="none" stroke="midnightblue" d="M203.5,-45.8C203.5,-36.91 203.5,-26.78 203.5,-19.75"/>
<polygon fill="midnightblue" stroke="midnightblue" points="200,-46.08 203.5,-56.08 207,-46.08 200,-46.08"/>
</g>
<!-- Node34&#45;&gt;Node4 -->
<g id="edge50" class="edge">
<title>Node34&#45;&gt;Node4</title>
<path fill="none" stroke="midnightblue" d="M1838.5,-107.66C1838.5,-82.37 1838.5,-38.44 1838.5,-19.78"/>
<polygon fill="midnightblue" stroke="midnightblue" points="1835,-107.82 1838.5,-117.82 1842,-107.82 1835,-107.82"/>
</g>
<!-- Node34&#45;&gt;Node5 -->
<g id="edge51" class="edge">
<title>Node34&#45;&gt;Node5</title>
<path fill="none" stroke="midnightblue" d="M1798.29,-115.52C1792.68,-114.21 1786.96,-112.99 1781.5,-112 1635.88,-85.69 1581.48,-144.86 1450.5,-76 1425.71,-62.97 1407.13,-34.02 1399.01,-19.56"/>
<polygon fill="midnightblue" stroke="midnightblue" points="1797.66,-118.97 1808.2,-117.95 1799.32,-112.17 1797.66,-118.97"/>
</g>
<!-- Node34&#45;&gt;Node6 -->
<g id="edge52" class="edge">
<title>Node34&#45;&gt;Node6</title>
<path fill="none" stroke="midnightblue" d="M1885.47,-115.22C1913.42,-107.12 1948.73,-94.35 1976.5,-76 2000.26,-60.3 2021.38,-33.59 2031.38,-19.81"/>
<polygon fill="midnightblue" stroke="midnightblue" points="1884.22,-111.93 1875.53,-118 1886.1,-118.68 1884.22,-111.93"/>
</g>
<!-- Node34&#45;&gt;Node7 -->
<g id="edge54" class="edge">
<title>Node34&#45;&gt;Node7</title>
<path fill="none" stroke="midnightblue" d="M1893.41,-117.39C1905.6,-115.49 1918.48,-113.59 1930.5,-112 2079.39,-92.3 2118.81,-103.26 2266.5,-76 2347.3,-61.09 2440.55,-33.53 2485.5,-19.58"/>
<polygon fill="midnightblue" stroke="midnightblue" points="1892.69,-113.96 1883.36,-118.97 1893.78,-120.87 1892.69,-113.96"/>
</g>
<!-- Node34&#45;&gt;Node9 -->
<g id="edge55" class="edge">
<title>Node34&#45;&gt;Node9</title>
<path fill="none" stroke="midnightblue" d="M1798.59,-115.15C1757.92,-103.19 1699.92,-84.88 1693.5,-76 1681.34,-59.17 1686.14,-32.95 1689.81,-19.54"/>
<polygon fill="midnightblue" stroke="midnightblue" points="1797.67,-118.53 1808.25,-117.97 1799.63,-111.81 1797.67,-118.53"/>
</g>
<!-- Node34&#45;&gt;Node10 -->
<g id="edge56" class="edge">
<title>Node34&#45;&gt;Node10</title>
<path fill="none" stroke="midnightblue" d="M1797.69,-115.09C1765.87,-105.76 1720.8,-91.6 1682.5,-76 1639.47,-58.47 1591.02,-32.79 1566.88,-19.57"/>
<polygon fill="midnightblue" stroke="midnightblue" points="1796.95,-118.52 1807.53,-117.94 1798.9,-111.79 1796.95,-118.52"/>
</g>
<!-- Node34&#45;&gt;Node18 -->
<g id="edge61" class="edge">
<title>Node34&#45;&gt;Node18</title>
<path fill="none" stroke="midnightblue" d="M1893.42,-117.45C1905.61,-115.55 1918.48,-113.63 1930.5,-112 2000.76,-102.48 2199.88,-128.52 2247.5,-76 2261.45,-60.62 2255.86,-33.77 2251.62,-19.88"/>
<polygon fill="midnightblue" stroke="midnightblue" points="1892.7,-114.02 1883.36,-119.03 1893.79,-120.93 1892.7,-114.02"/>
</g>
<!-- Node34&#45;&gt;Node21 -->
<g id="edge49" class="edge">
<title>Node34&#45;&gt;Node21</title>
<path fill="none" stroke="midnightblue" d="M1796.85,-115.55C1791.7,-114.3 1786.49,-113.09 1781.5,-112 1714.85,-97.47 1637.38,-83.89 1587.23,-75.52"/>
<polygon fill="midnightblue" stroke="midnightblue" points="1796.09,-118.97 1806.64,-117.98 1797.77,-112.18 1796.09,-118.97"/>
</g>
<!-- Node34&#45;&gt;Node26 -->
<g id="edge53" class="edge">
<title>Node34&#45;&gt;Node26</title>
<path fill="none" stroke="midnightblue" d="M1798.49,-115.51C1792.82,-114.19 1787.03,-112.97 1781.5,-112 1763.26,-108.81 1532.07,-86.81 1404.58,-74.8"/>
<polygon fill="midnightblue" stroke="midnightblue" points="1797.97,-118.99 1808.51,-117.96 1799.63,-112.19 1797.97,-118.99"/>
</g>
<!-- Node34&#45;&gt;Node27 -->
<g id="edge58" class="edge">
<title>Node34&#45;&gt;Node27</title>
<path fill="none" stroke="midnightblue" d="M1799.34,-115.53C1793.4,-114.16 1787.32,-112.92 1781.5,-112 1765.86,-109.53 1312.15,-81.2 1144.76,-70.8"/>
<polygon fill="midnightblue" stroke="midnightblue" points="1798.59,-118.95 1809.13,-117.93 1800.25,-112.15 1798.59,-118.95"/>
</g>
<!-- Node35 -->
<g id="node35" class="node">
<title>Node35</title>
<g id="a_node35"><a xlink:href="lchvalues_8cpp.html" target="_top" xlink:title=" ">
<polygon fill="white" stroke="black" points="1867,-56.5 1867,-75.5 1968,-75.5 1968,-56.5 1867,-56.5"/>
<text text-anchor="middle" x="1917.5" y="-63.5" font-family="Helvetica,sans-Serif" font-size="10.00">src/lchvalues.cpp</text>
</a>
</g>
</g>
<!-- Node34&#45;&gt;Node35 -->
<g id="edge57" class="edge">
<title>Node34&#45;&gt;Node35</title>
<path fill="none" stroke="midnightblue" d="M1858.03,-111.79C1873.18,-100.38 1893.66,-84.96 1906.2,-75.51"/>
<polygon fill="midnightblue" stroke="midnightblue" points="1855.7,-109.16 1849.82,-117.98 1859.91,-114.75 1855.7,-109.16"/>
</g>
<!-- Node36 -->
<g id="node36" class="node">
<title>Node36</title>
<g id="a_node36"><a xlink:href="wheelcolorpicker__p_8h.html" target="_top" xlink:title=" ">
<polygon fill="white" stroke="black" points="2371,-56.5 2371,-75.5 2508,-75.5 2508,-56.5 2371,-56.5"/>
<text text-anchor="middle" x="2439.5" y="-63.5" font-family="Helvetica,sans-Serif" font-size="10.00">src/wheelcolorpicker_p.h</text>
</a>
</g>
</g>
<!-- Node34&#45;&gt;Node36 -->
<g id="edge59" class="edge">
<title>Node34&#45;&gt;Node36</title>
<path fill="none" stroke="midnightblue" d="M1893.39,-117.22C1905.58,-115.34 1918.46,-113.48 1930.5,-112 2013.82,-101.76 2252.12,-82.07 2370.72,-72.49"/>
<polygon fill="midnightblue" stroke="midnightblue" points="1892.67,-113.79 1883.34,-118.81 1893.76,-120.71 1892.67,-113.79"/>
</g>
<!-- Node36&#45;&gt;Node18 -->
<g id="edge60" class="edge">
<title>Node36&#45;&gt;Node18</title>
<path fill="none" stroke="midnightblue" d="M2399.53,-53.7C2363.48,-43.51 2311.26,-28.74 2278.62,-19.52"/>
<polygon fill="midnightblue" stroke="midnightblue" points="2398.66,-57.09 2409.24,-56.44 2400.56,-50.35 2398.66,-57.09"/>
</g>
<!-- Node37&#45;&gt;Node6 -->
<g id="edge63" class="edge">
<title>Node37&#45;&gt;Node6</title>
<path fill="none" stroke="midnightblue" d="M2208.08,-113.2C2233.65,-99.5 2264.64,-77.2 2247.5,-56 2231.91,-36.72 2175.84,-25.32 2125.56,-18.83"/>
<polygon fill="midnightblue" stroke="midnightblue" points="2206.32,-110.17 2199.01,-117.84 2209.51,-116.4 2206.32,-110.17"/>
</g>
<!-- Node37&#45;&gt;Node25 -->
<g id="edge64" class="edge">
<title>Node37&#45;&gt;Node25</title>
<path fill="none" stroke="midnightblue" d="M2170.89,-108.83C2165.53,-97.83 2158.87,-84.16 2154.65,-75.51"/>
<polygon fill="midnightblue" stroke="midnightblue" points="2167.82,-110.52 2175.35,-117.98 2174.11,-107.45 2167.82,-110.52"/>
</g>
<!-- Node37&#45;&gt;Node36 -->
<g id="edge65" class="edge">
<title>Node37&#45;&gt;Node36</title>
<path fill="none" stroke="midnightblue" d="M2226.75,-115.69C2277.2,-104.14 2356.11,-86.08 2402.32,-75.51"/>
<polygon fill="midnightblue" stroke="midnightblue" points="2225.72,-112.33 2216.75,-117.98 2227.28,-119.16 2225.72,-112.33"/>
</g>
<!-- Node39&#45;&gt;Node4 -->
<g id="edge68" class="edge">
<title>Node39&#45;&gt;Node4</title>
<path fill="none" stroke="midnightblue" d="M2001.03,-102.51C1997.02,-87.28 1989.67,-68.21 1976.5,-56 1955.9,-36.89 1927.07,-25.89 1901.08,-19.56"/>
<polygon fill="midnightblue" stroke="midnightblue" points="1997.63,-103.36 2003.3,-112.31 2004.45,-101.78 1997.63,-103.36"/>
</g>
<!-- Node39&#45;&gt;Node21 -->
<g id="edge69" class="edge">
<title>Node39&#45;&gt;Node21</title>
<path fill="none" stroke="midnightblue" d="M1929.43,-116.81C1916.76,-115.2 1903.76,-113.55 1891.5,-112 1790.79,-99.25 1674.09,-84.55 1602.28,-75.52"/>
<polygon fill="midnightblue" stroke="midnightblue" points="1929.13,-120.3 1939.49,-118.09 1930.01,-113.36 1929.13,-120.3"/>
</g>
<!-- Node39&#45;&gt;Node29 -->
<g id="edge70" class="edge">
<title>Node39&#45;&gt;Node29</title>
<path fill="none" stroke="midnightblue" d="M2081.7,-112.92C2083.99,-112.6 2086.26,-112.29 2088.5,-112 2277.82,-87.55 2326.31,-92.39 2516.5,-76 2532,-74.66 2548.82,-73.19 2564.24,-71.83"/>
<polygon fill="midnightblue" stroke="midnightblue" points="2080.95,-109.49 2071.56,-114.41 2081.97,-116.42 2080.95,-109.49"/>
</g>
<!-- Node40&#45;&gt;Node18 -->
<g id="edge73" class="edge">
<title>Node40&#45;&gt;Node18</title>
<path fill="none" stroke="midnightblue" d="M2494.96,-106.16C2513.29,-91.81 2530.31,-72.32 2516.5,-56 2491.4,-26.33 2387.61,-16.21 2316.81,-12.77"/>
<polygon fill="midnightblue" stroke="midnightblue" points="2492.53,-103.6 2486.56,-112.36 2496.68,-109.24 2492.53,-103.6"/>
</g>
<!-- Node40&#45;&gt;Node29 -->
<g id="edge72" class="edge">
<title>Node40&#45;&gt;Node29</title>
<path fill="none" stroke="midnightblue" d="M2509.61,-108.8C2538.1,-97.86 2573.41,-84.31 2595.95,-75.66"/>
<polygon fill="midnightblue" stroke="midnightblue" points="2508.31,-105.55 2500.23,-112.4 2510.82,-112.08 2508.31,-105.55"/>
</g>
<!-- Node40&#45;&gt;Node36 -->
<g id="edge74" class="edge">
<title>Node40&#45;&gt;Node36</title>
<path fill="none" stroke="midnightblue" d="M2453.98,-102.9C2450.11,-93.3 2445.88,-82.81 2442.99,-75.66"/>
<polygon fill="midnightblue" stroke="midnightblue" points="2450.83,-104.43 2457.81,-112.4 2457.32,-101.82 2450.83,-104.43"/>
</g>
</g>
</svg>
