<?xml version="1.0" encoding="UTF-8" standalone="no"?>
<!DOCTYPE svg PUBLIC "-//W3C//DTD SVG 1.1//EN"
 "http://www.w3.org/Graphics/SVG/1.1/DTD/svg11.dtd">
<!-- Generated by graphviz version 2.43.0 (0)
 -->
<!-- Title: src/lchvalues.h Pages: 1 -->
<svg width="355pt" height="196pt"
 viewBox="0.00 0.00 354.50 196.00" xmlns="http://www.w3.org/2000/svg" xmlns:xlink="http://www.w3.org/1999/xlink">
<g id="graph0" class="graph" transform="scale(1 1) rotate(0) translate(4 192)">
<title>src/lchvalues.h</title>
<polygon fill="white" stroke="transparent" points="-4,4 -4,-192 350.5,-192 350.5,4 -4,4"/>
<!-- Node1 -->
<g id="node1" class="node">
<title>Node1</title>
<g id="a_node1"><a xlink:title=" ">
<polygon fill="#bfbfbf" stroke="black" points="61.5,-168.5 61.5,-187.5 150.5,-187.5 150.5,-168.5 61.5,-168.5"/>
<text text-anchor="middle" x="106" y="-175.5" font-family="Helvetica,sans-Serif" font-size="10.00">src/lchvalues.h</text>
</a>
</g>
</g>
<!-- Node2 -->
<g id="node2" class="node">
<title>Node2</title>
<g id="a_node2"><a xlink:href="perceptualcolorglobal_8h.html" target="_top" xlink:title=" ">
<polygon fill="white" stroke="black" points="0,-56.5 0,-75.5 212,-75.5 212,-56.5 0,-56.5"/>
<text text-anchor="middle" x="106" y="-63.5" font-family="Helvetica,sans-Serif" font-size="10.00">PerceptualColor/perceptualcolorglobal.h</text>
</a>
</g>
</g>
<!-- Node1&#45;&gt;Node2 -->
<g id="edge1" class="edge">
<title>Node1&#45;&gt;Node2</title>
<path fill="none" stroke="midnightblue" d="M79.35,-168.48C50.94,-157.85 11.96,-137.87 27,-112 35.74,-96.97 51.58,-86.54 66.79,-79.54"/>
<polygon fill="midnightblue" stroke="midnightblue" points="68.26,-82.72 76.12,-75.61 65.54,-76.27 68.26,-82.72"/>
</g>
<!-- Node4 -->
<g id="node4" class="node">
<title>Node4</title>
<g id="a_node4"><a xlink:href="perceptualcolorinternal_8h.html" target="_top" xlink:title=" ">
<polygon fill="white" stroke="black" points="36.5,-112.5 36.5,-131.5 175.5,-131.5 175.5,-112.5 36.5,-112.5"/>
<text text-anchor="middle" x="106" y="-119.5" font-family="Helvetica,sans-Serif" font-size="10.00">perceptualcolorinternal.h</text>
</a>
</g>
</g>
<!-- Node1&#45;&gt;Node4 -->
<g id="edge3" class="edge">
<title>Node1&#45;&gt;Node4</title>
<path fill="none" stroke="midnightblue" d="M106,-168.08C106,-161.01 106,-150.86 106,-141.99"/>
<polygon fill="midnightblue" stroke="midnightblue" points="109.5,-141.75 106,-131.75 102.5,-141.75 109.5,-141.75"/>
</g>
<!-- Node5 -->
<g id="node5" class="node">
<title>Node5</title>
<g id="a_node5"><a xlink:href="lchdouble_8h.html" target="_top" xlink:title=" ">
<polygon fill="white" stroke="black" points="193.5,-112.5 193.5,-131.5 346.5,-131.5 346.5,-112.5 193.5,-112.5"/>
<text text-anchor="middle" x="270" y="-119.5" font-family="Helvetica,sans-Serif" font-size="10.00">PerceptualColor/lchdouble.h</text>
</a>
</g>
</g>
<!-- Node1&#45;&gt;Node5 -->
<g id="edge5" class="edge">
<title>Node1&#45;&gt;Node5</title>
<path fill="none" stroke="midnightblue" d="M131.99,-168.44C159.7,-159.32 203.75,-144.81 234.62,-134.65"/>
<polygon fill="midnightblue" stroke="midnightblue" points="235.73,-137.97 244.14,-131.52 233.54,-131.32 235.73,-137.97"/>
</g>
<!-- Node3 -->
<g id="node3" class="node">
<title>Node3</title>
<g id="a_node3"><a xlink:title=" ">
<polygon fill="white" stroke="#bfbfbf" points="76.5,-0.5 76.5,-19.5 135.5,-19.5 135.5,-0.5 76.5,-0.5"/>
<text text-anchor="middle" x="106" y="-7.5" font-family="Helvetica,sans-Serif" font-size="10.00">QtGlobal</text>
</a>
</g>
</g>
<!-- Node2&#45;&gt;Node3 -->
<g id="edge2" class="edge">
<title>Node2&#45;&gt;Node3</title>
<path fill="none" stroke="midnightblue" d="M106,-56.08C106,-49.01 106,-38.86 106,-29.99"/>
<polygon fill="midnightblue" stroke="midnightblue" points="109.5,-29.75 106,-19.75 102.5,-29.75 109.5,-29.75"/>
</g>
<!-- Node4&#45;&gt;Node2 -->
<g id="edge4" class="edge">
<title>Node4&#45;&gt;Node2</title>
<path fill="none" stroke="midnightblue" d="M106,-112.08C106,-105.01 106,-94.86 106,-85.99"/>
<polygon fill="midnightblue" stroke="midnightblue" points="109.5,-85.75 106,-75.75 102.5,-85.75 109.5,-85.75"/>
</g>
<!-- Node5&#45;&gt;Node2 -->
<g id="edge6" class="edge">
<title>Node5&#45;&gt;Node2</title>
<path fill="none" stroke="midnightblue" d="M244.01,-112.44C216.3,-103.32 172.25,-88.81 141.38,-78.65"/>
<polygon fill="midnightblue" stroke="midnightblue" points="142.46,-75.32 131.86,-75.52 140.27,-81.97 142.46,-75.32"/>
</g>
<!-- Node6 -->
<g id="node6" class="node">
<title>Node6</title>
<g id="a_node6"><a xlink:title=" ">
<polygon fill="white" stroke="#bfbfbf" points="242,-56.5 242,-75.5 298,-75.5 298,-56.5 242,-56.5"/>
<text text-anchor="middle" x="270" y="-63.5" font-family="Helvetica,sans-Serif" font-size="10.00">QDebug</text>
</a>
</g>
</g>
<!-- Node5&#45;&gt;Node6 -->
<g id="edge7" class="edge">
<title>Node5&#45;&gt;Node6</title>
<path fill="none" stroke="midnightblue" d="M270,-112.08C270,-105.01 270,-94.86 270,-85.99"/>
<polygon fill="midnightblue" stroke="midnightblue" points="273.5,-85.75 270,-75.75 266.5,-85.75 273.5,-85.75"/>
</g>
</g>
</svg>
