<?xml version="1.0" encoding="UTF-8" standalone="no"?>
<!DOCTYPE svg PUBLIC "-//W3C//DTD SVG 1.1//EN"
 "http://www.w3.org/Graphics/SVG/1.1/DTD/svg11.dtd">
<!-- Generated by graphviz version 2.43.0 (0)
 -->
<!-- Title: src/lchvalues.cpp Pages: 1 -->
<svg width="374pt" height="252pt"
 viewBox="0.00 0.00 373.67 252.00" xmlns="http://www.w3.org/2000/svg" xmlns:xlink="http://www.w3.org/1999/xlink">
<g id="graph0" class="graph" transform="scale(1 1) rotate(0) translate(4 248)">
<title>src/lchvalues.cpp</title>
<polygon fill="white" stroke="transparent" points="-4,4 -4,-248 369.67,-248 369.67,4 -4,4"/>
<!-- Node1 -->
<g id="node1" class="node">
<title>Node1</title>
<g id="a_node1"><a xlink:title=" ">
<polygon fill="#bfbfbf" stroke="black" points="35.67,-224.5 35.67,-243.5 136.67,-243.5 136.67,-224.5 35.67,-224.5"/>
<text text-anchor="middle" x="86.17" y="-231.5" font-family="Helvetica,sans-Serif" font-size="10.00">src/lchvalues.cpp</text>
</a>
</g>
</g>
<!-- Node2 -->
<g id="node2" class="node">
<title>Node2</title>
<g id="a_node2"><a xlink:href="perceptualcolorglobal_8h.html" target="_top" xlink:title=" ">
<polygon fill="white" stroke="black" points="6.17,-56.5 6.17,-75.5 218.17,-75.5 218.17,-56.5 6.17,-56.5"/>
<text text-anchor="middle" x="112.17" y="-63.5" font-family="Helvetica,sans-Serif" font-size="10.00">PerceptualColor/perceptualcolorglobal.h</text>
</a>
</g>
</g>
<!-- Node1&#45;&gt;Node2 -->
<g id="edge1" class="edge">
<title>Node1&#45;&gt;Node2</title>
<path fill="none" stroke="midnightblue" d="M72.95,-224.47C43.94,-204.68 -20.59,-154.1 7.17,-112 17.81,-95.86 35.56,-85.49 53.47,-78.83"/>
<polygon fill="midnightblue" stroke="midnightblue" points="55.03,-82 63.4,-75.5 52.8,-75.37 55.03,-82"/>
</g>
<!-- Node4 -->
<g id="node4" class="node">
<title>Node4</title>
<g id="a_node4"><a xlink:href="perceptualcolorinternal_8h.html" target="_top" xlink:title=" ">
<polygon fill="white" stroke="black" points="16.67,-112.5 16.67,-131.5 155.67,-131.5 155.67,-112.5 16.67,-112.5"/>
<text text-anchor="middle" x="86.17" y="-119.5" font-family="Helvetica,sans-Serif" font-size="10.00">perceptualcolorinternal.h</text>
</a>
</g>
</g>
<!-- Node1&#45;&gt;Node4 -->
<g id="edge3" class="edge">
<title>Node1&#45;&gt;Node4</title>
<path fill="none" stroke="midnightblue" d="M86.17,-224.37C86.17,-206.62 86.17,-165.67 86.17,-141.6"/>
<polygon fill="midnightblue" stroke="midnightblue" points="89.67,-141.59 86.17,-131.59 82.67,-141.59 89.67,-141.59"/>
</g>
<!-- Node5 -->
<g id="node5" class="node">
<title>Node5</title>
<g id="a_node5"><a xlink:href="lchvalues_8h.html" target="_top" xlink:title=" ">
<polygon fill="white" stroke="black" points="131.17,-168.5 131.17,-187.5 203.17,-187.5 203.17,-168.5 131.17,-168.5"/>
<text text-anchor="middle" x="167.17" y="-175.5" font-family="Helvetica,sans-Serif" font-size="10.00">lchvalues.h</text>
</a>
</g>
</g>
<!-- Node1&#45;&gt;Node5 -->
<g id="edge5" class="edge">
<title>Node1&#45;&gt;Node5</title>
<path fill="none" stroke="midnightblue" d="M99.18,-224.32C111.7,-215.98 130.85,-203.21 145.64,-193.35"/>
<polygon fill="midnightblue" stroke="midnightblue" points="147.81,-196.11 154.19,-187.65 143.92,-190.29 147.81,-196.11"/>
</g>
<!-- Node3 -->
<g id="node3" class="node">
<title>Node3</title>
<g id="a_node3"><a xlink:title=" ">
<polygon fill="white" stroke="#bfbfbf" points="82.67,-0.5 82.67,-19.5 141.67,-19.5 141.67,-0.5 82.67,-0.5"/>
<text text-anchor="middle" x="112.17" y="-7.5" font-family="Helvetica,sans-Serif" font-size="10.00">QtGlobal</text>
</a>
</g>
</g>
<!-- Node2&#45;&gt;Node3 -->
<g id="edge2" class="edge">
<title>Node2&#45;&gt;Node3</title>
<path fill="none" stroke="midnightblue" d="M112.17,-56.08C112.17,-49.01 112.17,-38.86 112.17,-29.99"/>
<polygon fill="midnightblue" stroke="midnightblue" points="115.67,-29.75 112.17,-19.75 108.67,-29.75 115.67,-29.75"/>
</g>
<!-- Node4&#45;&gt;Node2 -->
<g id="edge4" class="edge">
<title>Node4&#45;&gt;Node2</title>
<path fill="none" stroke="midnightblue" d="M90.46,-112.08C94.02,-104.69 99.19,-93.95 103.59,-84.81"/>
<polygon fill="midnightblue" stroke="midnightblue" points="106.77,-86.28 107.96,-75.75 100.46,-83.24 106.77,-86.28"/>
</g>
<!-- Node5&#45;&gt;Node2 -->
<g id="edge6" class="edge">
<title>Node5&#45;&gt;Node2</title>
<path fill="none" stroke="midnightblue" d="M169,-168.49C171.33,-155.56 174.08,-130.51 165.17,-112 159.01,-99.21 147.33,-88.68 136.5,-81.03"/>
<polygon fill="midnightblue" stroke="midnightblue" points="138.4,-78.09 128.12,-75.52 134.55,-83.94 138.4,-78.09"/>
</g>
<!-- Node5&#45;&gt;Node4 -->
<g id="edge7" class="edge">
<title>Node5&#45;&gt;Node4</title>
<path fill="none" stroke="midnightblue" d="M154.15,-168.32C141.64,-159.98 122.49,-147.21 107.7,-137.35"/>
<polygon fill="midnightblue" stroke="midnightblue" points="109.41,-134.29 99.15,-131.65 105.53,-140.11 109.41,-134.29"/>
</g>
<!-- Node6 -->
<g id="node6" class="node">
<title>Node6</title>
<g id="a_node6"><a xlink:href="lchdouble_8h.html" target="_top" xlink:title=" ">
<polygon fill="white" stroke="black" points="212.67,-112.5 212.67,-131.5 365.67,-131.5 365.67,-112.5 212.67,-112.5"/>
<text text-anchor="middle" x="289.17" y="-119.5" font-family="Helvetica,sans-Serif" font-size="10.00">PerceptualColor/lchdouble.h</text>
</a>
</g>
</g>
<!-- Node5&#45;&gt;Node6 -->
<g id="edge8" class="edge">
<title>Node5&#45;&gt;Node6</title>
<path fill="none" stroke="midnightblue" d="M186.5,-168.44C206.49,-159.6 237.91,-145.69 260.73,-135.59"/>
<polygon fill="midnightblue" stroke="midnightblue" points="262.2,-138.76 269.93,-131.52 259.37,-132.36 262.2,-138.76"/>
</g>
<!-- Node6&#45;&gt;Node2 -->
<g id="edge9" class="edge">
<title>Node6&#45;&gt;Node2</title>
<path fill="none" stroke="midnightblue" d="M261.12,-112.44C231.09,-103.28 183.26,-88.69 149.93,-78.52"/>
<polygon fill="midnightblue" stroke="midnightblue" points="150.67,-75.09 140.08,-75.52 148.63,-81.78 150.67,-75.09"/>
</g>
<!-- Node7 -->
<g id="node7" class="node">
<title>Node7</title>
<g id="a_node7"><a xlink:title=" ">
<polygon fill="white" stroke="#bfbfbf" points="261.17,-56.5 261.17,-75.5 317.17,-75.5 317.17,-56.5 261.17,-56.5"/>
<text text-anchor="middle" x="289.17" y="-63.5" font-family="Helvetica,sans-Serif" font-size="10.00">QDebug</text>
</a>
</g>
</g>
<!-- Node6&#45;&gt;Node7 -->
<g id="edge10" class="edge">
<title>Node6&#45;&gt;Node7</title>
<path fill="none" stroke="midnightblue" d="M289.17,-112.08C289.17,-105.01 289.17,-94.86 289.17,-85.99"/>
<polygon fill="midnightblue" stroke="midnightblue" points="292.67,-85.75 289.17,-75.75 285.67,-85.75 292.67,-85.75"/>
</g>
</g>
</svg>
