<?xml version="1.0" encoding="UTF-8" standalone="no"?>
<!DOCTYPE svg PUBLIC "-//W3C//DTD SVG 1.1//EN"
 "http://www.w3.org/Graphics/SVG/1.1/DTD/svg11.dtd">
<!-- Generated by graphviz version 2.43.0 (0)
 -->
<!-- Title: src/lchvalues.h Pages: 1 -->
<svg width="1602pt" height="140pt"
 viewBox="0.00 0.00 1601.50 140.00" xmlns="http://www.w3.org/2000/svg" xmlns:xlink="http://www.w3.org/1999/xlink">
<g id="graph0" class="graph" transform="scale(1 1) rotate(0) translate(4 136)">
<title>src/lchvalues.h</title>
<polygon fill="white" stroke="transparent" points="-4,4 -4,-136 1597.5,-136 1597.5,4 -4,4"/>
<!-- Node1 -->
<g id="node1" class="node">
<title>Node1</title>
<g id="a_node1"><a xlink:title=" ">
<polygon fill="#bfbfbf" stroke="black" points="813,-112.5 813,-131.5 902,-131.5 902,-112.5 813,-112.5"/>
<text text-anchor="middle" x="857.5" y="-119.5" font-family="Helvetica,sans-Serif" font-size="10.00">src/lchvalues.h</text>
</a>
</g>
</g>
<!-- Node2 -->
<g id="node2" class="node">
<title>Node2</title>
<g id="a_node2"><a xlink:href="chromahuediagram__p_8h.html" target="_top" xlink:title=" ">
<polygon fill="white" stroke="black" points="0,-56.5 0,-75.5 149,-75.5 149,-56.5 0,-56.5"/>
<text text-anchor="middle" x="74.5" y="-63.5" font-family="Helvetica,sans-Serif" font-size="10.00">src/chromahuediagram_p.h</text>
</a>
</g>
</g>
<!-- Node1&#45;&gt;Node2 -->
<g id="edge1" class="edge">
<title>Node1&#45;&gt;Node2</title>
<path fill="none" stroke="midnightblue" d="M802.56,-118.14C685.03,-111.87 400.52,-95.87 162.5,-76 158.21,-75.64 153.81,-75.26 149.37,-74.85"/>
<polygon fill="midnightblue" stroke="midnightblue" points="802.57,-121.65 812.74,-118.68 802.94,-114.66 802.57,-121.65"/>
</g>
<!-- Node3 -->
<g id="node3" class="node">
<title>Node3</title>
<g id="a_node3"><a xlink:href="chromahuediagram_8cpp.html" target="_top" xlink:title=" ">
<polygon fill="white" stroke="black" points="51,-0.5 51,-19.5 200,-19.5 200,-0.5 51,-0.5"/>
<text text-anchor="middle" x="125.5" y="-7.5" font-family="Helvetica,sans-Serif" font-size="10.00">src/chromahuediagram.cpp</text>
</a>
</g>
</g>
<!-- Node1&#45;&gt;Node3 -->
<g id="edge3" class="edge">
<title>Node1&#45;&gt;Node3</title>
<path fill="none" stroke="midnightblue" d="M802.75,-119.37C654.12,-114.66 250.55,-99.8 195.5,-76 166.88,-63.63 142.55,-34.37 131.64,-19.7"/>
<polygon fill="midnightblue" stroke="midnightblue" points="802.89,-122.88 813,-119.69 803.11,-115.88 802.89,-122.88"/>
</g>
<!-- Node4 -->
<g id="node4" class="node">
<title>Node4</title>
<g id="a_node4"><a xlink:href="chromahueimage_8cpp.html" target="_top" xlink:title=" ">
<polygon fill="white" stroke="black" points="204.5,-56.5 204.5,-75.5 344.5,-75.5 344.5,-56.5 204.5,-56.5"/>
<text text-anchor="middle" x="274.5" y="-63.5" font-family="Helvetica,sans-Serif" font-size="10.00">src/chromahueimage.cpp</text>
</a>
</g>
</g>
<!-- Node1&#45;&gt;Node4 -->
<g id="edge4" class="edge">
<title>Node1&#45;&gt;Node4</title>
<path fill="none" stroke="midnightblue" d="M803,-116.57C710.51,-108.96 516.93,-92.6 353.5,-76 350.62,-75.71 347.67,-75.4 344.7,-75.09"/>
<polygon fill="midnightblue" stroke="midnightblue" points="802.72,-120.06 812.97,-117.39 803.29,-113.08 802.72,-120.06"/>
</g>
<!-- Node5 -->
<g id="node5" class="node">
<title>Node5</title>
<g id="a_node5"><a xlink:href="chromalightnessdiagram_8cpp.html" target="_top" xlink:title=" ">
<polygon fill="white" stroke="black" points="362.5,-56.5 362.5,-75.5 538.5,-75.5 538.5,-56.5 362.5,-56.5"/>
<text text-anchor="middle" x="450.5" y="-63.5" font-family="Helvetica,sans-Serif" font-size="10.00">src/chromalightnessdiagram.cpp</text>
</a>
</g>
</g>
<!-- Node1&#45;&gt;Node5 -->
<g id="edge5" class="edge">
<title>Node1&#45;&gt;Node5</title>
<path fill="none" stroke="midnightblue" d="M802.62,-113.72C727.8,-103.79 594.02,-86.04 514.65,-75.51"/>
<polygon fill="midnightblue" stroke="midnightblue" points="802.41,-117.22 812.78,-115.07 803.33,-110.28 802.41,-117.22"/>
</g>
<!-- Node6 -->
<g id="node6" class="node">
<title>Node6</title>
<g id="a_node6"><a xlink:href="chromalightnessimage_8cpp.html" target="_top" xlink:title=" ">
<polygon fill="white" stroke="black" points="556.5,-56.5 556.5,-75.5 722.5,-75.5 722.5,-56.5 556.5,-56.5"/>
<text text-anchor="middle" x="639.5" y="-63.5" font-family="Helvetica,sans-Serif" font-size="10.00">src/chromalightnessimage.cpp</text>
</a>
</g>
</g>
<!-- Node1&#45;&gt;Node6 -->
<g id="edge6" class="edge">
<title>Node1&#45;&gt;Node6</title>
<path fill="none" stroke="midnightblue" d="M813.19,-110.02C772.01,-99.82 711.53,-84.84 673.88,-75.52"/>
<polygon fill="midnightblue" stroke="midnightblue" points="812.41,-113.44 822.96,-112.44 814.09,-106.64 812.41,-113.44"/>
</g>
<!-- Node7 -->
<g id="node7" class="node">
<title>Node7</title>
<g id="a_node7"><a xlink:href="colordialog_8cpp.html" target="_top" xlink:title=" ">
<polygon fill="white" stroke="black" points="740.5,-56.5 740.5,-75.5 848.5,-75.5 848.5,-56.5 740.5,-56.5"/>
<text text-anchor="middle" x="794.5" y="-63.5" font-family="Helvetica,sans-Serif" font-size="10.00">src/colordialog.cpp</text>
</a>
</g>
</g>
<!-- Node1&#45;&gt;Node7 -->
<g id="edge7" class="edge">
<title>Node1&#45;&gt;Node7</title>
<path fill="none" stroke="midnightblue" d="M839.46,-105.54C828.23,-95.91 814.18,-83.87 804.81,-75.83"/>
<polygon fill="midnightblue" stroke="midnightblue" points="837.51,-108.47 847.38,-112.32 842.06,-103.16 837.51,-108.47"/>
</g>
<!-- Node8 -->
<g id="node8" class="node">
<title>Node8</title>
<g id="a_node8"><a xlink:href="colorwheel_8cpp.html" target="_top" xlink:title=" ">
<polygon fill="white" stroke="black" points="867,-56.5 867,-75.5 974,-75.5 974,-56.5 867,-56.5"/>
<text text-anchor="middle" x="920.5" y="-63.5" font-family="Helvetica,sans-Serif" font-size="10.00">src/colorwheel.cpp</text>
</a>
</g>
</g>
<!-- Node1&#45;&gt;Node8 -->
<g id="edge8" class="edge">
<title>Node1&#45;&gt;Node8</title>
<path fill="none" stroke="midnightblue" d="M875.54,-105.54C886.77,-95.91 900.82,-83.87 910.19,-75.83"/>
<polygon fill="midnightblue" stroke="midnightblue" points="872.94,-103.16 867.62,-112.32 877.49,-108.47 872.94,-103.16"/>
</g>
<!-- Node9 -->
<g id="node9" class="node">
<title>Node9</title>
<g id="a_node9"><a xlink:href="colorwheelimage_8cpp.html" target="_top" xlink:title=" ">
<polygon fill="white" stroke="black" points="992.5,-56.5 992.5,-75.5 1130.5,-75.5 1130.5,-56.5 992.5,-56.5"/>
<text text-anchor="middle" x="1061.5" y="-63.5" font-family="Helvetica,sans-Serif" font-size="10.00">src/colorwheelimage.cpp</text>
</a>
</g>
</g>
<!-- Node1&#45;&gt;Node9 -->
<g id="edge9" class="edge">
<title>Node1&#45;&gt;Node9</title>
<path fill="none" stroke="midnightblue" d="M899.7,-109.83C938.22,-99.63 994.32,-84.78 1029.33,-75.52"/>
<polygon fill="midnightblue" stroke="midnightblue" points="898.6,-106.5 889.82,-112.44 900.39,-113.27 898.6,-106.5"/>
</g>
<!-- Node10 -->
<g id="node10" class="node">
<title>Node10</title>
<g id="a_node10"><a xlink:href="lchvalues_8cpp.html" target="_top" xlink:title=" ">
<polygon fill="white" stroke="black" points="1149,-56.5 1149,-75.5 1250,-75.5 1250,-56.5 1149,-56.5"/>
<text text-anchor="middle" x="1199.5" y="-63.5" font-family="Helvetica,sans-Serif" font-size="10.00">src/lchvalues.cpp</text>
</a>
</g>
</g>
<!-- Node1&#45;&gt;Node10 -->
<g id="edge10" class="edge">
<title>Node1&#45;&gt;Node10</title>
<path fill="none" stroke="midnightblue" d="M912.3,-112.35C977.54,-102.05 1085.62,-84.98 1148.94,-74.98"/>
<polygon fill="midnightblue" stroke="midnightblue" points="911.54,-108.92 902.21,-113.94 912.63,-115.84 911.54,-108.92"/>
</g>
<!-- Node11 -->
<g id="node11" class="node">
<title>Node11</title>
<g id="a_node11"><a xlink:href="rgbcolorspace__p_8h.html" target="_top" xlink:title=" ">
<polygon fill="white" stroke="black" points="1268.5,-56.5 1268.5,-75.5 1390.5,-75.5 1390.5,-56.5 1268.5,-56.5"/>
<text text-anchor="middle" x="1329.5" y="-63.5" font-family="Helvetica,sans-Serif" font-size="10.00">src/rgbcolorspace_p.h</text>
</a>
</g>
</g>
<!-- Node1&#45;&gt;Node11 -->
<g id="edge11" class="edge">
<title>Node1&#45;&gt;Node11</title>
<path fill="none" stroke="midnightblue" d="M912,-115.13C989.17,-106.77 1134.68,-90.79 1258.5,-76 1261.71,-75.62 1265,-75.22 1268.32,-74.81"/>
<polygon fill="midnightblue" stroke="midnightblue" points="911.59,-111.66 902.03,-116.21 912.35,-118.62 911.59,-111.66"/>
</g>
<!-- Node13 -->
<g id="node13" class="node">
<title>Node13</title>
<g id="a_node13"><a xlink:href="wheelcolorpicker__p_8h.html" target="_top" xlink:title=" ">
<polygon fill="white" stroke="black" points="1409,-56.5 1409,-75.5 1546,-75.5 1546,-56.5 1409,-56.5"/>
<text text-anchor="middle" x="1477.5" y="-63.5" font-family="Helvetica,sans-Serif" font-size="10.00">src/wheelcolorpicker_p.h</text>
</a>
</g>
</g>
<!-- Node1&#45;&gt;Node13 -->
<g id="edge13" class="edge">
<title>Node1&#45;&gt;Node13</title>
<path fill="none" stroke="midnightblue" d="M912.41,-117.03C1010.34,-109.81 1221.59,-93.65 1399.5,-76 1402.48,-75.7 1405.53,-75.39 1408.61,-75.07"/>
<polygon fill="midnightblue" stroke="midnightblue" points="911.88,-113.56 902.16,-117.78 912.39,-120.54 911.88,-113.56"/>
</g>
<!-- Node14 -->
<g id="node14" class="node">
<title>Node14</title>
<g id="a_node14"><a xlink:href="wheelcolorpicker_8cpp.html" target="_top" xlink:title=" ">
<polygon fill="white" stroke="black" points="1457.5,-0.5 1457.5,-19.5 1593.5,-19.5 1593.5,-0.5 1457.5,-0.5"/>
<text text-anchor="middle" x="1525.5" y="-7.5" font-family="Helvetica,sans-Serif" font-size="10.00">src/wheelcolorpicker.cpp</text>
</a>
</g>
</g>
<!-- Node1&#45;&gt;Node14 -->
<g id="edge15" class="edge">
<title>Node1&#45;&gt;Node14</title>
<path fill="none" stroke="midnightblue" d="M912.4,-121.66C1069.42,-123 1511.86,-122.54 1555.5,-76 1571.14,-59.32 1548.8,-33.04 1535,-19.57"/>
<polygon fill="midnightblue" stroke="midnightblue" points="912.07,-118.16 902.04,-121.57 912.01,-125.16 912.07,-118.16"/>
</g>
<!-- Node2&#45;&gt;Node3 -->
<g id="edge2" class="edge">
<title>Node2&#45;&gt;Node3</title>
<path fill="none" stroke="midnightblue" d="M89.88,-48.72C98.87,-39.2 109.86,-27.56 117.24,-19.75"/>
<polygon fill="midnightblue" stroke="midnightblue" points="87.24,-46.41 82.92,-56.08 92.33,-51.22 87.24,-46.41"/>
</g>
<!-- Node12 -->
<g id="node12" class="node">
<title>Node12</title>
<g id="a_node12"><a xlink:href="rgbcolorspace_8cpp.html" target="_top" xlink:title=" ">
<polygon fill="white" stroke="black" points="1268.5,-0.5 1268.5,-19.5 1390.5,-19.5 1390.5,-0.5 1268.5,-0.5"/>
<text text-anchor="middle" x="1329.5" y="-7.5" font-family="Helvetica,sans-Serif" font-size="10.00">src/rgbcolorspace.cpp</text>
</a>
</g>
</g>
<!-- Node11&#45;&gt;Node12 -->
<g id="edge12" class="edge">
<title>Node11&#45;&gt;Node12</title>
<path fill="none" stroke="midnightblue" d="M1329.5,-45.8C1329.5,-36.91 1329.5,-26.78 1329.5,-19.75"/>
<polygon fill="midnightblue" stroke="midnightblue" points="1326,-46.08 1329.5,-56.08 1333,-46.08 1326,-46.08"/>
</g>
<!-- Node13&#45;&gt;Node14 -->
<g id="edge14" class="edge">
<title>Node13&#45;&gt;Node14</title>
<path fill="none" stroke="midnightblue" d="M1492.23,-48.43C1500.64,-38.97 1510.85,-27.48 1517.72,-19.75"/>
<polygon fill="midnightblue" stroke="midnightblue" points="1489.45,-46.28 1485.43,-56.08 1494.69,-50.93 1489.45,-46.28"/>
</g>
</g>
</svg>
