<?xml version="1.0" encoding="UTF-8" standalone="no"?>
<!DOCTYPE svg PUBLIC "-//W3C//DTD SVG 1.1//EN"
 "http://www.w3.org/Graphics/SVG/1.1/DTD/svg11.dtd">
<!-- Generated by graphviz version 2.43.0 (0)
 -->
<!-- Title: src/multispinbox_p.h Pages: 1 -->
<svg width="994pt" height="308pt"
 viewBox="0.00 0.00 993.92 308.00" xmlns="http://www.w3.org/2000/svg" xmlns:xlink="http://www.w3.org/1999/xlink">
<g id="graph0" class="graph" transform="scale(1 1) rotate(0) translate(4 304)">
<title>src/multispinbox_p.h</title>
<polygon fill="white" stroke="transparent" points="-4,4 -4,-304 989.92,-304 989.92,4 -4,4"/>
<!-- Node1 -->
<g id="node1" class="node">
<title>Node1</title>
<g id="a_node1"><a xlink:title=" ">
<polygon fill="#bfbfbf" stroke="black" points="212.92,-280.5 212.92,-299.5 330.92,-299.5 330.92,-280.5 212.92,-280.5"/>
<text text-anchor="middle" x="271.92" y="-287.5" font-family="Helvetica,sans-Serif" font-size="10.00">src/multispinbox_p.h</text>
</a>
</g>
</g>
<!-- Node2 -->
<g id="node2" class="node">
<title>Node2</title>
<g id="a_node2"><a xlink:href="perceptualcolorglobal_8h.html" target="_top" xlink:title=" ">
<polygon fill="white" stroke="black" points="244.92,-56.5 244.92,-75.5 456.92,-75.5 456.92,-56.5 244.92,-56.5"/>
<text text-anchor="middle" x="350.92" y="-63.5" font-family="Helvetica,sans-Serif" font-size="10.00">PerceptualColor/perceptualcolorglobal.h</text>
</a>
</g>
</g>
<!-- Node1&#45;&gt;Node2 -->
<g id="edge1" class="edge">
<title>Node1&#45;&gt;Node2</title>
<path fill="none" stroke="midnightblue" d="M212.64,-287.74C129.27,-282.66 -11.24,-260.46 0.92,-168 4.29,-142.45 -3.42,-129.02 15.92,-112 47.9,-83.89 151.25,-73.18 234.79,-69.19"/>
<polygon fill="midnightblue" stroke="midnightblue" points="235.04,-72.68 244.88,-68.74 234.73,-65.69 235.04,-72.68"/>
</g>
<!-- Node4 -->
<g id="node4" class="node">
<title>Node4</title>
<g id="a_node4"><a xlink:href="perceptualcolorinternal_8h.html" target="_top" xlink:title=" ">
<polygon fill="white" stroke="black" points="25.42,-112.5 25.42,-131.5 164.42,-131.5 164.42,-112.5 25.42,-112.5"/>
<text text-anchor="middle" x="94.92" y="-119.5" font-family="Helvetica,sans-Serif" font-size="10.00">perceptualcolorinternal.h</text>
</a>
</g>
</g>
<!-- Node1&#45;&gt;Node4 -->
<g id="edge3" class="edge">
<title>Node1&#45;&gt;Node4</title>
<path fill="none" stroke="midnightblue" d="M212.9,-284.96C150.38,-277.17 54.56,-254.41 8.92,-188 -7.14,-164.62 25.97,-146.13 55.66,-134.95"/>
<polygon fill="midnightblue" stroke="midnightblue" points="56.87,-138.23 65.11,-131.58 54.52,-131.64 56.87,-138.23"/>
</g>
<!-- Node5 -->
<g id="node5" class="node">
<title>Node5</title>
<g id="a_node5"><a xlink:href="multispinbox_8h.html" target="_top" xlink:title=" ">
<polygon fill="white" stroke="black" points="382.92,-224.5 382.92,-243.5 552.92,-243.5 552.92,-224.5 382.92,-224.5"/>
<text text-anchor="middle" x="467.92" y="-231.5" font-family="Helvetica,sans-Serif" font-size="10.00">PerceptualColor/multispinbox.h</text>
</a>
</g>
</g>
<!-- Node1&#45;&gt;Node5 -->
<g id="edge5" class="edge">
<title>Node1&#45;&gt;Node5</title>
<path fill="none" stroke="midnightblue" d="M302.98,-280.44C336.53,-271.2 390.12,-256.44 427.07,-246.26"/>
<polygon fill="midnightblue" stroke="midnightblue" points="428.3,-249.55 437.01,-243.52 426.44,-242.8 428.3,-249.55"/>
</g>
<!-- Node14 -->
<g id="node14" class="node">
<title>Node14</title>
<g id="a_node14"><a xlink:title=" ">
<polygon fill="white" stroke="#bfbfbf" points="570.92,-224.5 570.92,-243.5 680.92,-243.5 680.92,-224.5 570.92,-224.5"/>
<text text-anchor="middle" x="625.92" y="-231.5" font-family="Helvetica,sans-Serif" font-size="10.00">QAccessibleWidget</text>
</a>
</g>
</g>
<!-- Node1&#45;&gt;Node14 -->
<g id="edge18" class="edge">
<title>Node1&#45;&gt;Node14</title>
<path fill="none" stroke="midnightblue" d="M328.02,-280.44C391.25,-270.8 493.92,-255.14 560.69,-244.95"/>
<polygon fill="midnightblue" stroke="midnightblue" points="561.32,-248.4 570.68,-243.43 560.26,-241.48 561.32,-248.4"/>
</g>
<!-- Node15 -->
<g id="node15" class="node">
<title>Node15</title>
<g id="a_node15"><a xlink:title=" ">
<polygon fill="white" stroke="#bfbfbf" points="699.42,-224.5 699.42,-243.5 758.42,-243.5 758.42,-224.5 699.42,-224.5"/>
<text text-anchor="middle" x="728.92" y="-231.5" font-family="Helvetica,sans-Serif" font-size="10.00">QPointer</text>
</a>
</g>
</g>
<!-- Node1&#45;&gt;Node15 -->
<g id="edge19" class="edge">
<title>Node1&#45;&gt;Node15</title>
<path fill="none" stroke="midnightblue" d="M331.07,-284.87C410.35,-278.84 555.58,-266.06 689.18,-243.93"/>
<polygon fill="midnightblue" stroke="midnightblue" points="689.9,-247.35 699.19,-242.25 688.75,-240.45 689.9,-247.35"/>
</g>
<!-- Node16 -->
<g id="node16" class="node">
<title>Node16</title>
<g id="a_node16"><a xlink:href="constpropagatingrawpointer_8h.html" target="_top" xlink:title=" ">
<polygon fill="white" stroke="black" points="17.92,-168.5 17.92,-187.5 179.92,-187.5 179.92,-168.5 17.92,-168.5"/>
<text text-anchor="middle" x="98.92" y="-175.5" font-family="Helvetica,sans-Serif" font-size="10.00">constpropagatingrawpointer.h</text>
</a>
</g>
</g>
<!-- Node1&#45;&gt;Node16 -->
<g id="edge20" class="edge">
<title>Node1&#45;&gt;Node16</title>
<path fill="none" stroke="midnightblue" d="M258.35,-280.37C228.66,-261.49 157.72,-216.38 121.32,-193.24"/>
<polygon fill="midnightblue" stroke="midnightblue" points="122.75,-190 112.44,-187.59 119,-195.91 122.75,-190"/>
</g>
<!-- Node17 -->
<g id="node17" class="node">
<title>Node17</title>
<g id="a_node17"><a xlink:href="extendeddoublevalidator_8h.html" target="_top" xlink:title=" ">
<polygon fill="white" stroke="black" points="198.42,-168.5 198.42,-187.5 345.42,-187.5 345.42,-168.5 198.42,-168.5"/>
<text text-anchor="middle" x="271.92" y="-175.5" font-family="Helvetica,sans-Serif" font-size="10.00">extendeddoublevalidator.h</text>
</a>
</g>
</g>
<!-- Node1&#45;&gt;Node17 -->
<g id="edge23" class="edge">
<title>Node1&#45;&gt;Node17</title>
<path fill="none" stroke="midnightblue" d="M271.92,-280.37C271.92,-262.62 271.92,-221.67 271.92,-197.6"/>
<polygon fill="midnightblue" stroke="midnightblue" points="275.42,-197.59 271.92,-187.59 268.42,-197.59 275.42,-197.59"/>
</g>
<!-- Node3 -->
<g id="node3" class="node">
<title>Node3</title>
<g id="a_node3"><a xlink:title=" ">
<polygon fill="white" stroke="#bfbfbf" points="321.42,-0.5 321.42,-19.5 380.42,-19.5 380.42,-0.5 321.42,-0.5"/>
<text text-anchor="middle" x="350.92" y="-7.5" font-family="Helvetica,sans-Serif" font-size="10.00">QtGlobal</text>
</a>
</g>
</g>
<!-- Node2&#45;&gt;Node3 -->
<g id="edge2" class="edge">
<title>Node2&#45;&gt;Node3</title>
<path fill="none" stroke="midnightblue" d="M350.92,-56.08C350.92,-49.01 350.92,-38.86 350.92,-29.99"/>
<polygon fill="midnightblue" stroke="midnightblue" points="354.42,-29.75 350.92,-19.75 347.42,-29.75 354.42,-29.75"/>
</g>
<!-- Node4&#45;&gt;Node2 -->
<g id="edge4" class="edge">
<title>Node4&#45;&gt;Node2</title>
<path fill="none" stroke="midnightblue" d="M135.49,-112.44C180.24,-103 252.31,-87.8 300.62,-77.61"/>
<polygon fill="midnightblue" stroke="midnightblue" points="301.49,-81.01 310.55,-75.52 300.04,-74.16 301.49,-81.01"/>
</g>
<!-- Node5&#45;&gt;Node2 -->
<g id="edge6" class="edge">
<title>Node5&#45;&gt;Node2</title>
<path fill="none" stroke="midnightblue" d="M480.26,-224.42C496.84,-211.81 522.7,-187.67 508.92,-168 482.06,-129.65 448.8,-158.1 409.92,-132 390.64,-119.06 373.41,-98.49 362.62,-83.97"/>
<polygon fill="midnightblue" stroke="midnightblue" points="365.45,-81.9 356.78,-75.82 359.77,-85.99 365.45,-81.9"/>
</g>
<!-- Node6 -->
<g id="node6" class="node">
<title>Node6</title>
<g id="a_node6"><a xlink:title=" ">
<polygon fill="white" stroke="#bfbfbf" points="881.92,-168.5 881.92,-187.5 985.92,-187.5 985.92,-168.5 881.92,-168.5"/>
<text text-anchor="middle" x="933.92" y="-175.5" font-family="Helvetica,sans-Serif" font-size="10.00">QAbstractSpinBox</text>
</a>
</g>
</g>
<!-- Node5&#45;&gt;Node6 -->
<g id="edge7" class="edge">
<title>Node5&#45;&gt;Node6</title>
<path fill="none" stroke="midnightblue" d="M552.58,-224.49C632.27,-216.27 755.22,-203.06 871.55,-188.14"/>
<polygon fill="midnightblue" stroke="midnightblue" points="872.23,-191.58 881.7,-186.83 871.33,-184.64 872.23,-191.58"/>
</g>
<!-- Node7 -->
<g id="node7" class="node">
<title>Node7</title>
<g id="a_node7"><a xlink:title=" ">
<polygon fill="white" stroke="#bfbfbf" points="363.42,-168.5 363.42,-187.5 418.42,-187.5 418.42,-168.5 363.42,-168.5"/>
<text text-anchor="middle" x="390.92" y="-175.5" font-family="Helvetica,sans-Serif" font-size="10.00">QAction</text>
</a>
</g>
</g>
<!-- Node5&#45;&gt;Node7 -->
<g id="edge8" class="edge">
<title>Node5&#45;&gt;Node7</title>
<path fill="none" stroke="midnightblue" d="M455.55,-224.32C443.77,-216.06 425.79,-203.45 411.79,-193.63"/>
<polygon fill="midnightblue" stroke="midnightblue" points="413.46,-190.53 403.27,-187.65 409.44,-196.26 413.46,-190.53"/>
</g>
<!-- Node8 -->
<g id="node8" class="node">
<title>Node8</title>
<g id="a_node8"><a xlink:title=" ">
<polygon fill="white" stroke="#bfbfbf" points="436.42,-168.5 436.42,-187.5 499.42,-187.5 499.42,-168.5 436.42,-168.5"/>
<text text-anchor="middle" x="467.92" y="-175.5" font-family="Helvetica,sans-Serif" font-size="10.00">QLineEdit</text>
</a>
</g>
</g>
<!-- Node5&#45;&gt;Node8 -->
<g id="edge9" class="edge">
<title>Node5&#45;&gt;Node8</title>
<path fill="none" stroke="midnightblue" d="M467.92,-224.08C467.92,-217.01 467.92,-206.86 467.92,-197.99"/>
<polygon fill="midnightblue" stroke="midnightblue" points="471.42,-197.75 467.92,-187.75 464.42,-197.75 471.42,-197.75"/>
</g>
<!-- Node9 -->
<g id="node9" class="node">
<title>Node9</title>
<g id="a_node9"><a xlink:href="constpropagatinguniquepointer_8h.html" target="_top" xlink:title=" ">
<polygon fill="white" stroke="black" points="418.42,-112.5 418.42,-131.5 675.42,-131.5 675.42,-112.5 418.42,-112.5"/>
<text text-anchor="middle" x="546.92" y="-119.5" font-family="Helvetica,sans-Serif" font-size="10.00">PerceptualColor/constpropagatinguniquepointer.h</text>
</a>
</g>
</g>
<!-- Node5&#45;&gt;Node9 -->
<g id="edge10" class="edge">
<title>Node5&#45;&gt;Node9</title>
<path fill="none" stroke="midnightblue" d="M493.68,-224.4C510.41,-217.38 531.07,-205.68 541.92,-188 550.34,-174.29 550.95,-155.75 549.83,-141.99"/>
<polygon fill="midnightblue" stroke="midnightblue" points="553.27,-141.27 548.61,-131.75 546.32,-142.1 553.27,-141.27"/>
</g>
<!-- Node11 -->
<g id="node11" class="node">
<title>Node11</title>
<g id="a_node11"><a xlink:href="multispinboxsectionconfiguration_8h.html" target="_top" xlink:title=" ">
<polygon fill="white" stroke="black" points="594.42,-168.5 594.42,-187.5 863.42,-187.5 863.42,-168.5 594.42,-168.5"/>
<text text-anchor="middle" x="728.92" y="-175.5" font-family="Helvetica,sans-Serif" font-size="10.00">PerceptualColor/multispinboxsectionconfiguration.h</text>
</a>
</g>
</g>
<!-- Node5&#45;&gt;Node11 -->
<g id="edge13" class="edge">
<title>Node5&#45;&gt;Node11</title>
<path fill="none" stroke="midnightblue" d="M509.28,-224.44C555,-214.98 628.69,-199.74 677.95,-189.55"/>
<polygon fill="midnightblue" stroke="midnightblue" points="678.68,-192.97 687.76,-187.52 677.26,-186.12 678.68,-192.97"/>
</g>
<!-- Node9&#45;&gt;Node2 -->
<g id="edge11" class="edge">
<title>Node9&#45;&gt;Node2</title>
<path fill="none" stroke="midnightblue" d="M515.87,-112.44C482.32,-103.2 428.73,-88.44 391.78,-78.26"/>
<polygon fill="midnightblue" stroke="midnightblue" points="392.41,-74.8 381.84,-75.52 390.55,-81.55 392.41,-74.8"/>
</g>
<!-- Node10 -->
<g id="node10" class="node">
<title>Node10</title>
<g id="a_node10"><a xlink:title=" ">
<polygon fill="white" stroke="#bfbfbf" points="517.92,-56.5 517.92,-75.5 575.92,-75.5 575.92,-56.5 517.92,-56.5"/>
<text text-anchor="middle" x="546.92" y="-63.5" font-family="Helvetica,sans-Serif" font-size="10.00">memory</text>
</a>
</g>
</g>
<!-- Node9&#45;&gt;Node10 -->
<g id="edge12" class="edge">
<title>Node9&#45;&gt;Node10</title>
<path fill="none" stroke="midnightblue" d="M546.92,-112.08C546.92,-105.01 546.92,-94.86 546.92,-85.99"/>
<polygon fill="midnightblue" stroke="midnightblue" points="550.42,-85.75 546.92,-75.75 543.42,-85.75 550.42,-85.75"/>
</g>
<!-- Node11&#45;&gt;Node2 -->
<g id="edge14" class="edge">
<title>Node11&#45;&gt;Node2</title>
<path fill="none" stroke="midnightblue" d="M773.77,-168.5C816.33,-158.54 870.3,-139.79 844.92,-112 832.31,-98.18 609.06,-82.38 467.04,-73.66"/>
<polygon fill="midnightblue" stroke="midnightblue" points="467.16,-70.16 456.96,-73.05 466.73,-77.15 467.16,-70.16"/>
</g>
<!-- Node11&#45;&gt;Node9 -->
<g id="edge17" class="edge">
<title>Node11&#45;&gt;Node9</title>
<path fill="none" stroke="midnightblue" d="M700.09,-168.44C669.07,-159.24 619.6,-144.56 585.31,-134.39"/>
<polygon fill="midnightblue" stroke="midnightblue" points="586.21,-131.01 575.63,-131.52 584.22,-137.72 586.21,-131.01"/>
</g>
<!-- Node12 -->
<g id="node12" class="node">
<title>Node12</title>
<g id="a_node12"><a xlink:title=" ">
<polygon fill="white" stroke="#bfbfbf" points="693.42,-112.5 693.42,-131.5 764.42,-131.5 764.42,-112.5 693.42,-112.5"/>
<text text-anchor="middle" x="728.92" y="-119.5" font-family="Helvetica,sans-Serif" font-size="10.00">QMetaType</text>
</a>
</g>
</g>
<!-- Node11&#45;&gt;Node12 -->
<g id="edge15" class="edge">
<title>Node11&#45;&gt;Node12</title>
<path fill="none" stroke="midnightblue" d="M728.92,-168.08C728.92,-161.01 728.92,-150.86 728.92,-141.99"/>
<polygon fill="midnightblue" stroke="midnightblue" points="732.42,-141.75 728.92,-131.75 725.42,-141.75 732.42,-141.75"/>
</g>
<!-- Node13 -->
<g id="node13" class="node">
<title>Node13</title>
<g id="a_node13"><a xlink:title=" ">
<polygon fill="white" stroke="#bfbfbf" points="782.42,-112.5 782.42,-131.5 835.42,-131.5 835.42,-112.5 782.42,-112.5"/>
<text text-anchor="middle" x="808.92" y="-119.5" font-family="Helvetica,sans-Serif" font-size="10.00">QString</text>
</a>
</g>
</g>
<!-- Node11&#45;&gt;Node13 -->
<g id="edge16" class="edge">
<title>Node11&#45;&gt;Node13</title>
<path fill="none" stroke="midnightblue" d="M741.78,-168.32C754.14,-159.98 773.05,-147.21 787.66,-137.35"/>
<polygon fill="midnightblue" stroke="midnightblue" points="789.77,-140.15 796.1,-131.65 785.86,-134.35 789.77,-140.15"/>
</g>
<!-- Node16&#45;&gt;Node2 -->
<g id="edge21" class="edge">
<title>Node16&#45;&gt;Node2</title>
<path fill="none" stroke="midnightblue" d="M112.86,-168.5C138.43,-152.97 192.06,-120.81 211.92,-112 243.31,-98.08 280.37,-86.29 308.33,-78.28"/>
<polygon fill="midnightblue" stroke="midnightblue" points="309.52,-81.59 318.19,-75.51 307.62,-74.85 309.52,-81.59"/>
</g>
<!-- Node16&#45;&gt;Node4 -->
<g id="edge22" class="edge">
<title>Node16&#45;&gt;Node4</title>
<path fill="none" stroke="midnightblue" d="M98.26,-168.08C97.74,-161.01 96.99,-150.86 96.33,-141.99"/>
<polygon fill="midnightblue" stroke="midnightblue" points="99.8,-141.47 95.57,-131.75 92.82,-141.98 99.8,-141.47"/>
</g>
<!-- Node17&#45;&gt;Node2 -->
<g id="edge24" class="edge">
<title>Node17&#45;&gt;Node2</title>
<path fill="none" stroke="midnightblue" d="M288.82,-168.35C302.36,-160.58 320.88,-147.95 331.92,-132 341.44,-118.26 346.25,-99.73 348.64,-85.97"/>
<polygon fill="midnightblue" stroke="midnightblue" points="352.15,-86.15 350.13,-75.74 345.23,-85.13 352.15,-86.15"/>
</g>
<!-- Node17&#45;&gt;Node4 -->
<g id="edge25" class="edge">
<title>Node17&#45;&gt;Node4</title>
<path fill="none" stroke="midnightblue" d="M243.88,-168.44C213.84,-159.28 166.01,-144.69 132.68,-134.52"/>
<polygon fill="midnightblue" stroke="midnightblue" points="133.43,-131.09 122.84,-131.52 131.38,-137.78 133.43,-131.09"/>
</g>
<!-- Node17&#45;&gt;Node9 -->
<g id="edge27" class="edge">
<title>Node17&#45;&gt;Node9</title>
<path fill="none" stroke="midnightblue" d="M315.5,-168.44C363.77,-158.96 441.64,-143.67 493.54,-133.48"/>
<polygon fill="midnightblue" stroke="midnightblue" points="494.42,-136.88 503.55,-131.52 493.07,-130.01 494.42,-136.88"/>
</g>
<!-- Node18 -->
<g id="node18" class="node">
<title>Node18</title>
<g id="a_node18"><a xlink:title=" ">
<polygon fill="white" stroke="#bfbfbf" points="220.92,-112.5 220.92,-131.5 322.92,-131.5 322.92,-112.5 220.92,-112.5"/>
<text text-anchor="middle" x="271.92" y="-119.5" font-family="Helvetica,sans-Serif" font-size="10.00">QDoubleValidator</text>
</a>
</g>
</g>
<!-- Node17&#45;&gt;Node18 -->
<g id="edge26" class="edge">
<title>Node17&#45;&gt;Node18</title>
<path fill="none" stroke="midnightblue" d="M271.92,-168.08C271.92,-161.01 271.92,-150.86 271.92,-141.99"/>
<polygon fill="midnightblue" stroke="midnightblue" points="275.42,-141.75 271.92,-131.75 268.42,-141.75 275.42,-141.75"/>
</g>
</g>
</svg>
