<?xml version="1.0" encoding="UTF-8" standalone="no"?>
<!DOCTYPE svg PUBLIC "-//W3C//DTD SVG 1.1//EN"
 "http://www.w3.org/Graphics/SVG/1.1/DTD/svg11.dtd">
<!-- Generated by graphviz version 2.43.0 (0)
 -->
<!-- Title: src/multicolor.cpp Pages: 1 -->
<svg width="1078pt" height="308pt"
 viewBox="0.00 0.00 1078.26 308.00" xmlns="http://www.w3.org/2000/svg" xmlns:xlink="http://www.w3.org/1999/xlink">
<g id="graph0" class="graph" transform="scale(1 1) rotate(0) translate(4 304)">
<title>src/multicolor.cpp</title>
<polygon fill="white" stroke="transparent" points="-4,4 -4,-304 1074.26,-304 1074.26,4 -4,4"/>
<!-- Node1 -->
<g id="node1" class="node">
<title>Node1</title>
<g id="a_node1"><a xlink:title=" ">
<polygon fill="#bfbfbf" stroke="black" points="888,-280.5 888,-299.5 991,-299.5 991,-280.5 888,-280.5"/>
<text text-anchor="middle" x="939.5" y="-287.5" font-family="Helvetica,sans-Serif" font-size="10.00">src/multicolor.cpp</text>
</a>
</g>
</g>
<!-- Node2 -->
<g id="node2" class="node">
<title>Node2</title>
<g id="a_node2"><a xlink:href="perceptualcolorglobal_8h.html" target="_top" xlink:title=" ">
<polygon fill="white" stroke="black" points="675.5,-56.5 675.5,-75.5 887.5,-75.5 887.5,-56.5 675.5,-56.5"/>
<text text-anchor="middle" x="781.5" y="-63.5" font-family="Helvetica,sans-Serif" font-size="10.00">PerceptualColor/perceptualcolorglobal.h</text>
</a>
</g>
</g>
<!-- Node1&#45;&gt;Node2 -->
<g id="edge1" class="edge">
<title>Node1&#45;&gt;Node2</title>
<path fill="none" stroke="midnightblue" d="M962.24,-280.46C1005.48,-262.81 1092.84,-219.63 1064.5,-168 1032.15,-109.07 960.67,-83.88 897.64,-73.39"/>
<polygon fill="midnightblue" stroke="midnightblue" points="898.03,-69.91 887.61,-71.83 896.95,-76.82 898.03,-69.91"/>
</g>
<!-- Node4 -->
<g id="node4" class="node">
<title>Node4</title>
<g id="a_node4"><a xlink:href="perceptualcolorinternal_8h.html" target="_top" xlink:title=" ">
<polygon fill="white" stroke="black" points="810,-112.5 810,-131.5 949,-131.5 949,-112.5 810,-112.5"/>
<text text-anchor="middle" x="879.5" y="-119.5" font-family="Helvetica,sans-Serif" font-size="10.00">perceptualcolorinternal.h</text>
</a>
</g>
</g>
<!-- Node1&#45;&gt;Node4 -->
<g id="edge3" class="edge">
<title>Node1&#45;&gt;Node4</title>
<path fill="none" stroke="midnightblue" d="M919.57,-280.46C889.42,-266.3 833.29,-234.8 810.5,-188 799.73,-165.89 825.04,-147.45 847.98,-135.92"/>
<polygon fill="midnightblue" stroke="midnightblue" points="849.67,-138.99 857.22,-131.56 846.69,-132.66 849.67,-138.99"/>
</g>
<!-- Node5 -->
<g id="node5" class="node">
<title>Node5</title>
<g id="a_node5"><a xlink:href="multicolor_8h.html" target="_top" xlink:title=" ">
<polygon fill="white" stroke="black" points="902.5,-224.5 902.5,-243.5 976.5,-243.5 976.5,-224.5 902.5,-224.5"/>
<text text-anchor="middle" x="939.5" y="-231.5" font-family="Helvetica,sans-Serif" font-size="10.00">multicolor.h</text>
</a>
</g>
</g>
<!-- Node1&#45;&gt;Node5 -->
<g id="edge5" class="edge">
<title>Node1&#45;&gt;Node5</title>
<path fill="none" stroke="midnightblue" d="M939.5,-280.08C939.5,-273.01 939.5,-262.86 939.5,-253.99"/>
<polygon fill="midnightblue" stroke="midnightblue" points="943,-253.75 939.5,-243.75 936,-253.75 943,-253.75"/>
</g>
<!-- Node3 -->
<g id="node3" class="node">
<title>Node3</title>
<g id="a_node3"><a xlink:title=" ">
<polygon fill="white" stroke="#bfbfbf" points="752,-0.5 752,-19.5 811,-19.5 811,-0.5 752,-0.5"/>
<text text-anchor="middle" x="781.5" y="-7.5" font-family="Helvetica,sans-Serif" font-size="10.00">QtGlobal</text>
</a>
</g>
</g>
<!-- Node2&#45;&gt;Node3 -->
<g id="edge2" class="edge">
<title>Node2&#45;&gt;Node3</title>
<path fill="none" stroke="midnightblue" d="M781.5,-56.08C781.5,-49.01 781.5,-38.86 781.5,-29.99"/>
<polygon fill="midnightblue" stroke="midnightblue" points="785,-29.75 781.5,-19.75 778,-29.75 785,-29.75"/>
</g>
<!-- Node4&#45;&gt;Node2 -->
<g id="edge4" class="edge">
<title>Node4&#45;&gt;Node2</title>
<path fill="none" stroke="midnightblue" d="M863.75,-112.32C848.18,-103.74 824.12,-90.49 806.04,-80.52"/>
<polygon fill="midnightblue" stroke="midnightblue" points="807.65,-77.42 797.21,-75.65 804.28,-83.55 807.65,-77.42"/>
</g>
<!-- Node5&#45;&gt;Node2 -->
<g id="edge6" class="edge">
<title>Node5&#45;&gt;Node2</title>
<path fill="none" stroke="midnightblue" d="M944.83,-224.29C957.25,-202.75 985.13,-146.24 958.5,-112 945.89,-95.78 900.68,-84.45 859.11,-77.21"/>
<polygon fill="midnightblue" stroke="midnightblue" points="859.64,-73.75 849.2,-75.55 858.48,-80.66 859.64,-73.75"/>
</g>
<!-- Node5&#45;&gt;Node4 -->
<g id="edge7" class="edge">
<title>Node5&#45;&gt;Node4</title>
<path fill="none" stroke="midnightblue" d="M938.21,-224.09C936.05,-211.09 930.86,-186.45 920.5,-168 914.38,-157.11 905.17,-146.68 897.03,-138.61"/>
<polygon fill="midnightblue" stroke="midnightblue" points="899.35,-135.99 889.69,-131.65 894.54,-141.07 899.35,-135.99"/>
</g>
<!-- Node6 -->
<g id="node6" class="node">
<title>Node6</title>
<g id="a_node6"><a xlink:href="rgbcolorspace_8h.html" target="_top" xlink:title=" ">
<polygon fill="white" stroke="black" points="490.5,-168.5 490.5,-187.5 584.5,-187.5 584.5,-168.5 490.5,-168.5"/>
<text text-anchor="middle" x="537.5" y="-175.5" font-family="Helvetica,sans-Serif" font-size="10.00">rgbcolorspace.h</text>
</a>
</g>
</g>
<!-- Node5&#45;&gt;Node6 -->
<g id="edge8" class="edge">
<title>Node5&#45;&gt;Node6</title>
<path fill="none" stroke="midnightblue" d="M902.4,-228.02C831.96,-218.55 678.44,-197.93 594.72,-186.69"/>
<polygon fill="midnightblue" stroke="midnightblue" points="595,-183.19 584.62,-185.33 594.07,-190.13 595,-183.19"/>
</g>
<!-- Node14 -->
<g id="node14" class="node">
<title>Node14</title>
<g id="a_node14"><a xlink:title=" ">
<polygon fill="white" stroke="#bfbfbf" points="1005.5,-168.5 1005.5,-187.5 1055.5,-187.5 1055.5,-168.5 1005.5,-168.5"/>
<text text-anchor="middle" x="1030.5" y="-175.5" font-family="Helvetica,sans-Serif" font-size="10.00">QColor</text>
</a>
</g>
</g>
<!-- Node5&#45;&gt;Node14 -->
<g id="edge22" class="edge">
<title>Node5&#45;&gt;Node14</title>
<path fill="none" stroke="midnightblue" d="M954.12,-224.32C968.45,-215.82 990.51,-202.73 1007.25,-192.8"/>
<polygon fill="midnightblue" stroke="midnightblue" points="1009.1,-195.77 1015.92,-187.65 1005.53,-189.75 1009.1,-195.77"/>
</g>
<!-- Node15 -->
<g id="node15" class="node">
<title>Node15</title>
<g id="a_node15"><a xlink:title=" ">
<polygon fill="white" stroke="#bfbfbf" points="819.5,-168.5 819.5,-187.5 911.5,-187.5 911.5,-168.5 819.5,-168.5"/>
<text text-anchor="middle" x="865.5" y="-175.5" font-family="Helvetica,sans-Serif" font-size="10.00">QSharedPointer</text>
</a>
</g>
</g>
<!-- Node5&#45;&gt;Node15 -->
<g id="edge23" class="edge">
<title>Node5&#45;&gt;Node15</title>
<path fill="none" stroke="midnightblue" d="M927.61,-224.32C916.35,-216.11 899.21,-203.6 885.79,-193.81"/>
<polygon fill="midnightblue" stroke="midnightblue" points="887.75,-190.9 877.61,-187.83 883.62,-196.56 887.75,-190.9"/>
</g>
<!-- Node6&#45;&gt;Node2 -->
<g id="edge9" class="edge">
<title>Node6&#45;&gt;Node2</title>
<path fill="none" stroke="midnightblue" d="M584.6,-173.27C642.73,-167.72 737.02,-155.35 762.5,-132 775.35,-120.23 779.69,-100.3 781.06,-85.6"/>
<polygon fill="midnightblue" stroke="midnightblue" points="784.56,-85.79 781.63,-75.61 777.57,-85.39 784.56,-85.79"/>
</g>
<!-- Node6&#45;&gt;Node4 -->
<g id="edge10" class="edge">
<title>Node6&#45;&gt;Node4</title>
<path fill="none" stroke="midnightblue" d="M584.69,-169.55C644.65,-160.08 748.38,-143.7 815.44,-133.11"/>
<polygon fill="midnightblue" stroke="midnightblue" points="816.14,-136.55 825.47,-131.53 815.04,-129.63 816.14,-136.55"/>
</g>
<!-- Node7 -->
<g id="node7" class="node">
<title>Node7</title>
<g id="a_node7"><a xlink:title=" ">
<polygon fill="white" stroke="#bfbfbf" points="348.5,-112.5 348.5,-131.5 404.5,-131.5 404.5,-112.5 348.5,-112.5"/>
<text text-anchor="middle" x="376.5" y="-119.5" font-family="Helvetica,sans-Serif" font-size="10.00">QObject</text>
</a>
</g>
</g>
<!-- Node6&#45;&gt;Node7 -->
<g id="edge11" class="edge">
<title>Node6&#45;&gt;Node7</title>
<path fill="none" stroke="midnightblue" d="M511.99,-168.44C484.9,-159.36 441.91,-144.94 411.63,-134.78"/>
<polygon fill="midnightblue" stroke="midnightblue" points="412.49,-131.38 401.89,-131.52 410.26,-138.01 412.49,-131.38"/>
</g>
<!-- Node8 -->
<g id="node8" class="node">
<title>Node8</title>
<g id="a_node8"><a xlink:href="constpropagatinguniquepointer_8h.html" target="_top" xlink:title=" ">
<polygon fill="white" stroke="black" points="496,-112.5 496,-131.5 753,-131.5 753,-112.5 496,-112.5"/>
<text text-anchor="middle" x="624.5" y="-119.5" font-family="Helvetica,sans-Serif" font-size="10.00">PerceptualColor/constpropagatinguniquepointer.h</text>
</a>
</g>
</g>
<!-- Node6&#45;&gt;Node8 -->
<g id="edge12" class="edge">
<title>Node6&#45;&gt;Node8</title>
<path fill="none" stroke="midnightblue" d="M551.48,-168.32C565.05,-159.9 585.88,-146.97 601.82,-137.07"/>
<polygon fill="midnightblue" stroke="midnightblue" points="603.91,-139.9 610.56,-131.65 600.21,-133.95 603.91,-139.9"/>
</g>
<!-- Node10 -->
<g id="node10" class="node">
<title>Node10</title>
<g id="a_node10"><a xlink:href="lchadouble_8h.html" target="_top" xlink:title=" ">
<polygon fill="white" stroke="black" points="0,-112.5 0,-131.5 159,-131.5 159,-112.5 0,-112.5"/>
<text text-anchor="middle" x="79.5" y="-119.5" font-family="Helvetica,sans-Serif" font-size="10.00">PerceptualColor/lchadouble.h</text>
</a>
</g>
</g>
<!-- Node6&#45;&gt;Node10 -->
<g id="edge15" class="edge">
<title>Node6&#45;&gt;Node10</title>
<path fill="none" stroke="midnightblue" d="M490.21,-171.42C412.73,-162.29 257.8,-144.02 161.94,-132.72"/>
<polygon fill="midnightblue" stroke="midnightblue" points="162.34,-129.24 152,-131.55 161.52,-136.19 162.34,-129.24"/>
</g>
<!-- Node12 -->
<g id="node12" class="node">
<title>Node12</title>
<g id="a_node12"><a xlink:href="lchdouble_8h.html" target="_top" xlink:title=" ">
<polygon fill="white" stroke="black" points="177,-112.5 177,-131.5 330,-131.5 330,-112.5 177,-112.5"/>
<text text-anchor="middle" x="253.5" y="-119.5" font-family="Helvetica,sans-Serif" font-size="10.00">PerceptualColor/lchdouble.h</text>
</a>
</g>
</g>
<!-- Node6&#45;&gt;Node12 -->
<g id="edge18" class="edge">
<title>Node6&#45;&gt;Node12</title>
<path fill="none" stroke="midnightblue" d="M492.5,-168.44C442.54,-158.94 361.9,-143.61 308.3,-133.42"/>
<polygon fill="midnightblue" stroke="midnightblue" points="308.77,-129.95 298.29,-131.52 307.46,-136.82 308.77,-129.95"/>
</g>
<!-- Node13 -->
<g id="node13" class="node">
<title>Node13</title>
<g id="a_node13"><a xlink:title=" ">
<polygon fill="white" stroke="#bfbfbf" points="423,-112.5 423,-131.5 478,-131.5 478,-112.5 423,-112.5"/>
<text text-anchor="middle" x="450.5" y="-119.5" font-family="Helvetica,sans-Serif" font-size="10.00">lcms2.h</text>
</a>
</g>
</g>
<!-- Node6&#45;&gt;Node13 -->
<g id="edge21" class="edge">
<title>Node6&#45;&gt;Node13</title>
<path fill="none" stroke="midnightblue" d="M523.52,-168.32C509.95,-159.9 489.12,-146.97 473.18,-137.07"/>
<polygon fill="midnightblue" stroke="midnightblue" points="474.79,-133.95 464.44,-131.65 471.09,-139.9 474.79,-133.95"/>
</g>
<!-- Node8&#45;&gt;Node2 -->
<g id="edge13" class="edge">
<title>Node8&#45;&gt;Node2</title>
<path fill="none" stroke="midnightblue" d="M649.38,-112.44C675.79,-103.36 717.72,-88.94 747.24,-78.78"/>
<polygon fill="midnightblue" stroke="midnightblue" points="748.42,-82.08 756.74,-75.52 746.14,-75.46 748.42,-82.08"/>
</g>
<!-- Node9 -->
<g id="node9" class="node">
<title>Node9</title>
<g id="a_node9"><a xlink:title=" ">
<polygon fill="white" stroke="#bfbfbf" points="595.5,-56.5 595.5,-75.5 653.5,-75.5 653.5,-56.5 595.5,-56.5"/>
<text text-anchor="middle" x="624.5" y="-63.5" font-family="Helvetica,sans-Serif" font-size="10.00">memory</text>
</a>
</g>
</g>
<!-- Node8&#45;&gt;Node9 -->
<g id="edge14" class="edge">
<title>Node8&#45;&gt;Node9</title>
<path fill="none" stroke="midnightblue" d="M624.5,-112.08C624.5,-105.01 624.5,-94.86 624.5,-85.99"/>
<polygon fill="midnightblue" stroke="midnightblue" points="628,-85.75 624.5,-75.75 621,-85.75 628,-85.75"/>
</g>
<!-- Node10&#45;&gt;Node2 -->
<g id="edge16" class="edge">
<title>Node10&#45;&gt;Node2</title>
<path fill="none" stroke="midnightblue" d="M159.12,-112.75C161.94,-112.49 164.75,-112.24 167.5,-112 387.24,-92.78 442.52,-92.32 662.5,-76 663.43,-75.93 664.36,-75.86 665.29,-75.79"/>
<polygon fill="midnightblue" stroke="midnightblue" points="665.71,-79.27 675.42,-75.04 665.19,-72.29 665.71,-79.27"/>
</g>
<!-- Node11 -->
<g id="node11" class="node">
<title>Node11</title>
<g id="a_node11"><a xlink:title=" ">
<polygon fill="white" stroke="#bfbfbf" points="138.5,-56.5 138.5,-75.5 194.5,-75.5 194.5,-56.5 138.5,-56.5"/>
<text text-anchor="middle" x="166.5" y="-63.5" font-family="Helvetica,sans-Serif" font-size="10.00">QDebug</text>
</a>
</g>
</g>
<!-- Node10&#45;&gt;Node11 -->
<g id="edge17" class="edge">
<title>Node10&#45;&gt;Node11</title>
<path fill="none" stroke="midnightblue" d="M93.48,-112.32C107.05,-103.9 127.88,-90.97 143.82,-81.07"/>
<polygon fill="midnightblue" stroke="midnightblue" points="145.91,-83.9 152.56,-75.65 142.21,-77.95 145.91,-83.9"/>
</g>
<!-- Node12&#45;&gt;Node2 -->
<g id="edge19" class="edge">
<title>Node12&#45;&gt;Node2</title>
<path fill="none" stroke="midnightblue" d="M330.39,-112.94C333.47,-112.62 336.51,-112.31 339.5,-112 459.37,-99.63 597.55,-85.6 687.04,-76.54"/>
<polygon fill="midnightblue" stroke="midnightblue" points="687.57,-80 697.17,-75.51 686.87,-73.04 687.57,-80"/>
</g>
<!-- Node12&#45;&gt;Node11 -->
<g id="edge20" class="edge">
<title>Node12&#45;&gt;Node11</title>
<path fill="none" stroke="midnightblue" d="M239.52,-112.32C225.95,-103.9 205.12,-90.97 189.18,-81.07"/>
<polygon fill="midnightblue" stroke="midnightblue" points="190.79,-77.95 180.44,-75.65 187.09,-83.9 190.79,-77.95"/>
</g>
</g>
</svg>
