<?xml version="1.0" encoding="UTF-8" standalone="no"?>
<!DOCTYPE svg PUBLIC "-//W3C//DTD SVG 1.1//EN"
 "http://www.w3.org/Graphics/SVG/1.1/DTD/svg11.dtd">
<!-- Generated by graphviz version 2.43.0 (0)
 -->
<!-- Title: src/multicolor.h Pages: 1 -->
<svg width="1173pt" height="252pt"
 viewBox="0.00 0.00 1173.00 252.00" xmlns="http://www.w3.org/2000/svg" xmlns:xlink="http://www.w3.org/1999/xlink">
<g id="graph0" class="graph" transform="scale(1 1) rotate(0) translate(4 248)">
<title>src/multicolor.h</title>
<polygon fill="white" stroke="transparent" points="-4,4 -4,-248 1169,-248 1169,4 -4,4"/>
<!-- Node1 -->
<g id="node1" class="node">
<title>Node1</title>
<g id="a_node1"><a xlink:title=" ">
<polygon fill="#bfbfbf" stroke="black" points="931,-224.5 931,-243.5 1023,-243.5 1023,-224.5 931,-224.5"/>
<text text-anchor="middle" x="977" y="-231.5" font-family="Helvetica,sans-Serif" font-size="10.00">src/multicolor.h</text>
</a>
</g>
</g>
<!-- Node2 -->
<g id="node2" class="node">
<title>Node2</title>
<g id="a_node2"><a xlink:href="perceptualcolorglobal_8h.html" target="_top" xlink:title=" ">
<polygon fill="white" stroke="black" points="622,-56.5 622,-75.5 834,-75.5 834,-56.5 622,-56.5"/>
<text text-anchor="middle" x="728" y="-63.5" font-family="Helvetica,sans-Serif" font-size="10.00">PerceptualColor/perceptualcolorglobal.h</text>
</a>
</g>
</g>
<!-- Node1&#45;&gt;Node2 -->
<g id="edge1" class="edge">
<title>Node1&#45;&gt;Node2</title>
<path fill="none" stroke="midnightblue" d="M978.64,-224.24C982.23,-202.1 988.24,-143.4 958,-112 941.13,-94.49 889.87,-83.52 840.01,-76.8"/>
<polygon fill="midnightblue" stroke="midnightblue" points="840.44,-73.32 830.07,-75.51 839.54,-80.27 840.44,-73.32"/>
</g>
<!-- Node4 -->
<g id="node4" class="node">
<title>Node4</title>
<g id="a_node4"><a xlink:href="perceptualcolorinternal_8h.html" target="_top" xlink:title=" ">
<polygon fill="white" stroke="black" points="809.5,-112.5 809.5,-131.5 948.5,-131.5 948.5,-112.5 809.5,-112.5"/>
<text text-anchor="middle" x="879" y="-119.5" font-family="Helvetica,sans-Serif" font-size="10.00">perceptualcolorinternal.h</text>
</a>
</g>
</g>
<!-- Node1&#45;&gt;Node4 -->
<g id="edge3" class="edge">
<title>Node1&#45;&gt;Node4</title>
<path fill="none" stroke="midnightblue" d="M969.31,-224.37C952.99,-206.05 914.68,-163.05 893.58,-139.36"/>
<polygon fill="midnightblue" stroke="midnightblue" points="895.92,-136.73 886.65,-131.59 890.69,-141.39 895.92,-136.73"/>
</g>
<!-- Node5 -->
<g id="node5" class="node">
<title>Node5</title>
<g id="a_node5"><a xlink:href="rgbcolorspace_8h.html" target="_top" xlink:title=" ">
<polygon fill="white" stroke="black" points="542,-168.5 542,-187.5 636,-187.5 636,-168.5 542,-168.5"/>
<text text-anchor="middle" x="589" y="-175.5" font-family="Helvetica,sans-Serif" font-size="10.00">rgbcolorspace.h</text>
</a>
</g>
</g>
<!-- Node1&#45;&gt;Node5 -->
<g id="edge5" class="edge">
<title>Node1&#45;&gt;Node5</title>
<path fill="none" stroke="midnightblue" d="M930.97,-226.59C859.89,-216.7 723.56,-197.73 646.23,-186.96"/>
<polygon fill="midnightblue" stroke="midnightblue" points="646.57,-183.48 636.18,-185.57 645.6,-190.41 646.57,-183.48"/>
</g>
<!-- Node13 -->
<g id="node13" class="node">
<title>Node13</title>
<g id="a_node13"><a xlink:title=" ">
<polygon fill="white" stroke="#bfbfbf" points="1005,-168.5 1005,-187.5 1055,-187.5 1055,-168.5 1005,-168.5"/>
<text text-anchor="middle" x="1030" y="-175.5" font-family="Helvetica,sans-Serif" font-size="10.00">QColor</text>
</a>
</g>
</g>
<!-- Node1&#45;&gt;Node13 -->
<g id="edge19" class="edge">
<title>Node1&#45;&gt;Node13</title>
<path fill="none" stroke="midnightblue" d="M985.75,-224.08C993.47,-216.22 1004.9,-204.57 1014.22,-195.08"/>
<polygon fill="midnightblue" stroke="midnightblue" points="1016.9,-197.34 1021.41,-187.75 1011.91,-192.44 1016.9,-197.34"/>
</g>
<!-- Node14 -->
<g id="node14" class="node">
<title>Node14</title>
<g id="a_node14"><a xlink:title=" ">
<polygon fill="white" stroke="#bfbfbf" points="1073,-168.5 1073,-187.5 1165,-187.5 1165,-168.5 1073,-168.5"/>
<text text-anchor="middle" x="1119" y="-175.5" font-family="Helvetica,sans-Serif" font-size="10.00">QSharedPointer</text>
</a>
</g>
</g>
<!-- Node1&#45;&gt;Node14 -->
<g id="edge20" class="edge">
<title>Node1&#45;&gt;Node14</title>
<path fill="none" stroke="midnightblue" d="M999.5,-224.44C1023.08,-215.48 1060.32,-201.31 1086.96,-191.18"/>
<polygon fill="midnightblue" stroke="midnightblue" points="1088.5,-194.34 1096.6,-187.52 1086.01,-187.8 1088.5,-194.34"/>
</g>
<!-- Node3 -->
<g id="node3" class="node">
<title>Node3</title>
<g id="a_node3"><a xlink:title=" ">
<polygon fill="white" stroke="#bfbfbf" points="698.5,-0.5 698.5,-19.5 757.5,-19.5 757.5,-0.5 698.5,-0.5"/>
<text text-anchor="middle" x="728" y="-7.5" font-family="Helvetica,sans-Serif" font-size="10.00">QtGlobal</text>
</a>
</g>
</g>
<!-- Node2&#45;&gt;Node3 -->
<g id="edge2" class="edge">
<title>Node2&#45;&gt;Node3</title>
<path fill="none" stroke="midnightblue" d="M728,-56.08C728,-49.01 728,-38.86 728,-29.99"/>
<polygon fill="midnightblue" stroke="midnightblue" points="731.5,-29.75 728,-19.75 724.5,-29.75 731.5,-29.75"/>
</g>
<!-- Node4&#45;&gt;Node2 -->
<g id="edge4" class="edge">
<title>Node4&#45;&gt;Node2</title>
<path fill="none" stroke="midnightblue" d="M855.07,-112.44C829.78,-103.4 789.7,-89.06 761.32,-78.92"/>
<polygon fill="midnightblue" stroke="midnightblue" points="762.41,-75.59 751.81,-75.52 760.05,-82.18 762.41,-75.59"/>
</g>
<!-- Node5&#45;&gt;Node2 -->
<g id="edge6" class="edge">
<title>Node5&#45;&gt;Node2</title>
<path fill="none" stroke="midnightblue" d="M636.05,-171.24C681.83,-164.55 746.67,-151.83 762,-132 773.96,-116.53 759.34,-96.23 745.72,-82.46"/>
<polygon fill="midnightblue" stroke="midnightblue" points="748.1,-79.89 738.43,-75.56 743.29,-84.98 748.1,-79.89"/>
</g>
<!-- Node5&#45;&gt;Node4 -->
<g id="edge7" class="edge">
<title>Node5&#45;&gt;Node4</title>
<path fill="none" stroke="midnightblue" d="M634.95,-168.44C686.07,-158.92 768.65,-143.55 823.38,-133.36"/>
<polygon fill="midnightblue" stroke="midnightblue" points="824.07,-136.79 833.26,-131.52 822.79,-129.91 824.07,-136.79"/>
</g>
<!-- Node6 -->
<g id="node6" class="node">
<title>Node6</title>
<g id="a_node6"><a xlink:title=" ">
<polygon fill="white" stroke="#bfbfbf" points="0,-112.5 0,-131.5 56,-131.5 56,-112.5 0,-112.5"/>
<text text-anchor="middle" x="28" y="-119.5" font-family="Helvetica,sans-Serif" font-size="10.00">QObject</text>
</a>
</g>
</g>
<!-- Node5&#45;&gt;Node6 -->
<g id="edge8" class="edge">
<title>Node5&#45;&gt;Node6</title>
<path fill="none" stroke="midnightblue" d="M541.73,-175.36C451.18,-171.7 246.92,-160.92 66.14,-131.95"/>
<polygon fill="midnightblue" stroke="midnightblue" points="66.62,-128.48 56.19,-130.33 65.5,-135.39 66.62,-128.48"/>
</g>
<!-- Node7 -->
<g id="node7" class="node">
<title>Node7</title>
<g id="a_node7"><a xlink:href="constpropagatinguniquepointer_8h.html" target="_top" xlink:title=" ">
<polygon fill="white" stroke="black" points="147.5,-112.5 147.5,-131.5 404.5,-131.5 404.5,-112.5 147.5,-112.5"/>
<text text-anchor="middle" x="276" y="-119.5" font-family="Helvetica,sans-Serif" font-size="10.00">PerceptualColor/constpropagatinguniquepointer.h</text>
</a>
</g>
</g>
<!-- Node5&#45;&gt;Node7 -->
<g id="edge9" class="edge">
<title>Node5&#45;&gt;Node7</title>
<path fill="none" stroke="midnightblue" d="M541.8,-168.86C486.67,-159.35 395.39,-143.6 335.47,-133.26"/>
<polygon fill="midnightblue" stroke="midnightblue" points="335.84,-129.77 325.39,-131.52 334.65,-136.67 335.84,-129.77"/>
</g>
<!-- Node9 -->
<g id="node9" class="node">
<title>Node9</title>
<g id="a_node9"><a xlink:href="lchadouble_8h.html" target="_top" xlink:title=" ">
<polygon fill="white" stroke="black" points="422.5,-112.5 422.5,-131.5 581.5,-131.5 581.5,-112.5 422.5,-112.5"/>
<text text-anchor="middle" x="502" y="-119.5" font-family="Helvetica,sans-Serif" font-size="10.00">PerceptualColor/lchadouble.h</text>
</a>
</g>
</g>
<!-- Node5&#45;&gt;Node9 -->
<g id="edge12" class="edge">
<title>Node5&#45;&gt;Node9</title>
<path fill="none" stroke="midnightblue" d="M575.02,-168.32C561.45,-159.9 540.62,-146.97 524.68,-137.07"/>
<polygon fill="midnightblue" stroke="midnightblue" points="526.29,-133.95 515.94,-131.65 522.59,-139.9 526.29,-133.95"/>
</g>
<!-- Node11 -->
<g id="node11" class="node">
<title>Node11</title>
<g id="a_node11"><a xlink:href="lchdouble_8h.html" target="_top" xlink:title=" ">
<polygon fill="white" stroke="black" points="599.5,-112.5 599.5,-131.5 752.5,-131.5 752.5,-112.5 599.5,-112.5"/>
<text text-anchor="middle" x="676" y="-119.5" font-family="Helvetica,sans-Serif" font-size="10.00">PerceptualColor/lchdouble.h</text>
</a>
</g>
</g>
<!-- Node5&#45;&gt;Node11 -->
<g id="edge15" class="edge">
<title>Node5&#45;&gt;Node11</title>
<path fill="none" stroke="midnightblue" d="M602.98,-168.32C616.55,-159.9 637.38,-146.97 653.32,-137.07"/>
<polygon fill="midnightblue" stroke="midnightblue" points="655.41,-139.9 662.06,-131.65 651.71,-133.95 655.41,-139.9"/>
</g>
<!-- Node12 -->
<g id="node12" class="node">
<title>Node12</title>
<g id="a_node12"><a xlink:title=" ">
<polygon fill="white" stroke="#bfbfbf" points="74.5,-112.5 74.5,-131.5 129.5,-131.5 129.5,-112.5 74.5,-112.5"/>
<text text-anchor="middle" x="102" y="-119.5" font-family="Helvetica,sans-Serif" font-size="10.00">lcms2.h</text>
</a>
</g>
</g>
<!-- Node5&#45;&gt;Node12 -->
<g id="edge18" class="edge">
<title>Node5&#45;&gt;Node12</title>
<path fill="none" stroke="midnightblue" d="M541.95,-174.57C461.35,-169.9 291.63,-157.95 139.8,-132.1"/>
<polygon fill="midnightblue" stroke="midnightblue" points="140.27,-128.63 129.82,-130.38 139.08,-135.53 140.27,-128.63"/>
</g>
<!-- Node7&#45;&gt;Node2 -->
<g id="edge10" class="edge">
<title>Node7&#45;&gt;Node2</title>
<path fill="none" stroke="midnightblue" d="M347.62,-112.44C428.95,-102.73 561.37,-86.91 646.57,-76.73"/>
<polygon fill="midnightblue" stroke="midnightblue" points="647.2,-80.18 656.71,-75.52 646.37,-73.23 647.2,-80.18"/>
</g>
<!-- Node8 -->
<g id="node8" class="node">
<title>Node8</title>
<g id="a_node8"><a xlink:title=" ">
<polygon fill="white" stroke="#bfbfbf" points="247,-56.5 247,-75.5 305,-75.5 305,-56.5 247,-56.5"/>
<text text-anchor="middle" x="276" y="-63.5" font-family="Helvetica,sans-Serif" font-size="10.00">memory</text>
</a>
</g>
</g>
<!-- Node7&#45;&gt;Node8 -->
<g id="edge11" class="edge">
<title>Node7&#45;&gt;Node8</title>
<path fill="none" stroke="midnightblue" d="M276,-112.08C276,-105.01 276,-94.86 276,-85.99"/>
<polygon fill="midnightblue" stroke="midnightblue" points="279.5,-85.75 276,-75.75 272.5,-85.75 279.5,-85.75"/>
</g>
<!-- Node9&#45;&gt;Node2 -->
<g id="edge13" class="edge">
<title>Node9&#45;&gt;Node2</title>
<path fill="none" stroke="midnightblue" d="M537.81,-112.44C576.99,-103.08 639.88,-88.06 682.52,-77.87"/>
<polygon fill="midnightblue" stroke="midnightblue" points="683.44,-81.24 692.36,-75.52 681.82,-74.44 683.44,-81.24"/>
</g>
<!-- Node10 -->
<g id="node10" class="node">
<title>Node10</title>
<g id="a_node10"><a xlink:title=" ">
<polygon fill="white" stroke="#bfbfbf" points="485,-56.5 485,-75.5 541,-75.5 541,-56.5 485,-56.5"/>
<text text-anchor="middle" x="513" y="-63.5" font-family="Helvetica,sans-Serif" font-size="10.00">QDebug</text>
</a>
</g>
</g>
<!-- Node9&#45;&gt;Node10 -->
<g id="edge14" class="edge">
<title>Node9&#45;&gt;Node10</title>
<path fill="none" stroke="midnightblue" d="M503.82,-112.08C505.27,-104.93 507.37,-94.64 509.19,-85.69"/>
<polygon fill="midnightblue" stroke="midnightblue" points="512.65,-86.25 511.22,-75.75 505.79,-84.85 512.65,-86.25"/>
</g>
<!-- Node11&#45;&gt;Node2 -->
<g id="edge16" class="edge">
<title>Node11&#45;&gt;Node2</title>
<path fill="none" stroke="midnightblue" d="M684.59,-112.08C692.16,-104.22 703.38,-92.57 712.51,-83.08"/>
<polygon fill="midnightblue" stroke="midnightblue" points="715.16,-85.38 719.57,-75.75 710.12,-80.53 715.16,-85.38"/>
</g>
<!-- Node11&#45;&gt;Node10 -->
<g id="edge17" class="edge">
<title>Node11&#45;&gt;Node10</title>
<path fill="none" stroke="midnightblue" d="M650.17,-112.44C622.75,-103.36 579.22,-88.94 548.57,-78.78"/>
<polygon fill="midnightblue" stroke="midnightblue" points="549.3,-75.34 538.71,-75.52 547.1,-81.98 549.3,-75.34"/>
</g>
</g>
</svg>
