<?xml version="1.0" encoding="UTF-8" standalone="no"?>
<!DOCTYPE svg PUBLIC "-//W3C//DTD SVG 1.1//EN"
 "http://www.w3.org/Graphics/SVG/1.1/DTD/svg11.dtd">
<!-- Generated by graphviz version 2.43.0 (0)
 -->
<!-- Title: src/multispinboxsectionconfiguration_p.h Pages: 1 -->
<svg width="635pt" height="252pt"
 viewBox="0.00 0.00 635.00 252.00" xmlns="http://www.w3.org/2000/svg" xmlns:xlink="http://www.w3.org/1999/xlink">
<g id="graph0" class="graph" transform="scale(1 1) rotate(0) translate(4 248)">
<title>src/multispinboxsectionconfiguration_p.h</title>
<polygon fill="white" stroke="transparent" points="-4,4 -4,-248 631,-248 631,4 -4,4"/>
<!-- Node1 -->
<g id="node1" class="node">
<title>Node1</title>
<g id="a_node1"><a xlink:title=" ">
<polygon fill="#bfbfbf" stroke="black" points="0,-224.5 0,-243.5 217,-243.5 217,-224.5 0,-224.5"/>
<text text-anchor="middle" x="108.5" y="-231.5" font-family="Helvetica,sans-Serif" font-size="10.00">src/multispinboxsectionconfiguration_p.h</text>
</a>
</g>
</g>
<!-- Node2 -->
<g id="node2" class="node">
<title>Node2</title>
<g id="a_node2"><a xlink:href="perceptualcolorglobal_8h.html" target="_top" xlink:title=" ">
<polygon fill="white" stroke="black" points="36.5,-56.5 36.5,-75.5 248.5,-75.5 248.5,-56.5 36.5,-56.5"/>
<text text-anchor="middle" x="142.5" y="-63.5" font-family="Helvetica,sans-Serif" font-size="10.00">PerceptualColor/perceptualcolorglobal.h</text>
</a>
</g>
</g>
<!-- Node1&#45;&gt;Node2 -->
<g id="edge1" class="edge">
<title>Node1&#45;&gt;Node2</title>
<path fill="none" stroke="midnightblue" d="M81.11,-224.34C53.81,-214.02 17.53,-194.75 29.5,-168 47.46,-127.86 90.12,-97.09 117.58,-80.56"/>
<polygon fill="midnightblue" stroke="midnightblue" points="119.38,-83.56 126.26,-75.5 115.86,-77.51 119.38,-83.56"/>
</g>
<!-- Node4 -->
<g id="node4" class="node">
<title>Node4</title>
<g id="a_node4"><a xlink:href="perceptualcolorinternal_8h.html" target="_top" xlink:title=" ">
<polygon fill="white" stroke="black" points="39,-168.5 39,-187.5 178,-187.5 178,-168.5 39,-168.5"/>
<text text-anchor="middle" x="108.5" y="-175.5" font-family="Helvetica,sans-Serif" font-size="10.00">perceptualcolorinternal.h</text>
</a>
</g>
</g>
<!-- Node1&#45;&gt;Node4 -->
<g id="edge3" class="edge">
<title>Node1&#45;&gt;Node4</title>
<path fill="none" stroke="midnightblue" d="M108.5,-224.08C108.5,-217.01 108.5,-206.86 108.5,-197.99"/>
<polygon fill="midnightblue" stroke="midnightblue" points="112,-197.75 108.5,-187.75 105,-197.75 112,-197.75"/>
</g>
<!-- Node5 -->
<g id="node5" class="node">
<title>Node5</title>
<g id="a_node5"><a xlink:href="multispinboxsectionconfiguration_8h.html" target="_top" xlink:title=" ">
<polygon fill="white" stroke="black" points="196,-168.5 196,-187.5 465,-187.5 465,-168.5 196,-168.5"/>
<text text-anchor="middle" x="330.5" y="-175.5" font-family="Helvetica,sans-Serif" font-size="10.00">PerceptualColor/multispinboxsectionconfiguration.h</text>
</a>
</g>
</g>
<!-- Node1&#45;&gt;Node5 -->
<g id="edge5" class="edge">
<title>Node1&#45;&gt;Node5</title>
<path fill="none" stroke="midnightblue" d="M143.68,-224.44C182.08,-215.1 243.68,-200.12 285.56,-189.93"/>
<polygon fill="midnightblue" stroke="midnightblue" points="286.6,-193.28 295.49,-187.52 284.94,-186.48 286.6,-193.28"/>
</g>
<!-- Node3 -->
<g id="node3" class="node">
<title>Node3</title>
<g id="a_node3"><a xlink:title=" ">
<polygon fill="white" stroke="#bfbfbf" points="113,-0.5 113,-19.5 172,-19.5 172,-0.5 113,-0.5"/>
<text text-anchor="middle" x="142.5" y="-7.5" font-family="Helvetica,sans-Serif" font-size="10.00">QtGlobal</text>
</a>
</g>
</g>
<!-- Node2&#45;&gt;Node3 -->
<g id="edge2" class="edge">
<title>Node2&#45;&gt;Node3</title>
<path fill="none" stroke="midnightblue" d="M142.5,-56.08C142.5,-49.01 142.5,-38.86 142.5,-29.99"/>
<polygon fill="midnightblue" stroke="midnightblue" points="146,-29.75 142.5,-19.75 139,-29.75 146,-29.75"/>
</g>
<!-- Node4&#45;&gt;Node2 -->
<g id="edge4" class="edge">
<title>Node4&#45;&gt;Node2</title>
<path fill="none" stroke="midnightblue" d="M111.17,-168.37C116.68,-150.54 129.43,-109.3 136.85,-85.27"/>
<polygon fill="midnightblue" stroke="midnightblue" points="140.24,-86.18 139.84,-75.59 133.55,-84.11 140.24,-86.18"/>
</g>
<!-- Node5&#45;&gt;Node2 -->
<g id="edge6" class="edge">
<title>Node5&#45;&gt;Node2</title>
<path fill="none" stroke="midnightblue" d="M289.4,-168.48C262.53,-161.59 227.53,-150.01 200.5,-132 181.5,-119.34 164.74,-99.01 154.19,-84.46"/>
<polygon fill="midnightblue" stroke="midnightblue" points="156.78,-82.06 148.19,-75.87 151.05,-86.07 156.78,-82.06"/>
</g>
<!-- Node6 -->
<g id="node6" class="node">
<title>Node6</title>
<g id="a_node6"><a xlink:title=" ">
<polygon fill="white" stroke="#bfbfbf" points="210,-112.5 210,-131.5 281,-131.5 281,-112.5 210,-112.5"/>
<text text-anchor="middle" x="245.5" y="-119.5" font-family="Helvetica,sans-Serif" font-size="10.00">QMetaType</text>
</a>
</g>
</g>
<!-- Node5&#45;&gt;Node6 -->
<g id="edge7" class="edge">
<title>Node5&#45;&gt;Node6</title>
<path fill="none" stroke="midnightblue" d="M316.84,-168.32C303.58,-159.9 283.23,-146.97 267.65,-137.07"/>
<polygon fill="midnightblue" stroke="midnightblue" points="269.44,-134.06 259.12,-131.65 265.69,-139.97 269.44,-134.06"/>
</g>
<!-- Node7 -->
<g id="node7" class="node">
<title>Node7</title>
<g id="a_node7"><a xlink:title=" ">
<polygon fill="white" stroke="#bfbfbf" points="299,-112.5 299,-131.5 352,-131.5 352,-112.5 299,-112.5"/>
<text text-anchor="middle" x="325.5" y="-119.5" font-family="Helvetica,sans-Serif" font-size="10.00">QString</text>
</a>
</g>
</g>
<!-- Node5&#45;&gt;Node7 -->
<g id="edge8" class="edge">
<title>Node5&#45;&gt;Node7</title>
<path fill="none" stroke="midnightblue" d="M329.67,-168.08C329.02,-161.01 328.08,-150.86 327.26,-141.99"/>
<polygon fill="midnightblue" stroke="midnightblue" points="330.72,-141.39 326.31,-131.75 323.75,-142.03 330.72,-141.39"/>
</g>
<!-- Node8 -->
<g id="node8" class="node">
<title>Node8</title>
<g id="a_node8"><a xlink:href="constpropagatinguniquepointer_8h.html" target="_top" xlink:title=" ">
<polygon fill="white" stroke="black" points="370,-112.5 370,-131.5 627,-131.5 627,-112.5 370,-112.5"/>
<text text-anchor="middle" x="498.5" y="-119.5" font-family="Helvetica,sans-Serif" font-size="10.00">PerceptualColor/constpropagatinguniquepointer.h</text>
</a>
</g>
</g>
<!-- Node5&#45;&gt;Node8 -->
<g id="edge9" class="edge">
<title>Node5&#45;&gt;Node8</title>
<path fill="none" stroke="midnightblue" d="M357.12,-168.44C385.51,-159.32 430.64,-144.81 462.25,-134.65"/>
<polygon fill="midnightblue" stroke="midnightblue" points="463.56,-137.91 472,-131.52 461.41,-131.24 463.56,-137.91"/>
</g>
<!-- Node8&#45;&gt;Node2 -->
<g id="edge10" class="edge">
<title>Node8&#45;&gt;Node2</title>
<path fill="none" stroke="midnightblue" d="M442.09,-112.44C378.69,-102.83 275.85,-87.23 208.7,-77.04"/>
<polygon fill="midnightblue" stroke="midnightblue" points="209.06,-73.56 198.65,-75.52 208.01,-80.48 209.06,-73.56"/>
</g>
<!-- Node9 -->
<g id="node9" class="node">
<title>Node9</title>
<g id="a_node9"><a xlink:title=" ">
<polygon fill="white" stroke="#bfbfbf" points="469.5,-56.5 469.5,-75.5 527.5,-75.5 527.5,-56.5 469.5,-56.5"/>
<text text-anchor="middle" x="498.5" y="-63.5" font-family="Helvetica,sans-Serif" font-size="10.00">memory</text>
</a>
</g>
</g>
<!-- Node8&#45;&gt;Node9 -->
<g id="edge11" class="edge">
<title>Node8&#45;&gt;Node9</title>
<path fill="none" stroke="midnightblue" d="M498.5,-112.08C498.5,-105.01 498.5,-94.86 498.5,-85.99"/>
<polygon fill="midnightblue" stroke="midnightblue" points="502,-85.75 498.5,-75.75 495,-85.75 502,-85.75"/>
</g>
</g>
</svg>
