<?xml version="1.0" encoding="UTF-8" standalone="no"?>
<!DOCTYPE svg PUBLIC "-//W3C//DTD SVG 1.1//EN"
 "http://www.w3.org/Graphics/SVG/1.1/DTD/svg11.dtd">
<!-- Generated by graphviz version 2.43.0 (0)
 -->
<!-- Title: src/multispinbox.cpp Pages: 1 -->
<svg width="1541pt" height="364pt"
 viewBox="0.00 0.00 1541.21 364.00" xmlns="http://www.w3.org/2000/svg" xmlns:xlink="http://www.w3.org/1999/xlink">
<g id="graph0" class="graph" transform="scale(1 1) rotate(0) translate(4 360)">
<title>src/multispinbox.cpp</title>
<polygon fill="white" stroke="transparent" points="-4,4 -4,-360 1537.21,-360 1537.21,4 -4,4"/>
<!-- Node1 -->
<g id="node1" class="node">
<title>Node1</title>
<g id="a_node1"><a xlink:title=" ">
<polygon fill="#bfbfbf" stroke="black" points="1023.71,-336.5 1023.71,-355.5 1141.71,-355.5 1141.71,-336.5 1023.71,-336.5"/>
<text text-anchor="middle" x="1082.71" y="-343.5" font-family="Helvetica,sans-Serif" font-size="10.00">src/multispinbox.cpp</text>
</a>
</g>
</g>
<!-- Node2 -->
<g id="node2" class="node">
<title>Node2</title>
<g id="a_node2"><a xlink:href="perceptualcolorglobal_8h.html" target="_top" xlink:title=" ">
<polygon fill="white" stroke="black" points="581.71,-56.5 581.71,-75.5 793.71,-75.5 793.71,-56.5 581.71,-56.5"/>
<text text-anchor="middle" x="687.71" y="-63.5" font-family="Helvetica,sans-Serif" font-size="10.00">PerceptualColor/perceptualcolorglobal.h</text>
</a>
</g>
</g>
<!-- Node1&#45;&gt;Node2 -->
<g id="edge1" class="edge">
<title>Node1&#45;&gt;Node2</title>
<path fill="none" stroke="midnightblue" d="M1023.55,-337.57C964.89,-326.51 883.71,-299.54 883.71,-235 883.71,-235 883.71,-235 883.71,-177 883.71,-143.54 872.16,-132.51 845.71,-112 823.83,-95.03 795.82,-84.46 769.47,-77.87"/>
<polygon fill="midnightblue" stroke="midnightblue" points="770.01,-74.41 759.47,-75.54 768.42,-81.22 770.01,-74.41"/>
</g>
<!-- Node4 -->
<g id="node4" class="node">
<title>Node4</title>
<g id="a_node4"><a xlink:href="perceptualcolorinternal_8h.html" target="_top" xlink:title=" ">
<polygon fill="white" stroke="black" points="482.21,-112.5 482.21,-131.5 621.21,-131.5 621.21,-112.5 482.21,-112.5"/>
<text text-anchor="middle" x="551.71" y="-119.5" font-family="Helvetica,sans-Serif" font-size="10.00">perceptualcolorinternal.h</text>
</a>
</g>
</g>
<!-- Node1&#45;&gt;Node4 -->
<g id="edge3" class="edge">
<title>Node1&#45;&gt;Node4</title>
<path fill="none" stroke="midnightblue" d="M1023.64,-342.31C891.98,-335.14 579.96,-311.32 502.71,-244 475.46,-220.25 455.63,-199.31 473.71,-168 482.39,-152.98 498.2,-142.52 513.33,-135.5"/>
<polygon fill="midnightblue" stroke="midnightblue" points="514.76,-138.69 522.59,-131.56 512.02,-132.25 514.76,-138.69"/>
</g>
<!-- Node5 -->
<g id="node5" class="node">
<title>Node5</title>
<g id="a_node5"><a xlink:href="multispinbox_8h.html" target="_top" xlink:title=" ">
<polygon fill="white" stroke="black" points="913.71,-224.5 913.71,-243.5 1083.71,-243.5 1083.71,-224.5 913.71,-224.5"/>
<text text-anchor="middle" x="998.71" y="-231.5" font-family="Helvetica,sans-Serif" font-size="10.00">PerceptualColor/multispinbox.h</text>
</a>
</g>
</g>
<!-- Node1&#45;&gt;Node5 -->
<g id="edge5" class="edge">
<title>Node1&#45;&gt;Node5</title>
<path fill="none" stroke="midnightblue" d="M1076.12,-336.37C1062.2,-318.14 1029.58,-275.43 1011.45,-251.68"/>
<polygon fill="midnightblue" stroke="midnightblue" points="1014.13,-249.41 1005.27,-243.59 1008.56,-253.66 1014.13,-249.41"/>
</g>
<!-- Node7 -->
<g id="node7" class="node">
<title>Node7</title>
<g id="a_node7"><a xlink:title=" ">
<polygon fill="white" stroke="#bfbfbf" points="1397.21,-168.5 1397.21,-187.5 1452.21,-187.5 1452.21,-168.5 1397.21,-168.5"/>
<text text-anchor="middle" x="1424.71" y="-175.5" font-family="Helvetica,sans-Serif" font-size="10.00">QAction</text>
</a>
</g>
</g>
<!-- Node1&#45;&gt;Node7 -->
<g id="edge43" class="edge">
<title>Node1&#45;&gt;Node7</title>
<path fill="none" stroke="midnightblue" d="M1083.68,-336.23C1086.7,-313.51 1098.09,-252.58 1135.71,-224 1178.73,-191.33 1318.39,-198.1 1386.9,-187.97"/>
<polygon fill="midnightblue" stroke="midnightblue" points="1387.6,-191.4 1396.87,-186.26 1386.42,-184.5 1387.6,-191.4"/>
</g>
<!-- Node8 -->
<g id="node8" class="node">
<title>Node8</title>
<g id="a_node8"><a xlink:title=" ">
<polygon fill="white" stroke="#bfbfbf" points="1470.21,-168.5 1470.21,-187.5 1533.21,-187.5 1533.21,-168.5 1470.21,-168.5"/>
<text text-anchor="middle" x="1501.71" y="-175.5" font-family="Helvetica,sans-Serif" font-size="10.00">QLineEdit</text>
</a>
</g>
</g>
<!-- Node1&#45;&gt;Node8 -->
<g id="edge45" class="edge">
<title>Node1&#45;&gt;Node8</title>
<path fill="none" stroke="midnightblue" d="M1092.14,-336.18C1107.36,-322.39 1138.76,-295.66 1169.71,-280 1221.48,-253.8 1383.28,-209.85 1460.24,-189.69"/>
<polygon fill="midnightblue" stroke="midnightblue" points="1461.28,-193.04 1470.07,-187.13 1459.51,-186.27 1461.28,-193.04"/>
</g>
<!-- Node14 -->
<g id="node14" class="node">
<title>Node14</title>
<g id="a_node14"><a xlink:href="multispinbox__p_8h.html" target="_top" xlink:title=" ">
<polygon fill="white" stroke="black" points="669.21,-280.5 669.21,-299.5 770.21,-299.5 770.21,-280.5 669.21,-280.5"/>
<text text-anchor="middle" x="719.71" y="-287.5" font-family="Helvetica,sans-Serif" font-size="10.00">multispinbox_p.h</text>
</a>
</g>
</g>
<!-- Node1&#45;&gt;Node14 -->
<g id="edge18" class="edge">
<title>Node1&#45;&gt;Node14</title>
<path fill="none" stroke="midnightblue" d="M1025.19,-336.44C958.36,-326.5 848.55,-310.17 780.39,-300.03"/>
<polygon fill="midnightblue" stroke="midnightblue" points="780.64,-296.53 770.23,-298.52 779.61,-303.45 780.64,-296.53"/>
</g>
<!-- Node18 -->
<g id="node18" class="node">
<title>Node18</title>
<g id="a_node18"><a xlink:href="extendeddoublevalidator_8h.html" target="_top" xlink:title=" ">
<polygon fill="white" stroke="black" points="670.21,-168.5 670.21,-187.5 817.21,-187.5 817.21,-168.5 670.21,-168.5"/>
<text text-anchor="middle" x="743.71" y="-175.5" font-family="Helvetica,sans-Serif" font-size="10.00">extendeddoublevalidator.h</text>
</a>
</g>
</g>
<!-- Node1&#45;&gt;Node18 -->
<g id="edge32" class="edge">
<title>Node1&#45;&gt;Node18</title>
<path fill="none" stroke="midnightblue" d="M1023.7,-341.31C979.2,-336.51 917.82,-325.45 869.71,-300 820.32,-273.86 776.75,-222.66 756.21,-196.02"/>
<polygon fill="midnightblue" stroke="midnightblue" points="758.75,-193.58 749.94,-187.7 753.16,-197.79 758.75,-193.58"/>
</g>
<!-- Node20 -->
<g id="node20" class="node">
<title>Node20</title>
<g id="a_node20"><a xlink:href="helper_8h.html" target="_top" xlink:title="Various smaller help elements.">
<polygon fill="white" stroke="black" points="304.71,-168.5 304.71,-187.5 360.71,-187.5 360.71,-168.5 304.71,-168.5"/>
<text text-anchor="middle" x="332.71" y="-175.5" font-family="Helvetica,sans-Serif" font-size="10.00">helper.h</text>
</a>
</g>
</g>
<!-- Node1&#45;&gt;Node20 -->
<g id="edge33" class="edge">
<title>Node1&#45;&gt;Node20</title>
<path fill="none" stroke="midnightblue" d="M1023.63,-344.08C869.2,-341.25 461.8,-330.9 409.71,-300 370.58,-276.78 348.08,-225.06 338.41,-197.35"/>
<polygon fill="midnightblue" stroke="midnightblue" points="341.68,-196.11 335.22,-187.71 335.04,-198.3 341.68,-196.11"/>
</g>
<!-- Node26 -->
<g id="node26" class="node">
<title>Node26</title>
<g id="a_node26"><a xlink:title=" ">
<polygon fill="white" stroke="#bfbfbf" points="1178.21,-280.5 1178.21,-299.5 1257.21,-299.5 1257.21,-280.5 1178.21,-280.5"/>
<text text-anchor="middle" x="1217.71" y="-287.5" font-family="Helvetica,sans-Serif" font-size="10.00">QApplication</text>
</a>
</g>
</g>
<!-- Node1&#45;&gt;Node26 -->
<g id="edge44" class="edge">
<title>Node1&#45;&gt;Node26</title>
<path fill="none" stroke="midnightblue" d="M1104.1,-336.44C1126.42,-327.52 1161.62,-313.44 1186.92,-303.32"/>
<polygon fill="midnightblue" stroke="midnightblue" points="1188.44,-306.48 1196.42,-299.52 1185.84,-299.98 1188.44,-306.48"/>
</g>
<!-- Node27 -->
<g id="node27" class="node">
<title>Node27</title>
<g id="a_node27"><a xlink:title=" ">
<polygon fill="white" stroke="#bfbfbf" points="1275.21,-280.5 1275.21,-299.5 1324.21,-299.5 1324.21,-280.5 1275.21,-280.5"/>
<text text-anchor="middle" x="1299.71" y="-287.5" font-family="Helvetica,sans-Serif" font-size="10.00">QStyle</text>
</a>
</g>
</g>
<!-- Node1&#45;&gt;Node27 -->
<g id="edge46" class="edge">
<title>Node1&#45;&gt;Node27</title>
<path fill="none" stroke="midnightblue" d="M1118.75,-336.48C1153.86,-328.12 1209.01,-314.81 1265.12,-300.37"/>
<polygon fill="midnightblue" stroke="midnightblue" points="1266.06,-303.74 1274.87,-297.85 1264.31,-296.96 1266.06,-303.74"/>
</g>
<!-- Node28 -->
<g id="node28" class="node">
<title>Node28</title>
<g id="a_node28"><a xlink:title=" ">
<polygon fill="white" stroke="#bfbfbf" points="1342.21,-280.5 1342.21,-299.5 1423.21,-299.5 1423.21,-280.5 1342.21,-280.5"/>
<text text-anchor="middle" x="1382.71" y="-287.5" font-family="Helvetica,sans-Serif" font-size="10.00">QStyleOption</text>
</a>
</g>
</g>
<!-- Node1&#45;&gt;Node28 -->
<g id="edge47" class="edge">
<title>Node1&#45;&gt;Node28</title>
<path fill="none" stroke="midnightblue" d="M1130.84,-336.43C1179.21,-327.81 1256.18,-314.05 1331.89,-300.33"/>
<polygon fill="midnightblue" stroke="midnightblue" points="1332.86,-303.71 1342.07,-298.48 1331.61,-296.82 1332.86,-303.71"/>
</g>
<!-- Node29 -->
<g id="node29" class="node">
<title>Node29</title>
<g id="a_node29"><a xlink:title=" ">
<polygon fill="white" stroke="#bfbfbf" points="1441.21,-280.5 1441.21,-299.5 1494.21,-299.5 1494.21,-280.5 1441.21,-280.5"/>
<text text-anchor="middle" x="1467.71" y="-287.5" font-family="Helvetica,sans-Serif" font-size="10.00">QtMath</text>
</a>
</g>
</g>
<!-- Node1&#45;&gt;Node29 -->
<g id="edge48" class="edge">
<title>Node1&#45;&gt;Node29</title>
<path fill="none" stroke="midnightblue" d="M1141.9,-339.65C1209.67,-333.01 1324.14,-320.27 1431.05,-300.13"/>
<polygon fill="midnightblue" stroke="midnightblue" points="1431.87,-303.54 1441.04,-298.22 1430.56,-296.66 1431.87,-303.54"/>
</g>
<!-- Node3 -->
<g id="node3" class="node">
<title>Node3</title>
<g id="a_node3"><a xlink:title=" ">
<polygon fill="white" stroke="#bfbfbf" points="312.21,-0.5 312.21,-19.5 371.21,-19.5 371.21,-0.5 312.21,-0.5"/>
<text text-anchor="middle" x="341.71" y="-7.5" font-family="Helvetica,sans-Serif" font-size="10.00">QtGlobal</text>
</a>
</g>
</g>
<!-- Node2&#45;&gt;Node3 -->
<g id="edge2" class="edge">
<title>Node2&#45;&gt;Node3</title>
<path fill="none" stroke="midnightblue" d="M632.89,-56.44C562.82,-45.51 443.2,-26.84 381.35,-17.19"/>
<polygon fill="midnightblue" stroke="midnightblue" points="381.64,-13.69 371.22,-15.6 380.56,-20.61 381.64,-13.69"/>
</g>
<!-- Node4&#45;&gt;Node2 -->
<g id="edge4" class="edge">
<title>Node4&#45;&gt;Node2</title>
<path fill="none" stroke="midnightblue" d="M573.26,-112.44C595.74,-103.52 631.2,-89.44 656.69,-79.32"/>
<polygon fill="midnightblue" stroke="midnightblue" points="658.26,-82.46 666.26,-75.52 655.68,-75.95 658.26,-82.46"/>
</g>
<!-- Node5&#45;&gt;Node2 -->
<g id="edge6" class="edge">
<title>Node5&#45;&gt;Node2</title>
<path fill="none" stroke="midnightblue" d="M984.54,-224.33C971.93,-216.12 953.55,-202.85 940.71,-188 915.33,-158.64 928.99,-134.97 897.71,-112 870.68,-92.15 836.72,-80.69 804.04,-74.18"/>
<polygon fill="midnightblue" stroke="midnightblue" points="804.42,-70.69 793.95,-72.31 803.15,-77.57 804.42,-70.69"/>
</g>
<!-- Node6 -->
<g id="node6" class="node">
<title>Node6</title>
<g id="a_node6"><a xlink:title=" ">
<polygon fill="white" stroke="#bfbfbf" points="949.71,-168.5 949.71,-187.5 1053.71,-187.5 1053.71,-168.5 949.71,-168.5"/>
<text text-anchor="middle" x="1001.71" y="-175.5" font-family="Helvetica,sans-Serif" font-size="10.00">QAbstractSpinBox</text>
</a>
</g>
</g>
<!-- Node5&#45;&gt;Node6 -->
<g id="edge7" class="edge">
<title>Node5&#45;&gt;Node6</title>
<path fill="none" stroke="midnightblue" d="M999.21,-224.08C999.6,-217.01 1000.17,-206.86 1000.66,-197.99"/>
<polygon fill="midnightblue" stroke="midnightblue" points="1004.17,-197.93 1001.23,-187.75 997.18,-197.54 1004.17,-197.93"/>
</g>
<!-- Node5&#45;&gt;Node7 -->
<g id="edge8" class="edge">
<title>Node5&#45;&gt;Node7</title>
<path fill="none" stroke="midnightblue" d="M1084.02,-224.47C1175.96,-215.05 1317.47,-199.87 1386.79,-188.12"/>
<polygon fill="midnightblue" stroke="midnightblue" points="1387.64,-191.52 1396.88,-186.34 1386.43,-184.63 1387.64,-191.52"/>
</g>
<!-- Node5&#45;&gt;Node8 -->
<g id="edge9" class="edge">
<title>Node5&#45;&gt;Node8</title>
<path fill="none" stroke="midnightblue" d="M1084.09,-225.98C1192.84,-216.83 1375.85,-200.67 1459.92,-188.09"/>
<polygon fill="midnightblue" stroke="midnightblue" points="1460.56,-191.53 1469.91,-186.53 1459.49,-184.61 1460.56,-191.53"/>
</g>
<!-- Node9 -->
<g id="node9" class="node">
<title>Node9</title>
<g id="a_node9"><a xlink:href="constpropagatinguniquepointer_8h.html" target="_top" xlink:title=" ">
<polygon fill="white" stroke="black" points="950.21,-112.5 950.21,-131.5 1207.21,-131.5 1207.21,-112.5 950.21,-112.5"/>
<text text-anchor="middle" x="1078.71" y="-119.5" font-family="Helvetica,sans-Serif" font-size="10.00">PerceptualColor/constpropagatinguniquepointer.h</text>
</a>
</g>
</g>
<!-- Node5&#45;&gt;Node9 -->
<g id="edge10" class="edge">
<title>Node5&#45;&gt;Node9</title>
<path fill="none" stroke="midnightblue" d="M1017.51,-224.44C1032.02,-216.87 1051.44,-204.48 1062.71,-188 1072.04,-174.36 1075.94,-155.82 1077.57,-142.03"/>
<polygon fill="midnightblue" stroke="midnightblue" points="1081.08,-142.04 1078.47,-131.78 1074.11,-141.43 1081.08,-142.04"/>
</g>
<!-- Node11 -->
<g id="node11" class="node">
<title>Node11</title>
<g id="a_node11"><a xlink:href="multispinboxsectionconfiguration_8h.html" target="_top" xlink:title=" ">
<polygon fill="white" stroke="black" points="1110.21,-168.5 1110.21,-187.5 1379.21,-187.5 1379.21,-168.5 1110.21,-168.5"/>
<text text-anchor="middle" x="1244.71" y="-175.5" font-family="Helvetica,sans-Serif" font-size="10.00">PerceptualColor/multispinboxsectionconfiguration.h</text>
</a>
</g>
</g>
<!-- Node5&#45;&gt;Node11 -->
<g id="edge13" class="edge">
<title>Node5&#45;&gt;Node11</title>
<path fill="none" stroke="midnightblue" d="M1037.69,-224.44C1080.61,-215.02 1149.66,-199.87 1196.08,-189.68"/>
<polygon fill="midnightblue" stroke="midnightblue" points="1196.9,-193.08 1205.92,-187.52 1195.4,-186.24 1196.9,-193.08"/>
</g>
<!-- Node9&#45;&gt;Node2 -->
<g id="edge11" class="edge">
<title>Node9&#45;&gt;Node2</title>
<path fill="none" stroke="midnightblue" d="M1016.76,-112.44C946.83,-102.79 833.25,-87.1 759.51,-76.92"/>
<polygon fill="midnightblue" stroke="midnightblue" points="759.76,-73.42 749.38,-75.52 758.81,-80.35 759.76,-73.42"/>
</g>
<!-- Node10 -->
<g id="node10" class="node">
<title>Node10</title>
<g id="a_node10"><a xlink:title=" ">
<polygon fill="white" stroke="#bfbfbf" points="1049.71,-56.5 1049.71,-75.5 1107.71,-75.5 1107.71,-56.5 1049.71,-56.5"/>
<text text-anchor="middle" x="1078.71" y="-63.5" font-family="Helvetica,sans-Serif" font-size="10.00">memory</text>
</a>
</g>
</g>
<!-- Node9&#45;&gt;Node10 -->
<g id="edge12" class="edge">
<title>Node9&#45;&gt;Node10</title>
<path fill="none" stroke="midnightblue" d="M1078.71,-112.08C1078.71,-105.01 1078.71,-94.86 1078.71,-85.99"/>
<polygon fill="midnightblue" stroke="midnightblue" points="1082.21,-85.75 1078.71,-75.75 1075.21,-85.75 1082.21,-85.75"/>
</g>
<!-- Node11&#45;&gt;Node2 -->
<g id="edge14" class="edge">
<title>Node11&#45;&gt;Node2</title>
<path fill="none" stroke="midnightblue" d="M1243.74,-168.08C1241.63,-153.62 1235.25,-125.36 1216.71,-112 1184.06,-88.47 949.66,-76.1 804.05,-70.61"/>
<polygon fill="midnightblue" stroke="midnightblue" points="803.84,-67.1 793.72,-70.23 803.58,-74.1 803.84,-67.1"/>
</g>
<!-- Node11&#45;&gt;Node9 -->
<g id="edge17" class="edge">
<title>Node11&#45;&gt;Node9</title>
<path fill="none" stroke="midnightblue" d="M1218.41,-168.44C1190.36,-159.32 1145.77,-144.81 1114.53,-134.65"/>
<polygon fill="midnightblue" stroke="midnightblue" points="1115.49,-131.28 1104.89,-131.52 1113.32,-137.94 1115.49,-131.28"/>
</g>
<!-- Node12 -->
<g id="node12" class="node">
<title>Node12</title>
<g id="a_node12"><a xlink:title=" ">
<polygon fill="white" stroke="#bfbfbf" points="1264.21,-112.5 1264.21,-131.5 1335.21,-131.5 1335.21,-112.5 1264.21,-112.5"/>
<text text-anchor="middle" x="1299.71" y="-119.5" font-family="Helvetica,sans-Serif" font-size="10.00">QMetaType</text>
</a>
</g>
</g>
<!-- Node11&#45;&gt;Node12 -->
<g id="edge15" class="edge">
<title>Node11&#45;&gt;Node12</title>
<path fill="none" stroke="midnightblue" d="M1253.8,-168.08C1261.88,-160.14 1273.91,-148.34 1283.62,-138.8"/>
<polygon fill="midnightblue" stroke="midnightblue" points="1286.12,-141.25 1290.8,-131.75 1281.21,-136.26 1286.12,-141.25"/>
</g>
<!-- Node13 -->
<g id="node13" class="node">
<title>Node13</title>
<g id="a_node13"><a xlink:title=" ">
<polygon fill="white" stroke="#bfbfbf" points="1353.21,-112.5 1353.21,-131.5 1406.21,-131.5 1406.21,-112.5 1353.21,-112.5"/>
<text text-anchor="middle" x="1379.71" y="-119.5" font-family="Helvetica,sans-Serif" font-size="10.00">QString</text>
</a>
</g>
</g>
<!-- Node11&#45;&gt;Node13 -->
<g id="edge16" class="edge">
<title>Node11&#45;&gt;Node13</title>
<path fill="none" stroke="midnightblue" d="M1266.1,-168.44C1288.42,-159.52 1323.62,-145.44 1348.92,-135.32"/>
<polygon fill="midnightblue" stroke="midnightblue" points="1350.44,-138.48 1358.42,-131.52 1347.84,-131.98 1350.44,-138.48"/>
</g>
<!-- Node14&#45;&gt;Node2 -->
<g id="edge19" class="edge">
<title>Node14&#45;&gt;Node2</title>
<path fill="none" stroke="midnightblue" d="M735.12,-280.26C759.94,-265.18 807.9,-231.63 826.71,-188 840.09,-156.98 846.58,-139.32 826.71,-112 814.97,-95.86 797.31,-85.38 778.48,-78.62"/>
<polygon fill="midnightblue" stroke="midnightblue" points="779.45,-75.26 768.86,-75.51 777.29,-81.92 779.45,-75.26"/>
</g>
<!-- Node14&#45;&gt;Node4 -->
<g id="edge20" class="edge">
<title>Node14&#45;&gt;Node4</title>
<path fill="none" stroke="midnightblue" d="M669.14,-286.7C608.13,-280.72 510.08,-259.82 480.71,-188 477.35,-179.77 476.43,-175.79 480.71,-168 488.6,-153.66 503.2,-143.25 517.12,-136.08"/>
<polygon fill="midnightblue" stroke="midnightblue" points="519.01,-139.06 526.55,-131.62 516.02,-132.73 519.01,-139.06"/>
</g>
<!-- Node14&#45;&gt;Node5 -->
<g id="edge21" class="edge">
<title>Node14&#45;&gt;Node5</title>
<path fill="none" stroke="midnightblue" d="M763.92,-280.44C813,-270.94 892.22,-255.61 944.88,-245.42"/>
<polygon fill="midnightblue" stroke="midnightblue" points="945.56,-248.85 954.71,-243.52 944.23,-241.98 945.56,-248.85"/>
</g>
<!-- Node15 -->
<g id="node15" class="node">
<title>Node15</title>
<g id="a_node15"><a xlink:title=" ">
<polygon fill="white" stroke="#bfbfbf" points="553.71,-224.5 553.71,-243.5 663.71,-243.5 663.71,-224.5 553.71,-224.5"/>
<text text-anchor="middle" x="608.71" y="-231.5" font-family="Helvetica,sans-Serif" font-size="10.00">QAccessibleWidget</text>
</a>
</g>
</g>
<!-- Node14&#45;&gt;Node15 -->
<g id="edge22" class="edge">
<title>Node14&#45;&gt;Node15</title>
<path fill="none" stroke="midnightblue" d="M701.88,-280.32C684,-271.62 656.24,-258.12 635.67,-248.11"/>
<polygon fill="midnightblue" stroke="midnightblue" points="637.03,-244.88 626.5,-243.65 633.96,-251.18 637.03,-244.88"/>
</g>
<!-- Node16 -->
<g id="node16" class="node">
<title>Node16</title>
<g id="a_node16"><a xlink:title=" ">
<polygon fill="white" stroke="#bfbfbf" points="682.21,-224.5 682.21,-243.5 741.21,-243.5 741.21,-224.5 682.21,-224.5"/>
<text text-anchor="middle" x="711.71" y="-231.5" font-family="Helvetica,sans-Serif" font-size="10.00">QPointer</text>
</a>
</g>
</g>
<!-- Node14&#45;&gt;Node16 -->
<g id="edge23" class="edge">
<title>Node14&#45;&gt;Node16</title>
<path fill="none" stroke="midnightblue" d="M718.39,-280.08C717.33,-272.93 715.81,-262.64 714.48,-253.69"/>
<polygon fill="midnightblue" stroke="midnightblue" points="717.94,-253.13 713.01,-243.75 711.01,-254.16 717.94,-253.13"/>
</g>
<!-- Node17 -->
<g id="node17" class="node">
<title>Node17</title>
<g id="a_node17"><a xlink:href="constpropagatingrawpointer_8h.html" target="_top" xlink:title=" ">
<polygon fill="white" stroke="black" points="489.71,-168.5 489.71,-187.5 651.71,-187.5 651.71,-168.5 489.71,-168.5"/>
<text text-anchor="middle" x="570.71" y="-175.5" font-family="Helvetica,sans-Serif" font-size="10.00">constpropagatingrawpointer.h</text>
</a>
</g>
</g>
<!-- Node14&#45;&gt;Node17 -->
<g id="edge24" class="edge">
<title>Node14&#45;&gt;Node17</title>
<path fill="none" stroke="midnightblue" d="M669.09,-282.88C623,-276.14 559.9,-263.58 544.71,-244 533.49,-229.52 544.49,-209.56 555.44,-195.59"/>
<polygon fill="midnightblue" stroke="midnightblue" points="558.27,-197.67 562.05,-187.77 552.93,-193.15 558.27,-197.67"/>
</g>
<!-- Node14&#45;&gt;Node18 -->
<g id="edge27" class="edge">
<title>Node14&#45;&gt;Node18</title>
<path fill="none" stroke="midnightblue" d="M728.2,-280.23C735.77,-271.75 746.32,-258.13 750.71,-244 755.45,-228.76 752.87,-210.65 749.59,-197.42"/>
<polygon fill="midnightblue" stroke="midnightblue" points="752.9,-196.29 746.8,-187.63 746.17,-198.2 752.9,-196.29"/>
</g>
<!-- Node17&#45;&gt;Node2 -->
<g id="edge25" class="edge">
<title>Node17&#45;&gt;Node2</title>
<path fill="none" stroke="midnightblue" d="M583.72,-168.41C596.3,-159.85 615.62,-145.98 630.71,-132 647.15,-116.77 663.8,-97.2 674.83,-83.53"/>
<polygon fill="midnightblue" stroke="midnightblue" points="677.72,-85.51 681.2,-75.5 672.24,-81.16 677.72,-85.51"/>
</g>
<!-- Node17&#45;&gt;Node4 -->
<g id="edge26" class="edge">
<title>Node17&#45;&gt;Node4</title>
<path fill="none" stroke="midnightblue" d="M567.58,-168.08C565.03,-160.85 561.36,-150.41 558.19,-141.4"/>
<polygon fill="midnightblue" stroke="midnightblue" points="561.41,-140.02 554.79,-131.75 554.81,-142.35 561.41,-140.02"/>
</g>
<!-- Node18&#45;&gt;Node2 -->
<g id="edge28" class="edge">
<title>Node18&#45;&gt;Node2</title>
<path fill="none" stroke="midnightblue" d="M734.88,-168.48C726.53,-159.96 714.18,-146.13 706.71,-132 698.99,-117.38 694.02,-99.21 691.1,-85.8"/>
<polygon fill="midnightblue" stroke="midnightblue" points="694.51,-84.97 689.13,-75.84 687.64,-86.33 694.51,-84.97"/>
</g>
<!-- Node18&#45;&gt;Node4 -->
<g id="edge29" class="edge">
<title>Node18&#45;&gt;Node4</title>
<path fill="none" stroke="midnightblue" d="M713.29,-168.44C680.43,-159.2 627.93,-144.44 591.74,-134.26"/>
<polygon fill="midnightblue" stroke="midnightblue" points="592.57,-130.85 581.99,-131.52 590.67,-137.59 592.57,-130.85"/>
</g>
<!-- Node18&#45;&gt;Node9 -->
<g id="edge31" class="edge">
<title>Node18&#45;&gt;Node9</title>
<path fill="none" stroke="midnightblue" d="M796.8,-168.44C856.22,-158.87 952.43,-143.36 1015.64,-133.17"/>
<polygon fill="midnightblue" stroke="midnightblue" points="1016.56,-136.56 1025.88,-131.52 1015.45,-129.65 1016.56,-136.56"/>
</g>
<!-- Node19 -->
<g id="node19" class="node">
<title>Node19</title>
<g id="a_node19"><a xlink:title=" ">
<polygon fill="white" stroke="#bfbfbf" points="715.71,-112.5 715.71,-131.5 817.71,-131.5 817.71,-112.5 715.71,-112.5"/>
<text text-anchor="middle" x="766.71" y="-119.5" font-family="Helvetica,sans-Serif" font-size="10.00">QDoubleValidator</text>
</a>
</g>
</g>
<!-- Node18&#45;&gt;Node19 -->
<g id="edge30" class="edge">
<title>Node18&#45;&gt;Node19</title>
<path fill="none" stroke="midnightblue" d="M747.51,-168.08C750.63,-160.77 755.14,-150.18 759,-141.1"/>
<polygon fill="midnightblue" stroke="midnightblue" points="762.29,-142.32 762.99,-131.75 755.85,-139.58 762.29,-142.32"/>
</g>
<!-- Node20&#45;&gt;Node2 -->
<g id="edge34" class="edge">
<title>Node20&#45;&gt;Node2</title>
<path fill="none" stroke="midnightblue" d="M353.19,-168.38C373.9,-159.57 406.76,-145.32 434.71,-132 452.3,-123.62 455.35,-118.51 473.71,-112 519.76,-95.68 573.59,-84.4 615.74,-77.21"/>
<polygon fill="midnightblue" stroke="midnightblue" points="616.35,-80.66 625.64,-75.56 615.2,-73.75 616.35,-80.66"/>
</g>
<!-- Node20&#45;&gt;Node3 -->
<g id="edge38" class="edge">
<title>Node20&#45;&gt;Node3</title>
<path fill="none" stroke="midnightblue" d="M304.69,-177.47C234.31,-178.01 53.11,-175.08 15.71,-132 -66.36,-37.46 198.46,-16.69 302.02,-12.21"/>
<polygon fill="midnightblue" stroke="midnightblue" points="302.25,-15.7 312.1,-11.8 301.96,-8.7 302.25,-15.7"/>
</g>
<!-- Node20&#45;&gt;Node4 -->
<g id="edge35" class="edge">
<title>Node20&#45;&gt;Node4</title>
<path fill="none" stroke="midnightblue" d="M360.9,-170.05C397.98,-160.91 463.57,-144.73 507.34,-133.94"/>
<polygon fill="midnightblue" stroke="midnightblue" points="508.28,-137.31 517.15,-131.52 506.6,-130.52 508.28,-137.31"/>
</g>
<!-- Node21 -->
<g id="node21" class="node">
<title>Node21</title>
<g id="a_node21"><a xlink:title=" ">
<polygon fill="white" stroke="#bfbfbf" points="269.21,-112.5 269.21,-131.5 324.21,-131.5 324.21,-112.5 269.21,-112.5"/>
<text text-anchor="middle" x="296.71" y="-119.5" font-family="Helvetica,sans-Serif" font-size="10.00">QImage</text>
</a>
</g>
</g>
<!-- Node20&#45;&gt;Node21 -->
<g id="edge36" class="edge">
<title>Node20&#45;&gt;Node21</title>
<path fill="none" stroke="midnightblue" d="M326.77,-168.08C321.74,-160.53 314.38,-149.49 308.2,-140.23"/>
<polygon fill="midnightblue" stroke="midnightblue" points="311.01,-138.13 302.55,-131.75 305.18,-142.01 311.01,-138.13"/>
</g>
<!-- Node22 -->
<g id="node22" class="node">
<title>Node22</title>
<g id="a_node22"><a xlink:title=" ">
<polygon fill="white" stroke="#bfbfbf" points="342.21,-112.5 342.21,-131.5 425.21,-131.5 425.21,-112.5 342.21,-112.5"/>
<text text-anchor="middle" x="383.71" y="-119.5" font-family="Helvetica,sans-Serif" font-size="10.00">QWheelEvent</text>
</a>
</g>
</g>
<!-- Node20&#45;&gt;Node22 -->
<g id="edge37" class="edge">
<title>Node20&#45;&gt;Node22</title>
<path fill="none" stroke="midnightblue" d="M341.14,-168.08C348.56,-160.22 359.57,-148.57 368.53,-139.08"/>
<polygon fill="midnightblue" stroke="midnightblue" points="371.13,-141.42 375.45,-131.75 366.04,-136.62 371.13,-141.42"/>
</g>
<!-- Node23 -->
<g id="node23" class="node">
<title>Node23</title>
<g id="a_node23"><a xlink:href="lchdouble_8h.html" target="_top" xlink:title=" ">
<polygon fill="white" stroke="black" points="25.21,-112.5 25.21,-131.5 178.21,-131.5 178.21,-112.5 25.21,-112.5"/>
<text text-anchor="middle" x="101.71" y="-119.5" font-family="Helvetica,sans-Serif" font-size="10.00">PerceptualColor/lchdouble.h</text>
</a>
</g>
</g>
<!-- Node20&#45;&gt;Node23 -->
<g id="edge39" class="edge">
<title>Node20&#45;&gt;Node23</title>
<path fill="none" stroke="midnightblue" d="M304.39,-170.38C265.44,-161.27 194.88,-144.78 148.15,-133.85"/>
<polygon fill="midnightblue" stroke="midnightblue" points="148.8,-130.41 138.27,-131.55 147.21,-137.23 148.8,-130.41"/>
</g>
<!-- Node25 -->
<g id="node25" class="node">
<title>Node25</title>
<g id="a_node25"><a xlink:title=" ">
<polygon fill="white" stroke="#bfbfbf" points="196.21,-112.5 196.21,-131.5 251.21,-131.5 251.21,-112.5 196.21,-112.5"/>
<text text-anchor="middle" x="223.71" y="-119.5" font-family="Helvetica,sans-Serif" font-size="10.00">lcms2.h</text>
</a>
</g>
</g>
<!-- Node20&#45;&gt;Node25 -->
<g id="edge42" class="edge">
<title>Node20&#45;&gt;Node25</title>
<path fill="none" stroke="midnightblue" d="M315.2,-168.32C297.64,-159.62 270.38,-146.12 250.18,-136.11"/>
<polygon fill="midnightblue" stroke="midnightblue" points="251.7,-132.96 241.18,-131.65 248.59,-139.23 251.7,-132.96"/>
</g>
<!-- Node23&#45;&gt;Node2 -->
<g id="edge40" class="edge">
<title>Node23&#45;&gt;Node2</title>
<path fill="none" stroke="midnightblue" d="M178.62,-112.8C181.35,-112.53 184.06,-112.26 186.71,-112 321.08,-98.85 475.88,-85.17 577.42,-76.4"/>
<polygon fill="midnightblue" stroke="midnightblue" points="577.72,-79.89 587.39,-75.54 577.12,-72.91 577.72,-79.89"/>
</g>
<!-- Node24 -->
<g id="node24" class="node">
<title>Node24</title>
<g id="a_node24"><a xlink:title=" ">
<polygon fill="white" stroke="#bfbfbf" points="73.71,-56.5 73.71,-75.5 129.71,-75.5 129.71,-56.5 73.71,-56.5"/>
<text text-anchor="middle" x="101.71" y="-63.5" font-family="Helvetica,sans-Serif" font-size="10.00">QDebug</text>
</a>
</g>
</g>
<!-- Node23&#45;&gt;Node24 -->
<g id="edge41" class="edge">
<title>Node23&#45;&gt;Node24</title>
<path fill="none" stroke="midnightblue" d="M101.71,-112.08C101.71,-105.01 101.71,-94.86 101.71,-85.99"/>
<polygon fill="midnightblue" stroke="midnightblue" points="105.21,-85.75 101.71,-75.75 98.21,-85.75 105.21,-85.75"/>
</g>
</g>
</svg>
