<?xml version="1.0" encoding="UTF-8" standalone="no"?>
<!DOCTYPE svg PUBLIC "-//W3C//DTD SVG 1.1//EN"
 "http://www.w3.org/Graphics/SVG/1.1/DTD/svg11.dtd">
<!-- Generated by graphviz version 2.43.0 (0)
 -->
<!-- Title: include/PerceptualColor/multispinbox.h Pages: 1 -->
<svg width="290pt" height="151pt"
 viewBox="0.00 0.00 290.00 151.00" xmlns="http://www.w3.org/2000/svg" xmlns:xlink="http://www.w3.org/1999/xlink">
<g id="graph0" class="graph" transform="scale(1 1) rotate(0) translate(4 147)">
<title>include/PerceptualColor/multispinbox.h</title>
<polygon fill="white" stroke="transparent" points="-4,4 -4,-147 286,-147 286,4 -4,4"/>
<!-- Node1 -->
<g id="node1" class="node">
<title>Node1</title>
<g id="a_node1"><a xlink:title=" ">
<polygon fill="#bfbfbf" stroke="black" points="70,-112.5 70,-142.5 202,-142.5 202,-112.5 70,-112.5"/>
<text text-anchor="start" x="78" y="-130.5" font-family="Helvetica,sans-Serif" font-size="10.00">include/PerceptualColor</text>
<text text-anchor="middle" x="136" y="-119.5" font-family="Helvetica,sans-Serif" font-size="10.00">/multispinbox.h</text>
</a>
</g>
</g>
<!-- Node2 -->
<g id="node2" class="node">
<title>Node2</title>
<g id="a_node2"><a xlink:href="colordialog__p_8h.html" target="_top" xlink:title=" ">
<polygon fill="white" stroke="black" points="0,-56.5 0,-75.5 108,-75.5 108,-56.5 0,-56.5"/>
<text text-anchor="middle" x="54" y="-63.5" font-family="Helvetica,sans-Serif" font-size="10.00">src/colordialog_p.h</text>
</a>
</g>
</g>
<!-- Node1&#45;&gt;Node2 -->
<g id="edge1" class="edge">
<title>Node1&#45;&gt;Node2</title>
<path fill="none" stroke="midnightblue" d="M108.41,-106.48C93.97,-96 77.03,-83.71 65.93,-75.66"/>
<polygon fill="midnightblue" stroke="midnightblue" points="106.42,-109.36 116.57,-112.4 110.53,-103.69 106.42,-109.36"/>
</g>
<!-- Node4 -->
<g id="node4" class="node">
<title>Node4</title>
<g id="a_node4"><a xlink:href="multispinbox_8cpp.html" target="_top" xlink:title=" ">
<polygon fill="white" stroke="black" points="145,-0.5 145,-19.5 263,-19.5 263,-0.5 145,-0.5"/>
<text text-anchor="middle" x="204" y="-7.5" font-family="Helvetica,sans-Serif" font-size="10.00">src/multispinbox.cpp</text>
</a>
</g>
</g>
<!-- Node1&#45;&gt;Node4 -->
<g id="edge3" class="edge">
<title>Node1&#45;&gt;Node4</title>
<path fill="none" stroke="midnightblue" d="M139.07,-102.28C141.69,-88.02 146.46,-70.07 155,-56 164.11,-40.99 179.68,-27.94 190.82,-19.82"/>
<polygon fill="midnightblue" stroke="midnightblue" points="135.58,-101.91 137.46,-112.34 142.49,-103.02 135.58,-101.91"/>
</g>
<!-- Node5 -->
<g id="node5" class="node">
<title>Node5</title>
<g id="a_node5"><a xlink:href="multispinbox__p_8h.html" target="_top" xlink:title=" ">
<polygon fill="white" stroke="black" points="164,-56.5 164,-75.5 282,-75.5 282,-56.5 164,-56.5"/>
<text text-anchor="middle" x="223" y="-63.5" font-family="Helvetica,sans-Serif" font-size="10.00">src/multispinbox_p.h</text>
</a>
</g>
</g>
<!-- Node1&#45;&gt;Node5 -->
<g id="edge4" class="edge">
<title>Node1&#45;&gt;Node5</title>
<path fill="none" stroke="midnightblue" d="M165.27,-106.48C180.59,-96 198.57,-83.71 210.34,-75.66"/>
<polygon fill="midnightblue" stroke="midnightblue" points="162.9,-103.87 156.62,-112.4 166.85,-109.64 162.9,-103.87"/>
</g>
<!-- Node3 -->
<g id="node3" class="node">
<title>Node3</title>
<g id="a_node3"><a xlink:href="colordialog_8cpp.html" target="_top" xlink:title=" ">
<polygon fill="white" stroke="black" points="0,-0.5 0,-19.5 108,-19.5 108,-0.5 0,-0.5"/>
<text text-anchor="middle" x="54" y="-7.5" font-family="Helvetica,sans-Serif" font-size="10.00">src/colordialog.cpp</text>
</a>
</g>
</g>
<!-- Node2&#45;&gt;Node3 -->
<g id="edge2" class="edge">
<title>Node2&#45;&gt;Node3</title>
<path fill="none" stroke="midnightblue" d="M54,-45.8C54,-36.91 54,-26.78 54,-19.75"/>
<polygon fill="midnightblue" stroke="midnightblue" points="50.5,-46.08 54,-56.08 57.5,-46.08 50.5,-46.08"/>
</g>
<!-- Node5&#45;&gt;Node4 -->
<g id="edge5" class="edge">
<title>Node5&#45;&gt;Node4</title>
<path fill="none" stroke="midnightblue" d="M216.45,-46.4C213.28,-37.36 209.61,-26.94 207.08,-19.75"/>
<polygon fill="midnightblue" stroke="midnightblue" points="213.24,-47.81 219.86,-56.08 219.85,-45.49 213.24,-47.81"/>
</g>
</g>
</svg>
