<?xml version="1.0" encoding="UTF-8" standalone="no"?>
<!DOCTYPE svg PUBLIC "-//W3C//DTD SVG 1.1//EN"
 "http://www.w3.org/Graphics/SVG/1.1/DTD/svg11.dtd">
<!-- Generated by graphviz version 2.43.0 (0)
 -->
<!-- Title: include/PerceptualColor/multispinbox.h Pages: 1 -->
<svg width="741pt" height="263pt"
 viewBox="0.00 0.00 741.42 263.00" xmlns="http://www.w3.org/2000/svg" xmlns:xlink="http://www.w3.org/1999/xlink">
<g id="graph0" class="graph" transform="scale(1 1) rotate(0) translate(4 259)">
<title>include/PerceptualColor/multispinbox.h</title>
<polygon fill="white" stroke="transparent" points="-4,4 -4,-259 737.42,-259 737.42,4 -4,4"/>
<!-- Node1 -->
<g id="node1" class="node">
<title>Node1</title>
<g id="a_node1"><a xlink:title=" ">
<polygon fill="#bfbfbf" stroke="black" points="138.92,-224.5 138.92,-254.5 270.92,-254.5 270.92,-224.5 138.92,-224.5"/>
<text text-anchor="start" x="146.92" y="-242.5" font-family="Helvetica,sans-Serif" font-size="10.00">include/PerceptualColor</text>
<text text-anchor="middle" x="204.92" y="-231.5" font-family="Helvetica,sans-Serif" font-size="10.00">/multispinbox.h</text>
</a>
</g>
</g>
<!-- Node2 -->
<g id="node2" class="node">
<title>Node2</title>
<g id="a_node2"><a xlink:href="perceptualcolorglobal_8h.html" target="_top" xlink:title=" ">
<polygon fill="white" stroke="black" points="181.92,-56.5 181.92,-75.5 393.92,-75.5 393.92,-56.5 181.92,-56.5"/>
<text text-anchor="middle" x="287.92" y="-63.5" font-family="Helvetica,sans-Serif" font-size="10.00">PerceptualColor/perceptualcolorglobal.h</text>
</a>
</g>
</g>
<!-- Node1&#45;&gt;Node2 -->
<g id="edge1" class="edge">
<title>Node1&#45;&gt;Node2</title>
<path fill="none" stroke="midnightblue" d="M138.66,-236.94C68.65,-232.7 -27.15,-217.94 7.92,-168 45.42,-114.62 114.01,-89.33 173.91,-77.4"/>
<polygon fill="midnightblue" stroke="midnightblue" points="174.65,-80.82 183.83,-75.53 173.36,-73.94 174.65,-80.82"/>
</g>
<!-- Node4 -->
<g id="node4" class="node">
<title>Node4</title>
<g id="a_node4"><a xlink:title=" ">
<polygon fill="white" stroke="#bfbfbf" points="16.92,-168.5 16.92,-187.5 120.92,-187.5 120.92,-168.5 16.92,-168.5"/>
<text text-anchor="middle" x="68.92" y="-175.5" font-family="Helvetica,sans-Serif" font-size="10.00">QAbstractSpinBox</text>
</a>
</g>
</g>
<!-- Node1&#45;&gt;Node4 -->
<g id="edge3" class="edge">
<title>Node1&#45;&gt;Node4</title>
<path fill="none" stroke="midnightblue" d="M172.69,-224.4C150.08,-214.51 120.09,-201.38 98.16,-191.79"/>
<polygon fill="midnightblue" stroke="midnightblue" points="99.28,-188.46 88.71,-187.66 96.47,-194.87 99.28,-188.46"/>
</g>
<!-- Node5 -->
<g id="node5" class="node">
<title>Node5</title>
<g id="a_node5"><a xlink:title=" ">
<polygon fill="white" stroke="#bfbfbf" points="139.42,-168.5 139.42,-187.5 194.42,-187.5 194.42,-168.5 139.42,-168.5"/>
<text text-anchor="middle" x="166.92" y="-175.5" font-family="Helvetica,sans-Serif" font-size="10.00">QAction</text>
</a>
</g>
</g>
<!-- Node1&#45;&gt;Node5 -->
<g id="edge4" class="edge">
<title>Node1&#45;&gt;Node5</title>
<path fill="none" stroke="midnightblue" d="M195.92,-224.4C190.51,-215.93 183.59,-205.1 177.87,-196.14"/>
<polygon fill="midnightblue" stroke="midnightblue" points="180.79,-194.2 172.45,-187.66 174.89,-197.97 180.79,-194.2"/>
</g>
<!-- Node6 -->
<g id="node6" class="node">
<title>Node6</title>
<g id="a_node6"><a xlink:title=" ">
<polygon fill="white" stroke="#bfbfbf" points="212.42,-168.5 212.42,-187.5 275.42,-187.5 275.42,-168.5 212.42,-168.5"/>
<text text-anchor="middle" x="243.92" y="-175.5" font-family="Helvetica,sans-Serif" font-size="10.00">QLineEdit</text>
</a>
</g>
</g>
<!-- Node1&#45;&gt;Node6 -->
<g id="edge5" class="edge">
<title>Node1&#45;&gt;Node6</title>
<path fill="none" stroke="midnightblue" d="M214.17,-224.4C219.72,-215.93 226.82,-205.1 232.69,-196.14"/>
<polygon fill="midnightblue" stroke="midnightblue" points="235.7,-197.94 238.25,-187.66 229.84,-194.1 235.7,-197.94"/>
</g>
<!-- Node7 -->
<g id="node7" class="node">
<title>Node7</title>
<g id="a_node7"><a xlink:href="constpropagatinguniquepointer_8h.html" target="_top" xlink:title=" ">
<polygon fill="white" stroke="black" points="476.42,-112.5 476.42,-131.5 733.42,-131.5 733.42,-112.5 476.42,-112.5"/>
<text text-anchor="middle" x="604.92" y="-119.5" font-family="Helvetica,sans-Serif" font-size="10.00">PerceptualColor/constpropagatinguniquepointer.h</text>
</a>
</g>
</g>
<!-- Node1&#45;&gt;Node7 -->
<g id="edge6" class="edge">
<title>Node1&#45;&gt;Node7</title>
<path fill="none" stroke="midnightblue" d="M271.06,-236.64C363.39,-232.84 524.91,-221.49 571.92,-188 587.35,-177.01 596.02,-156.65 600.56,-141.64"/>
<polygon fill="midnightblue" stroke="midnightblue" points="603.97,-142.42 603.17,-131.86 597.21,-140.62 603.97,-142.42"/>
</g>
<!-- Node9 -->
<g id="node9" class="node">
<title>Node9</title>
<g id="a_node9"><a xlink:href="multispinboxsectionconfiguration_8h.html" target="_top" xlink:title=" ">
<polygon fill="white" stroke="black" points="293.42,-168.5 293.42,-187.5 562.42,-187.5 562.42,-168.5 293.42,-168.5"/>
<text text-anchor="middle" x="427.92" y="-175.5" font-family="Helvetica,sans-Serif" font-size="10.00">PerceptualColor/multispinboxsectionconfiguration.h</text>
</a>
</g>
</g>
<!-- Node1&#45;&gt;Node9 -->
<g id="edge9" class="edge">
<title>Node1&#45;&gt;Node9</title>
<path fill="none" stroke="midnightblue" d="M257.49,-224.47C296.8,-213.99 349.83,-199.84 386.24,-190.12"/>
<polygon fill="midnightblue" stroke="midnightblue" points="387.28,-193.47 396.04,-187.51 385.48,-186.7 387.28,-193.47"/>
</g>
<!-- Node3 -->
<g id="node3" class="node">
<title>Node3</title>
<g id="a_node3"><a xlink:title=" ">
<polygon fill="white" stroke="#bfbfbf" points="258.42,-0.5 258.42,-19.5 317.42,-19.5 317.42,-0.5 258.42,-0.5"/>
<text text-anchor="middle" x="287.92" y="-7.5" font-family="Helvetica,sans-Serif" font-size="10.00">QtGlobal</text>
</a>
</g>
</g>
<!-- Node2&#45;&gt;Node3 -->
<g id="edge2" class="edge">
<title>Node2&#45;&gt;Node3</title>
<path fill="none" stroke="midnightblue" d="M287.92,-56.08C287.92,-49.01 287.92,-38.86 287.92,-29.99"/>
<polygon fill="midnightblue" stroke="midnightblue" points="291.43,-29.75 287.92,-19.75 284.43,-29.75 291.43,-29.75"/>
</g>
<!-- Node7&#45;&gt;Node2 -->
<g id="edge7" class="edge">
<title>Node7&#45;&gt;Node2</title>
<path fill="none" stroke="midnightblue" d="M554.7,-112.44C498.58,-102.89 407.79,-87.42 347.98,-77.23"/>
<polygon fill="midnightblue" stroke="midnightblue" points="348.37,-73.75 337.92,-75.52 347.19,-80.65 348.37,-73.75"/>
</g>
<!-- Node8 -->
<g id="node8" class="node">
<title>Node8</title>
<g id="a_node8"><a xlink:title=" ">
<polygon fill="white" stroke="#bfbfbf" points="575.92,-56.5 575.92,-75.5 633.92,-75.5 633.92,-56.5 575.92,-56.5"/>
<text text-anchor="middle" x="604.92" y="-63.5" font-family="Helvetica,sans-Serif" font-size="10.00">memory</text>
</a>
</g>
</g>
<!-- Node7&#45;&gt;Node8 -->
<g id="edge8" class="edge">
<title>Node7&#45;&gt;Node8</title>
<path fill="none" stroke="midnightblue" d="M604.92,-112.08C604.92,-105.01 604.92,-94.86 604.92,-85.99"/>
<polygon fill="midnightblue" stroke="midnightblue" points="608.43,-85.75 604.92,-75.75 601.43,-85.75 608.43,-85.75"/>
</g>
<!-- Node9&#45;&gt;Node2 -->
<g id="edge10" class="edge">
<title>Node9&#45;&gt;Node2</title>
<path fill="none" stroke="midnightblue" d="M374.83,-168.42C351.14,-162.05 324.64,-151.03 306.92,-132 295.3,-119.51 290.75,-100.28 288.99,-85.97"/>
<polygon fill="midnightblue" stroke="midnightblue" points="292.45,-85.43 288.09,-75.77 285.48,-86.04 292.45,-85.43"/>
</g>
<!-- Node9&#45;&gt;Node7 -->
<g id="edge13" class="edge">
<title>Node9&#45;&gt;Node7</title>
<path fill="none" stroke="midnightblue" d="M455.97,-168.44C486.01,-159.28 533.84,-144.69 567.17,-134.52"/>
<polygon fill="midnightblue" stroke="midnightblue" points="568.47,-137.78 577.01,-131.52 566.42,-131.09 568.47,-137.78"/>
</g>
<!-- Node10 -->
<g id="node10" class="node">
<title>Node10</title>
<g id="a_node10"><a xlink:title=" ">
<polygon fill="white" stroke="#bfbfbf" points="387.42,-112.5 387.42,-131.5 458.42,-131.5 458.42,-112.5 387.42,-112.5"/>
<text text-anchor="middle" x="422.92" y="-119.5" font-family="Helvetica,sans-Serif" font-size="10.00">QMetaType</text>
</a>
</g>
</g>
<!-- Node9&#45;&gt;Node10 -->
<g id="edge11" class="edge">
<title>Node9&#45;&gt;Node10</title>
<path fill="none" stroke="midnightblue" d="M427.1,-168.08C426.44,-161.01 425.5,-150.86 424.68,-141.99"/>
<polygon fill="midnightblue" stroke="midnightblue" points="428.14,-141.39 423.74,-131.75 421.17,-142.03 428.14,-141.39"/>
</g>
<!-- Node11 -->
<g id="node11" class="node">
<title>Node11</title>
<g id="a_node11"><a xlink:title=" ">
<polygon fill="white" stroke="#bfbfbf" points="316.42,-112.5 316.42,-131.5 369.42,-131.5 369.42,-112.5 316.42,-112.5"/>
<text text-anchor="middle" x="342.92" y="-119.5" font-family="Helvetica,sans-Serif" font-size="10.00">QString</text>
</a>
</g>
</g>
<!-- Node9&#45;&gt;Node11 -->
<g id="edge12" class="edge">
<title>Node9&#45;&gt;Node11</title>
<path fill="none" stroke="midnightblue" d="M414.27,-168.32C401.01,-159.9 380.66,-146.97 365.08,-137.07"/>
<polygon fill="midnightblue" stroke="midnightblue" points="366.87,-134.06 356.55,-131.65 363.11,-139.97 366.87,-134.06"/>
</g>
</g>
</svg>
