<?xml version="1.0" encoding="UTF-8" standalone="no"?>
<!DOCTYPE svg PUBLIC "-//W3C//DTD SVG 1.1//EN"
 "http://www.w3.org/Graphics/SVG/1.1/DTD/svg11.dtd">
<!-- Generated by graphviz version 2.43.0 (0)
 -->
<!-- Title: src/multispinboxsectionconfiguration.cpp Pages: 1 -->
<svg width="1206pt" height="308pt"
 viewBox="0.00 0.00 1206.38 308.00" xmlns="http://www.w3.org/2000/svg" xmlns:xlink="http://www.w3.org/1999/xlink">
<g id="graph0" class="graph" transform="scale(1 1) rotate(0) translate(4 304)">
<title>src/multispinboxsectionconfiguration.cpp</title>
<polygon fill="white" stroke="transparent" points="-4,4 -4,-304 1202.38,-304 1202.38,4 -4,4"/>
<!-- Node1 -->
<g id="node1" class="node">
<title>Node1</title>
<g id="a_node1"><a xlink:title=" ">
<polygon fill="#bfbfbf" stroke="black" points="567,-280.5 567,-299.5 784,-299.5 784,-280.5 567,-280.5"/>
<text text-anchor="middle" x="675.5" y="-287.5" font-family="Helvetica,sans-Serif" font-size="10.00">src/multispinboxsectionconfiguration.cpp</text>
</a>
</g>
</g>
<!-- Node2 -->
<g id="node2" class="node">
<title>Node2</title>
<g id="a_node2"><a xlink:href="perceptualcolorglobal_8h.html" target="_top" xlink:title=" ">
<polygon fill="white" stroke="black" points="449.5,-56.5 449.5,-75.5 661.5,-75.5 661.5,-56.5 449.5,-56.5"/>
<text text-anchor="middle" x="555.5" y="-63.5" font-family="Helvetica,sans-Serif" font-size="10.00">PerceptualColor/perceptualcolorglobal.h</text>
</a>
</g>
</g>
<!-- Node1&#45;&gt;Node2 -->
<g id="edge1" class="edge">
<title>Node1&#45;&gt;Node2</title>
<path fill="none" stroke="midnightblue" d="M610.69,-280.47C567.37,-273.29 515.93,-261.37 502.5,-244 464.14,-194.38 515.29,-117.3 541.6,-83.66"/>
<polygon fill="midnightblue" stroke="midnightblue" points="544.44,-85.71 547.98,-75.73 538.98,-81.33 544.44,-85.71"/>
</g>
<!-- Node4 -->
<g id="node4" class="node">
<title>Node4</title>
<g id="a_node4"><a xlink:href="perceptualcolorinternal_8h.html" target="_top" xlink:title=" ">
<polygon fill="white" stroke="black" points="550,-168.5 550,-187.5 689,-187.5 689,-168.5 550,-168.5"/>
<text text-anchor="middle" x="619.5" y="-175.5" font-family="Helvetica,sans-Serif" font-size="10.00">perceptualcolorinternal.h</text>
</a>
</g>
</g>
<!-- Node1&#45;&gt;Node4 -->
<g id="edge3" class="edge">
<title>Node1&#45;&gt;Node4</title>
<path fill="none" stroke="midnightblue" d="M688.9,-280.49C706.55,-268.17 733.88,-244.61 720.5,-224 710.09,-207.97 692.5,-197.6 674.89,-190.92"/>
<polygon fill="midnightblue" stroke="midnightblue" points="675.75,-187.51 665.15,-187.57 673.47,-194.13 675.75,-187.51"/>
</g>
<!-- Node5 -->
<g id="node5" class="node">
<title>Node5</title>
<g id="a_node5"><a xlink:href="multispinboxsectionconfiguration_8h.html" target="_top" xlink:title=" ">
<polygon fill="white" stroke="black" points="186,-168.5 186,-187.5 455,-187.5 455,-168.5 186,-168.5"/>
<text text-anchor="middle" x="320.5" y="-175.5" font-family="Helvetica,sans-Serif" font-size="10.00">PerceptualColor/multispinboxsectionconfiguration.h</text>
</a>
</g>
</g>
<!-- Node1&#45;&gt;Node5 -->
<g id="edge5" class="edge">
<title>Node1&#45;&gt;Node5</title>
<path fill="none" stroke="midnightblue" d="M623.11,-280.49C581.02,-272.96 520.69,-260.58 469.5,-244 424.87,-229.55 375.39,-206.46 346.16,-192.05"/>
<polygon fill="midnightblue" stroke="midnightblue" points="347.58,-188.84 337.06,-187.51 344.45,-195.11 347.58,-188.84"/>
</g>
<!-- Node10 -->
<g id="node10" class="node">
<title>Node10</title>
<g id="a_node10"><a xlink:href="multispinboxsectionconfiguration__p_8h.html" target="_top" xlink:title=" ">
<polygon fill="white" stroke="black" points="511.5,-224.5 511.5,-243.5 711.5,-243.5 711.5,-224.5 511.5,-224.5"/>
<text text-anchor="middle" x="611.5" y="-231.5" font-family="Helvetica,sans-Serif" font-size="10.00">multispinboxsectionconfiguration_p.h</text>
</a>
</g>
</g>
<!-- Node1&#45;&gt;Node10 -->
<g id="edge12" class="edge">
<title>Node1&#45;&gt;Node10</title>
<path fill="none" stroke="midnightblue" d="M665.22,-280.32C655.66,-272.26 641.22,-260.08 629.72,-250.37"/>
<polygon fill="midnightblue" stroke="midnightblue" points="631.87,-247.61 621.97,-243.83 627.36,-252.96 631.87,-247.61"/>
</g>
<!-- Node11 -->
<g id="node11" class="node">
<title>Node11</title>
<g id="a_node11"><a xlink:title=" ">
<polygon fill="white" stroke="#bfbfbf" points="1132.5,-112.5 1132.5,-131.5 1188.5,-131.5 1188.5,-112.5 1132.5,-112.5"/>
<text text-anchor="middle" x="1160.5" y="-119.5" font-family="Helvetica,sans-Serif" font-size="10.00">QDebug</text>
</a>
</g>
</g>
<!-- Node1&#45;&gt;Node11 -->
<g id="edge16" class="edge">
<title>Node1&#45;&gt;Node11</title>
<path fill="none" stroke="midnightblue" d="M784.12,-283.57C920.45,-274.21 1142.67,-249.7 1193.5,-188 1205.86,-173 1191.52,-152.61 1178.06,-138.69"/>
<polygon fill="midnightblue" stroke="midnightblue" points="1180.46,-136.15 1170.85,-131.7 1175.59,-141.17 1180.46,-136.15"/>
</g>
<!-- Node12 -->
<g id="node12" class="node">
<title>Node12</title>
<g id="a_node12"><a xlink:href="helper_8h.html" target="_top" xlink:title="Various smaller help elements.">
<polygon fill="white" stroke="black" points="784.5,-224.5 784.5,-243.5 840.5,-243.5 840.5,-224.5 784.5,-224.5"/>
<text text-anchor="middle" x="812.5" y="-231.5" font-family="Helvetica,sans-Serif" font-size="10.00">helper.h</text>
</a>
</g>
</g>
<!-- Node1&#45;&gt;Node12 -->
<g id="edge17" class="edge">
<title>Node1&#45;&gt;Node12</title>
<path fill="none" stroke="midnightblue" d="M697.21,-280.44C719.85,-271.52 755.57,-257.44 781.25,-247.32"/>
<polygon fill="midnightblue" stroke="midnightblue" points="782.87,-250.44 790.89,-243.52 780.31,-243.93 782.87,-250.44"/>
</g>
<!-- Node3 -->
<g id="node3" class="node">
<title>Node3</title>
<g id="a_node3"><a xlink:title=" ">
<polygon fill="white" stroke="#bfbfbf" points="680,-0.5 680,-19.5 739,-19.5 739,-0.5 680,-0.5"/>
<text text-anchor="middle" x="709.5" y="-7.5" font-family="Helvetica,sans-Serif" font-size="10.00">QtGlobal</text>
</a>
</g>
</g>
<!-- Node2&#45;&gt;Node3 -->
<g id="edge2" class="edge">
<title>Node2&#45;&gt;Node3</title>
<path fill="none" stroke="midnightblue" d="M579.9,-56.44C605.7,-47.4 646.58,-33.06 675.52,-22.92"/>
<polygon fill="midnightblue" stroke="midnightblue" points="676.93,-26.13 685.21,-19.52 674.62,-19.52 676.93,-26.13"/>
</g>
<!-- Node4&#45;&gt;Node2 -->
<g id="edge4" class="edge">
<title>Node4&#45;&gt;Node2</title>
<path fill="none" stroke="midnightblue" d="M614.48,-168.37C603.96,-150.3 579.46,-108.18 565.57,-84.31"/>
<polygon fill="midnightblue" stroke="midnightblue" points="568.55,-82.47 560.5,-75.59 562.5,-86 568.55,-82.47"/>
</g>
<!-- Node5&#45;&gt;Node2 -->
<g id="edge6" class="edge">
<title>Node5&#45;&gt;Node2</title>
<path fill="none" stroke="midnightblue" d="M341.58,-168.39C362.89,-159.59 396.71,-145.35 425.5,-132 462.24,-114.96 504.01,-93.74 530.06,-80.27"/>
<polygon fill="midnightblue" stroke="midnightblue" points="531.97,-83.23 539.23,-75.52 528.74,-77.02 531.97,-83.23"/>
</g>
<!-- Node6 -->
<g id="node6" class="node">
<title>Node6</title>
<g id="a_node6"><a xlink:title=" ">
<polygon fill="white" stroke="#bfbfbf" points="346,-112.5 346,-131.5 417,-131.5 417,-112.5 346,-112.5"/>
<text text-anchor="middle" x="381.5" y="-119.5" font-family="Helvetica,sans-Serif" font-size="10.00">QMetaType</text>
</a>
</g>
</g>
<!-- Node5&#45;&gt;Node6 -->
<g id="edge7" class="edge">
<title>Node5&#45;&gt;Node6</title>
<path fill="none" stroke="midnightblue" d="M330.3,-168.32C339.32,-160.34 352.91,-148.31 363.82,-138.65"/>
<polygon fill="midnightblue" stroke="midnightblue" points="366.35,-141.08 371.52,-131.83 361.71,-135.84 366.35,-141.08"/>
</g>
<!-- Node7 -->
<g id="node7" class="node">
<title>Node7</title>
<g id="a_node7"><a xlink:title=" ">
<polygon fill="white" stroke="#bfbfbf" points="275,-112.5 275,-131.5 328,-131.5 328,-112.5 275,-112.5"/>
<text text-anchor="middle" x="301.5" y="-119.5" font-family="Helvetica,sans-Serif" font-size="10.00">QString</text>
</a>
</g>
</g>
<!-- Node5&#45;&gt;Node7 -->
<g id="edge8" class="edge">
<title>Node5&#45;&gt;Node7</title>
<path fill="none" stroke="midnightblue" d="M317.36,-168.08C314.82,-160.85 311.14,-150.41 307.97,-141.4"/>
<polygon fill="midnightblue" stroke="midnightblue" points="311.2,-140.02 304.58,-131.75 304.6,-142.35 311.2,-140.02"/>
</g>
<!-- Node8 -->
<g id="node8" class="node">
<title>Node8</title>
<g id="a_node8"><a xlink:href="constpropagatinguniquepointer_8h.html" target="_top" xlink:title=" ">
<polygon fill="white" stroke="black" points="0,-112.5 0,-131.5 257,-131.5 257,-112.5 0,-112.5"/>
<text text-anchor="middle" x="128.5" y="-119.5" font-family="Helvetica,sans-Serif" font-size="10.00">PerceptualColor/constpropagatinguniquepointer.h</text>
</a>
</g>
</g>
<!-- Node5&#45;&gt;Node8 -->
<g id="edge9" class="edge">
<title>Node5&#45;&gt;Node8</title>
<path fill="none" stroke="midnightblue" d="M290.08,-168.44C257.22,-159.2 204.72,-144.44 168.53,-134.26"/>
<polygon fill="midnightblue" stroke="midnightblue" points="169.35,-130.85 158.78,-131.52 167.46,-137.59 169.35,-130.85"/>
</g>
<!-- Node8&#45;&gt;Node2 -->
<g id="edge10" class="edge">
<title>Node8&#45;&gt;Node2</title>
<path fill="none" stroke="midnightblue" d="M196.16,-112.44C272.83,-102.75 397.58,-86.97 478.08,-76.79"/>
<polygon fill="midnightblue" stroke="midnightblue" points="478.68,-80.24 488.16,-75.52 477.8,-73.3 478.68,-80.24"/>
</g>
<!-- Node9 -->
<g id="node9" class="node">
<title>Node9</title>
<g id="a_node9"><a xlink:title=" ">
<polygon fill="white" stroke="#bfbfbf" points="99.5,-56.5 99.5,-75.5 157.5,-75.5 157.5,-56.5 99.5,-56.5"/>
<text text-anchor="middle" x="128.5" y="-63.5" font-family="Helvetica,sans-Serif" font-size="10.00">memory</text>
</a>
</g>
</g>
<!-- Node8&#45;&gt;Node9 -->
<g id="edge11" class="edge">
<title>Node8&#45;&gt;Node9</title>
<path fill="none" stroke="midnightblue" d="M128.5,-112.08C128.5,-105.01 128.5,-94.86 128.5,-85.99"/>
<polygon fill="midnightblue" stroke="midnightblue" points="132,-85.75 128.5,-75.75 125,-85.75 132,-85.75"/>
</g>
<!-- Node10&#45;&gt;Node2 -->
<g id="edge13" class="edge">
<title>Node10&#45;&gt;Node2</title>
<path fill="none" stroke="midnightblue" d="M586.34,-224.38C570.08,-217.34 550.21,-205.65 540.5,-188 522.38,-155.06 536.62,-109.58 547.05,-84.82"/>
<polygon fill="midnightblue" stroke="midnightblue" points="550.29,-86.13 551.17,-75.57 543.9,-83.28 550.29,-86.13"/>
</g>
<!-- Node10&#45;&gt;Node4 -->
<g id="edge14" class="edge">
<title>Node10&#45;&gt;Node4</title>
<path fill="none" stroke="midnightblue" d="M612.82,-224.08C613.88,-216.93 615.41,-206.64 616.73,-197.69"/>
<polygon fill="midnightblue" stroke="midnightblue" points="620.2,-198.16 618.2,-187.75 613.28,-197.13 620.2,-198.16"/>
</g>
<!-- Node10&#45;&gt;Node5 -->
<g id="edge15" class="edge">
<title>Node10&#45;&gt;Node5</title>
<path fill="none" stroke="midnightblue" d="M565.39,-224.44C514.09,-214.92 431.23,-199.55 376.31,-189.36"/>
<polygon fill="midnightblue" stroke="midnightblue" points="376.86,-185.9 366.39,-187.52 375.59,-192.78 376.86,-185.9"/>
</g>
<!-- Node12&#45;&gt;Node2 -->
<g id="edge18" class="edge">
<title>Node12&#45;&gt;Node2</title>
<path fill="none" stroke="midnightblue" d="M797.5,-224.44C782.06,-215.56 757.39,-201.15 736.5,-188 677.73,-151 610.09,-104.78 576.58,-81.64"/>
<polygon fill="midnightblue" stroke="midnightblue" points="578.29,-78.56 568.07,-75.75 574.3,-84.32 578.29,-78.56"/>
</g>
<!-- Node12&#45;&gt;Node3 -->
<g id="edge22" class="edge">
<title>Node12&#45;&gt;Node3</title>
<path fill="none" stroke="midnightblue" d="M813.49,-224.34C814.63,-211.65 815.64,-187.39 809.5,-168 791.46,-111.01 747.28,-54.41 724.15,-27.39"/>
<polygon fill="midnightblue" stroke="midnightblue" points="726.65,-24.93 717.44,-19.69 721.38,-29.53 726.65,-24.93"/>
</g>
<!-- Node12&#45;&gt;Node4 -->
<g id="edge19" class="edge">
<title>Node12&#45;&gt;Node4</title>
<path fill="none" stroke="midnightblue" d="M784.44,-225.15C751.75,-216 697.49,-200.82 660.19,-190.38"/>
<polygon fill="midnightblue" stroke="midnightblue" points="660.72,-186.9 650.15,-187.58 658.84,-193.64 660.72,-186.9"/>
</g>
<!-- Node13 -->
<g id="node13" class="node">
<title>Node13</title>
<g id="a_node13"><a xlink:title=" ">
<polygon fill="white" stroke="#bfbfbf" points="746,-168.5 746,-187.5 801,-187.5 801,-168.5 746,-168.5"/>
<text text-anchor="middle" x="773.5" y="-175.5" font-family="Helvetica,sans-Serif" font-size="10.00">QImage</text>
</a>
</g>
</g>
<!-- Node12&#45;&gt;Node13 -->
<g id="edge20" class="edge">
<title>Node12&#45;&gt;Node13</title>
<path fill="none" stroke="midnightblue" d="M806.06,-224.08C800.55,-216.46 792.47,-205.26 785.74,-195.94"/>
<polygon fill="midnightblue" stroke="midnightblue" points="788.51,-193.81 779.82,-187.75 782.84,-197.91 788.51,-193.81"/>
</g>
<!-- Node14 -->
<g id="node14" class="node">
<title>Node14</title>
<g id="a_node14"><a xlink:title=" ">
<polygon fill="white" stroke="#bfbfbf" points="858,-168.5 858,-187.5 941,-187.5 941,-168.5 858,-168.5"/>
<text text-anchor="middle" x="899.5" y="-175.5" font-family="Helvetica,sans-Serif" font-size="10.00">QWheelEvent</text>
</a>
</g>
</g>
<!-- Node12&#45;&gt;Node14 -->
<g id="edge21" class="edge">
<title>Node12&#45;&gt;Node14</title>
<path fill="none" stroke="midnightblue" d="M826.48,-224.32C840.05,-215.9 860.88,-202.97 876.82,-193.07"/>
<polygon fill="midnightblue" stroke="midnightblue" points="878.91,-195.9 885.56,-187.65 875.21,-189.95 878.91,-195.9"/>
</g>
<!-- Node15 -->
<g id="node15" class="node">
<title>Node15</title>
<g id="a_node15"><a xlink:href="lchdouble_8h.html" target="_top" xlink:title=" ">
<polygon fill="white" stroke="black" points="1032,-168.5 1032,-187.5 1185,-187.5 1185,-168.5 1032,-168.5"/>
<text text-anchor="middle" x="1108.5" y="-175.5" font-family="Helvetica,sans-Serif" font-size="10.00">PerceptualColor/lchdouble.h</text>
</a>
</g>
</g>
<!-- Node12&#45;&gt;Node15 -->
<g id="edge23" class="edge">
<title>Node12&#45;&gt;Node15</title>
<path fill="none" stroke="midnightblue" d="M840.61,-227.87C888.87,-219.07 988.36,-200.92 1051.57,-189.39"/>
<polygon fill="midnightblue" stroke="midnightblue" points="1052.57,-192.76 1061.78,-187.52 1051.31,-185.87 1052.57,-192.76"/>
</g>
<!-- Node16 -->
<g id="node16" class="node">
<title>Node16</title>
<g id="a_node16"><a xlink:title=" ">
<polygon fill="white" stroke="#bfbfbf" points="959,-168.5 959,-187.5 1014,-187.5 1014,-168.5 959,-168.5"/>
<text text-anchor="middle" x="986.5" y="-175.5" font-family="Helvetica,sans-Serif" font-size="10.00">lcms2.h</text>
</a>
</g>
</g>
<!-- Node12&#45;&gt;Node16 -->
<g id="edge26" class="edge">
<title>Node12&#45;&gt;Node16</title>
<path fill="none" stroke="midnightblue" d="M840.07,-224.44C869.6,-215.28 916.62,-200.69 949.38,-190.52"/>
<polygon fill="midnightblue" stroke="midnightblue" points="950.54,-193.82 959.06,-187.52 948.47,-187.14 950.54,-193.82"/>
</g>
<!-- Node15&#45;&gt;Node2 -->
<g id="edge24" class="edge">
<title>Node15&#45;&gt;Node2</title>
<path fill="none" stroke="midnightblue" d="M1065.57,-168.46C965.63,-148.58 717.69,-99.26 608.53,-77.55"/>
<polygon fill="midnightblue" stroke="midnightblue" points="608.9,-74.05 598.41,-75.53 607.53,-80.92 608.9,-74.05"/>
</g>
<!-- Node15&#45;&gt;Node11 -->
<g id="edge25" class="edge">
<title>Node15&#45;&gt;Node11</title>
<path fill="none" stroke="midnightblue" d="M1117.09,-168.08C1124.66,-160.22 1135.88,-148.57 1145.01,-139.08"/>
<polygon fill="midnightblue" stroke="midnightblue" points="1147.66,-141.38 1152.07,-131.75 1142.62,-136.53 1147.66,-141.38"/>
</g>
</g>
</svg>
