<?xml version="1.0" encoding="UTF-8" standalone="no"?>
<!DOCTYPE svg PUBLIC "-//W3C//DTD SVG 1.1//EN"
 "http://www.w3.org/Graphics/SVG/1.1/DTD/svg11.dtd">
<!-- Generated by graphviz version 2.43.0 (0)
 -->
<!-- Title: include/PerceptualColor/multispinboxsectionconfiguration.h Pages: 1 -->
<svg width="559pt" height="218pt"
 viewBox="0.00 0.00 558.50 218.00" xmlns="http://www.w3.org/2000/svg" xmlns:xlink="http://www.w3.org/1999/xlink">
<g id="graph0" class="graph" transform="scale(1 1) rotate(0) translate(4 214)">
<title>include/PerceptualColor/multispinboxsectionconfiguration.h</title>
<polygon fill="white" stroke="transparent" points="-4,4 -4,-214 554.5,-214 554.5,4 -4,4"/>
<!-- Node1 -->
<g id="node1" class="node">
<title>Node1</title>
<g id="a_node1"><a xlink:title=" ">
<polygon fill="#bfbfbf" stroke="black" points="116,-179.5 116,-209.5 307,-209.5 307,-179.5 116,-179.5"/>
<text text-anchor="start" x="124" y="-197.5" font-family="Helvetica,sans-Serif" font-size="10.00">include/PerceptualColor</text>
<text text-anchor="middle" x="211.5" y="-186.5" font-family="Helvetica,sans-Serif" font-size="10.00">/multispinboxsectionconfiguration.h</text>
</a>
</g>
</g>
<!-- Node2 -->
<g id="node2" class="node">
<title>Node2</title>
<g id="a_node2"><a xlink:href="multispinboxsectionconfiguration_8cpp.html" target="_top" xlink:title=" ">
<polygon fill="white" stroke="black" points="0,-56.5 0,-75.5 217,-75.5 217,-56.5 0,-56.5"/>
<text text-anchor="middle" x="108.5" y="-63.5" font-family="Helvetica,sans-Serif" font-size="10.00">src/multispinboxsectionconfiguration.cpp</text>
</a>
</g>
</g>
<!-- Node1&#45;&gt;Node2 -->
<g id="edge1" class="edge">
<title>Node1&#45;&gt;Node2</title>
<path fill="none" stroke="midnightblue" d="M133.92,-175.41C117.98,-168.02 103.14,-157.62 93.5,-143 79.58,-121.9 94.19,-90.8 102.94,-75.77"/>
<polygon fill="midnightblue" stroke="midnightblue" points="132.83,-178.75 143.4,-179.43 135.56,-172.31 132.83,-178.75"/>
</g>
<!-- Node3 -->
<g id="node3" class="node">
<title>Node3</title>
<g id="a_node3"><a xlink:href="multispinboxsectionconfiguration__p_8h.html" target="_top" xlink:title=" ">
<polygon fill="white" stroke="black" points="103,-118 103,-137 320,-137 320,-118 103,-118"/>
<text text-anchor="middle" x="211.5" y="-125" font-family="Helvetica,sans-Serif" font-size="10.00">src/multispinboxsectionconfiguration_p.h</text>
</a>
</g>
</g>
<!-- Node1&#45;&gt;Node3 -->
<g id="edge2" class="edge">
<title>Node1&#45;&gt;Node3</title>
<path fill="none" stroke="midnightblue" d="M211.5,-169.25C211.5,-158.02 211.5,-145.38 211.5,-137.19"/>
<polygon fill="midnightblue" stroke="midnightblue" points="208,-169.4 211.5,-179.4 215,-169.4 208,-169.4"/>
</g>
<!-- Node4 -->
<g id="node4" class="node">
<title>Node4</title>
<g id="a_node4"><a xlink:href="multispinbox_8h.html" target="_top" xlink:title=" ">
<polygon fill="white" stroke="black" points="338.5,-112.5 338.5,-142.5 470.5,-142.5 470.5,-112.5 338.5,-112.5"/>
<text text-anchor="start" x="346.5" y="-130.5" font-family="Helvetica,sans-Serif" font-size="10.00">include/PerceptualColor</text>
<text text-anchor="middle" x="404.5" y="-119.5" font-family="Helvetica,sans-Serif" font-size="10.00">/multispinbox.h</text>
</a>
</g>
</g>
<!-- Node1&#45;&gt;Node4 -->
<g id="edge4" class="edge">
<title>Node1&#45;&gt;Node4</title>
<path fill="none" stroke="midnightblue" d="M263.19,-176.09C294.34,-165.6 333.51,-152.41 362.7,-142.58"/>
<polygon fill="midnightblue" stroke="midnightblue" points="261.74,-172.89 253.38,-179.4 263.97,-179.52 261.74,-172.89"/>
</g>
<!-- Node3&#45;&gt;Node2 -->
<g id="edge3" class="edge">
<title>Node3&#45;&gt;Node2</title>
<path fill="none" stroke="midnightblue" d="M187.96,-112.9C168.04,-101.4 140.12,-85.27 123.23,-75.51"/>
<polygon fill="midnightblue" stroke="midnightblue" points="186.33,-116 196.74,-117.98 189.83,-109.94 186.33,-116"/>
</g>
<!-- Node5 -->
<g id="node5" class="node">
<title>Node5</title>
<g id="a_node5"><a xlink:href="colordialog__p_8h.html" target="_top" xlink:title=" ">
<polygon fill="white" stroke="black" points="268.5,-56.5 268.5,-75.5 376.5,-75.5 376.5,-56.5 268.5,-56.5"/>
<text text-anchor="middle" x="322.5" y="-63.5" font-family="Helvetica,sans-Serif" font-size="10.00">src/colordialog_p.h</text>
</a>
</g>
</g>
<!-- Node4&#45;&gt;Node5 -->
<g id="edge5" class="edge">
<title>Node4&#45;&gt;Node5</title>
<path fill="none" stroke="midnightblue" d="M376.91,-106.48C362.47,-96 345.53,-83.71 334.43,-75.66"/>
<polygon fill="midnightblue" stroke="midnightblue" points="374.92,-109.36 385.07,-112.4 379.03,-103.69 374.92,-109.36"/>
</g>
<!-- Node7 -->
<g id="node7" class="node">
<title>Node7</title>
<g id="a_node7"><a xlink:href="multispinbox_8cpp.html" target="_top" xlink:title=" ">
<polygon fill="white" stroke="black" points="413.5,-0.5 413.5,-19.5 531.5,-19.5 531.5,-0.5 413.5,-0.5"/>
<text text-anchor="middle" x="472.5" y="-7.5" font-family="Helvetica,sans-Serif" font-size="10.00">src/multispinbox.cpp</text>
</a>
</g>
</g>
<!-- Node4&#45;&gt;Node7 -->
<g id="edge7" class="edge">
<title>Node4&#45;&gt;Node7</title>
<path fill="none" stroke="midnightblue" d="M407.57,-102.28C410.19,-88.02 414.96,-70.07 423.5,-56 432.61,-40.99 448.18,-27.94 459.32,-19.82"/>
<polygon fill="midnightblue" stroke="midnightblue" points="404.08,-101.91 405.96,-112.34 410.99,-103.02 404.08,-101.91"/>
</g>
<!-- Node8 -->
<g id="node8" class="node">
<title>Node8</title>
<g id="a_node8"><a xlink:href="multispinbox__p_8h.html" target="_top" xlink:title=" ">
<polygon fill="white" stroke="black" points="432.5,-56.5 432.5,-75.5 550.5,-75.5 550.5,-56.5 432.5,-56.5"/>
<text text-anchor="middle" x="491.5" y="-63.5" font-family="Helvetica,sans-Serif" font-size="10.00">src/multispinbox_p.h</text>
</a>
</g>
</g>
<!-- Node4&#45;&gt;Node8 -->
<g id="edge8" class="edge">
<title>Node4&#45;&gt;Node8</title>
<path fill="none" stroke="midnightblue" d="M433.77,-106.48C449.09,-96 467.07,-83.71 478.84,-75.66"/>
<polygon fill="midnightblue" stroke="midnightblue" points="431.4,-103.87 425.12,-112.4 435.35,-109.64 431.4,-103.87"/>
</g>
<!-- Node6 -->
<g id="node6" class="node">
<title>Node6</title>
<g id="a_node6"><a xlink:href="colordialog_8cpp.html" target="_top" xlink:title=" ">
<polygon fill="white" stroke="black" points="268.5,-0.5 268.5,-19.5 376.5,-19.5 376.5,-0.5 268.5,-0.5"/>
<text text-anchor="middle" x="322.5" y="-7.5" font-family="Helvetica,sans-Serif" font-size="10.00">src/colordialog.cpp</text>
</a>
</g>
</g>
<!-- Node5&#45;&gt;Node6 -->
<g id="edge6" class="edge">
<title>Node5&#45;&gt;Node6</title>
<path fill="none" stroke="midnightblue" d="M322.5,-45.8C322.5,-36.91 322.5,-26.78 322.5,-19.75"/>
<polygon fill="midnightblue" stroke="midnightblue" points="319,-46.08 322.5,-56.08 326,-46.08 319,-46.08"/>
</g>
<!-- Node8&#45;&gt;Node7 -->
<g id="edge9" class="edge">
<title>Node8&#45;&gt;Node7</title>
<path fill="none" stroke="midnightblue" d="M484.95,-46.4C481.78,-37.36 478.11,-26.94 475.58,-19.75"/>
<polygon fill="midnightblue" stroke="midnightblue" points="481.74,-47.81 488.36,-56.08 488.35,-45.49 481.74,-47.81"/>
</g>
</g>
</svg>
