<?xml version="1.0" encoding="UTF-8" standalone="no"?>
<!DOCTYPE svg PUBLIC "-//W3C//DTD SVG 1.1//EN"
 "http://www.w3.org/Graphics/SVG/1.1/DTD/svg11.dtd">
<!-- Generated by graphviz version 2.43.0 (0)
 -->
<!-- Title: src/refreshiconengine.cpp Pages: 1 -->
<svg width="732pt" height="252pt"
 viewBox="0.00 0.00 731.50 252.00" xmlns="http://www.w3.org/2000/svg" xmlns:xlink="http://www.w3.org/1999/xlink">
<g id="graph0" class="graph" transform="scale(1 1) rotate(0) translate(4 248)">
<title>src/refreshiconengine.cpp</title>
<polygon fill="white" stroke="transparent" points="-4,4 -4,-248 727.5,-248 727.5,4 -4,4"/>
<!-- Node1 -->
<g id="node1" class="node">
<title>Node1</title>
<g id="a_node1"><a xlink:title=" ">
<polygon fill="#bfbfbf" stroke="black" points="328,-224.5 328,-243.5 470,-243.5 470,-224.5 328,-224.5"/>
<text text-anchor="middle" x="399" y="-231.5" font-family="Helvetica,sans-Serif" font-size="10.00">src/refreshiconengine.cpp</text>
</a>
</g>
</g>
<!-- Node2 -->
<g id="node2" class="node">
<title>Node2</title>
<g id="a_node2"><a xlink:href="perceptualcolorglobal_8h.html" target="_top" xlink:title=" ">
<polygon fill="white" stroke="black" points="0,-56.5 0,-75.5 212,-75.5 212,-56.5 0,-56.5"/>
<text text-anchor="middle" x="106" y="-63.5" font-family="Helvetica,sans-Serif" font-size="10.00">PerceptualColor/perceptualcolorglobal.h</text>
</a>
</g>
</g>
<!-- Node1&#45;&gt;Node2 -->
<g id="edge1" class="edge">
<title>Node1&#45;&gt;Node2</title>
<path fill="none" stroke="midnightblue" d="M327.79,-229.77C269.07,-225.22 184.45,-214.29 115,-188 71.64,-171.58 49.31,-172.64 27,-132 14.25,-108.77 43.19,-90.54 69.55,-79.38"/>
<polygon fill="midnightblue" stroke="midnightblue" points="71.08,-82.54 79.07,-75.58 68.49,-76.03 71.08,-82.54"/>
</g>
<!-- Node4 -->
<g id="node4" class="node">
<title>Node4</title>
<g id="a_node4"><a xlink:href="perceptualcolorinternal_8h.html" target="_top" xlink:title=" ">
<polygon fill="white" stroke="black" points="36.5,-112.5 36.5,-131.5 175.5,-131.5 175.5,-112.5 36.5,-112.5"/>
<text text-anchor="middle" x="106" y="-119.5" font-family="Helvetica,sans-Serif" font-size="10.00">perceptualcolorinternal.h</text>
</a>
</g>
</g>
<!-- Node1&#45;&gt;Node4 -->
<g id="edge3" class="edge">
<title>Node1&#45;&gt;Node4</title>
<path fill="none" stroke="midnightblue" d="M327.85,-228.52C259.83,-222.92 163.4,-211.11 134,-188 119.68,-176.75 112.56,-156.73 109.1,-141.88"/>
<polygon fill="midnightblue" stroke="midnightblue" points="112.47,-140.89 107.11,-131.75 105.6,-142.24 112.47,-140.89"/>
</g>
<!-- Node5 -->
<g id="node5" class="node">
<title>Node5</title>
<g id="a_node5"><a xlink:href="refreshiconengine_8h.html" target="_top" xlink:title=" ">
<polygon fill="white" stroke="black" points="143.5,-168.5 143.5,-187.5 256.5,-187.5 256.5,-168.5 143.5,-168.5"/>
<text text-anchor="middle" x="200" y="-175.5" font-family="Helvetica,sans-Serif" font-size="10.00">refreshiconengine.h</text>
</a>
</g>
</g>
<!-- Node1&#45;&gt;Node5 -->
<g id="edge5" class="edge">
<title>Node1&#45;&gt;Node5</title>
<path fill="none" stroke="midnightblue" d="M367.47,-224.44C333.41,-215.2 278.99,-200.44 241.48,-190.26"/>
<polygon fill="midnightblue" stroke="midnightblue" points="241.95,-186.76 231.38,-187.52 240.12,-193.51 241.95,-186.76"/>
</g>
<!-- Node8 -->
<g id="node8" class="node">
<title>Node8</title>
<g id="a_node8"><a xlink:title=" ">
<polygon fill="white" stroke="#bfbfbf" points="274.5,-168.5 274.5,-187.5 353.5,-187.5 353.5,-168.5 274.5,-168.5"/>
<text text-anchor="middle" x="314" y="-175.5" font-family="Helvetica,sans-Serif" font-size="10.00">QApplication</text>
</a>
</g>
</g>
<!-- Node1&#45;&gt;Node8 -->
<g id="edge10" class="edge">
<title>Node1&#45;&gt;Node8</title>
<path fill="none" stroke="midnightblue" d="M385.34,-224.32C372.08,-215.9 351.73,-202.97 336.15,-193.07"/>
<polygon fill="midnightblue" stroke="midnightblue" points="337.94,-190.06 327.62,-187.65 334.19,-195.97 337.94,-190.06"/>
</g>
<!-- Node9 -->
<g id="node9" class="node">
<title>Node9</title>
<g id="a_node9"><a xlink:title=" ">
<polygon fill="white" stroke="#bfbfbf" points="371,-168.5 371,-187.5 427,-187.5 427,-168.5 371,-168.5"/>
<text text-anchor="middle" x="399" y="-175.5" font-family="Helvetica,sans-Serif" font-size="10.00">QDebug</text>
</a>
</g>
</g>
<!-- Node1&#45;&gt;Node9 -->
<g id="edge11" class="edge">
<title>Node1&#45;&gt;Node9</title>
<path fill="none" stroke="midnightblue" d="M399,-224.08C399,-217.01 399,-206.86 399,-197.99"/>
<polygon fill="midnightblue" stroke="midnightblue" points="402.5,-197.75 399,-187.75 395.5,-197.75 402.5,-197.75"/>
</g>
<!-- Node10 -->
<g id="node10" class="node">
<title>Node10</title>
<g id="a_node10"><a xlink:title=" ">
<polygon fill="white" stroke="#bfbfbf" points="445,-168.5 445,-187.5 503,-187.5 503,-168.5 445,-168.5"/>
<text text-anchor="middle" x="474" y="-175.5" font-family="Helvetica,sans-Serif" font-size="10.00">QPainter</text>
</a>
</g>
</g>
<!-- Node1&#45;&gt;Node10 -->
<g id="edge12" class="edge">
<title>Node1&#45;&gt;Node10</title>
<path fill="none" stroke="midnightblue" d="M411.05,-224.32C422.46,-216.11 439.83,-203.6 453.43,-193.81"/>
<polygon fill="midnightblue" stroke="midnightblue" points="455.66,-196.52 461.73,-187.83 451.57,-190.84 455.66,-196.52"/>
</g>
<!-- Node11 -->
<g id="node11" class="node">
<title>Node11</title>
<g id="a_node11"><a xlink:title=" ">
<polygon fill="white" stroke="#bfbfbf" points="521,-168.5 521,-187.5 579,-187.5 579,-168.5 521,-168.5"/>
<text text-anchor="middle" x="550" y="-175.5" font-family="Helvetica,sans-Serif" font-size="10.00">QPalette</text>
</a>
</g>
</g>
<!-- Node1&#45;&gt;Node11 -->
<g id="edge13" class="edge">
<title>Node1&#45;&gt;Node11</title>
<path fill="none" stroke="midnightblue" d="M422.93,-224.44C448.22,-215.4 488.3,-201.06 516.68,-190.92"/>
<polygon fill="midnightblue" stroke="midnightblue" points="517.95,-194.18 526.19,-187.52 515.59,-187.59 517.95,-194.18"/>
</g>
<!-- Node12 -->
<g id="node12" class="node">
<title>Node12</title>
<g id="a_node12"><a xlink:title=" ">
<polygon fill="white" stroke="#bfbfbf" points="597.5,-168.5 597.5,-187.5 646.5,-187.5 646.5,-168.5 597.5,-168.5"/>
<text text-anchor="middle" x="622" y="-175.5" font-family="Helvetica,sans-Serif" font-size="10.00">QStyle</text>
</a>
</g>
</g>
<!-- Node1&#45;&gt;Node12 -->
<g id="edge14" class="edge">
<title>Node1&#45;&gt;Node12</title>
<path fill="none" stroke="midnightblue" d="M436.01,-224.48C472.15,-216.09 528.95,-202.74 587.37,-188.11"/>
<polygon fill="midnightblue" stroke="midnightblue" points="588.29,-191.49 597.14,-185.66 586.58,-184.7 588.29,-191.49"/>
</g>
<!-- Node13 -->
<g id="node13" class="node">
<title>Node13</title>
<g id="a_node13"><a xlink:title=" ">
<polygon fill="white" stroke="#bfbfbf" points="664.5,-168.5 664.5,-187.5 723.5,-187.5 723.5,-168.5 664.5,-168.5"/>
<text text-anchor="middle" x="694" y="-175.5" font-family="Helvetica,sans-Serif" font-size="10.00">QWidget</text>
</a>
</g>
</g>
<!-- Node1&#45;&gt;Node13 -->
<g id="edge15" class="edge">
<title>Node1&#45;&gt;Node13</title>
<path fill="none" stroke="midnightblue" d="M453.33,-224.45C503.22,-216.37 579.45,-203.5 654.12,-188.3"/>
<polygon fill="midnightblue" stroke="midnightblue" points="655.07,-191.68 664.17,-186.24 653.67,-184.82 655.07,-191.68"/>
</g>
<!-- Node3 -->
<g id="node3" class="node">
<title>Node3</title>
<g id="a_node3"><a xlink:title=" ">
<polygon fill="white" stroke="#bfbfbf" points="76.5,-0.5 76.5,-19.5 135.5,-19.5 135.5,-0.5 76.5,-0.5"/>
<text text-anchor="middle" x="106" y="-7.5" font-family="Helvetica,sans-Serif" font-size="10.00">QtGlobal</text>
</a>
</g>
</g>
<!-- Node2&#45;&gt;Node3 -->
<g id="edge2" class="edge">
<title>Node2&#45;&gt;Node3</title>
<path fill="none" stroke="midnightblue" d="M106,-56.08C106,-49.01 106,-38.86 106,-29.99"/>
<polygon fill="midnightblue" stroke="midnightblue" points="109.5,-29.75 106,-19.75 102.5,-29.75 109.5,-29.75"/>
</g>
<!-- Node4&#45;&gt;Node2 -->
<g id="edge4" class="edge">
<title>Node4&#45;&gt;Node2</title>
<path fill="none" stroke="midnightblue" d="M106,-112.08C106,-105.01 106,-94.86 106,-85.99"/>
<polygon fill="midnightblue" stroke="midnightblue" points="109.5,-85.75 106,-75.75 102.5,-85.75 109.5,-85.75"/>
</g>
<!-- Node5&#45;&gt;Node2 -->
<g id="edge6" class="edge">
<title>Node5&#45;&gt;Node2</title>
<path fill="none" stroke="midnightblue" d="M199.95,-168.08C199.43,-154.63 196.71,-128.91 184,-112 173.11,-97.51 156.09,-86.91 140.72,-79.66"/>
<polygon fill="midnightblue" stroke="midnightblue" points="141.99,-76.4 131.43,-75.57 139.17,-82.8 141.99,-76.4"/>
</g>
<!-- Node5&#45;&gt;Node4 -->
<g id="edge7" class="edge">
<title>Node5&#45;&gt;Node4</title>
<path fill="none" stroke="midnightblue" d="M184.9,-168.32C170.1,-159.82 147.31,-146.73 130.02,-136.8"/>
<polygon fill="midnightblue" stroke="midnightblue" points="131.48,-133.6 121.07,-131.65 127.99,-139.67 131.48,-133.6"/>
</g>
<!-- Node6 -->
<g id="node6" class="node">
<title>Node6</title>
<g id="a_node6"><a xlink:title=" ">
<polygon fill="white" stroke="#bfbfbf" points="232.5,-112.5 232.5,-131.5 309.5,-131.5 309.5,-112.5 232.5,-112.5"/>
<text text-anchor="middle" x="271" y="-119.5" font-family="Helvetica,sans-Serif" font-size="10.00">QIconEngine</text>
</a>
</g>
</g>
<!-- Node5&#45;&gt;Node6 -->
<g id="edge8" class="edge">
<title>Node5&#45;&gt;Node6</title>
<path fill="none" stroke="midnightblue" d="M211.41,-168.32C222.11,-160.18 238.34,-147.84 251.16,-138.09"/>
<polygon fill="midnightblue" stroke="midnightblue" points="253.54,-140.67 259.39,-131.83 249.31,-135.1 253.54,-140.67"/>
</g>
<!-- Node7 -->
<g id="node7" class="node">
<title>Node7</title>
<g id="a_node7"><a xlink:title=" ">
<polygon fill="white" stroke="#bfbfbf" points="327.5,-112.5 327.5,-131.5 386.5,-131.5 386.5,-112.5 327.5,-112.5"/>
<text text-anchor="middle" x="357" y="-119.5" font-family="Helvetica,sans-Serif" font-size="10.00">QPointer</text>
</a>
</g>
</g>
<!-- Node5&#45;&gt;Node7 -->
<g id="edge9" class="edge">
<title>Node5&#45;&gt;Node7</title>
<path fill="none" stroke="midnightblue" d="M224.88,-168.44C251.29,-159.36 293.22,-144.94 322.74,-134.78"/>
<polygon fill="midnightblue" stroke="midnightblue" points="323.92,-138.08 332.24,-131.52 321.64,-131.46 323.92,-138.08"/>
</g>
</g>
</svg>
