<?xml version="1.0" encoding="UTF-8" standalone="no"?>
<!DOCTYPE svg PUBLIC "-//W3C//DTD SVG 1.1//EN"
 "http://www.w3.org/Graphics/SVG/1.1/DTD/svg11.dtd">
<!-- Generated by graphviz version 2.43.0 (0)
 -->
<!-- Title: src/rgbcolorspace.h Pages: 1 -->
<svg width="956pt" height="196pt"
 viewBox="0.00 0.00 956.00 196.00" xmlns="http://www.w3.org/2000/svg" xmlns:xlink="http://www.w3.org/1999/xlink">
<g id="graph0" class="graph" transform="scale(1 1) rotate(0) translate(4 192)">
<title>src/rgbcolorspace.h</title>
<polygon fill="white" stroke="transparent" points="-4,4 -4,-192 952,-192 952,4 -4,4"/>
<!-- Node1 -->
<g id="node1" class="node">
<title>Node1</title>
<g id="a_node1"><a xlink:title=" ">
<polygon fill="#bfbfbf" stroke="black" points="492,-168.5 492,-187.5 603,-187.5 603,-168.5 492,-168.5"/>
<text text-anchor="middle" x="547.5" y="-175.5" font-family="Helvetica,sans-Serif" font-size="10.00">src/rgbcolorspace.h</text>
</a>
</g>
</g>
<!-- Node2 -->
<g id="node2" class="node">
<title>Node2</title>
<g id="a_node2"><a xlink:href="perceptualcolorglobal_8h.html" target="_top" xlink:title=" ">
<polygon fill="white" stroke="black" points="336.5,-56.5 336.5,-75.5 548.5,-75.5 548.5,-56.5 336.5,-56.5"/>
<text text-anchor="middle" x="442.5" y="-63.5" font-family="Helvetica,sans-Serif" font-size="10.00">PerceptualColor/perceptualcolorglobal.h</text>
</a>
</g>
</g>
<!-- Node1&#45;&gt;Node2 -->
<g id="edge1" class="edge">
<title>Node1&#45;&gt;Node2</title>
<path fill="none" stroke="midnightblue" d="M519.33,-168.45C500.74,-161.44 477.19,-149.75 462.5,-132 451.57,-118.79 446.61,-99.66 444.36,-85.57"/>
<polygon fill="midnightblue" stroke="midnightblue" points="447.82,-85.03 443.07,-75.56 440.87,-85.93 447.82,-85.03"/>
</g>
<!-- Node4 -->
<g id="node4" class="node">
<title>Node4</title>
<g id="a_node4"><a xlink:href="perceptualcolorinternal_8h.html" target="_top" xlink:title=" ">
<polygon fill="white" stroke="black" points="275,-112.5 275,-131.5 414,-131.5 414,-112.5 275,-112.5"/>
<text text-anchor="middle" x="344.5" y="-119.5" font-family="Helvetica,sans-Serif" font-size="10.00">perceptualcolorinternal.h</text>
</a>
</g>
</g>
<!-- Node1&#45;&gt;Node4 -->
<g id="edge3" class="edge">
<title>Node1&#45;&gt;Node4</title>
<path fill="none" stroke="midnightblue" d="M515.33,-168.44C480.44,-159.16 424.61,-144.31 386.33,-134.13"/>
<polygon fill="midnightblue" stroke="midnightblue" points="387.08,-130.7 376.52,-131.52 385.28,-137.47 387.08,-130.7"/>
</g>
<!-- Node5 -->
<g id="node5" class="node">
<title>Node5</title>
<g id="a_node5"><a xlink:title=" ">
<polygon fill="white" stroke="#bfbfbf" points="818.5,-112.5 818.5,-131.5 874.5,-131.5 874.5,-112.5 818.5,-112.5"/>
<text text-anchor="middle" x="846.5" y="-119.5" font-family="Helvetica,sans-Serif" font-size="10.00">QObject</text>
</a>
</g>
</g>
<!-- Node1&#45;&gt;Node5 -->
<g id="edge5" class="edge">
<title>Node1&#45;&gt;Node5</title>
<path fill="none" stroke="midnightblue" d="M603.14,-168.73C654.24,-160.85 732.27,-148.12 808.06,-132.41"/>
<polygon fill="midnightblue" stroke="midnightblue" points="809.18,-135.75 818.25,-130.28 807.74,-128.9 809.18,-135.75"/>
</g>
<!-- Node6 -->
<g id="node6" class="node">
<title>Node6</title>
<g id="a_node6"><a xlink:href="constpropagatinguniquepointer_8h.html" target="_top" xlink:title=" ">
<polygon fill="white" stroke="black" points="0,-112.5 0,-131.5 257,-131.5 257,-112.5 0,-112.5"/>
<text text-anchor="middle" x="128.5" y="-119.5" font-family="Helvetica,sans-Serif" font-size="10.00">PerceptualColor/constpropagatinguniquepointer.h</text>
</a>
</g>
</g>
<!-- Node1&#45;&gt;Node6 -->
<g id="edge6" class="edge">
<title>Node1&#45;&gt;Node6</title>
<path fill="none" stroke="midnightblue" d="M491.86,-169.83C418.13,-160.33 287.75,-143.52 204.86,-132.84"/>
<polygon fill="midnightblue" stroke="midnightblue" points="205.11,-129.34 194.74,-131.54 204.21,-136.29 205.11,-129.34"/>
</g>
<!-- Node8 -->
<g id="node8" class="node">
<title>Node8</title>
<g id="a_node8"><a xlink:href="lchadouble_8h.html" target="_top" xlink:title=" ">
<polygon fill="white" stroke="black" points="642,-112.5 642,-131.5 801,-131.5 801,-112.5 642,-112.5"/>
<text text-anchor="middle" x="721.5" y="-119.5" font-family="Helvetica,sans-Serif" font-size="10.00">PerceptualColor/lchadouble.h</text>
</a>
</g>
</g>
<!-- Node1&#45;&gt;Node8 -->
<g id="edge9" class="edge">
<title>Node1&#45;&gt;Node8</title>
<path fill="none" stroke="midnightblue" d="M575.07,-168.44C604.6,-159.28 651.62,-144.69 684.38,-134.52"/>
<polygon fill="midnightblue" stroke="midnightblue" points="685.54,-137.82 694.06,-131.52 683.47,-131.14 685.54,-137.82"/>
</g>
<!-- Node10 -->
<g id="node10" class="node">
<title>Node10</title>
<g id="a_node10"><a xlink:href="lchdouble_8h.html" target="_top" xlink:title=" ">
<polygon fill="white" stroke="black" points="471,-112.5 471,-131.5 624,-131.5 624,-112.5 471,-112.5"/>
<text text-anchor="middle" x="547.5" y="-119.5" font-family="Helvetica,sans-Serif" font-size="10.00">PerceptualColor/lchdouble.h</text>
</a>
</g>
</g>
<!-- Node1&#45;&gt;Node10 -->
<g id="edge12" class="edge">
<title>Node1&#45;&gt;Node10</title>
<path fill="none" stroke="midnightblue" d="M547.5,-168.08C547.5,-161.01 547.5,-150.86 547.5,-141.99"/>
<polygon fill="midnightblue" stroke="midnightblue" points="551,-141.75 547.5,-131.75 544,-141.75 551,-141.75"/>
</g>
<!-- Node11 -->
<g id="node11" class="node">
<title>Node11</title>
<g id="a_node11"><a xlink:title=" ">
<polygon fill="white" stroke="#bfbfbf" points="893,-112.5 893,-131.5 948,-131.5 948,-112.5 893,-112.5"/>
<text text-anchor="middle" x="920.5" y="-119.5" font-family="Helvetica,sans-Serif" font-size="10.00">lcms2.h</text>
</a>
</g>
</g>
<!-- Node1&#45;&gt;Node11 -->
<g id="edge15" class="edge">
<title>Node1&#45;&gt;Node11</title>
<path fill="none" stroke="midnightblue" d="M603.08,-171.37C667.86,-164.41 778.29,-151.29 882.61,-131.99"/>
<polygon fill="midnightblue" stroke="midnightblue" points="883.5,-135.38 892.69,-130.1 882.21,-128.5 883.5,-135.38"/>
</g>
<!-- Node3 -->
<g id="node3" class="node">
<title>Node3</title>
<g id="a_node3"><a xlink:title=" ">
<polygon fill="white" stroke="#bfbfbf" points="413,-0.5 413,-19.5 472,-19.5 472,-0.5 413,-0.5"/>
<text text-anchor="middle" x="442.5" y="-7.5" font-family="Helvetica,sans-Serif" font-size="10.00">QtGlobal</text>
</a>
</g>
</g>
<!-- Node2&#45;&gt;Node3 -->
<g id="edge2" class="edge">
<title>Node2&#45;&gt;Node3</title>
<path fill="none" stroke="midnightblue" d="M442.5,-56.08C442.5,-49.01 442.5,-38.86 442.5,-29.99"/>
<polygon fill="midnightblue" stroke="midnightblue" points="446,-29.75 442.5,-19.75 439,-29.75 446,-29.75"/>
</g>
<!-- Node4&#45;&gt;Node2 -->
<g id="edge4" class="edge">
<title>Node4&#45;&gt;Node2</title>
<path fill="none" stroke="midnightblue" d="M360.25,-112.32C375.82,-103.74 399.88,-90.49 417.96,-80.52"/>
<polygon fill="midnightblue" stroke="midnightblue" points="419.72,-83.55 426.79,-75.65 416.35,-77.42 419.72,-83.55"/>
</g>
<!-- Node6&#45;&gt;Node2 -->
<g id="edge7" class="edge">
<title>Node6&#45;&gt;Node2</title>
<path fill="none" stroke="midnightblue" d="M178.25,-112.44C233.83,-102.89 323.76,-87.42 383.02,-77.23"/>
<polygon fill="midnightblue" stroke="midnightblue" points="383.72,-80.66 392.98,-75.52 382.53,-73.76 383.72,-80.66"/>
</g>
<!-- Node7 -->
<g id="node7" class="node">
<title>Node7</title>
<g id="a_node7"><a xlink:title=" ">
<polygon fill="white" stroke="#bfbfbf" points="99.5,-56.5 99.5,-75.5 157.5,-75.5 157.5,-56.5 99.5,-56.5"/>
<text text-anchor="middle" x="128.5" y="-63.5" font-family="Helvetica,sans-Serif" font-size="10.00">memory</text>
</a>
</g>
</g>
<!-- Node6&#45;&gt;Node7 -->
<g id="edge8" class="edge">
<title>Node6&#45;&gt;Node7</title>
<path fill="none" stroke="midnightblue" d="M128.5,-112.08C128.5,-105.01 128.5,-94.86 128.5,-85.99"/>
<polygon fill="midnightblue" stroke="midnightblue" points="132,-85.75 128.5,-75.75 125,-85.75 132,-85.75"/>
</g>
<!-- Node8&#45;&gt;Node2 -->
<g id="edge10" class="edge">
<title>Node8&#45;&gt;Node2</title>
<path fill="none" stroke="midnightblue" d="M677.29,-112.44C628.21,-102.94 548.99,-87.61 496.34,-77.42"/>
<polygon fill="midnightblue" stroke="midnightblue" points="496.98,-73.98 486.5,-75.52 495.65,-80.85 496.98,-73.98"/>
</g>
<!-- Node9 -->
<g id="node9" class="node">
<title>Node9</title>
<g id="a_node9"><a xlink:title=" ">
<polygon fill="white" stroke="#bfbfbf" points="629.5,-56.5 629.5,-75.5 685.5,-75.5 685.5,-56.5 629.5,-56.5"/>
<text text-anchor="middle" x="657.5" y="-63.5" font-family="Helvetica,sans-Serif" font-size="10.00">QDebug</text>
</a>
</g>
</g>
<!-- Node8&#45;&gt;Node9 -->
<g id="edge11" class="edge">
<title>Node8&#45;&gt;Node9</title>
<path fill="none" stroke="midnightblue" d="M711.22,-112.32C701.66,-104.26 687.22,-92.08 675.72,-82.37"/>
<polygon fill="midnightblue" stroke="midnightblue" points="677.87,-79.61 667.97,-75.83 673.36,-84.96 677.87,-79.61"/>
</g>
<!-- Node10&#45;&gt;Node2 -->
<g id="edge13" class="edge">
<title>Node10&#45;&gt;Node2</title>
<path fill="none" stroke="midnightblue" d="M530.63,-112.32C513.79,-103.66 487.69,-90.24 468.26,-80.25"/>
<polygon fill="midnightblue" stroke="midnightblue" points="469.82,-77.12 459.33,-75.65 466.62,-83.34 469.82,-77.12"/>
</g>
<!-- Node10&#45;&gt;Node9 -->
<g id="edge14" class="edge">
<title>Node10&#45;&gt;Node9</title>
<path fill="none" stroke="midnightblue" d="M565.17,-112.32C582.89,-103.62 610.4,-90.12 630.79,-80.11"/>
<polygon fill="midnightblue" stroke="midnightblue" points="632.44,-83.2 639.87,-75.65 629.35,-76.92 632.44,-83.2"/>
</g>
</g>
</svg>
