<?xml version="1.0" encoding="UTF-8" standalone="no"?>
<!DOCTYPE svg PUBLIC "-//W3C//DTD SVG 1.1//EN"
 "http://www.w3.org/Graphics/SVG/1.1/DTD/svg11.dtd">
<!-- Generated by graphviz version 2.43.0 (0)
 -->
<!-- Title: src/rgbcolorspace.h Pages: 1 -->
<svg width="1748pt" height="196pt"
 viewBox="0.00 0.00 1747.50 196.00" xmlns="http://www.w3.org/2000/svg" xmlns:xlink="http://www.w3.org/1999/xlink">
<g id="graph0" class="graph" transform="scale(1 1) rotate(0) translate(4 192)">
<title>src/rgbcolorspace.h</title>
<polygon fill="white" stroke="transparent" points="-4,4 -4,-192 1743.5,-192 1743.5,4 -4,4"/>
<!-- Node1 -->
<g id="node1" class="node">
<title>Node1</title>
<g id="a_node1"><a xlink:title=" ">
<polygon fill="#bfbfbf" stroke="black" points="1079.5,-168.5 1079.5,-187.5 1190.5,-187.5 1190.5,-168.5 1079.5,-168.5"/>
<text text-anchor="middle" x="1135" y="-175.5" font-family="Helvetica,sans-Serif" font-size="10.00">src/rgbcolorspace.h</text>
</a>
</g>
</g>
<!-- Node2 -->
<g id="node2" class="node">
<title>Node2</title>
<g id="a_node2"><a xlink:href="chromahueimage_8h.html" target="_top" xlink:title=" ">
<polygon fill="white" stroke="black" points="169,-112.5 169,-131.5 297,-131.5 297,-112.5 169,-112.5"/>
<text text-anchor="middle" x="233" y="-119.5" font-family="Helvetica,sans-Serif" font-size="10.00">src/chromahueimage.h</text>
</a>
</g>
</g>
<!-- Node1&#45;&gt;Node2 -->
<g id="edge1" class="edge">
<title>Node1&#45;&gt;Node2</title>
<path fill="none" stroke="midnightblue" d="M1069.06,-173.15C937.47,-165.47 632.91,-147.59 377,-132 350.87,-130.41 322.08,-128.62 297.15,-127.05"/>
<polygon fill="midnightblue" stroke="midnightblue" points="1069.18,-176.67 1079.36,-173.76 1069.58,-169.68 1069.18,-176.67"/>
</g>
<!-- Node6 -->
<g id="node6" class="node">
<title>Node6</title>
<g id="a_node6"><a xlink:href="colorwheelimage_8h.html" target="_top" xlink:title=" ">
<polygon fill="white" stroke="black" points="386.5,-112.5 386.5,-131.5 513.5,-131.5 513.5,-112.5 386.5,-112.5"/>
<text text-anchor="middle" x="450" y="-119.5" font-family="Helvetica,sans-Serif" font-size="10.00">src/colorwheelimage.h</text>
</a>
</g>
</g>
<!-- Node1&#45;&gt;Node6 -->
<g id="edge5" class="edge">
<title>Node1&#45;&gt;Node6</title>
<path fill="none" stroke="midnightblue" d="M1068.89,-171.79C937.1,-161.4 643.23,-138.23 513.56,-128.01"/>
<polygon fill="midnightblue" stroke="midnightblue" points="1068.99,-175.31 1079.23,-172.6 1069.54,-168.33 1068.99,-175.31"/>
</g>
<!-- Node11 -->
<g id="node11" class="node">
<title>Node11</title>
<g id="a_node11"><a xlink:href="chromalightnessimage_8h.html" target="_top" xlink:title=" ">
<polygon fill="white" stroke="black" points="834.5,-112.5 834.5,-131.5 989.5,-131.5 989.5,-112.5 834.5,-112.5"/>
<text text-anchor="middle" x="912" y="-119.5" font-family="Helvetica,sans-Serif" font-size="10.00">src/chromalightnessimage.h</text>
</a>
</g>
</g>
<!-- Node1&#45;&gt;Node11 -->
<g id="edge11" class="edge">
<title>Node1&#45;&gt;Node11</title>
<path fill="none" stroke="midnightblue" d="M1089.94,-166.09C1047.81,-155.89 985.76,-140.86 947.17,-131.52"/>
<polygon fill="midnightblue" stroke="midnightblue" points="1089.12,-169.49 1099.66,-168.44 1090.77,-162.69 1089.12,-169.49"/>
</g>
<!-- Node15 -->
<g id="node15" class="node">
<title>Node15</title>
<g id="a_node15"><a xlink:href="rgbcolorspace__p_8h.html" target="_top" xlink:title=" ">
<polygon fill="white" stroke="black" points="985,-56.5 985,-75.5 1107,-75.5 1107,-56.5 985,-56.5"/>
<text text-anchor="middle" x="1046" y="-63.5" font-family="Helvetica,sans-Serif" font-size="10.00">src/rgbcolorspace_p.h</text>
</a>
</g>
</g>
<!-- Node1&#45;&gt;Node15 -->
<g id="edge28" class="edge">
<title>Node1&#45;&gt;Node15</title>
<path fill="none" stroke="midnightblue" d="M1121.72,-160.59C1102.53,-136.87 1067.74,-93.87 1052.95,-75.59"/>
<polygon fill="midnightblue" stroke="midnightblue" points="1119.01,-162.8 1128.02,-168.37 1124.45,-158.39 1119.01,-162.8"/>
</g>
<!-- Node16 -->
<g id="node16" class="node">
<title>Node16</title>
<g id="a_node16"><a xlink:href="rgbcolorspace_8cpp.html" target="_top" xlink:title=" ">
<polygon fill="white" stroke="black" points="1004,-0.5 1004,-19.5 1126,-19.5 1126,-0.5 1004,-0.5"/>
<text text-anchor="middle" x="1065" y="-7.5" font-family="Helvetica,sans-Serif" font-size="10.00">src/rgbcolorspace.cpp</text>
</a>
</g>
</g>
<!-- Node1&#45;&gt;Node16 -->
<g id="edge27" class="edge">
<title>Node1&#45;&gt;Node16</title>
<path fill="none" stroke="midnightblue" d="M1135.87,-158.23C1136.21,-133.31 1133.92,-88.67 1116,-56 1107.48,-40.47 1091.44,-27.69 1079.61,-19.77"/>
<polygon fill="midnightblue" stroke="midnightblue" points="1132.37,-158.35 1135.56,-168.45 1139.36,-158.56 1132.37,-158.35"/>
</g>
<!-- Node17 -->
<g id="node17" class="node">
<title>Node17</title>
<g id="a_node17"><a xlink:href="multicolor_8h.html" target="_top" xlink:title=" ">
<polygon fill="white" stroke="black" points="1171,-112.5 1171,-131.5 1263,-131.5 1263,-112.5 1171,-112.5"/>
<text text-anchor="middle" x="1217" y="-119.5" font-family="Helvetica,sans-Serif" font-size="10.00">src/multicolor.h</text>
</a>
</g>
</g>
<!-- Node1&#45;&gt;Node17 -->
<g id="edge18" class="edge">
<title>Node1&#45;&gt;Node17</title>
<path fill="none" stroke="midnightblue" d="M1156.83,-162.62C1171.81,-152.76 1191.2,-139.99 1203.86,-131.65"/>
<polygon fill="midnightblue" stroke="midnightblue" points="1154.6,-159.9 1148.17,-168.32 1158.45,-165.75 1154.6,-159.9"/>
</g>
<!-- Node19 -->
<g id="node19" class="node">
<title>Node19</title>
<g id="a_node19"><a xlink:href="colordialog_8cpp.html" target="_top" xlink:title=" ">
<polygon fill="white" stroke="black" points="1265,-0.5 1265,-19.5 1373,-19.5 1373,-0.5 1265,-0.5"/>
<text text-anchor="middle" x="1319" y="-7.5" font-family="Helvetica,sans-Serif" font-size="10.00">src/colordialog.cpp</text>
</a>
</g>
</g>
<!-- Node1&#45;&gt;Node19 -->
<g id="edge22" class="edge">
<title>Node1&#45;&gt;Node19</title>
<path fill="none" stroke="midnightblue" d="M1200.59,-173.05C1264.52,-165.25 1358.3,-142.41 1402,-76 1418.95,-50.24 1377.63,-30.23 1347.4,-19.56"/>
<polygon fill="midnightblue" stroke="midnightblue" points="1200.14,-169.58 1190.6,-174.18 1200.93,-176.53 1200.14,-169.58"/>
</g>
<!-- Node21 -->
<g id="node21" class="node">
<title>Node21</title>
<g id="a_node21"><a xlink:href="gradientimage_8h.html" target="_top" xlink:title=" ">
<polygon fill="white" stroke="black" points="1452,-112.5 1452,-131.5 1566,-131.5 1566,-112.5 1452,-112.5"/>
<text text-anchor="middle" x="1509" y="-119.5" font-family="Helvetica,sans-Serif" font-size="10.00">src/gradientimage.h</text>
</a>
</g>
</g>
<!-- Node1&#45;&gt;Node21 -->
<g id="edge23" class="edge">
<title>Node1&#45;&gt;Node21</title>
<path fill="none" stroke="midnightblue" d="M1200.78,-167.5C1271.95,-157.23 1384.28,-141.01 1451.88,-131.25"/>
<polygon fill="midnightblue" stroke="midnightblue" points="1199.98,-164.08 1190.59,-168.97 1200.99,-171.01 1199.98,-164.08"/>
</g>
<!-- Node25 -->
<g id="node25" class="node">
<title>Node25</title>
<g id="a_node25"><a xlink:href="rgbcolorspacefactory_8cpp.html" target="_top" xlink:title=" ">
<polygon fill="white" stroke="black" points="1584.5,-112.5 1584.5,-131.5 1739.5,-131.5 1739.5,-112.5 1584.5,-112.5"/>
<text text-anchor="middle" x="1662" y="-119.5" font-family="Helvetica,sans-Serif" font-size="10.00">src/rgbcolorspacefactory.cpp</text>
</a>
</g>
</g>
<!-- Node1&#45;&gt;Node25 -->
<g id="edge29" class="edge">
<title>Node1&#45;&gt;Node25</title>
<path fill="none" stroke="midnightblue" d="M1200.71,-170.3C1286.71,-161.53 1442.14,-145.67 1575,-132 1578.02,-131.69 1581.1,-131.37 1584.21,-131.05"/>
<polygon fill="midnightblue" stroke="midnightblue" points="1200.16,-166.84 1190.57,-171.34 1200.87,-173.81 1200.16,-166.84"/>
</g>
<!-- Node3 -->
<g id="node3" class="node">
<title>Node3</title>
<g id="a_node3"><a xlink:href="chromahuediagram__p_8h.html" target="_top" xlink:title=" ">
<polygon fill="white" stroke="black" points="158.5,-56.5 158.5,-75.5 307.5,-75.5 307.5,-56.5 158.5,-56.5"/>
<text text-anchor="middle" x="233" y="-63.5" font-family="Helvetica,sans-Serif" font-size="10.00">src/chromahuediagram_p.h</text>
</a>
</g>
</g>
<!-- Node2&#45;&gt;Node3 -->
<g id="edge2" class="edge">
<title>Node2&#45;&gt;Node3</title>
<path fill="none" stroke="midnightblue" d="M233,-101.8C233,-92.91 233,-82.78 233,-75.75"/>
<polygon fill="midnightblue" stroke="midnightblue" points="229.5,-102.08 233,-112.08 236.5,-102.08 229.5,-102.08"/>
</g>
<!-- Node5 -->
<g id="node5" class="node">
<title>Node5</title>
<g id="a_node5"><a xlink:href="chromahueimage_8cpp.html" target="_top" xlink:title=" ">
<polygon fill="white" stroke="black" points="0,-56.5 0,-75.5 140,-75.5 140,-56.5 0,-56.5"/>
<text text-anchor="middle" x="70" y="-63.5" font-family="Helvetica,sans-Serif" font-size="10.00">src/chromahueimage.cpp</text>
</a>
</g>
</g>
<!-- Node2&#45;&gt;Node5 -->
<g id="edge4" class="edge">
<title>Node2&#45;&gt;Node5</title>
<path fill="none" stroke="midnightblue" d="M197.3,-109.17C166.6,-99 123.08,-84.59 95.71,-75.52"/>
<polygon fill="midnightblue" stroke="midnightblue" points="196.58,-112.62 207.17,-112.44 198.78,-105.98 196.58,-112.62"/>
</g>
<!-- Node4 -->
<g id="node4" class="node">
<title>Node4</title>
<g id="a_node4"><a xlink:href="chromahuediagram_8cpp.html" target="_top" xlink:title=" ">
<polygon fill="white" stroke="black" points="158.5,-0.5 158.5,-19.5 307.5,-19.5 307.5,-0.5 158.5,-0.5"/>
<text text-anchor="middle" x="233" y="-7.5" font-family="Helvetica,sans-Serif" font-size="10.00">src/chromahuediagram.cpp</text>
</a>
</g>
</g>
<!-- Node3&#45;&gt;Node4 -->
<g id="edge3" class="edge">
<title>Node3&#45;&gt;Node4</title>
<path fill="none" stroke="midnightblue" d="M233,-45.8C233,-36.91 233,-26.78 233,-19.75"/>
<polygon fill="midnightblue" stroke="midnightblue" points="229.5,-46.08 233,-56.08 236.5,-46.08 229.5,-46.08"/>
</g>
<!-- Node6&#45;&gt;Node3 -->
<g id="edge6" class="edge">
<title>Node6&#45;&gt;Node3</title>
<path fill="none" stroke="midnightblue" d="M405.89,-110.02C364.9,-99.82 304.7,-84.84 267.22,-75.52"/>
<polygon fill="midnightblue" stroke="midnightblue" points="405.07,-113.43 415.62,-112.44 406.76,-106.63 405.07,-113.43"/>
</g>
<!-- Node7 -->
<g id="node7" class="node">
<title>Node7</title>
<g id="a_node7"><a xlink:href="colorwheel__p_8h.html" target="_top" xlink:title=" ">
<polygon fill="white" stroke="black" points="325.5,-56.5 325.5,-75.5 432.5,-75.5 432.5,-56.5 325.5,-56.5"/>
<text text-anchor="middle" x="379" y="-63.5" font-family="Helvetica,sans-Serif" font-size="10.00">src/colorwheel_p.h</text>
</a>
</g>
</g>
<!-- Node6&#45;&gt;Node7 -->
<g id="edge7" class="edge">
<title>Node6&#45;&gt;Node7</title>
<path fill="none" stroke="midnightblue" d="M430.41,-106.1C417.63,-96.38 401.39,-84.03 390.61,-75.83"/>
<polygon fill="midnightblue" stroke="midnightblue" points="428.51,-109.06 438.59,-112.32 432.75,-103.48 428.51,-109.06"/>
</g>
<!-- Node10 -->
<g id="node10" class="node">
<title>Node10</title>
<g id="a_node10"><a xlink:href="colorwheelimage_8cpp.html" target="_top" xlink:title=" ">
<polygon fill="white" stroke="black" points="451,-56.5 451,-75.5 589,-75.5 589,-56.5 451,-56.5"/>
<text text-anchor="middle" x="520" y="-63.5" font-family="Helvetica,sans-Serif" font-size="10.00">src/colorwheelimage.cpp</text>
</a>
</g>
</g>
<!-- Node6&#45;&gt;Node10 -->
<g id="edge10" class="edge">
<title>Node6&#45;&gt;Node10</title>
<path fill="none" stroke="midnightblue" d="M469.31,-106.1C481.91,-96.38 497.93,-84.03 508.55,-75.83"/>
<polygon fill="midnightblue" stroke="midnightblue" points="467.03,-103.44 461.25,-112.32 471.3,-108.99 467.03,-103.44"/>
</g>
<!-- Node8 -->
<g id="node8" class="node">
<title>Node8</title>
<g id="a_node8"><a xlink:href="colorwheel_8cpp.html" target="_top" xlink:title=" ">
<polygon fill="white" stroke="black" points="325.5,-0.5 325.5,-19.5 432.5,-19.5 432.5,-0.5 325.5,-0.5"/>
<text text-anchor="middle" x="379" y="-7.5" font-family="Helvetica,sans-Serif" font-size="10.00">src/colorwheel.cpp</text>
</a>
</g>
</g>
<!-- Node7&#45;&gt;Node8 -->
<g id="edge8" class="edge">
<title>Node7&#45;&gt;Node8</title>
<path fill="none" stroke="midnightblue" d="M379,-45.8C379,-36.91 379,-26.78 379,-19.75"/>
<polygon fill="midnightblue" stroke="midnightblue" points="375.5,-46.08 379,-56.08 382.5,-46.08 375.5,-46.08"/>
</g>
<!-- Node9 -->
<g id="node9" class="node">
<title>Node9</title>
<g id="a_node9"><a xlink:href="wheelcolorpicker_8cpp.html" target="_top" xlink:title=" ">
<polygon fill="white" stroke="black" points="452,-0.5 452,-19.5 588,-19.5 588,-0.5 452,-0.5"/>
<text text-anchor="middle" x="520" y="-7.5" font-family="Helvetica,sans-Serif" font-size="10.00">src/wheelcolorpicker.cpp</text>
</a>
</g>
</g>
<!-- Node7&#45;&gt;Node9 -->
<g id="edge9" class="edge">
<title>Node7&#45;&gt;Node9</title>
<path fill="none" stroke="midnightblue" d="M410.93,-52.77C437.41,-42.63 474.39,-28.47 497.76,-19.52"/>
<polygon fill="midnightblue" stroke="midnightblue" points="409.43,-49.6 401.34,-56.44 411.93,-56.14 409.43,-49.6"/>
</g>
<!-- Node12 -->
<g id="node12" class="node">
<title>Node12</title>
<g id="a_node12"><a xlink:href="chromalightnessdiagram__p_8h.html" target="_top" xlink:title=" ">
<polygon fill="white" stroke="black" points="607,-56.5 607,-75.5 783,-75.5 783,-56.5 607,-56.5"/>
<text text-anchor="middle" x="695" y="-63.5" font-family="Helvetica,sans-Serif" font-size="10.00">src/chromalightnessdiagram_p.h</text>
</a>
</g>
</g>
<!-- Node11&#45;&gt;Node12 -->
<g id="edge12" class="edge">
<title>Node11&#45;&gt;Node12</title>
<path fill="none" stroke="midnightblue" d="M867.89,-110.02C826.9,-99.82 766.7,-84.84 729.22,-75.52"/>
<polygon fill="midnightblue" stroke="midnightblue" points="867.07,-113.43 877.62,-112.44 868.76,-106.63 867.07,-113.43"/>
</g>
<!-- Node14 -->
<g id="node14" class="node">
<title>Node14</title>
<g id="a_node14"><a xlink:href="chromalightnessimage_8cpp.html" target="_top" xlink:title=" ">
<polygon fill="white" stroke="black" points="801,-56.5 801,-75.5 967,-75.5 967,-56.5 801,-56.5"/>
<text text-anchor="middle" x="884" y="-63.5" font-family="Helvetica,sans-Serif" font-size="10.00">src/chromalightnessimage.cpp</text>
</a>
</g>
</g>
<!-- Node11&#45;&gt;Node14 -->
<g id="edge15" class="edge">
<title>Node11&#45;&gt;Node14</title>
<path fill="none" stroke="midnightblue" d="M902.66,-102.98C897.91,-93.82 892.34,-83.09 888.54,-75.75"/>
<polygon fill="midnightblue" stroke="midnightblue" points="899.67,-104.82 907.38,-112.08 905.88,-101.59 899.67,-104.82"/>
</g>
<!-- Node11&#45;&gt;Node15 -->
<g id="edge16" class="edge">
<title>Node11&#45;&gt;Node15</title>
<path fill="none" stroke="midnightblue" d="M942.68,-108.64C967.82,-98.5 1002.75,-84.43 1024.87,-75.52"/>
<polygon fill="midnightblue" stroke="midnightblue" points="941.2,-105.46 933.23,-112.44 943.82,-111.95 941.2,-105.46"/>
</g>
<!-- Node12&#45;&gt;Node9 -->
<g id="edge14" class="edge">
<title>Node12&#45;&gt;Node9</title>
<path fill="none" stroke="midnightblue" d="M657.53,-53.44C624.53,-43.26 577.24,-28.66 547.6,-19.52"/>
<polygon fill="midnightblue" stroke="midnightblue" points="656.68,-56.84 667.27,-56.44 658.75,-50.15 656.68,-56.84"/>
</g>
<!-- Node13 -->
<g id="node13" class="node">
<title>Node13</title>
<g id="a_node13"><a xlink:href="chromalightnessdiagram_8cpp.html" target="_top" xlink:title=" ">
<polygon fill="white" stroke="black" points="607,-0.5 607,-19.5 783,-19.5 783,-0.5 607,-0.5"/>
<text text-anchor="middle" x="695" y="-7.5" font-family="Helvetica,sans-Serif" font-size="10.00">src/chromalightnessdiagram.cpp</text>
</a>
</g>
</g>
<!-- Node12&#45;&gt;Node13 -->
<g id="edge13" class="edge">
<title>Node12&#45;&gt;Node13</title>
<path fill="none" stroke="midnightblue" d="M695,-45.8C695,-36.91 695,-26.78 695,-19.75"/>
<polygon fill="midnightblue" stroke="midnightblue" points="691.5,-46.08 695,-56.08 698.5,-46.08 691.5,-46.08"/>
</g>
<!-- Node15&#45;&gt;Node16 -->
<g id="edge17" class="edge">
<title>Node15&#45;&gt;Node16</title>
<path fill="none" stroke="midnightblue" d="M1052.55,-46.4C1055.72,-37.36 1059.39,-26.94 1061.92,-19.75"/>
<polygon fill="midnightblue" stroke="midnightblue" points="1049.15,-45.49 1049.14,-56.08 1055.76,-47.81 1049.15,-45.49"/>
</g>
<!-- Node18 -->
<g id="node18" class="node">
<title>Node18</title>
<g id="a_node18"><a xlink:href="colordialog__p_8h.html" target="_top" xlink:title=" ">
<polygon fill="white" stroke="black" points="1163,-56.5 1163,-75.5 1271,-75.5 1271,-56.5 1163,-56.5"/>
<text text-anchor="middle" x="1217" y="-63.5" font-family="Helvetica,sans-Serif" font-size="10.00">src/colordialog_p.h</text>
</a>
</g>
</g>
<!-- Node17&#45;&gt;Node18 -->
<g id="edge19" class="edge">
<title>Node17&#45;&gt;Node18</title>
<path fill="none" stroke="midnightblue" d="M1217,-101.8C1217,-92.91 1217,-82.78 1217,-75.75"/>
<polygon fill="midnightblue" stroke="midnightblue" points="1213.5,-102.08 1217,-112.08 1220.5,-102.08 1213.5,-102.08"/>
</g>
<!-- Node20 -->
<g id="node20" class="node">
<title>Node20</title>
<g id="a_node20"><a xlink:href="multicolor_8cpp.html" target="_top" xlink:title=" ">
<polygon fill="white" stroke="black" points="1289.5,-56.5 1289.5,-75.5 1392.5,-75.5 1392.5,-56.5 1289.5,-56.5"/>
<text text-anchor="middle" x="1341" y="-63.5" font-family="Helvetica,sans-Serif" font-size="10.00">src/multicolor.cpp</text>
</a>
</g>
</g>
<!-- Node17&#45;&gt;Node20 -->
<g id="edge21" class="edge">
<title>Node17&#45;&gt;Node20</title>
<path fill="none" stroke="midnightblue" d="M1246.01,-108.37C1269.23,-98.26 1301.16,-84.35 1321.44,-75.52"/>
<polygon fill="midnightblue" stroke="midnightblue" points="1244.42,-105.24 1236.65,-112.44 1247.21,-111.66 1244.42,-105.24"/>
</g>
<!-- Node18&#45;&gt;Node19 -->
<g id="edge20" class="edge">
<title>Node18&#45;&gt;Node19</title>
<path fill="none" stroke="midnightblue" d="M1242.33,-51.59C1261.19,-41.61 1286.38,-28.27 1302.65,-19.65"/>
<polygon fill="midnightblue" stroke="midnightblue" points="1240.59,-48.55 1233.39,-56.32 1243.86,-54.74 1240.59,-48.55"/>
</g>
<!-- Node22 -->
<g id="node22" class="node">
<title>Node22</title>
<g id="a_node22"><a xlink:href="gradientimage_8cpp.html" target="_top" xlink:title=" ">
<polygon fill="white" stroke="black" points="1449.5,-56.5 1449.5,-75.5 1574.5,-75.5 1574.5,-56.5 1449.5,-56.5"/>
<text text-anchor="middle" x="1512" y="-63.5" font-family="Helvetica,sans-Serif" font-size="10.00">src/gradientimage.cpp</text>
</a>
</g>
</g>
<!-- Node21&#45;&gt;Node22 -->
<g id="edge24" class="edge">
<title>Node21&#45;&gt;Node22</title>
<path fill="none" stroke="midnightblue" d="M1510.07,-101.8C1510.56,-92.91 1511.12,-82.78 1511.51,-75.75"/>
<polygon fill="midnightblue" stroke="midnightblue" points="1506.56,-101.9 1509.5,-112.08 1513.54,-102.29 1506.56,-101.9"/>
</g>
<!-- Node23 -->
<g id="node23" class="node">
<title>Node23</title>
<g id="a_node23"><a xlink:href="gradientslider__p_8h.html" target="_top" xlink:title=" ">
<polygon fill="white" stroke="black" points="1593,-56.5 1593,-75.5 1715,-75.5 1715,-56.5 1593,-56.5"/>
<text text-anchor="middle" x="1654" y="-63.5" font-family="Helvetica,sans-Serif" font-size="10.00">src/gradientslider_p.h</text>
</a>
</g>
</g>
<!-- Node21&#45;&gt;Node23 -->
<g id="edge25" class="edge">
<title>Node21&#45;&gt;Node23</title>
<path fill="none" stroke="midnightblue" d="M1541.48,-108.91C1568.74,-98.75 1606.99,-84.51 1631.13,-75.52"/>
<polygon fill="midnightblue" stroke="midnightblue" points="1540.13,-105.67 1531.98,-112.44 1542.57,-112.23 1540.13,-105.67"/>
</g>
<!-- Node24 -->
<g id="node24" class="node">
<title>Node24</title>
<g id="a_node24"><a xlink:href="gradientslider_8cpp.html" target="_top" xlink:title=" ">
<polygon fill="white" stroke="black" points="1593.5,-0.5 1593.5,-19.5 1714.5,-19.5 1714.5,-0.5 1593.5,-0.5"/>
<text text-anchor="middle" x="1654" y="-7.5" font-family="Helvetica,sans-Serif" font-size="10.00">src/gradientslider.cpp</text>
</a>
</g>
</g>
<!-- Node23&#45;&gt;Node24 -->
<g id="edge26" class="edge">
<title>Node23&#45;&gt;Node24</title>
<path fill="none" stroke="midnightblue" d="M1654,-45.8C1654,-36.91 1654,-26.78 1654,-19.75"/>
<polygon fill="midnightblue" stroke="midnightblue" points="1650.5,-46.08 1654,-56.08 1657.5,-46.08 1650.5,-46.08"/>
</g>
</g>
</svg>
