<?xml version="1.0" encoding="UTF-8" standalone="no"?>
<!DOCTYPE svg PUBLIC "-//W3C//DTD SVG 1.1//EN"
 "http://www.w3.org/Graphics/SVG/1.1/DTD/svg11.dtd">
<!-- Generated by graphviz version 2.43.0 (0)
 -->
<!-- Title: include/PerceptualColor/rgbcolorspacefactory.h Pages: 1 -->
<svg width="328pt" height="151pt"
 viewBox="0.00 0.00 327.50 151.00" xmlns="http://www.w3.org/2000/svg" xmlns:xlink="http://www.w3.org/1999/xlink">
<g id="graph0" class="graph" transform="scale(1 1) rotate(0) translate(4 147)">
<title>include/PerceptualColor/rgbcolorspacefactory.h</title>
<polygon fill="white" stroke="transparent" points="-4,4 -4,-147 323.5,-147 323.5,4 -4,4"/>
<!-- Node1 -->
<g id="node1" class="node">
<title>Node1</title>
<g id="a_node1"><a xlink:title=" ">
<polygon fill="#bfbfbf" stroke="black" points="70,-112.5 70,-142.5 202,-142.5 202,-112.5 70,-112.5"/>
<text text-anchor="start" x="78" y="-130.5" font-family="Helvetica,sans-Serif" font-size="10.00">include/PerceptualColor</text>
<text text-anchor="middle" x="136" y="-119.5" font-family="Helvetica,sans-Serif" font-size="10.00">/rgbcolorspacefactory.h</text>
</a>
</g>
</g>
<!-- Node2 -->
<g id="node2" class="node">
<title>Node2</title>
<g id="a_node2"><a xlink:href="colordialog__p_8h.html" target="_top" xlink:title=" ">
<polygon fill="white" stroke="black" points="0,-56.5 0,-75.5 108,-75.5 108,-56.5 0,-56.5"/>
<text text-anchor="middle" x="54" y="-63.5" font-family="Helvetica,sans-Serif" font-size="10.00">src/colordialog_p.h</text>
</a>
</g>
</g>
<!-- Node1&#45;&gt;Node2 -->
<g id="edge1" class="edge">
<title>Node1&#45;&gt;Node2</title>
<path fill="none" stroke="midnightblue" d="M108.41,-106.48C93.97,-96 77.03,-83.71 65.93,-75.66"/>
<polygon fill="midnightblue" stroke="midnightblue" points="106.42,-109.36 116.57,-112.4 110.53,-103.69 106.42,-109.36"/>
</g>
<!-- Node3 -->
<g id="node3" class="node">
<title>Node3</title>
<g id="a_node3"><a xlink:href="colordialog_8cpp.html" target="_top" xlink:title=" ">
<polygon fill="white" stroke="black" points="41,-0.5 41,-19.5 149,-19.5 149,-0.5 41,-0.5"/>
<text text-anchor="middle" x="95" y="-7.5" font-family="Helvetica,sans-Serif" font-size="10.00">src/colordialog.cpp</text>
</a>
</g>
</g>
<!-- Node1&#45;&gt;Node3 -->
<g id="edge3" class="edge">
<title>Node1&#45;&gt;Node3</title>
<path fill="none" stroke="midnightblue" d="M130.7,-102.33C127.38,-88.55 122.66,-71.08 117,-56 112.11,-42.97 104.74,-28.65 99.9,-19.74"/>
<polygon fill="midnightblue" stroke="midnightblue" points="127.38,-103.52 133.05,-112.47 134.2,-101.94 127.38,-103.52"/>
</g>
<!-- Node4 -->
<g id="node4" class="node">
<title>Node4</title>
<g id="a_node4"><a xlink:href="rgbcolorspacefactory_8cpp.html" target="_top" xlink:title=" ">
<polygon fill="white" stroke="black" points="164.5,-56.5 164.5,-75.5 319.5,-75.5 319.5,-56.5 164.5,-56.5"/>
<text text-anchor="middle" x="242" y="-63.5" font-family="Helvetica,sans-Serif" font-size="10.00">src/rgbcolorspacefactory.cpp</text>
</a>
</g>
</g>
<!-- Node1&#45;&gt;Node4 -->
<g id="edge4" class="edge">
<title>Node1&#45;&gt;Node4</title>
<path fill="none" stroke="midnightblue" d="M170.1,-107.36C189.1,-96.69 211.83,-83.93 226.58,-75.66"/>
<polygon fill="midnightblue" stroke="midnightblue" points="168.13,-104.45 161.12,-112.4 171.55,-110.56 168.13,-104.45"/>
</g>
<!-- Node2&#45;&gt;Node3 -->
<g id="edge2" class="edge">
<title>Node2&#45;&gt;Node3</title>
<path fill="none" stroke="midnightblue" d="M67.02,-47.86C74.12,-38.5 82.6,-27.33 88.36,-19.75"/>
<polygon fill="midnightblue" stroke="midnightblue" points="64.03,-46 60.77,-56.08 69.61,-50.24 64.03,-46"/>
</g>
</g>
</svg>
