<?xml version="1.0" encoding="UTF-8" standalone="no"?>
<!DOCTYPE svg PUBLIC "-//W3C//DTD SVG 1.1//EN"
 "http://www.w3.org/Graphics/SVG/1.1/DTD/svg11.dtd">
<!-- Generated by graphviz version 2.43.0 (0)
 -->
<!-- Title: src/rgbcolorspace.cpp Pages: 1 -->
<svg width="1928pt" height="364pt"
 viewBox="0.00 0.00 1927.50 364.00" xmlns="http://www.w3.org/2000/svg" xmlns:xlink="http://www.w3.org/1999/xlink">
<g id="graph0" class="graph" transform="scale(1 1) rotate(0) translate(4 360)">
<title>src/rgbcolorspace.cpp</title>
<polygon fill="white" stroke="transparent" points="-4,4 -4,-360 1923.5,-360 1923.5,4 -4,4"/>
<!-- Node1 -->
<g id="node1" class="node">
<title>Node1</title>
<g id="a_node1"><a xlink:title=" ">
<polygon fill="#bfbfbf" stroke="black" points="1239,-336.5 1239,-355.5 1361,-355.5 1361,-336.5 1239,-336.5"/>
<text text-anchor="middle" x="1300" y="-343.5" font-family="Helvetica,sans-Serif" font-size="10.00">src/rgbcolorspace.cpp</text>
</a>
</g>
</g>
<!-- Node2 -->
<g id="node2" class="node">
<title>Node2</title>
<g id="a_node2"><a xlink:href="perceptualcolorglobal_8h.html" target="_top" xlink:title=" ">
<polygon fill="white" stroke="black" points="506,-56.5 506,-75.5 718,-75.5 718,-56.5 506,-56.5"/>
<text text-anchor="middle" x="612" y="-63.5" font-family="Helvetica,sans-Serif" font-size="10.00">PerceptualColor/perceptualcolorglobal.h</text>
</a>
</g>
</g>
<!-- Node1&#45;&gt;Node2 -->
<g id="edge1" class="edge">
<title>Node1&#45;&gt;Node2</title>
<path fill="none" stroke="midnightblue" d="M1238.78,-343.59C1050.84,-339.04 483.83,-323.69 301,-300 165.27,-282.41 0,-371.86 0,-235 0,-235 0,-235 0,-177 0,-92.36 96.51,-130.96 179,-112 284.68,-87.71 407.9,-76.51 495.82,-71.36"/>
<polygon fill="midnightblue" stroke="midnightblue" points="496.04,-74.85 505.82,-70.79 495.64,-67.86 496.04,-74.85"/>
</g>
<!-- Node4 -->
<g id="node4" class="node">
<title>Node4</title>
<g id="a_node4"><a xlink:href="perceptualcolorinternal_8h.html" target="_top" xlink:title=" ">
<polygon fill="white" stroke="black" points="364.5,-112.5 364.5,-131.5 503.5,-131.5 503.5,-112.5 364.5,-112.5"/>
<text text-anchor="middle" x="434" y="-119.5" font-family="Helvetica,sans-Serif" font-size="10.00">perceptualcolorinternal.h</text>
</a>
</g>
</g>
<!-- Node1&#45;&gt;Node4 -->
<g id="edge3" class="edge">
<title>Node1&#45;&gt;Node4</title>
<path fill="none" stroke="midnightblue" d="M1238.76,-343.93C1061.85,-340.53 552.2,-328.46 388,-300 303.36,-285.33 284.27,-271.85 203,-244 137.25,-221.47 96.37,-245.27 57,-188 22.31,-137.54 233.15,-126.05 353.84,-123.57"/>
<polygon fill="midnightblue" stroke="midnightblue" points="354.22,-127.06 364.15,-123.37 354.09,-120.06 354.22,-127.06"/>
</g>
<!-- Node5 -->
<g id="node5" class="node">
<title>Node5</title>
<g id="a_node5"><a xlink:href="rgbcolorspace_8h.html" target="_top" xlink:title=" ">
<polygon fill="white" stroke="black" points="845,-168.5 845,-187.5 939,-187.5 939,-168.5 845,-168.5"/>
<text text-anchor="middle" x="892" y="-175.5" font-family="Helvetica,sans-Serif" font-size="10.00">rgbcolorspace.h</text>
</a>
</g>
</g>
<!-- Node1&#45;&gt;Node5 -->
<g id="edge5" class="edge">
<title>Node1&#45;&gt;Node5</title>
<path fill="none" stroke="midnightblue" d="M1278.92,-336.42C1211.63,-309.05 1001.75,-223.65 922.61,-191.45"/>
<polygon fill="midnightblue" stroke="midnightblue" points="923.78,-188.15 913.2,-187.62 921.14,-194.63 923.78,-188.15"/>
</g>
<!-- Node10 -->
<g id="node10" class="node">
<title>Node10</title>
<g id="a_node10"><a xlink:title=" ">
<polygon fill="white" stroke="#bfbfbf" points="1171,-56.5 1171,-75.5 1227,-75.5 1227,-56.5 1171,-56.5"/>
<text text-anchor="middle" x="1199" y="-63.5" font-family="Helvetica,sans-Serif" font-size="10.00">QDebug</text>
</a>
</g>
</g>
<!-- Node1&#45;&gt;Node10 -->
<g id="edge58" class="edge">
<title>Node1&#45;&gt;Node10</title>
<path fill="none" stroke="midnightblue" d="M1361.28,-337.44C1457.21,-323.86 1632,-291.39 1632,-235 1632,-235 1632,-235 1632,-177 1632,-146.77 1635.3,-131.25 1612,-112 1583.43,-88.4 1334.49,-73.69 1237.48,-68.8"/>
<polygon fill="midnightblue" stroke="midnightblue" points="1237.39,-65.3 1227.22,-68.3 1237.04,-72.29 1237.39,-65.3"/>
</g>
<!-- Node13 -->
<g id="node13" class="node">
<title>Node13</title>
<g id="a_node13"><a xlink:href="rgbcolorspace__p_8h.html" target="_top" xlink:title=" ">
<polygon fill="white" stroke="black" points="397.5,-280.5 397.5,-299.5 502.5,-299.5 502.5,-280.5 397.5,-280.5"/>
<text text-anchor="middle" x="450" y="-287.5" font-family="Helvetica,sans-Serif" font-size="10.00">rgbcolorspace_p.h</text>
</a>
</g>
</g>
<!-- Node1&#45;&gt;Node13 -->
<g id="edge19" class="edge">
<title>Node1&#45;&gt;Node13</title>
<path fill="none" stroke="midnightblue" d="M1238.87,-341.12C1082.71,-331.2 670.33,-305 512.59,-294.98"/>
<polygon fill="midnightblue" stroke="midnightblue" points="512.77,-291.48 502.57,-294.34 512.33,-298.47 512.77,-291.48"/>
</g>
<!-- Node20 -->
<g id="node20" class="node">
<title>Node20</title>
<g id="a_node20"><a xlink:href="helper_8h.html" target="_top" xlink:title="Various smaller help elements.">
<polygon fill="white" stroke="black" points="1408,-168.5 1408,-187.5 1464,-187.5 1464,-168.5 1408,-168.5"/>
<text text-anchor="middle" x="1436" y="-175.5" font-family="Helvetica,sans-Serif" font-size="10.00">helper.h</text>
</a>
</g>
</g>
<!-- Node1&#45;&gt;Node20 -->
<g id="edge40" class="edge">
<title>Node1&#45;&gt;Node20</title>
<path fill="none" stroke="midnightblue" d="M1307.31,-336.08C1329.18,-309.38 1394.33,-229.87 1422.63,-195.32"/>
<polygon fill="midnightblue" stroke="midnightblue" points="1425.35,-197.52 1428.98,-187.57 1419.94,-193.09 1425.35,-197.52"/>
</g>
<!-- Node22 -->
<g id="node22" class="node">
<title>Node22</title>
<g id="a_node22"><a xlink:href="iohandlerfactory_8h.html" target="_top" xlink:title=" ">
<polygon fill="white" stroke="black" points="1248,-168.5 1248,-187.5 1352,-187.5 1352,-168.5 1248,-168.5"/>
<text text-anchor="middle" x="1300" y="-175.5" font-family="Helvetica,sans-Serif" font-size="10.00">iohandlerfactory.h</text>
</a>
</g>
</g>
<!-- Node1&#45;&gt;Node22 -->
<g id="edge48" class="edge">
<title>Node1&#45;&gt;Node22</title>
<path fill="none" stroke="midnightblue" d="M1300,-336.08C1300,-309.95 1300,-233.21 1300,-197.58"/>
<polygon fill="midnightblue" stroke="midnightblue" points="1303.5,-197.57 1300,-187.57 1296.5,-197.57 1303.5,-197.57"/>
</g>
<!-- Node23 -->
<g id="node23" class="node">
<title>Node23</title>
<g id="a_node23"><a xlink:href="polarpointf_8h.html" target="_top" xlink:title=" ">
<polygon fill="white" stroke="black" points="1692,-168.5 1692,-187.5 1770,-187.5 1770,-168.5 1692,-168.5"/>
<text text-anchor="middle" x="1731" y="-175.5" font-family="Helvetica,sans-Serif" font-size="10.00">polarpointf.h</text>
</a>
</g>
</g>
<!-- Node1&#45;&gt;Node23 -->
<g id="edge52" class="edge">
<title>Node1&#45;&gt;Node23</title>
<path fill="none" stroke="midnightblue" d="M1361.04,-342.92C1447.24,-339 1599.35,-328.21 1646,-300 1686.14,-275.72 1712.29,-224.45 1723.96,-197.09"/>
<polygon fill="midnightblue" stroke="midnightblue" points="1727.31,-198.16 1727.85,-187.58 1720.83,-195.51 1727.31,-198.16"/>
</g>
<!-- Node26 -->
<g id="node26" class="node">
<title>Node26</title>
<g id="a_node26"><a xlink:title=" ">
<polygon fill="white" stroke="#bfbfbf" points="1698,-280.5 1698,-299.5 1754,-299.5 1754,-280.5 1698,-280.5"/>
<text text-anchor="middle" x="1726" y="-287.5" font-family="Helvetica,sans-Serif" font-size="10.00">unistd.h</text>
</a>
</g>
</g>
<!-- Node1&#45;&gt;Node26 -->
<g id="edge59" class="edge">
<title>Node1&#45;&gt;Node26</title>
<path fill="none" stroke="midnightblue" d="M1361.1,-339.64C1437.08,-332.55 1570.59,-318.75 1684,-300 1685.24,-299.79 1686.5,-299.58 1687.77,-299.35"/>
<polygon fill="midnightblue" stroke="midnightblue" points="1688.44,-302.79 1697.6,-297.46 1687.12,-295.91 1688.44,-302.79"/>
</g>
<!-- Node3 -->
<g id="node3" class="node">
<title>Node3</title>
<g id="a_node3"><a xlink:title=" ">
<polygon fill="white" stroke="#bfbfbf" points="1168.5,-0.5 1168.5,-19.5 1227.5,-19.5 1227.5,-0.5 1168.5,-0.5"/>
<text text-anchor="middle" x="1198" y="-7.5" font-family="Helvetica,sans-Serif" font-size="10.00">QtGlobal</text>
</a>
</g>
</g>
<!-- Node2&#45;&gt;Node3 -->
<g id="edge2" class="edge">
<title>Node2&#45;&gt;Node3</title>
<path fill="none" stroke="midnightblue" d="M704.53,-56.47C834.65,-44.48 1066.11,-23.15 1158.41,-14.65"/>
<polygon fill="midnightblue" stroke="midnightblue" points="1158.81,-18.13 1168.45,-13.72 1158.17,-11.16 1158.81,-18.13"/>
</g>
<!-- Node4&#45;&gt;Node2 -->
<g id="edge4" class="edge">
<title>Node4&#45;&gt;Node2</title>
<path fill="none" stroke="midnightblue" d="M462.2,-112.44C492.41,-103.28 540.51,-88.69 574.03,-78.52"/>
<polygon fill="midnightblue" stroke="midnightblue" points="575.37,-81.77 583.93,-75.52 573.34,-75.07 575.37,-81.77"/>
</g>
<!-- Node5&#45;&gt;Node2 -->
<g id="edge6" class="edge">
<title>Node5&#45;&gt;Node2</title>
<path fill="none" stroke="midnightblue" d="M896.97,-168.25C904.02,-154.54 914.63,-127.92 901,-112 888.75,-97.7 793.66,-84.86 715.85,-76.59"/>
<polygon fill="midnightblue" stroke="midnightblue" points="715.79,-73.07 705.48,-75.51 715.06,-80.03 715.79,-73.07"/>
</g>
<!-- Node5&#45;&gt;Node4 -->
<g id="edge7" class="edge">
<title>Node5&#45;&gt;Node4</title>
<path fill="none" stroke="midnightblue" d="M844.71,-171.42C766.54,-162.21 609.52,-143.69 513.89,-132.42"/>
<polygon fill="midnightblue" stroke="midnightblue" points="514.02,-128.91 503.68,-131.22 513.2,-135.86 514.02,-128.91"/>
</g>
<!-- Node6 -->
<g id="node6" class="node">
<title>Node6</title>
<g id="a_node6"><a xlink:title=" ">
<polygon fill="white" stroke="#bfbfbf" points="836,-112.5 836,-131.5 892,-131.5 892,-112.5 836,-112.5"/>
<text text-anchor="middle" x="864" y="-119.5" font-family="Helvetica,sans-Serif" font-size="10.00">QObject</text>
</a>
</g>
</g>
<!-- Node5&#45;&gt;Node6 -->
<g id="edge8" class="edge">
<title>Node5&#45;&gt;Node6</title>
<path fill="none" stroke="midnightblue" d="M887.38,-168.08C883.54,-160.69 877.98,-149.95 873.24,-140.81"/>
<polygon fill="midnightblue" stroke="midnightblue" points="876.25,-139.02 868.54,-131.75 870.03,-142.24 876.25,-139.02"/>
</g>
<!-- Node7 -->
<g id="node7" class="node">
<title>Node7</title>
<g id="a_node7"><a xlink:href="constpropagatinguniquepointer_8h.html" target="_top" xlink:title=" ">
<polygon fill="white" stroke="black" points="560.5,-112.5 560.5,-131.5 817.5,-131.5 817.5,-112.5 560.5,-112.5"/>
<text text-anchor="middle" x="689" y="-119.5" font-family="Helvetica,sans-Serif" font-size="10.00">PerceptualColor/constpropagatinguniquepointer.h</text>
</a>
</g>
</g>
<!-- Node5&#45;&gt;Node7 -->
<g id="edge9" class="edge">
<title>Node5&#45;&gt;Node7</title>
<path fill="none" stroke="midnightblue" d="M859.83,-168.44C824.94,-159.16 769.11,-144.31 730.83,-134.13"/>
<polygon fill="midnightblue" stroke="midnightblue" points="731.58,-130.7 721.02,-131.52 729.78,-137.47 731.58,-130.7"/>
</g>
<!-- Node9 -->
<g id="node9" class="node">
<title>Node9</title>
<g id="a_node9"><a xlink:href="lchadouble_8h.html" target="_top" xlink:title=" ">
<polygon fill="white" stroke="black" points="1119.5,-112.5 1119.5,-131.5 1278.5,-131.5 1278.5,-112.5 1119.5,-112.5"/>
<text text-anchor="middle" x="1199" y="-119.5" font-family="Helvetica,sans-Serif" font-size="10.00">PerceptualColor/lchadouble.h</text>
</a>
</g>
</g>
<!-- Node5&#45;&gt;Node9 -->
<g id="edge12" class="edge">
<title>Node5&#45;&gt;Node9</title>
<path fill="none" stroke="midnightblue" d="M939.3,-168.68C993.4,-159.16 1082.04,-143.57 1140.46,-133.3"/>
<polygon fill="midnightblue" stroke="midnightblue" points="1141.39,-136.69 1150.64,-131.51 1140.18,-129.79 1141.39,-136.69"/>
</g>
<!-- Node11 -->
<g id="node11" class="node">
<title>Node11</title>
<g id="a_node11"><a xlink:href="lchdouble_8h.html" target="_top" xlink:title=" ">
<polygon fill="white" stroke="black" points="948.5,-112.5 948.5,-131.5 1101.5,-131.5 1101.5,-112.5 948.5,-112.5"/>
<text text-anchor="middle" x="1025" y="-119.5" font-family="Helvetica,sans-Serif" font-size="10.00">PerceptualColor/lchdouble.h</text>
</a>
</g>
</g>
<!-- Node5&#45;&gt;Node11 -->
<g id="edge15" class="edge">
<title>Node5&#45;&gt;Node11</title>
<path fill="none" stroke="midnightblue" d="M913.07,-168.44C935.06,-159.52 969.73,-145.44 994.66,-135.32"/>
<polygon fill="midnightblue" stroke="midnightblue" points="996.08,-138.52 1004.02,-131.52 993.44,-132.04 996.08,-138.52"/>
</g>
<!-- Node12 -->
<g id="node12" class="node">
<title>Node12</title>
<g id="a_node12"><a xlink:title=" ">
<polygon fill="white" stroke="#bfbfbf" points="1296.5,-112.5 1296.5,-131.5 1351.5,-131.5 1351.5,-112.5 1296.5,-112.5"/>
<text text-anchor="middle" x="1324" y="-119.5" font-family="Helvetica,sans-Serif" font-size="10.00">lcms2.h</text>
</a>
</g>
</g>
<!-- Node5&#45;&gt;Node12 -->
<g id="edge18" class="edge">
<title>Node5&#45;&gt;Node12</title>
<path fill="none" stroke="midnightblue" d="M939.09,-173.55C1011.53,-167.83 1154.79,-154.86 1285.97,-131.97"/>
<polygon fill="midnightblue" stroke="midnightblue" points="1286.96,-135.35 1296.2,-130.16 1285.74,-128.45 1286.96,-135.35"/>
</g>
<!-- Node7&#45;&gt;Node2 -->
<g id="edge10" class="edge">
<title>Node7&#45;&gt;Node2</title>
<path fill="none" stroke="midnightblue" d="M676.63,-112.32C664.84,-104.06 646.87,-91.45 632.86,-81.63"/>
<polygon fill="midnightblue" stroke="midnightblue" points="634.54,-78.53 624.34,-75.65 630.52,-84.26 634.54,-78.53"/>
</g>
<!-- Node8 -->
<g id="node8" class="node">
<title>Node8</title>
<g id="a_node8"><a xlink:title=" ">
<polygon fill="white" stroke="#bfbfbf" points="736,-56.5 736,-75.5 794,-75.5 794,-56.5 736,-56.5"/>
<text text-anchor="middle" x="765" y="-63.5" font-family="Helvetica,sans-Serif" font-size="10.00">memory</text>
</a>
</g>
</g>
<!-- Node7&#45;&gt;Node8 -->
<g id="edge11" class="edge">
<title>Node7&#45;&gt;Node8</title>
<path fill="none" stroke="midnightblue" d="M701.21,-112.32C712.78,-104.11 730.38,-91.6 744.16,-81.81"/>
<polygon fill="midnightblue" stroke="midnightblue" points="746.44,-84.48 752.57,-75.83 742.39,-78.77 746.44,-84.48"/>
</g>
<!-- Node9&#45;&gt;Node2 -->
<g id="edge13" class="edge">
<title>Node9&#45;&gt;Node2</title>
<path fill="none" stroke="midnightblue" d="M1119.43,-112.91C1116.24,-112.6 1113.09,-112.3 1110,-112 975.7,-99.14 820.93,-85.31 720.03,-76.43"/>
<polygon fill="midnightblue" stroke="midnightblue" points="720.1,-72.92 709.83,-75.53 719.48,-79.89 720.1,-72.92"/>
</g>
<!-- Node9&#45;&gt;Node10 -->
<g id="edge14" class="edge">
<title>Node9&#45;&gt;Node10</title>
<path fill="none" stroke="midnightblue" d="M1199,-112.08C1199,-105.01 1199,-94.86 1199,-85.99"/>
<polygon fill="midnightblue" stroke="midnightblue" points="1202.5,-85.75 1199,-75.75 1195.5,-85.75 1202.5,-85.75"/>
</g>
<!-- Node11&#45;&gt;Node2 -->
<g id="edge16" class="edge">
<title>Node11&#45;&gt;Node2</title>
<path fill="none" stroke="midnightblue" d="M959.56,-112.44C885.55,-102.77 765.23,-87.04 687.36,-76.85"/>
<polygon fill="midnightblue" stroke="midnightblue" points="687.5,-73.34 677.13,-75.52 686.6,-80.28 687.5,-73.34"/>
</g>
<!-- Node11&#45;&gt;Node10 -->
<g id="edge17" class="edge">
<title>Node11&#45;&gt;Node10</title>
<path fill="none" stroke="midnightblue" d="M1052.57,-112.44C1082.1,-103.28 1129.12,-88.69 1161.88,-78.52"/>
<polygon fill="midnightblue" stroke="midnightblue" points="1163.04,-81.82 1171.56,-75.52 1160.97,-75.14 1163.04,-81.82"/>
</g>
<!-- Node13&#45;&gt;Node2 -->
<g id="edge20" class="edge">
<title>Node13&#45;&gt;Node2</title>
<path fill="none" stroke="midnightblue" d="M415.51,-280.43C373.64,-267.97 304.93,-240.39 275,-188 267.23,-174.4 255.73,-134.75 276,-112 304.67,-79.82 410.5,-69.73 495.82,-66.99"/>
<polygon fill="midnightblue" stroke="midnightblue" points="495.96,-70.49 505.86,-66.7 495.76,-63.49 495.96,-70.49"/>
</g>
<!-- Node13&#45;&gt;Node4 -->
<g id="edge21" class="edge">
<title>Node13&#45;&gt;Node4</title>
<path fill="none" stroke="midnightblue" d="M452.2,-280.34C456.94,-260.26 466.9,-209.12 457,-168 454.69,-158.42 449.98,-148.58 445.42,-140.56"/>
<polygon fill="midnightblue" stroke="midnightblue" points="448.29,-138.54 440.1,-131.81 442.31,-142.17 448.29,-138.54"/>
</g>
<!-- Node13&#45;&gt;Node5 -->
<g id="edge22" class="edge">
<title>Node13&#45;&gt;Node5</title>
<path fill="none" stroke="midnightblue" d="M502.63,-282C553.96,-274.61 634.02,-261.59 702,-244 758.92,-229.27 823.3,-205.74 860.61,-191.4"/>
<polygon fill="midnightblue" stroke="midnightblue" points="862.33,-194.48 870.39,-187.61 859.8,-187.96 862.33,-194.48"/>
</g>
<!-- Node14 -->
<g id="node14" class="node">
<title>Node14</title>
<g id="a_node14"><a xlink:href="chromalightnessimage_8h.html" target="_top" xlink:title=" ">
<polygon fill="white" stroke="black" points="556.5,-224.5 556.5,-243.5 693.5,-243.5 693.5,-224.5 556.5,-224.5"/>
<text text-anchor="middle" x="625" y="-231.5" font-family="Helvetica,sans-Serif" font-size="10.00">chromalightnessimage.h</text>
</a>
</g>
</g>
<!-- Node13&#45;&gt;Node14 -->
<g id="edge23" class="edge">
<title>Node13&#45;&gt;Node14</title>
<path fill="none" stroke="midnightblue" d="M477.73,-280.44C507.43,-271.28 554.72,-256.69 587.67,-246.52"/>
<polygon fill="midnightblue" stroke="midnightblue" points="588.88,-249.81 597.4,-243.52 586.81,-243.12 588.88,-249.81"/>
</g>
<!-- Node17 -->
<g id="node17" class="node">
<title>Node17</title>
<g id="a_node17"><a xlink:href="constpropagatingrawpointer_8h.html" target="_top" xlink:title=" ">
<polygon fill="white" stroke="black" points="66,-168.5 66,-187.5 228,-187.5 228,-168.5 66,-168.5"/>
<text text-anchor="middle" x="147" y="-175.5" font-family="Helvetica,sans-Serif" font-size="10.00">constpropagatingrawpointer.h</text>
</a>
</g>
</g>
<!-- Node13&#45;&gt;Node17 -->
<g id="edge29" class="edge">
<title>Node13&#45;&gt;Node17</title>
<path fill="none" stroke="midnightblue" d="M397.43,-283.34C354.31,-277.36 292.39,-265.7 242,-244 212.66,-231.37 182.92,-209.17 164.72,-194.28"/>
<polygon fill="midnightblue" stroke="midnightblue" points="166.68,-191.35 156.77,-187.62 162.19,-196.72 166.68,-191.35"/>
</g>
<!-- Node18 -->
<g id="node18" class="node">
<title>Node18</title>
<g id="a_node18"><a xlink:href="lchvalues_8h.html" target="_top" xlink:title=" ">
<polygon fill="white" stroke="black" points="376,-168.5 376,-187.5 448,-187.5 448,-168.5 376,-168.5"/>
<text text-anchor="middle" x="412" y="-175.5" font-family="Helvetica,sans-Serif" font-size="10.00">lchvalues.h</text>
</a>
</g>
</g>
<!-- Node13&#45;&gt;Node18 -->
<g id="edge32" class="edge">
<title>Node13&#45;&gt;Node18</title>
<path fill="none" stroke="midnightblue" d="M447.02,-280.37C440.86,-262.54 426.61,-221.3 418.31,-197.27"/>
<polygon fill="midnightblue" stroke="midnightblue" points="421.54,-195.9 414.97,-187.59 414.93,-198.19 421.54,-195.9"/>
</g>
<!-- Node19 -->
<g id="node19" class="node">
<title>Node19</title>
<g id="a_node19"><a xlink:href="rgbdouble_8h.html" target="_top" xlink:title=" ">
<polygon fill="white" stroke="black" points="284,-168.5 284,-187.5 358,-187.5 358,-168.5 284,-168.5"/>
<text text-anchor="middle" x="321" y="-175.5" font-family="Helvetica,sans-Serif" font-size="10.00">rgbdouble.h</text>
</a>
</g>
</g>
<!-- Node13&#45;&gt;Node19 -->
<g id="edge36" class="edge">
<title>Node13&#45;&gt;Node19</title>
<path fill="none" stroke="midnightblue" d="M439.88,-280.37C418.02,-261.73 366.19,-217.53 338.75,-194.13"/>
<polygon fill="midnightblue" stroke="midnightblue" points="340.96,-191.42 331.08,-187.59 336.41,-196.74 340.96,-191.42"/>
</g>
<!-- Node14&#45;&gt;Node2 -->
<g id="edge24" class="edge">
<title>Node14&#45;&gt;Node2</title>
<path fill="none" stroke="midnightblue" d="M631.65,-224.26C640.85,-211.03 655.01,-185.6 643,-168 618.25,-131.73 575.75,-168.27 551,-132 537.64,-112.43 562.09,-93.01 583.89,-80.57"/>
<polygon fill="midnightblue" stroke="midnightblue" points="585.82,-83.51 592.96,-75.69 582.49,-77.35 585.82,-83.51"/>
</g>
<!-- Node14&#45;&gt;Node4 -->
<g id="edge25" class="edge">
<title>Node14&#45;&gt;Node4</title>
<path fill="none" stroke="midnightblue" d="M605.61,-224.38C586.73,-215.79 557.41,-201.91 533,-188 504.81,-171.93 473.75,-150.97 454.07,-137.26"/>
<polygon fill="midnightblue" stroke="midnightblue" points="456.08,-134.39 445.88,-131.51 452.06,-140.12 456.08,-134.39"/>
</g>
<!-- Node14&#45;&gt;Node5 -->
<g id="edge28" class="edge">
<title>Node14&#45;&gt;Node5</title>
<path fill="none" stroke="midnightblue" d="M667.31,-224.44C714.08,-214.98 789.46,-199.74 839.85,-189.55"/>
<polygon fill="midnightblue" stroke="midnightblue" points="840.78,-192.93 849.89,-187.52 839.4,-186.07 840.78,-192.93"/>
</g>
<!-- Node15 -->
<g id="node15" class="node">
<title>Node15</title>
<g id="a_node15"><a xlink:title=" ">
<polygon fill="white" stroke="#bfbfbf" points="1408.5,-112.5 1408.5,-131.5 1463.5,-131.5 1463.5,-112.5 1408.5,-112.5"/>
<text text-anchor="middle" x="1436" y="-119.5" font-family="Helvetica,sans-Serif" font-size="10.00">QImage</text>
</a>
</g>
</g>
<!-- Node14&#45;&gt;Node15 -->
<g id="edge26" class="edge">
<title>Node14&#45;&gt;Node15</title>
<path fill="none" stroke="midnightblue" d="M693.76,-231.31C864.84,-226.74 1300.26,-212.8 1361,-188 1386.3,-177.67 1409.05,-155.19 1422.68,-139.58"/>
<polygon fill="midnightblue" stroke="midnightblue" points="1425.52,-141.64 1429.28,-131.73 1420.17,-137.13 1425.52,-141.64"/>
</g>
<!-- Node16 -->
<g id="node16" class="node">
<title>Node16</title>
<g id="a_node16"><a xlink:title=" ">
<polygon fill="white" stroke="#bfbfbf" points="542,-168.5 542,-187.5 634,-187.5 634,-168.5 542,-168.5"/>
<text text-anchor="middle" x="588" y="-175.5" font-family="Helvetica,sans-Serif" font-size="10.00">QSharedPointer</text>
</a>
</g>
</g>
<!-- Node14&#45;&gt;Node16 -->
<g id="edge27" class="edge">
<title>Node14&#45;&gt;Node16</title>
<path fill="none" stroke="midnightblue" d="M618.89,-224.08C613.72,-216.53 606.15,-205.49 599.81,-196.23"/>
<polygon fill="midnightblue" stroke="midnightblue" points="602.54,-194.02 594,-187.75 596.76,-197.98 602.54,-194.02"/>
</g>
<!-- Node17&#45;&gt;Node2 -->
<g id="edge30" class="edge">
<title>Node17&#45;&gt;Node2</title>
<path fill="none" stroke="midnightblue" d="M152.12,-168.43C161.28,-153.97 181.98,-125.02 208,-112 256.89,-87.53 394.57,-76.2 495.67,-71.06"/>
<polygon fill="midnightblue" stroke="midnightblue" points="496.13,-74.54 505.95,-70.56 495.79,-67.55 496.13,-74.54"/>
</g>
<!-- Node17&#45;&gt;Node4 -->
<g id="edge31" class="edge">
<title>Node17&#45;&gt;Node4</title>
<path fill="none" stroke="midnightblue" d="M192.48,-168.44C242.96,-158.94 324.46,-143.61 378.62,-133.42"/>
<polygon fill="midnightblue" stroke="midnightblue" points="379.56,-136.81 388.74,-131.52 378.26,-129.93 379.56,-136.81"/>
</g>
<!-- Node18&#45;&gt;Node2 -->
<g id="edge33" class="edge">
<title>Node18&#45;&gt;Node2</title>
<path fill="none" stroke="midnightblue" d="M394.94,-168.48C372.47,-156.15 337.72,-132.57 355,-112 373.45,-90.03 436.57,-78.79 495.63,-73.03"/>
<polygon fill="midnightblue" stroke="midnightblue" points="496.19,-76.49 505.83,-72.09 495.55,-69.52 496.19,-76.49"/>
</g>
<!-- Node18&#45;&gt;Node4 -->
<g id="edge34" class="edge">
<title>Node18&#45;&gt;Node4</title>
<path fill="none" stroke="midnightblue" d="M415.63,-168.08C418.61,-160.77 422.93,-150.18 426.62,-141.1"/>
<polygon fill="midnightblue" stroke="midnightblue" points="429.9,-142.33 430.43,-131.75 423.42,-139.69 429.9,-142.33"/>
</g>
<!-- Node18&#45;&gt;Node11 -->
<g id="edge35" class="edge">
<title>Node18&#45;&gt;Node11</title>
<path fill="none" stroke="midnightblue" d="M448.06,-173.82C543.01,-165.46 802.01,-142.64 938.38,-130.63"/>
<polygon fill="midnightblue" stroke="midnightblue" points="938.73,-134.11 948.39,-129.75 938.12,-127.14 938.73,-134.11"/>
</g>
<!-- Node19&#45;&gt;Node2 -->
<g id="edge37" class="edge">
<title>Node19&#45;&gt;Node2</title>
<path fill="none" stroke="midnightblue" d="M309.62,-168.31C293.72,-155.15 268.47,-129.81 284,-112 311.36,-80.63 412.79,-70.35 495.69,-67.34"/>
<polygon fill="midnightblue" stroke="midnightblue" points="495.82,-70.84 505.7,-67.01 495.59,-63.84 495.82,-70.84"/>
</g>
<!-- Node19&#45;&gt;Node4 -->
<g id="edge38" class="edge">
<title>Node19&#45;&gt;Node4</title>
<path fill="none" stroke="midnightblue" d="M338.91,-168.44C357.25,-159.68 386.01,-145.94 407.09,-135.86"/>
<polygon fill="midnightblue" stroke="midnightblue" points="408.67,-138.99 416.18,-131.52 405.65,-132.67 408.67,-138.99"/>
</g>
<!-- Node19&#45;&gt;Node10 -->
<g id="edge39" class="edge">
<title>Node19&#45;&gt;Node10</title>
<path fill="none" stroke="midnightblue" d="M322.66,-168.42C325.96,-153.93 334.86,-124.94 355,-112 389.28,-89.98 999.6,-72.29 1160.42,-68"/>
<polygon fill="midnightblue" stroke="midnightblue" points="1160.88,-71.49 1170.78,-67.72 1160.69,-64.49 1160.88,-71.49"/>
</g>
<!-- Node20&#45;&gt;Node2 -->
<g id="edge41" class="edge">
<title>Node20&#45;&gt;Node2</title>
<path fill="none" stroke="midnightblue" d="M1447.08,-168.33C1462.89,-154.96 1488.28,-129.09 1472,-112 1444.67,-83.32 826.44,-78.97 728.32,-75.85"/>
<polygon fill="midnightblue" stroke="midnightblue" points="728.34,-72.35 718.2,-75.43 728.04,-79.34 728.34,-72.35"/>
</g>
<!-- Node20&#45;&gt;Node3 -->
<g id="edge45" class="edge">
<title>Node20&#45;&gt;Node3</title>
<path fill="none" stroke="midnightblue" d="M1464.24,-176.35C1523.48,-173.98 1652.04,-162.98 1612,-112 1565.59,-52.9 1332.16,-24 1237.73,-14.58"/>
<polygon fill="midnightblue" stroke="midnightblue" points="1238.01,-11.09 1227.72,-13.6 1237.33,-18.06 1238.01,-11.09"/>
</g>
<!-- Node20&#45;&gt;Node4 -->
<g id="edge42" class="edge">
<title>Node20&#45;&gt;Node4</title>
<path fill="none" stroke="midnightblue" d="M1407.91,-173.12C1393.85,-171.31 1376.55,-169.28 1361,-168 1001.85,-138.51 910.69,-153.82 551,-132 539.01,-131.27 526.33,-130.4 513.92,-129.49"/>
<polygon fill="midnightblue" stroke="midnightblue" points="513.81,-125.98 503.58,-128.72 513.29,-132.96 513.81,-125.98"/>
</g>
<!-- Node20&#45;&gt;Node11 -->
<g id="edge46" class="edge">
<title>Node20&#45;&gt;Node11</title>
<path fill="none" stroke="midnightblue" d="M1407.75,-173.29C1345.08,-165.05 1192.67,-145.03 1100.19,-132.88"/>
<polygon fill="midnightblue" stroke="midnightblue" points="1100.42,-129.38 1090.05,-131.55 1099.51,-136.32 1100.42,-129.38"/>
</g>
<!-- Node20&#45;&gt;Node12 -->
<g id="edge47" class="edge">
<title>Node20&#45;&gt;Node12</title>
<path fill="none" stroke="midnightblue" d="M1418.01,-168.32C1399.96,-159.62 1371.95,-146.12 1351.2,-136.11"/>
<polygon fill="midnightblue" stroke="midnightblue" points="1352.48,-132.84 1341.95,-131.65 1349.44,-139.15 1352.48,-132.84"/>
</g>
<!-- Node20&#45;&gt;Node15 -->
<g id="edge43" class="edge">
<title>Node20&#45;&gt;Node15</title>
<path fill="none" stroke="midnightblue" d="M1436,-168.08C1436,-161.01 1436,-150.86 1436,-141.99"/>
<polygon fill="midnightblue" stroke="midnightblue" points="1439.5,-141.75 1436,-131.75 1432.5,-141.75 1439.5,-141.75"/>
</g>
<!-- Node21 -->
<g id="node21" class="node">
<title>Node21</title>
<g id="a_node21"><a xlink:title=" ">
<polygon fill="white" stroke="#bfbfbf" points="1520.5,-112.5 1520.5,-131.5 1603.5,-131.5 1603.5,-112.5 1520.5,-112.5"/>
<text text-anchor="middle" x="1562" y="-119.5" font-family="Helvetica,sans-Serif" font-size="10.00">QWheelEvent</text>
</a>
</g>
</g>
<!-- Node20&#45;&gt;Node21 -->
<g id="edge44" class="edge">
<title>Node20&#45;&gt;Node21</title>
<path fill="none" stroke="midnightblue" d="M1455.97,-168.44C1476.61,-159.6 1509.06,-145.69 1532.63,-135.59"/>
<polygon fill="midnightblue" stroke="midnightblue" points="1534.32,-138.67 1542.13,-131.52 1531.56,-132.24 1534.32,-138.67"/>
</g>
<!-- Node22&#45;&gt;Node2 -->
<g id="edge49" class="edge">
<title>Node22&#45;&gt;Node2</title>
<path fill="none" stroke="midnightblue" d="M1318.14,-168.32C1342.02,-155.8 1378.88,-131.98 1360,-112 1336.99,-87.65 816.86,-79.2 728.3,-75.87"/>
<polygon fill="midnightblue" stroke="midnightblue" points="728.35,-72.37 718.2,-75.39 728.02,-79.36 728.35,-72.37"/>
</g>
<!-- Node22&#45;&gt;Node4 -->
<g id="edge50" class="edge">
<title>Node22&#45;&gt;Node4</title>
<path fill="none" stroke="midnightblue" d="M1247.77,-174.16C1125.76,-167.47 812.55,-149.92 551,-132 539.01,-131.18 526.34,-130.26 513.93,-129.33"/>
<polygon fill="midnightblue" stroke="midnightblue" points="513.82,-125.81 503.59,-128.55 513.29,-132.79 513.82,-125.81"/>
</g>
<!-- Node22&#45;&gt;Node12 -->
<g id="edge51" class="edge">
<title>Node22&#45;&gt;Node12</title>
<path fill="none" stroke="midnightblue" d="M1303.96,-168.08C1307.21,-160.77 1311.92,-150.18 1315.95,-141.1"/>
<polygon fill="midnightblue" stroke="midnightblue" points="1319.25,-142.31 1320.11,-131.75 1312.85,-139.47 1319.25,-142.31"/>
</g>
<!-- Node23&#45;&gt;Node2 -->
<g id="edge53" class="edge">
<title>Node23&#45;&gt;Node2</title>
<path fill="none" stroke="midnightblue" d="M1719.62,-168.41C1699.31,-153.65 1654.88,-123.88 1612,-112 1425.37,-60.29 939.48,-86.79 728.35,-76.02"/>
<polygon fill="midnightblue" stroke="midnightblue" points="728.37,-72.51 718.2,-75.46 727.99,-79.5 728.37,-72.51"/>
</g>
<!-- Node23&#45;&gt;Node4 -->
<g id="edge54" class="edge">
<title>Node23&#45;&gt;Node4</title>
<path fill="none" stroke="midnightblue" d="M1691.9,-175.6C1500.51,-168.73 666.83,-138.66 551,-132 539,-131.31 526.32,-130.46 513.91,-129.56"/>
<polygon fill="midnightblue" stroke="midnightblue" points="513.8,-126.04 503.57,-128.8 513.29,-133.02 513.8,-126.04"/>
</g>
<!-- Node23&#45;&gt;Node10 -->
<g id="edge55" class="edge">
<title>Node23&#45;&gt;Node10</title>
<path fill="none" stroke="midnightblue" d="M1752.59,-168.4C1779.86,-156.35 1820.97,-133.52 1801,-112 1762.68,-70.71 1364.17,-67.03 1237.46,-66.92"/>
<polygon fill="midnightblue" stroke="midnightblue" points="1237.09,-63.42 1227.09,-66.91 1237.09,-70.42 1237.09,-63.42"/>
</g>
<!-- Node24 -->
<g id="node24" class="node">
<title>Node24</title>
<g id="a_node24"><a xlink:title=" ">
<polygon fill="white" stroke="#bfbfbf" points="1848.5,-112.5 1848.5,-131.5 1919.5,-131.5 1919.5,-112.5 1848.5,-112.5"/>
<text text-anchor="middle" x="1884" y="-119.5" font-family="Helvetica,sans-Serif" font-size="10.00">QMetaType</text>
</a>
</g>
</g>
<!-- Node23&#45;&gt;Node24 -->
<g id="edge56" class="edge">
<title>Node23&#45;&gt;Node24</title>
<path fill="none" stroke="midnightblue" d="M1755.24,-168.44C1780.87,-159.4 1821.49,-145.06 1850.24,-134.92"/>
<polygon fill="midnightblue" stroke="midnightblue" points="1851.61,-138.15 1859.87,-131.52 1849.28,-131.54 1851.61,-138.15"/>
</g>
<!-- Node25 -->
<g id="node25" class="node">
<title>Node25</title>
<g id="a_node25"><a xlink:title=" ">
<polygon fill="white" stroke="#bfbfbf" points="1736.5,-112.5 1736.5,-131.5 1791.5,-131.5 1791.5,-112.5 1736.5,-112.5"/>
<text text-anchor="middle" x="1764" y="-119.5" font-family="Helvetica,sans-Serif" font-size="10.00">QPointF</text>
</a>
</g>
</g>
<!-- Node23&#45;&gt;Node25 -->
<g id="edge57" class="edge">
<title>Node23&#45;&gt;Node25</title>
<path fill="none" stroke="midnightblue" d="M1736.45,-168.08C1741.01,-160.61 1747.67,-149.72 1753.29,-140.52"/>
<polygon fill="midnightblue" stroke="midnightblue" points="1756.42,-142.11 1758.65,-131.75 1750.45,-138.46 1756.42,-142.11"/>
</g>
</g>
</svg>
