<?xml version="1.0" encoding="UTF-8" standalone="no"?>
<!DOCTYPE svg PUBLIC "-//W3C//DTD SVG 1.1//EN"
 "http://www.w3.org/Graphics/SVG/1.1/DTD/svg11.dtd">
<!-- Generated by graphviz version 2.43.0 (0)
 -->
<!-- Title: src/rgbcolorspacefactory.cpp Pages: 1 -->
<svg width="1127pt" height="252pt"
 viewBox="0.00 0.00 1127.36 252.00" xmlns="http://www.w3.org/2000/svg" xmlns:xlink="http://www.w3.org/1999/xlink">
<g id="graph0" class="graph" transform="scale(1 1) rotate(0) translate(4 248)">
<title>src/rgbcolorspacefactory.cpp</title>
<polygon fill="white" stroke="transparent" points="-4,4 -4,-248 1123.36,-248 1123.36,4 -4,4"/>
<!-- Node1 -->
<g id="node1" class="node">
<title>Node1</title>
<g id="a_node1"><a xlink:title=" ">
<polygon fill="#bfbfbf" stroke="black" points="123.36,-224.5 123.36,-243.5 278.36,-243.5 278.36,-224.5 123.36,-224.5"/>
<text text-anchor="middle" x="200.86" y="-231.5" font-family="Helvetica,sans-Serif" font-size="10.00">src/rgbcolorspacefactory.cpp</text>
</a>
</g>
</g>
<!-- Node2 -->
<g id="node2" class="node">
<title>Node2</title>
<g id="a_node2"><a xlink:href="perceptualcolorglobal_8h.html" target="_top" xlink:title=" ">
<polygon fill="white" stroke="black" points="232.86,-56.5 232.86,-75.5 444.86,-75.5 444.86,-56.5 232.86,-56.5"/>
<text text-anchor="middle" x="338.86" y="-63.5" font-family="Helvetica,sans-Serif" font-size="10.00">PerceptualColor/perceptualcolorglobal.h</text>
</a>
</g>
</g>
<!-- Node1&#45;&gt;Node2 -->
<g id="edge1" class="edge">
<title>Node1&#45;&gt;Node2</title>
<path fill="none" stroke="midnightblue" d="M136.46,-224.46C91.63,-217.15 37.25,-205.08 21.86,-188 -0.87,-162.76 -8.45,-137.61 13.86,-112 40.85,-81.02 140.59,-70.67 222.54,-67.53"/>
<polygon fill="midnightblue" stroke="midnightblue" points="222.82,-71.02 232.7,-67.17 222.58,-64.03 222.82,-71.02"/>
</g>
<!-- Node4 -->
<g id="node4" class="node">
<title>Node4</title>
<g id="a_node4"><a xlink:href="perceptualcolorinternal_8h.html" target="_top" xlink:title=" ">
<polygon fill="white" stroke="black" points="171.36,-112.5 171.36,-131.5 310.36,-131.5 310.36,-112.5 171.36,-112.5"/>
<text text-anchor="middle" x="240.86" y="-119.5" font-family="Helvetica,sans-Serif" font-size="10.00">perceptualcolorinternal.h</text>
</a>
</g>
</g>
<!-- Node1&#45;&gt;Node4 -->
<g id="edge3" class="edge">
<title>Node1&#45;&gt;Node4</title>
<path fill="none" stroke="midnightblue" d="M214.65,-224.19C225.69,-216.24 240.37,-203.45 246.86,-188 253.04,-173.31 250.62,-155.15 247.19,-141.76"/>
<polygon fill="midnightblue" stroke="midnightblue" points="250.43,-140.4 244.23,-131.81 243.73,-142.4 250.43,-140.4"/>
</g>
<!-- Node5 -->
<g id="node5" class="node">
<title>Node5</title>
<g id="a_node5"><a xlink:href="rgbcolorspacefactory_8h.html" target="_top" xlink:title=" ">
<polygon fill="white" stroke="black" points="31.36,-168.5 31.36,-187.5 238.36,-187.5 238.36,-168.5 31.36,-168.5"/>
<text text-anchor="middle" x="134.86" y="-175.5" font-family="Helvetica,sans-Serif" font-size="10.00">PerceptualColor/rgbcolorspacefactory.h</text>
</a>
</g>
</g>
<!-- Node1&#45;&gt;Node5 -->
<g id="edge5" class="edge">
<title>Node1&#45;&gt;Node5</title>
<path fill="none" stroke="midnightblue" d="M190.26,-224.32C180.41,-216.26 165.51,-204.08 153.65,-194.37"/>
<polygon fill="midnightblue" stroke="midnightblue" points="155.62,-191.46 145.66,-187.83 151.18,-196.88 155.62,-191.46"/>
</g>
<!-- Node7 -->
<g id="node7" class="node">
<title>Node7</title>
<g id="a_node7"><a xlink:href="rgbcolorspace_8h.html" target="_top" xlink:title=" ">
<polygon fill="white" stroke="black" points="559.86,-168.5 559.86,-187.5 653.86,-187.5 653.86,-168.5 559.86,-168.5"/>
<text text-anchor="middle" x="606.86" y="-175.5" font-family="Helvetica,sans-Serif" font-size="10.00">rgbcolorspace.h</text>
</a>
</g>
</g>
<!-- Node1&#45;&gt;Node7 -->
<g id="edge9" class="edge">
<title>Node1&#45;&gt;Node7</title>
<path fill="none" stroke="midnightblue" d="M265.2,-224.44C343.46,-214.03 474.41,-196.62 549.42,-186.64"/>
<polygon fill="midnightblue" stroke="midnightblue" points="550.17,-190.07 559.62,-185.28 549.25,-183.13 550.17,-190.07"/>
</g>
<!-- Node3 -->
<g id="node3" class="node">
<title>Node3</title>
<g id="a_node3"><a xlink:title=" ">
<polygon fill="white" stroke="#bfbfbf" points="309.36,-0.5 309.36,-19.5 368.36,-19.5 368.36,-0.5 309.36,-0.5"/>
<text text-anchor="middle" x="338.86" y="-7.5" font-family="Helvetica,sans-Serif" font-size="10.00">QtGlobal</text>
</a>
</g>
</g>
<!-- Node2&#45;&gt;Node3 -->
<g id="edge2" class="edge">
<title>Node2&#45;&gt;Node3</title>
<path fill="none" stroke="midnightblue" d="M338.86,-56.08C338.86,-49.01 338.86,-38.86 338.86,-29.99"/>
<polygon fill="midnightblue" stroke="midnightblue" points="342.36,-29.75 338.86,-19.75 335.36,-29.75 342.36,-29.75"/>
</g>
<!-- Node4&#45;&gt;Node2 -->
<g id="edge4" class="edge">
<title>Node4&#45;&gt;Node2</title>
<path fill="none" stroke="midnightblue" d="M256.61,-112.32C272.18,-103.74 296.24,-90.49 314.32,-80.52"/>
<polygon fill="midnightblue" stroke="midnightblue" points="316.09,-83.55 323.16,-75.65 312.71,-77.42 316.09,-83.55"/>
</g>
<!-- Node5&#45;&gt;Node2 -->
<g id="edge6" class="edge">
<title>Node5&#45;&gt;Node2</title>
<path fill="none" stroke="midnightblue" d="M135.96,-168.41C138.21,-154.44 144.67,-126.87 161.86,-112 181.02,-95.43 205.46,-84.82 230.02,-78.06"/>
<polygon fill="midnightblue" stroke="midnightblue" points="230.97,-81.43 239.8,-75.57 229.24,-74.65 230.97,-81.43"/>
</g>
<!-- Node5&#45;&gt;Node4 -->
<g id="edge7" class="edge">
<title>Node5&#45;&gt;Node4</title>
<path fill="none" stroke="midnightblue" d="M151.89,-168.32C168.89,-159.66 195.24,-146.24 214.86,-136.25"/>
<polygon fill="midnightblue" stroke="midnightblue" points="216.55,-139.31 223.87,-131.65 213.38,-133.08 216.55,-139.31"/>
</g>
<!-- Node6 -->
<g id="node6" class="node">
<title>Node6</title>
<g id="a_node6"><a xlink:title=" ">
<polygon fill="white" stroke="#bfbfbf" points="22.86,-112.5 22.86,-131.5 114.86,-131.5 114.86,-112.5 22.86,-112.5"/>
<text text-anchor="middle" x="68.86" y="-119.5" font-family="Helvetica,sans-Serif" font-size="10.00">QSharedPointer</text>
</a>
</g>
</g>
<!-- Node5&#45;&gt;Node6 -->
<g id="edge8" class="edge">
<title>Node5&#45;&gt;Node6</title>
<path fill="none" stroke="midnightblue" d="M124.26,-168.32C114.41,-160.26 99.51,-148.08 87.65,-138.37"/>
<polygon fill="midnightblue" stroke="midnightblue" points="89.62,-135.46 79.66,-131.83 85.18,-140.88 89.62,-135.46"/>
</g>
<!-- Node7&#45;&gt;Node2 -->
<g id="edge10" class="edge">
<title>Node7&#45;&gt;Node2</title>
<path fill="none" stroke="midnightblue" d="M559.7,-174.3C495.96,-169.69 386.93,-158.15 357.86,-132 344.91,-120.35 340.59,-100.4 339.24,-85.67"/>
<polygon fill="midnightblue" stroke="midnightblue" points="342.73,-85.44 338.7,-75.64 335.75,-85.82 342.73,-85.44"/>
</g>
<!-- Node7&#45;&gt;Node4 -->
<g id="edge11" class="edge">
<title>Node7&#45;&gt;Node4</title>
<path fill="none" stroke="midnightblue" d="M559.76,-170.05C495.96,-160.64 381.67,-143.78 308.65,-133"/>
<polygon fill="midnightblue" stroke="midnightblue" points="309.03,-129.52 298.63,-131.52 308.01,-136.44 309.03,-129.52"/>
</g>
<!-- Node8 -->
<g id="node8" class="node">
<title>Node8</title>
<g id="a_node8"><a xlink:title=" ">
<polygon fill="white" stroke="#bfbfbf" points="989.86,-112.5 989.86,-131.5 1045.86,-131.5 1045.86,-112.5 989.86,-112.5"/>
<text text-anchor="middle" x="1017.86" y="-119.5" font-family="Helvetica,sans-Serif" font-size="10.00">QObject</text>
</a>
</g>
</g>
<!-- Node7&#45;&gt;Node8 -->
<g id="edge12" class="edge">
<title>Node7&#45;&gt;Node8</title>
<path fill="none" stroke="midnightblue" d="M653.92,-173.26C723.36,-167.33 857.51,-154.28 979.74,-132.22"/>
<polygon fill="midnightblue" stroke="midnightblue" points="980.43,-135.65 989.64,-130.41 979.17,-128.77 980.43,-135.65"/>
</g>
<!-- Node9 -->
<g id="node9" class="node">
<title>Node9</title>
<g id="a_node9"><a xlink:href="constpropagatinguniquepointer_8h.html" target="_top" xlink:title=" ">
<polygon fill="white" stroke="black" points="367.36,-112.5 367.36,-131.5 624.36,-131.5 624.36,-112.5 367.36,-112.5"/>
<text text-anchor="middle" x="495.86" y="-119.5" font-family="Helvetica,sans-Serif" font-size="10.00">PerceptualColor/constpropagatinguniquepointer.h</text>
</a>
</g>
</g>
<!-- Node7&#45;&gt;Node9 -->
<g id="edge13" class="edge">
<title>Node7&#45;&gt;Node9</title>
<path fill="none" stroke="midnightblue" d="M589.03,-168.32C571.15,-159.62 543.39,-146.12 522.82,-136.11"/>
<polygon fill="midnightblue" stroke="midnightblue" points="524.18,-132.88 513.65,-131.65 521.11,-139.18 524.18,-132.88"/>
</g>
<!-- Node11 -->
<g id="node11" class="node">
<title>Node11</title>
<g id="a_node11"><a xlink:href="lchadouble_8h.html" target="_top" xlink:title=" ">
<polygon fill="white" stroke="black" points="813.36,-112.5 813.36,-131.5 972.36,-131.5 972.36,-112.5 813.36,-112.5"/>
<text text-anchor="middle" x="892.86" y="-119.5" font-family="Helvetica,sans-Serif" font-size="10.00">PerceptualColor/lchadouble.h</text>
</a>
</g>
</g>
<!-- Node7&#45;&gt;Node11 -->
<g id="edge16" class="edge">
<title>Node7&#45;&gt;Node11</title>
<path fill="none" stroke="midnightblue" d="M652.18,-168.44C702.49,-158.94 783.7,-143.61 837.68,-133.42"/>
<polygon fill="midnightblue" stroke="midnightblue" points="838.58,-136.81 847.76,-131.52 837.28,-129.93 838.58,-136.81"/>
</g>
<!-- Node13 -->
<g id="node13" class="node">
<title>Node13</title>
<g id="a_node13"><a xlink:href="lchdouble_8h.html" target="_top" xlink:title=" ">
<polygon fill="white" stroke="black" points="642.36,-112.5 642.36,-131.5 795.36,-131.5 795.36,-112.5 642.36,-112.5"/>
<text text-anchor="middle" x="718.86" y="-119.5" font-family="Helvetica,sans-Serif" font-size="10.00">PerceptualColor/lchdouble.h</text>
</a>
</g>
</g>
<!-- Node7&#45;&gt;Node13 -->
<g id="edge19" class="edge">
<title>Node7&#45;&gt;Node13</title>
<path fill="none" stroke="midnightblue" d="M624.86,-168.32C642.9,-159.62 670.91,-146.12 691.67,-136.11"/>
<polygon fill="midnightblue" stroke="midnightblue" points="693.43,-139.15 700.91,-131.65 690.39,-132.84 693.43,-139.15"/>
</g>
<!-- Node14 -->
<g id="node14" class="node">
<title>Node14</title>
<g id="a_node14"><a xlink:title=" ">
<polygon fill="white" stroke="#bfbfbf" points="1064.36,-112.5 1064.36,-131.5 1119.36,-131.5 1119.36,-112.5 1064.36,-112.5"/>
<text text-anchor="middle" x="1091.86" y="-119.5" font-family="Helvetica,sans-Serif" font-size="10.00">lcms2.h</text>
</a>
</g>
</g>
<!-- Node7&#45;&gt;Node14 -->
<g id="edge22" class="edge">
<title>Node7&#45;&gt;Node14</title>
<path fill="none" stroke="midnightblue" d="M653.91,-174.42C734.08,-169.57 902.38,-157.34 1054.1,-131.89"/>
<polygon fill="midnightblue" stroke="midnightblue" points="1054.8,-135.33 1064.07,-130.2 1053.62,-128.42 1054.8,-135.33"/>
</g>
<!-- Node9&#45;&gt;Node2 -->
<g id="edge14" class="edge">
<title>Node9&#45;&gt;Node2</title>
<path fill="none" stroke="midnightblue" d="M470.99,-112.44C444.57,-103.36 402.65,-88.94 373.12,-78.78"/>
<polygon fill="midnightblue" stroke="midnightblue" points="374.22,-75.46 363.62,-75.52 371.94,-82.08 374.22,-75.46"/>
</g>
<!-- Node10 -->
<g id="node10" class="node">
<title>Node10</title>
<g id="a_node10"><a xlink:title=" ">
<polygon fill="white" stroke="#bfbfbf" points="466.86,-56.5 466.86,-75.5 524.86,-75.5 524.86,-56.5 466.86,-56.5"/>
<text text-anchor="middle" x="495.86" y="-63.5" font-family="Helvetica,sans-Serif" font-size="10.00">memory</text>
</a>
</g>
</g>
<!-- Node9&#45;&gt;Node10 -->
<g id="edge15" class="edge">
<title>Node9&#45;&gt;Node10</title>
<path fill="none" stroke="midnightblue" d="M495.86,-112.08C495.86,-105.01 495.86,-94.86 495.86,-85.99"/>
<polygon fill="midnightblue" stroke="midnightblue" points="499.36,-85.75 495.86,-75.75 492.36,-85.75 499.36,-85.75"/>
</g>
<!-- Node11&#45;&gt;Node2 -->
<g id="edge17" class="edge">
<title>Node11&#45;&gt;Node2</title>
<path fill="none" stroke="midnightblue" d="M813.24,-112.84C810.41,-112.55 807.61,-112.27 804.86,-112 678.64,-99.45 533.13,-85.48 438.76,-76.48"/>
<polygon fill="midnightblue" stroke="midnightblue" points="438.94,-72.98 428.65,-75.52 438.27,-79.95 438.94,-72.98"/>
</g>
<!-- Node12 -->
<g id="node12" class="node">
<title>Node12</title>
<g id="a_node12"><a xlink:title=" ">
<polygon fill="white" stroke="#bfbfbf" points="777.86,-56.5 777.86,-75.5 833.86,-75.5 833.86,-56.5 777.86,-56.5"/>
<text text-anchor="middle" x="805.86" y="-63.5" font-family="Helvetica,sans-Serif" font-size="10.00">QDebug</text>
</a>
</g>
</g>
<!-- Node11&#45;&gt;Node12 -->
<g id="edge18" class="edge">
<title>Node11&#45;&gt;Node12</title>
<path fill="none" stroke="midnightblue" d="M878.89,-112.32C865.31,-103.9 844.48,-90.97 828.54,-81.07"/>
<polygon fill="midnightblue" stroke="midnightblue" points="830.15,-77.95 819.81,-75.65 826.46,-83.9 830.15,-77.95"/>
</g>
<!-- Node13&#45;&gt;Node2 -->
<g id="edge20" class="edge">
<title>Node13&#45;&gt;Node2</title>
<path fill="none" stroke="midnightblue" d="M658.65,-112.44C590.83,-102.81 480.75,-87.16 409.08,-76.98"/>
<polygon fill="midnightblue" stroke="midnightblue" points="409.19,-73.46 398.79,-75.52 408.2,-80.39 409.19,-73.46"/>
</g>
<!-- Node13&#45;&gt;Node12 -->
<g id="edge21" class="edge">
<title>Node13&#45;&gt;Node12</title>
<path fill="none" stroke="midnightblue" d="M732.84,-112.32C746.41,-103.9 767.24,-90.97 783.19,-81.07"/>
<polygon fill="midnightblue" stroke="midnightblue" points="785.27,-83.9 791.92,-75.65 781.58,-77.95 785.27,-83.9"/>
</g>
</g>
</svg>
