<?xml version="1.0" encoding="UTF-8" standalone="no"?>
<!DOCTYPE svg PUBLIC "-//W3C//DTD SVG 1.1//EN"
 "http://www.w3.org/Graphics/SVG/1.1/DTD/svg11.dtd">
<!-- Generated by graphviz version 2.43.0 (0)
 -->
<!-- Title: src/rgbcolorspace_p.h Pages: 1 -->
<svg width="1315pt" height="308pt"
 viewBox="0.00 0.00 1315.28 308.00" xmlns="http://www.w3.org/2000/svg" xmlns:xlink="http://www.w3.org/1999/xlink">
<g id="graph0" class="graph" transform="scale(1 1) rotate(0) translate(4 304)">
<title>src/rgbcolorspace_p.h</title>
<polygon fill="white" stroke="transparent" points="-4,4 -4,-304 1311.28,-304 1311.28,4 -4,4"/>
<!-- Node1 -->
<g id="node1" class="node">
<title>Node1</title>
<g id="a_node1"><a xlink:title=" ">
<polygon fill="#bfbfbf" stroke="black" points="405,-280.5 405,-299.5 527,-299.5 527,-280.5 405,-280.5"/>
<text text-anchor="middle" x="466" y="-287.5" font-family="Helvetica,sans-Serif" font-size="10.00">src/rgbcolorspace_p.h</text>
</a>
</g>
</g>
<!-- Node2 -->
<g id="node2" class="node">
<title>Node2</title>
<g id="a_node2"><a xlink:href="perceptualcolorglobal_8h.html" target="_top" xlink:title=" ">
<polygon fill="white" stroke="black" points="351,-56.5 351,-75.5 563,-75.5 563,-56.5 351,-56.5"/>
<text text-anchor="middle" x="457" y="-63.5" font-family="Helvetica,sans-Serif" font-size="10.00">PerceptualColor/perceptualcolorglobal.h</text>
</a>
</g>
</g>
<!-- Node1&#45;&gt;Node2 -->
<g id="edge1" class="edge">
<title>Node1&#45;&gt;Node2</title>
<path fill="none" stroke="midnightblue" d="M527.32,-285.89C736.71,-274.19 1404.63,-227.46 1295,-112 1268.42,-84 639.54,-78.2 601,-76 592,-75.49 582.69,-74.94 573.32,-74.38"/>
<polygon fill="midnightblue" stroke="midnightblue" points="573.35,-70.87 563.16,-73.76 572.93,-77.86 573.35,-70.87"/>
</g>
<!-- Node4 -->
<g id="node4" class="node">
<title>Node4</title>
<g id="a_node4"><a xlink:href="perceptualcolorinternal_8h.html" target="_top" xlink:title=" ">
<polygon fill="white" stroke="black" points="222.5,-112.5 222.5,-131.5 361.5,-131.5 361.5,-112.5 222.5,-112.5"/>
<text text-anchor="middle" x="292" y="-119.5" font-family="Helvetica,sans-Serif" font-size="10.00">perceptualcolorinternal.h</text>
</a>
</g>
</g>
<!-- Node1&#45;&gt;Node4 -->
<g id="edge3" class="edge">
<title>Node1&#45;&gt;Node4</title>
<path fill="none" stroke="midnightblue" d="M436.89,-280.48C398.14,-267.47 330.8,-238.65 299,-188 290.42,-174.33 289.21,-155.8 289.83,-142.01"/>
<polygon fill="midnightblue" stroke="midnightblue" points="293.34,-142.02 290.66,-131.77 286.37,-141.45 293.34,-142.02"/>
</g>
<!-- Node5 -->
<g id="node5" class="node">
<title>Node5</title>
<g id="a_node5"><a xlink:href="rgbcolorspace_8h.html" target="_top" xlink:title=" ">
<polygon fill="white" stroke="black" points="660,-168.5 660,-187.5 754,-187.5 754,-168.5 660,-168.5"/>
<text text-anchor="middle" x="707" y="-175.5" font-family="Helvetica,sans-Serif" font-size="10.00">rgbcolorspace.h</text>
</a>
</g>
</g>
<!-- Node1&#45;&gt;Node5 -->
<g id="edge5" class="edge">
<title>Node1&#45;&gt;Node5</title>
<path fill="none" stroke="midnightblue" d="M485.99,-280.33C506.6,-271.37 539.63,-256.89 568,-244 607.05,-226.26 651.97,-205.12 679.92,-191.88"/>
<polygon fill="midnightblue" stroke="midnightblue" points="681.53,-194.99 689.06,-187.54 678.53,-188.66 681.53,-194.99"/>
</g>
<!-- Node13 -->
<g id="node13" class="node">
<title>Node13</title>
<g id="a_node13"><a xlink:href="chromalightnessimage_8h.html" target="_top" xlink:title=" ">
<polygon fill="white" stroke="black" points="397.5,-224.5 397.5,-243.5 534.5,-243.5 534.5,-224.5 397.5,-224.5"/>
<text text-anchor="middle" x="466" y="-231.5" font-family="Helvetica,sans-Serif" font-size="10.00">chromalightnessimage.h</text>
</a>
</g>
</g>
<!-- Node1&#45;&gt;Node13 -->
<g id="edge19" class="edge">
<title>Node1&#45;&gt;Node13</title>
<path fill="none" stroke="midnightblue" d="M466,-280.08C466,-273.01 466,-262.86 466,-253.99"/>
<polygon fill="midnightblue" stroke="midnightblue" points="469.5,-253.75 466,-243.75 462.5,-253.75 469.5,-253.75"/>
</g>
<!-- Node16 -->
<g id="node16" class="node">
<title>Node16</title>
<g id="a_node16"><a xlink:href="constpropagatingrawpointer_8h.html" target="_top" xlink:title=" ">
<polygon fill="white" stroke="black" points="0,-168.5 0,-187.5 162,-187.5 162,-168.5 0,-168.5"/>
<text text-anchor="middle" x="81" y="-175.5" font-family="Helvetica,sans-Serif" font-size="10.00">constpropagatingrawpointer.h</text>
</a>
</g>
</g>
<!-- Node1&#45;&gt;Node16 -->
<g id="edge25" class="edge">
<title>Node1&#45;&gt;Node16</title>
<path fill="none" stroke="midnightblue" d="M407.18,-280.46C361.12,-273.02 295.74,-260.77 240,-244 192.33,-229.65 139.22,-206.38 108.04,-191.92"/>
<polygon fill="midnightblue" stroke="midnightblue" points="109.26,-188.63 98.72,-187.56 106.29,-194.97 109.26,-188.63"/>
</g>
<!-- Node17 -->
<g id="node17" class="node">
<title>Node17</title>
<g id="a_node17"><a xlink:href="lchvalues_8h.html" target="_top" xlink:title=" ">
<polygon fill="white" stroke="black" points="180,-168.5 180,-187.5 252,-187.5 252,-168.5 180,-168.5"/>
<text text-anchor="middle" x="216" y="-175.5" font-family="Helvetica,sans-Serif" font-size="10.00">lchvalues.h</text>
</a>
</g>
</g>
<!-- Node1&#45;&gt;Node17 -->
<g id="edge28" class="edge">
<title>Node1&#45;&gt;Node17</title>
<path fill="none" stroke="midnightblue" d="M404.99,-286.07C363.08,-281.6 307.7,-270.62 266,-244 247.69,-232.31 233.44,-211.47 224.92,-196.53"/>
<polygon fill="midnightblue" stroke="midnightblue" points="228,-194.86 220.16,-187.73 221.84,-198.19 228,-194.86"/>
</g>
<!-- Node18 -->
<g id="node18" class="node">
<title>Node18</title>
<g id="a_node18"><a xlink:href="rgbdouble_8h.html" target="_top" xlink:title=" ">
<polygon fill="white" stroke="black" points="568,-168.5 568,-187.5 642,-187.5 642,-168.5 568,-168.5"/>
<text text-anchor="middle" x="605" y="-175.5" font-family="Helvetica,sans-Serif" font-size="10.00">rgbdouble.h</text>
</a>
</g>
</g>
<!-- Node1&#45;&gt;Node18 -->
<g id="edge32" class="edge">
<title>Node1&#45;&gt;Node18</title>
<path fill="none" stroke="midnightblue" d="M484.29,-280.38C500.74,-272.2 525.13,-258.95 544,-244 562.28,-229.51 580.18,-209.55 591.81,-195.59"/>
<polygon fill="midnightblue" stroke="midnightblue" points="594.58,-197.73 598.19,-187.77 589.16,-193.3 594.58,-197.73"/>
</g>
<!-- Node3 -->
<g id="node3" class="node">
<title>Node3</title>
<g id="a_node3"><a xlink:title=" ">
<polygon fill="white" stroke="#bfbfbf" points="427.5,-0.5 427.5,-19.5 486.5,-19.5 486.5,-0.5 427.5,-0.5"/>
<text text-anchor="middle" x="457" y="-7.5" font-family="Helvetica,sans-Serif" font-size="10.00">QtGlobal</text>
</a>
</g>
</g>
<!-- Node2&#45;&gt;Node3 -->
<g id="edge2" class="edge">
<title>Node2&#45;&gt;Node3</title>
<path fill="none" stroke="midnightblue" d="M457,-56.08C457,-49.01 457,-38.86 457,-29.99"/>
<polygon fill="midnightblue" stroke="midnightblue" points="460.5,-29.75 457,-19.75 453.5,-29.75 460.5,-29.75"/>
</g>
<!-- Node4&#45;&gt;Node2 -->
<g id="edge4" class="edge">
<title>Node4&#45;&gt;Node2</title>
<path fill="none" stroke="midnightblue" d="M318.14,-112.44C346.02,-103.32 390.35,-88.81 421.4,-78.65"/>
<polygon fill="midnightblue" stroke="midnightblue" points="422.56,-81.95 430.98,-75.52 420.38,-75.3 422.56,-81.95"/>
</g>
<!-- Node5&#45;&gt;Node2 -->
<g id="edge6" class="edge">
<title>Node5&#45;&gt;Node2</title>
<path fill="none" stroke="midnightblue" d="M741.48,-168.47C778.07,-157.82 827.71,-137.84 805,-112 789.61,-94.49 668.19,-81.83 573.05,-74.48"/>
<polygon fill="midnightblue" stroke="midnightblue" points="573.29,-70.99 563.05,-73.72 572.76,-77.97 573.29,-70.99"/>
</g>
<!-- Node5&#45;&gt;Node4 -->
<g id="edge7" class="edge">
<title>Node5&#45;&gt;Node4</title>
<path fill="none" stroke="midnightblue" d="M659.96,-169.32C656.93,-168.86 653.92,-168.42 651,-168 555.09,-154.29 444.43,-140.76 371.61,-132.18"/>
<polygon fill="midnightblue" stroke="midnightblue" points="371.93,-128.69 361.59,-131 371.11,-135.64 371.93,-128.69"/>
</g>
<!-- Node6 -->
<g id="node6" class="node">
<title>Node6</title>
<g id="a_node6"><a xlink:title=" ">
<polygon fill="white" stroke="#bfbfbf" points="740,-112.5 740,-131.5 796,-131.5 796,-112.5 740,-112.5"/>
<text text-anchor="middle" x="768" y="-119.5" font-family="Helvetica,sans-Serif" font-size="10.00">QObject</text>
</a>
</g>
</g>
<!-- Node5&#45;&gt;Node6 -->
<g id="edge8" class="edge">
<title>Node5&#45;&gt;Node6</title>
<path fill="none" stroke="midnightblue" d="M716.8,-168.32C725.82,-160.34 739.41,-148.31 750.32,-138.65"/>
<polygon fill="midnightblue" stroke="midnightblue" points="752.85,-141.08 758.02,-131.83 748.21,-135.84 752.85,-141.08"/>
</g>
<!-- Node7 -->
<g id="node7" class="node">
<title>Node7</title>
<g id="a_node7"><a xlink:href="constpropagatinguniquepointer_8h.html" target="_top" xlink:title=" ">
<polygon fill="white" stroke="black" points="1028.5,-112.5 1028.5,-131.5 1285.5,-131.5 1285.5,-112.5 1028.5,-112.5"/>
<text text-anchor="middle" x="1157" y="-119.5" font-family="Helvetica,sans-Serif" font-size="10.00">PerceptualColor/constpropagatinguniquepointer.h</text>
</a>
</g>
</g>
<!-- Node5&#45;&gt;Node7 -->
<g id="edge9" class="edge">
<title>Node5&#45;&gt;Node7</title>
<path fill="none" stroke="midnightblue" d="M754.31,-171.32C830.73,-162.15 982.23,-143.97 1076.06,-132.71"/>
<polygon fill="midnightblue" stroke="midnightblue" points="1076.57,-136.18 1086.08,-131.51 1075.74,-129.23 1076.57,-136.18"/>
</g>
<!-- Node9 -->
<g id="node9" class="node">
<title>Node9</title>
<g id="a_node9"><a xlink:href="lchadouble_8h.html" target="_top" xlink:title=" ">
<polygon fill="white" stroke="black" points="851.5,-112.5 851.5,-131.5 1010.5,-131.5 1010.5,-112.5 851.5,-112.5"/>
<text text-anchor="middle" x="931" y="-119.5" font-family="Helvetica,sans-Serif" font-size="10.00">PerceptualColor/lchadouble.h</text>
</a>
</g>
</g>
<!-- Node5&#45;&gt;Node9 -->
<g id="edge12" class="edge">
<title>Node5&#45;&gt;Node9</title>
<path fill="none" stroke="midnightblue" d="M742.49,-168.44C781.32,-159.08 843.66,-144.06 885.92,-133.87"/>
<polygon fill="midnightblue" stroke="midnightblue" points="886.77,-137.26 895.67,-131.52 885.13,-130.46 886.77,-137.26"/>
</g>
<!-- Node11 -->
<g id="node11" class="node">
<title>Node11</title>
<g id="a_node11"><a xlink:href="lchdouble_8h.html" target="_top" xlink:title=" ">
<polygon fill="white" stroke="black" points="456.5,-112.5 456.5,-131.5 609.5,-131.5 609.5,-112.5 456.5,-112.5"/>
<text text-anchor="middle" x="533" y="-119.5" font-family="Helvetica,sans-Serif" font-size="10.00">PerceptualColor/lchdouble.h</text>
</a>
</g>
</g>
<!-- Node5&#45;&gt;Node11 -->
<g id="edge15" class="edge">
<title>Node5&#45;&gt;Node11</title>
<path fill="none" stroke="midnightblue" d="M679.43,-168.44C649.9,-159.28 602.88,-144.69 570.12,-134.52"/>
<polygon fill="midnightblue" stroke="midnightblue" points="571.03,-131.14 560.44,-131.52 568.96,-137.82 571.03,-131.14"/>
</g>
<!-- Node12 -->
<g id="node12" class="node">
<title>Node12</title>
<g id="a_node12"><a xlink:title=" ">
<polygon fill="white" stroke="#bfbfbf" points="666.5,-112.5 666.5,-131.5 721.5,-131.5 721.5,-112.5 666.5,-112.5"/>
<text text-anchor="middle" x="694" y="-119.5" font-family="Helvetica,sans-Serif" font-size="10.00">lcms2.h</text>
</a>
</g>
</g>
<!-- Node5&#45;&gt;Node12 -->
<g id="edge18" class="edge">
<title>Node5&#45;&gt;Node12</title>
<path fill="none" stroke="midnightblue" d="M704.85,-168.08C703.13,-160.93 700.65,-150.64 698.5,-141.69"/>
<polygon fill="midnightblue" stroke="midnightblue" points="701.85,-140.65 696.11,-131.75 695.04,-142.29 701.85,-140.65"/>
</g>
<!-- Node7&#45;&gt;Node2 -->
<g id="edge10" class="edge">
<title>Node7&#45;&gt;Node2</title>
<path fill="none" stroke="midnightblue" d="M1046.47,-112.47C917.4,-102.52 704.85,-86.12 573.34,-75.97"/>
<polygon fill="midnightblue" stroke="midnightblue" points="573.46,-72.47 563.23,-75.19 572.93,-79.45 573.46,-72.47"/>
</g>
<!-- Node8 -->
<g id="node8" class="node">
<title>Node8</title>
<g id="a_node8"><a xlink:title=" ">
<polygon fill="white" stroke="#bfbfbf" points="1128,-56.5 1128,-75.5 1186,-75.5 1186,-56.5 1128,-56.5"/>
<text text-anchor="middle" x="1157" y="-63.5" font-family="Helvetica,sans-Serif" font-size="10.00">memory</text>
</a>
</g>
</g>
<!-- Node7&#45;&gt;Node8 -->
<g id="edge11" class="edge">
<title>Node7&#45;&gt;Node8</title>
<path fill="none" stroke="midnightblue" d="M1157,-112.08C1157,-105.01 1157,-94.86 1157,-85.99"/>
<polygon fill="midnightblue" stroke="midnightblue" points="1160.5,-85.75 1157,-75.75 1153.5,-85.75 1160.5,-85.75"/>
</g>
<!-- Node9&#45;&gt;Node2 -->
<g id="edge13" class="edge">
<title>Node9&#45;&gt;Node2</title>
<path fill="none" stroke="midnightblue" d="M856.15,-112.47C770.75,-102.74 631.36,-86.86 541.95,-76.68"/>
<polygon fill="midnightblue" stroke="midnightblue" points="542.18,-73.18 531.84,-75.53 541.38,-80.14 542.18,-73.18"/>
</g>
<!-- Node10 -->
<g id="node10" class="node">
<title>Node10</title>
<g id="a_node10"><a xlink:title=" ">
<polygon fill="white" stroke="#bfbfbf" points="610,-56.5 610,-75.5 666,-75.5 666,-56.5 610,-56.5"/>
<text text-anchor="middle" x="638" y="-63.5" font-family="Helvetica,sans-Serif" font-size="10.00">QDebug</text>
</a>
</g>
</g>
<!-- Node9&#45;&gt;Node10 -->
<g id="edge14" class="edge">
<title>Node9&#45;&gt;Node10</title>
<path fill="none" stroke="midnightblue" d="M884.57,-112.44C826.94,-101.82 729.71,-83.9 676.19,-74.04"/>
<polygon fill="midnightblue" stroke="midnightblue" points="676.56,-70.55 666.09,-72.18 675.29,-77.43 676.56,-70.55"/>
</g>
<!-- Node11&#45;&gt;Node2 -->
<g id="edge16" class="edge">
<title>Node11&#45;&gt;Node2</title>
<path fill="none" stroke="midnightblue" d="M520.79,-112.32C509.22,-104.11 491.62,-91.6 477.84,-81.81"/>
<polygon fill="midnightblue" stroke="midnightblue" points="479.61,-78.77 469.43,-75.83 475.56,-84.48 479.61,-78.77"/>
</g>
<!-- Node11&#45;&gt;Node10 -->
<g id="edge17" class="edge">
<title>Node11&#45;&gt;Node10</title>
<path fill="none" stroke="midnightblue" d="M549.87,-112.32C566.71,-103.66 592.81,-90.24 612.24,-80.25"/>
<polygon fill="midnightblue" stroke="midnightblue" points="613.88,-83.34 621.17,-75.65 610.68,-77.12 613.88,-83.34"/>
</g>
<!-- Node13&#45;&gt;Node2 -->
<g id="edge20" class="edge">
<title>Node13&#45;&gt;Node2</title>
<path fill="none" stroke="midnightblue" d="M461.34,-224.23C451.35,-204.34 429.44,-154.27 438,-112 439.89,-102.65 443.79,-92.83 447.57,-84.75"/>
<polygon fill="midnightblue" stroke="midnightblue" points="450.79,-86.14 452.12,-75.63 444.53,-83.01 450.79,-86.14"/>
</g>
<!-- Node13&#45;&gt;Node4 -->
<g id="edge21" class="edge">
<title>Node13&#45;&gt;Node4</title>
<path fill="none" stroke="midnightblue" d="M460.39,-224.22C451.19,-210.47 431.65,-183.8 409,-168 387.15,-152.76 359.45,-141.81 336.49,-134.53"/>
<polygon fill="midnightblue" stroke="midnightblue" points="337.23,-131.09 326.64,-131.53 335.19,-137.79 337.23,-131.09"/>
</g>
<!-- Node13&#45;&gt;Node5 -->
<g id="edge24" class="edge">
<title>Node13&#45;&gt;Node5</title>
<path fill="none" stroke="midnightblue" d="M504.19,-224.44C546.14,-215.04 613.59,-199.93 659.07,-189.74"/>
<polygon fill="midnightblue" stroke="midnightblue" points="660,-193.12 668.99,-187.52 658.47,-186.29 660,-193.12"/>
</g>
<!-- Node14 -->
<g id="node14" class="node">
<title>Node14</title>
<g id="a_node14"><a xlink:title=" ">
<polygon fill="white" stroke="#bfbfbf" points="494.5,-168.5 494.5,-187.5 549.5,-187.5 549.5,-168.5 494.5,-168.5"/>
<text text-anchor="middle" x="522" y="-175.5" font-family="Helvetica,sans-Serif" font-size="10.00">QImage</text>
</a>
</g>
</g>
<!-- Node13&#45;&gt;Node14 -->
<g id="edge22" class="edge">
<title>Node13&#45;&gt;Node14</title>
<path fill="none" stroke="midnightblue" d="M475,-224.32C483.19,-216.42 495.51,-204.55 505.47,-194.94"/>
<polygon fill="midnightblue" stroke="midnightblue" points="508.07,-197.29 512.84,-187.83 503.21,-192.26 508.07,-197.29"/>
</g>
<!-- Node15 -->
<g id="node15" class="node">
<title>Node15</title>
<g id="a_node15"><a xlink:title=" ">
<polygon fill="white" stroke="#bfbfbf" points="308,-168.5 308,-187.5 400,-187.5 400,-168.5 308,-168.5"/>
<text text-anchor="middle" x="354" y="-175.5" font-family="Helvetica,sans-Serif" font-size="10.00">QSharedPointer</text>
</a>
</g>
</g>
<!-- Node13&#45;&gt;Node15 -->
<g id="edge23" class="edge">
<title>Node13&#45;&gt;Node15</title>
<path fill="none" stroke="midnightblue" d="M448.01,-224.32C429.96,-215.62 401.95,-202.12 381.2,-192.11"/>
<polygon fill="midnightblue" stroke="midnightblue" points="382.48,-188.84 371.95,-187.65 379.44,-195.15 382.48,-188.84"/>
</g>
<!-- Node16&#45;&gt;Node2 -->
<g id="edge26" class="edge">
<title>Node16&#45;&gt;Node2</title>
<path fill="none" stroke="midnightblue" d="M93.79,-168.34C115.21,-154.26 160.09,-126.53 202,-112 252.36,-94.54 310.77,-83.6 358.97,-76.88"/>
<polygon fill="midnightblue" stroke="midnightblue" points="359.66,-80.32 369.1,-75.51 358.72,-73.39 359.66,-80.32"/>
</g>
<!-- Node16&#45;&gt;Node4 -->
<g id="edge27" class="edge">
<title>Node16&#45;&gt;Node4</title>
<path fill="none" stroke="midnightblue" d="M114.43,-168.44C150.86,-159.12 209.23,-144.18 249.03,-134"/>
<polygon fill="midnightblue" stroke="midnightblue" points="249.9,-137.39 258.72,-131.52 248.17,-130.61 249.9,-137.39"/>
</g>
<!-- Node17&#45;&gt;Node2 -->
<g id="edge29" class="edge">
<title>Node17&#45;&gt;Node2</title>
<path fill="none" stroke="midnightblue" d="M212.27,-168.26C207.07,-154.57 199.7,-127.98 213,-112 229.86,-91.74 286.37,-80.57 340.76,-74.42"/>
<polygon fill="midnightblue" stroke="midnightblue" points="341.31,-77.88 350.88,-73.33 340.56,-70.92 341.31,-77.88"/>
</g>
<!-- Node17&#45;&gt;Node4 -->
<g id="edge30" class="edge">
<title>Node17&#45;&gt;Node4</title>
<path fill="none" stroke="midnightblue" d="M228.21,-168.32C239.78,-160.11 257.38,-147.6 271.16,-137.81"/>
<polygon fill="midnightblue" stroke="midnightblue" points="273.44,-140.48 279.57,-131.83 269.39,-134.77 273.44,-140.48"/>
</g>
<!-- Node17&#45;&gt;Node11 -->
<g id="edge31" class="edge">
<title>Node17&#45;&gt;Node11</title>
<path fill="none" stroke="midnightblue" d="M252.06,-170.86C305.81,-161.7 407.62,-144.36 472.79,-133.26"/>
<polygon fill="midnightblue" stroke="midnightblue" points="473.66,-136.66 482.93,-131.53 472.48,-129.76 473.66,-136.66"/>
</g>
<!-- Node18&#45;&gt;Node2 -->
<g id="edge33" class="edge">
<title>Node18&#45;&gt;Node2</title>
<path fill="none" stroke="midnightblue" d="M567.75,-168.79C523.69,-158.7 455.34,-141.74 448,-132 437.85,-118.53 442.45,-98.9 448.14,-84.74"/>
<polygon fill="midnightblue" stroke="midnightblue" points="451.35,-86.12 452.27,-75.56 444.97,-83.24 451.35,-86.12"/>
</g>
<!-- Node18&#45;&gt;Node4 -->
<g id="edge34" class="edge">
<title>Node18&#45;&gt;Node4</title>
<path fill="none" stroke="midnightblue" d="M567.86,-169.65C564.86,-169.08 561.88,-168.52 559,-168 489.38,-155.32 409.3,-141.99 355.15,-133.16"/>
<polygon fill="midnightblue" stroke="midnightblue" points="355.44,-129.67 345.01,-131.51 354.32,-136.57 355.44,-129.67"/>
</g>
<!-- Node18&#45;&gt;Node10 -->
<g id="edge35" class="edge">
<title>Node18&#45;&gt;Node10</title>
<path fill="none" stroke="midnightblue" d="M607.73,-168.39C610.58,-159.34 615.17,-144.69 619,-132 623.72,-116.35 628.92,-98.52 632.68,-85.5"/>
<polygon fill="midnightblue" stroke="midnightblue" points="636.06,-86.42 635.47,-75.85 629.33,-84.49 636.06,-86.42"/>
</g>
</g>
</svg>
