<?xml version="1.0" encoding="UTF-8" standalone="no"?>
<!DOCTYPE svg PUBLIC "-//W3C//DTD SVG 1.1//EN"
 "http://www.w3.org/Graphics/SVG/1.1/DTD/svg11.dtd">
<!-- Generated by graphviz version 2.43.0 (0)
 -->
<!-- Title: include/PerceptualColor/version.in.hpp Pages: 1 -->
<svg width="376pt" height="151pt"
 viewBox="0.00 0.00 375.50 151.00" xmlns="http://www.w3.org/2000/svg" xmlns:xlink="http://www.w3.org/1999/xlink">
<g id="graph0" class="graph" transform="scale(1 1) rotate(0) translate(4 147)">
<title>include/PerceptualColor/version.in.hpp</title>
<polygon fill="white" stroke="transparent" points="-4,4 -4,-147 371.5,-147 371.5,4 -4,4"/>
<!-- Node1 -->
<g id="node1" class="node">
<title>Node1</title>
<g id="a_node1"><a xlink:title=" ">
<polygon fill="#bfbfbf" stroke="black" points="174,-112.5 174,-142.5 306,-142.5 306,-112.5 174,-112.5"/>
<text text-anchor="start" x="182" y="-130.5" font-family="Helvetica,sans-Serif" font-size="10.00">include/PerceptualColor</text>
<text text-anchor="middle" x="240" y="-119.5" font-family="Helvetica,sans-Serif" font-size="10.00">/version.in.hpp</text>
</a>
</g>
</g>
<!-- Node2 -->
<g id="node2" class="node">
<title>Node2</title>
<g id="a_node2"><a xlink:href="perceptualcolorglobal_8h.html" target="_top" xlink:title=" ">
<polygon fill="white" stroke="black" points="0,-56.5 0,-75.5 212,-75.5 212,-56.5 0,-56.5"/>
<text text-anchor="middle" x="106" y="-63.5" font-family="Helvetica,sans-Serif" font-size="10.00">PerceptualColor/perceptualcolorglobal.h</text>
</a>
</g>
</g>
<!-- Node1&#45;&gt;Node2 -->
<g id="edge1" class="edge">
<title>Node1&#45;&gt;Node2</title>
<path fill="none" stroke="midnightblue" d="M208.24,-112.4C185.96,-102.51 156.41,-89.38 134.81,-79.79"/>
<polygon fill="midnightblue" stroke="midnightblue" points="136.06,-76.52 125.5,-75.66 133.22,-82.91 136.06,-76.52"/>
</g>
<!-- Node3 -->
<g id="node3" class="node">
<title>Node3</title>
<g id="a_node3"><a xlink:title=" ">
<polygon fill="white" stroke="#bfbfbf" points="143.5,-0.5 143.5,-19.5 202.5,-19.5 202.5,-0.5 143.5,-0.5"/>
<text text-anchor="middle" x="173" y="-7.5" font-family="Helvetica,sans-Serif" font-size="10.00">QtGlobal</text>
</a>
</g>
</g>
<!-- Node1&#45;&gt;Node3 -->
<g id="edge4" class="edge">
<title>Node1&#45;&gt;Node3</title>
<path fill="none" stroke="midnightblue" d="M238.51,-112.36C236.43,-97.45 231.63,-73.72 221,-56 214,-44.33 203.12,-33.78 193.49,-25.83"/>
<polygon fill="midnightblue" stroke="midnightblue" points="195.51,-22.97 185.48,-19.55 191.19,-28.48 195.51,-22.97"/>
</g>
<!-- Node4 -->
<g id="node4" class="node">
<title>Node4</title>
<g id="a_node4"><a xlink:title=" ">
<polygon fill="white" stroke="#bfbfbf" points="268.5,-56.5 268.5,-75.5 367.5,-75.5 367.5,-56.5 268.5,-56.5"/>
<text text-anchor="middle" x="318" y="-63.5" font-family="Helvetica,sans-Serif" font-size="10.00">QVersionNumber</text>
</a>
</g>
</g>
<!-- Node1&#45;&gt;Node4 -->
<g id="edge3" class="edge">
<title>Node1&#45;&gt;Node4</title>
<path fill="none" stroke="midnightblue" d="M258.48,-112.4C270.52,-103.22 286.2,-91.26 298.44,-81.92"/>
<polygon fill="midnightblue" stroke="midnightblue" points="300.82,-84.51 306.65,-75.66 296.58,-78.94 300.82,-84.51"/>
</g>
<!-- Node2&#45;&gt;Node3 -->
<g id="edge2" class="edge">
<title>Node2&#45;&gt;Node3</title>
<path fill="none" stroke="midnightblue" d="M116.76,-56.32C126.77,-48.26 141.89,-36.08 153.93,-26.37"/>
<polygon fill="midnightblue" stroke="midnightblue" points="156.45,-28.83 162.04,-19.83 152.06,-23.38 156.45,-28.83"/>
</g>
</g>
</svg>
