<?xml version="1.0" encoding="UTF-8" standalone="no"?>
<!DOCTYPE svg PUBLIC "-//W3C//DTD SVG 1.1//EN"
 "http://www.w3.org/Graphics/SVG/1.1/DTD/svg11.dtd">
<!-- Generated by graphviz version 2.43.0 (0)
 -->
<!-- Title: src/wheelcolorpicker.cpp Pages: 1 -->
<svg width="2312pt" height="364pt"
 viewBox="0.00 0.00 2311.50 364.00" xmlns="http://www.w3.org/2000/svg" xmlns:xlink="http://www.w3.org/1999/xlink">
<g id="graph0" class="graph" transform="scale(1 1) rotate(0) translate(4 360)">
<title>src/wheelcolorpicker.cpp</title>
<polygon fill="white" stroke="transparent" points="-4,4 -4,-360 2307.5,-360 2307.5,4 -4,4"/>
<!-- Node1 -->
<g id="node1" class="node">
<title>Node1</title>
<g id="a_node1"><a xlink:title=" ">
<polygon fill="#bfbfbf" stroke="black" points="1040,-336.5 1040,-355.5 1176,-355.5 1176,-336.5 1040,-336.5"/>
<text text-anchor="middle" x="1108" y="-343.5" font-family="Helvetica,sans-Serif" font-size="10.00">src/wheelcolorpicker.cpp</text>
</a>
</g>
</g>
<!-- Node2 -->
<g id="node2" class="node">
<title>Node2</title>
<g id="a_node2"><a xlink:href="perceptualcolorglobal_8h.html" target="_top" xlink:title=" ">
<polygon fill="white" stroke="black" points="670,-56.5 670,-75.5 882,-75.5 882,-56.5 670,-56.5"/>
<text text-anchor="middle" x="776" y="-63.5" font-family="Helvetica,sans-Serif" font-size="10.00">PerceptualColor/perceptualcolorglobal.h</text>
</a>
</g>
</g>
<!-- Node1&#45;&gt;Node2 -->
<g id="edge1" class="edge">
<title>Node1&#45;&gt;Node2</title>
<path fill="none" stroke="midnightblue" d="M1039.94,-345.42C798.88,-346.01 0,-340.05 0,-235 0,-235 0,-235 0,-177 0,-126.21 46.04,-128.72 94,-112 195.17,-76.73 493,-68.83 659.68,-67.23"/>
<polygon fill="midnightblue" stroke="midnightblue" points="660,-70.73 669.97,-67.14 659.94,-63.73 660,-70.73"/>
</g>
<!-- Node4 -->
<g id="node4" class="node">
<title>Node4</title>
<g id="a_node4"><a xlink:href="perceptualcolorinternal_8h.html" target="_top" xlink:title=" ">
<polygon fill="white" stroke="black" points="922.5,-112.5 922.5,-131.5 1061.5,-131.5 1061.5,-112.5 922.5,-112.5"/>
<text text-anchor="middle" x="992" y="-119.5" font-family="Helvetica,sans-Serif" font-size="10.00">perceptualcolorinternal.h</text>
</a>
</g>
</g>
<!-- Node1&#45;&gt;Node4 -->
<g id="edge3" class="edge">
<title>Node1&#45;&gt;Node4</title>
<path fill="none" stroke="midnightblue" d="M1103.45,-336.3C1086.24,-303.36 1024.87,-185.9 1001.3,-140.81"/>
<polygon fill="midnightblue" stroke="midnightblue" points="1004.38,-139.13 996.64,-131.88 998.17,-142.37 1004.38,-139.13"/>
</g>
<!-- Node5 -->
<g id="node5" class="node">
<title>Node5</title>
<g id="a_node5"><a xlink:href="wheelcolorpicker_8h.html" target="_top" xlink:title=" ">
<polygon fill="white" stroke="black" points="66,-224.5 66,-243.5 254,-243.5 254,-224.5 66,-224.5"/>
<text text-anchor="middle" x="160" y="-231.5" font-family="Helvetica,sans-Serif" font-size="10.00">PerceptualColor/wheelcolorpicker.h</text>
</a>
</g>
</g>
<!-- Node1&#45;&gt;Node5 -->
<g id="edge5" class="edge">
<title>Node1&#45;&gt;Node5</title>
<path fill="none" stroke="midnightblue" d="M1039.83,-341.8C931.66,-336.24 714.17,-323.14 531,-300 415.99,-285.47 282.35,-259.89 211.04,-245.54"/>
<polygon fill="midnightblue" stroke="midnightblue" points="211.48,-242.06 200.98,-243.5 210.09,-248.92 211.48,-242.06"/>
</g>
<!-- Node11 -->
<g id="node11" class="node">
<title>Node11</title>
<g id="a_node11"><a xlink:title=" ">
<polygon fill="white" stroke="#bfbfbf" points="1451,-56.5 1451,-75.5 1507,-75.5 1507,-56.5 1451,-56.5"/>
<text text-anchor="middle" x="1479" y="-63.5" font-family="Helvetica,sans-Serif" font-size="10.00">QDebug</text>
</a>
</g>
</g>
<!-- Node1&#45;&gt;Node11 -->
<g id="edge89" class="edge">
<title>Node1&#45;&gt;Node11</title>
<path fill="none" stroke="midnightblue" d="M1176.18,-344.25C1393.55,-340.95 2056,-323.64 2056,-235 2056,-235 2056,-235 2056,-177 2056,-132.55 2020.96,-129.25 1980,-112 1896.53,-76.85 1619.45,-69.12 1517.27,-67.45"/>
<polygon fill="midnightblue" stroke="midnightblue" points="1517.15,-63.95 1507.1,-67.29 1517.05,-70.95 1517.15,-63.95"/>
</g>
<!-- Node12 -->
<g id="node12" class="node">
<title>Node12</title>
<g id="a_node12"><a xlink:href="wheelcolorpicker__p_8h.html" target="_top" xlink:title=" ">
<polygon fill="white" stroke="black" points="540.5,-280.5 540.5,-299.5 659.5,-299.5 659.5,-280.5 540.5,-280.5"/>
<text text-anchor="middle" x="600" y="-287.5" font-family="Helvetica,sans-Serif" font-size="10.00">wheelcolorpicker_p.h</text>
</a>
</g>
</g>
<!-- Node1&#45;&gt;Node12 -->
<g id="edge17" class="edge">
<title>Node1&#45;&gt;Node12</title>
<path fill="none" stroke="midnightblue" d="M1039.75,-337.75C943.05,-327.47 767.12,-308.76 669.66,-298.4"/>
<polygon fill="midnightblue" stroke="midnightblue" points="669.92,-294.91 659.61,-297.34 669.18,-301.87 669.92,-294.91"/>
</g>
<!-- Node17 -->
<g id="node17" class="node">
<title>Node17</title>
<g id="a_node17"><a xlink:href="lchvalues_8h.html" target="_top" xlink:title=" ">
<polygon fill="white" stroke="black" points="767,-168.5 767,-187.5 839,-187.5 839,-168.5 767,-168.5"/>
<text text-anchor="middle" x="803" y="-175.5" font-family="Helvetica,sans-Serif" font-size="10.00">lchvalues.h</text>
</a>
</g>
</g>
<!-- Node1&#45;&gt;Node17 -->
<g id="edge86" class="edge">
<title>Node1&#45;&gt;Node17</title>
<path fill="none" stroke="midnightblue" d="M1098.36,-336.43C1088.25,-327.42 1071.93,-312.8 1058,-300 1021.65,-266.6 1020.24,-247.81 977,-224 937.07,-202.02 886.06,-190.47 849.61,-184.6"/>
<polygon fill="midnightblue" stroke="midnightblue" points="849.68,-181.08 839.26,-183.03 848.62,-188 849.68,-181.08"/>
</g>
<!-- Node18 -->
<g id="node18" class="node">
<title>Node18</title>
<g id="a_node18"><a xlink:href="chromalightnessdiagram__p_8h.html" target="_top" xlink:title=" ">
<polygon fill="white" stroke="black" points="809,-280.5 809,-299.5 967,-299.5 967,-280.5 809,-280.5"/>
<text text-anchor="middle" x="888" y="-287.5" font-family="Helvetica,sans-Serif" font-size="10.00">chromalightnessdiagram_p.h</text>
</a>
</g>
</g>
<!-- Node1&#45;&gt;Node18 -->
<g id="edge40" class="edge">
<title>Node1&#45;&gt;Node18</title>
<path fill="none" stroke="midnightblue" d="M1073.14,-336.44C1035.08,-327.1 974.04,-312.12 932.54,-301.93"/>
<polygon fill="midnightblue" stroke="midnightblue" points="933.24,-298.5 922.7,-299.52 931.57,-305.3 933.24,-298.5"/>
</g>
<!-- Node26 -->
<g id="node26" class="node">
<title>Node26</title>
<g id="a_node26"><a xlink:href="colorwheel__p_8h.html" target="_top" xlink:title=" ">
<polygon fill="white" stroke="black" points="1100,-280.5 1100,-299.5 1190,-299.5 1190,-280.5 1100,-280.5"/>
<text text-anchor="middle" x="1145" y="-287.5" font-family="Helvetica,sans-Serif" font-size="10.00">colorwheel_p.h</text>
</a>
</g>
</g>
<!-- Node1&#45;&gt;Node26 -->
<g id="edge60" class="edge">
<title>Node1&#45;&gt;Node26</title>
<path fill="none" stroke="midnightblue" d="M1114.11,-336.08C1119.28,-328.53 1126.85,-317.49 1133.19,-308.23"/>
<polygon fill="midnightblue" stroke="midnightblue" points="1136.24,-309.98 1139,-299.75 1130.46,-306.02 1136.24,-309.98"/>
</g>
<!-- Node31 -->
<g id="node31" class="node">
<title>Node31</title>
<g id="a_node31"><a xlink:href="helper_8h.html" target="_top" xlink:title="Various smaller help elements.">
<polygon fill="white" stroke="black" points="1573,-168.5 1573,-187.5 1629,-187.5 1629,-168.5 1573,-168.5"/>
<text text-anchor="middle" x="1601" y="-175.5" font-family="Helvetica,sans-Serif" font-size="10.00">helper.h</text>
</a>
</g>
</g>
<!-- Node1&#45;&gt;Node31 -->
<g id="edge78" class="edge">
<title>Node1&#45;&gt;Node31</title>
<path fill="none" stroke="midnightblue" d="M1159.98,-336.47C1235.8,-322.93 1380.17,-292.91 1495,-244 1527.01,-230.37 1560.72,-208.14 1581.31,-193.54"/>
<polygon fill="midnightblue" stroke="midnightblue" points="1583.47,-196.3 1589.54,-187.61 1579.38,-190.62 1583.47,-196.3"/>
</g>
<!-- Node33 -->
<g id="node33" class="node">
<title>Node33</title>
<g id="a_node33"><a xlink:title=" ">
<polygon fill="white" stroke="#bfbfbf" points="2084.5,-280.5 2084.5,-299.5 2135.5,-299.5 2135.5,-280.5 2084.5,-280.5"/>
<text text-anchor="middle" x="2110" y="-287.5" font-family="Helvetica,sans-Serif" font-size="10.00">math.h</text>
</a>
</g>
</g>
<!-- Node1&#45;&gt;Node33 -->
<g id="edge87" class="edge">
<title>Node1&#45;&gt;Node33</title>
<path fill="none" stroke="midnightblue" d="M1176.2,-343.36C1365.86,-338.55 1896.95,-323.33 2070,-300 2071.45,-299.8 2072.94,-299.58 2074.43,-299.34"/>
<polygon fill="midnightblue" stroke="midnightblue" points="2075.12,-302.77 2084.3,-297.48 2073.82,-295.89 2075.12,-302.77"/>
</g>
<!-- Node34 -->
<g id="node34" class="node">
<title>Node34</title>
<g id="a_node34"><a xlink:title=" ">
<polygon fill="white" stroke="#bfbfbf" points="2153.5,-280.5 2153.5,-299.5 2232.5,-299.5 2232.5,-280.5 2153.5,-280.5"/>
<text text-anchor="middle" x="2193" y="-287.5" font-family="Helvetica,sans-Serif" font-size="10.00">QApplication</text>
</a>
</g>
</g>
<!-- Node1&#45;&gt;Node34 -->
<g id="edge88" class="edge">
<title>Node1&#45;&gt;Node34</title>
<path fill="none" stroke="midnightblue" d="M1176.13,-345.29C1340.7,-345.29 1772.95,-341.11 2143.38,-299.88"/>
<polygon fill="midnightblue" stroke="midnightblue" points="2143.94,-303.34 2153.49,-298.74 2143.16,-296.38 2143.94,-303.34"/>
</g>
<!-- Node35 -->
<g id="node35" class="node">
<title>Node35</title>
<g id="a_node35"><a xlink:title=" ">
<polygon fill="white" stroke="#bfbfbf" points="2250.5,-280.5 2250.5,-299.5 2303.5,-299.5 2303.5,-280.5 2250.5,-280.5"/>
<text text-anchor="middle" x="2277" y="-287.5" font-family="Helvetica,sans-Serif" font-size="10.00">QtMath</text>
</a>
</g>
</g>
<!-- Node1&#45;&gt;Node35 -->
<g id="edge90" class="edge">
<title>Node1&#45;&gt;Node35</title>
<path fill="none" stroke="midnightblue" d="M1176.34,-344.12C1385.24,-341.16 2014.28,-330.05 2240.25,-299.71"/>
<polygon fill="midnightblue" stroke="midnightblue" points="2240.96,-303.15 2250.38,-298.3 2240,-296.22 2240.96,-303.15"/>
</g>
<!-- Node3 -->
<g id="node3" class="node">
<title>Node3</title>
<g id="a_node3"><a xlink:title=" ">
<polygon fill="white" stroke="#bfbfbf" points="1221.5,-0.5 1221.5,-19.5 1280.5,-19.5 1280.5,-0.5 1221.5,-0.5"/>
<text text-anchor="middle" x="1251" y="-7.5" font-family="Helvetica,sans-Serif" font-size="10.00">QtGlobal</text>
</a>
</g>
</g>
<!-- Node2&#45;&gt;Node3 -->
<g id="edge2" class="edge">
<title>Node2&#45;&gt;Node3</title>
<path fill="none" stroke="midnightblue" d="M851,-56.47C953.08,-44.87 1132.11,-24.52 1211.34,-15.51"/>
<polygon fill="midnightblue" stroke="midnightblue" points="1211.86,-18.97 1221.4,-14.37 1211.06,-12.02 1211.86,-18.97"/>
</g>
<!-- Node4&#45;&gt;Node2 -->
<g id="edge4" class="edge">
<title>Node4&#45;&gt;Node2</title>
<path fill="none" stroke="midnightblue" d="M957.77,-112.44C920.49,-103.12 860.73,-88.18 819.99,-78"/>
<polygon fill="midnightblue" stroke="midnightblue" points="820.62,-74.55 810.07,-75.52 818.92,-81.34 820.62,-74.55"/>
</g>
<!-- Node5&#45;&gt;Node2 -->
<g id="edge6" class="edge">
<title>Node5&#45;&gt;Node2</title>
<path fill="none" stroke="midnightblue" d="M154.18,-224.32C140.22,-202.35 108.16,-144.02 138,-112 172.72,-74.74 485.37,-67.77 659.74,-66.82"/>
<polygon fill="midnightblue" stroke="midnightblue" points="660.01,-70.32 670,-66.77 659.98,-63.32 660.01,-70.32"/>
</g>
<!-- Node6 -->
<g id="node6" class="node">
<title>Node6</title>
<g id="a_node6"><a xlink:href="constpropagatinguniquepointer_8h.html" target="_top" xlink:title=" ">
<polygon fill="white" stroke="black" points="147.5,-112.5 147.5,-131.5 404.5,-131.5 404.5,-112.5 147.5,-112.5"/>
<text text-anchor="middle" x="276" y="-119.5" font-family="Helvetica,sans-Serif" font-size="10.00">PerceptualColor/constpropagatinguniquepointer.h</text>
</a>
</g>
</g>
<!-- Node5&#45;&gt;Node6 -->
<g id="edge7" class="edge">
<title>Node5&#45;&gt;Node6</title>
<path fill="none" stroke="midnightblue" d="M166.87,-224.09C177.1,-211.08 197.26,-186.44 217,-168 228.85,-156.93 243.32,-145.86 254.96,-137.48"/>
<polygon fill="midnightblue" stroke="midnightblue" points="257.08,-140.26 263.22,-131.63 253.04,-134.55 257.08,-140.26"/>
</g>
<!-- Node8 -->
<g id="node8" class="node">
<title>Node8</title>
<g id="a_node8"><a xlink:href="abstractdiagram_8h.html" target="_top" xlink:title=" ">
<polygon fill="white" stroke="black" points="259,-168.5 259,-187.5 445,-187.5 445,-168.5 259,-168.5"/>
<text text-anchor="middle" x="352" y="-175.5" font-family="Helvetica,sans-Serif" font-size="10.00">PerceptualColor/abstractdiagram.h</text>
</a>
</g>
</g>
<!-- Node5&#45;&gt;Node8 -->
<g id="edge10" class="edge">
<title>Node5&#45;&gt;Node8</title>
<path fill="none" stroke="midnightblue" d="M190.42,-224.44C223.28,-215.2 275.78,-200.44 311.97,-190.26"/>
<polygon fill="midnightblue" stroke="midnightblue" points="313.04,-193.59 321.72,-187.52 311.15,-186.85 313.04,-193.59"/>
</g>
<!-- Node10 -->
<g id="node10" class="node">
<title>Node10</title>
<g id="a_node10"><a xlink:href="lchdouble_8h.html" target="_top" xlink:title=" ">
<polygon fill="white" stroke="black" points="751.5,-112.5 751.5,-131.5 904.5,-131.5 904.5,-112.5 751.5,-112.5"/>
<text text-anchor="middle" x="828" y="-119.5" font-family="Helvetica,sans-Serif" font-size="10.00">PerceptualColor/lchdouble.h</text>
</a>
</g>
</g>
<!-- Node5&#45;&gt;Node10 -->
<g id="edge14" class="edge">
<title>Node5&#45;&gt;Node10</title>
<path fill="none" stroke="midnightblue" d="M218.07,-224.47C277.41,-215.66 372.21,-201.37 454,-188 566.44,-169.63 697.56,-146.43 770.87,-133.3"/>
<polygon fill="midnightblue" stroke="midnightblue" points="771.59,-136.72 780.82,-131.51 770.36,-129.83 771.59,-136.72"/>
</g>
<!-- Node6&#45;&gt;Node2 -->
<g id="edge8" class="edge">
<title>Node6&#45;&gt;Node2</title>
<path fill="none" stroke="midnightblue" d="M354.95,-112.47C445.23,-102.72 592.67,-86.8 686.96,-76.62"/>
<polygon fill="midnightblue" stroke="midnightblue" points="687.49,-80.08 697.05,-75.53 686.73,-73.12 687.49,-80.08"/>
</g>
<!-- Node7 -->
<g id="node7" class="node">
<title>Node7</title>
<g id="a_node7"><a xlink:title=" ">
<polygon fill="white" stroke="#bfbfbf" points="247,-56.5 247,-75.5 305,-75.5 305,-56.5 247,-56.5"/>
<text text-anchor="middle" x="276" y="-63.5" font-family="Helvetica,sans-Serif" font-size="10.00">memory</text>
</a>
</g>
</g>
<!-- Node6&#45;&gt;Node7 -->
<g id="edge9" class="edge">
<title>Node6&#45;&gt;Node7</title>
<path fill="none" stroke="midnightblue" d="M276,-112.08C276,-105.01 276,-94.86 276,-85.99"/>
<polygon fill="midnightblue" stroke="midnightblue" points="279.5,-85.75 276,-75.75 272.5,-85.75 279.5,-85.75"/>
</g>
<!-- Node8&#45;&gt;Node2 -->
<g id="edge11" class="edge">
<title>Node8&#45;&gt;Node2</title>
<path fill="none" stroke="midnightblue" d="M363.79,-168.4C385.95,-152.38 433.28,-118.99 452,-112 518.29,-87.26 596.79,-75.94 659.92,-70.84"/>
<polygon fill="midnightblue" stroke="midnightblue" points="660.21,-74.33 669.92,-70.08 659.68,-67.35 660.21,-74.33"/>
</g>
<!-- Node8&#45;&gt;Node6 -->
<g id="edge13" class="edge">
<title>Node8&#45;&gt;Node6</title>
<path fill="none" stroke="midnightblue" d="M339.79,-168.32C328.22,-160.11 310.62,-147.6 296.84,-137.81"/>
<polygon fill="midnightblue" stroke="midnightblue" points="298.61,-134.77 288.43,-131.83 294.56,-140.48 298.61,-134.77"/>
</g>
<!-- Node9 -->
<g id="node9" class="node">
<title>Node9</title>
<g id="a_node9"><a xlink:title=" ">
<polygon fill="white" stroke="#bfbfbf" points="461.5,-112.5 461.5,-131.5 520.5,-131.5 520.5,-112.5 461.5,-112.5"/>
<text text-anchor="middle" x="491" y="-119.5" font-family="Helvetica,sans-Serif" font-size="10.00">QWidget</text>
</a>
</g>
</g>
<!-- Node8&#45;&gt;Node9 -->
<g id="edge12" class="edge">
<title>Node8&#45;&gt;Node9</title>
<path fill="none" stroke="midnightblue" d="M374.02,-168.44C397.1,-159.48 433.56,-145.31 459.64,-135.18"/>
<polygon fill="midnightblue" stroke="midnightblue" points="461.02,-138.4 469.08,-131.52 458.49,-131.88 461.02,-138.4"/>
</g>
<!-- Node10&#45;&gt;Node2 -->
<g id="edge15" class="edge">
<title>Node10&#45;&gt;Node2</title>
<path fill="none" stroke="midnightblue" d="M819.41,-112.08C811.84,-104.22 800.62,-92.57 791.49,-83.08"/>
<polygon fill="midnightblue" stroke="midnightblue" points="793.88,-80.53 784.43,-75.75 788.84,-85.38 793.88,-80.53"/>
</g>
<!-- Node10&#45;&gt;Node11 -->
<g id="edge16" class="edge">
<title>Node10&#45;&gt;Node11</title>
<path fill="none" stroke="midnightblue" d="M904.9,-112.77C907.63,-112.5 910.34,-112.25 913,-112 1111.27,-93.62 1349.05,-76.23 1440.54,-69.71"/>
<polygon fill="midnightblue" stroke="midnightblue" points="1440.98,-73.19 1450.71,-68.99 1440.49,-66.2 1440.98,-73.19"/>
</g>
<!-- Node12&#45;&gt;Node2 -->
<g id="edge18" class="edge">
<title>Node12&#45;&gt;Node2</title>
<path fill="none" stroke="midnightblue" d="M540.04,-288.5C405.58,-286.77 89.19,-278.97 57,-244 50.98,-237.46 54.63,-232.57 57,-224 72.45,-168.09 74.56,-142.33 124,-112 168.41,-84.75 484.76,-73.44 659.94,-69.22"/>
<polygon fill="midnightblue" stroke="midnightblue" points="660.07,-72.72 669.98,-68.98 659.9,-65.72 660.07,-72.72"/>
</g>
<!-- Node12&#45;&gt;Node4 -->
<g id="edge19" class="edge">
<title>Node12&#45;&gt;Node4</title>
<path fill="none" stroke="midnightblue" d="M626.2,-280.43C687.02,-260.42 836.22,-210.6 884,-188 915.54,-173.09 949.67,-151.54 970.95,-137.41"/>
<polygon fill="midnightblue" stroke="midnightblue" points="973.15,-140.15 979.49,-131.67 969.24,-134.34 973.15,-140.15"/>
</g>
<!-- Node12&#45;&gt;Node5 -->
<g id="edge20" class="edge">
<title>Node12&#45;&gt;Node5</title>
<path fill="none" stroke="midnightblue" d="M540.2,-281.66C462.34,-272.11 326,-255.37 239.49,-244.76"/>
<polygon fill="midnightblue" stroke="midnightblue" points="239.81,-241.27 229.46,-243.52 238.96,-248.22 239.81,-241.27"/>
</g>
<!-- Node13 -->
<g id="node13" class="node">
<title>Node13</title>
<g id="a_node13"><a xlink:href="constpropagatingrawpointer_8h.html" target="_top" xlink:title=" ">
<polygon fill="white" stroke="black" points="806,-224.5 806,-243.5 968,-243.5 968,-224.5 806,-224.5"/>
<text text-anchor="middle" x="887" y="-231.5" font-family="Helvetica,sans-Serif" font-size="10.00">constpropagatingrawpointer.h</text>
</a>
</g>
</g>
<!-- Node12&#45;&gt;Node13 -->
<g id="edge21" class="edge">
<title>Node12&#45;&gt;Node13</title>
<path fill="none" stroke="midnightblue" d="M645.48,-280.44C695.96,-270.94 777.46,-255.61 831.62,-245.42"/>
<polygon fill="midnightblue" stroke="midnightblue" points="832.56,-248.81 841.74,-243.52 831.26,-241.93 832.56,-248.81"/>
</g>
<!-- Node14 -->
<g id="node14" class="node">
<title>Node14</title>
<g id="a_node14"><a xlink:title=" ">
<polygon fill="white" stroke="#bfbfbf" points="272.5,-224.5 272.5,-243.5 331.5,-243.5 331.5,-224.5 272.5,-224.5"/>
<text text-anchor="middle" x="302" y="-231.5" font-family="Helvetica,sans-Serif" font-size="10.00">QPointer</text>
</a>
</g>
</g>
<!-- Node12&#45;&gt;Node14 -->
<g id="edge24" class="edge">
<title>Node12&#45;&gt;Node14</title>
<path fill="none" stroke="midnightblue" d="M545.04,-280.49C494.55,-272.44 417.44,-259.59 341.98,-244.32"/>
<polygon fill="midnightblue" stroke="midnightblue" points="342.33,-240.82 331.83,-242.25 340.93,-247.68 342.33,-240.82"/>
</g>
<!-- Node15 -->
<g id="node15" class="node">
<title>Node15</title>
<g id="a_node15"><a xlink:href="colorwheel_8h.html" target="_top" xlink:title=" ">
<polygon fill="white" stroke="black" points="349.5,-224.5 349.5,-243.5 508.5,-243.5 508.5,-224.5 349.5,-224.5"/>
<text text-anchor="middle" x="429" y="-231.5" font-family="Helvetica,sans-Serif" font-size="10.00">PerceptualColor/colorwheel.h</text>
</a>
</g>
</g>
<!-- Node12&#45;&gt;Node15 -->
<g id="edge25" class="edge">
<title>Node12&#45;&gt;Node15</title>
<path fill="none" stroke="midnightblue" d="M572.9,-280.44C544.01,-271.32 498.08,-256.81 465.89,-246.65"/>
<polygon fill="midnightblue" stroke="midnightblue" points="466.56,-243.19 455.97,-243.52 464.45,-249.87 466.56,-243.19"/>
</g>
<!-- Node16 -->
<g id="node16" class="node">
<title>Node16</title>
<g id="a_node16"><a xlink:href="chromalightnessdiagram_8h.html" target="_top" xlink:title=" ">
<polygon fill="white" stroke="black" points="526.5,-224.5 526.5,-243.5 673.5,-243.5 673.5,-224.5 526.5,-224.5"/>
<text text-anchor="middle" x="600" y="-231.5" font-family="Helvetica,sans-Serif" font-size="10.00">chromalightnessdiagram.h</text>
</a>
</g>
</g>
<!-- Node12&#45;&gt;Node16 -->
<g id="edge30" class="edge">
<title>Node12&#45;&gt;Node16</title>
<path fill="none" stroke="midnightblue" d="M600,-280.08C600,-273.01 600,-262.86 600,-253.99"/>
<polygon fill="midnightblue" stroke="midnightblue" points="603.5,-253.75 600,-243.75 596.5,-253.75 603.5,-253.75"/>
</g>
<!-- Node12&#45;&gt;Node17 -->
<g id="edge36" class="edge">
<title>Node12&#45;&gt;Node17</title>
<path fill="none" stroke="midnightblue" d="M615.93,-280.37C651.21,-261.25 736.14,-215.23 778.34,-192.36"/>
<polygon fill="midnightblue" stroke="midnightblue" points="780.02,-195.43 787.14,-187.59 776.69,-189.28 780.02,-195.43"/>
</g>
<!-- Node13&#45;&gt;Node2 -->
<g id="edge22" class="edge">
<title>Node13&#45;&gt;Node2</title>
<path fill="none" stroke="midnightblue" d="M831.25,-224.46C806.17,-218.1 777.83,-207.08 758,-188 732.66,-163.62 723.5,-144.87 736,-112 740.34,-100.6 749.03,-90.24 757.21,-82.34"/>
<polygon fill="midnightblue" stroke="midnightblue" points="759.64,-84.86 764.73,-75.57 754.96,-79.66 759.64,-84.86"/>
</g>
<!-- Node13&#45;&gt;Node4 -->
<g id="edge23" class="edge">
<title>Node13&#45;&gt;Node4</title>
<path fill="none" stroke="midnightblue" d="M895.24,-224.37C912.8,-205.97 954.13,-162.67 976.68,-139.05"/>
<polygon fill="midnightblue" stroke="midnightblue" points="979.43,-141.24 983.8,-131.59 974.36,-136.41 979.43,-141.24"/>
</g>
<!-- Node15&#45;&gt;Node2 -->
<g id="edge26" class="edge">
<title>Node15&#45;&gt;Node2</title>
<path fill="none" stroke="midnightblue" d="M441.34,-224.29C472.3,-202.76 556.3,-146.26 633,-112 664.89,-97.76 702.63,-86.08 731.33,-78.2"/>
<polygon fill="midnightblue" stroke="midnightblue" points="732.34,-81.55 741.09,-75.57 730.52,-74.79 732.34,-81.55"/>
</g>
<!-- Node15&#45;&gt;Node6 -->
<g id="edge29" class="edge">
<title>Node15&#45;&gt;Node6</title>
<path fill="none" stroke="midnightblue" d="M360.07,-224.47C315.66,-217.4 263.74,-205.63 250,-188 238.74,-173.55 249.75,-153.59 260.71,-139.61"/>
<polygon fill="midnightblue" stroke="midnightblue" points="263.54,-141.68 267.33,-131.78 258.2,-137.16 263.54,-141.68"/>
</g>
<!-- Node15&#45;&gt;Node8 -->
<g id="edge28" class="edge">
<title>Node15&#45;&gt;Node8</title>
<path fill="none" stroke="midnightblue" d="M416.63,-224.32C404.84,-216.06 386.87,-203.45 372.86,-193.63"/>
<polygon fill="midnightblue" stroke="midnightblue" points="374.54,-190.53 364.34,-187.65 370.52,-196.26 374.54,-190.53"/>
</g>
<!-- Node15&#45;&gt;Node9 -->
<g id="edge27" class="edge">
<title>Node15&#45;&gt;Node9</title>
<path fill="none" stroke="midnightblue" d="M433.87,-224.37C444.05,-206.3 467.79,-164.18 481.24,-140.31"/>
<polygon fill="midnightblue" stroke="midnightblue" points="484.3,-142.02 486.16,-131.59 478.2,-138.58 484.3,-142.02"/>
</g>
<!-- Node16&#45;&gt;Node2 -->
<g id="edge31" class="edge">
<title>Node16&#45;&gt;Node2</title>
<path fill="none" stroke="midnightblue" d="M599.72,-224.34C599.51,-202.41 602.05,-144.17 633,-112 648.95,-95.42 670.95,-84.92 692.9,-78.29"/>
<polygon fill="midnightblue" stroke="midnightblue" points="693.93,-81.63 702.63,-75.59 692.05,-74.89 693.93,-81.63"/>
</g>
<!-- Node16&#45;&gt;Node4 -->
<g id="edge32" class="edge">
<title>Node16&#45;&gt;Node4</title>
<path fill="none" stroke="midnightblue" d="M673.63,-224.67C723.61,-217.8 790.76,-206.17 848,-188 868.09,-181.62 871.82,-176.73 891,-168 915.32,-156.93 943.06,-144.59 963.31,-135.64"/>
<polygon fill="midnightblue" stroke="midnightblue" points="964.86,-138.78 972.6,-131.53 962.03,-132.37 964.86,-138.78"/>
</g>
<!-- Node16&#45;&gt;Node6 -->
<g id="edge34" class="edge">
<title>Node16&#45;&gt;Node6</title>
<path fill="none" stroke="midnightblue" d="M583.3,-224.43C556.56,-210.97 502.24,-184.7 454,-168 412.6,-153.67 364.35,-141.76 328.54,-133.8"/>
<polygon fill="midnightblue" stroke="midnightblue" points="328.83,-130.28 318.32,-131.56 327.33,-137.11 328.83,-130.28"/>
</g>
<!-- Node16&#45;&gt;Node8 -->
<g id="edge33" class="edge">
<title>Node16&#45;&gt;Node8</title>
<path fill="none" stroke="midnightblue" d="M560.7,-224.44C517.44,-215.02 447.83,-199.87 401.03,-189.68"/>
<polygon fill="midnightblue" stroke="midnightblue" points="401.63,-186.22 391.11,-187.52 400.14,-193.06 401.63,-186.22"/>
</g>
<!-- Node16&#45;&gt;Node10 -->
<g id="edge35" class="edge">
<title>Node16&#45;&gt;Node10</title>
<path fill="none" stroke="midnightblue" d="M617.89,-224.37C657.68,-205.17 753.71,-158.84 800.9,-136.07"/>
<polygon fill="midnightblue" stroke="midnightblue" points="802.71,-139.09 810.19,-131.59 799.66,-132.78 802.71,-139.09"/>
</g>
<!-- Node17&#45;&gt;Node2 -->
<g id="edge37" class="edge">
<title>Node17&#45;&gt;Node2</title>
<path fill="none" stroke="midnightblue" d="M783.09,-168.41C768.78,-161.04 750.54,-148.92 742,-132 733.54,-115.24 746.09,-96.23 758.27,-83.12"/>
<polygon fill="midnightblue" stroke="midnightblue" points="761.01,-85.33 765.61,-75.79 756.06,-80.38 761.01,-85.33"/>
</g>
<!-- Node17&#45;&gt;Node4 -->
<g id="edge38" class="edge">
<title>Node17&#45;&gt;Node4</title>
<path fill="none" stroke="midnightblue" d="M832.95,-168.44C865.16,-159.24 916.53,-144.56 952.14,-134.39"/>
<polygon fill="midnightblue" stroke="midnightblue" points="953.54,-137.63 962.19,-131.52 951.62,-130.9 953.54,-137.63"/>
</g>
<!-- Node17&#45;&gt;Node10 -->
<g id="edge39" class="edge">
<title>Node17&#45;&gt;Node10</title>
<path fill="none" stroke="midnightblue" d="M807.13,-168.08C810.51,-160.77 815.42,-150.18 819.62,-141.1"/>
<polygon fill="midnightblue" stroke="midnightblue" points="822.92,-142.3 823.95,-131.75 816.57,-139.36 822.92,-142.3"/>
</g>
<!-- Node18&#45;&gt;Node2 -->
<g id="edge41" class="edge">
<title>Node18&#45;&gt;Node2</title>
<path fill="none" stroke="midnightblue" d="M862.26,-280.43C826.7,-267.05 763.91,-237.45 737,-188 720.72,-158.07 713.3,-143.19 727,-112 732.39,-99.73 742.96,-89.34 752.9,-81.65"/>
<polygon fill="midnightblue" stroke="midnightblue" points="755.25,-84.27 761.34,-75.6 751.17,-78.58 755.25,-84.27"/>
</g>
<!-- Node18&#45;&gt;Node4 -->
<g id="edge42" class="edge">
<title>Node18&#45;&gt;Node4</title>
<path fill="none" stroke="midnightblue" d="M922.05,-280.41C941.3,-273.73 964.05,-262.41 977,-244 998.54,-213.37 997.48,-167.29 994.76,-141.74"/>
<polygon fill="midnightblue" stroke="midnightblue" points="998.2,-141.06 993.47,-131.58 991.26,-141.94 998.2,-141.06"/>
</g>
<!-- Node18&#45;&gt;Node13 -->
<g id="edge59" class="edge">
<title>Node18&#45;&gt;Node13</title>
<path fill="none" stroke="midnightblue" d="M887.83,-280.08C887.7,-273.01 887.52,-262.86 887.35,-253.99"/>
<polygon fill="midnightblue" stroke="midnightblue" points="890.85,-253.68 887.16,-243.75 883.85,-253.81 890.85,-253.68"/>
</g>
<!-- Node18&#45;&gt;Node16 -->
<g id="edge43" class="edge">
<title>Node18&#45;&gt;Node16</title>
<path fill="none" stroke="midnightblue" d="M842.37,-280.44C791.7,-270.94 709.93,-255.61 655.57,-245.42"/>
<polygon fill="midnightblue" stroke="midnightblue" points="655.89,-241.92 645.42,-243.52 654.6,-248.8 655.89,-241.92"/>
</g>
<!-- Node19 -->
<g id="node19" class="node">
<title>Node19</title>
<g id="a_node19"><a xlink:href="chromalightnessimage_8h.html" target="_top" xlink:title=" ">
<polygon fill="white" stroke="black" points="1139.5,-224.5 1139.5,-243.5 1276.5,-243.5 1276.5,-224.5 1139.5,-224.5"/>
<text text-anchor="middle" x="1208" y="-231.5" font-family="Helvetica,sans-Serif" font-size="10.00">chromalightnessimage.h</text>
</a>
</g>
</g>
<!-- Node18&#45;&gt;Node19 -->
<g id="edge44" class="edge">
<title>Node18&#45;&gt;Node19</title>
<path fill="none" stroke="midnightblue" d="M938.7,-280.44C995.35,-270.89 1087,-255.42 1147.38,-245.23"/>
<polygon fill="midnightblue" stroke="midnightblue" points="1148.25,-248.63 1157.53,-243.52 1147.09,-241.73 1148.25,-248.63"/>
</g>
<!-- Node19&#45;&gt;Node2 -->
<g id="edge45" class="edge">
<title>Node19&#45;&gt;Node2</title>
<path fill="none" stroke="midnightblue" d="M1196.65,-224.26C1185.2,-215.36 1167.11,-201.04 1152,-188 1114.39,-155.53 1114.75,-133.6 1070,-112 1037.37,-96.25 952.15,-84.24 881.81,-76.61"/>
<polygon fill="midnightblue" stroke="midnightblue" points="881.87,-73.1 871.55,-75.52 881.13,-80.06 881.87,-73.1"/>
</g>
<!-- Node19&#45;&gt;Node4 -->
<g id="edge46" class="edge">
<title>Node19&#45;&gt;Node4</title>
<path fill="none" stroke="midnightblue" d="M1190.93,-224.4C1173,-215.36 1144,-200.72 1119,-188 1083.96,-170.17 1043.55,-149.47 1017.9,-136.3"/>
<polygon fill="midnightblue" stroke="midnightblue" points="1019.33,-133.1 1008.83,-131.65 1016.13,-139.33 1019.33,-133.1"/>
</g>
<!-- Node20 -->
<g id="node20" class="node">
<title>Node20</title>
<g id="a_node20"><a xlink:title=" ">
<polygon fill="white" stroke="#bfbfbf" points="1517.5,-112.5 1517.5,-131.5 1572.5,-131.5 1572.5,-112.5 1517.5,-112.5"/>
<text text-anchor="middle" x="1545" y="-119.5" font-family="Helvetica,sans-Serif" font-size="10.00">QImage</text>
</a>
</g>
</g>
<!-- Node19&#45;&gt;Node20 -->
<g id="edge47" class="edge">
<title>Node19&#45;&gt;Node20</title>
<path fill="none" stroke="midnightblue" d="M1217.32,-224.45C1233.34,-210.27 1267.67,-182.07 1302,-168 1385.06,-133.95 1414.97,-149.81 1507.14,-132"/>
<polygon fill="midnightblue" stroke="midnightblue" points="1508.05,-135.39 1517.16,-129.98 1506.67,-128.52 1508.05,-135.39"/>
</g>
<!-- Node21 -->
<g id="node21" class="node">
<title>Node21</title>
<g id="a_node21"><a xlink:title=" ">
<polygon fill="white" stroke="#bfbfbf" points="1311,-168.5 1311,-187.5 1403,-187.5 1403,-168.5 1311,-168.5"/>
<text text-anchor="middle" x="1357" y="-175.5" font-family="Helvetica,sans-Serif" font-size="10.00">QSharedPointer</text>
</a>
</g>
</g>
<!-- Node19&#45;&gt;Node21 -->
<g id="edge48" class="edge">
<title>Node19&#45;&gt;Node21</title>
<path fill="none" stroke="midnightblue" d="M1231.61,-224.44C1256.46,-215.44 1295.77,-201.19 1323.75,-191.05"/>
<polygon fill="midnightblue" stroke="midnightblue" points="1325.29,-194.21 1333.5,-187.52 1322.91,-187.63 1325.29,-194.21"/>
</g>
<!-- Node22 -->
<g id="node22" class="node">
<title>Node22</title>
<g id="a_node22"><a xlink:href="rgbcolorspace_8h.html" target="_top" xlink:title=" ">
<polygon fill="white" stroke="black" points="1161,-168.5 1161,-187.5 1255,-187.5 1255,-168.5 1161,-168.5"/>
<text text-anchor="middle" x="1208" y="-175.5" font-family="Helvetica,sans-Serif" font-size="10.00">rgbcolorspace.h</text>
</a>
</g>
</g>
<!-- Node19&#45;&gt;Node22 -->
<g id="edge49" class="edge">
<title>Node19&#45;&gt;Node22</title>
<path fill="none" stroke="midnightblue" d="M1208,-224.08C1208,-217.01 1208,-206.86 1208,-197.99"/>
<polygon fill="midnightblue" stroke="midnightblue" points="1211.5,-197.75 1208,-187.75 1204.5,-197.75 1211.5,-197.75"/>
</g>
<!-- Node22&#45;&gt;Node2 -->
<g id="edge50" class="edge">
<title>Node22&#45;&gt;Node2</title>
<path fill="none" stroke="midnightblue" d="M1197.57,-168.33C1179.67,-153.99 1141.44,-125.56 1104,-112 1036.29,-87.48 956.28,-76.18 892.24,-71.03"/>
<polygon fill="midnightblue" stroke="midnightblue" points="892.34,-67.53 882.1,-70.26 891.81,-74.51 892.34,-67.53"/>
</g>
<!-- Node22&#45;&gt;Node4 -->
<g id="edge51" class="edge">
<title>Node22&#45;&gt;Node4</title>
<path fill="none" stroke="midnightblue" d="M1173.77,-168.44C1136.49,-159.12 1076.73,-144.18 1035.99,-134"/>
<polygon fill="midnightblue" stroke="midnightblue" points="1036.62,-130.55 1026.07,-131.52 1034.92,-137.34 1036.62,-130.55"/>
</g>
<!-- Node22&#45;&gt;Node6 -->
<g id="edge53" class="edge">
<title>Node22&#45;&gt;Node6</title>
<path fill="none" stroke="midnightblue" d="M1160.82,-174.27C1024.77,-166.38 627.85,-143.39 414.87,-131.05"/>
<polygon fill="midnightblue" stroke="midnightblue" points="415.06,-127.55 404.87,-130.47 414.65,-134.54 415.06,-127.55"/>
</g>
<!-- Node22&#45;&gt;Node10 -->
<g id="edge57" class="edge">
<title>Node22&#45;&gt;Node10</title>
<path fill="none" stroke="midnightblue" d="M1160.64,-170.27C1094.57,-160.88 974.27,-143.79 897.88,-132.93"/>
<polygon fill="midnightblue" stroke="midnightblue" points="898.26,-129.45 887.86,-131.51 897.27,-136.38 898.26,-129.45"/>
</g>
<!-- Node23 -->
<g id="node23" class="node">
<title>Node23</title>
<g id="a_node23"><a xlink:title=" ">
<polygon fill="white" stroke="#bfbfbf" points="1332,-112.5 1332,-131.5 1388,-131.5 1388,-112.5 1332,-112.5"/>
<text text-anchor="middle" x="1360" y="-119.5" font-family="Helvetica,sans-Serif" font-size="10.00">QObject</text>
</a>
</g>
</g>
<!-- Node22&#45;&gt;Node23 -->
<g id="edge52" class="edge">
<title>Node22&#45;&gt;Node23</title>
<path fill="none" stroke="midnightblue" d="M1232.08,-168.44C1257.54,-159.4 1297.89,-145.06 1326.46,-134.92"/>
<polygon fill="midnightblue" stroke="midnightblue" points="1327.78,-138.16 1336.03,-131.52 1325.43,-131.57 1327.78,-138.16"/>
</g>
<!-- Node24 -->
<g id="node24" class="node">
<title>Node24</title>
<g id="a_node24"><a xlink:href="lchadouble_8h.html" target="_top" xlink:title=" ">
<polygon fill="white" stroke="black" points="1155.5,-112.5 1155.5,-131.5 1314.5,-131.5 1314.5,-112.5 1155.5,-112.5"/>
<text text-anchor="middle" x="1235" y="-119.5" font-family="Helvetica,sans-Serif" font-size="10.00">PerceptualColor/lchadouble.h</text>
</a>
</g>
</g>
<!-- Node22&#45;&gt;Node24 -->
<g id="edge54" class="edge">
<title>Node22&#45;&gt;Node24</title>
<path fill="none" stroke="midnightblue" d="M1212.46,-168.08C1216.15,-160.69 1221.52,-149.95 1226.09,-140.81"/>
<polygon fill="midnightblue" stroke="midnightblue" points="1229.28,-142.26 1230.62,-131.75 1223.02,-139.13 1229.28,-142.26"/>
</g>
<!-- Node25 -->
<g id="node25" class="node">
<title>Node25</title>
<g id="a_node25"><a xlink:title=" ">
<polygon fill="white" stroke="#bfbfbf" points="1444.5,-112.5 1444.5,-131.5 1499.5,-131.5 1499.5,-112.5 1444.5,-112.5"/>
<text text-anchor="middle" x="1472" y="-119.5" font-family="Helvetica,sans-Serif" font-size="10.00">lcms2.h</text>
</a>
</g>
</g>
<!-- Node22&#45;&gt;Node25 -->
<g id="edge58" class="edge">
<title>Node22&#45;&gt;Node25</title>
<path fill="none" stroke="midnightblue" d="M1249.83,-168.44C1300.6,-158.06 1385.45,-140.7 1434.28,-130.71"/>
<polygon fill="midnightblue" stroke="midnightblue" points="1435.04,-134.13 1444.13,-128.7 1433.63,-127.28 1435.04,-134.13"/>
</g>
<!-- Node24&#45;&gt;Node2 -->
<g id="edge55" class="edge">
<title>Node24&#45;&gt;Node2</title>
<path fill="none" stroke="midnightblue" d="M1162.52,-112.47C1079.9,-102.75 945.12,-86.9 858.53,-76.71"/>
<polygon fill="midnightblue" stroke="midnightblue" points="858.82,-73.22 848.47,-75.53 858,-80.17 858.82,-73.22"/>
</g>
<!-- Node24&#45;&gt;Node11 -->
<g id="edge56" class="edge">
<title>Node24&#45;&gt;Node11</title>
<path fill="none" stroke="midnightblue" d="M1273.66,-112.44C1319.51,-102.3 1395.44,-85.49 1441,-75.41"/>
<polygon fill="midnightblue" stroke="midnightblue" points="1441.78,-78.82 1450.79,-73.24 1440.27,-71.99 1441.78,-78.82"/>
</g>
<!-- Node26&#45;&gt;Node2 -->
<g id="edge61" class="edge">
<title>Node26&#45;&gt;Node2</title>
<path fill="none" stroke="midnightblue" d="M1190.21,-286.59C1376.72,-275.86 2071.47,-227.78 1960,-112 1941.64,-92.93 1187.1,-75.43 892.31,-69.31"/>
<polygon fill="midnightblue" stroke="midnightblue" points="892.08,-65.8 882.01,-69.09 891.94,-72.8 892.08,-65.8"/>
</g>
<!-- Node26&#45;&gt;Node4 -->
<g id="edge62" class="edge">
<title>Node26&#45;&gt;Node4</title>
<path fill="none" stroke="midnightblue" d="M1137.02,-280.14C1125.71,-267.6 1104.36,-243.97 1086,-224 1058.34,-193.91 1025.79,-159.06 1007.16,-139.17"/>
<polygon fill="midnightblue" stroke="midnightblue" points="1009.48,-136.52 1000.08,-131.61 1004.37,-141.3 1009.48,-136.52"/>
</g>
<!-- Node26&#45;&gt;Node13 -->
<g id="edge71" class="edge">
<title>Node26&#45;&gt;Node13</title>
<path fill="none" stroke="midnightblue" d="M1104.12,-280.44C1059.02,-271 986.39,-255.8 937.7,-245.61"/>
<polygon fill="midnightblue" stroke="midnightblue" points="938.19,-242.14 927.69,-243.52 936.76,-248.99 938.19,-242.14"/>
</g>
<!-- Node26&#45;&gt;Node15 -->
<g id="edge63" class="edge">
<title>Node26&#45;&gt;Node15</title>
<path fill="none" stroke="midnightblue" d="M1099.65,-286.22C997.75,-279.89 742.68,-263.45 518.59,-244.12"/>
<polygon fill="midnightblue" stroke="midnightblue" points="518.88,-240.63 508.62,-243.25 518.28,-247.6 518.88,-240.63"/>
</g>
<!-- Node27 -->
<g id="node27" class="node">
<title>Node27</title>
<g id="a_node27"><a xlink:href="colorwheelimage_8h.html" target="_top" xlink:title=" ">
<polygon fill="white" stroke="black" points="1376,-224.5 1376,-243.5 1486,-243.5 1486,-224.5 1376,-224.5"/>
<text text-anchor="middle" x="1431" y="-231.5" font-family="Helvetica,sans-Serif" font-size="10.00">colorwheelimage.h</text>
</a>
</g>
</g>
<!-- Node26&#45;&gt;Node27 -->
<g id="edge64" class="edge">
<title>Node26&#45;&gt;Node27</title>
<path fill="none" stroke="midnightblue" d="M1190,-280.5C1240.25,-271.02 1321.6,-255.66 1375.69,-245.44"/>
<polygon fill="midnightblue" stroke="midnightblue" points="1376.61,-248.83 1385.79,-243.54 1375.31,-241.95 1376.61,-248.83"/>
</g>
<!-- Node28 -->
<g id="node28" class="node">
<title>Node28</title>
<g id="a_node28"><a xlink:href="polarpointf_8h.html" target="_top" xlink:title=" ">
<polygon fill="white" stroke="black" points="1753,-168.5 1753,-187.5 1831,-187.5 1831,-168.5 1753,-168.5"/>
<text text-anchor="middle" x="1792" y="-175.5" font-family="Helvetica,sans-Serif" font-size="10.00">polarpointf.h</text>
</a>
</g>
</g>
<!-- Node26&#45;&gt;Node28 -->
<g id="edge72" class="edge">
<title>Node26&#45;&gt;Node28</title>
<path fill="none" stroke="midnightblue" d="M1190.22,-284.47C1257.09,-277.47 1386.19,-262.86 1495,-244 1585.27,-228.35 1689.67,-204.04 1747.54,-190.01"/>
<polygon fill="midnightblue" stroke="midnightblue" points="1748.56,-193.36 1757.44,-187.6 1746.9,-186.56 1748.56,-193.36"/>
</g>
<!-- Node27&#45;&gt;Node2 -->
<g id="edge65" class="edge">
<title>Node27&#45;&gt;Node2</title>
<path fill="none" stroke="midnightblue" d="M1440.46,-224.21C1452.66,-211.75 1471.27,-188.23 1462,-168 1454.06,-150.67 1414.62,-119.28 1397,-112 1308.74,-75.54 1046.49,-67.97 892.46,-66.78"/>
<polygon fill="midnightblue" stroke="midnightblue" points="892.05,-63.28 882.02,-66.71 892,-70.28 892.05,-63.28"/>
</g>
<!-- Node27&#45;&gt;Node4 -->
<g id="edge66" class="edge">
<title>Node27&#45;&gt;Node4</title>
<path fill="none" stroke="midnightblue" d="M1431.28,-224.23C1431.2,-209.99 1428.77,-182.03 1412,-168 1399.14,-157.24 1190.23,-138.88 1072,-129.28"/>
<polygon fill="midnightblue" stroke="midnightblue" points="1072.15,-125.78 1061.9,-128.46 1071.58,-132.76 1072.15,-125.78"/>
</g>
<!-- Node27&#45;&gt;Node20 -->
<g id="edge67" class="edge">
<title>Node27&#45;&gt;Node20</title>
<path fill="none" stroke="midnightblue" d="M1460.91,-224.43C1480.38,-217.46 1505.03,-205.83 1521,-188 1532.65,-174.99 1538.81,-155.83 1541.95,-141.68"/>
<polygon fill="midnightblue" stroke="midnightblue" points="1545.44,-142.1 1543.88,-131.62 1538.56,-140.78 1545.44,-142.1"/>
</g>
<!-- Node27&#45;&gt;Node21 -->
<g id="edge69" class="edge">
<title>Node27&#45;&gt;Node21</title>
<path fill="none" stroke="midnightblue" d="M1419.11,-224.32C1407.85,-216.11 1390.71,-203.6 1377.29,-193.81"/>
<polygon fill="midnightblue" stroke="midnightblue" points="1379.25,-190.9 1369.11,-187.83 1375.12,-196.56 1379.25,-190.9"/>
</g>
<!-- Node27&#45;&gt;Node22 -->
<g id="edge70" class="edge">
<title>Node27&#45;&gt;Node22</title>
<path fill="none" stroke="midnightblue" d="M1395.66,-224.44C1357.09,-215.1 1295.22,-200.12 1253.15,-189.93"/>
<polygon fill="midnightblue" stroke="midnightblue" points="1253.71,-186.47 1243.17,-187.52 1252.07,-193.27 1253.71,-186.47"/>
</g>
<!-- Node27&#45;&gt;Node23 -->
<g id="edge68" class="edge">
<title>Node27&#45;&gt;Node23</title>
<path fill="none" stroke="midnightblue" d="M1436.55,-224.36C1444.19,-211.26 1455.84,-186 1445,-168 1434.68,-150.86 1415.4,-139.91 1397.81,-133.1"/>
<polygon fill="midnightblue" stroke="midnightblue" points="1398.87,-129.77 1388.28,-129.74 1396.54,-136.37 1398.87,-129.77"/>
</g>
<!-- Node28&#45;&gt;Node2 -->
<g id="edge73" class="edge">
<title>Node28&#45;&gt;Node2</title>
<path fill="none" stroke="midnightblue" d="M1785.77,-168.23C1774.7,-153.47 1750.01,-124.07 1721,-112 1646.43,-80.96 1128.54,-71.05 892.62,-68.13"/>
<polygon fill="midnightblue" stroke="midnightblue" points="892.33,-64.62 882.29,-68 892.25,-71.62 892.33,-64.62"/>
</g>
<!-- Node28&#45;&gt;Node4 -->
<g id="edge74" class="edge">
<title>Node28&#45;&gt;Node4</title>
<path fill="none" stroke="midnightblue" d="M1752.87,-174.36C1628.52,-165.97 1240.64,-139.78 1071.83,-128.39"/>
<polygon fill="midnightblue" stroke="midnightblue" points="1071.97,-124.89 1061.76,-127.71 1071.5,-131.87 1071.97,-124.89"/>
</g>
<!-- Node28&#45;&gt;Node11 -->
<g id="edge75" class="edge">
<title>Node28&#45;&gt;Node11</title>
<path fill="none" stroke="midnightblue" d="M1831.11,-174.76C1892.16,-169.91 1999.27,-155.12 1960,-112 1930.38,-79.48 1626.36,-70.04 1517.5,-67.69"/>
<polygon fill="midnightblue" stroke="midnightblue" points="1517.37,-64.19 1507.3,-67.48 1517.22,-71.19 1517.37,-64.19"/>
</g>
<!-- Node29 -->
<g id="node29" class="node">
<title>Node29</title>
<g id="a_node29"><a xlink:title=" ">
<polygon fill="white" stroke="#bfbfbf" points="1807.5,-112.5 1807.5,-131.5 1878.5,-131.5 1878.5,-112.5 1807.5,-112.5"/>
<text text-anchor="middle" x="1843" y="-119.5" font-family="Helvetica,sans-Serif" font-size="10.00">QMetaType</text>
</a>
</g>
</g>
<!-- Node28&#45;&gt;Node29 -->
<g id="edge76" class="edge">
<title>Node28&#45;&gt;Node29</title>
<path fill="none" stroke="midnightblue" d="M1800.42,-168.08C1807.85,-160.22 1818.85,-148.57 1827.81,-139.08"/>
<polygon fill="midnightblue" stroke="midnightblue" points="1830.41,-141.42 1834.74,-131.75 1825.32,-136.62 1830.41,-141.42"/>
</g>
<!-- Node30 -->
<g id="node30" class="node">
<title>Node30</title>
<g id="a_node30"><a xlink:title=" ">
<polygon fill="white" stroke="#bfbfbf" points="1896.5,-112.5 1896.5,-131.5 1951.5,-131.5 1951.5,-112.5 1896.5,-112.5"/>
<text text-anchor="middle" x="1924" y="-119.5" font-family="Helvetica,sans-Serif" font-size="10.00">QPointF</text>
</a>
</g>
</g>
<!-- Node28&#45;&gt;Node30 -->
<g id="edge77" class="edge">
<title>Node28&#45;&gt;Node30</title>
<path fill="none" stroke="midnightblue" d="M1812.92,-168.44C1834.74,-159.52 1869.15,-145.44 1893.89,-135.32"/>
<polygon fill="midnightblue" stroke="midnightblue" points="1895.25,-138.54 1903.18,-131.52 1892.6,-132.06 1895.25,-138.54"/>
</g>
<!-- Node31&#45;&gt;Node2 -->
<g id="edge79" class="edge">
<title>Node31&#45;&gt;Node2</title>
<path fill="none" stroke="midnightblue" d="M1601.21,-168.11C1601.02,-153.71 1598.29,-125.53 1581,-112 1528.13,-70.62 1102.36,-65.99 892.33,-66.27"/>
<polygon fill="midnightblue" stroke="midnightblue" points="892.18,-62.77 882.18,-66.28 892.19,-69.77 892.18,-62.77"/>
</g>
<!-- Node31&#45;&gt;Node3 -->
<g id="edge83" class="edge">
<title>Node31&#45;&gt;Node3</title>
<path fill="none" stroke="midnightblue" d="M1629.01,-172.93C1672.28,-165.47 1747.74,-147.03 1721,-112 1668.67,-43.46 1394.56,-19.76 1290.83,-13.17"/>
<polygon fill="midnightblue" stroke="midnightblue" points="1290.95,-9.67 1280.76,-12.55 1290.52,-16.66 1290.95,-9.67"/>
</g>
<!-- Node31&#45;&gt;Node4 -->
<g id="edge80" class="edge">
<title>Node31&#45;&gt;Node4</title>
<path fill="none" stroke="midnightblue" d="M1572.85,-174.5C1484.3,-166.65 1209.2,-142.26 1071.79,-130.07"/>
<polygon fill="midnightblue" stroke="midnightblue" points="1072,-126.58 1061.73,-129.18 1071.39,-133.55 1072,-126.58"/>
</g>
<!-- Node31&#45;&gt;Node10 -->
<g id="edge84" class="edge">
<title>Node31&#45;&gt;Node10</title>
<path fill="none" stroke="midnightblue" d="M1572.79,-175.56C1480.15,-170.76 1176.66,-154.33 914.97,-132.14"/>
<polygon fill="midnightblue" stroke="midnightblue" points="915.16,-128.64 904.9,-131.28 914.56,-135.62 915.16,-128.64"/>
</g>
<!-- Node31&#45;&gt;Node20 -->
<g id="edge81" class="edge">
<title>Node31&#45;&gt;Node20</title>
<path fill="none" stroke="midnightblue" d="M1592,-168.32C1583.81,-160.42 1571.49,-148.55 1561.53,-138.94"/>
<polygon fill="midnightblue" stroke="midnightblue" points="1563.79,-136.26 1554.16,-131.83 1558.93,-141.29 1563.79,-136.26"/>
</g>
<!-- Node31&#45;&gt;Node25 -->
<g id="edge85" class="edge">
<title>Node31&#45;&gt;Node25</title>
<path fill="none" stroke="midnightblue" d="M1580.56,-168.44C1559.33,-159.56 1525.9,-145.56 1501.75,-135.45"/>
<polygon fill="midnightblue" stroke="midnightblue" points="1502.92,-132.15 1492.34,-131.52 1500.22,-138.61 1502.92,-132.15"/>
</g>
<!-- Node32 -->
<g id="node32" class="node">
<title>Node32</title>
<g id="a_node32"><a xlink:title=" ">
<polygon fill="white" stroke="#bfbfbf" points="1629.5,-112.5 1629.5,-131.5 1712.5,-131.5 1712.5,-112.5 1629.5,-112.5"/>
<text text-anchor="middle" x="1671" y="-119.5" font-family="Helvetica,sans-Serif" font-size="10.00">QWheelEvent</text>
</a>
</g>
</g>
<!-- Node31&#45;&gt;Node32 -->
<g id="edge82" class="edge">
<title>Node31&#45;&gt;Node32</title>
<path fill="none" stroke="midnightblue" d="M1612.25,-168.32C1622.8,-160.18 1638.8,-147.84 1651.44,-138.09"/>
<polygon fill="midnightblue" stroke="midnightblue" points="1653.77,-140.71 1659.55,-131.83 1649.49,-135.17 1653.77,-140.71"/>
</g>
</g>
</svg>
