<?xml version="1.0" encoding="UTF-8" standalone="no"?>
<!DOCTYPE svg PUBLIC "-//W3C//DTD SVG 1.1//EN"
 "http://www.w3.org/Graphics/SVG/1.1/DTD/svg11.dtd">
<!-- Generated by graphviz version 2.43.0 (0)
 -->
<!-- Title: src/wheelcolorpicker_p.h Pages: 1 -->
<svg width="937pt" height="308pt"
 viewBox="0.00 0.00 937.26 308.00" xmlns="http://www.w3.org/2000/svg" xmlns:xlink="http://www.w3.org/1999/xlink">
<g id="graph0" class="graph" transform="scale(1 1) rotate(0) translate(4 304)">
<title>src/wheelcolorpicker_p.h</title>
<polygon fill="white" stroke="transparent" points="-4,4 -4,-304 933.26,-304 933.26,4 -4,4"/>
<!-- Node1 -->
<g id="node1" class="node">
<title>Node1</title>
<g id="a_node1"><a xlink:title=" ">
<polygon fill="#bfbfbf" stroke="black" points="262.26,-280.5 262.26,-299.5 399.26,-299.5 399.26,-280.5 262.26,-280.5"/>
<text text-anchor="middle" x="330.76" y="-287.5" font-family="Helvetica,sans-Serif" font-size="10.00">src/wheelcolorpicker_p.h</text>
</a>
</g>
</g>
<!-- Node2 -->
<g id="node2" class="node">
<title>Node2</title>
<g id="a_node2"><a xlink:href="perceptualcolorglobal_8h.html" target="_top" xlink:title=" ">
<polygon fill="white" stroke="black" points="290.76,-56.5 290.76,-75.5 502.76,-75.5 502.76,-56.5 290.76,-56.5"/>
<text text-anchor="middle" x="396.76" y="-63.5" font-family="Helvetica,sans-Serif" font-size="10.00">PerceptualColor/perceptualcolorglobal.h</text>
</a>
</g>
</g>
<!-- Node1&#45;&gt;Node2 -->
<g id="edge1" class="edge">
<title>Node1&#45;&gt;Node2</title>
<path fill="none" stroke="midnightblue" d="M262.06,-289.68C176.22,-288.88 36.57,-281.63 3.76,-244 -2.08,-237.3 0.4,-232.23 3.76,-224 30.65,-158.26 54.11,-143.51 117.76,-112 167.75,-87.26 228.35,-75.62 280.29,-70.32"/>
<polygon fill="midnightblue" stroke="midnightblue" points="280.93,-73.77 290.55,-69.34 280.27,-66.81 280.93,-73.77"/>
</g>
<!-- Node4 -->
<g id="node4" class="node">
<title>Node4</title>
<g id="a_node4"><a xlink:href="perceptualcolorinternal_8h.html" target="_top" xlink:title=" ">
<polygon fill="white" stroke="black" points="75.26,-168.5 75.26,-187.5 214.26,-187.5 214.26,-168.5 75.26,-168.5"/>
<text text-anchor="middle" x="144.76" y="-175.5" font-family="Helvetica,sans-Serif" font-size="10.00">perceptualcolorinternal.h</text>
</a>
</g>
</g>
<!-- Node1&#45;&gt;Node4 -->
<g id="edge3" class="edge">
<title>Node1&#45;&gt;Node4</title>
<path fill="none" stroke="midnightblue" d="M303.67,-280.45C280.91,-272.66 248,-259.95 221.76,-244 198.56,-229.89 175.18,-208.99 160.37,-194.72"/>
<polygon fill="midnightblue" stroke="midnightblue" points="162.67,-192.07 153.08,-187.56 157.76,-197.07 162.67,-192.07"/>
</g>
<!-- Node5 -->
<g id="node5" class="node">
<title>Node5</title>
<g id="a_node5"><a xlink:href="wheelcolorpicker_8h.html" target="_top" xlink:title=" ">
<polygon fill="white" stroke="black" points="663.76,-224.5 663.76,-243.5 851.76,-243.5 851.76,-224.5 663.76,-224.5"/>
<text text-anchor="middle" x="757.76" y="-231.5" font-family="Helvetica,sans-Serif" font-size="10.00">PerceptualColor/wheelcolorpicker.h</text>
</a>
</g>
</g>
<!-- Node1&#45;&gt;Node5 -->
<g id="edge5" class="edge">
<title>Node1&#45;&gt;Node5</title>
<path fill="none" stroke="midnightblue" d="M398.42,-280.44C475.1,-270.75 599.84,-254.97 680.34,-244.79"/>
<polygon fill="midnightblue" stroke="midnightblue" points="680.94,-248.24 690.42,-243.52 680.06,-241.3 680.94,-248.24"/>
</g>
<!-- Node12 -->
<g id="node12" class="node">
<title>Node12</title>
<g id="a_node12"><a xlink:href="constpropagatingrawpointer_8h.html" target="_top" xlink:title=" ">
<polygon fill="white" stroke="black" points="12.76,-224.5 12.76,-243.5 174.76,-243.5 174.76,-224.5 12.76,-224.5"/>
<text text-anchor="middle" x="93.76" y="-231.5" font-family="Helvetica,sans-Serif" font-size="10.00">constpropagatingrawpointer.h</text>
</a>
</g>
</g>
<!-- Node1&#45;&gt;Node12 -->
<g id="edge17" class="edge">
<title>Node1&#45;&gt;Node12</title>
<path fill="none" stroke="midnightblue" d="M293.21,-280.44C251.95,-271.04 185.62,-255.93 140.9,-245.74"/>
<polygon fill="midnightblue" stroke="midnightblue" points="141.67,-242.33 131.14,-243.52 140.11,-249.15 141.67,-242.33"/>
</g>
<!-- Node13 -->
<g id="node13" class="node">
<title>Node13</title>
<g id="a_node13"><a xlink:title=" ">
<polygon fill="white" stroke="#bfbfbf" points="870.26,-224.5 870.26,-243.5 929.26,-243.5 929.26,-224.5 870.26,-224.5"/>
<text text-anchor="middle" x="899.76" y="-231.5" font-family="Helvetica,sans-Serif" font-size="10.00">QPointer</text>
</a>
</g>
</g>
<!-- Node1&#45;&gt;Node13 -->
<g id="edge20" class="edge">
<title>Node1&#45;&gt;Node13</title>
<path fill="none" stroke="midnightblue" d="M399.32,-286.29C498.77,-281.68 688.91,-270.27 860.09,-243.87"/>
<polygon fill="midnightblue" stroke="midnightblue" points="860.7,-247.32 870.04,-242.32 859.62,-240.4 860.7,-247.32"/>
</g>
<!-- Node14 -->
<g id="node14" class="node">
<title>Node14</title>
<g id="a_node14"><a xlink:href="colorwheel_8h.html" target="_top" xlink:title=" ">
<polygon fill="white" stroke="black" points="486.26,-224.5 486.26,-243.5 645.26,-243.5 645.26,-224.5 486.26,-224.5"/>
<text text-anchor="middle" x="565.76" y="-231.5" font-family="Helvetica,sans-Serif" font-size="10.00">PerceptualColor/colorwheel.h</text>
</a>
</g>
</g>
<!-- Node1&#45;&gt;Node14 -->
<g id="edge21" class="edge">
<title>Node1&#45;&gt;Node14</title>
<path fill="none" stroke="midnightblue" d="M368,-280.44C408.82,-271.06 474.4,-255.99 518.75,-245.8"/>
<polygon fill="midnightblue" stroke="midnightblue" points="519.74,-249.17 528.7,-243.52 518.17,-242.34 519.74,-249.17"/>
</g>
<!-- Node15 -->
<g id="node15" class="node">
<title>Node15</title>
<g id="a_node15"><a xlink:href="chromalightnessdiagram_8h.html" target="_top" xlink:title=" ">
<polygon fill="white" stroke="black" points="321.26,-224.5 321.26,-243.5 468.26,-243.5 468.26,-224.5 321.26,-224.5"/>
<text text-anchor="middle" x="394.76" y="-231.5" font-family="Helvetica,sans-Serif" font-size="10.00">chromalightnessdiagram.h</text>
</a>
</g>
</g>
<!-- Node1&#45;&gt;Node15 -->
<g id="edge26" class="edge">
<title>Node1&#45;&gt;Node15</title>
<path fill="none" stroke="midnightblue" d="M341.04,-280.32C350.6,-272.26 365.04,-260.08 376.55,-250.37"/>
<polygon fill="midnightblue" stroke="midnightblue" points="378.91,-252.96 384.29,-243.83 374.39,-247.61 378.91,-252.96"/>
</g>
<!-- Node16 -->
<g id="node16" class="node">
<title>Node16</title>
<g id="a_node16"><a xlink:href="lchvalues_8h.html" target="_top" xlink:title=" ">
<polygon fill="white" stroke="black" points="230.76,-224.5 230.76,-243.5 302.76,-243.5 302.76,-224.5 230.76,-224.5"/>
<text text-anchor="middle" x="266.76" y="-231.5" font-family="Helvetica,sans-Serif" font-size="10.00">lchvalues.h</text>
</a>
</g>
</g>
<!-- Node1&#45;&gt;Node16 -->
<g id="edge32" class="edge">
<title>Node1&#45;&gt;Node16</title>
<path fill="none" stroke="midnightblue" d="M320.48,-280.32C310.93,-272.26 296.48,-260.08 284.98,-250.37"/>
<polygon fill="midnightblue" stroke="midnightblue" points="287.13,-247.61 277.23,-243.83 282.62,-252.96 287.13,-247.61"/>
</g>
<!-- Node3 -->
<g id="node3" class="node">
<title>Node3</title>
<g id="a_node3"><a xlink:title=" ">
<polygon fill="white" stroke="#bfbfbf" points="367.26,-0.5 367.26,-19.5 426.26,-19.5 426.26,-0.5 367.26,-0.5"/>
<text text-anchor="middle" x="396.76" y="-7.5" font-family="Helvetica,sans-Serif" font-size="10.00">QtGlobal</text>
</a>
</g>
</g>
<!-- Node2&#45;&gt;Node3 -->
<g id="edge2" class="edge">
<title>Node2&#45;&gt;Node3</title>
<path fill="none" stroke="midnightblue" d="M396.76,-56.08C396.76,-49.01 396.76,-38.86 396.76,-29.99"/>
<polygon fill="midnightblue" stroke="midnightblue" points="400.26,-29.75 396.76,-19.75 393.26,-29.75 400.26,-29.75"/>
</g>
<!-- Node4&#45;&gt;Node2 -->
<g id="edge4" class="edge">
<title>Node4&#45;&gt;Node2</title>
<path fill="none" stroke="midnightblue" d="M153.28,-168.49C167.61,-154.64 198.03,-127.23 228.76,-112 261.86,-95.6 301.69,-84.59 334.26,-77.58"/>
<polygon fill="midnightblue" stroke="midnightblue" points="335.05,-80.99 344.12,-75.52 333.62,-74.13 335.05,-80.99"/>
</g>
<!-- Node5&#45;&gt;Node2 -->
<g id="edge6" class="edge">
<title>Node5&#45;&gt;Node2</title>
<path fill="none" stroke="midnightblue" d="M783.7,-224.39C835.95,-205.76 945.29,-159.58 901.76,-112 876.03,-83.88 653.92,-73.21 512.96,-69.25"/>
<polygon fill="midnightblue" stroke="midnightblue" points="513.04,-65.75 502.95,-68.98 512.85,-72.75 513.04,-65.75"/>
</g>
<!-- Node6 -->
<g id="node6" class="node">
<title>Node6</title>
<g id="a_node6"><a xlink:href="constpropagatinguniquepointer_8h.html" target="_top" xlink:title=" ">
<polygon fill="white" stroke="black" points="635.26,-112.5 635.26,-131.5 892.26,-131.5 892.26,-112.5 635.26,-112.5"/>
<text text-anchor="middle" x="763.76" y="-119.5" font-family="Helvetica,sans-Serif" font-size="10.00">PerceptualColor/constpropagatinguniquepointer.h</text>
</a>
</g>
</g>
<!-- Node5&#45;&gt;Node6 -->
<g id="edge7" class="edge">
<title>Node5&#45;&gt;Node6</title>
<path fill="none" stroke="midnightblue" d="M779.57,-224.45C794.71,-217.22 813.72,-205.26 822.76,-188 833.48,-167.54 810.83,-148.52 790.56,-136.41"/>
<polygon fill="midnightblue" stroke="midnightblue" points="792.26,-133.35 781.83,-131.5 788.83,-139.46 792.26,-133.35"/>
</g>
<!-- Node8 -->
<g id="node8" class="node">
<title>Node8</title>
<g id="a_node8"><a xlink:href="abstractdiagram_8h.html" target="_top" xlink:title=" ">
<polygon fill="white" stroke="black" points="594.76,-168.5 594.76,-187.5 780.76,-187.5 780.76,-168.5 594.76,-168.5"/>
<text text-anchor="middle" x="687.76" y="-175.5" font-family="Helvetica,sans-Serif" font-size="10.00">PerceptualColor/abstractdiagram.h</text>
</a>
</g>
</g>
<!-- Node5&#45;&gt;Node8 -->
<g id="edge10" class="edge">
<title>Node5&#45;&gt;Node8</title>
<path fill="none" stroke="midnightblue" d="M746.52,-224.32C735.96,-216.18 719.96,-203.84 707.32,-194.09"/>
<polygon fill="midnightblue" stroke="midnightblue" points="709.27,-191.17 699.21,-187.83 704.99,-196.71 709.27,-191.17"/>
</g>
<!-- Node10 -->
<g id="node10" class="node">
<title>Node10</title>
<g id="a_node10"><a xlink:href="lchdouble_8h.html" target="_top" xlink:title=" ">
<polygon fill="white" stroke="black" points="271.26,-168.5 271.26,-187.5 424.26,-187.5 424.26,-168.5 271.26,-168.5"/>
<text text-anchor="middle" x="347.76" y="-175.5" font-family="Helvetica,sans-Serif" font-size="10.00">PerceptualColor/lchdouble.h</text>
</a>
</g>
</g>
<!-- Node5&#45;&gt;Node10 -->
<g id="edge14" class="edge">
<title>Node5&#45;&gt;Node10</title>
<path fill="none" stroke="midnightblue" d="M692.8,-224.44C619.32,-214.77 499.88,-199.04 422.57,-188.85"/>
<polygon fill="midnightblue" stroke="midnightblue" points="422.79,-185.35 412.42,-187.52 421.88,-192.29 422.79,-185.35"/>
</g>
<!-- Node6&#45;&gt;Node2 -->
<g id="edge8" class="edge">
<title>Node6&#45;&gt;Node2</title>
<path fill="none" stroke="midnightblue" d="M705.61,-112.44C640.11,-102.81 533.8,-87.16 464.58,-76.98"/>
<polygon fill="midnightblue" stroke="midnightblue" points="465.04,-73.51 454.64,-75.52 464.03,-80.43 465.04,-73.51"/>
</g>
<!-- Node7 -->
<g id="node7" class="node">
<title>Node7</title>
<g id="a_node7"><a xlink:title=" ">
<polygon fill="white" stroke="#bfbfbf" points="734.76,-56.5 734.76,-75.5 792.76,-75.5 792.76,-56.5 734.76,-56.5"/>
<text text-anchor="middle" x="763.76" y="-63.5" font-family="Helvetica,sans-Serif" font-size="10.00">memory</text>
</a>
</g>
</g>
<!-- Node6&#45;&gt;Node7 -->
<g id="edge9" class="edge">
<title>Node6&#45;&gt;Node7</title>
<path fill="none" stroke="midnightblue" d="M763.76,-112.08C763.76,-105.01 763.76,-94.86 763.76,-85.99"/>
<polygon fill="midnightblue" stroke="midnightblue" points="767.26,-85.75 763.76,-75.75 760.26,-85.75 767.26,-85.75"/>
</g>
<!-- Node8&#45;&gt;Node2 -->
<g id="edge11" class="edge">
<title>Node8&#45;&gt;Node2</title>
<path fill="none" stroke="midnightblue" d="M677.36,-168.47C659.92,-154.59 623.18,-127.14 587.76,-112 549.11,-95.48 503.34,-84.43 466.29,-77.42"/>
<polygon fill="midnightblue" stroke="midnightblue" points="466.56,-73.91 456.09,-75.54 465.3,-80.79 466.56,-73.91"/>
</g>
<!-- Node8&#45;&gt;Node6 -->
<g id="edge13" class="edge">
<title>Node8&#45;&gt;Node6</title>
<path fill="none" stroke="midnightblue" d="M699.97,-168.32C711.54,-160.11 729.14,-147.6 742.92,-137.81"/>
<polygon fill="midnightblue" stroke="midnightblue" points="745.2,-140.48 751.33,-131.83 741.15,-134.77 745.2,-140.48"/>
</g>
<!-- Node9 -->
<g id="node9" class="node">
<title>Node9</title>
<g id="a_node9"><a xlink:title=" ">
<polygon fill="white" stroke="#bfbfbf" points="519.26,-112.5 519.26,-131.5 578.26,-131.5 578.26,-112.5 519.26,-112.5"/>
<text text-anchor="middle" x="548.76" y="-119.5" font-family="Helvetica,sans-Serif" font-size="10.00">QWidget</text>
</a>
</g>
</g>
<!-- Node8&#45;&gt;Node9 -->
<g id="edge12" class="edge">
<title>Node8&#45;&gt;Node9</title>
<path fill="none" stroke="midnightblue" d="M665.74,-168.44C642.66,-159.48 606.2,-145.31 580.12,-135.18"/>
<polygon fill="midnightblue" stroke="midnightblue" points="581.27,-131.88 570.68,-131.52 578.74,-138.4 581.27,-131.88"/>
</g>
<!-- Node10&#45;&gt;Node2 -->
<g id="edge15" class="edge">
<title>Node10&#45;&gt;Node2</title>
<path fill="none" stroke="midnightblue" d="M348,-168.17C348.66,-155.26 351.05,-130.73 359.76,-112 364.75,-101.27 372.91,-90.95 380.3,-82.9"/>
<polygon fill="midnightblue" stroke="midnightblue" points="382.84,-85.31 387.28,-75.69 377.81,-80.44 382.84,-85.31"/>
</g>
<!-- Node11 -->
<g id="node11" class="node">
<title>Node11</title>
<g id="a_node11"><a xlink:title=" ">
<polygon fill="white" stroke="#bfbfbf" points="368.76,-112.5 368.76,-131.5 424.76,-131.5 424.76,-112.5 368.76,-112.5"/>
<text text-anchor="middle" x="396.76" y="-119.5" font-family="Helvetica,sans-Serif" font-size="10.00">QDebug</text>
</a>
</g>
</g>
<!-- Node10&#45;&gt;Node11 -->
<g id="edge16" class="edge">
<title>Node10&#45;&gt;Node11</title>
<path fill="none" stroke="midnightblue" d="M355.85,-168.08C362.92,-160.3 373.35,-148.8 381.91,-139.37"/>
<polygon fill="midnightblue" stroke="midnightblue" points="384.69,-141.51 388.82,-131.75 379.51,-136.8 384.69,-141.51"/>
</g>
<!-- Node12&#45;&gt;Node2 -->
<g id="edge18" class="edge">
<title>Node12&#45;&gt;Node2</title>
<path fill="none" stroke="midnightblue" d="M84.63,-224.11C72.43,-211.14 53.68,-186.53 65.76,-168 94.79,-123.48 241.8,-92.25 329.85,-77.21"/>
<polygon fill="midnightblue" stroke="midnightblue" points="330.47,-80.65 339.75,-75.54 329.31,-73.75 330.47,-80.65"/>
</g>
<!-- Node12&#45;&gt;Node4 -->
<g id="edge19" class="edge">
<title>Node12&#45;&gt;Node4</title>
<path fill="none" stroke="midnightblue" d="M102.18,-224.08C109.61,-216.22 120.61,-204.57 129.57,-195.08"/>
<polygon fill="midnightblue" stroke="midnightblue" points="132.18,-197.42 136.5,-187.75 127.09,-192.62 132.18,-197.42"/>
</g>
<!-- Node14&#45;&gt;Node2 -->
<g id="edge22" class="edge">
<title>Node14&#45;&gt;Node2</title>
<path fill="none" stroke="midnightblue" d="M558.27,-224.46C540.39,-204.22 493.49,-152.02 450.76,-112 439.63,-101.57 426.49,-90.6 415.97,-82.1"/>
<polygon fill="midnightblue" stroke="midnightblue" points="417.83,-79.11 407.84,-75.61 413.47,-84.58 417.83,-79.11"/>
</g>
<!-- Node14&#45;&gt;Node6 -->
<g id="edge25" class="edge">
<title>Node14&#45;&gt;Node6</title>
<path fill="none" stroke="midnightblue" d="M628.63,-224.49C691.24,-215.37 779.5,-200.52 789.76,-188 801.37,-173.83 790.3,-153.81 779.23,-139.75"/>
<polygon fill="midnightblue" stroke="midnightblue" points="781.68,-137.22 772.54,-131.86 776.34,-141.75 781.68,-137.22"/>
</g>
<!-- Node14&#45;&gt;Node8 -->
<g id="edge24" class="edge">
<title>Node14&#45;&gt;Node8</title>
<path fill="none" stroke="midnightblue" d="M585.09,-224.44C605.08,-215.6 636.5,-201.69 659.33,-191.59"/>
<polygon fill="midnightblue" stroke="midnightblue" points="660.79,-194.76 668.52,-187.52 657.96,-188.36 660.79,-194.76"/>
</g>
<!-- Node14&#45;&gt;Node9 -->
<g id="edge23" class="edge">
<title>Node14&#45;&gt;Node9</title>
<path fill="none" stroke="midnightblue" d="M564.43,-224.37C561.68,-206.62 555.36,-165.67 551.64,-141.6"/>
<polygon fill="midnightblue" stroke="midnightblue" points="555.08,-140.94 550.09,-131.59 548.16,-142.01 555.08,-140.94"/>
</g>
<!-- Node15&#45;&gt;Node2 -->
<g id="edge27" class="edge">
<title>Node15&#45;&gt;Node2</title>
<path fill="none" stroke="midnightblue" d="M405.75,-224.37C415.21,-216.17 428.2,-202.92 433.76,-188 445.57,-156.35 445.16,-143.8 433.76,-112 429.82,-101 421.9,-90.77 414.4,-82.85"/>
<polygon fill="midnightblue" stroke="midnightblue" points="416.78,-80.28 407.2,-75.76 411.87,-85.27 416.78,-80.28"/>
</g>
<!-- Node15&#45;&gt;Node4 -->
<g id="edge28" class="edge">
<title>Node15&#45;&gt;Node4</title>
<path fill="none" stroke="midnightblue" d="M355.15,-224.44C311.54,-215.02 241.36,-199.87 194.18,-189.68"/>
<polygon fill="midnightblue" stroke="midnightblue" points="194.7,-186.21 184.19,-187.52 193.23,-193.05 194.7,-186.21"/>
</g>
<!-- Node15&#45;&gt;Node6 -->
<g id="edge30" class="edge">
<title>Node15&#45;&gt;Node6</title>
<path fill="none" stroke="midnightblue" d="M417.8,-224.49C453.5,-211.45 524.47,-186.15 585.76,-168 629.76,-154.97 680.57,-142.37 716.61,-133.83"/>
<polygon fill="midnightblue" stroke="midnightblue" points="717.43,-137.23 726.36,-131.53 715.83,-130.42 717.43,-137.23"/>
</g>
<!-- Node15&#45;&gt;Node8 -->
<g id="edge29" class="edge">
<title>Node15&#45;&gt;Node8</title>
<path fill="none" stroke="midnightblue" d="M441.19,-224.44C492.84,-214.92 576.27,-199.55 631.57,-189.36"/>
<polygon fill="midnightblue" stroke="midnightblue" points="632.35,-192.77 641.55,-187.52 631.08,-185.89 632.35,-192.77"/>
</g>
<!-- Node15&#45;&gt;Node10 -->
<g id="edge31" class="edge">
<title>Node15&#45;&gt;Node10</title>
<path fill="none" stroke="midnightblue" d="M387,-224.08C380.22,-216.3 370.22,-204.8 362.01,-195.37"/>
<polygon fill="midnightblue" stroke="midnightblue" points="364.58,-193 355.38,-187.75 359.3,-197.59 364.58,-193"/>
</g>
<!-- Node16&#45;&gt;Node2 -->
<g id="edge33" class="edge">
<title>Node16&#45;&gt;Node2</title>
<path fill="none" stroke="midnightblue" d="M263.44,-224.46C258.96,-211.5 252.54,-186.42 261.76,-168 283.41,-124.76 333.33,-95.27 366.03,-79.79"/>
<polygon fill="midnightblue" stroke="midnightblue" points="367.52,-82.95 375.16,-75.61 364.61,-76.59 367.52,-82.95"/>
</g>
<!-- Node16&#45;&gt;Node4 -->
<g id="edge34" class="edge">
<title>Node16&#45;&gt;Node4</title>
<path fill="none" stroke="midnightblue" d="M247.43,-224.44C227.44,-215.6 196.02,-201.69 173.2,-191.59"/>
<polygon fill="midnightblue" stroke="midnightblue" points="174.56,-188.36 164,-187.52 171.73,-194.76 174.56,-188.36"/>
</g>
<!-- Node16&#45;&gt;Node10 -->
<g id="edge35" class="edge">
<title>Node16&#45;&gt;Node10</title>
<path fill="none" stroke="midnightblue" d="M279.78,-224.32C292.29,-215.98 311.44,-203.21 326.23,-193.35"/>
<polygon fill="midnightblue" stroke="midnightblue" points="328.4,-196.11 334.78,-187.65 324.52,-190.29 328.4,-196.11"/>
</g>
</g>
</svg>
